<svg xmlns="http://www.w3.org/2000/svg" viewBox="0 0 296 594" width="296" height="594" role="img" aria-label="Audio Cascade node">

<defs><filter id="shadow" x="-20%" y="-20%" width="140%" height="160%"><feDropShadow dx="0" dy="8" stdDeviation="9" flood-color="#000" flood-opacity="0.45"/></filter></defs>
<g transform="translate(28,24)">
<rect x="0" y="0" width="240" height="536" rx="8" fill="#1f242b" stroke="rgba(255,255,255,0.12)" filter="url(#shadow)"/>
<rect x="0" y="0" width="240" height="536" rx="8" fill="#1f242b" stroke="rgba(255,255,255,0.12)"/>
<path d="M0,32 L0,8 Q0,0 8,0 L232,0 Q240,0 240,8 L240,32 Z" fill="#33d6ff"/>
<text x="8" y="21" font-family="'Audiowide','Trebuchet MS','Arial Black',sans-serif" font-size="14" font-weight="600" fill="#000">Audio Cascade</text>
<rect x="154" y="10" width="25" height="12" rx="6" fill="rgba(0,0,0,0.14)" stroke="rgba(255,255,255,0.14)"/>
<text x="166.5" y="19" text-anchor="middle" font-family="'JetBrains Mono','Cascadia Mono','Consolas',monospace" font-size="8" letter-spacing="0.08em" fill="#000">PAT</text>
<rect x="185" y="10" width="47" height="12" rx="6" fill="rgba(0,0,0,0.14)" stroke="rgba(255,255,255,0.14)"/>
<text x="208.5" y="19" text-anchor="middle" font-family="'JetBrains Mono','Cascadia Mono','Consolas',monospace" font-size="8" letter-spacing="0.08em" fill="#000">AUD-970</text>
<rect x="8" y="40" width="224" height="224" rx="4" fill="#05070a"/>
<circle cx="15" cy="47" r="7" fill="rgb(77,54,0)" opacity="0.35"/>
<circle cx="15" cy="47" r="5.0" fill="rgb(77,54,0)"/>
<circle cx="29" cy="47" r="7" fill="rgb(50,39,0)" opacity="0.35"/>
<circle cx="29" cy="47" r="5.0" fill="rgb(50,39,0)"/>
<circle cx="43" cy="47" r="7" fill="rgb(17,71,24)" opacity="0.35"/>
<circle cx="43" cy="47" r="5.0" fill="rgb(17,71,24)"/>
<circle cx="57" cy="47" r="7" fill="rgb(24,33,5)" opacity="0.35"/>
<circle cx="57" cy="47" r="5.0" fill="rgb(24,33,5)"/>
<circle cx="71" cy="47" r="7" fill="rgb(14,17,2)" opacity="0.35"/>
<circle cx="71" cy="47" r="5.0" fill="rgb(14,17,2)"/>
<circle cx="85" cy="47" r="7" fill="rgb(10,17,4)" opacity="0.35"/>
<circle cx="85" cy="47" r="5.0" fill="rgb(10,17,4)"/>
<circle cx="99" cy="47" r="7" fill="rgb(6,17,5)" opacity="0.35"/>
<circle cx="99" cy="47" r="5.0" fill="rgb(6,17,5)"/>
<circle cx="113" cy="47" r="7" fill="rgb(0,52,45)" opacity="0.35"/>
<circle cx="113" cy="47" r="5.0" fill="rgb(0,52,45)"/>
<circle cx="127" cy="47" r="7" fill="rgb(0,44,42)" opacity="0.35"/>
<circle cx="127" cy="47" r="5.0" fill="rgb(0,44,42)"/>
<circle cx="141" cy="47" r="5.0" fill="#14171c"/>
<circle cx="155" cy="47" r="7" fill="rgb(0,17,14)" opacity="0.35"/>
<circle cx="155" cy="47" r="5.0" fill="rgb(0,17,14)"/>
<circle cx="169" cy="47" r="7" fill="rgb(0,22,22)" opacity="0.35"/>
<circle cx="169" cy="47" r="5.0" fill="rgb(0,22,22)"/>
<circle cx="183" cy="47" r="7" fill="rgb(1,36,55)" opacity="0.35"/>
<circle cx="183" cy="47" r="5.0" fill="rgb(1,36,55)"/>
<circle cx="197" cy="47" r="7" fill="rgb(11,35,82)" opacity="0.35"/>
<circle cx="197" cy="47" r="5.0" fill="rgb(11,35,82)"/>
<circle cx="211" cy="47" r="7" fill="rgb(1,14,23)" opacity="0.35"/>
<circle cx="211" cy="47" r="5.0" fill="rgb(1,14,23)"/>
<circle cx="225" cy="47" r="7" fill="rgb(1,12,21)" opacity="0.35"/>
<circle cx="225" cy="47" r="5.0" fill="rgb(1,12,21)"/>
<circle cx="15" cy="61" r="7" fill="rgb(84,67,0)" opacity="0.35"/>
<circle cx="15" cy="61" r="5.0" fill="rgb(84,67,0)"/>
<circle cx="29" cy="61" r="7" fill="rgb(18,99,35)" opacity="0.35"/>
<circle cx="29" cy="61" r="5.0" fill="rgb(18,99,35)"/>
<circle cx="43" cy="61" r="7" fill="rgb(26,39,7)" opacity="0.35"/>
<circle cx="43" cy="61" r="5.0" fill="rgb(26,39,7)"/>
<circle cx="57" cy="61" r="7" fill="rgb(13,17,3)" opacity="0.35"/>
<circle cx="57" cy="61" r="5.0" fill="rgb(13,17,3)"/>
<circle cx="71" cy="61" r="7" fill="rgb(9,17,4)" opacity="0.35"/>
<circle cx="71" cy="61" r="5.0" fill="rgb(9,17,4)"/>
<circle cx="85" cy="61" r="7" fill="rgb(5,17,5)" opacity="0.35"/>
<circle cx="85" cy="61" r="5.0" fill="rgb(5,17,5)"/>
<circle cx="99" cy="61" r="7" fill="rgb(0,52,47)" opacity="0.35"/>
<circle cx="99" cy="61" r="5.0" fill="rgb(0,52,47)"/>
<circle cx="113" cy="61" r="7" fill="rgb(0,44,44)" opacity="0.35"/>
<circle cx="113" cy="61" r="5.0" fill="rgb(0,44,44)"/>
<circle cx="127" cy="61" r="5.0" fill="#14171c"/>
<circle cx="141" cy="61" r="7" fill="rgb(0,24,21)" opacity="0.35"/>
<circle cx="141" cy="61" r="5.0" fill="rgb(0,24,21)"/>
<circle cx="155" cy="61" r="7" fill="rgb(0,29,31)" opacity="0.35"/>
<circle cx="155" cy="61" r="5.0" fill="rgb(0,29,31)"/>
<circle cx="169" cy="61" r="7" fill="rgb(2,42,67)" opacity="0.35"/>
<circle cx="169" cy="61" r="5.0" fill="rgb(2,42,67)"/>
<circle cx="183" cy="61" r="7" fill="rgb(13,37,91)" opacity="0.35"/>
<circle cx="183" cy="61" r="5.0" fill="rgb(13,37,91)"/>
<circle cx="197" cy="61" r="7" fill="rgb(1,14,23)" opacity="0.35"/>
<circle cx="197" cy="61" r="5.0" fill="rgb(1,14,23)"/>
<circle cx="211" cy="61" r="7" fill="rgb(2,12,21)" opacity="0.35"/>
<circle cx="211" cy="61" r="5.0" fill="rgb(2,12,21)"/>
<circle cx="225" cy="61" r="7" fill="rgb(2,10,21)" opacity="0.35"/>
<circle cx="225" cy="61" r="5.0" fill="rgb(2,10,21)"/>
<circle cx="15" cy="75" r="7" fill="rgb(13,112,42)" opacity="0.35"/>
<circle cx="15" cy="75" r="5.0" fill="rgb(13,112,42)"/>
<circle cx="29" cy="75" r="7" fill="rgb(35,57,12)" opacity="0.35"/>
<circle cx="29" cy="75" r="5.0" fill="rgb(35,57,12)"/>
<circle cx="43" cy="75" r="7" fill="rgb(17,25,5)" opacity="0.35"/>
<circle cx="43" cy="75" r="5.0" fill="rgb(17,25,5)"/>
<circle cx="57" cy="75" r="7" fill="rgb(8,17,4)" opacity="0.35"/>
<circle cx="57" cy="75" r="5.0" fill="rgb(8,17,4)"/>
<circle cx="71" cy="75" r="7" fill="rgb(4,17,6)" opacity="0.35"/>
<circle cx="71" cy="75" r="5.0" fill="rgb(4,17,6)"/>
<circle cx="85" cy="75" r="7" fill="rgb(0,51,50)" opacity="0.35"/>
<circle cx="85" cy="75" r="5.0" fill="rgb(0,51,50)"/>
<circle cx="99" cy="75" r="7" fill="rgb(0,44,46)" opacity="0.35"/>
<circle cx="99" cy="75" r="5.0" fill="rgb(0,44,46)"/>
<circle cx="113" cy="75" r="7" fill="rgb(0,27,20)" opacity="0.35"/>
<circle cx="113" cy="75" r="5.0" fill="rgb(0,27,20)"/>
<circle cx="127" cy="75" r="7" fill="rgb(0,38,35)" opacity="0.35"/>
<circle cx="127" cy="75" r="5.0" fill="rgb(0,38,35)"/>
<circle cx="141" cy="75" r="7" fill="rgb(0,45,51)" opacity="0.35"/>
<circle cx="141" cy="75" r="5.0" fill="rgb(0,45,51)"/>
<circle cx="155" cy="75" r="7" fill="rgb(4,57,93)" opacity="0.35"/>
<circle cx="155" cy="75" r="5.0" fill="rgb(4,57,93)"/>
<circle cx="169" cy="75" r="7" fill="rgb(19,47,121)" opacity="0.35"/>
<circle cx="169" cy="75" r="5.0" fill="rgb(19,47,121)"/>
<circle cx="183" cy="75" r="7" fill="rgb(2,26,44)" opacity="0.35"/>
<circle cx="183" cy="75" r="5.0" fill="rgb(2,26,44)"/>
<circle cx="197" cy="75" r="7" fill="rgb(2,11,21)" opacity="0.35"/>
<circle cx="197" cy="75" r="5.0" fill="rgb(2,11,21)"/>
<circle cx="211" cy="75" r="7" fill="rgb(2,10,21)" opacity="0.35"/>
<circle cx="211" cy="75" r="5.0" fill="rgb(2,10,21)"/>
<circle cx="225" cy="75" r="7" fill="rgb(6,11,32)" opacity="0.35"/>
<circle cx="225" cy="75" r="5.0" fill="rgb(6,11,32)"/>
<circle cx="15" cy="89" r="7" fill="rgb(31,56,12)" opacity="0.35"/>
<circle cx="15" cy="89" r="5.0" fill="rgb(31,56,12)"/>
<circle cx="29" cy="89" r="7" fill="rgb(16,27,5)" opacity="0.35"/>
<circle cx="29" cy="89" r="5.0" fill="rgb(16,27,5)"/>
<circle cx="43" cy="89" r="7" fill="rgb(7,17,5)" opacity="0.35"/>
<circle cx="43" cy="89" r="5.0" fill="rgb(7,17,5)"/>
<circle cx="57" cy="89" r="7" fill="rgb(3,17,6)" opacity="0.35"/>
<circle cx="57" cy="89" r="5.0" fill="rgb(3,17,6)"/>
<circle cx="71" cy="89" r="7" fill="rgb(0,51,52)" opacity="0.35"/>
<circle cx="71" cy="89" r="5.0" fill="rgb(0,51,52)"/>
<circle cx="85" cy="89" r="7" fill="rgb(0,45,49)" opacity="0.35"/>
<circle cx="85" cy="89" r="5.0" fill="rgb(0,45,49)"/>
<circle cx="99" cy="89" r="7" fill="rgb(0,31,25)" opacity="0.35"/>
<circle cx="99" cy="89" r="5.0" fill="rgb(0,31,25)"/>
<circle cx="113" cy="89" r="7" fill="rgb(0,45,44)" opacity="0.35"/>
<circle cx="113" cy="89" r="5.0" fill="rgb(0,45,44)"/>
<circle cx="127" cy="89" r="7" fill="rgb(0,57,67)" opacity="0.35"/>
<circle cx="127" cy="89" r="5.0" fill="rgb(0,57,67)"/>
<circle cx="141" cy="89" r="7" fill="rgb(6,69,117)" opacity="0.35"/>
<circle cx="141" cy="89" r="5.0" fill="rgb(6,69,117)"/>
<circle cx="155" cy="89" r="7" fill="rgb(25,56,153)" opacity="0.35"/>
<circle cx="155" cy="89" r="5.0" fill="rgb(25,56,153)"/>
<circle cx="169" cy="89" r="7" fill="rgb(5,47,83)" opacity="0.35"/>
<circle cx="169" cy="89" r="5.0" fill="rgb(5,47,83)"/>
<circle cx="183" cy="89" r="7" fill="rgb(6,31,61)" opacity="0.35"/>
<circle cx="183" cy="89" r="5.0" fill="rgb(6,31,61)"/>
<circle cx="197" cy="89" r="7" fill="rgb(4,14,33)" opacity="0.35"/>
<circle cx="197" cy="89" r="5.0" fill="rgb(4,14,33)"/>
<circle cx="211" cy="89" r="7" fill="rgb(6,10,32)" opacity="0.35"/>
<circle cx="211" cy="89" r="5.0" fill="rgb(6,10,32)"/>
<circle cx="225" cy="89" r="7" fill="rgb(75,3,94)" opacity="0.35"/>
<circle cx="225" cy="89" r="5.0" fill="rgb(75,3,94)"/>
<circle cx="15" cy="103" r="7" fill="rgb(10,17,4)" opacity="0.35"/>
<circle cx="15" cy="103" r="5.0" fill="rgb(10,17,4)"/>
<circle cx="29" cy="103" r="7" fill="rgb(6,17,5)" opacity="0.35"/>
<circle cx="29" cy="103" r="5.0" fill="rgb(6,17,5)"/>
<circle cx="43" cy="103" r="7" fill="rgb(2,17,6)" opacity="0.35"/>
<circle cx="43" cy="103" r="5.0" fill="rgb(2,17,6)"/>
<circle cx="57" cy="103" r="7" fill="rgb(0,51,54)" opacity="0.35"/>
<circle cx="57" cy="103" r="5.0" fill="rgb(0,51,54)"/>
<circle cx="71" cy="103" r="7" fill="rgb(0,43,50)" opacity="0.35"/>
<circle cx="71" cy="103" r="5.0" fill="rgb(0,43,50)"/>
<circle cx="85" cy="103" r="7" fill="rgb(0,17,15)" opacity="0.35"/>
<circle cx="85" cy="103" r="5.0" fill="rgb(0,17,15)"/>
<circle cx="99" cy="103" r="7" fill="rgb(0,35,36)" opacity="0.35"/>
<circle cx="99" cy="103" r="5.0" fill="rgb(0,35,36)"/>
<circle cx="113" cy="103" r="7" fill="rgb(0,52,64)" opacity="0.35"/>
<circle cx="113" cy="103" r="5.0" fill="rgb(0,52,64)"/>
<circle cx="127" cy="103" r="7" fill="rgb(7,69,121)" opacity="0.35"/>
<circle cx="127" cy="103" r="5.0" fill="rgb(7,69,121)"/>
<circle cx="141" cy="103" r="7" fill="rgb(29,58,169)" opacity="0.35"/>
<circle cx="141" cy="103" r="5.0" fill="rgb(29,58,169)"/>
<circle cx="155" cy="103" r="7" fill="rgb(8,61,111)" opacity="0.35"/>
<circle cx="155" cy="103" r="5.0" fill="rgb(8,61,111)"/>
<circle cx="169" cy="103" r="7" fill="rgb(10,48,98)" opacity="0.35"/>
<circle cx="169" cy="103" r="5.0" fill="rgb(10,48,98)"/>
<circle cx="183" cy="103" r="7" fill="rgb(10,32,77)" opacity="0.35"/>
<circle cx="183" cy="103" r="5.0" fill="rgb(10,32,77)"/>
<circle cx="197" cy="103" r="7" fill="rgb(12,18,59)" opacity="0.35"/>
<circle cx="197" cy="103" r="5.0" fill="rgb(12,18,59)"/>
<circle cx="211" cy="103" r="7" fill="rgb(78,1,94)" opacity="0.35"/>
<circle cx="211" cy="103" r="5.0" fill="rgb(78,1,94)"/>
<circle cx="225" cy="103" r="7" fill="rgb(10,6,26)" opacity="0.35"/>
<circle cx="225" cy="103" r="5.0" fill="rgb(10,6,26)"/>
<circle cx="15" cy="117" r="7" fill="rgb(5,17,5)" opacity="0.35"/>
<circle cx="15" cy="117" r="5.0" fill="rgb(5,17,5)"/>
<circle cx="29" cy="117" r="7" fill="rgb(1,17,7)" opacity="0.35"/>
<circle cx="29" cy="117" r="5.0" fill="rgb(1,17,7)"/>
<circle cx="43" cy="117" r="7" fill="rgb(0,50,57)" opacity="0.35"/>
<circle cx="43" cy="117" r="5.0" fill="rgb(0,50,57)"/>
<circle cx="57" cy="117" r="7" fill="rgb(0,43,52)" opacity="0.35"/>
<circle cx="57" cy="117" r="5.0" fill="rgb(0,43,52)"/>
<circle cx="71" cy="117" r="5.0" fill="#14171c"/>
<circle cx="85" cy="117" r="7" fill="rgb(0,15,17)" opacity="0.35"/>
<circle cx="85" cy="117" r="5.0" fill="rgb(0,15,17)"/>
<circle cx="99" cy="117" r="7" fill="rgb(0,29,38)" opacity="0.35"/>
<circle cx="99" cy="117" r="5.0" fill="rgb(0,29,38)"/>
<circle cx="113" cy="117" r="7" fill="rgb(6,54,97)" opacity="0.35"/>
<circle cx="113" cy="117" r="5.0" fill="rgb(6,54,97)"/>
<circle cx="127" cy="117" r="7" fill="rgb(28,51,156)" opacity="0.35"/>
<circle cx="127" cy="117" r="5.0" fill="rgb(28,51,156)"/>
<circle cx="141" cy="117" r="7" fill="rgb(9,59,111)" opacity="0.35"/>
<circle cx="141" cy="117" r="5.0" fill="rgb(9,59,111)"/>
<circle cx="155" cy="117" r="7" fill="rgb(12,52,112)" opacity="0.35"/>
<circle cx="155" cy="117" r="5.0" fill="rgb(12,52,112)"/>
<circle cx="169" cy="117" r="7" fill="rgb(15,41,102)" opacity="0.35"/>
<circle cx="169" cy="117" r="5.0" fill="rgb(15,41,102)"/>
<circle cx="183" cy="117" r="7" fill="rgb(22,27,93)" opacity="0.35"/>
<circle cx="183" cy="117" r="5.0" fill="rgb(22,27,93)"/>
<circle cx="197" cy="117" r="7" fill="rgb(132,1,0)" opacity="0.35"/>
<circle cx="197" cy="117" r="5.0" fill="rgb(132,1,0)"/>
<circle cx="211" cy="117" r="7" fill="rgb(15,7,35)" opacity="0.35"/>
<circle cx="211" cy="117" r="5.0" fill="rgb(15,7,35)"/>
<circle cx="225" cy="117" r="7" fill="rgb(11,3,21)" opacity="0.35"/>
<circle cx="225" cy="117" r="5.0" fill="rgb(11,3,21)"/>
<circle cx="15" cy="131" r="7" fill="rgb(0,17,7)" opacity="0.35"/>
<circle cx="15" cy="131" r="5.0" fill="rgb(0,17,7)"/>
<circle cx="29" cy="131" r="7" fill="rgb(0,50,59)" opacity="0.35"/>
<circle cx="29" cy="131" r="5.0" fill="rgb(0,50,59)"/>
<circle cx="43" cy="131" r="7" fill="rgb(0,43,54)" opacity="0.35"/>
<circle cx="43" cy="131" r="5.0" fill="rgb(0,43,54)"/>
<circle cx="57" cy="131" r="5.0" fill="#14171c"/>
<circle cx="71" cy="131" r="7" fill="rgb(0,15,18)" opacity="0.35"/>
<circle cx="71" cy="131" r="5.0" fill="rgb(0,15,18)"/>
<circle cx="85" cy="131" r="7" fill="rgb(0,15,20)" opacity="0.35"/>
<circle cx="85" cy="131" r="5.0" fill="rgb(0,15,20)"/>
<circle cx="99" cy="131" r="7" fill="rgb(4,28,53)" opacity="0.35"/>
<circle cx="99" cy="131" r="5.0" fill="rgb(4,28,53)"/>
<circle cx="113" cy="131" r="7" fill="rgb(22,37,118)" opacity="0.35"/>
<circle cx="113" cy="131" r="5.0" fill="rgb(22,37,118)"/>
<circle cx="127" cy="131" r="7" fill="rgb(7,43,83)" opacity="0.35"/>
<circle cx="127" cy="131" r="5.0" fill="rgb(7,43,83)"/>
<circle cx="141" cy="131" r="7" fill="rgb(11,43,96)" opacity="0.35"/>
<circle cx="141" cy="131" r="5.0" fill="rgb(11,43,96)"/>
<circle cx="155" cy="131" r="7" fill="rgb(15,38,99)" opacity="0.35"/>
<circle cx="155" cy="131" r="5.0" fill="rgb(15,38,99)"/>
<circle cx="169" cy="131" r="7" fill="rgb(27,28,101)" opacity="0.35"/>
<circle cx="169" cy="131" r="5.0" fill="rgb(27,28,101)"/>
<circle cx="183" cy="131" r="7" fill="rgb(149,5,0)" opacity="0.35"/>
<circle cx="183" cy="131" r="5.0" fill="rgb(149,5,0)"/>
<circle cx="197" cy="131" r="7" fill="rgb(26,10,57)" opacity="0.35"/>
<circle cx="197" cy="131" r="5.0" fill="rgb(26,10,57)"/>
<circle cx="211" cy="131" r="7" fill="rgb(17,5,31)" opacity="0.35"/>
<circle cx="211" cy="131" r="5.0" fill="rgb(17,5,31)"/>
<circle cx="225" cy="131" r="7" fill="rgb(14,2,21)" opacity="0.35"/>
<circle cx="225" cy="131" r="5.0" fill="rgb(14,2,21)"/>
<circle cx="15" cy="145" r="7" fill="rgb(0,49,61)" opacity="0.35"/>
<circle cx="15" cy="145" r="5.0" fill="rgb(0,49,61)"/>
<circle cx="29" cy="145" r="7" fill="rgb(0,43,56)" opacity="0.35"/>
<circle cx="29" cy="145" r="5.0" fill="rgb(0,43,56)"/>
<circle cx="43" cy="145" r="5.0" fill="#14171c"/>
<circle cx="57" cy="145" r="7" fill="rgb(0,15,18)" opacity="0.35"/>
<circle cx="57" cy="145" r="5.0" fill="rgb(0,15,18)"/>
<circle cx="71" cy="145" r="7" fill="rgb(0,15,21)" opacity="0.35"/>
<circle cx="71" cy="145" r="5.0" fill="rgb(0,15,21)"/>
<circle cx="85" cy="145" r="7" fill="rgb(4,25,48)" opacity="0.35"/>
<circle cx="85" cy="145" r="5.0" fill="rgb(4,25,48)"/>
<circle cx="99" cy="145" r="7" fill="rgb(19,24,82)" opacity="0.35"/>
<circle cx="99" cy="145" r="5.0" fill="rgb(19,24,82)"/>
<circle cx="113" cy="145" r="7" fill="rgb(4,20,40)" opacity="0.35"/>
<circle cx="113" cy="145" r="5.0" fill="rgb(4,20,40)"/>
<circle cx="127" cy="145" r="7" fill="rgb(8,26,61)" opacity="0.35"/>
<circle cx="127" cy="145" r="5.0" fill="rgb(8,26,61)"/>
<circle cx="141" cy="145" r="7" fill="rgb(12,26,73)" opacity="0.35"/>
<circle cx="141" cy="145" r="5.0" fill="rgb(12,26,73)"/>
<circle cx="155" cy="145" r="7" fill="rgb(26,22,84)" opacity="0.35"/>
<circle cx="155" cy="145" r="5.0" fill="rgb(26,22,84)"/>
<circle cx="169" cy="145" r="7" fill="rgb(141,8,0)" opacity="0.35"/>
<circle cx="169" cy="145" r="5.0" fill="rgb(141,8,0)"/>
<circle cx="183" cy="145" r="7" fill="rgb(27,9,55)" opacity="0.35"/>
<circle cx="183" cy="145" r="5.0" fill="rgb(27,9,55)"/>
<circle cx="197" cy="145" r="7" fill="rgb(19,4,33)" opacity="0.35"/>
<circle cx="197" cy="145" r="5.0" fill="rgb(19,4,33)"/>
<circle cx="211" cy="145" r="7" fill="rgb(15,2,21)" opacity="0.35"/>
<circle cx="211" cy="145" r="5.0" fill="rgb(15,2,21)"/>
<circle cx="225" cy="145" r="7" fill="rgb(20,0,24)" opacity="0.35"/>
<circle cx="225" cy="145" r="5.0" fill="rgb(20,0,24)"/>
<circle cx="15" cy="159" r="7" fill="rgb(0,42,58)" opacity="0.35"/>
<circle cx="15" cy="159" r="5.0" fill="rgb(0,42,58)"/>
<circle cx="29" cy="159" r="7" fill="rgb(0,16,17)" opacity="0.35"/>
<circle cx="29" cy="159" r="5.0" fill="rgb(0,16,17)"/>
<circle cx="43" cy="159" r="7" fill="rgb(0,15,19)" opacity="0.35"/>
<circle cx="43" cy="159" r="5.0" fill="rgb(0,15,19)"/>
<circle cx="57" cy="159" r="7" fill="rgb(0,15,21)" opacity="0.35"/>
<circle cx="57" cy="159" r="5.0" fill="rgb(0,15,21)"/>
<circle cx="71" cy="159" r="7" fill="rgb(5,24,48)" opacity="0.35"/>
<circle cx="71" cy="159" r="5.0" fill="rgb(5,24,48)"/>
<circle cx="85" cy="159" r="7" fill="rgb(21,23,82)" opacity="0.35"/>
<circle cx="85" cy="159" r="5.0" fill="rgb(21,23,82)"/>
<circle cx="99" cy="159" r="7" fill="rgb(2,11,22)" opacity="0.35"/>
<circle cx="99" cy="159" r="5.0" fill="rgb(2,11,22)"/>
<circle cx="113" cy="159" r="7" fill="rgb(4,11,26)" opacity="0.35"/>
<circle cx="113" cy="159" r="5.0" fill="rgb(4,11,26)"/>
<circle cx="127" cy="159" r="7" fill="rgb(7,14,42)" opacity="0.35"/>
<circle cx="127" cy="159" r="5.0" fill="rgb(7,14,42)"/>
<circle cx="141" cy="159" r="7" fill="rgb(20,14,59)" opacity="0.35"/>
<circle cx="141" cy="159" r="5.0" fill="rgb(20,14,59)"/>
<circle cx="155" cy="159" r="7" fill="rgb(120,9,0)" opacity="0.35"/>
<circle cx="155" cy="159" r="5.0" fill="rgb(120,9,0)"/>
<circle cx="169" cy="159" r="7" fill="rgb(20,6,38)" opacity="0.35"/>
<circle cx="169" cy="159" r="5.0" fill="rgb(20,6,38)"/>
<circle cx="183" cy="159" r="7" fill="rgb(13,2,21)" opacity="0.35"/>
<circle cx="183" cy="159" r="5.0" fill="rgb(13,2,21)"/>
<circle cx="197" cy="159" r="7" fill="rgb(15,1,21)" opacity="0.35"/>
<circle cx="197" cy="159" r="5.0" fill="rgb(15,1,21)"/>
<circle cx="211" cy="159" r="7" fill="rgb(25,0,0)" opacity="0.35"/>
<circle cx="211" cy="159" r="5.0" fill="rgb(25,0,0)"/>
<circle cx="225" cy="159" r="7" fill="rgb(93,45,0)" opacity="0.35"/>
<circle cx="225" cy="159" r="5.0" fill="rgb(93,45,0)"/>
<circle cx="15" cy="173" r="7" fill="rgb(0,15,17)" opacity="0.35"/>
<circle cx="15" cy="173" r="5.0" fill="rgb(0,15,17)"/>
<circle cx="29" cy="173" r="7" fill="rgb(0,15,20)" opacity="0.35"/>
<circle cx="29" cy="173" r="5.0" fill="rgb(0,15,20)"/>
<circle cx="43" cy="173" r="7" fill="rgb(0,14,21)" opacity="0.35"/>
<circle cx="43" cy="173" r="5.0" fill="rgb(0,14,21)"/>
<circle cx="57" cy="173" r="7" fill="rgb(5,23,48)" opacity="0.35"/>
<circle cx="57" cy="173" r="5.0" fill="rgb(5,23,48)"/>
<circle cx="71" cy="173" r="7" fill="rgb(24,22,82)" opacity="0.35"/>
<circle cx="71" cy="173" r="5.0" fill="rgb(24,22,82)"/>
<circle cx="85" cy="173" r="7" fill="rgb(3,10,22)" opacity="0.35"/>
<circle cx="85" cy="173" r="5.0" fill="rgb(3,10,22)"/>
<circle cx="99" cy="173" r="7" fill="rgb(3,8,21)" opacity="0.35"/>
<circle cx="99" cy="173" r="5.0" fill="rgb(3,8,21)"/>
<circle cx="113" cy="173" r="7" fill="rgb(4,8,24)" opacity="0.35"/>
<circle cx="113" cy="173" r="5.0" fill="rgb(4,8,24)"/>
<circle cx="127" cy="173" r="7" fill="rgb(15,9,42)" opacity="0.35"/>
<circle cx="127" cy="173" r="5.0" fill="rgb(15,9,42)"/>
<circle cx="141" cy="173" r="7" fill="rgb(105,11,0)" opacity="0.35"/>
<circle cx="141" cy="173" r="5.0" fill="rgb(105,11,0)"/>
<circle cx="155" cy="173" r="7" fill="rgb(15,4,26)" opacity="0.35"/>
<circle cx="155" cy="173" r="5.0" fill="rgb(15,4,26)"/>
<circle cx="169" cy="173" r="7" fill="rgb(14,2,21)" opacity="0.35"/>
<circle cx="169" cy="173" r="5.0" fill="rgb(14,2,21)"/>
<circle cx="183" cy="173" r="7" fill="rgb(16,1,21)" opacity="0.35"/>
<circle cx="183" cy="173" r="5.0" fill="rgb(16,1,21)"/>
<circle cx="197" cy="173" r="7" fill="rgb(25,1,0)" opacity="0.35"/>
<circle cx="197" cy="173" r="5.0" fill="rgb(25,1,0)"/>
<circle cx="211" cy="173" r="7" fill="rgb(93,47,0)" opacity="0.35"/>
<circle cx="211" cy="173" r="5.0" fill="rgb(93,47,0)"/>
<circle cx="225" cy="173" r="7" fill="rgb(37,10,0)" opacity="0.35"/>
<circle cx="225" cy="173" r="5.0" fill="rgb(37,10,0)"/>
<circle cx="15" cy="187" r="7" fill="rgb(0,15,20)" opacity="0.35"/>
<circle cx="15" cy="187" r="5.0" fill="rgb(0,15,20)"/>
<circle cx="29" cy="187" r="7" fill="rgb(1,14,21)" opacity="0.35"/>
<circle cx="29" cy="187" r="5.0" fill="rgb(1,14,21)"/>
<circle cx="43" cy="187" r="7" fill="rgb(5,22,48)" opacity="0.35"/>
<circle cx="43" cy="187" r="5.0" fill="rgb(5,22,48)"/>
<circle cx="57" cy="187" r="7" fill="rgb(26,20,82)" opacity="0.35"/>
<circle cx="57" cy="187" r="5.0" fill="rgb(26,20,82)"/>
<circle cx="71" cy="187" r="7" fill="rgb(3,10,22)" opacity="0.35"/>
<circle cx="71" cy="187" r="5.0" fill="rgb(3,10,22)"/>
<circle cx="85" cy="187" r="7" fill="rgb(3,8,21)" opacity="0.35"/>
<circle cx="85" cy="187" r="5.0" fill="rgb(3,8,21)"/>
<circle cx="99" cy="187" r="7" fill="rgb(5,8,27)" opacity="0.35"/>
<circle cx="99" cy="187" r="5.0" fill="rgb(5,8,27)"/>
<circle cx="113" cy="187" r="7" fill="rgb(18,9,45)" opacity="0.35"/>
<circle cx="113" cy="187" r="5.0" fill="rgb(18,9,45)"/>
<circle cx="127" cy="187" r="7" fill="rgb(109,14,0)" opacity="0.35"/>
<circle cx="127" cy="187" r="5.0" fill="rgb(109,14,0)"/>
<circle cx="141" cy="187" r="7" fill="rgb(17,3,28)" opacity="0.35"/>
<circle cx="141" cy="187" r="5.0" fill="rgb(17,3,28)"/>
<circle cx="155" cy="187" r="7" fill="rgb(14,2,21)" opacity="0.35"/>
<circle cx="155" cy="187" r="5.0" fill="rgb(14,2,21)"/>
<circle cx="169" cy="187" r="7" fill="rgb(17,1,21)" opacity="0.35"/>
<circle cx="169" cy="187" r="5.0" fill="rgb(17,1,21)"/>
<circle cx="183" cy="187" r="7" fill="rgb(25,2,0)" opacity="0.35"/>
<circle cx="183" cy="187" r="5.0" fill="rgb(25,2,0)"/>
<circle cx="197" cy="187" r="7" fill="rgb(93,49,0)" opacity="0.35"/>
<circle cx="197" cy="187" r="5.0" fill="rgb(93,49,0)"/>
<circle cx="211" cy="187" r="7" fill="rgb(37,11,0)" opacity="0.35"/>
<circle cx="211" cy="187" r="5.0" fill="rgb(37,11,0)"/>
<circle cx="225" cy="187" r="7" fill="rgb(21,6,0)" opacity="0.35"/>
<circle cx="225" cy="187" r="5.0" fill="rgb(21,6,0)"/>
<circle cx="15" cy="201" r="7" fill="rgb(1,13,21)" opacity="0.35"/>
<circle cx="15" cy="201" r="5.0" fill="rgb(1,13,21)"/>
<circle cx="29" cy="201" r="7" fill="rgb(6,21,48)" opacity="0.35"/>
<circle cx="29" cy="201" r="5.0" fill="rgb(6,21,48)"/>
<circle cx="43" cy="201" r="7" fill="rgb(29,19,82)" opacity="0.35"/>
<circle cx="43" cy="201" r="5.0" fill="rgb(29,19,82)"/>
<circle cx="57" cy="201" r="7" fill="rgb(3,9,22)" opacity="0.35"/>
<circle cx="57" cy="201" r="5.0" fill="rgb(3,9,22)"/>
<circle cx="71" cy="201" r="7" fill="rgb(5,11,30)" opacity="0.35"/>
<circle cx="71" cy="201" r="5.0" fill="rgb(5,11,30)"/>
<circle cx="85" cy="201" r="7" fill="rgb(10,13,44)" opacity="0.35"/>
<circle cx="85" cy="201" r="5.0" fill="rgb(10,13,44)"/>
<circle cx="99" cy="201" r="7" fill="rgb(28,13,65)" opacity="0.35"/>
<circle cx="99" cy="201" r="5.0" fill="rgb(28,13,65)"/>
<circle cx="113" cy="201" r="7" fill="rgb(131,20,0)" opacity="0.35"/>
<circle cx="113" cy="201" r="5.0" fill="rgb(131,20,0)"/>
<circle cx="127" cy="201" r="7" fill="rgb(33,5,52)" opacity="0.35"/>
<circle cx="127" cy="201" r="5.0" fill="rgb(33,5,52)"/>
<circle cx="141" cy="201" r="7" fill="rgb(21,2,29)" opacity="0.35"/>
<circle cx="141" cy="201" r="5.0" fill="rgb(21,2,29)"/>
<circle cx="155" cy="201" r="7" fill="rgb(17,0,21)" opacity="0.35"/>
<circle cx="155" cy="201" r="5.0" fill="rgb(17,0,21)"/>
<circle cx="169" cy="201" r="7" fill="rgb(25,2,0)" opacity="0.35"/>
<circle cx="169" cy="201" r="5.0" fill="rgb(25,2,0)"/>
<circle cx="183" cy="201" r="7" fill="rgb(93,50,0)" opacity="0.35"/>
<circle cx="183" cy="201" r="5.0" fill="rgb(93,50,0)"/>
<circle cx="197" cy="201" r="7" fill="rgb(37,12,0)" opacity="0.35"/>
<circle cx="197" cy="201" r="5.0" fill="rgb(37,12,0)"/>
<circle cx="211" cy="201" r="7" fill="rgb(21,7,0)" opacity="0.35"/>
<circle cx="211" cy="201" r="5.0" fill="rgb(21,7,0)"/>
<circle cx="225" cy="201" r="7" fill="rgb(21,9,0)" opacity="0.35"/>
<circle cx="225" cy="201" r="5.0" fill="rgb(21,9,0)"/>
<circle cx="15" cy="215" r="7" fill="rgb(6,20,48)" opacity="0.35"/>
<circle cx="15" cy="215" r="5.0" fill="rgb(6,20,48)"/>
<circle cx="29" cy="215" r="7" fill="rgb(32,18,82)" opacity="0.35"/>
<circle cx="29" cy="215" r="5.0" fill="rgb(32,18,82)"/>
<circle cx="43" cy="215" r="7" fill="rgb(4,10,26)" opacity="0.35"/>
<circle cx="43" cy="215" r="5.0" fill="rgb(4,10,26)"/>
<circle cx="57" cy="215" r="7" fill="rgb(7,14,41)" opacity="0.35"/>
<circle cx="57" cy="215" r="5.0" fill="rgb(7,14,41)"/>
<circle cx="71" cy="215" r="7" fill="rgb(16,16,59)" opacity="0.35"/>
<circle cx="71" cy="215" r="5.0" fill="rgb(16,16,59)"/>
<circle cx="85" cy="215" r="7" fill="rgb(40,16,85)" opacity="0.35"/>
<circle cx="85" cy="215" r="5.0" fill="rgb(40,16,85)"/>
<circle cx="99" cy="215" r="7" fill="rgb(159,27,0)" opacity="0.35"/>
<circle cx="99" cy="215" r="5.0" fill="rgb(159,27,0)"/>
<circle cx="113" cy="215" r="7" fill="rgb(57,8,85)" opacity="0.35"/>
<circle cx="113" cy="215" r="5.0" fill="rgb(57,8,85)"/>
<circle cx="127" cy="215" r="7" fill="rgb(50,4,67)" opacity="0.35"/>
<circle cx="127" cy="215" r="5.0" fill="rgb(50,4,67)"/>
<circle cx="141" cy="215" r="7" fill="rgb(46,0,0)" opacity="0.35"/>
<circle cx="141" cy="215" r="5.0" fill="rgb(46,0,0)"/>
<circle cx="155" cy="215" r="7" fill="rgb(25,3,0)" opacity="0.35"/>
<circle cx="155" cy="215" r="5.0" fill="rgb(25,3,0)"/>
<circle cx="169" cy="215" r="7" fill="rgb(93,52,0)" opacity="0.35"/>
<circle cx="169" cy="215" r="5.0" fill="rgb(93,52,0)"/>
<circle cx="183" cy="215" r="7" fill="rgb(37,13,0)" opacity="0.35"/>
<circle cx="183" cy="215" r="5.0" fill="rgb(37,13,0)"/>
<circle cx="197" cy="215" r="7" fill="rgb(21,8,0)" opacity="0.35"/>
<circle cx="197" cy="215" r="5.0" fill="rgb(21,8,0)"/>
<circle cx="211" cy="215" r="7" fill="rgb(21,9,0)" opacity="0.35"/>
<circle cx="211" cy="215" r="5.0" fill="rgb(21,9,0)"/>
<circle cx="225" cy="215" r="7" fill="rgb(22,11,0)" opacity="0.35"/>
<circle cx="225" cy="215" r="5.0" fill="rgb(22,11,0)"/>
<circle cx="15" cy="229" r="7" fill="rgb(34,17,82)" opacity="0.35"/>
<circle cx="15" cy="229" r="5.0" fill="rgb(34,17,82)"/>
<circle cx="29" cy="229" r="7" fill="rgb(3,9,22)" opacity="0.35"/>
<circle cx="29" cy="229" r="5.0" fill="rgb(3,9,22)"/>
<circle cx="43" cy="229" r="7" fill="rgb(6,10,32)" opacity="0.35"/>
<circle cx="43" cy="229" r="5.0" fill="rgb(6,10,32)"/>
<circle cx="57" cy="229" r="7" fill="rgb(16,14,55)" opacity="0.35"/>
<circle cx="57" cy="229" r="5.0" fill="rgb(16,14,55)"/>
<circle cx="71" cy="229" r="7" fill="rgb(44,15,88)" opacity="0.35"/>
<circle cx="71" cy="229" r="5.0" fill="rgb(44,15,88)"/>
<circle cx="85" cy="229" r="7" fill="rgb(171,34,0)" opacity="0.35"/>
<circle cx="85" cy="229" r="5.0" fill="rgb(171,34,0)"/>
<circle cx="99" cy="229" r="7" fill="rgb(75,8,108)" opacity="0.35"/>
<circle cx="99" cy="229" r="5.0" fill="rgb(75,8,108)"/>
<circle cx="113" cy="229" r="7" fill="rgb(78,4,100)" opacity="0.35"/>
<circle cx="113" cy="229" r="5.0" fill="rgb(78,4,100)"/>
<circle cx="127" cy="229" r="7" fill="rgb(88,3,0)" opacity="0.35"/>
<circle cx="127" cy="229" r="5.0" fill="rgb(88,3,0)"/>
<circle cx="141" cy="229" r="7" fill="rgb(66,9,0)" opacity="0.35"/>
<circle cx="141" cy="229" r="5.0" fill="rgb(66,9,0)"/>
<circle cx="155" cy="229" r="7" fill="rgb(104,60,0)" opacity="0.35"/>
<circle cx="155" cy="229" r="5.0" fill="rgb(104,60,0)"/>
<circle cx="169" cy="229" r="7" fill="rgb(37,14,0)" opacity="0.35"/>
<circle cx="169" cy="229" r="5.0" fill="rgb(37,14,0)"/>
<circle cx="183" cy="229" r="7" fill="rgb(21,8,0)" opacity="0.35"/>
<circle cx="183" cy="229" r="5.0" fill="rgb(21,8,0)"/>
<circle cx="197" cy="229" r="7" fill="rgb(21,10,0)" opacity="0.35"/>
<circle cx="197" cy="229" r="5.0" fill="rgb(21,10,0)"/>
<circle cx="211" cy="229" r="7" fill="rgb(22,12,0)" opacity="0.35"/>
<circle cx="211" cy="229" r="5.0" fill="rgb(22,12,0)"/>
<circle cx="225" cy="229" r="7" fill="rgb(75,62,0)" opacity="0.35"/>
<circle cx="225" cy="229" r="5.0" fill="rgb(75,62,0)"/>
<circle cx="15" cy="243" r="7" fill="rgb(4,8,22)" opacity="0.35"/>
<circle cx="15" cy="243" r="5.0" fill="rgb(4,8,22)"/>
<circle cx="29" cy="243" r="7" fill="rgb(5,6,21)" opacity="0.35"/>
<circle cx="29" cy="243" r="5.0" fill="rgb(5,6,21)"/>
<circle cx="43" cy="243" r="7" fill="rgb(8,6,26)" opacity="0.35"/>
<circle cx="43" cy="243" r="5.0" fill="rgb(8,6,26)"/>
<circle cx="57" cy="243" r="7" fill="rgb(34,10,65)" opacity="0.35"/>
<circle cx="57" cy="243" r="5.0" fill="rgb(34,10,65)"/>
<circle cx="71" cy="243" r="7" fill="rgb(157,34,0)" opacity="0.35"/>
<circle cx="71" cy="243" r="5.0" fill="rgb(157,34,0)"/>
<circle cx="85" cy="243" r="7" fill="rgb(77,6,106)" opacity="0.35"/>
<circle cx="85" cy="243" r="5.0" fill="rgb(77,6,106)"/>
<circle cx="99" cy="243" r="7" fill="rgb(90,2,110)" opacity="0.35"/>
<circle cx="99" cy="243" r="5.0" fill="rgb(90,2,110)"/>
<circle cx="113" cy="243" r="7" fill="rgb(111,6,0)" opacity="0.35"/>
<circle cx="113" cy="243" r="5.0" fill="rgb(111,6,0)"/>
<circle cx="127" cy="243" r="7" fill="rgb(100,16,0)" opacity="0.35"/>
<circle cx="127" cy="243" r="5.0" fill="rgb(100,16,0)"/>
<circle cx="141" cy="243" r="7" fill="rgb(145,87,0)" opacity="0.35"/>
<circle cx="141" cy="243" r="5.0" fill="rgb(145,87,0)"/>
<circle cx="155" cy="243" r="7" fill="rgb(61,24,0)" opacity="0.35"/>
<circle cx="155" cy="243" r="5.0" fill="rgb(61,24,0)"/>
<circle cx="169" cy="243" r="7" fill="rgb(21,9,0)" opacity="0.35"/>
<circle cx="169" cy="243" r="5.0" fill="rgb(21,9,0)"/>
<circle cx="183" cy="243" r="7" fill="rgb(21,10,0)" opacity="0.35"/>
<circle cx="183" cy="243" r="5.0" fill="rgb(21,10,0)"/>
<circle cx="197" cy="243" r="7" fill="rgb(22,12,0)" opacity="0.35"/>
<circle cx="197" cy="243" r="5.0" fill="rgb(22,12,0)"/>
<circle cx="211" cy="243" r="7" fill="rgb(74,63,0)" opacity="0.35"/>
<circle cx="211" cy="243" r="5.0" fill="rgb(74,63,0)"/>
<circle cx="225" cy="243" r="7" fill="rgb(55,45,0)" opacity="0.35"/>
<circle cx="225" cy="243" r="5.0" fill="rgb(55,45,0)"/>
<circle cx="15" cy="257" r="7" fill="rgb(5,6,21)" opacity="0.35"/>
<circle cx="15" cy="257" r="5.0" fill="rgb(5,6,21)"/>
<circle cx="29" cy="257" r="7" fill="rgb(8,5,21)" opacity="0.35"/>
<circle cx="29" cy="257" r="5.0" fill="rgb(8,5,21)"/>
<circle cx="43" cy="257" r="7" fill="rgb(18,4,32)" opacity="0.35"/>
<circle cx="43" cy="257" r="5.0" fill="rgb(18,4,32)"/>
<circle cx="57" cy="257" r="7" fill="rgb(118,29,0)" opacity="0.35"/>
<circle cx="57" cy="257" r="5.0" fill="rgb(118,29,0)"/>
<circle cx="71" cy="257" r="7" fill="rgb(58,3,76)" opacity="0.35"/>
<circle cx="71" cy="257" r="5.0" fill="rgb(58,3,76)"/>
<circle cx="85" cy="257" r="7" fill="rgb(77,0,92)" opacity="0.35"/>
<circle cx="85" cy="257" r="5.0" fill="rgb(77,0,92)"/>
<circle cx="99" cy="257" r="7" fill="rgb(105,8,0)" opacity="0.35"/>
<circle cx="99" cy="257" r="5.0" fill="rgb(105,8,0)"/>
<circle cx="113" cy="257" r="7" fill="rgb(107,20,0)" opacity="0.35"/>
<circle cx="113" cy="257" r="5.0" fill="rgb(107,20,0)"/>
<circle cx="127" cy="257" r="7" fill="rgb(163,100,0)" opacity="0.35"/>
<circle cx="127" cy="257" r="5.0" fill="rgb(163,100,0)"/>
<circle cx="141" cy="257" r="7" fill="rgb(87,37,0)" opacity="0.35"/>
<circle cx="141" cy="257" r="5.0" fill="rgb(87,37,0)"/>
<circle cx="155" cy="257" r="7" fill="rgb(47,20,0)" opacity="0.35"/>
<circle cx="155" cy="257" r="5.0" fill="rgb(47,20,0)"/>
<circle cx="169" cy="257" r="7" fill="rgb(25,13,0)" opacity="0.35"/>
<circle cx="169" cy="257" r="5.0" fill="rgb(25,13,0)"/>
<circle cx="183" cy="257" r="7" fill="rgb(22,13,0)" opacity="0.35"/>
<circle cx="183" cy="257" r="5.0" fill="rgb(22,13,0)"/>
<circle cx="197" cy="257" r="7" fill="rgb(71,63,1)" opacity="0.35"/>
<circle cx="197" cy="257" r="5.0" fill="rgb(71,63,1)"/>
<circle cx="211" cy="257" r="7" fill="rgb(55,46,0)" opacity="0.35"/>
<circle cx="211" cy="257" r="5.0" fill="rgb(55,46,0)"/>
<circle cx="225" cy="257" r="7" fill="rgb(22,16,0)" opacity="0.35"/>
<circle cx="225" cy="257" r="5.0" fill="rgb(22,16,0)"/>
<circle cx="-2" cy="280" r="9" fill="#9aa0a6" opacity="0.25"/>
<circle cx="-2" cy="280" r="6" fill="#9aa0a6" stroke="#0d0f12" stroke-width="1.5"/>
<text x="10" y="284" font-family="'JetBrains Mono','Cascadia Mono','Consolas',monospace" font-size="12" fill="#a0a0a0">Bass</text>
<circle cx="242" cy="280" r="9" fill="#5ad1ff" opacity="0.25"/>
<circle cx="242" cy="280" r="6" fill="#5ad1ff" stroke="#0d0f12" stroke-width="1.5"/>
<text x="230" y="284" text-anchor="end" font-family="'JetBrains Mono','Cascadia Mono','Consolas',monospace" font-size="12" fill="#a0a0a0">Frame</text>
<circle cx="-2" cy="308" r="9" fill="#9aa0a6" opacity="0.25"/>
<circle cx="-2" cy="308" r="6" fill="#9aa0a6" stroke="#0d0f12" stroke-width="1.5"/>
<text x="10" y="312" font-family="'JetBrains Mono','Cascadia Mono','Consolas',monospace" font-size="12" fill="#a0a0a0">Mids</text>
<circle cx="-2" cy="336" r="9" fill="#9aa0a6" opacity="0.25"/>
<circle cx="-2" cy="336" r="6" fill="#9aa0a6" stroke="#0d0f12" stroke-width="1.5"/>
<text x="10" y="340" font-family="'JetBrains Mono','Cascadia Mono','Consolas',monospace" font-size="12" fill="#a0a0a0">Treble</text>
<circle cx="-2" cy="364" r="9" fill="#9aa0a6" opacity="0.25"/>
<circle cx="-2" cy="364" r="6" fill="#9aa0a6" stroke="#0d0f12" stroke-width="1.5"/>
<text x="10" y="368" font-family="'JetBrains Mono','Cascadia Mono','Consolas',monospace" font-size="12" fill="#a0a0a0">Energy</text>
<circle cx="-2" cy="392" r="9" fill="#9aa0a6" opacity="0.25"/>
<circle cx="-2" cy="392" r="6" fill="#9aa0a6" stroke="#0d0f12" stroke-width="1.5"/>
<text x="10" y="396" font-family="'JetBrains Mono','Cascadia Mono','Consolas',monospace" font-size="12" fill="#a0a0a0">Speed</text>
<circle cx="-2" cy="420" r="9" fill="#ff5cf0" opacity="0.25"/>
<circle cx="-2" cy="420" r="6" fill="#ff5cf0" stroke="#0d0f12" stroke-width="1.5"/>
<text x="10" y="424" font-family="'JetBrains Mono','Cascadia Mono','Consolas',monospace" font-size="12" fill="#a0a0a0">Palette</text>
<line x1="8" y1="440" x2="232" y2="440" stroke="rgba(255,255,255,0.08)"/>
<text x="8" y="460" font-family="'JetBrains Mono','Cascadia Mono','Consolas',monospace" font-size="12" fill="#a0a0a0">energy</text>
<g>
<rect x="120" y="454" width="72" height="4" rx="2" fill="#cfd2d6" opacity="0.85"/>
<rect x="120" y="454" width="50.4" height="4" rx="2" fill="#d633ff"/>
<circle cx="170.4" cy="456" r="5" fill="#d633ff"/>
<text x="232" y="460" text-anchor="end" font-family="'JetBrains Mono','Cascadia Mono','Consolas',monospace" font-size="12" fill="#e0e0e0">0.7</text>
</g>
<text x="8" y="481" font-family="'JetBrains Mono','Cascadia Mono','Consolas',monospace" font-size="12" fill="#a0a0a0">speed</text>
<g>
<rect x="120" y="475" width="72" height="4" rx="2" fill="#cfd2d6" opacity="0.85"/>
<rect x="120" y="475" width="72.0" height="4" rx="2" fill="#d633ff"/>
<circle cx="192.0" cy="477" r="5" fill="#d633ff"/>
<text x="232" y="481" text-anchor="end" font-family="'JetBrains Mono','Cascadia Mono','Consolas',monospace" font-size="12" fill="#e0e0e0">1</text>
</g>
<text x="8" y="502" font-family="'JetBrains Mono','Cascadia Mono','Consolas',monospace" font-size="12" fill="#a0a0a0">palette</text>
<g>
<rect x="148" y="490" width="84" height="16" rx="4" fill="#0d0f12" stroke="rgba(255,255,255,0.12)"/>
<text x="152" y="502" font-family="'JetBrains Mono','Cascadia Mono','Consolas',monospace" font-size="11" fill="#e0e0e0">rainbow</text>
<text x="228" y="502" text-anchor="end" font-size="8" fill="#a0a0a0">▾</text>
</g>
<text x="8" y="523" font-family="'JetBrains Mono','Cascadia Mono','Consolas',monospace" font-size="12" fill="#a0a0a0">clamp inputs</text>
<g>
<rect x="220" y="513" width="12" height="12" rx="3" fill="#0d0f12" stroke="rgba(255,255,255,0.12)"/>
</g>
</g>
</svg>
