<svg xmlns="http://www.w3.org/2000/svg" viewBox="0 0 296 559" width="296" height="559" role="img" aria-label="Blobs node">

<defs><filter id="shadow" x="-20%" y="-20%" width="140%" height="160%"><feDropShadow dx="0" dy="8" stdDeviation="9" flood-color="#000" flood-opacity="0.45"/></filter></defs>
<g transform="translate(28,24)">
<rect x="0" y="0" width="240" height="501" rx="8" fill="#1f242b" stroke="rgba(255,255,255,0.12)" filter="url(#shadow)"/>
<rect x="0" y="0" width="240" height="501" rx="8" fill="#1f242b" stroke="rgba(255,255,255,0.12)"/>
<path d="M0,32 L0,8 Q0,0 8,0 L232,0 Q240,0 240,8 L240,32 Z" fill="#33d6ff"/>
<text x="8" y="21" font-family="'Audiowide','Trebuchet MS','Arial Black',sans-serif" font-size="14" font-weight="600" fill="#000">Blobs</text>
<rect x="154" y="10" width="25" height="12" rx="6" fill="rgba(0,0,0,0.14)" stroke="rgba(255,255,255,0.14)"/>
<text x="166.5" y="19" text-anchor="middle" font-family="'JetBrains Mono','Cascadia Mono','Consolas',monospace" font-size="8" letter-spacing="0.08em" fill="#000">PAT</text>
<rect x="185" y="10" width="47" height="12" rx="6" fill="rgba(0,0,0,0.14)" stroke="rgba(255,255,255,0.14)"/>
<text x="208.5" y="19" text-anchor="middle" font-family="'JetBrains Mono','Cascadia Mono','Consolas',monospace" font-size="8" letter-spacing="0.08em" fill="#000">BLO-838</text>
<rect x="8" y="40" width="224" height="224" rx="4" fill="#0d0f12" stroke="rgba(255,255,255,0.12)"/>
<rect x="11.50" y="43.50" width="7.00" height="7.00" rx="1.26" fill="rgb(104,4,4)"/>
<rect x="25.50" y="43.50" width="7.00" height="7.00" rx="1.26" fill="rgb(116,9,9)"/>
<rect x="39.50" y="43.50" width="7.00" height="7.00" rx="1.26" fill="rgb(129,14,14)"/>
<rect x="53.50" y="43.50" width="7.00" height="7.00" rx="1.26" fill="rgb(140,19,19)"/>
<rect x="67.50" y="43.50" width="7.00" height="7.00" rx="1.26" fill="rgb(147,21,21)"/>
<rect x="81.50" y="43.50" width="7.00" height="7.00" rx="1.26" fill="rgb(149,22,22)"/>
<rect x="95.50" y="43.50" width="7.00" height="7.00" rx="1.26" fill="rgb(145,21,21)"/>
<rect x="109.50" y="43.50" width="7.00" height="7.00" rx="1.26" fill="rgb(137,18,18)"/>
<rect x="123.50" y="43.50" width="7.00" height="7.00" rx="1.26" fill="rgb(128,14,14)"/>
<rect x="137.50" y="43.50" width="7.00" height="7.00" rx="1.26" fill="rgb(119,10,10)"/>
<rect x="151.50" y="43.50" width="7.00" height="7.00" rx="1.26" fill="rgb(111,7,7)"/>
<rect x="165.50" y="43.50" width="7.00" height="7.00" rx="1.26" fill="rgb(105,4,4)"/>
<rect x="179.50" y="43.50" width="7.00" height="7.00" rx="1.26" fill="rgb(99,2,2)"/>
<rect x="193.50" y="43.50" width="7.00" height="7.00" rx="1.26" fill="rgb(95,0,0)"/>
<rect x="207.50" y="43.50" width="7.00" height="7.00" rx="1.26" fill="rgb(91,0,0)"/>
<rect x="221.50" y="43.50" width="7.00" height="7.00" rx="1.26" fill="rgb(87,0,0)"/>
<rect x="11.50" y="57.50" width="7.00" height="7.00" rx="1.26" fill="rgb(117,9,9)"/>
<rect x="25.50" y="57.50" width="7.00" height="7.00" rx="1.26" fill="rgb(134,16,16)"/>
<rect x="39.50" y="57.50" width="7.00" height="7.00" rx="1.26" fill="rgb(152,23,23)"/>
<rect x="53.50" y="57.50" width="7.00" height="7.00" rx="1.26" fill="rgb(169,30,30)"/>
<rect x="67.50" y="57.50" width="7.00" height="7.00" rx="1.26" fill="rgb(180,35,33)"/>
<rect x="81.50" y="57.50" width="7.00" height="7.00" rx="1.26" fill="rgb(182,37,32)"/>
<rect x="95.50" y="57.50" width="7.00" height="7.00" rx="1.26" fill="rgb(175,33,33)"/>
<rect x="109.50" y="57.50" width="7.00" height="7.00" rx="1.26" fill="rgb(162,27,27)"/>
<rect x="123.50" y="57.50" width="7.00" height="7.00" rx="1.26" fill="rgb(147,22,22)"/>
<rect x="137.50" y="57.50" width="7.00" height="7.00" rx="1.26" fill="rgb(134,16,16)"/>
<rect x="151.50" y="57.50" width="7.00" height="7.00" rx="1.26" fill="rgb(124,12,12)"/>
<rect x="165.50" y="57.50" width="7.00" height="7.00" rx="1.26" fill="rgb(116,9,9)"/>
<rect x="179.50" y="57.50" width="7.00" height="7.00" rx="1.26" fill="rgb(110,6,6)"/>
<rect x="193.50" y="57.50" width="7.00" height="7.00" rx="1.26" fill="rgb(105,5,5)"/>
<rect x="207.50" y="57.50" width="7.00" height="7.00" rx="1.26" fill="rgb(101,3,3)"/>
<rect x="221.50" y="57.50" width="7.00" height="7.00" rx="1.26" fill="rgb(96,1,1)"/>
<rect x="11.50" y="71.50" width="7.00" height="7.00" rx="1.26" fill="rgb(130,14,14)"/>
<rect x="25.50" y="71.50" width="7.00" height="7.00" rx="1.26" fill="rgb(152,23,23)"/>
<rect x="39.50" y="71.50" width="7.00" height="7.00" rx="1.26" fill="rgb(178,34,34)"/>
<rect x="53.50" y="71.50" width="7.00" height="7.00" rx="1.26" fill="rgb(201,51,24)"/>
<rect x="67.50" y="71.50" width="7.00" height="7.00" rx="1.26" fill="rgb(218,63,16)"/>
<rect x="81.50" y="71.50" width="7.00" height="7.00" rx="1.26" fill="rgb(221,66,15)"/>
<rect x="95.50" y="71.50" width="7.00" height="7.00" rx="1.26" fill="rgb(209,57,20)"/>
<rect x="109.50" y="71.50" width="7.00" height="7.00" rx="1.26" fill="rgb(189,42,29)"/>
<rect x="123.50" y="71.50" width="7.00" height="7.00" rx="1.26" fill="rgb(168,30,30)"/>
<rect x="137.50" y="71.50" width="7.00" height="7.00" rx="1.26" fill="rgb(150,23,23)"/>
<rect x="151.50" y="71.50" width="7.00" height="7.00" rx="1.26" fill="rgb(137,17,17)"/>
<rect x="165.50" y="71.50" width="7.00" height="7.00" rx="1.26" fill="rgb(128,14,14)"/>
<rect x="179.50" y="71.50" width="7.00" height="7.00" rx="1.26" fill="rgb(122,11,11)"/>
<rect x="193.50" y="71.50" width="7.00" height="7.00" rx="1.26" fill="rgb(118,10,10)"/>
<rect x="207.50" y="71.50" width="7.00" height="7.00" rx="1.26" fill="rgb(114,8,8)"/>
<rect x="221.50" y="71.50" width="7.00" height="7.00" rx="1.26" fill="rgb(109,6,6)"/>
<rect x="11.50" y="85.50" width="7.00" height="7.00" rx="1.26" fill="rgb(141,19,19)"/>
<rect x="25.50" y="85.50" width="7.00" height="7.00" rx="1.26" fill="rgb(169,30,30)"/>
<rect x="39.50" y="85.50" width="7.00" height="7.00" rx="1.26" fill="rgb(201,51,24)"/>
<rect x="53.50" y="85.50" width="7.00" height="7.00" rx="1.26" fill="rgb(235,76,9)"/>
<rect x="67.50" y="85.50" width="7.00" height="7.00" rx="1.26" fill="rgb(255,99,7)"/>
<rect x="81.50" y="85.50" width="7.00" height="7.00" rx="1.26" fill="rgb(255,105,12)"/>
<rect x="95.50" y="85.50" width="7.00" height="7.00" rx="1.26" fill="rgb(246,83,4)"/>
<rect x="109.50" y="85.50" width="7.00" height="7.00" rx="1.26" fill="rgb(215,61,18)"/>
<rect x="123.50" y="85.50" width="7.00" height="7.00" rx="1.26" fill="rgb(186,40,30)"/>
<rect x="137.50" y="85.50" width="7.00" height="7.00" rx="1.26" fill="rgb(164,28,28)"/>
<rect x="151.50" y="85.50" width="7.00" height="7.00" rx="1.26" fill="rgb(149,22,22)"/>
<rect x="165.50" y="85.50" width="7.00" height="7.00" rx="1.26" fill="rgb(140,19,19)"/>
<rect x="179.50" y="85.50" width="7.00" height="7.00" rx="1.26" fill="rgb(135,17,17)"/>
<rect x="193.50" y="85.50" width="7.00" height="7.00" rx="1.26" fill="rgb(132,16,16)"/>
<rect x="207.50" y="85.50" width="7.00" height="7.00" rx="1.26" fill="rgb(129,14,14)"/>
<rect x="221.50" y="85.50" width="7.00" height="7.00" rx="1.26" fill="rgb(125,12,12)"/>
<rect x="11.50" y="99.50" width="7.00" height="7.00" rx="1.26" fill="rgb(149,22,22)"/>
<rect x="25.50" y="99.50" width="7.00" height="7.00" rx="1.26" fill="rgb(180,36,33)"/>
<rect x="39.50" y="99.50" width="7.00" height="7.00" rx="1.26" fill="rgb(217,62,17)"/>
<rect x="53.50" y="99.50" width="7.00" height="7.00" rx="1.26" fill="rgb(255,97,5)"/>
<rect x="67.50" y="99.50" width="7.00" height="7.00" rx="1.26" fill="rgb(255,147,45)"/>
<rect x="81.50" y="99.50" width="7.00" height="7.00" rx="1.26" fill="rgb(255,155,51)"/>
<rect x="95.50" y="99.50" width="7.00" height="7.00" rx="1.26" fill="rgb(255,115,20)"/>
<rect x="109.50" y="99.50" width="7.00" height="7.00" rx="1.26" fill="rgb(233,74,10)"/>
<rect x="123.50" y="99.50" width="7.00" height="7.00" rx="1.26" fill="rgb(198,49,25)"/>
<rect x="137.50" y="99.50" width="7.00" height="7.00" rx="1.26" fill="rgb(174,33,33)"/>
<rect x="151.50" y="99.50" width="7.00" height="7.00" rx="1.26" fill="rgb(160,27,27)"/>
<rect x="165.50" y="99.50" width="7.00" height="7.00" rx="1.26" fill="rgb(153,24,24)"/>
<rect x="179.50" y="99.50" width="7.00" height="7.00" rx="1.26" fill="rgb(151,23,23)"/>
<rect x="193.50" y="99.50" width="7.00" height="7.00" rx="1.26" fill="rgb(151,23,23)"/>
<rect x="207.50" y="99.50" width="7.00" height="7.00" rx="1.26" fill="rgb(150,23,23)"/>
<rect x="221.50" y="99.50" width="7.00" height="7.00" rx="1.26" fill="rgb(146,21,21)"/>
<rect x="11.50" y="113.50" width="7.00" height="7.00" rx="1.26" fill="rgb(152,24,24)"/>
<rect x="25.50" y="113.50" width="7.00" height="7.00" rx="1.26" fill="rgb(183,38,32)"/>
<rect x="39.50" y="113.50" width="7.00" height="7.00" rx="1.26" fill="rgb(220,64,16)"/>
<rect x="53.50" y="113.50" width="7.00" height="7.00" rx="1.26" fill="rgb(255,101,8)"/>
<rect x="67.50" y="113.50" width="7.00" height="7.00" rx="1.26" fill="rgb(255,151,48)"/>
<rect x="81.50" y="113.50" width="7.00" height="7.00" rx="1.26" fill="rgb(255,159,55)"/>
<rect x="95.50" y="113.50" width="7.00" height="7.00" rx="1.26" fill="rgb(255,119,23)"/>
<rect x="109.50" y="113.50" width="7.00" height="7.00" rx="1.26" fill="rgb(235,76,9)"/>
<rect x="123.50" y="113.50" width="7.00" height="7.00" rx="1.26" fill="rgb(202,51,23)"/>
<rect x="137.50" y="113.50" width="7.00" height="7.00" rx="1.26" fill="rgb(180,36,33)"/>
<rect x="151.50" y="113.50" width="7.00" height="7.00" rx="1.26" fill="rgb(169,30,30)"/>
<rect x="165.50" y="113.50" width="7.00" height="7.00" rx="1.26" fill="rgb(166,29,29)"/>
<rect x="179.50" y="113.50" width="7.00" height="7.00" rx="1.26" fill="rgb(170,31,31)"/>
<rect x="193.50" y="113.50" width="7.00" height="7.00" rx="1.26" fill="rgb(175,33,33)"/>
<rect x="207.50" y="113.50" width="7.00" height="7.00" rx="1.26" fill="rgb(178,34,34)"/>
<rect x="221.50" y="113.50" width="7.00" height="7.00" rx="1.26" fill="rgb(174,32,32)"/>
<rect x="11.50" y="127.50" width="7.00" height="7.00" rx="1.26" fill="rgb(151,23,23)"/>
<rect x="25.50" y="127.50" width="7.00" height="7.00" rx="1.26" fill="rgb(178,34,34)"/>
<rect x="39.50" y="127.50" width="7.00" height="7.00" rx="1.26" fill="rgb(209,57,20)"/>
<rect x="53.50" y="127.50" width="7.00" height="7.00" rx="1.26" fill="rgb(243,81,5)"/>
<rect x="67.50" y="127.50" width="7.00" height="7.00" rx="1.26" fill="rgb(255,111,16)"/>
<rect x="81.50" y="127.50" width="7.00" height="7.00" rx="1.26" fill="rgb(255,117,21)"/>
<rect x="95.50" y="127.50" width="7.00" height="7.00" rx="1.26" fill="rgb(254,89,1)"/>
<rect x="109.50" y="127.50" width="7.00" height="7.00" rx="1.26" fill="rgb(224,67,14)"/>
<rect x="123.50" y="127.50" width="7.00" height="7.00" rx="1.26" fill="rgb(198,49,25)"/>
<rect x="137.50" y="127.50" width="7.00" height="7.00" rx="1.26" fill="rgb(182,37,32)"/>
<rect x="151.50" y="127.50" width="7.00" height="7.00" rx="1.26" fill="rgb(176,33,33)"/>
<rect x="165.50" y="127.50" width="7.00" height="7.00" rx="1.26" fill="rgb(180,35,33)"/>
<rect x="179.50" y="127.50" width="7.00" height="7.00" rx="1.26" fill="rgb(190,43,28)"/>
<rect x="193.50" y="127.50" width="7.00" height="7.00" rx="1.26" fill="rgb(204,53,23)"/>
<rect x="207.50" y="127.50" width="7.00" height="7.00" rx="1.26" fill="rgb(212,59,19)"/>
<rect x="221.50" y="127.50" width="7.00" height="7.00" rx="1.26" fill="rgb(209,56,20)"/>
<rect x="11.50" y="141.50" width="7.00" height="7.00" rx="1.26" fill="rgb(148,22,22)"/>
<rect x="25.50" y="141.50" width="7.00" height="7.00" rx="1.26" fill="rgb(170,31,31)"/>
<rect x="39.50" y="141.50" width="7.00" height="7.00" rx="1.26" fill="rgb(194,45,27)"/>
<rect x="53.50" y="141.50" width="7.00" height="7.00" rx="1.26" fill="rgb(216,62,17)"/>
<rect x="67.50" y="141.50" width="7.00" height="7.00" rx="1.26" fill="rgb(233,74,10)"/>
<rect x="81.50" y="141.50" width="7.00" height="7.00" rx="1.26" fill="rgb(236,76,8)"/>
<rect x="95.50" y="141.50" width="7.00" height="7.00" rx="1.26" fill="rgb(225,68,13)"/>
<rect x="109.50" y="141.50" width="7.00" height="7.00" rx="1.26" fill="rgb(207,55,21)"/>
<rect x="123.50" y="141.50" width="7.00" height="7.00" rx="1.26" fill="rgb(191,44,28)"/>
<rect x="137.50" y="141.50" width="7.00" height="7.00" rx="1.26" fill="rgb(182,37,32)"/>
<rect x="151.50" y="141.50" width="7.00" height="7.00" rx="1.26" fill="rgb(182,37,32)"/>
<rect x="165.50" y="141.50" width="7.00" height="7.00" rx="1.26" fill="rgb(192,44,28)"/>
<rect x="179.50" y="141.50" width="7.00" height="7.00" rx="1.26" fill="rgb(212,59,19)"/>
<rect x="193.50" y="141.50" width="7.00" height="7.00" rx="1.26" fill="rgb(238,77,8)"/>
<rect x="207.50" y="141.50" width="7.00" height="7.00" rx="1.26" fill="rgb(255,90,0)"/>
<rect x="221.50" y="141.50" width="7.00" height="7.00" rx="1.26" fill="rgb(251,87,2)"/>
<rect x="11.50" y="155.50" width="7.00" height="7.00" rx="1.26" fill="rgb(144,20,20)"/>
<rect x="25.50" y="155.50" width="7.00" height="7.00" rx="1.26" fill="rgb(163,28,28)"/>
<rect x="39.50" y="155.50" width="7.00" height="7.00" rx="1.26" fill="rgb(182,37,32)"/>
<rect x="53.50" y="155.50" width="7.00" height="7.00" rx="1.26" fill="rgb(197,48,26)"/>
<rect x="67.50" y="155.50" width="7.00" height="7.00" rx="1.26" fill="rgb(207,55,21)"/>
<rect x="81.50" y="155.50" width="7.00" height="7.00" rx="1.26" fill="rgb(209,57,20)"/>
<rect x="95.50" y="155.50" width="7.00" height="7.00" rx="1.26" fill="rgb(204,53,22)"/>
<rect x="109.50" y="155.50" width="7.00" height="7.00" rx="1.26" fill="rgb(195,46,27)"/>
<rect x="123.50" y="155.50" width="7.00" height="7.00" rx="1.26" fill="rgb(186,40,31)"/>
<rect x="137.50" y="155.50" width="7.00" height="7.00" rx="1.26" fill="rgb(181,36,32)"/>
<rect x="151.50" y="155.50" width="7.00" height="7.00" rx="1.26" fill="rgb(186,40,31)"/>
<rect x="165.50" y="155.50" width="7.00" height="7.00" rx="1.26" fill="rgb(201,51,24)"/>
<rect x="179.50" y="155.50" width="7.00" height="7.00" rx="1.26" fill="rgb(230,72,11)"/>
<rect x="193.50" y="155.50" width="7.00" height="7.00" rx="1.26" fill="rgb(255,108,14)"/>
<rect x="207.50" y="155.50" width="7.00" height="7.00" rx="1.26" fill="rgb(255,145,44)"/>
<rect x="221.50" y="155.50" width="7.00" height="7.00" rx="1.26" fill="rgb(255,138,38)"/>
<rect x="11.50" y="169.50" width="7.00" height="7.00" rx="1.26" fill="rgb(144,20,20)"/>
<rect x="25.50" y="169.50" width="7.00" height="7.00" rx="1.26" fill="rgb(161,27,27)"/>
<rect x="39.50" y="169.50" width="7.00" height="7.00" rx="1.26" fill="rgb(178,34,34)"/>
<rect x="53.50" y="169.50" width="7.00" height="7.00" rx="1.26" fill="rgb(191,43,28)"/>
<rect x="67.50" y="169.50" width="7.00" height="7.00" rx="1.26" fill="rgb(199,49,25)"/>
<rect x="81.50" y="169.50" width="7.00" height="7.00" rx="1.26" fill="rgb(201,50,24)"/>
<rect x="95.50" y="169.50" width="7.00" height="7.00" rx="1.26" fill="rgb(197,48,26)"/>
<rect x="109.50" y="169.50" width="7.00" height="7.00" rx="1.26" fill="rgb(190,43,29)"/>
<rect x="123.50" y="169.50" width="7.00" height="7.00" rx="1.26" fill="rgb(183,38,32)"/>
<rect x="137.50" y="169.50" width="7.00" height="7.00" rx="1.26" fill="rgb(181,36,33)"/>
<rect x="151.50" y="169.50" width="7.00" height="7.00" rx="1.26" fill="rgb(186,40,30)"/>
<rect x="165.50" y="169.50" width="7.00" height="7.00" rx="1.26" fill="rgb(204,53,23)"/>
<rect x="179.50" y="169.50" width="7.00" height="7.00" rx="1.26" fill="rgb(236,76,8)"/>
<rect x="193.50" y="169.50" width="7.00" height="7.00" rx="1.26" fill="rgb(255,121,25)"/>
<rect x="207.50" y="169.50" width="7.00" height="7.00" rx="1.26" fill="rgb(255,163,58)"/>
<rect x="221.50" y="169.50" width="7.00" height="7.00" rx="1.26" fill="rgb(255,155,52)"/>
<rect x="11.50" y="183.50" width="7.00" height="7.00" rx="1.26" fill="rgb(146,21,21)"/>
<rect x="25.50" y="183.50" width="7.00" height="7.00" rx="1.26" fill="rgb(165,29,29)"/>
<rect x="39.50" y="183.50" width="7.00" height="7.00" rx="1.26" fill="rgb(184,38,32)"/>
<rect x="53.50" y="183.50" width="7.00" height="7.00" rx="1.26" fill="rgb(199,49,25)"/>
<rect x="67.50" y="183.50" width="7.00" height="7.00" rx="1.26" fill="rgb(208,56,21)"/>
<rect x="81.50" y="183.50" width="7.00" height="7.00" rx="1.26" fill="rgb(210,57,20)"/>
<rect x="95.50" y="183.50" width="7.00" height="7.00" rx="1.26" fill="rgb(204,53,23)"/>
<rect x="109.50" y="183.50" width="7.00" height="7.00" rx="1.26" fill="rgb(194,45,27)"/>
<rect x="123.50" y="183.50" width="7.00" height="7.00" rx="1.26" fill="rgb(185,39,31)"/>
<rect x="137.50" y="183.50" width="7.00" height="7.00" rx="1.26" fill="rgb(180,36,33)"/>
<rect x="151.50" y="183.50" width="7.00" height="7.00" rx="1.26" fill="rgb(184,38,31)"/>
<rect x="165.50" y="183.50" width="7.00" height="7.00" rx="1.26" fill="rgb(199,49,25)"/>
<rect x="179.50" y="183.50" width="7.00" height="7.00" rx="1.26" fill="rgb(225,68,13)"/>
<rect x="193.50" y="183.50" width="7.00" height="7.00" rx="1.26" fill="rgb(255,96,4)"/>
<rect x="207.50" y="183.50" width="7.00" height="7.00" rx="1.26" fill="rgb(255,129,31)"/>
<rect x="221.50" y="183.50" width="7.00" height="7.00" rx="1.26" fill="rgb(255,122,26)"/>
<rect x="11.50" y="197.50" width="7.00" height="7.00" rx="1.26" fill="rgb(150,23,23)"/>
<rect x="25.50" y="197.50" width="7.00" height="7.00" rx="1.26" fill="rgb(173,32,32)"/>
<rect x="39.50" y="197.50" width="7.00" height="7.00" rx="1.26" fill="rgb(198,48,25)"/>
<rect x="53.50" y="197.50" width="7.00" height="7.00" rx="1.26" fill="rgb(220,65,15)"/>
<rect x="67.50" y="197.50" width="7.00" height="7.00" rx="1.26" fill="rgb(236,76,9)"/>
<rect x="81.50" y="197.50" width="7.00" height="7.00" rx="1.26" fill="rgb(236,76,8)"/>
<rect x="95.50" y="197.50" width="7.00" height="7.00" rx="1.26" fill="rgb(223,67,14)"/>
<rect x="109.50" y="197.50" width="7.00" height="7.00" rx="1.26" fill="rgb(205,54,22)"/>
<rect x="123.50" y="197.50" width="7.00" height="7.00" rx="1.26" fill="rgb(189,42,29)"/>
<rect x="137.50" y="197.50" width="7.00" height="7.00" rx="1.26" fill="rgb(180,35,33)"/>
<rect x="151.50" y="197.50" width="7.00" height="7.00" rx="1.26" fill="rgb(179,35,34)"/>
<rect x="165.50" y="197.50" width="7.00" height="7.00" rx="1.26" fill="rgb(188,41,30)"/>
<rect x="179.50" y="197.50" width="7.00" height="7.00" rx="1.26" fill="rgb(205,54,22)"/>
<rect x="193.50" y="197.50" width="7.00" height="7.00" rx="1.26" fill="rgb(226,69,13)"/>
<rect x="207.50" y="197.50" width="7.00" height="7.00" rx="1.26" fill="rgb(240,79,7)"/>
<rect x="221.50" y="197.50" width="7.00" height="7.00" rx="1.26" fill="rgb(236,76,8)"/>
<rect x="11.50" y="211.50" width="7.00" height="7.00" rx="1.26" fill="rgb(154,24,24)"/>
<rect x="25.50" y="211.50" width="7.00" height="7.00" rx="1.26" fill="rgb(183,37,32)"/>
<rect x="39.50" y="211.50" width="7.00" height="7.00" rx="1.26" fill="rgb(215,61,18)"/>
<rect x="53.50" y="211.50" width="7.00" height="7.00" rx="1.26" fill="rgb(249,86,3)"/>
<rect x="67.50" y="211.50" width="7.00" height="7.00" rx="1.26" fill="rgb(255,116,21)"/>
<rect x="81.50" y="211.50" width="7.00" height="7.00" rx="1.26" fill="rgb(255,117,21)"/>
<rect x="95.50" y="211.50" width="7.00" height="7.00" rx="1.26" fill="rgb(250,87,2)"/>
<rect x="109.50" y="211.50" width="7.00" height="7.00" rx="1.26" fill="rgb(220,64,16)"/>
<rect x="123.50" y="211.50" width="7.00" height="7.00" rx="1.26" fill="rgb(195,46,27)"/>
<rect x="137.50" y="211.50" width="7.00" height="7.00" rx="1.26" fill="rgb(179,35,34)"/>
<rect x="151.50" y="211.50" width="7.00" height="7.00" rx="1.26" fill="rgb(172,32,32)"/>
<rect x="165.50" y="211.50" width="7.00" height="7.00" rx="1.26" fill="rgb(174,33,33)"/>
<rect x="179.50" y="211.50" width="7.00" height="7.00" rx="1.26" fill="rgb(183,38,32)"/>
<rect x="193.50" y="211.50" width="7.00" height="7.00" rx="1.26" fill="rgb(194,45,27)"/>
<rect x="207.50" y="211.50" width="7.00" height="7.00" rx="1.26" fill="rgb(200,50,24)"/>
<rect x="221.50" y="211.50" width="7.00" height="7.00" rx="1.26" fill="rgb(196,47,26)"/>
<rect x="11.50" y="225.50" width="7.00" height="7.00" rx="1.26" fill="rgb(156,25,25)"/>
<rect x="25.50" y="225.50" width="7.00" height="7.00" rx="1.26" fill="rgb(188,41,30)"/>
<rect x="39.50" y="225.50" width="7.00" height="7.00" rx="1.26" fill="rgb(226,69,13)"/>
<rect x="53.50" y="225.50" width="7.00" height="7.00" rx="1.26" fill="rgb(255,110,16)"/>
<rect x="67.50" y="225.50" width="7.00" height="7.00" rx="1.26" fill="rgb(255,157,53)"/>
<rect x="81.50" y="225.50" width="7.00" height="7.00" rx="1.26" fill="rgb(255,157,53)"/>
<rect x="95.50" y="225.50" width="7.00" height="7.00" rx="1.26" fill="rgb(255,111,17)"/>
<rect x="109.50" y="225.50" width="7.00" height="7.00" rx="1.26" fill="rgb(229,71,11)"/>
<rect x="123.50" y="225.50" width="7.00" height="7.00" rx="1.26" fill="rgb(197,48,26)"/>
<rect x="137.50" y="225.50" width="7.00" height="7.00" rx="1.26" fill="rgb(176,33,33)"/>
<rect x="151.50" y="225.50" width="7.00" height="7.00" rx="1.26" fill="rgb(164,28,28)"/>
<rect x="165.50" y="225.50" width="7.00" height="7.00" rx="1.26" fill="rgb(161,27,27)"/>
<rect x="179.50" y="225.50" width="7.00" height="7.00" rx="1.26" fill="rgb(163,28,28)"/>
<rect x="193.50" y="225.50" width="7.00" height="7.00" rx="1.26" fill="rgb(166,29,29)"/>
<rect x="207.50" y="225.50" width="7.00" height="7.00" rx="1.26" fill="rgb(168,30,30)"/>
<rect x="221.50" y="225.50" width="7.00" height="7.00" rx="1.26" fill="rgb(163,28,28)"/>
<rect x="11.50" y="239.50" width="7.00" height="7.00" rx="1.26" fill="rgb(153,24,24)"/>
<rect x="25.50" y="239.50" width="7.00" height="7.00" rx="1.26" fill="rgb(185,39,31)"/>
<rect x="39.50" y="239.50" width="7.00" height="7.00" rx="1.26" fill="rgb(223,67,14)"/>
<rect x="53.50" y="239.50" width="7.00" height="7.00" rx="1.26" fill="rgb(255,105,12)"/>
<rect x="67.50" y="239.50" width="7.00" height="7.00" rx="1.26" fill="rgb(255,150,48)"/>
<rect x="81.50" y="239.50" width="7.00" height="7.00" rx="1.26" fill="rgb(255,150,47)"/>
<rect x="95.50" y="239.50" width="7.00" height="7.00" rx="1.26" fill="rgb(255,106,12)"/>
<rect x="109.50" y="239.50" width="7.00" height="7.00" rx="1.26" fill="rgb(226,69,13)"/>
<rect x="123.50" y="239.50" width="7.00" height="7.00" rx="1.26" fill="rgb(193,45,27)"/>
<rect x="137.50" y="239.50" width="7.00" height="7.00" rx="1.26" fill="rgb(170,31,31)"/>
<rect x="151.50" y="239.50" width="7.00" height="7.00" rx="1.26" fill="rgb(155,25,25)"/>
<rect x="165.50" y="239.50" width="7.00" height="7.00" rx="1.26" fill="rgb(148,22,22)"/>
<rect x="179.50" y="239.50" width="7.00" height="7.00" rx="1.26" fill="rgb(145,21,21)"/>
<rect x="193.50" y="239.50" width="7.00" height="7.00" rx="1.26" fill="rgb(144,20,20)"/>
<rect x="207.50" y="239.50" width="7.00" height="7.00" rx="1.26" fill="rgb(142,20,20)"/>
<rect x="221.50" y="239.50" width="7.00" height="7.00" rx="1.26" fill="rgb(138,18,18)"/>
<rect x="11.50" y="253.50" width="7.00" height="7.00" rx="1.26" fill="rgb(144,20,20)"/>
<rect x="25.50" y="253.50" width="7.00" height="7.00" rx="1.26" fill="rgb(173,32,32)"/>
<rect x="39.50" y="253.50" width="7.00" height="7.00" rx="1.26" fill="rgb(205,54,22)"/>
<rect x="53.50" y="253.50" width="7.00" height="7.00" rx="1.26" fill="rgb(239,78,7)"/>
<rect x="67.50" y="253.50" width="7.00" height="7.00" rx="1.26" fill="rgb(255,100,8)"/>
<rect x="81.50" y="253.50" width="7.00" height="7.00" rx="1.26" fill="rgb(255,100,8)"/>
<rect x="95.50" y="253.50" width="7.00" height="7.00" rx="1.26" fill="rgb(239,79,7)"/>
<rect x="109.50" y="253.50" width="7.00" height="7.00" rx="1.26" fill="rgb(208,56,21)"/>
<rect x="123.50" y="253.50" width="7.00" height="7.00" rx="1.26" fill="rgb(181,36,33)"/>
<rect x="137.50" y="253.50" width="7.00" height="7.00" rx="1.26" fill="rgb(159,26,26)"/>
<rect x="151.50" y="253.50" width="7.00" height="7.00" rx="1.26" fill="rgb(145,20,20)"/>
<rect x="165.50" y="253.50" width="7.00" height="7.00" rx="1.26" fill="rgb(136,17,17)"/>
<rect x="179.50" y="253.50" width="7.00" height="7.00" rx="1.26" fill="rgb(131,15,15)"/>
<rect x="193.50" y="253.50" width="7.00" height="7.00" rx="1.26" fill="rgb(127,13,13)"/>
<rect x="207.50" y="253.50" width="7.00" height="7.00" rx="1.26" fill="rgb(124,12,12)"/>
<rect x="221.50" y="253.50" width="7.00" height="7.00" rx="1.26" fill="rgb(119,10,10)"/>
<circle cx="-2" cy="280" r="9" fill="#9aa0a6" opacity="0.25"/>
<circle cx="-2" cy="280" r="6" fill="#9aa0a6" stroke="#0d0f12" stroke-width="1.5"/>
<text x="10" y="284" font-family="'JetBrains Mono','Cascadia Mono','Consolas',monospace" font-size="12" fill="#a0a0a0">Speed</text>
<circle cx="242" cy="280" r="9" fill="#5ad1ff" opacity="0.25"/>
<circle cx="242" cy="280" r="6" fill="#5ad1ff" stroke="#0d0f12" stroke-width="1.5"/>
<text x="230" y="284" text-anchor="end" font-family="'JetBrains Mono','Cascadia Mono','Consolas',monospace" font-size="12" fill="#a0a0a0">Frame</text>
<circle cx="-2" cy="308" r="9" fill="#9aa0a6" opacity="0.25"/>
<circle cx="-2" cy="308" r="6" fill="#9aa0a6" stroke="#0d0f12" stroke-width="1.5"/>
<text x="10" y="312" font-family="'JetBrains Mono','Cascadia Mono','Consolas',monospace" font-size="12" fill="#a0a0a0">Size</text>
<circle cx="-2" cy="336" r="9" fill="#9aa0a6" opacity="0.25"/>
<circle cx="-2" cy="336" r="6" fill="#9aa0a6" stroke="#0d0f12" stroke-width="1.5"/>
<text x="10" y="340" font-family="'JetBrains Mono','Cascadia Mono','Consolas',monospace" font-size="12" fill="#a0a0a0">Count</text>
<circle cx="-2" cy="364" r="9" fill="#ff5cf0" opacity="0.25"/>
<circle cx="-2" cy="364" r="6" fill="#ff5cf0" stroke="#0d0f12" stroke-width="1.5"/>
<text x="10" y="368" font-family="'JetBrains Mono','Cascadia Mono','Consolas',monospace" font-size="12" fill="#a0a0a0">Palette</text>
<line x1="8" y1="384" x2="232" y2="384" stroke="rgba(255,255,255,0.08)"/>
<text x="8" y="404" font-family="'JetBrains Mono','Cascadia Mono','Consolas',monospace" font-size="12" fill="#a0a0a0">speed</text>
<g>
<rect x="120" y="398" width="72" height="4" rx="2" fill="#cfd2d6" opacity="0.85"/>
<rect x="120" y="398" width="21.6" height="4" rx="2" fill="#d633ff"/>
<circle cx="141.6" cy="400" r="5" fill="#d633ff"/>
<text x="232" y="404" text-anchor="end" font-family="'JetBrains Mono','Cascadia Mono','Consolas',monospace" font-size="12" fill="#e0e0e0">0.3</text>
</g>
<text x="8" y="425" font-family="'JetBrains Mono','Cascadia Mono','Consolas',monospace" font-size="12" fill="#a0a0a0">scale</text>
<g>
<rect x="120" y="419" width="72" height="4" rx="2" fill="#cfd2d6" opacity="0.85"/>
<rect x="120" y="419" width="31.7" height="4" rx="2" fill="#d633ff"/>
<circle cx="151.7" cy="421" r="5" fill="#d633ff"/>
<text x="232" y="425" text-anchor="end" font-family="'JetBrains Mono','Cascadia Mono','Consolas',monospace" font-size="12" fill="#e0e0e0">0.44</text>
</g>
<text x="8" y="446" font-family="'JetBrains Mono','Cascadia Mono','Consolas',monospace" font-size="12" fill="#a0a0a0">count</text>
<g>
<rect x="120" y="440" width="72" height="4" rx="2" fill="#cfd2d6" opacity="0.85"/>
<rect x="120" y="440" width="0.7" height="4" rx="2" fill="#d633ff"/>
<circle cx="120.7" cy="442" r="5" fill="#d633ff"/>
<text x="232" y="446" text-anchor="end" font-family="'JetBrains Mono','Cascadia Mono','Consolas',monospace" font-size="12" fill="#e0e0e0">3</text>
</g>
<text x="8" y="467" font-family="'JetBrains Mono','Cascadia Mono','Consolas',monospace" font-size="12" fill="#a0a0a0">palette</text>
<g>
<rect x="148" y="455" width="84" height="16" rx="4" fill="#0d0f12" stroke="rgba(255,255,255,0.12)"/>
<text x="152" y="467" font-family="'JetBrains Mono','Cascadia Mono','Consolas',monospace" font-size="11" fill="#e0e0e0">lava</text>
<text x="228" y="467" text-anchor="end" font-size="8" fill="#a0a0a0">▾</text>
</g>
<text x="8" y="488" font-family="'JetBrains Mono','Cascadia Mono','Consolas',monospace" font-size="12" fill="#a0a0a0">clamp inputs</text>
<g>
<rect x="220" y="478" width="12" height="12" rx="3" fill="#0d0f12" stroke="rgba(255,255,255,0.12)"/>
</g>
</g>
</svg>
