<svg xmlns="http://www.w3.org/2000/svg" viewBox="0 0 296 461" width="296" height="461" role="img" aria-label="Blur 2D node">

<defs><filter id="shadow" x="-20%" y="-20%" width="140%" height="160%"><feDropShadow dx="0" dy="8" stdDeviation="9" flood-color="#000" flood-opacity="0.45"/></filter></defs>
<g transform="translate(28,24)">
<rect x="0" y="0" width="240" height="403" rx="8" fill="#1f242b" stroke="rgba(255,255,255,0.12)" filter="url(#shadow)"/>
<rect x="0" y="0" width="240" height="403" rx="8" fill="#1f242b" stroke="rgba(255,255,255,0.12)"/>
<path d="M0,32 L0,8 Q0,0 8,0 L232,0 Q240,0 240,8 L240,32 Z" fill="#3333ff"/>
<text x="8" y="21" font-family="'Audiowide','Trebuchet MS','Arial Black',sans-serif" font-size="14" font-weight="600" fill="#000">Blur 2D</text>
<rect x="154" y="10" width="25" height="12" rx="6" fill="rgba(0,0,0,0.14)" stroke="rgba(255,255,255,0.14)"/>
<text x="166.5" y="19" text-anchor="middle" font-family="'JetBrains Mono','Cascadia Mono','Consolas',monospace" font-size="8" letter-spacing="0.08em" fill="#000">CMP</text>
<rect x="185" y="10" width="47" height="12" rx="6" fill="rgba(0,0,0,0.14)" stroke="rgba(255,255,255,0.14)"/>
<text x="208.5" y="19" text-anchor="middle" font-family="'JetBrains Mono','Cascadia Mono','Consolas',monospace" font-size="8" letter-spacing="0.08em" fill="#000">BLU-953</text>
<rect x="8" y="40" width="224" height="224" rx="4" fill="#05070a"/>
<circle cx="15" cy="47" r="7" fill="rgb(250,95,28)" opacity="0.35"/>
<circle cx="15" cy="47" r="5.0" fill="rgb(250,95,28)"/>
<circle cx="29" cy="47" r="7" fill="rgb(237,67,56)" opacity="0.35"/>
<circle cx="29" cy="47" r="5.0" fill="rgb(237,67,56)"/>
<circle cx="43" cy="47" r="7" fill="rgb(211,35,139)" opacity="0.35"/>
<circle cx="43" cy="47" r="5.0" fill="rgb(211,35,139)"/>
<circle cx="57" cy="47" r="7" fill="rgb(185,25,195)" opacity="0.35"/>
<circle cx="57" cy="47" r="5.0" fill="rgb(185,25,195)"/>
<circle cx="71" cy="47" r="7" fill="rgb(168,22,251)" opacity="0.35"/>
<circle cx="71" cy="47" r="5.0" fill="rgb(168,22,251)"/>
<circle cx="85" cy="47" r="7" fill="rgb(171,20,250)" opacity="0.35"/>
<circle cx="85" cy="47" r="5.0" fill="rgb(171,20,250)"/>
<circle cx="99" cy="47" r="7" fill="rgb(193,19,195)" opacity="0.35"/>
<circle cx="99" cy="47" r="5.0" fill="rgb(193,19,195)"/>
<circle cx="113" cy="47" r="7" fill="rgb(218,21,139)" opacity="0.35"/>
<circle cx="113" cy="47" r="5.0" fill="rgb(218,21,139)"/>
<circle cx="127" cy="47" r="7" fill="rgb(240,33,55)" opacity="0.35"/>
<circle cx="127" cy="47" r="5.0" fill="rgb(240,33,55)"/>
<circle cx="141" cy="47" r="7" fill="rgb(250,49,28)" opacity="0.35"/>
<circle cx="141" cy="47" r="5.0" fill="rgb(250,49,28)"/>
<circle cx="155" cy="47" r="7" fill="rgb(255,66,0)" opacity="0.35"/>
<circle cx="155" cy="47" r="5.0" fill="rgb(255,66,0)"/>
<circle cx="169" cy="47" r="7" fill="rgb(255,76,0)" opacity="0.35"/>
<circle cx="169" cy="47" r="5.0" fill="rgb(255,76,0)"/>
<circle cx="183" cy="47" r="7" fill="rgb(255,81,0)" opacity="0.35"/>
<circle cx="183" cy="47" r="5.0" fill="rgb(255,81,0)"/>
<circle cx="197" cy="47" r="7" fill="rgb(255,80,0)" opacity="0.35"/>
<circle cx="197" cy="47" r="5.0" fill="rgb(255,80,0)"/>
<circle cx="211" cy="47" r="7" fill="rgb(255,77,0)" opacity="0.35"/>
<circle cx="211" cy="47" r="5.0" fill="rgb(255,77,0)"/>
<circle cx="225" cy="47" r="7" fill="rgb(255,74,0)" opacity="0.35"/>
<circle cx="225" cy="47" r="5.0" fill="rgb(255,74,0)"/>
<circle cx="15" cy="61" r="7" fill="rgb(219,62,111)" opacity="0.35"/>
<circle cx="15" cy="61" r="5.0" fill="rgb(219,62,111)"/>
<circle cx="29" cy="61" r="7" fill="rgb(191,54,140)" opacity="0.35"/>
<circle cx="29" cy="61" r="5.0" fill="rgb(191,54,140)"/>
<circle cx="43" cy="61" r="7" fill="rgb(153,47,196)" opacity="0.35"/>
<circle cx="43" cy="61" r="5.0" fill="rgb(153,47,196)"/>
<circle cx="57" cy="61" r="7" fill="rgb(127,50,224)" opacity="0.35"/>
<circle cx="57" cy="61" r="5.0" fill="rgb(127,50,224)"/>
<circle cx="71" cy="61" r="7" fill="rgb(115,50,252)" opacity="0.35"/>
<circle cx="71" cy="61" r="5.0" fill="rgb(115,50,252)"/>
<circle cx="85" cy="61" r="7" fill="rgb(123,45,252)" opacity="0.35"/>
<circle cx="85" cy="61" r="5.0" fill="rgb(123,45,252)"/>
<circle cx="99" cy="61" r="7" fill="rgb(148,36,223)" opacity="0.35"/>
<circle cx="99" cy="61" r="5.0" fill="rgb(148,36,223)"/>
<circle cx="113" cy="61" r="7" fill="rgb(180,27,195)" opacity="0.35"/>
<circle cx="113" cy="61" r="5.0" fill="rgb(180,27,195)"/>
<circle cx="127" cy="61" r="7" fill="rgb(217,26,111)" opacity="0.35"/>
<circle cx="127" cy="61" r="5.0" fill="rgb(217,26,111)"/>
<circle cx="141" cy="61" r="7" fill="rgb(241,33,55)" opacity="0.35"/>
<circle cx="141" cy="61" r="5.0" fill="rgb(241,33,55)"/>
<circle cx="155" cy="61" r="7" fill="rgb(255,45,0)" opacity="0.35"/>
<circle cx="155" cy="61" r="5.0" fill="rgb(255,45,0)"/>
<circle cx="169" cy="61" r="7" fill="rgb(255,56,0)" opacity="0.35"/>
<circle cx="169" cy="61" r="5.0" fill="rgb(255,56,0)"/>
<circle cx="183" cy="61" r="7" fill="rgb(255,60,0)" opacity="0.35"/>
<circle cx="183" cy="61" r="5.0" fill="rgb(255,60,0)"/>
<circle cx="197" cy="61" r="7" fill="rgb(255,58,0)" opacity="0.35"/>
<circle cx="197" cy="61" r="5.0" fill="rgb(255,58,0)"/>
<circle cx="211" cy="61" r="7" fill="rgb(255,54,0)" opacity="0.35"/>
<circle cx="211" cy="61" r="5.0" fill="rgb(255,54,0)"/>
<circle cx="225" cy="61" r="7" fill="rgb(255,51,0)" opacity="0.35"/>
<circle cx="225" cy="61" r="5.0" fill="rgb(255,51,0)"/>
<circle cx="15" cy="75" r="7" fill="rgb(163,43,195)" opacity="0.35"/>
<circle cx="15" cy="75" r="5.0" fill="rgb(163,43,195)"/>
<circle cx="29" cy="75" r="7" fill="rgb(126,55,224)" opacity="0.35"/>
<circle cx="29" cy="75" r="5.0" fill="rgb(126,55,224)"/>
<circle cx="43" cy="75" r="7" fill="rgb(83,72,253)" opacity="0.35"/>
<circle cx="43" cy="75" r="5.0" fill="rgb(83,72,253)"/>
<circle cx="57" cy="75" r="7" fill="rgb(62,86,253)" opacity="0.35"/>
<circle cx="57" cy="75" r="5.0" fill="rgb(62,86,253)"/>
<circle cx="71" cy="75" r="7" fill="rgb(59,86,254)" opacity="0.35"/>
<circle cx="71" cy="75" r="5.0" fill="rgb(59,86,254)"/>
<circle cx="85" cy="75" r="7" fill="rgb(71,75,253)" opacity="0.35"/>
<circle cx="85" cy="75" r="5.0" fill="rgb(71,75,253)"/>
<circle cx="99" cy="75" r="7" fill="rgb(99,56,252)" opacity="0.35"/>
<circle cx="99" cy="75" r="5.0" fill="rgb(99,56,252)"/>
<circle cx="113" cy="75" r="7" fill="rgb(140,35,251)" opacity="0.35"/>
<circle cx="113" cy="75" r="5.0" fill="rgb(140,35,251)"/>
<circle cx="127" cy="75" r="7" fill="rgb(194,19,167)" opacity="0.35"/>
<circle cx="127" cy="75" r="5.0" fill="rgb(194,19,167)"/>
<circle cx="141" cy="75" r="7" fill="rgb(232,17,83)" opacity="0.35"/>
<circle cx="141" cy="75" r="5.0" fill="rgb(232,17,83)"/>
<circle cx="155" cy="75" r="7" fill="rgb(255,26,0)" opacity="0.35"/>
<circle cx="155" cy="75" r="5.0" fill="rgb(255,26,0)"/>
<circle cx="169" cy="75" r="7" fill="rgb(255,37,0)" opacity="0.35"/>
<circle cx="169" cy="75" r="5.0" fill="rgb(255,37,0)"/>
<circle cx="183" cy="75" r="7" fill="rgb(255,40,0)" opacity="0.35"/>
<circle cx="183" cy="75" r="5.0" fill="rgb(255,40,0)"/>
<circle cx="197" cy="75" r="7" fill="rgb(255,36,0)" opacity="0.35"/>
<circle cx="197" cy="75" r="5.0" fill="rgb(255,36,0)"/>
<circle cx="211" cy="75" r="7" fill="rgb(255,30,0)" opacity="0.35"/>
<circle cx="211" cy="75" r="5.0" fill="rgb(255,30,0)"/>
<circle cx="225" cy="75" r="7" fill="rgb(255,25,0)" opacity="0.35"/>
<circle cx="225" cy="75" r="5.0" fill="rgb(255,25,0)"/>
<circle cx="15" cy="89" r="7" fill="rgb(96,62,252)" opacity="0.35"/>
<circle cx="15" cy="89" r="5.0" fill="rgb(96,62,252)"/>
<circle cx="29" cy="89" r="7" fill="rgb(68,84,253)" opacity="0.35"/>
<circle cx="29" cy="89" r="5.0" fill="rgb(68,84,253)"/>
<circle cx="43" cy="89" r="7" fill="rgb(38,109,254)" opacity="0.35"/>
<circle cx="43" cy="89" r="5.0" fill="rgb(38,109,254)"/>
<circle cx="57" cy="89" r="7" fill="rgb(29,118,254)" opacity="0.35"/>
<circle cx="57" cy="89" r="5.0" fill="rgb(29,118,254)"/>
<circle cx="71" cy="89" r="7" fill="rgb(32,111,254)" opacity="0.35"/>
<circle cx="71" cy="89" r="5.0" fill="rgb(32,111,254)"/>
<circle cx="85" cy="89" r="7" fill="rgb(49,92,254)" opacity="0.35"/>
<circle cx="85" cy="89" r="5.0" fill="rgb(49,92,254)"/>
<circle cx="99" cy="89" r="7" fill="rgb(83,66,253)" opacity="0.35"/>
<circle cx="99" cy="89" r="5.0" fill="rgb(83,66,253)"/>
<circle cx="113" cy="89" r="7" fill="rgb(132,39,251)" opacity="0.35"/>
<circle cx="113" cy="89" r="5.0" fill="rgb(132,39,251)"/>
<circle cx="127" cy="89" r="7" fill="rgb(192,21,167)" opacity="0.35"/>
<circle cx="127" cy="89" r="5.0" fill="rgb(192,21,167)"/>
<circle cx="141" cy="89" r="7" fill="rgb(232,20,83)" opacity="0.35"/>
<circle cx="141" cy="89" r="5.0" fill="rgb(232,20,83)"/>
<circle cx="155" cy="89" r="7" fill="rgb(255,31,0)" opacity="0.35"/>
<circle cx="155" cy="89" r="5.0" fill="rgb(255,31,0)"/>
<circle cx="169" cy="89" r="7" fill="rgb(255,41,0)" opacity="0.35"/>
<circle cx="169" cy="89" r="5.0" fill="rgb(255,41,0)"/>
<circle cx="183" cy="89" r="7" fill="rgb(255,42,0)" opacity="0.35"/>
<circle cx="183" cy="89" r="5.0" fill="rgb(255,42,0)"/>
<circle cx="197" cy="89" r="7" fill="rgb(255,35,0)" opacity="0.35"/>
<circle cx="197" cy="89" r="5.0" fill="rgb(255,35,0)"/>
<circle cx="211" cy="89" r="7" fill="rgb(255,24,0)" opacity="0.35"/>
<circle cx="211" cy="89" r="5.0" fill="rgb(255,24,0)"/>
<circle cx="225" cy="89" r="7" fill="rgb(255,17,0)" opacity="0.35"/>
<circle cx="225" cy="89" r="5.0" fill="rgb(255,17,0)"/>
<circle cx="15" cy="103" r="7" fill="rgb(51,93,254)" opacity="0.35"/>
<circle cx="15" cy="103" r="5.0" fill="rgb(51,93,254)"/>
<circle cx="29" cy="103" r="7" fill="rgb(36,113,254)" opacity="0.35"/>
<circle cx="29" cy="103" r="5.0" fill="rgb(36,113,254)"/>
<circle cx="43" cy="103" r="7" fill="rgb(21,134,255)" opacity="0.35"/>
<circle cx="43" cy="103" r="5.0" fill="rgb(21,134,255)"/>
<circle cx="57" cy="103" r="7" fill="rgb(20,136,255)" opacity="0.35"/>
<circle cx="57" cy="103" r="5.0" fill="rgb(20,136,255)"/>
<circle cx="71" cy="103" r="7" fill="rgb(27,121,254)" opacity="0.35"/>
<circle cx="71" cy="103" r="5.0" fill="rgb(27,121,254)"/>
<circle cx="85" cy="103" r="7" fill="rgb(50,94,254)" opacity="0.35"/>
<circle cx="85" cy="103" r="5.0" fill="rgb(50,94,254)"/>
<circle cx="99" cy="103" r="7" fill="rgb(94,61,252)" opacity="0.35"/>
<circle cx="99" cy="103" r="5.0" fill="rgb(94,61,252)"/>
<circle cx="113" cy="103" r="7" fill="rgb(152,36,223)" opacity="0.35"/>
<circle cx="113" cy="103" r="5.0" fill="rgb(152,36,223)"/>
<circle cx="127" cy="103" r="7" fill="rgb(208,30,139)" opacity="0.35"/>
<circle cx="127" cy="103" r="5.0" fill="rgb(208,30,139)"/>
<circle cx="141" cy="103" r="7" fill="rgb(241,42,55)" opacity="0.35"/>
<circle cx="141" cy="103" r="5.0" fill="rgb(241,42,55)"/>
<circle cx="155" cy="103" r="7" fill="rgb(255,58,0)" opacity="0.35"/>
<circle cx="155" cy="103" r="5.0" fill="rgb(255,58,0)"/>
<circle cx="169" cy="103" r="7" fill="rgb(255,67,0)" opacity="0.35"/>
<circle cx="169" cy="103" r="5.0" fill="rgb(255,67,0)"/>
<circle cx="183" cy="103" r="7" fill="rgb(255,65,0)" opacity="0.35"/>
<circle cx="183" cy="103" r="5.0" fill="rgb(255,65,0)"/>
<circle cx="197" cy="103" r="7" fill="rgb(255,54,0)" opacity="0.35"/>
<circle cx="197" cy="103" r="5.0" fill="rgb(255,54,0)"/>
<circle cx="211" cy="103" r="7" fill="rgb(255,38,0)" opacity="0.35"/>
<circle cx="211" cy="103" r="5.0" fill="rgb(255,38,0)"/>
<circle cx="225" cy="103" r="7" fill="rgb(255,27,0)" opacity="0.35"/>
<circle cx="225" cy="103" r="5.0" fill="rgb(255,27,0)"/>
<circle cx="15" cy="117" r="7" fill="rgb(31,113,254)" opacity="0.35"/>
<circle cx="15" cy="117" r="5.0" fill="rgb(31,113,254)"/>
<circle cx="29" cy="117" r="7" fill="rgb(23,130,255)" opacity="0.35"/>
<circle cx="29" cy="117" r="5.0" fill="rgb(23,130,255)"/>
<circle cx="43" cy="117" r="7" fill="rgb(15,145,255)" opacity="0.35"/>
<circle cx="43" cy="117" r="5.0" fill="rgb(15,145,255)"/>
<circle cx="57" cy="117" r="7" fill="rgb(18,140,255)" opacity="0.35"/>
<circle cx="57" cy="117" r="5.0" fill="rgb(18,140,255)"/>
<circle cx="71" cy="117" r="7" fill="rgb(33,116,254)" opacity="0.35"/>
<circle cx="71" cy="117" r="5.0" fill="rgb(33,116,254)"/>
<circle cx="85" cy="117" r="7" fill="rgb(69,81,253)" opacity="0.35"/>
<circle cx="85" cy="117" r="5.0" fill="rgb(69,81,253)"/>
<circle cx="99" cy="117" r="7" fill="rgb(127,51,224)" opacity="0.35"/>
<circle cx="99" cy="117" r="5.0" fill="rgb(127,51,224)"/>
<circle cx="113" cy="117" r="7" fill="rgb(189,41,167)" opacity="0.35"/>
<circle cx="113" cy="117" r="5.0" fill="rgb(189,41,167)"/>
<circle cx="127" cy="117" r="7" fill="rgb(232,56,83)" opacity="0.35"/>
<circle cx="127" cy="117" r="5.0" fill="rgb(232,56,83)"/>
<circle cx="141" cy="117" r="7" fill="rgb(250,82,28)" opacity="0.35"/>
<circle cx="141" cy="117" r="5.0" fill="rgb(250,82,28)"/>
<circle cx="155" cy="117" r="7" fill="rgb(255,102,0)" opacity="0.35"/>
<circle cx="155" cy="117" r="5.0" fill="rgb(255,102,0)"/>
<circle cx="169" cy="117" r="7" fill="rgb(255,108,0)" opacity="0.35"/>
<circle cx="169" cy="117" r="5.0" fill="rgb(255,108,0)"/>
<circle cx="183" cy="117" r="7" fill="rgb(255,103,0)" opacity="0.35"/>
<circle cx="183" cy="117" r="5.0" fill="rgb(255,103,0)"/>
<circle cx="197" cy="117" r="7" fill="rgb(255,89,0)" opacity="0.35"/>
<circle cx="197" cy="117" r="5.0" fill="rgb(255,89,0)"/>
<circle cx="211" cy="117" r="7" fill="rgb(255,70,0)" opacity="0.35"/>
<circle cx="211" cy="117" r="5.0" fill="rgb(255,70,0)"/>
<circle cx="225" cy="117" r="7" fill="rgb(255,55,0)" opacity="0.35"/>
<circle cx="225" cy="117" r="5.0" fill="rgb(255,55,0)"/>
<circle cx="15" cy="131" r="7" fill="rgb(27,121,254)" opacity="0.35"/>
<circle cx="15" cy="131" r="5.0" fill="rgb(27,121,254)"/>
<circle cx="29" cy="131" r="7" fill="rgb(21,134,255)" opacity="0.35"/>
<circle cx="29" cy="131" r="5.0" fill="rgb(21,134,255)"/>
<circle cx="43" cy="131" r="7" fill="rgb(16,143,255)" opacity="0.35"/>
<circle cx="43" cy="131" r="5.0" fill="rgb(16,143,255)"/>
<circle cx="57" cy="131" r="7" fill="rgb(23,130,255)" opacity="0.35"/>
<circle cx="57" cy="131" r="5.0" fill="rgb(23,130,255)"/>
<circle cx="71" cy="131" r="7" fill="rgb(49,100,254)" opacity="0.35"/>
<circle cx="71" cy="131" r="5.0" fill="rgb(49,100,254)"/>
<circle cx="85" cy="131" r="7" fill="rgb(104,64,225)" opacity="0.35"/>
<circle cx="85" cy="131" r="5.0" fill="rgb(104,64,225)"/>
<circle cx="99" cy="131" r="7" fill="rgb(171,49,168)" opacity="0.35"/>
<circle cx="99" cy="131" r="5.0" fill="rgb(171,49,168)"/>
<circle cx="113" cy="131" r="7" fill="rgb(226,64,83)" opacity="0.35"/>
<circle cx="113" cy="131" r="5.0" fill="rgb(226,64,83)"/>
<circle cx="127" cy="131" r="7" fill="rgb(249,101,28)" opacity="0.35"/>
<circle cx="127" cy="131" r="5.0" fill="rgb(249,101,28)"/>
<circle cx="141" cy="131" r="7" fill="rgb(255,136,0)" opacity="0.35"/>
<circle cx="141" cy="131" r="5.0" fill="rgb(255,136,0)"/>
<circle cx="155" cy="131" r="7" fill="rgb(255,154,0)" opacity="0.35"/>
<circle cx="155" cy="131" r="5.0" fill="rgb(255,154,0)"/>
<circle cx="169" cy="131" r="7" fill="rgb(255,158,0)" opacity="0.35"/>
<circle cx="169" cy="131" r="5.0" fill="rgb(255,158,0)"/>
<circle cx="183" cy="131" r="7" fill="rgb(255,150,0)" opacity="0.35"/>
<circle cx="183" cy="131" r="5.0" fill="rgb(255,150,0)"/>
<circle cx="197" cy="131" r="7" fill="rgb(255,133,0)" opacity="0.35"/>
<circle cx="197" cy="131" r="5.0" fill="rgb(255,133,0)"/>
<circle cx="211" cy="131" r="7" fill="rgb(255,111,0)" opacity="0.35"/>
<circle cx="211" cy="131" r="5.0" fill="rgb(255,111,0)"/>
<circle cx="225" cy="131" r="7" fill="rgb(255,95,0)" opacity="0.35"/>
<circle cx="225" cy="131" r="5.0" fill="rgb(255,95,0)"/>
<circle cx="15" cy="145" r="7" fill="rgb(29,117,254)" opacity="0.35"/>
<circle cx="15" cy="145" r="5.0" fill="rgb(29,117,254)"/>
<circle cx="29" cy="145" r="7" fill="rgb(24,127,254)" opacity="0.35"/>
<circle cx="29" cy="145" r="5.0" fill="rgb(24,127,254)"/>
<circle cx="43" cy="145" r="7" fill="rgb(23,130,255)" opacity="0.35"/>
<circle cx="43" cy="145" r="5.0" fill="rgb(23,130,255)"/>
<circle cx="57" cy="145" r="7" fill="rgb(37,111,254)" opacity="0.35"/>
<circle cx="57" cy="145" r="5.0" fill="rgb(37,111,254)"/>
<circle cx="71" cy="145" r="7" fill="rgb(79,76,253)" opacity="0.35"/>
<circle cx="71" cy="145" r="5.0" fill="rgb(79,76,253)"/>
<circle cx="85" cy="145" r="7" fill="rgb(146,52,196)" opacity="0.35"/>
<circle cx="85" cy="145" r="5.0" fill="rgb(146,52,196)"/>
<circle cx="99" cy="145" r="7" fill="rgb(211,61,111)" opacity="0.35"/>
<circle cx="99" cy="145" r="5.0" fill="rgb(211,61,111)"/>
<circle cx="113" cy="145" r="7" fill="rgb(243,105,29)" opacity="0.35"/>
<circle cx="113" cy="145" r="5.0" fill="rgb(243,105,29)"/>
<circle cx="127" cy="145" r="7" fill="rgb(239,151,5)" opacity="0.35"/>
<circle cx="127" cy="145" r="5.0" fill="rgb(239,151,5)"/>
<circle cx="141" cy="145" r="7" fill="rgb(224,179,10)" opacity="0.35"/>
<circle cx="141" cy="145" r="5.0" fill="rgb(224,179,10)"/>
<circle cx="155" cy="145" r="7" fill="rgb(212,189,14)" opacity="0.35"/>
<circle cx="155" cy="145" r="5.0" fill="rgb(212,189,14)"/>
<circle cx="169" cy="145" r="7" fill="rgb(212,191,14)" opacity="0.35"/>
<circle cx="169" cy="145" r="5.0" fill="rgb(212,191,14)"/>
<circle cx="183" cy="145" r="7" fill="rgb(223,185,10)" opacity="0.35"/>
<circle cx="183" cy="145" r="5.0" fill="rgb(223,185,10)"/>
<circle cx="197" cy="145" r="7" fill="rgb(238,174,5)" opacity="0.35"/>
<circle cx="197" cy="145" r="5.0" fill="rgb(238,174,5)"/>
<circle cx="211" cy="145" r="7" fill="rgb(250,155,2)" opacity="0.35"/>
<circle cx="211" cy="145" r="5.0" fill="rgb(250,155,2)"/>
<circle cx="225" cy="145" r="7" fill="rgb(255,140,0)" opacity="0.35"/>
<circle cx="225" cy="145" r="5.0" fill="rgb(255,140,0)"/>
<circle cx="15" cy="159" r="7" fill="rgb(36,104,254)" opacity="0.35"/>
<circle cx="15" cy="159" r="5.0" fill="rgb(36,104,254)"/>
<circle cx="29" cy="159" r="7" fill="rgb(33,111,254)" opacity="0.35"/>
<circle cx="29" cy="159" r="5.0" fill="rgb(33,111,254)"/>
<circle cx="43" cy="159" r="7" fill="rgb(35,109,254)" opacity="0.35"/>
<circle cx="43" cy="159" r="5.0" fill="rgb(35,109,254)"/>
<circle cx="57" cy="159" r="7" fill="rgb(61,87,253)" opacity="0.35"/>
<circle cx="57" cy="159" r="5.0" fill="rgb(61,87,253)"/>
<circle cx="71" cy="159" r="7" fill="rgb(118,57,224)" opacity="0.35"/>
<circle cx="71" cy="159" r="5.0" fill="rgb(118,57,224)"/>
<circle cx="85" cy="159" r="7" fill="rgb(187,53,140)" opacity="0.35"/>
<circle cx="85" cy="159" r="5.0" fill="rgb(187,53,140)"/>
<circle cx="99" cy="159" r="7" fill="rgb(238,89,56)" opacity="0.35"/>
<circle cx="99" cy="159" r="5.0" fill="rgb(238,89,56)"/>
<circle cx="113" cy="159" r="7" fill="rgb(238,145,5)" opacity="0.35"/>
<circle cx="113" cy="159" r="5.0" fill="rgb(238,145,5)"/>
<circle cx="127" cy="159" r="7" fill="rgb(203,185,17)" opacity="0.35"/>
<circle cx="127" cy="159" r="5.0" fill="rgb(203,185,17)"/>
<circle cx="141" cy="159" r="7" fill="rgb(159,201,32)" opacity="0.35"/>
<circle cx="141" cy="159" r="5.0" fill="rgb(159,201,32)"/>
<circle cx="155" cy="159" r="7" fill="rgb(132,205,41)" opacity="0.35"/>
<circle cx="155" cy="159" r="5.0" fill="rgb(132,205,41)"/>
<circle cx="169" cy="159" r="7" fill="rgb(130,205,42)" opacity="0.35"/>
<circle cx="169" cy="159" r="5.0" fill="rgb(130,205,42)"/>
<circle cx="183" cy="159" r="7" fill="rgb(149,203,35)" opacity="0.35"/>
<circle cx="183" cy="159" r="5.0" fill="rgb(149,203,35)"/>
<circle cx="197" cy="159" r="7" fill="rgb(182,197,24)" opacity="0.35"/>
<circle cx="197" cy="159" r="5.0" fill="rgb(182,197,24)"/>
<circle cx="211" cy="159" r="7" fill="rgb(217,188,12)" opacity="0.35"/>
<circle cx="211" cy="159" r="5.0" fill="rgb(217,188,12)"/>
<circle cx="225" cy="159" r="7" fill="rgb(240,179,5)" opacity="0.35"/>
<circle cx="225" cy="159" r="5.0" fill="rgb(240,179,5)"/>
<circle cx="15" cy="173" r="7" fill="rgb(55,84,254)" opacity="0.35"/>
<circle cx="15" cy="173" r="5.0" fill="rgb(55,84,254)"/>
<circle cx="29" cy="173" r="7" fill="rgb(51,89,254)" opacity="0.35"/>
<circle cx="29" cy="173" r="5.0" fill="rgb(51,89,254)"/>
<circle cx="43" cy="173" r="7" fill="rgb(58,85,254)" opacity="0.35"/>
<circle cx="43" cy="173" r="5.0" fill="rgb(58,85,254)"/>
<circle cx="57" cy="173" r="7" fill="rgb(96,62,252)" opacity="0.35"/>
<circle cx="57" cy="173" r="5.0" fill="rgb(96,62,252)"/>
<circle cx="71" cy="173" r="7" fill="rgb(160,45,196)" opacity="0.35"/>
<circle cx="71" cy="173" r="5.0" fill="rgb(160,45,196)"/>
<circle cx="85" cy="173" r="7" fill="rgb(218,64,111)" opacity="0.35"/>
<circle cx="85" cy="173" r="5.0" fill="rgb(218,64,111)"/>
<circle cx="99" cy="173" r="7" fill="rgb(247,119,29)" opacity="0.35"/>
<circle cx="99" cy="173" r="5.0" fill="rgb(247,119,29)"/>
<circle cx="113" cy="173" r="7" fill="rgb(215,174,13)" opacity="0.35"/>
<circle cx="113" cy="173" r="5.0" fill="rgb(215,174,13)"/>
<circle cx="127" cy="173" r="7" fill="rgb(151,200,37)" opacity="0.35"/>
<circle cx="127" cy="173" r="5.0" fill="rgb(151,200,37)"/>
<circle cx="141" cy="173" r="7" fill="rgb(82,203,67)" opacity="0.35"/>
<circle cx="141" cy="173" r="5.0" fill="rgb(82,203,67)"/>
<circle cx="155" cy="173" r="7" fill="rgb(47,200,88)" opacity="0.35"/>
<circle cx="155" cy="173" r="5.0" fill="rgb(47,200,88)"/>
<circle cx="169" cy="173" r="7" fill="rgb(45,199,92)" opacity="0.35"/>
<circle cx="169" cy="173" r="5.0" fill="rgb(45,199,92)"/>
<circle cx="183" cy="173" r="7" fill="rgb(64,201,80)" opacity="0.35"/>
<circle cx="183" cy="173" r="5.0" fill="rgb(64,201,80)"/>
<circle cx="197" cy="173" r="7" fill="rgb(101,203,59)" opacity="0.35"/>
<circle cx="197" cy="173" r="5.0" fill="rgb(101,203,59)"/>
<circle cx="211" cy="173" r="7" fill="rgb(151,202,36)" opacity="0.35"/>
<circle cx="211" cy="173" r="5.0" fill="rgb(151,202,36)"/>
<circle cx="225" cy="173" r="7" fill="rgb(188,200,22)" opacity="0.35"/>
<circle cx="225" cy="173" r="5.0" fill="rgb(188,200,22)"/>
<circle cx="15" cy="187" r="7" fill="rgb(87,62,253)" opacity="0.35"/>
<circle cx="15" cy="187" r="5.0" fill="rgb(87,62,253)"/>
<circle cx="29" cy="187" r="7" fill="rgb(82,65,253)" opacity="0.35"/>
<circle cx="29" cy="187" r="5.0" fill="rgb(82,65,253)"/>
<circle cx="43" cy="187" r="7" fill="rgb(92,60,253)" opacity="0.35"/>
<circle cx="43" cy="187" r="5.0" fill="rgb(92,60,253)"/>
<circle cx="57" cy="187" r="7" fill="rgb(138,43,224)" opacity="0.35"/>
<circle cx="57" cy="187" r="5.0" fill="rgb(138,43,224)"/>
<circle cx="71" cy="187" r="7" fill="rgb(196,46,139)" opacity="0.35"/>
<circle cx="71" cy="187" r="5.0" fill="rgb(196,46,139)"/>
<circle cx="85" cy="187" r="7" fill="rgb(239,83,56)" opacity="0.35"/>
<circle cx="85" cy="187" r="5.0" fill="rgb(239,83,56)"/>
<circle cx="99" cy="187" r="7" fill="rgb(243,146,4)" opacity="0.35"/>
<circle cx="99" cy="187" r="5.0" fill="rgb(243,146,4)"/>
<circle cx="113" cy="187" r="7" fill="rgb(184,188,23)" opacity="0.35"/>
<circle cx="113" cy="187" r="5.0" fill="rgb(184,188,23)"/>
<circle cx="127" cy="187" r="7" fill="rgb(104,202,59)" opacity="0.35"/>
<circle cx="127" cy="187" r="5.0" fill="rgb(104,202,59)"/>
<circle cx="141" cy="187" r="7" fill="rgb(30,197,103)" opacity="0.35"/>
<circle cx="141" cy="187" r="5.0" fill="rgb(30,197,103)"/>
<circle cx="155" cy="187" r="7" fill="rgb(5,193,134)" opacity="0.35"/>
<circle cx="155" cy="187" r="5.0" fill="rgb(5,193,134)"/>
<circle cx="169" cy="187" r="7" fill="rgb(2,191,144)" opacity="0.35"/>
<circle cx="169" cy="187" r="5.0" fill="rgb(2,191,144)"/>
<circle cx="183" cy="187" r="7" fill="rgb(11,193,133)" opacity="0.35"/>
<circle cx="183" cy="187" r="5.0" fill="rgb(11,193,133)"/>
<circle cx="197" cy="187" r="7" fill="rgb(33,197,106)" opacity="0.35"/>
<circle cx="197" cy="187" r="5.0" fill="rgb(33,197,106)"/>
<circle cx="211" cy="187" r="7" fill="rgb(75,202,74)" opacity="0.35"/>
<circle cx="211" cy="187" r="5.0" fill="rgb(75,202,74)"/>
<circle cx="225" cy="187" r="7" fill="rgb(110,205,51)" opacity="0.35"/>
<circle cx="225" cy="187" r="5.0" fill="rgb(110,205,51)"/>
<circle cx="15" cy="201" r="7" fill="rgb(131,39,252)" opacity="0.35"/>
<circle cx="15" cy="201" r="5.0" fill="rgb(131,39,252)"/>
<circle cx="29" cy="201" r="7" fill="rgb(125,42,252)" opacity="0.35"/>
<circle cx="29" cy="201" r="5.0" fill="rgb(125,42,252)"/>
<circle cx="43" cy="201" r="7" fill="rgb(139,37,224)" opacity="0.35"/>
<circle cx="43" cy="201" r="5.0" fill="rgb(139,37,224)"/>
<circle cx="57" cy="201" r="7" fill="rgb(182,31,167)" opacity="0.35"/>
<circle cx="57" cy="201" r="5.0" fill="rgb(182,31,167)"/>
<circle cx="71" cy="201" r="7" fill="rgb(227,52,83)" opacity="0.35"/>
<circle cx="71" cy="201" r="5.0" fill="rgb(227,52,83)"/>
<circle cx="85" cy="201" r="7" fill="rgb(250,104,28)" opacity="0.35"/>
<circle cx="85" cy="201" r="5.0" fill="rgb(250,104,28)"/>
<circle cx="99" cy="201" r="7" fill="rgb(231,163,8)" opacity="0.35"/>
<circle cx="99" cy="201" r="5.0" fill="rgb(231,163,8)"/>
<circle cx="113" cy="201" r="7" fill="rgb(156,195,33)" opacity="0.35"/>
<circle cx="113" cy="201" r="5.0" fill="rgb(156,195,33)"/>
<circle cx="127" cy="201" r="7" fill="rgb(71,201,80)" opacity="0.35"/>
<circle cx="127" cy="201" r="5.0" fill="rgb(71,201,80)"/>
<circle cx="141" cy="201" r="7" fill="rgb(10,193,134)" opacity="0.35"/>
<circle cx="141" cy="201" r="5.0" fill="rgb(10,193,134)"/>
<circle cx="155" cy="201" r="7" fill="rgb(0,187,176)" opacity="0.35"/>
<circle cx="155" cy="201" r="5.0" fill="rgb(0,187,176)"/>
<circle cx="169" cy="201" r="7" fill="rgb(0,185,193)" opacity="0.35"/>
<circle cx="169" cy="201" r="5.0" fill="rgb(0,185,193)"/>
<circle cx="183" cy="201" r="7" fill="rgb(0,186,184)" opacity="0.35"/>
<circle cx="183" cy="201" r="5.0" fill="rgb(0,186,184)"/>
<circle cx="197" cy="201" r="7" fill="rgb(5,190,155)" opacity="0.35"/>
<circle cx="197" cy="201" r="5.0" fill="rgb(5,190,155)"/>
<circle cx="211" cy="201" r="7" fill="rgb(22,196,116)" opacity="0.35"/>
<circle cx="211" cy="201" r="5.0" fill="rgb(22,196,116)"/>
<circle cx="225" cy="201" r="7" fill="rgb(40,200,88)" opacity="0.35"/>
<circle cx="225" cy="201" r="5.0" fill="rgb(40,200,88)"/>
<circle cx="15" cy="215" r="7" fill="rgb(182,22,195)" opacity="0.35"/>
<circle cx="15" cy="215" r="5.0" fill="rgb(182,22,195)"/>
<circle cx="29" cy="215" r="7" fill="rgb(172,23,223)" opacity="0.35"/>
<circle cx="29" cy="215" r="5.0" fill="rgb(172,23,223)"/>
<circle cx="43" cy="215" r="7" fill="rgb(183,21,195)" opacity="0.35"/>
<circle cx="43" cy="215" r="5.0" fill="rgb(183,21,195)"/>
<circle cx="57" cy="215" r="7" fill="rgb(216,31,111)" opacity="0.35"/>
<circle cx="57" cy="215" r="5.0" fill="rgb(216,31,111)"/>
<circle cx="71" cy="215" r="7" fill="rgb(246,66,28)" opacity="0.35"/>
<circle cx="71" cy="215" r="5.0" fill="rgb(246,66,28)"/>
<circle cx="85" cy="215" r="7" fill="rgb(255,124,0)" opacity="0.35"/>
<circle cx="85" cy="215" r="5.0" fill="rgb(255,124,0)"/>
<circle cx="99" cy="215" r="7" fill="rgb(220,175,11)" opacity="0.35"/>
<circle cx="99" cy="215" r="5.0" fill="rgb(220,175,11)"/>
<circle cx="113" cy="215" r="7" fill="rgb(137,199,40)" opacity="0.35"/>
<circle cx="113" cy="215" r="5.0" fill="rgb(137,199,40)"/>
<circle cx="127" cy="215" r="7" fill="rgb(52,199,94)" opacity="0.35"/>
<circle cx="127" cy="215" r="5.0" fill="rgb(52,199,94)"/>
<circle cx="141" cy="215" r="7" fill="rgb(2,190,154)" opacity="0.35"/>
<circle cx="141" cy="215" r="5.0" fill="rgb(2,190,154)"/>
<circle cx="155" cy="215" r="7" fill="rgb(0,183,203)" opacity="0.35"/>
<circle cx="155" cy="215" r="5.0" fill="rgb(0,183,203)"/>
<circle cx="169" cy="215" r="7" fill="rgb(0,180,225)" opacity="0.35"/>
<circle cx="169" cy="215" r="5.0" fill="rgb(0,180,225)"/>
<circle cx="183" cy="215" r="7" fill="rgb(0,181,220)" opacity="0.35"/>
<circle cx="183" cy="215" r="5.0" fill="rgb(0,181,220)"/>
<circle cx="197" cy="215" r="7" fill="rgb(0,184,194)" opacity="0.35"/>
<circle cx="197" cy="215" r="5.0" fill="rgb(0,184,194)"/>
<circle cx="211" cy="215" r="7" fill="rgb(4,190,153)" opacity="0.35"/>
<circle cx="211" cy="215" r="5.0" fill="rgb(4,190,153)"/>
<circle cx="225" cy="215" r="7" fill="rgb(7,195,122)" opacity="0.35"/>
<circle cx="225" cy="215" r="5.0" fill="rgb(7,195,122)"/>
<circle cx="15" cy="229" r="7" fill="rgb(223,20,111)" opacity="0.35"/>
<circle cx="15" cy="229" r="5.0" fill="rgb(223,20,111)"/>
<circle cx="29" cy="229" r="7" fill="rgb(215,18,139)" opacity="0.35"/>
<circle cx="29" cy="229" r="5.0" fill="rgb(215,18,139)"/>
<circle cx="43" cy="229" r="7" fill="rgb(223,19,111)" opacity="0.35"/>
<circle cx="43" cy="229" r="5.0" fill="rgb(223,19,111)"/>
<circle cx="57" cy="229" r="7" fill="rgb(240,39,55)" opacity="0.35"/>
<circle cx="57" cy="229" r="5.0" fill="rgb(240,39,55)"/>
<circle cx="71" cy="229" r="7" fill="rgb(255,80,0)" opacity="0.35"/>
<circle cx="71" cy="229" r="5.0" fill="rgb(255,80,0)"/>
<circle cx="85" cy="229" r="7" fill="rgb(255,138,0)" opacity="0.35"/>
<circle cx="85" cy="229" r="5.0" fill="rgb(255,138,0)"/>
<circle cx="99" cy="229" r="7" fill="rgb(215,182,13)" opacity="0.35"/>
<circle cx="99" cy="229" r="5.0" fill="rgb(215,182,13)"/>
<circle cx="113" cy="229" r="7" fill="rgb(130,201,44)" opacity="0.35"/>
<circle cx="113" cy="229" r="5.0" fill="rgb(130,201,44)"/>
<circle cx="127" cy="229" r="7" fill="rgb(45,198,100)" opacity="0.35"/>
<circle cx="127" cy="229" r="5.0" fill="rgb(45,198,100)"/>
<circle cx="141" cy="229" r="7" fill="rgb(0,189,161)" opacity="0.35"/>
<circle cx="141" cy="229" r="5.0" fill="rgb(0,189,161)"/>
<circle cx="155" cy="229" r="7" fill="rgb(0,182,214)" opacity="0.35"/>
<circle cx="155" cy="229" r="5.0" fill="rgb(0,182,214)"/>
<circle cx="169" cy="229" r="7" fill="rgb(0,178,239)" opacity="0.35"/>
<circle cx="169" cy="229" r="5.0" fill="rgb(0,178,239)"/>
<circle cx="183" cy="229" r="7" fill="rgb(0,178,239)" opacity="0.35"/>
<circle cx="183" cy="229" r="5.0" fill="rgb(0,178,239)"/>
<circle cx="197" cy="229" r="7" fill="rgb(0,181,217)" opacity="0.35"/>
<circle cx="197" cy="229" r="5.0" fill="rgb(0,181,217)"/>
<circle cx="211" cy="229" r="7" fill="rgb(0,187,178)" opacity="0.35"/>
<circle cx="211" cy="229" r="5.0" fill="rgb(0,187,178)"/>
<circle cx="225" cy="229" r="7" fill="rgb(0,191,147)" opacity="0.35"/>
<circle cx="225" cy="229" r="5.0" fill="rgb(0,191,147)"/>
<circle cx="15" cy="243" r="7" fill="rgb(249,34,28)" opacity="0.35"/>
<circle cx="15" cy="243" r="5.0" fill="rgb(249,34,28)"/>
<circle cx="29" cy="243" r="7" fill="rgb(243,28,55)" opacity="0.35"/>
<circle cx="29" cy="243" r="5.0" fill="rgb(243,28,55)"/>
<circle cx="43" cy="243" r="7" fill="rgb(243,29,55)" opacity="0.35"/>
<circle cx="43" cy="243" r="5.0" fill="rgb(243,29,55)"/>
<circle cx="57" cy="243" r="7" fill="rgb(250,53,28)" opacity="0.35"/>
<circle cx="57" cy="243" r="5.0" fill="rgb(250,53,28)"/>
<circle cx="71" cy="243" r="7" fill="rgb(255,95,0)" opacity="0.35"/>
<circle cx="71" cy="243" r="5.0" fill="rgb(255,95,0)"/>
<circle cx="85" cy="243" r="7" fill="rgb(255,148,0)" opacity="0.35"/>
<circle cx="85" cy="243" r="5.0" fill="rgb(255,148,0)"/>
<circle cx="99" cy="243" r="7" fill="rgb(214,186,13)" opacity="0.35"/>
<circle cx="99" cy="243" r="5.0" fill="rgb(214,186,13)"/>
<circle cx="113" cy="243" r="7" fill="rgb(130,203,43)" opacity="0.35"/>
<circle cx="113" cy="243" r="5.0" fill="rgb(130,203,43)"/>
<circle cx="127" cy="243" r="7" fill="rgb(45,198,98)" opacity="0.35"/>
<circle cx="127" cy="243" r="5.0" fill="rgb(45,198,98)"/>
<circle cx="141" cy="243" r="7" fill="rgb(1,189,158)" opacity="0.35"/>
<circle cx="141" cy="243" r="5.0" fill="rgb(1,189,158)"/>
<circle cx="155" cy="243" r="7" fill="rgb(0,182,210)" opacity="0.35"/>
<circle cx="155" cy="243" r="5.0" fill="rgb(0,182,210)"/>
<circle cx="169" cy="243" r="7" fill="rgb(0,178,238)" opacity="0.35"/>
<circle cx="169" cy="243" r="5.0" fill="rgb(0,178,238)"/>
<circle cx="183" cy="243" r="7" fill="rgb(0,178,241)" opacity="0.35"/>
<circle cx="183" cy="243" r="5.0" fill="rgb(0,178,241)"/>
<circle cx="197" cy="243" r="7" fill="rgb(0,181,222)" opacity="0.35"/>
<circle cx="197" cy="243" r="5.0" fill="rgb(0,181,222)"/>
<circle cx="211" cy="243" r="7" fill="rgb(0,186,186)" opacity="0.35"/>
<circle cx="211" cy="243" r="5.0" fill="rgb(0,186,186)"/>
<circle cx="225" cy="243" r="7" fill="rgb(0,190,157)" opacity="0.35"/>
<circle cx="225" cy="243" r="5.0" fill="rgb(0,190,157)"/>
<circle cx="15" cy="257" r="7" fill="rgb(255,50,0)" opacity="0.35"/>
<circle cx="15" cy="257" r="5.0" fill="rgb(255,50,0)"/>
<circle cx="29" cy="257" r="7" fill="rgb(255,42,0)" opacity="0.35"/>
<circle cx="29" cy="257" r="5.0" fill="rgb(255,42,0)"/>
<circle cx="43" cy="257" r="7" fill="rgb(255,42,0)" opacity="0.35"/>
<circle cx="43" cy="257" r="5.0" fill="rgb(255,42,0)"/>
<circle cx="57" cy="257" r="7" fill="rgb(255,64,0)" opacity="0.35"/>
<circle cx="57" cy="257" r="5.0" fill="rgb(255,64,0)"/>
<circle cx="71" cy="257" r="7" fill="rgb(255,104,0)" opacity="0.35"/>
<circle cx="71" cy="257" r="5.0" fill="rgb(255,104,0)"/>
<circle cx="85" cy="257" r="7" fill="rgb(255,152,0)" opacity="0.35"/>
<circle cx="85" cy="257" r="5.0" fill="rgb(255,152,0)"/>
<circle cx="99" cy="257" r="7" fill="rgb(215,187,13)" opacity="0.35"/>
<circle cx="99" cy="257" r="5.0" fill="rgb(215,187,13)"/>
<circle cx="113" cy="257" r="7" fill="rgb(132,203,41)" opacity="0.35"/>
<circle cx="113" cy="257" r="5.0" fill="rgb(132,203,41)"/>
<circle cx="127" cy="257" r="7" fill="rgb(47,199,94)" opacity="0.35"/>
<circle cx="127" cy="257" r="5.0" fill="rgb(47,199,94)"/>
<circle cx="141" cy="257" r="7" fill="rgb(1,190,152)" opacity="0.35"/>
<circle cx="141" cy="257" r="5.0" fill="rgb(1,190,152)"/>
<circle cx="155" cy="257" r="7" fill="rgb(0,183,204)" opacity="0.35"/>
<circle cx="155" cy="257" r="5.0" fill="rgb(0,183,204)"/>
<circle cx="169" cy="257" r="7" fill="rgb(0,179,232)" opacity="0.35"/>
<circle cx="169" cy="257" r="5.0" fill="rgb(0,179,232)"/>
<circle cx="183" cy="257" r="7" fill="rgb(0,179,236)" opacity="0.35"/>
<circle cx="183" cy="257" r="5.0" fill="rgb(0,179,236)"/>
<circle cx="197" cy="257" r="7" fill="rgb(0,181,219)" opacity="0.35"/>
<circle cx="197" cy="257" r="5.0" fill="rgb(0,181,219)"/>
<circle cx="211" cy="257" r="7" fill="rgb(0,186,185)" opacity="0.35"/>
<circle cx="211" cy="257" r="5.0" fill="rgb(0,186,185)"/>
<circle cx="225" cy="257" r="7" fill="rgb(0,190,157)" opacity="0.35"/>
<circle cx="225" cy="257" r="5.0" fill="rgb(0,190,157)"/>
<circle cx="-2" cy="280" r="9" fill="#5ad1ff" opacity="0.25"/>
<circle cx="-2" cy="280" r="6" fill="#5ad1ff" stroke="#0d0f12" stroke-width="1.5"/>
<text x="10" y="284" font-family="'JetBrains Mono','Cascadia Mono','Consolas',monospace" font-size="12" fill="#a0a0a0">Frame</text>
<circle cx="242" cy="280" r="9" fill="#5ad1ff" opacity="0.25"/>
<circle cx="242" cy="280" r="6" fill="#5ad1ff" stroke="#0d0f12" stroke-width="1.5"/>
<text x="230" y="284" text-anchor="end" font-family="'JetBrains Mono','Cascadia Mono','Consolas',monospace" font-size="12" fill="#a0a0a0">Frame</text>
<circle cx="-2" cy="308" r="9" fill="#9aa0a6" opacity="0.25"/>
<circle cx="-2" cy="308" r="6" fill="#9aa0a6" stroke="#0d0f12" stroke-width="1.5"/>
<text x="10" y="312" font-family="'JetBrains Mono','Cascadia Mono','Consolas',monospace" font-size="12" fill="#a0a0a0">Amount</text>
<line x1="8" y1="328" x2="232" y2="328" stroke="rgba(255,255,255,0.08)"/>
<text x="8" y="348" font-family="'JetBrains Mono','Cascadia Mono','Consolas',monospace" font-size="12" fill="#a0a0a0">amount</text>
<g>
<rect x="120" y="342" width="72" height="4" rx="2" fill="#cfd2d6" opacity="0.85"/>
<rect x="120" y="342" width="10.8" height="4" rx="2" fill="#d633ff"/>
<circle cx="130.8" cy="344" r="5" fill="#d633ff"/>
<text x="232" y="348" text-anchor="end" font-family="'JetBrains Mono','Cascadia Mono','Consolas',monospace" font-size="12" fill="#e0e0e0">0.15</text>
</g>
<text x="8" y="369" font-family="'JetBrains Mono','Cascadia Mono','Consolas',monospace" font-size="12" fill="#a0a0a0">clamp inputs</text>
<g>
<rect x="220" y="359" width="12" height="12" rx="3" fill="#0d0f12" stroke="rgba(255,255,255,0.12)"/>
</g>
<text x="8" y="390" font-family="'JetBrains Mono','Cascadia Mono','Consolas',monospace" font-size="12" fill="#a0a0a0">bypass</text>
<g>
<rect x="220" y="380" width="12" height="12" rx="3" fill="#0d0f12" stroke="rgba(255,255,255,0.12)"/>
</g>
</g>
</svg>
