<svg xmlns="http://www.w3.org/2000/svg" viewBox="0 0 296 748" width="296" height="748" role="img" aria-label="Circle node">

<defs><filter id="shadow" x="-20%" y="-20%" width="140%" height="160%"><feDropShadow dx="0" dy="8" stdDeviation="9" flood-color="#000" flood-opacity="0.45"/></filter></defs>
<g transform="translate(28,24)">
<rect x="0" y="0" width="240" height="690" rx="8" fill="#1f242b" stroke="rgba(255,255,255,0.12)" filter="url(#shadow)"/>
<rect x="0" y="0" width="240" height="690" rx="8" fill="#1f242b" stroke="rgba(255,255,255,0.12)"/>
<path d="M0,32 L0,8 Q0,0 8,0 L232,0 Q240,0 240,8 L240,32 Z" fill="#33d6ff"/>
<text x="8" y="21" font-family="'Audiowide','Trebuchet MS','Arial Black',sans-serif" font-size="14" font-weight="600" fill="#000">Circle</text>
<rect x="154" y="10" width="25" height="12" rx="6" fill="rgba(0,0,0,0.14)" stroke="rgba(255,255,255,0.14)"/>
<text x="166.5" y="19" text-anchor="middle" font-family="'JetBrains Mono','Cascadia Mono','Consolas',monospace" font-size="8" letter-spacing="0.08em" fill="#000">PAT</text>
<rect x="185" y="10" width="47" height="12" rx="6" fill="rgba(0,0,0,0.14)" stroke="rgba(255,255,255,0.14)"/>
<text x="208.5" y="19" text-anchor="middle" font-family="'JetBrains Mono','Cascadia Mono','Consolas',monospace" font-size="8" letter-spacing="0.08em" fill="#000">CIR-484</text>
<circle cx="85" cy="61" r="7" fill="rgb(73,10,37)" opacity="0.35"/>
<circle cx="85" cy="61" r="5.0" fill="rgb(73,10,37)"/>
<circle cx="99" cy="61" r="7" fill="rgb(148,12,74)" opacity="0.35"/>
<circle cx="99" cy="61" r="5.0" fill="rgb(148,12,74)"/>
<circle cx="113" cy="61" r="7" fill="rgb(186,10,94)" opacity="0.35"/>
<circle cx="113" cy="61" r="5.0" fill="rgb(186,10,94)"/>
<circle cx="127" cy="61" r="7" fill="rgb(186,10,94)" opacity="0.35"/>
<circle cx="127" cy="61" r="5.0" fill="rgb(186,10,94)"/>
<circle cx="141" cy="61" r="7" fill="rgb(148,12,74)" opacity="0.35"/>
<circle cx="141" cy="61" r="5.0" fill="rgb(148,12,74)"/>
<circle cx="155" cy="61" r="7" fill="rgb(73,10,37)" opacity="0.35"/>
<circle cx="155" cy="61" r="5.0" fill="rgb(73,10,37)"/>
<circle cx="57" cy="75" r="7" fill="rgb(37,6,18)" opacity="0.35"/>
<circle cx="57" cy="75" r="5.0" fill="rgb(37,6,18)"/>
<circle cx="71" cy="75" r="7" fill="rgb(186,10,94)" opacity="0.35"/>
<circle cx="71" cy="75" r="5.0" fill="rgb(186,10,94)"/>
<circle cx="85" cy="75" r="7" fill="rgb(255,0,128)" opacity="0.35"/>
<circle cx="85" cy="75" r="5.0" fill="rgb(255,0,128)"/>
<circle cx="99" cy="75" r="7" fill="rgb(242,2,122)" opacity="0.35"/>
<circle cx="99" cy="75" r="5.0" fill="rgb(242,2,122)"/>
<circle cx="113" cy="75" r="7" fill="rgb(249,11,125)" opacity="0.35"/>
<circle cx="113" cy="75" r="5.0" fill="rgb(249,11,125)"/>
<circle cx="127" cy="75" r="7" fill="rgb(249,11,125)" opacity="0.35"/>
<circle cx="127" cy="75" r="5.0" fill="rgb(249,11,125)"/>
<circle cx="141" cy="75" r="7" fill="rgb(242,2,122)" opacity="0.35"/>
<circle cx="141" cy="75" r="5.0" fill="rgb(242,2,122)"/>
<circle cx="155" cy="75" r="7" fill="rgb(255,0,128)" opacity="0.35"/>
<circle cx="155" cy="75" r="5.0" fill="rgb(255,0,128)"/>
<circle cx="169" cy="75" r="7" fill="rgb(186,10,94)" opacity="0.35"/>
<circle cx="169" cy="75" r="5.0" fill="rgb(186,10,94)"/>
<circle cx="183" cy="75" r="7" fill="rgb(37,6,18)" opacity="0.35"/>
<circle cx="183" cy="75" r="5.0" fill="rgb(37,6,18)"/>
<circle cx="43" cy="89" r="7" fill="rgb(37,6,18)" opacity="0.35"/>
<circle cx="43" cy="89" r="5.0" fill="rgb(37,6,18)"/>
<circle cx="57" cy="89" r="7" fill="rgb(226,4,113)" opacity="0.35"/>
<circle cx="57" cy="89" r="5.0" fill="rgb(226,4,113)"/>
<circle cx="71" cy="89" r="7" fill="rgb(242,2,122)" opacity="0.35"/>
<circle cx="71" cy="89" r="5.0" fill="rgb(242,2,122)"/>
<circle cx="85" cy="89" r="7" fill="rgb(255,29,128)" opacity="0.35"/>
<circle cx="85" cy="89" r="5.0" fill="rgb(255,29,128)"/>
<circle cx="99" cy="89" r="7" fill="rgb(255,48,128)" opacity="0.35"/>
<circle cx="99" cy="89" r="5.0" fill="rgb(255,48,128)"/>
<circle cx="113" cy="89" r="7" fill="rgb(255,48,128)" opacity="0.35"/>
<circle cx="113" cy="89" r="5.0" fill="rgb(255,48,128)"/>
<circle cx="127" cy="89" r="7" fill="rgb(255,48,128)" opacity="0.35"/>
<circle cx="127" cy="89" r="5.0" fill="rgb(255,48,128)"/>
<circle cx="141" cy="89" r="7" fill="rgb(255,48,128)" opacity="0.35"/>
<circle cx="141" cy="89" r="5.0" fill="rgb(255,48,128)"/>
<circle cx="155" cy="89" r="7" fill="rgb(255,29,128)" opacity="0.35"/>
<circle cx="155" cy="89" r="5.0" fill="rgb(255,29,128)"/>
<circle cx="169" cy="89" r="7" fill="rgb(242,2,122)" opacity="0.35"/>
<circle cx="169" cy="89" r="5.0" fill="rgb(242,2,122)"/>
<circle cx="183" cy="89" r="7" fill="rgb(226,4,113)" opacity="0.35"/>
<circle cx="183" cy="89" r="5.0" fill="rgb(226,4,113)"/>
<circle cx="197" cy="89" r="7" fill="rgb(37,6,18)" opacity="0.35"/>
<circle cx="197" cy="89" r="5.0" fill="rgb(37,6,18)"/>
<circle cx="43" cy="103" r="7" fill="rgb(186,10,94)" opacity="0.35"/>
<circle cx="43" cy="103" r="5.0" fill="rgb(186,10,94)"/>
<circle cx="57" cy="103" r="7" fill="rgb(242,2,122)" opacity="0.35"/>
<circle cx="57" cy="103" r="5.0" fill="rgb(242,2,122)"/>
<circle cx="71" cy="103" r="7" fill="rgb(255,38,128)" opacity="0.35"/>
<circle cx="71" cy="103" r="5.0" fill="rgb(255,38,128)"/>
<circle cx="85" cy="103" r="7" fill="rgb(255,48,128)" opacity="0.35"/>
<circle cx="85" cy="103" r="5.0" fill="rgb(255,48,128)"/>
<circle cx="99" cy="103" r="7" fill="rgb(255,48,128)" opacity="0.35"/>
<circle cx="99" cy="103" r="5.0" fill="rgb(255,48,128)"/>
<circle cx="113" cy="103" r="7" fill="rgb(255,48,128)" opacity="0.35"/>
<circle cx="113" cy="103" r="5.0" fill="rgb(255,48,128)"/>
<circle cx="127" cy="103" r="7" fill="rgb(255,48,128)" opacity="0.35"/>
<circle cx="127" cy="103" r="5.0" fill="rgb(255,48,128)"/>
<circle cx="141" cy="103" r="7" fill="rgb(255,48,128)" opacity="0.35"/>
<circle cx="141" cy="103" r="5.0" fill="rgb(255,48,128)"/>
<circle cx="155" cy="103" r="7" fill="rgb(255,48,128)" opacity="0.35"/>
<circle cx="155" cy="103" r="5.0" fill="rgb(255,48,128)"/>
<circle cx="169" cy="103" r="7" fill="rgb(255,38,128)" opacity="0.35"/>
<circle cx="169" cy="103" r="5.0" fill="rgb(255,38,128)"/>
<circle cx="183" cy="103" r="7" fill="rgb(242,2,122)" opacity="0.35"/>
<circle cx="183" cy="103" r="5.0" fill="rgb(242,2,122)"/>
<circle cx="197" cy="103" r="7" fill="rgb(186,10,94)" opacity="0.35"/>
<circle cx="197" cy="103" r="5.0" fill="rgb(186,10,94)"/>
<circle cx="29" cy="117" r="7" fill="rgb(73,10,37)" opacity="0.35"/>
<circle cx="29" cy="117" r="5.0" fill="rgb(73,10,37)"/>
<circle cx="43" cy="117" r="7" fill="rgb(255,0,128)" opacity="0.35"/>
<circle cx="43" cy="117" r="5.0" fill="rgb(255,0,128)"/>
<circle cx="57" cy="117" r="7" fill="rgb(255,29,128)" opacity="0.35"/>
<circle cx="57" cy="117" r="5.0" fill="rgb(255,29,128)"/>
<circle cx="71" cy="117" r="7" fill="rgb(255,48,128)" opacity="0.35"/>
<circle cx="71" cy="117" r="5.0" fill="rgb(255,48,128)"/>
<circle cx="85" cy="117" r="7" fill="rgb(255,48,128)" opacity="0.35"/>
<circle cx="85" cy="117" r="5.0" fill="rgb(255,48,128)"/>
<circle cx="99" cy="117" r="7" fill="rgb(255,48,128)" opacity="0.35"/>
<circle cx="99" cy="117" r="5.0" fill="rgb(255,48,128)"/>
<circle cx="113" cy="117" r="7" fill="rgb(255,48,128)" opacity="0.35"/>
<circle cx="113" cy="117" r="5.0" fill="rgb(255,48,128)"/>
<circle cx="127" cy="117" r="7" fill="rgb(255,48,128)" opacity="0.35"/>
<circle cx="127" cy="117" r="5.0" fill="rgb(255,48,128)"/>
<circle cx="141" cy="117" r="7" fill="rgb(255,48,128)" opacity="0.35"/>
<circle cx="141" cy="117" r="5.0" fill="rgb(255,48,128)"/>
<circle cx="155" cy="117" r="7" fill="rgb(255,48,128)" opacity="0.35"/>
<circle cx="155" cy="117" r="5.0" fill="rgb(255,48,128)"/>
<circle cx="169" cy="117" r="7" fill="rgb(255,48,128)" opacity="0.35"/>
<circle cx="169" cy="117" r="5.0" fill="rgb(255,48,128)"/>
<circle cx="183" cy="117" r="7" fill="rgb(255,29,128)" opacity="0.35"/>
<circle cx="183" cy="117" r="5.0" fill="rgb(255,29,128)"/>
<circle cx="197" cy="117" r="7" fill="rgb(255,0,128)" opacity="0.35"/>
<circle cx="197" cy="117" r="5.0" fill="rgb(255,0,128)"/>
<circle cx="211" cy="117" r="7" fill="rgb(73,10,37)" opacity="0.35"/>
<circle cx="211" cy="117" r="5.0" fill="rgb(73,10,37)"/>
<circle cx="29" cy="131" r="7" fill="rgb(148,12,74)" opacity="0.35"/>
<circle cx="29" cy="131" r="5.0" fill="rgb(148,12,74)"/>
<circle cx="43" cy="131" r="7" fill="rgb(242,2,122)" opacity="0.35"/>
<circle cx="43" cy="131" r="5.0" fill="rgb(242,2,122)"/>
<circle cx="57" cy="131" r="7" fill="rgb(255,48,128)" opacity="0.35"/>
<circle cx="57" cy="131" r="5.0" fill="rgb(255,48,128)"/>
<circle cx="71" cy="131" r="7" fill="rgb(255,48,128)" opacity="0.35"/>
<circle cx="71" cy="131" r="5.0" fill="rgb(255,48,128)"/>
<circle cx="85" cy="131" r="7" fill="rgb(255,48,128)" opacity="0.35"/>
<circle cx="85" cy="131" r="5.0" fill="rgb(255,48,128)"/>
<circle cx="99" cy="131" r="7" fill="rgb(255,48,128)" opacity="0.35"/>
<circle cx="99" cy="131" r="5.0" fill="rgb(255,48,128)"/>
<circle cx="113" cy="131" r="7" fill="rgb(255,48,128)" opacity="0.35"/>
<circle cx="113" cy="131" r="5.0" fill="rgb(255,48,128)"/>
<circle cx="127" cy="131" r="7" fill="rgb(255,48,128)" opacity="0.35"/>
<circle cx="127" cy="131" r="5.0" fill="rgb(255,48,128)"/>
<circle cx="141" cy="131" r="7" fill="rgb(255,48,128)" opacity="0.35"/>
<circle cx="141" cy="131" r="5.0" fill="rgb(255,48,128)"/>
<circle cx="155" cy="131" r="7" fill="rgb(255,48,128)" opacity="0.35"/>
<circle cx="155" cy="131" r="5.0" fill="rgb(255,48,128)"/>
<circle cx="169" cy="131" r="7" fill="rgb(255,48,128)" opacity="0.35"/>
<circle cx="169" cy="131" r="5.0" fill="rgb(255,48,128)"/>
<circle cx="183" cy="131" r="7" fill="rgb(255,48,128)" opacity="0.35"/>
<circle cx="183" cy="131" r="5.0" fill="rgb(255,48,128)"/>
<circle cx="197" cy="131" r="7" fill="rgb(242,2,122)" opacity="0.35"/>
<circle cx="197" cy="131" r="5.0" fill="rgb(242,2,122)"/>
<circle cx="211" cy="131" r="7" fill="rgb(148,12,74)" opacity="0.35"/>
<circle cx="211" cy="131" r="5.0" fill="rgb(148,12,74)"/>
<circle cx="29" cy="145" r="7" fill="rgb(186,10,94)" opacity="0.35"/>
<circle cx="29" cy="145" r="5.0" fill="rgb(186,10,94)"/>
<circle cx="43" cy="145" r="7" fill="rgb(249,11,125)" opacity="0.35"/>
<circle cx="43" cy="145" r="5.0" fill="rgb(249,11,125)"/>
<circle cx="57" cy="145" r="7" fill="rgb(255,48,128)" opacity="0.35"/>
<circle cx="57" cy="145" r="5.0" fill="rgb(255,48,128)"/>
<circle cx="71" cy="145" r="7" fill="rgb(255,48,128)" opacity="0.35"/>
<circle cx="71" cy="145" r="5.0" fill="rgb(255,48,128)"/>
<circle cx="85" cy="145" r="7" fill="rgb(255,48,128)" opacity="0.35"/>
<circle cx="85" cy="145" r="5.0" fill="rgb(255,48,128)"/>
<circle cx="99" cy="145" r="7" fill="rgb(255,48,128)" opacity="0.35"/>
<circle cx="99" cy="145" r="5.0" fill="rgb(255,48,128)"/>
<circle cx="113" cy="145" r="7" fill="rgb(255,48,128)" opacity="0.35"/>
<circle cx="113" cy="145" r="5.0" fill="rgb(255,48,128)"/>
<circle cx="127" cy="145" r="7" fill="rgb(255,48,128)" opacity="0.35"/>
<circle cx="127" cy="145" r="5.0" fill="rgb(255,48,128)"/>
<circle cx="141" cy="145" r="7" fill="rgb(255,48,128)" opacity="0.35"/>
<circle cx="141" cy="145" r="5.0" fill="rgb(255,48,128)"/>
<circle cx="155" cy="145" r="7" fill="rgb(255,48,128)" opacity="0.35"/>
<circle cx="155" cy="145" r="5.0" fill="rgb(255,48,128)"/>
<circle cx="169" cy="145" r="7" fill="rgb(255,48,128)" opacity="0.35"/>
<circle cx="169" cy="145" r="5.0" fill="rgb(255,48,128)"/>
<circle cx="183" cy="145" r="7" fill="rgb(255,48,128)" opacity="0.35"/>
<circle cx="183" cy="145" r="5.0" fill="rgb(255,48,128)"/>
<circle cx="197" cy="145" r="7" fill="rgb(249,11,125)" opacity="0.35"/>
<circle cx="197" cy="145" r="5.0" fill="rgb(249,11,125)"/>
<circle cx="211" cy="145" r="7" fill="rgb(186,10,94)" opacity="0.35"/>
<circle cx="211" cy="145" r="5.0" fill="rgb(186,10,94)"/>
<circle cx="29" cy="159" r="7" fill="rgb(186,10,94)" opacity="0.35"/>
<circle cx="29" cy="159" r="5.0" fill="rgb(186,10,94)"/>
<circle cx="43" cy="159" r="7" fill="rgb(249,11,125)" opacity="0.35"/>
<circle cx="43" cy="159" r="5.0" fill="rgb(249,11,125)"/>
<circle cx="57" cy="159" r="7" fill="rgb(255,48,128)" opacity="0.35"/>
<circle cx="57" cy="159" r="5.0" fill="rgb(255,48,128)"/>
<circle cx="71" cy="159" r="7" fill="rgb(255,48,128)" opacity="0.35"/>
<circle cx="71" cy="159" r="5.0" fill="rgb(255,48,128)"/>
<circle cx="85" cy="159" r="7" fill="rgb(255,48,128)" opacity="0.35"/>
<circle cx="85" cy="159" r="5.0" fill="rgb(255,48,128)"/>
<circle cx="99" cy="159" r="7" fill="rgb(255,48,128)" opacity="0.35"/>
<circle cx="99" cy="159" r="5.0" fill="rgb(255,48,128)"/>
<circle cx="113" cy="159" r="7" fill="rgb(255,48,128)" opacity="0.35"/>
<circle cx="113" cy="159" r="5.0" fill="rgb(255,48,128)"/>
<circle cx="127" cy="159" r="7" fill="rgb(255,48,128)" opacity="0.35"/>
<circle cx="127" cy="159" r="5.0" fill="rgb(255,48,128)"/>
<circle cx="141" cy="159" r="7" fill="rgb(255,48,128)" opacity="0.35"/>
<circle cx="141" cy="159" r="5.0" fill="rgb(255,48,128)"/>
<circle cx="155" cy="159" r="7" fill="rgb(255,48,128)" opacity="0.35"/>
<circle cx="155" cy="159" r="5.0" fill="rgb(255,48,128)"/>
<circle cx="169" cy="159" r="7" fill="rgb(255,48,128)" opacity="0.35"/>
<circle cx="169" cy="159" r="5.0" fill="rgb(255,48,128)"/>
<circle cx="183" cy="159" r="7" fill="rgb(255,48,128)" opacity="0.35"/>
<circle cx="183" cy="159" r="5.0" fill="rgb(255,48,128)"/>
<circle cx="197" cy="159" r="7" fill="rgb(249,11,125)" opacity="0.35"/>
<circle cx="197" cy="159" r="5.0" fill="rgb(249,11,125)"/>
<circle cx="211" cy="159" r="7" fill="rgb(186,10,94)" opacity="0.35"/>
<circle cx="211" cy="159" r="5.0" fill="rgb(186,10,94)"/>
<circle cx="29" cy="173" r="7" fill="rgb(148,12,74)" opacity="0.35"/>
<circle cx="29" cy="173" r="5.0" fill="rgb(148,12,74)"/>
<circle cx="43" cy="173" r="7" fill="rgb(242,2,122)" opacity="0.35"/>
<circle cx="43" cy="173" r="5.0" fill="rgb(242,2,122)"/>
<circle cx="57" cy="173" r="7" fill="rgb(255,48,128)" opacity="0.35"/>
<circle cx="57" cy="173" r="5.0" fill="rgb(255,48,128)"/>
<circle cx="71" cy="173" r="7" fill="rgb(255,48,128)" opacity="0.35"/>
<circle cx="71" cy="173" r="5.0" fill="rgb(255,48,128)"/>
<circle cx="85" cy="173" r="7" fill="rgb(255,48,128)" opacity="0.35"/>
<circle cx="85" cy="173" r="5.0" fill="rgb(255,48,128)"/>
<circle cx="99" cy="173" r="7" fill="rgb(255,48,128)" opacity="0.35"/>
<circle cx="99" cy="173" r="5.0" fill="rgb(255,48,128)"/>
<circle cx="113" cy="173" r="7" fill="rgb(255,48,128)" opacity="0.35"/>
<circle cx="113" cy="173" r="5.0" fill="rgb(255,48,128)"/>
<circle cx="127" cy="173" r="7" fill="rgb(255,48,128)" opacity="0.35"/>
<circle cx="127" cy="173" r="5.0" fill="rgb(255,48,128)"/>
<circle cx="141" cy="173" r="7" fill="rgb(255,48,128)" opacity="0.35"/>
<circle cx="141" cy="173" r="5.0" fill="rgb(255,48,128)"/>
<circle cx="155" cy="173" r="7" fill="rgb(255,48,128)" opacity="0.35"/>
<circle cx="155" cy="173" r="5.0" fill="rgb(255,48,128)"/>
<circle cx="169" cy="173" r="7" fill="rgb(255,48,128)" opacity="0.35"/>
<circle cx="169" cy="173" r="5.0" fill="rgb(255,48,128)"/>
<circle cx="183" cy="173" r="7" fill="rgb(255,48,128)" opacity="0.35"/>
<circle cx="183" cy="173" r="5.0" fill="rgb(255,48,128)"/>
<circle cx="197" cy="173" r="7" fill="rgb(242,2,122)" opacity="0.35"/>
<circle cx="197" cy="173" r="5.0" fill="rgb(242,2,122)"/>
<circle cx="211" cy="173" r="7" fill="rgb(148,12,74)" opacity="0.35"/>
<circle cx="211" cy="173" r="5.0" fill="rgb(148,12,74)"/>
<circle cx="29" cy="187" r="7" fill="rgb(73,10,37)" opacity="0.35"/>
<circle cx="29" cy="187" r="5.0" fill="rgb(73,10,37)"/>
<circle cx="43" cy="187" r="7" fill="rgb(255,0,128)" opacity="0.35"/>
<circle cx="43" cy="187" r="5.0" fill="rgb(255,0,128)"/>
<circle cx="57" cy="187" r="7" fill="rgb(255,29,128)" opacity="0.35"/>
<circle cx="57" cy="187" r="5.0" fill="rgb(255,29,128)"/>
<circle cx="71" cy="187" r="7" fill="rgb(255,48,128)" opacity="0.35"/>
<circle cx="71" cy="187" r="5.0" fill="rgb(255,48,128)"/>
<circle cx="85" cy="187" r="7" fill="rgb(255,48,128)" opacity="0.35"/>
<circle cx="85" cy="187" r="5.0" fill="rgb(255,48,128)"/>
<circle cx="99" cy="187" r="7" fill="rgb(255,48,128)" opacity="0.35"/>
<circle cx="99" cy="187" r="5.0" fill="rgb(255,48,128)"/>
<circle cx="113" cy="187" r="7" fill="rgb(255,48,128)" opacity="0.35"/>
<circle cx="113" cy="187" r="5.0" fill="rgb(255,48,128)"/>
<circle cx="127" cy="187" r="7" fill="rgb(255,48,128)" opacity="0.35"/>
<circle cx="127" cy="187" r="5.0" fill="rgb(255,48,128)"/>
<circle cx="141" cy="187" r="7" fill="rgb(255,48,128)" opacity="0.35"/>
<circle cx="141" cy="187" r="5.0" fill="rgb(255,48,128)"/>
<circle cx="155" cy="187" r="7" fill="rgb(255,48,128)" opacity="0.35"/>
<circle cx="155" cy="187" r="5.0" fill="rgb(255,48,128)"/>
<circle cx="169" cy="187" r="7" fill="rgb(255,48,128)" opacity="0.35"/>
<circle cx="169" cy="187" r="5.0" fill="rgb(255,48,128)"/>
<circle cx="183" cy="187" r="7" fill="rgb(255,29,128)" opacity="0.35"/>
<circle cx="183" cy="187" r="5.0" fill="rgb(255,29,128)"/>
<circle cx="197" cy="187" r="7" fill="rgb(255,0,128)" opacity="0.35"/>
<circle cx="197" cy="187" r="5.0" fill="rgb(255,0,128)"/>
<circle cx="211" cy="187" r="7" fill="rgb(73,10,37)" opacity="0.35"/>
<circle cx="211" cy="187" r="5.0" fill="rgb(73,10,37)"/>
<circle cx="43" cy="201" r="7" fill="rgb(186,10,94)" opacity="0.35"/>
<circle cx="43" cy="201" r="5.0" fill="rgb(186,10,94)"/>
<circle cx="57" cy="201" r="7" fill="rgb(242,2,122)" opacity="0.35"/>
<circle cx="57" cy="201" r="5.0" fill="rgb(242,2,122)"/>
<circle cx="71" cy="201" r="7" fill="rgb(255,38,128)" opacity="0.35"/>
<circle cx="71" cy="201" r="5.0" fill="rgb(255,38,128)"/>
<circle cx="85" cy="201" r="7" fill="rgb(255,48,128)" opacity="0.35"/>
<circle cx="85" cy="201" r="5.0" fill="rgb(255,48,128)"/>
<circle cx="99" cy="201" r="7" fill="rgb(255,48,128)" opacity="0.35"/>
<circle cx="99" cy="201" r="5.0" fill="rgb(255,48,128)"/>
<circle cx="113" cy="201" r="7" fill="rgb(255,48,128)" opacity="0.35"/>
<circle cx="113" cy="201" r="5.0" fill="rgb(255,48,128)"/>
<circle cx="127" cy="201" r="7" fill="rgb(255,48,128)" opacity="0.35"/>
<circle cx="127" cy="201" r="5.0" fill="rgb(255,48,128)"/>
<circle cx="141" cy="201" r="7" fill="rgb(255,48,128)" opacity="0.35"/>
<circle cx="141" cy="201" r="5.0" fill="rgb(255,48,128)"/>
<circle cx="155" cy="201" r="7" fill="rgb(255,48,128)" opacity="0.35"/>
<circle cx="155" cy="201" r="5.0" fill="rgb(255,48,128)"/>
<circle cx="169" cy="201" r="7" fill="rgb(255,38,128)" opacity="0.35"/>
<circle cx="169" cy="201" r="5.0" fill="rgb(255,38,128)"/>
<circle cx="183" cy="201" r="7" fill="rgb(242,2,122)" opacity="0.35"/>
<circle cx="183" cy="201" r="5.0" fill="rgb(242,2,122)"/>
<circle cx="197" cy="201" r="7" fill="rgb(186,10,94)" opacity="0.35"/>
<circle cx="197" cy="201" r="5.0" fill="rgb(186,10,94)"/>
<circle cx="43" cy="215" r="7" fill="rgb(37,6,18)" opacity="0.35"/>
<circle cx="43" cy="215" r="5.0" fill="rgb(37,6,18)"/>
<circle cx="57" cy="215" r="7" fill="rgb(226,4,113)" opacity="0.35"/>
<circle cx="57" cy="215" r="5.0" fill="rgb(226,4,113)"/>
<circle cx="71" cy="215" r="7" fill="rgb(242,2,122)" opacity="0.35"/>
<circle cx="71" cy="215" r="5.0" fill="rgb(242,2,122)"/>
<circle cx="85" cy="215" r="7" fill="rgb(255,29,128)" opacity="0.35"/>
<circle cx="85" cy="215" r="5.0" fill="rgb(255,29,128)"/>
<circle cx="99" cy="215" r="7" fill="rgb(255,48,128)" opacity="0.35"/>
<circle cx="99" cy="215" r="5.0" fill="rgb(255,48,128)"/>
<circle cx="113" cy="215" r="7" fill="rgb(255,48,128)" opacity="0.35"/>
<circle cx="113" cy="215" r="5.0" fill="rgb(255,48,128)"/>
<circle cx="127" cy="215" r="7" fill="rgb(255,48,128)" opacity="0.35"/>
<circle cx="127" cy="215" r="5.0" fill="rgb(255,48,128)"/>
<circle cx="141" cy="215" r="7" fill="rgb(255,48,128)" opacity="0.35"/>
<circle cx="141" cy="215" r="5.0" fill="rgb(255,48,128)"/>
<circle cx="155" cy="215" r="7" fill="rgb(255,29,128)" opacity="0.35"/>
<circle cx="155" cy="215" r="5.0" fill="rgb(255,29,128)"/>
<circle cx="169" cy="215" r="7" fill="rgb(242,2,122)" opacity="0.35"/>
<circle cx="169" cy="215" r="5.0" fill="rgb(242,2,122)"/>
<circle cx="183" cy="215" r="7" fill="rgb(226,4,113)" opacity="0.35"/>
<circle cx="183" cy="215" r="5.0" fill="rgb(226,4,113)"/>
<circle cx="197" cy="215" r="7" fill="rgb(37,6,18)" opacity="0.35"/>
<circle cx="197" cy="215" r="5.0" fill="rgb(37,6,18)"/>
<circle cx="57" cy="229" r="7" fill="rgb(37,6,18)" opacity="0.35"/>
<circle cx="57" cy="229" r="5.0" fill="rgb(37,6,18)"/>
<circle cx="71" cy="229" r="7" fill="rgb(186,10,94)" opacity="0.35"/>
<circle cx="71" cy="229" r="5.0" fill="rgb(186,10,94)"/>
<circle cx="85" cy="229" r="7" fill="rgb(255,0,128)" opacity="0.35"/>
<circle cx="85" cy="229" r="5.0" fill="rgb(255,0,128)"/>
<circle cx="99" cy="229" r="7" fill="rgb(242,2,122)" opacity="0.35"/>
<circle cx="99" cy="229" r="5.0" fill="rgb(242,2,122)"/>
<circle cx="113" cy="229" r="7" fill="rgb(249,11,125)" opacity="0.35"/>
<circle cx="113" cy="229" r="5.0" fill="rgb(249,11,125)"/>
<circle cx="127" cy="229" r="7" fill="rgb(249,11,125)" opacity="0.35"/>
<circle cx="127" cy="229" r="5.0" fill="rgb(249,11,125)"/>
<circle cx="141" cy="229" r="7" fill="rgb(242,2,122)" opacity="0.35"/>
<circle cx="141" cy="229" r="5.0" fill="rgb(242,2,122)"/>
<circle cx="155" cy="229" r="7" fill="rgb(255,0,128)" opacity="0.35"/>
<circle cx="155" cy="229" r="5.0" fill="rgb(255,0,128)"/>
<circle cx="169" cy="229" r="7" fill="rgb(186,10,94)" opacity="0.35"/>
<circle cx="169" cy="229" r="5.0" fill="rgb(186,10,94)"/>
<circle cx="183" cy="229" r="7" fill="rgb(37,6,18)" opacity="0.35"/>
<circle cx="183" cy="229" r="5.0" fill="rgb(37,6,18)"/>
<circle cx="85" cy="243" r="7" fill="rgb(73,10,37)" opacity="0.35"/>
<circle cx="85" cy="243" r="5.0" fill="rgb(73,10,37)"/>
<circle cx="99" cy="243" r="7" fill="rgb(148,12,74)" opacity="0.35"/>
<circle cx="99" cy="243" r="5.0" fill="rgb(148,12,74)"/>
<circle cx="113" cy="243" r="7" fill="rgb(186,10,94)" opacity="0.35"/>
<circle cx="113" cy="243" r="5.0" fill="rgb(186,10,94)"/>
<circle cx="127" cy="243" r="7" fill="rgb(186,10,94)" opacity="0.35"/>
<circle cx="127" cy="243" r="5.0" fill="rgb(186,10,94)"/>
<circle cx="141" cy="243" r="7" fill="rgb(148,12,74)" opacity="0.35"/>
<circle cx="141" cy="243" r="5.0" fill="rgb(148,12,74)"/>
<circle cx="155" cy="243" r="7" fill="rgb(73,10,37)" opacity="0.35"/>
<circle cx="155" cy="243" r="5.0" fill="rgb(73,10,37)"/>
<circle cx="-2" cy="280" r="9" fill="#5ad1ff" opacity="0.25"/>
<circle cx="-2" cy="280" r="6" fill="#5ad1ff" stroke="#0d0f12" stroke-width="1.5"/>
<text x="10" y="284" font-family="'JetBrains Mono','Cascadia Mono','Consolas',monospace" font-size="12" fill="#a0a0a0">Base</text>
<circle cx="242" cy="280" r="9" fill="#5ad1ff" opacity="0.25"/>
<circle cx="242" cy="280" r="6" fill="#5ad1ff" stroke="#0d0f12" stroke-width="1.5"/>
<text x="230" y="284" text-anchor="end" font-family="'JetBrains Mono','Cascadia Mono','Consolas',monospace" font-size="12" fill="#a0a0a0">Frame</text>
<circle cx="-2" cy="308" r="9" fill="#ffd24a" opacity="0.25"/>
<circle cx="-2" cy="308" r="6" fill="#ffd24a" stroke="#0d0f12" stroke-width="1.5"/>
<text x="10" y="312" font-family="'JetBrains Mono','Cascadia Mono','Consolas',monospace" font-size="12" fill="#a0a0a0">Fill</text>
<circle cx="-2" cy="336" r="9" fill="#ffd24a" opacity="0.25"/>
<circle cx="-2" cy="336" r="6" fill="#ffd24a" stroke="#0d0f12" stroke-width="1.5"/>
<text x="10" y="340" font-family="'JetBrains Mono','Cascadia Mono','Consolas',monospace" font-size="12" fill="#a0a0a0">Edge</text>
<circle cx="-2" cy="364" r="9" fill="#9aa0a6" opacity="0.25"/>
<circle cx="-2" cy="364" r="6" fill="#9aa0a6" stroke="#0d0f12" stroke-width="1.5"/>
<text x="10" y="368" font-family="'JetBrains Mono','Cascadia Mono','Consolas',monospace" font-size="12" fill="#a0a0a0">Center X</text>
<circle cx="-2" cy="392" r="9" fill="#9aa0a6" opacity="0.25"/>
<circle cx="-2" cy="392" r="6" fill="#9aa0a6" stroke="#0d0f12" stroke-width="1.5"/>
<text x="10" y="396" font-family="'JetBrains Mono','Cascadia Mono','Consolas',monospace" font-size="12" fill="#a0a0a0">Center Y</text>
<circle cx="-2" cy="420" r="9" fill="#9aa0a6" opacity="0.25"/>
<circle cx="-2" cy="420" r="6" fill="#9aa0a6" stroke="#0d0f12" stroke-width="1.5"/>
<text x="10" y="424" font-family="'JetBrains Mono','Cascadia Mono','Consolas',monospace" font-size="12" fill="#a0a0a0">Radius</text>
<circle cx="-2" cy="448" r="9" fill="#9aa0a6" opacity="0.25"/>
<circle cx="-2" cy="448" r="6" fill="#9aa0a6" stroke="#0d0f12" stroke-width="1.5"/>
<text x="10" y="452" font-family="'JetBrains Mono','Cascadia Mono','Consolas',monospace" font-size="12" fill="#a0a0a0">Thickness</text>
<line x1="8" y1="468" x2="232" y2="468" stroke="rgba(255,255,255,0.08)"/>
<text x="8" y="488" font-family="'JetBrains Mono','Cascadia Mono','Consolas',monospace" font-size="12" fill="#a0a0a0">cx</text>
<g>
<rect x="120" y="482" width="72" height="4" rx="2" fill="#cfd2d6" opacity="0.85"/>
<rect x="120" y="482" width="36.0" height="4" rx="2" fill="#d633ff"/>
<circle cx="156.0" cy="484" r="5" fill="#d633ff"/>
<text x="232" y="488" text-anchor="end" font-family="'JetBrains Mono','Cascadia Mono','Consolas',monospace" font-size="12" fill="#e0e0e0">0.5</text>
</g>
<text x="8" y="509" font-family="'JetBrains Mono','Cascadia Mono','Consolas',monospace" font-size="12" fill="#a0a0a0">cy</text>
<g>
<rect x="120" y="503" width="72" height="4" rx="2" fill="#cfd2d6" opacity="0.85"/>
<rect x="120" y="503" width="36.0" height="4" rx="2" fill="#d633ff"/>
<circle cx="156.0" cy="505" r="5" fill="#d633ff"/>
<text x="232" y="509" text-anchor="end" font-family="'JetBrains Mono','Cascadia Mono','Consolas',monospace" font-size="12" fill="#e0e0e0">0.5</text>
</g>
<text x="8" y="530" font-family="'JetBrains Mono','Cascadia Mono','Consolas',monospace" font-size="12" fill="#a0a0a0">radius</text>
<g>
<rect x="160" y="518" width="72" height="16" rx="4" fill="#0d0f12" stroke="rgba(255,255,255,0.12)"/>
<text x="164" y="530" font-family="'JetBrains Mono','Cascadia Mono','Consolas',monospace" font-size="11" fill="#e0e0e0">6</text>
</g>
<text x="8" y="551" font-family="'JetBrains Mono','Cascadia Mono','Consolas',monospace" font-size="12" fill="#a0a0a0">thickness</text>
<g>
<rect x="120" y="545" width="72" height="4" rx="2" fill="#cfd2d6" opacity="0.85"/>
<rect x="120" y="545" width="18.0" height="4" rx="2" fill="#d633ff"/>
<circle cx="138.0" cy="547" r="5" fill="#d633ff"/>
<text x="232" y="551" text-anchor="end" font-family="'JetBrains Mono','Cascadia Mono','Consolas',monospace" font-size="12" fill="#e0e0e0">1.5</text>
</g>
<text x="8" y="572" font-family="'JetBrains Mono','Cascadia Mono','Consolas',monospace" font-size="12" fill="#a0a0a0">wrap</text>
<g>
<rect x="220" y="562" width="12" height="12" rx="3" fill="#0d0f12" stroke="rgba(255,255,255,0.12)"/>
</g>
<text x="8" y="593" font-family="'JetBrains Mono','Cascadia Mono','Consolas',monospace" font-size="12" fill="#a0a0a0">filled</text>
<g>
<rect x="220" y="583" width="12" height="12" rx="3" fill="#d633ff"/>
<path d="M222.5,589 l3,3 l4.5,-5.5" fill="none" stroke="#fff" stroke-width="1.8" stroke-linecap="round"/>
</g>
<text x="8" y="614" font-family="'JetBrains Mono','Cascadia Mono','Consolas',monospace" font-size="12" fill="#a0a0a0">fill</text>
<g>
<rect x="160" y="602" width="72" height="16" rx="4" fill="#0d0f12" stroke="rgba(255,255,255,0.12)"/>
<text x="164" y="614" font-family="'JetBrains Mono','Cascadia Mono','Consolas',monospace" font-size="11" fill="#e0e0e0">#ff3080</text>
</g>
<text x="8" y="635" font-family="'JetBrains Mono','Cascadia Mono','Consolas',monospace" font-size="12" fill="#a0a0a0">edge</text>
<g>
<rect x="160" y="623" width="72" height="16" rx="4" fill="#0d0f12" stroke="rgba(255,255,255,0.12)"/>
<text x="164" y="635" font-family="'JetBrains Mono','Cascadia Mono','Consolas',monospace" font-size="11" fill="#e0e0e0">#ff0080</text>
</g>
<text x="8" y="656" font-family="'JetBrains Mono','Cascadia Mono','Consolas',monospace" font-size="12" fill="#a0a0a0">clamp inputs</text>
<g>
<rect x="220" y="646" width="12" height="12" rx="3" fill="#0d0f12" stroke="rgba(255,255,255,0.12)"/>
</g>
<text x="8" y="677" font-family="'JetBrains Mono','Cascadia Mono','Consolas',monospace" font-size="12" fill="#a0a0a0">bypass</text>
<g>
<rect x="220" y="667" width="12" height="12" rx="3" fill="#0d0f12" stroke="rgba(255,255,255,0.12)"/>
</g>
</g>
</svg>
