<svg xmlns="http://www.w3.org/2000/svg" viewBox="0 0 296 552" width="296" height="552" role="img" aria-label="Fractal Noise node">

<defs><filter id="shadow" x="-20%" y="-20%" width="140%" height="160%"><feDropShadow dx="0" dy="8" stdDeviation="9" flood-color="#000" flood-opacity="0.45"/></filter></defs>
<g transform="translate(28,24)">
<rect x="0" y="0" width="240" height="494" rx="8" fill="#1f242b" stroke="rgba(255,255,255,0.12)" filter="url(#shadow)"/>
<rect x="0" y="0" width="240" height="494" rx="8" fill="#1f242b" stroke="rgba(255,255,255,0.12)"/>
<path d="M0,32 L0,8 Q0,0 8,0 L232,0 Q240,0 240,8 L240,32 Z" fill="#33d6ff"/>
<text x="8" y="21" font-family="'Audiowide','Trebuchet MS','Arial Black',sans-serif" font-size="14" font-weight="600" fill="#000">Fractal Noise</text>
<rect x="154" y="10" width="25" height="12" rx="6" fill="rgba(0,0,0,0.14)" stroke="rgba(255,255,255,0.14)"/>
<text x="166.5" y="19" text-anchor="middle" font-family="'JetBrains Mono','Cascadia Mono','Consolas',monospace" font-size="8" letter-spacing="0.08em" fill="#000">PAT</text>
<rect x="185" y="10" width="47" height="12" rx="6" fill="rgba(0,0,0,0.14)" stroke="rgba(255,255,255,0.14)"/>
<text x="208.5" y="19" text-anchor="middle" font-family="'JetBrains Mono','Cascadia Mono','Consolas',monospace" font-size="8" letter-spacing="0.08em" fill="#000">FRA-821</text>
<rect x="8" y="40" width="224" height="224" rx="4" fill="#05070a"/>
<circle cx="15" cy="47" r="7" fill="rgb(20,0,0)" opacity="0.35"/>
<circle cx="15" cy="47" r="5.0" fill="rgb(20,0,0)"/>
<circle cx="29" cy="47" r="7" fill="rgb(20,0,0)" opacity="0.35"/>
<circle cx="29" cy="47" r="5.0" fill="rgb(20,0,0)"/>
<circle cx="43" cy="47" r="7" fill="rgb(20,0,0)" opacity="0.35"/>
<circle cx="43" cy="47" r="5.0" fill="rgb(20,0,0)"/>
<circle cx="57" cy="47" r="7" fill="rgb(20,0,0)" opacity="0.35"/>
<circle cx="57" cy="47" r="5.0" fill="rgb(20,0,0)"/>
<circle cx="71" cy="47" r="7" fill="rgb(20,0,0)" opacity="0.35"/>
<circle cx="71" cy="47" r="5.0" fill="rgb(20,0,0)"/>
<circle cx="85" cy="47" r="7" fill="rgb(20,0,0)" opacity="0.35"/>
<circle cx="85" cy="47" r="5.0" fill="rgb(20,0,0)"/>
<circle cx="99" cy="47" r="7" fill="rgb(20,0,0)" opacity="0.35"/>
<circle cx="99" cy="47" r="5.0" fill="rgb(20,0,0)"/>
<circle cx="113" cy="47" r="7" fill="rgb(20,0,0)" opacity="0.35"/>
<circle cx="113" cy="47" r="5.0" fill="rgb(20,0,0)"/>
<circle cx="127" cy="47" r="7" fill="rgb(20,0,0)" opacity="0.35"/>
<circle cx="127" cy="47" r="5.0" fill="rgb(20,0,0)"/>
<circle cx="141" cy="47" r="7" fill="rgb(20,0,0)" opacity="0.35"/>
<circle cx="141" cy="47" r="5.0" fill="rgb(20,0,0)"/>
<circle cx="155" cy="47" r="7" fill="rgb(20,0,0)" opacity="0.35"/>
<circle cx="155" cy="47" r="5.0" fill="rgb(20,0,0)"/>
<circle cx="169" cy="47" r="7" fill="rgb(20,0,0)" opacity="0.35"/>
<circle cx="169" cy="47" r="5.0" fill="rgb(20,0,0)"/>
<circle cx="183" cy="47" r="7" fill="rgb(20,0,0)" opacity="0.35"/>
<circle cx="183" cy="47" r="5.0" fill="rgb(20,0,0)"/>
<circle cx="197" cy="47" r="7" fill="rgb(20,0,0)" opacity="0.35"/>
<circle cx="197" cy="47" r="5.0" fill="rgb(20,0,0)"/>
<circle cx="211" cy="47" r="7" fill="rgb(21,0,0)" opacity="0.35"/>
<circle cx="211" cy="47" r="5.0" fill="rgb(21,0,0)"/>
<circle cx="225" cy="47" r="7" fill="rgb(20,0,0)" opacity="0.35"/>
<circle cx="225" cy="47" r="5.0" fill="rgb(20,0,0)"/>
<circle cx="15" cy="61" r="7" fill="rgb(20,0,0)" opacity="0.35"/>
<circle cx="15" cy="61" r="5.0" fill="rgb(20,0,0)"/>
<circle cx="29" cy="61" r="7" fill="rgb(20,0,0)" opacity="0.35"/>
<circle cx="29" cy="61" r="5.0" fill="rgb(20,0,0)"/>
<circle cx="43" cy="61" r="7" fill="rgb(20,0,0)" opacity="0.35"/>
<circle cx="43" cy="61" r="5.0" fill="rgb(20,0,0)"/>
<circle cx="57" cy="61" r="7" fill="rgb(20,0,0)" opacity="0.35"/>
<circle cx="57" cy="61" r="5.0" fill="rgb(20,0,0)"/>
<circle cx="71" cy="61" r="7" fill="rgb(20,0,0)" opacity="0.35"/>
<circle cx="71" cy="61" r="5.0" fill="rgb(20,0,0)"/>
<circle cx="85" cy="61" r="7" fill="rgb(20,0,0)" opacity="0.35"/>
<circle cx="85" cy="61" r="5.0" fill="rgb(20,0,0)"/>
<circle cx="99" cy="61" r="7" fill="rgb(20,0,0)" opacity="0.35"/>
<circle cx="99" cy="61" r="5.0" fill="rgb(20,0,0)"/>
<circle cx="113" cy="61" r="7" fill="rgb(21,0,0)" opacity="0.35"/>
<circle cx="113" cy="61" r="5.0" fill="rgb(21,0,0)"/>
<circle cx="127" cy="61" r="7" fill="rgb(22,0,0)" opacity="0.35"/>
<circle cx="127" cy="61" r="5.0" fill="rgb(22,0,0)"/>
<circle cx="141" cy="61" r="7" fill="rgb(22,0,0)" opacity="0.35"/>
<circle cx="141" cy="61" r="5.0" fill="rgb(22,0,0)"/>
<circle cx="155" cy="61" r="7" fill="rgb(20,0,0)" opacity="0.35"/>
<circle cx="155" cy="61" r="5.0" fill="rgb(20,0,0)"/>
<circle cx="169" cy="61" r="7" fill="rgb(20,0,0)" opacity="0.35"/>
<circle cx="169" cy="61" r="5.0" fill="rgb(20,0,0)"/>
<circle cx="183" cy="61" r="7" fill="rgb(20,0,0)" opacity="0.35"/>
<circle cx="183" cy="61" r="5.0" fill="rgb(20,0,0)"/>
<circle cx="197" cy="61" r="7" fill="rgb(21,0,0)" opacity="0.35"/>
<circle cx="197" cy="61" r="5.0" fill="rgb(21,0,0)"/>
<circle cx="211" cy="61" r="7" fill="rgb(21,0,0)" opacity="0.35"/>
<circle cx="211" cy="61" r="5.0" fill="rgb(21,0,0)"/>
<circle cx="225" cy="61" r="7" fill="rgb(21,0,0)" opacity="0.35"/>
<circle cx="225" cy="61" r="5.0" fill="rgb(21,0,0)"/>
<circle cx="15" cy="75" r="7" fill="rgb(20,0,0)" opacity="0.35"/>
<circle cx="15" cy="75" r="5.0" fill="rgb(20,0,0)"/>
<circle cx="29" cy="75" r="7" fill="rgb(20,0,0)" opacity="0.35"/>
<circle cx="29" cy="75" r="5.0" fill="rgb(20,0,0)"/>
<circle cx="43" cy="75" r="7" fill="rgb(20,0,0)" opacity="0.35"/>
<circle cx="43" cy="75" r="5.0" fill="rgb(20,0,0)"/>
<circle cx="57" cy="75" r="7" fill="rgb(20,0,0)" opacity="0.35"/>
<circle cx="57" cy="75" r="5.0" fill="rgb(20,0,0)"/>
<circle cx="71" cy="75" r="7" fill="rgb(20,0,0)" opacity="0.35"/>
<circle cx="71" cy="75" r="5.0" fill="rgb(20,0,0)"/>
<circle cx="85" cy="75" r="7" fill="rgb(20,0,0)" opacity="0.35"/>
<circle cx="85" cy="75" r="5.0" fill="rgb(20,0,0)"/>
<circle cx="99" cy="75" r="7" fill="rgb(20,0,0)" opacity="0.35"/>
<circle cx="99" cy="75" r="5.0" fill="rgb(20,0,0)"/>
<circle cx="113" cy="75" r="7" fill="rgb(20,0,0)" opacity="0.35"/>
<circle cx="113" cy="75" r="5.0" fill="rgb(20,0,0)"/>
<circle cx="127" cy="75" r="7" fill="rgb(21,0,0)" opacity="0.35"/>
<circle cx="127" cy="75" r="5.0" fill="rgb(21,0,0)"/>
<circle cx="141" cy="75" r="7" fill="rgb(20,0,0)" opacity="0.35"/>
<circle cx="141" cy="75" r="5.0" fill="rgb(20,0,0)"/>
<circle cx="155" cy="75" r="7" fill="rgb(20,0,0)" opacity="0.35"/>
<circle cx="155" cy="75" r="5.0" fill="rgb(20,0,0)"/>
<circle cx="169" cy="75" r="7" fill="rgb(20,0,0)" opacity="0.35"/>
<circle cx="169" cy="75" r="5.0" fill="rgb(20,0,0)"/>
<circle cx="183" cy="75" r="7" fill="rgb(22,0,0)" opacity="0.35"/>
<circle cx="183" cy="75" r="5.0" fill="rgb(22,0,0)"/>
<circle cx="197" cy="75" r="7" fill="rgb(22,0,0)" opacity="0.35"/>
<circle cx="197" cy="75" r="5.0" fill="rgb(22,0,0)"/>
<circle cx="211" cy="75" r="7" fill="rgb(23,0,0)" opacity="0.35"/>
<circle cx="211" cy="75" r="5.0" fill="rgb(23,0,0)"/>
<circle cx="225" cy="75" r="7" fill="rgb(20,0,0)" opacity="0.35"/>
<circle cx="225" cy="75" r="5.0" fill="rgb(20,0,0)"/>
<circle cx="15" cy="89" r="7" fill="rgb(37,0,0)" opacity="0.35"/>
<circle cx="15" cy="89" r="5.0" fill="rgb(37,0,0)"/>
<circle cx="29" cy="89" r="7" fill="rgb(37,0,0)" opacity="0.35"/>
<circle cx="29" cy="89" r="5.0" fill="rgb(37,0,0)"/>
<circle cx="43" cy="89" r="7" fill="rgb(37,0,0)" opacity="0.35"/>
<circle cx="43" cy="89" r="5.0" fill="rgb(37,0,0)"/>
<circle cx="57" cy="89" r="7" fill="rgb(34,0,0)" opacity="0.35"/>
<circle cx="57" cy="89" r="5.0" fill="rgb(34,0,0)"/>
<circle cx="71" cy="89" r="7" fill="rgb(32,0,0)" opacity="0.35"/>
<circle cx="71" cy="89" r="5.0" fill="rgb(32,0,0)"/>
<circle cx="85" cy="89" r="7" fill="rgb(26,0,0)" opacity="0.35"/>
<circle cx="85" cy="89" r="5.0" fill="rgb(26,0,0)"/>
<circle cx="99" cy="89" r="7" fill="rgb(27,0,0)" opacity="0.35"/>
<circle cx="99" cy="89" r="5.0" fill="rgb(27,0,0)"/>
<circle cx="113" cy="89" r="7" fill="rgb(23,0,0)" opacity="0.35"/>
<circle cx="113" cy="89" r="5.0" fill="rgb(23,0,0)"/>
<circle cx="127" cy="89" r="7" fill="rgb(23,0,0)" opacity="0.35"/>
<circle cx="127" cy="89" r="5.0" fill="rgb(23,0,0)"/>
<circle cx="141" cy="89" r="7" fill="rgb(20,0,0)" opacity="0.35"/>
<circle cx="141" cy="89" r="5.0" fill="rgb(20,0,0)"/>
<circle cx="155" cy="89" r="7" fill="rgb(20,0,0)" opacity="0.35"/>
<circle cx="155" cy="89" r="5.0" fill="rgb(20,0,0)"/>
<circle cx="169" cy="89" r="7" fill="rgb(27,0,0)" opacity="0.35"/>
<circle cx="169" cy="89" r="5.0" fill="rgb(27,0,0)"/>
<circle cx="183" cy="89" r="7" fill="rgb(27,0,0)" opacity="0.35"/>
<circle cx="183" cy="89" r="5.0" fill="rgb(27,0,0)"/>
<circle cx="197" cy="89" r="7" fill="rgb(28,0,0)" opacity="0.35"/>
<circle cx="197" cy="89" r="5.0" fill="rgb(28,0,0)"/>
<circle cx="211" cy="89" r="7" fill="rgb(20,0,0)" opacity="0.35"/>
<circle cx="211" cy="89" r="5.0" fill="rgb(20,0,0)"/>
<circle cx="225" cy="89" r="7" fill="rgb(20,0,0)" opacity="0.35"/>
<circle cx="225" cy="89" r="5.0" fill="rgb(20,0,0)"/>
<circle cx="15" cy="103" r="7" fill="rgb(29,0,0)" opacity="0.35"/>
<circle cx="15" cy="103" r="5.0" fill="rgb(29,0,0)"/>
<circle cx="29" cy="103" r="7" fill="rgb(32,0,0)" opacity="0.35"/>
<circle cx="29" cy="103" r="5.0" fill="rgb(32,0,0)"/>
<circle cx="43" cy="103" r="7" fill="rgb(28,0,0)" opacity="0.35"/>
<circle cx="43" cy="103" r="5.0" fill="rgb(28,0,0)"/>
<circle cx="57" cy="103" r="7" fill="rgb(28,0,0)" opacity="0.35"/>
<circle cx="57" cy="103" r="5.0" fill="rgb(28,0,0)"/>
<circle cx="71" cy="103" r="7" fill="rgb(22,0,0)" opacity="0.35"/>
<circle cx="71" cy="103" r="5.0" fill="rgb(22,0,0)"/>
<circle cx="85" cy="103" r="7" fill="rgb(23,0,0)" opacity="0.35"/>
<circle cx="85" cy="103" r="5.0" fill="rgb(23,0,0)"/>
<circle cx="99" cy="103" r="7" fill="rgb(20,0,0)" opacity="0.35"/>
<circle cx="99" cy="103" r="5.0" fill="rgb(20,0,0)"/>
<circle cx="113" cy="103" r="7" fill="rgb(23,0,0)" opacity="0.35"/>
<circle cx="113" cy="103" r="5.0" fill="rgb(23,0,0)"/>
<circle cx="127" cy="103" r="7" fill="rgb(21,0,0)" opacity="0.35"/>
<circle cx="127" cy="103" r="5.0" fill="rgb(21,0,0)"/>
<circle cx="141" cy="103" r="7" fill="rgb(21,0,0)" opacity="0.35"/>
<circle cx="141" cy="103" r="5.0" fill="rgb(21,0,0)"/>
<circle cx="155" cy="103" r="7" fill="rgb(25,0,0)" opacity="0.35"/>
<circle cx="155" cy="103" r="5.0" fill="rgb(25,0,0)"/>
<circle cx="169" cy="103" r="7" fill="rgb(28,0,0)" opacity="0.35"/>
<circle cx="169" cy="103" r="5.0" fill="rgb(28,0,0)"/>
<circle cx="183" cy="103" r="7" fill="rgb(37,0,0)" opacity="0.35"/>
<circle cx="183" cy="103" r="5.0" fill="rgb(37,0,0)"/>
<circle cx="197" cy="103" r="7" fill="rgb(27,0,0)" opacity="0.35"/>
<circle cx="197" cy="103" r="5.0" fill="rgb(27,0,0)"/>
<circle cx="211" cy="103" r="7" fill="rgb(22,0,0)" opacity="0.35"/>
<circle cx="211" cy="103" r="5.0" fill="rgb(22,0,0)"/>
<circle cx="225" cy="103" r="7" fill="rgb(21,0,0)" opacity="0.35"/>
<circle cx="225" cy="103" r="5.0" fill="rgb(21,0,0)"/>
<circle cx="15" cy="117" r="7" fill="rgb(42,0,0)" opacity="0.35"/>
<circle cx="15" cy="117" r="5.0" fill="rgb(42,0,0)"/>
<circle cx="29" cy="117" r="7" fill="rgb(46,0,0)" opacity="0.35"/>
<circle cx="29" cy="117" r="5.0" fill="rgb(46,0,0)"/>
<circle cx="43" cy="117" r="7" fill="rgb(48,0,0)" opacity="0.35"/>
<circle cx="43" cy="117" r="5.0" fill="rgb(48,0,0)"/>
<circle cx="57" cy="117" r="7" fill="rgb(47,0,0)" opacity="0.35"/>
<circle cx="57" cy="117" r="5.0" fill="rgb(47,0,0)"/>
<circle cx="71" cy="117" r="7" fill="rgb(41,0,0)" opacity="0.35"/>
<circle cx="71" cy="117" r="5.0" fill="rgb(41,0,0)"/>
<circle cx="85" cy="117" r="7" fill="rgb(41,0,0)" opacity="0.35"/>
<circle cx="85" cy="117" r="5.0" fill="rgb(41,0,0)"/>
<circle cx="99" cy="117" r="7" fill="rgb(39,0,0)" opacity="0.35"/>
<circle cx="99" cy="117" r="5.0" fill="rgb(39,0,0)"/>
<circle cx="113" cy="117" r="7" fill="rgb(36,0,0)" opacity="0.35"/>
<circle cx="113" cy="117" r="5.0" fill="rgb(36,0,0)"/>
<circle cx="127" cy="117" r="7" fill="rgb(43,0,0)" opacity="0.35"/>
<circle cx="127" cy="117" r="5.0" fill="rgb(43,0,0)"/>
<circle cx="141" cy="117" r="7" fill="rgb(47,0,0)" opacity="0.35"/>
<circle cx="141" cy="117" r="5.0" fill="rgb(47,0,0)"/>
<circle cx="155" cy="117" r="7" fill="rgb(49,0,0)" opacity="0.35"/>
<circle cx="155" cy="117" r="5.0" fill="rgb(49,0,0)"/>
<circle cx="169" cy="117" r="7" fill="rgb(46,0,0)" opacity="0.35"/>
<circle cx="169" cy="117" r="5.0" fill="rgb(46,0,0)"/>
<circle cx="183" cy="117" r="7" fill="rgb(56,0,0)" opacity="0.35"/>
<circle cx="183" cy="117" r="5.0" fill="rgb(56,0,0)"/>
<circle cx="197" cy="117" r="7" fill="rgb(57,0,0)" opacity="0.35"/>
<circle cx="197" cy="117" r="5.0" fill="rgb(57,0,0)"/>
<circle cx="211" cy="117" r="7" fill="rgb(55,0,0)" opacity="0.35"/>
<circle cx="211" cy="117" r="5.0" fill="rgb(55,0,0)"/>
<circle cx="225" cy="117" r="7" fill="rgb(47,0,0)" opacity="0.35"/>
<circle cx="225" cy="117" r="5.0" fill="rgb(47,0,0)"/>
<circle cx="15" cy="131" r="7" fill="rgb(28,0,0)" opacity="0.35"/>
<circle cx="15" cy="131" r="5.0" fill="rgb(28,0,0)"/>
<circle cx="29" cy="131" r="7" fill="rgb(28,0,0)" opacity="0.35"/>
<circle cx="29" cy="131" r="5.0" fill="rgb(28,0,0)"/>
<circle cx="43" cy="131" r="7" fill="rgb(33,0,0)" opacity="0.35"/>
<circle cx="43" cy="131" r="5.0" fill="rgb(33,0,0)"/>
<circle cx="57" cy="131" r="7" fill="rgb(33,0,0)" opacity="0.35"/>
<circle cx="57" cy="131" r="5.0" fill="rgb(33,0,0)"/>
<circle cx="71" cy="131" r="7" fill="rgb(43,0,0)" opacity="0.35"/>
<circle cx="71" cy="131" r="5.0" fill="rgb(43,0,0)"/>
<circle cx="85" cy="131" r="7" fill="rgb(44,0,0)" opacity="0.35"/>
<circle cx="85" cy="131" r="5.0" fill="rgb(44,0,0)"/>
<circle cx="99" cy="131" r="7" fill="rgb(48,0,0)" opacity="0.35"/>
<circle cx="99" cy="131" r="5.0" fill="rgb(48,0,0)"/>
<circle cx="113" cy="131" r="7" fill="rgb(36,0,0)" opacity="0.35"/>
<circle cx="113" cy="131" r="5.0" fill="rgb(36,0,0)"/>
<circle cx="127" cy="131" r="7" fill="rgb(33,0,0)" opacity="0.35"/>
<circle cx="127" cy="131" r="5.0" fill="rgb(33,0,0)"/>
<circle cx="141" cy="131" r="7" fill="rgb(39,0,0)" opacity="0.35"/>
<circle cx="141" cy="131" r="5.0" fill="rgb(39,0,0)"/>
<circle cx="155" cy="131" r="7" fill="rgb(32,0,0)" opacity="0.35"/>
<circle cx="155" cy="131" r="5.0" fill="rgb(32,0,0)"/>
<circle cx="169" cy="131" r="7" fill="rgb(35,0,0)" opacity="0.35"/>
<circle cx="169" cy="131" r="5.0" fill="rgb(35,0,0)"/>
<circle cx="183" cy="131" r="7" fill="rgb(33,0,0)" opacity="0.35"/>
<circle cx="183" cy="131" r="5.0" fill="rgb(33,0,0)"/>
<circle cx="197" cy="131" r="7" fill="rgb(44,0,0)" opacity="0.35"/>
<circle cx="197" cy="131" r="5.0" fill="rgb(44,0,0)"/>
<circle cx="211" cy="131" r="7" fill="rgb(47,0,0)" opacity="0.35"/>
<circle cx="211" cy="131" r="5.0" fill="rgb(47,0,0)"/>
<circle cx="225" cy="131" r="7" fill="rgb(40,0,0)" opacity="0.35"/>
<circle cx="225" cy="131" r="5.0" fill="rgb(40,0,0)"/>
<circle cx="15" cy="145" r="7" fill="rgb(78,0,0)" opacity="0.35"/>
<circle cx="15" cy="145" r="5.0" fill="rgb(78,0,0)"/>
<circle cx="29" cy="145" r="7" fill="rgb(71,0,0)" opacity="0.35"/>
<circle cx="29" cy="145" r="5.0" fill="rgb(71,0,0)"/>
<circle cx="43" cy="145" r="7" fill="rgb(61,0,0)" opacity="0.35"/>
<circle cx="43" cy="145" r="5.0" fill="rgb(61,0,0)"/>
<circle cx="57" cy="145" r="7" fill="rgb(63,0,0)" opacity="0.35"/>
<circle cx="57" cy="145" r="5.0" fill="rgb(63,0,0)"/>
<circle cx="71" cy="145" r="7" fill="rgb(70,0,0)" opacity="0.35"/>
<circle cx="71" cy="145" r="5.0" fill="rgb(70,0,0)"/>
<circle cx="85" cy="145" r="7" fill="rgb(80,0,0)" opacity="0.35"/>
<circle cx="85" cy="145" r="5.0" fill="rgb(80,0,0)"/>
<circle cx="99" cy="145" r="7" fill="rgb(76,0,0)" opacity="0.35"/>
<circle cx="99" cy="145" r="5.0" fill="rgb(76,0,0)"/>
<circle cx="113" cy="145" r="7" fill="rgb(82,0,0)" opacity="0.35"/>
<circle cx="113" cy="145" r="5.0" fill="rgb(82,0,0)"/>
<circle cx="127" cy="145" r="7" fill="rgb(69,0,0)" opacity="0.35"/>
<circle cx="127" cy="145" r="5.0" fill="rgb(69,0,0)"/>
<circle cx="141" cy="145" r="7" fill="rgb(71,0,0)" opacity="0.35"/>
<circle cx="141" cy="145" r="5.0" fill="rgb(71,0,0)"/>
<circle cx="155" cy="145" r="7" fill="rgb(76,0,0)" opacity="0.35"/>
<circle cx="155" cy="145" r="5.0" fill="rgb(76,0,0)"/>
<circle cx="169" cy="145" r="7" fill="rgb(72,0,0)" opacity="0.35"/>
<circle cx="169" cy="145" r="5.0" fill="rgb(72,0,0)"/>
<circle cx="183" cy="145" r="7" fill="rgb(73,0,0)" opacity="0.35"/>
<circle cx="183" cy="145" r="5.0" fill="rgb(73,0,0)"/>
<circle cx="197" cy="145" r="7" fill="rgb(82,0,0)" opacity="0.35"/>
<circle cx="197" cy="145" r="5.0" fill="rgb(82,0,0)"/>
<circle cx="211" cy="145" r="7" fill="rgb(90,0,0)" opacity="0.35"/>
<circle cx="211" cy="145" r="5.0" fill="rgb(90,0,0)"/>
<circle cx="225" cy="145" r="7" fill="rgb(96,1,1)" opacity="0.35"/>
<circle cx="225" cy="145" r="5.0" fill="rgb(96,1,1)"/>
<circle cx="15" cy="159" r="7" fill="rgb(64,0,0)" opacity="0.35"/>
<circle cx="15" cy="159" r="5.0" fill="rgb(64,0,0)"/>
<circle cx="29" cy="159" r="7" fill="rgb(59,0,0)" opacity="0.35"/>
<circle cx="29" cy="159" r="5.0" fill="rgb(59,0,0)"/>
<circle cx="43" cy="159" r="7" fill="rgb(49,0,0)" opacity="0.35"/>
<circle cx="43" cy="159" r="5.0" fill="rgb(49,0,0)"/>
<circle cx="57" cy="159" r="7" fill="rgb(49,0,0)" opacity="0.35"/>
<circle cx="57" cy="159" r="5.0" fill="rgb(49,0,0)"/>
<circle cx="71" cy="159" r="7" fill="rgb(54,0,0)" opacity="0.35"/>
<circle cx="71" cy="159" r="5.0" fill="rgb(54,0,0)"/>
<circle cx="85" cy="159" r="7" fill="rgb(62,0,0)" opacity="0.35"/>
<circle cx="85" cy="159" r="5.0" fill="rgb(62,0,0)"/>
<circle cx="99" cy="159" r="7" fill="rgb(57,0,0)" opacity="0.35"/>
<circle cx="99" cy="159" r="5.0" fill="rgb(57,0,0)"/>
<circle cx="113" cy="159" r="7" fill="rgb(61,0,0)" opacity="0.35"/>
<circle cx="113" cy="159" r="5.0" fill="rgb(61,0,0)"/>
<circle cx="127" cy="159" r="7" fill="rgb(59,0,0)" opacity="0.35"/>
<circle cx="127" cy="159" r="5.0" fill="rgb(59,0,0)"/>
<circle cx="141" cy="159" r="7" fill="rgb(59,0,0)" opacity="0.35"/>
<circle cx="141" cy="159" r="5.0" fill="rgb(59,0,0)"/>
<circle cx="155" cy="159" r="7" fill="rgb(57,0,0)" opacity="0.35"/>
<circle cx="155" cy="159" r="5.0" fill="rgb(57,0,0)"/>
<circle cx="169" cy="159" r="7" fill="rgb(51,0,0)" opacity="0.35"/>
<circle cx="169" cy="159" r="5.0" fill="rgb(51,0,0)"/>
<circle cx="183" cy="159" r="7" fill="rgb(49,0,0)" opacity="0.35"/>
<circle cx="183" cy="159" r="5.0" fill="rgb(49,0,0)"/>
<circle cx="197" cy="159" r="7" fill="rgb(57,0,0)" opacity="0.35"/>
<circle cx="197" cy="159" r="5.0" fill="rgb(57,0,0)"/>
<circle cx="211" cy="159" r="7" fill="rgb(63,0,0)" opacity="0.35"/>
<circle cx="211" cy="159" r="5.0" fill="rgb(63,0,0)"/>
<circle cx="225" cy="159" r="7" fill="rgb(59,0,0)" opacity="0.35"/>
<circle cx="225" cy="159" r="5.0" fill="rgb(59,0,0)"/>
<circle cx="15" cy="173" r="7" fill="rgb(113,8,8)" opacity="0.35"/>
<circle cx="15" cy="173" r="5.0" fill="rgb(113,8,8)"/>
<circle cx="29" cy="173" r="7" fill="rgb(105,4,4)" opacity="0.35"/>
<circle cx="29" cy="173" r="5.0" fill="rgb(105,4,4)"/>
<circle cx="43" cy="173" r="7" fill="rgb(102,3,3)" opacity="0.35"/>
<circle cx="43" cy="173" r="5.0" fill="rgb(102,3,3)"/>
<circle cx="57" cy="173" r="7" fill="rgb(98,2,2)" opacity="0.35"/>
<circle cx="57" cy="173" r="5.0" fill="rgb(98,2,2)"/>
<circle cx="71" cy="173" r="7" fill="rgb(113,8,8)" opacity="0.35"/>
<circle cx="71" cy="173" r="5.0" fill="rgb(113,8,8)"/>
<circle cx="85" cy="173" r="7" fill="rgb(117,9,9)" opacity="0.35"/>
<circle cx="85" cy="173" r="5.0" fill="rgb(117,9,9)"/>
<circle cx="99" cy="173" r="7" fill="rgb(131,15,15)" opacity="0.35"/>
<circle cx="99" cy="173" r="5.0" fill="rgb(131,15,15)"/>
<circle cx="113" cy="173" r="7" fill="rgb(130,15,15)" opacity="0.35"/>
<circle cx="113" cy="173" r="5.0" fill="rgb(130,15,15)"/>
<circle cx="127" cy="173" r="7" fill="rgb(136,17,17)" opacity="0.35"/>
<circle cx="127" cy="173" r="5.0" fill="rgb(136,17,17)"/>
<circle cx="141" cy="173" r="7" fill="rgb(127,13,13)" opacity="0.35"/>
<circle cx="141" cy="173" r="5.0" fill="rgb(127,13,13)"/>
<circle cx="155" cy="173" r="7" fill="rgb(118,10,10)" opacity="0.35"/>
<circle cx="155" cy="173" r="5.0" fill="rgb(118,10,10)"/>
<circle cx="169" cy="173" r="7" fill="rgb(113,8,8)" opacity="0.35"/>
<circle cx="169" cy="173" r="5.0" fill="rgb(113,8,8)"/>
<circle cx="183" cy="173" r="7" fill="rgb(117,9,9)" opacity="0.35"/>
<circle cx="183" cy="173" r="5.0" fill="rgb(117,9,9)"/>
<circle cx="197" cy="173" r="7" fill="rgb(126,13,13)" opacity="0.35"/>
<circle cx="197" cy="173" r="5.0" fill="rgb(126,13,13)"/>
<circle cx="211" cy="173" r="7" fill="rgb(111,7,7)" opacity="0.35"/>
<circle cx="211" cy="173" r="5.0" fill="rgb(111,7,7)"/>
<circle cx="225" cy="173" r="7" fill="rgb(122,11,11)" opacity="0.35"/>
<circle cx="225" cy="173" r="5.0" fill="rgb(122,11,11)"/>
<circle cx="15" cy="187" r="7" fill="rgb(80,0,0)" opacity="0.35"/>
<circle cx="15" cy="187" r="5.0" fill="rgb(80,0,0)"/>
<circle cx="29" cy="187" r="7" fill="rgb(63,0,0)" opacity="0.35"/>
<circle cx="29" cy="187" r="5.0" fill="rgb(63,0,0)"/>
<circle cx="43" cy="187" r="7" fill="rgb(64,0,0)" opacity="0.35"/>
<circle cx="43" cy="187" r="5.0" fill="rgb(64,0,0)"/>
<circle cx="57" cy="187" r="7" fill="rgb(59,0,0)" opacity="0.35"/>
<circle cx="57" cy="187" r="5.0" fill="rgb(59,0,0)"/>
<circle cx="71" cy="187" r="7" fill="rgb(71,0,0)" opacity="0.35"/>
<circle cx="71" cy="187" r="5.0" fill="rgb(71,0,0)"/>
<circle cx="85" cy="187" r="7" fill="rgb(70,0,0)" opacity="0.35"/>
<circle cx="85" cy="187" r="5.0" fill="rgb(70,0,0)"/>
<circle cx="99" cy="187" r="7" fill="rgb(64,0,0)" opacity="0.35"/>
<circle cx="99" cy="187" r="5.0" fill="rgb(64,0,0)"/>
<circle cx="113" cy="187" r="7" fill="rgb(59,0,0)" opacity="0.35"/>
<circle cx="113" cy="187" r="5.0" fill="rgb(59,0,0)"/>
<circle cx="127" cy="187" r="7" fill="rgb(65,0,0)" opacity="0.35"/>
<circle cx="127" cy="187" r="5.0" fill="rgb(65,0,0)"/>
<circle cx="141" cy="187" r="7" fill="rgb(62,0,0)" opacity="0.35"/>
<circle cx="141" cy="187" r="5.0" fill="rgb(62,0,0)"/>
<circle cx="155" cy="187" r="7" fill="rgb(64,0,0)" opacity="0.35"/>
<circle cx="155" cy="187" r="5.0" fill="rgb(64,0,0)"/>
<circle cx="169" cy="187" r="7" fill="rgb(65,0,0)" opacity="0.35"/>
<circle cx="169" cy="187" r="5.0" fill="rgb(65,0,0)"/>
<circle cx="183" cy="187" r="7" fill="rgb(72,0,0)" opacity="0.35"/>
<circle cx="183" cy="187" r="5.0" fill="rgb(72,0,0)"/>
<circle cx="197" cy="187" r="7" fill="rgb(65,0,0)" opacity="0.35"/>
<circle cx="197" cy="187" r="5.0" fill="rgb(65,0,0)"/>
<circle cx="211" cy="187" r="7" fill="rgb(69,0,0)" opacity="0.35"/>
<circle cx="211" cy="187" r="5.0" fill="rgb(69,0,0)"/>
<circle cx="225" cy="187" r="7" fill="rgb(70,0,0)" opacity="0.35"/>
<circle cx="225" cy="187" r="5.0" fill="rgb(70,0,0)"/>
<circle cx="15" cy="201" r="7" fill="rgb(172,32,32)" opacity="0.35"/>
<circle cx="15" cy="201" r="5.0" fill="rgb(172,32,32)"/>
<circle cx="29" cy="201" r="7" fill="rgb(165,29,29)" opacity="0.35"/>
<circle cx="29" cy="201" r="5.0" fill="rgb(165,29,29)"/>
<circle cx="43" cy="201" r="7" fill="rgb(152,24,24)" opacity="0.35"/>
<circle cx="43" cy="201" r="5.0" fill="rgb(152,24,24)"/>
<circle cx="57" cy="201" r="7" fill="rgb(158,26,26)" opacity="0.35"/>
<circle cx="57" cy="201" r="5.0" fill="rgb(158,26,26)"/>
<circle cx="71" cy="201" r="7" fill="rgb(173,32,32)" opacity="0.35"/>
<circle cx="71" cy="201" r="5.0" fill="rgb(173,32,32)"/>
<circle cx="85" cy="201" r="7" fill="rgb(180,35,33)" opacity="0.35"/>
<circle cx="85" cy="201" r="5.0" fill="rgb(180,35,33)"/>
<circle cx="99" cy="201" r="7" fill="rgb(168,30,30)" opacity="0.35"/>
<circle cx="99" cy="201" r="5.0" fill="rgb(168,30,30)"/>
<circle cx="113" cy="201" r="7" fill="rgb(168,30,30)" opacity="0.35"/>
<circle cx="113" cy="201" r="5.0" fill="rgb(168,30,30)"/>
<circle cx="127" cy="201" r="7" fill="rgb(159,26,26)" opacity="0.35"/>
<circle cx="127" cy="201" r="5.0" fill="rgb(159,26,26)"/>
<circle cx="141" cy="201" r="7" fill="rgb(167,29,29)" opacity="0.35"/>
<circle cx="141" cy="201" r="5.0" fill="rgb(167,29,29)"/>
<circle cx="155" cy="201" r="7" fill="rgb(162,27,27)" opacity="0.35"/>
<circle cx="155" cy="201" r="5.0" fill="rgb(162,27,27)"/>
<circle cx="169" cy="201" r="7" fill="rgb(154,24,24)" opacity="0.35"/>
<circle cx="169" cy="201" r="5.0" fill="rgb(154,24,24)"/>
<circle cx="183" cy="201" r="7" fill="rgb(140,19,19)" opacity="0.35"/>
<circle cx="183" cy="201" r="5.0" fill="rgb(140,19,19)"/>
<circle cx="197" cy="201" r="7" fill="rgb(143,20,20)" opacity="0.35"/>
<circle cx="197" cy="201" r="5.0" fill="rgb(143,20,20)"/>
<circle cx="211" cy="201" r="7" fill="rgb(150,23,23)" opacity="0.35"/>
<circle cx="211" cy="201" r="5.0" fill="rgb(150,23,23)"/>
<circle cx="225" cy="201" r="7" fill="rgb(159,26,26)" opacity="0.35"/>
<circle cx="225" cy="201" r="5.0" fill="rgb(159,26,26)"/>
<circle cx="15" cy="215" r="7" fill="rgb(64,0,0)" opacity="0.35"/>
<circle cx="15" cy="215" r="5.0" fill="rgb(64,0,0)"/>
<circle cx="29" cy="215" r="7" fill="rgb(63,0,0)" opacity="0.35"/>
<circle cx="29" cy="215" r="5.0" fill="rgb(63,0,0)"/>
<circle cx="43" cy="215" r="7" fill="rgb(58,0,0)" opacity="0.35"/>
<circle cx="43" cy="215" r="5.0" fill="rgb(58,0,0)"/>
<circle cx="57" cy="215" r="7" fill="rgb(62,0,0)" opacity="0.35"/>
<circle cx="57" cy="215" r="5.0" fill="rgb(62,0,0)"/>
<circle cx="71" cy="215" r="7" fill="rgb(62,0,0)" opacity="0.35"/>
<circle cx="71" cy="215" r="5.0" fill="rgb(62,0,0)"/>
<circle cx="85" cy="215" r="7" fill="rgb(70,0,0)" opacity="0.35"/>
<circle cx="85" cy="215" r="5.0" fill="rgb(70,0,0)"/>
<circle cx="99" cy="215" r="7" fill="rgb(68,0,0)" opacity="0.35"/>
<circle cx="99" cy="215" r="5.0" fill="rgb(68,0,0)"/>
<circle cx="113" cy="215" r="7" fill="rgb(61,0,0)" opacity="0.35"/>
<circle cx="113" cy="215" r="5.0" fill="rgb(61,0,0)"/>
<circle cx="127" cy="215" r="7" fill="rgb(68,0,0)" opacity="0.35"/>
<circle cx="127" cy="215" r="5.0" fill="rgb(68,0,0)"/>
<circle cx="141" cy="215" r="7" fill="rgb(62,0,0)" opacity="0.35"/>
<circle cx="141" cy="215" r="5.0" fill="rgb(62,0,0)"/>
<circle cx="155" cy="215" r="7" fill="rgb(65,0,0)" opacity="0.35"/>
<circle cx="155" cy="215" r="5.0" fill="rgb(65,0,0)"/>
<circle cx="169" cy="215" r="7" fill="rgb(59,0,0)" opacity="0.35"/>
<circle cx="169" cy="215" r="5.0" fill="rgb(59,0,0)"/>
<circle cx="183" cy="215" r="7" fill="rgb(56,0,0)" opacity="0.35"/>
<circle cx="183" cy="215" r="5.0" fill="rgb(56,0,0)"/>
<circle cx="197" cy="215" r="7" fill="rgb(54,0,0)" opacity="0.35"/>
<circle cx="197" cy="215" r="5.0" fill="rgb(54,0,0)"/>
<circle cx="211" cy="215" r="7" fill="rgb(59,0,0)" opacity="0.35"/>
<circle cx="211" cy="215" r="5.0" fill="rgb(59,0,0)"/>
<circle cx="225" cy="215" r="7" fill="rgb(62,0,0)" opacity="0.35"/>
<circle cx="225" cy="215" r="5.0" fill="rgb(62,0,0)"/>
<circle cx="15" cy="229" r="7" fill="rgb(232,73,10)" opacity="0.35"/>
<circle cx="15" cy="229" r="5.0" fill="rgb(232,73,10)"/>
<circle cx="29" cy="229" r="7" fill="rgb(231,72,11)" opacity="0.35"/>
<circle cx="29" cy="229" r="5.0" fill="rgb(231,72,11)"/>
<circle cx="43" cy="229" r="7" fill="rgb(227,70,12)" opacity="0.35"/>
<circle cx="43" cy="229" r="5.0" fill="rgb(227,70,12)"/>
<circle cx="57" cy="229" r="7" fill="rgb(235,76,9)" opacity="0.35"/>
<circle cx="57" cy="229" r="5.0" fill="rgb(235,76,9)"/>
<circle cx="71" cy="229" r="7" fill="rgb(238,77,8)" opacity="0.35"/>
<circle cx="71" cy="229" r="5.0" fill="rgb(238,77,8)"/>
<circle cx="85" cy="229" r="7" fill="rgb(245,83,4)" opacity="0.35"/>
<circle cx="85" cy="229" r="5.0" fill="rgb(245,83,4)"/>
<circle cx="99" cy="229" r="7" fill="rgb(229,71,11)" opacity="0.35"/>
<circle cx="99" cy="229" r="5.0" fill="rgb(229,71,11)"/>
<circle cx="113" cy="229" r="7" fill="rgb(218,63,16)" opacity="0.35"/>
<circle cx="113" cy="229" r="5.0" fill="rgb(218,63,16)"/>
<circle cx="127" cy="229" r="7" fill="rgb(210,57,20)" opacity="0.35"/>
<circle cx="127" cy="229" r="5.0" fill="rgb(210,57,20)"/>
<circle cx="141" cy="229" r="7" fill="rgb(222,66,15)" opacity="0.35"/>
<circle cx="141" cy="229" r="5.0" fill="rgb(222,66,15)"/>
<circle cx="155" cy="229" r="7" fill="rgb(204,53,23)" opacity="0.35"/>
<circle cx="155" cy="229" r="5.0" fill="rgb(204,53,23)"/>
<circle cx="169" cy="229" r="7" fill="rgb(197,48,26)" opacity="0.35"/>
<circle cx="169" cy="229" r="5.0" fill="rgb(197,48,26)"/>
<circle cx="183" cy="229" r="7" fill="rgb(204,53,23)" opacity="0.35"/>
<circle cx="183" cy="229" r="5.0" fill="rgb(204,53,23)"/>
<circle cx="197" cy="229" r="7" fill="rgb(235,76,9)" opacity="0.35"/>
<circle cx="197" cy="229" r="5.0" fill="rgb(235,76,9)"/>
<circle cx="211" cy="229" r="7" fill="rgb(234,75,9)" opacity="0.35"/>
<circle cx="211" cy="229" r="5.0" fill="rgb(234,75,9)"/>
<circle cx="225" cy="229" r="7" fill="rgb(218,63,16)" opacity="0.35"/>
<circle cx="225" cy="229" r="5.0" fill="rgb(218,63,16)"/>
<circle cx="15" cy="243" r="7" fill="rgb(20,0,0)" opacity="0.35"/>
<circle cx="15" cy="243" r="5.0" fill="rgb(20,0,0)"/>
<circle cx="29" cy="243" r="7" fill="rgb(20,0,0)" opacity="0.35"/>
<circle cx="29" cy="243" r="5.0" fill="rgb(20,0,0)"/>
<circle cx="43" cy="243" r="7" fill="rgb(20,0,0)" opacity="0.35"/>
<circle cx="43" cy="243" r="5.0" fill="rgb(20,0,0)"/>
<circle cx="57" cy="243" r="7" fill="rgb(20,0,0)" opacity="0.35"/>
<circle cx="57" cy="243" r="5.0" fill="rgb(20,0,0)"/>
<circle cx="71" cy="243" r="7" fill="rgb(20,0,0)" opacity="0.35"/>
<circle cx="71" cy="243" r="5.0" fill="rgb(20,0,0)"/>
<circle cx="85" cy="243" r="7" fill="rgb(20,0,0)" opacity="0.35"/>
<circle cx="85" cy="243" r="5.0" fill="rgb(20,0,0)"/>
<circle cx="99" cy="243" r="7" fill="rgb(20,0,0)" opacity="0.35"/>
<circle cx="99" cy="243" r="5.0" fill="rgb(20,0,0)"/>
<circle cx="113" cy="243" r="7" fill="rgb(20,0,0)" opacity="0.35"/>
<circle cx="113" cy="243" r="5.0" fill="rgb(20,0,0)"/>
<circle cx="127" cy="243" r="7" fill="rgb(20,0,0)" opacity="0.35"/>
<circle cx="127" cy="243" r="5.0" fill="rgb(20,0,0)"/>
<circle cx="141" cy="243" r="7" fill="rgb(20,0,0)" opacity="0.35"/>
<circle cx="141" cy="243" r="5.0" fill="rgb(20,0,0)"/>
<circle cx="155" cy="243" r="7" fill="rgb(20,0,0)" opacity="0.35"/>
<circle cx="155" cy="243" r="5.0" fill="rgb(20,0,0)"/>
<circle cx="169" cy="243" r="7" fill="rgb(20,0,0)" opacity="0.35"/>
<circle cx="169" cy="243" r="5.0" fill="rgb(20,0,0)"/>
<circle cx="183" cy="243" r="7" fill="rgb(20,0,0)" opacity="0.35"/>
<circle cx="183" cy="243" r="5.0" fill="rgb(20,0,0)"/>
<circle cx="197" cy="243" r="7" fill="rgb(20,0,0)" opacity="0.35"/>
<circle cx="197" cy="243" r="5.0" fill="rgb(20,0,0)"/>
<circle cx="211" cy="243" r="7" fill="rgb(20,0,0)" opacity="0.35"/>
<circle cx="211" cy="243" r="5.0" fill="rgb(20,0,0)"/>
<circle cx="225" cy="243" r="7" fill="rgb(20,0,0)" opacity="0.35"/>
<circle cx="225" cy="243" r="5.0" fill="rgb(20,0,0)"/>
<circle cx="15" cy="257" r="7" fill="rgb(255,176,68)" opacity="0.35"/>
<circle cx="15" cy="257" r="5.0" fill="rgb(255,176,68)"/>
<circle cx="29" cy="257" r="7" fill="rgb(20,0,0)" opacity="0.35"/>
<circle cx="29" cy="257" r="5.0" fill="rgb(20,0,0)"/>
<circle cx="43" cy="257" r="7" fill="rgb(20,0,0)" opacity="0.35"/>
<circle cx="43" cy="257" r="5.0" fill="rgb(20,0,0)"/>
<circle cx="57" cy="257" r="7" fill="rgb(255,160,56)" opacity="0.35"/>
<circle cx="57" cy="257" r="5.0" fill="rgb(255,160,56)"/>
<circle cx="71" cy="257" r="7" fill="rgb(20,0,0)" opacity="0.35"/>
<circle cx="71" cy="257" r="5.0" fill="rgb(20,0,0)"/>
<circle cx="85" cy="257" r="7" fill="rgb(20,0,0)" opacity="0.35"/>
<circle cx="85" cy="257" r="5.0" fill="rgb(20,0,0)"/>
<circle cx="99" cy="257" r="7" fill="rgb(20,0,0)" opacity="0.35"/>
<circle cx="99" cy="257" r="5.0" fill="rgb(20,0,0)"/>
<circle cx="113" cy="257" r="7" fill="rgb(246,84,4)" opacity="0.35"/>
<circle cx="113" cy="257" r="5.0" fill="rgb(246,84,4)"/>
<circle cx="127" cy="257" r="7" fill="rgb(255,115,20)" opacity="0.35"/>
<circle cx="127" cy="257" r="5.0" fill="rgb(255,115,20)"/>
<circle cx="141" cy="257" r="7" fill="rgb(20,0,0)" opacity="0.35"/>
<circle cx="141" cy="257" r="5.0" fill="rgb(20,0,0)"/>
<circle cx="155" cy="257" r="7" fill="rgb(20,0,0)" opacity="0.35"/>
<circle cx="155" cy="257" r="5.0" fill="rgb(20,0,0)"/>
<circle cx="169" cy="257" r="7" fill="rgb(203,52,23)" opacity="0.35"/>
<circle cx="169" cy="257" r="5.0" fill="rgb(203,52,23)"/>
<circle cx="183" cy="257" r="7" fill="rgb(255,109,15)" opacity="0.35"/>
<circle cx="183" cy="257" r="5.0" fill="rgb(255,109,15)"/>
<circle cx="197" cy="257" r="7" fill="rgb(255,186,76)" opacity="0.35"/>
<circle cx="197" cy="257" r="5.0" fill="rgb(255,186,76)"/>
<circle cx="211" cy="257" r="7" fill="rgb(255,198,86)" opacity="0.35"/>
<circle cx="211" cy="257" r="5.0" fill="rgb(255,198,86)"/>
<circle cx="225" cy="257" r="7" fill="rgb(20,0,0)" opacity="0.35"/>
<circle cx="225" cy="257" r="5.0" fill="rgb(20,0,0)"/>
<circle cx="-2" cy="280" r="9" fill="#9aa0a6" opacity="0.25"/>
<circle cx="-2" cy="280" r="6" fill="#9aa0a6" stroke="#0d0f12" stroke-width="1.5"/>
<text x="10" y="284" font-family="'JetBrains Mono','Cascadia Mono','Consolas',monospace" font-size="12" fill="#a0a0a0">Speed</text>
<circle cx="242" cy="280" r="9" fill="#5ad1ff" opacity="0.25"/>
<circle cx="242" cy="280" r="6" fill="#5ad1ff" stroke="#0d0f12" stroke-width="1.5"/>
<text x="230" y="284" text-anchor="end" font-family="'JetBrains Mono','Cascadia Mono','Consolas',monospace" font-size="12" fill="#a0a0a0">Frame</text>
<circle cx="-2" cy="308" r="9" fill="#9aa0a6" opacity="0.25"/>
<circle cx="-2" cy="308" r="6" fill="#9aa0a6" stroke="#0d0f12" stroke-width="1.5"/>
<text x="10" y="312" font-family="'JetBrains Mono','Cascadia Mono','Consolas',monospace" font-size="12" fill="#a0a0a0">Scale</text>
<circle cx="-2" cy="336" r="9" fill="#ff5cf0" opacity="0.25"/>
<circle cx="-2" cy="336" r="6" fill="#ff5cf0" stroke="#0d0f12" stroke-width="1.5"/>
<text x="10" y="340" font-family="'JetBrains Mono','Cascadia Mono','Consolas',monospace" font-size="12" fill="#a0a0a0">Palette</text>
<line x1="8" y1="356" x2="232" y2="356" stroke="rgba(255,255,255,0.08)"/>
<text x="8" y="376" font-family="'JetBrains Mono','Cascadia Mono','Consolas',monospace" font-size="12" fill="#a0a0a0">speed</text>
<g>
<rect x="120" y="370" width="72" height="4" rx="2" fill="#cfd2d6" opacity="0.85"/>
<rect x="120" y="370" width="18.0" height="4" rx="2" fill="#d633ff"/>
<circle cx="138.0" cy="372" r="5" fill="#d633ff"/>
<text x="232" y="376" text-anchor="end" font-family="'JetBrains Mono','Cascadia Mono','Consolas',monospace" font-size="12" fill="#e0e0e0">0.25</text>
</g>
<text x="8" y="397" font-family="'JetBrains Mono','Cascadia Mono','Consolas',monospace" font-size="12" fill="#a0a0a0">scale</text>
<g>
<rect x="120" y="391" width="72" height="4" rx="2" fill="#cfd2d6" opacity="0.85"/>
<rect x="120" y="391" width="21.6" height="4" rx="2" fill="#d633ff"/>
<circle cx="141.6" cy="393" r="5" fill="#d633ff"/>
<text x="232" y="397" text-anchor="end" font-family="'JetBrains Mono','Cascadia Mono','Consolas',monospace" font-size="12" fill="#e0e0e0">0.3</text>
</g>
<text x="8" y="418" font-family="'JetBrains Mono','Cascadia Mono','Consolas',monospace" font-size="12" fill="#a0a0a0">octaves</text>
<g>
<rect x="120" y="412" width="72" height="4" rx="2" fill="#cfd2d6" opacity="0.85"/>
<rect x="120" y="412" width="43.2" height="4" rx="2" fill="#d633ff"/>
<circle cx="163.2" cy="414" r="5" fill="#d633ff"/>
<text x="232" y="418" text-anchor="end" font-family="'JetBrains Mono','Cascadia Mono','Consolas',monospace" font-size="12" fill="#e0e0e0">4</text>
</g>
<text x="8" y="439" font-family="'JetBrains Mono','Cascadia Mono','Consolas',monospace" font-size="12" fill="#a0a0a0">palette</text>
<g>
<rect x="148" y="427" width="84" height="16" rx="4" fill="#0d0f12" stroke="rgba(255,255,255,0.12)"/>
<text x="152" y="439" font-family="'JetBrains Mono','Cascadia Mono','Consolas',monospace" font-size="11" fill="#e0e0e0">forest</text>
<text x="228" y="439" text-anchor="end" font-size="8" fill="#a0a0a0">▾</text>
</g>
<text x="8" y="460" font-family="'JetBrains Mono','Cascadia Mono','Consolas',monospace" font-size="12" fill="#a0a0a0">seed</text>
<g>
<rect x="120" y="454" width="72" height="4" rx="2" fill="#cfd2d6" opacity="0.85"/>
<rect x="120" y="454" width="0.0" height="4" rx="2" fill="#d633ff"/>
<circle cx="120.0" cy="456" r="5" fill="#d633ff"/>
<text x="232" y="460" text-anchor="end" font-family="'JetBrains Mono','Cascadia Mono','Consolas',monospace" font-size="12" fill="#e0e0e0">0</text>
</g>
<text x="8" y="481" font-family="'JetBrains Mono','Cascadia Mono','Consolas',monospace" font-size="12" fill="#a0a0a0">clamp inputs</text>
<g>
<rect x="220" y="471" width="12" height="12" rx="3" fill="#0d0f12" stroke="rgba(255,255,255,0.12)"/>
</g>
</g>
</svg>
