<svg xmlns="http://www.w3.org/2000/svg" viewBox="0 0 296 552" width="296" height="552" role="img" aria-label="Fractal Noise node">

<defs><filter id="shadow" x="-20%" y="-20%" width="140%" height="160%"><feDropShadow dx="0" dy="8" stdDeviation="9" flood-color="#000" flood-opacity="0.45"/></filter></defs>
<g transform="translate(28,24)">
<rect x="0" y="0" width="240" height="494" rx="8" fill="#1f242b" stroke="rgba(255,255,255,0.12)" filter="url(#shadow)"/>
<rect x="0" y="0" width="240" height="494" rx="8" fill="#1f242b" stroke="rgba(255,255,255,0.12)"/>
<path d="M0,32 L0,8 Q0,0 8,0 L232,0 Q240,0 240,8 L240,32 Z" fill="#33d6ff"/>
<text x="8" y="21" font-family="'Audiowide','Trebuchet MS','Arial Black',sans-serif" font-size="14" font-weight="600" fill="#000">Fractal Noise</text>
<rect x="154" y="10" width="25" height="12" rx="6" fill="rgba(0,0,0,0.14)" stroke="rgba(255,255,255,0.14)"/>
<text x="166.5" y="19" text-anchor="middle" font-family="'JetBrains Mono','Cascadia Mono','Consolas',monospace" font-size="8" letter-spacing="0.08em" fill="#000">PAT</text>
<rect x="185" y="10" width="47" height="12" rx="6" fill="rgba(0,0,0,0.14)" stroke="rgba(255,255,255,0.14)"/>
<text x="208.5" y="19" text-anchor="middle" font-family="'JetBrains Mono','Cascadia Mono','Consolas',monospace" font-size="8" letter-spacing="0.08em" fill="#000">FRA-821</text>
<rect x="8" y="40" width="224" height="224" rx="4" fill="#05070a"/>
<circle cx="15" cy="47" r="7" fill="rgb(14,40,30)" opacity="0.35"/>
<circle cx="15" cy="47" r="5.0" fill="rgb(14,40,30)"/>
<circle cx="29" cy="47" r="7" fill="rgb(36,87,65)" opacity="0.35"/>
<circle cx="29" cy="47" r="5.0" fill="rgb(36,87,65)"/>
<circle cx="43" cy="47" r="7" fill="rgb(53,123,92)" opacity="0.35"/>
<circle cx="43" cy="47" r="5.0" fill="rgb(53,123,92)"/>
<circle cx="57" cy="47" r="7" fill="rgb(61,139,104)" opacity="0.35"/>
<circle cx="57" cy="47" r="5.0" fill="rgb(61,139,104)"/>
<circle cx="71" cy="47" r="7" fill="rgb(64,145,108)" opacity="0.35"/>
<circle cx="71" cy="47" r="5.0" fill="rgb(64,145,108)"/>
<circle cx="85" cy="47" r="7" fill="rgb(63,143,107)" opacity="0.35"/>
<circle cx="85" cy="47" r="5.0" fill="rgb(63,143,107)"/>
<circle cx="99" cy="47" r="7" fill="rgb(45,106,79)" opacity="0.35"/>
<circle cx="99" cy="47" r="5.0" fill="rgb(45,106,79)"/>
<circle cx="113" cy="47" r="7" fill="rgb(62,142,106)" opacity="0.35"/>
<circle cx="113" cy="47" r="5.0" fill="rgb(62,142,106)"/>
<circle cx="127" cy="47" r="7" fill="rgb(46,108,81)" opacity="0.35"/>
<circle cx="127" cy="47" r="5.0" fill="rgb(46,108,81)"/>
<circle cx="141" cy="47" r="7" fill="rgb(42,100,75)" opacity="0.35"/>
<circle cx="141" cy="47" r="5.0" fill="rgb(42,100,75)"/>
<circle cx="155" cy="47" r="7" fill="rgb(52,121,90)" opacity="0.35"/>
<circle cx="155" cy="47" r="5.0" fill="rgb(52,121,90)"/>
<circle cx="169" cy="47" r="7" fill="rgb(29,70,53)" opacity="0.35"/>
<circle cx="169" cy="47" r="5.0" fill="rgb(29,70,53)"/>
<circle cx="183" cy="47" r="7" fill="rgb(39,94,70)" opacity="0.35"/>
<circle cx="183" cy="47" r="5.0" fill="rgb(39,94,70)"/>
<circle cx="197" cy="47" r="7" fill="rgb(65,147,109)" opacity="0.35"/>
<circle cx="197" cy="47" r="5.0" fill="rgb(65,147,109)"/>
<circle cx="211" cy="47" r="7" fill="rgb(94,188,144)" opacity="0.35"/>
<circle cx="211" cy="47" r="5.0" fill="rgb(94,188,144)"/>
<circle cx="225" cy="47" r="7" fill="rgb(58,134,99)" opacity="0.35"/>
<circle cx="225" cy="47" r="5.0" fill="rgb(58,134,99)"/>
<circle cx="15" cy="61" r="7" fill="rgb(35,83,62)" opacity="0.35"/>
<circle cx="15" cy="61" r="5.0" fill="rgb(35,83,62)"/>
<circle cx="29" cy="61" r="7" fill="rgb(34,81,61)" opacity="0.35"/>
<circle cx="29" cy="61" r="5.0" fill="rgb(34,81,61)"/>
<circle cx="43" cy="61" r="7" fill="rgb(49,115,86)" opacity="0.35"/>
<circle cx="43" cy="61" r="5.0" fill="rgb(49,115,86)"/>
<circle cx="57" cy="61" r="7" fill="rgb(48,112,83)" opacity="0.35"/>
<circle cx="57" cy="61" r="5.0" fill="rgb(48,112,83)"/>
<circle cx="71" cy="61" r="7" fill="rgb(57,132,98)" opacity="0.35"/>
<circle cx="71" cy="61" r="5.0" fill="rgb(57,132,98)"/>
<circle cx="85" cy="61" r="7" fill="rgb(67,152,113)" opacity="0.35"/>
<circle cx="85" cy="61" r="5.0" fill="rgb(67,152,113)"/>
<circle cx="99" cy="61" r="7" fill="rgb(30,73,54)" opacity="0.35"/>
<circle cx="99" cy="61" r="5.0" fill="rgb(30,73,54)"/>
<circle cx="113" cy="61" r="7" fill="rgb(38,92,68)" opacity="0.35"/>
<circle cx="113" cy="61" r="5.0" fill="rgb(38,92,68)"/>
<circle cx="127" cy="61" r="7" fill="rgb(37,89,67)" opacity="0.35"/>
<circle cx="127" cy="61" r="5.0" fill="rgb(37,89,67)"/>
<circle cx="141" cy="61" r="7" fill="rgb(41,98,73)" opacity="0.35"/>
<circle cx="141" cy="61" r="5.0" fill="rgb(41,98,73)"/>
<circle cx="155" cy="61" r="7" fill="rgb(55,126,94)" opacity="0.35"/>
<circle cx="155" cy="61" r="5.0" fill="rgb(55,126,94)"/>
<circle cx="169" cy="61" r="7" fill="rgb(36,87,65)" opacity="0.35"/>
<circle cx="169" cy="61" r="5.0" fill="rgb(36,87,65)"/>
<circle cx="183" cy="61" r="7" fill="rgb(39,94,70)" opacity="0.35"/>
<circle cx="183" cy="61" r="5.0" fill="rgb(39,94,70)"/>
<circle cx="197" cy="61" r="7" fill="rgb(43,103,77)" opacity="0.35"/>
<circle cx="197" cy="61" r="5.0" fill="rgb(43,103,77)"/>
<circle cx="211" cy="61" r="7" fill="rgb(73,165,123)" opacity="0.35"/>
<circle cx="211" cy="61" r="5.0" fill="rgb(73,165,123)"/>
<circle cx="225" cy="61" r="7" fill="rgb(109,195,153)" opacity="0.35"/>
<circle cx="225" cy="61" r="5.0" fill="rgb(109,195,153)"/>
<circle cx="15" cy="75" r="7" fill="rgb(39,94,70)" opacity="0.35"/>
<circle cx="15" cy="75" r="5.0" fill="rgb(39,94,70)"/>
<circle cx="29" cy="75" r="7" fill="rgb(28,69,51)" opacity="0.35"/>
<circle cx="29" cy="75" r="5.0" fill="rgb(28,69,51)"/>
<circle cx="43" cy="75" r="7" fill="rgb(39,93,69)" opacity="0.35"/>
<circle cx="43" cy="75" r="5.0" fill="rgb(39,93,69)"/>
<circle cx="57" cy="75" r="7" fill="rgb(38,90,67)" opacity="0.35"/>
<circle cx="57" cy="75" r="5.0" fill="rgb(38,90,67)"/>
<circle cx="71" cy="75" r="7" fill="rgb(58,133,99)" opacity="0.35"/>
<circle cx="71" cy="75" r="5.0" fill="rgb(58,133,99)"/>
<circle cx="85" cy="75" r="7" fill="rgb(55,127,95)" opacity="0.35"/>
<circle cx="85" cy="75" r="5.0" fill="rgb(55,127,95)"/>
<circle cx="99" cy="75" r="7" fill="rgb(33,79,59)" opacity="0.35"/>
<circle cx="99" cy="75" r="5.0" fill="rgb(33,79,59)"/>
<circle cx="113" cy="75" r="7" fill="rgb(23,59,44)" opacity="0.35"/>
<circle cx="113" cy="75" r="5.0" fill="rgb(23,59,44)"/>
<circle cx="127" cy="75" r="7" fill="rgb(36,87,65)" opacity="0.35"/>
<circle cx="127" cy="75" r="5.0" fill="rgb(36,87,65)"/>
<circle cx="141" cy="75" r="7" fill="rgb(72,163,121)" opacity="0.35"/>
<circle cx="141" cy="75" r="5.0" fill="rgb(72,163,121)"/>
<circle cx="155" cy="75" r="7" fill="rgb(59,136,101)" opacity="0.35"/>
<circle cx="155" cy="75" r="5.0" fill="rgb(59,136,101)"/>
<circle cx="169" cy="75" r="7" fill="rgb(39,93,69)" opacity="0.35"/>
<circle cx="169" cy="75" r="5.0" fill="rgb(39,93,69)"/>
<circle cx="183" cy="75" r="7" fill="rgb(21,55,41)" opacity="0.35"/>
<circle cx="183" cy="75" r="5.0" fill="rgb(21,55,41)"/>
<circle cx="197" cy="75" r="7" fill="rgb(38,91,68)" opacity="0.35"/>
<circle cx="197" cy="75" r="5.0" fill="rgb(38,91,68)"/>
<circle cx="211" cy="75" r="7" fill="rgb(71,160,119)" opacity="0.35"/>
<circle cx="211" cy="75" r="5.0" fill="rgb(71,160,119)"/>
<circle cx="225" cy="75" r="7" fill="rgb(80,179,133)" opacity="0.35"/>
<circle cx="225" cy="75" r="5.0" fill="rgb(80,179,133)"/>
<circle cx="15" cy="89" r="7" fill="rgb(42,99,74)" opacity="0.35"/>
<circle cx="15" cy="89" r="5.0" fill="rgb(42,99,74)"/>
<circle cx="29" cy="89" r="7" fill="rgb(30,73,55)" opacity="0.35"/>
<circle cx="29" cy="89" r="5.0" fill="rgb(30,73,55)"/>
<circle cx="43" cy="89" r="7" fill="rgb(34,83,62)" opacity="0.35"/>
<circle cx="43" cy="89" r="5.0" fill="rgb(34,83,62)"/>
<circle cx="57" cy="89" r="7" fill="rgb(32,77,57)" opacity="0.35"/>
<circle cx="57" cy="89" r="5.0" fill="rgb(32,77,57)"/>
<circle cx="71" cy="89" r="7" fill="rgb(49,114,85)" opacity="0.35"/>
<circle cx="71" cy="89" r="5.0" fill="rgb(49,114,85)"/>
<circle cx="85" cy="89" r="7" fill="rgb(48,112,84)" opacity="0.35"/>
<circle cx="85" cy="89" r="5.0" fill="rgb(48,112,84)"/>
<circle cx="99" cy="89" r="7" fill="rgb(37,88,65)" opacity="0.35"/>
<circle cx="99" cy="89" r="5.0" fill="rgb(37,88,65)"/>
<circle cx="113" cy="89" r="7" fill="rgb(37,89,66)" opacity="0.35"/>
<circle cx="113" cy="89" r="5.0" fill="rgb(37,89,66)"/>
<circle cx="127" cy="89" r="7" fill="rgb(36,86,64)" opacity="0.35"/>
<circle cx="127" cy="89" r="5.0" fill="rgb(36,86,64)"/>
<circle cx="141" cy="89" r="7" fill="rgb(62,142,106)" opacity="0.35"/>
<circle cx="141" cy="89" r="5.0" fill="rgb(62,142,106)"/>
<circle cx="155" cy="89" r="7" fill="rgb(67,152,113)" opacity="0.35"/>
<circle cx="155" cy="89" r="5.0" fill="rgb(67,152,113)"/>
<circle cx="169" cy="89" r="7" fill="rgb(34,81,61)" opacity="0.35"/>
<circle cx="169" cy="89" r="5.0" fill="rgb(34,81,61)"/>
<circle cx="183" cy="89" r="7" fill="rgb(30,74,56)" opacity="0.35"/>
<circle cx="183" cy="89" r="5.0" fill="rgb(30,74,56)"/>
<circle cx="197" cy="89" r="7" fill="rgb(25,62,46)" opacity="0.35"/>
<circle cx="197" cy="89" r="5.0" fill="rgb(25,62,46)"/>
<circle cx="211" cy="89" r="7" fill="rgb(37,88,66)" opacity="0.35"/>
<circle cx="211" cy="89" r="5.0" fill="rgb(37,88,66)"/>
<circle cx="225" cy="89" r="7" fill="rgb(55,126,94)" opacity="0.35"/>
<circle cx="225" cy="89" r="5.0" fill="rgb(55,126,94)"/>
<circle cx="15" cy="103" r="7" fill="rgb(33,81,60)" opacity="0.35"/>
<circle cx="15" cy="103" r="5.0" fill="rgb(33,81,60)"/>
<circle cx="29" cy="103" r="7" fill="rgb(26,64,48)" opacity="0.35"/>
<circle cx="29" cy="103" r="5.0" fill="rgb(26,64,48)"/>
<circle cx="43" cy="103" r="7" fill="rgb(28,69,52)" opacity="0.35"/>
<circle cx="43" cy="103" r="5.0" fill="rgb(28,69,52)"/>
<circle cx="57" cy="103" r="7" fill="rgb(41,98,73)" opacity="0.35"/>
<circle cx="57" cy="103" r="5.0" fill="rgb(41,98,73)"/>
<circle cx="71" cy="103" r="7" fill="rgb(56,129,96)" opacity="0.35"/>
<circle cx="71" cy="103" r="5.0" fill="rgb(56,129,96)"/>
<circle cx="85" cy="103" r="7" fill="rgb(55,127,94)" opacity="0.35"/>
<circle cx="85" cy="103" r="5.0" fill="rgb(55,127,94)"/>
<circle cx="99" cy="103" r="7" fill="rgb(37,88,66)" opacity="0.35"/>
<circle cx="99" cy="103" r="5.0" fill="rgb(37,88,66)"/>
<circle cx="113" cy="103" r="7" fill="rgb(39,92,69)" opacity="0.35"/>
<circle cx="113" cy="103" r="5.0" fill="rgb(39,92,69)"/>
<circle cx="127" cy="103" r="7" fill="rgb(56,129,96)" opacity="0.35"/>
<circle cx="127" cy="103" r="5.0" fill="rgb(56,129,96)"/>
<circle cx="141" cy="103" r="7" fill="rgb(76,170,126)" opacity="0.35"/>
<circle cx="141" cy="103" r="5.0" fill="rgb(76,170,126)"/>
<circle cx="155" cy="103" r="7" fill="rgb(68,153,114)" opacity="0.35"/>
<circle cx="155" cy="103" r="5.0" fill="rgb(68,153,114)"/>
<circle cx="169" cy="103" r="7" fill="rgb(43,101,75)" opacity="0.35"/>
<circle cx="169" cy="103" r="5.0" fill="rgb(43,101,75)"/>
<circle cx="183" cy="103" r="7" fill="rgb(47,111,83)" opacity="0.35"/>
<circle cx="183" cy="103" r="5.0" fill="rgb(47,111,83)"/>
<circle cx="197" cy="103" r="7" fill="rgb(39,93,69)" opacity="0.35"/>
<circle cx="197" cy="103" r="5.0" fill="rgb(39,93,69)"/>
<circle cx="211" cy="103" r="7" fill="rgb(34,82,61)" opacity="0.35"/>
<circle cx="211" cy="103" r="5.0" fill="rgb(34,82,61)"/>
<circle cx="225" cy="103" r="7" fill="rgb(34,81,61)" opacity="0.35"/>
<circle cx="225" cy="103" r="5.0" fill="rgb(34,81,61)"/>
<circle cx="15" cy="117" r="7" fill="rgb(49,114,85)" opacity="0.35"/>
<circle cx="15" cy="117" r="5.0" fill="rgb(49,114,85)"/>
<circle cx="29" cy="117" r="7" fill="rgb(38,91,68)" opacity="0.35"/>
<circle cx="29" cy="117" r="5.0" fill="rgb(38,91,68)"/>
<circle cx="43" cy="117" r="7" fill="rgb(49,115,86)" opacity="0.35"/>
<circle cx="43" cy="117" r="5.0" fill="rgb(49,115,86)"/>
<circle cx="57" cy="117" r="7" fill="rgb(76,170,127)" opacity="0.35"/>
<circle cx="57" cy="117" r="5.0" fill="rgb(76,170,127)"/>
<circle cx="71" cy="117" r="7" fill="rgb(122,201,161)" opacity="0.35"/>
<circle cx="71" cy="117" r="5.0" fill="rgb(122,201,161)"/>
<circle cx="85" cy="117" r="7" fill="rgb(70,158,117)" opacity="0.35"/>
<circle cx="85" cy="117" r="5.0" fill="rgb(70,158,117)"/>
<circle cx="99" cy="117" r="7" fill="rgb(51,118,88)" opacity="0.35"/>
<circle cx="99" cy="117" r="5.0" fill="rgb(51,118,88)"/>
<circle cx="113" cy="117" r="7" fill="rgb(45,106,79)" opacity="0.35"/>
<circle cx="113" cy="117" r="5.0" fill="rgb(45,106,79)"/>
<circle cx="127" cy="117" r="7" fill="rgb(54,125,93)" opacity="0.35"/>
<circle cx="127" cy="117" r="5.0" fill="rgb(54,125,93)"/>
<circle cx="141" cy="117" r="7" fill="rgb(75,168,125)" opacity="0.35"/>
<circle cx="141" cy="117" r="5.0" fill="rgb(75,168,125)"/>
<circle cx="155" cy="117" r="7" fill="rgb(113,197,156)" opacity="0.35"/>
<circle cx="155" cy="117" r="5.0" fill="rgb(113,197,156)"/>
<circle cx="169" cy="117" r="7" fill="rgb(60,137,102)" opacity="0.35"/>
<circle cx="169" cy="117" r="5.0" fill="rgb(60,137,102)"/>
<circle cx="183" cy="117" r="7" fill="rgb(64,145,108)" opacity="0.35"/>
<circle cx="183" cy="117" r="5.0" fill="rgb(64,145,108)"/>
<circle cx="197" cy="117" r="7" fill="rgb(59,136,101)" opacity="0.35"/>
<circle cx="197" cy="117" r="5.0" fill="rgb(59,136,101)"/>
<circle cx="211" cy="117" r="7" fill="rgb(46,108,81)" opacity="0.35"/>
<circle cx="211" cy="117" r="5.0" fill="rgb(46,108,81)"/>
<circle cx="225" cy="117" r="7" fill="rgb(31,76,56)" opacity="0.35"/>
<circle cx="225" cy="117" r="5.0" fill="rgb(31,76,56)"/>
<circle cx="15" cy="131" r="7" fill="rgb(44,103,77)" opacity="0.35"/>
<circle cx="15" cy="131" r="5.0" fill="rgb(44,103,77)"/>
<circle cx="29" cy="131" r="7" fill="rgb(55,126,94)" opacity="0.35"/>
<circle cx="29" cy="131" r="5.0" fill="rgb(55,126,94)"/>
<circle cx="43" cy="131" r="7" fill="rgb(43,103,77)" opacity="0.35"/>
<circle cx="43" cy="131" r="5.0" fill="rgb(43,103,77)"/>
<circle cx="57" cy="131" r="7" fill="rgb(72,162,120)" opacity="0.35"/>
<circle cx="57" cy="131" r="5.0" fill="rgb(72,162,120)"/>
<circle cx="71" cy="131" r="7" fill="rgb(70,158,118)" opacity="0.35"/>
<circle cx="71" cy="131" r="5.0" fill="rgb(70,158,118)"/>
<circle cx="85" cy="131" r="7" fill="rgb(57,131,98)" opacity="0.35"/>
<circle cx="85" cy="131" r="5.0" fill="rgb(57,131,98)"/>
<circle cx="99" cy="131" r="7" fill="rgb(37,89,66)" opacity="0.35"/>
<circle cx="99" cy="131" r="5.0" fill="rgb(37,89,66)"/>
<circle cx="113" cy="131" r="7" fill="rgb(43,102,76)" opacity="0.35"/>
<circle cx="113" cy="131" r="5.0" fill="rgb(43,102,76)"/>
<circle cx="127" cy="131" r="7" fill="rgb(52,121,90)" opacity="0.35"/>
<circle cx="127" cy="131" r="5.0" fill="rgb(52,121,90)"/>
<circle cx="141" cy="131" r="7" fill="rgb(45,106,79)" opacity="0.35"/>
<circle cx="141" cy="131" r="5.0" fill="rgb(45,106,79)"/>
<circle cx="155" cy="131" r="7" fill="rgb(61,139,103)" opacity="0.35"/>
<circle cx="155" cy="131" r="5.0" fill="rgb(61,139,103)"/>
<circle cx="169" cy="131" r="7" fill="rgb(66,150,111)" opacity="0.35"/>
<circle cx="169" cy="131" r="5.0" fill="rgb(66,150,111)"/>
<circle cx="183" cy="131" r="7" fill="rgb(54,125,93)" opacity="0.35"/>
<circle cx="183" cy="131" r="5.0" fill="rgb(54,125,93)"/>
<circle cx="197" cy="131" r="7" fill="rgb(41,97,72)" opacity="0.35"/>
<circle cx="197" cy="131" r="5.0" fill="rgb(41,97,72)"/>
<circle cx="211" cy="131" r="7" fill="rgb(57,132,98)" opacity="0.35"/>
<circle cx="211" cy="131" r="5.0" fill="rgb(57,132,98)"/>
<circle cx="225" cy="131" r="7" fill="rgb(34,83,62)" opacity="0.35"/>
<circle cx="225" cy="131" r="5.0" fill="rgb(34,83,62)"/>
<circle cx="15" cy="145" r="7" fill="rgb(45,105,78)" opacity="0.35"/>
<circle cx="15" cy="145" r="5.0" fill="rgb(45,105,78)"/>
<circle cx="29" cy="145" r="7" fill="rgb(46,109,81)" opacity="0.35"/>
<circle cx="29" cy="145" r="5.0" fill="rgb(46,109,81)"/>
<circle cx="43" cy="145" r="7" fill="rgb(43,102,76)" opacity="0.35"/>
<circle cx="43" cy="145" r="5.0" fill="rgb(43,102,76)"/>
<circle cx="57" cy="145" r="7" fill="rgb(63,143,106)" opacity="0.35"/>
<circle cx="57" cy="145" r="5.0" fill="rgb(63,143,106)"/>
<circle cx="71" cy="145" r="7" fill="rgb(59,135,100)" opacity="0.35"/>
<circle cx="71" cy="145" r="5.0" fill="rgb(59,135,100)"/>
<circle cx="85" cy="145" r="7" fill="rgb(32,77,57)" opacity="0.35"/>
<circle cx="85" cy="145" r="5.0" fill="rgb(32,77,57)"/>
<circle cx="99" cy="145" r="7" fill="rgb(34,83,62)" opacity="0.35"/>
<circle cx="99" cy="145" r="5.0" fill="rgb(34,83,62)"/>
<circle cx="113" cy="145" r="7" fill="rgb(37,89,66)" opacity="0.35"/>
<circle cx="113" cy="145" r="5.0" fill="rgb(37,89,66)"/>
<circle cx="127" cy="145" r="7" fill="rgb(47,111,83)" opacity="0.35"/>
<circle cx="127" cy="145" r="5.0" fill="rgb(47,111,83)"/>
<circle cx="141" cy="145" r="7" fill="rgb(38,90,67)" opacity="0.35"/>
<circle cx="141" cy="145" r="5.0" fill="rgb(38,90,67)"/>
<circle cx="155" cy="145" r="7" fill="rgb(43,102,76)" opacity="0.35"/>
<circle cx="155" cy="145" r="5.0" fill="rgb(43,102,76)"/>
<circle cx="169" cy="145" r="7" fill="rgb(61,140,104)" opacity="0.35"/>
<circle cx="169" cy="145" r="5.0" fill="rgb(61,140,104)"/>
<circle cx="183" cy="145" r="7" fill="rgb(56,129,96)" opacity="0.35"/>
<circle cx="183" cy="145" r="5.0" fill="rgb(56,129,96)"/>
<circle cx="197" cy="145" r="7" fill="rgb(41,96,72)" opacity="0.35"/>
<circle cx="197" cy="145" r="5.0" fill="rgb(41,96,72)"/>
<circle cx="211" cy="145" r="7" fill="rgb(41,96,72)" opacity="0.35"/>
<circle cx="211" cy="145" r="5.0" fill="rgb(41,96,72)"/>
<circle cx="225" cy="145" r="7" fill="rgb(34,83,62)" opacity="0.35"/>
<circle cx="225" cy="145" r="5.0" fill="rgb(34,83,62)"/>
<circle cx="15" cy="159" r="7" fill="rgb(31,76,57)" opacity="0.35"/>
<circle cx="15" cy="159" r="5.0" fill="rgb(31,76,57)"/>
<circle cx="29" cy="159" r="7" fill="rgb(34,83,62)" opacity="0.35"/>
<circle cx="29" cy="159" r="5.0" fill="rgb(34,83,62)"/>
<circle cx="43" cy="159" r="7" fill="rgb(37,89,66)" opacity="0.35"/>
<circle cx="43" cy="159" r="5.0" fill="rgb(37,89,66)"/>
<circle cx="57" cy="159" r="7" fill="rgb(46,107,80)" opacity="0.35"/>
<circle cx="57" cy="159" r="5.0" fill="rgb(46,107,80)"/>
<circle cx="71" cy="159" r="7" fill="rgb(35,84,63)" opacity="0.35"/>
<circle cx="71" cy="159" r="5.0" fill="rgb(35,84,63)"/>
<circle cx="85" cy="159" r="7" fill="rgb(35,84,62)" opacity="0.35"/>
<circle cx="85" cy="159" r="5.0" fill="rgb(35,84,62)"/>
<circle cx="99" cy="159" r="7" fill="rgb(38,91,68)" opacity="0.35"/>
<circle cx="99" cy="159" r="5.0" fill="rgb(38,91,68)"/>
<circle cx="113" cy="159" r="7" fill="rgb(44,103,77)" opacity="0.35"/>
<circle cx="113" cy="159" r="5.0" fill="rgb(44,103,77)"/>
<circle cx="127" cy="159" r="7" fill="rgb(40,96,72)" opacity="0.35"/>
<circle cx="127" cy="159" r="5.0" fill="rgb(40,96,72)"/>
<circle cx="141" cy="159" r="7" fill="rgb(49,114,85)" opacity="0.35"/>
<circle cx="141" cy="159" r="5.0" fill="rgb(49,114,85)"/>
<circle cx="155" cy="159" r="7" fill="rgb(48,113,84)" opacity="0.35"/>
<circle cx="155" cy="159" r="5.0" fill="rgb(48,113,84)"/>
<circle cx="169" cy="159" r="7" fill="rgb(33,80,60)" opacity="0.35"/>
<circle cx="169" cy="159" r="5.0" fill="rgb(33,80,60)"/>
<circle cx="183" cy="159" r="7" fill="rgb(32,77,57)" opacity="0.35"/>
<circle cx="183" cy="159" r="5.0" fill="rgb(32,77,57)"/>
<circle cx="197" cy="159" r="7" fill="rgb(32,77,58)" opacity="0.35"/>
<circle cx="197" cy="159" r="5.0" fill="rgb(32,77,58)"/>
<circle cx="211" cy="159" r="7" fill="rgb(30,74,55)" opacity="0.35"/>
<circle cx="211" cy="159" r="5.0" fill="rgb(30,74,55)"/>
<circle cx="225" cy="159" r="7" fill="rgb(39,93,69)" opacity="0.35"/>
<circle cx="225" cy="159" r="5.0" fill="rgb(39,93,69)"/>
<circle cx="15" cy="173" r="7" fill="rgb(38,90,67)" opacity="0.35"/>
<circle cx="15" cy="173" r="5.0" fill="rgb(38,90,67)"/>
<circle cx="29" cy="173" r="7" fill="rgb(35,84,62)" opacity="0.35"/>
<circle cx="29" cy="173" r="5.0" fill="rgb(35,84,62)"/>
<circle cx="43" cy="173" r="7" fill="rgb(43,102,76)" opacity="0.35"/>
<circle cx="43" cy="173" r="5.0" fill="rgb(43,102,76)"/>
<circle cx="57" cy="173" r="7" fill="rgb(42,100,75)" opacity="0.35"/>
<circle cx="57" cy="173" r="5.0" fill="rgb(42,100,75)"/>
<circle cx="71" cy="173" r="7" fill="rgb(56,129,96)" opacity="0.35"/>
<circle cx="71" cy="173" r="5.0" fill="rgb(56,129,96)"/>
<circle cx="85" cy="173" r="7" fill="rgb(60,138,103)" opacity="0.35"/>
<circle cx="85" cy="173" r="5.0" fill="rgb(60,138,103)"/>
<circle cx="99" cy="173" r="7" fill="rgb(59,136,101)" opacity="0.35"/>
<circle cx="99" cy="173" r="5.0" fill="rgb(59,136,101)"/>
<circle cx="113" cy="173" r="7" fill="rgb(44,104,78)" opacity="0.35"/>
<circle cx="113" cy="173" r="5.0" fill="rgb(44,104,78)"/>
<circle cx="127" cy="173" r="7" fill="rgb(67,152,113)" opacity="0.35"/>
<circle cx="127" cy="173" r="5.0" fill="rgb(67,152,113)"/>
<circle cx="141" cy="173" r="7" fill="rgb(45,106,79)" opacity="0.35"/>
<circle cx="141" cy="173" r="5.0" fill="rgb(45,106,79)"/>
<circle cx="155" cy="173" r="7" fill="rgb(43,103,76)" opacity="0.35"/>
<circle cx="155" cy="173" r="5.0" fill="rgb(43,103,76)"/>
<circle cx="169" cy="173" r="7" fill="rgb(37,88,65)" opacity="0.35"/>
<circle cx="169" cy="173" r="5.0" fill="rgb(37,88,65)"/>
<circle cx="183" cy="173" r="7" fill="rgb(33,80,60)" opacity="0.35"/>
<circle cx="183" cy="173" r="5.0" fill="rgb(33,80,60)"/>
<circle cx="197" cy="173" r="7" fill="rgb(37,89,66)" opacity="0.35"/>
<circle cx="197" cy="173" r="5.0" fill="rgb(37,89,66)"/>
<circle cx="211" cy="173" r="7" fill="rgb(33,79,59)" opacity="0.35"/>
<circle cx="211" cy="173" r="5.0" fill="rgb(33,79,59)"/>
<circle cx="225" cy="173" r="7" fill="rgb(44,103,77)" opacity="0.35"/>
<circle cx="225" cy="173" r="5.0" fill="rgb(44,103,77)"/>
<circle cx="15" cy="187" r="7" fill="rgb(66,150,111)" opacity="0.35"/>
<circle cx="15" cy="187" r="5.0" fill="rgb(66,150,111)"/>
<circle cx="29" cy="187" r="7" fill="rgb(42,99,74)" opacity="0.35"/>
<circle cx="29" cy="187" r="5.0" fill="rgb(42,99,74)"/>
<circle cx="43" cy="187" r="7" fill="rgb(49,114,85)" opacity="0.35"/>
<circle cx="43" cy="187" r="5.0" fill="rgb(49,114,85)"/>
<circle cx="57" cy="187" r="7" fill="rgb(55,126,94)" opacity="0.35"/>
<circle cx="57" cy="187" r="5.0" fill="rgb(55,126,94)"/>
<circle cx="71" cy="187" r="7" fill="rgb(58,132,98)" opacity="0.35"/>
<circle cx="71" cy="187" r="5.0" fill="rgb(58,132,98)"/>
<circle cx="85" cy="187" r="7" fill="rgb(70,159,118)" opacity="0.35"/>
<circle cx="85" cy="187" r="5.0" fill="rgb(70,159,118)"/>
<circle cx="99" cy="187" r="7" fill="rgb(62,142,106)" opacity="0.35"/>
<circle cx="99" cy="187" r="5.0" fill="rgb(62,142,106)"/>
<circle cx="113" cy="187" r="7" fill="rgb(51,118,88)" opacity="0.35"/>
<circle cx="113" cy="187" r="5.0" fill="rgb(51,118,88)"/>
<circle cx="127" cy="187" r="7" fill="rgb(78,174,129)" opacity="0.35"/>
<circle cx="127" cy="187" r="5.0" fill="rgb(78,174,129)"/>
<circle cx="141" cy="187" r="7" fill="rgb(58,132,99)" opacity="0.35"/>
<circle cx="141" cy="187" r="5.0" fill="rgb(58,132,99)"/>
<circle cx="155" cy="187" r="7" fill="rgb(61,139,103)" opacity="0.35"/>
<circle cx="155" cy="187" r="5.0" fill="rgb(61,139,103)"/>
<circle cx="169" cy="187" r="7" fill="rgb(64,145,108)" opacity="0.35"/>
<circle cx="169" cy="187" r="5.0" fill="rgb(64,145,108)"/>
<circle cx="183" cy="187" r="7" fill="rgb(54,124,93)" opacity="0.35"/>
<circle cx="183" cy="187" r="5.0" fill="rgb(54,124,93)"/>
<circle cx="197" cy="187" r="7" fill="rgb(39,92,69)" opacity="0.35"/>
<circle cx="197" cy="187" r="5.0" fill="rgb(39,92,69)"/>
<circle cx="211" cy="187" r="7" fill="rgb(37,89,66)" opacity="0.35"/>
<circle cx="211" cy="187" r="5.0" fill="rgb(37,89,66)"/>
<circle cx="225" cy="187" r="7" fill="rgb(41,97,72)" opacity="0.35"/>
<circle cx="225" cy="187" r="5.0" fill="rgb(41,97,72)"/>
<circle cx="15" cy="201" r="7" fill="rgb(71,160,119)" opacity="0.35"/>
<circle cx="15" cy="201" r="5.0" fill="rgb(71,160,119)"/>
<circle cx="29" cy="201" r="7" fill="rgb(68,153,114)" opacity="0.35"/>
<circle cx="29" cy="201" r="5.0" fill="rgb(68,153,114)"/>
<circle cx="43" cy="201" r="7" fill="rgb(71,161,120)" opacity="0.35"/>
<circle cx="43" cy="201" r="5.0" fill="rgb(71,161,120)"/>
<circle cx="57" cy="201" r="7" fill="rgb(62,141,105)" opacity="0.35"/>
<circle cx="57" cy="201" r="5.0" fill="rgb(62,141,105)"/>
<circle cx="71" cy="201" r="7" fill="rgb(45,106,79)" opacity="0.35"/>
<circle cx="71" cy="201" r="5.0" fill="rgb(45,106,79)"/>
<circle cx="85" cy="201" r="7" fill="rgb(46,108,80)" opacity="0.35"/>
<circle cx="85" cy="201" r="5.0" fill="rgb(46,108,80)"/>
<circle cx="99" cy="201" r="7" fill="rgb(53,123,91)" opacity="0.35"/>
<circle cx="99" cy="201" r="5.0" fill="rgb(53,123,91)"/>
<circle cx="113" cy="201" r="7" fill="rgb(64,145,108)" opacity="0.35"/>
<circle cx="113" cy="201" r="5.0" fill="rgb(64,145,108)"/>
<circle cx="127" cy="201" r="7" fill="rgb(59,136,101)" opacity="0.35"/>
<circle cx="127" cy="201" r="5.0" fill="rgb(59,136,101)"/>
<circle cx="141" cy="201" r="7" fill="rgb(63,144,107)" opacity="0.35"/>
<circle cx="141" cy="201" r="5.0" fill="rgb(63,144,107)"/>
<circle cx="155" cy="201" r="7" fill="rgb(68,154,114)" opacity="0.35"/>
<circle cx="155" cy="201" r="5.0" fill="rgb(68,154,114)"/>
<circle cx="169" cy="201" r="7" fill="rgb(81,180,134)" opacity="0.35"/>
<circle cx="169" cy="201" r="5.0" fill="rgb(81,180,134)"/>
<circle cx="183" cy="201" r="7" fill="rgb(60,136,101)" opacity="0.35"/>
<circle cx="183" cy="201" r="5.0" fill="rgb(60,136,101)"/>
<circle cx="197" cy="201" r="7" fill="rgb(43,101,76)" opacity="0.35"/>
<circle cx="197" cy="201" r="5.0" fill="rgb(43,101,76)"/>
<circle cx="211" cy="201" r="7" fill="rgb(45,105,78)" opacity="0.35"/>
<circle cx="211" cy="201" r="5.0" fill="rgb(45,105,78)"/>
<circle cx="225" cy="201" r="7" fill="rgb(53,122,91)" opacity="0.35"/>
<circle cx="225" cy="201" r="5.0" fill="rgb(53,122,91)"/>
<circle cx="15" cy="215" r="7" fill="rgb(48,113,84)" opacity="0.35"/>
<circle cx="15" cy="215" r="5.0" fill="rgb(48,113,84)"/>
<circle cx="29" cy="215" r="7" fill="rgb(69,156,116)" opacity="0.35"/>
<circle cx="29" cy="215" r="5.0" fill="rgb(69,156,116)"/>
<circle cx="43" cy="215" r="7" fill="rgb(69,155,115)" opacity="0.35"/>
<circle cx="43" cy="215" r="5.0" fill="rgb(69,155,115)"/>
<circle cx="57" cy="215" r="7" fill="rgb(45,105,78)" opacity="0.35"/>
<circle cx="57" cy="215" r="5.0" fill="rgb(45,105,78)"/>
<circle cx="71" cy="215" r="7" fill="rgb(30,73,55)" opacity="0.35"/>
<circle cx="71" cy="215" r="5.0" fill="rgb(30,73,55)"/>
<circle cx="85" cy="215" r="7" fill="rgb(33,80,59)" opacity="0.35"/>
<circle cx="85" cy="215" r="5.0" fill="rgb(33,80,59)"/>
<circle cx="99" cy="215" r="7" fill="rgb(40,95,70)" opacity="0.35"/>
<circle cx="99" cy="215" r="5.0" fill="rgb(40,95,70)"/>
<circle cx="113" cy="215" r="7" fill="rgb(44,104,78)" opacity="0.35"/>
<circle cx="113" cy="215" r="5.0" fill="rgb(44,104,78)"/>
<circle cx="127" cy="215" r="7" fill="rgb(41,98,73)" opacity="0.35"/>
<circle cx="127" cy="215" r="5.0" fill="rgb(41,98,73)"/>
<circle cx="141" cy="215" r="7" fill="rgb(47,109,81)" opacity="0.35"/>
<circle cx="141" cy="215" r="5.0" fill="rgb(47,109,81)"/>
<circle cx="155" cy="215" r="7" fill="rgb(56,130,96)" opacity="0.35"/>
<circle cx="155" cy="215" r="5.0" fill="rgb(56,130,96)"/>
<circle cx="169" cy="215" r="7" fill="rgb(38,92,68)" opacity="0.35"/>
<circle cx="169" cy="215" r="5.0" fill="rgb(38,92,68)"/>
<circle cx="183" cy="215" r="7" fill="rgb(45,105,79)" opacity="0.35"/>
<circle cx="183" cy="215" r="5.0" fill="rgb(45,105,79)"/>
<circle cx="197" cy="215" r="7" fill="rgb(65,148,110)" opacity="0.35"/>
<circle cx="197" cy="215" r="5.0" fill="rgb(65,148,110)"/>
<circle cx="211" cy="215" r="7" fill="rgb(65,147,109)" opacity="0.35"/>
<circle cx="211" cy="215" r="5.0" fill="rgb(65,147,109)"/>
<circle cx="225" cy="215" r="7" fill="rgb(69,156,116)" opacity="0.35"/>
<circle cx="225" cy="215" r="5.0" fill="rgb(69,156,116)"/>
<circle cx="15" cy="229" r="7" fill="rgb(49,114,85)" opacity="0.35"/>
<circle cx="15" cy="229" r="5.0" fill="rgb(49,114,85)"/>
<circle cx="29" cy="229" r="7" fill="rgb(57,131,97)" opacity="0.35"/>
<circle cx="29" cy="229" r="5.0" fill="rgb(57,131,97)"/>
<circle cx="43" cy="229" r="7" fill="rgb(75,168,125)" opacity="0.35"/>
<circle cx="43" cy="229" r="5.0" fill="rgb(75,168,125)"/>
<circle cx="57" cy="229" r="7" fill="rgb(43,101,75)" opacity="0.35"/>
<circle cx="57" cy="229" r="5.0" fill="rgb(43,101,75)"/>
<circle cx="71" cy="229" r="7" fill="rgb(37,88,65)" opacity="0.35"/>
<circle cx="71" cy="229" r="5.0" fill="rgb(37,88,65)"/>
<circle cx="85" cy="229" r="7" fill="rgb(37,90,67)" opacity="0.35"/>
<circle cx="85" cy="229" r="5.0" fill="rgb(37,90,67)"/>
<circle cx="99" cy="229" r="7" fill="rgb(47,110,82)" opacity="0.35"/>
<circle cx="99" cy="229" r="5.0" fill="rgb(47,110,82)"/>
<circle cx="113" cy="229" r="7" fill="rgb(47,111,83)" opacity="0.35"/>
<circle cx="113" cy="229" r="5.0" fill="rgb(47,111,83)"/>
<circle cx="127" cy="229" r="7" fill="rgb(51,118,88)" opacity="0.35"/>
<circle cx="127" cy="229" r="5.0" fill="rgb(51,118,88)"/>
<circle cx="141" cy="229" r="7" fill="rgb(38,90,67)" opacity="0.35"/>
<circle cx="141" cy="229" r="5.0" fill="rgb(38,90,67)"/>
<circle cx="155" cy="229" r="7" fill="rgb(33,80,59)" opacity="0.35"/>
<circle cx="155" cy="229" r="5.0" fill="rgb(33,80,59)"/>
<circle cx="169" cy="229" r="7" fill="rgb(31,76,57)" opacity="0.35"/>
<circle cx="169" cy="229" r="5.0" fill="rgb(31,76,57)"/>
<circle cx="183" cy="229" r="7" fill="rgb(38,90,67)" opacity="0.35"/>
<circle cx="183" cy="229" r="5.0" fill="rgb(38,90,67)"/>
<circle cx="197" cy="229" r="7" fill="rgb(48,112,83)" opacity="0.35"/>
<circle cx="197" cy="229" r="5.0" fill="rgb(48,112,83)"/>
<circle cx="211" cy="229" r="7" fill="rgb(53,124,92)" opacity="0.35"/>
<circle cx="211" cy="229" r="5.0" fill="rgb(53,124,92)"/>
<circle cx="225" cy="229" r="7" fill="rgb(71,160,119)" opacity="0.35"/>
<circle cx="225" cy="229" r="5.0" fill="rgb(71,160,119)"/>
<circle cx="15" cy="243" r="7" fill="rgb(73,164,122)" opacity="0.35"/>
<circle cx="15" cy="243" r="5.0" fill="rgb(73,164,122)"/>
<circle cx="29" cy="243" r="7" fill="rgb(71,160,119)" opacity="0.35"/>
<circle cx="29" cy="243" r="5.0" fill="rgb(71,160,119)"/>
<circle cx="43" cy="243" r="7" fill="rgb(67,151,113)" opacity="0.35"/>
<circle cx="43" cy="243" r="5.0" fill="rgb(67,151,113)"/>
<circle cx="57" cy="243" r="7" fill="rgb(58,133,99)" opacity="0.35"/>
<circle cx="57" cy="243" r="5.0" fill="rgb(58,133,99)"/>
<circle cx="71" cy="243" r="7" fill="rgb(42,100,74)" opacity="0.35"/>
<circle cx="71" cy="243" r="5.0" fill="rgb(42,100,74)"/>
<circle cx="85" cy="243" r="7" fill="rgb(41,97,73)" opacity="0.35"/>
<circle cx="85" cy="243" r="5.0" fill="rgb(41,97,73)"/>
<circle cx="99" cy="243" r="7" fill="rgb(56,128,95)" opacity="0.35"/>
<circle cx="99" cy="243" r="5.0" fill="rgb(56,128,95)"/>
<circle cx="113" cy="243" r="7" fill="rgb(58,134,99)" opacity="0.35"/>
<circle cx="113" cy="243" r="5.0" fill="rgb(58,134,99)"/>
<circle cx="127" cy="243" r="7" fill="rgb(55,128,95)" opacity="0.35"/>
<circle cx="127" cy="243" r="5.0" fill="rgb(55,128,95)"/>
<circle cx="141" cy="243" r="7" fill="rgb(37,89,66)" opacity="0.35"/>
<circle cx="141" cy="243" r="5.0" fill="rgb(37,89,66)"/>
<circle cx="155" cy="243" r="7" fill="rgb(28,69,51)" opacity="0.35"/>
<circle cx="155" cy="243" r="5.0" fill="rgb(28,69,51)"/>
<circle cx="169" cy="243" r="7" fill="rgb(31,76,56)" opacity="0.35"/>
<circle cx="169" cy="243" r="5.0" fill="rgb(31,76,56)"/>
<circle cx="183" cy="243" r="7" fill="rgb(49,115,86)" opacity="0.35"/>
<circle cx="183" cy="243" r="5.0" fill="rgb(49,115,86)"/>
<circle cx="197" cy="243" r="7" fill="rgb(58,134,100)" opacity="0.35"/>
<circle cx="197" cy="243" r="5.0" fill="rgb(58,134,100)"/>
<circle cx="211" cy="243" r="7" fill="rgb(59,135,101)" opacity="0.35"/>
<circle cx="211" cy="243" r="5.0" fill="rgb(59,135,101)"/>
<circle cx="225" cy="243" r="7" fill="rgb(82,182,135)" opacity="0.35"/>
<circle cx="225" cy="243" r="5.0" fill="rgb(82,182,135)"/>
<circle cx="15" cy="257" r="7" fill="rgb(54,124,93)" opacity="0.35"/>
<circle cx="15" cy="257" r="5.0" fill="rgb(54,124,93)"/>
<circle cx="29" cy="257" r="7" fill="rgb(53,122,91)" opacity="0.35"/>
<circle cx="29" cy="257" r="5.0" fill="rgb(53,122,91)"/>
<circle cx="43" cy="257" r="7" fill="rgb(69,156,116)" opacity="0.35"/>
<circle cx="43" cy="257" r="5.0" fill="rgb(69,156,116)"/>
<circle cx="57" cy="257" r="7" fill="rgb(59,136,101)" opacity="0.35"/>
<circle cx="57" cy="257" r="5.0" fill="rgb(59,136,101)"/>
<circle cx="71" cy="257" r="7" fill="rgb(60,137,102)" opacity="0.35"/>
<circle cx="71" cy="257" r="5.0" fill="rgb(60,137,102)"/>
<circle cx="85" cy="257" r="7" fill="rgb(66,149,111)" opacity="0.35"/>
<circle cx="85" cy="257" r="5.0" fill="rgb(66,149,111)"/>
<circle cx="99" cy="257" r="7" fill="rgb(62,142,105)" opacity="0.35"/>
<circle cx="99" cy="257" r="5.0" fill="rgb(62,142,105)"/>
<circle cx="113" cy="257" r="7" fill="rgb(56,128,96)" opacity="0.35"/>
<circle cx="113" cy="257" r="5.0" fill="rgb(56,128,96)"/>
<circle cx="127" cy="257" r="7" fill="rgb(42,99,73)" opacity="0.35"/>
<circle cx="127" cy="257" r="5.0" fill="rgb(42,99,73)"/>
<circle cx="141" cy="257" r="7" fill="rgb(31,76,57)" opacity="0.35"/>
<circle cx="141" cy="257" r="5.0" fill="rgb(31,76,57)"/>
<circle cx="155" cy="257" r="7" fill="rgb(37,88,65)" opacity="0.35"/>
<circle cx="155" cy="257" r="5.0" fill="rgb(37,88,65)"/>
<circle cx="169" cy="257" r="7" fill="rgb(44,103,77)" opacity="0.35"/>
<circle cx="169" cy="257" r="5.0" fill="rgb(44,103,77)"/>
<circle cx="183" cy="257" r="7" fill="rgb(43,101,75)" opacity="0.35"/>
<circle cx="183" cy="257" r="5.0" fill="rgb(43,101,75)"/>
<circle cx="197" cy="257" r="7" fill="rgb(50,116,86)" opacity="0.35"/>
<circle cx="197" cy="257" r="5.0" fill="rgb(50,116,86)"/>
<circle cx="211" cy="257" r="7" fill="rgb(109,195,153)" opacity="0.35"/>
<circle cx="211" cy="257" r="5.0" fill="rgb(109,195,153)"/>
<circle cx="225" cy="257" r="7" fill="rgb(74,167,124)" opacity="0.35"/>
<circle cx="225" cy="257" r="5.0" fill="rgb(74,167,124)"/>
<circle cx="-2" cy="280" r="9" fill="#9aa0a6" opacity="0.25"/>
<circle cx="-2" cy="280" r="6" fill="#9aa0a6" stroke="#0d0f12" stroke-width="1.5"/>
<text x="10" y="284" font-family="'JetBrains Mono','Cascadia Mono','Consolas',monospace" font-size="12" fill="#a0a0a0">Speed</text>
<circle cx="242" cy="280" r="9" fill="#5ad1ff" opacity="0.25"/>
<circle cx="242" cy="280" r="6" fill="#5ad1ff" stroke="#0d0f12" stroke-width="1.5"/>
<text x="230" y="284" text-anchor="end" font-family="'JetBrains Mono','Cascadia Mono','Consolas',monospace" font-size="12" fill="#a0a0a0">Frame</text>
<circle cx="-2" cy="308" r="9" fill="#9aa0a6" opacity="0.25"/>
<circle cx="-2" cy="308" r="6" fill="#9aa0a6" stroke="#0d0f12" stroke-width="1.5"/>
<text x="10" y="312" font-family="'JetBrains Mono','Cascadia Mono','Consolas',monospace" font-size="12" fill="#a0a0a0">Scale</text>
<circle cx="-2" cy="336" r="9" fill="#ff5cf0" opacity="0.25"/>
<circle cx="-2" cy="336" r="6" fill="#ff5cf0" stroke="#0d0f12" stroke-width="1.5"/>
<text x="10" y="340" font-family="'JetBrains Mono','Cascadia Mono','Consolas',monospace" font-size="12" fill="#a0a0a0">Palette</text>
<line x1="8" y1="356" x2="232" y2="356" stroke="rgba(255,255,255,0.08)"/>
<text x="8" y="376" font-family="'JetBrains Mono','Cascadia Mono','Consolas',monospace" font-size="12" fill="#a0a0a0">speed</text>
<g>
<rect x="120" y="370" width="72" height="4" rx="2" fill="#cfd2d6" opacity="0.85"/>
<rect x="120" y="370" width="18.0" height="4" rx="2" fill="#d633ff"/>
<circle cx="138.0" cy="372" r="5" fill="#d633ff"/>
<text x="232" y="376" text-anchor="end" font-family="'JetBrains Mono','Cascadia Mono','Consolas',monospace" font-size="12" fill="#e0e0e0">0.25</text>
</g>
<text x="8" y="397" font-family="'JetBrains Mono','Cascadia Mono','Consolas',monospace" font-size="12" fill="#a0a0a0">scale</text>
<g>
<rect x="120" y="391" width="72" height="4" rx="2" fill="#cfd2d6" opacity="0.85"/>
<rect x="120" y="391" width="21.6" height="4" rx="2" fill="#d633ff"/>
<circle cx="141.6" cy="393" r="5" fill="#d633ff"/>
<text x="232" y="397" text-anchor="end" font-family="'JetBrains Mono','Cascadia Mono','Consolas',monospace" font-size="12" fill="#e0e0e0">0.3</text>
</g>
<text x="8" y="418" font-family="'JetBrains Mono','Cascadia Mono','Consolas',monospace" font-size="12" fill="#a0a0a0">octaves</text>
<g>
<rect x="120" y="412" width="72" height="4" rx="2" fill="#cfd2d6" opacity="0.85"/>
<rect x="120" y="412" width="43.2" height="4" rx="2" fill="#d633ff"/>
<circle cx="163.2" cy="414" r="5" fill="#d633ff"/>
<text x="232" y="418" text-anchor="end" font-family="'JetBrains Mono','Cascadia Mono','Consolas',monospace" font-size="12" fill="#e0e0e0">4</text>
</g>
<text x="8" y="439" font-family="'JetBrains Mono','Cascadia Mono','Consolas',monospace" font-size="12" fill="#a0a0a0">palette</text>
<g>
<rect x="148" y="427" width="84" height="16" rx="4" fill="#0d0f12" stroke="rgba(255,255,255,0.12)"/>
<text x="152" y="439" font-family="'JetBrains Mono','Cascadia Mono','Consolas',monospace" font-size="11" fill="#e0e0e0">forest</text>
<text x="228" y="439" text-anchor="end" font-size="8" fill="#a0a0a0">▾</text>
</g>
<text x="8" y="460" font-family="'JetBrains Mono','Cascadia Mono','Consolas',monospace" font-size="12" fill="#a0a0a0">seed</text>
<g>
<rect x="120" y="454" width="72" height="4" rx="2" fill="#cfd2d6" opacity="0.85"/>
<rect x="120" y="454" width="0.0" height="4" rx="2" fill="#d633ff"/>
<circle cx="120.0" cy="456" r="5" fill="#d633ff"/>
<text x="232" y="460" text-anchor="end" font-family="'JetBrains Mono','Cascadia Mono','Consolas',monospace" font-size="12" fill="#e0e0e0">0</text>
</g>
<text x="8" y="481" font-family="'JetBrains Mono','Cascadia Mono','Consolas',monospace" font-size="12" fill="#a0a0a0">clamp inputs</text>
<g>
<rect x="220" y="471" width="12" height="12" rx="3" fill="#0d0f12" stroke="rgba(255,255,255,0.12)"/>
</g>
</g>
</svg>
