<svg xmlns="http://www.w3.org/2000/svg" viewBox="0 0 296 629" width="296" height="629" role="img" aria-label="Gabor Noise node">

<defs><filter id="shadow" x="-20%" y="-20%" width="140%" height="160%"><feDropShadow dx="0" dy="8" stdDeviation="9" flood-color="#000" flood-opacity="0.45"/></filter></defs>
<g transform="translate(28,24)">
<rect x="0" y="0" width="240" height="571" rx="8" fill="#1f242b" stroke="rgba(255,255,255,0.12)" filter="url(#shadow)"/>
<rect x="0" y="0" width="240" height="571" rx="8" fill="#1f242b" stroke="rgba(255,255,255,0.12)"/>
<path d="M0,32 L0,8 Q0,0 8,0 L232,0 Q240,0 240,8 L240,32 Z" fill="#33d6ff"/>
<text x="8" y="21" font-family="'Audiowide','Trebuchet MS','Arial Black',sans-serif" font-size="14" font-weight="600" fill="#000">Gabor Noise</text>
<rect x="154" y="10" width="25" height="12" rx="6" fill="rgba(0,0,0,0.14)" stroke="rgba(255,255,255,0.14)"/>
<text x="166.5" y="19" text-anchor="middle" font-family="'JetBrains Mono','Cascadia Mono','Consolas',monospace" font-size="8" letter-spacing="0.08em" fill="#000">PAT</text>
<rect x="185" y="10" width="47" height="12" rx="6" fill="rgba(0,0,0,0.14)" stroke="rgba(255,255,255,0.14)"/>
<text x="208.5" y="19" text-anchor="middle" font-family="'JetBrains Mono','Cascadia Mono','Consolas',monospace" font-size="8" letter-spacing="0.08em" fill="#000">GAB-955</text>
<rect x="8" y="40" width="224" height="224" rx="4" fill="#05070a"/>
<circle cx="15" cy="47" r="7" fill="rgb(67,187,233)" opacity="0.35"/>
<circle cx="15" cy="47" r="5.0" fill="rgb(67,187,233)"/>
<circle cx="29" cy="47" r="7" fill="rgb(8,65,139)" opacity="0.35"/>
<circle cx="29" cy="47" r="5.0" fill="rgb(8,65,139)"/>
<circle cx="43" cy="47" r="7" fill="rgb(14,141,208)" opacity="0.35"/>
<circle cx="43" cy="47" r="5.0" fill="rgb(14,141,208)"/>
<circle cx="57" cy="47" r="7" fill="rgb(70,190,234)" opacity="0.35"/>
<circle cx="57" cy="47" r="5.0" fill="rgb(70,190,234)"/>
<circle cx="71" cy="47" r="7" fill="rgb(7,57,122)" opacity="0.35"/>
<circle cx="71" cy="47" r="5.0" fill="rgb(7,57,122)"/>
<circle cx="85" cy="47" r="7" fill="rgb(12,113,188)" opacity="0.35"/>
<circle cx="85" cy="47" r="5.0" fill="rgb(12,113,188)"/>
<circle cx="99" cy="47" r="7" fill="rgb(69,189,234)" opacity="0.35"/>
<circle cx="99" cy="47" r="5.0" fill="rgb(69,189,234)"/>
<circle cx="113" cy="47" r="7" fill="rgb(12,103,180)" opacity="0.35"/>
<circle cx="113" cy="47" r="5.0" fill="rgb(12,103,180)"/>
<circle cx="127" cy="47" r="7" fill="rgb(44,169,223)" opacity="0.35"/>
<circle cx="127" cy="47" r="5.0" fill="rgb(44,169,223)"/>
<circle cx="141" cy="47" r="7" fill="rgb(4,36,82)" opacity="0.35"/>
<circle cx="141" cy="47" r="5.0" fill="rgb(4,36,82)"/>
<circle cx="155" cy="47" r="7" fill="rgb(161,227,250)" opacity="0.35"/>
<circle cx="155" cy="47" r="5.0" fill="rgb(161,227,250)"/>
<circle cx="169" cy="47" r="7" fill="rgb(6,51,111)" opacity="0.35"/>
<circle cx="169" cy="47" r="5.0" fill="rgb(6,51,111)"/>
<circle cx="183" cy="47" r="7" fill="rgb(13,128,198)" opacity="0.35"/>
<circle cx="183" cy="47" r="5.0" fill="rgb(13,128,198)"/>
<circle cx="197" cy="47" r="7" fill="rgb(6,52,114)" opacity="0.35"/>
<circle cx="197" cy="47" r="5.0" fill="rgb(6,52,114)"/>
<circle cx="211" cy="47" r="7" fill="rgb(156,225,249)" opacity="0.35"/>
<circle cx="211" cy="47" r="5.0" fill="rgb(156,225,249)"/>
<circle cx="225" cy="47" r="7" fill="rgb(6,47,104)" opacity="0.35"/>
<circle cx="225" cy="47" r="5.0" fill="rgb(6,47,104)"/>
<circle cx="15" cy="61" r="7" fill="rgb(6,47,103)" opacity="0.35"/>
<circle cx="15" cy="61" r="5.0" fill="rgb(6,47,103)"/>
<circle cx="29" cy="61" r="7" fill="rgb(57,179,229)" opacity="0.35"/>
<circle cx="29" cy="61" r="5.0" fill="rgb(57,179,229)"/>
<circle cx="43" cy="61" r="7" fill="rgb(48,172,225)" opacity="0.35"/>
<circle cx="43" cy="61" r="5.0" fill="rgb(48,172,225)"/>
<circle cx="57" cy="61" r="7" fill="rgb(8,64,137)" opacity="0.35"/>
<circle cx="57" cy="61" r="5.0" fill="rgb(8,64,137)"/>
<circle cx="71" cy="61" r="7" fill="rgb(60,182,230)" opacity="0.35"/>
<circle cx="71" cy="61" r="5.0" fill="rgb(60,182,230)"/>
<circle cx="85" cy="61" r="7" fill="rgb(36,162,220)" opacity="0.35"/>
<circle cx="85" cy="61" r="5.0" fill="rgb(36,162,220)"/>
<circle cx="99" cy="61" r="7" fill="rgb(12,103,181)" opacity="0.35"/>
<circle cx="99" cy="61" r="5.0" fill="rgb(12,103,181)"/>
<circle cx="113" cy="61" r="7" fill="rgb(87,204,242)" opacity="0.35"/>
<circle cx="113" cy="61" r="5.0" fill="rgb(87,204,242)"/>
<circle cx="127" cy="61" r="7" fill="rgb(129,217,246)" opacity="0.35"/>
<circle cx="127" cy="61" r="5.0" fill="rgb(129,217,246)"/>
<circle cx="141" cy="61" r="7" fill="rgb(197,237,253)" opacity="0.35"/>
<circle cx="141" cy="61" r="5.0" fill="rgb(197,237,253)"/>
<circle cx="155" cy="61" r="7" fill="rgb(20,149,213)" opacity="0.35"/>
<circle cx="155" cy="61" r="5.0" fill="rgb(20,149,213)"/>
<circle cx="169" cy="61" r="7" fill="rgb(43,168,223)" opacity="0.35"/>
<circle cx="169" cy="61" r="5.0" fill="rgb(43,168,223)"/>
<circle cx="183" cy="61" r="7" fill="rgb(210,241,254)" opacity="0.35"/>
<circle cx="183" cy="61" r="5.0" fill="rgb(210,241,254)"/>
<circle cx="197" cy="61" r="7" fill="rgb(158,226,249)" opacity="0.35"/>
<circle cx="197" cy="61" r="5.0" fill="rgb(158,226,249)"/>
<circle cx="211" cy="61" r="7" fill="rgb(11,95,175)" opacity="0.35"/>
<circle cx="211" cy="61" r="5.0" fill="rgb(11,95,175)"/>
<circle cx="225" cy="61" r="7" fill="rgb(9,69,147)" opacity="0.35"/>
<circle cx="225" cy="61" r="5.0" fill="rgb(9,69,147)"/>
<circle cx="15" cy="75" r="7" fill="rgb(27,154,216)" opacity="0.35"/>
<circle cx="15" cy="75" r="5.0" fill="rgb(27,154,216)"/>
<circle cx="29" cy="75" r="7" fill="rgb(44,169,223)" opacity="0.35"/>
<circle cx="29" cy="75" r="5.0" fill="rgb(44,169,223)"/>
<circle cx="43" cy="75" r="7" fill="rgb(8,66,140)" opacity="0.35"/>
<circle cx="43" cy="75" r="5.0" fill="rgb(8,66,140)"/>
<circle cx="57" cy="75" r="7" fill="rgb(62,183,231)" opacity="0.35"/>
<circle cx="57" cy="75" r="5.0" fill="rgb(62,183,231)"/>
<circle cx="71" cy="75" r="7" fill="rgb(54,177,227)" opacity="0.35"/>
<circle cx="71" cy="75" r="5.0" fill="rgb(54,177,227)"/>
<circle cx="85" cy="75" r="7" fill="rgb(10,82,166)" opacity="0.35"/>
<circle cx="85" cy="75" r="5.0" fill="rgb(10,82,166)"/>
<circle cx="99" cy="75" r="7" fill="rgb(172,230,251)" opacity="0.35"/>
<circle cx="99" cy="75" r="5.0" fill="rgb(172,230,251)"/>
<circle cx="113" cy="75" r="7" fill="rgb(13,133,202)" opacity="0.35"/>
<circle cx="113" cy="75" r="5.0" fill="rgb(13,133,202)"/>
<circle cx="127" cy="75" r="7" fill="rgb(7,56,120)" opacity="0.35"/>
<circle cx="127" cy="75" r="5.0" fill="rgb(7,56,120)"/>
<circle cx="141" cy="75" r="7" fill="rgb(12,112,187)" opacity="0.35"/>
<circle cx="141" cy="75" r="5.0" fill="rgb(12,112,187)"/>
<circle cx="155" cy="75" r="7" fill="rgb(87,204,242)" opacity="0.35"/>
<circle cx="155" cy="75" r="5.0" fill="rgb(87,204,242)"/>
<circle cx="169" cy="75" r="7" fill="rgb(12,103,181)" opacity="0.35"/>
<circle cx="169" cy="75" r="5.0" fill="rgb(12,103,181)"/>
<circle cx="183" cy="75" r="7" fill="rgb(155,225,249)" opacity="0.35"/>
<circle cx="183" cy="75" r="5.0" fill="rgb(155,225,249)"/>
<circle cx="197" cy="75" r="7" fill="rgb(13,126,197)" opacity="0.35"/>
<circle cx="197" cy="75" r="5.0" fill="rgb(13,126,197)"/>
<circle cx="211" cy="75" r="7" fill="rgb(9,71,150)" opacity="0.35"/>
<circle cx="211" cy="75" r="5.0" fill="rgb(9,71,150)"/>
<circle cx="225" cy="75" r="7" fill="rgb(142,221,248)" opacity="0.35"/>
<circle cx="225" cy="75" r="5.0" fill="rgb(142,221,248)"/>
<circle cx="15" cy="89" r="7" fill="rgb(22,150,213)" opacity="0.35"/>
<circle cx="15" cy="89" r="5.0" fill="rgb(22,150,213)"/>
<circle cx="29" cy="89" r="7" fill="rgb(8,63,134)" opacity="0.35"/>
<circle cx="29" cy="89" r="5.0" fill="rgb(8,63,134)"/>
<circle cx="43" cy="89" r="7" fill="rgb(84,202,241)" opacity="0.35"/>
<circle cx="43" cy="89" r="5.0" fill="rgb(84,202,241)"/>
<circle cx="57" cy="89" r="7" fill="rgb(79,198,239)" opacity="0.35"/>
<circle cx="57" cy="89" r="5.0" fill="rgb(79,198,239)"/>
<circle cx="71" cy="89" r="7" fill="rgb(10,75,158)" opacity="0.35"/>
<circle cx="71" cy="89" r="5.0" fill="rgb(10,75,158)"/>
<circle cx="85" cy="89" r="7" fill="rgb(136,219,247)" opacity="0.35"/>
<circle cx="85" cy="89" r="5.0" fill="rgb(136,219,247)"/>
<circle cx="99" cy="89" r="7" fill="rgb(12,110,186)" opacity="0.35"/>
<circle cx="99" cy="89" r="5.0" fill="rgb(12,110,186)"/>
<circle cx="113" cy="89" r="7" fill="rgb(8,62,133)" opacity="0.35"/>
<circle cx="113" cy="89" r="5.0" fill="rgb(8,62,133)"/>
<circle cx="127" cy="89" r="7" fill="rgb(58,180,229)" opacity="0.35"/>
<circle cx="127" cy="89" r="5.0" fill="rgb(58,180,229)"/>
<circle cx="141" cy="89" r="7" fill="rgb(112,212,245)" opacity="0.35"/>
<circle cx="141" cy="89" r="5.0" fill="rgb(112,212,245)"/>
<circle cx="155" cy="89" r="7" fill="rgb(13,132,201)" opacity="0.35"/>
<circle cx="155" cy="89" r="5.0" fill="rgb(13,132,201)"/>
<circle cx="169" cy="89" r="7" fill="rgb(126,216,246)" opacity="0.35"/>
<circle cx="169" cy="89" r="5.0" fill="rgb(126,216,246)"/>
<circle cx="183" cy="89" r="7" fill="rgb(9,69,147)" opacity="0.35"/>
<circle cx="183" cy="89" r="5.0" fill="rgb(9,69,147)"/>
<circle cx="197" cy="89" r="7" fill="rgb(9,69,146)" opacity="0.35"/>
<circle cx="197" cy="89" r="5.0" fill="rgb(9,69,146)"/>
<circle cx="211" cy="89" r="7" fill="rgb(125,215,246)" opacity="0.35"/>
<circle cx="211" cy="89" r="5.0" fill="rgb(125,215,246)"/>
<circle cx="225" cy="89" r="7" fill="rgb(13,130,200)" opacity="0.35"/>
<circle cx="225" cy="89" r="5.0" fill="rgb(13,130,200)"/>
<circle cx="15" cy="103" r="7" fill="rgb(9,68,145)" opacity="0.35"/>
<circle cx="15" cy="103" r="5.0" fill="rgb(9,68,145)"/>
<circle cx="29" cy="103" r="7" fill="rgb(81,199,240)" opacity="0.35"/>
<circle cx="29" cy="103" r="5.0" fill="rgb(81,199,240)"/>
<circle cx="43" cy="103" r="7" fill="rgb(122,215,246)" opacity="0.35"/>
<circle cx="43" cy="103" r="5.0" fill="rgb(122,215,246)"/>
<circle cx="57" cy="103" r="7" fill="rgb(5,44,97)" opacity="0.35"/>
<circle cx="57" cy="103" r="5.0" fill="rgb(5,44,97)"/>
<circle cx="71" cy="103" r="7" fill="rgb(138,219,247)" opacity="0.35"/>
<circle cx="71" cy="103" r="5.0" fill="rgb(138,219,247)"/>
<circle cx="85" cy="103" r="7" fill="rgb(12,109,185)" opacity="0.35"/>
<circle cx="85" cy="103" r="5.0" fill="rgb(12,109,185)"/>
<circle cx="99" cy="103" r="7" fill="rgb(7,60,128)" opacity="0.35"/>
<circle cx="99" cy="103" r="5.0" fill="rgb(7,60,128)"/>
<circle cx="113" cy="103" r="7" fill="rgb(108,210,244)" opacity="0.35"/>
<circle cx="113" cy="103" r="5.0" fill="rgb(108,210,244)"/>
<circle cx="127" cy="103" r="7" fill="rgb(117,213,245)" opacity="0.35"/>
<circle cx="127" cy="103" r="5.0" fill="rgb(117,213,245)"/>
<circle cx="141" cy="103" r="7" fill="rgb(6,49,108)" opacity="0.35"/>
<circle cx="141" cy="103" r="5.0" fill="rgb(6,49,108)"/>
<circle cx="155" cy="103" r="7" fill="rgb(57,180,229)" opacity="0.35"/>
<circle cx="155" cy="103" r="5.0" fill="rgb(57,180,229)"/>
<circle cx="169" cy="103" r="7" fill="rgb(9,68,144)" opacity="0.35"/>
<circle cx="169" cy="103" r="5.0" fill="rgb(9,68,144)"/>
<circle cx="183" cy="103" r="7" fill="rgb(11,95,175)" opacity="0.35"/>
<circle cx="183" cy="103" r="5.0" fill="rgb(11,95,175)"/>
<circle cx="197" cy="103" r="7" fill="rgb(154,224,249)" opacity="0.35"/>
<circle cx="197" cy="103" r="5.0" fill="rgb(154,224,249)"/>
<circle cx="211" cy="103" r="7" fill="rgb(28,155,216)" opacity="0.35"/>
<circle cx="211" cy="103" r="5.0" fill="rgb(28,155,216)"/>
<circle cx="225" cy="103" r="7" fill="rgb(12,105,182)" opacity="0.35"/>
<circle cx="225" cy="103" r="5.0" fill="rgb(12,105,182)"/>
<circle cx="15" cy="117" r="7" fill="rgb(99,208,243)" opacity="0.35"/>
<circle cx="15" cy="117" r="5.0" fill="rgb(99,208,243)"/>
<circle cx="29" cy="117" r="7" fill="rgb(84,201,241)" opacity="0.35"/>
<circle cx="29" cy="117" r="5.0" fill="rgb(84,201,241)"/>
<circle cx="43" cy="117" r="7" fill="rgb(4,37,84)" opacity="0.35"/>
<circle cx="43" cy="117" r="5.0" fill="rgb(4,37,84)"/>
<circle cx="57" cy="117" r="7" fill="rgb(69,189,234)" opacity="0.35"/>
<circle cx="57" cy="117" r="5.0" fill="rgb(69,189,234)"/>
<circle cx="71" cy="117" r="7" fill="rgb(14,142,209)" opacity="0.35"/>
<circle cx="71" cy="117" r="5.0" fill="rgb(14,142,209)"/>
<circle cx="85" cy="117" r="7" fill="rgb(200,238,253)" opacity="0.35"/>
<circle cx="85" cy="117" r="5.0" fill="rgb(200,238,253)"/>
<circle cx="99" cy="117" r="7" fill="rgb(183,233,252)" opacity="0.35"/>
<circle cx="99" cy="117" r="5.0" fill="rgb(183,233,252)"/>
<circle cx="113" cy="117" r="7" fill="rgb(36,162,220)" opacity="0.35"/>
<circle cx="113" cy="117" r="5.0" fill="rgb(36,162,220)"/>
<circle cx="127" cy="117" r="7" fill="rgb(207,240,254)" opacity="0.35"/>
<circle cx="127" cy="117" r="5.0" fill="rgb(207,240,254)"/>
<circle cx="141" cy="117" r="7" fill="rgb(65,186,233)" opacity="0.35"/>
<circle cx="141" cy="117" r="5.0" fill="rgb(65,186,233)"/>
<circle cx="155" cy="117" r="7" fill="rgb(33,160,218)" opacity="0.35"/>
<circle cx="155" cy="117" r="5.0" fill="rgb(33,160,218)"/>
<circle cx="169" cy="117" r="7" fill="rgb(12,107,183)" opacity="0.35"/>
<circle cx="169" cy="117" r="5.0" fill="rgb(12,107,183)"/>
<circle cx="183" cy="117" r="7" fill="rgb(166,228,250)" opacity="0.35"/>
<circle cx="183" cy="117" r="5.0" fill="rgb(166,228,250)"/>
<circle cx="197" cy="117" r="7" fill="rgb(12,115,189)" opacity="0.35"/>
<circle cx="197" cy="117" r="5.0" fill="rgb(12,115,189)"/>
<circle cx="211" cy="117" r="7" fill="rgb(13,121,193)" opacity="0.35"/>
<circle cx="211" cy="117" r="5.0" fill="rgb(13,121,193)"/>
<circle cx="225" cy="117" r="7" fill="rgb(136,219,247)" opacity="0.35"/>
<circle cx="225" cy="117" r="5.0" fill="rgb(136,219,247)"/>
<circle cx="15" cy="131" r="7" fill="rgb(120,214,245)" opacity="0.35"/>
<circle cx="15" cy="131" r="5.0" fill="rgb(120,214,245)"/>
<circle cx="29" cy="131" r="7" fill="rgb(215,243,255)" opacity="0.35"/>
<circle cx="29" cy="131" r="5.0" fill="rgb(215,243,255)"/>
<circle cx="43" cy="131" r="7" fill="rgb(35,162,219)" opacity="0.35"/>
<circle cx="43" cy="131" r="5.0" fill="rgb(35,162,219)"/>
<circle cx="57" cy="131" r="7" fill="rgb(86,203,242)" opacity="0.35"/>
<circle cx="57" cy="131" r="5.0" fill="rgb(86,203,242)"/>
<circle cx="71" cy="131" r="7" fill="rgb(4,37,83)" opacity="0.35"/>
<circle cx="71" cy="131" r="5.0" fill="rgb(4,37,83)"/>
<circle cx="85" cy="131" r="7" fill="rgb(153,224,249)" opacity="0.35"/>
<circle cx="85" cy="131" r="5.0" fill="rgb(153,224,249)"/>
<circle cx="99" cy="131" r="7" fill="rgb(75,194,237)" opacity="0.35"/>
<circle cx="99" cy="131" r="5.0" fill="rgb(75,194,237)"/>
<circle cx="113" cy="131" r="7" fill="rgb(210,241,254)" opacity="0.35"/>
<circle cx="113" cy="131" r="5.0" fill="rgb(210,241,254)"/>
<circle cx="127" cy="131" r="7" fill="rgb(211,241,254)" opacity="0.35"/>
<circle cx="127" cy="131" r="5.0" fill="rgb(211,241,254)"/>
<circle cx="141" cy="131" r="7" fill="rgb(64,185,232)" opacity="0.35"/>
<circle cx="141" cy="131" r="5.0" fill="rgb(64,185,232)"/>
<circle cx="155" cy="131" r="7" fill="rgb(5,42,94)" opacity="0.35"/>
<circle cx="155" cy="131" r="5.0" fill="rgb(5,42,94)"/>
<circle cx="169" cy="131" r="7" fill="rgb(153,224,249)" opacity="0.35"/>
<circle cx="169" cy="131" r="5.0" fill="rgb(153,224,249)"/>
<circle cx="183" cy="131" r="7" fill="rgb(9,68,145)" opacity="0.35"/>
<circle cx="183" cy="131" r="5.0" fill="rgb(9,68,145)"/>
<circle cx="197" cy="131" r="7" fill="rgb(13,124,196)" opacity="0.35"/>
<circle cx="197" cy="131" r="5.0" fill="rgb(13,124,196)"/>
<circle cx="211" cy="131" r="7" fill="rgb(73,192,236)" opacity="0.35"/>
<circle cx="211" cy="131" r="5.0" fill="rgb(73,192,236)"/>
<circle cx="225" cy="131" r="7" fill="rgb(4,37,83)" opacity="0.35"/>
<circle cx="225" cy="131" r="5.0" fill="rgb(4,37,83)"/>
<circle cx="15" cy="145" r="7" fill="rgb(5,46,100)" opacity="0.35"/>
<circle cx="15" cy="145" r="5.0" fill="rgb(5,46,100)"/>
<circle cx="29" cy="145" r="7" fill="rgb(23,151,214)" opacity="0.35"/>
<circle cx="29" cy="145" r="5.0" fill="rgb(23,151,214)"/>
<circle cx="43" cy="145" r="7" fill="rgb(174,230,251)" opacity="0.35"/>
<circle cx="43" cy="145" r="5.0" fill="rgb(174,230,251)"/>
<circle cx="57" cy="145" r="7" fill="rgb(10,75,158)" opacity="0.35"/>
<circle cx="57" cy="145" r="5.0" fill="rgb(10,75,158)"/>
<circle cx="71" cy="145" r="7" fill="rgb(39,165,221)" opacity="0.35"/>
<circle cx="71" cy="145" r="5.0" fill="rgb(39,165,221)"/>
<circle cx="85" cy="145" r="7" fill="rgb(170,229,250)" opacity="0.35"/>
<circle cx="85" cy="145" r="5.0" fill="rgb(170,229,250)"/>
<circle cx="99" cy="145" r="7" fill="rgb(3,30,71)" opacity="0.35"/>
<circle cx="99" cy="145" r="5.0" fill="rgb(3,30,71)"/>
<circle cx="113" cy="145" r="7" fill="rgb(146,222,248)" opacity="0.35"/>
<circle cx="113" cy="145" r="5.0" fill="rgb(146,222,248)"/>
<circle cx="127" cy="145" r="7" fill="rgb(14,143,209)" opacity="0.35"/>
<circle cx="127" cy="145" r="5.0" fill="rgb(14,143,209)"/>
<circle cx="141" cy="145" r="7" fill="rgb(157,225,249)" opacity="0.35"/>
<circle cx="141" cy="145" r="5.0" fill="rgb(157,225,249)"/>
<circle cx="155" cy="145" r="7" fill="rgb(141,220,247)" opacity="0.35"/>
<circle cx="155" cy="145" r="5.0" fill="rgb(141,220,247)"/>
<circle cx="169" cy="145" r="7" fill="rgb(14,139,207)" opacity="0.35"/>
<circle cx="169" cy="145" r="5.0" fill="rgb(14,139,207)"/>
<circle cx="183" cy="145" r="7" fill="rgb(11,101,179)" opacity="0.35"/>
<circle cx="183" cy="145" r="5.0" fill="rgb(11,101,179)"/>
<circle cx="197" cy="145" r="7" fill="rgb(139,220,247)" opacity="0.35"/>
<circle cx="197" cy="145" r="5.0" fill="rgb(139,220,247)"/>
<circle cx="211" cy="145" r="7" fill="rgb(8,64,136)" opacity="0.35"/>
<circle cx="211" cy="145" r="5.0" fill="rgb(8,64,136)"/>
<circle cx="225" cy="145" r="7" fill="rgb(55,178,228)" opacity="0.35"/>
<circle cx="225" cy="145" r="5.0" fill="rgb(55,178,228)"/>
<circle cx="15" cy="159" r="7" fill="rgb(14,140,207)" opacity="0.35"/>
<circle cx="15" cy="159" r="5.0" fill="rgb(14,140,207)"/>
<circle cx="29" cy="159" r="7" fill="rgb(69,189,234)" opacity="0.35"/>
<circle cx="29" cy="159" r="5.0" fill="rgb(69,189,234)"/>
<circle cx="43" cy="159" r="7" fill="rgb(13,123,195)" opacity="0.35"/>
<circle cx="43" cy="159" r="5.0" fill="rgb(13,123,195)"/>
<circle cx="57" cy="159" r="7" fill="rgb(13,126,197)" opacity="0.35"/>
<circle cx="57" cy="159" r="5.0" fill="rgb(13,126,197)"/>
<circle cx="71" cy="159" r="7" fill="rgb(44,169,223)" opacity="0.35"/>
<circle cx="71" cy="159" r="5.0" fill="rgb(44,169,223)"/>
<circle cx="85" cy="159" r="7" fill="rgb(11,89,170)" opacity="0.35"/>
<circle cx="85" cy="159" r="5.0" fill="rgb(11,89,170)"/>
<circle cx="99" cy="159" r="7" fill="rgb(14,142,209)" opacity="0.35"/>
<circle cx="99" cy="159" r="5.0" fill="rgb(14,142,209)"/>
<circle cx="113" cy="159" r="7" fill="rgb(13,127,198)" opacity="0.35"/>
<circle cx="113" cy="159" r="5.0" fill="rgb(13,127,198)"/>
<circle cx="127" cy="159" r="7" fill="rgb(9,69,147)" opacity="0.35"/>
<circle cx="127" cy="159" r="5.0" fill="rgb(9,69,147)"/>
<circle cx="141" cy="159" r="7" fill="rgb(6,48,106)" opacity="0.35"/>
<circle cx="141" cy="159" r="5.0" fill="rgb(6,48,106)"/>
<circle cx="155" cy="159" r="7" fill="rgb(41,166,222)" opacity="0.35"/>
<circle cx="155" cy="159" r="5.0" fill="rgb(41,166,222)"/>
<circle cx="169" cy="159" r="7" fill="rgb(11,97,176)" opacity="0.35"/>
<circle cx="169" cy="159" r="5.0" fill="rgb(11,97,176)"/>
<circle cx="183" cy="159" r="7" fill="rgb(94,206,243)" opacity="0.35"/>
<circle cx="183" cy="159" r="5.0" fill="rgb(94,206,243)"/>
<circle cx="197" cy="159" r="7" fill="rgb(6,52,113)" opacity="0.35"/>
<circle cx="197" cy="159" r="5.0" fill="rgb(6,52,113)"/>
<circle cx="211" cy="159" r="7" fill="rgb(41,166,222)" opacity="0.35"/>
<circle cx="211" cy="159" r="5.0" fill="rgb(41,166,222)"/>
<circle cx="225" cy="159" r="7" fill="rgb(26,154,215)" opacity="0.35"/>
<circle cx="225" cy="159" r="5.0" fill="rgb(26,154,215)"/>
<circle cx="15" cy="173" r="7" fill="rgb(13,134,203)" opacity="0.35"/>
<circle cx="15" cy="173" r="5.0" fill="rgb(13,134,203)"/>
<circle cx="29" cy="173" r="7" fill="rgb(39,165,221)" opacity="0.35"/>
<circle cx="29" cy="173" r="5.0" fill="rgb(39,165,221)"/>
<circle cx="43" cy="173" r="7" fill="rgb(37,163,220)" opacity="0.35"/>
<circle cx="43" cy="173" r="5.0" fill="rgb(37,163,220)"/>
<circle cx="57" cy="173" r="7" fill="rgb(8,61,130)" opacity="0.35"/>
<circle cx="57" cy="173" r="5.0" fill="rgb(8,61,130)"/>
<circle cx="71" cy="173" r="7" fill="rgb(82,200,240)" opacity="0.35"/>
<circle cx="71" cy="173" r="5.0" fill="rgb(82,200,240)"/>
<circle cx="85" cy="173" r="7" fill="rgb(24,152,214)" opacity="0.35"/>
<circle cx="85" cy="173" r="5.0" fill="rgb(24,152,214)"/>
<circle cx="99" cy="173" r="7" fill="rgb(13,125,196)" opacity="0.35"/>
<circle cx="99" cy="173" r="5.0" fill="rgb(13,125,196)"/>
<circle cx="113" cy="173" r="7" fill="rgb(14,136,204)" opacity="0.35"/>
<circle cx="113" cy="173" r="5.0" fill="rgb(14,136,204)"/>
<circle cx="127" cy="173" r="7" fill="rgb(9,69,147)" opacity="0.35"/>
<circle cx="127" cy="173" r="5.0" fill="rgb(9,69,147)"/>
<circle cx="141" cy="173" r="7" fill="rgb(9,67,143)" opacity="0.35"/>
<circle cx="141" cy="173" r="5.0" fill="rgb(9,67,143)"/>
<circle cx="155" cy="173" r="7" fill="rgb(6,51,112)" opacity="0.35"/>
<circle cx="155" cy="173" r="5.0" fill="rgb(6,51,112)"/>
<circle cx="169" cy="173" r="7" fill="rgb(58,180,229)" opacity="0.35"/>
<circle cx="169" cy="173" r="5.0" fill="rgb(58,180,229)"/>
<circle cx="183" cy="173" r="7" fill="rgb(5,44,98)" opacity="0.35"/>
<circle cx="183" cy="173" r="5.0" fill="rgb(5,44,98)"/>
<circle cx="197" cy="173" r="7" fill="rgb(71,191,235)" opacity="0.35"/>
<circle cx="197" cy="173" r="5.0" fill="rgb(71,191,235)"/>
<circle cx="211" cy="173" r="7" fill="rgb(72,192,236)" opacity="0.35"/>
<circle cx="211" cy="173" r="5.0" fill="rgb(72,192,236)"/>
<circle cx="225" cy="173" r="7" fill="rgb(11,99,178)" opacity="0.35"/>
<circle cx="225" cy="173" r="5.0" fill="rgb(11,99,178)"/>
<circle cx="15" cy="187" r="7" fill="rgb(11,88,170)" opacity="0.35"/>
<circle cx="15" cy="187" r="5.0" fill="rgb(11,88,170)"/>
<circle cx="29" cy="187" r="7" fill="rgb(107,210,244)" opacity="0.35"/>
<circle cx="29" cy="187" r="5.0" fill="rgb(107,210,244)"/>
<circle cx="43" cy="187" r="7" fill="rgb(204,239,254)" opacity="0.35"/>
<circle cx="43" cy="187" r="5.0" fill="rgb(204,239,254)"/>
<circle cx="57" cy="187" r="7" fill="rgb(133,218,247)" opacity="0.35"/>
<circle cx="57" cy="187" r="5.0" fill="rgb(133,218,247)"/>
<circle cx="71" cy="187" r="7" fill="rgb(91,205,242)" opacity="0.35"/>
<circle cx="71" cy="187" r="5.0" fill="rgb(91,205,242)"/>
<circle cx="85" cy="187" r="7" fill="rgb(7,54,116)" opacity="0.35"/>
<circle cx="85" cy="187" r="5.0" fill="rgb(7,54,116)"/>
<circle cx="99" cy="187" r="7" fill="rgb(14,144,210)" opacity="0.35"/>
<circle cx="99" cy="187" r="5.0" fill="rgb(14,144,210)"/>
<circle cx="113" cy="187" r="7" fill="rgb(150,223,248)" opacity="0.35"/>
<circle cx="113" cy="187" r="5.0" fill="rgb(150,223,248)"/>
<circle cx="127" cy="187" r="7" fill="rgb(8,63,134)" opacity="0.35"/>
<circle cx="127" cy="187" r="5.0" fill="rgb(8,63,134)"/>
<circle cx="141" cy="187" r="7" fill="rgb(207,240,254)" opacity="0.35"/>
<circle cx="141" cy="187" r="5.0" fill="rgb(207,240,254)"/>
<circle cx="155" cy="187" r="7" fill="rgb(125,215,246)" opacity="0.35"/>
<circle cx="155" cy="187" r="5.0" fill="rgb(125,215,246)"/>
<circle cx="169" cy="187" r="7" fill="rgb(12,105,182)" opacity="0.35"/>
<circle cx="169" cy="187" r="5.0" fill="rgb(12,105,182)"/>
<circle cx="183" cy="187" r="7" fill="rgb(113,212,245)" opacity="0.35"/>
<circle cx="183" cy="187" r="5.0" fill="rgb(113,212,245)"/>
<circle cx="197" cy="187" r="7" fill="rgb(84,201,241)" opacity="0.35"/>
<circle cx="197" cy="187" r="5.0" fill="rgb(84,201,241)"/>
<circle cx="211" cy="187" r="7" fill="rgb(10,76,160)" opacity="0.35"/>
<circle cx="211" cy="187" r="5.0" fill="rgb(10,76,160)"/>
<circle cx="225" cy="187" r="7" fill="rgb(49,173,225)" opacity="0.35"/>
<circle cx="225" cy="187" r="5.0" fill="rgb(49,173,225)"/>
<circle cx="15" cy="201" r="7" fill="rgb(115,212,245)" opacity="0.35"/>
<circle cx="15" cy="201" r="5.0" fill="rgb(115,212,245)"/>
<circle cx="29" cy="201" r="7" fill="rgb(12,108,184)" opacity="0.35"/>
<circle cx="29" cy="201" r="5.0" fill="rgb(12,108,184)"/>
<circle cx="43" cy="201" r="7" fill="rgb(26,154,215)" opacity="0.35"/>
<circle cx="43" cy="201" r="5.0" fill="rgb(26,154,215)"/>
<circle cx="57" cy="201" r="7" fill="rgb(140,220,247)" opacity="0.35"/>
<circle cx="57" cy="201" r="5.0" fill="rgb(140,220,247)"/>
<circle cx="71" cy="201" r="7" fill="rgb(206,240,254)" opacity="0.35"/>
<circle cx="71" cy="201" r="5.0" fill="rgb(206,240,254)"/>
<circle cx="85" cy="201" r="7" fill="rgb(13,134,203)" opacity="0.35"/>
<circle cx="85" cy="201" r="5.0" fill="rgb(13,134,203)"/>
<circle cx="99" cy="201" r="7" fill="rgb(155,224,249)" opacity="0.35"/>
<circle cx="99" cy="201" r="5.0" fill="rgb(155,224,249)"/>
<circle cx="113" cy="201" r="7" fill="rgb(12,108,184)" opacity="0.35"/>
<circle cx="113" cy="201" r="5.0" fill="rgb(12,108,184)"/>
<circle cx="127" cy="201" r="7" fill="rgb(10,79,163)" opacity="0.35"/>
<circle cx="127" cy="201" r="5.0" fill="rgb(10,79,163)"/>
<circle cx="141" cy="201" r="7" fill="rgb(110,211,244)" opacity="0.35"/>
<circle cx="141" cy="201" r="5.0" fill="rgb(110,211,244)"/>
<circle cx="155" cy="201" r="7" fill="rgb(14,139,206)" opacity="0.35"/>
<circle cx="155" cy="201" r="5.0" fill="rgb(14,139,206)"/>
<circle cx="169" cy="201" r="7" fill="rgb(84,202,241)" opacity="0.35"/>
<circle cx="169" cy="201" r="5.0" fill="rgb(84,202,241)"/>
<circle cx="183" cy="201" r="7" fill="rgb(15,145,211)" opacity="0.35"/>
<circle cx="183" cy="201" r="5.0" fill="rgb(15,145,211)"/>
<circle cx="197" cy="201" r="7" fill="rgb(5,44,96)" opacity="0.35"/>
<circle cx="197" cy="201" r="5.0" fill="rgb(5,44,96)"/>
<circle cx="211" cy="201" r="7" fill="rgb(54,177,228)" opacity="0.35"/>
<circle cx="211" cy="201" r="5.0" fill="rgb(54,177,228)"/>
<circle cx="225" cy="201" r="7" fill="rgb(22,150,213)" opacity="0.35"/>
<circle cx="225" cy="201" r="5.0" fill="rgb(22,150,213)"/>
<circle cx="15" cy="215" r="7" fill="rgb(55,178,228)" opacity="0.35"/>
<circle cx="15" cy="215" r="5.0" fill="rgb(55,178,228)"/>
<circle cx="29" cy="215" r="7" fill="rgb(10,84,167)" opacity="0.35"/>
<circle cx="29" cy="215" r="5.0" fill="rgb(10,84,167)"/>
<circle cx="43" cy="215" r="7" fill="rgb(100,208,243)" opacity="0.35"/>
<circle cx="43" cy="215" r="5.0" fill="rgb(100,208,243)"/>
<circle cx="57" cy="215" r="7" fill="rgb(7,56,120)" opacity="0.35"/>
<circle cx="57" cy="215" r="5.0" fill="rgb(7,56,120)"/>
<circle cx="71" cy="215" r="7" fill="rgb(12,112,187)" opacity="0.35"/>
<circle cx="71" cy="215" r="5.0" fill="rgb(12,112,187)"/>
<circle cx="85" cy="215" r="7" fill="rgb(5,43,96)" opacity="0.35"/>
<circle cx="85" cy="215" r="5.0" fill="rgb(5,43,96)"/>
<circle cx="99" cy="215" r="7" fill="rgb(12,110,186)" opacity="0.35"/>
<circle cx="99" cy="215" r="5.0" fill="rgb(12,110,186)"/>
<circle cx="113" cy="215" r="7" fill="rgb(10,79,163)" opacity="0.35"/>
<circle cx="113" cy="215" r="5.0" fill="rgb(10,79,163)"/>
<circle cx="127" cy="215" r="7" fill="rgb(56,179,229)" opacity="0.35"/>
<circle cx="127" cy="215" r="5.0" fill="rgb(56,179,229)"/>
<circle cx="141" cy="215" r="7" fill="rgb(11,86,168)" opacity="0.35"/>
<circle cx="141" cy="215" r="5.0" fill="rgb(11,86,168)"/>
<circle cx="155" cy="215" r="7" fill="rgb(65,186,232)" opacity="0.35"/>
<circle cx="155" cy="215" r="5.0" fill="rgb(65,186,232)"/>
<circle cx="169" cy="215" r="7" fill="rgb(14,138,206)" opacity="0.35"/>
<circle cx="169" cy="215" r="5.0" fill="rgb(14,138,206)"/>
<circle cx="183" cy="215" r="7" fill="rgb(3,32,75)" opacity="0.35"/>
<circle cx="183" cy="215" r="5.0" fill="rgb(3,32,75)"/>
<circle cx="197" cy="215" r="7" fill="rgb(145,221,248)" opacity="0.35"/>
<circle cx="197" cy="215" r="5.0" fill="rgb(145,221,248)"/>
<circle cx="211" cy="215" r="7" fill="rgb(38,163,220)" opacity="0.35"/>
<circle cx="211" cy="215" r="5.0" fill="rgb(38,163,220)"/>
<circle cx="225" cy="215" r="7" fill="rgb(10,81,165)" opacity="0.35"/>
<circle cx="225" cy="215" r="5.0" fill="rgb(10,81,165)"/>
<circle cx="15" cy="229" r="7" fill="rgb(9,72,152)" opacity="0.35"/>
<circle cx="15" cy="229" r="5.0" fill="rgb(9,72,152)"/>
<circle cx="29" cy="229" r="7" fill="rgb(109,211,244)" opacity="0.35"/>
<circle cx="29" cy="229" r="5.0" fill="rgb(109,211,244)"/>
<circle cx="43" cy="229" r="7" fill="rgb(12,103,180)" opacity="0.35"/>
<circle cx="43" cy="229" r="5.0" fill="rgb(12,103,180)"/>
<circle cx="57" cy="229" r="7" fill="rgb(10,77,161)" opacity="0.35"/>
<circle cx="57" cy="229" r="5.0" fill="rgb(10,77,161)"/>
<circle cx="71" cy="229" r="7" fill="rgb(8,63,134)" opacity="0.35"/>
<circle cx="71" cy="229" r="5.0" fill="rgb(8,63,134)"/>
<circle cx="85" cy="229" r="7" fill="rgb(12,105,182)" opacity="0.35"/>
<circle cx="85" cy="229" r="5.0" fill="rgb(12,105,182)"/>
<circle cx="99" cy="229" r="7" fill="rgb(5,41,91)" opacity="0.35"/>
<circle cx="99" cy="229" r="5.0" fill="rgb(5,41,91)"/>
<circle cx="113" cy="229" r="7" fill="rgb(79,198,239)" opacity="0.35"/>
<circle cx="113" cy="229" r="5.0" fill="rgb(79,198,239)"/>
<circle cx="127" cy="229" r="7" fill="rgb(9,70,149)" opacity="0.35"/>
<circle cx="127" cy="229" r="5.0" fill="rgb(9,70,149)"/>
<circle cx="141" cy="229" r="7" fill="rgb(101,208,243)" opacity="0.35"/>
<circle cx="141" cy="229" r="5.0" fill="rgb(101,208,243)"/>
<circle cx="155" cy="229" r="7" fill="rgb(67,188,233)" opacity="0.35"/>
<circle cx="155" cy="229" r="5.0" fill="rgb(67,188,233)"/>
<circle cx="169" cy="229" r="7" fill="rgb(7,54,118)" opacity="0.35"/>
<circle cx="169" cy="229" r="5.0" fill="rgb(7,54,118)"/>
<circle cx="183" cy="229" r="7" fill="rgb(120,214,245)" opacity="0.35"/>
<circle cx="183" cy="229" r="5.0" fill="rgb(120,214,245)"/>
<circle cx="197" cy="229" r="7" fill="rgb(58,181,230)" opacity="0.35"/>
<circle cx="197" cy="229" r="5.0" fill="rgb(58,181,230)"/>
<circle cx="211" cy="229" r="7" fill="rgb(4,37,83)" opacity="0.35"/>
<circle cx="211" cy="229" r="5.0" fill="rgb(4,37,83)"/>
<circle cx="225" cy="229" r="7" fill="rgb(112,211,244)" opacity="0.35"/>
<circle cx="225" cy="229" r="5.0" fill="rgb(112,211,244)"/>
<circle cx="15" cy="243" r="7" fill="rgb(187,234,252)" opacity="0.35"/>
<circle cx="15" cy="243" r="5.0" fill="rgb(187,234,252)"/>
<circle cx="29" cy="243" r="7" fill="rgb(13,120,193)" opacity="0.35"/>
<circle cx="29" cy="243" r="5.0" fill="rgb(13,120,193)"/>
<circle cx="43" cy="243" r="7" fill="rgb(5,43,96)" opacity="0.35"/>
<circle cx="43" cy="243" r="5.0" fill="rgb(5,43,96)"/>
<circle cx="57" cy="243" r="7" fill="rgb(11,86,169)" opacity="0.35"/>
<circle cx="57" cy="243" r="5.0" fill="rgb(11,86,169)"/>
<circle cx="71" cy="243" r="7" fill="rgb(11,91,172)" opacity="0.35"/>
<circle cx="71" cy="243" r="5.0" fill="rgb(11,91,172)"/>
<circle cx="85" cy="243" r="7" fill="rgb(5,41,91)" opacity="0.35"/>
<circle cx="85" cy="243" r="5.0" fill="rgb(5,41,91)"/>
<circle cx="99" cy="243" r="7" fill="rgb(101,208,243)" opacity="0.35"/>
<circle cx="99" cy="243" r="5.0" fill="rgb(101,208,243)"/>
<circle cx="113" cy="243" r="7" fill="rgb(12,118,191)" opacity="0.35"/>
<circle cx="113" cy="243" r="5.0" fill="rgb(12,118,191)"/>
<circle cx="127" cy="243" r="7" fill="rgb(61,183,231)" opacity="0.35"/>
<circle cx="127" cy="243" r="5.0" fill="rgb(61,183,231)"/>
<circle cx="141" cy="243" r="7" fill="rgb(107,210,244)" opacity="0.35"/>
<circle cx="141" cy="243" r="5.0" fill="rgb(107,210,244)"/>
<circle cx="155" cy="243" r="7" fill="rgb(5,45,100)" opacity="0.35"/>
<circle cx="155" cy="243" r="5.0" fill="rgb(5,45,100)"/>
<circle cx="169" cy="243" r="7" fill="rgb(57,179,229)" opacity="0.35"/>
<circle cx="169" cy="243" r="5.0" fill="rgb(57,179,229)"/>
<circle cx="183" cy="243" r="7" fill="rgb(98,207,243)" opacity="0.35"/>
<circle cx="183" cy="243" r="5.0" fill="rgb(98,207,243)"/>
<circle cx="197" cy="243" r="7" fill="rgb(4,39,88)" opacity="0.35"/>
<circle cx="197" cy="243" r="5.0" fill="rgb(4,39,88)"/>
<circle cx="211" cy="243" r="7" fill="rgb(86,204,242)" opacity="0.35"/>
<circle cx="211" cy="243" r="5.0" fill="rgb(86,204,242)"/>
<circle cx="225" cy="243" r="7" fill="rgb(73,193,236)" opacity="0.35"/>
<circle cx="225" cy="243" r="5.0" fill="rgb(73,193,236)"/>
<circle cx="15" cy="257" r="7" fill="rgb(10,76,160)" opacity="0.35"/>
<circle cx="15" cy="257" r="5.0" fill="rgb(10,76,160)"/>
<circle cx="29" cy="257" r="7" fill="rgb(6,51,111)" opacity="0.35"/>
<circle cx="29" cy="257" r="5.0" fill="rgb(6,51,111)"/>
<circle cx="43" cy="257" r="7" fill="rgb(6,50,110)" opacity="0.35"/>
<circle cx="43" cy="257" r="5.0" fill="rgb(6,50,110)"/>
<circle cx="57" cy="257" r="7" fill="rgb(11,100,179)" opacity="0.35"/>
<circle cx="57" cy="257" r="5.0" fill="rgb(11,100,179)"/>
<circle cx="71" cy="257" r="7" fill="rgb(3,31,73)" opacity="0.35"/>
<circle cx="71" cy="257" r="5.0" fill="rgb(3,31,73)"/>
<circle cx="85" cy="257" r="7" fill="rgb(157,225,249)" opacity="0.35"/>
<circle cx="85" cy="257" r="5.0" fill="rgb(157,225,249)"/>
<circle cx="99" cy="257" r="7" fill="rgb(11,90,171)" opacity="0.35"/>
<circle cx="99" cy="257" r="5.0" fill="rgb(11,90,171)"/>
<circle cx="113" cy="257" r="7" fill="rgb(15,145,211)" opacity="0.35"/>
<circle cx="113" cy="257" r="5.0" fill="rgb(15,145,211)"/>
<circle cx="127" cy="257" r="7" fill="rgb(90,205,242)" opacity="0.35"/>
<circle cx="127" cy="257" r="5.0" fill="rgb(90,205,242)"/>
<circle cx="141" cy="257" r="7" fill="rgb(6,50,109)" opacity="0.35"/>
<circle cx="141" cy="257" r="5.0" fill="rgb(6,50,109)"/>
<circle cx="155" cy="257" r="7" fill="rgb(28,155,216)" opacity="0.35"/>
<circle cx="155" cy="257" r="5.0" fill="rgb(28,155,216)"/>
<circle cx="169" cy="257" r="7" fill="rgb(102,208,243)" opacity="0.35"/>
<circle cx="169" cy="257" r="5.0" fill="rgb(102,208,243)"/>
<circle cx="183" cy="257" r="7" fill="rgb(4,36,82)" opacity="0.35"/>
<circle cx="183" cy="257" r="5.0" fill="rgb(4,36,82)"/>
<circle cx="197" cy="257" r="7" fill="rgb(28,156,216)" opacity="0.35"/>
<circle cx="197" cy="257" r="5.0" fill="rgb(28,156,216)"/>
<circle cx="211" cy="257" r="7" fill="rgb(97,207,243)" opacity="0.35"/>
<circle cx="211" cy="257" r="5.0" fill="rgb(97,207,243)"/>
<circle cx="225" cy="257" r="7" fill="rgb(7,57,123)" opacity="0.35"/>
<circle cx="225" cy="257" r="5.0" fill="rgb(7,57,123)"/>
<circle cx="-2" cy="280" r="9" fill="#9aa0a6" opacity="0.25"/>
<circle cx="-2" cy="280" r="6" fill="#9aa0a6" stroke="#0d0f12" stroke-width="1.5"/>
<text x="10" y="284" font-family="'JetBrains Mono','Cascadia Mono','Consolas',monospace" font-size="12" fill="#a0a0a0">Speed</text>
<circle cx="242" cy="280" r="9" fill="#5ad1ff" opacity="0.25"/>
<circle cx="242" cy="280" r="6" fill="#5ad1ff" stroke="#0d0f12" stroke-width="1.5"/>
<text x="230" y="284" text-anchor="end" font-family="'JetBrains Mono','Cascadia Mono','Consolas',monospace" font-size="12" fill="#a0a0a0">Frame</text>
<circle cx="-2" cy="308" r="9" fill="#9aa0a6" opacity="0.25"/>
<circle cx="-2" cy="308" r="6" fill="#9aa0a6" stroke="#0d0f12" stroke-width="1.5"/>
<text x="10" y="312" font-family="'JetBrains Mono','Cascadia Mono','Consolas',monospace" font-size="12" fill="#a0a0a0">Scale</text>
<circle cx="-2" cy="336" r="9" fill="#9aa0a6" opacity="0.25"/>
<circle cx="-2" cy="336" r="6" fill="#9aa0a6" stroke="#0d0f12" stroke-width="1.5"/>
<text x="10" y="340" font-family="'JetBrains Mono','Cascadia Mono','Consolas',monospace" font-size="12" fill="#a0a0a0">Frequency</text>
<circle cx="-2" cy="364" r="9" fill="#9aa0a6" opacity="0.25"/>
<circle cx="-2" cy="364" r="6" fill="#9aa0a6" stroke="#0d0f12" stroke-width="1.5"/>
<text x="10" y="368" font-family="'JetBrains Mono','Cascadia Mono','Consolas',monospace" font-size="12" fill="#a0a0a0">Orientation</text>
<circle cx="-2" cy="392" r="9" fill="#ff5cf0" opacity="0.25"/>
<circle cx="-2" cy="392" r="6" fill="#ff5cf0" stroke="#0d0f12" stroke-width="1.5"/>
<text x="10" y="396" font-family="'JetBrains Mono','Cascadia Mono','Consolas',monospace" font-size="12" fill="#a0a0a0">Palette</text>
<line x1="8" y1="412" x2="232" y2="412" stroke="rgba(255,255,255,0.08)"/>
<text x="8" y="432" font-family="'JetBrains Mono','Cascadia Mono','Consolas',monospace" font-size="12" fill="#a0a0a0">speed</text>
<g>
<rect x="120" y="426" width="72" height="4" rx="2" fill="#cfd2d6" opacity="0.85"/>
<rect x="120" y="426" width="23.8" height="4" rx="2" fill="#d633ff"/>
<circle cx="143.8" cy="428" r="5" fill="#d633ff"/>
<text x="232" y="432" text-anchor="end" font-family="'JetBrains Mono','Cascadia Mono','Consolas',monospace" font-size="12" fill="#e0e0e0">0.33</text>
</g>
<text x="8" y="453" font-family="'JetBrains Mono','Cascadia Mono','Consolas',monospace" font-size="12" fill="#a0a0a0">scale</text>
<g>
<rect x="120" y="447" width="72" height="4" rx="2" fill="#cfd2d6" opacity="0.85"/>
<rect x="120" y="447" width="50.4" height="4" rx="2" fill="#d633ff"/>
<circle cx="170.4" cy="449" r="5" fill="#d633ff"/>
<text x="232" y="453" text-anchor="end" font-family="'JetBrains Mono','Cascadia Mono','Consolas',monospace" font-size="12" fill="#e0e0e0">0.7</text>
</g>
<text x="8" y="474" font-family="'JetBrains Mono','Cascadia Mono','Consolas',monospace" font-size="12" fill="#a0a0a0">frequency</text>
<g>
<rect x="120" y="468" width="72" height="4" rx="2" fill="#cfd2d6" opacity="0.85"/>
<rect x="120" y="468" width="21.6" height="4" rx="2" fill="#d633ff"/>
<circle cx="141.6" cy="470" r="5" fill="#d633ff"/>
<text x="232" y="474" text-anchor="end" font-family="'JetBrains Mono','Cascadia Mono','Consolas',monospace" font-size="12" fill="#e0e0e0">1.2</text>
</g>
<text x="8" y="495" font-family="'JetBrains Mono','Cascadia Mono','Consolas',monospace" font-size="12" fill="#a0a0a0">orientation</text>
<g>
<rect x="120" y="489" width="72" height="4" rx="2" fill="#cfd2d6" opacity="0.85"/>
<rect x="120" y="489" width="9.0" height="4" rx="2" fill="#d633ff"/>
<circle cx="129.0" cy="491" r="5" fill="#d633ff"/>
<text x="232" y="495" text-anchor="end" font-family="'JetBrains Mono','Cascadia Mono','Consolas',monospace" font-size="12" fill="#e0e0e0">45</text>
</g>
<text x="8" y="516" font-family="'JetBrains Mono','Cascadia Mono','Consolas',monospace" font-size="12" fill="#a0a0a0">palette</text>
<g>
<rect x="148" y="504" width="84" height="16" rx="4" fill="#0d0f12" stroke="rgba(255,255,255,0.12)"/>
<text x="152" y="516" font-family="'JetBrains Mono','Cascadia Mono','Consolas',monospace" font-size="11" fill="#e0e0e0">ocean</text>
<text x="228" y="516" text-anchor="end" font-size="8" fill="#a0a0a0">▾</text>
</g>
<text x="8" y="537" font-family="'JetBrains Mono','Cascadia Mono','Consolas',monospace" font-size="12" fill="#a0a0a0">seed</text>
<g>
<rect x="120" y="531" width="72" height="4" rx="2" fill="#cfd2d6" opacity="0.85"/>
<rect x="120" y="531" width="0.0" height="4" rx="2" fill="#d633ff"/>
<circle cx="120.0" cy="533" r="5" fill="#d633ff"/>
<text x="232" y="537" text-anchor="end" font-family="'JetBrains Mono','Cascadia Mono','Consolas',monospace" font-size="12" fill="#e0e0e0">0</text>
</g>
<text x="8" y="558" font-family="'JetBrains Mono','Cascadia Mono','Consolas',monospace" font-size="12" fill="#a0a0a0">clamp inputs</text>
<g>
<rect x="220" y="548" width="12" height="12" rx="3" fill="#0d0f12" stroke="rgba(255,255,255,0.12)"/>
</g>
</g>
</svg>
