<svg xmlns="http://www.w3.org/2000/svg" viewBox="0 0 296 326" width="296" height="326" role="img" aria-label="HSV → RGB node">

<defs><filter id="shadow" x="-20%" y="-20%" width="140%" height="160%"><feDropShadow dx="0" dy="8" stdDeviation="9" flood-color="#000" flood-opacity="0.45"/></filter></defs>
<g transform="translate(28,24)">
<rect x="0" y="0" width="240" height="268" rx="8" fill="#1f242b" stroke="rgba(255,255,255,0.12)" filter="url(#shadow)"/>
<rect x="0" y="0" width="240" height="268" rx="8" fill="#1f242b" stroke="rgba(255,255,255,0.12)"/>
<path d="M0,32 L0,8 Q0,0 8,0 L232,0 Q240,0 240,8 L240,32 Z" fill="#33ffd6"/>
<text x="8" y="21" font-family="'Audiowide','Trebuchet MS','Arial Black',sans-serif" font-size="14" font-weight="600" fill="#000">HSV → RGB</text>
<rect x="154" y="10" width="25" height="12" rx="6" fill="rgba(0,0,0,0.14)" stroke="rgba(255,255,255,0.14)"/>
<text x="166.5" y="19" text-anchor="middle" font-family="'JetBrains Mono','Cascadia Mono','Consolas',monospace" font-size="8" letter-spacing="0.08em" fill="#000">CLR</text>
<rect x="185" y="10" width="47" height="12" rx="6" fill="rgba(0,0,0,0.14)" stroke="rgba(255,255,255,0.14)"/>
<text x="208.5" y="19" text-anchor="middle" font-family="'JetBrains Mono','Cascadia Mono','Consolas',monospace" font-size="8" letter-spacing="0.08em" fill="#000">HSV-847</text>
<rect x="8" y="40" width="224" height="40" rx="4" fill="rgb(255,0,0)" stroke="rgba(255,255,255,0.12)"/>
<circle cx="-2" cy="96" r="9" fill="#9aa0a6" opacity="0.25"/>
<circle cx="-2" cy="96" r="6" fill="#9aa0a6" stroke="#0d0f12" stroke-width="1.5"/>
<text x="10" y="100" font-family="'JetBrains Mono','Cascadia Mono','Consolas',monospace" font-size="12" fill="#a0a0a0">H (0–360)</text>
<circle cx="242" cy="96" r="9" fill="#ffd24a" opacity="0.25"/>
<circle cx="242" cy="96" r="6" fill="#ffd24a" stroke="#0d0f12" stroke-width="1.5"/>
<text x="230" y="100" text-anchor="end" font-family="'JetBrains Mono','Cascadia Mono','Consolas',monospace" font-size="12" fill="#a0a0a0">Color</text>
<circle cx="-2" cy="124" r="9" fill="#9aa0a6" opacity="0.25"/>
<circle cx="-2" cy="124" r="6" fill="#9aa0a6" stroke="#0d0f12" stroke-width="1.5"/>
<text x="10" y="128" font-family="'JetBrains Mono','Cascadia Mono','Consolas',monospace" font-size="12" fill="#a0a0a0">S (0–1)</text>
<circle cx="-2" cy="152" r="9" fill="#9aa0a6" opacity="0.25"/>
<circle cx="-2" cy="152" r="6" fill="#9aa0a6" stroke="#0d0f12" stroke-width="1.5"/>
<text x="10" y="156" font-family="'JetBrains Mono','Cascadia Mono','Consolas',monospace" font-size="12" fill="#a0a0a0">V (0–1)</text>
<line x1="8" y1="172" x2="232" y2="172" stroke="rgba(255,255,255,0.08)"/>
<text x="8" y="192" font-family="'JetBrains Mono','Cascadia Mono','Consolas',monospace" font-size="12" fill="#a0a0a0">h</text>
<g>
<rect x="160" y="180" width="72" height="16" rx="4" fill="#0d0f12" stroke="rgba(255,255,255,0.12)"/>
<text x="164" y="192" font-family="'JetBrains Mono','Cascadia Mono','Consolas',monospace" font-size="11" fill="#e0e0e0">0</text>
</g>
<text x="8" y="213" font-family="'JetBrains Mono','Cascadia Mono','Consolas',monospace" font-size="12" fill="#a0a0a0">s</text>
<g>
<rect x="120" y="207" width="72" height="4" rx="2" fill="#cfd2d6" opacity="0.85"/>
<rect x="120" y="207" width="72.0" height="4" rx="2" fill="#d633ff"/>
<circle cx="192.0" cy="209" r="5" fill="#d633ff"/>
<text x="232" y="213" text-anchor="end" font-family="'JetBrains Mono','Cascadia Mono','Consolas',monospace" font-size="12" fill="#e0e0e0">1</text>
</g>
<text x="8" y="234" font-family="'JetBrains Mono','Cascadia Mono','Consolas',monospace" font-size="12" fill="#a0a0a0">v</text>
<g>
<rect x="120" y="228" width="72" height="4" rx="2" fill="#cfd2d6" opacity="0.85"/>
<rect x="120" y="228" width="72.0" height="4" rx="2" fill="#d633ff"/>
<circle cx="192.0" cy="230" r="5" fill="#d633ff"/>
<text x="232" y="234" text-anchor="end" font-family="'JetBrains Mono','Cascadia Mono','Consolas',monospace" font-size="12" fill="#e0e0e0">1</text>
</g>
<text x="8" y="255" font-family="'JetBrains Mono','Cascadia Mono','Consolas',monospace" font-size="12" fill="#a0a0a0">clamp inputs</text>
<g>
<rect x="220" y="245" width="12" height="12" rx="3" fill="#0d0f12" stroke="rgba(255,255,255,0.12)"/>
</g>
</g>
</svg>
