<svg xmlns="http://www.w3.org/2000/svg" viewBox="0 0 296 538" width="296" height="538" role="img" aria-label="Midrange Bloom node">

<defs><filter id="shadow" x="-20%" y="-20%" width="140%" height="160%"><feDropShadow dx="0" dy="8" stdDeviation="9" flood-color="#000" flood-opacity="0.45"/></filter></defs>
<g transform="translate(28,24)">
<rect x="0" y="0" width="240" height="480" rx="8" fill="#1f242b" stroke="rgba(255,255,255,0.12)" filter="url(#shadow)"/>
<rect x="0" y="0" width="240" height="480" rx="8" fill="#1f242b" stroke="rgba(255,255,255,0.12)"/>
<path d="M0,32 L0,8 Q0,0 8,0 L232,0 Q240,0 240,8 L240,32 Z" fill="#33d6ff"/>
<text x="8" y="21" font-family="'Audiowide','Trebuchet MS','Arial Black',sans-serif" font-size="14" font-weight="600" fill="#000">Midrange Bloom</text>
<rect x="154" y="10" width="25" height="12" rx="6" fill="rgba(0,0,0,0.14)" stroke="rgba(255,255,255,0.14)"/>
<text x="166.5" y="19" text-anchor="middle" font-family="'JetBrains Mono','Cascadia Mono','Consolas',monospace" font-size="8" letter-spacing="0.08em" fill="#000">PAT</text>
<rect x="185" y="10" width="47" height="12" rx="6" fill="rgba(0,0,0,0.14)" stroke="rgba(255,255,255,0.14)"/>
<text x="208.5" y="19" text-anchor="middle" font-family="'JetBrains Mono','Cascadia Mono','Consolas',monospace" font-size="8" letter-spacing="0.08em" fill="#000">MID-358</text>
<rect x="8" y="40" width="224" height="224" rx="4" fill="#05070a"/>
<circle cx="15" cy="47" r="7" fill="rgb(115,19,27)" opacity="0.35"/>
<circle cx="15" cy="47" r="5.0" fill="rgb(115,19,27)"/>
<circle cx="29" cy="47" r="5.0" fill="#14171c"/>
<circle cx="43" cy="47" r="7" fill="rgb(47,27,95)" opacity="0.35"/>
<circle cx="43" cy="47" r="5.0" fill="rgb(47,27,95)"/>
<circle cx="57" cy="47" r="7" fill="rgb(44,26,89)" opacity="0.35"/>
<circle cx="57" cy="47" r="5.0" fill="rgb(44,26,89)"/>
<circle cx="71" cy="47" r="7" fill="rgb(13,13,34)" opacity="0.35"/>
<circle cx="71" cy="47" r="5.0" fill="rgb(13,13,34)"/>
<circle cx="85" cy="47" r="5.0" fill="#14171c"/>
<circle cx="99" cy="47" r="5.0" fill="#14171c"/>
<circle cx="113" cy="47" r="5.0" fill="#14171c"/>
<circle cx="127" cy="47" r="5.0" fill="#14171c"/>
<circle cx="141" cy="47" r="5.0" fill="#14171c"/>
<circle cx="155" cy="47" r="5.0" fill="#14171c"/>
<circle cx="169" cy="47" r="7" fill="rgb(12,12,32)" opacity="0.35"/>
<circle cx="169" cy="47" r="5.0" fill="rgb(12,12,32)"/>
<circle cx="183" cy="47" r="7" fill="rgb(44,25,88)" opacity="0.35"/>
<circle cx="183" cy="47" r="5.0" fill="rgb(44,25,88)"/>
<circle cx="197" cy="47" r="7" fill="rgb(48,27,95)" opacity="0.35"/>
<circle cx="197" cy="47" r="5.0" fill="rgb(48,27,95)"/>
<circle cx="211" cy="47" r="5.0" fill="#14171c"/>
<circle cx="225" cy="47" r="7" fill="rgb(116,20,27)" opacity="0.35"/>
<circle cx="225" cy="47" r="5.0" fill="rgb(116,20,27)"/>
<circle cx="15" cy="61" r="5.0" fill="#14171c"/>
<circle cx="29" cy="61" r="7" fill="rgb(42,0,18)" opacity="0.35"/>
<circle cx="29" cy="61" r="5.0" fill="rgb(42,0,18)"/>
<circle cx="43" cy="61" r="7" fill="rgb(30,34,83)" opacity="0.35"/>
<circle cx="43" cy="61" r="5.0" fill="rgb(30,34,83)"/>
<circle cx="57" cy="61" r="5.0" fill="#14171c"/>
<circle cx="71" cy="61" r="7" fill="rgb(10,6,21)" opacity="0.35"/>
<circle cx="71" cy="61" r="5.0" fill="rgb(10,6,21)"/>
<circle cx="85" cy="61" r="7" fill="rgb(38,28,84)" opacity="0.35"/>
<circle cx="85" cy="61" r="5.0" fill="rgb(38,28,84)"/>
<circle cx="99" cy="61" r="7" fill="rgb(47,43,117)" opacity="0.35"/>
<circle cx="99" cy="61" r="5.0" fill="rgb(47,43,117)"/>
<circle cx="113" cy="61" r="7" fill="rgb(47,45,120)" opacity="0.35"/>
<circle cx="113" cy="61" r="5.0" fill="rgb(47,45,120)"/>
<circle cx="127" cy="61" r="7" fill="rgb(51,40,116)" opacity="0.35"/>
<circle cx="127" cy="61" r="5.0" fill="rgb(51,40,116)"/>
<circle cx="141" cy="61" r="7" fill="rgb(60,32,116)" opacity="0.35"/>
<circle cx="141" cy="61" r="5.0" fill="rgb(60,32,116)"/>
<circle cx="155" cy="61" r="7" fill="rgb(72,37,95)" opacity="0.35"/>
<circle cx="155" cy="61" r="5.0" fill="rgb(72,37,95)"/>
<circle cx="169" cy="61" r="7" fill="rgb(41,24,40)" opacity="0.35"/>
<circle cx="169" cy="61" r="5.0" fill="rgb(41,24,40)"/>
<circle cx="183" cy="61" r="5.0" fill="#14171c"/>
<circle cx="197" cy="61" r="7" fill="rgb(27,23,65)" opacity="0.35"/>
<circle cx="197" cy="61" r="5.0" fill="rgb(27,23,65)"/>
<circle cx="211" cy="61" r="7" fill="rgb(37,1,15)" opacity="0.35"/>
<circle cx="211" cy="61" r="5.0" fill="rgb(37,1,15)"/>
<circle cx="225" cy="61" r="5.0" fill="#14171c"/>
<circle cx="15" cy="75" r="7" fill="rgb(34,27,79)" opacity="0.35"/>
<circle cx="15" cy="75" r="5.0" fill="rgb(34,27,79)"/>
<circle cx="29" cy="75" r="7" fill="rgb(30,53,108)" opacity="0.35"/>
<circle cx="29" cy="75" r="5.0" fill="rgb(30,53,108)"/>
<circle cx="43" cy="75" r="5.0" fill="#14171c"/>
<circle cx="57" cy="75" r="7" fill="rgb(8,11,25)" opacity="0.35"/>
<circle cx="57" cy="75" r="5.0" fill="rgb(8,11,25)"/>
<circle cx="71" cy="75" r="7" fill="rgb(50,41,117)" opacity="0.35"/>
<circle cx="71" cy="75" r="5.0" fill="rgb(50,41,117)"/>
<circle cx="85" cy="75" r="7" fill="rgb(10,6,20)" opacity="0.35"/>
<circle cx="85" cy="75" r="5.0" fill="rgb(10,6,20)"/>
<circle cx="99" cy="75" r="5.0" fill="#14171c"/>
<circle cx="113" cy="75" r="5.0" fill="#14171c"/>
<circle cx="127" cy="75" r="5.0" fill="#14171c"/>
<circle cx="141" cy="75" r="5.0" fill="#14171c"/>
<circle cx="155" cy="75" r="5.0" fill="#14171c"/>
<circle cx="169" cy="75" r="7" fill="rgb(43,26,32)" opacity="0.35"/>
<circle cx="169" cy="75" r="5.0" fill="rgb(43,26,32)"/>
<circle cx="183" cy="75" r="7" fill="rgb(41,20,77)" opacity="0.35"/>
<circle cx="183" cy="75" r="5.0" fill="rgb(41,20,77)"/>
<circle cx="197" cy="75" r="5.0" fill="#14171c"/>
<circle cx="211" cy="75" r="7" fill="rgb(28,59,114)" opacity="0.35"/>
<circle cx="211" cy="75" r="5.0" fill="rgb(28,59,114)"/>
<circle cx="225" cy="75" r="7" fill="rgb(11,19,39)" opacity="0.35"/>
<circle cx="225" cy="75" r="5.0" fill="rgb(11,19,39)"/>
<circle cx="15" cy="89" r="7" fill="rgb(43,23,83)" opacity="0.35"/>
<circle cx="15" cy="89" r="5.0" fill="rgb(43,23,83)"/>
<circle cx="29" cy="89" r="5.0" fill="#14171c"/>
<circle cx="43" cy="89" r="5.0" fill="#14171c"/>
<circle cx="57" cy="89" r="7" fill="rgb(29,65,125)" opacity="0.35"/>
<circle cx="57" cy="89" r="5.0" fill="rgb(29,65,125)"/>
<circle cx="71" cy="89" r="5.0" fill="#14171c"/>
<circle cx="85" cy="89" r="5.0" fill="#14171c"/>
<circle cx="99" cy="89" r="7" fill="rgb(65,34,83)" opacity="0.35"/>
<circle cx="99" cy="89" r="5.0" fill="rgb(65,34,83)"/>
<circle cx="113" cy="89" r="7" fill="rgb(89,57,53)" opacity="0.35"/>
<circle cx="113" cy="89" r="5.0" fill="rgb(89,57,53)"/>
<circle cx="127" cy="89" r="7" fill="rgb(87,61,25)" opacity="0.35"/>
<circle cx="127" cy="89" r="5.0" fill="rgb(87,61,25)"/>
<circle cx="141" cy="89" r="7" fill="rgb(113,81,23)" opacity="0.35"/>
<circle cx="141" cy="89" r="5.0" fill="rgb(113,81,23)"/>
<circle cx="155" cy="89" r="7" fill="rgb(63,43,24)" opacity="0.35"/>
<circle cx="155" cy="89" r="5.0" fill="rgb(63,43,24)"/>
<circle cx="169" cy="89" r="5.0" fill="#14171c"/>
<circle cx="183" cy="89" r="7" fill="rgb(41,27,86)" opacity="0.35"/>
<circle cx="183" cy="89" r="5.0" fill="rgb(41,27,86)"/>
<circle cx="197" cy="89" r="7" fill="rgb(12,14,33)" opacity="0.35"/>
<circle cx="197" cy="89" r="5.0" fill="rgb(12,14,33)"/>
<circle cx="211" cy="89" r="5.0" fill="#14171c"/>
<circle cx="225" cy="89" r="7" fill="rgb(40,52,121)" opacity="0.35"/>
<circle cx="225" cy="89" r="5.0" fill="rgb(40,52,121)"/>
<circle cx="15" cy="103" r="7" fill="rgb(8,5,17)" opacity="0.35"/>
<circle cx="15" cy="103" r="5.0" fill="rgb(8,5,17)"/>
<circle cx="29" cy="103" r="5.0" fill="#14171c"/>
<circle cx="43" cy="103" r="7" fill="rgb(40,53,122)" opacity="0.35"/>
<circle cx="43" cy="103" r="5.0" fill="rgb(40,53,122)"/>
<circle cx="57" cy="103" r="7" fill="rgb(6,11,22)" opacity="0.35"/>
<circle cx="57" cy="103" r="5.0" fill="rgb(6,11,22)"/>
<circle cx="71" cy="103" r="5.0" fill="#14171c"/>
<circle cx="85" cy="103" r="7" fill="rgb(57,35,117)" opacity="0.35"/>
<circle cx="85" cy="103" r="5.0" fill="rgb(57,35,117)"/>
<circle cx="99" cy="103" r="5.0" fill="#14171c"/>
<circle cx="113" cy="103" r="5.0" fill="#14171c"/>
<circle cx="127" cy="103" r="5.0" fill="#14171c"/>
<circle cx="141" cy="103" r="5.0" fill="#14171c"/>
<circle cx="155" cy="103" r="7" fill="rgb(54,36,24)" opacity="0.35"/>
<circle cx="155" cy="103" r="5.0" fill="rgb(54,36,24)"/>
<circle cx="169" cy="103" r="7" fill="rgb(42,22,52)" opacity="0.35"/>
<circle cx="169" cy="103" r="5.0" fill="rgb(42,22,52)"/>
<circle cx="183" cy="103" r="5.0" fill="#14171c"/>
<circle cx="197" cy="103" r="7" fill="rgb(50,40,115)" opacity="0.35"/>
<circle cx="197" cy="103" r="5.0" fill="rgb(50,40,115)"/>
<circle cx="211" cy="103" r="5.0" fill="#14171c"/>
<circle cx="225" cy="103" r="7" fill="rgb(16,26,55)" opacity="0.35"/>
<circle cx="225" cy="103" r="5.0" fill="rgb(16,26,55)"/>
<circle cx="15" cy="117" r="5.0" fill="#14171c"/>
<circle cx="29" cy="117" r="7" fill="rgb(43,28,90)" opacity="0.35"/>
<circle cx="29" cy="117" r="5.0" fill="rgb(43,28,90)"/>
<circle cx="43" cy="117" r="7" fill="rgb(16,13,37)" opacity="0.35"/>
<circle cx="43" cy="117" r="5.0" fill="rgb(16,13,37)"/>
<circle cx="57" cy="117" r="5.0" fill="#14171c"/>
<circle cx="71" cy="117" r="7" fill="rgb(52,41,120)" opacity="0.35"/>
<circle cx="71" cy="117" r="5.0" fill="rgb(52,41,120)"/>
<circle cx="85" cy="117" r="5.0" fill="#14171c"/>
<circle cx="99" cy="117" r="7" fill="rgb(37,25,18)" opacity="0.35"/>
<circle cx="99" cy="117" r="5.0" fill="rgb(37,25,18)"/>
<circle cx="113" cy="117" r="7" fill="rgb(125,93,7)" opacity="0.35"/>
<circle cx="113" cy="117" r="5.0" fill="rgb(125,93,7)"/>
<circle cx="127" cy="117" r="7" fill="rgb(123,85,5)" opacity="0.35"/>
<circle cx="127" cy="117" r="5.0" fill="rgb(123,85,5)"/>
<circle cx="141" cy="117" r="7" fill="rgb(81,60,5)" opacity="0.35"/>
<circle cx="141" cy="117" r="5.0" fill="rgb(81,60,5)"/>
<circle cx="155" cy="117" r="5.0" fill="#14171c"/>
<circle cx="169" cy="117" r="7" fill="rgb(64,34,80)" opacity="0.35"/>
<circle cx="169" cy="117" r="5.0" fill="rgb(64,34,80)"/>
<circle cx="183" cy="117" r="5.0" fill="#14171c"/>
<circle cx="197" cy="117" r="7" fill="rgb(11,6,22)" opacity="0.35"/>
<circle cx="197" cy="117" r="5.0" fill="rgb(11,6,22)"/>
<circle cx="211" cy="117" r="7" fill="rgb(39,27,85)" opacity="0.35"/>
<circle cx="211" cy="117" r="5.0" fill="rgb(39,27,85)"/>
<circle cx="225" cy="117" r="5.0" fill="#14171c"/>
<circle cx="15" cy="131" r="5.0" fill="#14171c"/>
<circle cx="29" cy="131" r="7" fill="rgb(55,38,119)" opacity="0.35"/>
<circle cx="29" cy="131" r="5.0" fill="rgb(55,38,119)"/>
<circle cx="43" cy="131" r="5.0" fill="#14171c"/>
<circle cx="57" cy="131" r="7" fill="rgb(39,21,76)" opacity="0.35"/>
<circle cx="57" cy="131" r="5.0" fill="rgb(39,21,76)"/>
<circle cx="71" cy="131" r="7" fill="rgb(13,6,20)" opacity="0.35"/>
<circle cx="71" cy="131" r="5.0" fill="rgb(13,6,20)"/>
<circle cx="85" cy="131" r="7" fill="rgb(27,17,18)" opacity="0.35"/>
<circle cx="85" cy="131" r="5.0" fill="rgb(27,17,18)"/>
<circle cx="99" cy="131" r="7" fill="rgb(65,48,5)" opacity="0.35"/>
<circle cx="99" cy="131" r="5.0" fill="rgb(65,48,5)"/>
<circle cx="113" cy="131" r="5.0" fill="#14171c"/>
<circle cx="127" cy="131" r="5.0" fill="#14171c"/>
<circle cx="141" cy="131" r="7" fill="rgb(59,43,3)" opacity="0.35"/>
<circle cx="141" cy="131" r="5.0" fill="rgb(59,43,3)"/>
<circle cx="155" cy="131" r="7" fill="rgb(36,24,18)" opacity="0.35"/>
<circle cx="155" cy="131" r="5.0" fill="rgb(36,24,18)"/>
<circle cx="169" cy="131" r="5.0" fill="#14171c"/>
<circle cx="183" cy="131" r="7" fill="rgb(45,21,84)" opacity="0.35"/>
<circle cx="183" cy="131" r="5.0" fill="rgb(45,21,84)"/>
<circle cx="197" cy="131" r="5.0" fill="#14171c"/>
<circle cx="211" cy="131" r="7" fill="rgb(55,38,119)" opacity="0.35"/>
<circle cx="211" cy="131" r="5.0" fill="rgb(55,38,119)"/>
<circle cx="225" cy="131" r="5.0" fill="#14171c"/>
<circle cx="15" cy="145" r="5.0" fill="#14171c"/>
<circle cx="29" cy="145" r="7" fill="rgb(52,34,111)" opacity="0.35"/>
<circle cx="29" cy="145" r="5.0" fill="rgb(52,34,111)"/>
<circle cx="43" cy="145" r="5.0" fill="#14171c"/>
<circle cx="57" cy="145" r="7" fill="rgb(79,43,90)" opacity="0.35"/>
<circle cx="57" cy="145" r="5.0" fill="rgb(79,43,90)"/>
<circle cx="71" cy="145" r="5.0" fill="#14171c"/>
<circle cx="85" cy="145" r="7" fill="rgb(114,81,25)" opacity="0.35"/>
<circle cx="85" cy="145" r="5.0" fill="rgb(114,81,25)"/>
<circle cx="99" cy="145" r="5.0" fill="#14171c"/>
<circle cx="113" cy="145" r="7" fill="rgb(107,56,4)" opacity="0.35"/>
<circle cx="113" cy="145" r="5.0" fill="rgb(107,56,4)"/>
<circle cx="127" cy="145" r="7" fill="rgb(100,56,4)" opacity="0.35"/>
<circle cx="127" cy="145" r="5.0" fill="rgb(100,56,4)"/>
<circle cx="141" cy="145" r="5.0" fill="#14171c"/>
<circle cx="155" cy="145" r="7" fill="rgb(80,51,54)" opacity="0.35"/>
<circle cx="155" cy="145" r="5.0" fill="rgb(80,51,54)"/>
<circle cx="169" cy="145" r="5.0" fill="#14171c"/>
<circle cx="183" cy="145" r="7" fill="rgb(61,28,113)" opacity="0.35"/>
<circle cx="183" cy="145" r="5.0" fill="rgb(61,28,113)"/>
<circle cx="197" cy="145" r="5.0" fill="#14171c"/>
<circle cx="211" cy="145" r="7" fill="rgb(52,32,108)" opacity="0.35"/>
<circle cx="211" cy="145" r="5.0" fill="rgb(52,32,108)"/>
<circle cx="225" cy="145" r="5.0" fill="#14171c"/>
<circle cx="15" cy="159" r="5.0" fill="#14171c"/>
<circle cx="29" cy="159" r="7" fill="rgb(53,28,102)" opacity="0.35"/>
<circle cx="29" cy="159" r="5.0" fill="rgb(53,28,102)"/>
<circle cx="43" cy="159" r="5.0" fill="#14171c"/>
<circle cx="57" cy="159" r="7" fill="rgb(88,56,60)" opacity="0.35"/>
<circle cx="57" cy="159" r="5.0" fill="rgb(88,56,60)"/>
<circle cx="71" cy="159" r="5.0" fill="#14171c"/>
<circle cx="85" cy="159" r="7" fill="rgb(123,91,10)" opacity="0.35"/>
<circle cx="85" cy="159" r="5.0" fill="rgb(123,91,10)"/>
<circle cx="99" cy="159" r="5.0" fill="#14171c"/>
<circle cx="113" cy="159" r="7" fill="rgb(100,56,4)" opacity="0.35"/>
<circle cx="113" cy="159" r="5.0" fill="rgb(100,56,4)"/>
<circle cx="127" cy="159" r="7" fill="rgb(84,53,3)" opacity="0.35"/>
<circle cx="127" cy="159" r="5.0" fill="rgb(84,53,3)"/>
<circle cx="141" cy="159" r="5.0" fill="#14171c"/>
<circle cx="155" cy="159" r="7" fill="rgb(56,31,62)" opacity="0.35"/>
<circle cx="155" cy="159" r="5.0" fill="rgb(56,31,62)"/>
<circle cx="169" cy="159" r="5.0" fill="#14171c"/>
<circle cx="183" cy="159" r="7" fill="rgb(57,30,111)" opacity="0.35"/>
<circle cx="183" cy="159" r="5.0" fill="rgb(57,30,111)"/>
<circle cx="197" cy="159" r="5.0" fill="#14171c"/>
<circle cx="211" cy="159" r="7" fill="rgb(52,24,96)" opacity="0.35"/>
<circle cx="211" cy="159" r="5.0" fill="rgb(52,24,96)"/>
<circle cx="225" cy="159" r="5.0" fill="#14171c"/>
<circle cx="15" cy="173" r="5.0" fill="#14171c"/>
<circle cx="29" cy="173" r="7" fill="rgb(64,30,102)" opacity="0.35"/>
<circle cx="29" cy="173" r="5.0" fill="rgb(64,30,102)"/>
<circle cx="43" cy="173" r="5.0" fill="#14171c"/>
<circle cx="57" cy="173" r="7" fill="rgb(96,63,57)" opacity="0.35"/>
<circle cx="57" cy="173" r="5.0" fill="rgb(96,63,57)"/>
<circle cx="71" cy="173" r="5.0" fill="#14171c"/>
<circle cx="85" cy="173" r="7" fill="rgb(67,48,11)" opacity="0.35"/>
<circle cx="85" cy="173" r="5.0" fill="rgb(67,48,11)"/>
<circle cx="99" cy="173" r="7" fill="rgb(59,43,3)" opacity="0.35"/>
<circle cx="99" cy="173" r="5.0" fill="rgb(59,43,3)"/>
<circle cx="113" cy="173" r="5.0" fill="#14171c"/>
<circle cx="127" cy="173" r="5.0" fill="#14171c"/>
<circle cx="141" cy="173" r="7" fill="rgb(81,49,66)" opacity="0.35"/>
<circle cx="141" cy="173" r="5.0" fill="rgb(81,49,66)"/>
<circle cx="155" cy="173" r="5.0" fill="#14171c"/>
<circle cx="169" cy="173" r="7" fill="rgb(22,15,47)" opacity="0.35"/>
<circle cx="169" cy="173" r="5.0" fill="rgb(22,15,47)"/>
<circle cx="183" cy="173" r="7" fill="rgb(34,21,70)" opacity="0.35"/>
<circle cx="183" cy="173" r="5.0" fill="rgb(34,21,70)"/>
<circle cx="197" cy="173" r="5.0" fill="#14171c"/>
<circle cx="211" cy="173" r="7" fill="rgb(67,34,87)" opacity="0.35"/>
<circle cx="211" cy="173" r="5.0" fill="rgb(67,34,87)"/>
<circle cx="225" cy="173" r="5.0" fill="#14171c"/>
<circle cx="15" cy="187" r="5.0" fill="#14171c"/>
<circle cx="29" cy="187" r="7" fill="rgb(77,42,89)" opacity="0.35"/>
<circle cx="29" cy="187" r="5.0" fill="rgb(77,42,89)"/>
<circle cx="43" cy="187" r="5.0" fill="#14171c"/>
<circle cx="57" cy="187" r="7" fill="rgb(33,20,28)" opacity="0.35"/>
<circle cx="57" cy="187" r="5.0" fill="rgb(33,20,28)"/>
<circle cx="71" cy="187" r="7" fill="rgb(60,38,42)" opacity="0.35"/>
<circle cx="71" cy="187" r="5.0" fill="rgb(60,38,42)"/>
<circle cx="85" cy="187" r="5.0" fill="#14171c"/>
<circle cx="99" cy="187" r="7" fill="rgb(48,33,17)" opacity="0.35"/>
<circle cx="99" cy="187" r="5.0" fill="rgb(48,33,17)"/>
<circle cx="113" cy="187" r="7" fill="rgb(97,65,42)" opacity="0.35"/>
<circle cx="113" cy="187" r="5.0" fill="rgb(97,65,42)"/>
<circle cx="127" cy="187" r="7" fill="rgb(73,45,57)" opacity="0.35"/>
<circle cx="127" cy="187" r="5.0" fill="rgb(73,45,57)"/>
<circle cx="141" cy="187" r="5.0" fill="#14171c"/>
<circle cx="155" cy="187" r="5.0" fill="#14171c"/>
<circle cx="169" cy="187" r="7" fill="rgb(48,44,119)" opacity="0.35"/>
<circle cx="169" cy="187" r="5.0" fill="rgb(48,44,119)"/>
<circle cx="183" cy="187" r="5.0" fill="#14171c"/>
<circle cx="197" cy="187" r="5.0" fill="#14171c"/>
<circle cx="211" cy="187" r="7" fill="rgb(85,49,80)" opacity="0.35"/>
<circle cx="211" cy="187" r="5.0" fill="rgb(85,49,80)"/>
<circle cx="225" cy="187" r="5.0" fill="#14171c"/>
<circle cx="15" cy="201" r="5.0" fill="#14171c"/>
<circle cx="29" cy="201" r="7" fill="rgb(33,18,38)" opacity="0.35"/>
<circle cx="29" cy="201" r="5.0" fill="rgb(33,18,38)"/>
<circle cx="43" cy="201" r="7" fill="rgb(51,26,71)" opacity="0.35"/>
<circle cx="43" cy="201" r="5.0" fill="rgb(51,26,71)"/>
<circle cx="57" cy="201" r="5.0" fill="#14171c"/>
<circle cx="71" cy="201" r="7" fill="rgb(42,22,52)" opacity="0.35"/>
<circle cx="71" cy="201" r="5.0" fill="rgb(42,22,52)"/>
<circle cx="85" cy="201" r="7" fill="rgb(63,37,57)" opacity="0.35"/>
<circle cx="85" cy="201" r="5.0" fill="rgb(63,37,57)"/>
<circle cx="99" cy="201" r="5.0" fill="#14171c"/>
<circle cx="113" cy="201" r="5.0" fill="#14171c"/>
<circle cx="127" cy="201" r="5.0" fill="#14171c"/>
<circle cx="141" cy="201" r="7" fill="rgb(15,7,27)" opacity="0.35"/>
<circle cx="141" cy="201" r="5.0" fill="rgb(15,7,27)"/>
<circle cx="155" cy="201" r="7" fill="rgb(55,38,119)" opacity="0.35"/>
<circle cx="155" cy="201" r="5.0" fill="rgb(55,38,119)"/>
<circle cx="169" cy="201" r="5.0" fill="#14171c"/>
<circle cx="183" cy="201" r="5.0" fill="#14171c"/>
<circle cx="197" cy="201" r="7" fill="rgb(53,28,102)" opacity="0.35"/>
<circle cx="197" cy="201" r="5.0" fill="rgb(53,28,102)"/>
<circle cx="211" cy="201" r="7" fill="rgb(39,22,39)" opacity="0.35"/>
<circle cx="211" cy="201" r="5.0" fill="rgb(39,22,39)"/>
<circle cx="225" cy="201" r="5.0" fill="#14171c"/>
<circle cx="15" cy="215" r="7" fill="rgb(42,22,81)" opacity="0.35"/>
<circle cx="15" cy="215" r="5.0" fill="rgb(42,22,81)"/>
<circle cx="29" cy="215" r="5.0" fill="#14171c"/>
<circle cx="43" cy="215" r="7" fill="rgb(25,18,56)" opacity="0.35"/>
<circle cx="43" cy="215" r="5.0" fill="rgb(25,18,56)"/>
<circle cx="57" cy="215" r="7" fill="rgb(41,27,86)" opacity="0.35"/>
<circle cx="57" cy="215" r="5.0" fill="rgb(41,27,86)"/>
<circle cx="71" cy="215" r="5.0" fill="#14171c"/>
<circle cx="85" cy="215" r="7" fill="rgb(19,10,24)" opacity="0.35"/>
<circle cx="85" cy="215" r="5.0" fill="rgb(19,10,24)"/>
<circle cx="99" cy="215" r="7" fill="rgb(73,41,78)" opacity="0.35"/>
<circle cx="99" cy="215" r="5.0" fill="rgb(73,41,78)"/>
<circle cx="113" cy="215" r="7" fill="rgb(80,44,88)" opacity="0.35"/>
<circle cx="113" cy="215" r="5.0" fill="rgb(80,44,88)"/>
<circle cx="127" cy="215" r="7" fill="rgb(76,40,96)" opacity="0.35"/>
<circle cx="127" cy="215" r="5.0" fill="rgb(76,40,96)"/>
<circle cx="141" cy="215" r="7" fill="rgb(58,28,85)" opacity="0.35"/>
<circle cx="141" cy="215" r="5.0" fill="rgb(58,28,85)"/>
<circle cx="155" cy="215" r="5.0" fill="#14171c"/>
<circle cx="169" cy="215" r="5.0" fill="#14171c"/>
<circle cx="183" cy="215" r="7" fill="rgb(42,37,102)" opacity="0.35"/>
<circle cx="183" cy="215" r="5.0" fill="rgb(42,37,102)"/>
<circle cx="197" cy="215" r="7" fill="rgb(20,17,48)" opacity="0.35"/>
<circle cx="197" cy="215" r="5.0" fill="rgb(20,17,48)"/>
<circle cx="211" cy="215" r="5.0" fill="#14171c"/>
<circle cx="225" cy="215" r="7" fill="rgb(40,18,65)" opacity="0.35"/>
<circle cx="225" cy="215" r="5.0" fill="rgb(40,18,65)"/>
<circle cx="15" cy="229" r="7" fill="rgb(35,27,80)" opacity="0.35"/>
<circle cx="15" cy="229" r="5.0" fill="rgb(35,27,80)"/>
<circle cx="29" cy="229" r="7" fill="rgb(30,40,92)" opacity="0.35"/>
<circle cx="29" cy="229" r="5.0" fill="rgb(30,40,92)"/>
<circle cx="43" cy="229" r="5.0" fill="#14171c"/>
<circle cx="57" cy="229" r="7" fill="rgb(24,18,53)" opacity="0.35"/>
<circle cx="57" cy="229" r="5.0" fill="rgb(24,18,53)"/>
<circle cx="71" cy="229" r="7" fill="rgb(52,24,96)" opacity="0.35"/>
<circle cx="71" cy="229" r="5.0" fill="rgb(52,24,96)"/>
<circle cx="85" cy="229" r="5.0" fill="#14171c"/>
<circle cx="99" cy="229" r="5.0" fill="#14171c"/>
<circle cx="113" cy="229" r="5.0" fill="#14171c"/>
<circle cx="127" cy="229" r="5.0" fill="#14171c"/>
<circle cx="141" cy="229" r="5.0" fill="#14171c"/>
<circle cx="155" cy="229" r="5.0" fill="#14171c"/>
<circle cx="169" cy="229" r="7" fill="rgb(50,27,63)" opacity="0.35"/>
<circle cx="169" cy="229" r="5.0" fill="rgb(50,27,63)"/>
<circle cx="183" cy="229" r="7" fill="rgb(35,20,69)" opacity="0.35"/>
<circle cx="183" cy="229" r="5.0" fill="rgb(35,20,69)"/>
<circle cx="197" cy="229" r="5.0" fill="#14171c"/>
<circle cx="211" cy="229" r="7" fill="rgb(30,42,94)" opacity="0.35"/>
<circle cx="211" cy="229" r="5.0" fill="rgb(30,42,94)"/>
<circle cx="225" cy="229" r="7" fill="rgb(27,26,69)" opacity="0.35"/>
<circle cx="225" cy="229" r="5.0" fill="rgb(27,26,69)"/>
<circle cx="15" cy="243" r="5.0" fill="#14171c"/>
<circle cx="29" cy="243" r="7" fill="rgb(37,1,15)" opacity="0.35"/>
<circle cx="29" cy="243" r="5.0" fill="rgb(37,1,15)"/>
<circle cx="43" cy="243" r="7" fill="rgb(30,40,92)" opacity="0.35"/>
<circle cx="43" cy="243" r="5.0" fill="rgb(30,40,92)"/>
<circle cx="57" cy="243" r="5.0" fill="#14171c"/>
<circle cx="71" cy="243" r="5.0" fill="#14171c"/>
<circle cx="85" cy="243" r="7" fill="rgb(34,27,79)" opacity="0.35"/>
<circle cx="85" cy="243" r="5.0" fill="rgb(34,27,79)"/>
<circle cx="99" cy="243" r="7" fill="rgb(47,43,117)" opacity="0.35"/>
<circle cx="99" cy="243" r="5.0" fill="rgb(47,43,117)"/>
<circle cx="113" cy="243" r="7" fill="rgb(49,43,119)" opacity="0.35"/>
<circle cx="113" cy="243" r="5.0" fill="rgb(49,43,119)"/>
<circle cx="127" cy="243" r="7" fill="rgb(52,36,112)" opacity="0.35"/>
<circle cx="127" cy="243" r="5.0" fill="rgb(52,36,112)"/>
<circle cx="141" cy="243" r="7" fill="rgb(62,27,112)" opacity="0.35"/>
<circle cx="141" cy="243" r="5.0" fill="rgb(62,27,112)"/>
<circle cx="155" cy="243" r="7" fill="rgb(79,44,87)" opacity="0.35"/>
<circle cx="155" cy="243" r="5.0" fill="rgb(79,44,87)"/>
<circle cx="169" cy="243" r="7" fill="rgb(49,29,40)" opacity="0.35"/>
<circle cx="169" cy="243" r="5.0" fill="rgb(49,29,40)"/>
<circle cx="183" cy="243" r="5.0" fill="#14171c"/>
<circle cx="197" cy="243" r="7" fill="rgb(28,25,68)" opacity="0.35"/>
<circle cx="197" cy="243" r="5.0" fill="rgb(28,25,68)"/>
<circle cx="211" cy="243" r="7" fill="rgb(32,2,12)" opacity="0.35"/>
<circle cx="211" cy="243" r="5.0" fill="rgb(32,2,12)"/>
<circle cx="225" cy="243" r="5.0" fill="#14171c"/>
<circle cx="15" cy="257" r="7" fill="rgb(116,20,27)" opacity="0.35"/>
<circle cx="15" cy="257" r="5.0" fill="rgb(116,20,27)"/>
<circle cx="29" cy="257" r="5.0" fill="#14171c"/>
<circle cx="43" cy="257" r="7" fill="rgb(19,23,55)" opacity="0.35"/>
<circle cx="43" cy="257" r="5.0" fill="rgb(19,23,55)"/>
<circle cx="57" cy="257" r="7" fill="rgb(38,56,123)" opacity="0.35"/>
<circle cx="57" cy="257" r="5.0" fill="rgb(38,56,123)"/>
<circle cx="71" cy="257" r="7" fill="rgb(81,1,34)" opacity="0.35"/>
<circle cx="71" cy="257" r="5.0" fill="rgb(81,1,34)"/>
<circle cx="85" cy="257" r="7" fill="rgb(28,2,9)" opacity="0.35"/>
<circle cx="85" cy="257" r="5.0" fill="rgb(28,2,9)"/>
<circle cx="99" cy="257" r="5.0" fill="#14171c"/>
<circle cx="113" cy="257" r="5.0" fill="#14171c"/>
<circle cx="127" cy="257" r="5.0" fill="#14171c"/>
<circle cx="141" cy="257" r="5.0" fill="#14171c"/>
<circle cx="155" cy="257" r="5.0" fill="#14171c"/>
<circle cx="169" cy="257" r="5.0" fill="#14171c"/>
<circle cx="183" cy="257" r="7" fill="rgb(41,18,75)" opacity="0.35"/>
<circle cx="183" cy="257" r="5.0" fill="rgb(41,18,75)"/>
<circle cx="197" cy="257" r="7" fill="rgb(39,28,85)" opacity="0.35"/>
<circle cx="197" cy="257" r="5.0" fill="rgb(39,28,85)"/>
<circle cx="211" cy="257" r="5.0" fill="#14171c"/>
<circle cx="225" cy="257" r="7" fill="rgb(120,43,3)" opacity="0.35"/>
<circle cx="225" cy="257" r="5.0" fill="rgb(120,43,3)"/>
<circle cx="-2" cy="280" r="9" fill="#9aa0a6" opacity="0.25"/>
<circle cx="-2" cy="280" r="6" fill="#9aa0a6" stroke="#0d0f12" stroke-width="1.5"/>
<text x="10" y="284" font-family="'JetBrains Mono','Cascadia Mono','Consolas',monospace" font-size="12" fill="#a0a0a0">Mids</text>
<circle cx="242" cy="280" r="9" fill="#5ad1ff" opacity="0.25"/>
<circle cx="242" cy="280" r="6" fill="#5ad1ff" stroke="#0d0f12" stroke-width="1.5"/>
<text x="230" y="284" text-anchor="end" font-family="'JetBrains Mono','Cascadia Mono','Consolas',monospace" font-size="12" fill="#a0a0a0">Frame</text>
<circle cx="-2" cy="308" r="9" fill="#9aa0a6" opacity="0.25"/>
<circle cx="-2" cy="308" r="6" fill="#9aa0a6" stroke="#0d0f12" stroke-width="1.5"/>
<text x="10" y="312" font-family="'JetBrains Mono','Cascadia Mono','Consolas',monospace" font-size="12" fill="#a0a0a0">Energy</text>
<circle cx="-2" cy="336" r="9" fill="#9aa0a6" opacity="0.25"/>
<circle cx="-2" cy="336" r="6" fill="#9aa0a6" stroke="#0d0f12" stroke-width="1.5"/>
<text x="10" y="340" font-family="'JetBrains Mono','Cascadia Mono','Consolas',monospace" font-size="12" fill="#a0a0a0">Speed</text>
<circle cx="-2" cy="364" r="9" fill="#ff5cf0" opacity="0.25"/>
<circle cx="-2" cy="364" r="6" fill="#ff5cf0" stroke="#0d0f12" stroke-width="1.5"/>
<text x="10" y="368" font-family="'JetBrains Mono','Cascadia Mono','Consolas',monospace" font-size="12" fill="#a0a0a0">Palette</text>
<line x1="8" y1="384" x2="232" y2="384" stroke="rgba(255,255,255,0.08)"/>
<text x="8" y="404" font-family="'JetBrains Mono','Cascadia Mono','Consolas',monospace" font-size="12" fill="#a0a0a0">energy</text>
<g>
<rect x="120" y="398" width="72" height="4" rx="2" fill="#cfd2d6" opacity="0.85"/>
<rect x="120" y="398" width="50.4" height="4" rx="2" fill="#d633ff"/>
<circle cx="170.4" cy="400" r="5" fill="#d633ff"/>
<text x="232" y="404" text-anchor="end" font-family="'JetBrains Mono','Cascadia Mono','Consolas',monospace" font-size="12" fill="#e0e0e0">0.7</text>
</g>
<text x="8" y="425" font-family="'JetBrains Mono','Cascadia Mono','Consolas',monospace" font-size="12" fill="#a0a0a0">speed</text>
<g>
<rect x="120" y="419" width="72" height="4" rx="2" fill="#cfd2d6" opacity="0.85"/>
<rect x="120" y="419" width="72.0" height="4" rx="2" fill="#d633ff"/>
<circle cx="192.0" cy="421" r="5" fill="#d633ff"/>
<text x="232" y="425" text-anchor="end" font-family="'JetBrains Mono','Cascadia Mono','Consolas',monospace" font-size="12" fill="#e0e0e0">1</text>
</g>
<text x="8" y="446" font-family="'JetBrains Mono','Cascadia Mono','Consolas',monospace" font-size="12" fill="#a0a0a0">palette</text>
<g>
<rect x="148" y="434" width="84" height="16" rx="4" fill="#0d0f12" stroke="rgba(255,255,255,0.12)"/>
<text x="152" y="446" font-family="'JetBrains Mono','Cascadia Mono','Consolas',monospace" font-size="11" fill="#e0e0e0">party</text>
<text x="228" y="446" text-anchor="end" font-size="8" fill="#a0a0a0">▾</text>
</g>
<text x="8" y="467" font-family="'JetBrains Mono','Cascadia Mono','Consolas',monospace" font-size="12" fill="#a0a0a0">clamp inputs</text>
<g>
<rect x="220" y="457" width="12" height="12" rx="3" fill="#0d0f12" stroke="rgba(255,255,255,0.12)"/>
</g>
</g>
</svg>
