<svg xmlns="http://www.w3.org/2000/svg" viewBox="0 0 296 538" width="296" height="538" role="img" aria-label="Midrange Waves node">

<defs><filter id="shadow" x="-20%" y="-20%" width="140%" height="160%"><feDropShadow dx="0" dy="8" stdDeviation="9" flood-color="#000" flood-opacity="0.45"/></filter></defs>
<g transform="translate(28,24)">
<rect x="0" y="0" width="240" height="480" rx="8" fill="#1f242b" stroke="rgba(255,255,255,0.12)" filter="url(#shadow)"/>
<rect x="0" y="0" width="240" height="480" rx="8" fill="#1f242b" stroke="rgba(255,255,255,0.12)"/>
<path d="M0,32 L0,8 Q0,0 8,0 L232,0 Q240,0 240,8 L240,32 Z" fill="#33d6ff"/>
<text x="8" y="21" font-family="'Audiowide','Trebuchet MS','Arial Black',sans-serif" font-size="14" font-weight="600" fill="#000">Midrange Waves</text>
<rect x="154" y="10" width="25" height="12" rx="6" fill="rgba(0,0,0,0.14)" stroke="rgba(255,255,255,0.14)"/>
<text x="166.5" y="19" text-anchor="middle" font-family="'JetBrains Mono','Cascadia Mono','Consolas',monospace" font-size="8" letter-spacing="0.08em" fill="#000">PAT</text>
<rect x="185" y="10" width="47" height="12" rx="6" fill="rgba(0,0,0,0.14)" stroke="rgba(255,255,255,0.14)"/>
<text x="208.5" y="19" text-anchor="middle" font-family="'JetBrains Mono','Cascadia Mono','Consolas',monospace" font-size="8" letter-spacing="0.08em" fill="#000">MID-221</text>
<rect x="8" y="40" width="224" height="224" rx="4" fill="#05070a"/>
<circle cx="15" cy="47" r="7" fill="rgb(2,18,34)" opacity="0.35"/>
<circle cx="15" cy="47" r="5.0" fill="rgb(2,18,34)"/>
<circle cx="29" cy="47" r="7" fill="rgb(7,51,73)" opacity="0.35"/>
<circle cx="29" cy="47" r="5.0" fill="rgb(7,51,73)"/>
<circle cx="43" cy="47" r="7" fill="rgb(38,94,114)" opacity="0.35"/>
<circle cx="43" cy="47" r="5.0" fill="rgb(38,94,114)"/>
<circle cx="57" cy="47" r="7" fill="rgb(57,110,127)" opacity="0.35"/>
<circle cx="57" cy="47" r="5.0" fill="rgb(57,110,127)"/>
<circle cx="71" cy="47" r="7" fill="rgb(31,85,105)" opacity="0.35"/>
<circle cx="71" cy="47" r="5.0" fill="rgb(31,85,105)"/>
<circle cx="85" cy="47" r="7" fill="rgb(4,41,62)" opacity="0.35"/>
<circle cx="85" cy="47" r="5.0" fill="rgb(4,41,62)"/>
<circle cx="99" cy="47" r="7" fill="rgb(2,14,29)" opacity="0.35"/>
<circle cx="99" cy="47" r="5.0" fill="rgb(2,14,29)"/>
<circle cx="113" cy="47" r="7" fill="rgb(1,10,20)" opacity="0.35"/>
<circle cx="113" cy="47" r="5.0" fill="rgb(1,10,20)"/>
<circle cx="127" cy="47" r="7" fill="rgb(2,21,38)" opacity="0.35"/>
<circle cx="127" cy="47" r="5.0" fill="rgb(2,21,38)"/>
<circle cx="141" cy="47" r="7" fill="rgb(11,57,79)" opacity="0.35"/>
<circle cx="141" cy="47" r="5.0" fill="rgb(11,57,79)"/>
<circle cx="155" cy="47" r="7" fill="rgb(42,99,118)" opacity="0.35"/>
<circle cx="155" cy="47" r="5.0" fill="rgb(42,99,118)"/>
<circle cx="169" cy="47" r="7" fill="rgb(55,109,126)" opacity="0.35"/>
<circle cx="169" cy="47" r="5.0" fill="rgb(55,109,126)"/>
<circle cx="183" cy="47" r="7" fill="rgb(25,78,99)" opacity="0.35"/>
<circle cx="183" cy="47" r="5.0" fill="rgb(25,78,99)"/>
<circle cx="197" cy="47" r="7" fill="rgb(4,35,55)" opacity="0.35"/>
<circle cx="197" cy="47" r="5.0" fill="rgb(4,35,55)"/>
<circle cx="211" cy="47" r="7" fill="rgb(2,12,26)" opacity="0.35"/>
<circle cx="211" cy="47" r="5.0" fill="rgb(2,12,26)"/>
<circle cx="225" cy="47" r="7" fill="rgb(1,10,21)" opacity="0.35"/>
<circle cx="225" cy="47" r="5.0" fill="rgb(1,10,21)"/>
<circle cx="15" cy="61" r="7" fill="rgb(6,50,72)" opacity="0.35"/>
<circle cx="15" cy="61" r="5.0" fill="rgb(6,50,72)"/>
<circle cx="29" cy="61" r="7" fill="rgb(5,47,69)" opacity="0.35"/>
<circle cx="29" cy="61" r="5.0" fill="rgb(5,47,69)"/>
<circle cx="43" cy="61" r="7" fill="rgb(4,43,65)" opacity="0.35"/>
<circle cx="43" cy="61" r="5.0" fill="rgb(4,43,65)"/>
<circle cx="57" cy="61" r="7" fill="rgb(4,43,64)" opacity="0.35"/>
<circle cx="57" cy="61" r="5.0" fill="rgb(4,43,64)"/>
<circle cx="71" cy="61" r="7" fill="rgb(4,44,66)" opacity="0.35"/>
<circle cx="71" cy="61" r="5.0" fill="rgb(4,44,66)"/>
<circle cx="85" cy="61" r="7" fill="rgb(5,48,70)" opacity="0.35"/>
<circle cx="85" cy="61" r="5.0" fill="rgb(5,48,70)"/>
<circle cx="99" cy="61" r="7" fill="rgb(7,51,73)" opacity="0.35"/>
<circle cx="99" cy="61" r="5.0" fill="rgb(7,51,73)"/>
<circle cx="113" cy="61" r="7" fill="rgb(8,52,74)" opacity="0.35"/>
<circle cx="113" cy="61" r="5.0" fill="rgb(8,52,74)"/>
<circle cx="127" cy="61" r="7" fill="rgb(6,50,72)" opacity="0.35"/>
<circle cx="127" cy="61" r="5.0" fill="rgb(6,50,72)"/>
<circle cx="141" cy="61" r="7" fill="rgb(5,47,68)" opacity="0.35"/>
<circle cx="141" cy="61" r="5.0" fill="rgb(5,47,68)"/>
<circle cx="155" cy="61" r="7" fill="rgb(4,43,65)" opacity="0.35"/>
<circle cx="155" cy="61" r="5.0" fill="rgb(4,43,65)"/>
<circle cx="169" cy="61" r="7" fill="rgb(4,43,64)" opacity="0.35"/>
<circle cx="169" cy="61" r="5.0" fill="rgb(4,43,64)"/>
<circle cx="183" cy="61" r="7" fill="rgb(4,45,66)" opacity="0.35"/>
<circle cx="183" cy="61" r="5.0" fill="rgb(4,45,66)"/>
<circle cx="197" cy="61" r="7" fill="rgb(5,49,70)" opacity="0.35"/>
<circle cx="197" cy="61" r="5.0" fill="rgb(5,49,70)"/>
<circle cx="211" cy="61" r="7" fill="rgb(7,52,73)" opacity="0.35"/>
<circle cx="211" cy="61" r="5.0" fill="rgb(7,52,73)"/>
<circle cx="225" cy="61" r="7" fill="rgb(8,52,74)" opacity="0.35"/>
<circle cx="225" cy="61" r="5.0" fill="rgb(8,52,74)"/>
<circle cx="15" cy="75" r="7" fill="rgb(39,95,115)" opacity="0.35"/>
<circle cx="15" cy="75" r="5.0" fill="rgb(39,95,115)"/>
<circle cx="29" cy="75" r="7" fill="rgb(4,43,65)" opacity="0.35"/>
<circle cx="29" cy="75" r="5.0" fill="rgb(4,43,65)"/>
<circle cx="43" cy="75" r="7" fill="rgb(2,12,25)" opacity="0.35"/>
<circle cx="43" cy="75" r="5.0" fill="rgb(2,12,25)"/>
<circle cx="57" cy="75" r="5.0" fill="#14171c"/>
<circle cx="71" cy="75" r="7" fill="rgb(2,16,32)" opacity="0.35"/>
<circle cx="71" cy="75" r="5.0" fill="rgb(2,16,32)"/>
<circle cx="85" cy="75" r="7" fill="rgb(10,55,77)" opacity="0.35"/>
<circle cx="85" cy="75" r="5.0" fill="rgb(10,55,77)"/>
<circle cx="99" cy="75" r="7" fill="rgb(50,106,124)" opacity="0.35"/>
<circle cx="99" cy="75" r="5.0" fill="rgb(50,106,124)"/>
<circle cx="113" cy="75" r="7" fill="rgb(73,120,136)" opacity="0.35"/>
<circle cx="113" cy="75" r="5.0" fill="rgb(73,120,136)"/>
<circle cx="127" cy="75" r="7" fill="rgb(33,88,108)" opacity="0.35"/>
<circle cx="127" cy="75" r="5.0" fill="rgb(33,88,108)"/>
<circle cx="141" cy="75" r="7" fill="rgb(4,37,57)" opacity="0.35"/>
<circle cx="141" cy="75" r="5.0" fill="rgb(4,37,57)"/>
<circle cx="155" cy="75" r="7" fill="rgb(1,10,21)" opacity="0.35"/>
<circle cx="155" cy="75" r="5.0" fill="rgb(1,10,21)"/>
<circle cx="169" cy="75" r="5.0" fill="#14171c"/>
<circle cx="183" cy="75" r="7" fill="rgb(2,20,37)" opacity="0.35"/>
<circle cx="183" cy="75" r="5.0" fill="rgb(2,20,37)"/>
<circle cx="197" cy="75" r="7" fill="rgb(15,63,85)" opacity="0.35"/>
<circle cx="197" cy="75" r="5.0" fill="rgb(15,63,85)"/>
<circle cx="211" cy="75" r="7" fill="rgb(58,110,128)" opacity="0.35"/>
<circle cx="211" cy="75" r="5.0" fill="rgb(58,110,128)"/>
<circle cx="225" cy="75" r="7" fill="rgb(70,119,134)" opacity="0.35"/>
<circle cx="225" cy="75" r="5.0" fill="rgb(70,119,134)"/>
<circle cx="15" cy="89" r="7" fill="rgb(91,131,145)" opacity="0.35"/>
<circle cx="15" cy="89" r="5.0" fill="rgb(91,131,145)"/>
<circle cx="29" cy="89" r="7" fill="rgb(4,41,62)" opacity="0.35"/>
<circle cx="29" cy="89" r="5.0" fill="rgb(4,41,62)"/>
<circle cx="43" cy="89" r="5.0" fill="#14171c"/>
<circle cx="57" cy="89" r="5.0" fill="#14171c"/>
<circle cx="71" cy="89" r="5.0" fill="#14171c"/>
<circle cx="85" cy="89" r="7" fill="rgb(13,61,82)" opacity="0.35"/>
<circle cx="85" cy="89" r="5.0" fill="rgb(13,61,82)"/>
<circle cx="99" cy="89" r="7" fill="rgb(123,149,160)" opacity="0.35"/>
<circle cx="99" cy="89" r="5.0" fill="rgb(123,149,160)"/>
<circle cx="113" cy="89" r="7" fill="rgb(2,19,45)" opacity="0.35"/>
<circle cx="113" cy="89" r="5.0" fill="rgb(2,19,45)"/>
<circle cx="127" cy="89" r="7" fill="rgb(71,119,135)" opacity="0.35"/>
<circle cx="127" cy="89" r="5.0" fill="rgb(71,119,135)"/>
<circle cx="141" cy="89" r="7" fill="rgb(3,30,49)" opacity="0.35"/>
<circle cx="141" cy="89" r="5.0" fill="rgb(3,30,49)"/>
<circle cx="155" cy="89" r="5.0" fill="#14171c"/>
<circle cx="169" cy="89" r="5.0" fill="#14171c"/>
<circle cx="183" cy="89" r="7" fill="rgb(1,9,18)" opacity="0.35"/>
<circle cx="183" cy="89" r="5.0" fill="rgb(1,9,18)"/>
<circle cx="197" cy="89" r="7" fill="rgb(23,74,96)" opacity="0.35"/>
<circle cx="197" cy="89" r="5.0" fill="rgb(23,74,96)"/>
<circle cx="211" cy="89" r="7" fill="rgb(140,158,167)" opacity="0.35"/>
<circle cx="211" cy="89" r="5.0" fill="rgb(140,158,167)"/>
<circle cx="225" cy="89" r="7" fill="rgb(2,19,45)" opacity="0.35"/>
<circle cx="225" cy="89" r="5.0" fill="rgb(2,19,45)"/>
<circle cx="15" cy="103" r="7" fill="rgb(116,145,157)" opacity="0.35"/>
<circle cx="15" cy="103" r="5.0" fill="rgb(116,145,157)"/>
<circle cx="29" cy="103" r="7" fill="rgb(4,40,60)" opacity="0.35"/>
<circle cx="29" cy="103" r="5.0" fill="rgb(4,40,60)"/>
<circle cx="43" cy="103" r="5.0" fill="#14171c"/>
<circle cx="57" cy="103" r="5.0" fill="#14171c"/>
<circle cx="71" cy="103" r="5.0" fill="#14171c"/>
<circle cx="85" cy="103" r="7" fill="rgb(15,63,85)" opacity="0.35"/>
<circle cx="85" cy="103" r="5.0" fill="rgb(15,63,85)"/>
<circle cx="99" cy="103" r="7" fill="rgb(2,19,45)" opacity="0.35"/>
<circle cx="99" cy="103" r="5.0" fill="rgb(2,19,45)"/>
<circle cx="113" cy="103" r="7" fill="rgb(2,19,45)" opacity="0.35"/>
<circle cx="113" cy="103" r="5.0" fill="rgb(2,19,45)"/>
<circle cx="127" cy="103" r="7" fill="rgb(91,131,145)" opacity="0.35"/>
<circle cx="127" cy="103" r="5.0" fill="rgb(91,131,145)"/>
<circle cx="141" cy="103" r="7" fill="rgb(3,28,47)" opacity="0.35"/>
<circle cx="141" cy="103" r="5.0" fill="rgb(3,28,47)"/>
<circle cx="155" cy="103" r="5.0" fill="#14171c"/>
<circle cx="169" cy="103" r="5.0" fill="#14171c"/>
<circle cx="183" cy="103" r="5.0" fill="#14171c"/>
<circle cx="197" cy="103" r="7" fill="rgb(26,79,100)" opacity="0.35"/>
<circle cx="197" cy="103" r="5.0" fill="rgb(26,79,100)"/>
<circle cx="211" cy="103" r="7" fill="rgb(2,19,45)" opacity="0.35"/>
<circle cx="211" cy="103" r="5.0" fill="rgb(2,19,45)"/>
<circle cx="225" cy="103" r="7" fill="rgb(2,19,45)" opacity="0.35"/>
<circle cx="225" cy="103" r="5.0" fill="rgb(2,19,45)"/>
<circle cx="15" cy="117" r="7" fill="rgb(96,134,147)" opacity="0.35"/>
<circle cx="15" cy="117" r="5.0" fill="rgb(96,134,147)"/>
<circle cx="29" cy="117" r="7" fill="rgb(4,40,61)" opacity="0.35"/>
<circle cx="29" cy="117" r="5.0" fill="rgb(4,40,61)"/>
<circle cx="43" cy="117" r="5.0" fill="#14171c"/>
<circle cx="57" cy="117" r="5.0" fill="#14171c"/>
<circle cx="71" cy="117" r="5.0" fill="#14171c"/>
<circle cx="85" cy="117" r="7" fill="rgb(14,61,83)" opacity="0.35"/>
<circle cx="85" cy="117" r="5.0" fill="rgb(14,61,83)"/>
<circle cx="99" cy="117" r="7" fill="rgb(129,153,163)" opacity="0.35"/>
<circle cx="99" cy="117" r="5.0" fill="rgb(129,153,163)"/>
<circle cx="113" cy="117" r="7" fill="rgb(2,19,45)" opacity="0.35"/>
<circle cx="113" cy="117" r="5.0" fill="rgb(2,19,45)"/>
<circle cx="127" cy="117" r="7" fill="rgb(75,121,137)" opacity="0.35"/>
<circle cx="127" cy="117" r="5.0" fill="rgb(75,121,137)"/>
<circle cx="141" cy="117" r="7" fill="rgb(3,30,49)" opacity="0.35"/>
<circle cx="141" cy="117" r="5.0" fill="rgb(3,30,49)"/>
<circle cx="155" cy="117" r="5.0" fill="#14171c"/>
<circle cx="169" cy="117" r="5.0" fill="#14171c"/>
<circle cx="183" cy="117" r="7" fill="rgb(1,8,17)" opacity="0.35"/>
<circle cx="183" cy="117" r="5.0" fill="rgb(1,8,17)"/>
<circle cx="197" cy="117" r="7" fill="rgb(24,75,96)" opacity="0.35"/>
<circle cx="197" cy="117" r="5.0" fill="rgb(24,75,96)"/>
<circle cx="211" cy="117" r="7" fill="rgb(2,19,45)" opacity="0.35"/>
<circle cx="211" cy="117" r="5.0" fill="rgb(2,19,45)"/>
<circle cx="225" cy="117" r="7" fill="rgb(2,19,45)" opacity="0.35"/>
<circle cx="225" cy="117" r="5.0" fill="rgb(2,19,45)"/>
<circle cx="15" cy="131" r="7" fill="rgb(43,101,120)" opacity="0.35"/>
<circle cx="15" cy="131" r="5.0" fill="rgb(43,101,120)"/>
<circle cx="29" cy="131" r="7" fill="rgb(4,43,64)" opacity="0.35"/>
<circle cx="29" cy="131" r="5.0" fill="rgb(4,43,64)"/>
<circle cx="43" cy="131" r="7" fill="rgb(1,10,21)" opacity="0.35"/>
<circle cx="43" cy="131" r="5.0" fill="rgb(1,10,21)"/>
<circle cx="57" cy="131" r="5.0" fill="#14171c"/>
<circle cx="71" cy="131" r="7" fill="rgb(2,14,29)" opacity="0.35"/>
<circle cx="71" cy="131" r="5.0" fill="rgb(2,14,29)"/>
<circle cx="85" cy="131" r="7" fill="rgb(10,56,78)" opacity="0.35"/>
<circle cx="85" cy="131" r="5.0" fill="rgb(10,56,78)"/>
<circle cx="99" cy="131" r="7" fill="rgb(59,112,129)" opacity="0.35"/>
<circle cx="99" cy="131" r="5.0" fill="rgb(59,112,129)"/>
<circle cx="113" cy="131" r="7" fill="rgb(85,128,142)" opacity="0.35"/>
<circle cx="113" cy="131" r="5.0" fill="rgb(85,128,142)"/>
<circle cx="127" cy="131" r="7" fill="rgb(36,92,112)" opacity="0.35"/>
<circle cx="127" cy="131" r="5.0" fill="rgb(36,92,112)"/>
<circle cx="141" cy="131" r="7" fill="rgb(4,36,56)" opacity="0.35"/>
<circle cx="141" cy="131" r="5.0" fill="rgb(4,36,56)"/>
<circle cx="155" cy="131" r="7" fill="rgb(1,8,17)" opacity="0.35"/>
<circle cx="155" cy="131" r="5.0" fill="rgb(1,8,17)"/>
<circle cx="169" cy="131" r="5.0" fill="#14171c"/>
<circle cx="183" cy="131" r="7" fill="rgb(2,18,34)" opacity="0.35"/>
<circle cx="183" cy="131" r="5.0" fill="rgb(2,18,34)"/>
<circle cx="197" cy="131" r="7" fill="rgb(16,64,86)" opacity="0.35"/>
<circle cx="197" cy="131" r="5.0" fill="rgb(16,64,86)"/>
<circle cx="211" cy="131" r="7" fill="rgb(68,117,133)" opacity="0.35"/>
<circle cx="211" cy="131" r="5.0" fill="rgb(68,117,133)"/>
<circle cx="225" cy="131" r="7" fill="rgb(82,125,140)" opacity="0.35"/>
<circle cx="225" cy="131" r="5.0" fill="rgb(82,125,140)"/>
<circle cx="15" cy="145" r="7" fill="rgb(10,55,77)" opacity="0.35"/>
<circle cx="15" cy="145" r="5.0" fill="rgb(10,55,77)"/>
<circle cx="29" cy="145" r="7" fill="rgb(5,47,68)" opacity="0.35"/>
<circle cx="29" cy="145" r="5.0" fill="rgb(5,47,68)"/>
<circle cx="43" cy="145" r="7" fill="rgb(4,38,59)" opacity="0.35"/>
<circle cx="43" cy="145" r="5.0" fill="rgb(4,38,59)"/>
<circle cx="57" cy="145" r="7" fill="rgb(4,36,56)" opacity="0.35"/>
<circle cx="57" cy="145" r="5.0" fill="rgb(4,36,56)"/>
<circle cx="71" cy="145" r="7" fill="rgb(4,40,61)" opacity="0.35"/>
<circle cx="71" cy="145" r="5.0" fill="rgb(4,40,61)"/>
<circle cx="85" cy="145" r="7" fill="rgb(5,49,71)" opacity="0.35"/>
<circle cx="85" cy="145" r="5.0" fill="rgb(5,49,71)"/>
<circle cx="99" cy="145" r="7" fill="rgb(11,57,79)" opacity="0.35"/>
<circle cx="99" cy="145" r="5.0" fill="rgb(11,57,79)"/>
<circle cx="113" cy="145" r="7" fill="rgb(12,59,81)" opacity="0.35"/>
<circle cx="113" cy="145" r="5.0" fill="rgb(12,59,81)"/>
<circle cx="127" cy="145" r="7" fill="rgb(9,54,76)" opacity="0.35"/>
<circle cx="127" cy="145" r="5.0" fill="rgb(9,54,76)"/>
<circle cx="141" cy="145" r="7" fill="rgb(4,45,67)" opacity="0.35"/>
<circle cx="141" cy="145" r="5.0" fill="rgb(4,45,67)"/>
<circle cx="155" cy="145" r="7" fill="rgb(4,38,58)" opacity="0.35"/>
<circle cx="155" cy="145" r="5.0" fill="rgb(4,38,58)"/>
<circle cx="169" cy="145" r="7" fill="rgb(4,36,57)" opacity="0.35"/>
<circle cx="169" cy="145" r="5.0" fill="rgb(4,36,57)"/>
<circle cx="183" cy="145" r="7" fill="rgb(4,41,62)" opacity="0.35"/>
<circle cx="183" cy="145" r="5.0" fill="rgb(4,41,62)"/>
<circle cx="197" cy="145" r="7" fill="rgb(6,50,72)" opacity="0.35"/>
<circle cx="197" cy="145" r="5.0" fill="rgb(6,50,72)"/>
<circle cx="211" cy="145" r="7" fill="rgb(11,58,79)" opacity="0.35"/>
<circle cx="211" cy="145" r="5.0" fill="rgb(11,58,79)"/>
<circle cx="225" cy="145" r="7" fill="rgb(12,59,81)" opacity="0.35"/>
<circle cx="225" cy="145" r="5.0" fill="rgb(12,59,81)"/>
<circle cx="15" cy="159" r="7" fill="rgb(2,21,38)" opacity="0.35"/>
<circle cx="15" cy="159" r="5.0" fill="rgb(2,21,38)"/>
<circle cx="29" cy="159" r="7" fill="rgb(6,50,72)" opacity="0.35"/>
<circle cx="29" cy="159" r="5.0" fill="rgb(6,50,72)"/>
<circle cx="43" cy="159" r="7" fill="rgb(33,88,108)" opacity="0.35"/>
<circle cx="43" cy="159" r="5.0" fill="rgb(33,88,108)"/>
<circle cx="57" cy="159" r="7" fill="rgb(45,102,121)" opacity="0.35"/>
<circle cx="57" cy="159" r="5.0" fill="rgb(45,102,121)"/>
<circle cx="71" cy="159" r="7" fill="rgb(27,80,101)" opacity="0.35"/>
<circle cx="71" cy="159" r="5.0" fill="rgb(27,80,101)"/>
<circle cx="85" cy="159" r="7" fill="rgb(4,42,63)" opacity="0.35"/>
<circle cx="85" cy="159" r="5.0" fill="rgb(4,42,63)"/>
<circle cx="99" cy="159" r="7" fill="rgb(2,17,33)" opacity="0.35"/>
<circle cx="99" cy="159" r="5.0" fill="rgb(2,17,33)"/>
<circle cx="113" cy="159" r="7" fill="rgb(2,12,26)" opacity="0.35"/>
<circle cx="113" cy="159" r="5.0" fill="rgb(2,12,26)"/>
<circle cx="127" cy="159" r="7" fill="rgb(3,24,42)" opacity="0.35"/>
<circle cx="127" cy="159" r="5.0" fill="rgb(3,24,42)"/>
<circle cx="141" cy="159" r="7" fill="rgb(10,56,78)" opacity="0.35"/>
<circle cx="141" cy="159" r="5.0" fill="rgb(10,56,78)"/>
<circle cx="155" cy="159" r="7" fill="rgb(36,92,112)" opacity="0.35"/>
<circle cx="155" cy="159" r="5.0" fill="rgb(36,92,112)"/>
<circle cx="169" cy="159" r="7" fill="rgb(44,102,120)" opacity="0.35"/>
<circle cx="169" cy="159" r="5.0" fill="rgb(44,102,120)"/>
<circle cx="183" cy="159" r="7" fill="rgb(23,74,96)" opacity="0.35"/>
<circle cx="183" cy="159" r="5.0" fill="rgb(23,74,96)"/>
<circle cx="197" cy="159" r="7" fill="rgb(4,37,57)" opacity="0.35"/>
<circle cx="197" cy="159" r="5.0" fill="rgb(4,37,57)"/>
<circle cx="211" cy="159" r="7" fill="rgb(2,15,30)" opacity="0.35"/>
<circle cx="211" cy="159" r="5.0" fill="rgb(2,15,30)"/>
<circle cx="225" cy="159" r="7" fill="rgb(2,13,27)" opacity="0.35"/>
<circle cx="225" cy="159" r="5.0" fill="rgb(2,13,27)"/>
<circle cx="15" cy="173" r="5.0" fill="#14171c"/>
<circle cx="29" cy="173" r="7" fill="rgb(8,53,75)" opacity="0.35"/>
<circle cx="29" cy="173" r="5.0" fill="rgb(8,53,75)"/>
<circle cx="43" cy="173" r="7" fill="rgb(96,134,148)" opacity="0.35"/>
<circle cx="43" cy="173" r="5.0" fill="rgb(96,134,148)"/>
<circle cx="57" cy="173" r="7" fill="rgb(2,19,45)" opacity="0.35"/>
<circle cx="57" cy="173" r="5.0" fill="rgb(2,19,45)"/>
<circle cx="71" cy="173" r="7" fill="rgb(68,117,134)" opacity="0.35"/>
<circle cx="71" cy="173" r="5.0" fill="rgb(68,117,134)"/>
<circle cx="85" cy="173" r="7" fill="rgb(4,36,56)" opacity="0.35"/>
<circle cx="85" cy="173" r="5.0" fill="rgb(4,36,56)"/>
<circle cx="99" cy="173" r="5.0" fill="#14171c"/>
<circle cx="113" cy="173" r="5.0" fill="#14171c"/>
<circle cx="127" cy="173" r="7" fill="rgb(1,9,19)" opacity="0.35"/>
<circle cx="127" cy="173" r="5.0" fill="rgb(1,9,19)"/>
<circle cx="141" cy="173" r="7" fill="rgb(16,65,87)" opacity="0.35"/>
<circle cx="141" cy="173" r="5.0" fill="rgb(16,65,87)"/>
<circle cx="155" cy="173" r="7" fill="rgb(112,143,155)" opacity="0.35"/>
<circle cx="155" cy="173" r="5.0" fill="rgb(112,143,155)"/>
<circle cx="169" cy="173" r="7" fill="rgb(2,19,45)" opacity="0.35"/>
<circle cx="169" cy="173" r="5.0" fill="rgb(2,19,45)"/>
<circle cx="183" cy="173" r="7" fill="rgb(51,106,124)" opacity="0.35"/>
<circle cx="183" cy="173" r="5.0" fill="rgb(51,106,124)"/>
<circle cx="197" cy="173" r="7" fill="rgb(3,27,46)" opacity="0.35"/>
<circle cx="197" cy="173" r="5.0" fill="rgb(3,27,46)"/>
<circle cx="211" cy="173" r="5.0" fill="#14171c"/>
<circle cx="225" cy="173" r="5.0" fill="#14171c"/>
<circle cx="15" cy="187" r="5.0" fill="#14171c"/>
<circle cx="29" cy="187" r="7" fill="rgb(10,55,77)" opacity="0.35"/>
<circle cx="29" cy="187" r="5.0" fill="rgb(10,55,77)"/>
<circle cx="43" cy="187" r="7" fill="rgb(142,160,168)" opacity="0.35"/>
<circle cx="43" cy="187" r="5.0" fill="rgb(142,160,168)"/>
<circle cx="57" cy="187" r="7" fill="rgb(2,19,45)" opacity="0.35"/>
<circle cx="57" cy="187" r="5.0" fill="rgb(2,19,45)"/>
<circle cx="71" cy="187" r="7" fill="rgb(101,137,149)" opacity="0.35"/>
<circle cx="71" cy="187" r="5.0" fill="rgb(101,137,149)"/>
<circle cx="85" cy="187" r="7" fill="rgb(4,34,53)" opacity="0.35"/>
<circle cx="85" cy="187" r="5.0" fill="rgb(4,34,53)"/>
<circle cx="99" cy="187" r="5.0" fill="#14171c"/>
<circle cx="113" cy="187" r="5.0" fill="#14171c"/>
<circle cx="127" cy="187" r="5.0" fill="#14171c"/>
<circle cx="141" cy="187" r="7" fill="rgb(20,71,92)" opacity="0.35"/>
<circle cx="141" cy="187" r="5.0" fill="rgb(20,71,92)"/>
<circle cx="155" cy="187" r="7" fill="rgb(2,19,45)" opacity="0.35"/>
<circle cx="155" cy="187" r="5.0" fill="rgb(2,19,45)"/>
<circle cx="169" cy="187" r="7" fill="rgb(2,19,45)" opacity="0.35"/>
<circle cx="169" cy="187" r="5.0" fill="rgb(2,19,45)"/>
<circle cx="183" cy="187" r="7" fill="rgb(76,122,138)" opacity="0.35"/>
<circle cx="183" cy="187" r="5.0" fill="rgb(76,122,138)"/>
<circle cx="197" cy="187" r="7" fill="rgb(2,23,41)" opacity="0.35"/>
<circle cx="197" cy="187" r="5.0" fill="rgb(2,23,41)"/>
<circle cx="211" cy="187" r="5.0" fill="#14171c"/>
<circle cx="225" cy="187" r="5.0" fill="#14171c"/>
<circle cx="15" cy="201" r="5.0" fill="#14171c"/>
<circle cx="29" cy="201" r="7" fill="rgb(9,55,77)" opacity="0.35"/>
<circle cx="29" cy="201" r="5.0" fill="rgb(9,55,77)"/>
<circle cx="43" cy="201" r="7" fill="rgb(133,155,164)" opacity="0.35"/>
<circle cx="43" cy="201" r="5.0" fill="rgb(133,155,164)"/>
<circle cx="57" cy="201" r="7" fill="rgb(2,19,45)" opacity="0.35"/>
<circle cx="57" cy="201" r="5.0" fill="rgb(2,19,45)"/>
<circle cx="71" cy="201" r="7" fill="rgb(95,133,146)" opacity="0.35"/>
<circle cx="71" cy="201" r="5.0" fill="rgb(95,133,146)"/>
<circle cx="85" cy="201" r="7" fill="rgb(4,34,54)" opacity="0.35"/>
<circle cx="85" cy="201" r="5.0" fill="rgb(4,34,54)"/>
<circle cx="99" cy="201" r="5.0" fill="#14171c"/>
<circle cx="113" cy="201" r="5.0" fill="#14171c"/>
<circle cx="127" cy="201" r="5.0" fill="#14171c"/>
<circle cx="141" cy="201" r="7" fill="rgb(19,70,91)" opacity="0.35"/>
<circle cx="141" cy="201" r="5.0" fill="rgb(19,70,91)"/>
<circle cx="155" cy="201" r="7" fill="rgb(2,19,45)" opacity="0.35"/>
<circle cx="155" cy="201" r="5.0" fill="rgb(2,19,45)"/>
<circle cx="169" cy="201" r="7" fill="rgb(2,19,45)" opacity="0.35"/>
<circle cx="169" cy="201" r="5.0" fill="rgb(2,19,45)"/>
<circle cx="183" cy="201" r="7" fill="rgb(71,119,135)" opacity="0.35"/>
<circle cx="183" cy="201" r="5.0" fill="rgb(71,119,135)"/>
<circle cx="197" cy="201" r="7" fill="rgb(3,24,42)" opacity="0.35"/>
<circle cx="197" cy="201" r="5.0" fill="rgb(3,24,42)"/>
<circle cx="211" cy="201" r="5.0" fill="#14171c"/>
<circle cx="225" cy="201" r="5.0" fill="#14171c"/>
<circle cx="15" cy="215" r="7" fill="rgb(1,9,19)" opacity="0.35"/>
<circle cx="15" cy="215" r="5.0" fill="rgb(1,9,19)"/>
<circle cx="29" cy="215" r="7" fill="rgb(8,53,75)" opacity="0.35"/>
<circle cx="29" cy="215" r="5.0" fill="rgb(8,53,75)"/>
<circle cx="43" cy="215" r="7" fill="rgb(75,121,137)" opacity="0.35"/>
<circle cx="43" cy="215" r="5.0" fill="rgb(75,121,137)"/>
<circle cx="57" cy="215" r="7" fill="rgb(118,146,157)" opacity="0.35"/>
<circle cx="57" cy="215" r="5.0" fill="rgb(118,146,157)"/>
<circle cx="71" cy="215" r="7" fill="rgb(53,107,125)" opacity="0.35"/>
<circle cx="71" cy="215" r="5.0" fill="rgb(53,107,125)"/>
<circle cx="85" cy="215" r="7" fill="rgb(4,38,58)" opacity="0.35"/>
<circle cx="85" cy="215" r="5.0" fill="rgb(4,38,58)"/>
<circle cx="99" cy="215" r="5.0" fill="#14171c"/>
<circle cx="113" cy="215" r="5.0" fill="#14171c"/>
<circle cx="127" cy="215" r="7" fill="rgb(2,12,25)" opacity="0.35"/>
<circle cx="127" cy="215" r="5.0" fill="rgb(2,12,25)"/>
<circle cx="141" cy="215" r="7" fill="rgb(15,63,85)" opacity="0.35"/>
<circle cx="141" cy="215" r="5.0" fill="rgb(15,63,85)"/>
<circle cx="155" cy="215" r="7" fill="rgb(87,128,143)" opacity="0.35"/>
<circle cx="155" cy="215" r="5.0" fill="rgb(87,128,143)"/>
<circle cx="169" cy="215" r="7" fill="rgb(114,144,156)" opacity="0.35"/>
<circle cx="169" cy="215" r="5.0" fill="rgb(114,144,156)"/>
<circle cx="183" cy="215" r="7" fill="rgb(40,97,116)" opacity="0.35"/>
<circle cx="183" cy="215" r="5.0" fill="rgb(40,97,116)"/>
<circle cx="197" cy="215" r="7" fill="rgb(3,30,49)" opacity="0.35"/>
<circle cx="197" cy="215" r="5.0" fill="rgb(3,30,49)"/>
<circle cx="211" cy="215" r="5.0" fill="#14171c"/>
<circle cx="225" cy="215" r="5.0" fill="#14171c"/>
<circle cx="15" cy="229" r="7" fill="rgb(3,30,49)" opacity="0.35"/>
<circle cx="15" cy="229" r="5.0" fill="rgb(3,30,49)"/>
<circle cx="29" cy="229" r="7" fill="rgb(6,49,71)" opacity="0.35"/>
<circle cx="29" cy="229" r="5.0" fill="rgb(6,49,71)"/>
<circle cx="43" cy="229" r="7" fill="rgb(20,71,92)" opacity="0.35"/>
<circle cx="43" cy="229" r="5.0" fill="rgb(20,71,92)"/>
<circle cx="57" cy="229" r="7" fill="rgb(26,79,100)" opacity="0.35"/>
<circle cx="57" cy="229" r="5.0" fill="rgb(26,79,100)"/>
<circle cx="71" cy="229" r="7" fill="rgb(17,66,88)" opacity="0.35"/>
<circle cx="71" cy="229" r="5.0" fill="rgb(17,66,88)"/>
<circle cx="85" cy="229" r="7" fill="rgb(4,44,65)" opacity="0.35"/>
<circle cx="85" cy="229" r="5.0" fill="rgb(4,44,65)"/>
<circle cx="99" cy="229" r="7" fill="rgb(3,27,46)" opacity="0.35"/>
<circle cx="99" cy="229" r="5.0" fill="rgb(3,27,46)"/>
<circle cx="113" cy="229" r="7" fill="rgb(2,23,41)" opacity="0.35"/>
<circle cx="113" cy="229" r="5.0" fill="rgb(2,23,41)"/>
<circle cx="127" cy="229" r="7" fill="rgb(3,32,52)" opacity="0.35"/>
<circle cx="127" cy="229" r="5.0" fill="rgb(3,32,52)"/>
<circle cx="141" cy="229" r="7" fill="rgb(8,53,74)" opacity="0.35"/>
<circle cx="141" cy="229" r="5.0" fill="rgb(8,53,74)"/>
<circle cx="155" cy="229" r="7" fill="rgb(22,73,94)" opacity="0.35"/>
<circle cx="155" cy="229" r="5.0" fill="rgb(22,73,94)"/>
<circle cx="169" cy="229" r="7" fill="rgb(25,78,99)" opacity="0.35"/>
<circle cx="169" cy="229" r="5.0" fill="rgb(25,78,99)"/>
<circle cx="183" cy="229" r="7" fill="rgb(15,63,85)" opacity="0.35"/>
<circle cx="183" cy="229" r="5.0" fill="rgb(15,63,85)"/>
<circle cx="197" cy="229" r="7" fill="rgb(4,41,62)" opacity="0.35"/>
<circle cx="197" cy="229" r="5.0" fill="rgb(4,41,62)"/>
<circle cx="211" cy="229" r="7" fill="rgb(3,26,44)" opacity="0.35"/>
<circle cx="211" cy="229" r="5.0" fill="rgb(3,26,44)"/>
<circle cx="225" cy="229" r="7" fill="rgb(3,24,41)" opacity="0.35"/>
<circle cx="225" cy="229" r="5.0" fill="rgb(3,24,41)"/>
<circle cx="15" cy="243" r="7" fill="rgb(19,69,91)" opacity="0.35"/>
<circle cx="15" cy="243" r="5.0" fill="rgb(19,69,91)"/>
<circle cx="29" cy="243" r="7" fill="rgb(4,45,67)" opacity="0.35"/>
<circle cx="29" cy="243" r="5.0" fill="rgb(4,45,67)"/>
<circle cx="43" cy="243" r="7" fill="rgb(3,27,45)" opacity="0.35"/>
<circle cx="43" cy="243" r="5.0" fill="rgb(3,27,45)"/>
<circle cx="57" cy="243" r="7" fill="rgb(2,22,38)" opacity="0.35"/>
<circle cx="57" cy="243" r="5.0" fill="rgb(2,22,38)"/>
<circle cx="71" cy="243" r="7" fill="rgb(3,30,49)" opacity="0.35"/>
<circle cx="71" cy="243" r="5.0" fill="rgb(3,30,49)"/>
<circle cx="85" cy="243" r="7" fill="rgb(7,51,73)" opacity="0.35"/>
<circle cx="85" cy="243" r="5.0" fill="rgb(7,51,73)"/>
<circle cx="99" cy="243" r="7" fill="rgb(23,74,95)" opacity="0.35"/>
<circle cx="99" cy="243" r="5.0" fill="rgb(23,74,95)"/>
<circle cx="113" cy="243" r="7" fill="rgb(28,81,102)" opacity="0.35"/>
<circle cx="113" cy="243" r="5.0" fill="rgb(28,81,102)"/>
<circle cx="127" cy="243" r="7" fill="rgb(17,66,88)" opacity="0.35"/>
<circle cx="127" cy="243" r="5.0" fill="rgb(17,66,88)"/>
<circle cx="141" cy="243" r="7" fill="rgb(4,42,63)" opacity="0.35"/>
<circle cx="141" cy="243" r="5.0" fill="rgb(4,42,63)"/>
<circle cx="155" cy="243" r="7" fill="rgb(3,25,43)" opacity="0.35"/>
<circle cx="155" cy="243" r="5.0" fill="rgb(3,25,43)"/>
<circle cx="169" cy="243" r="7" fill="rgb(2,22,39)" opacity="0.35"/>
<circle cx="169" cy="243" r="5.0" fill="rgb(2,22,39)"/>
<circle cx="183" cy="243" r="7" fill="rgb(4,32,52)" opacity="0.35"/>
<circle cx="183" cy="243" r="5.0" fill="rgb(4,32,52)"/>
<circle cx="197" cy="243" r="7" fill="rgb(9,55,76)" opacity="0.35"/>
<circle cx="197" cy="243" r="5.0" fill="rgb(9,55,76)"/>
<circle cx="211" cy="243" r="7" fill="rgb(24,76,97)" opacity="0.35"/>
<circle cx="211" cy="243" r="5.0" fill="rgb(24,76,97)"/>
<circle cx="225" cy="243" r="7" fill="rgb(27,80,101)" opacity="0.35"/>
<circle cx="225" cy="243" r="5.0" fill="rgb(27,80,101)"/>
<circle cx="15" cy="257" r="7" fill="rgb(61,113,130)" opacity="0.35"/>
<circle cx="15" cy="257" r="5.0" fill="rgb(61,113,130)"/>
<circle cx="29" cy="257" r="7" fill="rgb(4,42,63)" opacity="0.35"/>
<circle cx="29" cy="257" r="5.0" fill="rgb(4,42,63)"/>
<circle cx="43" cy="257" r="5.0" fill="#14171c"/>
<circle cx="57" cy="257" r="5.0" fill="#14171c"/>
<circle cx="71" cy="257" r="7" fill="rgb(1,10,21)" opacity="0.35"/>
<circle cx="71" cy="257" r="5.0" fill="rgb(1,10,21)"/>
<circle cx="85" cy="257" r="7" fill="rgb(11,58,80)" opacity="0.35"/>
<circle cx="85" cy="257" r="5.0" fill="rgb(11,58,80)"/>
<circle cx="99" cy="257" r="7" fill="rgb(84,126,141)" opacity="0.35"/>
<circle cx="99" cy="257" r="5.0" fill="rgb(84,126,141)"/>
<circle cx="113" cy="257" r="7" fill="rgb(120,148,158)" opacity="0.35"/>
<circle cx="113" cy="257" r="5.0" fill="rgb(120,148,158)"/>
<circle cx="127" cy="257" r="7" fill="rgb(47,104,122)" opacity="0.35"/>
<circle cx="127" cy="257" r="5.0" fill="rgb(47,104,122)"/>
<circle cx="141" cy="257" r="7" fill="rgb(4,33,53)" opacity="0.35"/>
<circle cx="141" cy="257" r="5.0" fill="rgb(4,33,53)"/>
<circle cx="155" cy="257" r="5.0" fill="#14171c"/>
<circle cx="169" cy="257" r="5.0" fill="#14171c"/>
<circle cx="183" cy="257" r="7" fill="rgb(2,13,28)" opacity="0.35"/>
<circle cx="183" cy="257" r="5.0" fill="rgb(2,13,28)"/>
<circle cx="197" cy="257" r="7" fill="rgb(18,68,90)" opacity="0.35"/>
<circle cx="197" cy="257" r="5.0" fill="rgb(18,68,90)"/>
<circle cx="211" cy="257" r="7" fill="rgb(95,134,147)" opacity="0.35"/>
<circle cx="211" cy="257" r="5.0" fill="rgb(95,134,147)"/>
<circle cx="225" cy="257" r="7" fill="rgb(114,145,156)" opacity="0.35"/>
<circle cx="225" cy="257" r="5.0" fill="rgb(114,145,156)"/>
<circle cx="-2" cy="280" r="9" fill="#9aa0a6" opacity="0.25"/>
<circle cx="-2" cy="280" r="6" fill="#9aa0a6" stroke="#0d0f12" stroke-width="1.5"/>
<text x="10" y="284" font-family="'JetBrains Mono','Cascadia Mono','Consolas',monospace" font-size="12" fill="#a0a0a0">Mids</text>
<circle cx="242" cy="280" r="9" fill="#5ad1ff" opacity="0.25"/>
<circle cx="242" cy="280" r="6" fill="#5ad1ff" stroke="#0d0f12" stroke-width="1.5"/>
<text x="230" y="284" text-anchor="end" font-family="'JetBrains Mono','Cascadia Mono','Consolas',monospace" font-size="12" fill="#a0a0a0">Frame</text>
<circle cx="-2" cy="308" r="9" fill="#9aa0a6" opacity="0.25"/>
<circle cx="-2" cy="308" r="6" fill="#9aa0a6" stroke="#0d0f12" stroke-width="1.5"/>
<text x="10" y="312" font-family="'JetBrains Mono','Cascadia Mono','Consolas',monospace" font-size="12" fill="#a0a0a0">Energy</text>
<circle cx="-2" cy="336" r="9" fill="#9aa0a6" opacity="0.25"/>
<circle cx="-2" cy="336" r="6" fill="#9aa0a6" stroke="#0d0f12" stroke-width="1.5"/>
<text x="10" y="340" font-family="'JetBrains Mono','Cascadia Mono','Consolas',monospace" font-size="12" fill="#a0a0a0">Speed</text>
<circle cx="-2" cy="364" r="9" fill="#ff5cf0" opacity="0.25"/>
<circle cx="-2" cy="364" r="6" fill="#ff5cf0" stroke="#0d0f12" stroke-width="1.5"/>
<text x="10" y="368" font-family="'JetBrains Mono','Cascadia Mono','Consolas',monospace" font-size="12" fill="#a0a0a0">Palette</text>
<line x1="8" y1="384" x2="232" y2="384" stroke="rgba(255,255,255,0.08)"/>
<text x="8" y="404" font-family="'JetBrains Mono','Cascadia Mono','Consolas',monospace" font-size="12" fill="#a0a0a0">energy</text>
<g>
<rect x="120" y="398" width="72" height="4" rx="2" fill="#cfd2d6" opacity="0.85"/>
<rect x="120" y="398" width="50.4" height="4" rx="2" fill="#d633ff"/>
<circle cx="170.4" cy="400" r="5" fill="#d633ff"/>
<text x="232" y="404" text-anchor="end" font-family="'JetBrains Mono','Cascadia Mono','Consolas',monospace" font-size="12" fill="#e0e0e0">0.7</text>
</g>
<text x="8" y="425" font-family="'JetBrains Mono','Cascadia Mono','Consolas',monospace" font-size="12" fill="#a0a0a0">speed</text>
<g>
<rect x="120" y="419" width="72" height="4" rx="2" fill="#cfd2d6" opacity="0.85"/>
<rect x="120" y="419" width="72.0" height="4" rx="2" fill="#d633ff"/>
<circle cx="192.0" cy="421" r="5" fill="#d633ff"/>
<text x="232" y="425" text-anchor="end" font-family="'JetBrains Mono','Cascadia Mono','Consolas',monospace" font-size="12" fill="#e0e0e0">1</text>
</g>
<text x="8" y="446" font-family="'JetBrains Mono','Cascadia Mono','Consolas',monospace" font-size="12" fill="#a0a0a0">palette</text>
<g>
<rect x="148" y="434" width="84" height="16" rx="4" fill="#0d0f12" stroke="rgba(255,255,255,0.12)"/>
<text x="152" y="446" font-family="'JetBrains Mono','Cascadia Mono','Consolas',monospace" font-size="11" fill="#e0e0e0">ocean</text>
<text x="228" y="446" text-anchor="end" font-size="8" fill="#a0a0a0">▾</text>
</g>
<text x="8" y="467" font-family="'JetBrains Mono','Cascadia Mono','Consolas',monospace" font-size="12" fill="#a0a0a0">clamp inputs</text>
<g>
<rect x="220" y="457" width="12" height="12" rx="3" fill="#0d0f12" stroke="rgba(255,255,255,0.12)"/>
</g>
</g>
</svg>
