<svg xmlns="http://www.w3.org/2000/svg" viewBox="0 0 296 531" width="296" height="531" role="img" aria-label="Mirror node">

<defs><filter id="shadow" x="-20%" y="-20%" width="140%" height="160%"><feDropShadow dx="0" dy="8" stdDeviation="9" flood-color="#000" flood-opacity="0.45"/></filter></defs>
<g transform="translate(28,24)">
<rect x="0" y="0" width="240" height="473" rx="8" fill="#1f242b" stroke="rgba(255,255,255,0.12)" filter="url(#shadow)"/>
<rect x="0" y="0" width="240" height="473" rx="8" fill="#1f242b" stroke="rgba(255,255,255,0.12)"/>
<path d="M0,32 L0,8 Q0,0 8,0 L232,0 Q240,0 240,8 L240,32 Z" fill="#3333ff"/>
<text x="8" y="21" font-family="'Audiowide','Trebuchet MS','Arial Black',sans-serif" font-size="14" font-weight="600" fill="#000">Mirror · Hori…</text>
<rect x="154" y="10" width="25" height="12" rx="6" fill="rgba(0,0,0,0.14)" stroke="rgba(255,255,255,0.14)"/>
<text x="166.5" y="19" text-anchor="middle" font-family="'JetBrains Mono','Cascadia Mono','Consolas',monospace" font-size="8" letter-spacing="0.08em" fill="#000">CMP</text>
<rect x="185" y="10" width="47" height="12" rx="6" fill="rgba(0,0,0,0.14)" stroke="rgba(255,255,255,0.14)"/>
<text x="208.5" y="19" text-anchor="middle" font-family="'JetBrains Mono','Cascadia Mono','Consolas',monospace" font-size="8" letter-spacing="0.08em" fill="#000">MIR-315</text>
<rect x="8" y="40" width="224" height="224" rx="4" fill="#05070a"/>
<circle cx="15" cy="47" r="7" fill="rgb(255,141,0)" opacity="0.35"/>
<circle cx="15" cy="47" r="5.0" fill="rgb(255,141,0)"/>
<circle cx="29" cy="47" r="7" fill="rgb(255,81,0)" opacity="0.35"/>
<circle cx="29" cy="47" r="5.0" fill="rgb(255,81,0)"/>
<circle cx="43" cy="47" r="7" fill="rgb(255,31,0)" opacity="0.35"/>
<circle cx="43" cy="47" r="5.0" fill="rgb(255,31,0)"/>
<circle cx="57" cy="47" r="7" fill="rgb(212,1,249)" opacity="0.35"/>
<circle cx="57" cy="47" r="5.0" fill="rgb(212,1,249)"/>
<circle cx="71" cy="47" r="7" fill="rgb(193,10,250)" opacity="0.35"/>
<circle cx="71" cy="47" r="5.0" fill="rgb(193,10,250)"/>
<circle cx="85" cy="47" r="7" fill="rgb(195,9,250)" opacity="0.35"/>
<circle cx="85" cy="47" r="5.0" fill="rgb(195,9,250)"/>
<circle cx="99" cy="47" r="7" fill="rgb(213,0,249)" opacity="0.35"/>
<circle cx="99" cy="47" r="5.0" fill="rgb(213,0,249)"/>
<circle cx="113" cy="47" r="7" fill="rgb(255,20,0)" opacity="0.35"/>
<circle cx="113" cy="47" r="5.0" fill="rgb(255,20,0)"/>
<circle cx="127" cy="47" r="7" fill="rgb(255,20,0)" opacity="0.35"/>
<circle cx="127" cy="47" r="5.0" fill="rgb(255,20,0)"/>
<circle cx="141" cy="47" r="7" fill="rgb(213,0,249)" opacity="0.35"/>
<circle cx="141" cy="47" r="5.0" fill="rgb(213,0,249)"/>
<circle cx="155" cy="47" r="7" fill="rgb(195,9,250)" opacity="0.35"/>
<circle cx="155" cy="47" r="5.0" fill="rgb(195,9,250)"/>
<circle cx="169" cy="47" r="7" fill="rgb(193,10,250)" opacity="0.35"/>
<circle cx="169" cy="47" r="5.0" fill="rgb(193,10,250)"/>
<circle cx="183" cy="47" r="7" fill="rgb(212,1,249)" opacity="0.35"/>
<circle cx="183" cy="47" r="5.0" fill="rgb(212,1,249)"/>
<circle cx="197" cy="47" r="7" fill="rgb(255,31,0)" opacity="0.35"/>
<circle cx="197" cy="47" r="5.0" fill="rgb(255,31,0)"/>
<circle cx="211" cy="47" r="7" fill="rgb(255,81,0)" opacity="0.35"/>
<circle cx="211" cy="47" r="5.0" fill="rgb(255,81,0)"/>
<circle cx="225" cy="47" r="7" fill="rgb(255,141,0)" opacity="0.35"/>
<circle cx="225" cy="47" r="5.0" fill="rgb(255,141,0)"/>
<circle cx="15" cy="61" r="7" fill="rgb(255,62,0)" opacity="0.35"/>
<circle cx="15" cy="61" r="5.0" fill="rgb(255,62,0)"/>
<circle cx="29" cy="61" r="7" fill="rgb(208,3,249)" opacity="0.35"/>
<circle cx="29" cy="61" r="5.0" fill="rgb(208,3,249)"/>
<circle cx="43" cy="61" r="7" fill="rgb(144,33,251)" opacity="0.35"/>
<circle cx="43" cy="61" r="5.0" fill="rgb(144,33,251)"/>
<circle cx="57" cy="61" r="7" fill="rgb(107,51,252)" opacity="0.35"/>
<circle cx="57" cy="61" r="5.0" fill="rgb(107,51,252)"/>
<circle cx="71" cy="61" r="7" fill="rgb(96,56,253)" opacity="0.35"/>
<circle cx="71" cy="61" r="5.0" fill="rgb(96,56,253)"/>
<circle cx="85" cy="61" r="7" fill="rgb(107,51,252)" opacity="0.35"/>
<circle cx="85" cy="61" r="5.0" fill="rgb(107,51,252)"/>
<circle cx="99" cy="61" r="7" fill="rgb(134,38,251)" opacity="0.35"/>
<circle cx="99" cy="61" r="5.0" fill="rgb(134,38,251)"/>
<circle cx="113" cy="61" r="7" fill="rgb(170,21,250)" opacity="0.35"/>
<circle cx="113" cy="61" r="5.0" fill="rgb(170,21,250)"/>
<circle cx="127" cy="61" r="7" fill="rgb(170,21,250)" opacity="0.35"/>
<circle cx="127" cy="61" r="5.0" fill="rgb(170,21,250)"/>
<circle cx="141" cy="61" r="7" fill="rgb(134,38,251)" opacity="0.35"/>
<circle cx="141" cy="61" r="5.0" fill="rgb(134,38,251)"/>
<circle cx="155" cy="61" r="7" fill="rgb(107,51,252)" opacity="0.35"/>
<circle cx="155" cy="61" r="5.0" fill="rgb(107,51,252)"/>
<circle cx="169" cy="61" r="7" fill="rgb(96,56,253)" opacity="0.35"/>
<circle cx="169" cy="61" r="5.0" fill="rgb(96,56,253)"/>
<circle cx="183" cy="61" r="7" fill="rgb(107,51,252)" opacity="0.35"/>
<circle cx="183" cy="61" r="5.0" fill="rgb(107,51,252)"/>
<circle cx="197" cy="61" r="7" fill="rgb(144,33,251)" opacity="0.35"/>
<circle cx="197" cy="61" r="5.0" fill="rgb(144,33,251)"/>
<circle cx="211" cy="61" r="7" fill="rgb(208,3,249)" opacity="0.35"/>
<circle cx="211" cy="61" r="5.0" fill="rgb(208,3,249)"/>
<circle cx="225" cy="61" r="7" fill="rgb(255,62,0)" opacity="0.35"/>
<circle cx="225" cy="61" r="5.0" fill="rgb(255,62,0)"/>
<circle cx="15" cy="75" r="7" fill="rgb(192,10,250)" opacity="0.35"/>
<circle cx="15" cy="75" r="5.0" fill="rgb(192,10,250)"/>
<circle cx="29" cy="75" r="7" fill="rgb(107,51,252)" opacity="0.35"/>
<circle cx="29" cy="75" r="5.0" fill="rgb(107,51,252)"/>
<circle cx="43" cy="75" r="7" fill="rgb(50,78,254)" opacity="0.35"/>
<circle cx="43" cy="75" r="5.0" fill="rgb(50,78,254)"/>
<circle cx="57" cy="75" r="7" fill="rgb(41,94,254)" opacity="0.35"/>
<circle cx="57" cy="75" r="5.0" fill="rgb(41,94,254)"/>
<circle cx="71" cy="75" r="7" fill="rgb(41,94,254)" opacity="0.35"/>
<circle cx="71" cy="75" r="5.0" fill="rgb(41,94,254)"/>
<circle cx="85" cy="75" r="7" fill="rgb(47,81,254)" opacity="0.35"/>
<circle cx="85" cy="75" r="5.0" fill="rgb(47,81,254)"/>
<circle cx="99" cy="75" r="7" fill="rgb(83,62,253)" opacity="0.35"/>
<circle cx="99" cy="75" r="5.0" fill="rgb(83,62,253)"/>
<circle cx="113" cy="75" r="7" fill="rgb(129,40,252)" opacity="0.35"/>
<circle cx="113" cy="75" r="5.0" fill="rgb(129,40,252)"/>
<circle cx="127" cy="75" r="7" fill="rgb(129,40,252)" opacity="0.35"/>
<circle cx="127" cy="75" r="5.0" fill="rgb(129,40,252)"/>
<circle cx="141" cy="75" r="7" fill="rgb(83,62,253)" opacity="0.35"/>
<circle cx="141" cy="75" r="5.0" fill="rgb(83,62,253)"/>
<circle cx="155" cy="75" r="7" fill="rgb(47,81,254)" opacity="0.35"/>
<circle cx="155" cy="75" r="5.0" fill="rgb(47,81,254)"/>
<circle cx="169" cy="75" r="7" fill="rgb(41,94,254)" opacity="0.35"/>
<circle cx="169" cy="75" r="5.0" fill="rgb(41,94,254)"/>
<circle cx="183" cy="75" r="7" fill="rgb(41,94,254)" opacity="0.35"/>
<circle cx="183" cy="75" r="5.0" fill="rgb(41,94,254)"/>
<circle cx="197" cy="75" r="7" fill="rgb(50,78,254)" opacity="0.35"/>
<circle cx="197" cy="75" r="5.0" fill="rgb(50,78,254)"/>
<circle cx="211" cy="75" r="7" fill="rgb(107,51,252)" opacity="0.35"/>
<circle cx="211" cy="75" r="5.0" fill="rgb(107,51,252)"/>
<circle cx="225" cy="75" r="7" fill="rgb(192,10,250)" opacity="0.35"/>
<circle cx="225" cy="75" r="5.0" fill="rgb(192,10,250)"/>
<circle cx="15" cy="89" r="7" fill="rgb(106,51,252)" opacity="0.35"/>
<circle cx="15" cy="89" r="5.0" fill="rgb(106,51,252)"/>
<circle cx="29" cy="89" r="7" fill="rgb(42,91,254)" opacity="0.35"/>
<circle cx="29" cy="89" r="5.0" fill="rgb(42,91,254)"/>
<circle cx="43" cy="89" r="7" fill="rgb(28,119,254)" opacity="0.35"/>
<circle cx="43" cy="89" r="5.0" fill="rgb(28,119,254)"/>
<circle cx="57" cy="89" r="7" fill="rgb(23,129,255)" opacity="0.35"/>
<circle cx="57" cy="89" r="5.0" fill="rgb(23,129,255)"/>
<circle cx="71" cy="89" r="7" fill="rgb(27,121,254)" opacity="0.35"/>
<circle cx="71" cy="89" r="5.0" fill="rgb(27,121,254)"/>
<circle cx="85" cy="89" r="7" fill="rgb(38,99,254)" opacity="0.35"/>
<circle cx="85" cy="89" r="5.0" fill="rgb(38,99,254)"/>
<circle cx="99" cy="89" r="7" fill="rgb(65,71,253)" opacity="0.35"/>
<circle cx="99" cy="89" r="5.0" fill="rgb(65,71,253)"/>
<circle cx="113" cy="89" r="7" fill="rgb(122,44,252)" opacity="0.35"/>
<circle cx="113" cy="89" r="5.0" fill="rgb(122,44,252)"/>
<circle cx="127" cy="89" r="7" fill="rgb(122,44,252)" opacity="0.35"/>
<circle cx="127" cy="89" r="5.0" fill="rgb(122,44,252)"/>
<circle cx="141" cy="89" r="7" fill="rgb(65,71,253)" opacity="0.35"/>
<circle cx="141" cy="89" r="5.0" fill="rgb(65,71,253)"/>
<circle cx="155" cy="89" r="7" fill="rgb(38,99,254)" opacity="0.35"/>
<circle cx="155" cy="89" r="5.0" fill="rgb(38,99,254)"/>
<circle cx="169" cy="89" r="7" fill="rgb(27,121,254)" opacity="0.35"/>
<circle cx="169" cy="89" r="5.0" fill="rgb(27,121,254)"/>
<circle cx="183" cy="89" r="7" fill="rgb(23,129,255)" opacity="0.35"/>
<circle cx="183" cy="89" r="5.0" fill="rgb(23,129,255)"/>
<circle cx="197" cy="89" r="7" fill="rgb(28,119,254)" opacity="0.35"/>
<circle cx="197" cy="89" r="5.0" fill="rgb(28,119,254)"/>
<circle cx="211" cy="89" r="7" fill="rgb(42,91,254)" opacity="0.35"/>
<circle cx="211" cy="89" r="5.0" fill="rgb(42,91,254)"/>
<circle cx="225" cy="89" r="7" fill="rgb(106,51,252)" opacity="0.35"/>
<circle cx="225" cy="89" r="5.0" fill="rgb(106,51,252)"/>
<circle cx="15" cy="103" r="7" fill="rgb(46,83,254)" opacity="0.35"/>
<circle cx="15" cy="103" r="5.0" fill="rgb(46,83,254)"/>
<circle cx="29" cy="103" r="7" fill="rgb(26,124,254)" opacity="0.35"/>
<circle cx="29" cy="103" r="5.0" fill="rgb(26,124,254)"/>
<circle cx="43" cy="103" r="7" fill="rgb(15,146,255)" opacity="0.35"/>
<circle cx="43" cy="103" r="5.0" fill="rgb(15,146,255)"/>
<circle cx="57" cy="103" r="7" fill="rgb(14,147,255)" opacity="0.35"/>
<circle cx="57" cy="103" r="5.0" fill="rgb(14,147,255)"/>
<circle cx="71" cy="103" r="7" fill="rgb(22,131,255)" opacity="0.35"/>
<circle cx="71" cy="103" r="5.0" fill="rgb(22,131,255)"/>
<circle cx="85" cy="103" r="7" fill="rgb(37,100,254)" opacity="0.35"/>
<circle cx="85" cy="103" r="5.0" fill="rgb(37,100,254)"/>
<circle cx="99" cy="103" r="7" fill="rgb(77,65,253)" opacity="0.35"/>
<circle cx="99" cy="103" r="5.0" fill="rgb(77,65,253)"/>
<circle cx="113" cy="103" r="7" fill="rgb(147,32,251)" opacity="0.35"/>
<circle cx="113" cy="103" r="5.0" fill="rgb(147,32,251)"/>
<circle cx="127" cy="103" r="7" fill="rgb(147,32,251)" opacity="0.35"/>
<circle cx="127" cy="103" r="5.0" fill="rgb(147,32,251)"/>
<circle cx="141" cy="103" r="7" fill="rgb(77,65,253)" opacity="0.35"/>
<circle cx="141" cy="103" r="5.0" fill="rgb(77,65,253)"/>
<circle cx="155" cy="103" r="7" fill="rgb(37,100,254)" opacity="0.35"/>
<circle cx="155" cy="103" r="5.0" fill="rgb(37,100,254)"/>
<circle cx="169" cy="103" r="7" fill="rgb(22,131,255)" opacity="0.35"/>
<circle cx="169" cy="103" r="5.0" fill="rgb(22,131,255)"/>
<circle cx="183" cy="103" r="7" fill="rgb(14,147,255)" opacity="0.35"/>
<circle cx="183" cy="103" r="5.0" fill="rgb(14,147,255)"/>
<circle cx="197" cy="103" r="7" fill="rgb(15,146,255)" opacity="0.35"/>
<circle cx="197" cy="103" r="5.0" fill="rgb(15,146,255)"/>
<circle cx="211" cy="103" r="7" fill="rgb(26,124,254)" opacity="0.35"/>
<circle cx="211" cy="103" r="5.0" fill="rgb(26,124,254)"/>
<circle cx="225" cy="103" r="7" fill="rgb(46,83,254)" opacity="0.35"/>
<circle cx="225" cy="103" r="5.0" fill="rgb(46,83,254)"/>
<circle cx="15" cy="117" r="7" fill="rgb(35,106,254)" opacity="0.35"/>
<circle cx="15" cy="117" r="5.0" fill="rgb(35,106,254)"/>
<circle cx="29" cy="117" r="7" fill="rgb(17,142,255)" opacity="0.35"/>
<circle cx="29" cy="117" r="5.0" fill="rgb(17,142,255)"/>
<circle cx="43" cy="117" r="7" fill="rgb(9,157,255)" opacity="0.35"/>
<circle cx="43" cy="117" r="5.0" fill="rgb(9,157,255)"/>
<circle cx="57" cy="117" r="7" fill="rgb(13,150,255)" opacity="0.35"/>
<circle cx="57" cy="117" r="5.0" fill="rgb(13,150,255)"/>
<circle cx="71" cy="117" r="7" fill="rgb(25,125,254)" opacity="0.35"/>
<circle cx="71" cy="117" r="5.0" fill="rgb(25,125,254)"/>
<circle cx="85" cy="117" r="7" fill="rgb(45,85,254)" opacity="0.35"/>
<circle cx="85" cy="117" r="5.0" fill="rgb(45,85,254)"/>
<circle cx="99" cy="117" r="7" fill="rgb(118,45,252)" opacity="0.35"/>
<circle cx="99" cy="117" r="5.0" fill="rgb(118,45,252)"/>
<circle cx="113" cy="117" r="7" fill="rgb(201,6,249)" opacity="0.35"/>
<circle cx="113" cy="117" r="5.0" fill="rgb(201,6,249)"/>
<circle cx="127" cy="117" r="7" fill="rgb(201,6,249)" opacity="0.35"/>
<circle cx="127" cy="117" r="5.0" fill="rgb(201,6,249)"/>
<circle cx="141" cy="117" r="7" fill="rgb(118,45,252)" opacity="0.35"/>
<circle cx="141" cy="117" r="5.0" fill="rgb(118,45,252)"/>
<circle cx="155" cy="117" r="7" fill="rgb(45,85,254)" opacity="0.35"/>
<circle cx="155" cy="117" r="5.0" fill="rgb(45,85,254)"/>
<circle cx="169" cy="117" r="7" fill="rgb(25,125,254)" opacity="0.35"/>
<circle cx="169" cy="117" r="5.0" fill="rgb(25,125,254)"/>
<circle cx="183" cy="117" r="7" fill="rgb(13,150,255)" opacity="0.35"/>
<circle cx="183" cy="117" r="5.0" fill="rgb(13,150,255)"/>
<circle cx="197" cy="117" r="7" fill="rgb(9,157,255)" opacity="0.35"/>
<circle cx="197" cy="117" r="5.0" fill="rgb(9,157,255)"/>
<circle cx="211" cy="117" r="7" fill="rgb(17,142,255)" opacity="0.35"/>
<circle cx="211" cy="117" r="5.0" fill="rgb(17,142,255)"/>
<circle cx="225" cy="117" r="7" fill="rgb(35,106,254)" opacity="0.35"/>
<circle cx="225" cy="117" r="5.0" fill="rgb(35,106,254)"/>
<circle cx="15" cy="131" r="7" fill="rgb(30,115,254)" opacity="0.35"/>
<circle cx="15" cy="131" r="5.0" fill="rgb(30,115,254)"/>
<circle cx="29" cy="131" r="7" fill="rgb(15,146,255)" opacity="0.35"/>
<circle cx="29" cy="131" r="5.0" fill="rgb(15,146,255)"/>
<circle cx="43" cy="131" r="7" fill="rgb(11,154,255)" opacity="0.35"/>
<circle cx="43" cy="131" r="5.0" fill="rgb(11,154,255)"/>
<circle cx="57" cy="131" r="7" fill="rgb(18,140,255)" opacity="0.35"/>
<circle cx="57" cy="131" r="5.0" fill="rgb(18,140,255)"/>
<circle cx="71" cy="131" r="7" fill="rgb(35,106,254)" opacity="0.35"/>
<circle cx="71" cy="131" r="5.0" fill="rgb(35,106,254)"/>
<circle cx="85" cy="131" r="7" fill="rgb(85,61,253)" opacity="0.35"/>
<circle cx="85" cy="131" r="5.0" fill="rgb(85,61,253)"/>
<circle cx="99" cy="131" r="7" fill="rgb(181,15,250)" opacity="0.35"/>
<circle cx="99" cy="131" r="5.0" fill="rgb(181,15,250)"/>
<circle cx="113" cy="131" r="7" fill="rgb(255,48,0)" opacity="0.35"/>
<circle cx="113" cy="131" r="5.0" fill="rgb(255,48,0)"/>
<circle cx="127" cy="131" r="7" fill="rgb(255,48,0)" opacity="0.35"/>
<circle cx="127" cy="131" r="5.0" fill="rgb(255,48,0)"/>
<circle cx="141" cy="131" r="7" fill="rgb(181,15,250)" opacity="0.35"/>
<circle cx="141" cy="131" r="5.0" fill="rgb(181,15,250)"/>
<circle cx="155" cy="131" r="7" fill="rgb(85,61,253)" opacity="0.35"/>
<circle cx="155" cy="131" r="5.0" fill="rgb(85,61,253)"/>
<circle cx="169" cy="131" r="7" fill="rgb(35,106,254)" opacity="0.35"/>
<circle cx="169" cy="131" r="5.0" fill="rgb(35,106,254)"/>
<circle cx="183" cy="131" r="7" fill="rgb(18,140,255)" opacity="0.35"/>
<circle cx="183" cy="131" r="5.0" fill="rgb(18,140,255)"/>
<circle cx="197" cy="131" r="7" fill="rgb(11,154,255)" opacity="0.35"/>
<circle cx="197" cy="131" r="5.0" fill="rgb(11,154,255)"/>
<circle cx="211" cy="131" r="7" fill="rgb(15,146,255)" opacity="0.35"/>
<circle cx="211" cy="131" r="5.0" fill="rgb(15,146,255)"/>
<circle cx="225" cy="131" r="7" fill="rgb(30,115,254)" opacity="0.35"/>
<circle cx="225" cy="131" r="5.0" fill="rgb(30,115,254)"/>
<circle cx="15" cy="145" r="7" fill="rgb(32,112,254)" opacity="0.35"/>
<circle cx="15" cy="145" r="5.0" fill="rgb(32,112,254)"/>
<circle cx="29" cy="145" r="7" fill="rgb(19,138,255)" opacity="0.35"/>
<circle cx="29" cy="145" r="5.0" fill="rgb(19,138,255)"/>
<circle cx="43" cy="145" r="7" fill="rgb(18,140,255)" opacity="0.35"/>
<circle cx="43" cy="145" r="5.0" fill="rgb(18,140,255)"/>
<circle cx="57" cy="145" r="7" fill="rgb(28,119,254)" opacity="0.35"/>
<circle cx="57" cy="145" r="5.0" fill="rgb(28,119,254)"/>
<circle cx="71" cy="145" r="7" fill="rgb(49,78,254)" opacity="0.35"/>
<circle cx="71" cy="145" r="5.0" fill="rgb(49,78,254)"/>
<circle cx="85" cy="145" r="7" fill="rgb(145,33,251)" opacity="0.35"/>
<circle cx="85" cy="145" r="5.0" fill="rgb(145,33,251)"/>
<circle cx="99" cy="145" r="7" fill="rgb(255,31,0)" opacity="0.35"/>
<circle cx="99" cy="145" r="5.0" fill="rgb(255,31,0)"/>
<circle cx="113" cy="145" r="7" fill="rgb(255,114,0)" opacity="0.35"/>
<circle cx="113" cy="145" r="5.0" fill="rgb(255,114,0)"/>
<circle cx="127" cy="145" r="7" fill="rgb(255,114,0)" opacity="0.35"/>
<circle cx="127" cy="145" r="5.0" fill="rgb(255,114,0)"/>
<circle cx="141" cy="145" r="7" fill="rgb(255,31,0)" opacity="0.35"/>
<circle cx="141" cy="145" r="5.0" fill="rgb(255,31,0)"/>
<circle cx="155" cy="145" r="7" fill="rgb(145,33,251)" opacity="0.35"/>
<circle cx="155" cy="145" r="5.0" fill="rgb(145,33,251)"/>
<circle cx="169" cy="145" r="7" fill="rgb(49,78,254)" opacity="0.35"/>
<circle cx="169" cy="145" r="5.0" fill="rgb(49,78,254)"/>
<circle cx="183" cy="145" r="7" fill="rgb(28,119,254)" opacity="0.35"/>
<circle cx="183" cy="145" r="5.0" fill="rgb(28,119,254)"/>
<circle cx="197" cy="145" r="7" fill="rgb(18,140,255)" opacity="0.35"/>
<circle cx="197" cy="145" r="5.0" fill="rgb(18,140,255)"/>
<circle cx="211" cy="145" r="7" fill="rgb(19,138,255)" opacity="0.35"/>
<circle cx="211" cy="145" r="5.0" fill="rgb(19,138,255)"/>
<circle cx="225" cy="145" r="7" fill="rgb(32,112,254)" opacity="0.35"/>
<circle cx="225" cy="145" r="5.0" fill="rgb(32,112,254)"/>
<circle cx="15" cy="159" r="7" fill="rgb(38,99,254)" opacity="0.35"/>
<circle cx="15" cy="159" r="5.0" fill="rgb(38,99,254)"/>
<circle cx="29" cy="159" r="7" fill="rgb(27,121,254)" opacity="0.35"/>
<circle cx="29" cy="159" r="5.0" fill="rgb(27,121,254)"/>
<circle cx="43" cy="159" r="7" fill="rgb(28,118,254)" opacity="0.35"/>
<circle cx="43" cy="159" r="5.0" fill="rgb(28,118,254)"/>
<circle cx="57" cy="159" r="7" fill="rgb(41,93,254)" opacity="0.35"/>
<circle cx="57" cy="159" r="5.0" fill="rgb(41,93,254)"/>
<circle cx="71" cy="159" r="7" fill="rgb(104,52,252)" opacity="0.35"/>
<circle cx="71" cy="159" r="5.0" fill="rgb(104,52,252)"/>
<circle cx="85" cy="159" r="7" fill="rgb(209,2,249)" opacity="0.35"/>
<circle cx="85" cy="159" r="5.0" fill="rgb(209,2,249)"/>
<circle cx="99" cy="159" r="7" fill="rgb(255,86,0)" opacity="0.35"/>
<circle cx="99" cy="159" r="5.0" fill="rgb(255,86,0)"/>
<circle cx="113" cy="159" r="7" fill="rgb(255,163,0)" opacity="0.35"/>
<circle cx="113" cy="159" r="5.0" fill="rgb(255,163,0)"/>
<circle cx="127" cy="159" r="7" fill="rgb(255,163,0)" opacity="0.35"/>
<circle cx="127" cy="159" r="5.0" fill="rgb(255,163,0)"/>
<circle cx="141" cy="159" r="7" fill="rgb(255,86,0)" opacity="0.35"/>
<circle cx="141" cy="159" r="5.0" fill="rgb(255,86,0)"/>
<circle cx="155" cy="159" r="7" fill="rgb(209,2,249)" opacity="0.35"/>
<circle cx="155" cy="159" r="5.0" fill="rgb(209,2,249)"/>
<circle cx="169" cy="159" r="7" fill="rgb(104,52,252)" opacity="0.35"/>
<circle cx="169" cy="159" r="5.0" fill="rgb(104,52,252)"/>
<circle cx="183" cy="159" r="7" fill="rgb(41,93,254)" opacity="0.35"/>
<circle cx="183" cy="159" r="5.0" fill="rgb(41,93,254)"/>
<circle cx="197" cy="159" r="7" fill="rgb(28,118,254)" opacity="0.35"/>
<circle cx="197" cy="159" r="5.0" fill="rgb(28,118,254)"/>
<circle cx="211" cy="159" r="7" fill="rgb(27,121,254)" opacity="0.35"/>
<circle cx="211" cy="159" r="5.0" fill="rgb(27,121,254)"/>
<circle cx="225" cy="159" r="7" fill="rgb(38,99,254)" opacity="0.35"/>
<circle cx="225" cy="159" r="5.0" fill="rgb(38,99,254)"/>
<circle cx="15" cy="173" r="7" fill="rgb(51,78,254)" opacity="0.35"/>
<circle cx="15" cy="173" r="5.0" fill="rgb(51,78,254)"/>
<circle cx="29" cy="173" r="7" fill="rgb(39,97,254)" opacity="0.35"/>
<circle cx="29" cy="173" r="5.0" fill="rgb(39,97,254)"/>
<circle cx="43" cy="173" r="7" fill="rgb(42,92,254)" opacity="0.35"/>
<circle cx="43" cy="173" r="5.0" fill="rgb(42,92,254)"/>
<circle cx="57" cy="173" r="7" fill="rgb(76,66,253)" opacity="0.35"/>
<circle cx="57" cy="173" r="5.0" fill="rgb(76,66,253)"/>
<circle cx="71" cy="173" r="7" fill="rgb(159,26,251)" opacity="0.35"/>
<circle cx="71" cy="173" r="5.0" fill="rgb(159,26,251)"/>
<circle cx="85" cy="173" r="7" fill="rgb(255,41,0)" opacity="0.35"/>
<circle cx="85" cy="173" r="5.0" fill="rgb(255,41,0)"/>
<circle cx="99" cy="173" r="7" fill="rgb(255,130,0)" opacity="0.35"/>
<circle cx="99" cy="173" r="5.0" fill="rgb(255,130,0)"/>
<circle cx="113" cy="173" r="7" fill="rgb(255,197,0)" opacity="0.35"/>
<circle cx="113" cy="173" r="5.0" fill="rgb(255,197,0)"/>
<circle cx="127" cy="173" r="7" fill="rgb(255,197,0)" opacity="0.35"/>
<circle cx="127" cy="173" r="5.0" fill="rgb(255,197,0)"/>
<circle cx="141" cy="173" r="7" fill="rgb(255,130,0)" opacity="0.35"/>
<circle cx="141" cy="173" r="5.0" fill="rgb(255,130,0)"/>
<circle cx="155" cy="173" r="7" fill="rgb(255,41,0)" opacity="0.35"/>
<circle cx="155" cy="173" r="5.0" fill="rgb(255,41,0)"/>
<circle cx="169" cy="173" r="7" fill="rgb(159,26,251)" opacity="0.35"/>
<circle cx="169" cy="173" r="5.0" fill="rgb(159,26,251)"/>
<circle cx="183" cy="173" r="7" fill="rgb(76,66,253)" opacity="0.35"/>
<circle cx="183" cy="173" r="5.0" fill="rgb(76,66,253)"/>
<circle cx="197" cy="173" r="7" fill="rgb(42,92,254)" opacity="0.35"/>
<circle cx="197" cy="173" r="5.0" fill="rgb(42,92,254)"/>
<circle cx="211" cy="173" r="7" fill="rgb(39,97,254)" opacity="0.35"/>
<circle cx="211" cy="173" r="5.0" fill="rgb(39,97,254)"/>
<circle cx="225" cy="173" r="7" fill="rgb(51,78,254)" opacity="0.35"/>
<circle cx="225" cy="173" r="5.0" fill="rgb(51,78,254)"/>
<circle cx="15" cy="187" r="7" fill="rgb(94,57,253)" opacity="0.35"/>
<circle cx="15" cy="187" r="5.0" fill="rgb(94,57,253)"/>
<circle cx="29" cy="187" r="7" fill="rgb(64,71,254)" opacity="0.35"/>
<circle cx="29" cy="187" r="5.0" fill="rgb(64,71,254)"/>
<circle cx="43" cy="187" r="7" fill="rgb(75,66,253)" opacity="0.35"/>
<circle cx="43" cy="187" r="5.0" fill="rgb(75,66,253)"/>
<circle cx="57" cy="187" r="7" fill="rgb(126,42,252)" opacity="0.35"/>
<circle cx="57" cy="187" r="5.0" fill="rgb(126,42,252)"/>
<circle cx="71" cy="187" r="7" fill="rgb(211,1,249)" opacity="0.35"/>
<circle cx="71" cy="187" r="5.0" fill="rgb(211,1,249)"/>
<circle cx="85" cy="187" r="7" fill="rgb(255,79,0)" opacity="0.35"/>
<circle cx="85" cy="187" r="5.0" fill="rgb(255,79,0)"/>
<circle cx="99" cy="187" r="7" fill="rgb(255,157,0)" opacity="0.35"/>
<circle cx="99" cy="187" r="5.0" fill="rgb(255,157,0)"/>
<circle cx="113" cy="187" r="7" fill="rgb(228,212,9)" opacity="0.35"/>
<circle cx="113" cy="187" r="5.0" fill="rgb(228,212,9)"/>
<circle cx="127" cy="187" r="7" fill="rgb(228,212,9)" opacity="0.35"/>
<circle cx="127" cy="187" r="5.0" fill="rgb(228,212,9)"/>
<circle cx="141" cy="187" r="7" fill="rgb(255,157,0)" opacity="0.35"/>
<circle cx="141" cy="187" r="5.0" fill="rgb(255,157,0)"/>
<circle cx="155" cy="187" r="7" fill="rgb(255,79,0)" opacity="0.35"/>
<circle cx="155" cy="187" r="5.0" fill="rgb(255,79,0)"/>
<circle cx="169" cy="187" r="7" fill="rgb(211,1,249)" opacity="0.35"/>
<circle cx="169" cy="187" r="5.0" fill="rgb(211,1,249)"/>
<circle cx="183" cy="187" r="7" fill="rgb(126,42,252)" opacity="0.35"/>
<circle cx="183" cy="187" r="5.0" fill="rgb(126,42,252)"/>
<circle cx="197" cy="187" r="7" fill="rgb(75,66,253)" opacity="0.35"/>
<circle cx="197" cy="187" r="5.0" fill="rgb(75,66,253)"/>
<circle cx="211" cy="187" r="7" fill="rgb(64,71,254)" opacity="0.35"/>
<circle cx="211" cy="187" r="5.0" fill="rgb(64,71,254)"/>
<circle cx="225" cy="187" r="7" fill="rgb(94,57,253)" opacity="0.35"/>
<circle cx="225" cy="187" r="5.0" fill="rgb(94,57,253)"/>
<circle cx="15" cy="201" r="7" fill="rgb(141,34,251)" opacity="0.35"/>
<circle cx="15" cy="201" r="5.0" fill="rgb(141,34,251)"/>
<circle cx="29" cy="201" r="7" fill="rgb(112,48,252)" opacity="0.35"/>
<circle cx="29" cy="201" r="5.0" fill="rgb(112,48,252)"/>
<circle cx="43" cy="201" r="7" fill="rgb(123,43,252)" opacity="0.35"/>
<circle cx="43" cy="201" r="5.0" fill="rgb(123,43,252)"/>
<circle cx="57" cy="201" r="7" fill="rgb(173,19,250)" opacity="0.35"/>
<circle cx="57" cy="201" r="5.0" fill="rgb(173,19,250)"/>
<circle cx="71" cy="201" r="7" fill="rgb(255,31,0)" opacity="0.35"/>
<circle cx="71" cy="201" r="5.0" fill="rgb(255,31,0)"/>
<circle cx="85" cy="201" r="7" fill="rgb(255,109,0)" opacity="0.35"/>
<circle cx="85" cy="201" r="5.0" fill="rgb(255,109,0)"/>
<circle cx="99" cy="201" r="7" fill="rgb(255,177,0)" opacity="0.35"/>
<circle cx="99" cy="201" r="5.0" fill="rgb(255,177,0)"/>
<circle cx="113" cy="201" r="7" fill="rgb(177,209,25)" opacity="0.35"/>
<circle cx="113" cy="201" r="5.0" fill="rgb(177,209,25)"/>
<circle cx="127" cy="201" r="7" fill="rgb(177,209,25)" opacity="0.35"/>
<circle cx="127" cy="201" r="5.0" fill="rgb(177,209,25)"/>
<circle cx="141" cy="201" r="7" fill="rgb(255,177,0)" opacity="0.35"/>
<circle cx="141" cy="201" r="5.0" fill="rgb(255,177,0)"/>
<circle cx="155" cy="201" r="7" fill="rgb(255,109,0)" opacity="0.35"/>
<circle cx="155" cy="201" r="5.0" fill="rgb(255,109,0)"/>
<circle cx="169" cy="201" r="7" fill="rgb(255,31,0)" opacity="0.35"/>
<circle cx="169" cy="201" r="5.0" fill="rgb(255,31,0)"/>
<circle cx="183" cy="201" r="7" fill="rgb(173,19,250)" opacity="0.35"/>
<circle cx="183" cy="201" r="5.0" fill="rgb(173,19,250)"/>
<circle cx="197" cy="201" r="7" fill="rgb(123,43,252)" opacity="0.35"/>
<circle cx="197" cy="201" r="5.0" fill="rgb(123,43,252)"/>
<circle cx="211" cy="201" r="7" fill="rgb(112,48,252)" opacity="0.35"/>
<circle cx="211" cy="201" r="5.0" fill="rgb(112,48,252)"/>
<circle cx="225" cy="201" r="7" fill="rgb(141,34,251)" opacity="0.35"/>
<circle cx="225" cy="201" r="5.0" fill="rgb(141,34,251)"/>
<circle cx="15" cy="215" r="7" fill="rgb(188,12,250)" opacity="0.35"/>
<circle cx="15" cy="215" r="5.0" fill="rgb(188,12,250)"/>
<circle cx="29" cy="215" r="7" fill="rgb(158,26,251)" opacity="0.35"/>
<circle cx="29" cy="215" r="5.0" fill="rgb(158,26,251)"/>
<circle cx="43" cy="215" r="7" fill="rgb(167,22,250)" opacity="0.35"/>
<circle cx="43" cy="215" r="5.0" fill="rgb(167,22,250)"/>
<circle cx="57" cy="215" r="7" fill="rgb(255,0,0)" opacity="0.35"/>
<circle cx="57" cy="215" r="5.0" fill="rgb(255,0,0)"/>
<circle cx="71" cy="215" r="7" fill="rgb(255,58,0)" opacity="0.35"/>
<circle cx="71" cy="215" r="5.0" fill="rgb(255,58,0)"/>
<circle cx="85" cy="215" r="7" fill="rgb(255,130,0)" opacity="0.35"/>
<circle cx="85" cy="215" r="5.0" fill="rgb(255,130,0)"/>
<circle cx="99" cy="215" r="7" fill="rgb(255,191,0)" opacity="0.35"/>
<circle cx="99" cy="215" r="5.0" fill="rgb(255,191,0)"/>
<circle cx="113" cy="215" r="7" fill="rgb(144,207,36)" opacity="0.35"/>
<circle cx="113" cy="215" r="5.0" fill="rgb(144,207,36)"/>
<circle cx="127" cy="215" r="7" fill="rgb(144,207,36)" opacity="0.35"/>
<circle cx="127" cy="215" r="5.0" fill="rgb(144,207,36)"/>
<circle cx="141" cy="215" r="7" fill="rgb(255,191,0)" opacity="0.35"/>
<circle cx="141" cy="215" r="5.0" fill="rgb(255,191,0)"/>
<circle cx="155" cy="215" r="7" fill="rgb(255,130,0)" opacity="0.35"/>
<circle cx="155" cy="215" r="5.0" fill="rgb(255,130,0)"/>
<circle cx="169" cy="215" r="7" fill="rgb(255,58,0)" opacity="0.35"/>
<circle cx="169" cy="215" r="5.0" fill="rgb(255,58,0)"/>
<circle cx="183" cy="215" r="7" fill="rgb(255,0,0)" opacity="0.35"/>
<circle cx="183" cy="215" r="5.0" fill="rgb(255,0,0)"/>
<circle cx="197" cy="215" r="7" fill="rgb(167,22,250)" opacity="0.35"/>
<circle cx="197" cy="215" r="5.0" fill="rgb(167,22,250)"/>
<circle cx="211" cy="215" r="7" fill="rgb(158,26,251)" opacity="0.35"/>
<circle cx="211" cy="215" r="5.0" fill="rgb(158,26,251)"/>
<circle cx="225" cy="215" r="7" fill="rgb(188,12,250)" opacity="0.35"/>
<circle cx="225" cy="215" r="5.0" fill="rgb(188,12,250)"/>
<circle cx="15" cy="229" r="7" fill="rgb(255,13,0)" opacity="0.35"/>
<circle cx="15" cy="229" r="5.0" fill="rgb(255,13,0)"/>
<circle cx="29" cy="229" r="7" fill="rgb(200,6,249)" opacity="0.35"/>
<circle cx="29" cy="229" r="5.0" fill="rgb(200,6,249)"/>
<circle cx="43" cy="229" r="7" fill="rgb(206,3,249)" opacity="0.35"/>
<circle cx="43" cy="229" r="5.0" fill="rgb(206,3,249)"/>
<circle cx="57" cy="229" r="7" fill="rgb(255,26,0)" opacity="0.35"/>
<circle cx="57" cy="229" r="5.0" fill="rgb(255,26,0)"/>
<circle cx="71" cy="229" r="7" fill="rgb(255,79,0)" opacity="0.35"/>
<circle cx="71" cy="229" r="5.0" fill="rgb(255,79,0)"/>
<circle cx="85" cy="229" r="7" fill="rgb(255,141,0)" opacity="0.35"/>
<circle cx="85" cy="229" r="5.0" fill="rgb(255,141,0)"/>
<circle cx="99" cy="229" r="7" fill="rgb(255,200,0)" opacity="0.35"/>
<circle cx="99" cy="229" r="5.0" fill="rgb(255,200,0)"/>
<circle cx="113" cy="229" r="7" fill="rgb(129,207,41)" opacity="0.35"/>
<circle cx="113" cy="229" r="5.0" fill="rgb(129,207,41)"/>
<circle cx="127" cy="229" r="7" fill="rgb(129,207,41)" opacity="0.35"/>
<circle cx="127" cy="229" r="5.0" fill="rgb(129,207,41)"/>
<circle cx="141" cy="229" r="7" fill="rgb(255,200,0)" opacity="0.35"/>
<circle cx="141" cy="229" r="5.0" fill="rgb(255,200,0)"/>
<circle cx="155" cy="229" r="7" fill="rgb(255,141,0)" opacity="0.35"/>
<circle cx="155" cy="229" r="5.0" fill="rgb(255,141,0)"/>
<circle cx="169" cy="229" r="7" fill="rgb(255,79,0)" opacity="0.35"/>
<circle cx="169" cy="229" r="5.0" fill="rgb(255,79,0)"/>
<circle cx="183" cy="229" r="7" fill="rgb(255,26,0)" opacity="0.35"/>
<circle cx="183" cy="229" r="5.0" fill="rgb(255,26,0)"/>
<circle cx="197" cy="229" r="7" fill="rgb(206,3,249)" opacity="0.35"/>
<circle cx="197" cy="229" r="5.0" fill="rgb(206,3,249)"/>
<circle cx="211" cy="229" r="7" fill="rgb(200,6,249)" opacity="0.35"/>
<circle cx="211" cy="229" r="5.0" fill="rgb(200,6,249)"/>
<circle cx="225" cy="229" r="7" fill="rgb(255,13,0)" opacity="0.35"/>
<circle cx="225" cy="229" r="5.0" fill="rgb(255,13,0)"/>
<circle cx="15" cy="243" r="7" fill="rgb(255,42,0)" opacity="0.35"/>
<circle cx="15" cy="243" r="5.0" fill="rgb(255,42,0)"/>
<circle cx="29" cy="243" r="7" fill="rgb(255,18,0)" opacity="0.35"/>
<circle cx="29" cy="243" r="5.0" fill="rgb(255,18,0)"/>
<circle cx="43" cy="243" r="7" fill="rgb(255,20,0)" opacity="0.35"/>
<circle cx="43" cy="243" r="5.0" fill="rgb(255,20,0)"/>
<circle cx="57" cy="243" r="7" fill="rgb(255,46,0)" opacity="0.35"/>
<circle cx="57" cy="243" r="5.0" fill="rgb(255,46,0)"/>
<circle cx="71" cy="243" r="7" fill="rgb(255,94,0)" opacity="0.35"/>
<circle cx="71" cy="243" r="5.0" fill="rgb(255,94,0)"/>
<circle cx="85" cy="243" r="7" fill="rgb(255,149,0)" opacity="0.35"/>
<circle cx="85" cy="243" r="5.0" fill="rgb(255,149,0)"/>
<circle cx="99" cy="243" r="7" fill="rgb(255,203,0)" opacity="0.35"/>
<circle cx="99" cy="243" r="5.0" fill="rgb(255,203,0)"/>
<circle cx="113" cy="243" r="7" fill="rgb(129,207,41)" opacity="0.35"/>
<circle cx="113" cy="243" r="5.0" fill="rgb(129,207,41)"/>
<circle cx="127" cy="243" r="7" fill="rgb(129,207,41)" opacity="0.35"/>
<circle cx="127" cy="243" r="5.0" fill="rgb(129,207,41)"/>
<circle cx="141" cy="243" r="7" fill="rgb(255,203,0)" opacity="0.35"/>
<circle cx="141" cy="243" r="5.0" fill="rgb(255,203,0)"/>
<circle cx="155" cy="243" r="7" fill="rgb(255,149,0)" opacity="0.35"/>
<circle cx="155" cy="243" r="5.0" fill="rgb(255,149,0)"/>
<circle cx="169" cy="243" r="7" fill="rgb(255,94,0)" opacity="0.35"/>
<circle cx="169" cy="243" r="5.0" fill="rgb(255,94,0)"/>
<circle cx="183" cy="243" r="7" fill="rgb(255,46,0)" opacity="0.35"/>
<circle cx="183" cy="243" r="5.0" fill="rgb(255,46,0)"/>
<circle cx="197" cy="243" r="7" fill="rgb(255,20,0)" opacity="0.35"/>
<circle cx="197" cy="243" r="5.0" fill="rgb(255,20,0)"/>
<circle cx="211" cy="243" r="7" fill="rgb(255,18,0)" opacity="0.35"/>
<circle cx="211" cy="243" r="5.0" fill="rgb(255,18,0)"/>
<circle cx="225" cy="243" r="7" fill="rgb(255,42,0)" opacity="0.35"/>
<circle cx="225" cy="243" r="5.0" fill="rgb(255,42,0)"/>
<circle cx="15" cy="257" r="7" fill="rgb(255,66,0)" opacity="0.35"/>
<circle cx="15" cy="257" r="5.0" fill="rgb(255,66,0)"/>
<circle cx="29" cy="257" r="7" fill="rgb(255,42,0)" opacity="0.35"/>
<circle cx="29" cy="257" r="5.0" fill="rgb(255,42,0)"/>
<circle cx="43" cy="257" r="7" fill="rgb(255,41,0)" opacity="0.35"/>
<circle cx="43" cy="257" r="5.0" fill="rgb(255,41,0)"/>
<circle cx="57" cy="257" r="7" fill="rgb(255,63,0)" opacity="0.35"/>
<circle cx="57" cy="257" r="5.0" fill="rgb(255,63,0)"/>
<circle cx="71" cy="257" r="7" fill="rgb(255,106,0)" opacity="0.35"/>
<circle cx="71" cy="257" r="5.0" fill="rgb(255,106,0)"/>
<circle cx="85" cy="257" r="7" fill="rgb(255,153,0)" opacity="0.35"/>
<circle cx="85" cy="257" r="5.0" fill="rgb(255,153,0)"/>
<circle cx="99" cy="257" r="7" fill="rgb(255,203,0)" opacity="0.35"/>
<circle cx="99" cy="257" r="5.0" fill="rgb(255,203,0)"/>
<circle cx="113" cy="257" r="7" fill="rgb(140,207,38)" opacity="0.35"/>
<circle cx="113" cy="257" r="5.0" fill="rgb(140,207,38)"/>
<circle cx="127" cy="257" r="7" fill="rgb(140,207,38)" opacity="0.35"/>
<circle cx="127" cy="257" r="5.0" fill="rgb(140,207,38)"/>
<circle cx="141" cy="257" r="7" fill="rgb(255,203,0)" opacity="0.35"/>
<circle cx="141" cy="257" r="5.0" fill="rgb(255,203,0)"/>
<circle cx="155" cy="257" r="7" fill="rgb(255,153,0)" opacity="0.35"/>
<circle cx="155" cy="257" r="5.0" fill="rgb(255,153,0)"/>
<circle cx="169" cy="257" r="7" fill="rgb(255,106,0)" opacity="0.35"/>
<circle cx="169" cy="257" r="5.0" fill="rgb(255,106,0)"/>
<circle cx="183" cy="257" r="7" fill="rgb(255,63,0)" opacity="0.35"/>
<circle cx="183" cy="257" r="5.0" fill="rgb(255,63,0)"/>
<circle cx="197" cy="257" r="7" fill="rgb(255,41,0)" opacity="0.35"/>
<circle cx="197" cy="257" r="5.0" fill="rgb(255,41,0)"/>
<circle cx="211" cy="257" r="7" fill="rgb(255,42,0)" opacity="0.35"/>
<circle cx="211" cy="257" r="5.0" fill="rgb(255,42,0)"/>
<circle cx="225" cy="257" r="7" fill="rgb(255,66,0)" opacity="0.35"/>
<circle cx="225" cy="257" r="5.0" fill="rgb(255,66,0)"/>
<circle cx="-2" cy="280" r="9" fill="#5ad1ff" opacity="0.25"/>
<circle cx="-2" cy="280" r="6" fill="#5ad1ff" stroke="#0d0f12" stroke-width="1.5"/>
<text x="10" y="284" font-family="'JetBrains Mono','Cascadia Mono','Consolas',monospace" font-size="12" fill="#a0a0a0">Frame</text>
<circle cx="242" cy="280" r="9" fill="#5ad1ff" opacity="0.25"/>
<circle cx="242" cy="280" r="6" fill="#5ad1ff" stroke="#0d0f12" stroke-width="1.5"/>
<text x="230" y="284" text-anchor="end" font-family="'JetBrains Mono','Cascadia Mono','Consolas',monospace" font-size="12" fill="#a0a0a0">Frame</text>
<circle cx="-2" cy="308" r="9" fill="#ffd24a" opacity="0.25"/>
<circle cx="-2" cy="308" r="6" fill="#ffd24a" stroke="#0d0f12" stroke-width="1.5"/>
<text x="10" y="312" font-family="'JetBrains Mono','Cascadia Mono','Consolas',monospace" font-size="12" fill="#a0a0a0">Tint</text>
<circle cx="-2" cy="336" r="9" fill="#9aa0a6" opacity="0.25"/>
<circle cx="-2" cy="336" r="6" fill="#9aa0a6" stroke="#0d0f12" stroke-width="1.5"/>
<text x="10" y="340" font-family="'JetBrains Mono','Cascadia Mono','Consolas',monospace" font-size="12" fill="#a0a0a0">Glow</text>
<line x1="8" y1="356" x2="232" y2="356" stroke="rgba(255,255,255,0.08)"/>
<text x="8" y="376" font-family="'JetBrains Mono','Cascadia Mono','Consolas',monospace" font-size="12" fill="#a0a0a0">mirrorMode</text>
<g>
<rect x="148" y="364" width="84" height="16" rx="4" fill="#0d0f12" stroke="rgba(255,255,255,0.12)"/>
<text x="152" y="376" font-family="'JetBrains Mono','Cascadia Mono','Consolas',monospace" font-size="11" fill="#e0e0e0">horizontal</text>
<text x="228" y="376" text-anchor="end" font-size="8" fill="#a0a0a0">▾</text>
</g>
<text x="8" y="397" font-family="'JetBrains Mono','Cascadia Mono','Consolas',monospace" font-size="12" fill="#a0a0a0">glow</text>
<g>
<rect x="220" y="387" width="12" height="12" rx="3" fill="#0d0f12" stroke="rgba(255,255,255,0.12)"/>
</g>
<text x="8" y="418" font-family="'JetBrains Mono','Cascadia Mono','Consolas',monospace" font-size="12" fill="#a0a0a0" opacity="0.45">glowAmount</text>
<g opacity="0.45">
<rect x="120" y="412" width="72" height="4" rx="2" fill="#cfd2d6" opacity="0.85"/>
<rect x="120" y="412" width="25.2" height="4" rx="2" fill="#d633ff"/>
<circle cx="145.2" cy="414" r="5" fill="#d633ff"/>
<text x="232" y="418" text-anchor="end" font-family="'JetBrains Mono','Cascadia Mono','Consolas',monospace" font-size="12" fill="#e0e0e0">0.35</text>
</g>
<text x="8" y="439" font-family="'JetBrains Mono','Cascadia Mono','Consolas',monospace" font-size="12" fill="#a0a0a0">clamp inputs</text>
<g>
<rect x="220" y="429" width="12" height="12" rx="3" fill="#0d0f12" stroke="rgba(255,255,255,0.12)"/>
</g>
<text x="8" y="460" font-family="'JetBrains Mono','Cascadia Mono','Consolas',monospace" font-size="12" fill="#a0a0a0">bypass</text>
<g>
<rect x="220" y="450" width="12" height="12" rx="3" fill="#0d0f12" stroke="rgba(255,255,255,0.12)"/>
</g>
</g>
</svg>
