<svg xmlns="http://www.w3.org/2000/svg" viewBox="0 0 296 552" width="296" height="552" role="img" aria-label="Noise node">

<defs><filter id="shadow" x="-20%" y="-20%" width="140%" height="160%"><feDropShadow dx="0" dy="8" stdDeviation="9" flood-color="#000" flood-opacity="0.45"/></filter></defs>
<g transform="translate(28,24)">
<rect x="0" y="0" width="240" height="494" rx="8" fill="#1f242b" stroke="rgba(255,255,255,0.12)" filter="url(#shadow)"/>
<rect x="0" y="0" width="240" height="494" rx="8" fill="#1f242b" stroke="rgba(255,255,255,0.12)"/>
<path d="M0,32 L0,8 Q0,0 8,0 L232,0 Q240,0 240,8 L240,32 Z" fill="#33d6ff"/>
<text x="8" y="21" font-family="'Audiowide','Trebuchet MS','Arial Black',sans-serif" font-size="14" font-weight="600" fill="#000">Noise Field</text>
<rect x="154" y="10" width="25" height="12" rx="6" fill="rgba(0,0,0,0.14)" stroke="rgba(255,255,255,0.14)"/>
<text x="166.5" y="19" text-anchor="middle" font-family="'JetBrains Mono','Cascadia Mono','Consolas',monospace" font-size="8" letter-spacing="0.08em" fill="#000">PAT</text>
<rect x="185" y="10" width="47" height="12" rx="6" fill="rgba(0,0,0,0.14)" stroke="rgba(255,255,255,0.14)"/>
<text x="208.5" y="19" text-anchor="middle" font-family="'JetBrains Mono','Cascadia Mono','Consolas',monospace" font-size="8" letter-spacing="0.08em" fill="#000">NOI-910</text>
<rect x="8" y="40" width="224" height="224" rx="4" fill="#05070a"/>
<circle cx="15" cy="47" r="7" fill="rgb(24,128,255)" opacity="0.35"/>
<circle cx="15" cy="47" r="5.0" fill="rgb(24,128,255)"/>
<circle cx="29" cy="47" r="7" fill="rgb(64,71,254)" opacity="0.35"/>
<circle cx="29" cy="47" r="5.0" fill="rgb(64,71,254)"/>
<circle cx="43" cy="47" r="7" fill="rgb(116,46,252)" opacity="0.35"/>
<circle cx="43" cy="47" r="5.0" fill="rgb(116,46,252)"/>
<circle cx="57" cy="47" r="7" fill="rgb(109,50,252)" opacity="0.35"/>
<circle cx="57" cy="47" r="5.0" fill="rgb(109,50,252)"/>
<circle cx="71" cy="47" r="7" fill="rgb(47,81,254)" opacity="0.35"/>
<circle cx="71" cy="47" r="5.0" fill="rgb(47,81,254)"/>
<circle cx="85" cy="47" r="7" fill="rgb(16,144,255)" opacity="0.35"/>
<circle cx="85" cy="47" r="5.0" fill="rgb(16,144,255)"/>
<circle cx="99" cy="47" r="7" fill="rgb(0,186,184)" opacity="0.35"/>
<circle cx="99" cy="47" r="5.0" fill="rgb(0,186,184)"/>
<circle cx="113" cy="47" r="7" fill="rgb(18,201,77)" opacity="0.35"/>
<circle cx="113" cy="47" r="5.0" fill="rgb(18,201,77)"/>
<circle cx="127" cy="47" r="7" fill="rgb(122,206,43)" opacity="0.35"/>
<circle cx="127" cy="47" r="5.0" fill="rgb(122,206,43)"/>
<circle cx="141" cy="47" r="7" fill="rgb(138,207,38)" opacity="0.35"/>
<circle cx="141" cy="47" r="5.0" fill="rgb(138,207,38)"/>
<circle cx="155" cy="47" r="7" fill="rgb(61,203,63)" opacity="0.35"/>
<circle cx="155" cy="47" r="5.0" fill="rgb(61,203,63)"/>
<circle cx="169" cy="47" r="7" fill="rgb(0,192,143)" opacity="0.35"/>
<circle cx="169" cy="47" r="5.0" fill="rgb(0,192,143)"/>
<circle cx="183" cy="47" r="7" fill="rgb(4,168,255)" opacity="0.35"/>
<circle cx="183" cy="47" r="5.0" fill="rgb(4,168,255)"/>
<circle cx="197" cy="47" r="7" fill="rgb(38,100,254)" opacity="0.35"/>
<circle cx="197" cy="47" r="5.0" fill="rgb(38,100,254)"/>
<circle cx="211" cy="47" r="7" fill="rgb(93,57,253)" opacity="0.35"/>
<circle cx="211" cy="47" r="5.0" fill="rgb(93,57,253)"/>
<circle cx="225" cy="47" r="7" fill="rgb(120,44,252)" opacity="0.35"/>
<circle cx="225" cy="47" r="5.0" fill="rgb(120,44,252)"/>
<circle cx="15" cy="61" r="7" fill="rgb(0,180,224)" opacity="0.35"/>
<circle cx="15" cy="61" r="5.0" fill="rgb(0,180,224)"/>
<circle cx="29" cy="61" r="7" fill="rgb(20,135,255)" opacity="0.35"/>
<circle cx="29" cy="61" r="5.0" fill="rgb(20,135,255)"/>
<circle cx="43" cy="61" r="7" fill="rgb(35,105,254)" opacity="0.35"/>
<circle cx="43" cy="61" r="5.0" fill="rgb(35,105,254)"/>
<circle cx="57" cy="61" r="7" fill="rgb(33,109,254)" opacity="0.35"/>
<circle cx="57" cy="61" r="5.0" fill="rgb(33,109,254)"/>
<circle cx="71" cy="61" r="7" fill="rgb(14,147,255)" opacity="0.35"/>
<circle cx="71" cy="61" r="5.0" fill="rgb(14,147,255)"/>
<circle cx="85" cy="61" r="7" fill="rgb(0,184,195)" opacity="0.35"/>
<circle cx="85" cy="61" r="5.0" fill="rgb(0,184,195)"/>
<circle cx="99" cy="61" r="7" fill="rgb(23,201,76)" opacity="0.35"/>
<circle cx="99" cy="61" r="5.0" fill="rgb(23,201,76)"/>
<circle cx="113" cy="61" r="7" fill="rgb(190,210,21)" opacity="0.35"/>
<circle cx="113" cy="61" r="5.0" fill="rgb(190,210,21)"/>
<circle cx="127" cy="61" r="7" fill="rgb(255,199,0)" opacity="0.35"/>
<circle cx="127" cy="61" r="5.0" fill="rgb(255,199,0)"/>
<circle cx="141" cy="61" r="7" fill="rgb(255,193,0)" opacity="0.35"/>
<circle cx="141" cy="61" r="5.0" fill="rgb(255,193,0)"/>
<circle cx="155" cy="61" r="7" fill="rgb(233,212,7)" opacity="0.35"/>
<circle cx="155" cy="61" r="5.0" fill="rgb(233,212,7)"/>
<circle cx="169" cy="61" r="7" fill="rgb(83,204,56)" opacity="0.35"/>
<circle cx="169" cy="61" r="5.0" fill="rgb(83,204,56)"/>
<circle cx="183" cy="61" r="7" fill="rgb(0,190,153)" opacity="0.35"/>
<circle cx="183" cy="61" r="5.0" fill="rgb(0,190,153)"/>
<circle cx="197" cy="61" r="7" fill="rgb(5,166,255)" opacity="0.35"/>
<circle cx="197" cy="61" r="5.0" fill="rgb(5,166,255)"/>
<circle cx="211" cy="61" r="7" fill="rgb(29,118,254)" opacity="0.35"/>
<circle cx="211" cy="61" r="5.0" fill="rgb(29,118,254)"/>
<circle cx="225" cy="61" r="7" fill="rgb(37,102,254)" opacity="0.35"/>
<circle cx="225" cy="61" r="5.0" fill="rgb(37,102,254)"/>
<circle cx="15" cy="75" r="7" fill="rgb(0,198,97)" opacity="0.35"/>
<circle cx="15" cy="75" r="5.0" fill="rgb(0,198,97)"/>
<circle cx="29" cy="75" r="7" fill="rgb(0,184,200)" opacity="0.35"/>
<circle cx="29" cy="75" r="5.0" fill="rgb(0,184,200)"/>
<circle cx="43" cy="75" r="7" fill="rgb(0,176,254)" opacity="0.35"/>
<circle cx="43" cy="75" r="5.0" fill="rgb(0,176,254)"/>
<circle cx="57" cy="75" r="7" fill="rgb(0,177,247)" opacity="0.35"/>
<circle cx="57" cy="75" r="5.0" fill="rgb(0,177,247)"/>
<circle cx="71" cy="75" r="7" fill="rgb(0,187,179)" opacity="0.35"/>
<circle cx="71" cy="75" r="5.0" fill="rgb(0,187,179)"/>
<circle cx="85" cy="75" r="7" fill="rgb(22,201,76)" opacity="0.35"/>
<circle cx="85" cy="75" r="5.0" fill="rgb(22,201,76)"/>
<circle cx="99" cy="75" r="7" fill="rgb(211,211,14)" opacity="0.35"/>
<circle cx="99" cy="75" r="5.0" fill="rgb(211,211,14)"/>
<circle cx="113" cy="75" r="7" fill="rgb(255,169,0)" opacity="0.35"/>
<circle cx="113" cy="75" r="5.0" fill="rgb(255,169,0)"/>
<circle cx="127" cy="75" r="7" fill="rgb(255,132,0)" opacity="0.35"/>
<circle cx="127" cy="75" r="5.0" fill="rgb(255,132,0)"/>
<circle cx="141" cy="75" r="7" fill="rgb(255,126,0)" opacity="0.35"/>
<circle cx="141" cy="75" r="5.0" fill="rgb(255,126,0)"/>
<circle cx="155" cy="75" r="7" fill="rgb(255,153,0)" opacity="0.35"/>
<circle cx="155" cy="75" r="5.0" fill="rgb(255,153,0)"/>
<circle cx="169" cy="75" r="7" fill="rgb(255,207,0)" opacity="0.35"/>
<circle cx="169" cy="75" r="5.0" fill="rgb(255,207,0)"/>
<circle cx="183" cy="75" r="7" fill="rgb(85,204,55)" opacity="0.35"/>
<circle cx="183" cy="75" r="5.0" fill="rgb(85,204,55)"/>
<circle cx="197" cy="75" r="7" fill="rgb(0,191,146)" opacity="0.35"/>
<circle cx="197" cy="75" r="5.0" fill="rgb(0,191,146)"/>
<circle cx="211" cy="75" r="7" fill="rgb(0,179,231)" opacity="0.35"/>
<circle cx="211" cy="75" r="5.0" fill="rgb(0,179,231)"/>
<circle cx="225" cy="75" r="7" fill="rgb(1,174,255)" opacity="0.35"/>
<circle cx="225" cy="75" r="5.0" fill="rgb(1,174,255)"/>
<circle cx="15" cy="89" r="7" fill="rgb(139,207,38)" opacity="0.35"/>
<circle cx="15" cy="89" r="5.0" fill="rgb(139,207,38)"/>
<circle cx="29" cy="89" r="7" fill="rgb(0,199,93)" opacity="0.35"/>
<circle cx="29" cy="89" r="5.0" fill="rgb(0,199,93)"/>
<circle cx="43" cy="89" r="7" fill="rgb(0,191,147)" opacity="0.35"/>
<circle cx="43" cy="89" r="5.0" fill="rgb(0,191,147)"/>
<circle cx="57" cy="89" r="7" fill="rgb(0,192,140)" opacity="0.35"/>
<circle cx="57" cy="89" r="5.0" fill="rgb(0,192,140)"/>
<circle cx="71" cy="89" r="7" fill="rgb(16,201,78)" opacity="0.35"/>
<circle cx="71" cy="89" r="5.0" fill="rgb(16,201,78)"/>
<circle cx="85" cy="89" r="7" fill="rgb(181,209,24)" opacity="0.35"/>
<circle cx="85" cy="89" r="5.0" fill="rgb(181,209,24)"/>
<circle cx="99" cy="89" r="7" fill="rgb(255,172,0)" opacity="0.35"/>
<circle cx="99" cy="89" r="5.0" fill="rgb(255,172,0)"/>
<circle cx="113" cy="89" r="7" fill="rgb(255,109,0)" opacity="0.35"/>
<circle cx="113" cy="89" r="5.0" fill="rgb(255,109,0)"/>
<circle cx="127" cy="89" r="7" fill="rgb(255,59,0)" opacity="0.35"/>
<circle cx="127" cy="89" r="5.0" fill="rgb(255,59,0)"/>
<circle cx="141" cy="89" r="7" fill="rgb(255,51,0)" opacity="0.35"/>
<circle cx="141" cy="89" r="5.0" fill="rgb(255,51,0)"/>
<circle cx="155" cy="89" r="7" fill="rgb(255,88,0)" opacity="0.35"/>
<circle cx="155" cy="89" r="5.0" fill="rgb(255,88,0)"/>
<circle cx="169" cy="89" r="7" fill="rgb(255,150,0)" opacity="0.35"/>
<circle cx="169" cy="89" r="5.0" fill="rgb(255,150,0)"/>
<circle cx="183" cy="89" r="7" fill="rgb(244,212,4)" opacity="0.35"/>
<circle cx="183" cy="89" r="5.0" fill="rgb(244,212,4)"/>
<circle cx="197" cy="89" r="7" fill="rgb(66,203,62)" opacity="0.35"/>
<circle cx="197" cy="89" r="5.0" fill="rgb(66,203,62)"/>
<circle cx="211" cy="89" r="7" fill="rgb(0,194,123)" opacity="0.35"/>
<circle cx="211" cy="89" r="5.0" fill="rgb(0,194,123)"/>
<circle cx="225" cy="89" r="7" fill="rgb(0,190,152)" opacity="0.35"/>
<circle cx="225" cy="89" r="5.0" fill="rgb(0,190,152)"/>
<circle cx="15" cy="103" r="7" fill="rgb(229,212,8)" opacity="0.35"/>
<circle cx="15" cy="103" r="5.0" fill="rgb(229,212,8)"/>
<circle cx="29" cy="103" r="7" fill="rgb(76,204,58)" opacity="0.35"/>
<circle cx="29" cy="103" r="5.0" fill="rgb(76,204,58)"/>
<circle cx="43" cy="103" r="7" fill="rgb(0,200,86)" opacity="0.35"/>
<circle cx="43" cy="103" r="5.0" fill="rgb(0,200,86)"/>
<circle cx="57" cy="103" r="7" fill="rgb(6,200,81)" opacity="0.35"/>
<circle cx="57" cy="103" r="5.0" fill="rgb(6,200,81)"/>
<circle cx="71" cy="103" r="7" fill="rgb(107,205,48)" opacity="0.35"/>
<circle cx="71" cy="103" r="5.0" fill="rgb(107,205,48)"/>
<circle cx="85" cy="103" r="7" fill="rgb(255,207,0)" opacity="0.35"/>
<circle cx="85" cy="103" r="5.0" fill="rgb(255,207,0)"/>
<circle cx="99" cy="103" r="7" fill="rgb(255,140,0)" opacity="0.35"/>
<circle cx="99" cy="103" r="5.0" fill="rgb(255,140,0)"/>
<circle cx="113" cy="103" r="7" fill="rgb(255,66,0)" opacity="0.35"/>
<circle cx="113" cy="103" r="5.0" fill="rgb(255,66,0)"/>
<circle cx="127" cy="103" r="7" fill="rgb(255,16,0)" opacity="0.35"/>
<circle cx="127" cy="103" r="5.0" fill="rgb(255,16,0)"/>
<circle cx="141" cy="103" r="7" fill="rgb(255,8,0)" opacity="0.35"/>
<circle cx="141" cy="103" r="5.0" fill="rgb(255,8,0)"/>
<circle cx="155" cy="103" r="7" fill="rgb(255,45,0)" opacity="0.35"/>
<circle cx="155" cy="103" r="5.0" fill="rgb(255,45,0)"/>
<circle cx="169" cy="103" r="7" fill="rgb(255,117,0)" opacity="0.35"/>
<circle cx="169" cy="103" r="5.0" fill="rgb(255,117,0)"/>
<circle cx="183" cy="103" r="7" fill="rgb(255,185,0)" opacity="0.35"/>
<circle cx="183" cy="103" r="5.0" fill="rgb(255,185,0)"/>
<circle cx="197" cy="103" r="7" fill="rgb(156,208,32)" opacity="0.35"/>
<circle cx="197" cy="103" r="5.0" fill="rgb(156,208,32)"/>
<circle cx="211" cy="103" r="7" fill="rgb(31,202,73)" opacity="0.35"/>
<circle cx="211" cy="103" r="5.0" fill="rgb(31,202,73)"/>
<circle cx="225" cy="103" r="7" fill="rgb(0,199,91)" opacity="0.35"/>
<circle cx="225" cy="103" r="5.0" fill="rgb(0,199,91)"/>
<circle cx="15" cy="117" r="7" fill="rgb(229,212,9)" opacity="0.35"/>
<circle cx="15" cy="117" r="5.0" fill="rgb(229,212,9)"/>
<circle cx="29" cy="117" r="7" fill="rgb(76,204,58)" opacity="0.35"/>
<circle cx="29" cy="117" r="5.0" fill="rgb(76,204,58)"/>
<circle cx="43" cy="117" r="7" fill="rgb(0,200,86)" opacity="0.35"/>
<circle cx="43" cy="117" r="5.0" fill="rgb(0,200,86)"/>
<circle cx="57" cy="117" r="7" fill="rgb(6,200,81)" opacity="0.35"/>
<circle cx="57" cy="117" r="5.0" fill="rgb(6,200,81)"/>
<circle cx="71" cy="117" r="7" fill="rgb(106,205,48)" opacity="0.35"/>
<circle cx="71" cy="117" r="5.0" fill="rgb(106,205,48)"/>
<circle cx="85" cy="117" r="7" fill="rgb(255,207,0)" opacity="0.35"/>
<circle cx="85" cy="117" r="5.0" fill="rgb(255,207,0)"/>
<circle cx="99" cy="117" r="7" fill="rgb(255,140,0)" opacity="0.35"/>
<circle cx="99" cy="117" r="5.0" fill="rgb(255,140,0)"/>
<circle cx="113" cy="117" r="7" fill="rgb(255,66,0)" opacity="0.35"/>
<circle cx="113" cy="117" r="5.0" fill="rgb(255,66,0)"/>
<circle cx="127" cy="117" r="7" fill="rgb(255,16,0)" opacity="0.35"/>
<circle cx="127" cy="117" r="5.0" fill="rgb(255,16,0)"/>
<circle cx="141" cy="117" r="7" fill="rgb(255,8,0)" opacity="0.35"/>
<circle cx="141" cy="117" r="5.0" fill="rgb(255,8,0)"/>
<circle cx="155" cy="117" r="7" fill="rgb(255,45,0)" opacity="0.35"/>
<circle cx="155" cy="117" r="5.0" fill="rgb(255,45,0)"/>
<circle cx="169" cy="117" r="7" fill="rgb(255,117,0)" opacity="0.35"/>
<circle cx="169" cy="117" r="5.0" fill="rgb(255,117,0)"/>
<circle cx="183" cy="117" r="7" fill="rgb(255,185,0)" opacity="0.35"/>
<circle cx="183" cy="117" r="5.0" fill="rgb(255,185,0)"/>
<circle cx="197" cy="117" r="7" fill="rgb(156,208,32)" opacity="0.35"/>
<circle cx="197" cy="117" r="5.0" fill="rgb(156,208,32)"/>
<circle cx="211" cy="117" r="7" fill="rgb(30,202,73)" opacity="0.35"/>
<circle cx="211" cy="117" r="5.0" fill="rgb(30,202,73)"/>
<circle cx="225" cy="117" r="7" fill="rgb(0,199,91)" opacity="0.35"/>
<circle cx="225" cy="117" r="5.0" fill="rgb(0,199,91)"/>
<circle cx="15" cy="131" r="7" fill="rgb(138,207,38)" opacity="0.35"/>
<circle cx="15" cy="131" r="5.0" fill="rgb(138,207,38)"/>
<circle cx="29" cy="131" r="7" fill="rgb(0,199,93)" opacity="0.35"/>
<circle cx="29" cy="131" r="5.0" fill="rgb(0,199,93)"/>
<circle cx="43" cy="131" r="7" fill="rgb(0,191,148)" opacity="0.35"/>
<circle cx="43" cy="131" r="5.0" fill="rgb(0,191,148)"/>
<circle cx="57" cy="131" r="7" fill="rgb(0,192,140)" opacity="0.35"/>
<circle cx="57" cy="131" r="5.0" fill="rgb(0,192,140)"/>
<circle cx="71" cy="131" r="7" fill="rgb(15,201,78)" opacity="0.35"/>
<circle cx="71" cy="131" r="5.0" fill="rgb(15,201,78)"/>
<circle cx="85" cy="131" r="7" fill="rgb(180,209,24)" opacity="0.35"/>
<circle cx="85" cy="131" r="5.0" fill="rgb(180,209,24)"/>
<circle cx="99" cy="131" r="7" fill="rgb(255,172,0)" opacity="0.35"/>
<circle cx="99" cy="131" r="5.0" fill="rgb(255,172,0)"/>
<circle cx="113" cy="131" r="7" fill="rgb(255,109,0)" opacity="0.35"/>
<circle cx="113" cy="131" r="5.0" fill="rgb(255,109,0)"/>
<circle cx="127" cy="131" r="7" fill="rgb(255,59,0)" opacity="0.35"/>
<circle cx="127" cy="131" r="5.0" fill="rgb(255,59,0)"/>
<circle cx="141" cy="131" r="7" fill="rgb(255,52,0)" opacity="0.35"/>
<circle cx="141" cy="131" r="5.0" fill="rgb(255,52,0)"/>
<circle cx="155" cy="131" r="7" fill="rgb(255,89,0)" opacity="0.35"/>
<circle cx="155" cy="131" r="5.0" fill="rgb(255,89,0)"/>
<circle cx="169" cy="131" r="7" fill="rgb(255,151,0)" opacity="0.35"/>
<circle cx="169" cy="131" r="5.0" fill="rgb(255,151,0)"/>
<circle cx="183" cy="131" r="7" fill="rgb(243,212,4)" opacity="0.35"/>
<circle cx="183" cy="131" r="5.0" fill="rgb(243,212,4)"/>
<circle cx="197" cy="131" r="7" fill="rgb(65,203,62)" opacity="0.35"/>
<circle cx="197" cy="131" r="5.0" fill="rgb(65,203,62)"/>
<circle cx="211" cy="131" r="7" fill="rgb(0,194,124)" opacity="0.35"/>
<circle cx="211" cy="131" r="5.0" fill="rgb(0,194,124)"/>
<circle cx="225" cy="131" r="7" fill="rgb(0,190,153)" opacity="0.35"/>
<circle cx="225" cy="131" r="5.0" fill="rgb(0,190,153)"/>
<circle cx="15" cy="145" r="7" fill="rgb(0,198,98)" opacity="0.35"/>
<circle cx="15" cy="145" r="5.0" fill="rgb(0,198,98)"/>
<circle cx="29" cy="145" r="7" fill="rgb(0,184,201)" opacity="0.35"/>
<circle cx="29" cy="145" r="5.0" fill="rgb(0,184,201)"/>
<circle cx="43" cy="145" r="7" fill="rgb(0,176,255)" opacity="0.35"/>
<circle cx="43" cy="145" r="5.0" fill="rgb(0,176,255)"/>
<circle cx="57" cy="145" r="7" fill="rgb(0,177,248)" opacity="0.35"/>
<circle cx="57" cy="145" r="5.0" fill="rgb(0,177,248)"/>
<circle cx="71" cy="145" r="7" fill="rgb(0,186,180)" opacity="0.35"/>
<circle cx="71" cy="145" r="5.0" fill="rgb(0,186,180)"/>
<circle cx="85" cy="145" r="7" fill="rgb(21,201,76)" opacity="0.35"/>
<circle cx="85" cy="145" r="5.0" fill="rgb(21,201,76)"/>
<circle cx="99" cy="145" r="7" fill="rgb(210,211,15)" opacity="0.35"/>
<circle cx="99" cy="145" r="5.0" fill="rgb(210,211,15)"/>
<circle cx="113" cy="145" r="7" fill="rgb(255,169,0)" opacity="0.35"/>
<circle cx="113" cy="145" r="5.0" fill="rgb(255,169,0)"/>
<circle cx="127" cy="145" r="7" fill="rgb(255,132,0)" opacity="0.35"/>
<circle cx="127" cy="145" r="5.0" fill="rgb(255,132,0)"/>
<circle cx="141" cy="145" r="7" fill="rgb(255,127,0)" opacity="0.35"/>
<circle cx="141" cy="145" r="5.0" fill="rgb(255,127,0)"/>
<circle cx="155" cy="145" r="7" fill="rgb(255,154,0)" opacity="0.35"/>
<circle cx="155" cy="145" r="5.0" fill="rgb(255,154,0)"/>
<circle cx="169" cy="145" r="7" fill="rgb(255,208,0)" opacity="0.35"/>
<circle cx="169" cy="145" r="5.0" fill="rgb(255,208,0)"/>
<circle cx="183" cy="145" r="7" fill="rgb(83,204,56)" opacity="0.35"/>
<circle cx="183" cy="145" r="5.0" fill="rgb(83,204,56)"/>
<circle cx="197" cy="145" r="7" fill="rgb(0,191,147)" opacity="0.35"/>
<circle cx="197" cy="145" r="5.0" fill="rgb(0,191,147)"/>
<circle cx="211" cy="145" r="7" fill="rgb(0,179,232)" opacity="0.35"/>
<circle cx="211" cy="145" r="5.0" fill="rgb(0,179,232)"/>
<circle cx="225" cy="145" r="7" fill="rgb(1,173,255)" opacity="0.35"/>
<circle cx="225" cy="145" r="5.0" fill="rgb(1,173,255)"/>
<circle cx="15" cy="159" r="7" fill="rgb(0,180,225)" opacity="0.35"/>
<circle cx="15" cy="159" r="5.0" fill="rgb(0,180,225)"/>
<circle cx="29" cy="159" r="7" fill="rgb(20,135,255)" opacity="0.35"/>
<circle cx="29" cy="159" r="5.0" fill="rgb(20,135,255)"/>
<circle cx="43" cy="159" r="7" fill="rgb(36,104,254)" opacity="0.35"/>
<circle cx="43" cy="159" r="5.0" fill="rgb(36,104,254)"/>
<circle cx="57" cy="159" r="7" fill="rgb(34,108,254)" opacity="0.35"/>
<circle cx="57" cy="159" r="5.0" fill="rgb(34,108,254)"/>
<circle cx="71" cy="159" r="7" fill="rgb(15,146,255)" opacity="0.35"/>
<circle cx="71" cy="159" r="5.0" fill="rgb(15,146,255)"/>
<circle cx="85" cy="159" r="7" fill="rgb(0,184,196)" opacity="0.35"/>
<circle cx="85" cy="159" r="5.0" fill="rgb(0,184,196)"/>
<circle cx="99" cy="159" r="7" fill="rgb(21,201,76)" opacity="0.35"/>
<circle cx="99" cy="159" r="5.0" fill="rgb(21,201,76)"/>
<circle cx="113" cy="159" r="7" fill="rgb(188,210,22)" opacity="0.35"/>
<circle cx="113" cy="159" r="5.0" fill="rgb(188,210,22)"/>
<circle cx="127" cy="159" r="7" fill="rgb(255,200,0)" opacity="0.35"/>
<circle cx="127" cy="159" r="5.0" fill="rgb(255,200,0)"/>
<circle cx="141" cy="159" r="7" fill="rgb(255,194,0)" opacity="0.35"/>
<circle cx="141" cy="159" r="5.0" fill="rgb(255,194,0)"/>
<circle cx="155" cy="159" r="7" fill="rgb(232,212,8)" opacity="0.35"/>
<circle cx="155" cy="159" r="5.0" fill="rgb(232,212,8)"/>
<circle cx="169" cy="159" r="7" fill="rgb(81,204,57)" opacity="0.35"/>
<circle cx="169" cy="159" r="5.0" fill="rgb(81,204,57)"/>
<circle cx="183" cy="159" r="7" fill="rgb(0,190,154)" opacity="0.35"/>
<circle cx="183" cy="159" r="5.0" fill="rgb(0,190,154)"/>
<circle cx="197" cy="159" r="7" fill="rgb(5,165,255)" opacity="0.35"/>
<circle cx="197" cy="159" r="5.0" fill="rgb(5,165,255)"/>
<circle cx="211" cy="159" r="7" fill="rgb(29,117,254)" opacity="0.35"/>
<circle cx="211" cy="159" r="5.0" fill="rgb(29,117,254)"/>
<circle cx="225" cy="159" r="7" fill="rgb(37,101,254)" opacity="0.35"/>
<circle cx="225" cy="159" r="5.0" fill="rgb(37,101,254)"/>
<circle cx="15" cy="173" r="7" fill="rgb(24,127,254)" opacity="0.35"/>
<circle cx="15" cy="173" r="5.0" fill="rgb(24,127,254)"/>
<circle cx="29" cy="173" r="7" fill="rgb(65,71,253)" opacity="0.35"/>
<circle cx="29" cy="173" r="5.0" fill="rgb(65,71,253)"/>
<circle cx="43" cy="173" r="7" fill="rgb(117,46,252)" opacity="0.35"/>
<circle cx="43" cy="173" r="5.0" fill="rgb(117,46,252)"/>
<circle cx="57" cy="173" r="7" fill="rgb(110,49,252)" opacity="0.35"/>
<circle cx="57" cy="173" r="5.0" fill="rgb(110,49,252)"/>
<circle cx="71" cy="173" r="7" fill="rgb(47,81,254)" opacity="0.35"/>
<circle cx="71" cy="173" r="5.0" fill="rgb(47,81,254)"/>
<circle cx="85" cy="173" r="7" fill="rgb(16,144,255)" opacity="0.35"/>
<circle cx="85" cy="173" r="5.0" fill="rgb(16,144,255)"/>
<circle cx="99" cy="173" r="7" fill="rgb(0,186,185)" opacity="0.35"/>
<circle cx="99" cy="173" r="5.0" fill="rgb(0,186,185)"/>
<circle cx="113" cy="173" r="7" fill="rgb(16,201,78)" opacity="0.35"/>
<circle cx="113" cy="173" r="5.0" fill="rgb(16,201,78)"/>
<circle cx="127" cy="173" r="7" fill="rgb(121,206,44)" opacity="0.35"/>
<circle cx="127" cy="173" r="5.0" fill="rgb(121,206,44)"/>
<circle cx="141" cy="173" r="7" fill="rgb(136,207,39)" opacity="0.35"/>
<circle cx="141" cy="173" r="5.0" fill="rgb(136,207,39)"/>
<circle cx="155" cy="173" r="7" fill="rgb(60,203,64)" opacity="0.35"/>
<circle cx="155" cy="173" r="5.0" fill="rgb(60,203,64)"/>
<circle cx="169" cy="173" r="7" fill="rgb(0,191,144)" opacity="0.35"/>
<circle cx="169" cy="173" r="5.0" fill="rgb(0,191,144)"/>
<circle cx="183" cy="173" r="7" fill="rgb(4,167,255)" opacity="0.35"/>
<circle cx="183" cy="173" r="5.0" fill="rgb(4,167,255)"/>
<circle cx="197" cy="173" r="7" fill="rgb(38,100,254)" opacity="0.35"/>
<circle cx="197" cy="173" r="5.0" fill="rgb(38,100,254)"/>
<circle cx="211" cy="173" r="7" fill="rgb(94,57,253)" opacity="0.35"/>
<circle cx="211" cy="173" r="5.0" fill="rgb(94,57,253)"/>
<circle cx="225" cy="173" r="7" fill="rgb(121,44,252)" opacity="0.35"/>
<circle cx="225" cy="173" r="5.0" fill="rgb(121,44,252)"/>
<circle cx="15" cy="187" r="7" fill="rgb(45,85,254)" opacity="0.35"/>
<circle cx="15" cy="187" r="5.0" fill="rgb(45,85,254)"/>
<circle cx="29" cy="187" r="7" fill="rgb(138,36,251)" opacity="0.35"/>
<circle cx="29" cy="187" r="5.0" fill="rgb(138,36,251)"/>
<circle cx="43" cy="187" r="7" fill="rgb(190,11,250)" opacity="0.35"/>
<circle cx="43" cy="187" r="5.0" fill="rgb(190,11,250)"/>
<circle cx="57" cy="187" r="7" fill="rgb(183,14,250)" opacity="0.35"/>
<circle cx="57" cy="187" r="5.0" fill="rgb(183,14,250)"/>
<circle cx="71" cy="187" r="7" fill="rgb(118,46,252)" opacity="0.35"/>
<circle cx="71" cy="187" r="5.0" fill="rgb(118,46,252)"/>
<circle cx="85" cy="187" r="7" fill="rgb(37,101,254)" opacity="0.35"/>
<circle cx="85" cy="187" r="5.0" fill="rgb(37,101,254)"/>
<circle cx="99" cy="187" r="7" fill="rgb(2,173,255)" opacity="0.35"/>
<circle cx="99" cy="187" r="5.0" fill="rgb(2,173,255)"/>
<circle cx="113" cy="187" r="7" fill="rgb(0,191,148)" opacity="0.35"/>
<circle cx="113" cy="187" r="5.0" fill="rgb(0,191,148)"/>
<circle cx="127" cy="187" r="7" fill="rgb(8,200,81)" opacity="0.35"/>
<circle cx="127" cy="187" r="5.0" fill="rgb(8,200,81)"/>
<circle cx="141" cy="187" r="7" fill="rgb(23,201,75)" opacity="0.35"/>
<circle cx="141" cy="187" r="5.0" fill="rgb(23,201,75)"/>
<circle cx="155" cy="187" r="7" fill="rgb(0,195,119)" opacity="0.35"/>
<circle cx="155" cy="187" r="5.0" fill="rgb(0,195,119)"/>
<circle cx="169" cy="187" r="7" fill="rgb(0,181,220)" opacity="0.35"/>
<circle cx="169" cy="187" r="5.0" fill="rgb(0,181,220)"/>
<circle cx="183" cy="187" r="7" fill="rgb(26,124,254)" opacity="0.35"/>
<circle cx="183" cy="187" r="5.0" fill="rgb(26,124,254)"/>
<circle cx="197" cy="187" r="7" fill="rgb(86,61,253)" opacity="0.35"/>
<circle cx="197" cy="187" r="5.0" fill="rgb(86,61,253)"/>
<circle cx="211" cy="187" r="7" fill="rgb(167,22,250)" opacity="0.35"/>
<circle cx="211" cy="187" r="5.0" fill="rgb(167,22,250)"/>
<circle cx="225" cy="187" r="7" fill="rgb(194,9,250)" opacity="0.35"/>
<circle cx="225" cy="187" r="5.0" fill="rgb(194,9,250)"/>
<circle cx="15" cy="201" r="7" fill="rgb(56,75,254)" opacity="0.35"/>
<circle cx="15" cy="201" r="5.0" fill="rgb(56,75,254)"/>
<circle cx="29" cy="201" r="7" fill="rgb(155,28,251)" opacity="0.35"/>
<circle cx="29" cy="201" r="5.0" fill="rgb(155,28,251)"/>
<circle cx="43" cy="201" r="7" fill="rgb(207,3,249)" opacity="0.35"/>
<circle cx="43" cy="201" r="5.0" fill="rgb(207,3,249)"/>
<circle cx="57" cy="201" r="7" fill="rgb(200,6,249)" opacity="0.35"/>
<circle cx="57" cy="201" r="5.0" fill="rgb(200,6,249)"/>
<circle cx="71" cy="201" r="7" fill="rgb(135,37,251)" opacity="0.35"/>
<circle cx="71" cy="201" r="5.0" fill="rgb(135,37,251)"/>
<circle cx="85" cy="201" r="7" fill="rgb(42,91,254)" opacity="0.35"/>
<circle cx="85" cy="201" r="5.0" fill="rgb(42,91,254)"/>
<circle cx="99" cy="201" r="7" fill="rgb(7,163,255)" opacity="0.35"/>
<circle cx="99" cy="201" r="5.0" fill="rgb(7,163,255)"/>
<circle cx="113" cy="201" r="7" fill="rgb(0,188,166)" opacity="0.35"/>
<circle cx="113" cy="201" r="5.0" fill="rgb(0,188,166)"/>
<circle cx="127" cy="201" r="7" fill="rgb(0,198,96)" opacity="0.35"/>
<circle cx="127" cy="201" r="5.0" fill="rgb(0,198,96)"/>
<circle cx="141" cy="201" r="7" fill="rgb(0,200,85)" opacity="0.35"/>
<circle cx="141" cy="201" r="5.0" fill="rgb(0,200,85)"/>
<circle cx="155" cy="201" r="7" fill="rgb(0,193,137)" opacity="0.35"/>
<circle cx="155" cy="201" r="5.0" fill="rgb(0,193,137)"/>
<circle cx="169" cy="201" r="7" fill="rgb(0,178,238)" opacity="0.35"/>
<circle cx="169" cy="201" r="5.0" fill="rgb(0,178,238)"/>
<circle cx="183" cy="201" r="7" fill="rgb(30,114,254)" opacity="0.35"/>
<circle cx="183" cy="201" r="5.0" fill="rgb(30,114,254)"/>
<circle cx="197" cy="201" r="7" fill="rgb(103,53,252)" opacity="0.35"/>
<circle cx="197" cy="201" r="5.0" fill="rgb(103,53,252)"/>
<circle cx="211" cy="201" r="7" fill="rgb(184,14,250)" opacity="0.35"/>
<circle cx="211" cy="201" r="5.0" fill="rgb(184,14,250)"/>
<circle cx="225" cy="201" r="7" fill="rgb(211,1,249)" opacity="0.35"/>
<circle cx="225" cy="201" r="5.0" fill="rgb(211,1,249)"/>
<circle cx="15" cy="215" r="7" fill="rgb(38,100,254)" opacity="0.35"/>
<circle cx="15" cy="215" r="5.0" fill="rgb(38,100,254)"/>
<circle cx="29" cy="215" r="7" fill="rgb(111,49,252)" opacity="0.35"/>
<circle cx="29" cy="215" r="5.0" fill="rgb(111,49,252)"/>
<circle cx="43" cy="215" r="7" fill="rgb(164,24,250)" opacity="0.35"/>
<circle cx="43" cy="215" r="5.0" fill="rgb(164,24,250)"/>
<circle cx="57" cy="215" r="7" fill="rgb(157,27,251)" opacity="0.35"/>
<circle cx="57" cy="215" r="5.0" fill="rgb(157,27,251)"/>
<circle cx="71" cy="215" r="7" fill="rgb(92,58,253)" opacity="0.35"/>
<circle cx="71" cy="215" r="5.0" fill="rgb(92,58,253)"/>
<circle cx="85" cy="215" r="7" fill="rgb(30,116,254)" opacity="0.35"/>
<circle cx="85" cy="215" r="5.0" fill="rgb(30,116,254)"/>
<circle cx="99" cy="215" r="7" fill="rgb(0,179,234)" opacity="0.35"/>
<circle cx="99" cy="215" r="5.0" fill="rgb(0,179,234)"/>
<circle cx="113" cy="215" r="7" fill="rgb(0,195,121)" opacity="0.35"/>
<circle cx="113" cy="215" r="5.0" fill="rgb(0,195,121)"/>
<circle cx="127" cy="215" r="7" fill="rgb(48,202,67)" opacity="0.35"/>
<circle cx="127" cy="215" r="5.0" fill="rgb(48,202,67)"/>
<circle cx="141" cy="215" r="7" fill="rgb(64,203,62)" opacity="0.35"/>
<circle cx="141" cy="215" r="5.0" fill="rgb(64,203,62)"/>
<circle cx="155" cy="215" r="7" fill="rgb(0,199,92)" opacity="0.35"/>
<circle cx="155" cy="215" r="5.0" fill="rgb(0,199,92)"/>
<circle cx="169" cy="215" r="7" fill="rgb(0,185,193)" opacity="0.35"/>
<circle cx="169" cy="215" r="5.0" fill="rgb(0,185,193)"/>
<circle cx="183" cy="215" r="7" fill="rgb(18,140,255)" opacity="0.35"/>
<circle cx="183" cy="215" r="5.0" fill="rgb(18,140,255)"/>
<circle cx="197" cy="215" r="7" fill="rgb(60,73,254)" opacity="0.35"/>
<circle cx="197" cy="215" r="5.0" fill="rgb(60,73,254)"/>
<circle cx="211" cy="215" r="7" fill="rgb(141,35,251)" opacity="0.35"/>
<circle cx="211" cy="215" r="5.0" fill="rgb(141,35,251)"/>
<circle cx="225" cy="215" r="7" fill="rgb(168,21,250)" opacity="0.35"/>
<circle cx="225" cy="215" r="5.0" fill="rgb(168,21,250)"/>
<circle cx="15" cy="229" r="7" fill="rgb(11,155,255)" opacity="0.35"/>
<circle cx="15" cy="229" r="5.0" fill="rgb(11,155,255)"/>
<circle cx="29" cy="229" r="7" fill="rgb(39,96,254)" opacity="0.35"/>
<circle cx="29" cy="229" r="5.0" fill="rgb(39,96,254)"/>
<circle cx="43" cy="229" r="7" fill="rgb(71,68,253)" opacity="0.35"/>
<circle cx="43" cy="229" r="5.0" fill="rgb(71,68,253)"/>
<circle cx="57" cy="229" r="7" fill="rgb(64,71,254)" opacity="0.35"/>
<circle cx="57" cy="229" r="5.0" fill="rgb(64,71,254)"/>
<circle cx="71" cy="229" r="7" fill="rgb(34,108,254)" opacity="0.35"/>
<circle cx="71" cy="229" r="5.0" fill="rgb(34,108,254)"/>
<circle cx="85" cy="229" r="7" fill="rgb(3,171,255)" opacity="0.35"/>
<circle cx="85" cy="229" r="5.0" fill="rgb(3,171,255)"/>
<circle cx="99" cy="229" r="7" fill="rgb(0,192,137)" opacity="0.35"/>
<circle cx="99" cy="229" r="5.0" fill="rgb(0,192,137)"/>
<circle cx="113" cy="229" r="7" fill="rgb(87,204,55)" opacity="0.35"/>
<circle cx="113" cy="229" r="5.0" fill="rgb(87,204,55)"/>
<circle cx="127" cy="229" r="7" fill="rgb(192,210,21)" opacity="0.35"/>
<circle cx="127" cy="229" r="5.0" fill="rgb(192,210,21)"/>
<circle cx="141" cy="229" r="7" fill="rgb(207,211,16)" opacity="0.35"/>
<circle cx="141" cy="229" r="5.0" fill="rgb(207,211,16)"/>
<circle cx="155" cy="229" r="7" fill="rgb(131,207,40)" opacity="0.35"/>
<circle cx="155" cy="229" r="5.0" fill="rgb(131,207,40)"/>
<circle cx="169" cy="229" r="7" fill="rgb(0,198,96)" opacity="0.35"/>
<circle cx="169" cy="229" r="5.0" fill="rgb(0,198,96)"/>
<circle cx="183" cy="229" r="7" fill="rgb(0,181,222)" opacity="0.35"/>
<circle cx="183" cy="229" r="5.0" fill="rgb(0,181,222)"/>
<circle cx="197" cy="229" r="7" fill="rgb(24,127,254)" opacity="0.35"/>
<circle cx="197" cy="229" r="5.0" fill="rgb(24,127,254)"/>
<circle cx="211" cy="229" r="7" fill="rgb(48,79,254)" opacity="0.35"/>
<circle cx="211" cy="229" r="5.0" fill="rgb(48,79,254)"/>
<circle cx="225" cy="229" r="7" fill="rgb(75,66,253)" opacity="0.35"/>
<circle cx="225" cy="229" r="5.0" fill="rgb(75,66,253)"/>
<circle cx="15" cy="243" r="7" fill="rgb(0,188,168)" opacity="0.35"/>
<circle cx="15" cy="243" r="5.0" fill="rgb(0,188,168)"/>
<circle cx="29" cy="243" r="7" fill="rgb(5,167,255)" opacity="0.35"/>
<circle cx="29" cy="243" r="5.0" fill="rgb(5,167,255)"/>
<circle cx="43" cy="243" r="7" fill="rgb(20,136,255)" opacity="0.35"/>
<circle cx="43" cy="243" r="5.0" fill="rgb(20,136,255)"/>
<circle cx="57" cy="243" r="7" fill="rgb(18,140,255)" opacity="0.35"/>
<circle cx="57" cy="243" r="5.0" fill="rgb(18,140,255)"/>
<circle cx="71" cy="243" r="7" fill="rgb(0,177,251)" opacity="0.35"/>
<circle cx="71" cy="243" r="5.0" fill="rgb(0,177,251)"/>
<circle cx="85" cy="243" r="7" fill="rgb(0,192,140)" opacity="0.35"/>
<circle cx="85" cy="243" r="5.0" fill="rgb(0,192,140)"/>
<circle cx="99" cy="243" r="7" fill="rgb(105,205,49)" opacity="0.35"/>
<circle cx="99" cy="243" r="5.0" fill="rgb(105,205,49)"/>
<circle cx="113" cy="243" r="7" fill="rgb(255,207,0)" opacity="0.35"/>
<circle cx="113" cy="243" r="5.0" fill="rgb(255,207,0)"/>
<circle cx="127" cy="243" r="7" fill="rgb(255,170,0)" opacity="0.35"/>
<circle cx="127" cy="243" r="5.0" fill="rgb(255,170,0)"/>
<circle cx="141" cy="243" r="7" fill="rgb(255,164,0)" opacity="0.35"/>
<circle cx="141" cy="243" r="5.0" fill="rgb(255,164,0)"/>
<circle cx="155" cy="243" r="7" fill="rgb(255,191,0)" opacity="0.35"/>
<circle cx="155" cy="243" r="5.0" fill="rgb(255,191,0)"/>
<circle cx="169" cy="243" r="7" fill="rgb(166,208,29)" opacity="0.35"/>
<circle cx="169" cy="243" r="5.0" fill="rgb(166,208,29)"/>
<circle cx="183" cy="243" r="7" fill="rgb(0,198,97)" opacity="0.35"/>
<circle cx="183" cy="243" r="5.0" fill="rgb(0,198,97)"/>
<circle cx="197" cy="243" r="7" fill="rgb(0,181,218)" opacity="0.35"/>
<circle cx="197" cy="243" r="5.0" fill="rgb(0,181,218)"/>
<circle cx="211" cy="243" r="7" fill="rgb(13,149,255)" opacity="0.35"/>
<circle cx="211" cy="243" r="5.0" fill="rgb(13,149,255)"/>
<circle cx="225" cy="243" r="7" fill="rgb(21,133,255)" opacity="0.35"/>
<circle cx="225" cy="243" r="5.0" fill="rgb(21,133,255)"/>
<circle cx="15" cy="257" r="7" fill="rgb(55,203,65)" opacity="0.35"/>
<circle cx="15" cy="257" r="5.0" fill="rgb(55,203,65)"/>
<circle cx="29" cy="257" r="7" fill="rgb(0,191,149)" opacity="0.35"/>
<circle cx="29" cy="257" r="5.0" fill="rgb(0,191,149)"/>
<circle cx="43" cy="257" r="7" fill="rgb(0,183,204)" opacity="0.35"/>
<circle cx="43" cy="257" r="5.0" fill="rgb(0,183,204)"/>
<circle cx="57" cy="257" r="7" fill="rgb(0,184,196)" opacity="0.35"/>
<circle cx="57" cy="257" r="5.0" fill="rgb(0,184,196)"/>
<circle cx="71" cy="257" r="7" fill="rgb(0,194,129)" opacity="0.35"/>
<circle cx="71" cy="257" r="5.0" fill="rgb(0,194,129)"/>
<circle cx="85" cy="257" r="7" fill="rgb(97,205,51)" opacity="0.35"/>
<circle cx="85" cy="257" r="5.0" fill="rgb(97,205,51)"/>
<circle cx="99" cy="257" r="7" fill="rgb(255,202,0)" opacity="0.35"/>
<circle cx="99" cy="257" r="5.0" fill="rgb(255,202,0)"/>
<circle cx="113" cy="257" r="7" fill="rgb(255,142,0)" opacity="0.35"/>
<circle cx="113" cy="257" r="5.0" fill="rgb(255,142,0)"/>
<circle cx="127" cy="257" r="7" fill="rgb(255,99,0)" opacity="0.35"/>
<circle cx="127" cy="257" r="5.0" fill="rgb(255,99,0)"/>
<circle cx="141" cy="257" r="7" fill="rgb(255,91,0)" opacity="0.35"/>
<circle cx="141" cy="257" r="5.0" fill="rgb(255,91,0)"/>
<circle cx="155" cy="257" r="7" fill="rgb(255,127,0)" opacity="0.35"/>
<circle cx="155" cy="257" r="5.0" fill="rgb(255,127,0)"/>
<circle cx="169" cy="257" r="7" fill="rgb(255,180,0)" opacity="0.35"/>
<circle cx="169" cy="257" r="5.0" fill="rgb(255,180,0)"/>
<circle cx="183" cy="257" r="7" fill="rgb(160,208,31)" opacity="0.35"/>
<circle cx="183" cy="257" r="5.0" fill="rgb(160,208,31)"/>
<circle cx="197" cy="257" r="7" fill="rgb(0,198,95)" opacity="0.35"/>
<circle cx="197" cy="257" r="5.0" fill="rgb(0,198,95)"/>
<circle cx="211" cy="257" r="7" fill="rgb(0,186,180)" opacity="0.35"/>
<circle cx="211" cy="257" r="5.0" fill="rgb(0,186,180)"/>
<circle cx="225" cy="257" r="7" fill="rgb(0,183,208)" opacity="0.35"/>
<circle cx="225" cy="257" r="5.0" fill="rgb(0,183,208)"/>
<circle cx="-2" cy="280" r="9" fill="#9aa0a6" opacity="0.25"/>
<circle cx="-2" cy="280" r="6" fill="#9aa0a6" stroke="#0d0f12" stroke-width="1.5"/>
<text x="10" y="284" font-family="'JetBrains Mono','Cascadia Mono','Consolas',monospace" font-size="12" fill="#a0a0a0">Speed</text>
<circle cx="242" cy="280" r="9" fill="#5ad1ff" opacity="0.25"/>
<circle cx="242" cy="280" r="6" fill="#5ad1ff" stroke="#0d0f12" stroke-width="1.5"/>
<text x="230" y="284" text-anchor="end" font-family="'JetBrains Mono','Cascadia Mono','Consolas',monospace" font-size="12" fill="#a0a0a0">Frame</text>
<circle cx="-2" cy="308" r="9" fill="#9aa0a6" opacity="0.25"/>
<circle cx="-2" cy="308" r="6" fill="#9aa0a6" stroke="#0d0f12" stroke-width="1.5"/>
<text x="10" y="312" font-family="'JetBrains Mono','Cascadia Mono','Consolas',monospace" font-size="12" fill="#a0a0a0">Scale</text>
<circle cx="242" cy="308" r="9" fill="#f5c542" opacity="0.25"/>
<circle cx="242" cy="308" r="6" fill="#f5c542" stroke="#0d0f12" stroke-width="1.5"/>
<text x="230" y="312" text-anchor="end" font-family="'JetBrains Mono','Cascadia Mono','Consolas',monospace" font-size="12" fill="#a0a0a0">Field</text>
<circle cx="-2" cy="336" r="9" fill="#ff5cf0" opacity="0.25"/>
<circle cx="-2" cy="336" r="6" fill="#ff5cf0" stroke="#0d0f12" stroke-width="1.5"/>
<text x="10" y="340" font-family="'JetBrains Mono','Cascadia Mono','Consolas',monospace" font-size="12" fill="#a0a0a0">Palette</text>
<line x1="8" y1="356" x2="232" y2="356" stroke="rgba(255,255,255,0.08)"/>
<text x="8" y="376" font-family="'JetBrains Mono','Cascadia Mono','Consolas',monospace" font-size="12" fill="#a0a0a0">noiseType</text>
<g>
<rect x="148" y="364" width="84" height="16" rx="4" fill="#0d0f12" stroke="rgba(255,255,255,0.12)"/>
<text x="152" y="376" font-family="'JetBrains Mono','Cascadia Mono','Consolas',monospace" font-size="11" fill="#e0e0e0">field</text>
<text x="228" y="376" text-anchor="end" font-size="8" fill="#a0a0a0">▾</text>
</g>
<text x="8" y="397" font-family="'JetBrains Mono','Cascadia Mono','Consolas',monospace" font-size="12" fill="#a0a0a0">speed</text>
<g>
<rect x="120" y="391" width="72" height="4" rx="2" fill="#cfd2d6" opacity="0.85"/>
<rect x="120" y="391" width="36.0" height="4" rx="2" fill="#d633ff"/>
<circle cx="156.0" cy="393" r="5" fill="#d633ff"/>
<text x="232" y="397" text-anchor="end" font-family="'JetBrains Mono','Cascadia Mono','Consolas',monospace" font-size="12" fill="#e0e0e0">0.5</text>
</g>
<text x="8" y="418" font-family="'JetBrains Mono','Cascadia Mono','Consolas',monospace" font-size="12" fill="#a0a0a0">scale</text>
<g>
<rect x="120" y="412" width="72" height="4" rx="2" fill="#cfd2d6" opacity="0.85"/>
<rect x="120" y="412" width="36.0" height="4" rx="2" fill="#d633ff"/>
<circle cx="156.0" cy="414" r="5" fill="#d633ff"/>
<text x="232" y="418" text-anchor="end" font-family="'JetBrains Mono','Cascadia Mono','Consolas',monospace" font-size="12" fill="#e0e0e0">0.5</text>
</g>
<text x="8" y="439" font-family="'JetBrains Mono','Cascadia Mono','Consolas',monospace" font-size="12" fill="#a0a0a0">palette</text>
<g>
<rect x="148" y="427" width="84" height="16" rx="4" fill="#0d0f12" stroke="rgba(255,255,255,0.12)"/>
<text x="152" y="439" font-family="'JetBrains Mono','Cascadia Mono','Consolas',monospace" font-size="11" fill="#e0e0e0">rainbow</text>
<text x="228" y="439" text-anchor="end" font-size="8" fill="#a0a0a0">▾</text>
</g>
<text x="8" y="460" font-family="'JetBrains Mono','Cascadia Mono','Consolas',monospace" font-size="12" fill="#a0a0a0">seed</text>
<g>
<rect x="120" y="454" width="72" height="4" rx="2" fill="#cfd2d6" opacity="0.85"/>
<rect x="120" y="454" width="0.0" height="4" rx="2" fill="#d633ff"/>
<circle cx="120.0" cy="456" r="5" fill="#d633ff"/>
<text x="232" y="460" text-anchor="end" font-family="'JetBrains Mono','Cascadia Mono','Consolas',monospace" font-size="12" fill="#e0e0e0">0</text>
</g>
<text x="8" y="481" font-family="'JetBrains Mono','Cascadia Mono','Consolas',monospace" font-size="12" fill="#a0a0a0">clamp inputs</text>
<g>
<rect x="220" y="471" width="12" height="12" rx="3" fill="#0d0f12" stroke="rgba(255,255,255,0.12)"/>
</g>
</g>
</svg>
