<svg xmlns="http://www.w3.org/2000/svg" viewBox="0 0 296 657" width="296" height="657" role="img" aria-label="Particles node">

<defs><filter id="shadow" x="-20%" y="-20%" width="140%" height="160%"><feDropShadow dx="0" dy="8" stdDeviation="9" flood-color="#000" flood-opacity="0.45"/></filter></defs>
<g transform="translate(28,24)">
<rect x="0" y="0" width="240" height="599" rx="8" fill="#1f242b" stroke="rgba(255,255,255,0.12)" filter="url(#shadow)"/>
<rect x="0" y="0" width="240" height="599" rx="8" fill="#1f242b" stroke="rgba(255,255,255,0.12)"/>
<path d="M0,32 L0,8 Q0,0 8,0 L232,0 Q240,0 240,8 L240,32 Z" fill="#33d6ff"/>
<text x="8" y="21" font-family="'Audiowide','Trebuchet MS','Arial Black',sans-serif" font-size="14" font-weight="600" fill="#000">Fountain</text>
<rect x="154" y="10" width="25" height="12" rx="6" fill="rgba(0,0,0,0.14)" stroke="rgba(255,255,255,0.14)"/>
<text x="166.5" y="19" text-anchor="middle" font-family="'JetBrains Mono','Cascadia Mono','Consolas',monospace" font-size="8" letter-spacing="0.08em" fill="#000">PAT</text>
<rect x="185" y="10" width="47" height="12" rx="6" fill="rgba(0,0,0,0.14)" stroke="rgba(255,255,255,0.14)"/>
<text x="208.5" y="19" text-anchor="middle" font-family="'JetBrains Mono','Cascadia Mono','Consolas',monospace" font-size="8" letter-spacing="0.08em" fill="#000">PAR-973</text>
<rect x="8" y="40" width="224" height="224" rx="4" fill="#0d0f12" stroke="rgba(255,255,255,0.12)"/>
<rect x="11.50" y="43.50" width="7.00" height="7.00" rx="1.26" fill="rgb(0,0,0)"/>
<rect x="25.50" y="43.50" width="7.00" height="7.00" rx="1.26" fill="rgb(0,0,0)"/>
<rect x="39.50" y="43.50" width="7.00" height="7.00" rx="1.26" fill="rgb(0,0,0)"/>
<rect x="53.50" y="43.50" width="7.00" height="7.00" rx="1.26" fill="rgb(0,0,0)"/>
<rect x="67.50" y="43.50" width="7.00" height="7.00" rx="1.26" fill="rgb(0,0,0)"/>
<rect x="81.50" y="43.50" width="7.00" height="7.00" rx="1.26" fill="rgb(0,0,0)"/>
<rect x="95.50" y="43.50" width="7.00" height="7.00" rx="1.26" fill="rgb(0,0,0)"/>
<rect x="109.50" y="43.50" width="7.00" height="7.00" rx="1.26" fill="rgb(0,0,0)"/>
<rect x="123.50" y="43.50" width="7.00" height="7.00" rx="1.26" fill="rgb(0,0,0)"/>
<rect x="137.50" y="43.50" width="7.00" height="7.00" rx="1.26" fill="rgb(0,0,0)"/>
<rect x="151.50" y="43.50" width="7.00" height="7.00" rx="1.26" fill="rgb(0,0,0)"/>
<rect x="165.50" y="43.50" width="7.00" height="7.00" rx="1.26" fill="rgb(0,0,0)"/>
<rect x="179.50" y="43.50" width="7.00" height="7.00" rx="1.26" fill="rgb(0,0,0)"/>
<rect x="193.50" y="43.50" width="7.00" height="7.00" rx="1.26" fill="rgb(0,0,0)"/>
<rect x="207.50" y="43.50" width="7.00" height="7.00" rx="1.26" fill="rgb(0,0,0)"/>
<rect x="221.50" y="43.50" width="7.00" height="7.00" rx="1.26" fill="rgb(0,0,0)"/>
<rect x="11.50" y="57.50" width="7.00" height="7.00" rx="1.26" fill="rgb(0,0,0)"/>
<rect x="25.50" y="57.50" width="7.00" height="7.00" rx="1.26" fill="rgb(0,0,0)"/>
<rect x="39.50" y="57.50" width="7.00" height="7.00" rx="1.26" fill="rgb(0,0,0)"/>
<rect x="53.50" y="57.50" width="7.00" height="7.00" rx="1.26" fill="rgb(0,0,0)"/>
<rect x="67.50" y="57.50" width="7.00" height="7.00" rx="1.26" fill="rgb(0,0,0)"/>
<rect x="81.50" y="57.50" width="7.00" height="7.00" rx="1.26" fill="rgb(0,0,0)"/>
<rect x="95.50" y="57.50" width="7.00" height="7.00" rx="1.26" fill="rgb(0,0,0)"/>
<rect x="109.50" y="57.50" width="7.00" height="7.00" rx="1.26" fill="rgb(0,0,0)"/>
<rect x="123.50" y="57.50" width="7.00" height="7.00" rx="1.26" fill="rgb(0,0,0)"/>
<rect x="137.50" y="57.50" width="7.00" height="7.00" rx="1.26" fill="rgb(0,0,0)"/>
<rect x="151.50" y="57.50" width="7.00" height="7.00" rx="1.26" fill="rgb(0,0,0)"/>
<rect x="165.50" y="57.50" width="7.00" height="7.00" rx="1.26" fill="rgb(0,0,0)"/>
<rect x="179.50" y="57.50" width="7.00" height="7.00" rx="1.26" fill="rgb(0,0,0)"/>
<rect x="193.50" y="57.50" width="7.00" height="7.00" rx="1.26" fill="rgb(0,0,0)"/>
<rect x="207.50" y="57.50" width="7.00" height="7.00" rx="1.26" fill="rgb(0,0,0)"/>
<rect x="221.50" y="57.50" width="7.00" height="7.00" rx="1.26" fill="rgb(0,0,0)"/>
<rect x="11.50" y="71.50" width="7.00" height="7.00" rx="1.26" fill="rgb(0,0,0)"/>
<rect x="25.50" y="71.50" width="7.00" height="7.00" rx="1.26" fill="rgb(0,0,0)"/>
<rect x="39.50" y="71.50" width="7.00" height="7.00" rx="1.26" fill="rgb(0,0,0)"/>
<rect x="53.50" y="71.50" width="7.00" height="7.00" rx="1.26" fill="rgb(0,0,0)"/>
<rect x="67.50" y="71.50" width="7.00" height="7.00" rx="1.26" fill="rgb(0,0,0)"/>
<rect x="81.50" y="71.50" width="7.00" height="7.00" rx="1.26" fill="rgb(0,0,0)"/>
<rect x="95.50" y="71.50" width="7.00" height="7.00" rx="1.26" fill="rgb(0,0,0)"/>
<rect x="109.50" y="71.50" width="7.00" height="7.00" rx="1.26" fill="rgb(0,0,0)"/>
<rect x="123.50" y="71.50" width="7.00" height="7.00" rx="1.26" fill="rgb(0,0,0)"/>
<rect x="137.50" y="71.50" width="7.00" height="7.00" rx="1.26" fill="rgb(0,0,0)"/>
<rect x="151.50" y="71.50" width="7.00" height="7.00" rx="1.26" fill="rgb(0,0,0)"/>
<rect x="165.50" y="71.50" width="7.00" height="7.00" rx="1.26" fill="rgb(0,0,0)"/>
<rect x="179.50" y="71.50" width="7.00" height="7.00" rx="1.26" fill="rgb(0,0,0)"/>
<rect x="193.50" y="71.50" width="7.00" height="7.00" rx="1.26" fill="rgb(0,0,0)"/>
<rect x="207.50" y="71.50" width="7.00" height="7.00" rx="1.26" fill="rgb(0,0,0)"/>
<rect x="221.50" y="71.50" width="7.00" height="7.00" rx="1.26" fill="rgb(0,0,0)"/>
<rect x="11.50" y="85.50" width="7.00" height="7.00" rx="1.26" fill="rgb(0,0,0)"/>
<rect x="25.50" y="85.50" width="7.00" height="7.00" rx="1.26" fill="rgb(0,0,0)"/>
<rect x="39.50" y="85.50" width="7.00" height="7.00" rx="1.26" fill="rgb(0,0,0)"/>
<rect x="53.50" y="85.50" width="7.00" height="7.00" rx="1.26" fill="rgb(0,0,0)"/>
<rect x="67.50" y="85.50" width="7.00" height="7.00" rx="1.26" fill="rgb(0,0,0)"/>
<rect x="81.50" y="85.50" width="7.00" height="7.00" rx="1.26" fill="rgb(0,0,0)"/>
<rect x="95.50" y="85.50" width="7.00" height="7.00" rx="1.26" fill="rgb(0,0,0)"/>
<rect x="109.50" y="85.50" width="7.00" height="7.00" rx="1.26" fill="rgb(0,0,0)"/>
<rect x="123.50" y="85.50" width="7.00" height="7.00" rx="1.26" fill="rgb(0,0,0)"/>
<rect x="137.50" y="85.50" width="7.00" height="7.00" rx="1.26" fill="rgb(0,0,0)"/>
<rect x="151.50" y="85.50" width="7.00" height="7.00" rx="1.26" fill="rgb(0,0,0)"/>
<rect x="165.50" y="85.50" width="7.00" height="7.00" rx="1.26" fill="rgb(0,0,0)"/>
<rect x="179.50" y="85.50" width="7.00" height="7.00" rx="1.26" fill="rgb(0,0,0)"/>
<rect x="193.50" y="85.50" width="7.00" height="7.00" rx="1.26" fill="rgb(0,0,0)"/>
<rect x="207.50" y="85.50" width="7.00" height="7.00" rx="1.26" fill="rgb(0,0,0)"/>
<rect x="221.50" y="85.50" width="7.00" height="7.00" rx="1.26" fill="rgb(0,0,0)"/>
<rect x="11.50" y="99.50" width="7.00" height="7.00" rx="1.26" fill="rgb(0,0,0)"/>
<rect x="25.50" y="99.50" width="7.00" height="7.00" rx="1.26" fill="rgb(0,0,0)"/>
<rect x="39.50" y="99.50" width="7.00" height="7.00" rx="1.26" fill="rgb(0,0,0)"/>
<rect x="53.50" y="99.50" width="7.00" height="7.00" rx="1.26" fill="rgb(0,0,0)"/>
<rect x="67.50" y="99.50" width="7.00" height="7.00" rx="1.26" fill="rgb(0,0,0)"/>
<rect x="81.50" y="99.50" width="7.00" height="7.00" rx="1.26" fill="rgb(0,0,0)"/>
<rect x="95.50" y="99.50" width="7.00" height="7.00" rx="1.26" fill="rgb(0,0,0)"/>
<rect x="109.50" y="99.50" width="7.00" height="7.00" rx="1.26" fill="rgb(0,0,0)"/>
<rect x="123.50" y="99.50" width="7.00" height="7.00" rx="1.26" fill="rgb(0,0,0)"/>
<rect x="137.50" y="99.50" width="7.00" height="7.00" rx="1.26" fill="rgb(0,0,0)"/>
<rect x="151.50" y="99.50" width="7.00" height="7.00" rx="1.26" fill="rgb(0,0,0)"/>
<rect x="165.50" y="99.50" width="7.00" height="7.00" rx="1.26" fill="rgb(0,0,0)"/>
<rect x="179.50" y="99.50" width="7.00" height="7.00" rx="1.26" fill="rgb(0,0,0)"/>
<rect x="193.50" y="99.50" width="7.00" height="7.00" rx="1.26" fill="rgb(0,0,0)"/>
<rect x="207.50" y="99.50" width="7.00" height="7.00" rx="1.26" fill="rgb(0,0,0)"/>
<rect x="221.50" y="99.50" width="7.00" height="7.00" rx="1.26" fill="rgb(0,0,0)"/>
<rect x="11.50" y="113.50" width="7.00" height="7.00" rx="1.26" fill="rgb(0,0,0)"/>
<rect x="25.50" y="113.50" width="7.00" height="7.00" rx="1.26" fill="rgb(0,0,0)"/>
<rect x="39.50" y="113.50" width="7.00" height="7.00" rx="1.26" fill="rgb(0,0,0)"/>
<rect x="53.50" y="113.50" width="7.00" height="7.00" rx="1.26" fill="rgb(0,0,0)"/>
<rect x="67.50" y="113.50" width="7.00" height="7.00" rx="1.26" fill="rgb(0,0,0)"/>
<rect x="81.50" y="113.50" width="7.00" height="7.00" rx="1.26" fill="rgb(0,0,0)"/>
<rect x="95.50" y="113.50" width="7.00" height="7.00" rx="1.26" fill="rgb(0,0,0)"/>
<rect x="109.50" y="113.50" width="7.00" height="7.00" rx="1.26" fill="rgb(0,0,0)"/>
<rect x="123.50" y="113.50" width="7.00" height="7.00" rx="1.26" fill="rgb(0,0,0)"/>
<rect x="137.50" y="113.50" width="7.00" height="7.00" rx="1.26" fill="rgb(0,0,0)"/>
<rect x="151.50" y="113.50" width="7.00" height="7.00" rx="1.26" fill="rgb(0,0,0)"/>
<rect x="165.50" y="113.50" width="7.00" height="7.00" rx="1.26" fill="rgb(0,0,0)"/>
<rect x="179.50" y="113.50" width="7.00" height="7.00" rx="1.26" fill="rgb(0,0,0)"/>
<rect x="193.50" y="113.50" width="7.00" height="7.00" rx="1.26" fill="rgb(0,0,0)"/>
<rect x="207.50" y="113.50" width="7.00" height="7.00" rx="1.26" fill="rgb(0,0,0)"/>
<rect x="221.50" y="113.50" width="7.00" height="7.00" rx="1.26" fill="rgb(0,0,0)"/>
<rect x="11.50" y="127.50" width="7.00" height="7.00" rx="1.26" fill="rgb(0,0,0)"/>
<rect x="25.50" y="127.50" width="7.00" height="7.00" rx="1.26" fill="rgb(0,0,0)"/>
<rect x="39.50" y="127.50" width="7.00" height="7.00" rx="1.26" fill="rgb(0,0,0)"/>
<rect x="53.50" y="127.50" width="7.00" height="7.00" rx="1.26" fill="rgb(0,0,0)"/>
<rect x="67.50" y="127.50" width="7.00" height="7.00" rx="1.26" fill="rgb(0,0,0)"/>
<rect x="81.50" y="127.50" width="7.00" height="7.00" rx="1.26" fill="rgb(0,0,0)"/>
<rect x="95.50" y="127.50" width="7.00" height="7.00" rx="1.26" fill="rgb(0,0,0)"/>
<rect x="109.50" y="127.50" width="7.00" height="7.00" rx="1.26" fill="rgb(0,0,0)"/>
<rect x="123.50" y="127.50" width="7.00" height="7.00" rx="1.26" fill="rgb(0,0,0)"/>
<rect x="137.50" y="127.50" width="7.00" height="7.00" rx="1.26" fill="rgb(0,0,0)"/>
<rect x="151.50" y="127.50" width="7.00" height="7.00" rx="1.26" fill="rgb(0,0,0)"/>
<rect x="165.50" y="127.50" width="7.00" height="7.00" rx="1.26" fill="rgb(0,0,0)"/>
<rect x="179.50" y="127.50" width="7.00" height="7.00" rx="1.26" fill="rgb(0,0,0)"/>
<rect x="193.50" y="127.50" width="7.00" height="7.00" rx="1.26" fill="rgb(0,0,0)"/>
<rect x="207.50" y="127.50" width="7.00" height="7.00" rx="1.26" fill="rgb(0,0,0)"/>
<rect x="221.50" y="127.50" width="7.00" height="7.00" rx="1.26" fill="rgb(0,0,0)"/>
<rect x="11.50" y="141.50" width="7.00" height="7.00" rx="1.26" fill="rgb(0,0,0)"/>
<rect x="25.50" y="141.50" width="7.00" height="7.00" rx="1.26" fill="rgb(0,0,0)"/>
<rect x="39.50" y="141.50" width="7.00" height="7.00" rx="1.26" fill="rgb(0,0,0)"/>
<rect x="53.50" y="141.50" width="7.00" height="7.00" rx="1.26" fill="rgb(0,0,0)"/>
<rect x="67.50" y="141.50" width="7.00" height="7.00" rx="1.26" fill="rgb(0,0,0)"/>
<rect x="81.50" y="141.50" width="7.00" height="7.00" rx="1.26" fill="rgb(0,0,0)"/>
<rect x="95.50" y="141.50" width="7.00" height="7.00" rx="1.26" fill="rgb(0,0,0)"/>
<rect x="109.50" y="141.50" width="7.00" height="7.00" rx="1.26" fill="rgb(0,0,0)"/>
<rect x="123.50" y="141.50" width="7.00" height="7.00" rx="1.26" fill="rgb(0,0,0)"/>
<rect x="137.50" y="141.50" width="7.00" height="7.00" rx="1.26" fill="rgb(0,0,0)"/>
<rect x="151.50" y="141.50" width="7.00" height="7.00" rx="1.26" fill="rgb(0,0,0)"/>
<rect x="165.50" y="141.50" width="7.00" height="7.00" rx="1.26" fill="rgb(0,0,0)"/>
<rect x="179.50" y="141.50" width="7.00" height="7.00" rx="1.26" fill="rgb(0,0,0)"/>
<rect x="193.50" y="141.50" width="7.00" height="7.00" rx="1.26" fill="rgb(0,0,0)"/>
<rect x="207.50" y="141.50" width="7.00" height="7.00" rx="1.26" fill="rgb(0,0,0)"/>
<rect x="221.50" y="141.50" width="7.00" height="7.00" rx="1.26" fill="rgb(0,0,0)"/>
<rect x="11.50" y="155.50" width="7.00" height="7.00" rx="1.26" fill="rgb(0,0,0)"/>
<rect x="25.50" y="155.50" width="7.00" height="7.00" rx="1.26" fill="rgb(0,0,0)"/>
<rect x="39.50" y="155.50" width="7.00" height="7.00" rx="1.26" fill="rgb(0,0,0)"/>
<rect x="53.50" y="155.50" width="7.00" height="7.00" rx="1.26" fill="rgb(0,0,0)"/>
<rect x="67.50" y="155.50" width="7.00" height="7.00" rx="1.26" fill="rgb(0,0,0)"/>
<rect x="81.50" y="155.50" width="7.00" height="7.00" rx="1.26" fill="rgb(0,0,0)"/>
<rect x="95.50" y="155.50" width="7.00" height="7.00" rx="1.26" fill="rgb(0,0,0)"/>
<rect x="109.50" y="155.50" width="7.00" height="7.00" rx="1.26" fill="rgb(0,0,0)"/>
<rect x="123.50" y="155.50" width="7.00" height="7.00" rx="1.26" fill="rgb(0,0,0)"/>
<rect x="137.50" y="155.50" width="7.00" height="7.00" rx="1.26" fill="rgb(0,0,0)"/>
<rect x="151.50" y="155.50" width="7.00" height="7.00" rx="1.26" fill="rgb(0,0,0)"/>
<rect x="165.50" y="155.50" width="7.00" height="7.00" rx="1.26" fill="rgb(0,0,0)"/>
<rect x="179.50" y="155.50" width="7.00" height="7.00" rx="1.26" fill="rgb(0,0,0)"/>
<rect x="193.50" y="155.50" width="7.00" height="7.00" rx="1.26" fill="rgb(0,0,0)"/>
<rect x="207.50" y="155.50" width="7.00" height="7.00" rx="1.26" fill="rgb(0,0,0)"/>
<rect x="221.50" y="155.50" width="7.00" height="7.00" rx="1.26" fill="rgb(0,0,0)"/>
<rect x="11.50" y="169.50" width="7.00" height="7.00" rx="1.26" fill="rgb(0,0,0)"/>
<rect x="25.50" y="169.50" width="7.00" height="7.00" rx="1.26" fill="rgb(0,0,0)"/>
<rect x="39.50" y="169.50" width="7.00" height="7.00" rx="1.26" fill="rgb(0,0,0)"/>
<rect x="53.50" y="169.50" width="7.00" height="7.00" rx="1.26" fill="rgb(0,0,0)"/>
<rect x="67.50" y="169.50" width="7.00" height="7.00" rx="1.26" fill="rgb(0,0,0)"/>
<rect x="81.50" y="169.50" width="7.00" height="7.00" rx="1.26" fill="rgb(0,0,0)"/>
<rect x="95.50" y="169.50" width="7.00" height="7.00" rx="1.26" fill="rgb(0,0,0)"/>
<rect x="109.50" y="169.50" width="7.00" height="7.00" rx="1.26" fill="rgb(0,0,0)"/>
<rect x="123.50" y="169.50" width="7.00" height="7.00" rx="1.26" fill="rgb(0,0,0)"/>
<rect x="137.50" y="169.50" width="7.00" height="7.00" rx="1.26" fill="rgb(0,0,0)"/>
<rect x="151.50" y="169.50" width="7.00" height="7.00" rx="1.26" fill="rgb(0,0,0)"/>
<rect x="165.50" y="169.50" width="7.00" height="7.00" rx="1.26" fill="rgb(0,0,0)"/>
<rect x="179.50" y="169.50" width="7.00" height="7.00" rx="1.26" fill="rgb(0,0,0)"/>
<rect x="193.50" y="169.50" width="7.00" height="7.00" rx="1.26" fill="rgb(0,0,0)"/>
<rect x="207.50" y="169.50" width="7.00" height="7.00" rx="1.26" fill="rgb(0,0,0)"/>
<rect x="221.50" y="169.50" width="7.00" height="7.00" rx="1.26" fill="rgb(0,0,0)"/>
<rect x="11.50" y="183.50" width="7.00" height="7.00" rx="1.26" fill="rgb(0,0,0)"/>
<rect x="25.50" y="183.50" width="7.00" height="7.00" rx="1.26" fill="rgb(0,0,0)"/>
<rect x="39.50" y="183.50" width="7.00" height="7.00" rx="1.26" fill="rgb(0,0,0)"/>
<rect x="53.50" y="183.50" width="7.00" height="7.00" rx="1.26" fill="rgb(0,0,0)"/>
<rect x="67.50" y="183.50" width="7.00" height="7.00" rx="1.26" fill="rgb(0,0,0)"/>
<rect x="81.50" y="183.50" width="7.00" height="7.00" rx="1.26" fill="rgb(0,0,0)"/>
<rect x="95.50" y="183.50" width="7.00" height="7.00" rx="1.26" fill="rgb(19,8,1)"/>
<rect x="109.50" y="183.50" width="7.00" height="7.00" rx="1.26" fill="rgb(15,6,0)"/>
<rect x="123.50" y="183.50" width="7.00" height="7.00" rx="1.26" fill="rgb(0,0,0)"/>
<rect x="137.50" y="183.50" width="7.00" height="7.00" rx="1.26" fill="rgb(0,0,0)"/>
<rect x="151.50" y="183.50" width="7.00" height="7.00" rx="1.26" fill="rgb(0,0,0)"/>
<rect x="165.50" y="183.50" width="7.00" height="7.00" rx="1.26" fill="rgb(0,0,0)"/>
<rect x="179.50" y="183.50" width="7.00" height="7.00" rx="1.26" fill="rgb(0,0,0)"/>
<rect x="193.50" y="183.50" width="7.00" height="7.00" rx="1.26" fill="rgb(0,0,0)"/>
<rect x="207.50" y="183.50" width="7.00" height="7.00" rx="1.26" fill="rgb(0,0,0)"/>
<rect x="221.50" y="183.50" width="7.00" height="7.00" rx="1.26" fill="rgb(0,0,0)"/>
<rect x="11.50" y="197.50" width="7.00" height="7.00" rx="1.26" fill="rgb(0,0,0)"/>
<rect x="25.50" y="197.50" width="7.00" height="7.00" rx="1.26" fill="rgb(0,0,0)"/>
<rect x="39.50" y="197.50" width="7.00" height="7.00" rx="1.26" fill="rgb(0,0,0)"/>
<rect x="53.50" y="197.50" width="7.00" height="7.00" rx="1.26" fill="rgb(0,0,0)"/>
<rect x="67.50" y="197.50" width="7.00" height="7.00" rx="1.26" fill="rgb(0,0,0)"/>
<rect x="81.50" y="197.50" width="7.00" height="7.00" rx="1.26" fill="rgb(0,0,0)"/>
<rect x="95.50" y="197.50" width="7.00" height="7.00" rx="1.26" fill="rgb(27,11,1)"/>
<rect x="109.50" y="197.50" width="7.00" height="7.00" rx="1.26" fill="rgb(23,9,1)"/>
<rect x="123.50" y="197.50" width="7.00" height="7.00" rx="1.26" fill="rgb(0,0,0)"/>
<rect x="137.50" y="197.50" width="7.00" height="7.00" rx="1.26" fill="rgb(0,0,0)"/>
<rect x="151.50" y="197.50" width="7.00" height="7.00" rx="1.26" fill="rgb(0,0,0)"/>
<rect x="165.50" y="197.50" width="7.00" height="7.00" rx="1.26" fill="rgb(0,0,0)"/>
<rect x="179.50" y="197.50" width="7.00" height="7.00" rx="1.26" fill="rgb(0,0,0)"/>
<rect x="193.50" y="197.50" width="7.00" height="7.00" rx="1.26" fill="rgb(0,0,0)"/>
<rect x="207.50" y="197.50" width="7.00" height="7.00" rx="1.26" fill="rgb(0,0,0)"/>
<rect x="221.50" y="197.50" width="7.00" height="7.00" rx="1.26" fill="rgb(0,0,0)"/>
<rect x="11.50" y="211.50" width="7.00" height="7.00" rx="1.26" fill="rgb(0,0,0)"/>
<rect x="25.50" y="211.50" width="7.00" height="7.00" rx="1.26" fill="rgb(0,0,0)"/>
<rect x="39.50" y="211.50" width="7.00" height="7.00" rx="1.26" fill="rgb(0,0,0)"/>
<rect x="53.50" y="211.50" width="7.00" height="7.00" rx="1.26" fill="rgb(0,0,0)"/>
<rect x="67.50" y="211.50" width="7.00" height="7.00" rx="1.26" fill="rgb(0,0,0)"/>
<rect x="81.50" y="211.50" width="7.00" height="7.00" rx="1.26" fill="rgb(0,0,0)"/>
<rect x="95.50" y="211.50" width="7.00" height="7.00" rx="1.26" fill="rgb(0,0,0)"/>
<rect x="109.50" y="211.50" width="7.00" height="7.00" rx="1.26" fill="rgb(0,0,0)"/>
<rect x="123.50" y="211.50" width="7.00" height="7.00" rx="1.26" fill="rgb(0,0,0)"/>
<rect x="137.50" y="211.50" width="7.00" height="7.00" rx="1.26" fill="rgb(0,0,0)"/>
<rect x="151.50" y="211.50" width="7.00" height="7.00" rx="1.26" fill="rgb(0,0,0)"/>
<rect x="165.50" y="211.50" width="7.00" height="7.00" rx="1.26" fill="rgb(0,0,0)"/>
<rect x="179.50" y="211.50" width="7.00" height="7.00" rx="1.26" fill="rgb(0,0,0)"/>
<rect x="193.50" y="211.50" width="7.00" height="7.00" rx="1.26" fill="rgb(0,0,0)"/>
<rect x="207.50" y="211.50" width="7.00" height="7.00" rx="1.26" fill="rgb(0,0,0)"/>
<rect x="221.50" y="211.50" width="7.00" height="7.00" rx="1.26" fill="rgb(0,0,0)"/>
<rect x="11.50" y="225.50" width="7.00" height="7.00" rx="1.26" fill="rgb(0,0,0)"/>
<rect x="25.50" y="225.50" width="7.00" height="7.00" rx="1.26" fill="rgb(0,0,0)"/>
<rect x="39.50" y="225.50" width="7.00" height="7.00" rx="1.26" fill="rgb(0,0,0)"/>
<rect x="53.50" y="225.50" width="7.00" height="7.00" rx="1.26" fill="rgb(0,0,0)"/>
<rect x="67.50" y="225.50" width="7.00" height="7.00" rx="1.26" fill="rgb(0,0,0)"/>
<rect x="81.50" y="225.50" width="7.00" height="7.00" rx="1.26" fill="rgb(0,0,0)"/>
<rect x="95.50" y="225.50" width="7.00" height="7.00" rx="1.26" fill="rgb(0,0,0)"/>
<rect x="109.50" y="225.50" width="7.00" height="7.00" rx="1.26" fill="rgb(0,0,0)"/>
<rect x="123.50" y="225.50" width="7.00" height="7.00" rx="1.26" fill="rgb(0,0,0)"/>
<rect x="137.50" y="225.50" width="7.00" height="7.00" rx="1.26" fill="rgb(0,0,0)"/>
<rect x="151.50" y="225.50" width="7.00" height="7.00" rx="1.26" fill="rgb(0,0,0)"/>
<rect x="165.50" y="225.50" width="7.00" height="7.00" rx="1.26" fill="rgb(0,0,0)"/>
<rect x="179.50" y="225.50" width="7.00" height="7.00" rx="1.26" fill="rgb(0,0,0)"/>
<rect x="193.50" y="225.50" width="7.00" height="7.00" rx="1.26" fill="rgb(0,0,0)"/>
<rect x="207.50" y="225.50" width="7.00" height="7.00" rx="1.26" fill="rgb(0,0,0)"/>
<rect x="221.50" y="225.50" width="7.00" height="7.00" rx="1.26" fill="rgb(0,0,0)"/>
<rect x="11.50" y="239.50" width="7.00" height="7.00" rx="1.26" fill="rgb(0,0,0)"/>
<rect x="25.50" y="239.50" width="7.00" height="7.00" rx="1.26" fill="rgb(0,0,0)"/>
<rect x="39.50" y="239.50" width="7.00" height="7.00" rx="1.26" fill="rgb(39,13,1)"/>
<rect x="53.50" y="239.50" width="7.00" height="7.00" rx="1.26" fill="rgb(13,4,0)"/>
<rect x="67.50" y="239.50" width="7.00" height="7.00" rx="1.26" fill="rgb(0,0,0)"/>
<rect x="81.50" y="239.50" width="7.00" height="7.00" rx="1.26" fill="rgb(0,0,0)"/>
<rect x="95.50" y="239.50" width="7.00" height="7.00" rx="1.26" fill="rgb(0,0,0)"/>
<rect x="109.50" y="239.50" width="7.00" height="7.00" rx="1.26" fill="rgb(0,0,0)"/>
<rect x="123.50" y="239.50" width="7.00" height="7.00" rx="1.26" fill="rgb(0,0,0)"/>
<rect x="137.50" y="239.50" width="7.00" height="7.00" rx="1.26" fill="rgb(0,0,0)"/>
<rect x="151.50" y="239.50" width="7.00" height="7.00" rx="1.26" fill="rgb(0,0,0)"/>
<rect x="165.50" y="239.50" width="7.00" height="7.00" rx="1.26" fill="rgb(0,0,0)"/>
<rect x="179.50" y="239.50" width="7.00" height="7.00" rx="1.26" fill="rgb(0,0,0)"/>
<rect x="193.50" y="239.50" width="7.00" height="7.00" rx="1.26" fill="rgb(0,0,0)"/>
<rect x="207.50" y="239.50" width="7.00" height="7.00" rx="1.26" fill="rgb(0,0,0)"/>
<rect x="221.50" y="239.50" width="7.00" height="7.00" rx="1.26" fill="rgb(56,33,2)"/>
<rect x="11.50" y="253.50" width="7.00" height="7.00" rx="1.26" fill="rgb(0,0,0)"/>
<rect x="25.50" y="253.50" width="7.00" height="7.00" rx="1.26" fill="rgb(0,0,0)"/>
<rect x="39.50" y="253.50" width="7.00" height="7.00" rx="1.26" fill="rgb(13,4,0)"/>
<rect x="53.50" y="253.50" width="7.00" height="7.00" rx="1.26" fill="rgb(0,0,0)"/>
<rect x="67.50" y="253.50" width="7.00" height="7.00" rx="1.26" fill="rgb(0,0,0)"/>
<rect x="81.50" y="253.50" width="7.00" height="7.00" rx="1.26" fill="rgb(0,0,0)"/>
<rect x="95.50" y="253.50" width="7.00" height="7.00" rx="1.26" fill="rgb(0,0,0)"/>
<rect x="109.50" y="253.50" width="7.00" height="7.00" rx="1.26" fill="rgb(0,0,0)"/>
<rect x="123.50" y="253.50" width="7.00" height="7.00" rx="1.26" fill="rgb(0,0,0)"/>
<rect x="137.50" y="253.50" width="7.00" height="7.00" rx="1.26" fill="rgb(0,0,0)"/>
<rect x="151.50" y="253.50" width="7.00" height="7.00" rx="1.26" fill="rgb(0,0,0)"/>
<rect x="165.50" y="253.50" width="7.00" height="7.00" rx="1.26" fill="rgb(22,4,5)"/>
<rect x="179.50" y="253.50" width="7.00" height="7.00" rx="1.26" fill="rgb(7,1,2)"/>
<rect x="193.50" y="253.50" width="7.00" height="7.00" rx="1.26" fill="rgb(0,0,0)"/>
<rect x="207.50" y="253.50" width="7.00" height="7.00" rx="1.26" fill="rgb(0,0,0)"/>
<rect x="221.50" y="253.50" width="7.00" height="7.00" rx="1.26" fill="rgb(13,7,1)"/>
<circle cx="-2" cy="280" r="9" fill="#9aa0a6" opacity="0.25"/>
<circle cx="-2" cy="280" r="6" fill="#9aa0a6" stroke="#0d0f12" stroke-width="1.5"/>
<text x="10" y="284" font-family="'JetBrains Mono','Cascadia Mono','Consolas',monospace" font-size="12" fill="#a0a0a0">Rate</text>
<circle cx="242" cy="280" r="9" fill="#5ad1ff" opacity="0.25"/>
<circle cx="242" cy="280" r="6" fill="#5ad1ff" stroke="#0d0f12" stroke-width="1.5"/>
<text x="230" y="284" text-anchor="end" font-family="'JetBrains Mono','Cascadia Mono','Consolas',monospace" font-size="12" fill="#a0a0a0">Frame</text>
<circle cx="-2" cy="308" r="9" fill="#9aa0a6" opacity="0.25"/>
<circle cx="-2" cy="308" r="6" fill="#9aa0a6" stroke="#0d0f12" stroke-width="1.5"/>
<text x="10" y="312" font-family="'JetBrains Mono','Cascadia Mono','Consolas',monospace" font-size="12" fill="#a0a0a0">Decay</text>
<circle cx="-2" cy="336" r="9" fill="#ff5cf0" opacity="0.25"/>
<circle cx="-2" cy="336" r="6" fill="#ff5cf0" stroke="#0d0f12" stroke-width="1.5"/>
<text x="10" y="340" font-family="'JetBrains Mono','Cascadia Mono','Consolas',monospace" font-size="12" fill="#a0a0a0">Palette</text>
<line x1="8" y1="356" x2="232" y2="356" stroke="rgba(255,255,255,0.08)"/>
<text x="8" y="376" font-family="'JetBrains Mono','Cascadia Mono','Consolas',monospace" font-size="12" fill="#a0a0a0">particleType</text>
<g>
<rect x="148" y="364" width="84" height="16" rx="4" fill="#0d0f12" stroke="rgba(255,255,255,0.12)"/>
<text x="152" y="376" font-family="'JetBrains Mono','Cascadia Mono','Consolas',monospace" font-size="11" fill="#e0e0e0">fountain</text>
<text x="228" y="376" text-anchor="end" font-size="8" fill="#a0a0a0">▾</text>
</g>
<text x="8" y="397" font-family="'JetBrains Mono','Cascadia Mono','Consolas',monospace" font-size="12" fill="#a0a0a0">rate</text>
<g>
<rect x="120" y="391" width="72" height="4" rx="2" fill="#cfd2d6" opacity="0.85"/>
<rect x="120" y="391" width="21.6" height="4" rx="2" fill="#d633ff"/>
<circle cx="141.6" cy="393" r="5" fill="#d633ff"/>
<text x="232" y="397" text-anchor="end" font-family="'JetBrains Mono','Cascadia Mono','Consolas',monospace" font-size="12" fill="#e0e0e0">0.3</text>
</g>
<text x="8" y="418" font-family="'JetBrains Mono','Cascadia Mono','Consolas',monospace" font-size="12" fill="#a0a0a0">decay</text>
<g>
<rect x="120" y="412" width="72" height="4" rx="2" fill="#cfd2d6" opacity="0.85"/>
<rect x="120" y="412" width="66.2" height="4" rx="2" fill="#d633ff"/>
<circle cx="186.2" cy="414" r="5" fill="#d633ff"/>
<text x="232" y="418" text-anchor="end" font-family="'JetBrains Mono','Cascadia Mono','Consolas',monospace" font-size="12" fill="#e0e0e0">0.92</text>
</g>
<text x="8" y="439" font-family="'JetBrains Mono','Cascadia Mono','Consolas',monospace" font-size="12" fill="#a0a0a0">palette</text>
<g>
<rect x="148" y="427" width="84" height="16" rx="4" fill="#0d0f12" stroke="rgba(255,255,255,0.12)"/>
<text x="152" y="439" font-family="'JetBrains Mono','Cascadia Mono','Consolas',monospace" font-size="11" fill="#e0e0e0">party</text>
<text x="228" y="439" text-anchor="end" font-size="8" fill="#a0a0a0">▾</text>
</g>
<text x="8" y="460" font-family="'JetBrains Mono','Cascadia Mono','Consolas',monospace" font-size="12" fill="#a0a0a0">size</text>
<g>
<rect x="120" y="454" width="72" height="4" rx="2" fill="#cfd2d6" opacity="0.85"/>
<rect x="120" y="454" width="19.6" height="4" rx="2" fill="#d633ff"/>
<circle cx="139.6" cy="456" r="5" fill="#d633ff"/>
<text x="232" y="460" text-anchor="end" font-family="'JetBrains Mono','Cascadia Mono','Consolas',monospace" font-size="12" fill="#e0e0e0">1</text>
</g>
<text x="8" y="481" font-family="'JetBrains Mono','Cascadia Mono','Consolas',monospace" font-size="12" fill="#a0a0a0" opacity="0.45">count</text>
<g opacity="0.45">
<rect x="120" y="475" width="72" height="4" rx="2" fill="#cfd2d6" opacity="0.85"/>
<rect x="120" y="475" width="20.3" height="4" rx="2" fill="#d633ff"/>
<circle cx="140.3" cy="477" r="5" fill="#d633ff"/>
<text x="232" y="481" text-anchor="end" font-family="'JetBrains Mono','Cascadia Mono','Consolas',monospace" font-size="12" fill="#e0e0e0">24</text>
</g>
<text x="8" y="502" font-family="'JetBrains Mono','Cascadia Mono','Consolas',monospace" font-size="12" fill="#a0a0a0">spread</text>
<g>
<rect x="120" y="496" width="72" height="4" rx="2" fill="#cfd2d6" opacity="0.85"/>
<rect x="120" y="496" width="36.0" height="4" rx="2" fill="#d633ff"/>
<circle cx="156.0" cy="498" r="5" fill="#d633ff"/>
<text x="232" y="502" text-anchor="end" font-family="'JetBrains Mono','Cascadia Mono','Consolas',monospace" font-size="12" fill="#e0e0e0">1</text>
</g>
<text x="8" y="523" font-family="'JetBrains Mono','Cascadia Mono','Consolas',monospace" font-size="12" fill="#a0a0a0">gravity</text>
<g>
<rect x="120" y="517" width="72" height="4" rx="2" fill="#cfd2d6" opacity="0.85"/>
<rect x="120" y="517" width="24.0" height="4" rx="2" fill="#d633ff"/>
<circle cx="144.0" cy="519" r="5" fill="#d633ff"/>
<text x="232" y="523" text-anchor="end" font-family="'JetBrains Mono','Cascadia Mono','Consolas',monospace" font-size="12" fill="#e0e0e0">1</text>
</g>
<text x="8" y="544" font-family="'JetBrains Mono','Cascadia Mono','Consolas',monospace" font-size="12" fill="#a0a0a0" opacity="0.45">bounce</text>
<g opacity="0.45">
<rect x="120" y="538" width="72" height="4" rx="2" fill="#cfd2d6" opacity="0.85"/>
<rect x="120" y="538" width="48.0" height="4" rx="2" fill="#d633ff"/>
<circle cx="168.0" cy="540" r="5" fill="#d633ff"/>
<text x="232" y="544" text-anchor="end" font-family="'JetBrains Mono','Cascadia Mono','Consolas',monospace" font-size="12" fill="#e0e0e0">1</text>
</g>
<text x="8" y="565" font-family="'JetBrains Mono','Cascadia Mono','Consolas',monospace" font-size="12" fill="#a0a0a0">seed</text>
<g>
<rect x="120" y="559" width="72" height="4" rx="2" fill="#cfd2d6" opacity="0.85"/>
<rect x="120" y="559" width="0.0" height="4" rx="2" fill="#d633ff"/>
<circle cx="120.0" cy="561" r="5" fill="#d633ff"/>
<text x="232" y="565" text-anchor="end" font-family="'JetBrains Mono','Cascadia Mono','Consolas',monospace" font-size="12" fill="#e0e0e0">0</text>
</g>
<text x="8" y="586" font-family="'JetBrains Mono','Cascadia Mono','Consolas',monospace" font-size="12" fill="#a0a0a0">clamp inputs</text>
<g>
<rect x="220" y="576" width="12" height="12" rx="3" fill="#0d0f12" stroke="rgba(255,255,255,0.12)"/>
</g>
</g>
</svg>
