<svg xmlns="http://www.w3.org/2000/svg" viewBox="0 0 296 629" width="296" height="629" role="img" aria-label="Path node">

<defs><filter id="shadow" x="-20%" y="-20%" width="140%" height="160%"><feDropShadow dx="0" dy="8" stdDeviation="9" flood-color="#000" flood-opacity="0.45"/></filter></defs>
<g transform="translate(28,24)">
<rect x="0" y="0" width="240" height="571" rx="8" fill="#1f242b" stroke="rgba(255,255,255,0.12)" filter="url(#shadow)"/>
<rect x="0" y="0" width="240" height="571" rx="8" fill="#1f242b" stroke="rgba(255,255,255,0.12)"/>
<path d="M0,32 L0,8 Q0,0 8,0 L232,0 Q240,0 240,8 L240,32 Z" fill="#33d6ff"/>
<text x="8" y="21" font-family="'Audiowide','Trebuchet MS','Arial Black',sans-serif" font-size="14" font-weight="600" fill="#000">Path · Circle</text>
<rect x="154" y="10" width="25" height="12" rx="6" fill="rgba(0,0,0,0.14)" stroke="rgba(255,255,255,0.14)"/>
<text x="166.5" y="19" text-anchor="middle" font-family="'JetBrains Mono','Cascadia Mono','Consolas',monospace" font-size="8" letter-spacing="0.08em" fill="#000">PAT</text>
<rect x="185" y="10" width="47" height="12" rx="6" fill="rgba(0,0,0,0.14)" stroke="rgba(255,255,255,0.14)"/>
<text x="208.5" y="19" text-anchor="middle" font-family="'JetBrains Mono','Cascadia Mono','Consolas',monospace" font-size="8" letter-spacing="0.08em" fill="#000">PAT-797</text>
<circle cx="15" cy="47" r="5.0" fill="#14171c"/>
<circle cx="29" cy="47" r="5.0" fill="#14171c"/>
<circle cx="43" cy="47" r="5.0" fill="#14171c"/>
<circle cx="57" cy="47" r="5.0" fill="#14171c"/>
<circle cx="71" cy="47" r="5.0" fill="#14171c"/>
<circle cx="85" cy="47" r="5.0" fill="#14171c"/>
<circle cx="99" cy="47" r="5.0" fill="#14171c"/>
<circle cx="113" cy="47" r="5.0" fill="#14171c"/>
<circle cx="127" cy="47" r="5.0" fill="#14171c"/>
<circle cx="141" cy="47" r="5.0" fill="#14171c"/>
<circle cx="155" cy="47" r="5.0" fill="#14171c"/>
<circle cx="169" cy="47" r="5.0" fill="#14171c"/>
<circle cx="183" cy="47" r="5.0" fill="#14171c"/>
<circle cx="197" cy="47" r="5.0" fill="#14171c"/>
<circle cx="211" cy="47" r="5.0" fill="#14171c"/>
<circle cx="225" cy="47" r="5.0" fill="#14171c"/>
<circle cx="15" cy="61" r="5.0" fill="#14171c"/>
<circle cx="29" cy="61" r="5.0" fill="#14171c"/>
<circle cx="43" cy="61" r="5.0" fill="#14171c"/>
<circle cx="57" cy="61" r="5.0" fill="#14171c"/>
<circle cx="71" cy="61" r="5.0" fill="#14171c"/>
<circle cx="85" cy="61" r="5.0" fill="#14171c"/>
<circle cx="99" cy="61" r="5.0" fill="#14171c"/>
<circle cx="113" cy="61" r="5.0" fill="#14171c"/>
<circle cx="127" cy="61" r="5.0" fill="#14171c"/>
<circle cx="141" cy="61" r="5.0" fill="#14171c"/>
<circle cx="155" cy="61" r="5.0" fill="#14171c"/>
<circle cx="169" cy="61" r="5.0" fill="#14171c"/>
<circle cx="183" cy="61" r="5.0" fill="#14171c"/>
<circle cx="197" cy="61" r="5.0" fill="#14171c"/>
<circle cx="211" cy="61" r="5.0" fill="#14171c"/>
<circle cx="225" cy="61" r="5.0" fill="#14171c"/>
<circle cx="15" cy="75" r="5.0" fill="#14171c"/>
<circle cx="29" cy="75" r="5.0" fill="#14171c"/>
<circle cx="43" cy="75" r="5.0" fill="#14171c"/>
<circle cx="57" cy="75" r="5.0" fill="#14171c"/>
<circle cx="71" cy="75" r="5.0" fill="#14171c"/>
<circle cx="85" cy="75" r="5.0" fill="#14171c"/>
<circle cx="99" cy="75" r="5.0" fill="#14171c"/>
<circle cx="113" cy="75" r="5.0" fill="#14171c"/>
<circle cx="127" cy="75" r="5.0" fill="#14171c"/>
<circle cx="141" cy="75" r="5.0" fill="#14171c"/>
<circle cx="155" cy="75" r="5.0" fill="#14171c"/>
<circle cx="169" cy="75" r="5.0" fill="#14171c"/>
<circle cx="183" cy="75" r="5.0" fill="#14171c"/>
<circle cx="197" cy="75" r="5.0" fill="#14171c"/>
<circle cx="211" cy="75" r="5.0" fill="#14171c"/>
<circle cx="225" cy="75" r="5.0" fill="#14171c"/>
<circle cx="15" cy="89" r="5.0" fill="#14171c"/>
<circle cx="29" cy="89" r="5.0" fill="#14171c"/>
<circle cx="43" cy="89" r="5.0" fill="#14171c"/>
<circle cx="57" cy="89" r="5.0" fill="#14171c"/>
<circle cx="71" cy="89" r="5.0" fill="#14171c"/>
<circle cx="85" cy="89" r="5.0" fill="#14171c"/>
<circle cx="99" cy="89" r="5.0" fill="#14171c"/>
<circle cx="113" cy="89" r="5.0" fill="#14171c"/>
<circle cx="127" cy="89" r="5.0" fill="#14171c"/>
<circle cx="141" cy="89" r="5.0" fill="#14171c"/>
<circle cx="155" cy="89" r="5.0" fill="#14171c"/>
<circle cx="169" cy="89" r="5.0" fill="#14171c"/>
<circle cx="183" cy="89" r="5.0" fill="#14171c"/>
<circle cx="197" cy="89" r="5.0" fill="#14171c"/>
<circle cx="211" cy="89" r="5.0" fill="#14171c"/>
<circle cx="225" cy="89" r="5.0" fill="#14171c"/>
<circle cx="15" cy="103" r="5.0" fill="#14171c"/>
<circle cx="29" cy="103" r="5.0" fill="#14171c"/>
<circle cx="43" cy="103" r="5.0" fill="#14171c"/>
<circle cx="57" cy="103" r="5.0" fill="#14171c"/>
<circle cx="71" cy="103" r="5.0" fill="#14171c"/>
<circle cx="85" cy="103" r="5.0" fill="#14171c"/>
<circle cx="99" cy="103" r="5.0" fill="#14171c"/>
<circle cx="113" cy="103" r="5.0" fill="#14171c"/>
<circle cx="127" cy="103" r="5.0" fill="#14171c"/>
<circle cx="141" cy="103" r="5.0" fill="#14171c"/>
<circle cx="155" cy="103" r="5.0" fill="#14171c"/>
<circle cx="169" cy="103" r="5.0" fill="#14171c"/>
<circle cx="183" cy="103" r="5.0" fill="#14171c"/>
<circle cx="197" cy="103" r="5.0" fill="#14171c"/>
<circle cx="211" cy="103" r="5.0" fill="#14171c"/>
<circle cx="225" cy="103" r="5.0" fill="#14171c"/>
<circle cx="15" cy="117" r="5.0" fill="#14171c"/>
<circle cx="29" cy="117" r="5.0" fill="#14171c"/>
<circle cx="43" cy="117" r="5.0" fill="#14171c"/>
<circle cx="57" cy="117" r="5.0" fill="#14171c"/>
<circle cx="71" cy="117" r="5.0" fill="#14171c"/>
<circle cx="85" cy="117" r="5.0" fill="#14171c"/>
<circle cx="99" cy="117" r="5.0" fill="#14171c"/>
<circle cx="113" cy="117" r="5.0" fill="#14171c"/>
<circle cx="127" cy="117" r="5.0" fill="#14171c"/>
<circle cx="141" cy="117" r="5.0" fill="#14171c"/>
<circle cx="155" cy="117" r="5.0" fill="#14171c"/>
<circle cx="169" cy="117" r="5.0" fill="#14171c"/>
<circle cx="183" cy="117" r="5.0" fill="#14171c"/>
<circle cx="197" cy="117" r="5.0" fill="#14171c"/>
<circle cx="211" cy="117" r="5.0" fill="#14171c"/>
<circle cx="225" cy="117" r="5.0" fill="#14171c"/>
<circle cx="15" cy="131" r="5.0" fill="#14171c"/>
<circle cx="29" cy="131" r="5.0" fill="#14171c"/>
<circle cx="43" cy="131" r="5.0" fill="#14171c"/>
<circle cx="57" cy="131" r="5.0" fill="#14171c"/>
<circle cx="71" cy="131" r="5.0" fill="#14171c"/>
<circle cx="85" cy="131" r="5.0" fill="#14171c"/>
<circle cx="99" cy="131" r="5.0" fill="#14171c"/>
<circle cx="113" cy="131" r="5.0" fill="#14171c"/>
<circle cx="127" cy="131" r="5.0" fill="#14171c"/>
<circle cx="141" cy="131" r="5.0" fill="#14171c"/>
<circle cx="155" cy="131" r="5.0" fill="#14171c"/>
<circle cx="169" cy="131" r="5.0" fill="#14171c"/>
<circle cx="183" cy="131" r="5.0" fill="#14171c"/>
<circle cx="197" cy="131" r="7" fill="rgb(26,22,8)" opacity="0.35"/>
<circle cx="197" cy="131" r="5.0" fill="rgb(26,22,8)"/>
<circle cx="211" cy="131" r="5.0" fill="#14171c"/>
<circle cx="225" cy="131" r="5.0" fill="#14171c"/>
<circle cx="15" cy="145" r="5.0" fill="#14171c"/>
<circle cx="29" cy="145" r="5.0" fill="#14171c"/>
<circle cx="43" cy="145" r="5.0" fill="#14171c"/>
<circle cx="57" cy="145" r="5.0" fill="#14171c"/>
<circle cx="71" cy="145" r="5.0" fill="#14171c"/>
<circle cx="85" cy="145" r="5.0" fill="#14171c"/>
<circle cx="99" cy="145" r="5.0" fill="#14171c"/>
<circle cx="113" cy="145" r="5.0" fill="#14171c"/>
<circle cx="127" cy="145" r="5.0" fill="#14171c"/>
<circle cx="141" cy="145" r="5.0" fill="#14171c"/>
<circle cx="155" cy="145" r="5.0" fill="#14171c"/>
<circle cx="169" cy="145" r="5.0" fill="#14171c"/>
<circle cx="183" cy="145" r="7" fill="rgb(89,77,28)" opacity="0.35"/>
<circle cx="183" cy="145" r="5.0" fill="rgb(89,77,28)"/>
<circle cx="197" cy="145" r="7" fill="rgb(230,198,72)" opacity="0.35"/>
<circle cx="197" cy="145" r="5.0" fill="rgb(230,198,72)"/>
<circle cx="211" cy="145" r="5.0" fill="#14171c"/>
<circle cx="225" cy="145" r="5.0" fill="#14171c"/>
<circle cx="15" cy="159" r="5.0" fill="#14171c"/>
<circle cx="29" cy="159" r="5.0" fill="#14171c"/>
<circle cx="43" cy="159" r="5.0" fill="#14171c"/>
<circle cx="57" cy="159" r="5.0" fill="#14171c"/>
<circle cx="71" cy="159" r="5.0" fill="#14171c"/>
<circle cx="85" cy="159" r="5.0" fill="#14171c"/>
<circle cx="99" cy="159" r="5.0" fill="#14171c"/>
<circle cx="113" cy="159" r="5.0" fill="#14171c"/>
<circle cx="127" cy="159" r="5.0" fill="#14171c"/>
<circle cx="141" cy="159" r="5.0" fill="#14171c"/>
<circle cx="155" cy="159" r="5.0" fill="#14171c"/>
<circle cx="169" cy="159" r="5.0" fill="#14171c"/>
<circle cx="183" cy="159" r="5.0" fill="#14171c"/>
<circle cx="197" cy="159" r="7" fill="rgb(26,22,8)" opacity="0.35"/>
<circle cx="197" cy="159" r="5.0" fill="rgb(26,22,8)"/>
<circle cx="211" cy="159" r="5.0" fill="#14171c"/>
<circle cx="225" cy="159" r="5.0" fill="#14171c"/>
<circle cx="15" cy="173" r="5.0" fill="#14171c"/>
<circle cx="29" cy="173" r="5.0" fill="#14171c"/>
<circle cx="43" cy="173" r="5.0" fill="#14171c"/>
<circle cx="57" cy="173" r="5.0" fill="#14171c"/>
<circle cx="71" cy="173" r="5.0" fill="#14171c"/>
<circle cx="85" cy="173" r="5.0" fill="#14171c"/>
<circle cx="99" cy="173" r="5.0" fill="#14171c"/>
<circle cx="113" cy="173" r="5.0" fill="#14171c"/>
<circle cx="127" cy="173" r="5.0" fill="#14171c"/>
<circle cx="141" cy="173" r="5.0" fill="#14171c"/>
<circle cx="155" cy="173" r="5.0" fill="#14171c"/>
<circle cx="169" cy="173" r="5.0" fill="#14171c"/>
<circle cx="183" cy="173" r="5.0" fill="#14171c"/>
<circle cx="197" cy="173" r="5.0" fill="#14171c"/>
<circle cx="211" cy="173" r="5.0" fill="#14171c"/>
<circle cx="225" cy="173" r="5.0" fill="#14171c"/>
<circle cx="15" cy="187" r="5.0" fill="#14171c"/>
<circle cx="29" cy="187" r="5.0" fill="#14171c"/>
<circle cx="43" cy="187" r="5.0" fill="#14171c"/>
<circle cx="57" cy="187" r="5.0" fill="#14171c"/>
<circle cx="71" cy="187" r="5.0" fill="#14171c"/>
<circle cx="85" cy="187" r="5.0" fill="#14171c"/>
<circle cx="99" cy="187" r="5.0" fill="#14171c"/>
<circle cx="113" cy="187" r="5.0" fill="#14171c"/>
<circle cx="127" cy="187" r="5.0" fill="#14171c"/>
<circle cx="141" cy="187" r="5.0" fill="#14171c"/>
<circle cx="155" cy="187" r="5.0" fill="#14171c"/>
<circle cx="169" cy="187" r="5.0" fill="#14171c"/>
<circle cx="183" cy="187" r="5.0" fill="#14171c"/>
<circle cx="197" cy="187" r="5.0" fill="#14171c"/>
<circle cx="211" cy="187" r="5.0" fill="#14171c"/>
<circle cx="225" cy="187" r="5.0" fill="#14171c"/>
<circle cx="15" cy="201" r="5.0" fill="#14171c"/>
<circle cx="29" cy="201" r="5.0" fill="#14171c"/>
<circle cx="43" cy="201" r="5.0" fill="#14171c"/>
<circle cx="57" cy="201" r="5.0" fill="#14171c"/>
<circle cx="71" cy="201" r="5.0" fill="#14171c"/>
<circle cx="85" cy="201" r="5.0" fill="#14171c"/>
<circle cx="99" cy="201" r="5.0" fill="#14171c"/>
<circle cx="113" cy="201" r="5.0" fill="#14171c"/>
<circle cx="127" cy="201" r="5.0" fill="#14171c"/>
<circle cx="141" cy="201" r="5.0" fill="#14171c"/>
<circle cx="155" cy="201" r="5.0" fill="#14171c"/>
<circle cx="169" cy="201" r="5.0" fill="#14171c"/>
<circle cx="183" cy="201" r="5.0" fill="#14171c"/>
<circle cx="197" cy="201" r="5.0" fill="#14171c"/>
<circle cx="211" cy="201" r="5.0" fill="#14171c"/>
<circle cx="225" cy="201" r="5.0" fill="#14171c"/>
<circle cx="15" cy="215" r="5.0" fill="#14171c"/>
<circle cx="29" cy="215" r="5.0" fill="#14171c"/>
<circle cx="43" cy="215" r="5.0" fill="#14171c"/>
<circle cx="57" cy="215" r="5.0" fill="#14171c"/>
<circle cx="71" cy="215" r="5.0" fill="#14171c"/>
<circle cx="85" cy="215" r="5.0" fill="#14171c"/>
<circle cx="99" cy="215" r="5.0" fill="#14171c"/>
<circle cx="113" cy="215" r="5.0" fill="#14171c"/>
<circle cx="127" cy="215" r="5.0" fill="#14171c"/>
<circle cx="141" cy="215" r="5.0" fill="#14171c"/>
<circle cx="155" cy="215" r="5.0" fill="#14171c"/>
<circle cx="169" cy="215" r="5.0" fill="#14171c"/>
<circle cx="183" cy="215" r="5.0" fill="#14171c"/>
<circle cx="197" cy="215" r="5.0" fill="#14171c"/>
<circle cx="211" cy="215" r="5.0" fill="#14171c"/>
<circle cx="225" cy="215" r="5.0" fill="#14171c"/>
<circle cx="15" cy="229" r="5.0" fill="#14171c"/>
<circle cx="29" cy="229" r="5.0" fill="#14171c"/>
<circle cx="43" cy="229" r="5.0" fill="#14171c"/>
<circle cx="57" cy="229" r="5.0" fill="#14171c"/>
<circle cx="71" cy="229" r="5.0" fill="#14171c"/>
<circle cx="85" cy="229" r="5.0" fill="#14171c"/>
<circle cx="99" cy="229" r="5.0" fill="#14171c"/>
<circle cx="113" cy="229" r="5.0" fill="#14171c"/>
<circle cx="127" cy="229" r="5.0" fill="#14171c"/>
<circle cx="141" cy="229" r="5.0" fill="#14171c"/>
<circle cx="155" cy="229" r="5.0" fill="#14171c"/>
<circle cx="169" cy="229" r="5.0" fill="#14171c"/>
<circle cx="183" cy="229" r="5.0" fill="#14171c"/>
<circle cx="197" cy="229" r="5.0" fill="#14171c"/>
<circle cx="211" cy="229" r="5.0" fill="#14171c"/>
<circle cx="225" cy="229" r="5.0" fill="#14171c"/>
<circle cx="15" cy="243" r="5.0" fill="#14171c"/>
<circle cx="29" cy="243" r="5.0" fill="#14171c"/>
<circle cx="43" cy="243" r="5.0" fill="#14171c"/>
<circle cx="57" cy="243" r="5.0" fill="#14171c"/>
<circle cx="71" cy="243" r="5.0" fill="#14171c"/>
<circle cx="85" cy="243" r="5.0" fill="#14171c"/>
<circle cx="99" cy="243" r="5.0" fill="#14171c"/>
<circle cx="113" cy="243" r="5.0" fill="#14171c"/>
<circle cx="127" cy="243" r="5.0" fill="#14171c"/>
<circle cx="141" cy="243" r="5.0" fill="#14171c"/>
<circle cx="155" cy="243" r="5.0" fill="#14171c"/>
<circle cx="169" cy="243" r="5.0" fill="#14171c"/>
<circle cx="183" cy="243" r="5.0" fill="#14171c"/>
<circle cx="197" cy="243" r="5.0" fill="#14171c"/>
<circle cx="211" cy="243" r="5.0" fill="#14171c"/>
<circle cx="225" cy="243" r="5.0" fill="#14171c"/>
<circle cx="15" cy="257" r="5.0" fill="#14171c"/>
<circle cx="29" cy="257" r="5.0" fill="#14171c"/>
<circle cx="43" cy="257" r="5.0" fill="#14171c"/>
<circle cx="57" cy="257" r="5.0" fill="#14171c"/>
<circle cx="71" cy="257" r="5.0" fill="#14171c"/>
<circle cx="85" cy="257" r="5.0" fill="#14171c"/>
<circle cx="99" cy="257" r="5.0" fill="#14171c"/>
<circle cx="113" cy="257" r="5.0" fill="#14171c"/>
<circle cx="127" cy="257" r="5.0" fill="#14171c"/>
<circle cx="141" cy="257" r="5.0" fill="#14171c"/>
<circle cx="155" cy="257" r="5.0" fill="#14171c"/>
<circle cx="169" cy="257" r="5.0" fill="#14171c"/>
<circle cx="183" cy="257" r="5.0" fill="#14171c"/>
<circle cx="197" cy="257" r="5.0" fill="#14171c"/>
<circle cx="211" cy="257" r="5.0" fill="#14171c"/>
<circle cx="225" cy="257" r="5.0" fill="#14171c"/>
<circle cx="-2" cy="280" r="9" fill="#5ad1ff" opacity="0.25"/>
<circle cx="-2" cy="280" r="6" fill="#5ad1ff" stroke="#0d0f12" stroke-width="1.5"/>
<text x="10" y="284" font-family="'JetBrains Mono','Cascadia Mono','Consolas',monospace" font-size="12" fill="#a0a0a0">Base</text>
<circle cx="242" cy="280" r="9" fill="#5ad1ff" opacity="0.25"/>
<circle cx="242" cy="280" r="6" fill="#5ad1ff" stroke="#0d0f12" stroke-width="1.5"/>
<text x="230" y="284" text-anchor="end" font-family="'JetBrains Mono','Cascadia Mono','Consolas',monospace" font-size="12" fill="#a0a0a0">Frame</text>
<circle cx="-2" cy="308" r="9" fill="#ffd24a" opacity="0.25"/>
<circle cx="-2" cy="308" r="6" fill="#ffd24a" stroke="#0d0f12" stroke-width="1.5"/>
<text x="10" y="312" font-family="'JetBrains Mono','Cascadia Mono','Consolas',monospace" font-size="12" fill="#a0a0a0">Color</text>
<circle cx="-2" cy="336" r="9" fill="#9aa0a6" opacity="0.25"/>
<circle cx="-2" cy="336" r="6" fill="#9aa0a6" stroke="#0d0f12" stroke-width="1.5"/>
<text x="10" y="340" font-family="'JetBrains Mono','Cascadia Mono','Consolas',monospace" font-size="12" fill="#a0a0a0">T (0–1)</text>
<circle cx="-2" cy="364" r="9" fill="#9aa0a6" opacity="0.25"/>
<circle cx="-2" cy="364" r="6" fill="#9aa0a6" stroke="#0d0f12" stroke-width="1.5"/>
<text x="10" y="368" font-family="'JetBrains Mono','Cascadia Mono','Consolas',monospace" font-size="12" fill="#a0a0a0">Scale</text>
<circle cx="-2" cy="392" r="9" fill="#9aa0a6" opacity="0.25"/>
<circle cx="-2" cy="392" r="6" fill="#9aa0a6" stroke="#0d0f12" stroke-width="1.5"/>
<text x="10" y="396" font-family="'JetBrains Mono','Cascadia Mono','Consolas',monospace" font-size="12" fill="#a0a0a0">Thickness</text>
<line x1="8" y1="412" x2="232" y2="412" stroke="rgba(255,255,255,0.08)"/>
<text x="8" y="432" font-family="'JetBrains Mono','Cascadia Mono','Consolas',monospace" font-size="12" fill="#a0a0a0">color</text>
<rect x="204" y="419" width="28" height="18" rx="4" fill="rgb(255,220,80)" stroke="rgba(255,255,255,0.12)"/>
<text x="8" y="453" font-family="'JetBrains Mono','Cascadia Mono','Consolas',monospace" font-size="12" fill="#a0a0a0">pathShape</text>
<g>
<rect x="148" y="441" width="84" height="16" rx="4" fill="#0d0f12" stroke="rgba(255,255,255,0.12)"/>
<text x="152" y="453" font-family="'JetBrains Mono','Cascadia Mono','Consolas',monospace" font-size="11" fill="#e0e0e0">circle</text>
<text x="228" y="453" text-anchor="end" font-size="8" fill="#a0a0a0">▾</text>
</g>
<text x="8" y="474" font-family="'JetBrains Mono','Cascadia Mono','Consolas',monospace" font-size="12" fill="#a0a0a0">t</text>
<g>
<rect x="120" y="468" width="72" height="4" rx="2" fill="#cfd2d6" opacity="0.85"/>
<rect x="120" y="468" width="0.0" height="4" rx="2" fill="#d633ff"/>
<circle cx="120.0" cy="470" r="5" fill="#d633ff"/>
<text x="232" y="474" text-anchor="end" font-family="'JetBrains Mono','Cascadia Mono','Consolas',monospace" font-size="12" fill="#e0e0e0">0</text>
</g>
<text x="8" y="495" font-family="'JetBrains Mono','Cascadia Mono','Consolas',monospace" font-size="12" fill="#a0a0a0">scale</text>
<g>
<rect x="120" y="489" width="72" height="4" rx="2" fill="#cfd2d6" opacity="0.85"/>
<rect x="120" y="489" width="28.8" height="4" rx="2" fill="#d633ff"/>
<circle cx="148.8" cy="491" r="5" fill="#d633ff"/>
<text x="232" y="495" text-anchor="end" font-family="'JetBrains Mono','Cascadia Mono','Consolas',monospace" font-size="12" fill="#e0e0e0">0.8</text>
</g>
<text x="8" y="516" font-family="'JetBrains Mono','Cascadia Mono','Consolas',monospace" font-size="12" fill="#a0a0a0">thickness</text>
<g>
<rect x="120" y="510" width="72" height="4" rx="2" fill="#cfd2d6" opacity="0.85"/>
<rect x="120" y="510" width="15.4" height="4" rx="2" fill="#d633ff"/>
<circle cx="135.4" cy="512" r="5" fill="#d633ff"/>
<text x="232" y="516" text-anchor="end" font-family="'JetBrains Mono','Cascadia Mono','Consolas',monospace" font-size="12" fill="#e0e0e0">1.25</text>
</g>
<text x="8" y="537" font-family="'JetBrains Mono','Cascadia Mono','Consolas',monospace" font-size="12" fill="#a0a0a0">clamp inputs</text>
<g>
<rect x="220" y="527" width="12" height="12" rx="3" fill="#0d0f12" stroke="rgba(255,255,255,0.12)"/>
</g>
<text x="8" y="558" font-family="'JetBrains Mono','Cascadia Mono','Consolas',monospace" font-size="12" fill="#a0a0a0">bypass</text>
<g>
<rect x="220" y="548" width="12" height="12" rx="3" fill="#0d0f12" stroke="rgba(255,255,255,0.12)"/>
</g>
</g>
</svg>
