<svg xmlns="http://www.w3.org/2000/svg" viewBox="0 0 296 261" width="296" height="261" role="img" aria-label="Percussion Detect node">

<defs><filter id="shadow" x="-20%" y="-20%" width="140%" height="160%"><feDropShadow dx="0" dy="8" stdDeviation="9" flood-color="#000" flood-opacity="0.45"/></filter></defs>
<g transform="translate(28,24)">
<rect x="0" y="0" width="240" height="203" rx="8" fill="#1f242b" stroke="rgba(255,255,255,0.12)" filter="url(#shadow)"/>
<rect x="0" y="0" width="240" height="203" rx="8" fill="#1f242b" stroke="rgba(255,255,255,0.12)"/>
<path d="M0,32 L0,8 Q0,0 8,0 L232,0 Q240,0 240,8 L240,32 Z" fill="#85ff33"/>
<text x="8" y="21" font-family="'Audiowide','Trebuchet MS','Arial Black',sans-serif" font-size="14" font-weight="600" fill="#000">Percussion De…</text>
<rect x="154" y="10" width="25" height="12" rx="6" fill="rgba(0,0,0,0.14)" stroke="rgba(255,255,255,0.14)"/>
<text x="166.5" y="19" text-anchor="middle" font-family="'JetBrains Mono','Cascadia Mono','Consolas',monospace" font-size="8" letter-spacing="0.08em" fill="#000">AUD</text>
<rect x="185" y="10" width="47" height="12" rx="6" fill="rgba(0,0,0,0.14)" stroke="rgba(255,255,255,0.14)"/>
<text x="208.5" y="19" text-anchor="middle" font-family="'JetBrains Mono','Cascadia Mono','Consolas',monospace" font-size="8" letter-spacing="0.08em" fill="#000">PER-356</text>
<circle cx="-2" cy="52" r="9" fill="#00e0a4" opacity="0.25"/>
<circle cx="-2" cy="52" r="6" fill="#00e0a4" stroke="#0d0f12" stroke-width="1.5"/>
<text x="10" y="56" font-family="'JetBrains Mono','Cascadia Mono','Consolas',monospace" font-size="12" fill="#a0a0a0">Audio</text>
<circle cx="242" cy="52" r="9" fill="#9aa0a6" opacity="0.25"/>
<circle cx="242" cy="52" r="6" fill="#9aa0a6" stroke="#0d0f12" stroke-width="1.5"/>
<text x="230" y="56" text-anchor="end" font-family="'JetBrains Mono','Cascadia Mono','Consolas',monospace" font-size="12" fill="#a0a0a0">Kick</text>
<circle cx="242" cy="80" r="9" fill="#9aa0a6" opacity="0.25"/>
<circle cx="242" cy="80" r="6" fill="#9aa0a6" stroke="#0d0f12" stroke-width="1.5"/>
<text x="230" y="84" text-anchor="end" font-family="'JetBrains Mono','Cascadia Mono','Consolas',monospace" font-size="12" fill="#a0a0a0">Snare</text>
<circle cx="242" cy="108" r="9" fill="#9aa0a6" opacity="0.25"/>
<circle cx="242" cy="108" r="6" fill="#9aa0a6" stroke="#0d0f12" stroke-width="1.5"/>
<text x="230" y="112" text-anchor="end" font-family="'JetBrains Mono','Cascadia Mono','Consolas',monospace" font-size="12" fill="#a0a0a0">Hi-Hat</text>
<line x1="8" y1="128" x2="232" y2="128" stroke="rgba(255,255,255,0.08)"/>
<text x="8" y="148" font-family="'JetBrains Mono','Cascadia Mono','Consolas',monospace" font-size="12" fill="#a0a0a0">sensitivity</text>
<g>
<rect x="120" y="142" width="72" height="4" rx="2" fill="#cfd2d6" opacity="0.85"/>
<rect x="120" y="142" width="39.6" height="4" rx="2" fill="#d633ff"/>
<circle cx="159.6" cy="144" r="5" fill="#d633ff"/>
<text x="232" y="148" text-anchor="end" font-family="'JetBrains Mono','Cascadia Mono','Consolas',monospace" font-size="12" fill="#e0e0e0">0.55</text>
</g>
<text x="8" y="169" font-family="'JetBrains Mono','Cascadia Mono','Consolas',monospace" font-size="12" fill="#a0a0a0">decay</text>
<g>
<rect x="120" y="163" width="72" height="4" rx="2" fill="#cfd2d6" opacity="0.85"/>
<rect x="120" y="163" width="51.8" height="4" rx="2" fill="#d633ff"/>
<circle cx="171.8" cy="165" r="5" fill="#d633ff"/>
<text x="232" y="169" text-anchor="end" font-family="'JetBrains Mono','Cascadia Mono','Consolas',monospace" font-size="12" fill="#e0e0e0">0.72</text>
</g>
<text x="8" y="190" font-family="'JetBrains Mono','Cascadia Mono','Consolas',monospace" font-size="12" fill="#a0a0a0">separation</text>
<g>
<rect x="120" y="184" width="72" height="4" rx="2" fill="#cfd2d6" opacity="0.85"/>
<rect x="120" y="184" width="28.8" height="4" rx="2" fill="#d633ff"/>
<circle cx="148.8" cy="186" r="5" fill="#d633ff"/>
<text x="232" y="190" text-anchor="end" font-family="'JetBrains Mono','Cascadia Mono','Consolas',monospace" font-size="12" fill="#e0e0e0">0.4</text>
</g>
</g>
</svg>
