<svg xmlns="http://www.w3.org/2000/svg" viewBox="0 0 296 310" width="296" height="310" role="img" aria-label="Performance Generator node">

<defs><filter id="shadow" x="-20%" y="-20%" width="140%" height="160%"><feDropShadow dx="0" dy="8" stdDeviation="9" flood-color="#000" flood-opacity="0.45"/></filter></defs>
<g transform="translate(28,24)">
<rect x="0" y="0" width="240" height="252" rx="8" fill="#1f242b" stroke="rgba(255,255,255,0.12)" filter="url(#shadow)"/>
<rect x="0" y="0" width="240" height="252" rx="8" fill="#1f242b" stroke="rgba(255,255,255,0.12)"/>
<path d="M0,32 L0,8 Q0,0 8,0 L232,0 Q240,0 240,8 L240,32 Z" fill="#8533ff"/>
<text x="8" y="21" font-family="'Audiowide','Trebuchet MS','Arial Black',sans-serif" font-size="14" font-weight="600" fill="#000">Performance G…</text>
<rect x="154" y="10" width="25" height="12" rx="6" fill="rgba(0,0,0,0.14)" stroke="rgba(255,255,255,0.14)"/>
<text x="166.5" y="19" text-anchor="middle" font-family="'JetBrains Mono','Cascadia Mono','Consolas',monospace" font-size="8" letter-spacing="0.08em" fill="#000">SHW</text>
<rect x="185" y="10" width="47" height="12" rx="6" fill="rgba(0,0,0,0.14)" stroke="rgba(255,255,255,0.14)"/>
<text x="208.5" y="19" text-anchor="middle" font-family="'JetBrains Mono','Cascadia Mono','Consolas',monospace" font-size="8" letter-spacing="0.08em" fill="#000">PER-183</text>
<circle cx="-2" cy="52" r="9" fill="#ffb74d" opacity="0.25"/>
<circle cx="-2" cy="52" r="6" fill="#ffb74d" stroke="#0d0f12" stroke-width="1.5"/>
<text x="10" y="56" font-family="'JetBrains Mono','Cascadia Mono','Consolas',monospace" font-size="12" fill="#a0a0a0">Music</text>
<circle cx="242" cy="52" r="9" fill="#ffa726" opacity="0.25"/>
<circle cx="242" cy="52" r="6" fill="#ffa726" stroke="#0d0f12" stroke-width="1.5"/>
<text x="230" y="56" text-anchor="end" font-family="'JetBrains Mono','Cascadia Mono','Consolas',monospace" font-size="12" fill="#a0a0a0">Shows</text>
<circle cx="-2" cy="80" r="9" fill="#b388ff" opacity="0.25"/>
<circle cx="-2" cy="80" r="6" fill="#b388ff" stroke="#0d0f12" stroke-width="1.5"/>
<text x="10" y="84" font-family="'JetBrains Mono','Cascadia Mono','Consolas',monospace" font-size="12" fill="#a0a0a0">Transitions</text>
<circle cx="-2" cy="108" r="9" fill="#00e0a4" opacity="0.25"/>
<circle cx="-2" cy="108" r="6" fill="#00e0a4" stroke="#0d0f12" stroke-width="1.5"/>
<text x="10" y="112" font-family="'JetBrains Mono','Cascadia Mono','Consolas',monospace" font-size="12" fill="#a0a0a0">Patterns</text>
<rect x="8" y="124" width="224" height="24" rx="4" fill="none" stroke="rgba(255,255,255,0.12)" stroke-dasharray="4 3"/>
<text x="120" y="140" text-anchor="middle" font-family="'JetBrains Mono','Cascadia Mono','Consolas',monospace" font-size="10" font-style="italic" fill="#a0a0a0">show preview player</text>
<line x1="8" y1="156" x2="232" y2="156" stroke="rgba(255,255,255,0.08)"/>
<text x="8" y="176" font-family="'JetBrains Mono','Cascadia Mono','Consolas',monospace" font-size="12" letter-spacing="0.03em" fill="#a0a0a0">▸ RESPONSE</text>
<text x="8" y="197" font-family="'JetBrains Mono','Cascadia Mono','Consolas',monospace" font-size="12" letter-spacing="0.03em" fill="#a0a0a0">▸ TIMING</text>
<text x="8" y="218" font-family="'JetBrains Mono','Cascadia Mono','Consolas',monospace" font-size="12" letter-spacing="0.03em" fill="#a0a0a0">▸ PALETTE</text>
<text x="8" y="239" font-family="'JetBrains Mono','Cascadia Mono','Consolas',monospace" font-size="12" letter-spacing="0.03em" fill="#a0a0a0">▸ INPUTS</text>
</g>
</svg>
