<svg xmlns="http://www.w3.org/2000/svg" viewBox="0 0 296 312" width="296" height="312" role="img" aria-label="Poline Palette node">

<defs><filter id="shadow" x="-20%" y="-20%" width="140%" height="160%"><feDropShadow dx="0" dy="8" stdDeviation="9" flood-color="#000" flood-opacity="0.45"/></filter></defs>
<g transform="translate(28,24)">
<rect x="0" y="0" width="240" height="254" rx="8" fill="#1f242b" stroke="rgba(255,255,255,0.12)" filter="url(#shadow)"/>
<rect x="0" y="0" width="240" height="254" rx="8" fill="#1f242b" stroke="rgba(255,255,255,0.12)"/>
<path d="M0,32 L0,8 Q0,0 8,0 L232,0 Q240,0 240,8 L240,32 Z" fill="#33ffd6"/>
<text x="8" y="21" font-family="'Audiowide','Trebuchet MS','Arial Black',sans-serif" font-size="14" font-weight="600" fill="#000">Poline Palette</text>
<rect x="154" y="10" width="25" height="12" rx="6" fill="rgba(0,0,0,0.14)" stroke="rgba(255,255,255,0.14)"/>
<text x="166.5" y="19" text-anchor="middle" font-family="'JetBrains Mono','Cascadia Mono','Consolas',monospace" font-size="8" letter-spacing="0.08em" fill="#000">CLR</text>
<rect x="185" y="10" width="47" height="12" rx="6" fill="rgba(0,0,0,0.14)" stroke="rgba(255,255,255,0.14)"/>
<text x="208.5" y="19" text-anchor="middle" font-family="'JetBrains Mono','Cascadia Mono','Consolas',monospace" font-size="8" letter-spacing="0.08em" fill="#000">POL-355</text>
<defs><linearGradient id="pal44" x1="0" y1="0" x2="1" y2="0"><stop offset="0.0%" stop-color="rgb(16,32,255)"/><stop offset="6.7%" stop-color="rgb(55,11,224)"/><stop offset="13.3%" stop-color="rgb(108,0,206)"/><stop offset="20.0%" stop-color="rgb(177,0,203)"/><stop offset="26.7%" stop-color="rgb(218,0,192)"/><stop offset="33.3%" stop-color="rgb(244,6,180)"/><stop offset="40.0%" stop-color="rgb(255,18,165)"/><stop offset="46.7%" stop-color="rgb(255,27,162)"/><stop offset="53.3%" stop-color="rgb(255,23,158)"/><stop offset="60.0%" stop-color="rgb(255,5,153)"/><stop offset="66.7%" stop-color="rgb(206,2,134)"/><stop offset="73.3%" stop-color="rgb(141,0,107)"/><stop offset="80.0%" stop-color="rgb(60,0,73)"/><stop offset="86.7%" stop-color="rgb(20,76,105)"/><stop offset="93.3%" stop-color="rgb(11,161,150)"/><stop offset="100.0%" stop-color="rgb(16,32,255)"/></linearGradient></defs>
<rect x="8" y="40" width="224" height="40" rx="4" fill="url(#pal44)" stroke="rgba(255,255,255,0.12)"/>
<circle cx="-2" cy="96" r="9" fill="#ffd24a" opacity="0.25"/>
<circle cx="-2" cy="96" r="6" fill="#ffd24a" stroke="#0d0f12" stroke-width="1.5"/>
<text x="10" y="100" font-family="'JetBrains Mono','Cascadia Mono','Consolas',monospace" font-size="12" fill="#a0a0a0">Anchor A</text>
<circle cx="242" cy="96" r="9" fill="#ff5cf0" opacity="0.25"/>
<circle cx="242" cy="96" r="6" fill="#ff5cf0" stroke="#0d0f12" stroke-width="1.5"/>
<text x="230" y="100" text-anchor="end" font-family="'JetBrains Mono','Cascadia Mono','Consolas',monospace" font-size="12" fill="#a0a0a0">Palette</text>
<circle cx="-2" cy="124" r="9" fill="#ffd24a" opacity="0.25"/>
<circle cx="-2" cy="124" r="6" fill="#ffd24a" stroke="#0d0f12" stroke-width="1.5"/>
<text x="10" y="128" font-family="'JetBrains Mono','Cascadia Mono','Consolas',monospace" font-size="12" fill="#a0a0a0">Anchor B</text>
<circle cx="-2" cy="152" r="9" fill="#ffd24a" opacity="0.25"/>
<circle cx="-2" cy="152" r="6" fill="#ffd24a" stroke="#0d0f12" stroke-width="1.5"/>
<text x="10" y="156" font-family="'JetBrains Mono','Cascadia Mono','Consolas',monospace" font-size="12" fill="#a0a0a0">Anchor C</text>
<rect x="8" y="168" width="224" height="24" rx="4" fill="none" stroke="rgba(255,255,255,0.12)" stroke-dasharray="4 3"/>
<text x="120" y="184" text-anchor="middle" font-family="'JetBrains Mono','Cascadia Mono','Consolas',monospace" font-size="10" font-style="italic" fill="#a0a0a0">poline palette editor</text>
<line x1="8" y1="200" x2="232" y2="200" stroke="rgba(255,255,255,0.08)"/>
<text x="8" y="220" font-family="'JetBrains Mono','Cascadia Mono','Consolas',monospace" font-size="12" fill="#a0a0a0">points</text>
<g>
<rect x="120" y="214" width="72" height="4" rx="2" fill="#cfd2d6" opacity="0.85"/>
<rect x="120" y="214" width="19.6" height="4" rx="2" fill="#d633ff"/>
<circle cx="139.6" cy="216" r="5" fill="#d633ff"/>
<text x="232" y="220" text-anchor="end" font-family="'JetBrains Mono','Cascadia Mono','Consolas',monospace" font-size="12" fill="#e0e0e0">4</text>
</g>
<text x="8" y="241" font-family="'JetBrains Mono','Cascadia Mono','Consolas',monospace" font-size="12" fill="#a0a0a0">position</text>
<g>
<rect x="148" y="229" width="84" height="16" rx="4" fill="#0d0f12" stroke="rgba(255,255,255,0.12)"/>
<text x="152" y="241" font-family="'JetBrains Mono','Cascadia Mono','Consolas',monospace" font-size="11" fill="#e0e0e0">sinusoidal</text>
<text x="228" y="241" text-anchor="end" font-size="8" fill="#a0a0a0">▾</text>
</g>
</g>
</svg>
