<svg xmlns="http://www.w3.org/2000/svg" viewBox="0 0 296 594" width="296" height="594" role="img" aria-label="Prism Storm node">

<defs><filter id="shadow" x="-20%" y="-20%" width="140%" height="160%"><feDropShadow dx="0" dy="8" stdDeviation="9" flood-color="#000" flood-opacity="0.45"/></filter></defs>
<g transform="translate(28,24)">
<rect x="0" y="0" width="240" height="536" rx="8" fill="#1f242b" stroke="rgba(255,255,255,0.12)" filter="url(#shadow)"/>
<rect x="0" y="0" width="240" height="536" rx="8" fill="#1f242b" stroke="rgba(255,255,255,0.12)"/>
<path d="M0,32 L0,8 Q0,0 8,0 L232,0 Q240,0 240,8 L240,32 Z" fill="#33d6ff"/>
<text x="8" y="21" font-family="'Audiowide','Trebuchet MS','Arial Black',sans-serif" font-size="14" font-weight="600" fill="#000">Prism Storm</text>
<rect x="154" y="10" width="25" height="12" rx="6" fill="rgba(0,0,0,0.14)" stroke="rgba(255,255,255,0.14)"/>
<text x="166.5" y="19" text-anchor="middle" font-family="'JetBrains Mono','Cascadia Mono','Consolas',monospace" font-size="8" letter-spacing="0.08em" fill="#000">PAT</text>
<rect x="185" y="10" width="47" height="12" rx="6" fill="rgba(0,0,0,0.14)" stroke="rgba(255,255,255,0.14)"/>
<text x="208.5" y="19" text-anchor="middle" font-family="'JetBrains Mono','Cascadia Mono','Consolas',monospace" font-size="8" letter-spacing="0.08em" fill="#000">PRI-940</text>
<rect x="8" y="40" width="224" height="224" rx="4" fill="#05070a"/>
<circle cx="15" cy="47" r="7" fill="rgb(51,27,71)" opacity="0.35"/>
<circle cx="15" cy="47" r="5.0" fill="rgb(51,27,71)"/>
<circle cx="29" cy="47" r="7" fill="rgb(110,84,131)" opacity="0.35"/>
<circle cx="29" cy="47" r="5.0" fill="rgb(110,84,131)"/>
<circle cx="43" cy="47" r="7" fill="rgb(101,73,123)" opacity="0.35"/>
<circle cx="43" cy="47" r="5.0" fill="rgb(101,73,123)"/>
<circle cx="57" cy="47" r="7" fill="rgb(40,19,57)" opacity="0.35"/>
<circle cx="57" cy="47" r="5.0" fill="rgb(40,19,57)"/>
<circle cx="71" cy="47" r="7" fill="rgb(42,20,60)" opacity="0.35"/>
<circle cx="71" cy="47" r="5.0" fill="rgb(42,20,60)"/>
<circle cx="85" cy="47" r="7" fill="rgb(103,75,125)" opacity="0.35"/>
<circle cx="85" cy="47" r="5.0" fill="rgb(103,75,125)"/>
<circle cx="99" cy="47" r="7" fill="rgb(31,12,47)" opacity="0.35"/>
<circle cx="99" cy="47" r="5.0" fill="rgb(31,12,47)"/>
<circle cx="113" cy="47" r="5.0" fill="#14171c"/>
<circle cx="127" cy="47" r="5.0" fill="#14171c"/>
<circle cx="141" cy="47" r="7" fill="rgb(18,7,28)" opacity="0.35"/>
<circle cx="141" cy="47" r="5.0" fill="rgb(18,7,28)"/>
<circle cx="155" cy="47" r="7" fill="rgb(134,115,150)" opacity="0.35"/>
<circle cx="155" cy="47" r="5.0" fill="rgb(134,115,150)"/>
<circle cx="169" cy="47" r="7" fill="rgb(56,31,76)" opacity="0.35"/>
<circle cx="169" cy="47" r="5.0" fill="rgb(56,31,76)"/>
<circle cx="183" cy="47" r="7" fill="rgb(32,8,46)" opacity="0.35"/>
<circle cx="183" cy="47" r="5.0" fill="rgb(32,8,46)"/>
<circle cx="197" cy="47" r="7" fill="rgb(110,84,131)" opacity="0.35"/>
<circle cx="197" cy="47" r="5.0" fill="rgb(110,84,131)"/>
<circle cx="211" cy="47" r="7" fill="rgb(37,16,54)" opacity="0.35"/>
<circle cx="211" cy="47" r="5.0" fill="rgb(37,16,54)"/>
<circle cx="225" cy="47" r="7" fill="rgb(20,3,30)" opacity="0.35"/>
<circle cx="225" cy="47" r="5.0" fill="rgb(20,3,30)"/>
<circle cx="15" cy="61" r="7" fill="rgb(55,30,75)" opacity="0.35"/>
<circle cx="15" cy="61" r="5.0" fill="rgb(55,30,75)"/>
<circle cx="29" cy="61" r="7" fill="rgb(119,95,138)" opacity="0.35"/>
<circle cx="29" cy="61" r="5.0" fill="rgb(119,95,138)"/>
<circle cx="43" cy="61" r="7" fill="rgb(144,129,158)" opacity="0.35"/>
<circle cx="43" cy="61" r="5.0" fill="rgb(144,129,158)"/>
<circle cx="57" cy="61" r="5.0" fill="#14171c"/>
<circle cx="71" cy="61" r="7" fill="rgb(14,5,21)" opacity="0.35"/>
<circle cx="71" cy="61" r="5.0" fill="rgb(14,5,21)"/>
<circle cx="85" cy="61" r="5.0" fill="#14171c"/>
<circle cx="99" cy="61" r="7" fill="rgb(34,15,51)" opacity="0.35"/>
<circle cx="99" cy="61" r="5.0" fill="rgb(34,15,51)"/>
<circle cx="113" cy="61" r="5.0" fill="#14171c"/>
<circle cx="127" cy="61" r="7" fill="rgb(34,14,50)" opacity="0.35"/>
<circle cx="127" cy="61" r="5.0" fill="rgb(34,14,50)"/>
<circle cx="141" cy="61" r="7" fill="rgb(33,14,49)" opacity="0.35"/>
<circle cx="141" cy="61" r="5.0" fill="rgb(33,14,49)"/>
<circle cx="155" cy="61" r="7" fill="rgb(21,7,32)" opacity="0.35"/>
<circle cx="155" cy="61" r="5.0" fill="rgb(21,7,32)"/>
<circle cx="169" cy="61" r="7" fill="rgb(12,4,18)" opacity="0.35"/>
<circle cx="169" cy="61" r="5.0" fill="rgb(12,4,18)"/>
<circle cx="183" cy="61" r="7" fill="rgb(67,39,89)" opacity="0.35"/>
<circle cx="183" cy="61" r="5.0" fill="rgb(67,39,89)"/>
<circle cx="197" cy="61" r="7" fill="rgb(16,6,24)" opacity="0.35"/>
<circle cx="197" cy="61" r="5.0" fill="rgb(16,6,24)"/>
<circle cx="211" cy="61" r="5.0" fill="#14171c"/>
<circle cx="225" cy="61" r="7" fill="rgb(53,19,77)" opacity="0.35"/>
<circle cx="225" cy="61" r="5.0" fill="rgb(53,19,77)"/>
<circle cx="15" cy="75" r="7" fill="rgb(119,96,138)" opacity="0.35"/>
<circle cx="15" cy="75" r="5.0" fill="rgb(119,96,138)"/>
<circle cx="29" cy="75" r="7" fill="rgb(43,21,61)" opacity="0.35"/>
<circle cx="29" cy="75" r="5.0" fill="rgb(43,21,61)"/>
<circle cx="43" cy="75" r="5.0" fill="#14171c"/>
<circle cx="57" cy="75" r="5.0" fill="#14171c"/>
<circle cx="71" cy="75" r="7" fill="rgb(119,95,138)" opacity="0.35"/>
<circle cx="71" cy="75" r="5.0" fill="rgb(119,95,138)"/>
<circle cx="85" cy="75" r="7" fill="rgb(110,84,131)" opacity="0.35"/>
<circle cx="85" cy="75" r="5.0" fill="rgb(110,84,131)"/>
<circle cx="99" cy="75" r="7" fill="rgb(92,61,115)" opacity="0.35"/>
<circle cx="99" cy="75" r="5.0" fill="rgb(92,61,115)"/>
<circle cx="113" cy="75" r="7" fill="rgb(40,19,58)" opacity="0.35"/>
<circle cx="113" cy="75" r="5.0" fill="rgb(40,19,58)"/>
<circle cx="127" cy="75" r="7" fill="rgb(121,97,139)" opacity="0.35"/>
<circle cx="127" cy="75" r="5.0" fill="rgb(121,97,139)"/>
<circle cx="141" cy="75" r="7" fill="rgb(57,31,77)" opacity="0.35"/>
<circle cx="141" cy="75" r="5.0" fill="rgb(57,31,77)"/>
<circle cx="155" cy="75" r="7" fill="rgb(12,4,18)" opacity="0.35"/>
<circle cx="155" cy="75" r="5.0" fill="rgb(12,4,18)"/>
<circle cx="169" cy="75" r="7" fill="rgb(65,37,87)" opacity="0.35"/>
<circle cx="169" cy="75" r="5.0" fill="rgb(65,37,87)"/>
<circle cx="183" cy="75" r="7" fill="rgb(17,6,25)" opacity="0.35"/>
<circle cx="183" cy="75" r="5.0" fill="rgb(17,6,25)"/>
<circle cx="197" cy="75" r="7" fill="rgb(59,33,80)" opacity="0.35"/>
<circle cx="197" cy="75" r="5.0" fill="rgb(59,33,80)"/>
<circle cx="211" cy="75" r="7" fill="rgb(97,67,119)" opacity="0.35"/>
<circle cx="211" cy="75" r="5.0" fill="rgb(97,67,119)"/>
<circle cx="225" cy="75" r="7" fill="rgb(59,33,80)" opacity="0.35"/>
<circle cx="225" cy="75" r="5.0" fill="rgb(59,33,80)"/>
<circle cx="15" cy="89" r="7" fill="rgb(14,5,22)" opacity="0.35"/>
<circle cx="15" cy="89" r="5.0" fill="rgb(14,5,22)"/>
<circle cx="29" cy="89" r="5.0" fill="#14171c"/>
<circle cx="43" cy="89" r="7" fill="rgb(14,5,21)" opacity="0.35"/>
<circle cx="43" cy="89" r="5.0" fill="rgb(14,5,21)"/>
<circle cx="57" cy="89" r="7" fill="rgb(79,49,103)" opacity="0.35"/>
<circle cx="57" cy="89" r="5.0" fill="rgb(79,49,103)"/>
<circle cx="71" cy="89" r="5.0" fill="#14171c"/>
<circle cx="85" cy="89" r="7" fill="rgb(24,9,37)" opacity="0.35"/>
<circle cx="85" cy="89" r="5.0" fill="rgb(24,9,37)"/>
<circle cx="99" cy="89" r="7" fill="rgb(55,30,76)" opacity="0.35"/>
<circle cx="99" cy="89" r="5.0" fill="rgb(55,30,76)"/>
<circle cx="113" cy="89" r="7" fill="rgb(59,21,84)" opacity="0.35"/>
<circle cx="113" cy="89" r="5.0" fill="rgb(59,21,84)"/>
<circle cx="127" cy="89" r="7" fill="rgb(33,9,48)" opacity="0.35"/>
<circle cx="127" cy="89" r="5.0" fill="rgb(33,9,48)"/>
<circle cx="141" cy="89" r="7" fill="rgb(29,11,44)" opacity="0.35"/>
<circle cx="141" cy="89" r="5.0" fill="rgb(29,11,44)"/>
<circle cx="155" cy="89" r="5.0" fill="#14171c"/>
<circle cx="169" cy="89" r="7" fill="rgb(11,4,17)" opacity="0.35"/>
<circle cx="169" cy="89" r="5.0" fill="rgb(11,4,17)"/>
<circle cx="183" cy="89" r="7" fill="rgb(153,141,164)" opacity="0.35"/>
<circle cx="183" cy="89" r="5.0" fill="rgb(153,141,164)"/>
<circle cx="197" cy="89" r="7" fill="rgb(14,0,22)" opacity="0.35"/>
<circle cx="197" cy="89" r="5.0" fill="rgb(14,0,22)"/>
<circle cx="211" cy="89" r="7" fill="rgb(96,66,118)" opacity="0.35"/>
<circle cx="211" cy="89" r="5.0" fill="rgb(96,66,118)"/>
<circle cx="225" cy="89" r="5.0" fill="#14171c"/>
<circle cx="15" cy="103" r="7" fill="rgb(11,4,17)" opacity="0.35"/>
<circle cx="15" cy="103" r="5.0" fill="rgb(11,4,17)"/>
<circle cx="29" cy="103" r="7" fill="rgb(30,11,45)" opacity="0.35"/>
<circle cx="29" cy="103" r="5.0" fill="rgb(30,11,45)"/>
<circle cx="43" cy="103" r="7" fill="rgb(76,46,99)" opacity="0.35"/>
<circle cx="43" cy="103" r="5.0" fill="rgb(76,46,99)"/>
<circle cx="57" cy="103" r="7" fill="rgb(84,53,108)" opacity="0.35"/>
<circle cx="57" cy="103" r="5.0" fill="rgb(84,53,108)"/>
<circle cx="71" cy="103" r="7" fill="rgb(30,12,45)" opacity="0.35"/>
<circle cx="71" cy="103" r="5.0" fill="rgb(30,12,45)"/>
<circle cx="85" cy="103" r="7" fill="rgb(58,32,78)" opacity="0.35"/>
<circle cx="85" cy="103" r="5.0" fill="rgb(58,32,78)"/>
<circle cx="99" cy="103" r="7" fill="rgb(82,51,106)" opacity="0.35"/>
<circle cx="99" cy="103" r="5.0" fill="rgb(82,51,106)"/>
<circle cx="113" cy="103" r="7" fill="rgb(81,51,105)" opacity="0.35"/>
<circle cx="113" cy="103" r="5.0" fill="rgb(81,51,105)"/>
<circle cx="127" cy="103" r="5.0" fill="#14171c"/>
<circle cx="141" cy="103" r="5.0" fill="#14171c"/>
<circle cx="155" cy="103" r="7" fill="rgb(13,5,20)" opacity="0.35"/>
<circle cx="155" cy="103" r="5.0" fill="rgb(13,5,20)"/>
<circle cx="169" cy="103" r="7" fill="rgb(80,49,103)" opacity="0.35"/>
<circle cx="169" cy="103" r="5.0" fill="rgb(80,49,103)"/>
<circle cx="183" cy="103" r="7" fill="rgb(15,1,23)" opacity="0.35"/>
<circle cx="183" cy="103" r="5.0" fill="rgb(15,1,23)"/>
<circle cx="197" cy="103" r="7" fill="rgb(19,2,28)" opacity="0.35"/>
<circle cx="197" cy="103" r="5.0" fill="rgb(19,2,28)"/>
<circle cx="211" cy="103" r="7" fill="rgb(135,116,151)" opacity="0.35"/>
<circle cx="211" cy="103" r="5.0" fill="rgb(135,116,151)"/>
<circle cx="225" cy="103" r="5.0" fill="#14171c"/>
<circle cx="15" cy="117" r="5.0" fill="#14171c"/>
<circle cx="29" cy="117" r="5.0" fill="#14171c"/>
<circle cx="43" cy="117" r="7" fill="rgb(75,45,97)" opacity="0.35"/>
<circle cx="43" cy="117" r="5.0" fill="rgb(75,45,97)"/>
<circle cx="57" cy="117" r="7" fill="rgb(84,52,107)" opacity="0.35"/>
<circle cx="57" cy="117" r="5.0" fill="rgb(84,52,107)"/>
<circle cx="71" cy="117" r="7" fill="rgb(17,6,26)" opacity="0.35"/>
<circle cx="71" cy="117" r="5.0" fill="rgb(17,6,26)"/>
<circle cx="85" cy="117" r="7" fill="rgb(16,6,24)" opacity="0.35"/>
<circle cx="85" cy="117" r="5.0" fill="rgb(16,6,24)"/>
<circle cx="99" cy="117" r="7" fill="rgb(59,33,80)" opacity="0.35"/>
<circle cx="99" cy="117" r="5.0" fill="rgb(59,33,80)"/>
<circle cx="113" cy="117" r="7" fill="rgb(27,10,42)" opacity="0.35"/>
<circle cx="113" cy="117" r="5.0" fill="rgb(27,10,42)"/>
<circle cx="127" cy="117" r="7" fill="rgb(42,20,60)" opacity="0.35"/>
<circle cx="127" cy="117" r="5.0" fill="rgb(42,20,60)"/>
<circle cx="141" cy="117" r="7" fill="rgb(93,63,116)" opacity="0.35"/>
<circle cx="141" cy="117" r="5.0" fill="rgb(93,63,116)"/>
<circle cx="155" cy="117" r="7" fill="rgb(109,83,130)" opacity="0.35"/>
<circle cx="155" cy="117" r="5.0" fill="rgb(109,83,130)"/>
<circle cx="169" cy="117" r="7" fill="rgb(14,5,21)" opacity="0.35"/>
<circle cx="169" cy="117" r="5.0" fill="rgb(14,5,21)"/>
<circle cx="183" cy="117" r="7" fill="rgb(61,35,82)" opacity="0.35"/>
<circle cx="183" cy="117" r="5.0" fill="rgb(61,35,82)"/>
<circle cx="197" cy="117" r="7" fill="rgb(14,1,22)" opacity="0.35"/>
<circle cx="197" cy="117" r="5.0" fill="rgb(14,1,22)"/>
<circle cx="211" cy="117" r="7" fill="rgb(66,38,87)" opacity="0.35"/>
<circle cx="211" cy="117" r="5.0" fill="rgb(66,38,87)"/>
<circle cx="225" cy="117" r="7" fill="rgb(16,6,24)" opacity="0.35"/>
<circle cx="225" cy="117" r="5.0" fill="rgb(16,6,24)"/>
<circle cx="15" cy="131" r="7" fill="rgb(88,57,112)" opacity="0.35"/>
<circle cx="15" cy="131" r="5.0" fill="rgb(88,57,112)"/>
<circle cx="29" cy="131" r="7" fill="rgb(34,14,50)" opacity="0.35"/>
<circle cx="29" cy="131" r="5.0" fill="rgb(34,14,50)"/>
<circle cx="43" cy="131" r="7" fill="rgb(128,107,145)" opacity="0.35"/>
<circle cx="43" cy="131" r="5.0" fill="rgb(128,107,145)"/>
<circle cx="57" cy="131" r="5.0" fill="#14171c"/>
<circle cx="71" cy="131" r="5.0" fill="#14171c"/>
<circle cx="85" cy="131" r="7" fill="rgb(36,16,53)" opacity="0.35"/>
<circle cx="85" cy="131" r="5.0" fill="rgb(36,16,53)"/>
<circle cx="99" cy="131" r="5.0" fill="#14171c"/>
<circle cx="113" cy="131" r="7" fill="rgb(34,14,50)" opacity="0.35"/>
<circle cx="113" cy="131" r="5.0" fill="rgb(34,14,50)"/>
<circle cx="127" cy="131" r="7" fill="rgb(29,11,44)" opacity="0.35"/>
<circle cx="127" cy="131" r="5.0" fill="rgb(29,11,44)"/>
<circle cx="141" cy="131" r="7" fill="rgb(97,68,120)" opacity="0.35"/>
<circle cx="141" cy="131" r="5.0" fill="rgb(97,68,120)"/>
<circle cx="155" cy="131" r="5.0" fill="#14171c"/>
<circle cx="169" cy="131" r="7" fill="rgb(13,5,20)" opacity="0.35"/>
<circle cx="169" cy="131" r="5.0" fill="rgb(13,5,20)"/>
<circle cx="183" cy="131" r="7" fill="rgb(43,21,62)" opacity="0.35"/>
<circle cx="183" cy="131" r="5.0" fill="rgb(43,21,62)"/>
<circle cx="197" cy="131" r="5.0" fill="#14171c"/>
<circle cx="211" cy="131" r="7" fill="rgb(22,8,34)" opacity="0.35"/>
<circle cx="211" cy="131" r="5.0" fill="rgb(22,8,34)"/>
<circle cx="225" cy="131" r="7" fill="rgb(64,37,85)" opacity="0.35"/>
<circle cx="225" cy="131" r="5.0" fill="rgb(64,37,85)"/>
<circle cx="15" cy="145" r="7" fill="rgb(20,7,31)" opacity="0.35"/>
<circle cx="15" cy="145" r="5.0" fill="rgb(20,7,31)"/>
<circle cx="29" cy="145" r="5.0" fill="#14171c"/>
<circle cx="43" cy="145" r="7" fill="rgb(78,48,101)" opacity="0.35"/>
<circle cx="43" cy="145" r="5.0" fill="rgb(78,48,101)"/>
<circle cx="57" cy="145" r="5.0" fill="#14171c"/>
<circle cx="71" cy="145" r="7" fill="rgb(103,75,125)" opacity="0.35"/>
<circle cx="71" cy="145" r="5.0" fill="rgb(103,75,125)"/>
<circle cx="85" cy="145" r="7" fill="rgb(112,86,132)" opacity="0.35"/>
<circle cx="85" cy="145" r="5.0" fill="rgb(112,86,132)"/>
<circle cx="99" cy="145" r="7" fill="rgb(54,29,74)" opacity="0.35"/>
<circle cx="99" cy="145" r="5.0" fill="rgb(54,29,74)"/>
<circle cx="113" cy="145" r="7" fill="rgb(13,5,19)" opacity="0.35"/>
<circle cx="113" cy="145" r="5.0" fill="rgb(13,5,19)"/>
<circle cx="127" cy="145" r="7" fill="rgb(55,30,75)" opacity="0.35"/>
<circle cx="127" cy="145" r="5.0" fill="rgb(55,30,75)"/>
<circle cx="141" cy="145" r="7" fill="rgb(37,17,54)" opacity="0.35"/>
<circle cx="141" cy="145" r="5.0" fill="rgb(37,17,54)"/>
<circle cx="155" cy="145" r="5.0" fill="#14171c"/>
<circle cx="169" cy="145" r="7" fill="rgb(139,122,154)" opacity="0.35"/>
<circle cx="169" cy="145" r="5.0" fill="rgb(139,122,154)"/>
<circle cx="183" cy="145" r="7" fill="rgb(155,145,167)" opacity="0.35"/>
<circle cx="183" cy="145" r="5.0" fill="rgb(155,145,167)"/>
<circle cx="197" cy="145" r="7" fill="rgb(63,36,85)" opacity="0.35"/>
<circle cx="197" cy="145" r="5.0" fill="rgb(63,36,85)"/>
<circle cx="211" cy="145" r="7" fill="rgb(97,67,119)" opacity="0.35"/>
<circle cx="211" cy="145" r="5.0" fill="rgb(97,67,119)"/>
<circle cx="225" cy="145" r="7" fill="rgb(153,141,165)" opacity="0.35"/>
<circle cx="225" cy="145" r="5.0" fill="rgb(153,141,165)"/>
<circle cx="15" cy="159" r="5.0" fill="#14171c"/>
<circle cx="29" cy="159" r="5.0" fill="#14171c"/>
<circle cx="43" cy="159" r="5.0" fill="#14171c"/>
<circle cx="57" cy="159" r="7" fill="rgb(33,14,49)" opacity="0.35"/>
<circle cx="57" cy="159" r="5.0" fill="rgb(33,14,49)"/>
<circle cx="71" cy="159" r="7" fill="rgb(39,12,56)" opacity="0.35"/>
<circle cx="71" cy="159" r="5.0" fill="rgb(39,12,56)"/>
<circle cx="85" cy="159" r="7" fill="rgb(59,33,80)" opacity="0.35"/>
<circle cx="85" cy="159" r="5.0" fill="rgb(59,33,80)"/>
<circle cx="99" cy="159" r="7" fill="rgb(111,85,131)" opacity="0.35"/>
<circle cx="99" cy="159" r="5.0" fill="rgb(111,85,131)"/>
<circle cx="113" cy="159" r="7" fill="rgb(81,50,104)" opacity="0.35"/>
<circle cx="113" cy="159" r="5.0" fill="rgb(81,50,104)"/>
<circle cx="127" cy="159" r="7" fill="rgb(54,29,74)" opacity="0.35"/>
<circle cx="127" cy="159" r="5.0" fill="rgb(54,29,74)"/>
<circle cx="141" cy="159" r="7" fill="rgb(56,31,76)" opacity="0.35"/>
<circle cx="141" cy="159" r="5.0" fill="rgb(56,31,76)"/>
<circle cx="155" cy="159" r="7" fill="rgb(41,19,58)" opacity="0.35"/>
<circle cx="155" cy="159" r="5.0" fill="rgb(41,19,58)"/>
<circle cx="169" cy="159" r="7" fill="rgb(21,4,31)" opacity="0.35"/>
<circle cx="169" cy="159" r="5.0" fill="rgb(21,4,31)"/>
<circle cx="183" cy="159" r="7" fill="rgb(36,16,52)" opacity="0.35"/>
<circle cx="183" cy="159" r="5.0" fill="rgb(36,16,52)"/>
<circle cx="197" cy="159" r="7" fill="rgb(114,90,134)" opacity="0.35"/>
<circle cx="197" cy="159" r="5.0" fill="rgb(114,90,134)"/>
<circle cx="211" cy="159" r="7" fill="rgb(32,13,48)" opacity="0.35"/>
<circle cx="211" cy="159" r="5.0" fill="rgb(32,13,48)"/>
<circle cx="225" cy="159" r="7" fill="rgb(14,5,21)" opacity="0.35"/>
<circle cx="225" cy="159" r="5.0" fill="rgb(14,5,21)"/>
<circle cx="15" cy="173" r="7" fill="rgb(45,22,63)" opacity="0.35"/>
<circle cx="15" cy="173" r="5.0" fill="rgb(45,22,63)"/>
<circle cx="29" cy="173" r="7" fill="rgb(96,66,118)" opacity="0.35"/>
<circle cx="29" cy="173" r="5.0" fill="rgb(96,66,118)"/>
<circle cx="43" cy="173" r="5.0" fill="#14171c"/>
<circle cx="57" cy="173" r="7" fill="rgb(126,104,144)" opacity="0.35"/>
<circle cx="57" cy="173" r="5.0" fill="rgb(126,104,144)"/>
<circle cx="71" cy="173" r="7" fill="rgb(127,105,144)" opacity="0.35"/>
<circle cx="71" cy="173" r="5.0" fill="rgb(127,105,144)"/>
<circle cx="85" cy="173" r="7" fill="rgb(18,6,27)" opacity="0.35"/>
<circle cx="85" cy="173" r="5.0" fill="rgb(18,6,27)"/>
<circle cx="99" cy="173" r="7" fill="rgb(114,89,134)" opacity="0.35"/>
<circle cx="99" cy="173" r="5.0" fill="rgb(114,89,134)"/>
<circle cx="113" cy="173" r="7" fill="rgb(75,45,98)" opacity="0.35"/>
<circle cx="113" cy="173" r="5.0" fill="rgb(75,45,98)"/>
<circle cx="127" cy="173" r="7" fill="rgb(105,78,127)" opacity="0.35"/>
<circle cx="127" cy="173" r="5.0" fill="rgb(105,78,127)"/>
<circle cx="141" cy="173" r="5.0" fill="#14171c"/>
<circle cx="155" cy="173" r="7" fill="rgb(43,21,61)" opacity="0.35"/>
<circle cx="155" cy="173" r="5.0" fill="rgb(43,21,61)"/>
<circle cx="169" cy="173" r="7" fill="rgb(125,104,143)" opacity="0.35"/>
<circle cx="169" cy="173" r="5.0" fill="rgb(125,104,143)"/>
<circle cx="183" cy="173" r="5.0" fill="#14171c"/>
<circle cx="197" cy="173" r="7" fill="rgb(20,7,30)" opacity="0.35"/>
<circle cx="197" cy="173" r="5.0" fill="rgb(20,7,30)"/>
<circle cx="211" cy="173" r="7" fill="rgb(24,9,37)" opacity="0.35"/>
<circle cx="211" cy="173" r="5.0" fill="rgb(24,9,37)"/>
<circle cx="225" cy="173" r="7" fill="rgb(79,49,103)" opacity="0.35"/>
<circle cx="225" cy="173" r="5.0" fill="rgb(79,49,103)"/>
<circle cx="15" cy="187" r="7" fill="rgb(139,121,154)" opacity="0.35"/>
<circle cx="15" cy="187" r="5.0" fill="rgb(139,121,154)"/>
<circle cx="29" cy="187" r="7" fill="rgb(37,16,54)" opacity="0.35"/>
<circle cx="29" cy="187" r="5.0" fill="rgb(37,16,54)"/>
<circle cx="43" cy="187" r="7" fill="rgb(78,48,102)" opacity="0.35"/>
<circle cx="43" cy="187" r="5.0" fill="rgb(78,48,102)"/>
<circle cx="57" cy="187" r="7" fill="rgb(24,9,37)" opacity="0.35"/>
<circle cx="57" cy="187" r="5.0" fill="rgb(24,9,37)"/>
<circle cx="71" cy="187" r="7" fill="rgb(11,4,17)" opacity="0.35"/>
<circle cx="71" cy="187" r="5.0" fill="rgb(11,4,17)"/>
<circle cx="85" cy="187" r="7" fill="rgb(57,31,77)" opacity="0.35"/>
<circle cx="85" cy="187" r="5.0" fill="rgb(57,31,77)"/>
<circle cx="99" cy="187" r="5.0" fill="#14171c"/>
<circle cx="113" cy="187" r="7" fill="rgb(32,13,48)" opacity="0.35"/>
<circle cx="113" cy="187" r="5.0" fill="rgb(32,13,48)"/>
<circle cx="127" cy="187" r="7" fill="rgb(121,97,139)" opacity="0.35"/>
<circle cx="127" cy="187" r="5.0" fill="rgb(121,97,139)"/>
<circle cx="141" cy="187" r="5.0" fill="#14171c"/>
<circle cx="155" cy="187" r="7" fill="rgb(93,63,116)" opacity="0.35"/>
<circle cx="155" cy="187" r="5.0" fill="rgb(93,63,116)"/>
<circle cx="169" cy="187" r="7" fill="rgb(51,26,70)" opacity="0.35"/>
<circle cx="169" cy="187" r="5.0" fill="rgb(51,26,70)"/>
<circle cx="183" cy="187" r="7" fill="rgb(21,8,33)" opacity="0.35"/>
<circle cx="183" cy="187" r="5.0" fill="rgb(21,8,33)"/>
<circle cx="197" cy="187" r="7" fill="rgb(15,6,23)" opacity="0.35"/>
<circle cx="197" cy="187" r="5.0" fill="rgb(15,6,23)"/>
<circle cx="211" cy="187" r="7" fill="rgb(43,21,62)" opacity="0.35"/>
<circle cx="211" cy="187" r="5.0" fill="rgb(43,21,62)"/>
<circle cx="225" cy="187" r="7" fill="rgb(146,131,159)" opacity="0.35"/>
<circle cx="225" cy="187" r="5.0" fill="rgb(146,131,159)"/>
<circle cx="15" cy="201" r="7" fill="rgb(84,53,108)" opacity="0.35"/>
<circle cx="15" cy="201" r="5.0" fill="rgb(84,53,108)"/>
<circle cx="29" cy="201" r="5.0" fill="#14171c"/>
<circle cx="43" cy="201" r="7" fill="rgb(48,24,66)" opacity="0.35"/>
<circle cx="43" cy="201" r="5.0" fill="rgb(48,24,66)"/>
<circle cx="57" cy="201" r="5.0" fill="#14171c"/>
<circle cx="71" cy="201" r="7" fill="rgb(99,70,121)" opacity="0.35"/>
<circle cx="71" cy="201" r="5.0" fill="rgb(99,70,121)"/>
<circle cx="85" cy="201" r="7" fill="rgb(24,9,37)" opacity="0.35"/>
<circle cx="85" cy="201" r="5.0" fill="rgb(24,9,37)"/>
<circle cx="99" cy="201" r="7" fill="rgb(16,6,25)" opacity="0.35"/>
<circle cx="99" cy="201" r="5.0" fill="rgb(16,6,25)"/>
<circle cx="113" cy="201" r="7" fill="rgb(46,23,64)" opacity="0.35"/>
<circle cx="113" cy="201" r="5.0" fill="rgb(46,23,64)"/>
<circle cx="127" cy="201" r="7" fill="rgb(72,43,94)" opacity="0.35"/>
<circle cx="127" cy="201" r="5.0" fill="rgb(72,43,94)"/>
<circle cx="141" cy="201" r="7" fill="rgb(63,36,85)" opacity="0.35"/>
<circle cx="141" cy="201" r="5.0" fill="rgb(63,36,85)"/>
<circle cx="155" cy="201" r="7" fill="rgb(121,98,140)" opacity="0.35"/>
<circle cx="155" cy="201" r="5.0" fill="rgb(121,98,140)"/>
<circle cx="169" cy="201" r="5.0" fill="#14171c"/>
<circle cx="183" cy="201" r="5.0" fill="#14171c"/>
<circle cx="197" cy="201" r="5.0" fill="#14171c"/>
<circle cx="211" cy="201" r="7" fill="rgb(95,65,117)" opacity="0.35"/>
<circle cx="211" cy="201" r="5.0" fill="rgb(95,65,117)"/>
<circle cx="225" cy="201" r="7" fill="rgb(47,16,68)" opacity="0.35"/>
<circle cx="225" cy="201" r="5.0" fill="rgb(47,16,68)"/>
<circle cx="15" cy="215" r="7" fill="rgb(11,4,17)" opacity="0.35"/>
<circle cx="15" cy="215" r="5.0" fill="rgb(11,4,17)"/>
<circle cx="29" cy="215" r="5.0" fill="#14171c"/>
<circle cx="43" cy="215" r="7" fill="rgb(75,45,98)" opacity="0.35"/>
<circle cx="43" cy="215" r="5.0" fill="rgb(75,45,98)"/>
<circle cx="57" cy="215" r="7" fill="rgb(129,109,146)" opacity="0.35"/>
<circle cx="57" cy="215" r="5.0" fill="rgb(129,109,146)"/>
<circle cx="71" cy="215" r="7" fill="rgb(31,13,47)" opacity="0.35"/>
<circle cx="71" cy="215" r="5.0" fill="rgb(31,13,47)"/>
<circle cx="85" cy="215" r="5.0" fill="#14171c"/>
<circle cx="99" cy="215" r="5.0" fill="#14171c"/>
<circle cx="113" cy="215" r="7" fill="rgb(30,12,46)" opacity="0.35"/>
<circle cx="113" cy="215" r="5.0" fill="rgb(30,12,46)"/>
<circle cx="127" cy="215" r="7" fill="rgb(100,72,122)" opacity="0.35"/>
<circle cx="127" cy="215" r="5.0" fill="rgb(100,72,122)"/>
<circle cx="141" cy="215" r="7" fill="rgb(26,9,41)" opacity="0.35"/>
<circle cx="141" cy="215" r="5.0" fill="rgb(26,9,41)"/>
<circle cx="155" cy="215" r="7" fill="rgb(11,4,17)" opacity="0.35"/>
<circle cx="155" cy="215" r="5.0" fill="rgb(11,4,17)"/>
<circle cx="169" cy="215" r="7" fill="rgb(61,35,82)" opacity="0.35"/>
<circle cx="169" cy="215" r="5.0" fill="rgb(61,35,82)"/>
<circle cx="183" cy="215" r="5.0" fill="#14171c"/>
<circle cx="197" cy="215" r="7" fill="rgb(99,70,121)" opacity="0.35"/>
<circle cx="197" cy="215" r="5.0" fill="rgb(99,70,121)"/>
<circle cx="211" cy="215" r="7" fill="rgb(122,99,141)" opacity="0.35"/>
<circle cx="211" cy="215" r="5.0" fill="rgb(122,99,141)"/>
<circle cx="225" cy="215" r="7" fill="rgb(14,1,22)" opacity="0.35"/>
<circle cx="225" cy="215" r="5.0" fill="rgb(14,1,22)"/>
<circle cx="15" cy="229" r="7" fill="rgb(61,34,82)" opacity="0.35"/>
<circle cx="15" cy="229" r="5.0" fill="rgb(61,34,82)"/>
<circle cx="29" cy="229" r="7" fill="rgb(36,16,53)" opacity="0.35"/>
<circle cx="29" cy="229" r="5.0" fill="rgb(36,16,53)"/>
<circle cx="43" cy="229" r="7" fill="rgb(104,76,125)" opacity="0.35"/>
<circle cx="43" cy="229" r="5.0" fill="rgb(104,76,125)"/>
<circle cx="57" cy="229" r="7" fill="rgb(15,5,22)" opacity="0.35"/>
<circle cx="57" cy="229" r="5.0" fill="rgb(15,5,22)"/>
<circle cx="71" cy="229" r="5.0" fill="#14171c"/>
<circle cx="85" cy="229" r="7" fill="rgb(25,9,38)" opacity="0.35"/>
<circle cx="85" cy="229" r="5.0" fill="rgb(25,9,38)"/>
<circle cx="99" cy="229" r="7" fill="rgb(109,82,130)" opacity="0.35"/>
<circle cx="99" cy="229" r="5.0" fill="rgb(109,82,130)"/>
<circle cx="113" cy="229" r="7" fill="rgb(63,36,84)" opacity="0.35"/>
<circle cx="113" cy="229" r="5.0" fill="rgb(63,36,84)"/>
<circle cx="127" cy="229" r="7" fill="rgb(55,30,76)" opacity="0.35"/>
<circle cx="127" cy="229" r="5.0" fill="rgb(55,30,76)"/>
<circle cx="141" cy="229" r="5.0" fill="#14171c"/>
<circle cx="155" cy="229" r="7" fill="rgb(20,7,31)" opacity="0.35"/>
<circle cx="155" cy="229" r="5.0" fill="rgb(20,7,31)"/>
<circle cx="169" cy="229" r="7" fill="rgb(78,48,101)" opacity="0.35"/>
<circle cx="169" cy="229" r="5.0" fill="rgb(78,48,101)"/>
<circle cx="183" cy="229" r="5.0" fill="#14171c"/>
<circle cx="197" cy="229" r="7" fill="rgb(31,12,46)" opacity="0.35"/>
<circle cx="197" cy="229" r="5.0" fill="rgb(31,12,46)"/>
<circle cx="211" cy="229" r="7" fill="rgb(125,104,143)" opacity="0.35"/>
<circle cx="211" cy="229" r="5.0" fill="rgb(125,104,143)"/>
<circle cx="225" cy="229" r="7" fill="rgb(159,149,169)" opacity="0.35"/>
<circle cx="225" cy="229" r="5.0" fill="rgb(159,149,169)"/>
<circle cx="15" cy="243" r="7" fill="rgb(72,43,94)" opacity="0.35"/>
<circle cx="15" cy="243" r="5.0" fill="rgb(72,43,94)"/>
<circle cx="29" cy="243" r="5.0" fill="#14171c"/>
<circle cx="43" cy="243" r="7" fill="rgb(30,12,45)" opacity="0.35"/>
<circle cx="43" cy="243" r="5.0" fill="rgb(30,12,45)"/>
<circle cx="57" cy="243" r="5.0" fill="#14171c"/>
<circle cx="71" cy="243" r="7" fill="rgb(28,10,43)" opacity="0.35"/>
<circle cx="71" cy="243" r="5.0" fill="rgb(28,10,43)"/>
<circle cx="85" cy="243" r="7" fill="rgb(118,93,137)" opacity="0.35"/>
<circle cx="85" cy="243" r="5.0" fill="rgb(118,93,137)"/>
<circle cx="99" cy="243" r="5.0" fill="#14171c"/>
<circle cx="113" cy="243" r="5.0" fill="#14171c"/>
<circle cx="127" cy="243" r="5.0" fill="#14171c"/>
<circle cx="141" cy="243" r="7" fill="rgb(28,10,43)" opacity="0.35"/>
<circle cx="141" cy="243" r="5.0" fill="rgb(28,10,43)"/>
<circle cx="155" cy="243" r="7" fill="rgb(78,48,102)" opacity="0.35"/>
<circle cx="155" cy="243" r="5.0" fill="rgb(78,48,102)"/>
<circle cx="169" cy="243" r="7" fill="rgb(66,39,88)" opacity="0.35"/>
<circle cx="169" cy="243" r="5.0" fill="rgb(66,39,88)"/>
<circle cx="183" cy="243" r="7" fill="rgb(112,86,132)" opacity="0.35"/>
<circle cx="183" cy="243" r="5.0" fill="rgb(112,86,132)"/>
<circle cx="197" cy="243" r="7" fill="rgb(45,22,64)" opacity="0.35"/>
<circle cx="197" cy="243" r="5.0" fill="rgb(45,22,64)"/>
<circle cx="211" cy="243" r="5.0" fill="#14171c"/>
<circle cx="225" cy="243" r="5.0" fill="#14171c"/>
<circle cx="15" cy="257" r="7" fill="rgb(85,54,109)" opacity="0.35"/>
<circle cx="15" cy="257" r="5.0" fill="rgb(85,54,109)"/>
<circle cx="29" cy="257" r="7" fill="rgb(30,12,45)" opacity="0.35"/>
<circle cx="29" cy="257" r="5.0" fill="rgb(30,12,45)"/>
<circle cx="43" cy="257" r="7" fill="rgb(80,49,103)" opacity="0.35"/>
<circle cx="43" cy="257" r="5.0" fill="rgb(80,49,103)"/>
<circle cx="57" cy="257" r="7" fill="rgb(19,7,29)" opacity="0.35"/>
<circle cx="57" cy="257" r="5.0" fill="rgb(19,7,29)"/>
<circle cx="71" cy="257" r="7" fill="rgb(57,31,78)" opacity="0.35"/>
<circle cx="71" cy="257" r="5.0" fill="rgb(57,31,78)"/>
<circle cx="85" cy="257" r="5.0" fill="#14171c"/>
<circle cx="99" cy="257" r="5.0" fill="#14171c"/>
<circle cx="113" cy="257" r="7" fill="rgb(15,5,22)" opacity="0.35"/>
<circle cx="113" cy="257" r="5.0" fill="rgb(15,5,22)"/>
<circle cx="127" cy="257" r="7" fill="rgb(16,6,24)" opacity="0.35"/>
<circle cx="127" cy="257" r="5.0" fill="rgb(16,6,24)"/>
<circle cx="141" cy="257" r="7" fill="rgb(101,72,123)" opacity="0.35"/>
<circle cx="141" cy="257" r="5.0" fill="rgb(101,72,123)"/>
<circle cx="155" cy="257" r="7" fill="rgb(81,51,105)" opacity="0.35"/>
<circle cx="155" cy="257" r="5.0" fill="rgb(81,51,105)"/>
<circle cx="169" cy="257" r="7" fill="rgb(40,19,58)" opacity="0.35"/>
<circle cx="169" cy="257" r="5.0" fill="rgb(40,19,58)"/>
<circle cx="183" cy="257" r="5.0" fill="#14171c"/>
<circle cx="197" cy="257" r="7" fill="rgb(44,22,63)" opacity="0.35"/>
<circle cx="197" cy="257" r="5.0" fill="rgb(44,22,63)"/>
<circle cx="211" cy="257" r="5.0" fill="#14171c"/>
<circle cx="225" cy="257" r="5.0" fill="#14171c"/>
<circle cx="-2" cy="280" r="9" fill="#9aa0a6" opacity="0.25"/>
<circle cx="-2" cy="280" r="6" fill="#9aa0a6" stroke="#0d0f12" stroke-width="1.5"/>
<text x="10" y="284" font-family="'JetBrains Mono','Cascadia Mono','Consolas',monospace" font-size="12" fill="#a0a0a0">Treble</text>
<circle cx="242" cy="280" r="9" fill="#5ad1ff" opacity="0.25"/>
<circle cx="242" cy="280" r="6" fill="#5ad1ff" stroke="#0d0f12" stroke-width="1.5"/>
<text x="230" y="284" text-anchor="end" font-family="'JetBrains Mono','Cascadia Mono','Consolas',monospace" font-size="12" fill="#a0a0a0">Frame</text>
<circle cx="-2" cy="308" r="9" fill="#9aa0a6" opacity="0.25"/>
<circle cx="-2" cy="308" r="6" fill="#9aa0a6" stroke="#0d0f12" stroke-width="1.5"/>
<text x="10" y="312" font-family="'JetBrains Mono','Cascadia Mono','Consolas',monospace" font-size="12" fill="#a0a0a0">Mids</text>
<circle cx="-2" cy="336" r="9" fill="#9aa0a6" opacity="0.25"/>
<circle cx="-2" cy="336" r="6" fill="#9aa0a6" stroke="#0d0f12" stroke-width="1.5"/>
<text x="10" y="340" font-family="'JetBrains Mono','Cascadia Mono','Consolas',monospace" font-size="12" fill="#a0a0a0">Hi-Hat</text>
<circle cx="-2" cy="364" r="9" fill="#9aa0a6" opacity="0.25"/>
<circle cx="-2" cy="364" r="6" fill="#9aa0a6" stroke="#0d0f12" stroke-width="1.5"/>
<text x="10" y="368" font-family="'JetBrains Mono','Cascadia Mono','Consolas',monospace" font-size="12" fill="#a0a0a0">Energy</text>
<circle cx="-2" cy="392" r="9" fill="#9aa0a6" opacity="0.25"/>
<circle cx="-2" cy="392" r="6" fill="#9aa0a6" stroke="#0d0f12" stroke-width="1.5"/>
<text x="10" y="396" font-family="'JetBrains Mono','Cascadia Mono','Consolas',monospace" font-size="12" fill="#a0a0a0">Speed</text>
<circle cx="-2" cy="420" r="9" fill="#ff5cf0" opacity="0.25"/>
<circle cx="-2" cy="420" r="6" fill="#ff5cf0" stroke="#0d0f12" stroke-width="1.5"/>
<text x="10" y="424" font-family="'JetBrains Mono','Cascadia Mono','Consolas',monospace" font-size="12" fill="#a0a0a0">Palette</text>
<line x1="8" y1="440" x2="232" y2="440" stroke="rgba(255,255,255,0.08)"/>
<text x="8" y="460" font-family="'JetBrains Mono','Cascadia Mono','Consolas',monospace" font-size="12" fill="#a0a0a0">energy</text>
<g>
<rect x="120" y="454" width="72" height="4" rx="2" fill="#cfd2d6" opacity="0.85"/>
<rect x="120" y="454" width="50.4" height="4" rx="2" fill="#d633ff"/>
<circle cx="170.4" cy="456" r="5" fill="#d633ff"/>
<text x="232" y="460" text-anchor="end" font-family="'JetBrains Mono','Cascadia Mono','Consolas',monospace" font-size="12" fill="#e0e0e0">0.7</text>
</g>
<text x="8" y="481" font-family="'JetBrains Mono','Cascadia Mono','Consolas',monospace" font-size="12" fill="#a0a0a0">speed</text>
<g>
<rect x="120" y="475" width="72" height="4" rx="2" fill="#cfd2d6" opacity="0.85"/>
<rect x="120" y="475" width="72.0" height="4" rx="2" fill="#d633ff"/>
<circle cx="192.0" cy="477" r="5" fill="#d633ff"/>
<text x="232" y="481" text-anchor="end" font-family="'JetBrains Mono','Cascadia Mono','Consolas',monospace" font-size="12" fill="#e0e0e0">1</text>
</g>
<text x="8" y="502" font-family="'JetBrains Mono','Cascadia Mono','Consolas',monospace" font-size="12" fill="#a0a0a0">palette</text>
<g>
<rect x="148" y="490" width="84" height="16" rx="4" fill="#0d0f12" stroke="rgba(255,255,255,0.12)"/>
<text x="152" y="502" font-family="'JetBrains Mono','Cascadia Mono','Consolas',monospace" font-size="11" fill="#e0e0e0">amethyst</text>
<text x="228" y="502" text-anchor="end" font-size="8" fill="#a0a0a0">▾</text>
</g>
<text x="8" y="523" font-family="'JetBrains Mono','Cascadia Mono','Consolas',monospace" font-size="12" fill="#a0a0a0">clamp inputs</text>
<g>
<rect x="220" y="513" width="12" height="12" rx="3" fill="#0d0f12" stroke="rgba(255,255,255,0.12)"/>
</g>
</g>
</svg>
