<svg xmlns="http://www.w3.org/2000/svg" viewBox="0 0 296 489" width="296" height="489" role="img" aria-label="Radial Burst node">

<defs><filter id="shadow" x="-20%" y="-20%" width="140%" height="160%"><feDropShadow dx="0" dy="8" stdDeviation="9" flood-color="#000" flood-opacity="0.45"/></filter></defs>
<g transform="translate(28,24)">
<rect x="0" y="0" width="240" height="431" rx="8" fill="#1f242b" stroke="rgba(255,255,255,0.12)" filter="url(#shadow)"/>
<rect x="0" y="0" width="240" height="431" rx="8" fill="#1f242b" stroke="rgba(255,255,255,0.12)"/>
<path d="M0,32 L0,8 Q0,0 8,0 L232,0 Q240,0 240,8 L240,32 Z" fill="#33d6ff"/>
<text x="8" y="21" font-family="'Audiowide','Trebuchet MS','Arial Black',sans-serif" font-size="14" font-weight="600" fill="#000">Radial Burst</text>
<rect x="154" y="10" width="25" height="12" rx="6" fill="rgba(0,0,0,0.14)" stroke="rgba(255,255,255,0.14)"/>
<text x="166.5" y="19" text-anchor="middle" font-family="'JetBrains Mono','Cascadia Mono','Consolas',monospace" font-size="8" letter-spacing="0.08em" fill="#000">PAT</text>
<rect x="185" y="10" width="47" height="12" rx="6" fill="rgba(0,0,0,0.14)" stroke="rgba(255,255,255,0.14)"/>
<text x="208.5" y="19" text-anchor="middle" font-family="'JetBrains Mono','Cascadia Mono','Consolas',monospace" font-size="8" letter-spacing="0.08em" fill="#000">RAD-113</text>
<rect x="8" y="40" width="224" height="224" rx="4" fill="#05070a"/>
<circle cx="15" cy="47" r="7" fill="rgb(2,15,34)" opacity="0.35"/>
<circle cx="15" cy="47" r="5.0" fill="rgb(2,15,34)"/>
<circle cx="29" cy="47" r="5.0" fill="#14171c"/>
<circle cx="43" cy="47" r="7" fill="rgb(61,88,97)" opacity="0.35"/>
<circle cx="43" cy="47" r="5.0" fill="rgb(61,88,97)"/>
<circle cx="57" cy="47" r="7" fill="rgb(121,202,229)" opacity="0.35"/>
<circle cx="57" cy="47" r="5.0" fill="rgb(121,202,229)"/>
<circle cx="71" cy="47" r="7" fill="rgb(100,194,226)" opacity="0.35"/>
<circle cx="71" cy="47" r="5.0" fill="rgb(100,194,226)"/>
<circle cx="85" cy="47" r="7" fill="rgb(51,116,137)" opacity="0.35"/>
<circle cx="85" cy="47" r="5.0" fill="rgb(51,116,137)"/>
<circle cx="99" cy="47" r="7" fill="rgb(20,49,59)" opacity="0.35"/>
<circle cx="99" cy="47" r="5.0" fill="rgb(20,49,59)"/>
<circle cx="113" cy="47" r="7" fill="rgb(7,19,23)" opacity="0.35"/>
<circle cx="113" cy="47" r="5.0" fill="rgb(7,19,23)"/>
<circle cx="127" cy="47" r="5.0" fill="#14171c"/>
<circle cx="141" cy="47" r="7" fill="rgb(7,19,23)" opacity="0.35"/>
<circle cx="141" cy="47" r="5.0" fill="rgb(7,19,23)"/>
<circle cx="155" cy="47" r="7" fill="rgb(20,49,59)" opacity="0.35"/>
<circle cx="155" cy="47" r="5.0" fill="rgb(20,49,59)"/>
<circle cx="169" cy="47" r="7" fill="rgb(51,116,137)" opacity="0.35"/>
<circle cx="169" cy="47" r="5.0" fill="rgb(51,116,137)"/>
<circle cx="183" cy="47" r="7" fill="rgb(100,194,226)" opacity="0.35"/>
<circle cx="183" cy="47" r="5.0" fill="rgb(100,194,226)"/>
<circle cx="197" cy="47" r="7" fill="rgb(121,202,229)" opacity="0.35"/>
<circle cx="197" cy="47" r="5.0" fill="rgb(121,202,229)"/>
<circle cx="211" cy="47" r="7" fill="rgb(61,88,97)" opacity="0.35"/>
<circle cx="211" cy="47" r="5.0" fill="rgb(61,88,97)"/>
<circle cx="225" cy="47" r="5.0" fill="#14171c"/>
<circle cx="15" cy="61" r="5.0" fill="#14171c"/>
<circle cx="29" cy="61" r="7" fill="rgb(76,112,125)" opacity="0.35"/>
<circle cx="29" cy="61" r="5.0" fill="rgb(76,112,125)"/>
<circle cx="43" cy="61" r="7" fill="rgb(120,214,245)" opacity="0.35"/>
<circle cx="43" cy="61" r="5.0" fill="rgb(120,214,245)"/>
<circle cx="57" cy="61" r="7" fill="rgb(58,129,153)" opacity="0.35"/>
<circle cx="57" cy="61" r="5.0" fill="rgb(58,129,153)"/>
<circle cx="71" cy="61" r="7" fill="rgb(7,19,23)" opacity="0.35"/>
<circle cx="71" cy="61" r="5.0" fill="rgb(7,19,23)"/>
<circle cx="85" cy="61" r="5.0" fill="#14171c"/>
<circle cx="99" cy="61" r="7" fill="rgb(15,49,63)" opacity="0.35"/>
<circle cx="99" cy="61" r="5.0" fill="rgb(15,49,63)"/>
<circle cx="113" cy="61" r="7" fill="rgb(25,87,113)" opacity="0.35"/>
<circle cx="113" cy="61" r="5.0" fill="rgb(25,87,113)"/>
<circle cx="127" cy="61" r="7" fill="rgb(28,100,130)" opacity="0.35"/>
<circle cx="127" cy="61" r="5.0" fill="rgb(28,100,130)"/>
<circle cx="141" cy="61" r="7" fill="rgb(25,87,113)" opacity="0.35"/>
<circle cx="141" cy="61" r="5.0" fill="rgb(25,87,113)"/>
<circle cx="155" cy="61" r="7" fill="rgb(15,49,63)" opacity="0.35"/>
<circle cx="155" cy="61" r="5.0" fill="rgb(15,49,63)"/>
<circle cx="169" cy="61" r="5.0" fill="#14171c"/>
<circle cx="183" cy="61" r="7" fill="rgb(7,19,23)" opacity="0.35"/>
<circle cx="183" cy="61" r="5.0" fill="rgb(7,19,23)"/>
<circle cx="197" cy="61" r="7" fill="rgb(58,129,153)" opacity="0.35"/>
<circle cx="197" cy="61" r="5.0" fill="rgb(58,129,153)"/>
<circle cx="211" cy="61" r="7" fill="rgb(120,214,245)" opacity="0.35"/>
<circle cx="211" cy="61" r="5.0" fill="rgb(120,214,245)"/>
<circle cx="225" cy="61" r="7" fill="rgb(76,112,125)" opacity="0.35"/>
<circle cx="225" cy="61" r="5.0" fill="rgb(76,112,125)"/>
<circle cx="15" cy="75" r="7" fill="rgb(61,88,97)" opacity="0.35"/>
<circle cx="15" cy="75" r="5.0" fill="rgb(61,88,97)"/>
<circle cx="29" cy="75" r="7" fill="rgb(120,214,245)" opacity="0.35"/>
<circle cx="29" cy="75" r="5.0" fill="rgb(120,214,245)"/>
<circle cx="43" cy="75" r="7" fill="rgb(44,102,121)" opacity="0.35"/>
<circle cx="43" cy="75" r="5.0" fill="rgb(44,102,121)"/>
<circle cx="57" cy="75" r="5.0" fill="#14171c"/>
<circle cx="71" cy="75" r="7" fill="rgb(19,61,79)" opacity="0.35"/>
<circle cx="71" cy="75" r="5.0" fill="rgb(19,61,79)"/>
<circle cx="85" cy="75" r="7" fill="rgb(35,143,191)" opacity="0.35"/>
<circle cx="85" cy="75" r="5.0" fill="rgb(35,143,191)"/>
<circle cx="99" cy="75" r="7" fill="rgb(31,158,218)" opacity="0.35"/>
<circle cx="99" cy="75" r="5.0" fill="rgb(31,158,218)"/>
<circle cx="113" cy="75" r="7" fill="rgb(23,139,195)" opacity="0.35"/>
<circle cx="113" cy="75" r="5.0" fill="rgb(23,139,195)"/>
<circle cx="127" cy="75" r="7" fill="rgb(19,128,181)" opacity="0.35"/>
<circle cx="127" cy="75" r="5.0" fill="rgb(19,128,181)"/>
<circle cx="141" cy="75" r="7" fill="rgb(23,139,195)" opacity="0.35"/>
<circle cx="141" cy="75" r="5.0" fill="rgb(23,139,195)"/>
<circle cx="155" cy="75" r="7" fill="rgb(31,158,218)" opacity="0.35"/>
<circle cx="155" cy="75" r="5.0" fill="rgb(31,158,218)"/>
<circle cx="169" cy="75" r="7" fill="rgb(35,143,191)" opacity="0.35"/>
<circle cx="169" cy="75" r="5.0" fill="rgb(35,143,191)"/>
<circle cx="183" cy="75" r="7" fill="rgb(19,61,79)" opacity="0.35"/>
<circle cx="183" cy="75" r="5.0" fill="rgb(19,61,79)"/>
<circle cx="197" cy="75" r="5.0" fill="#14171c"/>
<circle cx="211" cy="75" r="7" fill="rgb(44,102,121)" opacity="0.35"/>
<circle cx="211" cy="75" r="5.0" fill="rgb(44,102,121)"/>
<circle cx="225" cy="75" r="7" fill="rgb(120,214,245)" opacity="0.35"/>
<circle cx="225" cy="75" r="5.0" fill="rgb(120,214,245)"/>
<circle cx="15" cy="89" r="7" fill="rgb(121,202,229)" opacity="0.35"/>
<circle cx="15" cy="89" r="5.0" fill="rgb(121,202,229)"/>
<circle cx="29" cy="89" r="7" fill="rgb(58,129,153)" opacity="0.35"/>
<circle cx="29" cy="89" r="5.0" fill="rgb(58,129,153)"/>
<circle cx="43" cy="89" r="5.0" fill="#14171c"/>
<circle cx="57" cy="89" r="7" fill="rgb(25,87,113)" opacity="0.35"/>
<circle cx="57" cy="89" r="5.0" fill="rgb(25,87,113)"/>
<circle cx="71" cy="89" r="7" fill="rgb(33,160,218)" opacity="0.35"/>
<circle cx="71" cy="89" r="5.0" fill="rgb(33,160,218)"/>
<circle cx="85" cy="89" r="7" fill="rgb(12,102,146)" opacity="0.35"/>
<circle cx="85" cy="89" r="5.0" fill="rgb(12,102,146)"/>
<circle cx="99" cy="89" r="7" fill="rgb(3,30,44)" opacity="0.35"/>
<circle cx="99" cy="89" r="5.0" fill="rgb(3,30,44)"/>
<circle cx="113" cy="89" r="5.0" fill="#14171c"/>
<circle cx="127" cy="89" r="5.0" fill="#14171c"/>
<circle cx="141" cy="89" r="5.0" fill="#14171c"/>
<circle cx="155" cy="89" r="7" fill="rgb(3,30,44)" opacity="0.35"/>
<circle cx="155" cy="89" r="5.0" fill="rgb(3,30,44)"/>
<circle cx="169" cy="89" r="7" fill="rgb(12,102,146)" opacity="0.35"/>
<circle cx="169" cy="89" r="5.0" fill="rgb(12,102,146)"/>
<circle cx="183" cy="89" r="7" fill="rgb(33,160,218)" opacity="0.35"/>
<circle cx="183" cy="89" r="5.0" fill="rgb(33,160,218)"/>
<circle cx="197" cy="89" r="7" fill="rgb(25,87,113)" opacity="0.35"/>
<circle cx="197" cy="89" r="5.0" fill="rgb(25,87,113)"/>
<circle cx="211" cy="89" r="5.0" fill="#14171c"/>
<circle cx="225" cy="89" r="7" fill="rgb(58,129,153)" opacity="0.35"/>
<circle cx="225" cy="89" r="5.0" fill="rgb(58,129,153)"/>
<circle cx="15" cy="103" r="7" fill="rgb(100,194,226)" opacity="0.35"/>
<circle cx="15" cy="103" r="5.0" fill="rgb(100,194,226)"/>
<circle cx="29" cy="103" r="7" fill="rgb(7,19,23)" opacity="0.35"/>
<circle cx="29" cy="103" r="5.0" fill="rgb(7,19,23)"/>
<circle cx="43" cy="103" r="7" fill="rgb(19,61,79)" opacity="0.35"/>
<circle cx="43" cy="103" r="5.0" fill="rgb(19,61,79)"/>
<circle cx="57" cy="103" r="7" fill="rgb(33,160,218)" opacity="0.35"/>
<circle cx="57" cy="103" r="5.0" fill="rgb(33,160,218)"/>
<circle cx="71" cy="103" r="7" fill="rgb(7,72,105)" opacity="0.35"/>
<circle cx="71" cy="103" r="5.0" fill="rgb(7,72,105)"/>
<circle cx="85" cy="103" r="5.0" fill="#14171c"/>
<circle cx="99" cy="103" r="7" fill="rgb(3,30,49)" opacity="0.35"/>
<circle cx="99" cy="103" r="5.0" fill="rgb(3,30,49)"/>
<circle cx="113" cy="103" r="7" fill="rgb(8,68,116)" opacity="0.35"/>
<circle cx="113" cy="103" r="5.0" fill="rgb(8,68,116)"/>
<circle cx="127" cy="103" r="7" fill="rgb(9,79,138)" opacity="0.35"/>
<circle cx="127" cy="103" r="5.0" fill="rgb(9,79,138)"/>
<circle cx="141" cy="103" r="7" fill="rgb(8,68,116)" opacity="0.35"/>
<circle cx="141" cy="103" r="5.0" fill="rgb(8,68,116)"/>
<circle cx="155" cy="103" r="7" fill="rgb(3,30,49)" opacity="0.35"/>
<circle cx="155" cy="103" r="5.0" fill="rgb(3,30,49)"/>
<circle cx="169" cy="103" r="5.0" fill="#14171c"/>
<circle cx="183" cy="103" r="7" fill="rgb(7,72,105)" opacity="0.35"/>
<circle cx="183" cy="103" r="5.0" fill="rgb(7,72,105)"/>
<circle cx="197" cy="103" r="7" fill="rgb(33,160,218)" opacity="0.35"/>
<circle cx="197" cy="103" r="5.0" fill="rgb(33,160,218)"/>
<circle cx="211" cy="103" r="7" fill="rgb(19,61,79)" opacity="0.35"/>
<circle cx="211" cy="103" r="5.0" fill="rgb(19,61,79)"/>
<circle cx="225" cy="103" r="7" fill="rgb(7,19,23)" opacity="0.35"/>
<circle cx="225" cy="103" r="5.0" fill="rgb(7,19,23)"/>
<circle cx="15" cy="117" r="7" fill="rgb(51,116,137)" opacity="0.35"/>
<circle cx="15" cy="117" r="5.0" fill="rgb(51,116,137)"/>
<circle cx="29" cy="117" r="5.0" fill="#14171c"/>
<circle cx="43" cy="117" r="7" fill="rgb(35,143,191)" opacity="0.35"/>
<circle cx="43" cy="117" r="5.0" fill="rgb(35,143,191)"/>
<circle cx="57" cy="117" r="7" fill="rgb(12,102,146)" opacity="0.35"/>
<circle cx="57" cy="117" r="5.0" fill="rgb(12,102,146)"/>
<circle cx="71" cy="117" r="5.0" fill="#14171c"/>
<circle cx="85" cy="117" r="7" fill="rgb(6,55,93)" opacity="0.35"/>
<circle cx="85" cy="117" r="5.0" fill="rgb(6,55,93)"/>
<circle cx="99" cy="117" r="7" fill="rgb(11,94,174)" opacity="0.35"/>
<circle cx="99" cy="117" r="5.0" fill="rgb(11,94,174)"/>
<circle cx="113" cy="117" r="7" fill="rgb(8,71,141)" opacity="0.35"/>
<circle cx="113" cy="117" r="5.0" fill="rgb(8,71,141)"/>
<circle cx="127" cy="117" r="7" fill="rgb(7,56,113)" opacity="0.35"/>
<circle cx="127" cy="117" r="5.0" fill="rgb(7,56,113)"/>
<circle cx="141" cy="117" r="7" fill="rgb(8,71,141)" opacity="0.35"/>
<circle cx="141" cy="117" r="5.0" fill="rgb(8,71,141)"/>
<circle cx="155" cy="117" r="7" fill="rgb(11,94,174)" opacity="0.35"/>
<circle cx="155" cy="117" r="5.0" fill="rgb(11,94,174)"/>
<circle cx="169" cy="117" r="7" fill="rgb(6,55,93)" opacity="0.35"/>
<circle cx="169" cy="117" r="5.0" fill="rgb(6,55,93)"/>
<circle cx="183" cy="117" r="5.0" fill="#14171c"/>
<circle cx="197" cy="117" r="7" fill="rgb(12,102,146)" opacity="0.35"/>
<circle cx="197" cy="117" r="5.0" fill="rgb(12,102,146)"/>
<circle cx="211" cy="117" r="7" fill="rgb(35,143,191)" opacity="0.35"/>
<circle cx="211" cy="117" r="5.0" fill="rgb(35,143,191)"/>
<circle cx="225" cy="117" r="5.0" fill="#14171c"/>
<circle cx="15" cy="131" r="7" fill="rgb(20,49,59)" opacity="0.35"/>
<circle cx="15" cy="131" r="5.0" fill="rgb(20,49,59)"/>
<circle cx="29" cy="131" r="7" fill="rgb(15,49,63)" opacity="0.35"/>
<circle cx="29" cy="131" r="5.0" fill="rgb(15,49,63)"/>
<circle cx="43" cy="131" r="7" fill="rgb(31,158,218)" opacity="0.35"/>
<circle cx="43" cy="131" r="5.0" fill="rgb(31,158,218)"/>
<circle cx="57" cy="131" r="7" fill="rgb(3,30,44)" opacity="0.35"/>
<circle cx="57" cy="131" r="5.0" fill="rgb(3,30,44)"/>
<circle cx="71" cy="131" r="7" fill="rgb(3,30,49)" opacity="0.35"/>
<circle cx="71" cy="131" r="5.0" fill="rgb(3,30,49)"/>
<circle cx="85" cy="131" r="7" fill="rgb(11,94,174)" opacity="0.35"/>
<circle cx="85" cy="131" r="5.0" fill="rgb(11,94,174)"/>
<circle cx="99" cy="131" r="7" fill="rgb(5,39,81)" opacity="0.35"/>
<circle cx="99" cy="131" r="5.0" fill="rgb(5,39,81)"/>
<circle cx="113" cy="131" r="5.0" fill="#14171c"/>
<circle cx="127" cy="131" r="5.0" fill="#14171c"/>
<circle cx="141" cy="131" r="5.0" fill="#14171c"/>
<circle cx="155" cy="131" r="7" fill="rgb(5,39,81)" opacity="0.35"/>
<circle cx="155" cy="131" r="5.0" fill="rgb(5,39,81)"/>
<circle cx="169" cy="131" r="7" fill="rgb(11,94,174)" opacity="0.35"/>
<circle cx="169" cy="131" r="5.0" fill="rgb(11,94,174)"/>
<circle cx="183" cy="131" r="7" fill="rgb(3,30,49)" opacity="0.35"/>
<circle cx="183" cy="131" r="5.0" fill="rgb(3,30,49)"/>
<circle cx="197" cy="131" r="7" fill="rgb(3,30,44)" opacity="0.35"/>
<circle cx="197" cy="131" r="5.0" fill="rgb(3,30,44)"/>
<circle cx="211" cy="131" r="7" fill="rgb(31,158,218)" opacity="0.35"/>
<circle cx="211" cy="131" r="5.0" fill="rgb(31,158,218)"/>
<circle cx="225" cy="131" r="7" fill="rgb(15,49,63)" opacity="0.35"/>
<circle cx="225" cy="131" r="5.0" fill="rgb(15,49,63)"/>
<circle cx="15" cy="145" r="7" fill="rgb(7,19,23)" opacity="0.35"/>
<circle cx="15" cy="145" r="5.0" fill="rgb(7,19,23)"/>
<circle cx="29" cy="145" r="7" fill="rgb(25,87,113)" opacity="0.35"/>
<circle cx="29" cy="145" r="5.0" fill="rgb(25,87,113)"/>
<circle cx="43" cy="145" r="7" fill="rgb(23,139,195)" opacity="0.35"/>
<circle cx="43" cy="145" r="5.0" fill="rgb(23,139,195)"/>
<circle cx="57" cy="145" r="5.0" fill="#14171c"/>
<circle cx="71" cy="145" r="7" fill="rgb(8,68,116)" opacity="0.35"/>
<circle cx="71" cy="145" r="5.0" fill="rgb(8,68,116)"/>
<circle cx="85" cy="145" r="7" fill="rgb(8,71,141)" opacity="0.35"/>
<circle cx="85" cy="145" r="5.0" fill="rgb(8,71,141)"/>
<circle cx="99" cy="145" r="5.0" fill="#14171c"/>
<circle cx="113" cy="145" r="7" fill="rgb(3,26,57)" opacity="0.35"/>
<circle cx="113" cy="145" r="5.0" fill="rgb(3,26,57)"/>
<circle cx="127" cy="145" r="7" fill="rgb(4,41,91)" opacity="0.35"/>
<circle cx="127" cy="145" r="5.0" fill="rgb(4,41,91)"/>
<circle cx="141" cy="145" r="7" fill="rgb(3,26,57)" opacity="0.35"/>
<circle cx="141" cy="145" r="5.0" fill="rgb(3,26,57)"/>
<circle cx="155" cy="145" r="5.0" fill="#14171c"/>
<circle cx="169" cy="145" r="7" fill="rgb(8,71,141)" opacity="0.35"/>
<circle cx="169" cy="145" r="5.0" fill="rgb(8,71,141)"/>
<circle cx="183" cy="145" r="7" fill="rgb(8,68,116)" opacity="0.35"/>
<circle cx="183" cy="145" r="5.0" fill="rgb(8,68,116)"/>
<circle cx="197" cy="145" r="5.0" fill="#14171c"/>
<circle cx="211" cy="145" r="7" fill="rgb(23,139,195)" opacity="0.35"/>
<circle cx="211" cy="145" r="5.0" fill="rgb(23,139,195)"/>
<circle cx="225" cy="145" r="7" fill="rgb(25,87,113)" opacity="0.35"/>
<circle cx="225" cy="145" r="5.0" fill="rgb(25,87,113)"/>
<circle cx="15" cy="159" r="5.0" fill="#14171c"/>
<circle cx="29" cy="159" r="7" fill="rgb(28,100,130)" opacity="0.35"/>
<circle cx="29" cy="159" r="5.0" fill="rgb(28,100,130)"/>
<circle cx="43" cy="159" r="7" fill="rgb(19,128,181)" opacity="0.35"/>
<circle cx="43" cy="159" r="5.0" fill="rgb(19,128,181)"/>
<circle cx="57" cy="159" r="5.0" fill="#14171c"/>
<circle cx="71" cy="159" r="7" fill="rgb(9,79,138)" opacity="0.35"/>
<circle cx="71" cy="159" r="5.0" fill="rgb(9,79,138)"/>
<circle cx="85" cy="159" r="7" fill="rgb(7,56,113)" opacity="0.35"/>
<circle cx="85" cy="159" r="5.0" fill="rgb(7,56,113)"/>
<circle cx="99" cy="159" r="5.0" fill="#14171c"/>
<circle cx="113" cy="159" r="7" fill="rgb(4,41,91)" opacity="0.35"/>
<circle cx="113" cy="159" r="5.0" fill="rgb(4,41,91)"/>
<circle cx="127" cy="159" r="7" fill="rgb(2,15,34)" opacity="0.35"/>
<circle cx="127" cy="159" r="5.0" fill="rgb(2,15,34)"/>
<circle cx="141" cy="159" r="7" fill="rgb(4,41,91)" opacity="0.35"/>
<circle cx="141" cy="159" r="5.0" fill="rgb(4,41,91)"/>
<circle cx="155" cy="159" r="5.0" fill="#14171c"/>
<circle cx="169" cy="159" r="7" fill="rgb(7,56,113)" opacity="0.35"/>
<circle cx="169" cy="159" r="5.0" fill="rgb(7,56,113)"/>
<circle cx="183" cy="159" r="7" fill="rgb(9,79,138)" opacity="0.35"/>
<circle cx="183" cy="159" r="5.0" fill="rgb(9,79,138)"/>
<circle cx="197" cy="159" r="5.0" fill="#14171c"/>
<circle cx="211" cy="159" r="7" fill="rgb(19,128,181)" opacity="0.35"/>
<circle cx="211" cy="159" r="5.0" fill="rgb(19,128,181)"/>
<circle cx="225" cy="159" r="7" fill="rgb(28,100,130)" opacity="0.35"/>
<circle cx="225" cy="159" r="5.0" fill="rgb(28,100,130)"/>
<circle cx="15" cy="173" r="7" fill="rgb(7,19,23)" opacity="0.35"/>
<circle cx="15" cy="173" r="5.0" fill="rgb(7,19,23)"/>
<circle cx="29" cy="173" r="7" fill="rgb(25,87,113)" opacity="0.35"/>
<circle cx="29" cy="173" r="5.0" fill="rgb(25,87,113)"/>
<circle cx="43" cy="173" r="7" fill="rgb(23,139,195)" opacity="0.35"/>
<circle cx="43" cy="173" r="5.0" fill="rgb(23,139,195)"/>
<circle cx="57" cy="173" r="5.0" fill="#14171c"/>
<circle cx="71" cy="173" r="7" fill="rgb(8,68,116)" opacity="0.35"/>
<circle cx="71" cy="173" r="5.0" fill="rgb(8,68,116)"/>
<circle cx="85" cy="173" r="7" fill="rgb(8,71,141)" opacity="0.35"/>
<circle cx="85" cy="173" r="5.0" fill="rgb(8,71,141)"/>
<circle cx="99" cy="173" r="5.0" fill="#14171c"/>
<circle cx="113" cy="173" r="7" fill="rgb(3,26,57)" opacity="0.35"/>
<circle cx="113" cy="173" r="5.0" fill="rgb(3,26,57)"/>
<circle cx="127" cy="173" r="7" fill="rgb(4,41,91)" opacity="0.35"/>
<circle cx="127" cy="173" r="5.0" fill="rgb(4,41,91)"/>
<circle cx="141" cy="173" r="7" fill="rgb(3,26,57)" opacity="0.35"/>
<circle cx="141" cy="173" r="5.0" fill="rgb(3,26,57)"/>
<circle cx="155" cy="173" r="5.0" fill="#14171c"/>
<circle cx="169" cy="173" r="7" fill="rgb(8,71,141)" opacity="0.35"/>
<circle cx="169" cy="173" r="5.0" fill="rgb(8,71,141)"/>
<circle cx="183" cy="173" r="7" fill="rgb(8,68,116)" opacity="0.35"/>
<circle cx="183" cy="173" r="5.0" fill="rgb(8,68,116)"/>
<circle cx="197" cy="173" r="5.0" fill="#14171c"/>
<circle cx="211" cy="173" r="7" fill="rgb(23,139,195)" opacity="0.35"/>
<circle cx="211" cy="173" r="5.0" fill="rgb(23,139,195)"/>
<circle cx="225" cy="173" r="7" fill="rgb(25,87,113)" opacity="0.35"/>
<circle cx="225" cy="173" r="5.0" fill="rgb(25,87,113)"/>
<circle cx="15" cy="187" r="7" fill="rgb(20,49,59)" opacity="0.35"/>
<circle cx="15" cy="187" r="5.0" fill="rgb(20,49,59)"/>
<circle cx="29" cy="187" r="7" fill="rgb(15,49,63)" opacity="0.35"/>
<circle cx="29" cy="187" r="5.0" fill="rgb(15,49,63)"/>
<circle cx="43" cy="187" r="7" fill="rgb(31,158,218)" opacity="0.35"/>
<circle cx="43" cy="187" r="5.0" fill="rgb(31,158,218)"/>
<circle cx="57" cy="187" r="7" fill="rgb(3,30,44)" opacity="0.35"/>
<circle cx="57" cy="187" r="5.0" fill="rgb(3,30,44)"/>
<circle cx="71" cy="187" r="7" fill="rgb(3,30,49)" opacity="0.35"/>
<circle cx="71" cy="187" r="5.0" fill="rgb(3,30,49)"/>
<circle cx="85" cy="187" r="7" fill="rgb(11,94,174)" opacity="0.35"/>
<circle cx="85" cy="187" r="5.0" fill="rgb(11,94,174)"/>
<circle cx="99" cy="187" r="7" fill="rgb(5,39,81)" opacity="0.35"/>
<circle cx="99" cy="187" r="5.0" fill="rgb(5,39,81)"/>
<circle cx="113" cy="187" r="5.0" fill="#14171c"/>
<circle cx="127" cy="187" r="5.0" fill="#14171c"/>
<circle cx="141" cy="187" r="5.0" fill="#14171c"/>
<circle cx="155" cy="187" r="7" fill="rgb(5,39,81)" opacity="0.35"/>
<circle cx="155" cy="187" r="5.0" fill="rgb(5,39,81)"/>
<circle cx="169" cy="187" r="7" fill="rgb(11,94,174)" opacity="0.35"/>
<circle cx="169" cy="187" r="5.0" fill="rgb(11,94,174)"/>
<circle cx="183" cy="187" r="7" fill="rgb(3,30,49)" opacity="0.35"/>
<circle cx="183" cy="187" r="5.0" fill="rgb(3,30,49)"/>
<circle cx="197" cy="187" r="7" fill="rgb(3,30,44)" opacity="0.35"/>
<circle cx="197" cy="187" r="5.0" fill="rgb(3,30,44)"/>
<circle cx="211" cy="187" r="7" fill="rgb(31,158,218)" opacity="0.35"/>
<circle cx="211" cy="187" r="5.0" fill="rgb(31,158,218)"/>
<circle cx="225" cy="187" r="7" fill="rgb(15,49,63)" opacity="0.35"/>
<circle cx="225" cy="187" r="5.0" fill="rgb(15,49,63)"/>
<circle cx="15" cy="201" r="7" fill="rgb(51,116,137)" opacity="0.35"/>
<circle cx="15" cy="201" r="5.0" fill="rgb(51,116,137)"/>
<circle cx="29" cy="201" r="5.0" fill="#14171c"/>
<circle cx="43" cy="201" r="7" fill="rgb(35,143,191)" opacity="0.35"/>
<circle cx="43" cy="201" r="5.0" fill="rgb(35,143,191)"/>
<circle cx="57" cy="201" r="7" fill="rgb(12,102,146)" opacity="0.35"/>
<circle cx="57" cy="201" r="5.0" fill="rgb(12,102,146)"/>
<circle cx="71" cy="201" r="5.0" fill="#14171c"/>
<circle cx="85" cy="201" r="7" fill="rgb(6,55,93)" opacity="0.35"/>
<circle cx="85" cy="201" r="5.0" fill="rgb(6,55,93)"/>
<circle cx="99" cy="201" r="7" fill="rgb(11,94,174)" opacity="0.35"/>
<circle cx="99" cy="201" r="5.0" fill="rgb(11,94,174)"/>
<circle cx="113" cy="201" r="7" fill="rgb(8,71,141)" opacity="0.35"/>
<circle cx="113" cy="201" r="5.0" fill="rgb(8,71,141)"/>
<circle cx="127" cy="201" r="7" fill="rgb(7,56,113)" opacity="0.35"/>
<circle cx="127" cy="201" r="5.0" fill="rgb(7,56,113)"/>
<circle cx="141" cy="201" r="7" fill="rgb(8,71,141)" opacity="0.35"/>
<circle cx="141" cy="201" r="5.0" fill="rgb(8,71,141)"/>
<circle cx="155" cy="201" r="7" fill="rgb(11,94,174)" opacity="0.35"/>
<circle cx="155" cy="201" r="5.0" fill="rgb(11,94,174)"/>
<circle cx="169" cy="201" r="7" fill="rgb(6,55,93)" opacity="0.35"/>
<circle cx="169" cy="201" r="5.0" fill="rgb(6,55,93)"/>
<circle cx="183" cy="201" r="5.0" fill="#14171c"/>
<circle cx="197" cy="201" r="7" fill="rgb(12,102,146)" opacity="0.35"/>
<circle cx="197" cy="201" r="5.0" fill="rgb(12,102,146)"/>
<circle cx="211" cy="201" r="7" fill="rgb(35,143,191)" opacity="0.35"/>
<circle cx="211" cy="201" r="5.0" fill="rgb(35,143,191)"/>
<circle cx="225" cy="201" r="5.0" fill="#14171c"/>
<circle cx="15" cy="215" r="7" fill="rgb(100,194,226)" opacity="0.35"/>
<circle cx="15" cy="215" r="5.0" fill="rgb(100,194,226)"/>
<circle cx="29" cy="215" r="7" fill="rgb(7,19,23)" opacity="0.35"/>
<circle cx="29" cy="215" r="5.0" fill="rgb(7,19,23)"/>
<circle cx="43" cy="215" r="7" fill="rgb(19,61,79)" opacity="0.35"/>
<circle cx="43" cy="215" r="5.0" fill="rgb(19,61,79)"/>
<circle cx="57" cy="215" r="7" fill="rgb(33,160,218)" opacity="0.35"/>
<circle cx="57" cy="215" r="5.0" fill="rgb(33,160,218)"/>
<circle cx="71" cy="215" r="7" fill="rgb(7,72,105)" opacity="0.35"/>
<circle cx="71" cy="215" r="5.0" fill="rgb(7,72,105)"/>
<circle cx="85" cy="215" r="5.0" fill="#14171c"/>
<circle cx="99" cy="215" r="7" fill="rgb(3,30,49)" opacity="0.35"/>
<circle cx="99" cy="215" r="5.0" fill="rgb(3,30,49)"/>
<circle cx="113" cy="215" r="7" fill="rgb(8,68,116)" opacity="0.35"/>
<circle cx="113" cy="215" r="5.0" fill="rgb(8,68,116)"/>
<circle cx="127" cy="215" r="7" fill="rgb(9,79,138)" opacity="0.35"/>
<circle cx="127" cy="215" r="5.0" fill="rgb(9,79,138)"/>
<circle cx="141" cy="215" r="7" fill="rgb(8,68,116)" opacity="0.35"/>
<circle cx="141" cy="215" r="5.0" fill="rgb(8,68,116)"/>
<circle cx="155" cy="215" r="7" fill="rgb(3,30,49)" opacity="0.35"/>
<circle cx="155" cy="215" r="5.0" fill="rgb(3,30,49)"/>
<circle cx="169" cy="215" r="5.0" fill="#14171c"/>
<circle cx="183" cy="215" r="7" fill="rgb(7,72,105)" opacity="0.35"/>
<circle cx="183" cy="215" r="5.0" fill="rgb(7,72,105)"/>
<circle cx="197" cy="215" r="7" fill="rgb(33,160,218)" opacity="0.35"/>
<circle cx="197" cy="215" r="5.0" fill="rgb(33,160,218)"/>
<circle cx="211" cy="215" r="7" fill="rgb(19,61,79)" opacity="0.35"/>
<circle cx="211" cy="215" r="5.0" fill="rgb(19,61,79)"/>
<circle cx="225" cy="215" r="7" fill="rgb(7,19,23)" opacity="0.35"/>
<circle cx="225" cy="215" r="5.0" fill="rgb(7,19,23)"/>
<circle cx="15" cy="229" r="7" fill="rgb(121,202,229)" opacity="0.35"/>
<circle cx="15" cy="229" r="5.0" fill="rgb(121,202,229)"/>
<circle cx="29" cy="229" r="7" fill="rgb(58,129,153)" opacity="0.35"/>
<circle cx="29" cy="229" r="5.0" fill="rgb(58,129,153)"/>
<circle cx="43" cy="229" r="5.0" fill="#14171c"/>
<circle cx="57" cy="229" r="7" fill="rgb(25,87,113)" opacity="0.35"/>
<circle cx="57" cy="229" r="5.0" fill="rgb(25,87,113)"/>
<circle cx="71" cy="229" r="7" fill="rgb(33,160,218)" opacity="0.35"/>
<circle cx="71" cy="229" r="5.0" fill="rgb(33,160,218)"/>
<circle cx="85" cy="229" r="7" fill="rgb(12,102,146)" opacity="0.35"/>
<circle cx="85" cy="229" r="5.0" fill="rgb(12,102,146)"/>
<circle cx="99" cy="229" r="7" fill="rgb(3,30,44)" opacity="0.35"/>
<circle cx="99" cy="229" r="5.0" fill="rgb(3,30,44)"/>
<circle cx="113" cy="229" r="5.0" fill="#14171c"/>
<circle cx="127" cy="229" r="5.0" fill="#14171c"/>
<circle cx="141" cy="229" r="5.0" fill="#14171c"/>
<circle cx="155" cy="229" r="7" fill="rgb(3,30,44)" opacity="0.35"/>
<circle cx="155" cy="229" r="5.0" fill="rgb(3,30,44)"/>
<circle cx="169" cy="229" r="7" fill="rgb(12,102,146)" opacity="0.35"/>
<circle cx="169" cy="229" r="5.0" fill="rgb(12,102,146)"/>
<circle cx="183" cy="229" r="7" fill="rgb(33,160,218)" opacity="0.35"/>
<circle cx="183" cy="229" r="5.0" fill="rgb(33,160,218)"/>
<circle cx="197" cy="229" r="7" fill="rgb(25,87,113)" opacity="0.35"/>
<circle cx="197" cy="229" r="5.0" fill="rgb(25,87,113)"/>
<circle cx="211" cy="229" r="5.0" fill="#14171c"/>
<circle cx="225" cy="229" r="7" fill="rgb(58,129,153)" opacity="0.35"/>
<circle cx="225" cy="229" r="5.0" fill="rgb(58,129,153)"/>
<circle cx="15" cy="243" r="7" fill="rgb(61,88,97)" opacity="0.35"/>
<circle cx="15" cy="243" r="5.0" fill="rgb(61,88,97)"/>
<circle cx="29" cy="243" r="7" fill="rgb(120,214,245)" opacity="0.35"/>
<circle cx="29" cy="243" r="5.0" fill="rgb(120,214,245)"/>
<circle cx="43" cy="243" r="7" fill="rgb(44,102,121)" opacity="0.35"/>
<circle cx="43" cy="243" r="5.0" fill="rgb(44,102,121)"/>
<circle cx="57" cy="243" r="5.0" fill="#14171c"/>
<circle cx="71" cy="243" r="7" fill="rgb(19,61,79)" opacity="0.35"/>
<circle cx="71" cy="243" r="5.0" fill="rgb(19,61,79)"/>
<circle cx="85" cy="243" r="7" fill="rgb(35,143,191)" opacity="0.35"/>
<circle cx="85" cy="243" r="5.0" fill="rgb(35,143,191)"/>
<circle cx="99" cy="243" r="7" fill="rgb(31,158,218)" opacity="0.35"/>
<circle cx="99" cy="243" r="5.0" fill="rgb(31,158,218)"/>
<circle cx="113" cy="243" r="7" fill="rgb(23,139,195)" opacity="0.35"/>
<circle cx="113" cy="243" r="5.0" fill="rgb(23,139,195)"/>
<circle cx="127" cy="243" r="7" fill="rgb(19,128,181)" opacity="0.35"/>
<circle cx="127" cy="243" r="5.0" fill="rgb(19,128,181)"/>
<circle cx="141" cy="243" r="7" fill="rgb(23,139,195)" opacity="0.35"/>
<circle cx="141" cy="243" r="5.0" fill="rgb(23,139,195)"/>
<circle cx="155" cy="243" r="7" fill="rgb(31,158,218)" opacity="0.35"/>
<circle cx="155" cy="243" r="5.0" fill="rgb(31,158,218)"/>
<circle cx="169" cy="243" r="7" fill="rgb(35,143,191)" opacity="0.35"/>
<circle cx="169" cy="243" r="5.0" fill="rgb(35,143,191)"/>
<circle cx="183" cy="243" r="7" fill="rgb(19,61,79)" opacity="0.35"/>
<circle cx="183" cy="243" r="5.0" fill="rgb(19,61,79)"/>
<circle cx="197" cy="243" r="5.0" fill="#14171c"/>
<circle cx="211" cy="243" r="7" fill="rgb(44,102,121)" opacity="0.35"/>
<circle cx="211" cy="243" r="5.0" fill="rgb(44,102,121)"/>
<circle cx="225" cy="243" r="7" fill="rgb(120,214,245)" opacity="0.35"/>
<circle cx="225" cy="243" r="5.0" fill="rgb(120,214,245)"/>
<circle cx="15" cy="257" r="5.0" fill="#14171c"/>
<circle cx="29" cy="257" r="7" fill="rgb(76,112,125)" opacity="0.35"/>
<circle cx="29" cy="257" r="5.0" fill="rgb(76,112,125)"/>
<circle cx="43" cy="257" r="7" fill="rgb(120,214,245)" opacity="0.35"/>
<circle cx="43" cy="257" r="5.0" fill="rgb(120,214,245)"/>
<circle cx="57" cy="257" r="7" fill="rgb(58,129,153)" opacity="0.35"/>
<circle cx="57" cy="257" r="5.0" fill="rgb(58,129,153)"/>
<circle cx="71" cy="257" r="7" fill="rgb(7,19,23)" opacity="0.35"/>
<circle cx="71" cy="257" r="5.0" fill="rgb(7,19,23)"/>
<circle cx="85" cy="257" r="5.0" fill="#14171c"/>
<circle cx="99" cy="257" r="7" fill="rgb(15,49,63)" opacity="0.35"/>
<circle cx="99" cy="257" r="5.0" fill="rgb(15,49,63)"/>
<circle cx="113" cy="257" r="7" fill="rgb(25,87,113)" opacity="0.35"/>
<circle cx="113" cy="257" r="5.0" fill="rgb(25,87,113)"/>
<circle cx="127" cy="257" r="7" fill="rgb(28,100,130)" opacity="0.35"/>
<circle cx="127" cy="257" r="5.0" fill="rgb(28,100,130)"/>
<circle cx="141" cy="257" r="7" fill="rgb(25,87,113)" opacity="0.35"/>
<circle cx="141" cy="257" r="5.0" fill="rgb(25,87,113)"/>
<circle cx="155" cy="257" r="7" fill="rgb(15,49,63)" opacity="0.35"/>
<circle cx="155" cy="257" r="5.0" fill="rgb(15,49,63)"/>
<circle cx="169" cy="257" r="5.0" fill="#14171c"/>
<circle cx="183" cy="257" r="7" fill="rgb(7,19,23)" opacity="0.35"/>
<circle cx="183" cy="257" r="5.0" fill="rgb(7,19,23)"/>
<circle cx="197" cy="257" r="7" fill="rgb(58,129,153)" opacity="0.35"/>
<circle cx="197" cy="257" r="5.0" fill="rgb(58,129,153)"/>
<circle cx="211" cy="257" r="7" fill="rgb(120,214,245)" opacity="0.35"/>
<circle cx="211" cy="257" r="5.0" fill="rgb(120,214,245)"/>
<circle cx="225" cy="257" r="7" fill="rgb(76,112,125)" opacity="0.35"/>
<circle cx="225" cy="257" r="5.0" fill="rgb(76,112,125)"/>
<circle cx="-2" cy="280" r="9" fill="#9aa0a6" opacity="0.25"/>
<circle cx="-2" cy="280" r="6" fill="#9aa0a6" stroke="#0d0f12" stroke-width="1.5"/>
<text x="10" y="284" font-family="'JetBrains Mono','Cascadia Mono','Consolas',monospace" font-size="12" fill="#a0a0a0">Speed</text>
<circle cx="242" cy="280" r="9" fill="#5ad1ff" opacity="0.25"/>
<circle cx="242" cy="280" r="6" fill="#5ad1ff" stroke="#0d0f12" stroke-width="1.5"/>
<text x="230" y="284" text-anchor="end" font-family="'JetBrains Mono','Cascadia Mono','Consolas',monospace" font-size="12" fill="#a0a0a0">Frame</text>
<circle cx="-2" cy="308" r="9" fill="#9aa0a6" opacity="0.25"/>
<circle cx="-2" cy="308" r="6" fill="#9aa0a6" stroke="#0d0f12" stroke-width="1.5"/>
<text x="10" y="312" font-family="'JetBrains Mono','Cascadia Mono','Consolas',monospace" font-size="12" fill="#a0a0a0">Arms</text>
<circle cx="-2" cy="336" r="9" fill="#ff5cf0" opacity="0.25"/>
<circle cx="-2" cy="336" r="6" fill="#ff5cf0" stroke="#0d0f12" stroke-width="1.5"/>
<text x="10" y="340" font-family="'JetBrains Mono','Cascadia Mono','Consolas',monospace" font-size="12" fill="#a0a0a0">Palette</text>
<line x1="8" y1="356" x2="232" y2="356" stroke="rgba(255,255,255,0.08)"/>
<text x="8" y="376" font-family="'JetBrains Mono','Cascadia Mono','Consolas',monospace" font-size="12" fill="#a0a0a0">speed</text>
<g>
<rect x="120" y="370" width="72" height="4" rx="2" fill="#cfd2d6" opacity="0.85"/>
<rect x="120" y="370" width="36.0" height="4" rx="2" fill="#d633ff"/>
<circle cx="156.0" cy="372" r="5" fill="#d633ff"/>
<text x="232" y="376" text-anchor="end" font-family="'JetBrains Mono','Cascadia Mono','Consolas',monospace" font-size="12" fill="#e0e0e0">0.5</text>
</g>
<text x="8" y="397" font-family="'JetBrains Mono','Cascadia Mono','Consolas',monospace" font-size="12" fill="#a0a0a0">palette</text>
<g>
<rect x="148" y="385" width="84" height="16" rx="4" fill="#0d0f12" stroke="rgba(255,255,255,0.12)"/>
<text x="152" y="397" font-family="'JetBrains Mono','Cascadia Mono','Consolas',monospace" font-size="11" fill="#e0e0e0">ocean</text>
<text x="228" y="397" text-anchor="end" font-size="8" fill="#a0a0a0">▾</text>
</g>
<text x="8" y="418" font-family="'JetBrains Mono','Cascadia Mono','Consolas',monospace" font-size="12" fill="#a0a0a0">clamp inputs</text>
<g>
<rect x="220" y="408" width="12" height="12" rx="3" fill="#0d0f12" stroke="rgba(255,255,255,0.12)"/>
</g>
</g>
</svg>
