<svg xmlns="http://www.w3.org/2000/svg" viewBox="0 0 296 433" width="296" height="433" role="img" aria-label="Rainbow node">

<defs><filter id="shadow" x="-20%" y="-20%" width="140%" height="160%"><feDropShadow dx="0" dy="8" stdDeviation="9" flood-color="#000" flood-opacity="0.45"/></filter></defs>
<g transform="translate(28,24)">
<rect x="0" y="0" width="240" height="375" rx="8" fill="#1f242b" stroke="rgba(255,255,255,0.12)" filter="url(#shadow)"/>
<rect x="0" y="0" width="240" height="375" rx="8" fill="#1f242b" stroke="rgba(255,255,255,0.12)"/>
<path d="M0,32 L0,8 Q0,0 8,0 L232,0 Q240,0 240,8 L240,32 Z" fill="#33d6ff"/>
<text x="8" y="21" font-family="'Audiowide','Trebuchet MS','Arial Black',sans-serif" font-size="14" font-weight="600" fill="#000">Rainbow</text>
<rect x="154" y="10" width="25" height="12" rx="6" fill="rgba(0,0,0,0.14)" stroke="rgba(255,255,255,0.14)"/>
<text x="166.5" y="19" text-anchor="middle" font-family="'JetBrains Mono','Cascadia Mono','Consolas',monospace" font-size="8" letter-spacing="0.08em" fill="#000">PAT</text>
<rect x="185" y="10" width="47" height="12" rx="6" fill="rgba(0,0,0,0.14)" stroke="rgba(255,255,255,0.14)"/>
<text x="208.5" y="19" text-anchor="middle" font-family="'JetBrains Mono','Cascadia Mono','Consolas',monospace" font-size="8" letter-spacing="0.08em" fill="#000">RAI-610</text>
<rect x="8" y="40" width="224" height="224" rx="4" fill="#05070a"/>
<circle cx="15" cy="47" r="7" fill="rgb(0,159,255)" opacity="0.35"/>
<circle cx="15" cy="47" r="5.0" fill="rgb(0,159,255)"/>
<circle cx="29" cy="47" r="7" fill="rgb(0,124,255)" opacity="0.35"/>
<circle cx="29" cy="47" r="5.0" fill="rgb(0,124,255)"/>
<circle cx="43" cy="47" r="7" fill="rgb(0,88,255)" opacity="0.35"/>
<circle cx="43" cy="47" r="5.0" fill="rgb(0,88,255)"/>
<circle cx="57" cy="47" r="7" fill="rgb(0,52,255)" opacity="0.35"/>
<circle cx="57" cy="47" r="5.0" fill="rgb(0,52,255)"/>
<circle cx="71" cy="47" r="7" fill="rgb(0,16,255)" opacity="0.35"/>
<circle cx="71" cy="47" r="5.0" fill="rgb(0,16,255)"/>
<circle cx="85" cy="47" r="7" fill="rgb(20,0,255)" opacity="0.35"/>
<circle cx="85" cy="47" r="5.0" fill="rgb(20,0,255)"/>
<circle cx="99" cy="47" r="7" fill="rgb(56,0,255)" opacity="0.35"/>
<circle cx="99" cy="47" r="5.0" fill="rgb(56,0,255)"/>
<circle cx="113" cy="47" r="7" fill="rgb(92,0,255)" opacity="0.35"/>
<circle cx="113" cy="47" r="5.0" fill="rgb(92,0,255)"/>
<circle cx="127" cy="47" r="7" fill="rgb(128,0,255)" opacity="0.35"/>
<circle cx="127" cy="47" r="5.0" fill="rgb(128,0,255)"/>
<circle cx="141" cy="47" r="7" fill="rgb(163,0,255)" opacity="0.35"/>
<circle cx="141" cy="47" r="5.0" fill="rgb(163,0,255)"/>
<circle cx="155" cy="47" r="7" fill="rgb(199,0,255)" opacity="0.35"/>
<circle cx="155" cy="47" r="5.0" fill="rgb(199,0,255)"/>
<circle cx="169" cy="47" r="7" fill="rgb(235,0,255)" opacity="0.35"/>
<circle cx="169" cy="47" r="5.0" fill="rgb(235,0,255)"/>
<circle cx="183" cy="47" r="7" fill="rgb(255,0,239)" opacity="0.35"/>
<circle cx="183" cy="47" r="5.0" fill="rgb(255,0,239)"/>
<circle cx="197" cy="47" r="7" fill="rgb(255,0,203)" opacity="0.35"/>
<circle cx="197" cy="47" r="5.0" fill="rgb(255,0,203)"/>
<circle cx="211" cy="47" r="7" fill="rgb(255,0,167)" opacity="0.35"/>
<circle cx="211" cy="47" r="5.0" fill="rgb(255,0,167)"/>
<circle cx="225" cy="47" r="7" fill="rgb(255,0,131)" opacity="0.35"/>
<circle cx="225" cy="47" r="5.0" fill="rgb(255,0,131)"/>
<circle cx="15" cy="61" r="7" fill="rgb(255,0,96)" opacity="0.35"/>
<circle cx="15" cy="61" r="5.0" fill="rgb(255,0,96)"/>
<circle cx="29" cy="61" r="7" fill="rgb(255,0,60)" opacity="0.35"/>
<circle cx="29" cy="61" r="5.0" fill="rgb(255,0,60)"/>
<circle cx="43" cy="61" r="7" fill="rgb(255,0,24)" opacity="0.35"/>
<circle cx="43" cy="61" r="5.0" fill="rgb(255,0,24)"/>
<circle cx="57" cy="61" r="7" fill="rgb(255,12,0)" opacity="0.35"/>
<circle cx="57" cy="61" r="5.0" fill="rgb(255,12,0)"/>
<circle cx="71" cy="61" r="7" fill="rgb(255,48,0)" opacity="0.35"/>
<circle cx="71" cy="61" r="5.0" fill="rgb(255,48,0)"/>
<circle cx="85" cy="61" r="7" fill="rgb(255,84,0)" opacity="0.35"/>
<circle cx="85" cy="61" r="5.0" fill="rgb(255,84,0)"/>
<circle cx="99" cy="61" r="7" fill="rgb(255,120,0)" opacity="0.35"/>
<circle cx="99" cy="61" r="5.0" fill="rgb(255,120,0)"/>
<circle cx="113" cy="61" r="7" fill="rgb(255,155,0)" opacity="0.35"/>
<circle cx="113" cy="61" r="5.0" fill="rgb(255,155,0)"/>
<circle cx="127" cy="61" r="7" fill="rgb(255,191,0)" opacity="0.35"/>
<circle cx="127" cy="61" r="5.0" fill="rgb(255,191,0)"/>
<circle cx="141" cy="61" r="7" fill="rgb(255,227,0)" opacity="0.35"/>
<circle cx="141" cy="61" r="5.0" fill="rgb(255,227,0)"/>
<circle cx="155" cy="61" r="7" fill="rgb(247,255,0)" opacity="0.35"/>
<circle cx="155" cy="61" r="5.0" fill="rgb(247,255,0)"/>
<circle cx="169" cy="61" r="7" fill="rgb(211,255,0)" opacity="0.35"/>
<circle cx="169" cy="61" r="5.0" fill="rgb(211,255,0)"/>
<circle cx="183" cy="61" r="7" fill="rgb(175,255,0)" opacity="0.35"/>
<circle cx="183" cy="61" r="5.0" fill="rgb(175,255,0)"/>
<circle cx="197" cy="61" r="7" fill="rgb(139,255,0)" opacity="0.35"/>
<circle cx="197" cy="61" r="5.0" fill="rgb(139,255,0)"/>
<circle cx="211" cy="61" r="7" fill="rgb(104,255,0)" opacity="0.35"/>
<circle cx="211" cy="61" r="5.0" fill="rgb(104,255,0)"/>
<circle cx="225" cy="61" r="7" fill="rgb(68,255,0)" opacity="0.35"/>
<circle cx="225" cy="61" r="5.0" fill="rgb(68,255,0)"/>
<circle cx="15" cy="75" r="7" fill="rgb(32,255,0)" opacity="0.35"/>
<circle cx="15" cy="75" r="5.0" fill="rgb(32,255,0)"/>
<circle cx="29" cy="75" r="7" fill="rgb(0,255,4)" opacity="0.35"/>
<circle cx="29" cy="75" r="5.0" fill="rgb(0,255,4)"/>
<circle cx="43" cy="75" r="7" fill="rgb(0,255,40)" opacity="0.35"/>
<circle cx="43" cy="75" r="5.0" fill="rgb(0,255,40)"/>
<circle cx="57" cy="75" r="7" fill="rgb(0,255,76)" opacity="0.35"/>
<circle cx="57" cy="75" r="5.0" fill="rgb(0,255,76)"/>
<circle cx="71" cy="75" r="7" fill="rgb(0,255,112)" opacity="0.35"/>
<circle cx="71" cy="75" r="5.0" fill="rgb(0,255,112)"/>
<circle cx="85" cy="75" r="7" fill="rgb(0,255,147)" opacity="0.35"/>
<circle cx="85" cy="75" r="5.0" fill="rgb(0,255,147)"/>
<circle cx="99" cy="75" r="7" fill="rgb(0,255,183)" opacity="0.35"/>
<circle cx="99" cy="75" r="5.0" fill="rgb(0,255,183)"/>
<circle cx="113" cy="75" r="7" fill="rgb(0,255,219)" opacity="0.35"/>
<circle cx="113" cy="75" r="5.0" fill="rgb(0,255,219)"/>
<circle cx="127" cy="75" r="7" fill="rgb(0,255,255)" opacity="0.35"/>
<circle cx="127" cy="75" r="5.0" fill="rgb(0,255,255)"/>
<circle cx="141" cy="75" r="7" fill="rgb(0,219,255)" opacity="0.35"/>
<circle cx="141" cy="75" r="5.0" fill="rgb(0,219,255)"/>
<circle cx="155" cy="75" r="7" fill="rgb(0,183,255)" opacity="0.35"/>
<circle cx="155" cy="75" r="5.0" fill="rgb(0,183,255)"/>
<circle cx="169" cy="75" r="7" fill="rgb(0,147,255)" opacity="0.35"/>
<circle cx="169" cy="75" r="5.0" fill="rgb(0,147,255)"/>
<circle cx="183" cy="75" r="7" fill="rgb(0,112,255)" opacity="0.35"/>
<circle cx="183" cy="75" r="5.0" fill="rgb(0,112,255)"/>
<circle cx="197" cy="75" r="7" fill="rgb(0,76,255)" opacity="0.35"/>
<circle cx="197" cy="75" r="5.0" fill="rgb(0,76,255)"/>
<circle cx="211" cy="75" r="7" fill="rgb(0,40,255)" opacity="0.35"/>
<circle cx="211" cy="75" r="5.0" fill="rgb(0,40,255)"/>
<circle cx="225" cy="75" r="7" fill="rgb(0,4,255)" opacity="0.35"/>
<circle cx="225" cy="75" r="5.0" fill="rgb(0,4,255)"/>
<circle cx="15" cy="89" r="7" fill="rgb(32,0,255)" opacity="0.35"/>
<circle cx="15" cy="89" r="5.0" fill="rgb(32,0,255)"/>
<circle cx="29" cy="89" r="7" fill="rgb(68,0,255)" opacity="0.35"/>
<circle cx="29" cy="89" r="5.0" fill="rgb(68,0,255)"/>
<circle cx="43" cy="89" r="7" fill="rgb(104,0,255)" opacity="0.35"/>
<circle cx="43" cy="89" r="5.0" fill="rgb(104,0,255)"/>
<circle cx="57" cy="89" r="7" fill="rgb(139,0,255)" opacity="0.35"/>
<circle cx="57" cy="89" r="5.0" fill="rgb(139,0,255)"/>
<circle cx="71" cy="89" r="7" fill="rgb(175,0,255)" opacity="0.35"/>
<circle cx="71" cy="89" r="5.0" fill="rgb(175,0,255)"/>
<circle cx="85" cy="89" r="7" fill="rgb(211,0,255)" opacity="0.35"/>
<circle cx="85" cy="89" r="5.0" fill="rgb(211,0,255)"/>
<circle cx="99" cy="89" r="7" fill="rgb(247,0,255)" opacity="0.35"/>
<circle cx="99" cy="89" r="5.0" fill="rgb(247,0,255)"/>
<circle cx="113" cy="89" r="7" fill="rgb(255,0,227)" opacity="0.35"/>
<circle cx="113" cy="89" r="5.0" fill="rgb(255,0,227)"/>
<circle cx="127" cy="89" r="7" fill="rgb(255,0,191)" opacity="0.35"/>
<circle cx="127" cy="89" r="5.0" fill="rgb(255,0,191)"/>
<circle cx="141" cy="89" r="7" fill="rgb(255,0,155)" opacity="0.35"/>
<circle cx="141" cy="89" r="5.0" fill="rgb(255,0,155)"/>
<circle cx="155" cy="89" r="7" fill="rgb(255,0,120)" opacity="0.35"/>
<circle cx="155" cy="89" r="5.0" fill="rgb(255,0,120)"/>
<circle cx="169" cy="89" r="7" fill="rgb(255,0,84)" opacity="0.35"/>
<circle cx="169" cy="89" r="5.0" fill="rgb(255,0,84)"/>
<circle cx="183" cy="89" r="7" fill="rgb(255,0,48)" opacity="0.35"/>
<circle cx="183" cy="89" r="5.0" fill="rgb(255,0,48)"/>
<circle cx="197" cy="89" r="7" fill="rgb(255,0,12)" opacity="0.35"/>
<circle cx="197" cy="89" r="5.0" fill="rgb(255,0,12)"/>
<circle cx="211" cy="89" r="7" fill="rgb(255,24,0)" opacity="0.35"/>
<circle cx="211" cy="89" r="5.0" fill="rgb(255,24,0)"/>
<circle cx="225" cy="89" r="7" fill="rgb(255,60,0)" opacity="0.35"/>
<circle cx="225" cy="89" r="5.0" fill="rgb(255,60,0)"/>
<circle cx="15" cy="103" r="7" fill="rgb(255,96,0)" opacity="0.35"/>
<circle cx="15" cy="103" r="5.0" fill="rgb(255,96,0)"/>
<circle cx="29" cy="103" r="7" fill="rgb(255,131,0)" opacity="0.35"/>
<circle cx="29" cy="103" r="5.0" fill="rgb(255,131,0)"/>
<circle cx="43" cy="103" r="7" fill="rgb(255,167,0)" opacity="0.35"/>
<circle cx="43" cy="103" r="5.0" fill="rgb(255,167,0)"/>
<circle cx="57" cy="103" r="7" fill="rgb(255,203,0)" opacity="0.35"/>
<circle cx="57" cy="103" r="5.0" fill="rgb(255,203,0)"/>
<circle cx="71" cy="103" r="7" fill="rgb(255,239,0)" opacity="0.35"/>
<circle cx="71" cy="103" r="5.0" fill="rgb(255,239,0)"/>
<circle cx="85" cy="103" r="7" fill="rgb(235,255,0)" opacity="0.35"/>
<circle cx="85" cy="103" r="5.0" fill="rgb(235,255,0)"/>
<circle cx="99" cy="103" r="7" fill="rgb(199,255,0)" opacity="0.35"/>
<circle cx="99" cy="103" r="5.0" fill="rgb(199,255,0)"/>
<circle cx="113" cy="103" r="7" fill="rgb(163,255,0)" opacity="0.35"/>
<circle cx="113" cy="103" r="5.0" fill="rgb(163,255,0)"/>
<circle cx="127" cy="103" r="7" fill="rgb(128,255,0)" opacity="0.35"/>
<circle cx="127" cy="103" r="5.0" fill="rgb(128,255,0)"/>
<circle cx="141" cy="103" r="7" fill="rgb(92,255,0)" opacity="0.35"/>
<circle cx="141" cy="103" r="5.0" fill="rgb(92,255,0)"/>
<circle cx="155" cy="103" r="7" fill="rgb(56,255,0)" opacity="0.35"/>
<circle cx="155" cy="103" r="5.0" fill="rgb(56,255,0)"/>
<circle cx="169" cy="103" r="7" fill="rgb(20,255,0)" opacity="0.35"/>
<circle cx="169" cy="103" r="5.0" fill="rgb(20,255,0)"/>
<circle cx="183" cy="103" r="7" fill="rgb(0,255,16)" opacity="0.35"/>
<circle cx="183" cy="103" r="5.0" fill="rgb(0,255,16)"/>
<circle cx="197" cy="103" r="7" fill="rgb(0,255,52)" opacity="0.35"/>
<circle cx="197" cy="103" r="5.0" fill="rgb(0,255,52)"/>
<circle cx="211" cy="103" r="7" fill="rgb(0,255,88)" opacity="0.35"/>
<circle cx="211" cy="103" r="5.0" fill="rgb(0,255,88)"/>
<circle cx="225" cy="103" r="7" fill="rgb(0,255,124)" opacity="0.35"/>
<circle cx="225" cy="103" r="5.0" fill="rgb(0,255,124)"/>
<circle cx="15" cy="117" r="7" fill="rgb(0,255,159)" opacity="0.35"/>
<circle cx="15" cy="117" r="5.0" fill="rgb(0,255,159)"/>
<circle cx="29" cy="117" r="7" fill="rgb(0,255,195)" opacity="0.35"/>
<circle cx="29" cy="117" r="5.0" fill="rgb(0,255,195)"/>
<circle cx="43" cy="117" r="7" fill="rgb(0,255,231)" opacity="0.35"/>
<circle cx="43" cy="117" r="5.0" fill="rgb(0,255,231)"/>
<circle cx="57" cy="117" r="7" fill="rgb(0,243,255)" opacity="0.35"/>
<circle cx="57" cy="117" r="5.0" fill="rgb(0,243,255)"/>
<circle cx="71" cy="117" r="7" fill="rgb(0,207,255)" opacity="0.35"/>
<circle cx="71" cy="117" r="5.0" fill="rgb(0,207,255)"/>
<circle cx="85" cy="117" r="7" fill="rgb(0,171,255)" opacity="0.35"/>
<circle cx="85" cy="117" r="5.0" fill="rgb(0,171,255)"/>
<circle cx="99" cy="117" r="7" fill="rgb(0,135,255)" opacity="0.35"/>
<circle cx="99" cy="117" r="5.0" fill="rgb(0,135,255)"/>
<circle cx="113" cy="117" r="7" fill="rgb(0,100,255)" opacity="0.35"/>
<circle cx="113" cy="117" r="5.0" fill="rgb(0,100,255)"/>
<circle cx="127" cy="117" r="7" fill="rgb(0,64,255)" opacity="0.35"/>
<circle cx="127" cy="117" r="5.0" fill="rgb(0,64,255)"/>
<circle cx="141" cy="117" r="7" fill="rgb(0,28,255)" opacity="0.35"/>
<circle cx="141" cy="117" r="5.0" fill="rgb(0,28,255)"/>
<circle cx="155" cy="117" r="7" fill="rgb(8,0,255)" opacity="0.35"/>
<circle cx="155" cy="117" r="5.0" fill="rgb(8,0,255)"/>
<circle cx="169" cy="117" r="7" fill="rgb(44,0,255)" opacity="0.35"/>
<circle cx="169" cy="117" r="5.0" fill="rgb(44,0,255)"/>
<circle cx="183" cy="117" r="7" fill="rgb(80,0,255)" opacity="0.35"/>
<circle cx="183" cy="117" r="5.0" fill="rgb(80,0,255)"/>
<circle cx="197" cy="117" r="7" fill="rgb(116,0,255)" opacity="0.35"/>
<circle cx="197" cy="117" r="5.0" fill="rgb(116,0,255)"/>
<circle cx="211" cy="117" r="7" fill="rgb(151,0,255)" opacity="0.35"/>
<circle cx="211" cy="117" r="5.0" fill="rgb(151,0,255)"/>
<circle cx="225" cy="117" r="7" fill="rgb(187,0,255)" opacity="0.35"/>
<circle cx="225" cy="117" r="5.0" fill="rgb(187,0,255)"/>
<circle cx="15" cy="131" r="7" fill="rgb(223,0,255)" opacity="0.35"/>
<circle cx="15" cy="131" r="5.0" fill="rgb(223,0,255)"/>
<circle cx="29" cy="131" r="7" fill="rgb(255,0,251)" opacity="0.35"/>
<circle cx="29" cy="131" r="5.0" fill="rgb(255,0,251)"/>
<circle cx="43" cy="131" r="7" fill="rgb(255,0,215)" opacity="0.35"/>
<circle cx="43" cy="131" r="5.0" fill="rgb(255,0,215)"/>
<circle cx="57" cy="131" r="7" fill="rgb(255,0,179)" opacity="0.35"/>
<circle cx="57" cy="131" r="5.0" fill="rgb(255,0,179)"/>
<circle cx="71" cy="131" r="7" fill="rgb(255,0,143)" opacity="0.35"/>
<circle cx="71" cy="131" r="5.0" fill="rgb(255,0,143)"/>
<circle cx="85" cy="131" r="7" fill="rgb(255,0,108)" opacity="0.35"/>
<circle cx="85" cy="131" r="5.0" fill="rgb(255,0,108)"/>
<circle cx="99" cy="131" r="7" fill="rgb(255,0,72)" opacity="0.35"/>
<circle cx="99" cy="131" r="5.0" fill="rgb(255,0,72)"/>
<circle cx="113" cy="131" r="7" fill="rgb(255,0,36)" opacity="0.35"/>
<circle cx="113" cy="131" r="5.0" fill="rgb(255,0,36)"/>
<circle cx="127" cy="131" r="7" fill="rgb(255,0,0)" opacity="0.35"/>
<circle cx="127" cy="131" r="5.0" fill="rgb(255,0,0)"/>
<circle cx="141" cy="131" r="7" fill="rgb(255,36,0)" opacity="0.35"/>
<circle cx="141" cy="131" r="5.0" fill="rgb(255,36,0)"/>
<circle cx="155" cy="131" r="7" fill="rgb(255,72,0)" opacity="0.35"/>
<circle cx="155" cy="131" r="5.0" fill="rgb(255,72,0)"/>
<circle cx="169" cy="131" r="7" fill="rgb(255,108,0)" opacity="0.35"/>
<circle cx="169" cy="131" r="5.0" fill="rgb(255,108,0)"/>
<circle cx="183" cy="131" r="7" fill="rgb(255,143,0)" opacity="0.35"/>
<circle cx="183" cy="131" r="5.0" fill="rgb(255,143,0)"/>
<circle cx="197" cy="131" r="7" fill="rgb(255,179,0)" opacity="0.35"/>
<circle cx="197" cy="131" r="5.0" fill="rgb(255,179,0)"/>
<circle cx="211" cy="131" r="7" fill="rgb(255,215,0)" opacity="0.35"/>
<circle cx="211" cy="131" r="5.0" fill="rgb(255,215,0)"/>
<circle cx="225" cy="131" r="7" fill="rgb(255,251,0)" opacity="0.35"/>
<circle cx="225" cy="131" r="5.0" fill="rgb(255,251,0)"/>
<circle cx="15" cy="145" r="7" fill="rgb(223,255,0)" opacity="0.35"/>
<circle cx="15" cy="145" r="5.0" fill="rgb(223,255,0)"/>
<circle cx="29" cy="145" r="7" fill="rgb(187,255,0)" opacity="0.35"/>
<circle cx="29" cy="145" r="5.0" fill="rgb(187,255,0)"/>
<circle cx="43" cy="145" r="7" fill="rgb(151,255,0)" opacity="0.35"/>
<circle cx="43" cy="145" r="5.0" fill="rgb(151,255,0)"/>
<circle cx="57" cy="145" r="7" fill="rgb(116,255,0)" opacity="0.35"/>
<circle cx="57" cy="145" r="5.0" fill="rgb(116,255,0)"/>
<circle cx="71" cy="145" r="7" fill="rgb(80,255,0)" opacity="0.35"/>
<circle cx="71" cy="145" r="5.0" fill="rgb(80,255,0)"/>
<circle cx="85" cy="145" r="7" fill="rgb(44,255,0)" opacity="0.35"/>
<circle cx="85" cy="145" r="5.0" fill="rgb(44,255,0)"/>
<circle cx="99" cy="145" r="7" fill="rgb(8,255,0)" opacity="0.35"/>
<circle cx="99" cy="145" r="5.0" fill="rgb(8,255,0)"/>
<circle cx="113" cy="145" r="7" fill="rgb(0,255,28)" opacity="0.35"/>
<circle cx="113" cy="145" r="5.0" fill="rgb(0,255,28)"/>
<circle cx="127" cy="145" r="7" fill="rgb(0,255,64)" opacity="0.35"/>
<circle cx="127" cy="145" r="5.0" fill="rgb(0,255,64)"/>
<circle cx="141" cy="145" r="7" fill="rgb(0,255,100)" opacity="0.35"/>
<circle cx="141" cy="145" r="5.0" fill="rgb(0,255,100)"/>
<circle cx="155" cy="145" r="7" fill="rgb(0,255,135)" opacity="0.35"/>
<circle cx="155" cy="145" r="5.0" fill="rgb(0,255,135)"/>
<circle cx="169" cy="145" r="7" fill="rgb(0,255,171)" opacity="0.35"/>
<circle cx="169" cy="145" r="5.0" fill="rgb(0,255,171)"/>
<circle cx="183" cy="145" r="7" fill="rgb(0,255,207)" opacity="0.35"/>
<circle cx="183" cy="145" r="5.0" fill="rgb(0,255,207)"/>
<circle cx="197" cy="145" r="7" fill="rgb(0,255,243)" opacity="0.35"/>
<circle cx="197" cy="145" r="5.0" fill="rgb(0,255,243)"/>
<circle cx="211" cy="145" r="7" fill="rgb(0,231,255)" opacity="0.35"/>
<circle cx="211" cy="145" r="5.0" fill="rgb(0,231,255)"/>
<circle cx="225" cy="145" r="7" fill="rgb(0,195,255)" opacity="0.35"/>
<circle cx="225" cy="145" r="5.0" fill="rgb(0,195,255)"/>
<circle cx="15" cy="159" r="7" fill="rgb(0,159,255)" opacity="0.35"/>
<circle cx="15" cy="159" r="5.0" fill="rgb(0,159,255)"/>
<circle cx="29" cy="159" r="7" fill="rgb(0,124,255)" opacity="0.35"/>
<circle cx="29" cy="159" r="5.0" fill="rgb(0,124,255)"/>
<circle cx="43" cy="159" r="7" fill="rgb(0,88,255)" opacity="0.35"/>
<circle cx="43" cy="159" r="5.0" fill="rgb(0,88,255)"/>
<circle cx="57" cy="159" r="7" fill="rgb(0,52,255)" opacity="0.35"/>
<circle cx="57" cy="159" r="5.0" fill="rgb(0,52,255)"/>
<circle cx="71" cy="159" r="7" fill="rgb(0,16,255)" opacity="0.35"/>
<circle cx="71" cy="159" r="5.0" fill="rgb(0,16,255)"/>
<circle cx="85" cy="159" r="7" fill="rgb(20,0,255)" opacity="0.35"/>
<circle cx="85" cy="159" r="5.0" fill="rgb(20,0,255)"/>
<circle cx="99" cy="159" r="7" fill="rgb(56,0,255)" opacity="0.35"/>
<circle cx="99" cy="159" r="5.0" fill="rgb(56,0,255)"/>
<circle cx="113" cy="159" r="7" fill="rgb(92,0,255)" opacity="0.35"/>
<circle cx="113" cy="159" r="5.0" fill="rgb(92,0,255)"/>
<circle cx="127" cy="159" r="7" fill="rgb(128,0,255)" opacity="0.35"/>
<circle cx="127" cy="159" r="5.0" fill="rgb(128,0,255)"/>
<circle cx="141" cy="159" r="7" fill="rgb(163,0,255)" opacity="0.35"/>
<circle cx="141" cy="159" r="5.0" fill="rgb(163,0,255)"/>
<circle cx="155" cy="159" r="7" fill="rgb(199,0,255)" opacity="0.35"/>
<circle cx="155" cy="159" r="5.0" fill="rgb(199,0,255)"/>
<circle cx="169" cy="159" r="7" fill="rgb(235,0,255)" opacity="0.35"/>
<circle cx="169" cy="159" r="5.0" fill="rgb(235,0,255)"/>
<circle cx="183" cy="159" r="7" fill="rgb(255,0,239)" opacity="0.35"/>
<circle cx="183" cy="159" r="5.0" fill="rgb(255,0,239)"/>
<circle cx="197" cy="159" r="7" fill="rgb(255,0,203)" opacity="0.35"/>
<circle cx="197" cy="159" r="5.0" fill="rgb(255,0,203)"/>
<circle cx="211" cy="159" r="7" fill="rgb(255,0,167)" opacity="0.35"/>
<circle cx="211" cy="159" r="5.0" fill="rgb(255,0,167)"/>
<circle cx="225" cy="159" r="7" fill="rgb(255,0,131)" opacity="0.35"/>
<circle cx="225" cy="159" r="5.0" fill="rgb(255,0,131)"/>
<circle cx="15" cy="173" r="7" fill="rgb(255,0,96)" opacity="0.35"/>
<circle cx="15" cy="173" r="5.0" fill="rgb(255,0,96)"/>
<circle cx="29" cy="173" r="7" fill="rgb(255,0,60)" opacity="0.35"/>
<circle cx="29" cy="173" r="5.0" fill="rgb(255,0,60)"/>
<circle cx="43" cy="173" r="7" fill="rgb(255,0,24)" opacity="0.35"/>
<circle cx="43" cy="173" r="5.0" fill="rgb(255,0,24)"/>
<circle cx="57" cy="173" r="7" fill="rgb(255,12,0)" opacity="0.35"/>
<circle cx="57" cy="173" r="5.0" fill="rgb(255,12,0)"/>
<circle cx="71" cy="173" r="7" fill="rgb(255,48,0)" opacity="0.35"/>
<circle cx="71" cy="173" r="5.0" fill="rgb(255,48,0)"/>
<circle cx="85" cy="173" r="7" fill="rgb(255,84,0)" opacity="0.35"/>
<circle cx="85" cy="173" r="5.0" fill="rgb(255,84,0)"/>
<circle cx="99" cy="173" r="7" fill="rgb(255,120,0)" opacity="0.35"/>
<circle cx="99" cy="173" r="5.0" fill="rgb(255,120,0)"/>
<circle cx="113" cy="173" r="7" fill="rgb(255,155,0)" opacity="0.35"/>
<circle cx="113" cy="173" r="5.0" fill="rgb(255,155,0)"/>
<circle cx="127" cy="173" r="7" fill="rgb(255,191,0)" opacity="0.35"/>
<circle cx="127" cy="173" r="5.0" fill="rgb(255,191,0)"/>
<circle cx="141" cy="173" r="7" fill="rgb(255,227,0)" opacity="0.35"/>
<circle cx="141" cy="173" r="5.0" fill="rgb(255,227,0)"/>
<circle cx="155" cy="173" r="7" fill="rgb(247,255,0)" opacity="0.35"/>
<circle cx="155" cy="173" r="5.0" fill="rgb(247,255,0)"/>
<circle cx="169" cy="173" r="7" fill="rgb(211,255,0)" opacity="0.35"/>
<circle cx="169" cy="173" r="5.0" fill="rgb(211,255,0)"/>
<circle cx="183" cy="173" r="7" fill="rgb(175,255,0)" opacity="0.35"/>
<circle cx="183" cy="173" r="5.0" fill="rgb(175,255,0)"/>
<circle cx="197" cy="173" r="7" fill="rgb(139,255,0)" opacity="0.35"/>
<circle cx="197" cy="173" r="5.0" fill="rgb(139,255,0)"/>
<circle cx="211" cy="173" r="7" fill="rgb(104,255,0)" opacity="0.35"/>
<circle cx="211" cy="173" r="5.0" fill="rgb(104,255,0)"/>
<circle cx="225" cy="173" r="7" fill="rgb(68,255,0)" opacity="0.35"/>
<circle cx="225" cy="173" r="5.0" fill="rgb(68,255,0)"/>
<circle cx="15" cy="187" r="7" fill="rgb(32,255,0)" opacity="0.35"/>
<circle cx="15" cy="187" r="5.0" fill="rgb(32,255,0)"/>
<circle cx="29" cy="187" r="7" fill="rgb(0,255,4)" opacity="0.35"/>
<circle cx="29" cy="187" r="5.0" fill="rgb(0,255,4)"/>
<circle cx="43" cy="187" r="7" fill="rgb(0,255,40)" opacity="0.35"/>
<circle cx="43" cy="187" r="5.0" fill="rgb(0,255,40)"/>
<circle cx="57" cy="187" r="7" fill="rgb(0,255,76)" opacity="0.35"/>
<circle cx="57" cy="187" r="5.0" fill="rgb(0,255,76)"/>
<circle cx="71" cy="187" r="7" fill="rgb(0,255,112)" opacity="0.35"/>
<circle cx="71" cy="187" r="5.0" fill="rgb(0,255,112)"/>
<circle cx="85" cy="187" r="7" fill="rgb(0,255,147)" opacity="0.35"/>
<circle cx="85" cy="187" r="5.0" fill="rgb(0,255,147)"/>
<circle cx="99" cy="187" r="7" fill="rgb(0,255,183)" opacity="0.35"/>
<circle cx="99" cy="187" r="5.0" fill="rgb(0,255,183)"/>
<circle cx="113" cy="187" r="7" fill="rgb(0,255,219)" opacity="0.35"/>
<circle cx="113" cy="187" r="5.0" fill="rgb(0,255,219)"/>
<circle cx="127" cy="187" r="7" fill="rgb(0,255,255)" opacity="0.35"/>
<circle cx="127" cy="187" r="5.0" fill="rgb(0,255,255)"/>
<circle cx="141" cy="187" r="7" fill="rgb(0,219,255)" opacity="0.35"/>
<circle cx="141" cy="187" r="5.0" fill="rgb(0,219,255)"/>
<circle cx="155" cy="187" r="7" fill="rgb(0,183,255)" opacity="0.35"/>
<circle cx="155" cy="187" r="5.0" fill="rgb(0,183,255)"/>
<circle cx="169" cy="187" r="7" fill="rgb(0,147,255)" opacity="0.35"/>
<circle cx="169" cy="187" r="5.0" fill="rgb(0,147,255)"/>
<circle cx="183" cy="187" r="7" fill="rgb(0,112,255)" opacity="0.35"/>
<circle cx="183" cy="187" r="5.0" fill="rgb(0,112,255)"/>
<circle cx="197" cy="187" r="7" fill="rgb(0,76,255)" opacity="0.35"/>
<circle cx="197" cy="187" r="5.0" fill="rgb(0,76,255)"/>
<circle cx="211" cy="187" r="7" fill="rgb(0,40,255)" opacity="0.35"/>
<circle cx="211" cy="187" r="5.0" fill="rgb(0,40,255)"/>
<circle cx="225" cy="187" r="7" fill="rgb(0,4,255)" opacity="0.35"/>
<circle cx="225" cy="187" r="5.0" fill="rgb(0,4,255)"/>
<circle cx="15" cy="201" r="7" fill="rgb(32,0,255)" opacity="0.35"/>
<circle cx="15" cy="201" r="5.0" fill="rgb(32,0,255)"/>
<circle cx="29" cy="201" r="7" fill="rgb(68,0,255)" opacity="0.35"/>
<circle cx="29" cy="201" r="5.0" fill="rgb(68,0,255)"/>
<circle cx="43" cy="201" r="7" fill="rgb(104,0,255)" opacity="0.35"/>
<circle cx="43" cy="201" r="5.0" fill="rgb(104,0,255)"/>
<circle cx="57" cy="201" r="7" fill="rgb(139,0,255)" opacity="0.35"/>
<circle cx="57" cy="201" r="5.0" fill="rgb(139,0,255)"/>
<circle cx="71" cy="201" r="7" fill="rgb(175,0,255)" opacity="0.35"/>
<circle cx="71" cy="201" r="5.0" fill="rgb(175,0,255)"/>
<circle cx="85" cy="201" r="7" fill="rgb(211,0,255)" opacity="0.35"/>
<circle cx="85" cy="201" r="5.0" fill="rgb(211,0,255)"/>
<circle cx="99" cy="201" r="7" fill="rgb(247,0,255)" opacity="0.35"/>
<circle cx="99" cy="201" r="5.0" fill="rgb(247,0,255)"/>
<circle cx="113" cy="201" r="7" fill="rgb(255,0,227)" opacity="0.35"/>
<circle cx="113" cy="201" r="5.0" fill="rgb(255,0,227)"/>
<circle cx="127" cy="201" r="7" fill="rgb(255,0,191)" opacity="0.35"/>
<circle cx="127" cy="201" r="5.0" fill="rgb(255,0,191)"/>
<circle cx="141" cy="201" r="7" fill="rgb(255,0,155)" opacity="0.35"/>
<circle cx="141" cy="201" r="5.0" fill="rgb(255,0,155)"/>
<circle cx="155" cy="201" r="7" fill="rgb(255,0,120)" opacity="0.35"/>
<circle cx="155" cy="201" r="5.0" fill="rgb(255,0,120)"/>
<circle cx="169" cy="201" r="7" fill="rgb(255,0,84)" opacity="0.35"/>
<circle cx="169" cy="201" r="5.0" fill="rgb(255,0,84)"/>
<circle cx="183" cy="201" r="7" fill="rgb(255,0,48)" opacity="0.35"/>
<circle cx="183" cy="201" r="5.0" fill="rgb(255,0,48)"/>
<circle cx="197" cy="201" r="7" fill="rgb(255,0,12)" opacity="0.35"/>
<circle cx="197" cy="201" r="5.0" fill="rgb(255,0,12)"/>
<circle cx="211" cy="201" r="7" fill="rgb(255,24,0)" opacity="0.35"/>
<circle cx="211" cy="201" r="5.0" fill="rgb(255,24,0)"/>
<circle cx="225" cy="201" r="7" fill="rgb(255,60,0)" opacity="0.35"/>
<circle cx="225" cy="201" r="5.0" fill="rgb(255,60,0)"/>
<circle cx="15" cy="215" r="7" fill="rgb(255,96,0)" opacity="0.35"/>
<circle cx="15" cy="215" r="5.0" fill="rgb(255,96,0)"/>
<circle cx="29" cy="215" r="7" fill="rgb(255,131,0)" opacity="0.35"/>
<circle cx="29" cy="215" r="5.0" fill="rgb(255,131,0)"/>
<circle cx="43" cy="215" r="7" fill="rgb(255,167,0)" opacity="0.35"/>
<circle cx="43" cy="215" r="5.0" fill="rgb(255,167,0)"/>
<circle cx="57" cy="215" r="7" fill="rgb(255,203,0)" opacity="0.35"/>
<circle cx="57" cy="215" r="5.0" fill="rgb(255,203,0)"/>
<circle cx="71" cy="215" r="7" fill="rgb(255,239,0)" opacity="0.35"/>
<circle cx="71" cy="215" r="5.0" fill="rgb(255,239,0)"/>
<circle cx="85" cy="215" r="7" fill="rgb(235,255,0)" opacity="0.35"/>
<circle cx="85" cy="215" r="5.0" fill="rgb(235,255,0)"/>
<circle cx="99" cy="215" r="7" fill="rgb(199,255,0)" opacity="0.35"/>
<circle cx="99" cy="215" r="5.0" fill="rgb(199,255,0)"/>
<circle cx="113" cy="215" r="7" fill="rgb(163,255,0)" opacity="0.35"/>
<circle cx="113" cy="215" r="5.0" fill="rgb(163,255,0)"/>
<circle cx="127" cy="215" r="7" fill="rgb(128,255,0)" opacity="0.35"/>
<circle cx="127" cy="215" r="5.0" fill="rgb(128,255,0)"/>
<circle cx="141" cy="215" r="7" fill="rgb(92,255,0)" opacity="0.35"/>
<circle cx="141" cy="215" r="5.0" fill="rgb(92,255,0)"/>
<circle cx="155" cy="215" r="7" fill="rgb(56,255,0)" opacity="0.35"/>
<circle cx="155" cy="215" r="5.0" fill="rgb(56,255,0)"/>
<circle cx="169" cy="215" r="7" fill="rgb(20,255,0)" opacity="0.35"/>
<circle cx="169" cy="215" r="5.0" fill="rgb(20,255,0)"/>
<circle cx="183" cy="215" r="7" fill="rgb(0,255,16)" opacity="0.35"/>
<circle cx="183" cy="215" r="5.0" fill="rgb(0,255,16)"/>
<circle cx="197" cy="215" r="7" fill="rgb(0,255,52)" opacity="0.35"/>
<circle cx="197" cy="215" r="5.0" fill="rgb(0,255,52)"/>
<circle cx="211" cy="215" r="7" fill="rgb(0,255,88)" opacity="0.35"/>
<circle cx="211" cy="215" r="5.0" fill="rgb(0,255,88)"/>
<circle cx="225" cy="215" r="7" fill="rgb(0,255,124)" opacity="0.35"/>
<circle cx="225" cy="215" r="5.0" fill="rgb(0,255,124)"/>
<circle cx="15" cy="229" r="7" fill="rgb(0,255,159)" opacity="0.35"/>
<circle cx="15" cy="229" r="5.0" fill="rgb(0,255,159)"/>
<circle cx="29" cy="229" r="7" fill="rgb(0,255,195)" opacity="0.35"/>
<circle cx="29" cy="229" r="5.0" fill="rgb(0,255,195)"/>
<circle cx="43" cy="229" r="7" fill="rgb(0,255,231)" opacity="0.35"/>
<circle cx="43" cy="229" r="5.0" fill="rgb(0,255,231)"/>
<circle cx="57" cy="229" r="7" fill="rgb(0,243,255)" opacity="0.35"/>
<circle cx="57" cy="229" r="5.0" fill="rgb(0,243,255)"/>
<circle cx="71" cy="229" r="7" fill="rgb(0,207,255)" opacity="0.35"/>
<circle cx="71" cy="229" r="5.0" fill="rgb(0,207,255)"/>
<circle cx="85" cy="229" r="7" fill="rgb(0,171,255)" opacity="0.35"/>
<circle cx="85" cy="229" r="5.0" fill="rgb(0,171,255)"/>
<circle cx="99" cy="229" r="7" fill="rgb(0,135,255)" opacity="0.35"/>
<circle cx="99" cy="229" r="5.0" fill="rgb(0,135,255)"/>
<circle cx="113" cy="229" r="7" fill="rgb(0,100,255)" opacity="0.35"/>
<circle cx="113" cy="229" r="5.0" fill="rgb(0,100,255)"/>
<circle cx="127" cy="229" r="7" fill="rgb(0,64,255)" opacity="0.35"/>
<circle cx="127" cy="229" r="5.0" fill="rgb(0,64,255)"/>
<circle cx="141" cy="229" r="7" fill="rgb(0,28,255)" opacity="0.35"/>
<circle cx="141" cy="229" r="5.0" fill="rgb(0,28,255)"/>
<circle cx="155" cy="229" r="7" fill="rgb(8,0,255)" opacity="0.35"/>
<circle cx="155" cy="229" r="5.0" fill="rgb(8,0,255)"/>
<circle cx="169" cy="229" r="7" fill="rgb(44,0,255)" opacity="0.35"/>
<circle cx="169" cy="229" r="5.0" fill="rgb(44,0,255)"/>
<circle cx="183" cy="229" r="7" fill="rgb(80,0,255)" opacity="0.35"/>
<circle cx="183" cy="229" r="5.0" fill="rgb(80,0,255)"/>
<circle cx="197" cy="229" r="7" fill="rgb(116,0,255)" opacity="0.35"/>
<circle cx="197" cy="229" r="5.0" fill="rgb(116,0,255)"/>
<circle cx="211" cy="229" r="7" fill="rgb(151,0,255)" opacity="0.35"/>
<circle cx="211" cy="229" r="5.0" fill="rgb(151,0,255)"/>
<circle cx="225" cy="229" r="7" fill="rgb(187,0,255)" opacity="0.35"/>
<circle cx="225" cy="229" r="5.0" fill="rgb(187,0,255)"/>
<circle cx="15" cy="243" r="7" fill="rgb(223,0,255)" opacity="0.35"/>
<circle cx="15" cy="243" r="5.0" fill="rgb(223,0,255)"/>
<circle cx="29" cy="243" r="7" fill="rgb(255,0,251)" opacity="0.35"/>
<circle cx="29" cy="243" r="5.0" fill="rgb(255,0,251)"/>
<circle cx="43" cy="243" r="7" fill="rgb(255,0,215)" opacity="0.35"/>
<circle cx="43" cy="243" r="5.0" fill="rgb(255,0,215)"/>
<circle cx="57" cy="243" r="7" fill="rgb(255,0,179)" opacity="0.35"/>
<circle cx="57" cy="243" r="5.0" fill="rgb(255,0,179)"/>
<circle cx="71" cy="243" r="7" fill="rgb(255,0,143)" opacity="0.35"/>
<circle cx="71" cy="243" r="5.0" fill="rgb(255,0,143)"/>
<circle cx="85" cy="243" r="7" fill="rgb(255,0,108)" opacity="0.35"/>
<circle cx="85" cy="243" r="5.0" fill="rgb(255,0,108)"/>
<circle cx="99" cy="243" r="7" fill="rgb(255,0,72)" opacity="0.35"/>
<circle cx="99" cy="243" r="5.0" fill="rgb(255,0,72)"/>
<circle cx="113" cy="243" r="7" fill="rgb(255,0,36)" opacity="0.35"/>
<circle cx="113" cy="243" r="5.0" fill="rgb(255,0,36)"/>
<circle cx="127" cy="243" r="7" fill="rgb(255,0,0)" opacity="0.35"/>
<circle cx="127" cy="243" r="5.0" fill="rgb(255,0,0)"/>
<circle cx="141" cy="243" r="7" fill="rgb(255,36,0)" opacity="0.35"/>
<circle cx="141" cy="243" r="5.0" fill="rgb(255,36,0)"/>
<circle cx="155" cy="243" r="7" fill="rgb(255,72,0)" opacity="0.35"/>
<circle cx="155" cy="243" r="5.0" fill="rgb(255,72,0)"/>
<circle cx="169" cy="243" r="7" fill="rgb(255,108,0)" opacity="0.35"/>
<circle cx="169" cy="243" r="5.0" fill="rgb(255,108,0)"/>
<circle cx="183" cy="243" r="7" fill="rgb(255,143,0)" opacity="0.35"/>
<circle cx="183" cy="243" r="5.0" fill="rgb(255,143,0)"/>
<circle cx="197" cy="243" r="7" fill="rgb(255,179,0)" opacity="0.35"/>
<circle cx="197" cy="243" r="5.0" fill="rgb(255,179,0)"/>
<circle cx="211" cy="243" r="7" fill="rgb(255,215,0)" opacity="0.35"/>
<circle cx="211" cy="243" r="5.0" fill="rgb(255,215,0)"/>
<circle cx="225" cy="243" r="7" fill="rgb(255,251,0)" opacity="0.35"/>
<circle cx="225" cy="243" r="5.0" fill="rgb(255,251,0)"/>
<circle cx="15" cy="257" r="7" fill="rgb(223,255,0)" opacity="0.35"/>
<circle cx="15" cy="257" r="5.0" fill="rgb(223,255,0)"/>
<circle cx="29" cy="257" r="7" fill="rgb(187,255,0)" opacity="0.35"/>
<circle cx="29" cy="257" r="5.0" fill="rgb(187,255,0)"/>
<circle cx="43" cy="257" r="7" fill="rgb(151,255,0)" opacity="0.35"/>
<circle cx="43" cy="257" r="5.0" fill="rgb(151,255,0)"/>
<circle cx="57" cy="257" r="7" fill="rgb(116,255,0)" opacity="0.35"/>
<circle cx="57" cy="257" r="5.0" fill="rgb(116,255,0)"/>
<circle cx="71" cy="257" r="7" fill="rgb(80,255,0)" opacity="0.35"/>
<circle cx="71" cy="257" r="5.0" fill="rgb(80,255,0)"/>
<circle cx="85" cy="257" r="7" fill="rgb(44,255,0)" opacity="0.35"/>
<circle cx="85" cy="257" r="5.0" fill="rgb(44,255,0)"/>
<circle cx="99" cy="257" r="7" fill="rgb(8,255,0)" opacity="0.35"/>
<circle cx="99" cy="257" r="5.0" fill="rgb(8,255,0)"/>
<circle cx="113" cy="257" r="7" fill="rgb(0,255,28)" opacity="0.35"/>
<circle cx="113" cy="257" r="5.0" fill="rgb(0,255,28)"/>
<circle cx="127" cy="257" r="7" fill="rgb(0,255,64)" opacity="0.35"/>
<circle cx="127" cy="257" r="5.0" fill="rgb(0,255,64)"/>
<circle cx="141" cy="257" r="7" fill="rgb(0,255,100)" opacity="0.35"/>
<circle cx="141" cy="257" r="5.0" fill="rgb(0,255,100)"/>
<circle cx="155" cy="257" r="7" fill="rgb(0,255,135)" opacity="0.35"/>
<circle cx="155" cy="257" r="5.0" fill="rgb(0,255,135)"/>
<circle cx="169" cy="257" r="7" fill="rgb(0,255,171)" opacity="0.35"/>
<circle cx="169" cy="257" r="5.0" fill="rgb(0,255,171)"/>
<circle cx="183" cy="257" r="7" fill="rgb(0,255,207)" opacity="0.35"/>
<circle cx="183" cy="257" r="5.0" fill="rgb(0,255,207)"/>
<circle cx="197" cy="257" r="7" fill="rgb(0,255,243)" opacity="0.35"/>
<circle cx="197" cy="257" r="5.0" fill="rgb(0,255,243)"/>
<circle cx="211" cy="257" r="7" fill="rgb(0,231,255)" opacity="0.35"/>
<circle cx="211" cy="257" r="5.0" fill="rgb(0,231,255)"/>
<circle cx="225" cy="257" r="7" fill="rgb(0,195,255)" opacity="0.35"/>
<circle cx="225" cy="257" r="5.0" fill="rgb(0,195,255)"/>
<circle cx="-2" cy="280" r="9" fill="#9aa0a6" opacity="0.25"/>
<circle cx="-2" cy="280" r="6" fill="#9aa0a6" stroke="#0d0f12" stroke-width="1.5"/>
<text x="10" y="284" font-family="'JetBrains Mono','Cascadia Mono','Consolas',monospace" font-size="12" fill="#a0a0a0">Speed</text>
<circle cx="242" cy="280" r="9" fill="#5ad1ff" opacity="0.25"/>
<circle cx="242" cy="280" r="6" fill="#5ad1ff" stroke="#0d0f12" stroke-width="1.5"/>
<text x="230" y="284" text-anchor="end" font-family="'JetBrains Mono','Cascadia Mono','Consolas',monospace" font-size="12" fill="#a0a0a0">Frame</text>
<line x1="8" y1="300" x2="232" y2="300" stroke="rgba(255,255,255,0.08)"/>
<text x="8" y="320" font-family="'JetBrains Mono','Cascadia Mono','Consolas',monospace" font-size="12" fill="#a0a0a0">speed</text>
<g>
<rect x="120" y="314" width="72" height="4" rx="2" fill="#cfd2d6" opacity="0.85"/>
<rect x="120" y="314" width="21.6" height="4" rx="2" fill="#d633ff"/>
<circle cx="141.6" cy="316" r="5" fill="#d633ff"/>
<text x="232" y="320" text-anchor="end" font-family="'JetBrains Mono','Cascadia Mono','Consolas',monospace" font-size="12" fill="#e0e0e0">0.3</text>
</g>
<text x="8" y="341" font-family="'JetBrains Mono','Cascadia Mono','Consolas',monospace" font-size="12" fill="#a0a0a0">deltaHue</text>
<g>
<rect x="120" y="335" width="72" height="4" rx="2" fill="#cfd2d6" opacity="0.85"/>
<rect x="120" y="335" width="13.5" height="4" rx="2" fill="#d633ff"/>
<circle cx="133.5" cy="337" r="5" fill="#d633ff"/>
<text x="232" y="341" text-anchor="end" font-family="'JetBrains Mono','Cascadia Mono','Consolas',monospace" font-size="12" fill="#e0e0e0">6</text>
</g>
<text x="8" y="362" font-family="'JetBrains Mono','Cascadia Mono','Consolas',monospace" font-size="12" fill="#a0a0a0">clamp inputs</text>
<g>
<rect x="220" y="352" width="12" height="12" rx="3" fill="#0d0f12" stroke="rgba(255,255,255,0.12)"/>
</g>
</g>
</svg>
