<svg xmlns="http://www.w3.org/2000/svg" viewBox="0 0 296 184" width="296" height="184" role="img" aria-label="Random node">

<defs><filter id="shadow" x="-20%" y="-20%" width="140%" height="160%"><feDropShadow dx="0" dy="8" stdDeviation="9" flood-color="#000" flood-opacity="0.45"/></filter></defs>
<g transform="translate(28,24)">
<rect x="0" y="0" width="240" height="126" rx="8" fill="#1f242b" stroke="rgba(255,255,255,0.12)" filter="url(#shadow)"/>
<rect x="0" y="0" width="240" height="126" rx="8" fill="#1f242b" stroke="rgba(255,255,255,0.12)"/>
<path d="M0,32 L0,8 Q0,0 8,0 L232,0 Q240,0 240,8 L240,32 Z" fill="#33ff33"/>
<text x="8" y="21" font-family="'Audiowide','Trebuchet MS','Arial Black',sans-serif" font-size="14" font-weight="600" fill="#000">Random</text>
<rect x="154" y="10" width="25" height="12" rx="6" fill="rgba(0,0,0,0.14)" stroke="rgba(255,255,255,0.14)"/>
<text x="166.5" y="19" text-anchor="middle" font-family="'JetBrains Mono','Cascadia Mono','Consolas',monospace" font-size="8" letter-spacing="0.08em" fill="#000">SIG</text>
<rect x="185" y="10" width="47" height="12" rx="6" fill="rgba(0,0,0,0.14)" stroke="rgba(255,255,255,0.14)"/>
<text x="208.5" y="19" text-anchor="middle" font-family="'JetBrains Mono','Cascadia Mono','Consolas',monospace" font-size="8" letter-spacing="0.08em" fill="#000">RAN-679</text>
<circle cx="242" cy="52" r="9" fill="#9aa0a6" opacity="0.25"/>
<circle cx="242" cy="52" r="6" fill="#9aa0a6" stroke="#0d0f12" stroke-width="1.5"/>
<text x="230" y="56" text-anchor="end" font-family="'JetBrains Mono','Cascadia Mono','Consolas',monospace" font-size="12" fill="#a0a0a0">Value</text>
<line x1="8" y1="72" x2="232" y2="72" stroke="rgba(255,255,255,0.08)"/>
<text x="8" y="92" font-family="'JetBrains Mono','Cascadia Mono','Consolas',monospace" font-size="12" fill="#a0a0a0">min</text>
<g>
<rect x="160" y="80" width="72" height="16" rx="4" fill="#0d0f12" stroke="rgba(255,255,255,0.12)"/>
<text x="164" y="92" font-family="'JetBrains Mono','Cascadia Mono','Consolas',monospace" font-size="11" fill="#e0e0e0">0</text>
</g>
<text x="8" y="113" font-family="'JetBrains Mono','Cascadia Mono','Consolas',monospace" font-size="12" fill="#a0a0a0">max</text>
<g>
<rect x="160" y="101" width="72" height="16" rx="4" fill="#0d0f12" stroke="rgba(255,255,255,0.12)"/>
<text x="164" y="113" font-family="'JetBrains Mono','Cascadia Mono','Consolas',monospace" font-size="11" fill="#e0e0e0">1</text>
</g>
</g>
</svg>
