<svg xmlns="http://www.w3.org/2000/svg" viewBox="0 0 296 247" width="296" height="247" role="img" aria-label="SD Card node">

<defs><filter id="shadow" x="-20%" y="-20%" width="140%" height="160%"><feDropShadow dx="0" dy="8" stdDeviation="9" flood-color="#000" flood-opacity="0.45"/></filter></defs>
<g transform="translate(28,24)">
<rect x="0" y="0" width="240" height="189" rx="8" fill="#1f242b" stroke="rgba(255,255,255,0.12)" filter="url(#shadow)"/>
<rect x="0" y="0" width="240" height="189" rx="8" fill="#1f242b" stroke="rgba(255,255,255,0.12)"/>
<path d="M0,32 L0,8 Q0,0 8,0 L232,0 Q240,0 240,8 L240,32 Z" fill="#8533ff"/>
<text x="8" y="21" font-family="'Audiowide','Trebuchet MS','Arial Black',sans-serif" font-size="14" font-weight="600" fill="#000">SD Card</text>
<rect x="154" y="10" width="25" height="12" rx="6" fill="rgba(0,0,0,0.14)" stroke="rgba(255,255,255,0.14)"/>
<text x="166.5" y="19" text-anchor="middle" font-family="'JetBrains Mono','Cascadia Mono','Consolas',monospace" font-size="8" letter-spacing="0.08em" fill="#000">SHW</text>
<rect x="185" y="10" width="47" height="12" rx="6" fill="rgba(0,0,0,0.14)" stroke="rgba(255,255,255,0.14)"/>
<text x="208.5" y="19" text-anchor="middle" font-family="'JetBrains Mono','Cascadia Mono','Consolas',monospace" font-size="8" letter-spacing="0.08em" fill="#000">SDC-509</text>
<circle cx="-2" cy="52" r="9" fill="#ffa726" opacity="0.25"/>
<circle cx="-2" cy="52" r="6" fill="#ffa726" stroke="#0d0f12" stroke-width="1.5"/>
<text x="10" y="56" font-family="'JetBrains Mono','Cascadia Mono','Consolas',monospace" font-size="12" fill="#a0a0a0">Shows</text>
<circle cx="242" cy="52" r="9" fill="#ffa500" opacity="0.25"/>
<circle cx="242" cy="52" r="6" fill="#ffa500" stroke="#0d0f12" stroke-width="1.5"/>
<text x="230" y="56" text-anchor="end" font-family="'JetBrains Mono','Cascadia Mono','Consolas',monospace" font-size="12" fill="#a0a0a0">SD Card</text>
<line x1="8" y1="72" x2="232" y2="72" stroke="rgba(255,255,255,0.08)"/>
<text x="8" y="92" font-family="'JetBrains Mono','Cascadia Mono','Consolas',monospace" font-size="12" fill="#a0a0a0">sdCsPin</text>
<g>
<rect x="160" y="80" width="72" height="16" rx="4" fill="#0d0f12" stroke="rgba(255,255,255,0.12)"/>
<text x="164" y="92" font-family="'JetBrains Mono','Cascadia Mono','Consolas',monospace" font-size="11" fill="#e0e0e0">10</text>
</g>
<text x="8" y="113" font-family="'JetBrains Mono','Cascadia Mono','Consolas',monospace" font-size="12" fill="#a0a0a0">i2sBclk</text>
<g>
<rect x="160" y="101" width="72" height="16" rx="4" fill="#0d0f12" stroke="rgba(255,255,255,0.12)"/>
<text x="164" y="113" font-family="'JetBrains Mono','Cascadia Mono','Consolas',monospace" font-size="11" fill="#e0e0e0">26</text>
</g>
<text x="8" y="134" font-family="'JetBrains Mono','Cascadia Mono','Consolas',monospace" font-size="12" fill="#a0a0a0">i2sLrc</text>
<g>
<rect x="160" y="122" width="72" height="16" rx="4" fill="#0d0f12" stroke="rgba(255,255,255,0.12)"/>
<text x="164" y="134" font-family="'JetBrains Mono','Cascadia Mono','Consolas',monospace" font-size="11" fill="#e0e0e0">25</text>
</g>
<text x="8" y="155" font-family="'JetBrains Mono','Cascadia Mono','Consolas',monospace" font-size="12" fill="#a0a0a0">i2sDout</text>
<g>
<rect x="160" y="143" width="72" height="16" rx="4" fill="#0d0f12" stroke="rgba(255,255,255,0.12)"/>
<text x="164" y="155" font-family="'JetBrains Mono','Cascadia Mono','Consolas',monospace" font-size="11" fill="#e0e0e0">22</text>
</g>
<text x="8" y="176" font-family="'JetBrains Mono','Cascadia Mono','Consolas',monospace" font-size="12" fill="#a0a0a0">maxVolume</text>
<g>
<rect x="160" y="164" width="72" height="16" rx="4" fill="#0d0f12" stroke="rgba(255,255,255,0.12)"/>
<text x="164" y="176" font-family="'JetBrains Mono','Cascadia Mono','Consolas',monospace" font-size="11" fill="#e0e0e0">18</text>
</g>
</g>
</svg>
