<svg xmlns="http://www.w3.org/2000/svg" viewBox="0 0 296 727" width="296" height="727" role="img" aria-label="Shape node">

<defs><filter id="shadow" x="-20%" y="-20%" width="140%" height="160%"><feDropShadow dx="0" dy="8" stdDeviation="9" flood-color="#000" flood-opacity="0.45"/></filter></defs>
<g transform="translate(28,24)">
<rect x="0" y="0" width="240" height="669" rx="8" fill="#1f242b" stroke="rgba(255,255,255,0.12)" filter="url(#shadow)"/>
<rect x="0" y="0" width="240" height="669" rx="8" fill="#1f242b" stroke="rgba(255,255,255,0.12)"/>
<path d="M0,32 L0,8 Q0,0 8,0 L232,0 Q240,0 240,8 L240,32 Z" fill="#33d6ff"/>
<text x="8" y="21" font-family="'Audiowide','Trebuchet MS','Arial Black',sans-serif" font-size="14" font-weight="600" fill="#000">Shape</text>
<rect x="154" y="10" width="25" height="12" rx="6" fill="rgba(0,0,0,0.14)" stroke="rgba(255,255,255,0.14)"/>
<text x="166.5" y="19" text-anchor="middle" font-family="'JetBrains Mono','Cascadia Mono','Consolas',monospace" font-size="8" letter-spacing="0.08em" fill="#000">PAT</text>
<rect x="185" y="10" width="47" height="12" rx="6" fill="rgba(0,0,0,0.14)" stroke="rgba(255,255,255,0.14)"/>
<text x="208.5" y="19" text-anchor="middle" font-family="'JetBrains Mono','Cascadia Mono','Consolas',monospace" font-size="8" letter-spacing="0.08em" fill="#000">SHA-297</text>
<circle cx="141" cy="61" r="7" fill="rgb(47,22,38)" opacity="0.35"/>
<circle cx="141" cy="61" r="5.0" fill="rgb(47,22,38)"/>
<circle cx="155" cy="61" r="7" fill="rgb(17,4,10)" opacity="0.35"/>
<circle cx="155" cy="61" r="5.0" fill="rgb(17,4,10)"/>
<circle cx="85" cy="75" r="7" fill="rgb(22,6,13)" opacity="0.35"/>
<circle cx="85" cy="75" r="5.0" fill="rgb(22,6,13)"/>
<circle cx="99" cy="75" r="7" fill="rgb(62,49,74)" opacity="0.35"/>
<circle cx="99" cy="75" r="5.0" fill="rgb(62,49,74)"/>
<circle cx="113" cy="75" r="7" fill="rgb(53,121,154)" opacity="0.35"/>
<circle cx="113" cy="75" r="5.0" fill="rgb(53,121,154)"/>
<circle cx="127" cy="75" r="7" fill="rgb(0,224,255)" opacity="0.35"/>
<circle cx="127" cy="75" r="5.0" fill="rgb(0,224,255)"/>
<circle cx="141" cy="75" r="7" fill="rgb(0,224,255)" opacity="0.35"/>
<circle cx="141" cy="75" r="5.0" fill="rgb(0,224,255)"/>
<circle cx="155" cy="75" r="7" fill="rgb(43,147,180)" opacity="0.35"/>
<circle cx="155" cy="75" r="5.0" fill="rgb(43,147,180)"/>
<circle cx="57" cy="89" r="7" fill="rgb(57,36,57)" opacity="0.35"/>
<circle cx="57" cy="89" r="5.0" fill="rgb(57,36,57)"/>
<circle cx="71" cy="89" r="7" fill="rgb(53,123,155)" opacity="0.35"/>
<circle cx="71" cy="89" r="5.0" fill="rgb(53,123,155)"/>
<circle cx="85" cy="89" r="7" fill="rgb(0,224,255)" opacity="0.35"/>
<circle cx="85" cy="89" r="5.0" fill="rgb(0,224,255)"/>
<circle cx="99" cy="89" r="7" fill="rgb(0,224,255)" opacity="0.35"/>
<circle cx="99" cy="89" r="5.0" fill="rgb(0,224,255)"/>
<circle cx="113" cy="89" r="7" fill="rgb(43,179,215)" opacity="0.35"/>
<circle cx="113" cy="89" r="5.0" fill="rgb(43,179,215)"/>
<circle cx="127" cy="89" r="7" fill="rgb(140,127,185)" opacity="0.35"/>
<circle cx="127" cy="89" r="5.0" fill="rgb(140,127,185)"/>
<circle cx="141" cy="89" r="7" fill="rgb(248,53,131)" opacity="0.35"/>
<circle cx="141" cy="89" r="5.0" fill="rgb(248,53,131)"/>
<circle cx="155" cy="89" r="7" fill="rgb(0,224,255)" opacity="0.35"/>
<circle cx="155" cy="89" r="5.0" fill="rgb(0,224,255)"/>
<circle cx="169" cy="89" r="7" fill="rgb(61,93,123)" opacity="0.35"/>
<circle cx="169" cy="89" r="5.0" fill="rgb(61,93,123)"/>
<circle cx="43" cy="103" r="7" fill="rgb(63,64,92)" opacity="0.35"/>
<circle cx="43" cy="103" r="5.0" fill="rgb(63,64,92)"/>
<circle cx="57" cy="103" r="7" fill="rgb(0,224,255)" opacity="0.35"/>
<circle cx="57" cy="103" r="5.0" fill="rgb(0,224,255)"/>
<circle cx="71" cy="103" r="7" fill="rgb(63,180,223)" opacity="0.35"/>
<circle cx="71" cy="103" r="5.0" fill="rgb(63,180,223)"/>
<circle cx="85" cy="103" r="7" fill="rgb(138,129,186)" opacity="0.35"/>
<circle cx="85" cy="103" r="5.0" fill="rgb(138,129,186)"/>
<circle cx="99" cy="103" r="7" fill="rgb(208,80,151)" opacity="0.35"/>
<circle cx="99" cy="103" r="5.0" fill="rgb(208,80,151)"/>
<circle cx="113" cy="103" r="7" fill="rgb(255,48,128)" opacity="0.35"/>
<circle cx="113" cy="103" r="5.0" fill="rgb(255,48,128)"/>
<circle cx="127" cy="103" r="7" fill="rgb(255,48,128)" opacity="0.35"/>
<circle cx="127" cy="103" r="5.0" fill="rgb(255,48,128)"/>
<circle cx="141" cy="103" r="7" fill="rgb(255,48,128)" opacity="0.35"/>
<circle cx="141" cy="103" r="5.0" fill="rgb(255,48,128)"/>
<circle cx="155" cy="103" r="7" fill="rgb(144,124,183)" opacity="0.35"/>
<circle cx="155" cy="103" r="5.0" fill="rgb(144,124,183)"/>
<circle cx="169" cy="103" r="7" fill="rgb(0,224,255)" opacity="0.35"/>
<circle cx="169" cy="103" r="5.0" fill="rgb(0,224,255)"/>
<circle cx="183" cy="103" r="7" fill="rgb(62,48,73)" opacity="0.35"/>
<circle cx="183" cy="103" r="5.0" fill="rgb(62,48,73)"/>
<circle cx="43" cy="117" r="7" fill="rgb(63,77,106)" opacity="0.35"/>
<circle cx="43" cy="117" r="5.0" fill="rgb(63,77,106)"/>
<circle cx="57" cy="117" r="7" fill="rgb(36,178,213)" opacity="0.35"/>
<circle cx="57" cy="117" r="5.0" fill="rgb(36,178,213)"/>
<circle cx="71" cy="117" r="7" fill="rgb(255,48,128)" opacity="0.35"/>
<circle cx="71" cy="117" r="5.0" fill="rgb(255,48,128)"/>
<circle cx="85" cy="117" r="7" fill="rgb(255,48,128)" opacity="0.35"/>
<circle cx="85" cy="117" r="5.0" fill="rgb(255,48,128)"/>
<circle cx="99" cy="117" r="7" fill="rgb(255,48,128)" opacity="0.35"/>
<circle cx="99" cy="117" r="5.0" fill="rgb(255,48,128)"/>
<circle cx="113" cy="117" r="7" fill="rgb(255,48,128)" opacity="0.35"/>
<circle cx="113" cy="117" r="5.0" fill="rgb(255,48,128)"/>
<circle cx="127" cy="117" r="7" fill="rgb(255,48,128)" opacity="0.35"/>
<circle cx="127" cy="117" r="5.0" fill="rgb(255,48,128)"/>
<circle cx="141" cy="117" r="7" fill="rgb(255,48,128)" opacity="0.35"/>
<circle cx="141" cy="117" r="5.0" fill="rgb(255,48,128)"/>
<circle cx="155" cy="117" r="7" fill="rgb(255,48,128)" opacity="0.35"/>
<circle cx="155" cy="117" r="5.0" fill="rgb(255,48,128)"/>
<circle cx="169" cy="117" r="7" fill="rgb(77,171,217)" opacity="0.35"/>
<circle cx="169" cy="117" r="5.0" fill="rgb(77,171,217)"/>
<circle cx="183" cy="117" r="7" fill="rgb(2,221,252)" opacity="0.35"/>
<circle cx="183" cy="117" r="5.0" fill="rgb(2,221,252)"/>
<circle cx="197" cy="117" r="7" fill="rgb(35,13,24)" opacity="0.35"/>
<circle cx="197" cy="117" r="5.0" fill="rgb(35,13,24)"/>
<circle cx="43" cy="131" r="7" fill="rgb(62,87,117)" opacity="0.35"/>
<circle cx="43" cy="131" r="5.0" fill="rgb(62,87,117)"/>
<circle cx="57" cy="131" r="7" fill="rgb(27,177,210)" opacity="0.35"/>
<circle cx="57" cy="131" r="5.0" fill="rgb(27,177,210)"/>
<circle cx="71" cy="131" r="7" fill="rgb(255,48,128)" opacity="0.35"/>
<circle cx="71" cy="131" r="5.0" fill="rgb(255,48,128)"/>
<circle cx="85" cy="131" r="7" fill="rgb(255,48,128)" opacity="0.35"/>
<circle cx="85" cy="131" r="5.0" fill="rgb(255,48,128)"/>
<circle cx="99" cy="131" r="7" fill="rgb(255,48,128)" opacity="0.35"/>
<circle cx="99" cy="131" r="5.0" fill="rgb(255,48,128)"/>
<circle cx="113" cy="131" r="7" fill="rgb(255,48,128)" opacity="0.35"/>
<circle cx="113" cy="131" r="5.0" fill="rgb(255,48,128)"/>
<circle cx="127" cy="131" r="7" fill="rgb(255,48,128)" opacity="0.35"/>
<circle cx="127" cy="131" r="5.0" fill="rgb(255,48,128)"/>
<circle cx="141" cy="131" r="7" fill="rgb(255,48,128)" opacity="0.35"/>
<circle cx="141" cy="131" r="5.0" fill="rgb(255,48,128)"/>
<circle cx="155" cy="131" r="7" fill="rgb(255,48,128)" opacity="0.35"/>
<circle cx="155" cy="131" r="5.0" fill="rgb(255,48,128)"/>
<circle cx="169" cy="131" r="7" fill="rgb(235,62,138)" opacity="0.35"/>
<circle cx="169" cy="131" r="5.0" fill="rgb(235,62,138)"/>
<circle cx="183" cy="131" r="7" fill="rgb(23,187,219)" opacity="0.35"/>
<circle cx="183" cy="131" r="5.0" fill="rgb(23,187,219)"/>
<circle cx="197" cy="131" r="7" fill="rgb(49,132,164)" opacity="0.35"/>
<circle cx="197" cy="131" r="5.0" fill="rgb(49,132,164)"/>
<circle cx="43" cy="145" r="7" fill="rgb(61,93,123)" opacity="0.35"/>
<circle cx="43" cy="145" r="5.0" fill="rgb(61,93,123)"/>
<circle cx="57" cy="145" r="7" fill="rgb(24,183,216)" opacity="0.35"/>
<circle cx="57" cy="145" r="5.0" fill="rgb(24,183,216)"/>
<circle cx="71" cy="145" r="7" fill="rgb(255,48,128)" opacity="0.35"/>
<circle cx="71" cy="145" r="5.0" fill="rgb(255,48,128)"/>
<circle cx="85" cy="145" r="7" fill="rgb(255,48,128)" opacity="0.35"/>
<circle cx="85" cy="145" r="5.0" fill="rgb(255,48,128)"/>
<circle cx="99" cy="145" r="7" fill="rgb(255,48,128)" opacity="0.35"/>
<circle cx="99" cy="145" r="5.0" fill="rgb(255,48,128)"/>
<circle cx="113" cy="145" r="7" fill="rgb(255,48,128)" opacity="0.35"/>
<circle cx="113" cy="145" r="5.0" fill="rgb(255,48,128)"/>
<circle cx="127" cy="145" r="7" fill="rgb(255,48,128)" opacity="0.35"/>
<circle cx="127" cy="145" r="5.0" fill="rgb(255,48,128)"/>
<circle cx="141" cy="145" r="7" fill="rgb(255,48,128)" opacity="0.35"/>
<circle cx="141" cy="145" r="5.0" fill="rgb(255,48,128)"/>
<circle cx="155" cy="145" r="7" fill="rgb(255,48,128)" opacity="0.35"/>
<circle cx="155" cy="145" r="5.0" fill="rgb(255,48,128)"/>
<circle cx="169" cy="145" r="7" fill="rgb(255,48,128)" opacity="0.35"/>
<circle cx="169" cy="145" r="5.0" fill="rgb(255,48,128)"/>
<circle cx="183" cy="145" r="7" fill="rgb(206,82,152)" opacity="0.35"/>
<circle cx="183" cy="145" r="5.0" fill="rgb(206,82,152)"/>
<circle cx="197" cy="145" r="7" fill="rgb(0,224,255)" opacity="0.35"/>
<circle cx="197" cy="145" r="5.0" fill="rgb(0,224,255)"/>
<circle cx="211" cy="145" r="7" fill="rgb(62,53,79)" opacity="0.35"/>
<circle cx="211" cy="145" r="5.0" fill="rgb(62,53,79)"/>
<circle cx="43" cy="159" r="7" fill="rgb(61,93,123)" opacity="0.35"/>
<circle cx="43" cy="159" r="5.0" fill="rgb(61,93,123)"/>
<circle cx="57" cy="159" r="7" fill="rgb(24,183,216)" opacity="0.35"/>
<circle cx="57" cy="159" r="5.0" fill="rgb(24,183,216)"/>
<circle cx="71" cy="159" r="7" fill="rgb(255,48,128)" opacity="0.35"/>
<circle cx="71" cy="159" r="5.0" fill="rgb(255,48,128)"/>
<circle cx="85" cy="159" r="7" fill="rgb(255,48,128)" opacity="0.35"/>
<circle cx="85" cy="159" r="5.0" fill="rgb(255,48,128)"/>
<circle cx="99" cy="159" r="7" fill="rgb(255,48,128)" opacity="0.35"/>
<circle cx="99" cy="159" r="5.0" fill="rgb(255,48,128)"/>
<circle cx="113" cy="159" r="7" fill="rgb(255,48,128)" opacity="0.35"/>
<circle cx="113" cy="159" r="5.0" fill="rgb(255,48,128)"/>
<circle cx="127" cy="159" r="7" fill="rgb(255,48,128)" opacity="0.35"/>
<circle cx="127" cy="159" r="5.0" fill="rgb(255,48,128)"/>
<circle cx="141" cy="159" r="7" fill="rgb(255,48,128)" opacity="0.35"/>
<circle cx="141" cy="159" r="5.0" fill="rgb(255,48,128)"/>
<circle cx="155" cy="159" r="7" fill="rgb(255,48,128)" opacity="0.35"/>
<circle cx="155" cy="159" r="5.0" fill="rgb(255,48,128)"/>
<circle cx="169" cy="159" r="7" fill="rgb(255,48,128)" opacity="0.35"/>
<circle cx="169" cy="159" r="5.0" fill="rgb(255,48,128)"/>
<circle cx="183" cy="159" r="7" fill="rgb(206,82,152)" opacity="0.35"/>
<circle cx="183" cy="159" r="5.0" fill="rgb(206,82,152)"/>
<circle cx="197" cy="159" r="7" fill="rgb(0,224,255)" opacity="0.35"/>
<circle cx="197" cy="159" r="5.0" fill="rgb(0,224,255)"/>
<circle cx="211" cy="159" r="7" fill="rgb(62,53,79)" opacity="0.35"/>
<circle cx="211" cy="159" r="5.0" fill="rgb(62,53,79)"/>
<circle cx="43" cy="173" r="7" fill="rgb(62,87,117)" opacity="0.35"/>
<circle cx="43" cy="173" r="5.0" fill="rgb(62,87,117)"/>
<circle cx="57" cy="173" r="7" fill="rgb(27,177,210)" opacity="0.35"/>
<circle cx="57" cy="173" r="5.0" fill="rgb(27,177,210)"/>
<circle cx="71" cy="173" r="7" fill="rgb(255,48,128)" opacity="0.35"/>
<circle cx="71" cy="173" r="5.0" fill="rgb(255,48,128)"/>
<circle cx="85" cy="173" r="7" fill="rgb(255,48,128)" opacity="0.35"/>
<circle cx="85" cy="173" r="5.0" fill="rgb(255,48,128)"/>
<circle cx="99" cy="173" r="7" fill="rgb(255,48,128)" opacity="0.35"/>
<circle cx="99" cy="173" r="5.0" fill="rgb(255,48,128)"/>
<circle cx="113" cy="173" r="7" fill="rgb(255,48,128)" opacity="0.35"/>
<circle cx="113" cy="173" r="5.0" fill="rgb(255,48,128)"/>
<circle cx="127" cy="173" r="7" fill="rgb(255,48,128)" opacity="0.35"/>
<circle cx="127" cy="173" r="5.0" fill="rgb(255,48,128)"/>
<circle cx="141" cy="173" r="7" fill="rgb(255,48,128)" opacity="0.35"/>
<circle cx="141" cy="173" r="5.0" fill="rgb(255,48,128)"/>
<circle cx="155" cy="173" r="7" fill="rgb(255,48,128)" opacity="0.35"/>
<circle cx="155" cy="173" r="5.0" fill="rgb(255,48,128)"/>
<circle cx="169" cy="173" r="7" fill="rgb(235,62,138)" opacity="0.35"/>
<circle cx="169" cy="173" r="5.0" fill="rgb(235,62,138)"/>
<circle cx="183" cy="173" r="7" fill="rgb(23,187,219)" opacity="0.35"/>
<circle cx="183" cy="173" r="5.0" fill="rgb(23,187,219)"/>
<circle cx="197" cy="173" r="7" fill="rgb(49,132,164)" opacity="0.35"/>
<circle cx="197" cy="173" r="5.0" fill="rgb(49,132,164)"/>
<circle cx="43" cy="187" r="7" fill="rgb(63,77,106)" opacity="0.35"/>
<circle cx="43" cy="187" r="5.0" fill="rgb(63,77,106)"/>
<circle cx="57" cy="187" r="7" fill="rgb(36,178,213)" opacity="0.35"/>
<circle cx="57" cy="187" r="5.0" fill="rgb(36,178,213)"/>
<circle cx="71" cy="187" r="7" fill="rgb(255,48,128)" opacity="0.35"/>
<circle cx="71" cy="187" r="5.0" fill="rgb(255,48,128)"/>
<circle cx="85" cy="187" r="7" fill="rgb(255,48,128)" opacity="0.35"/>
<circle cx="85" cy="187" r="5.0" fill="rgb(255,48,128)"/>
<circle cx="99" cy="187" r="7" fill="rgb(255,48,128)" opacity="0.35"/>
<circle cx="99" cy="187" r="5.0" fill="rgb(255,48,128)"/>
<circle cx="113" cy="187" r="7" fill="rgb(255,48,128)" opacity="0.35"/>
<circle cx="113" cy="187" r="5.0" fill="rgb(255,48,128)"/>
<circle cx="127" cy="187" r="7" fill="rgb(255,48,128)" opacity="0.35"/>
<circle cx="127" cy="187" r="5.0" fill="rgb(255,48,128)"/>
<circle cx="141" cy="187" r="7" fill="rgb(255,48,128)" opacity="0.35"/>
<circle cx="141" cy="187" r="5.0" fill="rgb(255,48,128)"/>
<circle cx="155" cy="187" r="7" fill="rgb(255,48,128)" opacity="0.35"/>
<circle cx="155" cy="187" r="5.0" fill="rgb(255,48,128)"/>
<circle cx="169" cy="187" r="7" fill="rgb(77,171,217)" opacity="0.35"/>
<circle cx="169" cy="187" r="5.0" fill="rgb(77,171,217)"/>
<circle cx="183" cy="187" r="7" fill="rgb(2,221,252)" opacity="0.35"/>
<circle cx="183" cy="187" r="5.0" fill="rgb(2,221,252)"/>
<circle cx="197" cy="187" r="7" fill="rgb(35,13,24)" opacity="0.35"/>
<circle cx="197" cy="187" r="5.0" fill="rgb(35,13,24)"/>
<circle cx="43" cy="201" r="7" fill="rgb(63,64,92)" opacity="0.35"/>
<circle cx="43" cy="201" r="5.0" fill="rgb(63,64,92)"/>
<circle cx="57" cy="201" r="7" fill="rgb(0,224,255)" opacity="0.35"/>
<circle cx="57" cy="201" r="5.0" fill="rgb(0,224,255)"/>
<circle cx="71" cy="201" r="7" fill="rgb(63,180,223)" opacity="0.35"/>
<circle cx="71" cy="201" r="5.0" fill="rgb(63,180,223)"/>
<circle cx="85" cy="201" r="7" fill="rgb(138,129,186)" opacity="0.35"/>
<circle cx="85" cy="201" r="5.0" fill="rgb(138,129,186)"/>
<circle cx="99" cy="201" r="7" fill="rgb(208,80,151)" opacity="0.35"/>
<circle cx="99" cy="201" r="5.0" fill="rgb(208,80,151)"/>
<circle cx="113" cy="201" r="7" fill="rgb(255,48,128)" opacity="0.35"/>
<circle cx="113" cy="201" r="5.0" fill="rgb(255,48,128)"/>
<circle cx="127" cy="201" r="7" fill="rgb(255,48,128)" opacity="0.35"/>
<circle cx="127" cy="201" r="5.0" fill="rgb(255,48,128)"/>
<circle cx="141" cy="201" r="7" fill="rgb(255,48,128)" opacity="0.35"/>
<circle cx="141" cy="201" r="5.0" fill="rgb(255,48,128)"/>
<circle cx="155" cy="201" r="7" fill="rgb(144,124,183)" opacity="0.35"/>
<circle cx="155" cy="201" r="5.0" fill="rgb(144,124,183)"/>
<circle cx="169" cy="201" r="7" fill="rgb(0,224,255)" opacity="0.35"/>
<circle cx="169" cy="201" r="5.0" fill="rgb(0,224,255)"/>
<circle cx="183" cy="201" r="7" fill="rgb(62,48,73)" opacity="0.35"/>
<circle cx="183" cy="201" r="5.0" fill="rgb(62,48,73)"/>
<circle cx="57" cy="215" r="7" fill="rgb(57,36,57)" opacity="0.35"/>
<circle cx="57" cy="215" r="5.0" fill="rgb(57,36,57)"/>
<circle cx="71" cy="215" r="7" fill="rgb(53,123,155)" opacity="0.35"/>
<circle cx="71" cy="215" r="5.0" fill="rgb(53,123,155)"/>
<circle cx="85" cy="215" r="7" fill="rgb(0,224,255)" opacity="0.35"/>
<circle cx="85" cy="215" r="5.0" fill="rgb(0,224,255)"/>
<circle cx="99" cy="215" r="7" fill="rgb(0,224,255)" opacity="0.35"/>
<circle cx="99" cy="215" r="5.0" fill="rgb(0,224,255)"/>
<circle cx="113" cy="215" r="7" fill="rgb(43,179,215)" opacity="0.35"/>
<circle cx="113" cy="215" r="5.0" fill="rgb(43,179,215)"/>
<circle cx="127" cy="215" r="7" fill="rgb(140,127,185)" opacity="0.35"/>
<circle cx="127" cy="215" r="5.0" fill="rgb(140,127,185)"/>
<circle cx="141" cy="215" r="7" fill="rgb(248,53,131)" opacity="0.35"/>
<circle cx="141" cy="215" r="5.0" fill="rgb(248,53,131)"/>
<circle cx="155" cy="215" r="7" fill="rgb(0,224,255)" opacity="0.35"/>
<circle cx="155" cy="215" r="5.0" fill="rgb(0,224,255)"/>
<circle cx="169" cy="215" r="7" fill="rgb(61,93,123)" opacity="0.35"/>
<circle cx="169" cy="215" r="5.0" fill="rgb(61,93,123)"/>
<circle cx="85" cy="229" r="7" fill="rgb(22,6,13)" opacity="0.35"/>
<circle cx="85" cy="229" r="5.0" fill="rgb(22,6,13)"/>
<circle cx="99" cy="229" r="7" fill="rgb(62,49,74)" opacity="0.35"/>
<circle cx="99" cy="229" r="5.0" fill="rgb(62,49,74)"/>
<circle cx="113" cy="229" r="7" fill="rgb(53,121,154)" opacity="0.35"/>
<circle cx="113" cy="229" r="5.0" fill="rgb(53,121,154)"/>
<circle cx="127" cy="229" r="7" fill="rgb(0,224,255)" opacity="0.35"/>
<circle cx="127" cy="229" r="5.0" fill="rgb(0,224,255)"/>
<circle cx="141" cy="229" r="7" fill="rgb(0,224,255)" opacity="0.35"/>
<circle cx="141" cy="229" r="5.0" fill="rgb(0,224,255)"/>
<circle cx="155" cy="229" r="7" fill="rgb(43,147,180)" opacity="0.35"/>
<circle cx="155" cy="229" r="5.0" fill="rgb(43,147,180)"/>
<circle cx="141" cy="243" r="7" fill="rgb(47,22,38)" opacity="0.35"/>
<circle cx="141" cy="243" r="5.0" fill="rgb(47,22,38)"/>
<circle cx="155" cy="243" r="7" fill="rgb(17,4,10)" opacity="0.35"/>
<circle cx="155" cy="243" r="5.0" fill="rgb(17,4,10)"/>
<circle cx="-2" cy="280" r="9" fill="#5ad1ff" opacity="0.25"/>
<circle cx="-2" cy="280" r="6" fill="#5ad1ff" stroke="#0d0f12" stroke-width="1.5"/>
<text x="10" y="284" font-family="'JetBrains Mono','Cascadia Mono','Consolas',monospace" font-size="12" fill="#a0a0a0">Base</text>
<circle cx="242" cy="280" r="9" fill="#5ad1ff" opacity="0.25"/>
<circle cx="242" cy="280" r="6" fill="#5ad1ff" stroke="#0d0f12" stroke-width="1.5"/>
<text x="230" y="284" text-anchor="end" font-family="'JetBrains Mono','Cascadia Mono','Consolas',monospace" font-size="12" fill="#a0a0a0">Frame</text>
<circle cx="-2" cy="308" r="9" fill="#ffd24a" opacity="0.25"/>
<circle cx="-2" cy="308" r="6" fill="#ffd24a" stroke="#0d0f12" stroke-width="1.5"/>
<text x="10" y="312" font-family="'JetBrains Mono','Cascadia Mono','Consolas',monospace" font-size="12" fill="#a0a0a0">Fill</text>
<circle cx="-2" cy="336" r="9" fill="#ffd24a" opacity="0.25"/>
<circle cx="-2" cy="336" r="6" fill="#ffd24a" stroke="#0d0f12" stroke-width="1.5"/>
<text x="10" y="340" font-family="'JetBrains Mono','Cascadia Mono','Consolas',monospace" font-size="12" fill="#a0a0a0">Edge</text>
<circle cx="-2" cy="364" r="9" fill="#9aa0a6" opacity="0.25"/>
<circle cx="-2" cy="364" r="6" fill="#9aa0a6" stroke="#0d0f12" stroke-width="1.5"/>
<text x="10" y="368" font-family="'JetBrains Mono','Cascadia Mono','Consolas',monospace" font-size="12" fill="#a0a0a0">Center X</text>
<circle cx="-2" cy="392" r="9" fill="#9aa0a6" opacity="0.25"/>
<circle cx="-2" cy="392" r="6" fill="#9aa0a6" stroke="#0d0f12" stroke-width="1.5"/>
<text x="10" y="396" font-family="'JetBrains Mono','Cascadia Mono','Consolas',monospace" font-size="12" fill="#a0a0a0">Center Y</text>
<circle cx="-2" cy="420" r="9" fill="#9aa0a6" opacity="0.25"/>
<circle cx="-2" cy="420" r="6" fill="#9aa0a6" stroke="#0d0f12" stroke-width="1.5"/>
<text x="10" y="424" font-family="'JetBrains Mono','Cascadia Mono','Consolas',monospace" font-size="12" fill="#a0a0a0">Size</text>
<circle cx="-2" cy="448" r="9" fill="#9aa0a6" opacity="0.25"/>
<circle cx="-2" cy="448" r="6" fill="#9aa0a6" stroke="#0d0f12" stroke-width="1.5"/>
<text x="10" y="452" font-family="'JetBrains Mono','Cascadia Mono','Consolas',monospace" font-size="12" fill="#a0a0a0">Aspect</text>
<circle cx="-2" cy="476" r="9" fill="#9aa0a6" opacity="0.25"/>
<circle cx="-2" cy="476" r="6" fill="#9aa0a6" stroke="#0d0f12" stroke-width="1.5"/>
<text x="10" y="480" font-family="'JetBrains Mono','Cascadia Mono','Consolas',monospace" font-size="12" fill="#a0a0a0">Sides</text>
<circle cx="-2" cy="504" r="9" fill="#9aa0a6" opacity="0.25"/>
<circle cx="-2" cy="504" r="6" fill="#9aa0a6" stroke="#0d0f12" stroke-width="1.5"/>
<text x="10" y="508" font-family="'JetBrains Mono','Cascadia Mono','Consolas',monospace" font-size="12" fill="#a0a0a0">Rotation</text>
<circle cx="-2" cy="532" r="9" fill="#9aa0a6" opacity="0.25"/>
<circle cx="-2" cy="532" r="6" fill="#9aa0a6" stroke="#0d0f12" stroke-width="1.5"/>
<text x="10" y="536" font-family="'JetBrains Mono','Cascadia Mono','Consolas',monospace" font-size="12" fill="#a0a0a0">Thickness</text>
<line x1="8" y1="552" x2="232" y2="552" stroke="rgba(255,255,255,0.08)"/>
<text x="8" y="572" font-family="'JetBrains Mono','Cascadia Mono','Consolas',monospace" font-size="12" letter-spacing="0.03em" fill="#a0a0a0">▸ POSITION</text>
<text x="8" y="593" font-family="'JetBrains Mono','Cascadia Mono','Consolas',monospace" font-size="12" letter-spacing="0.03em" fill="#a0a0a0">▸ GEOMETRY</text>
<text x="8" y="614" font-family="'JetBrains Mono','Cascadia Mono','Consolas',monospace" font-size="12" letter-spacing="0.03em" fill="#a0a0a0">▸ COLOR</text>
<text x="8" y="635" font-family="'JetBrains Mono','Cascadia Mono','Consolas',monospace" font-size="12" fill="#a0a0a0">clamp inputs</text>
<g>
<rect x="220" y="625" width="12" height="12" rx="3" fill="#0d0f12" stroke="rgba(255,255,255,0.12)"/>
</g>
<text x="8" y="656" font-family="'JetBrains Mono','Cascadia Mono','Consolas',monospace" font-size="12" fill="#a0a0a0">bypass</text>
<g>
<rect x="220" y="646" width="12" height="12" rx="3" fill="#0d0f12" stroke="rgba(255,255,255,0.12)"/>
</g>
</g>
</svg>
