<svg xmlns="http://www.w3.org/2000/svg" viewBox="0 0 296 391" width="296" height="391" role="img" aria-label="Solid Color node">

<defs><filter id="shadow" x="-20%" y="-20%" width="140%" height="160%"><feDropShadow dx="0" dy="8" stdDeviation="9" flood-color="#000" flood-opacity="0.45"/></filter></defs>
<g transform="translate(28,24)">
<rect x="0" y="0" width="240" height="333" rx="8" fill="#1f242b" stroke="rgba(255,255,255,0.12)" filter="url(#shadow)"/>
<rect x="0" y="0" width="240" height="333" rx="8" fill="#1f242b" stroke="rgba(255,255,255,0.12)"/>
<path d="M0,32 L0,8 Q0,0 8,0 L232,0 Q240,0 240,8 L240,32 Z" fill="#33d6ff"/>
<text x="8" y="21" font-family="'Audiowide','Trebuchet MS','Arial Black',sans-serif" font-size="14" font-weight="600" fill="#000">Solid Color</text>
<rect x="154" y="10" width="25" height="12" rx="6" fill="rgba(0,0,0,0.14)" stroke="rgba(255,255,255,0.14)"/>
<text x="166.5" y="19" text-anchor="middle" font-family="'JetBrains Mono','Cascadia Mono','Consolas',monospace" font-size="8" letter-spacing="0.08em" fill="#000">PAT</text>
<rect x="185" y="10" width="47" height="12" rx="6" fill="rgba(0,0,0,0.14)" stroke="rgba(255,255,255,0.14)"/>
<text x="208.5" y="19" text-anchor="middle" font-family="'JetBrains Mono','Cascadia Mono','Consolas',monospace" font-size="8" letter-spacing="0.08em" fill="#000">SOL-488</text>
<rect x="8" y="40" width="224" height="224" rx="4" fill="#05070a"/>
<circle cx="15" cy="47" r="7" fill="rgb(4,33,57)" opacity="0.35"/>
<circle cx="15" cy="47" r="5.0" fill="rgb(4,33,57)"/>
<circle cx="29" cy="47" r="7" fill="rgb(3,31,53)" opacity="0.35"/>
<circle cx="29" cy="47" r="5.0" fill="rgb(3,31,53)"/>
<circle cx="43" cy="47" r="7" fill="rgb(3,27,46)" opacity="0.35"/>
<circle cx="43" cy="47" r="5.0" fill="rgb(3,27,46)"/>
<circle cx="57" cy="47" r="7" fill="rgb(2,21,36)" opacity="0.35"/>
<circle cx="57" cy="47" r="5.0" fill="rgb(2,21,36)"/>
<circle cx="71" cy="47" r="7" fill="rgb(2,15,26)" opacity="0.35"/>
<circle cx="71" cy="47" r="5.0" fill="rgb(2,15,26)"/>
<circle cx="85" cy="47" r="7" fill="rgb(1,10,17)" opacity="0.35"/>
<circle cx="85" cy="47" r="5.0" fill="rgb(1,10,17)"/>
<circle cx="99" cy="47" r="5.0" fill="#14171c"/>
<circle cx="113" cy="47" r="5.0" fill="#14171c"/>
<circle cx="127" cy="47" r="5.0" fill="#14171c"/>
<circle cx="141" cy="47" r="7" fill="rgb(1,11,19)" opacity="0.35"/>
<circle cx="141" cy="47" r="5.0" fill="rgb(1,11,19)"/>
<circle cx="155" cy="47" r="7" fill="rgb(2,18,30)" opacity="0.35"/>
<circle cx="155" cy="47" r="5.0" fill="rgb(2,18,30)"/>
<circle cx="169" cy="47" r="7" fill="rgb(3,27,46)" opacity="0.35"/>
<circle cx="169" cy="47" r="5.0" fill="rgb(3,27,46)"/>
<circle cx="183" cy="47" r="7" fill="rgb(4,38,64)" opacity="0.35"/>
<circle cx="183" cy="47" r="5.0" fill="rgb(4,38,64)"/>
<circle cx="197" cy="47" r="7" fill="rgb(5,48,82)" opacity="0.35"/>
<circle cx="197" cy="47" r="5.0" fill="rgb(5,48,82)"/>
<circle cx="211" cy="47" r="7" fill="rgb(6,57,97)" opacity="0.35"/>
<circle cx="211" cy="47" r="5.0" fill="rgb(6,57,97)"/>
<circle cx="225" cy="47" r="7" fill="rgb(7,62,105)" opacity="0.35"/>
<circle cx="225" cy="47" r="5.0" fill="rgb(7,62,105)"/>
<circle cx="15" cy="61" r="7" fill="rgb(3,26,42)" opacity="0.35"/>
<circle cx="15" cy="61" r="5.0" fill="rgb(3,26,42)"/>
<circle cx="29" cy="61" r="7" fill="rgb(3,25,39)" opacity="0.35"/>
<circle cx="29" cy="61" r="5.0" fill="rgb(3,25,39)"/>
<circle cx="43" cy="61" r="7" fill="rgb(2,21,34)" opacity="0.35"/>
<circle cx="43" cy="61" r="5.0" fill="rgb(2,21,34)"/>
<circle cx="57" cy="61" r="7" fill="rgb(2,16,26)" opacity="0.35"/>
<circle cx="57" cy="61" r="5.0" fill="rgb(2,16,26)"/>
<circle cx="71" cy="61" r="7" fill="rgb(1,12,18)" opacity="0.35"/>
<circle cx="71" cy="61" r="5.0" fill="rgb(1,12,18)"/>
<circle cx="85" cy="61" r="5.0" fill="#14171c"/>
<circle cx="99" cy="61" r="5.0" fill="#14171c"/>
<circle cx="113" cy="61" r="5.0" fill="#14171c"/>
<circle cx="127" cy="61" r="5.0" fill="#14171c"/>
<circle cx="141" cy="61" r="5.0" fill="#14171c"/>
<circle cx="155" cy="61" r="7" fill="rgb(1,13,21)" opacity="0.35"/>
<circle cx="155" cy="61" r="5.0" fill="rgb(1,13,21)"/>
<circle cx="169" cy="61" r="7" fill="rgb(2,20,32)" opacity="0.35"/>
<circle cx="169" cy="61" r="5.0" fill="rgb(2,20,32)"/>
<circle cx="183" cy="61" r="7" fill="rgb(3,29,46)" opacity="0.35"/>
<circle cx="183" cy="61" r="5.0" fill="rgb(3,29,46)"/>
<circle cx="197" cy="61" r="7" fill="rgb(4,38,61)" opacity="0.35"/>
<circle cx="197" cy="61" r="5.0" fill="rgb(4,38,61)"/>
<circle cx="211" cy="61" r="7" fill="rgb(5,46,74)" opacity="0.35"/>
<circle cx="211" cy="61" r="5.0" fill="rgb(5,46,74)"/>
<circle cx="225" cy="61" r="7" fill="rgb(6,51,82)" opacity="0.35"/>
<circle cx="225" cy="61" r="5.0" fill="rgb(6,51,82)"/>
<circle cx="15" cy="75" r="7" fill="rgb(2,18,27)" opacity="0.35"/>
<circle cx="15" cy="75" r="5.0" fill="rgb(2,18,27)"/>
<circle cx="29" cy="75" r="7" fill="rgb(2,17,26)" opacity="0.35"/>
<circle cx="29" cy="75" r="5.0" fill="rgb(2,17,26)"/>
<circle cx="43" cy="75" r="7" fill="rgb(1,15,23)" opacity="0.35"/>
<circle cx="43" cy="75" r="5.0" fill="rgb(1,15,23)"/>
<circle cx="57" cy="75" r="7" fill="rgb(1,12,18)" opacity="0.35"/>
<circle cx="57" cy="75" r="5.0" fill="rgb(1,12,18)"/>
<circle cx="71" cy="75" r="5.0" fill="#14171c"/>
<circle cx="85" cy="75" r="5.0" fill="#14171c"/>
<circle cx="99" cy="75" r="5.0" fill="#14171c"/>
<circle cx="113" cy="75" r="5.0" fill="#14171c"/>
<circle cx="127" cy="75" r="5.0" fill="#14171c"/>
<circle cx="141" cy="75" r="5.0" fill="#14171c"/>
<circle cx="155" cy="75" r="5.0" fill="#14171c"/>
<circle cx="169" cy="75" r="7" fill="rgb(1,14,22)" opacity="0.35"/>
<circle cx="169" cy="75" r="5.0" fill="rgb(1,14,22)"/>
<circle cx="183" cy="75" r="7" fill="rgb(2,21,32)" opacity="0.35"/>
<circle cx="183" cy="75" r="5.0" fill="rgb(2,21,32)"/>
<circle cx="197" cy="75" r="7" fill="rgb(3,27,42)" opacity="0.35"/>
<circle cx="197" cy="75" r="5.0" fill="rgb(3,27,42)"/>
<circle cx="211" cy="75" r="7" fill="rgb(3,33,50)" opacity="0.35"/>
<circle cx="211" cy="75" r="5.0" fill="rgb(3,33,50)"/>
<circle cx="225" cy="75" r="7" fill="rgb(4,35,55)" opacity="0.35"/>
<circle cx="225" cy="75" r="5.0" fill="rgb(4,35,55)"/>
<circle cx="15" cy="89" r="5.0" fill="#14171c"/>
<circle cx="29" cy="89" r="5.0" fill="#14171c"/>
<circle cx="43" cy="89" r="5.0" fill="#14171c"/>
<circle cx="57" cy="89" r="5.0" fill="#14171c"/>
<circle cx="71" cy="89" r="5.0" fill="#14171c"/>
<circle cx="85" cy="89" r="5.0" fill="#14171c"/>
<circle cx="99" cy="89" r="5.0" fill="#14171c"/>
<circle cx="113" cy="89" r="5.0" fill="#14171c"/>
<circle cx="127" cy="89" r="5.0" fill="#14171c"/>
<circle cx="141" cy="89" r="5.0" fill="#14171c"/>
<circle cx="155" cy="89" r="5.0" fill="#14171c"/>
<circle cx="169" cy="89" r="5.0" fill="#14171c"/>
<circle cx="183" cy="89" r="7" fill="rgb(1,13,19)" opacity="0.35"/>
<circle cx="183" cy="89" r="5.0" fill="rgb(1,13,19)"/>
<circle cx="197" cy="89" r="7" fill="rgb(2,16,24)" opacity="0.35"/>
<circle cx="197" cy="89" r="5.0" fill="rgb(2,16,24)"/>
<circle cx="211" cy="89" r="7" fill="rgb(2,19,27)" opacity="0.35"/>
<circle cx="211" cy="89" r="5.0" fill="rgb(2,19,27)"/>
<circle cx="225" cy="89" r="7" fill="rgb(2,20,29)" opacity="0.35"/>
<circle cx="225" cy="89" r="5.0" fill="rgb(2,20,29)"/>
<circle cx="15" cy="103" r="5.0" fill="#14171c"/>
<circle cx="29" cy="103" r="5.0" fill="#14171c"/>
<circle cx="43" cy="103" r="5.0" fill="#14171c"/>
<circle cx="57" cy="103" r="5.0" fill="#14171c"/>
<circle cx="71" cy="103" r="5.0" fill="#14171c"/>
<circle cx="85" cy="103" r="5.0" fill="#14171c"/>
<circle cx="99" cy="103" r="5.0" fill="#14171c"/>
<circle cx="113" cy="103" r="5.0" fill="#14171c"/>
<circle cx="127" cy="103" r="5.0" fill="#14171c"/>
<circle cx="141" cy="103" r="5.0" fill="#14171c"/>
<circle cx="155" cy="103" r="5.0" fill="#14171c"/>
<circle cx="169" cy="103" r="5.0" fill="#14171c"/>
<circle cx="183" cy="103" r="5.0" fill="#14171c"/>
<circle cx="197" cy="103" r="5.0" fill="#14171c"/>
<circle cx="211" cy="103" r="5.0" fill="#14171c"/>
<circle cx="225" cy="103" r="5.0" fill="#14171c"/>
<circle cx="15" cy="117" r="5.0" fill="#14171c"/>
<circle cx="29" cy="117" r="5.0" fill="#14171c"/>
<circle cx="43" cy="117" r="5.0" fill="#14171c"/>
<circle cx="57" cy="117" r="5.0" fill="#14171c"/>
<circle cx="71" cy="117" r="5.0" fill="#14171c"/>
<circle cx="85" cy="117" r="5.0" fill="#14171c"/>
<circle cx="99" cy="117" r="5.0" fill="#14171c"/>
<circle cx="113" cy="117" r="5.0" fill="#14171c"/>
<circle cx="127" cy="117" r="5.0" fill="#14171c"/>
<circle cx="141" cy="117" r="5.0" fill="#14171c"/>
<circle cx="155" cy="117" r="5.0" fill="#14171c"/>
<circle cx="169" cy="117" r="5.0" fill="#14171c"/>
<circle cx="183" cy="117" r="5.0" fill="#14171c"/>
<circle cx="197" cy="117" r="5.0" fill="#14171c"/>
<circle cx="211" cy="117" r="5.0" fill="#14171c"/>
<circle cx="225" cy="117" r="5.0" fill="#14171c"/>
<circle cx="15" cy="131" r="5.0" fill="#14171c"/>
<circle cx="29" cy="131" r="5.0" fill="#14171c"/>
<circle cx="43" cy="131" r="5.0" fill="#14171c"/>
<circle cx="57" cy="131" r="5.0" fill="#14171c"/>
<circle cx="71" cy="131" r="5.0" fill="#14171c"/>
<circle cx="85" cy="131" r="5.0" fill="#14171c"/>
<circle cx="99" cy="131" r="5.0" fill="#14171c"/>
<circle cx="113" cy="131" r="5.0" fill="#14171c"/>
<circle cx="127" cy="131" r="5.0" fill="#14171c"/>
<circle cx="141" cy="131" r="5.0" fill="#14171c"/>
<circle cx="155" cy="131" r="5.0" fill="#14171c"/>
<circle cx="169" cy="131" r="5.0" fill="#14171c"/>
<circle cx="183" cy="131" r="5.0" fill="#14171c"/>
<circle cx="197" cy="131" r="5.0" fill="#14171c"/>
<circle cx="211" cy="131" r="5.0" fill="#14171c"/>
<circle cx="225" cy="131" r="5.0" fill="#14171c"/>
<circle cx="15" cy="145" r="5.0" fill="#14171c"/>
<circle cx="29" cy="145" r="5.0" fill="#14171c"/>
<circle cx="43" cy="145" r="5.0" fill="#14171c"/>
<circle cx="57" cy="145" r="5.0" fill="#14171c"/>
<circle cx="71" cy="145" r="7" fill="rgb(4,13,17)" opacity="0.35"/>
<circle cx="71" cy="145" r="5.0" fill="rgb(4,13,17)"/>
<circle cx="85" cy="145" r="7" fill="rgb(5,16,20)" opacity="0.35"/>
<circle cx="85" cy="145" r="5.0" fill="rgb(5,16,20)"/>
<circle cx="99" cy="145" r="7" fill="rgb(6,18,24)" opacity="0.35"/>
<circle cx="99" cy="145" r="5.0" fill="rgb(6,18,24)"/>
<circle cx="113" cy="145" r="7" fill="rgb(7,20,26)" opacity="0.35"/>
<circle cx="113" cy="145" r="5.0" fill="rgb(7,20,26)"/>
<circle cx="127" cy="145" r="7" fill="rgb(7,21,27)" opacity="0.35"/>
<circle cx="127" cy="145" r="5.0" fill="rgb(7,21,27)"/>
<circle cx="141" cy="145" r="7" fill="rgb(7,21,27)" opacity="0.35"/>
<circle cx="141" cy="145" r="5.0" fill="rgb(7,21,27)"/>
<circle cx="155" cy="145" r="7" fill="rgb(6,20,25)" opacity="0.35"/>
<circle cx="155" cy="145" r="5.0" fill="rgb(6,20,25)"/>
<circle cx="169" cy="145" r="7" fill="rgb(6,18,22)" opacity="0.35"/>
<circle cx="169" cy="145" r="5.0" fill="rgb(6,18,22)"/>
<circle cx="183" cy="145" r="7" fill="rgb(5,15,19)" opacity="0.35"/>
<circle cx="183" cy="145" r="5.0" fill="rgb(5,15,19)"/>
<circle cx="197" cy="145" r="5.0" fill="#14171c"/>
<circle cx="211" cy="145" r="5.0" fill="#14171c"/>
<circle cx="225" cy="145" r="5.0" fill="#14171c"/>
<circle cx="15" cy="159" r="5.0" fill="#14171c"/>
<circle cx="29" cy="159" r="5.0" fill="#14171c"/>
<circle cx="43" cy="159" r="7" fill="rgb(6,16,20)" opacity="0.35"/>
<circle cx="43" cy="159" r="5.0" fill="rgb(6,16,20)"/>
<circle cx="57" cy="159" r="7" fill="rgb(9,24,30)" opacity="0.35"/>
<circle cx="57" cy="159" r="5.0" fill="rgb(9,24,30)"/>
<circle cx="71" cy="159" r="7" fill="rgb(12,34,42)" opacity="0.35"/>
<circle cx="71" cy="159" r="5.0" fill="rgb(12,34,42)"/>
<circle cx="85" cy="159" r="7" fill="rgb(16,43,54)" opacity="0.35"/>
<circle cx="85" cy="159" r="5.0" fill="rgb(16,43,54)"/>
<circle cx="99" cy="159" r="7" fill="rgb(19,51,64)" opacity="0.35"/>
<circle cx="99" cy="159" r="5.0" fill="rgb(19,51,64)"/>
<circle cx="113" cy="159" r="7" fill="rgb(20,56,69)" opacity="0.35"/>
<circle cx="113" cy="159" r="5.0" fill="rgb(20,56,69)"/>
<circle cx="127" cy="159" r="7" fill="rgb(21,57,70)" opacity="0.35"/>
<circle cx="127" cy="159" r="5.0" fill="rgb(21,57,70)"/>
<circle cx="141" cy="159" r="7" fill="rgb(19,53,66)" opacity="0.35"/>
<circle cx="141" cy="159" r="5.0" fill="rgb(19,53,66)"/>
<circle cx="155" cy="159" r="7" fill="rgb(17,47,58)" opacity="0.35"/>
<circle cx="155" cy="159" r="5.0" fill="rgb(17,47,58)"/>
<circle cx="169" cy="159" r="7" fill="rgb(14,38,47)" opacity="0.35"/>
<circle cx="169" cy="159" r="5.0" fill="rgb(14,38,47)"/>
<circle cx="183" cy="159" r="7" fill="rgb(11,30,37)" opacity="0.35"/>
<circle cx="183" cy="159" r="5.0" fill="rgb(11,30,37)"/>
<circle cx="197" cy="159" r="7" fill="rgb(8,21,27)" opacity="0.35"/>
<circle cx="197" cy="159" r="5.0" fill="rgb(8,21,27)"/>
<circle cx="211" cy="159" r="7" fill="rgb(5,15,18)" opacity="0.35"/>
<circle cx="211" cy="159" r="5.0" fill="rgb(5,15,18)"/>
<circle cx="225" cy="159" r="5.0" fill="#14171c"/>
<circle cx="15" cy="173" r="5.0" fill="#14171c"/>
<circle cx="29" cy="173" r="7" fill="rgb(8,20,24)" opacity="0.35"/>
<circle cx="29" cy="173" r="5.0" fill="rgb(8,20,24)"/>
<circle cx="43" cy="173" r="7" fill="rgb(13,32,38)" opacity="0.35"/>
<circle cx="43" cy="173" r="5.0" fill="rgb(13,32,38)"/>
<circle cx="57" cy="173" r="7" fill="rgb(19,47,57)" opacity="0.35"/>
<circle cx="57" cy="173" r="5.0" fill="rgb(19,47,57)"/>
<circle cx="71" cy="173" r="7" fill="rgb(26,64,77)" opacity="0.35"/>
<circle cx="71" cy="173" r="5.0" fill="rgb(26,64,77)"/>
<circle cx="85" cy="173" r="7" fill="rgb(33,81,98)" opacity="0.35"/>
<circle cx="85" cy="173" r="5.0" fill="rgb(33,81,98)"/>
<circle cx="99" cy="173" r="7" fill="rgb(39,95,114)" opacity="0.35"/>
<circle cx="99" cy="173" r="5.0" fill="rgb(39,95,114)"/>
<circle cx="113" cy="173" r="7" fill="rgb(42,103,123)" opacity="0.35"/>
<circle cx="113" cy="173" r="5.0" fill="rgb(42,103,123)"/>
<circle cx="127" cy="173" r="7" fill="rgb(42,103,123)" opacity="0.35"/>
<circle cx="127" cy="173" r="5.0" fill="rgb(42,103,123)"/>
<circle cx="141" cy="173" r="7" fill="rgb(39,96,115)" opacity="0.35"/>
<circle cx="141" cy="173" r="5.0" fill="rgb(39,96,115)"/>
<circle cx="155" cy="173" r="7" fill="rgb(34,82,99)" opacity="0.35"/>
<circle cx="155" cy="173" r="5.0" fill="rgb(34,82,99)"/>
<circle cx="169" cy="173" r="7" fill="rgb(27,66,79)" opacity="0.35"/>
<circle cx="169" cy="173" r="5.0" fill="rgb(27,66,79)"/>
<circle cx="183" cy="173" r="7" fill="rgb(20,49,58)" opacity="0.35"/>
<circle cx="183" cy="173" r="5.0" fill="rgb(20,49,58)"/>
<circle cx="197" cy="173" r="7" fill="rgb(14,33,40)" opacity="0.35"/>
<circle cx="197" cy="173" r="5.0" fill="rgb(14,33,40)"/>
<circle cx="211" cy="173" r="7" fill="rgb(9,21,25)" opacity="0.35"/>
<circle cx="211" cy="173" r="5.0" fill="rgb(9,21,25)"/>
<circle cx="225" cy="173" r="5.0" fill="#14171c"/>
<circle cx="15" cy="187" r="7" fill="rgb(13,28,33)" opacity="0.35"/>
<circle cx="15" cy="187" r="5.0" fill="rgb(13,28,33)"/>
<circle cx="29" cy="187" r="7" fill="rgb(20,43,51)" opacity="0.35"/>
<circle cx="29" cy="187" r="5.0" fill="rgb(20,43,51)"/>
<circle cx="43" cy="187" r="7" fill="rgb(29,62,72)" opacity="0.35"/>
<circle cx="43" cy="187" r="5.0" fill="rgb(29,62,72)"/>
<circle cx="57" cy="187" r="7" fill="rgb(38,82,96)" opacity="0.35"/>
<circle cx="57" cy="187" r="5.0" fill="rgb(38,82,96)"/>
<circle cx="71" cy="187" r="7" fill="rgb(48,102,120)" opacity="0.35"/>
<circle cx="71" cy="187" r="5.0" fill="rgb(48,102,120)"/>
<circle cx="85" cy="187" r="7" fill="rgb(56,120,141)" opacity="0.35"/>
<circle cx="85" cy="187" r="5.0" fill="rgb(56,120,141)"/>
<circle cx="99" cy="187" r="7" fill="rgb(62,133,156)" opacity="0.35"/>
<circle cx="99" cy="187" r="5.0" fill="rgb(62,133,156)"/>
<circle cx="113" cy="187" r="7" fill="rgb(66,140,165)" opacity="0.35"/>
<circle cx="113" cy="187" r="5.0" fill="rgb(66,140,165)"/>
<circle cx="127" cy="187" r="7" fill="rgb(65,140,164)" opacity="0.35"/>
<circle cx="127" cy="187" r="5.0" fill="rgb(65,140,164)"/>
<circle cx="141" cy="187" r="7" fill="rgb(61,131,153)" opacity="0.35"/>
<circle cx="141" cy="187" r="5.0" fill="rgb(61,131,153)"/>
<circle cx="155" cy="187" r="7" fill="rgb(54,115,135)" opacity="0.35"/>
<circle cx="155" cy="187" r="5.0" fill="rgb(54,115,135)"/>
<circle cx="169" cy="187" r="7" fill="rgb(44,94,110)" opacity="0.35"/>
<circle cx="169" cy="187" r="5.0" fill="rgb(44,94,110)"/>
<circle cx="183" cy="187" r="7" fill="rgb(33,71,84)" opacity="0.35"/>
<circle cx="183" cy="187" r="5.0" fill="rgb(33,71,84)"/>
<circle cx="197" cy="187" r="7" fill="rgb(23,50,59)" opacity="0.35"/>
<circle cx="197" cy="187" r="5.0" fill="rgb(23,50,59)"/>
<circle cx="211" cy="187" r="7" fill="rgb(15,32,38)" opacity="0.35"/>
<circle cx="211" cy="187" r="5.0" fill="rgb(15,32,38)"/>
<circle cx="225" cy="187" r="7" fill="rgb(9,19,22)" opacity="0.35"/>
<circle cx="225" cy="187" r="5.0" fill="rgb(9,19,22)"/>
<circle cx="15" cy="201" r="7" fill="rgb(32,58,67)" opacity="0.35"/>
<circle cx="15" cy="201" r="5.0" fill="rgb(32,58,67)"/>
<circle cx="29" cy="201" r="7" fill="rgb(44,81,93)" opacity="0.35"/>
<circle cx="29" cy="201" r="5.0" fill="rgb(44,81,93)"/>
<circle cx="43" cy="201" r="7" fill="rgb(57,104,120)" opacity="0.35"/>
<circle cx="43" cy="201" r="5.0" fill="rgb(57,104,120)"/>
<circle cx="57" cy="201" r="7" fill="rgb(69,125,144)" opacity="0.35"/>
<circle cx="57" cy="201" r="5.0" fill="rgb(69,125,144)"/>
<circle cx="71" cy="201" r="7" fill="rgb(78,142,163)" opacity="0.35"/>
<circle cx="71" cy="201" r="5.0" fill="rgb(78,142,163)"/>
<circle cx="85" cy="201" r="7" fill="rgb(84,152,175)" opacity="0.35"/>
<circle cx="85" cy="201" r="5.0" fill="rgb(84,152,175)"/>
<circle cx="99" cy="201" r="7" fill="rgb(86,157,180)" opacity="0.35"/>
<circle cx="99" cy="201" r="5.0" fill="rgb(86,157,180)"/>
<circle cx="113" cy="201" r="7" fill="rgb(85,156,179)" opacity="0.35"/>
<circle cx="113" cy="201" r="5.0" fill="rgb(85,156,179)"/>
<circle cx="127" cy="201" r="7" fill="rgb(83,150,173)" opacity="0.35"/>
<circle cx="127" cy="201" r="5.0" fill="rgb(83,150,173)"/>
<circle cx="141" cy="201" r="7" fill="rgb(78,141,162)" opacity="0.35"/>
<circle cx="141" cy="201" r="5.0" fill="rgb(78,141,162)"/>
<circle cx="155" cy="201" r="7" fill="rgb(71,128,148)" opacity="0.35"/>
<circle cx="155" cy="201" r="5.0" fill="rgb(71,128,148)"/>
<circle cx="169" cy="201" r="7" fill="rgb(62,112,129)" opacity="0.35"/>
<circle cx="169" cy="201" r="5.0" fill="rgb(62,112,129)"/>
<circle cx="183" cy="201" r="7" fill="rgb(51,93,107)" opacity="0.35"/>
<circle cx="183" cy="201" r="5.0" fill="rgb(51,93,107)"/>
<circle cx="197" cy="201" r="7" fill="rgb(40,73,84)" opacity="0.35"/>
<circle cx="197" cy="201" r="5.0" fill="rgb(40,73,84)"/>
<circle cx="211" cy="201" r="7" fill="rgb(29,53,61)" opacity="0.35"/>
<circle cx="211" cy="201" r="5.0" fill="rgb(29,53,61)"/>
<circle cx="225" cy="201" r="7" fill="rgb(20,36,41)" opacity="0.35"/>
<circle cx="225" cy="201" r="5.0" fill="rgb(20,36,41)"/>
<circle cx="15" cy="215" r="7" fill="rgb(62,99,112)" opacity="0.35"/>
<circle cx="15" cy="215" r="5.0" fill="rgb(62,99,112)"/>
<circle cx="29" cy="215" r="7" fill="rgb(81,128,144)" opacity="0.35"/>
<circle cx="29" cy="215" r="5.0" fill="rgb(81,128,144)"/>
<circle cx="43" cy="215" r="7" fill="rgb(96,153,173)" opacity="0.35"/>
<circle cx="43" cy="215" r="5.0" fill="rgb(96,153,173)"/>
<circle cx="57" cy="215" r="7" fill="rgb(107,170,192)" opacity="0.35"/>
<circle cx="57" cy="215" r="5.0" fill="rgb(107,170,192)"/>
<circle cx="71" cy="215" r="7" fill="rgb(111,177,200)" opacity="0.35"/>
<circle cx="71" cy="215" r="5.0" fill="rgb(111,177,200)"/>
<circle cx="85" cy="215" r="7" fill="rgb(109,173,196)" opacity="0.35"/>
<circle cx="85" cy="215" r="5.0" fill="rgb(109,173,196)"/>
<circle cx="99" cy="215" r="7" fill="rgb(102,163,183)" opacity="0.35"/>
<circle cx="99" cy="215" r="5.0" fill="rgb(102,163,183)"/>
<circle cx="113" cy="215" r="7" fill="rgb(94,149,168)" opacity="0.35"/>
<circle cx="113" cy="215" r="5.0" fill="rgb(94,149,168)"/>
<circle cx="127" cy="215" r="7" fill="rgb(86,136,153)" opacity="0.35"/>
<circle cx="127" cy="215" r="5.0" fill="rgb(86,136,153)"/>
<circle cx="141" cy="215" r="7" fill="rgb(80,127,143)" opacity="0.35"/>
<circle cx="141" cy="215" r="5.0" fill="rgb(80,127,143)"/>
<circle cx="155" cy="215" r="7" fill="rgb(76,121,136)" opacity="0.35"/>
<circle cx="155" cy="215" r="5.0" fill="rgb(76,121,136)"/>
<circle cx="169" cy="215" r="7" fill="rgb(73,116,131)" opacity="0.35"/>
<circle cx="169" cy="215" r="5.0" fill="rgb(73,116,131)"/>
<circle cx="183" cy="215" r="7" fill="rgb(69,109,123)" opacity="0.35"/>
<circle cx="183" cy="215" r="5.0" fill="rgb(69,109,123)"/>
<circle cx="197" cy="215" r="7" fill="rgb(61,97,109)" opacity="0.35"/>
<circle cx="197" cy="215" r="5.0" fill="rgb(61,97,109)"/>
<circle cx="211" cy="215" r="7" fill="rgb(51,81,91)" opacity="0.35"/>
<circle cx="211" cy="215" r="5.0" fill="rgb(51,81,91)"/>
<circle cx="225" cy="215" r="7" fill="rgb(39,62,70)" opacity="0.35"/>
<circle cx="225" cy="215" r="5.0" fill="rgb(39,62,70)"/>
<circle cx="15" cy="229" r="7" fill="rgb(101,144,159)" opacity="0.35"/>
<circle cx="15" cy="229" r="5.0" fill="rgb(101,144,159)"/>
<circle cx="29" cy="229" r="7" fill="rgb(124,176,194)" opacity="0.35"/>
<circle cx="29" cy="229" r="5.0" fill="rgb(124,176,194)"/>
<circle cx="43" cy="229" r="7" fill="rgb(137,195,215)" opacity="0.35"/>
<circle cx="43" cy="229" r="5.0" fill="rgb(137,195,215)"/>
<circle cx="57" cy="229" r="7" fill="rgb(137,195,215)" opacity="0.35"/>
<circle cx="57" cy="229" r="5.0" fill="rgb(137,195,215)"/>
<circle cx="71" cy="229" r="7" fill="rgb(137,195,215)" opacity="0.35"/>
<circle cx="71" cy="229" r="5.0" fill="rgb(137,195,215)"/>
<circle cx="85" cy="229" r="7" fill="rgb(126,180,198)" opacity="0.35"/>
<circle cx="85" cy="229" r="5.0" fill="rgb(126,180,198)"/>
<circle cx="99" cy="229" r="7" fill="rgb(108,153,169)" opacity="0.35"/>
<circle cx="99" cy="229" r="5.0" fill="rgb(108,153,169)"/>
<circle cx="113" cy="229" r="7" fill="rgb(90,128,141)" opacity="0.35"/>
<circle cx="113" cy="229" r="5.0" fill="rgb(90,128,141)"/>
<circle cx="127" cy="229" r="7" fill="rgb(77,110,121)" opacity="0.35"/>
<circle cx="127" cy="229" r="5.0" fill="rgb(77,110,121)"/>
<circle cx="141" cy="229" r="7" fill="rgb(71,101,112)" opacity="0.35"/>
<circle cx="141" cy="229" r="5.0" fill="rgb(71,101,112)"/>
<circle cx="155" cy="229" r="7" fill="rgb(72,102,113)" opacity="0.35"/>
<circle cx="155" cy="229" r="5.0" fill="rgb(72,102,113)"/>
<circle cx="169" cy="229" r="7" fill="rgb(76,109,120)" opacity="0.35"/>
<circle cx="169" cy="229" r="5.0" fill="rgb(76,109,120)"/>
<circle cx="183" cy="229" r="7" fill="rgb(80,114,126)" opacity="0.35"/>
<circle cx="183" cy="229" r="5.0" fill="rgb(80,114,126)"/>
<circle cx="197" cy="229" r="7" fill="rgb(80,114,125)" opacity="0.35"/>
<circle cx="197" cy="229" r="5.0" fill="rgb(80,114,125)"/>
<circle cx="211" cy="229" r="7" fill="rgb(74,106,116)" opacity="0.35"/>
<circle cx="211" cy="229" r="5.0" fill="rgb(74,106,116)"/>
<circle cx="225" cy="229" r="7" fill="rgb(63,90,99)" opacity="0.35"/>
<circle cx="225" cy="229" r="5.0" fill="rgb(63,90,99)"/>
<circle cx="15" cy="243" r="7" fill="rgb(140,182,196)" opacity="0.35"/>
<circle cx="15" cy="243" r="5.0" fill="rgb(140,182,196)"/>
<circle cx="29" cy="243" r="7" fill="rgb(155,201,217)" opacity="0.35"/>
<circle cx="29" cy="243" r="5.0" fill="rgb(155,201,217)"/>
<circle cx="43" cy="243" r="7" fill="rgb(155,201,217)" opacity="0.35"/>
<circle cx="43" cy="243" r="5.0" fill="rgb(155,201,217)"/>
<circle cx="57" cy="243" r="7" fill="rgb(155,201,217)" opacity="0.35"/>
<circle cx="57" cy="243" r="5.0" fill="rgb(155,201,217)"/>
<circle cx="71" cy="243" r="7" fill="rgb(155,201,217)" opacity="0.35"/>
<circle cx="71" cy="243" r="5.0" fill="rgb(155,201,217)"/>
<circle cx="85" cy="243" r="7" fill="rgb(132,171,185)" opacity="0.35"/>
<circle cx="85" cy="243" r="5.0" fill="rgb(132,171,185)"/>
<circle cx="99" cy="243" r="7" fill="rgb(104,135,146)" opacity="0.35"/>
<circle cx="99" cy="243" r="5.0" fill="rgb(104,135,146)"/>
<circle cx="113" cy="243" r="7" fill="rgb(80,104,113)" opacity="0.35"/>
<circle cx="113" cy="243" r="5.0" fill="rgb(80,104,113)"/>
<circle cx="127" cy="243" r="7" fill="rgb(65,84,91)" opacity="0.35"/>
<circle cx="127" cy="243" r="5.0" fill="rgb(65,84,91)"/>
<circle cx="141" cy="243" r="7" fill="rgb(60,78,84)" opacity="0.35"/>
<circle cx="141" cy="243" r="5.0" fill="rgb(60,78,84)"/>
<circle cx="155" cy="243" r="7" fill="rgb(64,83,90)" opacity="0.35"/>
<circle cx="155" cy="243" r="5.0" fill="rgb(64,83,90)"/>
<circle cx="169" cy="243" r="7" fill="rgb(74,96,104)" opacity="0.35"/>
<circle cx="169" cy="243" r="5.0" fill="rgb(74,96,104)"/>
<circle cx="183" cy="243" r="7" fill="rgb(85,110,119)" opacity="0.35"/>
<circle cx="183" cy="243" r="5.0" fill="rgb(85,110,119)"/>
<circle cx="197" cy="243" r="7" fill="rgb(92,119,129)" opacity="0.35"/>
<circle cx="197" cy="243" r="5.0" fill="rgb(92,119,129)"/>
<circle cx="211" cy="243" r="7" fill="rgb(92,119,129)" opacity="0.35"/>
<circle cx="211" cy="243" r="5.0" fill="rgb(92,119,129)"/>
<circle cx="225" cy="243" r="7" fill="rgb(84,109,118)" opacity="0.35"/>
<circle cx="225" cy="243" r="5.0" fill="rgb(84,109,118)"/>
<circle cx="15" cy="257" r="7" fill="rgb(170,203,215)" opacity="0.35"/>
<circle cx="15" cy="257" r="5.0" fill="rgb(170,203,215)"/>
<circle cx="29" cy="257" r="7" fill="rgb(173,206,219)" opacity="0.35"/>
<circle cx="29" cy="257" r="5.0" fill="rgb(173,206,219)"/>
<circle cx="43" cy="257" r="7" fill="rgb(173,206,219)" opacity="0.35"/>
<circle cx="43" cy="257" r="5.0" fill="rgb(173,206,219)"/>
<circle cx="57" cy="257" r="7" fill="rgb(173,206,219)" opacity="0.35"/>
<circle cx="57" cy="257" r="5.0" fill="rgb(173,206,219)"/>
<circle cx="71" cy="257" r="7" fill="rgb(166,197,210)" opacity="0.35"/>
<circle cx="71" cy="257" r="5.0" fill="rgb(166,197,210)"/>
<circle cx="85" cy="257" r="7" fill="rgb(132,158,168)" opacity="0.35"/>
<circle cx="85" cy="257" r="5.0" fill="rgb(132,158,168)"/>
<circle cx="99" cy="257" r="7" fill="rgb(99,118,125)" opacity="0.35"/>
<circle cx="99" cy="257" r="5.0" fill="rgb(99,118,125)"/>
<circle cx="113" cy="257" r="7" fill="rgb(72,86,91)" opacity="0.35"/>
<circle cx="113" cy="257" r="5.0" fill="rgb(72,86,91)"/>
<circle cx="127" cy="257" r="7" fill="rgb(56,66,71)" opacity="0.35"/>
<circle cx="127" cy="257" r="5.0" fill="rgb(56,66,71)"/>
<circle cx="141" cy="257" r="7" fill="rgb(52,61,65)" opacity="0.35"/>
<circle cx="141" cy="257" r="5.0" fill="rgb(52,61,65)"/>
<circle cx="155" cy="257" r="7" fill="rgb(58,69,73)" opacity="0.35"/>
<circle cx="155" cy="257" r="5.0" fill="rgb(58,69,73)"/>
<circle cx="169" cy="257" r="7" fill="rgb(71,85,90)" opacity="0.35"/>
<circle cx="169" cy="257" r="5.0" fill="rgb(71,85,90)"/>
<circle cx="183" cy="257" r="7" fill="rgb(86,103,109)" opacity="0.35"/>
<circle cx="183" cy="257" r="5.0" fill="rgb(86,103,109)"/>
<circle cx="197" cy="257" r="7" fill="rgb(98,117,124)" opacity="0.35"/>
<circle cx="197" cy="257" r="5.0" fill="rgb(98,117,124)"/>
<circle cx="211" cy="257" r="7" fill="rgb(103,123,130)" opacity="0.35"/>
<circle cx="211" cy="257" r="5.0" fill="rgb(103,123,130)"/>
<circle cx="225" cy="257" r="7" fill="rgb(98,117,125)" opacity="0.35"/>
<circle cx="225" cy="257" r="5.0" fill="rgb(98,117,125)"/>
<circle cx="-2" cy="280" r="9" fill="#ffd24a" opacity="0.25"/>
<circle cx="-2" cy="280" r="6" fill="#ffd24a" stroke="#0d0f12" stroke-width="1.5"/>
<text x="10" y="284" font-family="'JetBrains Mono','Cascadia Mono','Consolas',monospace" font-size="12" fill="#a0a0a0">Color</text>
<circle cx="242" cy="280" r="9" fill="#5ad1ff" opacity="0.25"/>
<circle cx="242" cy="280" r="6" fill="#5ad1ff" stroke="#0d0f12" stroke-width="1.5"/>
<text x="230" y="284" text-anchor="end" font-family="'JetBrains Mono','Cascadia Mono','Consolas',monospace" font-size="12" fill="#a0a0a0">Frame</text>
<line x1="8" y1="300" x2="232" y2="300" stroke="rgba(255,255,255,0.08)"/>
<text x="8" y="320" font-family="'JetBrains Mono','Cascadia Mono','Consolas',monospace" font-size="12" fill="#a0a0a0">color</text>
<rect x="204" y="307" width="28" height="18" rx="4" fill="rgb(255,0,128)" stroke="rgba(255,255,255,0.12)"/>
</g>
</svg>
