<svg xmlns="http://www.w3.org/2000/svg" viewBox="0 0 296 482" width="296" height="482" role="img" aria-label="Spectrum Visualizer node">

<defs><filter id="shadow" x="-20%" y="-20%" width="140%" height="160%"><feDropShadow dx="0" dy="8" stdDeviation="9" flood-color="#000" flood-opacity="0.45"/></filter></defs>
<g transform="translate(28,24)">
<rect x="0" y="0" width="240" height="424" rx="8" fill="#1f242b" stroke="rgba(255,255,255,0.12)" filter="url(#shadow)"/>
<rect x="0" y="0" width="240" height="424" rx="8" fill="#1f242b" stroke="rgba(255,255,255,0.12)"/>
<path d="M0,32 L0,8 Q0,0 8,0 L232,0 Q240,0 240,8 L240,32 Z" fill="#33d6ff"/>
<text x="8" y="21" font-family="'Audiowide','Trebuchet MS','Arial Black',sans-serif" font-size="14" font-weight="600" fill="#000">Spectrum · Ba…</text>
<rect x="154" y="10" width="25" height="12" rx="6" fill="rgba(0,0,0,0.14)" stroke="rgba(255,255,255,0.14)"/>
<text x="166.5" y="19" text-anchor="middle" font-family="'JetBrains Mono','Cascadia Mono','Consolas',monospace" font-size="8" letter-spacing="0.08em" fill="#000">PAT</text>
<rect x="185" y="10" width="47" height="12" rx="6" fill="rgba(0,0,0,0.14)" stroke="rgba(255,255,255,0.14)"/>
<text x="208.5" y="19" text-anchor="middle" font-family="'JetBrains Mono','Cascadia Mono','Consolas',monospace" font-size="8" letter-spacing="0.08em" fill="#000">SPE-679</text>
<rect x="8" y="40" width="224" height="224" rx="4" fill="#05070a"/>
<circle cx="15" cy="47" r="7" fill="rgb(255,174,76)" opacity="0.35"/>
<circle cx="15" cy="47" r="5.0" fill="rgb(255,174,76)"/>
<circle cx="29" cy="47" r="5.0" fill="#14171c"/>
<circle cx="43" cy="47" r="5.0" fill="#14171c"/>
<circle cx="57" cy="47" r="7" fill="rgb(255,174,76)" opacity="0.35"/>
<circle cx="57" cy="47" r="5.0" fill="rgb(255,174,76)"/>
<circle cx="71" cy="47" r="5.0" fill="#14171c"/>
<circle cx="85" cy="47" r="5.0" fill="#14171c"/>
<circle cx="99" cy="47" r="7" fill="rgb(255,176,75)" opacity="0.35"/>
<circle cx="99" cy="47" r="5.0" fill="rgb(255,176,75)"/>
<circle cx="113" cy="47" r="5.0" fill="#14171c"/>
<circle cx="127" cy="47" r="5.0" fill="#14171c"/>
<circle cx="141" cy="47" r="5.0" fill="#14171c"/>
<circle cx="155" cy="47" r="5.0" fill="#14171c"/>
<circle cx="169" cy="47" r="5.0" fill="#14171c"/>
<circle cx="183" cy="47" r="5.0" fill="#14171c"/>
<circle cx="197" cy="47" r="5.0" fill="#14171c"/>
<circle cx="211" cy="47" r="5.0" fill="#14171c"/>
<circle cx="225" cy="47" r="5.0" fill="#14171c"/>
<circle cx="15" cy="61" r="7" fill="rgb(244,160,62)" opacity="0.35"/>
<circle cx="15" cy="61" r="5.0" fill="rgb(244,160,62)"/>
<circle cx="29" cy="61" r="5.0" fill="#14171c"/>
<circle cx="43" cy="61" r="5.0" fill="#14171c"/>
<circle cx="57" cy="61" r="7" fill="rgb(244,160,62)" opacity="0.35"/>
<circle cx="57" cy="61" r="5.0" fill="rgb(244,160,62)"/>
<circle cx="71" cy="61" r="5.0" fill="#14171c"/>
<circle cx="85" cy="61" r="5.0" fill="#14171c"/>
<circle cx="99" cy="61" r="7" fill="rgb(244,160,62)" opacity="0.35"/>
<circle cx="99" cy="61" r="5.0" fill="rgb(244,160,62)"/>
<circle cx="113" cy="61" r="5.0" fill="#14171c"/>
<circle cx="127" cy="61" r="5.0" fill="#14171c"/>
<circle cx="141" cy="61" r="5.0" fill="#14171c"/>
<circle cx="155" cy="61" r="5.0" fill="#14171c"/>
<circle cx="169" cy="61" r="5.0" fill="#14171c"/>
<circle cx="183" cy="61" r="5.0" fill="#14171c"/>
<circle cx="197" cy="61" r="5.0" fill="#14171c"/>
<circle cx="211" cy="61" r="5.0" fill="#14171c"/>
<circle cx="225" cy="61" r="5.0" fill="#14171c"/>
<circle cx="15" cy="75" r="7" fill="rgb(233,166,58)" opacity="0.35"/>
<circle cx="15" cy="75" r="5.0" fill="rgb(233,166,58)"/>
<circle cx="29" cy="75" r="5.0" fill="#14171c"/>
<circle cx="43" cy="75" r="5.0" fill="#14171c"/>
<circle cx="57" cy="75" r="7" fill="rgb(233,166,58)" opacity="0.35"/>
<circle cx="57" cy="75" r="5.0" fill="rgb(233,166,58)"/>
<circle cx="71" cy="75" r="7" fill="rgb(255,207,74)" opacity="0.35"/>
<circle cx="71" cy="75" r="5.0" fill="rgb(255,207,74)"/>
<circle cx="85" cy="75" r="5.0" fill="#14171c"/>
<circle cx="99" cy="75" r="7" fill="rgb(233,166,58)" opacity="0.35"/>
<circle cx="99" cy="75" r="5.0" fill="rgb(233,166,58)"/>
<circle cx="113" cy="75" r="7" fill="rgb(255,204,74)" opacity="0.35"/>
<circle cx="113" cy="75" r="5.0" fill="rgb(255,204,74)"/>
<circle cx="127" cy="75" r="5.0" fill="#14171c"/>
<circle cx="141" cy="75" r="7" fill="rgb(255,209,74)" opacity="0.35"/>
<circle cx="141" cy="75" r="5.0" fill="rgb(255,209,74)"/>
<circle cx="155" cy="75" r="5.0" fill="#14171c"/>
<circle cx="169" cy="75" r="5.0" fill="#14171c"/>
<circle cx="183" cy="75" r="5.0" fill="#14171c"/>
<circle cx="197" cy="75" r="5.0" fill="#14171c"/>
<circle cx="211" cy="75" r="5.0" fill="#14171c"/>
<circle cx="225" cy="75" r="5.0" fill="#14171c"/>
<circle cx="15" cy="89" r="7" fill="rgb(221,171,56)" opacity="0.35"/>
<circle cx="15" cy="89" r="5.0" fill="rgb(221,171,56)"/>
<circle cx="29" cy="89" r="5.0" fill="#14171c"/>
<circle cx="43" cy="89" r="5.0" fill="#14171c"/>
<circle cx="57" cy="89" r="7" fill="rgb(221,171,56)" opacity="0.35"/>
<circle cx="57" cy="89" r="5.0" fill="rgb(221,171,56)"/>
<circle cx="71" cy="89" r="5.0" fill="#14171c"/>
<circle cx="85" cy="89" r="5.0" fill="#14171c"/>
<circle cx="99" cy="89" r="7" fill="rgb(221,171,56)" opacity="0.35"/>
<circle cx="99" cy="89" r="5.0" fill="rgb(221,171,56)"/>
<circle cx="113" cy="89" r="5.0" fill="#14171c"/>
<circle cx="127" cy="89" r="5.0" fill="#14171c"/>
<circle cx="141" cy="89" r="7" fill="rgb(221,171,56)" opacity="0.35"/>
<circle cx="141" cy="89" r="5.0" fill="rgb(221,171,56)"/>
<circle cx="155" cy="89" r="7" fill="rgb(255,218,74)" opacity="0.35"/>
<circle cx="155" cy="89" r="5.0" fill="rgb(255,218,74)"/>
<circle cx="169" cy="89" r="5.0" fill="#14171c"/>
<circle cx="183" cy="89" r="5.0" fill="#14171c"/>
<circle cx="197" cy="89" r="5.0" fill="#14171c"/>
<circle cx="211" cy="89" r="5.0" fill="#14171c"/>
<circle cx="225" cy="89" r="5.0" fill="#14171c"/>
<circle cx="15" cy="103" r="7" fill="rgb(208,175,52)" opacity="0.35"/>
<circle cx="15" cy="103" r="5.0" fill="rgb(208,175,52)"/>
<circle cx="29" cy="103" r="5.0" fill="#14171c"/>
<circle cx="43" cy="103" r="5.0" fill="#14171c"/>
<circle cx="57" cy="103" r="7" fill="rgb(208,175,52)" opacity="0.35"/>
<circle cx="57" cy="103" r="5.0" fill="rgb(208,175,52)"/>
<circle cx="71" cy="103" r="5.0" fill="#14171c"/>
<circle cx="85" cy="103" r="5.0" fill="#14171c"/>
<circle cx="99" cy="103" r="7" fill="rgb(208,175,52)" opacity="0.35"/>
<circle cx="99" cy="103" r="5.0" fill="rgb(208,175,52)"/>
<circle cx="113" cy="103" r="5.0" fill="#14171c"/>
<circle cx="127" cy="103" r="5.0" fill="#14171c"/>
<circle cx="141" cy="103" r="7" fill="rgb(208,175,52)" opacity="0.35"/>
<circle cx="141" cy="103" r="5.0" fill="rgb(208,175,52)"/>
<circle cx="155" cy="103" r="5.0" fill="#14171c"/>
<circle cx="169" cy="103" r="5.0" fill="#14171c"/>
<circle cx="183" cy="103" r="5.0" fill="#14171c"/>
<circle cx="197" cy="103" r="5.0" fill="#14171c"/>
<circle cx="211" cy="103" r="5.0" fill="#14171c"/>
<circle cx="225" cy="103" r="5.0" fill="#14171c"/>
<circle cx="15" cy="117" r="7" fill="rgb(186,172,52)" opacity="0.35"/>
<circle cx="15" cy="117" r="5.0" fill="rgb(186,172,52)"/>
<circle cx="29" cy="117" r="7" fill="rgb(255,252,76)" opacity="0.35"/>
<circle cx="29" cy="117" r="5.0" fill="rgb(255,252,76)"/>
<circle cx="43" cy="117" r="7" fill="rgb(255,251,76)" opacity="0.35"/>
<circle cx="43" cy="117" r="5.0" fill="rgb(255,251,76)"/>
<circle cx="57" cy="117" r="7" fill="rgb(186,172,52)" opacity="0.35"/>
<circle cx="57" cy="117" r="5.0" fill="rgb(186,172,52)"/>
<circle cx="71" cy="117" r="5.0" fill="#14171c"/>
<circle cx="85" cy="117" r="5.0" fill="#14171c"/>
<circle cx="99" cy="117" r="7" fill="rgb(186,172,52)" opacity="0.35"/>
<circle cx="99" cy="117" r="5.0" fill="rgb(186,172,52)"/>
<circle cx="113" cy="117" r="5.0" fill="#14171c"/>
<circle cx="127" cy="117" r="5.0" fill="#14171c"/>
<circle cx="141" cy="117" r="7" fill="rgb(186,172,52)" opacity="0.35"/>
<circle cx="141" cy="117" r="5.0" fill="rgb(186,172,52)"/>
<circle cx="155" cy="117" r="5.0" fill="#14171c"/>
<circle cx="169" cy="117" r="5.0" fill="#14171c"/>
<circle cx="183" cy="117" r="7" fill="rgb(255,255,77)" opacity="0.35"/>
<circle cx="183" cy="117" r="5.0" fill="rgb(255,255,77)"/>
<circle cx="197" cy="117" r="7" fill="rgb(255,251,75)" opacity="0.35"/>
<circle cx="197" cy="117" r="5.0" fill="rgb(255,251,75)"/>
<circle cx="211" cy="117" r="5.0" fill="#14171c"/>
<circle cx="225" cy="117" r="5.0" fill="#14171c"/>
<circle cx="15" cy="131" r="7" fill="rgb(166,170,52)" opacity="0.35"/>
<circle cx="15" cy="131" r="5.0" fill="rgb(166,170,52)"/>
<circle cx="29" cy="131" r="5.0" fill="#14171c"/>
<circle cx="43" cy="131" r="7" fill="rgb(166,170,52)" opacity="0.35"/>
<circle cx="43" cy="131" r="5.0" fill="rgb(166,170,52)"/>
<circle cx="57" cy="131" r="7" fill="rgb(166,170,52)" opacity="0.35"/>
<circle cx="57" cy="131" r="5.0" fill="rgb(166,170,52)"/>
<circle cx="71" cy="131" r="5.0" fill="#14171c"/>
<circle cx="85" cy="131" r="5.0" fill="#14171c"/>
<circle cx="99" cy="131" r="7" fill="rgb(166,170,52)" opacity="0.35"/>
<circle cx="99" cy="131" r="5.0" fill="rgb(166,170,52)"/>
<circle cx="113" cy="131" r="5.0" fill="#14171c"/>
<circle cx="127" cy="131" r="5.0" fill="#14171c"/>
<circle cx="141" cy="131" r="7" fill="rgb(166,170,52)" opacity="0.35"/>
<circle cx="141" cy="131" r="5.0" fill="rgb(166,170,52)"/>
<circle cx="155" cy="131" r="5.0" fill="#14171c"/>
<circle cx="169" cy="131" r="5.0" fill="#14171c"/>
<circle cx="183" cy="131" r="7" fill="rgb(166,170,52)" opacity="0.35"/>
<circle cx="183" cy="131" r="5.0" fill="rgb(166,170,52)"/>
<circle cx="197" cy="131" r="5.0" fill="#14171c"/>
<circle cx="211" cy="131" r="5.0" fill="#14171c"/>
<circle cx="225" cy="131" r="5.0" fill="#14171c"/>
<circle cx="15" cy="145" r="7" fill="rgb(146,167,51)" opacity="0.35"/>
<circle cx="15" cy="145" r="5.0" fill="rgb(146,167,51)"/>
<circle cx="29" cy="145" r="5.0" fill="#14171c"/>
<circle cx="43" cy="145" r="7" fill="rgb(146,167,51)" opacity="0.35"/>
<circle cx="43" cy="145" r="5.0" fill="rgb(146,167,51)"/>
<circle cx="57" cy="145" r="7" fill="rgb(146,167,51)" opacity="0.35"/>
<circle cx="57" cy="145" r="5.0" fill="rgb(146,167,51)"/>
<circle cx="71" cy="145" r="5.0" fill="#14171c"/>
<circle cx="85" cy="145" r="5.0" fill="#14171c"/>
<circle cx="99" cy="145" r="7" fill="rgb(146,167,51)" opacity="0.35"/>
<circle cx="99" cy="145" r="5.0" fill="rgb(146,167,51)"/>
<circle cx="113" cy="145" r="5.0" fill="#14171c"/>
<circle cx="127" cy="145" r="5.0" fill="#14171c"/>
<circle cx="141" cy="145" r="7" fill="rgb(146,167,51)" opacity="0.35"/>
<circle cx="141" cy="145" r="5.0" fill="rgb(146,167,51)"/>
<circle cx="155" cy="145" r="5.0" fill="#14171c"/>
<circle cx="169" cy="145" r="5.0" fill="#14171c"/>
<circle cx="183" cy="145" r="7" fill="rgb(146,167,51)" opacity="0.35"/>
<circle cx="183" cy="145" r="5.0" fill="rgb(146,167,51)"/>
<circle cx="197" cy="145" r="5.0" fill="#14171c"/>
<circle cx="211" cy="145" r="5.0" fill="#14171c"/>
<circle cx="225" cy="145" r="5.0" fill="#14171c"/>
<circle cx="15" cy="159" r="7" fill="rgb(128,163,49)" opacity="0.35"/>
<circle cx="15" cy="159" r="5.0" fill="rgb(128,163,49)"/>
<circle cx="29" cy="159" r="5.0" fill="#14171c"/>
<circle cx="43" cy="159" r="7" fill="rgb(128,163,49)" opacity="0.35"/>
<circle cx="43" cy="159" r="5.0" fill="rgb(128,163,49)"/>
<circle cx="57" cy="159" r="7" fill="rgb(128,163,49)" opacity="0.35"/>
<circle cx="57" cy="159" r="5.0" fill="rgb(128,163,49)"/>
<circle cx="71" cy="159" r="5.0" fill="#14171c"/>
<circle cx="85" cy="159" r="7" fill="rgb(220,255,87)" opacity="0.35"/>
<circle cx="85" cy="159" r="5.0" fill="rgb(220,255,87)"/>
<circle cx="99" cy="159" r="7" fill="rgb(128,163,49)" opacity="0.35"/>
<circle cx="99" cy="159" r="5.0" fill="rgb(128,163,49)"/>
<circle cx="113" cy="159" r="5.0" fill="#14171c"/>
<circle cx="127" cy="159" r="5.0" fill="#14171c"/>
<circle cx="141" cy="159" r="7" fill="rgb(128,163,49)" opacity="0.35"/>
<circle cx="141" cy="159" r="5.0" fill="rgb(128,163,49)"/>
<circle cx="155" cy="159" r="5.0" fill="#14171c"/>
<circle cx="169" cy="159" r="7" fill="rgb(222,255,89)" opacity="0.35"/>
<circle cx="169" cy="159" r="5.0" fill="rgb(222,255,89)"/>
<circle cx="183" cy="159" r="7" fill="rgb(128,163,49)" opacity="0.35"/>
<circle cx="183" cy="159" r="5.0" fill="rgb(128,163,49)"/>
<circle cx="197" cy="159" r="5.0" fill="#14171c"/>
<circle cx="211" cy="159" r="7" fill="rgb(233,255,86)" opacity="0.35"/>
<circle cx="211" cy="159" r="5.0" fill="rgb(233,255,86)"/>
<circle cx="225" cy="159" r="7" fill="rgb(220,255,87)" opacity="0.35"/>
<circle cx="225" cy="159" r="5.0" fill="rgb(220,255,87)"/>
<circle cx="15" cy="173" r="7" fill="rgb(110,152,40)" opacity="0.35"/>
<circle cx="15" cy="173" r="5.0" fill="rgb(110,152,40)"/>
<circle cx="29" cy="173" r="5.0" fill="#14171c"/>
<circle cx="43" cy="173" r="7" fill="rgb(110,152,40)" opacity="0.35"/>
<circle cx="43" cy="173" r="5.0" fill="rgb(110,152,40)"/>
<circle cx="57" cy="173" r="7" fill="rgb(110,152,40)" opacity="0.35"/>
<circle cx="57" cy="173" r="5.0" fill="rgb(110,152,40)"/>
<circle cx="71" cy="173" r="5.0" fill="#14171c"/>
<circle cx="85" cy="173" r="7" fill="rgb(110,152,40)" opacity="0.35"/>
<circle cx="85" cy="173" r="5.0" fill="rgb(110,152,40)"/>
<circle cx="99" cy="173" r="7" fill="rgb(110,152,40)" opacity="0.35"/>
<circle cx="99" cy="173" r="5.0" fill="rgb(110,152,40)"/>
<circle cx="113" cy="173" r="5.0" fill="#14171c"/>
<circle cx="127" cy="173" r="5.0" fill="#14171c"/>
<circle cx="141" cy="173" r="7" fill="rgb(110,152,40)" opacity="0.35"/>
<circle cx="141" cy="173" r="5.0" fill="rgb(110,152,40)"/>
<circle cx="155" cy="173" r="5.0" fill="#14171c"/>
<circle cx="169" cy="173" r="5.0" fill="#14171c"/>
<circle cx="183" cy="173" r="7" fill="rgb(110,152,40)" opacity="0.35"/>
<circle cx="183" cy="173" r="5.0" fill="rgb(110,152,40)"/>
<circle cx="197" cy="173" r="7" fill="rgb(110,152,40)" opacity="0.35"/>
<circle cx="197" cy="173" r="5.0" fill="rgb(110,152,40)"/>
<circle cx="211" cy="173" r="5.0" fill="#14171c"/>
<circle cx="225" cy="173" r="7" fill="rgb(110,152,40)" opacity="0.35"/>
<circle cx="225" cy="173" r="5.0" fill="rgb(110,152,40)"/>
<circle cx="15" cy="187" r="7" fill="rgb(92,137,28)" opacity="0.35"/>
<circle cx="15" cy="187" r="5.0" fill="rgb(92,137,28)"/>
<circle cx="29" cy="187" r="5.0" fill="#14171c"/>
<circle cx="43" cy="187" r="7" fill="rgb(92,137,28)" opacity="0.35"/>
<circle cx="43" cy="187" r="5.0" fill="rgb(92,137,28)"/>
<circle cx="57" cy="187" r="7" fill="rgb(92,137,28)" opacity="0.35"/>
<circle cx="57" cy="187" r="5.0" fill="rgb(92,137,28)"/>
<circle cx="71" cy="187" r="5.0" fill="#14171c"/>
<circle cx="85" cy="187" r="7" fill="rgb(92,137,28)" opacity="0.35"/>
<circle cx="85" cy="187" r="5.0" fill="rgb(92,137,28)"/>
<circle cx="99" cy="187" r="7" fill="rgb(92,137,28)" opacity="0.35"/>
<circle cx="99" cy="187" r="5.0" fill="rgb(92,137,28)"/>
<circle cx="113" cy="187" r="5.0" fill="#14171c"/>
<circle cx="127" cy="187" r="5.0" fill="#14171c"/>
<circle cx="141" cy="187" r="7" fill="rgb(92,137,28)" opacity="0.35"/>
<circle cx="141" cy="187" r="5.0" fill="rgb(92,137,28)"/>
<circle cx="155" cy="187" r="7" fill="rgb(92,137,28)" opacity="0.35"/>
<circle cx="155" cy="187" r="5.0" fill="rgb(92,137,28)"/>
<circle cx="169" cy="187" r="5.0" fill="#14171c"/>
<circle cx="183" cy="187" r="7" fill="rgb(92,137,28)" opacity="0.35"/>
<circle cx="183" cy="187" r="5.0" fill="rgb(92,137,28)"/>
<circle cx="197" cy="187" r="7" fill="rgb(92,137,28)" opacity="0.35"/>
<circle cx="197" cy="187" r="5.0" fill="rgb(92,137,28)"/>
<circle cx="211" cy="187" r="5.0" fill="#14171c"/>
<circle cx="225" cy="187" r="7" fill="rgb(92,137,28)" opacity="0.35"/>
<circle cx="225" cy="187" r="5.0" fill="rgb(92,137,28)"/>
<circle cx="15" cy="201" r="7" fill="rgb(76,122,17)" opacity="0.35"/>
<circle cx="15" cy="201" r="5.0" fill="rgb(76,122,17)"/>
<circle cx="29" cy="201" r="5.0" fill="#14171c"/>
<circle cx="43" cy="201" r="7" fill="rgb(76,122,17)" opacity="0.35"/>
<circle cx="43" cy="201" r="5.0" fill="rgb(76,122,17)"/>
<circle cx="57" cy="201" r="7" fill="rgb(76,122,17)" opacity="0.35"/>
<circle cx="57" cy="201" r="5.0" fill="rgb(76,122,17)"/>
<circle cx="71" cy="201" r="5.0" fill="#14171c"/>
<circle cx="85" cy="201" r="7" fill="rgb(76,122,17)" opacity="0.35"/>
<circle cx="85" cy="201" r="5.0" fill="rgb(76,122,17)"/>
<circle cx="99" cy="201" r="7" fill="rgb(76,122,17)" opacity="0.35"/>
<circle cx="99" cy="201" r="5.0" fill="rgb(76,122,17)"/>
<circle cx="113" cy="201" r="5.0" fill="#14171c"/>
<circle cx="127" cy="201" r="7" fill="rgb(160,255,30)" opacity="0.35"/>
<circle cx="127" cy="201" r="5.0" fill="rgb(160,255,30)"/>
<circle cx="141" cy="201" r="7" fill="rgb(76,122,17)" opacity="0.35"/>
<circle cx="141" cy="201" r="5.0" fill="rgb(76,122,17)"/>
<circle cx="155" cy="201" r="7" fill="rgb(76,122,17)" opacity="0.35"/>
<circle cx="155" cy="201" r="5.0" fill="rgb(76,122,17)"/>
<circle cx="169" cy="201" r="5.0" fill="#14171c"/>
<circle cx="183" cy="201" r="7" fill="rgb(76,122,17)" opacity="0.35"/>
<circle cx="183" cy="201" r="5.0" fill="rgb(76,122,17)"/>
<circle cx="197" cy="201" r="7" fill="rgb(76,122,17)" opacity="0.35"/>
<circle cx="197" cy="201" r="5.0" fill="rgb(76,122,17)"/>
<circle cx="211" cy="201" r="5.0" fill="#14171c"/>
<circle cx="225" cy="201" r="7" fill="rgb(76,122,17)" opacity="0.35"/>
<circle cx="225" cy="201" r="5.0" fill="rgb(76,122,17)"/>
<circle cx="15" cy="215" r="7" fill="rgb(61,109,8)" opacity="0.35"/>
<circle cx="15" cy="215" r="5.0" fill="rgb(61,109,8)"/>
<circle cx="29" cy="215" r="5.0" fill="#14171c"/>
<circle cx="43" cy="215" r="7" fill="rgb(61,109,8)" opacity="0.35"/>
<circle cx="43" cy="215" r="5.0" fill="rgb(61,109,8)"/>
<circle cx="57" cy="215" r="7" fill="rgb(61,109,8)" opacity="0.35"/>
<circle cx="57" cy="215" r="5.0" fill="rgb(61,109,8)"/>
<circle cx="71" cy="215" r="5.0" fill="#14171c"/>
<circle cx="85" cy="215" r="7" fill="rgb(61,109,8)" opacity="0.35"/>
<circle cx="85" cy="215" r="5.0" fill="rgb(61,109,8)"/>
<circle cx="99" cy="215" r="7" fill="rgb(61,109,8)" opacity="0.35"/>
<circle cx="99" cy="215" r="5.0" fill="rgb(61,109,8)"/>
<circle cx="113" cy="215" r="7" fill="rgb(61,109,8)" opacity="0.35"/>
<circle cx="113" cy="215" r="5.0" fill="rgb(61,109,8)"/>
<circle cx="127" cy="215" r="7" fill="rgb(61,109,8)" opacity="0.35"/>
<circle cx="127" cy="215" r="5.0" fill="rgb(61,109,8)"/>
<circle cx="141" cy="215" r="7" fill="rgb(61,109,8)" opacity="0.35"/>
<circle cx="141" cy="215" r="5.0" fill="rgb(61,109,8)"/>
<circle cx="155" cy="215" r="7" fill="rgb(61,109,8)" opacity="0.35"/>
<circle cx="155" cy="215" r="5.0" fill="rgb(61,109,8)"/>
<circle cx="169" cy="215" r="5.0" fill="#14171c"/>
<circle cx="183" cy="215" r="7" fill="rgb(61,109,8)" opacity="0.35"/>
<circle cx="183" cy="215" r="5.0" fill="rgb(61,109,8)"/>
<circle cx="197" cy="215" r="7" fill="rgb(61,109,8)" opacity="0.35"/>
<circle cx="197" cy="215" r="5.0" fill="rgb(61,109,8)"/>
<circle cx="211" cy="215" r="5.0" fill="#14171c"/>
<circle cx="225" cy="215" r="7" fill="rgb(61,109,8)" opacity="0.35"/>
<circle cx="225" cy="215" r="5.0" fill="rgb(61,109,8)"/>
<circle cx="15" cy="229" r="7" fill="rgb(48,96,0)" opacity="0.35"/>
<circle cx="15" cy="229" r="5.0" fill="rgb(48,96,0)"/>
<circle cx="29" cy="229" r="5.0" fill="#14171c"/>
<circle cx="43" cy="229" r="7" fill="rgb(48,96,0)" opacity="0.35"/>
<circle cx="43" cy="229" r="5.0" fill="rgb(48,96,0)"/>
<circle cx="57" cy="229" r="7" fill="rgb(48,96,0)" opacity="0.35"/>
<circle cx="57" cy="229" r="5.0" fill="rgb(48,96,0)"/>
<circle cx="71" cy="229" r="7" fill="rgb(48,96,0)" opacity="0.35"/>
<circle cx="71" cy="229" r="5.0" fill="rgb(48,96,0)"/>
<circle cx="85" cy="229" r="7" fill="rgb(48,96,0)" opacity="0.35"/>
<circle cx="85" cy="229" r="5.0" fill="rgb(48,96,0)"/>
<circle cx="99" cy="229" r="7" fill="rgb(48,96,0)" opacity="0.35"/>
<circle cx="99" cy="229" r="5.0" fill="rgb(48,96,0)"/>
<circle cx="113" cy="229" r="7" fill="rgb(48,96,0)" opacity="0.35"/>
<circle cx="113" cy="229" r="5.0" fill="rgb(48,96,0)"/>
<circle cx="127" cy="229" r="7" fill="rgb(48,96,0)" opacity="0.35"/>
<circle cx="127" cy="229" r="5.0" fill="rgb(48,96,0)"/>
<circle cx="141" cy="229" r="7" fill="rgb(48,96,0)" opacity="0.35"/>
<circle cx="141" cy="229" r="5.0" fill="rgb(48,96,0)"/>
<circle cx="155" cy="229" r="7" fill="rgb(48,96,0)" opacity="0.35"/>
<circle cx="155" cy="229" r="5.0" fill="rgb(48,96,0)"/>
<circle cx="169" cy="229" r="5.0" fill="#14171c"/>
<circle cx="183" cy="229" r="7" fill="rgb(48,96,0)" opacity="0.35"/>
<circle cx="183" cy="229" r="5.0" fill="rgb(48,96,0)"/>
<circle cx="197" cy="229" r="7" fill="rgb(48,96,0)" opacity="0.35"/>
<circle cx="197" cy="229" r="5.0" fill="rgb(48,96,0)"/>
<circle cx="211" cy="229" r="5.0" fill="#14171c"/>
<circle cx="225" cy="229" r="7" fill="rgb(48,96,0)" opacity="0.35"/>
<circle cx="225" cy="229" r="5.0" fill="rgb(48,96,0)"/>
<circle cx="15" cy="243" r="7" fill="rgb(37,73,0)" opacity="0.35"/>
<circle cx="15" cy="243" r="5.0" fill="rgb(37,73,0)"/>
<circle cx="29" cy="243" r="5.0" fill="#14171c"/>
<circle cx="43" cy="243" r="7" fill="rgb(37,73,0)" opacity="0.35"/>
<circle cx="43" cy="243" r="5.0" fill="rgb(37,73,0)"/>
<circle cx="57" cy="243" r="7" fill="rgb(37,73,0)" opacity="0.35"/>
<circle cx="57" cy="243" r="5.0" fill="rgb(37,73,0)"/>
<circle cx="71" cy="243" r="7" fill="rgb(37,73,0)" opacity="0.35"/>
<circle cx="71" cy="243" r="5.0" fill="rgb(37,73,0)"/>
<circle cx="85" cy="243" r="7" fill="rgb(37,73,0)" opacity="0.35"/>
<circle cx="85" cy="243" r="5.0" fill="rgb(37,73,0)"/>
<circle cx="99" cy="243" r="7" fill="rgb(37,73,0)" opacity="0.35"/>
<circle cx="99" cy="243" r="5.0" fill="rgb(37,73,0)"/>
<circle cx="113" cy="243" r="7" fill="rgb(37,73,0)" opacity="0.35"/>
<circle cx="113" cy="243" r="5.0" fill="rgb(37,73,0)"/>
<circle cx="127" cy="243" r="7" fill="rgb(37,73,0)" opacity="0.35"/>
<circle cx="127" cy="243" r="5.0" fill="rgb(37,73,0)"/>
<circle cx="141" cy="243" r="7" fill="rgb(37,73,0)" opacity="0.35"/>
<circle cx="141" cy="243" r="5.0" fill="rgb(37,73,0)"/>
<circle cx="155" cy="243" r="7" fill="rgb(37,73,0)" opacity="0.35"/>
<circle cx="155" cy="243" r="5.0" fill="rgb(37,73,0)"/>
<circle cx="169" cy="243" r="7" fill="rgb(37,73,0)" opacity="0.35"/>
<circle cx="169" cy="243" r="5.0" fill="rgb(37,73,0)"/>
<circle cx="183" cy="243" r="7" fill="rgb(37,73,0)" opacity="0.35"/>
<circle cx="183" cy="243" r="5.0" fill="rgb(37,73,0)"/>
<circle cx="197" cy="243" r="7" fill="rgb(37,73,0)" opacity="0.35"/>
<circle cx="197" cy="243" r="5.0" fill="rgb(37,73,0)"/>
<circle cx="211" cy="243" r="5.0" fill="#14171c"/>
<circle cx="225" cy="243" r="7" fill="rgb(37,73,0)" opacity="0.35"/>
<circle cx="225" cy="243" r="5.0" fill="rgb(37,73,0)"/>
<circle cx="15" cy="257" r="7" fill="rgb(27,52,0)" opacity="0.35"/>
<circle cx="15" cy="257" r="5.0" fill="rgb(27,52,0)"/>
<circle cx="29" cy="257" r="7" fill="rgb(27,52,0)" opacity="0.35"/>
<circle cx="29" cy="257" r="5.0" fill="rgb(27,52,0)"/>
<circle cx="43" cy="257" r="7" fill="rgb(27,52,0)" opacity="0.35"/>
<circle cx="43" cy="257" r="5.0" fill="rgb(27,52,0)"/>
<circle cx="57" cy="257" r="7" fill="rgb(27,52,0)" opacity="0.35"/>
<circle cx="57" cy="257" r="5.0" fill="rgb(27,52,0)"/>
<circle cx="71" cy="257" r="7" fill="rgb(27,52,0)" opacity="0.35"/>
<circle cx="71" cy="257" r="5.0" fill="rgb(27,52,0)"/>
<circle cx="85" cy="257" r="7" fill="rgb(27,52,0)" opacity="0.35"/>
<circle cx="85" cy="257" r="5.0" fill="rgb(27,52,0)"/>
<circle cx="99" cy="257" r="7" fill="rgb(27,52,0)" opacity="0.35"/>
<circle cx="99" cy="257" r="5.0" fill="rgb(27,52,0)"/>
<circle cx="113" cy="257" r="7" fill="rgb(27,52,0)" opacity="0.35"/>
<circle cx="113" cy="257" r="5.0" fill="rgb(27,52,0)"/>
<circle cx="127" cy="257" r="7" fill="rgb(27,52,0)" opacity="0.35"/>
<circle cx="127" cy="257" r="5.0" fill="rgb(27,52,0)"/>
<circle cx="141" cy="257" r="7" fill="rgb(27,52,0)" opacity="0.35"/>
<circle cx="141" cy="257" r="5.0" fill="rgb(27,52,0)"/>
<circle cx="155" cy="257" r="7" fill="rgb(27,52,0)" opacity="0.35"/>
<circle cx="155" cy="257" r="5.0" fill="rgb(27,52,0)"/>
<circle cx="169" cy="257" r="7" fill="rgb(27,52,0)" opacity="0.35"/>
<circle cx="169" cy="257" r="5.0" fill="rgb(27,52,0)"/>
<circle cx="183" cy="257" r="7" fill="rgb(27,52,0)" opacity="0.35"/>
<circle cx="183" cy="257" r="5.0" fill="rgb(27,52,0)"/>
<circle cx="197" cy="257" r="7" fill="rgb(27,52,0)" opacity="0.35"/>
<circle cx="197" cy="257" r="5.0" fill="rgb(27,52,0)"/>
<circle cx="211" cy="257" r="7" fill="rgb(27,52,0)" opacity="0.35"/>
<circle cx="211" cy="257" r="5.0" fill="rgb(27,52,0)"/>
<circle cx="225" cy="257" r="7" fill="rgb(27,52,0)" opacity="0.35"/>
<circle cx="225" cy="257" r="5.0" fill="rgb(27,52,0)"/>
<circle cx="-2" cy="280" r="9" fill="#00e0a4" opacity="0.25"/>
<circle cx="-2" cy="280" r="6" fill="#00e0a4" stroke="#0d0f12" stroke-width="1.5"/>
<text x="10" y="284" font-family="'JetBrains Mono','Cascadia Mono','Consolas',monospace" font-size="12" fill="#a0a0a0">Audio</text>
<circle cx="242" cy="280" r="9" fill="#5ad1ff" opacity="0.25"/>
<circle cx="242" cy="280" r="6" fill="#5ad1ff" stroke="#0d0f12" stroke-width="1.5"/>
<text x="230" y="284" text-anchor="end" font-family="'JetBrains Mono','Cascadia Mono','Consolas',monospace" font-size="12" fill="#a0a0a0">Frame</text>
<circle cx="-2" cy="308" r="9" fill="#ff5cf0" opacity="0.25"/>
<circle cx="-2" cy="308" r="6" fill="#ff5cf0" stroke="#0d0f12" stroke-width="1.5"/>
<text x="10" y="312" font-family="'JetBrains Mono','Cascadia Mono','Consolas',monospace" font-size="12" fill="#a0a0a0">Palette</text>
<line x1="8" y1="328" x2="232" y2="328" stroke="rgba(255,255,255,0.08)"/>
<text x="8" y="348" font-family="'JetBrains Mono','Cascadia Mono','Consolas',monospace" font-size="12" letter-spacing="0.03em" fill="#a0a0a0">▸ DISPLAY</text>
<text x="8" y="369" font-family="'JetBrains Mono','Cascadia Mono','Consolas',monospace" font-size="12" letter-spacing="0.03em" fill="#a0a0a0">▸ RESPONSE</text>
<text x="8" y="390" font-family="'JetBrains Mono','Cascadia Mono','Consolas',monospace" font-size="12" letter-spacing="0.03em" fill="#a0a0a0">▸ PEAK DOTS</text>
<text x="8" y="411" font-family="'JetBrains Mono','Cascadia Mono','Consolas',monospace" font-size="12" letter-spacing="0.03em" fill="#a0a0a0">▸ WATERFALL</text>
</g>
</svg>
