<svg xmlns="http://www.w3.org/2000/svg" viewBox="0 0 296 531" width="296" height="531" role="img" aria-label="Starfield node">

<defs><filter id="shadow" x="-20%" y="-20%" width="140%" height="160%"><feDropShadow dx="0" dy="8" stdDeviation="9" flood-color="#000" flood-opacity="0.45"/></filter></defs>
<g transform="translate(28,24)">
<rect x="0" y="0" width="240" height="473" rx="8" fill="#1f242b" stroke="rgba(255,255,255,0.12)" filter="url(#shadow)"/>
<rect x="0" y="0" width="240" height="473" rx="8" fill="#1f242b" stroke="rgba(255,255,255,0.12)"/>
<path d="M0,32 L0,8 Q0,0 8,0 L232,0 Q240,0 240,8 L240,32 Z" fill="#33d6ff"/>
<text x="8" y="21" font-family="'Audiowide','Trebuchet MS','Arial Black',sans-serif" font-size="14" font-weight="600" fill="#000">Starfield</text>
<rect x="154" y="10" width="25" height="12" rx="6" fill="rgba(0,0,0,0.14)" stroke="rgba(255,255,255,0.14)"/>
<text x="166.5" y="19" text-anchor="middle" font-family="'JetBrains Mono','Cascadia Mono','Consolas',monospace" font-size="8" letter-spacing="0.08em" fill="#000">PAT</text>
<rect x="185" y="10" width="47" height="12" rx="6" fill="rgba(0,0,0,0.14)" stroke="rgba(255,255,255,0.14)"/>
<text x="208.5" y="19" text-anchor="middle" font-family="'JetBrains Mono','Cascadia Mono','Consolas',monospace" font-size="8" letter-spacing="0.08em" fill="#000">STA-836</text>
<rect x="8" y="40" width="224" height="224" rx="4" fill="#05070a"/>
<circle cx="15" cy="47" r="7" fill="rgb(0,226,82)" opacity="0.35"/>
<circle cx="15" cy="47" r="5.0" fill="rgb(0,226,82)"/>
<circle cx="29" cy="47" r="7" fill="rgb(20,199,224)" opacity="0.35"/>
<circle cx="29" cy="47" r="5.0" fill="rgb(20,199,224)"/>
<circle cx="43" cy="47" r="7" fill="rgb(42,176,248)" opacity="0.35"/>
<circle cx="43" cy="47" r="5.0" fill="rgb(42,176,248)"/>
<circle cx="57" cy="47" r="7" fill="rgb(0,225,120)" opacity="0.35"/>
<circle cx="57" cy="47" r="5.0" fill="rgb(0,225,120)"/>
<circle cx="71" cy="47" r="7" fill="rgb(12,255,27)" opacity="0.35"/>
<circle cx="71" cy="47" r="5.0" fill="rgb(12,255,27)"/>
<circle cx="85" cy="47" r="7" fill="rgb(5,255,11)" opacity="0.35"/>
<circle cx="85" cy="47" r="5.0" fill="rgb(5,255,11)"/>
<circle cx="99" cy="47" r="7" fill="rgb(0,151,37)" opacity="0.35"/>
<circle cx="99" cy="47" r="5.0" fill="rgb(0,151,37)"/>
<circle cx="113" cy="47" r="7" fill="rgb(16,16,114)" opacity="0.35"/>
<circle cx="113" cy="47" r="5.0" fill="rgb(16,16,114)"/>
<circle cx="127" cy="47" r="7" fill="rgb(52,7,160)" opacity="0.35"/>
<circle cx="127" cy="47" r="5.0" fill="rgb(52,7,160)"/>
<circle cx="141" cy="47" r="7" fill="rgb(0,99,56)" opacity="0.35"/>
<circle cx="141" cy="47" r="5.0" fill="rgb(0,99,56)"/>
<circle cx="155" cy="47" r="7" fill="rgb(0,230,13)" opacity="0.35"/>
<circle cx="155" cy="47" r="5.0" fill="rgb(0,230,13)"/>
<circle cx="169" cy="47" r="7" fill="rgb(0,242,10)" opacity="0.35"/>
<circle cx="169" cy="47" r="5.0" fill="rgb(0,242,10)"/>
<circle cx="183" cy="47" r="7" fill="rgb(0,209,19)" opacity="0.35"/>
<circle cx="183" cy="47" r="5.0" fill="rgb(0,209,19)"/>
<circle cx="197" cy="47" r="7" fill="rgb(0,226,14)" opacity="0.35"/>
<circle cx="197" cy="47" r="5.0" fill="rgb(0,226,14)"/>
<circle cx="211" cy="47" r="7" fill="rgb(10,255,15)" opacity="0.35"/>
<circle cx="211" cy="47" r="5.0" fill="rgb(10,255,15)"/>
<circle cx="225" cy="47" r="7" fill="rgb(18,255,20)" opacity="0.35"/>
<circle cx="225" cy="47" r="5.0" fill="rgb(18,255,20)"/>
<circle cx="15" cy="61" r="7" fill="rgb(0,225,121)" opacity="0.35"/>
<circle cx="15" cy="61" r="5.0" fill="rgb(0,225,121)"/>
<circle cx="29" cy="61" r="7" fill="rgb(42,175,249)" opacity="0.35"/>
<circle cx="29" cy="61" r="5.0" fill="rgb(42,175,249)"/>
<circle cx="43" cy="61" r="7" fill="rgb(44,173,251)" opacity="0.35"/>
<circle cx="43" cy="61" r="5.0" fill="rgb(44,173,251)"/>
<circle cx="57" cy="61" r="7" fill="rgb(0,225,126)" opacity="0.35"/>
<circle cx="57" cy="61" r="5.0" fill="rgb(0,225,126)"/>
<circle cx="71" cy="61" r="7" fill="rgb(11,255,27)" opacity="0.35"/>
<circle cx="71" cy="61" r="5.0" fill="rgb(11,255,27)"/>
<circle cx="85" cy="61" r="7" fill="rgb(8,255,12)" opacity="0.35"/>
<circle cx="85" cy="61" r="5.0" fill="rgb(8,255,12)"/>
<circle cx="99" cy="61" r="7" fill="rgb(0,164,33)" opacity="0.35"/>
<circle cx="99" cy="61" r="5.0" fill="rgb(0,164,33)"/>
<circle cx="113" cy="61" r="7" fill="rgb(11,41,95)" opacity="0.35"/>
<circle cx="113" cy="61" r="5.0" fill="rgb(11,41,95)"/>
<circle cx="127" cy="61" r="7" fill="rgb(17,12,117)" opacity="0.35"/>
<circle cx="127" cy="61" r="5.0" fill="rgb(17,12,117)"/>
<circle cx="141" cy="61" r="7" fill="rgb(0,116,50)" opacity="0.35"/>
<circle cx="141" cy="61" r="5.0" fill="rgb(0,116,50)"/>
<circle cx="155" cy="61" r="7" fill="rgb(0,238,12)" opacity="0.35"/>
<circle cx="155" cy="61" r="5.0" fill="rgb(0,238,12)"/>
<circle cx="169" cy="61" r="7" fill="rgb(21,255,25)" opacity="0.35"/>
<circle cx="169" cy="61" r="5.0" fill="rgb(21,255,25)"/>
<circle cx="183" cy="61" r="7" fill="rgb(23,255,24)" opacity="0.35"/>
<circle cx="183" cy="61" r="5.0" fill="rgb(23,255,24)"/>
<circle cx="197" cy="61" r="7" fill="rgb(23,255,25)" opacity="0.35"/>
<circle cx="197" cy="61" r="5.0" fill="rgb(23,255,25)"/>
<circle cx="211" cy="61" r="7" fill="rgb(13,255,26)" opacity="0.35"/>
<circle cx="211" cy="61" r="5.0" fill="rgb(13,255,26)"/>
<circle cx="225" cy="61" r="7" fill="rgb(23,255,25)" opacity="0.35"/>
<circle cx="225" cy="61" r="5.0" fill="rgb(23,255,25)"/>
<circle cx="15" cy="75" r="7" fill="rgb(0,223,161)" opacity="0.35"/>
<circle cx="15" cy="75" r="5.0" fill="rgb(0,223,161)"/>
<circle cx="29" cy="75" r="7" fill="rgb(70,176,255)" opacity="0.35"/>
<circle cx="29" cy="75" r="5.0" fill="rgb(70,176,255)"/>
<circle cx="43" cy="75" r="7" fill="rgb(7,215,208)" opacity="0.35"/>
<circle cx="43" cy="75" r="5.0" fill="rgb(7,215,208)"/>
<circle cx="57" cy="75" r="7" fill="rgb(0,225,114)" opacity="0.35"/>
<circle cx="57" cy="75" r="5.0" fill="rgb(0,225,114)"/>
<circle cx="71" cy="75" r="7" fill="rgb(6,246,43)" opacity="0.35"/>
<circle cx="71" cy="75" r="5.0" fill="rgb(6,246,43)"/>
<circle cx="85" cy="75" r="7" fill="rgb(23,255,23)" opacity="0.35"/>
<circle cx="85" cy="75" r="5.0" fill="rgb(23,255,23)"/>
<circle cx="99" cy="75" r="7" fill="rgb(0,232,13)" opacity="0.35"/>
<circle cx="99" cy="75" r="5.0" fill="rgb(0,232,13)"/>
<circle cx="113" cy="75" r="7" fill="rgb(0,162,33)" opacity="0.35"/>
<circle cx="113" cy="75" r="5.0" fill="rgb(0,162,33)"/>
<circle cx="127" cy="75" r="7" fill="rgb(0,147,39)" opacity="0.35"/>
<circle cx="127" cy="75" r="5.0" fill="rgb(0,147,39)"/>
<circle cx="141" cy="75" r="7" fill="rgb(0,204,20)" opacity="0.35"/>
<circle cx="141" cy="75" r="5.0" fill="rgb(0,204,20)"/>
<circle cx="155" cy="75" r="7" fill="rgb(11,255,15)" opacity="0.35"/>
<circle cx="155" cy="75" r="5.0" fill="rgb(11,255,15)"/>
<circle cx="169" cy="75" r="7" fill="rgb(12,255,27)" opacity="0.35"/>
<circle cx="169" cy="75" r="5.0" fill="rgb(12,255,27)"/>
<circle cx="183" cy="75" r="7" fill="rgb(4,241,54)" opacity="0.35"/>
<circle cx="183" cy="75" r="5.0" fill="rgb(4,241,54)"/>
<circle cx="197" cy="75" r="7" fill="rgb(3,237,61)" opacity="0.35"/>
<circle cx="197" cy="75" r="5.0" fill="rgb(3,237,61)"/>
<circle cx="211" cy="75" r="7" fill="rgb(0,226,92)" opacity="0.35"/>
<circle cx="211" cy="75" r="5.0" fill="rgb(0,226,92)"/>
<circle cx="225" cy="75" r="7" fill="rgb(9,255,27)" opacity="0.35"/>
<circle cx="225" cy="75" r="5.0" fill="rgb(9,255,27)"/>
<circle cx="15" cy="89" r="7" fill="rgb(13,207,216)" opacity="0.35"/>
<circle cx="15" cy="89" r="5.0" fill="rgb(13,207,216)"/>
<circle cx="29" cy="89" r="7" fill="rgb(9,212,211)" opacity="0.35"/>
<circle cx="29" cy="89" r="5.0" fill="rgb(9,212,211)"/>
<circle cx="43" cy="89" r="7" fill="rgb(0,226,81)" opacity="0.35"/>
<circle cx="43" cy="89" r="5.0" fill="rgb(0,226,81)"/>
<circle cx="57" cy="89" r="7" fill="rgb(9,255,27)" opacity="0.35"/>
<circle cx="57" cy="89" r="5.0" fill="rgb(9,255,27)"/>
<circle cx="71" cy="89" r="7" fill="rgb(22,255,25)" opacity="0.35"/>
<circle cx="71" cy="89" r="5.0" fill="rgb(22,255,25)"/>
<circle cx="85" cy="89" r="7" fill="rgb(21,255,22)" opacity="0.35"/>
<circle cx="85" cy="89" r="5.0" fill="rgb(21,255,22)"/>
<circle cx="99" cy="89" r="7" fill="rgb(23,255,23)" opacity="0.35"/>
<circle cx="99" cy="89" r="5.0" fill="rgb(23,255,23)"/>
<circle cx="113" cy="89" r="7" fill="rgb(7,255,12)" opacity="0.35"/>
<circle cx="113" cy="89" r="5.0" fill="rgb(7,255,12)"/>
<circle cx="127" cy="89" r="7" fill="rgb(4,255,10)" opacity="0.35"/>
<circle cx="127" cy="89" r="5.0" fill="rgb(4,255,10)"/>
<circle cx="141" cy="89" r="7" fill="rgb(16,255,18)" opacity="0.35"/>
<circle cx="141" cy="89" r="5.0" fill="rgb(16,255,18)"/>
<circle cx="155" cy="89" r="7" fill="rgb(16,255,26)" opacity="0.35"/>
<circle cx="155" cy="89" r="5.0" fill="rgb(16,255,26)"/>
<circle cx="169" cy="89" r="7" fill="rgb(3,237,62)" opacity="0.35"/>
<circle cx="169" cy="89" r="5.0" fill="rgb(3,237,62)"/>
<circle cx="183" cy="89" r="7" fill="rgb(0,222,190)" opacity="0.35"/>
<circle cx="183" cy="89" r="5.0" fill="rgb(0,222,190)"/>
<circle cx="197" cy="89" r="7" fill="rgb(7,214,209)" opacity="0.35"/>
<circle cx="197" cy="89" r="5.0" fill="rgb(7,214,209)"/>
<circle cx="211" cy="89" r="7" fill="rgb(0,223,160)" opacity="0.35"/>
<circle cx="211" cy="89" r="5.0" fill="rgb(0,223,160)"/>
<circle cx="225" cy="89" r="7" fill="rgb(4,240,55)" opacity="0.35"/>
<circle cx="225" cy="89" r="5.0" fill="rgb(4,240,55)"/>
<circle cx="15" cy="103" r="7" fill="rgb(39,179,245)" opacity="0.35"/>
<circle cx="15" cy="103" r="5.0" fill="rgb(39,179,245)"/>
<circle cx="29" cy="103" r="7" fill="rgb(0,224,127)" opacity="0.35"/>
<circle cx="29" cy="103" r="5.0" fill="rgb(0,224,127)"/>
<circle cx="43" cy="103" r="7" fill="rgb(8,255,28)" opacity="0.35"/>
<circle cx="43" cy="103" r="5.0" fill="rgb(8,255,28)"/>
<circle cx="57" cy="103" r="7" fill="rgb(19,255,21)" opacity="0.35"/>
<circle cx="57" cy="103" r="5.0" fill="rgb(19,255,21)"/>
<circle cx="71" cy="103" r="7" fill="rgb(0,239,11)" opacity="0.35"/>
<circle cx="71" cy="103" r="5.0" fill="rgb(0,239,11)"/>
<circle cx="85" cy="103" r="7" fill="rgb(0,202,21)" opacity="0.35"/>
<circle cx="85" cy="103" r="5.0" fill="rgb(0,202,21)"/>
<circle cx="99" cy="103" r="7" fill="rgb(0,215,17)" opacity="0.35"/>
<circle cx="99" cy="103" r="5.0" fill="rgb(0,215,17)"/>
<circle cx="113" cy="103" r="7" fill="rgb(6,255,11)" opacity="0.35"/>
<circle cx="113" cy="103" r="5.0" fill="rgb(6,255,11)"/>
<circle cx="127" cy="103" r="7" fill="rgb(18,255,26)" opacity="0.35"/>
<circle cx="127" cy="103" r="5.0" fill="rgb(18,255,26)"/>
<circle cx="141" cy="103" r="7" fill="rgb(7,253,31)" opacity="0.35"/>
<circle cx="141" cy="103" r="5.0" fill="rgb(7,253,31)"/>
<circle cx="155" cy="103" r="7" fill="rgb(2,233,69)" opacity="0.35"/>
<circle cx="155" cy="103" r="5.0" fill="rgb(2,233,69)"/>
<circle cx="169" cy="103" r="7" fill="rgb(1,231,73)" opacity="0.35"/>
<circle cx="169" cy="103" r="5.0" fill="rgb(1,231,73)"/>
<circle cx="183" cy="103" r="7" fill="rgb(0,225,111)" opacity="0.35"/>
<circle cx="183" cy="103" r="5.0" fill="rgb(0,225,111)"/>
<circle cx="197" cy="103" r="7" fill="rgb(0,222,194)" opacity="0.35"/>
<circle cx="197" cy="103" r="5.0" fill="rgb(0,222,194)"/>
<circle cx="211" cy="103" r="7" fill="rgb(2,232,71)" opacity="0.35"/>
<circle cx="211" cy="103" r="5.0" fill="rgb(2,232,71)"/>
<circle cx="225" cy="103" r="7" fill="rgb(17,255,26)" opacity="0.35"/>
<circle cx="225" cy="103" r="5.0" fill="rgb(17,255,26)"/>
<circle cx="15" cy="117" r="7" fill="rgb(17,203,220)" opacity="0.35"/>
<circle cx="15" cy="117" r="5.0" fill="rgb(17,203,220)"/>
<circle cx="29" cy="117" r="7" fill="rgb(1,231,73)" opacity="0.35"/>
<circle cx="29" cy="117" r="5.0" fill="rgb(1,231,73)"/>
<circle cx="43" cy="117" r="7" fill="rgb(19,255,26)" opacity="0.35"/>
<circle cx="43" cy="117" r="5.0" fill="rgb(19,255,26)"/>
<circle cx="57" cy="117" r="7" fill="rgb(0,247,9)" opacity="0.35"/>
<circle cx="57" cy="117" r="5.0" fill="rgb(0,247,9)"/>
<circle cx="71" cy="117" r="7" fill="rgb(0,142,41)" opacity="0.35"/>
<circle cx="71" cy="117" r="5.0" fill="rgb(0,142,41)"/>
<circle cx="85" cy="117" r="7" fill="rgb(5,64,79)" opacity="0.35"/>
<circle cx="85" cy="117" r="5.0" fill="rgb(5,64,79)"/>
<circle cx="99" cy="117" r="7" fill="rgb(0,92,59)" opacity="0.35"/>
<circle cx="99" cy="117" r="5.0" fill="rgb(0,92,59)"/>
<circle cx="113" cy="117" r="7" fill="rgb(0,197,22)" opacity="0.35"/>
<circle cx="113" cy="117" r="5.0" fill="rgb(0,197,22)"/>
<circle cx="127" cy="117" r="7" fill="rgb(15,255,18)" opacity="0.35"/>
<circle cx="127" cy="117" r="5.0" fill="rgb(15,255,18)"/>
<circle cx="141" cy="117" r="7" fill="rgb(15,255,26)" opacity="0.35"/>
<circle cx="141" cy="117" r="5.0" fill="rgb(15,255,26)"/>
<circle cx="155" cy="117" r="7" fill="rgb(21,255,25)" opacity="0.35"/>
<circle cx="155" cy="117" r="5.0" fill="rgb(21,255,25)"/>
<circle cx="169" cy="117" r="7" fill="rgb(20,255,26)" opacity="0.35"/>
<circle cx="169" cy="117" r="5.0" fill="rgb(20,255,26)"/>
<circle cx="183" cy="117" r="7" fill="rgb(11,255,27)" opacity="0.35"/>
<circle cx="183" cy="117" r="5.0" fill="rgb(11,255,27)"/>
<circle cx="197" cy="117" r="7" fill="rgb(3,236,64)" opacity="0.35"/>
<circle cx="197" cy="117" r="5.0" fill="rgb(3,236,64)"/>
<circle cx="211" cy="117" r="7" fill="rgb(6,249,39)" opacity="0.35"/>
<circle cx="211" cy="117" r="5.0" fill="rgb(6,249,39)"/>
<circle cx="225" cy="117" r="7" fill="rgb(18,255,20)" opacity="0.35"/>
<circle cx="225" cy="117" r="5.0" fill="rgb(18,255,20)"/>
<circle cx="15" cy="131" r="7" fill="rgb(9,212,211)" opacity="0.35"/>
<circle cx="15" cy="131" r="5.0" fill="rgb(9,212,211)"/>
<circle cx="29" cy="131" r="7" fill="rgb(3,237,62)" opacity="0.35"/>
<circle cx="29" cy="131" r="5.0" fill="rgb(3,237,62)"/>
<circle cx="43" cy="131" r="7" fill="rgb(24,255,25)" opacity="0.35"/>
<circle cx="43" cy="131" r="5.0" fill="rgb(24,255,25)"/>
<circle cx="57" cy="131" r="7" fill="rgb(0,219,16)" opacity="0.35"/>
<circle cx="57" cy="131" r="5.0" fill="rgb(0,219,16)"/>
<circle cx="71" cy="131" r="7" fill="rgb(1,83,64)" opacity="0.35"/>
<circle cx="71" cy="131" r="5.0" fill="rgb(1,83,64)"/>
<circle cx="85" cy="131" r="7" fill="rgb(91,15,203)" opacity="0.35"/>
<circle cx="85" cy="131" r="5.0" fill="rgb(91,15,203)"/>
<circle cx="99" cy="131" r="7" fill="rgb(16,16,114)" opacity="0.35"/>
<circle cx="99" cy="131" r="5.0" fill="rgb(16,16,114)"/>
<circle cx="113" cy="131" r="7" fill="rgb(0,157,35)" opacity="0.35"/>
<circle cx="113" cy="131" r="5.0" fill="rgb(0,157,35)"/>
<circle cx="127" cy="131" r="7" fill="rgb(7,255,12)" opacity="0.35"/>
<circle cx="127" cy="131" r="5.0" fill="rgb(7,255,12)"/>
<circle cx="141" cy="131" r="7" fill="rgb(4,255,10)" opacity="0.35"/>
<circle cx="141" cy="131" r="5.0" fill="rgb(4,255,10)"/>
<circle cx="155" cy="131" r="7" fill="rgb(0,230,14)" opacity="0.35"/>
<circle cx="155" cy="131" r="5.0" fill="rgb(0,230,14)"/>
<circle cx="169" cy="131" r="7" fill="rgb(0,239,11)" opacity="0.35"/>
<circle cx="169" cy="131" r="5.0" fill="rgb(0,239,11)"/>
<circle cx="183" cy="131" r="7" fill="rgb(12,255,16)" opacity="0.35"/>
<circle cx="183" cy="131" r="5.0" fill="rgb(12,255,16)"/>
<circle cx="197" cy="131" r="7" fill="rgb(16,255,26)" opacity="0.35"/>
<circle cx="197" cy="131" r="5.0" fill="rgb(16,255,26)"/>
<circle cx="211" cy="131" r="7" fill="rgb(8,255,27)" opacity="0.35"/>
<circle cx="211" cy="131" r="5.0" fill="rgb(8,255,27)"/>
<circle cx="225" cy="131" r="7" fill="rgb(11,255,15)" opacity="0.35"/>
<circle cx="225" cy="131" r="5.0" fill="rgb(11,255,15)"/>
<circle cx="15" cy="145" r="7" fill="rgb(15,206,218)" opacity="0.35"/>
<circle cx="15" cy="145" r="5.0" fill="rgb(15,206,218)"/>
<circle cx="29" cy="145" r="7" fill="rgb(2,232,70)" opacity="0.35"/>
<circle cx="29" cy="145" r="5.0" fill="rgb(2,232,70)"/>
<circle cx="43" cy="145" r="7" fill="rgb(20,255,26)" opacity="0.35"/>
<circle cx="43" cy="145" r="5.0" fill="rgb(20,255,26)"/>
<circle cx="57" cy="145" r="7" fill="rgb(0,240,11)" opacity="0.35"/>
<circle cx="57" cy="145" r="5.0" fill="rgb(0,240,11)"/>
<circle cx="71" cy="145" r="7" fill="rgb(0,127,46)" opacity="0.35"/>
<circle cx="71" cy="145" r="5.0" fill="rgb(0,127,46)"/>
<circle cx="85" cy="145" r="7" fill="rgb(10,42,95)" opacity="0.35"/>
<circle cx="85" cy="145" r="5.0" fill="rgb(10,42,95)"/>
<circle cx="99" cy="145" r="7" fill="rgb(3,74,71)" opacity="0.35"/>
<circle cx="99" cy="145" r="5.0" fill="rgb(3,74,71)"/>
<circle cx="113" cy="145" r="7" fill="rgb(0,188,24)" opacity="0.35"/>
<circle cx="113" cy="145" r="5.0" fill="rgb(0,188,24)"/>
<circle cx="127" cy="145" r="7" fill="rgb(4,255,10)" opacity="0.35"/>
<circle cx="127" cy="145" r="5.0" fill="rgb(4,255,10)"/>
<circle cx="141" cy="145" r="7" fill="rgb(0,173,29)" opacity="0.35"/>
<circle cx="141" cy="145" r="5.0" fill="rgb(0,173,29)"/>
<circle cx="155" cy="145" r="7" fill="rgb(0,98,57)" opacity="0.35"/>
<circle cx="155" cy="145" r="5.0" fill="rgb(0,98,57)"/>
<circle cx="169" cy="145" r="7" fill="rgb(0,118,49)" opacity="0.35"/>
<circle cx="169" cy="145" r="5.0" fill="rgb(0,118,49)"/>
<circle cx="183" cy="145" r="7" fill="rgb(0,208,19)" opacity="0.35"/>
<circle cx="183" cy="145" r="5.0" fill="rgb(0,208,19)"/>
<circle cx="197" cy="145" r="7" fill="rgb(17,255,19)" opacity="0.35"/>
<circle cx="197" cy="145" r="5.0" fill="rgb(17,255,19)"/>
<circle cx="211" cy="145" r="7" fill="rgb(7,252,33)" opacity="0.35"/>
<circle cx="211" cy="145" r="5.0" fill="rgb(7,252,33)"/>
<circle cx="225" cy="145" r="7" fill="rgb(17,255,19)" opacity="0.35"/>
<circle cx="225" cy="145" r="5.0" fill="rgb(17,255,19)"/>
<circle cx="15" cy="159" r="7" fill="rgb(31,188,235)" opacity="0.35"/>
<circle cx="15" cy="159" r="5.0" fill="rgb(31,188,235)"/>
<circle cx="29" cy="159" r="7" fill="rgb(0,225,114)" opacity="0.35"/>
<circle cx="29" cy="159" r="5.0" fill="rgb(0,225,114)"/>
<circle cx="43" cy="159" r="7" fill="rgb(10,255,27)" opacity="0.35"/>
<circle cx="43" cy="159" r="5.0" fill="rgb(10,255,27)"/>
<circle cx="57" cy="159" r="7" fill="rgb(15,255,18)" opacity="0.35"/>
<circle cx="57" cy="159" r="5.0" fill="rgb(15,255,18)"/>
<circle cx="71" cy="159" r="7" fill="rgb(0,224,15)" opacity="0.35"/>
<circle cx="71" cy="159" r="5.0" fill="rgb(0,224,15)"/>
<circle cx="85" cy="159" r="7" fill="rgb(0,183,26)" opacity="0.35"/>
<circle cx="85" cy="159" r="5.0" fill="rgb(0,183,26)"/>
<circle cx="99" cy="159" r="7" fill="rgb(0,198,22)" opacity="0.35"/>
<circle cx="99" cy="159" r="5.0" fill="rgb(0,198,22)"/>
<circle cx="113" cy="159" r="7" fill="rgb(1,255,8)" opacity="0.35"/>
<circle cx="113" cy="159" r="5.0" fill="rgb(1,255,8)"/>
<circle cx="127" cy="159" r="7" fill="rgb(0,229,14)" opacity="0.35"/>
<circle cx="127" cy="159" r="5.0" fill="rgb(0,229,14)"/>
<circle cx="141" cy="159" r="7" fill="rgb(0,97,57)" opacity="0.35"/>
<circle cx="141" cy="159" r="5.0" fill="rgb(0,97,57)"/>
<circle cx="155" cy="159" r="7" fill="rgb(56,8,165)" opacity="0.35"/>
<circle cx="155" cy="159" r="5.0" fill="rgb(56,8,165)"/>
<circle cx="169" cy="159" r="7" fill="rgb(16,17,114)" opacity="0.35"/>
<circle cx="169" cy="159" r="5.0" fill="rgb(16,17,114)"/>
<circle cx="183" cy="159" r="7" fill="rgb(0,152,37)" opacity="0.35"/>
<circle cx="183" cy="159" r="5.0" fill="rgb(0,152,37)"/>
<circle cx="197" cy="159" r="7" fill="rgb(6,255,11)" opacity="0.35"/>
<circle cx="197" cy="159" r="5.0" fill="rgb(6,255,11)"/>
<circle cx="211" cy="159" r="7" fill="rgb(12,255,27)" opacity="0.35"/>
<circle cx="211" cy="159" r="5.0" fill="rgb(12,255,27)"/>
<circle cx="225" cy="159" r="7" fill="rgb(18,255,26)" opacity="0.35"/>
<circle cx="225" cy="159" r="5.0" fill="rgb(18,255,26)"/>
<circle cx="15" cy="173" r="7" fill="rgb(0,225,102)" opacity="0.35"/>
<circle cx="15" cy="173" r="5.0" fill="rgb(0,225,102)"/>
<circle cx="29" cy="173" r="7" fill="rgb(2,233,68)" opacity="0.35"/>
<circle cx="29" cy="173" r="5.0" fill="rgb(2,233,68)"/>
<circle cx="43" cy="173" r="7" fill="rgb(13,255,26)" opacity="0.35"/>
<circle cx="43" cy="173" r="5.0" fill="rgb(13,255,26)"/>
<circle cx="57" cy="173" r="7" fill="rgb(6,255,12)" opacity="0.35"/>
<circle cx="57" cy="173" r="5.0" fill="rgb(6,255,12)"/>
<circle cx="71" cy="173" r="7" fill="rgb(0,174,29)" opacity="0.35"/>
<circle cx="71" cy="173" r="5.0" fill="rgb(0,174,29)"/>
<circle cx="85" cy="173" r="7" fill="rgb(1,83,64)" opacity="0.35"/>
<circle cx="85" cy="173" r="5.0" fill="rgb(1,83,64)"/>
<circle cx="99" cy="173" r="7" fill="rgb(0,87,61)" opacity="0.35"/>
<circle cx="99" cy="173" r="5.0" fill="rgb(0,87,61)"/>
<circle cx="113" cy="173" r="7" fill="rgb(0,183,26)" opacity="0.35"/>
<circle cx="113" cy="173" r="5.0" fill="rgb(0,183,26)"/>
<circle cx="127" cy="173" r="7" fill="rgb(0,237,12)" opacity="0.35"/>
<circle cx="127" cy="173" r="5.0" fill="rgb(0,237,12)"/>
<circle cx="141" cy="173" r="7" fill="rgb(0,115,51)" opacity="0.35"/>
<circle cx="141" cy="173" r="5.0" fill="rgb(0,115,51)"/>
<circle cx="155" cy="173" r="7" fill="rgb(17,14,116)" opacity="0.35"/>
<circle cx="155" cy="173" r="5.0" fill="rgb(17,14,116)"/>
<circle cx="169" cy="173" r="7" fill="rgb(10,44,93)" opacity="0.35"/>
<circle cx="169" cy="173" r="5.0" fill="rgb(10,44,93)"/>
<circle cx="183" cy="173" r="7" fill="rgb(0,167,32)" opacity="0.35"/>
<circle cx="183" cy="173" r="5.0" fill="rgb(0,167,32)"/>
<circle cx="197" cy="173" r="7" fill="rgb(8,255,13)" opacity="0.35"/>
<circle cx="197" cy="173" r="5.0" fill="rgb(8,255,13)"/>
<circle cx="211" cy="173" r="7" fill="rgb(10,255,27)" opacity="0.35"/>
<circle cx="211" cy="173" r="5.0" fill="rgb(10,255,27)"/>
<circle cx="225" cy="173" r="7" fill="rgb(5,243,49)" opacity="0.35"/>
<circle cx="225" cy="173" r="5.0" fill="rgb(5,243,49)"/>
<circle cx="15" cy="187" r="7" fill="rgb(12,255,26)" opacity="0.35"/>
<circle cx="15" cy="187" r="5.0" fill="rgb(12,255,26)"/>
<circle cx="29" cy="187" r="7" fill="rgb(21,255,25)" opacity="0.35"/>
<circle cx="29" cy="187" r="5.0" fill="rgb(21,255,25)"/>
<circle cx="43" cy="187" r="7" fill="rgb(23,255,25)" opacity="0.35"/>
<circle cx="43" cy="187" r="5.0" fill="rgb(23,255,25)"/>
<circle cx="57" cy="187" r="7" fill="rgb(0,244,10)" opacity="0.35"/>
<circle cx="57" cy="187" r="5.0" fill="rgb(0,244,10)"/>
<circle cx="71" cy="187" r="7" fill="rgb(0,115,51)" opacity="0.35"/>
<circle cx="71" cy="187" r="5.0" fill="rgb(0,115,51)"/>
<circle cx="85" cy="187" r="7" fill="rgb(48,6,156)" opacity="0.35"/>
<circle cx="85" cy="187" r="5.0" fill="rgb(48,6,156)"/>
<circle cx="99" cy="187" r="7" fill="rgb(35,3,142)" opacity="0.35"/>
<circle cx="99" cy="187" r="5.0" fill="rgb(35,3,142)"/>
<circle cx="113" cy="187" r="7" fill="rgb(0,126,47)" opacity="0.35"/>
<circle cx="113" cy="187" r="5.0" fill="rgb(0,126,47)"/>
<circle cx="127" cy="187" r="7" fill="rgb(0,253,8)" opacity="0.35"/>
<circle cx="127" cy="187" r="5.0" fill="rgb(0,253,8)"/>
<circle cx="141" cy="187" r="7" fill="rgb(0,205,20)" opacity="0.35"/>
<circle cx="141" cy="187" r="5.0" fill="rgb(0,205,20)"/>
<circle cx="155" cy="187" r="7" fill="rgb(0,150,38)" opacity="0.35"/>
<circle cx="155" cy="187" r="5.0" fill="rgb(0,150,38)"/>
<circle cx="169" cy="187" r="7" fill="rgb(0,166,32)" opacity="0.35"/>
<circle cx="169" cy="187" r="5.0" fill="rgb(0,166,32)"/>
<circle cx="183" cy="187" r="7" fill="rgb(0,234,12)" opacity="0.35"/>
<circle cx="183" cy="187" r="5.0" fill="rgb(0,234,12)"/>
<circle cx="197" cy="187" r="7" fill="rgb(24,255,24)" opacity="0.35"/>
<circle cx="197" cy="187" r="5.0" fill="rgb(24,255,24)"/>
<circle cx="211" cy="187" r="7" fill="rgb(5,246,45)" opacity="0.35"/>
<circle cx="211" cy="187" r="5.0" fill="rgb(5,246,45)"/>
<circle cx="225" cy="187" r="7" fill="rgb(4,241,53)" opacity="0.35"/>
<circle cx="225" cy="187" r="5.0" fill="rgb(4,241,53)"/>
<circle cx="15" cy="201" r="7" fill="rgb(10,255,14)" opacity="0.35"/>
<circle cx="15" cy="201" r="5.0" fill="rgb(10,255,14)"/>
<circle cx="29" cy="201" r="7" fill="rgb(0,233,13)" opacity="0.35"/>
<circle cx="29" cy="201" r="5.0" fill="rgb(0,233,13)"/>
<circle cx="43" cy="201" r="7" fill="rgb(0,225,15)" opacity="0.35"/>
<circle cx="43" cy="201" r="5.0" fill="rgb(0,225,15)"/>
<circle cx="57" cy="201" r="7" fill="rgb(1,255,8)" opacity="0.35"/>
<circle cx="57" cy="201" r="5.0" fill="rgb(1,255,8)"/>
<circle cx="71" cy="201" r="7" fill="rgb(0,147,39)" opacity="0.35"/>
<circle cx="71" cy="201" r="5.0" fill="rgb(0,147,39)"/>
<circle cx="85" cy="201" r="7" fill="rgb(10,43,94)" opacity="0.35"/>
<circle cx="85" cy="201" r="5.0" fill="rgb(10,43,94)"/>
<circle cx="99" cy="201" r="7" fill="rgb(9,48,90)" opacity="0.35"/>
<circle cx="99" cy="201" r="5.0" fill="rgb(9,48,90)"/>
<circle cx="113" cy="201" r="7" fill="rgb(0,156,35)" opacity="0.35"/>
<circle cx="113" cy="201" r="5.0" fill="rgb(0,156,35)"/>
<circle cx="127" cy="201" r="7" fill="rgb(4,255,10)" opacity="0.35"/>
<circle cx="127" cy="201" r="5.0" fill="rgb(4,255,10)"/>
<circle cx="141" cy="201" r="7" fill="rgb(16,255,19)" opacity="0.35"/>
<circle cx="141" cy="201" r="5.0" fill="rgb(16,255,19)"/>
<circle cx="155" cy="201" r="7" fill="rgb(5,255,11)" opacity="0.35"/>
<circle cx="155" cy="201" r="5.0" fill="rgb(5,255,11)"/>
<circle cx="169" cy="201" r="7" fill="rgb(8,255,13)" opacity="0.35"/>
<circle cx="169" cy="201" r="5.0" fill="rgb(8,255,13)"/>
<circle cx="183" cy="201" r="7" fill="rgb(23,255,24)" opacity="0.35"/>
<circle cx="183" cy="201" r="5.0" fill="rgb(23,255,24)"/>
<circle cx="197" cy="201" r="7" fill="rgb(9,255,27)" opacity="0.35"/>
<circle cx="197" cy="201" r="5.0" fill="rgb(9,255,27)"/>
<circle cx="211" cy="201" r="7" fill="rgb(11,255,27)" opacity="0.35"/>
<circle cx="211" cy="201" r="5.0" fill="rgb(11,255,27)"/>
<circle cx="225" cy="201" r="7" fill="rgb(23,255,25)" opacity="0.35"/>
<circle cx="225" cy="201" r="5.0" fill="rgb(23,255,25)"/>
<circle cx="15" cy="215" r="7" fill="rgb(0,203,20)" opacity="0.35"/>
<circle cx="15" cy="215" r="5.0" fill="rgb(0,203,20)"/>
<circle cx="29" cy="215" r="7" fill="rgb(0,111,52)" opacity="0.35"/>
<circle cx="29" cy="215" r="5.0" fill="rgb(0,111,52)"/>
<circle cx="43" cy="215" r="7" fill="rgb(0,92,59)" opacity="0.35"/>
<circle cx="43" cy="215" r="5.0" fill="rgb(0,92,59)"/>
<circle cx="57" cy="215" r="7" fill="rgb(0,169,31)" opacity="0.35"/>
<circle cx="57" cy="215" r="5.0" fill="rgb(0,169,31)"/>
<circle cx="71" cy="215" r="7" fill="rgb(0,230,13)" opacity="0.35"/>
<circle cx="71" cy="215" r="5.0" fill="rgb(0,230,13)"/>
<circle cx="85" cy="215" r="7" fill="rgb(0,177,28)" opacity="0.35"/>
<circle cx="85" cy="215" r="5.0" fill="rgb(0,177,28)"/>
<circle cx="99" cy="215" r="7" fill="rgb(0,180,27)" opacity="0.35"/>
<circle cx="99" cy="215" r="5.0" fill="rgb(0,180,27)"/>
<circle cx="113" cy="215" r="7" fill="rgb(0,236,12)" opacity="0.35"/>
<circle cx="113" cy="215" r="5.0" fill="rgb(0,236,12)"/>
<circle cx="127" cy="215" r="7" fill="rgb(22,255,23)" opacity="0.35"/>
<circle cx="127" cy="215" r="5.0" fill="rgb(22,255,23)"/>
<circle cx="141" cy="215" r="7" fill="rgb(7,252,32)" opacity="0.35"/>
<circle cx="141" cy="215" r="5.0" fill="rgb(7,252,32)"/>
<circle cx="155" cy="215" r="7" fill="rgb(12,255,27)" opacity="0.35"/>
<circle cx="155" cy="215" r="5.0" fill="rgb(12,255,27)"/>
<circle cx="169" cy="215" r="7" fill="rgb(11,255,27)" opacity="0.35"/>
<circle cx="169" cy="215" r="5.0" fill="rgb(11,255,27)"/>
<circle cx="183" cy="215" r="7" fill="rgb(5,246,44)" opacity="0.35"/>
<circle cx="183" cy="215" r="5.0" fill="rgb(5,246,44)"/>
<circle cx="197" cy="215" r="7" fill="rgb(12,255,27)" opacity="0.35"/>
<circle cx="197" cy="215" r="5.0" fill="rgb(12,255,27)"/>
<circle cx="211" cy="215" r="7" fill="rgb(15,255,17)" opacity="0.35"/>
<circle cx="211" cy="215" r="5.0" fill="rgb(15,255,17)"/>
<circle cx="225" cy="215" r="7" fill="rgb(0,233,13)" opacity="0.35"/>
<circle cx="225" cy="215" r="5.0" fill="rgb(0,233,13)"/>
<circle cx="15" cy="229" r="7" fill="rgb(0,149,38)" opacity="0.35"/>
<circle cx="15" cy="229" r="5.0" fill="rgb(0,149,38)"/>
<circle cx="29" cy="229" r="7" fill="rgb(17,13,117)" opacity="0.35"/>
<circle cx="29" cy="229" r="5.0" fill="rgb(17,13,117)"/>
<circle cx="43" cy="229" r="7" fill="rgb(61,9,170)" opacity="0.35"/>
<circle cx="43" cy="229" r="5.0" fill="rgb(61,9,170)"/>
<circle cx="57" cy="229" r="7" fill="rgb(0,97,57)" opacity="0.35"/>
<circle cx="57" cy="229" r="5.0" fill="rgb(0,97,57)"/>
<circle cx="71" cy="229" r="7" fill="rgb(0,229,14)" opacity="0.35"/>
<circle cx="71" cy="229" r="5.0" fill="rgb(0,229,14)"/>
<circle cx="85" cy="229" r="7" fill="rgb(12,255,16)" opacity="0.35"/>
<circle cx="85" cy="229" r="5.0" fill="rgb(12,255,16)"/>
<circle cx="99" cy="229" r="7" fill="rgb(13,255,16)" opacity="0.35"/>
<circle cx="99" cy="229" r="5.0" fill="rgb(13,255,16)"/>
<circle cx="113" cy="229" r="7" fill="rgb(24,255,25)" opacity="0.35"/>
<circle cx="113" cy="229" r="5.0" fill="rgb(24,255,25)"/>
<circle cx="127" cy="229" r="7" fill="rgb(9,255,27)" opacity="0.35"/>
<circle cx="127" cy="229" r="5.0" fill="rgb(9,255,27)"/>
<circle cx="141" cy="229" r="7" fill="rgb(0,226,90)" opacity="0.35"/>
<circle cx="141" cy="229" r="5.0" fill="rgb(0,226,90)"/>
<circle cx="155" cy="229" r="7" fill="rgb(0,225,119)" opacity="0.35"/>
<circle cx="155" cy="229" r="5.0" fill="rgb(0,225,119)"/>
<circle cx="169" cy="229" r="7" fill="rgb(0,225,127)" opacity="0.35"/>
<circle cx="169" cy="229" r="5.0" fill="rgb(0,225,127)"/>
<circle cx="183" cy="229" r="7" fill="rgb(4,240,55)" opacity="0.35"/>
<circle cx="183" cy="229" r="5.0" fill="rgb(4,240,55)"/>
<circle cx="197" cy="229" r="7" fill="rgb(25,255,25)" opacity="0.35"/>
<circle cx="197" cy="229" r="5.0" fill="rgb(25,255,25)"/>
<circle cx="211" cy="229" r="7" fill="rgb(0,226,15)" opacity="0.35"/>
<circle cx="211" cy="229" r="5.0" fill="rgb(0,226,15)"/>
<circle cx="225" cy="229" r="7" fill="rgb(0,123,48)" opacity="0.35"/>
<circle cx="225" cy="229" r="5.0" fill="rgb(0,123,48)"/>
<circle cx="15" cy="243" r="7" fill="rgb(0,168,31)" opacity="0.35"/>
<circle cx="15" cy="243" r="5.0" fill="rgb(0,168,31)"/>
<circle cx="29" cy="243" r="7" fill="rgb(9,48,90)" opacity="0.35"/>
<circle cx="29" cy="243" r="5.0" fill="rgb(9,48,90)"/>
<circle cx="43" cy="243" r="7" fill="rgb(15,20,111)" opacity="0.35"/>
<circle cx="43" cy="243" r="5.0" fill="rgb(15,20,111)"/>
<circle cx="57" cy="243" r="7" fill="rgb(0,120,49)" opacity="0.35"/>
<circle cx="57" cy="243" r="5.0" fill="rgb(0,120,49)"/>
<circle cx="71" cy="243" r="7" fill="rgb(0,240,11)" opacity="0.35"/>
<circle cx="71" cy="243" r="5.0" fill="rgb(0,240,11)"/>
<circle cx="85" cy="243" r="7" fill="rgb(20,255,26)" opacity="0.35"/>
<circle cx="85" cy="243" r="5.0" fill="rgb(20,255,26)"/>
<circle cx="99" cy="243" r="7" fill="rgb(8,254,29)" opacity="0.35"/>
<circle cx="99" cy="243" r="5.0" fill="rgb(8,254,29)"/>
<circle cx="113" cy="243" r="7" fill="rgb(4,242,51)" opacity="0.35"/>
<circle cx="113" cy="243" r="5.0" fill="rgb(4,242,51)"/>
<circle cx="127" cy="243" r="7" fill="rgb(0,225,103)" opacity="0.35"/>
<circle cx="127" cy="243" r="5.0" fill="rgb(0,225,103)"/>
<circle cx="141" cy="243" r="7" fill="rgb(7,215,208)" opacity="0.35"/>
<circle cx="141" cy="243" r="5.0" fill="rgb(7,215,208)"/>
<circle cx="155" cy="243" r="7" fill="rgb(0,223,173)" opacity="0.35"/>
<circle cx="155" cy="243" r="5.0" fill="rgb(0,223,173)"/>
<circle cx="169" cy="243" r="7" fill="rgb(0,226,96)" opacity="0.35"/>
<circle cx="169" cy="243" r="5.0" fill="rgb(0,226,96)"/>
<circle cx="183" cy="243" r="7" fill="rgb(6,247,41)" opacity="0.35"/>
<circle cx="183" cy="243" r="5.0" fill="rgb(6,247,41)"/>
<circle cx="197" cy="243" r="7" fill="rgb(18,255,20)" opacity="0.35"/>
<circle cx="197" cy="243" r="5.0" fill="rgb(18,255,20)"/>
<circle cx="211" cy="243" r="7" fill="rgb(0,192,23)" opacity="0.35"/>
<circle cx="211" cy="243" r="5.0" fill="rgb(0,192,23)"/>
<circle cx="225" cy="243" r="7" fill="rgb(8,51,88)" opacity="0.35"/>
<circle cx="225" cy="243" r="5.0" fill="rgb(8,51,88)"/>
<circle cx="15" cy="257" r="7" fill="rgb(0,237,12)" opacity="0.35"/>
<circle cx="15" cy="257" r="5.0" fill="rgb(0,237,12)"/>
<circle cx="29" cy="257" r="7" fill="rgb(0,172,30)" opacity="0.35"/>
<circle cx="29" cy="257" r="5.0" fill="rgb(0,172,30)"/>
<circle cx="43" cy="257" r="7" fill="rgb(0,157,35)" opacity="0.35"/>
<circle cx="43" cy="257" r="5.0" fill="rgb(0,157,35)"/>
<circle cx="57" cy="257" r="7" fill="rgb(0,210,19)" opacity="0.35"/>
<circle cx="57" cy="257" r="5.0" fill="rgb(0,210,19)"/>
<circle cx="71" cy="257" r="7" fill="rgb(13,255,16)" opacity="0.35"/>
<circle cx="71" cy="257" r="5.0" fill="rgb(13,255,16)"/>
<circle cx="85" cy="257" r="7" fill="rgb(11,255,27)" opacity="0.35"/>
<circle cx="85" cy="257" r="5.0" fill="rgb(11,255,27)"/>
<circle cx="99" cy="257" r="7" fill="rgb(0,225,113)" opacity="0.35"/>
<circle cx="99" cy="257" r="5.0" fill="rgb(0,225,113)"/>
<circle cx="113" cy="257" r="7" fill="rgb(0,222,191)" opacity="0.35"/>
<circle cx="113" cy="257" r="5.0" fill="rgb(0,222,191)"/>
<circle cx="127" cy="257" r="7" fill="rgb(25,195,229)" opacity="0.35"/>
<circle cx="127" cy="257" r="5.0" fill="rgb(25,195,229)"/>
<circle cx="141" cy="257" r="7" fill="rgb(0,224,143)" opacity="0.35"/>
<circle cx="141" cy="257" r="5.0" fill="rgb(0,224,143)"/>
<circle cx="155" cy="257" r="7" fill="rgb(4,241,53)" opacity="0.35"/>
<circle cx="155" cy="257" r="5.0" fill="rgb(4,241,53)"/>
<circle cx="169" cy="257" r="7" fill="rgb(14,255,26)" opacity="0.35"/>
<circle cx="169" cy="257" r="5.0" fill="rgb(14,255,26)"/>
<circle cx="183" cy="257" r="7" fill="rgb(21,255,25)" opacity="0.35"/>
<circle cx="183" cy="257" r="5.0" fill="rgb(21,255,25)"/>
<circle cx="197" cy="257" r="7" fill="rgb(22,255,23)" opacity="0.35"/>
<circle cx="197" cy="257" r="5.0" fill="rgb(22,255,23)"/>
<circle cx="211" cy="257" r="7" fill="rgb(0,212,18)" opacity="0.35"/>
<circle cx="211" cy="257" r="5.0" fill="rgb(0,212,18)"/>
<circle cx="225" cy="257" r="7" fill="rgb(0,94,59)" opacity="0.35"/>
<circle cx="225" cy="257" r="5.0" fill="rgb(0,94,59)"/>
<circle cx="-2" cy="280" r="9" fill="#ff5cf0" opacity="0.25"/>
<circle cx="-2" cy="280" r="6" fill="#ff5cf0" stroke="#0d0f12" stroke-width="1.5"/>
<text x="10" y="284" font-family="'JetBrains Mono','Cascadia Mono','Consolas',monospace" font-size="12" fill="#a0a0a0">Palette</text>
<circle cx="242" cy="280" r="9" fill="#5ad1ff" opacity="0.25"/>
<circle cx="242" cy="280" r="6" fill="#5ad1ff" stroke="#0d0f12" stroke-width="1.5"/>
<text x="230" y="284" text-anchor="end" font-family="'JetBrains Mono','Cascadia Mono','Consolas',monospace" font-size="12" fill="#a0a0a0">Frame</text>
<circle cx="-2" cy="308" r="9" fill="#9aa0a6" opacity="0.25"/>
<circle cx="-2" cy="308" r="6" fill="#9aa0a6" stroke="#0d0f12" stroke-width="1.5"/>
<text x="10" y="312" font-family="'JetBrains Mono','Cascadia Mono','Consolas',monospace" font-size="12" fill="#a0a0a0">Speed</text>
<circle cx="-2" cy="336" r="9" fill="#9aa0a6" opacity="0.25"/>
<circle cx="-2" cy="336" r="6" fill="#9aa0a6" stroke="#0d0f12" stroke-width="1.5"/>
<text x="10" y="340" font-family="'JetBrains Mono','Cascadia Mono','Consolas',monospace" font-size="12" fill="#a0a0a0">Count</text>
<line x1="8" y1="356" x2="232" y2="356" stroke="rgba(255,255,255,0.08)"/>
<text x="8" y="376" font-family="'JetBrains Mono','Cascadia Mono','Consolas',monospace" font-size="12" fill="#a0a0a0">speed</text>
<g>
<rect x="120" y="370" width="72" height="4" rx="2" fill="#cfd2d6" opacity="0.85"/>
<rect x="120" y="370" width="23.8" height="4" rx="2" fill="#d633ff"/>
<circle cx="143.8" cy="372" r="5" fill="#d633ff"/>
<text x="232" y="376" text-anchor="end" font-family="'JetBrains Mono','Cascadia Mono','Consolas',monospace" font-size="12" fill="#e0e0e0">0.33</text>
</g>
<text x="8" y="397" font-family="'JetBrains Mono','Cascadia Mono','Consolas',monospace" font-size="12" fill="#a0a0a0">count</text>
<g>
<rect x="120" y="391" width="72" height="4" rx="2" fill="#cfd2d6" opacity="0.85"/>
<rect x="120" y="391" width="21.3" height="4" rx="2" fill="#d633ff"/>
<circle cx="141.3" cy="393" r="5" fill="#d633ff"/>
<text x="232" y="397" text-anchor="end" font-family="'JetBrains Mono','Cascadia Mono','Consolas',monospace" font-size="12" fill="#e0e0e0">60</text>
</g>
<text x="8" y="418" font-family="'JetBrains Mono','Cascadia Mono','Consolas',monospace" font-size="12" fill="#a0a0a0">palette</text>
<g>
<rect x="148" y="406" width="84" height="16" rx="4" fill="#0d0f12" stroke="rgba(255,255,255,0.12)"/>
<text x="152" y="418" font-family="'JetBrains Mono','Cascadia Mono','Consolas',monospace" font-size="11" fill="#e0e0e0">ice</text>
<text x="228" y="418" text-anchor="end" font-size="8" fill="#a0a0a0">▾</text>
</g>
<text x="8" y="439" font-family="'JetBrains Mono','Cascadia Mono','Consolas',monospace" font-size="12" fill="#a0a0a0">seed</text>
<g>
<rect x="120" y="433" width="72" height="4" rx="2" fill="#cfd2d6" opacity="0.85"/>
<rect x="120" y="433" width="0.0" height="4" rx="2" fill="#d633ff"/>
<circle cx="120.0" cy="435" r="5" fill="#d633ff"/>
<text x="232" y="439" text-anchor="end" font-family="'JetBrains Mono','Cascadia Mono','Consolas',monospace" font-size="12" fill="#e0e0e0">0</text>
</g>
<text x="8" y="460" font-family="'JetBrains Mono','Cascadia Mono','Consolas',monospace" font-size="12" fill="#a0a0a0">clamp inputs</text>
<g>
<rect x="220" y="450" width="12" height="12" rx="3" fill="#0d0f12" stroke="rgba(255,255,255,0.12)"/>
</g>
</g>
</svg>
