<svg xmlns="http://www.w3.org/2000/svg" viewBox="0 0 296 489" width="296" height="489" role="img" aria-label="Treble Sparks node">

<defs><filter id="shadow" x="-20%" y="-20%" width="140%" height="160%"><feDropShadow dx="0" dy="8" stdDeviation="9" flood-color="#000" flood-opacity="0.45"/></filter></defs>
<g transform="translate(28,24)">
<rect x="0" y="0" width="240" height="431" rx="8" fill="#1f242b" stroke="rgba(255,255,255,0.12)" filter="url(#shadow)"/>
<rect x="0" y="0" width="240" height="431" rx="8" fill="#1f242b" stroke="rgba(255,255,255,0.12)"/>
<path d="M0,32 L0,8 Q0,0 8,0 L232,0 Q240,0 240,8 L240,32 Z" fill="#33d6ff"/>
<text x="8" y="21" font-family="'Audiowide','Trebuchet MS','Arial Black',sans-serif" font-size="14" font-weight="600" fill="#000">Treble Sparks</text>
<rect x="154" y="10" width="25" height="12" rx="6" fill="rgba(0,0,0,0.14)" stroke="rgba(255,255,255,0.14)"/>
<text x="166.5" y="19" text-anchor="middle" font-family="'JetBrains Mono','Cascadia Mono','Consolas',monospace" font-size="8" letter-spacing="0.08em" fill="#000">PAT</text>
<rect x="185" y="10" width="47" height="12" rx="6" fill="rgba(0,0,0,0.14)" stroke="rgba(255,255,255,0.14)"/>
<text x="208.5" y="19" text-anchor="middle" font-family="'JetBrains Mono','Cascadia Mono','Consolas',monospace" font-size="8" letter-spacing="0.08em" fill="#000">TRE-146</text>
<rect x="8" y="40" width="224" height="224" rx="4" fill="#05070a"/>
<circle cx="15" cy="47" r="5.0" fill="#14171c"/>
<circle cx="29" cy="47" r="7" fill="rgb(95,110,116)" opacity="0.35"/>
<circle cx="29" cy="47" r="5.0" fill="rgb(95,110,116)"/>
<circle cx="43" cy="47" r="7" fill="rgb(221,255,255)" opacity="0.35"/>
<circle cx="43" cy="47" r="5.0" fill="rgb(221,255,255)"/>
<circle cx="57" cy="47" r="7" fill="rgb(92,106,113)" opacity="0.35"/>
<circle cx="57" cy="47" r="5.0" fill="rgb(92,106,113)"/>
<circle cx="71" cy="47" r="5.0" fill="#14171c"/>
<circle cx="85" cy="47" r="5.0" fill="#14171c"/>
<circle cx="99" cy="47" r="7" fill="rgb(33,38,40)" opacity="0.35"/>
<circle cx="99" cy="47" r="5.0" fill="rgb(33,38,40)"/>
<circle cx="113" cy="47" r="5.0" fill="#14171c"/>
<circle cx="127" cy="47" r="5.0" fill="#14171c"/>
<circle cx="141" cy="47" r="5.0" fill="#14171c"/>
<circle cx="155" cy="47" r="5.0" fill="#14171c"/>
<circle cx="169" cy="47" r="5.0" fill="#14171c"/>
<circle cx="183" cy="47" r="5.0" fill="#14171c"/>
<circle cx="197" cy="47" r="5.0" fill="#14171c"/>
<circle cx="211" cy="47" r="7" fill="rgb(101,104,106)" opacity="0.35"/>
<circle cx="211" cy="47" r="5.0" fill="rgb(101,104,106)"/>
<circle cx="225" cy="47" r="7" fill="rgb(239,247,252)" opacity="0.35"/>
<circle cx="225" cy="47" r="5.0" fill="rgb(239,247,252)"/>
<circle cx="15" cy="61" r="5.0" fill="#14171c"/>
<circle cx="29" cy="61" r="7" fill="rgb(84,97,104)" opacity="0.35"/>
<circle cx="29" cy="61" r="5.0" fill="rgb(84,97,104)"/>
<circle cx="43" cy="61" r="7" fill="rgb(192,223,236)" opacity="0.35"/>
<circle cx="43" cy="61" r="5.0" fill="rgb(192,223,236)"/>
<circle cx="57" cy="61" r="7" fill="rgb(80,93,100)" opacity="0.35"/>
<circle cx="57" cy="61" r="5.0" fill="rgb(80,93,100)"/>
<circle cx="71" cy="61" r="5.0" fill="#14171c"/>
<circle cx="85" cy="61" r="7" fill="rgb(34,39,42)" opacity="0.35"/>
<circle cx="85" cy="61" r="5.0" fill="rgb(34,39,42)"/>
<circle cx="99" cy="61" r="7" fill="rgb(79,92,98)" opacity="0.35"/>
<circle cx="99" cy="61" r="5.0" fill="rgb(79,92,98)"/>
<circle cx="113" cy="61" r="7" fill="rgb(33,38,40)" opacity="0.35"/>
<circle cx="113" cy="61" r="5.0" fill="rgb(33,38,40)"/>
<circle cx="127" cy="61" r="5.0" fill="#14171c"/>
<circle cx="141" cy="61" r="5.0" fill="#14171c"/>
<circle cx="155" cy="61" r="5.0" fill="#14171c"/>
<circle cx="169" cy="61" r="5.0" fill="#14171c"/>
<circle cx="183" cy="61" r="5.0" fill="#14171c"/>
<circle cx="197" cy="61" r="7" fill="rgb(20,21,21)" opacity="0.35"/>
<circle cx="197" cy="61" r="5.0" fill="rgb(20,21,21)"/>
<circle cx="211" cy="61" r="7" fill="rgb(89,92,93)" opacity="0.35"/>
<circle cx="211" cy="61" r="5.0" fill="rgb(89,92,93)"/>
<circle cx="225" cy="61" r="7" fill="rgb(120,123,125)" opacity="0.35"/>
<circle cx="225" cy="61" r="5.0" fill="rgb(120,123,125)"/>
<circle cx="15" cy="75" r="7" fill="rgb(79,90,94)" opacity="0.35"/>
<circle cx="15" cy="75" r="5.0" fill="rgb(79,90,94)"/>
<circle cx="29" cy="75" r="7" fill="rgb(58,66,69)" opacity="0.35"/>
<circle cx="29" cy="75" r="5.0" fill="rgb(58,66,69)"/>
<circle cx="43" cy="75" r="7" fill="rgb(65,76,81)" opacity="0.35"/>
<circle cx="43" cy="75" r="5.0" fill="rgb(65,76,81)"/>
<circle cx="57" cy="75" r="7" fill="rgb(50,58,61)" opacity="0.35"/>
<circle cx="57" cy="75" r="5.0" fill="rgb(50,58,61)"/>
<circle cx="71" cy="75" r="5.0" fill="#14171c"/>
<circle cx="85" cy="75" r="7" fill="rgb(15,17,18)" opacity="0.35"/>
<circle cx="85" cy="75" r="5.0" fill="rgb(15,17,18)"/>
<circle cx="99" cy="75" r="7" fill="rgb(44,49,51)" opacity="0.35"/>
<circle cx="99" cy="75" r="5.0" fill="rgb(44,49,51)"/>
<circle cx="113" cy="75" r="7" fill="rgb(33,36,37)" opacity="0.35"/>
<circle cx="113" cy="75" r="5.0" fill="rgb(33,36,37)"/>
<circle cx="127" cy="75" r="5.0" fill="#14171c"/>
<circle cx="141" cy="75" r="5.0" fill="#14171c"/>
<circle cx="155" cy="75" r="7" fill="rgb(24,27,29)" opacity="0.35"/>
<circle cx="155" cy="75" r="5.0" fill="rgb(24,27,29)"/>
<circle cx="169" cy="75" r="5.0" fill="#14171c"/>
<circle cx="183" cy="75" r="5.0" fill="#14171c"/>
<circle cx="197" cy="75" r="7" fill="rgb(52,54,55)" opacity="0.35"/>
<circle cx="197" cy="75" r="5.0" fill="rgb(52,54,55)"/>
<circle cx="211" cy="75" r="7" fill="rgb(123,127,129)" opacity="0.35"/>
<circle cx="211" cy="75" r="5.0" fill="rgb(123,127,129)"/>
<circle cx="225" cy="75" r="7" fill="rgb(51,54,55)" opacity="0.35"/>
<circle cx="225" cy="75" r="5.0" fill="rgb(51,54,55)"/>
<circle cx="15" cy="89" r="7" fill="rgb(175,199,210)" opacity="0.35"/>
<circle cx="15" cy="89" r="5.0" fill="rgb(175,199,210)"/>
<circle cx="29" cy="89" r="7" fill="rgb(78,88,93)" opacity="0.35"/>
<circle cx="29" cy="89" r="5.0" fill="rgb(78,88,93)"/>
<circle cx="43" cy="89" r="7" fill="rgb(26,32,33)" opacity="0.35"/>
<circle cx="43" cy="89" r="5.0" fill="rgb(26,32,33)"/>
<circle cx="57" cy="89" r="7" fill="rgb(58,69,73)" opacity="0.35"/>
<circle cx="57" cy="89" r="5.0" fill="rgb(58,69,73)"/>
<circle cx="71" cy="89" r="7" fill="rgb(24,29,30)" opacity="0.35"/>
<circle cx="71" cy="89" r="5.0" fill="rgb(24,29,30)"/>
<circle cx="85" cy="89" r="7" fill="rgb(25,29,31)" opacity="0.35"/>
<circle cx="85" cy="89" r="5.0" fill="rgb(25,29,31)"/>
<circle cx="99" cy="89" r="7" fill="rgb(82,94,100)" opacity="0.35"/>
<circle cx="99" cy="89" r="5.0" fill="rgb(82,94,100)"/>
<circle cx="113" cy="89" r="7" fill="rgb(71,75,77)" opacity="0.35"/>
<circle cx="113" cy="89" r="5.0" fill="rgb(71,75,77)"/>
<circle cx="127" cy="89" r="7" fill="rgb(20,21,21)" opacity="0.35"/>
<circle cx="127" cy="89" r="5.0" fill="rgb(20,21,21)"/>
<circle cx="141" cy="89" r="5.0" fill="#14171c"/>
<circle cx="155" cy="89" r="5.0" fill="#14171c"/>
<circle cx="169" cy="89" r="5.0" fill="#14171c"/>
<circle cx="183" cy="89" r="5.0" fill="#14171c"/>
<circle cx="197" cy="89" r="7" fill="rgb(24,24,24)" opacity="0.35"/>
<circle cx="197" cy="89" r="5.0" fill="rgb(24,24,24)"/>
<circle cx="211" cy="89" r="7" fill="rgb(59,61,62)" opacity="0.35"/>
<circle cx="211" cy="89" r="5.0" fill="rgb(59,61,62)"/>
<circle cx="225" cy="89" r="7" fill="rgb(22,24,24)" opacity="0.35"/>
<circle cx="225" cy="89" r="5.0" fill="rgb(22,24,24)"/>
<circle cx="15" cy="103" r="7" fill="rgb(98,111,116)" opacity="0.35"/>
<circle cx="15" cy="103" r="5.0" fill="rgb(98,111,116)"/>
<circle cx="29" cy="103" r="7" fill="rgb(38,43,44)" opacity="0.35"/>
<circle cx="29" cy="103" r="5.0" fill="rgb(38,43,44)"/>
<circle cx="43" cy="103" r="5.0" fill="#14171c"/>
<circle cx="57" cy="103" r="7" fill="rgb(38,45,48)" opacity="0.35"/>
<circle cx="57" cy="103" r="5.0" fill="rgb(38,45,48)"/>
<circle cx="71" cy="103" r="7" fill="rgb(43,49,52)" opacity="0.35"/>
<circle cx="71" cy="103" r="5.0" fill="rgb(43,49,52)"/>
<circle cx="85" cy="103" r="7" fill="rgb(73,86,92)" opacity="0.35"/>
<circle cx="85" cy="103" r="5.0" fill="rgb(73,86,92)"/>
<circle cx="99" cy="103" r="7" fill="rgb(153,179,190)" opacity="0.35"/>
<circle cx="99" cy="103" r="5.0" fill="rgb(153,179,190)"/>
<circle cx="113" cy="103" r="7" fill="rgb(81,93,98)" opacity="0.35"/>
<circle cx="113" cy="103" r="5.0" fill="rgb(81,93,98)"/>
<circle cx="127" cy="103" r="5.0" fill="#14171c"/>
<circle cx="141" cy="103" r="5.0" fill="#14171c"/>
<circle cx="155" cy="103" r="5.0" fill="#14171c"/>
<circle cx="169" cy="103" r="5.0" fill="#14171c"/>
<circle cx="183" cy="103" r="5.0" fill="#14171c"/>
<circle cx="197" cy="103" r="5.0" fill="#14171c"/>
<circle cx="211" cy="103" r="5.0" fill="#14171c"/>
<circle cx="225" cy="103" r="5.0" fill="#14171c"/>
<circle cx="15" cy="117" r="7" fill="rgb(58,65,69)" opacity="0.35"/>
<circle cx="15" cy="117" r="5.0" fill="rgb(58,65,69)"/>
<circle cx="29" cy="117" r="7" fill="rgb(25,28,29)" opacity="0.35"/>
<circle cx="29" cy="117" r="5.0" fill="rgb(25,28,29)"/>
<circle cx="43" cy="117" r="5.0" fill="#14171c"/>
<circle cx="57" cy="117" r="7" fill="rgb(68,77,81)" opacity="0.35"/>
<circle cx="57" cy="117" r="5.0" fill="rgb(68,77,81)"/>
<circle cx="71" cy="117" r="7" fill="rgb(92,106,112)" opacity="0.35"/>
<circle cx="71" cy="117" r="5.0" fill="rgb(92,106,112)"/>
<circle cx="85" cy="117" r="7" fill="rgb(57,66,71)" opacity="0.35"/>
<circle cx="85" cy="117" r="5.0" fill="rgb(57,66,71)"/>
<circle cx="99" cy="117" r="7" fill="rgb(62,74,79)" opacity="0.35"/>
<circle cx="99" cy="117" r="5.0" fill="rgb(62,74,79)"/>
<circle cx="113" cy="117" r="7" fill="rgb(33,38,41)" opacity="0.35"/>
<circle cx="113" cy="117" r="5.0" fill="rgb(33,38,41)"/>
<circle cx="127" cy="117" r="7" fill="rgb(17,18,19)" opacity="0.35"/>
<circle cx="127" cy="117" r="5.0" fill="rgb(17,18,19)"/>
<circle cx="141" cy="117" r="5.0" fill="#14171c"/>
<circle cx="155" cy="117" r="5.0" fill="#14171c"/>
<circle cx="169" cy="117" r="7" fill="rgb(29,34,36)" opacity="0.35"/>
<circle cx="169" cy="117" r="5.0" fill="rgb(29,34,36)"/>
<circle cx="183" cy="117" r="5.0" fill="#14171c"/>
<circle cx="197" cy="117" r="5.0" fill="#14171c"/>
<circle cx="211" cy="117" r="5.0" fill="#14171c"/>
<circle cx="225" cy="117" r="5.0" fill="#14171c"/>
<circle cx="15" cy="131" r="7" fill="rgb(25,28,29)" opacity="0.35"/>
<circle cx="15" cy="131" r="5.0" fill="rgb(25,28,29)"/>
<circle cx="29" cy="131" r="5.0" fill="#14171c"/>
<circle cx="43" cy="131" r="7" fill="rgb(36,40,42)" opacity="0.35"/>
<circle cx="43" cy="131" r="5.0" fill="rgb(36,40,42)"/>
<circle cx="57" cy="131" r="7" fill="rgb(102,112,118)" opacity="0.35"/>
<circle cx="57" cy="131" r="5.0" fill="rgb(102,112,118)"/>
<circle cx="71" cy="131" r="7" fill="rgb(81,90,94)" opacity="0.35"/>
<circle cx="71" cy="131" r="5.0" fill="rgb(81,90,94)"/>
<circle cx="85" cy="131" r="7" fill="rgb(20,22,24)" opacity="0.35"/>
<circle cx="85" cy="131" r="5.0" fill="rgb(20,22,24)"/>
<circle cx="99" cy="131" r="5.0" fill="#14171c"/>
<circle cx="113" cy="131" r="7" fill="rgb(17,18,19)" opacity="0.35"/>
<circle cx="113" cy="131" r="5.0" fill="rgb(17,18,19)"/>
<circle cx="127" cy="131" r="7" fill="rgb(36,39,40)" opacity="0.35"/>
<circle cx="127" cy="131" r="5.0" fill="rgb(36,39,40)"/>
<circle cx="141" cy="131" r="7" fill="rgb(16,16,17)" opacity="0.35"/>
<circle cx="141" cy="131" r="5.0" fill="rgb(16,16,17)"/>
<circle cx="155" cy="131" r="5.0" fill="#14171c"/>
<circle cx="169" cy="131" r="7" fill="rgb(16,18,20)" opacity="0.35"/>
<circle cx="169" cy="131" r="5.0" fill="rgb(16,18,20)"/>
<circle cx="183" cy="131" r="5.0" fill="#14171c"/>
<circle cx="197" cy="131" r="5.0" fill="#14171c"/>
<circle cx="211" cy="131" r="5.0" fill="#14171c"/>
<circle cx="225" cy="131" r="5.0" fill="#14171c"/>
<circle cx="15" cy="145" r="5.0" fill="#14171c"/>
<circle cx="29" cy="145" r="5.0" fill="#14171c"/>
<circle cx="43" cy="145" r="7" fill="rgb(41,46,49)" opacity="0.35"/>
<circle cx="43" cy="145" r="5.0" fill="rgb(41,46,49)"/>
<circle cx="57" cy="145" r="7" fill="rgb(87,98,103)" opacity="0.35"/>
<circle cx="57" cy="145" r="5.0" fill="rgb(87,98,103)"/>
<circle cx="71" cy="145" r="7" fill="rgb(55,58,60)" opacity="0.35"/>
<circle cx="71" cy="145" r="5.0" fill="rgb(55,58,60)"/>
<circle cx="85" cy="145" r="5.0" fill="#14171c"/>
<circle cx="99" cy="145" r="5.0" fill="#14171c"/>
<circle cx="113" cy="145" r="7" fill="rgb(37,40,41)" opacity="0.35"/>
<circle cx="113" cy="145" r="5.0" fill="rgb(37,40,41)"/>
<circle cx="127" cy="145" r="7" fill="rgb(99,106,110)" opacity="0.35"/>
<circle cx="127" cy="145" r="5.0" fill="rgb(99,106,110)"/>
<circle cx="141" cy="145" r="7" fill="rgb(42,45,47)" opacity="0.35"/>
<circle cx="141" cy="145" r="5.0" fill="rgb(42,45,47)"/>
<circle cx="155" cy="145" r="5.0" fill="#14171c"/>
<circle cx="169" cy="145" r="5.0" fill="#14171c"/>
<circle cx="183" cy="145" r="5.0" fill="#14171c"/>
<circle cx="197" cy="145" r="5.0" fill="#14171c"/>
<circle cx="211" cy="145" r="5.0" fill="#14171c"/>
<circle cx="225" cy="145" r="5.0" fill="#14171c"/>
<circle cx="15" cy="159" r="5.0" fill="#14171c"/>
<circle cx="29" cy="159" r="5.0" fill="#14171c"/>
<circle cx="43" cy="159" r="7" fill="rgb(58,68,71)" opacity="0.35"/>
<circle cx="43" cy="159" r="5.0" fill="rgb(58,68,71)"/>
<circle cx="57" cy="159" r="7" fill="rgb(85,99,105)" opacity="0.35"/>
<circle cx="57" cy="159" r="5.0" fill="rgb(85,99,105)"/>
<circle cx="71" cy="159" r="7" fill="rgb(40,46,49)" opacity="0.35"/>
<circle cx="71" cy="159" r="5.0" fill="rgb(40,46,49)"/>
<circle cx="85" cy="159" r="5.0" fill="#14171c"/>
<circle cx="99" cy="159" r="5.0" fill="#14171c"/>
<circle cx="113" cy="159" r="7" fill="rgb(82,88,91)" opacity="0.35"/>
<circle cx="113" cy="159" r="5.0" fill="rgb(82,88,91)"/>
<circle cx="127" cy="159" r="7" fill="rgb(199,214,223)" opacity="0.35"/>
<circle cx="127" cy="159" r="5.0" fill="rgb(199,214,223)"/>
<circle cx="141" cy="159" r="7" fill="rgb(93,100,104)" opacity="0.35"/>
<circle cx="141" cy="159" r="5.0" fill="rgb(93,100,104)"/>
<circle cx="155" cy="159" r="5.0" fill="#14171c"/>
<circle cx="169" cy="159" r="7" fill="rgb(17,20,20)" opacity="0.35"/>
<circle cx="169" cy="159" r="5.0" fill="rgb(17,20,20)"/>
<circle cx="183" cy="159" r="7" fill="rgb(55,61,65)" opacity="0.35"/>
<circle cx="183" cy="159" r="5.0" fill="rgb(55,61,65)"/>
<circle cx="197" cy="159" r="7" fill="rgb(71,79,82)" opacity="0.35"/>
<circle cx="197" cy="159" r="5.0" fill="rgb(71,79,82)"/>
<circle cx="211" cy="159" r="7" fill="rgb(39,42,43)" opacity="0.35"/>
<circle cx="211" cy="159" r="5.0" fill="rgb(39,42,43)"/>
<circle cx="225" cy="159" r="5.0" fill="#14171c"/>
<circle cx="15" cy="173" r="7" fill="rgb(43,44,44)" opacity="0.35"/>
<circle cx="15" cy="173" r="5.0" fill="rgb(43,44,44)"/>
<circle cx="29" cy="173" r="7" fill="rgb(27,29,30)" opacity="0.35"/>
<circle cx="29" cy="173" r="5.0" fill="rgb(27,29,30)"/>
<circle cx="43" cy="173" r="7" fill="rgb(34,39,42)" opacity="0.35"/>
<circle cx="43" cy="173" r="5.0" fill="rgb(34,39,42)"/>
<circle cx="57" cy="173" r="7" fill="rgb(36,43,45)" opacity="0.35"/>
<circle cx="57" cy="173" r="5.0" fill="rgb(36,43,45)"/>
<circle cx="71" cy="173" r="5.0" fill="#14171c"/>
<circle cx="85" cy="173" r="5.0" fill="#14171c"/>
<circle cx="99" cy="173" r="5.0" fill="#14171c"/>
<circle cx="113" cy="173" r="7" fill="rgb(31,33,34)" opacity="0.35"/>
<circle cx="113" cy="173" r="5.0" fill="rgb(31,33,34)"/>
<circle cx="127" cy="173" r="7" fill="rgb(84,90,93)" opacity="0.35"/>
<circle cx="127" cy="173" r="5.0" fill="rgb(84,90,93)"/>
<circle cx="141" cy="173" r="7" fill="rgb(36,39,40)" opacity="0.35"/>
<circle cx="141" cy="173" r="5.0" fill="rgb(36,39,40)"/>
<circle cx="155" cy="173" r="5.0" fill="#14171c"/>
<circle cx="169" cy="173" r="7" fill="rgb(35,39,40)" opacity="0.35"/>
<circle cx="169" cy="173" r="5.0" fill="rgb(35,39,40)"/>
<circle cx="183" cy="173" r="7" fill="rgb(131,145,151)" opacity="0.35"/>
<circle cx="183" cy="173" r="5.0" fill="rgb(131,145,151)"/>
<circle cx="197" cy="173" r="7" fill="rgb(175,191,192)" opacity="0.35"/>
<circle cx="197" cy="173" r="5.0" fill="rgb(175,191,192)"/>
<circle cx="211" cy="173" r="7" fill="rgb(113,127,134)" opacity="0.35"/>
<circle cx="211" cy="173" r="5.0" fill="rgb(113,127,134)"/>
<circle cx="225" cy="173" r="7" fill="rgb(31,35,36)" opacity="0.35"/>
<circle cx="225" cy="173" r="5.0" fill="rgb(31,35,36)"/>
<circle cx="15" cy="187" r="7" fill="rgb(100,102,103)" opacity="0.35"/>
<circle cx="15" cy="187" r="5.0" fill="rgb(100,102,103)"/>
<circle cx="29" cy="187" r="7" fill="rgb(53,55,56)" opacity="0.35"/>
<circle cx="29" cy="187" r="5.0" fill="rgb(53,55,56)"/>
<circle cx="43" cy="187" r="7" fill="rgb(25,28,28)" opacity="0.35"/>
<circle cx="43" cy="187" r="5.0" fill="rgb(25,28,28)"/>
<circle cx="57" cy="187" r="5.0" fill="#14171c"/>
<circle cx="71" cy="187" r="5.0" fill="#14171c"/>
<circle cx="85" cy="187" r="5.0" fill="#14171c"/>
<circle cx="99" cy="187" r="7" fill="rgb(16,18,18)" opacity="0.35"/>
<circle cx="99" cy="187" r="5.0" fill="rgb(16,18,18)"/>
<circle cx="113" cy="187" r="7" fill="rgb(28,30,32)" opacity="0.35"/>
<circle cx="113" cy="187" r="5.0" fill="rgb(28,30,32)"/>
<circle cx="127" cy="187" r="5.0" fill="#14171c"/>
<circle cx="141" cy="187" r="5.0" fill="#14171c"/>
<circle cx="155" cy="187" r="5.0" fill="#14171c"/>
<circle cx="169" cy="187" r="7" fill="rgb(16,17,18)" opacity="0.35"/>
<circle cx="169" cy="187" r="5.0" fill="rgb(16,17,18)"/>
<circle cx="183" cy="187" r="7" fill="rgb(53,59,62)" opacity="0.35"/>
<circle cx="183" cy="187" r="5.0" fill="rgb(53,59,62)"/>
<circle cx="197" cy="187" r="7" fill="rgb(115,130,137)" opacity="0.35"/>
<circle cx="197" cy="187" r="5.0" fill="rgb(115,130,137)"/>
<circle cx="211" cy="187" r="7" fill="rgb(149,172,182)" opacity="0.35"/>
<circle cx="211" cy="187" r="5.0" fill="rgb(149,172,182)"/>
<circle cx="225" cy="187" r="7" fill="rgb(64,73,78)" opacity="0.35"/>
<circle cx="225" cy="187" r="5.0" fill="rgb(64,73,78)"/>
<circle cx="15" cy="201" r="7" fill="rgb(42,44,44)" opacity="0.35"/>
<circle cx="15" cy="201" r="5.0" fill="rgb(42,44,44)"/>
<circle cx="29" cy="201" r="7" fill="rgb(20,21,21)" opacity="0.35"/>
<circle cx="29" cy="201" r="5.0" fill="rgb(20,21,21)"/>
<circle cx="43" cy="201" r="5.0" fill="#14171c"/>
<circle cx="57" cy="201" r="5.0" fill="#14171c"/>
<circle cx="71" cy="201" r="5.0" fill="#14171c"/>
<circle cx="85" cy="201" r="5.0" fill="#14171c"/>
<circle cx="99" cy="201" r="7" fill="rgb(42,48,49)" opacity="0.35"/>
<circle cx="99" cy="201" r="5.0" fill="rgb(42,48,49)"/>
<circle cx="113" cy="201" r="7" fill="rgb(81,91,95)" opacity="0.35"/>
<circle cx="113" cy="201" r="5.0" fill="rgb(81,91,95)"/>
<circle cx="127" cy="201" r="7" fill="rgb(59,67,70)" opacity="0.35"/>
<circle cx="127" cy="201" r="5.0" fill="rgb(59,67,70)"/>
<circle cx="141" cy="201" r="5.0" fill="#14171c"/>
<circle cx="155" cy="201" r="5.0" fill="#14171c"/>
<circle cx="169" cy="201" r="5.0" fill="#14171c"/>
<circle cx="183" cy="201" r="5.0" fill="#14171c"/>
<circle cx="197" cy="201" r="7" fill="rgb(31,34,36)" opacity="0.35"/>
<circle cx="197" cy="201" r="5.0" fill="rgb(31,34,36)"/>
<circle cx="211" cy="201" r="7" fill="rgb(59,67,71)" opacity="0.35"/>
<circle cx="211" cy="201" r="5.0" fill="rgb(59,67,71)"/>
<circle cx="225" cy="201" r="7" fill="rgb(25,28,30)" opacity="0.35"/>
<circle cx="225" cy="201" r="5.0" fill="rgb(25,28,30)"/>
<circle cx="15" cy="215" r="5.0" fill="#14171c"/>
<circle cx="29" cy="215" r="5.0" fill="#14171c"/>
<circle cx="43" cy="215" r="7" fill="rgb(24,26,28)" opacity="0.35"/>
<circle cx="43" cy="215" r="5.0" fill="rgb(24,26,28)"/>
<circle cx="57" cy="215" r="7" fill="rgb(26,28,28)" opacity="0.35"/>
<circle cx="57" cy="215" r="5.0" fill="rgb(26,28,28)"/>
<circle cx="71" cy="215" r="5.0" fill="#14171c"/>
<circle cx="85" cy="215" r="5.0" fill="#14171c"/>
<circle cx="99" cy="215" r="7" fill="rgb(21,24,25)" opacity="0.35"/>
<circle cx="99" cy="215" r="5.0" fill="rgb(21,24,25)"/>
<circle cx="113" cy="215" r="7" fill="rgb(72,81,84)" opacity="0.35"/>
<circle cx="113" cy="215" r="5.0" fill="rgb(72,81,84)"/>
<circle cx="127" cy="215" r="7" fill="rgb(99,114,118)" opacity="0.35"/>
<circle cx="127" cy="215" r="5.0" fill="rgb(99,114,118)"/>
<circle cx="141" cy="215" r="7" fill="rgb(51,58,61)" opacity="0.35"/>
<circle cx="141" cy="215" r="5.0" fill="rgb(51,58,61)"/>
<circle cx="155" cy="215" r="5.0" fill="#14171c"/>
<circle cx="169" cy="215" r="5.0" fill="#14171c"/>
<circle cx="183" cy="215" r="7" fill="rgb(20,20,21)" opacity="0.35"/>
<circle cx="183" cy="215" r="5.0" fill="rgb(20,20,21)"/>
<circle cx="197" cy="215" r="7" fill="rgb(44,46,48)" opacity="0.35"/>
<circle cx="197" cy="215" r="5.0" fill="rgb(44,46,48)"/>
<circle cx="211" cy="215" r="7" fill="rgb(18,18,20)" opacity="0.35"/>
<circle cx="211" cy="215" r="5.0" fill="rgb(18,18,20)"/>
<circle cx="225" cy="215" r="5.0" fill="#14171c"/>
<circle cx="15" cy="229" r="7" fill="rgb(66,75,81)" opacity="0.35"/>
<circle cx="15" cy="229" r="5.0" fill="rgb(66,75,81)"/>
<circle cx="29" cy="229" r="7" fill="rgb(40,46,48)" opacity="0.35"/>
<circle cx="29" cy="229" r="5.0" fill="rgb(40,46,48)"/>
<circle cx="43" cy="229" r="7" fill="rgb(46,51,53)" opacity="0.35"/>
<circle cx="43" cy="229" r="5.0" fill="rgb(46,51,53)"/>
<circle cx="57" cy="229" r="7" fill="rgb(36,38,38)" opacity="0.35"/>
<circle cx="57" cy="229" r="5.0" fill="rgb(36,38,38)"/>
<circle cx="71" cy="229" r="5.0" fill="#14171c"/>
<circle cx="85" cy="229" r="5.0" fill="#14171c"/>
<circle cx="99" cy="229" r="5.0" fill="#14171c"/>
<circle cx="113" cy="229" r="7" fill="rgb(29,32,32)" opacity="0.35"/>
<circle cx="113" cy="229" r="5.0" fill="rgb(29,32,32)"/>
<circle cx="127" cy="229" r="7" fill="rgb(68,76,80)" opacity="0.35"/>
<circle cx="127" cy="229" r="5.0" fill="rgb(68,76,80)"/>
<circle cx="141" cy="229" r="7" fill="rgb(61,69,73)" opacity="0.35"/>
<circle cx="141" cy="229" r="5.0" fill="rgb(61,69,73)"/>
<circle cx="155" cy="229" r="7" fill="rgb(19,21,22)" opacity="0.35"/>
<circle cx="155" cy="229" r="5.0" fill="rgb(19,21,22)"/>
<circle cx="169" cy="229" r="5.0" fill="#14171c"/>
<circle cx="183" cy="229" r="7" fill="rgb(24,25,26)" opacity="0.35"/>
<circle cx="183" cy="229" r="5.0" fill="rgb(24,25,26)"/>
<circle cx="197" cy="229" r="7" fill="rgb(56,60,63)" opacity="0.35"/>
<circle cx="197" cy="229" r="5.0" fill="rgb(56,60,63)"/>
<circle cx="211" cy="229" r="7" fill="rgb(49,54,56)" opacity="0.35"/>
<circle cx="211" cy="229" r="5.0" fill="rgb(49,54,56)"/>
<circle cx="225" cy="229" r="7" fill="rgb(67,77,80)" opacity="0.35"/>
<circle cx="225" cy="229" r="5.0" fill="rgb(67,77,80)"/>
<circle cx="15" cy="243" r="7" fill="rgb(166,168,168)" opacity="0.35"/>
<circle cx="15" cy="243" r="5.0" fill="rgb(166,168,168)"/>
<circle cx="29" cy="243" r="7" fill="rgb(75,86,92)" opacity="0.35"/>
<circle cx="29" cy="243" r="5.0" fill="rgb(75,86,92)"/>
<circle cx="43" cy="243" r="7" fill="rgb(19,21,22)" opacity="0.35"/>
<circle cx="43" cy="243" r="5.0" fill="rgb(19,21,22)"/>
<circle cx="57" cy="243" r="7" fill="rgb(17,18,18)" opacity="0.35"/>
<circle cx="57" cy="243" r="5.0" fill="rgb(17,18,18)"/>
<circle cx="71" cy="243" r="5.0" fill="#14171c"/>
<circle cx="85" cy="243" r="7" fill="rgb(16,19,20)" opacity="0.35"/>
<circle cx="85" cy="243" r="5.0" fill="rgb(16,19,20)"/>
<circle cx="99" cy="243" r="7" fill="rgb(42,50,54)" opacity="0.35"/>
<circle cx="99" cy="243" r="5.0" fill="rgb(42,50,54)"/>
<circle cx="113" cy="243" r="7" fill="rgb(37,42,45)" opacity="0.35"/>
<circle cx="113" cy="243" r="5.0" fill="rgb(37,42,45)"/>
<circle cx="127" cy="243" r="7" fill="rgb(44,48,50)" opacity="0.35"/>
<circle cx="127" cy="243" r="5.0" fill="rgb(44,48,50)"/>
<circle cx="141" cy="243" r="7" fill="rgb(42,46,48)" opacity="0.35"/>
<circle cx="141" cy="243" r="5.0" fill="rgb(42,46,48)"/>
<circle cx="155" cy="243" r="7" fill="rgb(26,28,28)" opacity="0.35"/>
<circle cx="155" cy="243" r="5.0" fill="rgb(26,28,28)"/>
<circle cx="169" cy="243" r="5.0" fill="#14171c"/>
<circle cx="183" cy="243" r="5.0" fill="#14171c"/>
<circle cx="197" cy="243" r="7" fill="rgb(21,23,25)" opacity="0.35"/>
<circle cx="197" cy="243" r="5.0" fill="rgb(21,23,25)"/>
<circle cx="211" cy="243" r="7" fill="rgb(74,85,88)" opacity="0.35"/>
<circle cx="211" cy="243" r="5.0" fill="rgb(74,85,88)"/>
<circle cx="225" cy="243" r="7" fill="rgb(159,181,190)" opacity="0.35"/>
<circle cx="225" cy="243" r="5.0" fill="rgb(159,181,190)"/>
<circle cx="15" cy="257" r="7" fill="rgb(90,104,111)" opacity="0.35"/>
<circle cx="15" cy="257" r="5.0" fill="rgb(90,104,111)"/>
<circle cx="29" cy="257" r="7" fill="rgb(35,41,44)" opacity="0.35"/>
<circle cx="29" cy="257" r="5.0" fill="rgb(35,41,44)"/>
<circle cx="43" cy="257" r="5.0" fill="#14171c"/>
<circle cx="57" cy="257" r="5.0" fill="#14171c"/>
<circle cx="71" cy="257" r="5.0" fill="#14171c"/>
<circle cx="85" cy="257" r="7" fill="rgb(38,46,49)" opacity="0.35"/>
<circle cx="85" cy="257" r="5.0" fill="rgb(38,46,49)"/>
<circle cx="99" cy="257" r="7" fill="rgb(96,115,123)" opacity="0.35"/>
<circle cx="99" cy="257" r="5.0" fill="rgb(96,115,123)"/>
<circle cx="113" cy="257" r="7" fill="rgb(62,71,74)" opacity="0.35"/>
<circle cx="113" cy="257" r="5.0" fill="rgb(62,71,74)"/>
<circle cx="127" cy="257" r="7" fill="rgb(30,32,33)" opacity="0.35"/>
<circle cx="127" cy="257" r="5.0" fill="rgb(30,32,33)"/>
<circle cx="141" cy="257" r="7" fill="rgb(28,29,30)" opacity="0.35"/>
<circle cx="141" cy="257" r="5.0" fill="rgb(28,29,30)"/>
<circle cx="155" cy="257" r="7" fill="rgb(42,42,43)" opacity="0.35"/>
<circle cx="155" cy="257" r="5.0" fill="rgb(42,42,43)"/>
<circle cx="169" cy="257" r="7" fill="rgb(22,24,25)" opacity="0.35"/>
<circle cx="169" cy="257" r="5.0" fill="rgb(22,24,25)"/>
<circle cx="183" cy="257" r="5.0" fill="#14171c"/>
<circle cx="197" cy="257" r="5.0" fill="#14171c"/>
<circle cx="211" cy="257" r="7" fill="rgb(26,30,31)" opacity="0.35"/>
<circle cx="211" cy="257" r="5.0" fill="rgb(26,30,31)"/>
<circle cx="225" cy="257" r="7" fill="rgb(67,77,80)" opacity="0.35"/>
<circle cx="225" cy="257" r="5.0" fill="rgb(67,77,80)"/>
<circle cx="-2" cy="280" r="9" fill="#9aa0a6" opacity="0.25"/>
<circle cx="-2" cy="280" r="6" fill="#9aa0a6" stroke="#0d0f12" stroke-width="1.5"/>
<text x="10" y="284" font-family="'JetBrains Mono','Cascadia Mono','Consolas',monospace" font-size="12" fill="#a0a0a0">Treble</text>
<circle cx="242" cy="280" r="9" fill="#5ad1ff" opacity="0.25"/>
<circle cx="242" cy="280" r="6" fill="#5ad1ff" stroke="#0d0f12" stroke-width="1.5"/>
<text x="230" y="284" text-anchor="end" font-family="'JetBrains Mono','Cascadia Mono','Consolas',monospace" font-size="12" fill="#a0a0a0">Frame</text>
<circle cx="-2" cy="308" r="9" fill="#9aa0a6" opacity="0.25"/>
<circle cx="-2" cy="308" r="6" fill="#9aa0a6" stroke="#0d0f12" stroke-width="1.5"/>
<text x="10" y="312" font-family="'JetBrains Mono','Cascadia Mono','Consolas',monospace" font-size="12" fill="#a0a0a0">Density</text>
<circle cx="-2" cy="336" r="9" fill="#ff5cf0" opacity="0.25"/>
<circle cx="-2" cy="336" r="6" fill="#ff5cf0" stroke="#0d0f12" stroke-width="1.5"/>
<text x="10" y="340" font-family="'JetBrains Mono','Cascadia Mono','Consolas',monospace" font-size="12" fill="#a0a0a0">Palette</text>
<line x1="8" y1="356" x2="232" y2="356" stroke="rgba(255,255,255,0.08)"/>
<text x="8" y="376" font-family="'JetBrains Mono','Cascadia Mono','Consolas',monospace" font-size="12" fill="#a0a0a0">density</text>
<g>
<rect x="120" y="370" width="72" height="4" rx="2" fill="#cfd2d6" opacity="0.85"/>
<rect x="120" y="370" width="36.0" height="4" rx="2" fill="#d633ff"/>
<circle cx="156.0" cy="372" r="5" fill="#d633ff"/>
<text x="232" y="376" text-anchor="end" font-family="'JetBrains Mono','Cascadia Mono','Consolas',monospace" font-size="12" fill="#e0e0e0">0.5</text>
</g>
<text x="8" y="397" font-family="'JetBrains Mono','Cascadia Mono','Consolas',monospace" font-size="12" fill="#a0a0a0">palette</text>
<g>
<rect x="148" y="385" width="84" height="16" rx="4" fill="#0d0f12" stroke="rgba(255,255,255,0.12)"/>
<text x="152" y="397" font-family="'JetBrains Mono','Cascadia Mono','Consolas',monospace" font-size="11" fill="#e0e0e0">ice</text>
<text x="228" y="397" text-anchor="end" font-size="8" fill="#a0a0a0">▾</text>
</g>
<text x="8" y="418" font-family="'JetBrains Mono','Cascadia Mono','Consolas',monospace" font-size="12" fill="#a0a0a0">clamp inputs</text>
<g>
<rect x="220" y="408" width="12" height="12" rx="3" fill="#0d0f12" stroke="rgba(255,255,255,0.12)"/>
</g>
</g>
</svg>
