<svg xmlns="http://www.w3.org/2000/svg" viewBox="0 0 296 489" width="296" height="489" role="img" aria-label="Treble Sparks node">

<defs><filter id="shadow" x="-20%" y="-20%" width="140%" height="160%"><feDropShadow dx="0" dy="8" stdDeviation="9" flood-color="#000" flood-opacity="0.45"/></filter></defs>
<g transform="translate(28,24)">
<rect x="0" y="0" width="240" height="431" rx="8" fill="#1f242b" stroke="rgba(255,255,255,0.12)" filter="url(#shadow)"/>
<rect x="0" y="0" width="240" height="431" rx="8" fill="#1f242b" stroke="rgba(255,255,255,0.12)"/>
<path d="M0,32 L0,8 Q0,0 8,0 L232,0 Q240,0 240,8 L240,32 Z" fill="#33d6ff"/>
<text x="8" y="21" font-family="'Audiowide','Trebuchet MS','Arial Black',sans-serif" font-size="14" font-weight="600" fill="#000">Treble Sparks</text>
<rect x="154" y="10" width="25" height="12" rx="6" fill="rgba(0,0,0,0.14)" stroke="rgba(255,255,255,0.14)"/>
<text x="166.5" y="19" text-anchor="middle" font-family="'JetBrains Mono','Cascadia Mono','Consolas',monospace" font-size="8" letter-spacing="0.08em" fill="#000">PAT</text>
<rect x="185" y="10" width="47" height="12" rx="6" fill="rgba(0,0,0,0.14)" stroke="rgba(255,255,255,0.14)"/>
<text x="208.5" y="19" text-anchor="middle" font-family="'JetBrains Mono','Cascadia Mono','Consolas',monospace" font-size="8" letter-spacing="0.08em" fill="#000">TRE-146</text>
<rect x="8" y="40" width="224" height="224" rx="4" fill="#0d0f12" stroke="rgba(255,255,255,0.12)"/>
<rect x="11.50" y="43.50" width="7.00" height="7.00" rx="1.26" fill="rgb(11,13,14)"/>
<rect x="25.50" y="43.50" width="7.00" height="7.00" rx="1.26" fill="rgb(5,6,7)"/>
<rect x="39.50" y="43.50" width="7.00" height="7.00" rx="1.26" fill="rgb(2,2,2)"/>
<rect x="53.50" y="43.50" width="7.00" height="7.00" rx="1.26" fill="rgb(1,2,2)"/>
<rect x="67.50" y="43.50" width="7.00" height="7.00" rx="1.26" fill="rgb(4,5,5)"/>
<rect x="81.50" y="43.50" width="7.00" height="7.00" rx="1.26" fill="rgb(7,7,7)"/>
<rect x="95.50" y="43.50" width="7.00" height="7.00" rx="1.26" fill="rgb(22,24,26)"/>
<rect x="109.50" y="43.50" width="7.00" height="7.00" rx="1.26" fill="rgb(39,42,42)"/>
<rect x="123.50" y="43.50" width="7.00" height="7.00" rx="1.26" fill="rgb(55,60,62)"/>
<rect x="137.50" y="43.50" width="7.00" height="7.00" rx="1.26" fill="rgb(89,98,103)"/>
<rect x="151.50" y="43.50" width="7.00" height="7.00" rx="1.26" fill="rgb(128,148,157)"/>
<rect x="165.50" y="43.50" width="7.00" height="7.00" rx="1.26" fill="rgb(181,214,227)"/>
<rect x="179.50" y="43.50" width="7.00" height="7.00" rx="1.26" fill="rgb(70,83,89)"/>
<rect x="193.50" y="43.50" width="7.00" height="7.00" rx="1.26" fill="rgb(3,3,3)"/>
<rect x="207.50" y="43.50" width="7.00" height="7.00" rx="1.26" fill="rgb(3,3,4)"/>
<rect x="221.50" y="43.50" width="7.00" height="7.00" rx="1.26" fill="rgb(1,1,1)"/>
<rect x="11.50" y="57.50" width="7.00" height="7.00" rx="1.26" fill="rgb(34,40,43)"/>
<rect x="25.50" y="57.50" width="7.00" height="7.00" rx="1.26" fill="rgb(35,39,42)"/>
<rect x="39.50" y="57.50" width="7.00" height="7.00" rx="1.26" fill="rgb(14,15,16)"/>
<rect x="53.50" y="57.50" width="7.00" height="7.00" rx="1.26" fill="rgb(43,46,48)"/>
<rect x="67.50" y="57.50" width="7.00" height="7.00" rx="1.26" fill="rgb(101,109,114)"/>
<rect x="81.50" y="57.50" width="7.00" height="7.00" rx="1.26" fill="rgb(44,47,50)"/>
<rect x="95.50" y="57.50" width="7.00" height="7.00" rx="1.26" fill="rgb(31,34,34)"/>
<rect x="109.50" y="57.50" width="7.00" height="7.00" rx="1.26" fill="rgb(65,72,75)"/>
<rect x="123.50" y="57.50" width="7.00" height="7.00" rx="1.26" fill="rgb(90,98,102)"/>
<rect x="137.50" y="57.50" width="7.00" height="7.00" rx="1.26" fill="rgb(111,111,111)"/>
<rect x="151.50" y="57.50" width="7.00" height="7.00" rx="1.26" fill="rgb(127,144,151)"/>
<rect x="165.50" y="57.50" width="7.00" height="7.00" rx="1.26" fill="rgb(173,199,209)"/>
<rect x="179.50" y="57.50" width="7.00" height="7.00" rx="1.26" fill="rgb(72,83,87)"/>
<rect x="193.50" y="57.50" width="7.00" height="7.00" rx="1.26" fill="rgb(5,5,5)"/>
<rect x="207.50" y="57.50" width="7.00" height="7.00" rx="1.26" fill="rgb(3,4,4)"/>
<rect x="221.50" y="57.50" width="7.00" height="7.00" rx="1.26" fill="rgb(1,1,1)"/>
<rect x="11.50" y="71.50" width="7.00" height="7.00" rx="1.26" fill="rgb(34,38,40)"/>
<rect x="25.50" y="71.50" width="7.00" height="7.00" rx="1.26" fill="rgb(58,64,67)"/>
<rect x="39.50" y="71.50" width="7.00" height="7.00" rx="1.26" fill="rgb(26,29,30)"/>
<rect x="53.50" y="71.50" width="7.00" height="7.00" rx="1.26" fill="rgb(103,111,115)"/>
<rect x="67.50" y="71.50" width="7.00" height="7.00" rx="1.26" fill="rgb(231,250,255)"/>
<rect x="81.50" y="71.50" width="7.00" height="7.00" rx="1.26" fill="rgb(97,105,110)"/>
<rect x="95.50" y="71.50" width="7.00" height="7.00" rx="1.26" fill="rgb(11,12,12)"/>
<rect x="109.50" y="71.50" width="7.00" height="7.00" rx="1.26" fill="rgb(36,40,42)"/>
<rect x="123.50" y="71.50" width="7.00" height="7.00" rx="1.26" fill="rgb(63,69,71)"/>
<rect x="137.50" y="71.50" width="7.00" height="7.00" rx="1.26" fill="rgb(59,64,66)"/>
<rect x="151.50" y="71.50" width="7.00" height="7.00" rx="1.26" fill="rgb(34,39,40)"/>
<rect x="165.50" y="71.50" width="7.00" height="7.00" rx="1.26" fill="rgb(49,56,58)"/>
<rect x="179.50" y="71.50" width="7.00" height="7.00" rx="1.26" fill="rgb(20,23,24)"/>
<rect x="193.50" y="71.50" width="7.00" height="7.00" rx="1.26" fill="rgb(8,9,9)"/>
<rect x="207.50" y="71.50" width="7.00" height="7.00" rx="1.26" fill="rgb(17,20,21)"/>
<rect x="221.50" y="71.50" width="7.00" height="7.00" rx="1.26" fill="rgb(7,7,8)"/>
<rect x="11.50" y="85.50" width="7.00" height="7.00" rx="1.26" fill="rgb(9,10,10)"/>
<rect x="25.50" y="85.50" width="7.00" height="7.00" rx="1.26" fill="rgb(22,25,26)"/>
<rect x="39.50" y="85.50" width="7.00" height="7.00" rx="1.26" fill="rgb(10,11,11)"/>
<rect x="53.50" y="85.50" width="7.00" height="7.00" rx="1.26" fill="rgb(41,43,45)"/>
<rect x="67.50" y="85.50" width="7.00" height="7.00" rx="1.26" fill="rgb(97,105,110)"/>
<rect x="81.50" y="85.50" width="7.00" height="7.00" rx="1.26" fill="rgb(37,40,42)"/>
<rect x="95.50" y="85.50" width="7.00" height="7.00" rx="1.26" fill="rgb(1,1,1)"/>
<rect x="109.50" y="85.50" width="7.00" height="7.00" rx="1.26" fill="rgb(7,7,7)"/>
<rect x="123.50" y="85.50" width="7.00" height="7.00" rx="1.26" fill="rgb(18,20,20)"/>
<rect x="137.50" y="85.50" width="7.00" height="7.00" rx="1.26" fill="rgb(11,11,12)"/>
<rect x="151.50" y="85.50" width="7.00" height="7.00" rx="1.26" fill="rgb(2,2,2)"/>
<rect x="165.50" y="85.50" width="7.00" height="7.00" rx="1.26" fill="rgb(1,1,1)"/>
<rect x="179.50" y="85.50" width="7.00" height="7.00" rx="1.26" fill="rgb(1,1,1)"/>
<rect x="193.50" y="85.50" width="7.00" height="7.00" rx="1.26" fill="rgb(16,18,19)"/>
<rect x="207.50" y="85.50" width="7.00" height="7.00" rx="1.26" fill="rgb(38,44,46)"/>
<rect x="221.50" y="85.50" width="7.00" height="7.00" rx="1.26" fill="rgb(16,18,19)"/>
<rect x="11.50" y="99.50" width="7.00" height="7.00" rx="1.26" fill="rgb(1,1,1)"/>
<rect x="25.50" y="99.50" width="7.00" height="7.00" rx="1.26" fill="rgb(5,5,5)"/>
<rect x="39.50" y="99.50" width="7.00" height="7.00" rx="1.26" fill="rgb(11,12,12)"/>
<rect x="53.50" y="99.50" width="7.00" height="7.00" rx="1.26" fill="rgb(5,5,5)"/>
<rect x="67.50" y="99.50" width="7.00" height="7.00" rx="1.26" fill="rgb(22,25,25)"/>
<rect x="81.50" y="99.50" width="7.00" height="7.00" rx="1.26" fill="rgb(59,63,65)"/>
<rect x="95.50" y="99.50" width="7.00" height="7.00" rx="1.26" fill="rgb(22,25,25)"/>
<rect x="109.50" y="99.50" width="7.00" height="7.00" rx="1.26" fill="rgb(1,1,1)"/>
<rect x="123.50" y="99.50" width="7.00" height="7.00" rx="1.26" fill="rgb(5,5,5)"/>
<rect x="137.50" y="99.50" width="7.00" height="7.00" rx="1.26" fill="rgb(11,12,13)"/>
<rect x="151.50" y="99.50" width="7.00" height="7.00" rx="1.26" fill="rgb(5,5,5)"/>
<rect x="165.50" y="99.50" width="7.00" height="7.00" rx="1.26" fill="rgb(1,1,1)"/>
<rect x="179.50" y="99.50" width="7.00" height="7.00" rx="1.26" fill="rgb(1,1,1)"/>
<rect x="193.50" y="99.50" width="7.00" height="7.00" rx="1.26" fill="rgb(7,7,7)"/>
<rect x="207.50" y="99.50" width="7.00" height="7.00" rx="1.26" fill="rgb(59,64,65)"/>
<rect x="221.50" y="99.50" width="7.00" height="7.00" rx="1.26" fill="rgb(119,126,128)"/>
<rect x="11.50" y="113.50" width="7.00" height="7.00" rx="1.26" fill="rgb(2,2,2)"/>
<rect x="25.50" y="113.50" width="7.00" height="7.00" rx="1.26" fill="rgb(15,16,16)"/>
<rect x="39.50" y="113.50" width="7.00" height="7.00" rx="1.26" fill="rgb(40,44,46)"/>
<rect x="53.50" y="113.50" width="7.00" height="7.00" rx="1.26" fill="rgb(41,48,51)"/>
<rect x="67.50" y="113.50" width="7.00" height="7.00" rx="1.26" fill="rgb(71,77,80)"/>
<rect x="81.50" y="113.50" width="7.00" height="7.00" rx="1.26" fill="rgb(111,111,111)"/>
<rect x="95.50" y="113.50" width="7.00" height="7.00" rx="1.26" fill="rgb(60,64,66)"/>
<rect x="109.50" y="113.50" width="7.00" height="7.00" rx="1.26" fill="rgb(3,3,3)"/>
<rect x="123.50" y="113.50" width="7.00" height="7.00" rx="1.26" fill="rgb(5,5,5)"/>
<rect x="137.50" y="113.50" width="7.00" height="7.00" rx="1.26" fill="rgb(12,13,14)"/>
<rect x="151.50" y="113.50" width="7.00" height="7.00" rx="1.26" fill="rgb(17,19,20)"/>
<rect x="165.50" y="113.50" width="7.00" height="7.00" rx="1.26" fill="rgb(9,9,10)"/>
<rect x="179.50" y="113.50" width="7.00" height="7.00" rx="1.26" fill="rgb(2,2,2)"/>
<rect x="193.50" y="113.50" width="7.00" height="7.00" rx="1.26" fill="rgb(1,1,1)"/>
<rect x="207.50" y="113.50" width="7.00" height="7.00" rx="1.26" fill="rgb(114,120,122)"/>
<rect x="221.50" y="113.50" width="7.00" height="7.00" rx="1.26" fill="rgb(255,255,255)"/>
<rect x="11.50" y="127.50" width="7.00" height="7.00" rx="1.26" fill="rgb(9,9,10)"/>
<rect x="25.50" y="127.50" width="7.00" height="7.00" rx="1.26" fill="rgb(15,16,16)"/>
<rect x="39.50" y="127.50" width="7.00" height="7.00" rx="1.26" fill="rgb(49,56,59)"/>
<rect x="53.50" y="127.50" width="7.00" height="7.00" rx="1.26" fill="rgb(77,91,98)"/>
<rect x="67.50" y="127.50" width="7.00" height="7.00" rx="1.26" fill="rgb(52,61,63)"/>
<rect x="81.50" y="127.50" width="7.00" height="7.00" rx="1.26" fill="rgb(60,64,67)"/>
<rect x="95.50" y="127.50" width="7.00" height="7.00" rx="1.26" fill="rgb(29,32,32)"/>
<rect x="109.50" y="127.50" width="7.00" height="7.00" rx="1.26" fill="rgb(9,9,9)"/>
<rect x="123.50" y="127.50" width="7.00" height="7.00" rx="1.26" fill="rgb(5,6,6)"/>
<rect x="137.50" y="127.50" width="7.00" height="7.00" rx="1.26" fill="rgb(20,22,23)"/>
<rect x="151.50" y="127.50" width="7.00" height="7.00" rx="1.26" fill="rgb(40,44,47)"/>
<rect x="165.50" y="127.50" width="7.00" height="7.00" rx="1.26" fill="rgb(23,25,26)"/>
<rect x="179.50" y="127.50" width="7.00" height="7.00" rx="1.26" fill="rgb(5,5,5)"/>
<rect x="193.50" y="127.50" width="7.00" height="7.00" rx="1.26" fill="rgb(11,11,11)"/>
<rect x="207.50" y="127.50" width="7.00" height="7.00" rx="1.26" fill="rgb(72,75,76)"/>
<rect x="221.50" y="127.50" width="7.00" height="7.00" rx="1.26" fill="rgb(129,136,139)"/>
<rect x="11.50" y="141.50" width="7.00" height="7.00" rx="1.26" fill="rgb(12,15,15)"/>
<rect x="25.50" y="141.50" width="7.00" height="7.00" rx="1.26" fill="rgb(18,19,20)"/>
<rect x="39.50" y="141.50" width="7.00" height="7.00" rx="1.26" fill="rgb(38,41,42)"/>
<rect x="53.50" y="141.50" width="7.00" height="7.00" rx="1.26" fill="rgb(40,46,48)"/>
<rect x="67.50" y="141.50" width="7.00" height="7.00" rx="1.26" fill="rgb(12,14,15)"/>
<rect x="81.50" y="141.50" width="7.00" height="7.00" rx="1.26" fill="rgb(5,5,5)"/>
<rect x="95.50" y="141.50" width="7.00" height="7.00" rx="1.26" fill="rgb(12,14,15)"/>
<rect x="109.50" y="141.50" width="7.00" height="7.00" rx="1.26" fill="rgb(13,14,15)"/>
<rect x="123.50" y="141.50" width="7.00" height="7.00" rx="1.26" fill="rgb(14,17,18)"/>
<rect x="137.50" y="141.50" width="7.00" height="7.00" rx="1.26" fill="rgb(42,49,51)"/>
<rect x="151.50" y="141.50" width="7.00" height="7.00" rx="1.26" fill="rgb(49,54,56)"/>
<rect x="165.50" y="141.50" width="7.00" height="7.00" rx="1.26" fill="rgb(18,19,20)"/>
<rect x="179.50" y="141.50" width="7.00" height="7.00" rx="1.26" fill="rgb(2,2,2)"/>
<rect x="193.50" y="141.50" width="7.00" height="7.00" rx="1.26" fill="rgb(26,27,28)"/>
<rect x="207.50" y="141.50" width="7.00" height="7.00" rx="1.26" fill="rgb(63,65,66)"/>
<rect x="221.50" y="141.50" width="7.00" height="7.00" rx="1.26" fill="rgb(29,30,30)"/>
<rect x="11.50" y="155.50" width="7.00" height="7.00" rx="1.26" fill="rgb(9,10,10)"/>
<rect x="25.50" y="155.50" width="7.00" height="7.00" rx="1.26" fill="rgb(26,28,28)"/>
<rect x="39.50" y="155.50" width="7.00" height="7.00" rx="1.26" fill="rgb(54,57,58)"/>
<rect x="53.50" y="155.50" width="7.00" height="7.00" rx="1.26" fill="rgb(23,24,24)"/>
<rect x="67.50" y="155.50" width="7.00" height="7.00" rx="1.26" fill="rgb(4,5,5)"/>
<rect x="81.50" y="155.50" width="7.00" height="7.00" rx="1.26" fill="rgb(12,14,15)"/>
<rect x="95.50" y="155.50" width="7.00" height="7.00" rx="1.26" fill="rgb(16,18,19)"/>
<rect x="109.50" y="155.50" width="7.00" height="7.00" rx="1.26" fill="rgb(19,21,21)"/>
<rect x="123.50" y="155.50" width="7.00" height="7.00" rx="1.26" fill="rgb(27,32,34)"/>
<rect x="137.50" y="155.50" width="7.00" height="7.00" rx="1.26" fill="rgb(63,73,73)"/>
<rect x="151.50" y="155.50" width="7.00" height="7.00" rx="1.26" fill="rgb(58,62,64)"/>
<rect x="165.50" y="155.50" width="7.00" height="7.00" rx="1.26" fill="rgb(37,38,39)"/>
<rect x="179.50" y="155.50" width="7.00" height="7.00" rx="1.26" fill="rgb(57,59,60)"/>
<rect x="193.50" y="155.50" width="7.00" height="7.00" rx="1.26" fill="rgb(32,32,33)"/>
<rect x="207.50" y="155.50" width="7.00" height="7.00" rx="1.26" fill="rgb(26,27,28)"/>
<rect x="221.50" y="155.50" width="7.00" height="7.00" rx="1.26" fill="rgb(11,11,11)"/>
<rect x="11.50" y="169.50" width="7.00" height="7.00" rx="1.26" fill="rgb(9,9,9)"/>
<rect x="25.50" y="169.50" width="7.00" height="7.00" rx="1.26" fill="rgb(13,14,15)"/>
<rect x="39.50" y="169.50" width="7.00" height="7.00" rx="1.26" fill="rgb(28,30,30)"/>
<rect x="53.50" y="169.50" width="7.00" height="7.00" rx="1.26" fill="rgb(19,20,21)"/>
<rect x="67.50" y="169.50" width="7.00" height="7.00" rx="1.26" fill="rgb(12,14,15)"/>
<rect x="81.50" y="169.50" width="7.00" height="7.00" rx="1.26" fill="rgb(21,24,26)"/>
<rect x="95.50" y="169.50" width="7.00" height="7.00" rx="1.26" fill="rgb(15,18,18)"/>
<rect x="109.50" y="169.50" width="7.00" height="7.00" rx="1.26" fill="rgb(15,17,18)"/>
<rect x="123.50" y="169.50" width="7.00" height="7.00" rx="1.26" fill="rgb(13,15,16)"/>
<rect x="137.50" y="169.50" width="7.00" height="7.00" rx="1.26" fill="rgb(24,28,29)"/>
<rect x="151.50" y="169.50" width="7.00" height="7.00" rx="1.26" fill="rgb(21,22,23)"/>
<rect x="165.50" y="169.50" width="7.00" height="7.00" rx="1.26" fill="rgb(62,64,65)"/>
<rect x="179.50" y="169.50" width="7.00" height="7.00" rx="1.26" fill="rgb(135,139,142)"/>
<rect x="193.50" y="169.50" width="7.00" height="7.00" rx="1.26" fill="rgb(57,59,60)"/>
<rect x="207.50" y="169.50" width="7.00" height="7.00" rx="1.26" fill="rgb(1,1,1)"/>
<rect x="221.50" y="169.50" width="7.00" height="7.00" rx="1.26" fill="rgb(1,1,1)"/>
<rect x="11.50" y="183.50" width="7.00" height="7.00" rx="1.26" fill="rgb(4,5,5)"/>
<rect x="25.50" y="183.50" width="7.00" height="7.00" rx="1.26" fill="rgb(3,4,4)"/>
<rect x="39.50" y="183.50" width="7.00" height="7.00" rx="1.26" fill="rgb(15,15,16)"/>
<rect x="53.50" y="183.50" width="7.00" height="7.00" rx="1.26" fill="rgb(26,28,29)"/>
<rect x="67.50" y="183.50" width="7.00" height="7.00" rx="1.26" fill="rgb(30,34,35)"/>
<rect x="81.50" y="183.50" width="7.00" height="7.00" rx="1.26" fill="rgb(53,59,61)"/>
<rect x="95.50" y="183.50" width="7.00" height="7.00" rx="1.26" fill="rgb(22,25,26)"/>
<rect x="109.50" y="183.50" width="7.00" height="7.00" rx="1.26" fill="rgb(5,5,5)"/>
<rect x="123.50" y="183.50" width="7.00" height="7.00" rx="1.26" fill="rgb(4,4,5)"/>
<rect x="137.50" y="183.50" width="7.00" height="7.00" rx="1.26" fill="rgb(5,6,6)"/>
<rect x="151.50" y="183.50" width="7.00" height="7.00" rx="1.26" fill="rgb(2,2,2)"/>
<rect x="165.50" y="183.50" width="7.00" height="7.00" rx="1.26" fill="rgb(22,22,23)"/>
<rect x="179.50" y="183.50" width="7.00" height="7.00" rx="1.26" fill="rgb(57,59,60)"/>
<rect x="193.50" y="183.50" width="7.00" height="7.00" rx="1.26" fill="rgb(22,23,24)"/>
<rect x="207.50" y="183.50" width="7.00" height="7.00" rx="1.26" fill="rgb(1,1,1)"/>
<rect x="221.50" y="183.50" width="7.00" height="7.00" rx="1.26" fill="rgb(1,1,1)"/>
<rect x="11.50" y="197.50" width="7.00" height="7.00" rx="1.26" fill="rgb(1,1,1)"/>
<rect x="25.50" y="197.50" width="7.00" height="7.00" rx="1.26" fill="rgb(1,1,1)"/>
<rect x="39.50" y="197.50" width="7.00" height="7.00" rx="1.26" fill="rgb(17,18,18)"/>
<rect x="53.50" y="197.50" width="7.00" height="7.00" rx="1.26" fill="rgb(39,40,40)"/>
<rect x="67.50" y="197.50" width="7.00" height="7.00" rx="1.26" fill="rgb(59,63,66)"/>
<rect x="81.50" y="197.50" width="7.00" height="7.00" rx="1.26" fill="rgb(103,112,118)"/>
<rect x="95.50" y="197.50" width="7.00" height="7.00" rx="1.26" fill="rgb(44,48,50)"/>
<rect x="109.50" y="197.50" width="7.00" height="7.00" rx="1.26" fill="rgb(3,3,3)"/>
<rect x="123.50" y="197.50" width="7.00" height="7.00" rx="1.26" fill="rgb(12,13,13)"/>
<rect x="137.50" y="197.50" width="7.00" height="7.00" rx="1.26" fill="rgb(26,26,28)"/>
<rect x="151.50" y="197.50" width="7.00" height="7.00" rx="1.26" fill="rgb(34,35,36)"/>
<rect x="165.50" y="197.50" width="7.00" height="7.00" rx="1.26" fill="rgb(11,12,12)"/>
<rect x="179.50" y="197.50" width="7.00" height="7.00" rx="1.26" fill="rgb(10,11,12)"/>
<rect x="193.50" y="197.50" width="7.00" height="7.00" rx="1.26" fill="rgb(28,32,34)"/>
<rect x="207.50" y="197.50" width="7.00" height="7.00" rx="1.26" fill="rgb(17,19,20)"/>
<rect x="221.50" y="197.50" width="7.00" height="7.00" rx="1.26" fill="rgb(3,4,4)"/>
<rect x="11.50" y="211.50" width="7.00" height="7.00" rx="1.26" fill="rgb(1,1,1)"/>
<rect x="25.50" y="211.50" width="7.00" height="7.00" rx="1.26" fill="rgb(1,1,1)"/>
<rect x="39.50" y="211.50" width="7.00" height="7.00" rx="1.26" fill="rgb(28,28,28)"/>
<rect x="53.50" y="211.50" width="7.00" height="7.00" rx="1.26" fill="rgb(65,65,65)"/>
<rect x="67.50" y="211.50" width="7.00" height="7.00" rx="1.26" fill="rgb(43,45,46)"/>
<rect x="81.50" y="211.50" width="7.00" height="7.00" rx="1.26" fill="rgb(44,48,50)"/>
<rect x="95.50" y="211.50" width="7.00" height="7.00" rx="1.26" fill="rgb(31,36,38)"/>
<rect x="109.50" y="211.50" width="7.00" height="7.00" rx="1.26" fill="rgb(46,53,57)"/>
<rect x="123.50" y="211.50" width="7.00" height="7.00" rx="1.26" fill="rgb(33,38,40)"/>
<rect x="137.50" y="211.50" width="7.00" height="7.00" rx="1.26" fill="rgb(40,43,44)"/>
<rect x="151.50" y="211.50" width="7.00" height="7.00" rx="1.26" fill="rgb(70,73,73)"/>
<rect x="165.50" y="211.50" width="7.00" height="7.00" rx="1.26" fill="rgb(34,35,36)"/>
<rect x="179.50" y="211.50" width="7.00" height="7.00" rx="1.26" fill="rgb(36,40,42)"/>
<rect x="193.50" y="211.50" width="7.00" height="7.00" rx="1.26" fill="rgb(69,77,82)"/>
<rect x="207.50" y="211.50" width="7.00" height="7.00" rx="1.26" fill="rgb(39,44,46)"/>
<rect x="221.50" y="211.50" width="7.00" height="7.00" rx="1.26" fill="rgb(7,7,7)"/>
<rect x="11.50" y="225.50" width="7.00" height="7.00" rx="1.26" fill="rgb(1,1,1)"/>
<rect x="25.50" y="225.50" width="7.00" height="7.00" rx="1.26" fill="rgb(3,3,3)"/>
<rect x="39.50" y="225.50" width="7.00" height="7.00" rx="1.26" fill="rgb(17,18,18)"/>
<rect x="53.50" y="225.50" width="7.00" height="7.00" rx="1.26" fill="rgb(29,30,30)"/>
<rect x="67.50" y="225.50" width="7.00" height="7.00" rx="1.26" fill="rgb(11,12,12)"/>
<rect x="81.50" y="225.50" width="7.00" height="7.00" rx="1.26" fill="rgb(7,8,9)"/>
<rect x="95.50" y="225.50" width="7.00" height="7.00" rx="1.26" fill="rgb(67,77,82)"/>
<rect x="109.50" y="225.50" width="7.00" height="7.00" rx="1.26" fill="rgb(141,165,168)"/>
<rect x="123.50" y="225.50" width="7.00" height="7.00" rx="1.26" fill="rgb(65,77,82)"/>
<rect x="137.50" y="225.50" width="7.00" height="7.00" rx="1.26" fill="rgb(16,17,17)"/>
<rect x="151.50" y="225.50" width="7.00" height="7.00" rx="1.26" fill="rgb(29,30,31)"/>
<rect x="165.50" y="225.50" width="7.00" height="7.00" rx="1.26" fill="rgb(23,24,24)"/>
<rect x="179.50" y="225.50" width="7.00" height="7.00" rx="1.26" fill="rgb(48,52,54)"/>
<rect x="193.50" y="225.50" width="7.00" height="7.00" rx="1.26" fill="rgb(65,75,79)"/>
<rect x="207.50" y="225.50" width="7.00" height="7.00" rx="1.26" fill="rgb(26,30,32)"/>
<rect x="221.50" y="225.50" width="7.00" height="7.00" rx="1.26" fill="rgb(3,3,3)"/>
<rect x="11.50" y="239.50" width="7.00" height="7.00" rx="1.26" fill="rgb(1,1,1)"/>
<rect x="25.50" y="239.50" width="7.00" height="7.00" rx="1.26" fill="rgb(7,7,8)"/>
<rect x="39.50" y="239.50" width="7.00" height="7.00" rx="1.26" fill="rgb(15,18,18)"/>
<rect x="53.50" y="239.50" width="7.00" height="7.00" rx="1.26" fill="rgb(39,41,42)"/>
<rect x="67.50" y="239.50" width="7.00" height="7.00" rx="1.26" fill="rgb(86,90,92)"/>
<rect x="81.50" y="239.50" width="7.00" height="7.00" rx="1.26" fill="rgb(50,54,54)"/>
<rect x="95.50" y="239.50" width="7.00" height="7.00" rx="1.26" fill="rgb(86,98,103)"/>
<rect x="109.50" y="239.50" width="7.00" height="7.00" rx="1.26" fill="rgb(150,168,168)"/>
<rect x="123.50" y="239.50" width="7.00" height="7.00" rx="1.26" fill="rgb(80,92,97)"/>
<rect x="137.50" y="239.50" width="7.00" height="7.00" rx="1.26" fill="rgb(47,51,53)"/>
<rect x="151.50" y="239.50" width="7.00" height="7.00" rx="1.26" fill="rgb(16,18,18)"/>
<rect x="165.50" y="239.50" width="7.00" height="7.00" rx="1.26" fill="rgb(5,5,5)"/>
<rect x="179.50" y="239.50" width="7.00" height="7.00" rx="1.26" fill="rgb(38,44,47)"/>
<rect x="193.50" y="239.50" width="7.00" height="7.00" rx="1.26" fill="rgb(69,81,88)"/>
<rect x="207.50" y="239.50" width="7.00" height="7.00" rx="1.26" fill="rgb(30,36,39)"/>
<rect x="221.50" y="239.50" width="7.00" height="7.00" rx="1.26" fill="rgb(2,2,2)"/>
<rect x="11.50" y="253.50" width="7.00" height="7.00" rx="1.26" fill="rgb(1,1,1)"/>
<rect x="25.50" y="253.50" width="7.00" height="7.00" rx="1.26" fill="rgb(3,3,3)"/>
<rect x="39.50" y="253.50" width="7.00" height="7.00" rx="1.26" fill="rgb(7,7,8)"/>
<rect x="53.50" y="253.50" width="7.00" height="7.00" rx="1.26" fill="rgb(86,89,90)"/>
<rect x="67.50" y="253.50" width="7.00" height="7.00" rx="1.26" fill="rgb(199,206,210)"/>
<rect x="81.50" y="253.50" width="7.00" height="7.00" rx="1.26" fill="rgb(90,94,96)"/>
<rect x="95.50" y="253.50" width="7.00" height="7.00" rx="1.26" fill="rgb(28,32,33)"/>
<rect x="109.50" y="253.50" width="7.00" height="7.00" rx="1.26" fill="rgb(46,53,57)"/>
<rect x="123.50" y="253.50" width="7.00" height="7.00" rx="1.26" fill="rgb(61,69,71)"/>
<rect x="137.50" y="253.50" width="7.00" height="7.00" rx="1.26" fill="rgb(104,111,111)"/>
<rect x="151.50" y="253.50" width="7.00" height="7.00" rx="1.26" fill="rgb(43,47,48)"/>
<rect x="165.50" y="253.50" width="7.00" height="7.00" rx="1.26" fill="rgb(1,1,1)"/>
<rect x="179.50" y="253.50" width="7.00" height="7.00" rx="1.26" fill="rgb(11,13,13)"/>
<rect x="193.50" y="253.50" width="7.00" height="7.00" rx="1.26" fill="rgb(29,34,37)"/>
<rect x="207.50" y="253.50" width="7.00" height="7.00" rx="1.26" fill="rgb(16,18,19)"/>
<rect x="221.50" y="253.50" width="7.00" height="7.00" rx="1.26" fill="rgb(3,3,3)"/>
<circle cx="-2" cy="280" r="9" fill="#9aa0a6" opacity="0.25"/>
<circle cx="-2" cy="280" r="6" fill="#9aa0a6" stroke="#0d0f12" stroke-width="1.5"/>
<text x="10" y="284" font-family="'JetBrains Mono','Cascadia Mono','Consolas',monospace" font-size="12" fill="#a0a0a0">Treble</text>
<circle cx="242" cy="280" r="9" fill="#5ad1ff" opacity="0.25"/>
<circle cx="242" cy="280" r="6" fill="#5ad1ff" stroke="#0d0f12" stroke-width="1.5"/>
<text x="230" y="284" text-anchor="end" font-family="'JetBrains Mono','Cascadia Mono','Consolas',monospace" font-size="12" fill="#a0a0a0">Frame</text>
<circle cx="-2" cy="308" r="9" fill="#9aa0a6" opacity="0.25"/>
<circle cx="-2" cy="308" r="6" fill="#9aa0a6" stroke="#0d0f12" stroke-width="1.5"/>
<text x="10" y="312" font-family="'JetBrains Mono','Cascadia Mono','Consolas',monospace" font-size="12" fill="#a0a0a0">Density</text>
<circle cx="-2" cy="336" r="9" fill="#ff5cf0" opacity="0.25"/>
<circle cx="-2" cy="336" r="6" fill="#ff5cf0" stroke="#0d0f12" stroke-width="1.5"/>
<text x="10" y="340" font-family="'JetBrains Mono','Cascadia Mono','Consolas',monospace" font-size="12" fill="#a0a0a0">Palette</text>
<line x1="8" y1="356" x2="232" y2="356" stroke="rgba(255,255,255,0.08)"/>
<text x="8" y="376" font-family="'JetBrains Mono','Cascadia Mono','Consolas',monospace" font-size="12" fill="#a0a0a0">density</text>
<g>
<rect x="120" y="370" width="72" height="4" rx="2" fill="#cfd2d6" opacity="0.85"/>
<rect x="120" y="370" width="36.0" height="4" rx="2" fill="#d633ff"/>
<circle cx="156.0" cy="372" r="5" fill="#d633ff"/>
<text x="232" y="376" text-anchor="end" font-family="'JetBrains Mono','Cascadia Mono','Consolas',monospace" font-size="12" fill="#e0e0e0">0.5</text>
</g>
<text x="8" y="397" font-family="'JetBrains Mono','Cascadia Mono','Consolas',monospace" font-size="12" fill="#a0a0a0">palette</text>
<g>
<rect x="148" y="385" width="84" height="16" rx="4" fill="#0d0f12" stroke="rgba(255,255,255,0.12)"/>
<text x="152" y="397" font-family="'JetBrains Mono','Cascadia Mono','Consolas',monospace" font-size="11" fill="#e0e0e0">ice</text>
<text x="228" y="397" text-anchor="end" font-size="8" fill="#a0a0a0">▾</text>
</g>
<text x="8" y="418" font-family="'JetBrains Mono','Cascadia Mono','Consolas',monospace" font-size="12" fill="#a0a0a0">clamp inputs</text>
<g>
<rect x="220" y="408" width="12" height="12" rx="3" fill="#0d0f12" stroke="rgba(255,255,255,0.12)"/>
</g>
</g>
</svg>
