<svg xmlns="http://www.w3.org/2000/svg" viewBox="0 0 296 247" width="296" height="247" role="img" aria-label="Trigger node">

<defs><filter id="shadow" x="-20%" y="-20%" width="140%" height="160%"><feDropShadow dx="0" dy="8" stdDeviation="9" flood-color="#000" flood-opacity="0.45"/></filter></defs>
<g transform="translate(28,24)">
<rect x="0" y="0" width="240" height="189" rx="8" fill="#1f242b" stroke="rgba(255,255,255,0.12)" filter="url(#shadow)"/>
<rect x="0" y="0" width="240" height="189" rx="8" fill="#1f242b" stroke="rgba(255,255,255,0.12)"/>
<path d="M0,32 L0,8 Q0,0 8,0 L232,0 Q240,0 240,8 L240,32 Z" fill="#33ff85"/>
<text x="8" y="21" font-family="'Audiowide','Trebuchet MS','Arial Black',sans-serif" font-size="14" font-weight="600" fill="#000">Debounce</text>
<rect x="154" y="10" width="25" height="12" rx="6" fill="rgba(0,0,0,0.14)" stroke="rgba(255,255,255,0.14)"/>
<text x="166.5" y="19" text-anchor="middle" font-family="'JetBrains Mono','Cascadia Mono','Consolas',monospace" font-size="8" letter-spacing="0.08em" fill="#000">MTH</text>
<rect x="185" y="10" width="47" height="12" rx="6" fill="rgba(0,0,0,0.14)" stroke="rgba(255,255,255,0.14)"/>
<text x="208.5" y="19" text-anchor="middle" font-family="'JetBrains Mono','Cascadia Mono','Consolas',monospace" font-size="8" letter-spacing="0.08em" fill="#000">TRI-296</text>
<circle cx="-2" cy="52" r="9" fill="#9aa0a6" opacity="0.25"/>
<circle cx="-2" cy="52" r="6" fill="#9aa0a6" stroke="#0d0f12" stroke-width="1.5"/>
<text x="10" y="56" font-family="'JetBrains Mono','Cascadia Mono','Consolas',monospace" font-size="12" fill="#a0a0a0">Trigger</text>
<circle cx="242" cy="52" r="9" fill="#9aa0a6" opacity="0.25"/>
<circle cx="242" cy="52" r="6" fill="#9aa0a6" stroke="#0d0f12" stroke-width="1.5"/>
<text x="230" y="56" text-anchor="end" font-family="'JetBrains Mono','Cascadia Mono','Consolas',monospace" font-size="12" fill="#a0a0a0">Out</text>
<line x1="8" y1="72" x2="232" y2="72" stroke="rgba(255,255,255,0.08)"/>
<text x="8" y="92" font-family="'JetBrains Mono','Cascadia Mono','Consolas',monospace" font-size="12" fill="#a0a0a0">triggerOp</text>
<g>
<rect x="148" y="80" width="84" height="16" rx="4" fill="#0d0f12" stroke="rgba(255,255,255,0.12)"/>
<text x="152" y="92" font-family="'JetBrains Mono','Cascadia Mono','Consolas',monospace" font-size="11" fill="#e0e0e0">debounce</text>
<text x="228" y="92" text-anchor="end" font-size="8" fill="#a0a0a0">▾</text>
</g>
<text x="8" y="113" font-family="'JetBrains Mono','Cascadia Mono','Consolas',monospace" font-size="12" fill="#a0a0a0">stableTime</text>
<g>
<rect x="120" y="107" width="72" height="4" rx="2" fill="#cfd2d6" opacity="0.85"/>
<rect x="120" y="107" width="2.9" height="4" rx="2" fill="#d633ff"/>
<circle cx="122.9" cy="109" r="5" fill="#d633ff"/>
<text x="232" y="113" text-anchor="end" font-family="'JetBrains Mono','Cascadia Mono','Consolas',monospace" font-size="12" fill="#e0e0e0">0.05</text>
</g>
<text x="8" y="134" font-family="'JetBrains Mono','Cascadia Mono','Consolas',monospace" font-size="12" fill="#a0a0a0" opacity="0.45">holdTime</text>
<g opacity="0.45">
<rect x="120" y="128" width="72" height="4" rx="2" fill="#cfd2d6" opacity="0.85"/>
<rect x="120" y="128" width="1.9" height="4" rx="2" fill="#d633ff"/>
<circle cx="121.9" cy="130" r="5" fill="#d633ff"/>
<text x="232" y="134" text-anchor="end" font-family="'JetBrains Mono','Cascadia Mono','Consolas',monospace" font-size="12" fill="#e0e0e0">0.1</text>
</g>
<text x="8" y="155" font-family="'JetBrains Mono','Cascadia Mono','Consolas',monospace" font-size="12" fill="#a0a0a0" opacity="0.45">divideBy</text>
<g opacity="0.45">
<rect x="120" y="149" width="72" height="4" rx="2" fill="#cfd2d6" opacity="0.85"/>
<rect x="120" y="149" width="0.0" height="4" rx="2" fill="#d633ff"/>
<circle cx="120.0" cy="151" r="5" fill="#d633ff"/>
<text x="232" y="155" text-anchor="end" font-family="'JetBrains Mono','Cascadia Mono','Consolas',monospace" font-size="12" fill="#e0e0e0">2</text>
</g>
<text x="8" y="176" font-family="'JetBrains Mono','Cascadia Mono','Consolas',monospace" font-size="12" fill="#a0a0a0" opacity="0.45">delayTime</text>
<g opacity="0.45">
<rect x="120" y="170" width="72" height="4" rx="2" fill="#cfd2d6" opacity="0.85"/>
<rect x="120" y="170" width="6.5" height="4" rx="2" fill="#d633ff"/>
<circle cx="126.5" cy="172" r="5" fill="#d633ff"/>
<text x="232" y="176" text-anchor="end" font-family="'JetBrains Mono','Cascadia Mono','Consolas',monospace" font-size="12" fill="#e0e0e0">0.5</text>
</g>
</g>
</svg>
