<svg xmlns="http://www.w3.org/2000/svg" viewBox="0 0 296 594" width="296" height="594" role="img" aria-label="Turbulent Bloom node">

<defs><filter id="shadow" x="-20%" y="-20%" width="140%" height="160%"><feDropShadow dx="0" dy="8" stdDeviation="9" flood-color="#000" flood-opacity="0.45"/></filter></defs>
<g transform="translate(28,24)">
<rect x="0" y="0" width="240" height="536" rx="8" fill="#1f242b" stroke="rgba(255,255,255,0.12)" filter="url(#shadow)"/>
<rect x="0" y="0" width="240" height="536" rx="8" fill="#1f242b" stroke="rgba(255,255,255,0.12)"/>
<path d="M0,32 L0,8 Q0,0 8,0 L232,0 Q240,0 240,8 L240,32 Z" fill="#33d6ff"/>
<text x="8" y="21" font-family="'Audiowide','Trebuchet MS','Arial Black',sans-serif" font-size="14" font-weight="600" fill="#000">Turbulent Blo…</text>
<rect x="154" y="10" width="25" height="12" rx="6" fill="rgba(0,0,0,0.14)" stroke="rgba(255,255,255,0.14)"/>
<text x="166.5" y="19" text-anchor="middle" font-family="'JetBrains Mono','Cascadia Mono','Consolas',monospace" font-size="8" letter-spacing="0.08em" fill="#000">PAT</text>
<rect x="185" y="10" width="47" height="12" rx="6" fill="rgba(0,0,0,0.14)" stroke="rgba(255,255,255,0.14)"/>
<text x="208.5" y="19" text-anchor="middle" font-family="'JetBrains Mono','Cascadia Mono','Consolas',monospace" font-size="8" letter-spacing="0.08em" fill="#000">TUR-804</text>
<rect x="8" y="40" width="224" height="224" rx="4" fill="#05070a"/>
<circle cx="15" cy="47" r="7" fill="rgb(0,11,19)" opacity="0.35"/>
<circle cx="15" cy="47" r="5.0" fill="rgb(0,11,19)"/>
<circle cx="29" cy="47" r="5.0" fill="#14171c"/>
<circle cx="43" cy="47" r="7" fill="rgb(1,16,27)" opacity="0.35"/>
<circle cx="43" cy="47" r="5.0" fill="rgb(1,16,27)"/>
<circle cx="57" cy="47" r="7" fill="rgb(13,26,30)" opacity="0.35"/>
<circle cx="57" cy="47" r="5.0" fill="rgb(13,26,30)"/>
<circle cx="71" cy="47" r="7" fill="rgb(10,24,31)" opacity="0.35"/>
<circle cx="71" cy="47" r="5.0" fill="rgb(10,24,31)"/>
<circle cx="85" cy="47" r="7" fill="rgb(7,19,24)" opacity="0.35"/>
<circle cx="85" cy="47" r="5.0" fill="rgb(7,19,24)"/>
<circle cx="99" cy="47" r="5.0" fill="#14171c"/>
<circle cx="113" cy="47" r="5.0" fill="#14171c"/>
<circle cx="127" cy="47" r="5.0" fill="#14171c"/>
<circle cx="141" cy="47" r="7" fill="rgb(0,13,23)" opacity="0.35"/>
<circle cx="141" cy="47" r="5.0" fill="rgb(0,13,23)"/>
<circle cx="155" cy="47" r="7" fill="rgb(1,26,49)" opacity="0.35"/>
<circle cx="155" cy="47" r="5.0" fill="rgb(1,26,49)"/>
<circle cx="169" cy="47" r="5.0" fill="#14171c"/>
<circle cx="183" cy="47" r="5.0" fill="#14171c"/>
<circle cx="197" cy="47" r="5.0" fill="#14171c"/>
<circle cx="211" cy="47" r="7" fill="rgb(3,61,98)" opacity="0.35"/>
<circle cx="211" cy="47" r="5.0" fill="rgb(3,61,98)"/>
<circle cx="225" cy="47" r="5.0" fill="#14171c"/>
<circle cx="15" cy="61" r="5.0" fill="#14171c"/>
<circle cx="29" cy="61" r="7" fill="rgb(1,31,51)" opacity="0.35"/>
<circle cx="29" cy="61" r="5.0" fill="rgb(1,31,51)"/>
<circle cx="43" cy="61" r="7" fill="rgb(1,26,44)" opacity="0.35"/>
<circle cx="43" cy="61" r="5.0" fill="rgb(1,26,44)"/>
<circle cx="57" cy="61" r="7" fill="rgb(3,35,54)" opacity="0.35"/>
<circle cx="57" cy="61" r="5.0" fill="rgb(3,35,54)"/>
<circle cx="71" cy="61" r="7" fill="rgb(6,36,54)" opacity="0.35"/>
<circle cx="71" cy="61" r="5.0" fill="rgb(6,36,54)"/>
<circle cx="85" cy="61" r="7" fill="rgb(7,35,52)" opacity="0.35"/>
<circle cx="85" cy="61" r="5.0" fill="rgb(7,35,52)"/>
<circle cx="99" cy="61" r="7" fill="rgb(3,37,57)" opacity="0.35"/>
<circle cx="99" cy="61" r="5.0" fill="rgb(3,37,57)"/>
<circle cx="113" cy="61" r="5.0" fill="#14171c"/>
<circle cx="127" cy="61" r="5.0" fill="#14171c"/>
<circle cx="141" cy="61" r="7" fill="rgb(1,19,35)" opacity="0.35"/>
<circle cx="141" cy="61" r="5.0" fill="rgb(1,19,35)"/>
<circle cx="155" cy="61" r="5.0" fill="#14171c"/>
<circle cx="169" cy="61" r="7" fill="rgb(1,44,73)" opacity="0.35"/>
<circle cx="169" cy="61" r="5.0" fill="rgb(1,44,73)"/>
<circle cx="183" cy="61" r="7" fill="rgb(2,49,81)" opacity="0.35"/>
<circle cx="183" cy="61" r="5.0" fill="rgb(2,49,81)"/>
<circle cx="197" cy="61" r="5.0" fill="#14171c"/>
<circle cx="211" cy="61" r="5.0" fill="#14171c"/>
<circle cx="225" cy="61" r="7" fill="rgb(1,32,52)" opacity="0.35"/>
<circle cx="225" cy="61" r="5.0" fill="rgb(1,32,52)"/>
<circle cx="15" cy="75" r="7" fill="rgb(8,36,52)" opacity="0.35"/>
<circle cx="15" cy="75" r="5.0" fill="rgb(8,36,52)"/>
<circle cx="29" cy="75" r="7" fill="rgb(6,38,57)" opacity="0.35"/>
<circle cx="29" cy="75" r="5.0" fill="rgb(6,38,57)"/>
<circle cx="43" cy="75" r="7" fill="rgb(5,36,55)" opacity="0.35"/>
<circle cx="43" cy="75" r="5.0" fill="rgb(5,36,55)"/>
<circle cx="57" cy="75" r="7" fill="rgb(6,38,57)" opacity="0.35"/>
<circle cx="57" cy="75" r="5.0" fill="rgb(6,38,57)"/>
<circle cx="71" cy="75" r="7" fill="rgb(0,13,22)" opacity="0.35"/>
<circle cx="71" cy="75" r="5.0" fill="rgb(0,13,22)"/>
<circle cx="85" cy="75" r="5.0" fill="#14171c"/>
<circle cx="99" cy="75" r="5.0" fill="#14171c"/>
<circle cx="113" cy="75" r="5.0" fill="#14171c"/>
<circle cx="127" cy="75" r="7" fill="rgb(1,34,63)" opacity="0.35"/>
<circle cx="127" cy="75" r="5.0" fill="rgb(1,34,63)"/>
<circle cx="141" cy="75" r="5.0" fill="#14171c"/>
<circle cx="155" cy="75" r="5.0" fill="#14171c"/>
<circle cx="169" cy="75" r="7" fill="rgb(2,73,119)" opacity="0.35"/>
<circle cx="169" cy="75" r="5.0" fill="rgb(2,73,119)"/>
<circle cx="183" cy="75" r="7" fill="rgb(1,24,40)" opacity="0.35"/>
<circle cx="183" cy="75" r="5.0" fill="rgb(1,24,40)"/>
<circle cx="197" cy="75" r="5.0" fill="#14171c"/>
<circle cx="211" cy="75" r="7" fill="rgb(7,58,89)" opacity="0.35"/>
<circle cx="211" cy="75" r="5.0" fill="rgb(7,58,89)"/>
<circle cx="225" cy="75" r="7" fill="rgb(3,102,167)" opacity="0.35"/>
<circle cx="225" cy="75" r="5.0" fill="rgb(3,102,167)"/>
<circle cx="15" cy="89" r="7" fill="rgb(1,27,46)" opacity="0.35"/>
<circle cx="15" cy="89" r="5.0" fill="rgb(1,27,46)"/>
<circle cx="29" cy="89" r="7" fill="rgb(1,22,37)" opacity="0.35"/>
<circle cx="29" cy="89" r="5.0" fill="rgb(1,22,37)"/>
<circle cx="43" cy="89" r="7" fill="rgb(1,20,33)" opacity="0.35"/>
<circle cx="43" cy="89" r="5.0" fill="rgb(1,20,33)"/>
<circle cx="57" cy="89" r="5.0" fill="#14171c"/>
<circle cx="71" cy="89" r="5.0" fill="#14171c"/>
<circle cx="85" cy="89" r="7" fill="rgb(2,53,90)" opacity="0.35"/>
<circle cx="85" cy="89" r="5.0" fill="rgb(2,53,90)"/>
<circle cx="99" cy="89" r="7" fill="rgb(1,24,41)" opacity="0.35"/>
<circle cx="99" cy="89" r="5.0" fill="rgb(1,24,41)"/>
<circle cx="113" cy="89" r="5.0" fill="#14171c"/>
<circle cx="127" cy="89" r="7" fill="rgb(1,36,67)" opacity="0.35"/>
<circle cx="127" cy="89" r="5.0" fill="rgb(1,36,67)"/>
<circle cx="141" cy="89" r="5.0" fill="#14171c"/>
<circle cx="155" cy="89" r="5.0" fill="#14171c"/>
<circle cx="169" cy="89" r="5.0" fill="#14171c"/>
<circle cx="183" cy="89" r="7" fill="rgb(3,90,149)" opacity="0.35"/>
<circle cx="183" cy="89" r="5.0" fill="rgb(3,90,149)"/>
<circle cx="197" cy="89" r="5.0" fill="#14171c"/>
<circle cx="211" cy="89" r="5.0" fill="#14171c"/>
<circle cx="225" cy="89" r="7" fill="rgb(32,85,111)" opacity="0.35"/>
<circle cx="225" cy="89" r="5.0" fill="rgb(32,85,111)"/>
<circle cx="15" cy="103" r="7" fill="rgb(1,23,38)" opacity="0.35"/>
<circle cx="15" cy="103" r="5.0" fill="rgb(1,23,38)"/>
<circle cx="29" cy="103" r="7" fill="rgb(4,34,52)" opacity="0.35"/>
<circle cx="29" cy="103" r="5.0" fill="rgb(4,34,52)"/>
<circle cx="43" cy="103" r="5.0" fill="#14171c"/>
<circle cx="57" cy="103" r="7" fill="rgb(1,21,38)" opacity="0.35"/>
<circle cx="57" cy="103" r="5.0" fill="rgb(1,21,38)"/>
<circle cx="71" cy="103" r="7" fill="rgb(1,14,26)" opacity="0.35"/>
<circle cx="71" cy="103" r="5.0" fill="rgb(1,14,26)"/>
<circle cx="85" cy="103" r="7" fill="rgb(1,50,92)" opacity="0.35"/>
<circle cx="85" cy="103" r="5.0" fill="rgb(1,50,92)"/>
<circle cx="99" cy="103" r="7" fill="rgb(0,14,26)" opacity="0.35"/>
<circle cx="99" cy="103" r="5.0" fill="rgb(0,14,26)"/>
<circle cx="113" cy="103" r="7" fill="rgb(2,63,117)" opacity="0.35"/>
<circle cx="113" cy="103" r="5.0" fill="rgb(2,63,117)"/>
<circle cx="127" cy="103" r="7" fill="rgb(1,26,48)" opacity="0.35"/>
<circle cx="127" cy="103" r="5.0" fill="rgb(1,26,48)"/>
<circle cx="141" cy="103" r="7" fill="rgb(1,28,50)" opacity="0.35"/>
<circle cx="141" cy="103" r="5.0" fill="rgb(1,28,50)"/>
<circle cx="155" cy="103" r="7" fill="rgb(1,16,29)" opacity="0.35"/>
<circle cx="155" cy="103" r="5.0" fill="rgb(1,16,29)"/>
<circle cx="169" cy="103" r="7" fill="rgb(0,10,18)" opacity="0.35"/>
<circle cx="169" cy="103" r="5.0" fill="rgb(0,10,18)"/>
<circle cx="183" cy="103" r="7" fill="rgb(1,24,39)" opacity="0.35"/>
<circle cx="183" cy="103" r="5.0" fill="rgb(1,24,39)"/>
<circle cx="197" cy="103" r="5.0" fill="#14171c"/>
<circle cx="211" cy="103" r="5.0" fill="#14171c"/>
<circle cx="225" cy="103" r="5.0" fill="#14171c"/>
<circle cx="15" cy="117" r="5.0" fill="#14171c"/>
<circle cx="29" cy="117" r="7" fill="rgb(0,11,18)" opacity="0.35"/>
<circle cx="29" cy="117" r="5.0" fill="rgb(0,11,18)"/>
<circle cx="43" cy="117" r="7" fill="rgb(1,19,32)" opacity="0.35"/>
<circle cx="43" cy="117" r="5.0" fill="rgb(1,19,32)"/>
<circle cx="57" cy="117" r="7" fill="rgb(1,32,57)" opacity="0.35"/>
<circle cx="57" cy="117" r="5.0" fill="rgb(1,32,57)"/>
<circle cx="71" cy="117" r="7" fill="rgb(1,49,91)" opacity="0.35"/>
<circle cx="71" cy="117" r="5.0" fill="rgb(1,49,91)"/>
<circle cx="85" cy="117" r="7" fill="rgb(1,50,94)" opacity="0.35"/>
<circle cx="85" cy="117" r="5.0" fill="rgb(1,50,94)"/>
<circle cx="99" cy="117" r="7" fill="rgb(2,54,99)" opacity="0.35"/>
<circle cx="99" cy="117" r="5.0" fill="rgb(2,54,99)"/>
<circle cx="113" cy="117" r="5.0" fill="#14171c"/>
<circle cx="127" cy="117" r="5.0" fill="#14171c"/>
<circle cx="141" cy="117" r="7" fill="rgb(1,27,50)" opacity="0.35"/>
<circle cx="141" cy="117" r="5.0" fill="rgb(1,27,50)"/>
<circle cx="155" cy="117" r="5.0" fill="#14171c"/>
<circle cx="169" cy="117" r="5.0" fill="#14171c"/>
<circle cx="183" cy="117" r="5.0" fill="#14171c"/>
<circle cx="197" cy="117" r="7" fill="rgb(14,55,77)" opacity="0.35"/>
<circle cx="197" cy="117" r="5.0" fill="rgb(14,55,77)"/>
<circle cx="211" cy="117" r="7" fill="rgb(11,26,32)" opacity="0.35"/>
<circle cx="211" cy="117" r="5.0" fill="rgb(11,26,32)"/>
<circle cx="225" cy="117" r="7" fill="rgb(1,29,48)" opacity="0.35"/>
<circle cx="225" cy="117" r="5.0" fill="rgb(1,29,48)"/>
<circle cx="15" cy="131" r="7" fill="rgb(2,56,103)" opacity="0.35"/>
<circle cx="15" cy="131" r="5.0" fill="rgb(2,56,103)"/>
<circle cx="29" cy="131" r="7" fill="rgb(1,29,54)" opacity="0.35"/>
<circle cx="29" cy="131" r="5.0" fill="rgb(1,29,54)"/>
<circle cx="43" cy="131" r="7" fill="rgb(1,22,40)" opacity="0.35"/>
<circle cx="43" cy="131" r="5.0" fill="rgb(1,22,40)"/>
<circle cx="57" cy="131" r="7" fill="rgb(2,48,86)" opacity="0.35"/>
<circle cx="57" cy="131" r="5.0" fill="rgb(2,48,86)"/>
<circle cx="71" cy="131" r="7" fill="rgb(1,21,37)" opacity="0.35"/>
<circle cx="71" cy="131" r="5.0" fill="rgb(1,21,37)"/>
<circle cx="85" cy="131" r="7" fill="rgb(1,31,57)" opacity="0.35"/>
<circle cx="85" cy="131" r="5.0" fill="rgb(1,31,57)"/>
<circle cx="99" cy="131" r="7" fill="rgb(1,20,36)" opacity="0.35"/>
<circle cx="99" cy="131" r="5.0" fill="rgb(1,20,36)"/>
<circle cx="113" cy="131" r="7" fill="rgb(2,52,96)" opacity="0.35"/>
<circle cx="113" cy="131" r="5.0" fill="rgb(2,52,96)"/>
<circle cx="127" cy="131" r="5.0" fill="#14171c"/>
<circle cx="141" cy="131" r="7" fill="rgb(2,52,96)" opacity="0.35"/>
<circle cx="141" cy="131" r="5.0" fill="rgb(2,52,96)"/>
<circle cx="155" cy="131" r="5.0" fill="#14171c"/>
<circle cx="169" cy="131" r="7" fill="rgb(1,20,37)" opacity="0.35"/>
<circle cx="169" cy="131" r="5.0" fill="rgb(1,20,37)"/>
<circle cx="183" cy="131" r="5.0" fill="#14171c"/>
<circle cx="197" cy="131" r="5.0" fill="#14171c"/>
<circle cx="211" cy="131" r="5.0" fill="#14171c"/>
<circle cx="225" cy="131" r="7" fill="rgb(1,36,59)" opacity="0.35"/>
<circle cx="225" cy="131" r="5.0" fill="rgb(1,36,59)"/>
<circle cx="15" cy="145" r="7" fill="rgb(1,15,28)" opacity="0.35"/>
<circle cx="15" cy="145" r="5.0" fill="rgb(1,15,28)"/>
<circle cx="29" cy="145" r="5.0" fill="#14171c"/>
<circle cx="43" cy="145" r="7" fill="rgb(1,19,35)" opacity="0.35"/>
<circle cx="43" cy="145" r="5.0" fill="rgb(1,19,35)"/>
<circle cx="57" cy="145" r="7" fill="rgb(2,64,119)" opacity="0.35"/>
<circle cx="57" cy="145" r="5.0" fill="rgb(2,64,119)"/>
<circle cx="71" cy="145" r="7" fill="rgb(1,22,39)" opacity="0.35"/>
<circle cx="71" cy="145" r="5.0" fill="rgb(1,22,39)"/>
<circle cx="85" cy="145" r="7" fill="rgb(0,12,22)" opacity="0.35"/>
<circle cx="85" cy="145" r="5.0" fill="rgb(0,12,22)"/>
<circle cx="99" cy="145" r="5.0" fill="#14171c"/>
<circle cx="113" cy="145" r="7" fill="rgb(1,19,35)" opacity="0.35"/>
<circle cx="113" cy="145" r="5.0" fill="rgb(1,19,35)"/>
<circle cx="127" cy="145" r="7" fill="rgb(1,39,72)" opacity="0.35"/>
<circle cx="127" cy="145" r="5.0" fill="rgb(1,39,72)"/>
<circle cx="141" cy="145" r="7" fill="rgb(1,42,77)" opacity="0.35"/>
<circle cx="141" cy="145" r="5.0" fill="rgb(1,42,77)"/>
<circle cx="155" cy="145" r="5.0" fill="#14171c"/>
<circle cx="169" cy="145" r="5.0" fill="#14171c"/>
<circle cx="183" cy="145" r="5.0" fill="#14171c"/>
<circle cx="197" cy="145" r="5.0" fill="#14171c"/>
<circle cx="211" cy="145" r="5.0" fill="#14171c"/>
<circle cx="225" cy="145" r="5.0" fill="#14171c"/>
<circle cx="15" cy="159" r="7" fill="rgb(1,29,53)" opacity="0.35"/>
<circle cx="15" cy="159" r="5.0" fill="rgb(1,29,53)"/>
<circle cx="29" cy="159" r="5.0" fill="#14171c"/>
<circle cx="43" cy="159" r="7" fill="rgb(1,36,67)" opacity="0.35"/>
<circle cx="43" cy="159" r="5.0" fill="rgb(1,36,67)"/>
<circle cx="57" cy="159" r="7" fill="rgb(1,19,35)" opacity="0.35"/>
<circle cx="57" cy="159" r="5.0" fill="rgb(1,19,35)"/>
<circle cx="71" cy="159" r="7" fill="rgb(0,12,21)" opacity="0.35"/>
<circle cx="71" cy="159" r="5.0" fill="rgb(0,12,21)"/>
<circle cx="85" cy="159" r="7" fill="rgb(1,20,36)" opacity="0.35"/>
<circle cx="85" cy="159" r="5.0" fill="rgb(1,20,36)"/>
<circle cx="99" cy="159" r="7" fill="rgb(1,20,35)" opacity="0.35"/>
<circle cx="99" cy="159" r="5.0" fill="rgb(1,20,35)"/>
<circle cx="113" cy="159" r="5.0" fill="#14171c"/>
<circle cx="127" cy="159" r="5.0" fill="#14171c"/>
<circle cx="141" cy="159" r="7" fill="rgb(1,23,42)" opacity="0.35"/>
<circle cx="141" cy="159" r="5.0" fill="rgb(1,23,42)"/>
<circle cx="155" cy="159" r="5.0" fill="#14171c"/>
<circle cx="169" cy="159" r="7" fill="rgb(0,10,18)" opacity="0.35"/>
<circle cx="169" cy="159" r="5.0" fill="rgb(0,10,18)"/>
<circle cx="183" cy="159" r="5.0" fill="#14171c"/>
<circle cx="197" cy="159" r="5.0" fill="#14171c"/>
<circle cx="211" cy="159" r="7" fill="rgb(1,44,77)" opacity="0.35"/>
<circle cx="211" cy="159" r="5.0" fill="rgb(1,44,77)"/>
<circle cx="225" cy="159" r="5.0" fill="#14171c"/>
<circle cx="15" cy="173" r="7" fill="rgb(2,60,100)" opacity="0.35"/>
<circle cx="15" cy="173" r="5.0" fill="rgb(2,60,100)"/>
<circle cx="29" cy="173" r="7" fill="rgb(0,11,20)" opacity="0.35"/>
<circle cx="29" cy="173" r="5.0" fill="rgb(0,11,20)"/>
<circle cx="43" cy="173" r="5.0" fill="#14171c"/>
<circle cx="57" cy="173" r="7" fill="rgb(1,20,37)" opacity="0.35"/>
<circle cx="57" cy="173" r="5.0" fill="rgb(1,20,37)"/>
<circle cx="71" cy="173" r="5.0" fill="#14171c"/>
<circle cx="85" cy="173" r="5.0" fill="#14171c"/>
<circle cx="99" cy="173" r="5.0" fill="#14171c"/>
<circle cx="113" cy="173" r="5.0" fill="#14171c"/>
<circle cx="127" cy="173" r="5.0" fill="#14171c"/>
<circle cx="141" cy="173" r="5.0" fill="#14171c"/>
<circle cx="155" cy="173" r="5.0" fill="#14171c"/>
<circle cx="169" cy="173" r="7" fill="rgb(1,28,49)" opacity="0.35"/>
<circle cx="169" cy="173" r="5.0" fill="rgb(1,28,49)"/>
<circle cx="183" cy="173" r="5.0" fill="#14171c"/>
<circle cx="197" cy="173" r="5.0" fill="#14171c"/>
<circle cx="211" cy="173" r="5.0" fill="#14171c"/>
<circle cx="225" cy="173" r="5.0" fill="#14171c"/>
<circle cx="15" cy="187" r="7" fill="rgb(15,63,90)" opacity="0.35"/>
<circle cx="15" cy="187" r="5.0" fill="rgb(15,63,90)"/>
<circle cx="29" cy="187" r="5.0" fill="#14171c"/>
<circle cx="43" cy="187" r="7" fill="rgb(1,28,51)" opacity="0.35"/>
<circle cx="43" cy="187" r="5.0" fill="rgb(1,28,51)"/>
<circle cx="57" cy="187" r="7" fill="rgb(1,21,40)" opacity="0.35"/>
<circle cx="57" cy="187" r="5.0" fill="rgb(1,21,40)"/>
<circle cx="71" cy="187" r="7" fill="rgb(1,20,36)" opacity="0.35"/>
<circle cx="71" cy="187" r="5.0" fill="rgb(1,20,36)"/>
<circle cx="85" cy="187" r="7" fill="rgb(1,23,41)" opacity="0.35"/>
<circle cx="85" cy="187" r="5.0" fill="rgb(1,23,41)"/>
<circle cx="99" cy="187" r="5.0" fill="#14171c"/>
<circle cx="113" cy="187" r="7" fill="rgb(1,35,62)" opacity="0.35"/>
<circle cx="113" cy="187" r="5.0" fill="rgb(1,35,62)"/>
<circle cx="127" cy="187" r="5.0" fill="#14171c"/>
<circle cx="141" cy="187" r="7" fill="rgb(1,18,32)" opacity="0.35"/>
<circle cx="141" cy="187" r="5.0" fill="rgb(1,18,32)"/>
<circle cx="155" cy="187" r="7" fill="rgb(2,85,145)" opacity="0.35"/>
<circle cx="155" cy="187" r="5.0" fill="rgb(2,85,145)"/>
<circle cx="169" cy="187" r="7" fill="rgb(2,74,128)" opacity="0.35"/>
<circle cx="169" cy="187" r="5.0" fill="rgb(2,74,128)"/>
<circle cx="183" cy="187" r="5.0" fill="#14171c"/>
<circle cx="197" cy="187" r="7" fill="rgb(0,9,17)" opacity="0.35"/>
<circle cx="197" cy="187" r="5.0" fill="rgb(0,9,17)"/>
<circle cx="211" cy="187" r="7" fill="rgb(3,94,160)" opacity="0.35"/>
<circle cx="211" cy="187" r="5.0" fill="rgb(3,94,160)"/>
<circle cx="225" cy="187" r="7" fill="rgb(0,10,17)" opacity="0.35"/>
<circle cx="225" cy="187" r="5.0" fill="rgb(0,10,17)"/>
<circle cx="15" cy="201" r="7" fill="rgb(1,30,50)" opacity="0.35"/>
<circle cx="15" cy="201" r="5.0" fill="rgb(1,30,50)"/>
<circle cx="29" cy="201" r="5.0" fill="#14171c"/>
<circle cx="43" cy="201" r="7" fill="rgb(4,111,186)" opacity="0.35"/>
<circle cx="43" cy="201" r="5.0" fill="rgb(4,111,186)"/>
<circle cx="57" cy="201" r="7" fill="rgb(1,17,28)" opacity="0.35"/>
<circle cx="57" cy="201" r="5.0" fill="rgb(1,17,28)"/>
<circle cx="71" cy="201" r="5.0" fill="#14171c"/>
<circle cx="85" cy="201" r="7" fill="rgb(0,10,19)" opacity="0.35"/>
<circle cx="85" cy="201" r="5.0" fill="rgb(0,10,19)"/>
<circle cx="99" cy="201" r="5.0" fill="#14171c"/>
<circle cx="113" cy="201" r="5.0" fill="#14171c"/>
<circle cx="127" cy="201" r="5.0" fill="#14171c"/>
<circle cx="141" cy="201" r="5.0" fill="#14171c"/>
<circle cx="155" cy="201" r="5.0" fill="#14171c"/>
<circle cx="169" cy="201" r="5.0" fill="#14171c"/>
<circle cx="183" cy="201" r="5.0" fill="#14171c"/>
<circle cx="197" cy="201" r="7" fill="rgb(0,13,24)" opacity="0.35"/>
<circle cx="197" cy="201" r="5.0" fill="rgb(0,13,24)"/>
<circle cx="211" cy="201" r="7" fill="rgb(1,40,70)" opacity="0.35"/>
<circle cx="211" cy="201" r="5.0" fill="rgb(1,40,70)"/>
<circle cx="225" cy="201" r="5.0" fill="#14171c"/>
<circle cx="15" cy="215" r="5.0" fill="#14171c"/>
<circle cx="29" cy="215" r="5.0" fill="#14171c"/>
<circle cx="43" cy="215" r="7" fill="rgb(22,100,143)" opacity="0.35"/>
<circle cx="43" cy="215" r="5.0" fill="rgb(22,100,143)"/>
<circle cx="57" cy="215" r="7" fill="rgb(1,36,63)" opacity="0.35"/>
<circle cx="57" cy="215" r="5.0" fill="rgb(1,36,63)"/>
<circle cx="71" cy="215" r="7" fill="rgb(1,37,68)" opacity="0.35"/>
<circle cx="71" cy="215" r="5.0" fill="rgb(1,37,68)"/>
<circle cx="85" cy="215" r="7" fill="rgb(1,18,33)" opacity="0.35"/>
<circle cx="85" cy="215" r="5.0" fill="rgb(1,18,33)"/>
<circle cx="99" cy="215" r="5.0" fill="#14171c"/>
<circle cx="113" cy="215" r="5.0" fill="#14171c"/>
<circle cx="127" cy="215" r="7" fill="rgb(4,117,196)" opacity="0.35"/>
<circle cx="127" cy="215" r="5.0" fill="rgb(4,117,196)"/>
<circle cx="141" cy="215" r="7" fill="rgb(4,117,197)" opacity="0.35"/>
<circle cx="141" cy="215" r="5.0" fill="rgb(4,117,197)"/>
<circle cx="155" cy="215" r="5.0" fill="#14171c"/>
<circle cx="169" cy="215" r="5.0" fill="#14171c"/>
<circle cx="183" cy="215" r="5.0" fill="#14171c"/>
<circle cx="197" cy="215" r="5.0" fill="#14171c"/>
<circle cx="211" cy="215" r="5.0" fill="#14171c"/>
<circle cx="225" cy="215" r="5.0" fill="#14171c"/>
<circle cx="15" cy="229" r="7" fill="rgb(1,36,59)" opacity="0.35"/>
<circle cx="15" cy="229" r="5.0" fill="rgb(1,36,59)"/>
<circle cx="29" cy="229" r="7" fill="rgb(1,20,33)" opacity="0.35"/>
<circle cx="29" cy="229" r="5.0" fill="rgb(1,20,33)"/>
<circle cx="43" cy="229" r="7" fill="rgb(1,40,69)" opacity="0.35"/>
<circle cx="43" cy="229" r="5.0" fill="rgb(1,40,69)"/>
<circle cx="57" cy="229" r="7" fill="rgb(2,73,126)" opacity="0.35"/>
<circle cx="57" cy="229" r="5.0" fill="rgb(2,73,126)"/>
<circle cx="71" cy="229" r="7" fill="rgb(4,122,202)" opacity="0.35"/>
<circle cx="71" cy="229" r="5.0" fill="rgb(4,122,202)"/>
<circle cx="85" cy="229" r="7" fill="rgb(0,16,29)" opacity="0.35"/>
<circle cx="85" cy="229" r="5.0" fill="rgb(0,16,29)"/>
<circle cx="99" cy="229" r="5.0" fill="#14171c"/>
<circle cx="113" cy="229" r="7" fill="rgb(1,18,34)" opacity="0.35"/>
<circle cx="113" cy="229" r="5.0" fill="rgb(1,18,34)"/>
<circle cx="127" cy="229" r="7" fill="rgb(2,59,102)" opacity="0.35"/>
<circle cx="127" cy="229" r="5.0" fill="rgb(2,59,102)"/>
<circle cx="141" cy="229" r="7" fill="rgb(20,78,110)" opacity="0.35"/>
<circle cx="141" cy="229" r="5.0" fill="rgb(20,78,110)"/>
<circle cx="155" cy="229" r="7" fill="rgb(17,144,220)" opacity="0.35"/>
<circle cx="155" cy="229" r="5.0" fill="rgb(17,144,220)"/>
<circle cx="169" cy="229" r="5.0" fill="#14171c"/>
<circle cx="183" cy="229" r="7" fill="rgb(3,101,170)" opacity="0.35"/>
<circle cx="183" cy="229" r="5.0" fill="rgb(3,101,170)"/>
<circle cx="197" cy="229" r="5.0" fill="#14171c"/>
<circle cx="211" cy="229" r="7" fill="rgb(0,11,19)" opacity="0.35"/>
<circle cx="211" cy="229" r="5.0" fill="rgb(0,11,19)"/>
<circle cx="225" cy="229" r="7" fill="rgb(3,98,168)" opacity="0.35"/>
<circle cx="225" cy="229" r="5.0" fill="rgb(3,98,168)"/>
<circle cx="15" cy="243" r="5.0" fill="#14171c"/>
<circle cx="29" cy="243" r="7" fill="rgb(2,74,124)" opacity="0.35"/>
<circle cx="29" cy="243" r="5.0" fill="rgb(2,74,124)"/>
<circle cx="43" cy="243" r="7" fill="rgb(1,23,40)" opacity="0.35"/>
<circle cx="43" cy="243" r="5.0" fill="rgb(1,23,40)"/>
<circle cx="57" cy="243" r="7" fill="rgb(2,61,99)" opacity="0.35"/>
<circle cx="57" cy="243" r="5.0" fill="rgb(2,61,99)"/>
<circle cx="71" cy="243" r="7" fill="rgb(1,24,42)" opacity="0.35"/>
<circle cx="71" cy="243" r="5.0" fill="rgb(1,24,42)"/>
<circle cx="85" cy="243" r="5.0" fill="#14171c"/>
<circle cx="99" cy="243" r="5.0" fill="#14171c"/>
<circle cx="113" cy="243" r="5.0" fill="#14171c"/>
<circle cx="127" cy="243" r="5.0" fill="#14171c"/>
<circle cx="141" cy="243" r="7" fill="rgb(4,129,210)" opacity="0.35"/>
<circle cx="141" cy="243" r="5.0" fill="rgb(4,129,210)"/>
<circle cx="155" cy="243" r="7" fill="rgb(4,118,198)" opacity="0.35"/>
<circle cx="155" cy="243" r="5.0" fill="rgb(4,118,198)"/>
<circle cx="169" cy="243" r="5.0" fill="#14171c"/>
<circle cx="183" cy="243" r="7" fill="rgb(4,131,212)" opacity="0.35"/>
<circle cx="183" cy="243" r="5.0" fill="rgb(4,131,212)"/>
<circle cx="197" cy="243" r="5.0" fill="#14171c"/>
<circle cx="211" cy="243" r="7" fill="rgb(3,99,166)" opacity="0.35"/>
<circle cx="211" cy="243" r="5.0" fill="rgb(3,99,166)"/>
<circle cx="225" cy="243" r="7" fill="rgb(4,122,202)" opacity="0.35"/>
<circle cx="225" cy="243" r="5.0" fill="rgb(4,122,202)"/>
<circle cx="15" cy="257" r="7" fill="rgb(3,14,20)" opacity="0.35"/>
<circle cx="15" cy="257" r="5.0" fill="rgb(3,14,20)"/>
<circle cx="29" cy="257" r="7" fill="rgb(18,69,97)" opacity="0.35"/>
<circle cx="29" cy="257" r="5.0" fill="rgb(18,69,97)"/>
<circle cx="43" cy="257" r="7" fill="rgb(1,19,33)" opacity="0.35"/>
<circle cx="43" cy="257" r="5.0" fill="rgb(1,19,33)"/>
<circle cx="57" cy="257" r="7" fill="rgb(15,143,220)" opacity="0.35"/>
<circle cx="57" cy="257" r="5.0" fill="rgb(15,143,220)"/>
<circle cx="71" cy="257" r="7" fill="rgb(4,131,212)" opacity="0.35"/>
<circle cx="71" cy="257" r="5.0" fill="rgb(4,131,212)"/>
<circle cx="85" cy="257" r="5.0" fill="#14171c"/>
<circle cx="99" cy="257" r="7" fill="rgb(0,13,25)" opacity="0.35"/>
<circle cx="99" cy="257" r="5.0" fill="rgb(0,13,25)"/>
<circle cx="113" cy="257" r="5.0" fill="#14171c"/>
<circle cx="127" cy="257" r="5.0" fill="#14171c"/>
<circle cx="141" cy="257" r="7" fill="rgb(4,124,204)" opacity="0.35"/>
<circle cx="141" cy="257" r="5.0" fill="rgb(4,124,204)"/>
<circle cx="155" cy="257" r="5.0" fill="#14171c"/>
<circle cx="169" cy="257" r="7" fill="rgb(11,140,219)" opacity="0.35"/>
<circle cx="169" cy="257" r="5.0" fill="rgb(11,140,219)"/>
<circle cx="183" cy="257" r="7" fill="rgb(23,148,221)" opacity="0.35"/>
<circle cx="183" cy="257" r="5.0" fill="rgb(23,148,221)"/>
<circle cx="197" cy="257" r="7" fill="rgb(3,99,168)" opacity="0.35"/>
<circle cx="197" cy="257" r="5.0" fill="rgb(3,99,168)"/>
<circle cx="211" cy="257" r="7" fill="rgb(19,120,179)" opacity="0.35"/>
<circle cx="211" cy="257" r="5.0" fill="rgb(19,120,179)"/>
<circle cx="225" cy="257" r="7" fill="rgb(14,142,219)" opacity="0.35"/>
<circle cx="225" cy="257" r="5.0" fill="rgb(14,142,219)"/>
<circle cx="-2" cy="280" r="9" fill="#9aa0a6" opacity="0.25"/>
<circle cx="-2" cy="280" r="6" fill="#9aa0a6" stroke="#0d0f12" stroke-width="1.5"/>
<text x="10" y="284" font-family="'JetBrains Mono','Cascadia Mono','Consolas',monospace" font-size="12" fill="#a0a0a0">Bass</text>
<circle cx="242" cy="280" r="9" fill="#5ad1ff" opacity="0.25"/>
<circle cx="242" cy="280" r="6" fill="#5ad1ff" stroke="#0d0f12" stroke-width="1.5"/>
<text x="230" y="284" text-anchor="end" font-family="'JetBrains Mono','Cascadia Mono','Consolas',monospace" font-size="12" fill="#a0a0a0">Frame</text>
<circle cx="-2" cy="308" r="9" fill="#9aa0a6" opacity="0.25"/>
<circle cx="-2" cy="308" r="6" fill="#9aa0a6" stroke="#0d0f12" stroke-width="1.5"/>
<text x="10" y="312" font-family="'JetBrains Mono','Cascadia Mono','Consolas',monospace" font-size="12" fill="#a0a0a0">Mids</text>
<circle cx="-2" cy="336" r="9" fill="#9aa0a6" opacity="0.25"/>
<circle cx="-2" cy="336" r="6" fill="#9aa0a6" stroke="#0d0f12" stroke-width="1.5"/>
<text x="10" y="340" font-family="'JetBrains Mono','Cascadia Mono','Consolas',monospace" font-size="12" fill="#a0a0a0">Treble</text>
<circle cx="-2" cy="364" r="9" fill="#9aa0a6" opacity="0.25"/>
<circle cx="-2" cy="364" r="6" fill="#9aa0a6" stroke="#0d0f12" stroke-width="1.5"/>
<text x="10" y="368" font-family="'JetBrains Mono','Cascadia Mono','Consolas',monospace" font-size="12" fill="#a0a0a0">Energy</text>
<circle cx="-2" cy="392" r="9" fill="#9aa0a6" opacity="0.25"/>
<circle cx="-2" cy="392" r="6" fill="#9aa0a6" stroke="#0d0f12" stroke-width="1.5"/>
<text x="10" y="396" font-family="'JetBrains Mono','Cascadia Mono','Consolas',monospace" font-size="12" fill="#a0a0a0">Speed</text>
<circle cx="-2" cy="420" r="9" fill="#ff5cf0" opacity="0.25"/>
<circle cx="-2" cy="420" r="6" fill="#ff5cf0" stroke="#0d0f12" stroke-width="1.5"/>
<text x="10" y="424" font-family="'JetBrains Mono','Cascadia Mono','Consolas',monospace" font-size="12" fill="#a0a0a0">Palette</text>
<line x1="8" y1="440" x2="232" y2="440" stroke="rgba(255,255,255,0.08)"/>
<text x="8" y="460" font-family="'JetBrains Mono','Cascadia Mono','Consolas',monospace" font-size="12" fill="#a0a0a0">energy</text>
<g>
<rect x="120" y="454" width="72" height="4" rx="2" fill="#cfd2d6" opacity="0.85"/>
<rect x="120" y="454" width="50.4" height="4" rx="2" fill="#d633ff"/>
<circle cx="170.4" cy="456" r="5" fill="#d633ff"/>
<text x="232" y="460" text-anchor="end" font-family="'JetBrains Mono','Cascadia Mono','Consolas',monospace" font-size="12" fill="#e0e0e0">0.7</text>
</g>
<text x="8" y="481" font-family="'JetBrains Mono','Cascadia Mono','Consolas',monospace" font-size="12" fill="#a0a0a0">speed</text>
<g>
<rect x="120" y="475" width="72" height="4" rx="2" fill="#cfd2d6" opacity="0.85"/>
<rect x="120" y="475" width="72.0" height="4" rx="2" fill="#d633ff"/>
<circle cx="192.0" cy="477" r="5" fill="#d633ff"/>
<text x="232" y="481" text-anchor="end" font-family="'JetBrains Mono','Cascadia Mono','Consolas',monospace" font-size="12" fill="#e0e0e0">1</text>
</g>
<text x="8" y="502" font-family="'JetBrains Mono','Cascadia Mono','Consolas',monospace" font-size="12" fill="#a0a0a0">palette</text>
<g>
<rect x="148" y="490" width="84" height="16" rx="4" fill="#0d0f12" stroke="rgba(255,255,255,0.12)"/>
<text x="152" y="502" font-family="'JetBrains Mono','Cascadia Mono','Consolas',monospace" font-size="11" fill="#e0e0e0">deepsea</text>
<text x="228" y="502" text-anchor="end" font-size="8" fill="#a0a0a0">▾</text>
</g>
<text x="8" y="523" font-family="'JetBrains Mono','Cascadia Mono','Consolas',monospace" font-size="12" fill="#a0a0a0">clamp inputs</text>
<g>
<rect x="220" y="513" width="12" height="12" rx="3" fill="#0d0f12" stroke="rgba(255,255,255,0.12)"/>
</g>
</g>
</svg>
