<svg xmlns="http://www.w3.org/2000/svg" viewBox="0 0 296 594" width="296" height="594" role="img" aria-label="Turbulent Bloom node">

<defs><filter id="shadow" x="-20%" y="-20%" width="140%" height="160%"><feDropShadow dx="0" dy="8" stdDeviation="9" flood-color="#000" flood-opacity="0.45"/></filter></defs>
<g transform="translate(28,24)">
<rect x="0" y="0" width="240" height="536" rx="8" fill="#1f242b" stroke="rgba(255,255,255,0.12)" filter="url(#shadow)"/>
<rect x="0" y="0" width="240" height="536" rx="8" fill="#1f242b" stroke="rgba(255,255,255,0.12)"/>
<path d="M0,32 L0,8 Q0,0 8,0 L232,0 Q240,0 240,8 L240,32 Z" fill="#33d6ff"/>
<text x="8" y="21" font-family="'Audiowide','Trebuchet MS','Arial Black',sans-serif" font-size="14" font-weight="600" fill="#000">Turbulent Blo…</text>
<rect x="154" y="10" width="25" height="12" rx="6" fill="rgba(0,0,0,0.14)" stroke="rgba(255,255,255,0.14)"/>
<text x="166.5" y="19" text-anchor="middle" font-family="'JetBrains Mono','Cascadia Mono','Consolas',monospace" font-size="8" letter-spacing="0.08em" fill="#000">PAT</text>
<rect x="185" y="10" width="47" height="12" rx="6" fill="rgba(0,0,0,0.14)" stroke="rgba(255,255,255,0.14)"/>
<text x="208.5" y="19" text-anchor="middle" font-family="'JetBrains Mono','Cascadia Mono','Consolas',monospace" font-size="8" letter-spacing="0.08em" fill="#000">TUR-804</text>
<rect x="8" y="40" width="224" height="224" rx="4" fill="#05070a"/>
<circle cx="15" cy="47" r="7" fill="rgb(0,10,17)" opacity="0.35"/>
<circle cx="15" cy="47" r="5.0" fill="rgb(0,10,17)"/>
<circle cx="29" cy="47" r="5.0" fill="#14171c"/>
<circle cx="43" cy="47" r="7" fill="rgb(0,15,24)" opacity="0.35"/>
<circle cx="43" cy="47" r="5.0" fill="rgb(0,15,24)"/>
<circle cx="57" cy="47" r="7" fill="rgb(11,23,27)" opacity="0.35"/>
<circle cx="57" cy="47" r="5.0" fill="rgb(11,23,27)"/>
<circle cx="71" cy="47" r="7" fill="rgb(9,22,28)" opacity="0.35"/>
<circle cx="71" cy="47" r="5.0" fill="rgb(9,22,28)"/>
<circle cx="85" cy="47" r="7" fill="rgb(6,17,22)" opacity="0.35"/>
<circle cx="85" cy="47" r="5.0" fill="rgb(6,17,22)"/>
<circle cx="99" cy="47" r="5.0" fill="#14171c"/>
<circle cx="113" cy="47" r="5.0" fill="#14171c"/>
<circle cx="127" cy="47" r="5.0" fill="#14171c"/>
<circle cx="141" cy="47" r="7" fill="rgb(0,11,21)" opacity="0.35"/>
<circle cx="141" cy="47" r="5.0" fill="rgb(0,11,21)"/>
<circle cx="155" cy="47" r="7" fill="rgb(1,24,44)" opacity="0.35"/>
<circle cx="155" cy="47" r="5.0" fill="rgb(1,24,44)"/>
<circle cx="169" cy="47" r="5.0" fill="#14171c"/>
<circle cx="183" cy="47" r="5.0" fill="#14171c"/>
<circle cx="197" cy="47" r="5.0" fill="#14171c"/>
<circle cx="211" cy="47" r="7" fill="rgb(3,55,88)" opacity="0.35"/>
<circle cx="211" cy="47" r="5.0" fill="rgb(3,55,88)"/>
<circle cx="225" cy="47" r="5.0" fill="#14171c"/>
<circle cx="15" cy="61" r="5.0" fill="#14171c"/>
<circle cx="29" cy="61" r="7" fill="rgb(1,28,46)" opacity="0.35"/>
<circle cx="29" cy="61" r="5.0" fill="rgb(1,28,46)"/>
<circle cx="43" cy="61" r="7" fill="rgb(1,23,39)" opacity="0.35"/>
<circle cx="43" cy="61" r="5.0" fill="rgb(1,23,39)"/>
<circle cx="57" cy="61" r="7" fill="rgb(3,32,49)" opacity="0.35"/>
<circle cx="57" cy="61" r="5.0" fill="rgb(3,32,49)"/>
<circle cx="71" cy="61" r="7" fill="rgb(5,33,49)" opacity="0.35"/>
<circle cx="71" cy="61" r="5.0" fill="rgb(5,33,49)"/>
<circle cx="85" cy="61" r="7" fill="rgb(6,32,46)" opacity="0.35"/>
<circle cx="85" cy="61" r="5.0" fill="rgb(6,32,46)"/>
<circle cx="99" cy="61" r="7" fill="rgb(3,33,51)" opacity="0.35"/>
<circle cx="99" cy="61" r="5.0" fill="rgb(3,33,51)"/>
<circle cx="113" cy="61" r="5.0" fill="#14171c"/>
<circle cx="127" cy="61" r="5.0" fill="#14171c"/>
<circle cx="141" cy="61" r="7" fill="rgb(1,17,32)" opacity="0.35"/>
<circle cx="141" cy="61" r="5.0" fill="rgb(1,17,32)"/>
<circle cx="155" cy="61" r="5.0" fill="#14171c"/>
<circle cx="169" cy="61" r="7" fill="rgb(1,39,65)" opacity="0.35"/>
<circle cx="169" cy="61" r="5.0" fill="rgb(1,39,65)"/>
<circle cx="183" cy="61" r="7" fill="rgb(1,44,73)" opacity="0.35"/>
<circle cx="183" cy="61" r="5.0" fill="rgb(1,44,73)"/>
<circle cx="197" cy="61" r="5.0" fill="#14171c"/>
<circle cx="211" cy="61" r="5.0" fill="#14171c"/>
<circle cx="225" cy="61" r="7" fill="rgb(1,29,46)" opacity="0.35"/>
<circle cx="225" cy="61" r="5.0" fill="rgb(1,29,46)"/>
<circle cx="15" cy="75" r="7" fill="rgb(7,32,46)" opacity="0.35"/>
<circle cx="15" cy="75" r="5.0" fill="rgb(7,32,46)"/>
<circle cx="29" cy="75" r="7" fill="rgb(5,34,51)" opacity="0.35"/>
<circle cx="29" cy="75" r="5.0" fill="rgb(5,34,51)"/>
<circle cx="43" cy="75" r="7" fill="rgb(4,33,50)" opacity="0.35"/>
<circle cx="43" cy="75" r="5.0" fill="rgb(4,33,50)"/>
<circle cx="57" cy="75" r="7" fill="rgb(5,34,51)" opacity="0.35"/>
<circle cx="57" cy="75" r="5.0" fill="rgb(5,34,51)"/>
<circle cx="71" cy="75" r="7" fill="rgb(0,12,20)" opacity="0.35"/>
<circle cx="71" cy="75" r="5.0" fill="rgb(0,12,20)"/>
<circle cx="85" cy="75" r="5.0" fill="#14171c"/>
<circle cx="99" cy="75" r="5.0" fill="#14171c"/>
<circle cx="113" cy="75" r="5.0" fill="#14171c"/>
<circle cx="127" cy="75" r="7" fill="rgb(1,31,57)" opacity="0.35"/>
<circle cx="127" cy="75" r="5.0" fill="rgb(1,31,57)"/>
<circle cx="141" cy="75" r="5.0" fill="#14171c"/>
<circle cx="155" cy="75" r="5.0" fill="#14171c"/>
<circle cx="169" cy="75" r="7" fill="rgb(2,65,107)" opacity="0.35"/>
<circle cx="169" cy="75" r="5.0" fill="rgb(2,65,107)"/>
<circle cx="183" cy="75" r="7" fill="rgb(1,21,36)" opacity="0.35"/>
<circle cx="183" cy="75" r="5.0" fill="rgb(1,21,36)"/>
<circle cx="197" cy="75" r="5.0" fill="#14171c"/>
<circle cx="211" cy="75" r="7" fill="rgb(6,52,80)" opacity="0.35"/>
<circle cx="211" cy="75" r="5.0" fill="rgb(6,52,80)"/>
<circle cx="225" cy="75" r="7" fill="rgb(3,92,150)" opacity="0.35"/>
<circle cx="225" cy="75" r="5.0" fill="rgb(3,92,150)"/>
<circle cx="15" cy="89" r="7" fill="rgb(1,24,41)" opacity="0.35"/>
<circle cx="15" cy="89" r="5.0" fill="rgb(1,24,41)"/>
<circle cx="29" cy="89" r="7" fill="rgb(1,20,33)" opacity="0.35"/>
<circle cx="29" cy="89" r="5.0" fill="rgb(1,20,33)"/>
<circle cx="43" cy="89" r="7" fill="rgb(1,18,30)" opacity="0.35"/>
<circle cx="43" cy="89" r="5.0" fill="rgb(1,18,30)"/>
<circle cx="57" cy="89" r="5.0" fill="#14171c"/>
<circle cx="71" cy="89" r="5.0" fill="#14171c"/>
<circle cx="85" cy="89" r="7" fill="rgb(2,48,81)" opacity="0.35"/>
<circle cx="85" cy="89" r="5.0" fill="rgb(2,48,81)"/>
<circle cx="99" cy="89" r="7" fill="rgb(1,22,36)" opacity="0.35"/>
<circle cx="99" cy="89" r="5.0" fill="rgb(1,22,36)"/>
<circle cx="113" cy="89" r="5.0" fill="#14171c"/>
<circle cx="127" cy="89" r="7" fill="rgb(1,32,60)" opacity="0.35"/>
<circle cx="127" cy="89" r="5.0" fill="rgb(1,32,60)"/>
<circle cx="141" cy="89" r="5.0" fill="#14171c"/>
<circle cx="155" cy="89" r="5.0" fill="#14171c"/>
<circle cx="169" cy="89" r="5.0" fill="#14171c"/>
<circle cx="183" cy="89" r="7" fill="rgb(3,81,134)" opacity="0.35"/>
<circle cx="183" cy="89" r="5.0" fill="rgb(3,81,134)"/>
<circle cx="197" cy="89" r="5.0" fill="#14171c"/>
<circle cx="211" cy="89" r="5.0" fill="#14171c"/>
<circle cx="225" cy="89" r="7" fill="rgb(29,77,99)" opacity="0.35"/>
<circle cx="225" cy="89" r="5.0" fill="rgb(29,77,99)"/>
<circle cx="15" cy="103" r="7" fill="rgb(1,21,34)" opacity="0.35"/>
<circle cx="15" cy="103" r="5.0" fill="rgb(1,21,34)"/>
<circle cx="29" cy="103" r="7" fill="rgb(3,30,46)" opacity="0.35"/>
<circle cx="29" cy="103" r="5.0" fill="rgb(3,30,46)"/>
<circle cx="43" cy="103" r="5.0" fill="#14171c"/>
<circle cx="57" cy="103" r="7" fill="rgb(1,19,34)" opacity="0.35"/>
<circle cx="57" cy="103" r="5.0" fill="rgb(1,19,34)"/>
<circle cx="71" cy="103" r="7" fill="rgb(0,13,24)" opacity="0.35"/>
<circle cx="71" cy="103" r="5.0" fill="rgb(0,13,24)"/>
<circle cx="85" cy="103" r="7" fill="rgb(1,45,83)" opacity="0.35"/>
<circle cx="85" cy="103" r="5.0" fill="rgb(1,45,83)"/>
<circle cx="99" cy="103" r="7" fill="rgb(0,13,23)" opacity="0.35"/>
<circle cx="99" cy="103" r="5.0" fill="rgb(0,13,23)"/>
<circle cx="113" cy="103" r="7" fill="rgb(2,63,117)" opacity="0.35"/>
<circle cx="113" cy="103" r="5.0" fill="rgb(2,63,117)"/>
<circle cx="127" cy="103" r="7" fill="rgb(1,23,43)" opacity="0.35"/>
<circle cx="127" cy="103" r="5.0" fill="rgb(1,23,43)"/>
<circle cx="141" cy="103" r="7" fill="rgb(1,25,45)" opacity="0.35"/>
<circle cx="141" cy="103" r="5.0" fill="rgb(1,25,45)"/>
<circle cx="155" cy="103" r="7" fill="rgb(1,14,26)" opacity="0.35"/>
<circle cx="155" cy="103" r="5.0" fill="rgb(1,14,26)"/>
<circle cx="169" cy="103" r="5.0" fill="#14171c"/>
<circle cx="183" cy="103" r="7" fill="rgb(1,21,35)" opacity="0.35"/>
<circle cx="183" cy="103" r="5.0" fill="rgb(1,21,35)"/>
<circle cx="197" cy="103" r="5.0" fill="#14171c"/>
<circle cx="211" cy="103" r="5.0" fill="#14171c"/>
<circle cx="225" cy="103" r="5.0" fill="#14171c"/>
<circle cx="15" cy="117" r="5.0" fill="#14171c"/>
<circle cx="29" cy="117" r="7" fill="rgb(0,10,17)" opacity="0.35"/>
<circle cx="29" cy="117" r="5.0" fill="rgb(0,10,17)"/>
<circle cx="43" cy="117" r="7" fill="rgb(0,17,29)" opacity="0.35"/>
<circle cx="43" cy="117" r="5.0" fill="rgb(0,17,29)"/>
<circle cx="57" cy="117" r="7" fill="rgb(1,28,51)" opacity="0.35"/>
<circle cx="57" cy="117" r="5.0" fill="rgb(1,28,51)"/>
<circle cx="71" cy="117" r="7" fill="rgb(1,44,82)" opacity="0.35"/>
<circle cx="71" cy="117" r="5.0" fill="rgb(1,44,82)"/>
<circle cx="85" cy="117" r="7" fill="rgb(1,45,84)" opacity="0.35"/>
<circle cx="85" cy="117" r="5.0" fill="rgb(1,45,84)"/>
<circle cx="99" cy="117" r="7" fill="rgb(2,50,91)" opacity="0.35"/>
<circle cx="99" cy="117" r="5.0" fill="rgb(2,50,91)"/>
<circle cx="113" cy="117" r="5.0" fill="#14171c"/>
<circle cx="127" cy="117" r="5.0" fill="#14171c"/>
<circle cx="141" cy="117" r="7" fill="rgb(1,24,45)" opacity="0.35"/>
<circle cx="141" cy="117" r="5.0" fill="rgb(1,24,45)"/>
<circle cx="155" cy="117" r="5.0" fill="#14171c"/>
<circle cx="169" cy="117" r="5.0" fill="#14171c"/>
<circle cx="183" cy="117" r="5.0" fill="#14171c"/>
<circle cx="197" cy="117" r="7" fill="rgb(13,49,69)" opacity="0.35"/>
<circle cx="197" cy="117" r="5.0" fill="rgb(13,49,69)"/>
<circle cx="211" cy="117" r="7" fill="rgb(10,23,29)" opacity="0.35"/>
<circle cx="211" cy="117" r="5.0" fill="rgb(10,23,29)"/>
<circle cx="225" cy="117" r="7" fill="rgb(1,26,43)" opacity="0.35"/>
<circle cx="225" cy="117" r="5.0" fill="rgb(1,26,43)"/>
<circle cx="15" cy="131" r="7" fill="rgb(2,55,101)" opacity="0.35"/>
<circle cx="15" cy="131" r="5.0" fill="rgb(2,55,101)"/>
<circle cx="29" cy="131" r="7" fill="rgb(1,26,49)" opacity="0.35"/>
<circle cx="29" cy="131" r="5.0" fill="rgb(1,26,49)"/>
<circle cx="43" cy="131" r="7" fill="rgb(1,19,36)" opacity="0.35"/>
<circle cx="43" cy="131" r="5.0" fill="rgb(1,19,36)"/>
<circle cx="57" cy="131" r="7" fill="rgb(2,43,77)" opacity="0.35"/>
<circle cx="57" cy="131" r="5.0" fill="rgb(2,43,77)"/>
<circle cx="71" cy="131" r="7" fill="rgb(1,18,33)" opacity="0.35"/>
<circle cx="71" cy="131" r="5.0" fill="rgb(1,18,33)"/>
<circle cx="85" cy="131" r="7" fill="rgb(1,28,51)" opacity="0.35"/>
<circle cx="85" cy="131" r="5.0" fill="rgb(1,28,51)"/>
<circle cx="99" cy="131" r="7" fill="rgb(1,18,33)" opacity="0.35"/>
<circle cx="99" cy="131" r="5.0" fill="rgb(1,18,33)"/>
<circle cx="113" cy="131" r="7" fill="rgb(1,47,87)" opacity="0.35"/>
<circle cx="113" cy="131" r="5.0" fill="rgb(1,47,87)"/>
<circle cx="127" cy="131" r="5.0" fill="#14171c"/>
<circle cx="141" cy="131" r="7" fill="rgb(2,47,86)" opacity="0.35"/>
<circle cx="141" cy="131" r="5.0" fill="rgb(2,47,86)"/>
<circle cx="155" cy="131" r="5.0" fill="#14171c"/>
<circle cx="169" cy="131" r="7" fill="rgb(1,18,33)" opacity="0.35"/>
<circle cx="169" cy="131" r="5.0" fill="rgb(1,18,33)"/>
<circle cx="183" cy="131" r="5.0" fill="#14171c"/>
<circle cx="197" cy="131" r="5.0" fill="#14171c"/>
<circle cx="211" cy="131" r="5.0" fill="#14171c"/>
<circle cx="225" cy="131" r="7" fill="rgb(1,33,53)" opacity="0.35"/>
<circle cx="225" cy="131" r="5.0" fill="rgb(1,33,53)"/>
<circle cx="15" cy="145" r="7" fill="rgb(0,13,25)" opacity="0.35"/>
<circle cx="15" cy="145" r="5.0" fill="rgb(0,13,25)"/>
<circle cx="29" cy="145" r="5.0" fill="#14171c"/>
<circle cx="43" cy="145" r="7" fill="rgb(1,17,31)" opacity="0.35"/>
<circle cx="43" cy="145" r="5.0" fill="rgb(1,17,31)"/>
<circle cx="57" cy="145" r="7" fill="rgb(2,57,107)" opacity="0.35"/>
<circle cx="57" cy="145" r="5.0" fill="rgb(2,57,107)"/>
<circle cx="71" cy="145" r="7" fill="rgb(1,19,35)" opacity="0.35"/>
<circle cx="71" cy="145" r="5.0" fill="rgb(1,19,35)"/>
<circle cx="85" cy="145" r="7" fill="rgb(0,11,19)" opacity="0.35"/>
<circle cx="85" cy="145" r="5.0" fill="rgb(0,11,19)"/>
<circle cx="99" cy="145" r="5.0" fill="#14171c"/>
<circle cx="113" cy="145" r="7" fill="rgb(1,17,32)" opacity="0.35"/>
<circle cx="113" cy="145" r="5.0" fill="rgb(1,17,32)"/>
<circle cx="127" cy="145" r="7" fill="rgb(1,35,65)" opacity="0.35"/>
<circle cx="127" cy="145" r="5.0" fill="rgb(1,35,65)"/>
<circle cx="141" cy="145" r="7" fill="rgb(1,37,69)" opacity="0.35"/>
<circle cx="141" cy="145" r="5.0" fill="rgb(1,37,69)"/>
<circle cx="155" cy="145" r="5.0" fill="#14171c"/>
<circle cx="169" cy="145" r="5.0" fill="#14171c"/>
<circle cx="183" cy="145" r="5.0" fill="#14171c"/>
<circle cx="197" cy="145" r="5.0" fill="#14171c"/>
<circle cx="211" cy="145" r="5.0" fill="#14171c"/>
<circle cx="225" cy="145" r="5.0" fill="#14171c"/>
<circle cx="15" cy="159" r="7" fill="rgb(1,26,48)" opacity="0.35"/>
<circle cx="15" cy="159" r="5.0" fill="rgb(1,26,48)"/>
<circle cx="29" cy="159" r="5.0" fill="#14171c"/>
<circle cx="43" cy="159" r="7" fill="rgb(1,32,60)" opacity="0.35"/>
<circle cx="43" cy="159" r="5.0" fill="rgb(1,32,60)"/>
<circle cx="57" cy="159" r="7" fill="rgb(1,17,32)" opacity="0.35"/>
<circle cx="57" cy="159" r="5.0" fill="rgb(1,17,32)"/>
<circle cx="71" cy="159" r="7" fill="rgb(0,10,19)" opacity="0.35"/>
<circle cx="71" cy="159" r="5.0" fill="rgb(0,10,19)"/>
<circle cx="85" cy="159" r="7" fill="rgb(1,18,32)" opacity="0.35"/>
<circle cx="85" cy="159" r="5.0" fill="rgb(1,18,32)"/>
<circle cx="99" cy="159" r="7" fill="rgb(1,18,32)" opacity="0.35"/>
<circle cx="99" cy="159" r="5.0" fill="rgb(1,18,32)"/>
<circle cx="113" cy="159" r="5.0" fill="#14171c"/>
<circle cx="127" cy="159" r="5.0" fill="#14171c"/>
<circle cx="141" cy="159" r="7" fill="rgb(1,20,38)" opacity="0.35"/>
<circle cx="141" cy="159" r="5.0" fill="rgb(1,20,38)"/>
<circle cx="155" cy="159" r="5.0" fill="#14171c"/>
<circle cx="169" cy="159" r="5.0" fill="#14171c"/>
<circle cx="183" cy="159" r="5.0" fill="#14171c"/>
<circle cx="197" cy="159" r="5.0" fill="#14171c"/>
<circle cx="211" cy="159" r="7" fill="rgb(1,40,69)" opacity="0.35"/>
<circle cx="211" cy="159" r="5.0" fill="rgb(1,40,69)"/>
<circle cx="225" cy="159" r="5.0" fill="#14171c"/>
<circle cx="15" cy="173" r="7" fill="rgb(2,54,90)" opacity="0.35"/>
<circle cx="15" cy="173" r="5.0" fill="rgb(2,54,90)"/>
<circle cx="29" cy="173" r="7" fill="rgb(0,10,18)" opacity="0.35"/>
<circle cx="29" cy="173" r="5.0" fill="rgb(0,10,18)"/>
<circle cx="43" cy="173" r="5.0" fill="#14171c"/>
<circle cx="57" cy="173" r="7" fill="rgb(1,18,34)" opacity="0.35"/>
<circle cx="57" cy="173" r="5.0" fill="rgb(1,18,34)"/>
<circle cx="71" cy="173" r="5.0" fill="#14171c"/>
<circle cx="85" cy="173" r="5.0" fill="#14171c"/>
<circle cx="99" cy="173" r="5.0" fill="#14171c"/>
<circle cx="113" cy="173" r="5.0" fill="#14171c"/>
<circle cx="127" cy="173" r="5.0" fill="#14171c"/>
<circle cx="141" cy="173" r="5.0" fill="#14171c"/>
<circle cx="155" cy="173" r="5.0" fill="#14171c"/>
<circle cx="169" cy="173" r="7" fill="rgb(1,25,44)" opacity="0.35"/>
<circle cx="169" cy="173" r="5.0" fill="rgb(1,25,44)"/>
<circle cx="183" cy="173" r="5.0" fill="#14171c"/>
<circle cx="197" cy="173" r="5.0" fill="#14171c"/>
<circle cx="211" cy="173" r="5.0" fill="#14171c"/>
<circle cx="225" cy="173" r="5.0" fill="#14171c"/>
<circle cx="15" cy="187" r="7" fill="rgb(13,57,81)" opacity="0.35"/>
<circle cx="15" cy="187" r="5.0" fill="rgb(13,57,81)"/>
<circle cx="29" cy="187" r="5.0" fill="#14171c"/>
<circle cx="43" cy="187" r="7" fill="rgb(1,25,46)" opacity="0.35"/>
<circle cx="43" cy="187" r="5.0" fill="rgb(1,25,46)"/>
<circle cx="57" cy="187" r="7" fill="rgb(1,19,36)" opacity="0.35"/>
<circle cx="57" cy="187" r="5.0" fill="rgb(1,19,36)"/>
<circle cx="71" cy="187" r="7" fill="rgb(1,18,32)" opacity="0.35"/>
<circle cx="71" cy="187" r="5.0" fill="rgb(1,18,32)"/>
<circle cx="85" cy="187" r="7" fill="rgb(1,21,37)" opacity="0.35"/>
<circle cx="85" cy="187" r="5.0" fill="rgb(1,21,37)"/>
<circle cx="99" cy="187" r="5.0" fill="#14171c"/>
<circle cx="113" cy="187" r="7" fill="rgb(1,32,56)" opacity="0.35"/>
<circle cx="113" cy="187" r="5.0" fill="rgb(1,32,56)"/>
<circle cx="127" cy="187" r="5.0" fill="#14171c"/>
<circle cx="141" cy="187" r="7" fill="rgb(0,16,28)" opacity="0.35"/>
<circle cx="141" cy="187" r="5.0" fill="rgb(0,16,28)"/>
<circle cx="155" cy="187" r="7" fill="rgb(2,76,131)" opacity="0.35"/>
<circle cx="155" cy="187" r="5.0" fill="rgb(2,76,131)"/>
<circle cx="169" cy="187" r="7" fill="rgb(2,67,115)" opacity="0.35"/>
<circle cx="169" cy="187" r="5.0" fill="rgb(2,67,115)"/>
<circle cx="183" cy="187" r="5.0" fill="#14171c"/>
<circle cx="197" cy="187" r="5.0" fill="#14171c"/>
<circle cx="211" cy="187" r="7" fill="rgb(3,85,144)" opacity="0.35"/>
<circle cx="211" cy="187" r="5.0" fill="rgb(3,85,144)"/>
<circle cx="225" cy="187" r="5.0" fill="#14171c"/>
<circle cx="15" cy="201" r="7" fill="rgb(1,27,45)" opacity="0.35"/>
<circle cx="15" cy="201" r="5.0" fill="rgb(1,27,45)"/>
<circle cx="29" cy="201" r="5.0" fill="#14171c"/>
<circle cx="43" cy="201" r="7" fill="rgb(3,100,167)" opacity="0.35"/>
<circle cx="43" cy="201" r="5.0" fill="rgb(3,100,167)"/>
<circle cx="57" cy="201" r="7" fill="rgb(1,15,25)" opacity="0.35"/>
<circle cx="57" cy="201" r="5.0" fill="rgb(1,15,25)"/>
<circle cx="71" cy="201" r="5.0" fill="#14171c"/>
<circle cx="85" cy="201" r="7" fill="rgb(0,9,17)" opacity="0.35"/>
<circle cx="85" cy="201" r="5.0" fill="rgb(0,9,17)"/>
<circle cx="99" cy="201" r="5.0" fill="#14171c"/>
<circle cx="113" cy="201" r="5.0" fill="#14171c"/>
<circle cx="127" cy="201" r="5.0" fill="#14171c"/>
<circle cx="141" cy="201" r="5.0" fill="#14171c"/>
<circle cx="155" cy="201" r="5.0" fill="#14171c"/>
<circle cx="169" cy="201" r="5.0" fill="#14171c"/>
<circle cx="183" cy="201" r="5.0" fill="#14171c"/>
<circle cx="197" cy="201" r="7" fill="rgb(0,11,21)" opacity="0.35"/>
<circle cx="197" cy="201" r="5.0" fill="rgb(0,11,21)"/>
<circle cx="211" cy="201" r="7" fill="rgb(1,36,63)" opacity="0.35"/>
<circle cx="211" cy="201" r="5.0" fill="rgb(1,36,63)"/>
<circle cx="225" cy="201" r="5.0" fill="#14171c"/>
<circle cx="15" cy="215" r="5.0" fill="#14171c"/>
<circle cx="29" cy="215" r="5.0" fill="#14171c"/>
<circle cx="43" cy="215" r="7" fill="rgb(20,90,129)" opacity="0.35"/>
<circle cx="43" cy="215" r="5.0" fill="rgb(20,90,129)"/>
<circle cx="57" cy="215" r="7" fill="rgb(1,33,57)" opacity="0.35"/>
<circle cx="57" cy="215" r="5.0" fill="rgb(1,33,57)"/>
<circle cx="71" cy="215" r="7" fill="rgb(1,33,61)" opacity="0.35"/>
<circle cx="71" cy="215" r="5.0" fill="rgb(1,33,61)"/>
<circle cx="85" cy="215" r="7" fill="rgb(1,16,30)" opacity="0.35"/>
<circle cx="85" cy="215" r="5.0" fill="rgb(1,16,30)"/>
<circle cx="99" cy="215" r="5.0" fill="#14171c"/>
<circle cx="113" cy="215" r="5.0" fill="#14171c"/>
<circle cx="127" cy="215" r="7" fill="rgb(4,114,191)" opacity="0.35"/>
<circle cx="127" cy="215" r="5.0" fill="rgb(4,114,191)"/>
<circle cx="141" cy="215" r="7" fill="rgb(4,116,196)" opacity="0.35"/>
<circle cx="141" cy="215" r="5.0" fill="rgb(4,116,196)"/>
<circle cx="155" cy="215" r="5.0" fill="#14171c"/>
<circle cx="169" cy="215" r="5.0" fill="#14171c"/>
<circle cx="183" cy="215" r="5.0" fill="#14171c"/>
<circle cx="197" cy="215" r="5.0" fill="#14171c"/>
<circle cx="211" cy="215" r="5.0" fill="#14171c"/>
<circle cx="225" cy="215" r="5.0" fill="#14171c"/>
<circle cx="15" cy="229" r="7" fill="rgb(1,32,53)" opacity="0.35"/>
<circle cx="15" cy="229" r="5.0" fill="rgb(1,32,53)"/>
<circle cx="29" cy="229" r="7" fill="rgb(1,18,30)" opacity="0.35"/>
<circle cx="29" cy="229" r="5.0" fill="rgb(1,18,30)"/>
<circle cx="43" cy="229" r="7" fill="rgb(1,36,62)" opacity="0.35"/>
<circle cx="43" cy="229" r="5.0" fill="rgb(1,36,62)"/>
<circle cx="57" cy="229" r="7" fill="rgb(2,66,113)" opacity="0.35"/>
<circle cx="57" cy="229" r="5.0" fill="rgb(2,66,113)"/>
<circle cx="71" cy="229" r="7" fill="rgb(4,122,202)" opacity="0.35"/>
<circle cx="71" cy="229" r="5.0" fill="rgb(4,122,202)"/>
<circle cx="85" cy="229" r="7" fill="rgb(0,14,26)" opacity="0.35"/>
<circle cx="85" cy="229" r="5.0" fill="rgb(0,14,26)"/>
<circle cx="99" cy="229" r="5.0" fill="#14171c"/>
<circle cx="113" cy="229" r="7" fill="rgb(1,17,31)" opacity="0.35"/>
<circle cx="113" cy="229" r="5.0" fill="rgb(1,17,31)"/>
<circle cx="127" cy="229" r="7" fill="rgb(1,53,92)" opacity="0.35"/>
<circle cx="127" cy="229" r="5.0" fill="rgb(1,53,92)"/>
<circle cx="141" cy="229" r="7" fill="rgb(18,70,98)" opacity="0.35"/>
<circle cx="141" cy="229" r="5.0" fill="rgb(18,70,98)"/>
<circle cx="155" cy="229" r="7" fill="rgb(16,132,201)" opacity="0.35"/>
<circle cx="155" cy="229" r="5.0" fill="rgb(16,132,201)"/>
<circle cx="169" cy="229" r="5.0" fill="#14171c"/>
<circle cx="183" cy="229" r="7" fill="rgb(3,91,153)" opacity="0.35"/>
<circle cx="183" cy="229" r="5.0" fill="rgb(3,91,153)"/>
<circle cx="197" cy="229" r="5.0" fill="#14171c"/>
<circle cx="211" cy="229" r="7" fill="rgb(0,10,17)" opacity="0.35"/>
<circle cx="211" cy="229" r="5.0" fill="rgb(0,10,17)"/>
<circle cx="225" cy="229" r="7" fill="rgb(2,88,151)" opacity="0.35"/>
<circle cx="225" cy="229" r="5.0" fill="rgb(2,88,151)"/>
<circle cx="15" cy="243" r="5.0" fill="#14171c"/>
<circle cx="29" cy="243" r="7" fill="rgb(2,67,111)" opacity="0.35"/>
<circle cx="29" cy="243" r="5.0" fill="rgb(2,67,111)"/>
<circle cx="43" cy="243" r="7" fill="rgb(1,20,36)" opacity="0.35"/>
<circle cx="43" cy="243" r="5.0" fill="rgb(1,20,36)"/>
<circle cx="57" cy="243" r="7" fill="rgb(2,55,89)" opacity="0.35"/>
<circle cx="57" cy="243" r="5.0" fill="rgb(2,55,89)"/>
<circle cx="71" cy="243" r="7" fill="rgb(1,22,37)" opacity="0.35"/>
<circle cx="71" cy="243" r="5.0" fill="rgb(1,22,37)"/>
<circle cx="85" cy="243" r="5.0" fill="#14171c"/>
<circle cx="99" cy="243" r="5.0" fill="#14171c"/>
<circle cx="113" cy="243" r="5.0" fill="#14171c"/>
<circle cx="127" cy="243" r="5.0" fill="#14171c"/>
<circle cx="141" cy="243" r="7" fill="rgb(4,129,210)" opacity="0.35"/>
<circle cx="141" cy="243" r="5.0" fill="rgb(4,129,210)"/>
<circle cx="155" cy="243" r="7" fill="rgb(4,118,198)" opacity="0.35"/>
<circle cx="155" cy="243" r="5.0" fill="rgb(4,118,198)"/>
<circle cx="169" cy="243" r="5.0" fill="#14171c"/>
<circle cx="183" cy="243" r="7" fill="rgb(4,131,212)" opacity="0.35"/>
<circle cx="183" cy="243" r="5.0" fill="rgb(4,131,212)"/>
<circle cx="197" cy="243" r="5.0" fill="#14171c"/>
<circle cx="211" cy="243" r="7" fill="rgb(3,89,150)" opacity="0.35"/>
<circle cx="211" cy="243" r="5.0" fill="rgb(3,89,150)"/>
<circle cx="225" cy="243" r="7" fill="rgb(4,122,202)" opacity="0.35"/>
<circle cx="225" cy="243" r="5.0" fill="rgb(4,122,202)"/>
<circle cx="15" cy="257" r="7" fill="rgb(3,13,18)" opacity="0.35"/>
<circle cx="15" cy="257" r="5.0" fill="rgb(3,13,18)"/>
<circle cx="29" cy="257" r="7" fill="rgb(16,62,88)" opacity="0.35"/>
<circle cx="29" cy="257" r="5.0" fill="rgb(16,62,88)"/>
<circle cx="43" cy="257" r="7" fill="rgb(1,17,30)" opacity="0.35"/>
<circle cx="43" cy="257" r="5.0" fill="rgb(1,17,30)"/>
<circle cx="57" cy="257" r="7" fill="rgb(14,137,211)" opacity="0.35"/>
<circle cx="57" cy="257" r="5.0" fill="rgb(14,137,211)"/>
<circle cx="71" cy="257" r="7" fill="rgb(4,131,212)" opacity="0.35"/>
<circle cx="71" cy="257" r="5.0" fill="rgb(4,131,212)"/>
<circle cx="85" cy="257" r="5.0" fill="#14171c"/>
<circle cx="99" cy="257" r="7" fill="rgb(0,12,22)" opacity="0.35"/>
<circle cx="99" cy="257" r="5.0" fill="rgb(0,12,22)"/>
<circle cx="113" cy="257" r="5.0" fill="#14171c"/>
<circle cx="127" cy="257" r="5.0" fill="#14171c"/>
<circle cx="141" cy="257" r="7" fill="rgb(4,124,204)" opacity="0.35"/>
<circle cx="141" cy="257" r="5.0" fill="rgb(4,124,204)"/>
<circle cx="155" cy="257" r="5.0" fill="#14171c"/>
<circle cx="169" cy="257" r="7" fill="rgb(11,140,219)" opacity="0.35"/>
<circle cx="169" cy="257" r="5.0" fill="rgb(11,140,219)"/>
<circle cx="183" cy="257" r="7" fill="rgb(23,148,221)" opacity="0.35"/>
<circle cx="183" cy="257" r="5.0" fill="rgb(23,148,221)"/>
<circle cx="197" cy="257" r="7" fill="rgb(3,89,151)" opacity="0.35"/>
<circle cx="197" cy="257" r="5.0" fill="rgb(3,89,151)"/>
<circle cx="211" cy="257" r="7" fill="rgb(17,108,160)" opacity="0.35"/>
<circle cx="211" cy="257" r="5.0" fill="rgb(17,108,160)"/>
<circle cx="225" cy="257" r="7" fill="rgb(13,134,207)" opacity="0.35"/>
<circle cx="225" cy="257" r="5.0" fill="rgb(13,134,207)"/>
<circle cx="-2" cy="280" r="9" fill="#9aa0a6" opacity="0.25"/>
<circle cx="-2" cy="280" r="6" fill="#9aa0a6" stroke="#0d0f12" stroke-width="1.5"/>
<text x="10" y="284" font-family="'JetBrains Mono','Cascadia Mono','Consolas',monospace" font-size="12" fill="#a0a0a0">Bass</text>
<circle cx="242" cy="280" r="9" fill="#5ad1ff" opacity="0.25"/>
<circle cx="242" cy="280" r="6" fill="#5ad1ff" stroke="#0d0f12" stroke-width="1.5"/>
<text x="230" y="284" text-anchor="end" font-family="'JetBrains Mono','Cascadia Mono','Consolas',monospace" font-size="12" fill="#a0a0a0">Frame</text>
<circle cx="-2" cy="308" r="9" fill="#9aa0a6" opacity="0.25"/>
<circle cx="-2" cy="308" r="6" fill="#9aa0a6" stroke="#0d0f12" stroke-width="1.5"/>
<text x="10" y="312" font-family="'JetBrains Mono','Cascadia Mono','Consolas',monospace" font-size="12" fill="#a0a0a0">Mids</text>
<circle cx="-2" cy="336" r="9" fill="#9aa0a6" opacity="0.25"/>
<circle cx="-2" cy="336" r="6" fill="#9aa0a6" stroke="#0d0f12" stroke-width="1.5"/>
<text x="10" y="340" font-family="'JetBrains Mono','Cascadia Mono','Consolas',monospace" font-size="12" fill="#a0a0a0">Treble</text>
<circle cx="-2" cy="364" r="9" fill="#9aa0a6" opacity="0.25"/>
<circle cx="-2" cy="364" r="6" fill="#9aa0a6" stroke="#0d0f12" stroke-width="1.5"/>
<text x="10" y="368" font-family="'JetBrains Mono','Cascadia Mono','Consolas',monospace" font-size="12" fill="#a0a0a0">Energy</text>
<circle cx="-2" cy="392" r="9" fill="#9aa0a6" opacity="0.25"/>
<circle cx="-2" cy="392" r="6" fill="#9aa0a6" stroke="#0d0f12" stroke-width="1.5"/>
<text x="10" y="396" font-family="'JetBrains Mono','Cascadia Mono','Consolas',monospace" font-size="12" fill="#a0a0a0">Speed</text>
<circle cx="-2" cy="420" r="9" fill="#ff5cf0" opacity="0.25"/>
<circle cx="-2" cy="420" r="6" fill="#ff5cf0" stroke="#0d0f12" stroke-width="1.5"/>
<text x="10" y="424" font-family="'JetBrains Mono','Cascadia Mono','Consolas',monospace" font-size="12" fill="#a0a0a0">Palette</text>
<line x1="8" y1="440" x2="232" y2="440" stroke="rgba(255,255,255,0.08)"/>
<text x="8" y="460" font-family="'JetBrains Mono','Cascadia Mono','Consolas',monospace" font-size="12" fill="#a0a0a0">energy</text>
<g>
<rect x="120" y="454" width="72" height="4" rx="2" fill="#cfd2d6" opacity="0.85"/>
<rect x="120" y="454" width="50.4" height="4" rx="2" fill="#d633ff"/>
<circle cx="170.4" cy="456" r="5" fill="#d633ff"/>
<text x="232" y="460" text-anchor="end" font-family="'JetBrains Mono','Cascadia Mono','Consolas',monospace" font-size="12" fill="#e0e0e0">0.7</text>
</g>
<text x="8" y="481" font-family="'JetBrains Mono','Cascadia Mono','Consolas',monospace" font-size="12" fill="#a0a0a0">speed</text>
<g>
<rect x="120" y="475" width="72" height="4" rx="2" fill="#cfd2d6" opacity="0.85"/>
<rect x="120" y="475" width="72.0" height="4" rx="2" fill="#d633ff"/>
<circle cx="192.0" cy="477" r="5" fill="#d633ff"/>
<text x="232" y="481" text-anchor="end" font-family="'JetBrains Mono','Cascadia Mono','Consolas',monospace" font-size="12" fill="#e0e0e0">1</text>
</g>
<text x="8" y="502" font-family="'JetBrains Mono','Cascadia Mono','Consolas',monospace" font-size="12" fill="#a0a0a0">palette</text>
<g>
<rect x="148" y="490" width="84" height="16" rx="4" fill="#0d0f12" stroke="rgba(255,255,255,0.12)"/>
<text x="152" y="502" font-family="'JetBrains Mono','Cascadia Mono','Consolas',monospace" font-size="11" fill="#e0e0e0">deepsea</text>
<text x="228" y="502" text-anchor="end" font-size="8" fill="#a0a0a0">▾</text>
</g>
<text x="8" y="523" font-family="'JetBrains Mono','Cascadia Mono','Consolas',monospace" font-size="12" fill="#a0a0a0">clamp inputs</text>
<g>
<rect x="220" y="513" width="12" height="12" rx="3" fill="#0d0f12" stroke="rgba(255,255,255,0.12)"/>
</g>
</g>
</svg>
