<svg xmlns="http://www.w3.org/2000/svg" viewBox="0 0 320 240" width="320" height="240" role="img" aria-label="Audio Reactor"><defs><linearGradient id="bg" x2="1" y2="1"><stop stop-color="#10131c"/><stop offset="1" stop-color="#05060a"/></linearGradient></defs><rect width="320" height="240" fill="url(#bg)"/><pattern id="p" width="16" height="16" patternUnits="userSpaceOnUse"><path d="M16 0H0V16" fill="none" stroke="#39ff88" opacity=".12"/></pattern><rect width="100%" height="100%" fill="url(#p)"/><g font-family="Segoe UI,Arial,sans-serif"><text x="20" y="29" fill="#f2fff7" font-size="15" font-weight="700">AUDIO REACTOR</text><text x="278" y="29" fill="#39ff88" font-size="9">LIVE</text><rect x="22" y="141" width="11" height="42" rx="4" fill="#39ff88" opacity="0.55"/><rect x="42" y="116" width="11" height="67" rx="4" fill="#39ff88" opacity="0.5800000000000001"/><rect x="62" y="92" width="11" height="91" rx="4" fill="#39ff88" opacity="0.6100000000000001"/><rect x="82" y="110" width="11" height="73" rx="4" fill="#39ff88" opacity="0.64"/><rect x="102" y="71" width="11" height="112" rx="4" fill="#39ff88" opacity="0.67"/><rect x="122" y="97" width="11" height="86" rx="4" fill="#39ff88" opacity="0.7000000000000001"/><rect x="142" y="55" width="11" height="128" rx="4" fill="#39ff88" opacity="0.73"/><rect x="162" y="84" width="11" height="99" rx="4" fill="#39ff88" opacity="0.76"/><rect x="182" y="105" width="11" height="78" rx="4" fill="#17bfff" opacity="0.79"/><rect x="202" y="128" width="11" height="55" rx="4" fill="#17bfff" opacity="0.8200000000000001"/><rect x="222" y="99" width="11" height="84" rx="4" fill="#17bfff" opacity="0.8500000000000001"/><rect x="242" y="135" width="11" height="48" rx="4" fill="#17bfff" opacity="0.88"/><rect x="262" y="118" width="11" height="65" rx="4" fill="#17bfff" opacity="0.91"/><rect x="282" y="147" width="11" height="36" rx="4" fill="#17bfff" opacity="0.9400000000000001"/><rect x="20" y="198" width="280" height="26" rx="8" fill="#10131c" fill-opacity=".88" stroke="#55ff97" stroke-opacity=".45"/><text x="31" y="216" fill="#61ff9d" font-size="9">BASS  72</text><text x="131" y="216" fill="#61ff9d" font-size="9">MIDS  54</text><text x="227" y="216" fill="#61ff9d" font-size="9">HIGH  63</text></g></svg>