<svg xmlns="http://www.w3.org/2000/svg" viewBox="0 0 296 538" width="296" height="538" role="img" aria-label="Treble Prism node">
<rect width="296" height="538" fill="#0d0f12"/>
<circle cx="10" cy="10" r="1" fill="rgba(255,255,255,0.04)"/>
<circle cx="30" cy="10" r="1" fill="rgba(255,255,255,0.04)"/>
<circle cx="50" cy="10" r="1" fill="rgba(255,255,255,0.04)"/>
<circle cx="70" cy="10" r="1" fill="rgba(255,255,255,0.04)"/>
<circle cx="90" cy="10" r="1" fill="rgba(255,255,255,0.04)"/>
<circle cx="110" cy="10" r="1" fill="rgba(255,255,255,0.04)"/>
<circle cx="130" cy="10" r="1" fill="rgba(255,255,255,0.04)"/>
<circle cx="150" cy="10" r="1" fill="rgba(255,255,255,0.04)"/>
<circle cx="170" cy="10" r="1" fill="rgba(255,255,255,0.04)"/>
<circle cx="190" cy="10" r="1" fill="rgba(255,255,255,0.04)"/>
<circle cx="210" cy="10" r="1" fill="rgba(255,255,255,0.04)"/>
<circle cx="230" cy="10" r="1" fill="rgba(255,255,255,0.04)"/>
<circle cx="250" cy="10" r="1" fill="rgba(255,255,255,0.04)"/>
<circle cx="270" cy="10" r="1" fill="rgba(255,255,255,0.04)"/>
<circle cx="290" cy="10" r="1" fill="rgba(255,255,255,0.04)"/>
<circle cx="10" cy="30" r="1" fill="rgba(255,255,255,0.04)"/>
<circle cx="30" cy="30" r="1" fill="rgba(255,255,255,0.04)"/>
<circle cx="50" cy="30" r="1" fill="rgba(255,255,255,0.04)"/>
<circle cx="70" cy="30" r="1" fill="rgba(255,255,255,0.04)"/>
<circle cx="90" cy="30" r="1" fill="rgba(255,255,255,0.04)"/>
<circle cx="110" cy="30" r="1" fill="rgba(255,255,255,0.04)"/>
<circle cx="130" cy="30" r="1" fill="rgba(255,255,255,0.04)"/>
<circle cx="150" cy="30" r="1" fill="rgba(255,255,255,0.04)"/>
<circle cx="170" cy="30" r="1" fill="rgba(255,255,255,0.04)"/>
<circle cx="190" cy="30" r="1" fill="rgba(255,255,255,0.04)"/>
<circle cx="210" cy="30" r="1" fill="rgba(255,255,255,0.04)"/>
<circle cx="230" cy="30" r="1" fill="rgba(255,255,255,0.04)"/>
<circle cx="250" cy="30" r="1" fill="rgba(255,255,255,0.04)"/>
<circle cx="270" cy="30" r="1" fill="rgba(255,255,255,0.04)"/>
<circle cx="290" cy="30" r="1" fill="rgba(255,255,255,0.04)"/>
<circle cx="10" cy="50" r="1" fill="rgba(255,255,255,0.04)"/>
<circle cx="30" cy="50" r="1" fill="rgba(255,255,255,0.04)"/>
<circle cx="50" cy="50" r="1" fill="rgba(255,255,255,0.04)"/>
<circle cx="70" cy="50" r="1" fill="rgba(255,255,255,0.04)"/>
<circle cx="90" cy="50" r="1" fill="rgba(255,255,255,0.04)"/>
<circle cx="110" cy="50" r="1" fill="rgba(255,255,255,0.04)"/>
<circle cx="130" cy="50" r="1" fill="rgba(255,255,255,0.04)"/>
<circle cx="150" cy="50" r="1" fill="rgba(255,255,255,0.04)"/>
<circle cx="170" cy="50" r="1" fill="rgba(255,255,255,0.04)"/>
<circle cx="190" cy="50" r="1" fill="rgba(255,255,255,0.04)"/>
<circle cx="210" cy="50" r="1" fill="rgba(255,255,255,0.04)"/>
<circle cx="230" cy="50" r="1" fill="rgba(255,255,255,0.04)"/>
<circle cx="250" cy="50" r="1" fill="rgba(255,255,255,0.04)"/>
<circle cx="270" cy="50" r="1" fill="rgba(255,255,255,0.04)"/>
<circle cx="290" cy="50" r="1" fill="rgba(255,255,255,0.04)"/>
<circle cx="10" cy="70" r="1" fill="rgba(255,255,255,0.04)"/>
<circle cx="30" cy="70" r="1" fill="rgba(255,255,255,0.04)"/>
<circle cx="50" cy="70" r="1" fill="rgba(255,255,255,0.04)"/>
<circle cx="70" cy="70" r="1" fill="rgba(255,255,255,0.04)"/>
<circle cx="90" cy="70" r="1" fill="rgba(255,255,255,0.04)"/>
<circle cx="110" cy="70" r="1" fill="rgba(255,255,255,0.04)"/>
<circle cx="130" cy="70" r="1" fill="rgba(255,255,255,0.04)"/>
<circle cx="150" cy="70" r="1" fill="rgba(255,255,255,0.04)"/>
<circle cx="170" cy="70" r="1" fill="rgba(255,255,255,0.04)"/>
<circle cx="190" cy="70" r="1" fill="rgba(255,255,255,0.04)"/>
<circle cx="210" cy="70" r="1" fill="rgba(255,255,255,0.04)"/>
<circle cx="230" cy="70" r="1" fill="rgba(255,255,255,0.04)"/>
<circle cx="250" cy="70" r="1" fill="rgba(255,255,255,0.04)"/>
<circle cx="270" cy="70" r="1" fill="rgba(255,255,255,0.04)"/>
<circle cx="290" cy="70" r="1" fill="rgba(255,255,255,0.04)"/>
<circle cx="10" cy="90" r="1" fill="rgba(255,255,255,0.04)"/>
<circle cx="30" cy="90" r="1" fill="rgba(255,255,255,0.04)"/>
<circle cx="50" cy="90" r="1" fill="rgba(255,255,255,0.04)"/>
<circle cx="70" cy="90" r="1" fill="rgba(255,255,255,0.04)"/>
<circle cx="90" cy="90" r="1" fill="rgba(255,255,255,0.04)"/>
<circle cx="110" cy="90" r="1" fill="rgba(255,255,255,0.04)"/>
<circle cx="130" cy="90" r="1" fill="rgba(255,255,255,0.04)"/>
<circle cx="150" cy="90" r="1" fill="rgba(255,255,255,0.04)"/>
<circle cx="170" cy="90" r="1" fill="rgba(255,255,255,0.04)"/>
<circle cx="190" cy="90" r="1" fill="rgba(255,255,255,0.04)"/>
<circle cx="210" cy="90" r="1" fill="rgba(255,255,255,0.04)"/>
<circle cx="230" cy="90" r="1" fill="rgba(255,255,255,0.04)"/>
<circle cx="250" cy="90" r="1" fill="rgba(255,255,255,0.04)"/>
<circle cx="270" cy="90" r="1" fill="rgba(255,255,255,0.04)"/>
<circle cx="290" cy="90" r="1" fill="rgba(255,255,255,0.04)"/>
<circle cx="10" cy="110" r="1" fill="rgba(255,255,255,0.04)"/>
<circle cx="30" cy="110" r="1" fill="rgba(255,255,255,0.04)"/>
<circle cx="50" cy="110" r="1" fill="rgba(255,255,255,0.04)"/>
<circle cx="70" cy="110" r="1" fill="rgba(255,255,255,0.04)"/>
<circle cx="90" cy="110" r="1" fill="rgba(255,255,255,0.04)"/>
<circle cx="110" cy="110" r="1" fill="rgba(255,255,255,0.04)"/>
<circle cx="130" cy="110" r="1" fill="rgba(255,255,255,0.04)"/>
<circle cx="150" cy="110" r="1" fill="rgba(255,255,255,0.04)"/>
<circle cx="170" cy="110" r="1" fill="rgba(255,255,255,0.04)"/>
<circle cx="190" cy="110" r="1" fill="rgba(255,255,255,0.04)"/>
<circle cx="210" cy="110" r="1" fill="rgba(255,255,255,0.04)"/>
<circle cx="230" cy="110" r="1" fill="rgba(255,255,255,0.04)"/>
<circle cx="250" cy="110" r="1" fill="rgba(255,255,255,0.04)"/>
<circle cx="270" cy="110" r="1" fill="rgba(255,255,255,0.04)"/>
<circle cx="290" cy="110" r="1" fill="rgba(255,255,255,0.04)"/>
<circle cx="10" cy="130" r="1" fill="rgba(255,255,255,0.04)"/>
<circle cx="30" cy="130" r="1" fill="rgba(255,255,255,0.04)"/>
<circle cx="50" cy="130" r="1" fill="rgba(255,255,255,0.04)"/>
<circle cx="70" cy="130" r="1" fill="rgba(255,255,255,0.04)"/>
<circle cx="90" cy="130" r="1" fill="rgba(255,255,255,0.04)"/>
<circle cx="110" cy="130" r="1" fill="rgba(255,255,255,0.04)"/>
<circle cx="130" cy="130" r="1" fill="rgba(255,255,255,0.04)"/>
<circle cx="150" cy="130" r="1" fill="rgba(255,255,255,0.04)"/>
<circle cx="170" cy="130" r="1" fill="rgba(255,255,255,0.04)"/>
<circle cx="190" cy="130" r="1" fill="rgba(255,255,255,0.04)"/>
<circle cx="210" cy="130" r="1" fill="rgba(255,255,255,0.04)"/>
<circle cx="230" cy="130" r="1" fill="rgba(255,255,255,0.04)"/>
<circle cx="250" cy="130" r="1" fill="rgba(255,255,255,0.04)"/>
<circle cx="270" cy="130" r="1" fill="rgba(255,255,255,0.04)"/>
<circle cx="290" cy="130" r="1" fill="rgba(255,255,255,0.04)"/>
<circle cx="10" cy="150" r="1" fill="rgba(255,255,255,0.04)"/>
<circle cx="30" cy="150" r="1" fill="rgba(255,255,255,0.04)"/>
<circle cx="50" cy="150" r="1" fill="rgba(255,255,255,0.04)"/>
<circle cx="70" cy="150" r="1" fill="rgba(255,255,255,0.04)"/>
<circle cx="90" cy="150" r="1" fill="rgba(255,255,255,0.04)"/>
<circle cx="110" cy="150" r="1" fill="rgba(255,255,255,0.04)"/>
<circle cx="130" cy="150" r="1" fill="rgba(255,255,255,0.04)"/>
<circle cx="150" cy="150" r="1" fill="rgba(255,255,255,0.04)"/>
<circle cx="170" cy="150" r="1" fill="rgba(255,255,255,0.04)"/>
<circle cx="190" cy="150" r="1" fill="rgba(255,255,255,0.04)"/>
<circle cx="210" cy="150" r="1" fill="rgba(255,255,255,0.04)"/>
<circle cx="230" cy="150" r="1" fill="rgba(255,255,255,0.04)"/>
<circle cx="250" cy="150" r="1" fill="rgba(255,255,255,0.04)"/>
<circle cx="270" cy="150" r="1" fill="rgba(255,255,255,0.04)"/>
<circle cx="290" cy="150" r="1" fill="rgba(255,255,255,0.04)"/>
<circle cx="10" cy="170" r="1" fill="rgba(255,255,255,0.04)"/>
<circle cx="30" cy="170" r="1" fill="rgba(255,255,255,0.04)"/>
<circle cx="50" cy="170" r="1" fill="rgba(255,255,255,0.04)"/>
<circle cx="70" cy="170" r="1" fill="rgba(255,255,255,0.04)"/>
<circle cx="90" cy="170" r="1" fill="rgba(255,255,255,0.04)"/>
<circle cx="110" cy="170" r="1" fill="rgba(255,255,255,0.04)"/>
<circle cx="130" cy="170" r="1" fill="rgba(255,255,255,0.04)"/>
<circle cx="150" cy="170" r="1" fill="rgba(255,255,255,0.04)"/>
<circle cx="170" cy="170" r="1" fill="rgba(255,255,255,0.04)"/>
<circle cx="190" cy="170" r="1" fill="rgba(255,255,255,0.04)"/>
<circle cx="210" cy="170" r="1" fill="rgba(255,255,255,0.04)"/>
<circle cx="230" cy="170" r="1" fill="rgba(255,255,255,0.04)"/>
<circle cx="250" cy="170" r="1" fill="rgba(255,255,255,0.04)"/>
<circle cx="270" cy="170" r="1" fill="rgba(255,255,255,0.04)"/>
<circle cx="290" cy="170" r="1" fill="rgba(255,255,255,0.04)"/>
<circle cx="10" cy="190" r="1" fill="rgba(255,255,255,0.04)"/>
<circle cx="30" cy="190" r="1" fill="rgba(255,255,255,0.04)"/>
<circle cx="50" cy="190" r="1" fill="rgba(255,255,255,0.04)"/>
<circle cx="70" cy="190" r="1" fill="rgba(255,255,255,0.04)"/>
<circle cx="90" cy="190" r="1" fill="rgba(255,255,255,0.04)"/>
<circle cx="110" cy="190" r="1" fill="rgba(255,255,255,0.04)"/>
<circle cx="130" cy="190" r="1" fill="rgba(255,255,255,0.04)"/>
<circle cx="150" cy="190" r="1" fill="rgba(255,255,255,0.04)"/>
<circle cx="170" cy="190" r="1" fill="rgba(255,255,255,0.04)"/>
<circle cx="190" cy="190" r="1" fill="rgba(255,255,255,0.04)"/>
<circle cx="210" cy="190" r="1" fill="rgba(255,255,255,0.04)"/>
<circle cx="230" cy="190" r="1" fill="rgba(255,255,255,0.04)"/>
<circle cx="250" cy="190" r="1" fill="rgba(255,255,255,0.04)"/>
<circle cx="270" cy="190" r="1" fill="rgba(255,255,255,0.04)"/>
<circle cx="290" cy="190" r="1" fill="rgba(255,255,255,0.04)"/>
<circle cx="10" cy="210" r="1" fill="rgba(255,255,255,0.04)"/>
<circle cx="30" cy="210" r="1" fill="rgba(255,255,255,0.04)"/>
<circle cx="50" cy="210" r="1" fill="rgba(255,255,255,0.04)"/>
<circle cx="70" cy="210" r="1" fill="rgba(255,255,255,0.04)"/>
<circle cx="90" cy="210" r="1" fill="rgba(255,255,255,0.04)"/>
<circle cx="110" cy="210" r="1" fill="rgba(255,255,255,0.04)"/>
<circle cx="130" cy="210" r="1" fill="rgba(255,255,255,0.04)"/>
<circle cx="150" cy="210" r="1" fill="rgba(255,255,255,0.04)"/>
<circle cx="170" cy="210" r="1" fill="rgba(255,255,255,0.04)"/>
<circle cx="190" cy="210" r="1" fill="rgba(255,255,255,0.04)"/>
<circle cx="210" cy="210" r="1" fill="rgba(255,255,255,0.04)"/>
<circle cx="230" cy="210" r="1" fill="rgba(255,255,255,0.04)"/>
<circle cx="250" cy="210" r="1" fill="rgba(255,255,255,0.04)"/>
<circle cx="270" cy="210" r="1" fill="rgba(255,255,255,0.04)"/>
<circle cx="290" cy="210" r="1" fill="rgba(255,255,255,0.04)"/>
<circle cx="10" cy="230" r="1" fill="rgba(255,255,255,0.04)"/>
<circle cx="30" cy="230" r="1" fill="rgba(255,255,255,0.04)"/>
<circle cx="50" cy="230" r="1" fill="rgba(255,255,255,0.04)"/>
<circle cx="70" cy="230" r="1" fill="rgba(255,255,255,0.04)"/>
<circle cx="90" cy="230" r="1" fill="rgba(255,255,255,0.04)"/>
<circle cx="110" cy="230" r="1" fill="rgba(255,255,255,0.04)"/>
<circle cx="130" cy="230" r="1" fill="rgba(255,255,255,0.04)"/>
<circle cx="150" cy="230" r="1" fill="rgba(255,255,255,0.04)"/>
<circle cx="170" cy="230" r="1" fill="rgba(255,255,255,0.04)"/>
<circle cx="190" cy="230" r="1" fill="rgba(255,255,255,0.04)"/>
<circle cx="210" cy="230" r="1" fill="rgba(255,255,255,0.04)"/>
<circle cx="230" cy="230" r="1" fill="rgba(255,255,255,0.04)"/>
<circle cx="250" cy="230" r="1" fill="rgba(255,255,255,0.04)"/>
<circle cx="270" cy="230" r="1" fill="rgba(255,255,255,0.04)"/>
<circle cx="290" cy="230" r="1" fill="rgba(255,255,255,0.04)"/>
<circle cx="10" cy="250" r="1" fill="rgba(255,255,255,0.04)"/>
<circle cx="30" cy="250" r="1" fill="rgba(255,255,255,0.04)"/>
<circle cx="50" cy="250" r="1" fill="rgba(255,255,255,0.04)"/>
<circle cx="70" cy="250" r="1" fill="rgba(255,255,255,0.04)"/>
<circle cx="90" cy="250" r="1" fill="rgba(255,255,255,0.04)"/>
<circle cx="110" cy="250" r="1" fill="rgba(255,255,255,0.04)"/>
<circle cx="130" cy="250" r="1" fill="rgba(255,255,255,0.04)"/>
<circle cx="150" cy="250" r="1" fill="rgba(255,255,255,0.04)"/>
<circle cx="170" cy="250" r="1" fill="rgba(255,255,255,0.04)"/>
<circle cx="190" cy="250" r="1" fill="rgba(255,255,255,0.04)"/>
<circle cx="210" cy="250" r="1" fill="rgba(255,255,255,0.04)"/>
<circle cx="230" cy="250" r="1" fill="rgba(255,255,255,0.04)"/>
<circle cx="250" cy="250" r="1" fill="rgba(255,255,255,0.04)"/>
<circle cx="270" cy="250" r="1" fill="rgba(255,255,255,0.04)"/>
<circle cx="290" cy="250" r="1" fill="rgba(255,255,255,0.04)"/>
<circle cx="10" cy="270" r="1" fill="rgba(255,255,255,0.04)"/>
<circle cx="30" cy="270" r="1" fill="rgba(255,255,255,0.04)"/>
<circle cx="50" cy="270" r="1" fill="rgba(255,255,255,0.04)"/>
<circle cx="70" cy="270" r="1" fill="rgba(255,255,255,0.04)"/>
<circle cx="90" cy="270" r="1" fill="rgba(255,255,255,0.04)"/>
<circle cx="110" cy="270" r="1" fill="rgba(255,255,255,0.04)"/>
<circle cx="130" cy="270" r="1" fill="rgba(255,255,255,0.04)"/>
<circle cx="150" cy="270" r="1" fill="rgba(255,255,255,0.04)"/>
<circle cx="170" cy="270" r="1" fill="rgba(255,255,255,0.04)"/>
<circle cx="190" cy="270" r="1" fill="rgba(255,255,255,0.04)"/>
<circle cx="210" cy="270" r="1" fill="rgba(255,255,255,0.04)"/>
<circle cx="230" cy="270" r="1" fill="rgba(255,255,255,0.04)"/>
<circle cx="250" cy="270" r="1" fill="rgba(255,255,255,0.04)"/>
<circle cx="270" cy="270" r="1" fill="rgba(255,255,255,0.04)"/>
<circle cx="290" cy="270" r="1" fill="rgba(255,255,255,0.04)"/>
<circle cx="10" cy="290" r="1" fill="rgba(255,255,255,0.04)"/>
<circle cx="30" cy="290" r="1" fill="rgba(255,255,255,0.04)"/>
<circle cx="50" cy="290" r="1" fill="rgba(255,255,255,0.04)"/>
<circle cx="70" cy="290" r="1" fill="rgba(255,255,255,0.04)"/>
<circle cx="90" cy="290" r="1" fill="rgba(255,255,255,0.04)"/>
<circle cx="110" cy="290" r="1" fill="rgba(255,255,255,0.04)"/>
<circle cx="130" cy="290" r="1" fill="rgba(255,255,255,0.04)"/>
<circle cx="150" cy="290" r="1" fill="rgba(255,255,255,0.04)"/>
<circle cx="170" cy="290" r="1" fill="rgba(255,255,255,0.04)"/>
<circle cx="190" cy="290" r="1" fill="rgba(255,255,255,0.04)"/>
<circle cx="210" cy="290" r="1" fill="rgba(255,255,255,0.04)"/>
<circle cx="230" cy="290" r="1" fill="rgba(255,255,255,0.04)"/>
<circle cx="250" cy="290" r="1" fill="rgba(255,255,255,0.04)"/>
<circle cx="270" cy="290" r="1" fill="rgba(255,255,255,0.04)"/>
<circle cx="290" cy="290" r="1" fill="rgba(255,255,255,0.04)"/>
<circle cx="10" cy="310" r="1" fill="rgba(255,255,255,0.04)"/>
<circle cx="30" cy="310" r="1" fill="rgba(255,255,255,0.04)"/>
<circle cx="50" cy="310" r="1" fill="rgba(255,255,255,0.04)"/>
<circle cx="70" cy="310" r="1" fill="rgba(255,255,255,0.04)"/>
<circle cx="90" cy="310" r="1" fill="rgba(255,255,255,0.04)"/>
<circle cx="110" cy="310" r="1" fill="rgba(255,255,255,0.04)"/>
<circle cx="130" cy="310" r="1" fill="rgba(255,255,255,0.04)"/>
<circle cx="150" cy="310" r="1" fill="rgba(255,255,255,0.04)"/>
<circle cx="170" cy="310" r="1" fill="rgba(255,255,255,0.04)"/>
<circle cx="190" cy="310" r="1" fill="rgba(255,255,255,0.04)"/>
<circle cx="210" cy="310" r="1" fill="rgba(255,255,255,0.04)"/>
<circle cx="230" cy="310" r="1" fill="rgba(255,255,255,0.04)"/>
<circle cx="250" cy="310" r="1" fill="rgba(255,255,255,0.04)"/>
<circle cx="270" cy="310" r="1" fill="rgba(255,255,255,0.04)"/>
<circle cx="290" cy="310" r="1" fill="rgba(255,255,255,0.04)"/>
<circle cx="10" cy="330" r="1" fill="rgba(255,255,255,0.04)"/>
<circle cx="30" cy="330" r="1" fill="rgba(255,255,255,0.04)"/>
<circle cx="50" cy="330" r="1" fill="rgba(255,255,255,0.04)"/>
<circle cx="70" cy="330" r="1" fill="rgba(255,255,255,0.04)"/>
<circle cx="90" cy="330" r="1" fill="rgba(255,255,255,0.04)"/>
<circle cx="110" cy="330" r="1" fill="rgba(255,255,255,0.04)"/>
<circle cx="130" cy="330" r="1" fill="rgba(255,255,255,0.04)"/>
<circle cx="150" cy="330" r="1" fill="rgba(255,255,255,0.04)"/>
<circle cx="170" cy="330" r="1" fill="rgba(255,255,255,0.04)"/>
<circle cx="190" cy="330" r="1" fill="rgba(255,255,255,0.04)"/>
<circle cx="210" cy="330" r="1" fill="rgba(255,255,255,0.04)"/>
<circle cx="230" cy="330" r="1" fill="rgba(255,255,255,0.04)"/>
<circle cx="250" cy="330" r="1" fill="rgba(255,255,255,0.04)"/>
<circle cx="270" cy="330" r="1" fill="rgba(255,255,255,0.04)"/>
<circle cx="290" cy="330" r="1" fill="rgba(255,255,255,0.04)"/>
<circle cx="10" cy="350" r="1" fill="rgba(255,255,255,0.04)"/>
<circle cx="30" cy="350" r="1" fill="rgba(255,255,255,0.04)"/>
<circle cx="50" cy="350" r="1" fill="rgba(255,255,255,0.04)"/>
<circle cx="70" cy="350" r="1" fill="rgba(255,255,255,0.04)"/>
<circle cx="90" cy="350" r="1" fill="rgba(255,255,255,0.04)"/>
<circle cx="110" cy="350" r="1" fill="rgba(255,255,255,0.04)"/>
<circle cx="130" cy="350" r="1" fill="rgba(255,255,255,0.04)"/>
<circle cx="150" cy="350" r="1" fill="rgba(255,255,255,0.04)"/>
<circle cx="170" cy="350" r="1" fill="rgba(255,255,255,0.04)"/>
<circle cx="190" cy="350" r="1" fill="rgba(255,255,255,0.04)"/>
<circle cx="210" cy="350" r="1" fill="rgba(255,255,255,0.04)"/>
<circle cx="230" cy="350" r="1" fill="rgba(255,255,255,0.04)"/>
<circle cx="250" cy="350" r="1" fill="rgba(255,255,255,0.04)"/>
<circle cx="270" cy="350" r="1" fill="rgba(255,255,255,0.04)"/>
<circle cx="290" cy="350" r="1" fill="rgba(255,255,255,0.04)"/>
<circle cx="10" cy="370" r="1" fill="rgba(255,255,255,0.04)"/>
<circle cx="30" cy="370" r="1" fill="rgba(255,255,255,0.04)"/>
<circle cx="50" cy="370" r="1" fill="rgba(255,255,255,0.04)"/>
<circle cx="70" cy="370" r="1" fill="rgba(255,255,255,0.04)"/>
<circle cx="90" cy="370" r="1" fill="rgba(255,255,255,0.04)"/>
<circle cx="110" cy="370" r="1" fill="rgba(255,255,255,0.04)"/>
<circle cx="130" cy="370" r="1" fill="rgba(255,255,255,0.04)"/>
<circle cx="150" cy="370" r="1" fill="rgba(255,255,255,0.04)"/>
<circle cx="170" cy="370" r="1" fill="rgba(255,255,255,0.04)"/>
<circle cx="190" cy="370" r="1" fill="rgba(255,255,255,0.04)"/>
<circle cx="210" cy="370" r="1" fill="rgba(255,255,255,0.04)"/>
<circle cx="230" cy="370" r="1" fill="rgba(255,255,255,0.04)"/>
<circle cx="250" cy="370" r="1" fill="rgba(255,255,255,0.04)"/>
<circle cx="270" cy="370" r="1" fill="rgba(255,255,255,0.04)"/>
<circle cx="290" cy="370" r="1" fill="rgba(255,255,255,0.04)"/>
<circle cx="10" cy="390" r="1" fill="rgba(255,255,255,0.04)"/>
<circle cx="30" cy="390" r="1" fill="rgba(255,255,255,0.04)"/>
<circle cx="50" cy="390" r="1" fill="rgba(255,255,255,0.04)"/>
<circle cx="70" cy="390" r="1" fill="rgba(255,255,255,0.04)"/>
<circle cx="90" cy="390" r="1" fill="rgba(255,255,255,0.04)"/>
<circle cx="110" cy="390" r="1" fill="rgba(255,255,255,0.04)"/>
<circle cx="130" cy="390" r="1" fill="rgba(255,255,255,0.04)"/>
<circle cx="150" cy="390" r="1" fill="rgba(255,255,255,0.04)"/>
<circle cx="170" cy="390" r="1" fill="rgba(255,255,255,0.04)"/>
<circle cx="190" cy="390" r="1" fill="rgba(255,255,255,0.04)"/>
<circle cx="210" cy="390" r="1" fill="rgba(255,255,255,0.04)"/>
<circle cx="230" cy="390" r="1" fill="rgba(255,255,255,0.04)"/>
<circle cx="250" cy="390" r="1" fill="rgba(255,255,255,0.04)"/>
<circle cx="270" cy="390" r="1" fill="rgba(255,255,255,0.04)"/>
<circle cx="290" cy="390" r="1" fill="rgba(255,255,255,0.04)"/>
<circle cx="10" cy="410" r="1" fill="rgba(255,255,255,0.04)"/>
<circle cx="30" cy="410" r="1" fill="rgba(255,255,255,0.04)"/>
<circle cx="50" cy="410" r="1" fill="rgba(255,255,255,0.04)"/>
<circle cx="70" cy="410" r="1" fill="rgba(255,255,255,0.04)"/>
<circle cx="90" cy="410" r="1" fill="rgba(255,255,255,0.04)"/>
<circle cx="110" cy="410" r="1" fill="rgba(255,255,255,0.04)"/>
<circle cx="130" cy="410" r="1" fill="rgba(255,255,255,0.04)"/>
<circle cx="150" cy="410" r="1" fill="rgba(255,255,255,0.04)"/>
<circle cx="170" cy="410" r="1" fill="rgba(255,255,255,0.04)"/>
<circle cx="190" cy="410" r="1" fill="rgba(255,255,255,0.04)"/>
<circle cx="210" cy="410" r="1" fill="rgba(255,255,255,0.04)"/>
<circle cx="230" cy="410" r="1" fill="rgba(255,255,255,0.04)"/>
<circle cx="250" cy="410" r="1" fill="rgba(255,255,255,0.04)"/>
<circle cx="270" cy="410" r="1" fill="rgba(255,255,255,0.04)"/>
<circle cx="290" cy="410" r="1" fill="rgba(255,255,255,0.04)"/>
<circle cx="10" cy="430" r="1" fill="rgba(255,255,255,0.04)"/>
<circle cx="30" cy="430" r="1" fill="rgba(255,255,255,0.04)"/>
<circle cx="50" cy="430" r="1" fill="rgba(255,255,255,0.04)"/>
<circle cx="70" cy="430" r="1" fill="rgba(255,255,255,0.04)"/>
<circle cx="90" cy="430" r="1" fill="rgba(255,255,255,0.04)"/>
<circle cx="110" cy="430" r="1" fill="rgba(255,255,255,0.04)"/>
<circle cx="130" cy="430" r="1" fill="rgba(255,255,255,0.04)"/>
<circle cx="150" cy="430" r="1" fill="rgba(255,255,255,0.04)"/>
<circle cx="170" cy="430" r="1" fill="rgba(255,255,255,0.04)"/>
<circle cx="190" cy="430" r="1" fill="rgba(255,255,255,0.04)"/>
<circle cx="210" cy="430" r="1" fill="rgba(255,255,255,0.04)"/>
<circle cx="230" cy="430" r="1" fill="rgba(255,255,255,0.04)"/>
<circle cx="250" cy="430" r="1" fill="rgba(255,255,255,0.04)"/>
<circle cx="270" cy="430" r="1" fill="rgba(255,255,255,0.04)"/>
<circle cx="290" cy="430" r="1" fill="rgba(255,255,255,0.04)"/>
<circle cx="10" cy="450" r="1" fill="rgba(255,255,255,0.04)"/>
<circle cx="30" cy="450" r="1" fill="rgba(255,255,255,0.04)"/>
<circle cx="50" cy="450" r="1" fill="rgba(255,255,255,0.04)"/>
<circle cx="70" cy="450" r="1" fill="rgba(255,255,255,0.04)"/>
<circle cx="90" cy="450" r="1" fill="rgba(255,255,255,0.04)"/>
<circle cx="110" cy="450" r="1" fill="rgba(255,255,255,0.04)"/>
<circle cx="130" cy="450" r="1" fill="rgba(255,255,255,0.04)"/>
<circle cx="150" cy="450" r="1" fill="rgba(255,255,255,0.04)"/>
<circle cx="170" cy="450" r="1" fill="rgba(255,255,255,0.04)"/>
<circle cx="190" cy="450" r="1" fill="rgba(255,255,255,0.04)"/>
<circle cx="210" cy="450" r="1" fill="rgba(255,255,255,0.04)"/>
<circle cx="230" cy="450" r="1" fill="rgba(255,255,255,0.04)"/>
<circle cx="250" cy="450" r="1" fill="rgba(255,255,255,0.04)"/>
<circle cx="270" cy="450" r="1" fill="rgba(255,255,255,0.04)"/>
<circle cx="290" cy="450" r="1" fill="rgba(255,255,255,0.04)"/>
<circle cx="10" cy="470" r="1" fill="rgba(255,255,255,0.04)"/>
<circle cx="30" cy="470" r="1" fill="rgba(255,255,255,0.04)"/>
<circle cx="50" cy="470" r="1" fill="rgba(255,255,255,0.04)"/>
<circle cx="70" cy="470" r="1" fill="rgba(255,255,255,0.04)"/>
<circle cx="90" cy="470" r="1" fill="rgba(255,255,255,0.04)"/>
<circle cx="110" cy="470" r="1" fill="rgba(255,255,255,0.04)"/>
<circle cx="130" cy="470" r="1" fill="rgba(255,255,255,0.04)"/>
<circle cx="150" cy="470" r="1" fill="rgba(255,255,255,0.04)"/>
<circle cx="170" cy="470" r="1" fill="rgba(255,255,255,0.04)"/>
<circle cx="190" cy="470" r="1" fill="rgba(255,255,255,0.04)"/>
<circle cx="210" cy="470" r="1" fill="rgba(255,255,255,0.04)"/>
<circle cx="230" cy="470" r="1" fill="rgba(255,255,255,0.04)"/>
<circle cx="250" cy="470" r="1" fill="rgba(255,255,255,0.04)"/>
<circle cx="270" cy="470" r="1" fill="rgba(255,255,255,0.04)"/>
<circle cx="290" cy="470" r="1" fill="rgba(255,255,255,0.04)"/>
<circle cx="10" cy="490" r="1" fill="rgba(255,255,255,0.04)"/>
<circle cx="30" cy="490" r="1" fill="rgba(255,255,255,0.04)"/>
<circle cx="50" cy="490" r="1" fill="rgba(255,255,255,0.04)"/>
<circle cx="70" cy="490" r="1" fill="rgba(255,255,255,0.04)"/>
<circle cx="90" cy="490" r="1" fill="rgba(255,255,255,0.04)"/>
<circle cx="110" cy="490" r="1" fill="rgba(255,255,255,0.04)"/>
<circle cx="130" cy="490" r="1" fill="rgba(255,255,255,0.04)"/>
<circle cx="150" cy="490" r="1" fill="rgba(255,255,255,0.04)"/>
<circle cx="170" cy="490" r="1" fill="rgba(255,255,255,0.04)"/>
<circle cx="190" cy="490" r="1" fill="rgba(255,255,255,0.04)"/>
<circle cx="210" cy="490" r="1" fill="rgba(255,255,255,0.04)"/>
<circle cx="230" cy="490" r="1" fill="rgba(255,255,255,0.04)"/>
<circle cx="250" cy="490" r="1" fill="rgba(255,255,255,0.04)"/>
<circle cx="270" cy="490" r="1" fill="rgba(255,255,255,0.04)"/>
<circle cx="290" cy="490" r="1" fill="rgba(255,255,255,0.04)"/>
<circle cx="10" cy="510" r="1" fill="rgba(255,255,255,0.04)"/>
<circle cx="30" cy="510" r="1" fill="rgba(255,255,255,0.04)"/>
<circle cx="50" cy="510" r="1" fill="rgba(255,255,255,0.04)"/>
<circle cx="70" cy="510" r="1" fill="rgba(255,255,255,0.04)"/>
<circle cx="90" cy="510" r="1" fill="rgba(255,255,255,0.04)"/>
<circle cx="110" cy="510" r="1" fill="rgba(255,255,255,0.04)"/>
<circle cx="130" cy="510" r="1" fill="rgba(255,255,255,0.04)"/>
<circle cx="150" cy="510" r="1" fill="rgba(255,255,255,0.04)"/>
<circle cx="170" cy="510" r="1" fill="rgba(255,255,255,0.04)"/>
<circle cx="190" cy="510" r="1" fill="rgba(255,255,255,0.04)"/>
<circle cx="210" cy="510" r="1" fill="rgba(255,255,255,0.04)"/>
<circle cx="230" cy="510" r="1" fill="rgba(255,255,255,0.04)"/>
<circle cx="250" cy="510" r="1" fill="rgba(255,255,255,0.04)"/>
<circle cx="270" cy="510" r="1" fill="rgba(255,255,255,0.04)"/>
<circle cx="290" cy="510" r="1" fill="rgba(255,255,255,0.04)"/>
<circle cx="10" cy="530" r="1" fill="rgba(255,255,255,0.04)"/>
<circle cx="30" cy="530" r="1" fill="rgba(255,255,255,0.04)"/>
<circle cx="50" cy="530" r="1" fill="rgba(255,255,255,0.04)"/>
<circle cx="70" cy="530" r="1" fill="rgba(255,255,255,0.04)"/>
<circle cx="90" cy="530" r="1" fill="rgba(255,255,255,0.04)"/>
<circle cx="110" cy="530" r="1" fill="rgba(255,255,255,0.04)"/>
<circle cx="130" cy="530" r="1" fill="rgba(255,255,255,0.04)"/>
<circle cx="150" cy="530" r="1" fill="rgba(255,255,255,0.04)"/>
<circle cx="170" cy="530" r="1" fill="rgba(255,255,255,0.04)"/>
<circle cx="190" cy="530" r="1" fill="rgba(255,255,255,0.04)"/>
<circle cx="210" cy="530" r="1" fill="rgba(255,255,255,0.04)"/>
<circle cx="230" cy="530" r="1" fill="rgba(255,255,255,0.04)"/>
<circle cx="250" cy="530" r="1" fill="rgba(255,255,255,0.04)"/>
<circle cx="270" cy="530" r="1" fill="rgba(255,255,255,0.04)"/>
<circle cx="290" cy="530" r="1" fill="rgba(255,255,255,0.04)"/>
<defs><filter id="shadow" x="-20%" y="-20%" width="140%" height="160%"><feDropShadow dx="0" dy="8" stdDeviation="9" flood-color="#000" flood-opacity="0.45"/></filter></defs>
<g transform="translate(28,24)">
<rect x="0" y="0" width="240" height="480" rx="8" fill="#1f242b" stroke="rgba(255,255,255,0.12)" filter="url(#shadow)"/>
<rect x="0" y="0" width="240" height="480" rx="8" fill="#1f242b" stroke="rgba(255,255,255,0.12)"/>
<path d="M0,32 L0,8 Q0,0 8,0 L232,0 Q240,0 240,8 L240,32 Z" fill="#33d6ff"/>
<text x="8" y="21" font-family="'Audiowide','Trebuchet MS','Arial Black',sans-serif" font-size="14" font-weight="600" fill="#000">Treble Prism</text>
<rect x="154" y="10" width="25" height="12" rx="6" fill="rgba(0,0,0,0.14)" stroke="rgba(255,255,255,0.14)"/>
<text x="166.5" y="19" text-anchor="middle" font-family="'JetBrains Mono','Cascadia Mono','Consolas',monospace" font-size="8" letter-spacing="0.08em" fill="#000">PAT</text>
<rect x="185" y="10" width="47" height="12" rx="6" fill="rgba(0,0,0,0.14)" stroke="rgba(255,255,255,0.14)"/>
<text x="208.5" y="19" text-anchor="middle" font-family="'JetBrains Mono','Cascadia Mono','Consolas',monospace" font-size="8" letter-spacing="0.08em" fill="#000">TRE-489</text>
<rect x="8" y="40" width="224" height="224" rx="4" fill="#05070a"/>
<circle cx="15" cy="47" r="5.0" fill="#14171c"/>
<circle cx="29" cy="47" r="5.0" fill="#14171c"/>
<circle cx="43" cy="47" r="5.0" fill="#14171c"/>
<circle cx="57" cy="47" r="5.0" fill="#14171c"/>
<circle cx="71" cy="47" r="7" fill="rgb(33,10,47)" opacity="0.35"/>
<circle cx="71" cy="47" r="5.0" fill="rgb(33,10,47)"/>
<circle cx="85" cy="47" r="5.0" fill="#14171c"/>
<circle cx="99" cy="47" r="5.0" fill="#14171c"/>
<circle cx="113" cy="47" r="5.0" fill="#14171c"/>
<circle cx="127" cy="47" r="5.0" fill="#14171c"/>
<circle cx="141" cy="47" r="5.0" fill="#14171c"/>
<circle cx="155" cy="47" r="5.0" fill="#14171c"/>
<circle cx="169" cy="47" r="5.0" fill="#14171c"/>
<circle cx="183" cy="47" r="7" fill="rgb(27,10,40)" opacity="0.35"/>
<circle cx="183" cy="47" r="5.0" fill="rgb(27,10,40)"/>
<circle cx="197" cy="47" r="5.0" fill="#14171c"/>
<circle cx="211" cy="47" r="5.0" fill="#14171c"/>
<circle cx="225" cy="47" r="7" fill="rgb(24,9,37)" opacity="0.35"/>
<circle cx="225" cy="47" r="5.0" fill="rgb(24,9,37)"/>
<circle cx="15" cy="61" r="7" fill="rgb(14,2,22)" opacity="0.35"/>
<circle cx="15" cy="61" r="5.0" fill="rgb(14,2,22)"/>
<circle cx="29" cy="61" r="5.0" fill="#14171c"/>
<circle cx="43" cy="61" r="5.0" fill="#14171c"/>
<circle cx="57" cy="61" r="7" fill="rgb(15,5,21)" opacity="0.35"/>
<circle cx="57" cy="61" r="5.0" fill="rgb(15,5,21)"/>
<circle cx="71" cy="61" r="5.0" fill="#14171c"/>
<circle cx="85" cy="61" r="5.0" fill="#14171c"/>
<circle cx="99" cy="61" r="5.0" fill="#14171c"/>
<circle cx="113" cy="61" r="5.0" fill="#14171c"/>
<circle cx="127" cy="61" r="5.0" fill="#14171c"/>
<circle cx="141" cy="61" r="5.0" fill="#14171c"/>
<circle cx="155" cy="61" r="5.0" fill="#14171c"/>
<circle cx="169" cy="61" r="7" fill="rgb(61,23,91)" opacity="0.35"/>
<circle cx="169" cy="61" r="5.0" fill="rgb(61,23,91)"/>
<circle cx="183" cy="61" r="5.0" fill="#14171c"/>
<circle cx="197" cy="61" r="5.0" fill="#14171c"/>
<circle cx="211" cy="61" r="5.0" fill="#14171c"/>
<circle cx="225" cy="61" r="5.0" fill="#14171c"/>
<circle cx="15" cy="75" r="5.0" fill="#14171c"/>
<circle cx="29" cy="75" r="5.0" fill="#14171c"/>
<circle cx="43" cy="75" r="7" fill="rgb(16,5,23)" opacity="0.35"/>
<circle cx="43" cy="75" r="5.0" fill="rgb(16,5,23)"/>
<circle cx="57" cy="75" r="5.0" fill="#14171c"/>
<circle cx="71" cy="75" r="5.0" fill="#14171c"/>
<circle cx="85" cy="75" r="5.0" fill="#14171c"/>
<circle cx="99" cy="75" r="5.0" fill="#14171c"/>
<circle cx="113" cy="75" r="7" fill="rgb(28,11,41)" opacity="0.35"/>
<circle cx="113" cy="75" r="5.0" fill="rgb(28,11,41)"/>
<circle cx="127" cy="75" r="5.0" fill="#14171c"/>
<circle cx="141" cy="75" r="5.0" fill="#14171c"/>
<circle cx="155" cy="75" r="7" fill="rgb(26,10,40)" opacity="0.35"/>
<circle cx="155" cy="75" r="5.0" fill="rgb(26,10,40)"/>
<circle cx="169" cy="75" r="5.0" fill="#14171c"/>
<circle cx="183" cy="75" r="5.0" fill="#14171c"/>
<circle cx="197" cy="75" r="5.0" fill="#14171c"/>
<circle cx="211" cy="75" r="7" fill="rgb(46,16,71)" opacity="0.35"/>
<circle cx="211" cy="75" r="5.0" fill="rgb(46,16,71)"/>
<circle cx="225" cy="75" r="7" fill="rgb(33,13,49)" opacity="0.35"/>
<circle cx="225" cy="75" r="5.0" fill="rgb(33,13,49)"/>
<circle cx="15" cy="89" r="5.0" fill="#14171c"/>
<circle cx="29" cy="89" r="7" fill="rgb(15,5,21)" opacity="0.35"/>
<circle cx="29" cy="89" r="5.0" fill="rgb(15,5,21)"/>
<circle cx="43" cy="89" r="5.0" fill="#14171c"/>
<circle cx="57" cy="89" r="5.0" fill="#14171c"/>
<circle cx="71" cy="89" r="5.0" fill="#14171c"/>
<circle cx="85" cy="89" r="5.0" fill="#14171c"/>
<circle cx="99" cy="89" r="5.0" fill="#14171c"/>
<circle cx="113" cy="89" r="5.0" fill="#14171c"/>
<circle cx="127" cy="89" r="5.0" fill="#14171c"/>
<circle cx="141" cy="89" r="7" fill="rgb(36,13,54)" opacity="0.35"/>
<circle cx="141" cy="89" r="5.0" fill="rgb(36,13,54)"/>
<circle cx="155" cy="89" r="7" fill="rgb(30,11,46)" opacity="0.35"/>
<circle cx="155" cy="89" r="5.0" fill="rgb(30,11,46)"/>
<circle cx="169" cy="89" r="5.0" fill="#14171c"/>
<circle cx="183" cy="89" r="5.0" fill="#14171c"/>
<circle cx="197" cy="89" r="5.0" fill="#14171c"/>
<circle cx="211" cy="89" r="7" fill="rgb(36,15,55)" opacity="0.35"/>
<circle cx="211" cy="89" r="5.0" fill="rgb(36,15,55)"/>
<circle cx="225" cy="89" r="5.0" fill="#14171c"/>
<circle cx="15" cy="103" r="7" fill="rgb(15,5,21)" opacity="0.35"/>
<circle cx="15" cy="103" r="5.0" fill="rgb(15,5,21)"/>
<circle cx="29" cy="103" r="5.0" fill="#14171c"/>
<circle cx="43" cy="103" r="5.0" fill="#14171c"/>
<circle cx="57" cy="103" r="5.0" fill="#14171c"/>
<circle cx="71" cy="103" r="5.0" fill="#14171c"/>
<circle cx="85" cy="103" r="7" fill="rgb(35,13,51)" opacity="0.35"/>
<circle cx="85" cy="103" r="5.0" fill="rgb(35,13,51)"/>
<circle cx="99" cy="103" r="5.0" fill="#14171c"/>
<circle cx="113" cy="103" r="5.0" fill="#14171c"/>
<circle cx="127" cy="103" r="7" fill="rgb(26,10,40)" opacity="0.35"/>
<circle cx="127" cy="103" r="5.0" fill="rgb(26,10,40)"/>
<circle cx="141" cy="103" r="5.0" fill="#14171c"/>
<circle cx="155" cy="103" r="5.0" fill="#14171c"/>
<circle cx="169" cy="103" r="5.0" fill="#14171c"/>
<circle cx="183" cy="103" r="5.0" fill="#14171c"/>
<circle cx="197" cy="103" r="7" fill="rgb(34,14,50)" opacity="0.35"/>
<circle cx="197" cy="103" r="5.0" fill="rgb(34,14,50)"/>
<circle cx="211" cy="103" r="5.0" fill="#14171c"/>
<circle cx="225" cy="103" r="5.0" fill="#14171c"/>
<circle cx="15" cy="117" r="5.0" fill="#14171c"/>
<circle cx="29" cy="117" r="7" fill="rgb(27,10,39)" opacity="0.35"/>
<circle cx="29" cy="117" r="5.0" fill="rgb(27,10,39)"/>
<circle cx="43" cy="117" r="5.0" fill="#14171c"/>
<circle cx="57" cy="117" r="5.0" fill="#14171c"/>
<circle cx="71" cy="117" r="5.0" fill="#14171c"/>
<circle cx="85" cy="117" r="5.0" fill="#14171c"/>
<circle cx="99" cy="117" r="5.0" fill="#14171c"/>
<circle cx="113" cy="117" r="7" fill="rgb(26,10,40)" opacity="0.35"/>
<circle cx="113" cy="117" r="5.0" fill="rgb(26,10,40)"/>
<circle cx="127" cy="117" r="7" fill="rgb(18,7,28)" opacity="0.35"/>
<circle cx="127" cy="117" r="5.0" fill="rgb(18,7,28)"/>
<circle cx="141" cy="117" r="5.0" fill="#14171c"/>
<circle cx="155" cy="117" r="5.0" fill="#14171c"/>
<circle cx="169" cy="117" r="5.0" fill="#14171c"/>
<circle cx="183" cy="117" r="7" fill="rgb(67,27,100)" opacity="0.35"/>
<circle cx="183" cy="117" r="5.0" fill="rgb(67,27,100)"/>
<circle cx="197" cy="117" r="5.0" fill="#14171c"/>
<circle cx="211" cy="117" r="5.0" fill="#14171c"/>
<circle cx="225" cy="117" r="7" fill="rgb(20,10,27)" opacity="0.35"/>
<circle cx="225" cy="117" r="5.0" fill="rgb(20,10,27)"/>
<circle cx="15" cy="131" r="5.0" fill="#14171c"/>
<circle cx="29" cy="131" r="5.0" fill="#14171c"/>
<circle cx="43" cy="131" r="5.0" fill="#14171c"/>
<circle cx="57" cy="131" r="5.0" fill="#14171c"/>
<circle cx="71" cy="131" r="7" fill="rgb(24,9,35)" opacity="0.35"/>
<circle cx="71" cy="131" r="5.0" fill="rgb(24,9,35)"/>
<circle cx="85" cy="131" r="5.0" fill="#14171c"/>
<circle cx="99" cy="131" r="7" fill="rgb(26,10,40)" opacity="0.35"/>
<circle cx="99" cy="131" r="5.0" fill="rgb(26,10,40)"/>
<circle cx="113" cy="131" r="5.0" fill="#14171c"/>
<circle cx="127" cy="131" r="7" fill="rgb(19,7,29)" opacity="0.35"/>
<circle cx="127" cy="131" r="5.0" fill="rgb(19,7,29)"/>
<circle cx="141" cy="131" r="5.0" fill="#14171c"/>
<circle cx="155" cy="131" r="5.0" fill="#14171c"/>
<circle cx="169" cy="131" r="7" fill="rgb(33,13,49)" opacity="0.35"/>
<circle cx="169" cy="131" r="5.0" fill="rgb(33,13,49)"/>
<circle cx="183" cy="131" r="5.0" fill="#14171c"/>
<circle cx="197" cy="131" r="5.0" fill="#14171c"/>
<circle cx="211" cy="131" r="7" fill="rgb(20,11,28)" opacity="0.35"/>
<circle cx="211" cy="131" r="5.0" fill="rgb(20,11,28)"/>
<circle cx="225" cy="131" r="7" fill="rgb(78,44,106)" opacity="0.35"/>
<circle cx="225" cy="131" r="5.0" fill="rgb(78,44,106)"/>
<circle cx="15" cy="145" r="7" fill="rgb(14,5,21)" opacity="0.35"/>
<circle cx="15" cy="145" r="5.0" fill="rgb(14,5,21)"/>
<circle cx="29" cy="145" r="5.0" fill="#14171c"/>
<circle cx="43" cy="145" r="5.0" fill="#14171c"/>
<circle cx="57" cy="145" r="5.0" fill="#14171c"/>
<circle cx="71" cy="145" r="5.0" fill="#14171c"/>
<circle cx="85" cy="145" r="7" fill="rgb(26,10,40)" opacity="0.35"/>
<circle cx="85" cy="145" r="5.0" fill="rgb(26,10,40)"/>
<circle cx="99" cy="145" r="5.0" fill="#14171c"/>
<circle cx="113" cy="145" r="5.0" fill="#14171c"/>
<circle cx="127" cy="145" r="5.0" fill="#14171c"/>
<circle cx="141" cy="145" r="5.0" fill="#14171c"/>
<circle cx="155" cy="145" r="7" fill="rgb(42,17,64)" opacity="0.35"/>
<circle cx="155" cy="145" r="5.0" fill="rgb(42,17,64)"/>
<circle cx="169" cy="145" r="7" fill="rgb(49,22,72)" opacity="0.35"/>
<circle cx="169" cy="145" r="5.0" fill="rgb(49,22,72)"/>
<circle cx="183" cy="145" r="5.0" fill="#14171c"/>
<circle cx="197" cy="145" r="7" fill="rgb(20,10,27)" opacity="0.35"/>
<circle cx="197" cy="145" r="5.0" fill="rgb(20,10,27)"/>
<circle cx="211" cy="145" r="5.0" fill="#14171c"/>
<circle cx="225" cy="145" r="5.0" fill="#14171c"/>
<circle cx="15" cy="159" r="5.0" fill="#14171c"/>
<circle cx="29" cy="159" r="5.0" fill="#14171c"/>
<circle cx="43" cy="159" r="5.0" fill="#14171c"/>
<circle cx="57" cy="159" r="5.0" fill="#14171c"/>
<circle cx="71" cy="159" r="7" fill="rgb(26,10,40)" opacity="0.35"/>
<circle cx="71" cy="159" r="5.0" fill="rgb(26,10,40)"/>
<circle cx="85" cy="159" r="5.0" fill="#14171c"/>
<circle cx="99" cy="159" r="7" fill="rgb(30,11,47)" opacity="0.35"/>
<circle cx="99" cy="159" r="5.0" fill="rgb(30,11,47)"/>
<circle cx="113" cy="159" r="7" fill="rgb(13,5,20)" opacity="0.35"/>
<circle cx="113" cy="159" r="5.0" fill="rgb(13,5,20)"/>
<circle cx="127" cy="159" r="5.0" fill="#14171c"/>
<circle cx="141" cy="159" r="7" fill="rgb(33,13,49)" opacity="0.35"/>
<circle cx="141" cy="159" r="5.0" fill="rgb(33,13,49)"/>
<circle cx="155" cy="159" r="5.0" fill="#14171c"/>
<circle cx="169" cy="159" r="5.0" fill="#14171c"/>
<circle cx="183" cy="159" r="7" fill="rgb(20,10,27)" opacity="0.35"/>
<circle cx="183" cy="159" r="5.0" fill="rgb(20,10,27)"/>
<circle cx="197" cy="159" r="5.0" fill="#14171c"/>
<circle cx="211" cy="159" r="5.0" fill="#14171c"/>
<circle cx="225" cy="159" r="5.0" fill="#14171c"/>
<circle cx="15" cy="173" r="5.0" fill="#14171c"/>
<circle cx="29" cy="173" r="5.0" fill="#14171c"/>
<circle cx="43" cy="173" r="7" fill="rgb(33,13,50)" opacity="0.35"/>
<circle cx="43" cy="173" r="5.0" fill="rgb(33,13,50)"/>
<circle cx="57" cy="173" r="7" fill="rgb(27,10,41)" opacity="0.35"/>
<circle cx="57" cy="173" r="5.0" fill="rgb(27,10,41)"/>
<circle cx="71" cy="173" r="5.0" fill="#14171c"/>
<circle cx="85" cy="173" r="5.0" fill="#14171c"/>
<circle cx="99" cy="173" r="5.0" fill="#14171c"/>
<circle cx="113" cy="173" r="5.0" fill="#14171c"/>
<circle cx="127" cy="173" r="7" fill="rgb(33,13,49)" opacity="0.35"/>
<circle cx="127" cy="173" r="5.0" fill="rgb(33,13,49)"/>
<circle cx="141" cy="173" r="7" fill="rgb(35,16,51)" opacity="0.35"/>
<circle cx="141" cy="173" r="5.0" fill="rgb(35,16,51)"/>
<circle cx="155" cy="173" r="5.0" fill="#14171c"/>
<circle cx="169" cy="173" r="7" fill="rgb(20,10,27)" opacity="0.35"/>
<circle cx="169" cy="173" r="5.0" fill="rgb(20,10,27)"/>
<circle cx="183" cy="173" r="5.0" fill="#14171c"/>
<circle cx="197" cy="173" r="7" fill="rgb(39,23,51)" opacity="0.35"/>
<circle cx="197" cy="173" r="5.0" fill="rgb(39,23,51)"/>
<circle cx="211" cy="173" r="5.0" fill="#14171c"/>
<circle cx="225" cy="173" r="5.0" fill="#14171c"/>
<circle cx="15" cy="187" r="5.0" fill="#14171c"/>
<circle cx="29" cy="187" r="5.0" fill="#14171c"/>
<circle cx="43" cy="187" r="7" fill="rgb(26,10,40)" opacity="0.35"/>
<circle cx="43" cy="187" r="5.0" fill="rgb(26,10,40)"/>
<circle cx="57" cy="187" r="5.0" fill="#14171c"/>
<circle cx="71" cy="187" r="5.0" fill="#14171c"/>
<circle cx="85" cy="187" r="7" fill="rgb(44,16,67)" opacity="0.35"/>
<circle cx="85" cy="187" r="5.0" fill="rgb(44,16,67)"/>
<circle cx="99" cy="187" r="5.0" fill="#14171c"/>
<circle cx="113" cy="187" r="7" fill="rgb(33,13,49)" opacity="0.35"/>
<circle cx="113" cy="187" r="5.0" fill="rgb(33,13,49)"/>
<circle cx="127" cy="187" r="5.0" fill="#14171c"/>
<circle cx="141" cy="187" r="7" fill="rgb(16,8,22)" opacity="0.35"/>
<circle cx="141" cy="187" r="5.0" fill="rgb(16,8,22)"/>
<circle cx="155" cy="187" r="7" fill="rgb(20,10,27)" opacity="0.35"/>
<circle cx="155" cy="187" r="5.0" fill="rgb(20,10,27)"/>
<circle cx="169" cy="187" r="5.0" fill="#14171c"/>
<circle cx="183" cy="187" r="5.0" fill="#14171c"/>
<circle cx="197" cy="187" r="5.0" fill="#14171c"/>
<circle cx="211" cy="187" r="5.0" fill="#14171c"/>
<circle cx="225" cy="187" r="7" fill="rgb(64,43,80)" opacity="0.35"/>
<circle cx="225" cy="187" r="5.0" fill="rgb(64,43,80)"/>
<circle cx="15" cy="201" r="7" fill="rgb(15,5,22)" opacity="0.35"/>
<circle cx="15" cy="201" r="5.0" fill="rgb(15,5,22)"/>
<circle cx="29" cy="201" r="7" fill="rgb(48,18,72)" opacity="0.35"/>
<circle cx="29" cy="201" r="5.0" fill="rgb(48,18,72)"/>
<circle cx="43" cy="201" r="5.0" fill="#14171c"/>
<circle cx="57" cy="201" r="5.0" fill="#14171c"/>
<circle cx="71" cy="201" r="5.0" fill="#14171c"/>
<circle cx="85" cy="201" r="5.0" fill="#14171c"/>
<circle cx="99" cy="201" r="7" fill="rgb(33,13,49)" opacity="0.35"/>
<circle cx="99" cy="201" r="5.0" fill="rgb(33,13,49)"/>
<circle cx="113" cy="201" r="5.0" fill="#14171c"/>
<circle cx="127" cy="201" r="5.0" fill="#14171c"/>
<circle cx="141" cy="201" r="7" fill="rgb(20,10,27)" opacity="0.35"/>
<circle cx="141" cy="201" r="5.0" fill="rgb(20,10,27)"/>
<circle cx="155" cy="201" r="5.0" fill="#14171c"/>
<circle cx="169" cy="201" r="7" fill="rgb(16,10,22)" opacity="0.35"/>
<circle cx="169" cy="201" r="5.0" fill="rgb(16,10,22)"/>
<circle cx="183" cy="201" r="7" fill="rgb(74,45,96)" opacity="0.35"/>
<circle cx="183" cy="201" r="5.0" fill="rgb(74,45,96)"/>
<circle cx="197" cy="201" r="5.0" fill="#14171c"/>
<circle cx="211" cy="201" r="7" fill="rgb(64,43,80)" opacity="0.35"/>
<circle cx="211" cy="201" r="5.0" fill="rgb(64,43,80)"/>
<circle cx="225" cy="201" r="5.0" fill="#14171c"/>
<circle cx="15" cy="215" r="7" fill="rgb(27,10,40)" opacity="0.35"/>
<circle cx="15" cy="215" r="5.0" fill="rgb(27,10,40)"/>
<circle cx="29" cy="215" r="5.0" fill="#14171c"/>
<circle cx="43" cy="215" r="5.0" fill="#14171c"/>
<circle cx="57" cy="215" r="5.0" fill="#14171c"/>
<circle cx="71" cy="215" r="5.0" fill="#14171c"/>
<circle cx="85" cy="215" r="7" fill="rgb(33,13,49)" opacity="0.35"/>
<circle cx="85" cy="215" r="5.0" fill="rgb(33,13,49)"/>
<circle cx="99" cy="215" r="5.0" fill="#14171c"/>
<circle cx="113" cy="215" r="7" fill="rgb(30,15,43)" opacity="0.35"/>
<circle cx="113" cy="215" r="5.0" fill="rgb(30,15,43)"/>
<circle cx="127" cy="215" r="7" fill="rgb(38,20,53)" opacity="0.35"/>
<circle cx="127" cy="215" r="5.0" fill="rgb(38,20,53)"/>
<circle cx="141" cy="215" r="5.0" fill="#14171c"/>
<circle cx="155" cy="215" r="5.0" fill="#14171c"/>
<circle cx="169" cy="215" r="5.0" fill="#14171c"/>
<circle cx="183" cy="215" r="5.0" fill="#14171c"/>
<circle cx="197" cy="215" r="7" fill="rgb(64,43,80)" opacity="0.35"/>
<circle cx="197" cy="215" r="5.0" fill="rgb(64,43,80)"/>
<circle cx="211" cy="215" r="7" fill="rgb(18,13,22)" opacity="0.35"/>
<circle cx="211" cy="215" r="5.0" fill="rgb(18,13,22)"/>
<circle cx="225" cy="215" r="5.0" fill="#14171c"/>
<circle cx="15" cy="229" r="5.0" fill="#14171c"/>
<circle cx="29" cy="229" r="5.0" fill="#14171c"/>
<circle cx="43" cy="229" r="5.0" fill="#14171c"/>
<circle cx="57" cy="229" r="7" fill="rgb(33,12,51)" opacity="0.35"/>
<circle cx="57" cy="229" r="5.0" fill="rgb(33,12,51)"/>
<circle cx="71" cy="229" r="7" fill="rgb(34,14,51)" opacity="0.35"/>
<circle cx="71" cy="229" r="5.0" fill="rgb(34,14,51)"/>
<circle cx="85" cy="229" r="5.0" fill="#14171c"/>
<circle cx="99" cy="229" r="5.0" fill="#14171c"/>
<circle cx="113" cy="229" r="7" fill="rgb(20,10,27)" opacity="0.35"/>
<circle cx="113" cy="229" r="5.0" fill="rgb(20,10,27)"/>
<circle cx="127" cy="229" r="5.0" fill="#14171c"/>
<circle cx="141" cy="229" r="5.0" fill="#14171c"/>
<circle cx="155" cy="229" r="7" fill="rgb(61,37,80)" opacity="0.35"/>
<circle cx="155" cy="229" r="5.0" fill="rgb(61,37,80)"/>
<circle cx="169" cy="229" r="5.0" fill="#14171c"/>
<circle cx="183" cy="229" r="7" fill="rgb(64,43,80)" opacity="0.35"/>
<circle cx="183" cy="229" r="5.0" fill="rgb(64,43,80)"/>
<circle cx="197" cy="229" r="5.0" fill="#14171c"/>
<circle cx="211" cy="229" r="7" fill="rgb(23,17,27)" opacity="0.35"/>
<circle cx="211" cy="229" r="5.0" fill="rgb(23,17,27)"/>
<circle cx="225" cy="229" r="5.0" fill="#14171c"/>
<circle cx="15" cy="243" r="5.0" fill="#14171c"/>
<circle cx="29" cy="243" r="5.0" fill="#14171c"/>
<circle cx="43" cy="243" r="5.0" fill="#14171c"/>
<circle cx="57" cy="243" r="7" fill="rgb(33,13,49)" opacity="0.35"/>
<circle cx="57" cy="243" r="5.0" fill="rgb(33,13,49)"/>
<circle cx="71" cy="243" r="5.0" fill="#14171c"/>
<circle cx="85" cy="243" r="5.0" fill="#14171c"/>
<circle cx="99" cy="243" r="7" fill="rgb(92,49,127)" opacity="0.35"/>
<circle cx="99" cy="243" r="5.0" fill="rgb(92,49,127)"/>
<circle cx="113" cy="243" r="5.0" fill="#14171c"/>
<circle cx="127" cy="243" r="5.0" fill="#14171c"/>
<circle cx="141" cy="243" r="5.0" fill="#14171c"/>
<circle cx="155" cy="243" r="5.0" fill="#14171c"/>
<circle cx="169" cy="243" r="7" fill="rgb(64,43,80)" opacity="0.35"/>
<circle cx="169" cy="243" r="5.0" fill="rgb(64,43,80)"/>
<circle cx="183" cy="243" r="5.0" fill="#14171c"/>
<circle cx="197" cy="243" r="5.0" fill="#14171c"/>
<circle cx="211" cy="243" r="5.0" fill="#14171c"/>
<circle cx="225" cy="243" r="5.0" fill="#14171c"/>
<circle cx="15" cy="257" r="5.0" fill="#14171c"/>
<circle cx="29" cy="257" r="7" fill="rgb(15,6,24)" opacity="0.35"/>
<circle cx="29" cy="257" r="5.0" fill="rgb(15,6,24)"/>
<circle cx="43" cy="257" r="7" fill="rgb(68,28,102)" opacity="0.35"/>
<circle cx="43" cy="257" r="5.0" fill="rgb(68,28,102)"/>
<circle cx="57" cy="257" r="5.0" fill="#14171c"/>
<circle cx="71" cy="257" r="5.0" fill="#14171c"/>
<circle cx="85" cy="257" r="7" fill="rgb(20,10,28)" opacity="0.35"/>
<circle cx="85" cy="257" r="5.0" fill="rgb(20,10,28)"/>
<circle cx="99" cy="257" r="5.0" fill="#14171c"/>
<circle cx="113" cy="257" r="5.0" fill="#14171c"/>
<circle cx="127" cy="257" r="5.0" fill="#14171c"/>
<circle cx="141" cy="257" r="5.0" fill="#14171c"/>
<circle cx="155" cy="257" r="7" fill="rgb(64,43,80)" opacity="0.35"/>
<circle cx="155" cy="257" r="5.0" fill="rgb(64,43,80)"/>
<circle cx="169" cy="257" r="5.0" fill="#14171c"/>
<circle cx="183" cy="257" r="5.0" fill="#14171c"/>
<circle cx="197" cy="257" r="7" fill="rgb(93,75,108)" opacity="0.35"/>
<circle cx="197" cy="257" r="5.0" fill="rgb(93,75,108)"/>
<circle cx="211" cy="257" r="5.0" fill="#14171c"/>
<circle cx="225" cy="257" r="7" fill="rgb(36,32,40)" opacity="0.35"/>
<circle cx="225" cy="257" r="5.0" fill="rgb(36,32,40)"/>
<circle cx="-2" cy="280" r="9" fill="#9aa0a6" opacity="0.25"/>
<circle cx="-2" cy="280" r="6" fill="#9aa0a6" stroke="#0d0f12" stroke-width="1.5"/>
<text x="10" y="284" font-family="'JetBrains Mono','Cascadia Mono','Consolas',monospace" font-size="12" fill="#a0a0a0">Treble</text>
<circle cx="242" cy="280" r="9" fill="#5ad1ff" opacity="0.25"/>
<circle cx="242" cy="280" r="6" fill="#5ad1ff" stroke="#0d0f12" stroke-width="1.5"/>
<text x="230" y="284" text-anchor="end" font-family="'JetBrains Mono','Cascadia Mono','Consolas',monospace" font-size="12" fill="#a0a0a0">Frame</text>
<circle cx="-2" cy="308" r="9" fill="#9aa0a6" opacity="0.25"/>
<circle cx="-2" cy="308" r="6" fill="#9aa0a6" stroke="#0d0f12" stroke-width="1.5"/>
<text x="10" y="312" font-family="'JetBrains Mono','Cascadia Mono','Consolas',monospace" font-size="12" fill="#a0a0a0">Energy</text>
<circle cx="-2" cy="336" r="9" fill="#9aa0a6" opacity="0.25"/>
<circle cx="-2" cy="336" r="6" fill="#9aa0a6" stroke="#0d0f12" stroke-width="1.5"/>
<text x="10" y="340" font-family="'JetBrains Mono','Cascadia Mono','Consolas',monospace" font-size="12" fill="#a0a0a0">Speed</text>
<circle cx="-2" cy="364" r="9" fill="#ff5cf0" opacity="0.25"/>
<circle cx="-2" cy="364" r="6" fill="#ff5cf0" stroke="#0d0f12" stroke-width="1.5"/>
<text x="10" y="368" font-family="'JetBrains Mono','Cascadia Mono','Consolas',monospace" font-size="12" fill="#a0a0a0">Palette</text>
<line x1="8" y1="384" x2="232" y2="384" stroke="rgba(255,255,255,0.08)"/>
<text x="8" y="404" font-family="'JetBrains Mono','Cascadia Mono','Consolas',monospace" font-size="12" fill="#a0a0a0">energy</text>
<g>
<rect x="120" y="398" width="72" height="4" rx="2" fill="#cfd2d6" opacity="0.85"/>
<rect x="120" y="398" width="50.4" height="4" rx="2" fill="#d633ff"/>
<circle cx="170.4" cy="400" r="5" fill="#d633ff"/>
<text x="232" y="404" text-anchor="end" font-family="'JetBrains Mono','Cascadia Mono','Consolas',monospace" font-size="12" fill="#e0e0e0">0.7</text>
</g>
<text x="8" y="425" font-family="'JetBrains Mono','Cascadia Mono','Consolas',monospace" font-size="12" fill="#a0a0a0">speed</text>
<g>
<rect x="120" y="419" width="72" height="4" rx="2" fill="#cfd2d6" opacity="0.85"/>
<rect x="120" y="419" width="72.0" height="4" rx="2" fill="#d633ff"/>
<circle cx="192.0" cy="421" r="5" fill="#d633ff"/>
<text x="232" y="425" text-anchor="end" font-family="'JetBrains Mono','Cascadia Mono','Consolas',monospace" font-size="12" fill="#e0e0e0">1</text>
</g>
<text x="8" y="446" font-family="'JetBrains Mono','Cascadia Mono','Consolas',monospace" font-size="12" fill="#a0a0a0">palette</text>
<g>
<rect x="148" y="434" width="84" height="16" rx="4" fill="#0d0f12" stroke="rgba(255,255,255,0.12)"/>
<text x="152" y="446" font-family="'JetBrains Mono','Cascadia Mono','Consolas',monospace" font-size="11" fill="#e0e0e0">amethyst</text>
<text x="228" y="446" text-anchor="end" font-size="8" fill="#a0a0a0">▾</text>
</g>
<text x="8" y="467" font-family="'JetBrains Mono','Cascadia Mono','Consolas',monospace" font-size="12" fill="#a0a0a0">clamp inputs</text>
<g>
<rect x="220" y="457" width="12" height="12" rx="3" fill="#0d0f12" stroke="rgba(255,255,255,0.12)"/>
</g>
</g>
</svg>
