<svg xmlns="http://www.w3.org/2000/svg" viewBox="0 0 408 408" width="408" height="408" role="img" aria-label="LED preview of the Array example graph">
<rect width="408" height="408" rx="10" fill="#05070a"/>
<circle cx="24" cy="24" r="12" fill="rgb(255,141,0)" opacity="0.35"/>
<circle cx="24" cy="24" r="9" fill="rgb(255,141,0)"/>
<circle cx="48" cy="24" r="12" fill="rgb(255,81,0)" opacity="0.35"/>
<circle cx="48" cy="24" r="9" fill="rgb(255,81,0)"/>
<circle cx="72" cy="24" r="12" fill="rgb(255,31,0)" opacity="0.35"/>
<circle cx="72" cy="24" r="9" fill="rgb(255,31,0)"/>
<circle cx="96" cy="24" r="12" fill="rgb(255,100,249)" opacity="0.35"/>
<circle cx="96" cy="24" r="9" fill="rgb(255,100,249)"/>
<circle cx="120" cy="24" r="12" fill="rgb(255,67,250)" opacity="0.35"/>
<circle cx="120" cy="24" r="9" fill="rgb(255,67,250)"/>
<circle cx="144" cy="24" r="12" fill="rgb(255,31,250)" opacity="0.35"/>
<circle cx="144" cy="24" r="9" fill="rgb(255,31,250)"/>
<circle cx="168" cy="24" r="12" fill="rgb(255,70,255)" opacity="0.35"/>
<circle cx="168" cy="24" r="9" fill="rgb(255,70,255)"/>
<circle cx="192" cy="24" r="12" fill="rgb(255,67,175)" opacity="0.35"/>
<circle cx="192" cy="24" r="9" fill="rgb(255,67,175)"/>
<circle cx="216" cy="24" r="12" fill="rgb(255,64,175)" opacity="0.35"/>
<circle cx="216" cy="24" r="9" fill="rgb(255,64,175)"/>
<circle cx="240" cy="24" r="12" fill="rgb(255,113,255)" opacity="0.35"/>
<circle cx="240" cy="24" r="9" fill="rgb(255,113,255)"/>
<circle cx="264" cy="24" r="12" fill="rgb(255,129,122)" opacity="0.35"/>
<circle cx="264" cy="24" r="9" fill="rgb(255,129,122)"/>
<circle cx="288" cy="24" r="12" fill="rgb(255,137,122)" opacity="0.35"/>
<circle cx="288" cy="24" r="9" fill="rgb(255,137,122)"/>
<circle cx="312" cy="24" r="12" fill="rgb(255,176,207)" opacity="0.35"/>
<circle cx="312" cy="24" r="9" fill="rgb(255,176,207)"/>
<circle cx="336" cy="24" r="12" fill="rgb(255,184,86)" opacity="0.35"/>
<circle cx="336" cy="24" r="9" fill="rgb(255,184,86)"/>
<circle cx="360" cy="24" r="12" fill="rgb(255,186,86)" opacity="0.35"/>
<circle cx="360" cy="24" r="9" fill="rgb(255,186,86)"/>
<circle cx="384" cy="24" r="12" fill="rgb(255,211,145)" opacity="0.35"/>
<circle cx="384" cy="24" r="9" fill="rgb(255,211,145)"/>
<circle cx="24" cy="48" r="12" fill="rgb(255,62,0)" opacity="0.35"/>
<circle cx="24" cy="48" r="9" fill="rgb(255,62,0)"/>
<circle cx="48" cy="48" r="12" fill="rgb(208,3,249)" opacity="0.35"/>
<circle cx="48" cy="48" r="9" fill="rgb(208,3,249)"/>
<circle cx="72" cy="48" r="12" fill="rgb(144,33,251)" opacity="0.35"/>
<circle cx="72" cy="48" r="9" fill="rgb(144,33,251)"/>
<circle cx="96" cy="48" r="12" fill="rgb(255,94,252)" opacity="0.35"/>
<circle cx="96" cy="48" r="9" fill="rgb(255,94,252)"/>
<circle cx="120" cy="48" r="12" fill="rgb(242,58,255)" opacity="0.35"/>
<circle cx="120" cy="48" r="9" fill="rgb(242,58,255)"/>
<circle cx="144" cy="48" r="12" fill="rgb(208,74,255)" opacity="0.35"/>
<circle cx="144" cy="48" r="9" fill="rgb(208,74,255)"/>
<circle cx="168" cy="48" r="12" fill="rgb(255,104,255)" opacity="0.35"/>
<circle cx="168" cy="48" r="9" fill="rgb(255,104,255)"/>
<circle cx="192" cy="48" r="12" fill="rgb(255,61,255)" opacity="0.35"/>
<circle cx="192" cy="48" r="9" fill="rgb(255,61,255)"/>
<circle cx="216" cy="48" r="12" fill="rgb(255,55,255)" opacity="0.35"/>
<circle cx="216" cy="48" r="9" fill="rgb(255,55,255)"/>
<circle cx="240" cy="48" r="12" fill="rgb(255,94,255)" opacity="0.35"/>
<circle cx="240" cy="48" r="9" fill="rgb(255,94,255)"/>
<circle cx="264" cy="48" r="12" fill="rgb(255,83,255)" opacity="0.35"/>
<circle cx="264" cy="48" r="9" fill="rgb(255,83,255)"/>
<circle cx="288" cy="48" r="12" fill="rgb(255,89,255)" opacity="0.35"/>
<circle cx="288" cy="48" r="9" fill="rgb(255,89,255)"/>
<circle cx="312" cy="48" r="12" fill="rgb(255,121,209)" opacity="0.35"/>
<circle cx="312" cy="48" r="9" fill="rgb(255,121,209)"/>
<circle cx="336" cy="48" r="12" fill="rgb(255,111,255)" opacity="0.35"/>
<circle cx="336" cy="48" r="9" fill="rgb(255,111,255)"/>
<circle cx="360" cy="48" r="12" fill="rgb(255,110,255)" opacity="0.35"/>
<circle cx="360" cy="48" r="9" fill="rgb(255,110,255)"/>
<circle cx="384" cy="48" r="12" fill="rgb(255,128,147)" opacity="0.35"/>
<circle cx="384" cy="48" r="9" fill="rgb(255,128,147)"/>
<circle cx="24" cy="72" r="12" fill="rgb(192,10,250)" opacity="0.35"/>
<circle cx="24" cy="72" r="9" fill="rgb(192,10,250)"/>
<circle cx="48" cy="72" r="12" fill="rgb(107,51,252)" opacity="0.35"/>
<circle cx="48" cy="72" r="9" fill="rgb(107,51,252)"/>
<circle cx="72" cy="72" r="12" fill="rgb(50,78,254)" opacity="0.35"/>
<circle cx="72" cy="72" r="9" fill="rgb(50,78,254)"/>
<circle cx="96" cy="72" r="12" fill="rgb(175,101,255)" opacity="0.35"/>
<circle cx="96" cy="72" r="9" fill="rgb(175,101,255)"/>
<circle cx="120" cy="72" r="12" fill="rgb(116,130,255)" opacity="0.35"/>
<circle cx="120" cy="72" r="9" fill="rgb(116,130,255)"/>
<circle cx="144" cy="72" r="12" fill="rgb(82,136,255)" opacity="0.35"/>
<circle cx="144" cy="72" r="9" fill="rgb(82,136,255)"/>
<circle cx="168" cy="72" r="12" fill="rgb(206,133,255)" opacity="0.35"/>
<circle cx="168" cy="72" r="9" fill="rgb(206,133,255)"/>
<circle cx="192" cy="72" r="12" fill="rgb(210,131,255)" opacity="0.35"/>
<circle cx="192" cy="72" r="9" fill="rgb(210,131,255)"/>
<circle cx="216" cy="72" r="12" fill="rgb(232,113,255)" opacity="0.35"/>
<circle cx="216" cy="72" r="9" fill="rgb(232,113,255)"/>
<circle cx="240" cy="72" r="12" fill="rgb(255,92,255)" opacity="0.35"/>
<circle cx="240" cy="72" r="9" fill="rgb(255,92,255)"/>
<circle cx="264" cy="72" r="12" fill="rgb(255,112,255)" opacity="0.35"/>
<circle cx="264" cy="72" r="9" fill="rgb(255,112,255)"/>
<circle cx="288" cy="72" r="12" fill="rgb(255,112,255)" opacity="0.35"/>
<circle cx="288" cy="72" r="9" fill="rgb(255,112,255)"/>
<circle cx="312" cy="72" r="12" fill="rgb(255,98,255)" opacity="0.35"/>
<circle cx="312" cy="72" r="9" fill="rgb(255,98,255)"/>
<circle cx="336" cy="72" r="12" fill="rgb(255,109,255)" opacity="0.35"/>
<circle cx="336" cy="72" r="9" fill="rgb(255,109,255)"/>
<circle cx="360" cy="72" r="12" fill="rgb(255,101,255)" opacity="0.35"/>
<circle cx="360" cy="72" r="9" fill="rgb(255,101,255)"/>
<circle cx="384" cy="72" r="12" fill="rgb(255,86,190)" opacity="0.35"/>
<circle cx="384" cy="72" r="9" fill="rgb(255,86,190)"/>
<circle cx="24" cy="96" r="12" fill="rgb(106,51,252)" opacity="0.35"/>
<circle cx="24" cy="96" r="9" fill="rgb(106,51,252)"/>
<circle cx="48" cy="96" r="12" fill="rgb(42,91,254)" opacity="0.35"/>
<circle cx="48" cy="96" r="9" fill="rgb(42,91,254)"/>
<circle cx="72" cy="96" r="12" fill="rgb(28,119,254)" opacity="0.35"/>
<circle cx="72" cy="96" r="9" fill="rgb(28,119,254)"/>
<circle cx="96" cy="96" r="12" fill="rgb(97,165,255)" opacity="0.35"/>
<circle cx="96" cy="96" r="9" fill="rgb(97,165,255)"/>
<circle cx="120" cy="96" r="12" fill="rgb(56,185,255)" opacity="0.35"/>
<circle cx="120" cy="96" r="9" fill="rgb(56,185,255)"/>
<circle cx="144" cy="96" r="12" fill="rgb(58,182,255)" opacity="0.35"/>
<circle cx="144" cy="96" r="9" fill="rgb(58,182,255)"/>
<circle cx="168" cy="96" r="12" fill="rgb(133,186,255)" opacity="0.35"/>
<circle cx="168" cy="96" r="9" fill="rgb(133,186,255)"/>
<circle cx="192" cy="96" r="12" fill="rgb(162,174,255)" opacity="0.35"/>
<circle cx="192" cy="96" r="9" fill="rgb(162,174,255)"/>
<circle cx="216" cy="96" r="12" fill="rgb(217,145,255)" opacity="0.35"/>
<circle cx="216" cy="96" r="9" fill="rgb(217,145,255)"/>
<circle cx="240" cy="96" r="12" fill="rgb(255,135,255)" opacity="0.35"/>
<circle cx="240" cy="96" r="9" fill="rgb(255,135,255)"/>
<circle cx="264" cy="96" r="12" fill="rgb(255,148,255)" opacity="0.35"/>
<circle cx="264" cy="96" r="9" fill="rgb(255,148,255)"/>
<circle cx="288" cy="96" r="12" fill="rgb(255,140,255)" opacity="0.35"/>
<circle cx="288" cy="96" r="9" fill="rgb(255,140,255)"/>
<circle cx="312" cy="96" r="12" fill="rgb(255,132,255)" opacity="0.35"/>
<circle cx="312" cy="96" r="9" fill="rgb(255,132,255)"/>
<circle cx="336" cy="96" r="12" fill="rgb(255,134,255)" opacity="0.35"/>
<circle cx="336" cy="96" r="9" fill="rgb(255,134,255)"/>
<circle cx="360" cy="96" r="12" fill="rgb(255,115,255)" opacity="0.35"/>
<circle cx="360" cy="96" r="9" fill="rgb(255,115,255)"/>
<circle cx="384" cy="96" r="12" fill="rgb(255,99,190)" opacity="0.35"/>
<circle cx="384" cy="96" r="9" fill="rgb(255,99,190)"/>
<circle cx="24" cy="120" r="12" fill="rgb(46,83,254)" opacity="0.35"/>
<circle cx="24" cy="120" r="9" fill="rgb(46,83,254)"/>
<circle cx="48" cy="120" r="12" fill="rgb(26,124,254)" opacity="0.35"/>
<circle cx="48" cy="120" r="9" fill="rgb(26,124,254)"/>
<circle cx="72" cy="120" r="12" fill="rgb(15,146,255)" opacity="0.35"/>
<circle cx="72" cy="120" r="9" fill="rgb(15,146,255)"/>
<circle cx="96" cy="120" r="12" fill="rgb(46,205,255)" opacity="0.35"/>
<circle cx="96" cy="120" r="9" fill="rgb(46,205,255)"/>
<circle cx="120" cy="120" r="12" fill="rgb(40,218,255)" opacity="0.35"/>
<circle cx="120" cy="120" r="9" fill="rgb(40,218,255)"/>
<circle cx="144" cy="120" r="12" fill="rgb(48,202,255)" opacity="0.35"/>
<circle cx="144" cy="120" r="9" fill="rgb(48,202,255)"/>
<circle cx="168" cy="120" r="12" fill="rgb(110,209,255)" opacity="0.35"/>
<circle cx="168" cy="120" r="9" fill="rgb(110,209,255)"/>
<circle cx="192" cy="120" r="12" fill="rgb(175,185,255)" opacity="0.35"/>
<circle cx="192" cy="120" r="9" fill="rgb(175,185,255)"/>
<circle cx="216" cy="120" r="12" fill="rgb(243,144,255)" opacity="0.35"/>
<circle cx="216" cy="120" r="9" fill="rgb(243,144,255)"/>
<circle cx="240" cy="120" r="12" fill="rgb(255,180,255)" opacity="0.35"/>
<circle cx="240" cy="120" r="9" fill="rgb(255,180,255)"/>
<circle cx="264" cy="120" r="12" fill="rgb(255,185,255)" opacity="0.35"/>
<circle cx="264" cy="120" r="9" fill="rgb(255,185,255)"/>
<circle cx="288" cy="120" r="12" fill="rgb(255,165,255)" opacity="0.35"/>
<circle cx="288" cy="120" r="9" fill="rgb(255,165,255)"/>
<circle cx="312" cy="120" r="12" fill="rgb(255,187,255)" opacity="0.35"/>
<circle cx="312" cy="120" r="9" fill="rgb(255,187,255)"/>
<circle cx="336" cy="120" r="12" fill="rgb(255,179,255)" opacity="0.35"/>
<circle cx="336" cy="120" r="9" fill="rgb(255,179,255)"/>
<circle cx="360" cy="120" r="12" fill="rgb(255,148,255)" opacity="0.35"/>
<circle cx="360" cy="120" r="9" fill="rgb(255,148,255)"/>
<circle cx="384" cy="120" r="12" fill="rgb(255,147,191)" opacity="0.35"/>
<circle cx="384" cy="120" r="9" fill="rgb(255,147,191)"/>
<circle cx="24" cy="144" r="12" fill="rgb(35,106,254)" opacity="0.35"/>
<circle cx="24" cy="144" r="9" fill="rgb(35,106,254)"/>
<circle cx="48" cy="144" r="12" fill="rgb(17,142,255)" opacity="0.35"/>
<circle cx="48" cy="144" r="9" fill="rgb(17,142,255)"/>
<circle cx="72" cy="144" r="12" fill="rgb(9,157,255)" opacity="0.35"/>
<circle cx="72" cy="144" r="9" fill="rgb(9,157,255)"/>
<circle cx="96" cy="144" r="12" fill="rgb(38,224,255)" opacity="0.35"/>
<circle cx="96" cy="144" r="9" fill="rgb(38,224,255)"/>
<circle cx="120" cy="144" r="12" fill="rgb(37,224,255)" opacity="0.35"/>
<circle cx="120" cy="144" r="9" fill="rgb(37,224,255)"/>
<circle cx="144" cy="144" r="12" fill="rgb(51,195,255)" opacity="0.35"/>
<circle cx="144" cy="144" r="9" fill="rgb(51,195,255)"/>
<circle cx="168" cy="144" r="12" fill="rgb(144,202,255)" opacity="0.35"/>
<circle cx="168" cy="144" r="9" fill="rgb(144,202,255)"/>
<circle cx="192" cy="144" r="12" fill="rgb(227,164,255)" opacity="0.35"/>
<circle cx="192" cy="144" r="9" fill="rgb(227,164,255)"/>
<circle cx="216" cy="144" r="12" fill="rgb(255,181,255)" opacity="0.35"/>
<circle cx="216" cy="144" r="9" fill="rgb(255,181,255)"/>
<circle cx="240" cy="144" r="12" fill="rgb(255,224,255)" opacity="0.35"/>
<circle cx="240" cy="144" r="9" fill="rgb(255,224,255)"/>
<circle cx="264" cy="144" r="12" fill="rgb(255,220,255)" opacity="0.35"/>
<circle cx="264" cy="144" r="9" fill="rgb(255,220,255)"/>
<circle cx="288" cy="144" r="12" fill="rgb(255,239,211)" opacity="0.35"/>
<circle cx="288" cy="144" r="9" fill="rgb(255,239,211)"/>
<circle cx="312" cy="144" r="12" fill="rgb(255,255,255)" opacity="0.35"/>
<circle cx="312" cy="144" r="9" fill="rgb(255,255,255)"/>
<circle cx="336" cy="144" r="12" fill="rgb(255,241,255)" opacity="0.35"/>
<circle cx="336" cy="144" r="9" fill="rgb(255,241,255)"/>
<circle cx="360" cy="144" r="12" fill="rgb(255,232,148)" opacity="0.35"/>
<circle cx="360" cy="144" r="9" fill="rgb(255,232,148)"/>
<circle cx="384" cy="144" r="12" fill="rgb(255,227,190)" opacity="0.35"/>
<circle cx="384" cy="144" r="9" fill="rgb(255,227,190)"/>
<circle cx="24" cy="168" r="12" fill="rgb(30,115,254)" opacity="0.35"/>
<circle cx="24" cy="168" r="9" fill="rgb(30,115,254)"/>
<circle cx="48" cy="168" r="12" fill="rgb(15,146,255)" opacity="0.35"/>
<circle cx="48" cy="168" r="9" fill="rgb(15,146,255)"/>
<circle cx="72" cy="168" r="12" fill="rgb(11,154,255)" opacity="0.35"/>
<circle cx="72" cy="168" r="9" fill="rgb(11,154,255)"/>
<circle cx="96" cy="168" r="12" fill="rgb(39,221,255)" opacity="0.35"/>
<circle cx="96" cy="168" r="9" fill="rgb(39,221,255)"/>
<circle cx="120" cy="168" r="12" fill="rgb(46,208,255)" opacity="0.35"/>
<circle cx="120" cy="168" r="9" fill="rgb(46,208,255)"/>
<circle cx="144" cy="168" r="12" fill="rgb(93,169,255)" opacity="0.35"/>
<circle cx="144" cy="168" r="9" fill="rgb(93,169,255)"/>
<circle cx="168" cy="168" r="12" fill="rgb(209,169,255)" opacity="0.35"/>
<circle cx="168" cy="168" r="9" fill="rgb(209,169,255)"/>
<circle cx="192" cy="168" r="12" fill="rgb(255,194,255)" opacity="0.35"/>
<circle cx="192" cy="168" r="9" fill="rgb(255,194,255)"/>
<circle cx="216" cy="168" r="12" fill="rgb(255,226,255)" opacity="0.35"/>
<circle cx="216" cy="168" r="9" fill="rgb(255,226,255)"/>
<circle cx="240" cy="168" r="12" fill="rgb(255,255,255)" opacity="0.35"/>
<circle cx="240" cy="168" r="9" fill="rgb(255,255,255)"/>
<circle cx="264" cy="168" r="12" fill="rgb(255,255,211)" opacity="0.35"/>
<circle cx="264" cy="168" r="9" fill="rgb(255,255,211)"/>
<circle cx="288" cy="168" r="12" fill="rgb(255,255,211)" opacity="0.35"/>
<circle cx="288" cy="168" r="9" fill="rgb(255,255,211)"/>
<circle cx="312" cy="168" r="12" fill="rgb(255,255,255)" opacity="0.35"/>
<circle cx="312" cy="168" r="9" fill="rgb(255,255,255)"/>
<circle cx="336" cy="168" r="12" fill="rgb(255,255,148)" opacity="0.35"/>
<circle cx="336" cy="168" r="9" fill="rgb(255,255,148)"/>
<circle cx="360" cy="168" r="12" fill="rgb(255,255,148)" opacity="0.35"/>
<circle cx="360" cy="168" r="9" fill="rgb(255,255,148)"/>
<circle cx="384" cy="168" r="12" fill="rgb(255,255,190)" opacity="0.35"/>
<circle cx="384" cy="168" r="9" fill="rgb(255,255,190)"/>
<circle cx="24" cy="192" r="12" fill="rgb(32,112,254)" opacity="0.35"/>
<circle cx="24" cy="192" r="9" fill="rgb(32,112,254)"/>
<circle cx="48" cy="192" r="12" fill="rgb(19,138,255)" opacity="0.35"/>
<circle cx="48" cy="192" r="9" fill="rgb(19,138,255)"/>
<circle cx="72" cy="192" r="12" fill="rgb(18,140,255)" opacity="0.35"/>
<circle cx="72" cy="192" r="9" fill="rgb(18,140,255)"/>
<circle cx="96" cy="192" r="12" fill="rgb(50,197,255)" opacity="0.35"/>
<circle cx="96" cy="192" r="9" fill="rgb(50,197,255)"/>
<circle cx="120" cy="192" r="12" fill="rgb(62,175,255)" opacity="0.35"/>
<circle cx="120" cy="192" r="9" fill="rgb(62,175,255)"/>
<circle cx="144" cy="192" r="12" fill="rgb(158,131,255)" opacity="0.35"/>
<circle cx="144" cy="192" r="9" fill="rgb(158,131,255)"/>
<circle cx="168" cy="192" r="12" fill="rgb(255,169,255)" opacity="0.35"/>
<circle cx="168" cy="192" r="9" fill="rgb(255,169,255)"/>
<circle cx="192" cy="192" r="12" fill="rgb(255,237,255)" opacity="0.35"/>
<circle cx="192" cy="192" r="9" fill="rgb(255,237,255)"/>
<circle cx="216" cy="192" r="12" fill="rgb(255,255,255)" opacity="0.35"/>
<circle cx="216" cy="192" r="9" fill="rgb(255,255,255)"/>
<circle cx="240" cy="192" r="12" fill="rgb(255,255,211)" opacity="0.35"/>
<circle cx="240" cy="192" r="9" fill="rgb(255,255,211)"/>
<circle cx="264" cy="192" r="12" fill="rgb(255,255,211)" opacity="0.35"/>
<circle cx="264" cy="192" r="9" fill="rgb(255,255,211)"/>
<circle cx="288" cy="192" r="12" fill="rgb(255,255,210)" opacity="0.35"/>
<circle cx="288" cy="192" r="9" fill="rgb(255,255,210)"/>
<circle cx="312" cy="192" r="12" fill="rgb(255,255,148)" opacity="0.35"/>
<circle cx="312" cy="192" r="9" fill="rgb(255,255,148)"/>
<circle cx="336" cy="192" r="12" fill="rgb(255,255,148)" opacity="0.35"/>
<circle cx="336" cy="192" r="9" fill="rgb(255,255,148)"/>
<circle cx="360" cy="192" r="12" fill="rgb(255,255,147)" opacity="0.35"/>
<circle cx="360" cy="192" r="9" fill="rgb(255,255,147)"/>
<circle cx="384" cy="192" r="12" fill="rgb(255,255,104)" opacity="0.35"/>
<circle cx="384" cy="192" r="9" fill="rgb(255,255,104)"/>
<circle cx="24" cy="216" r="12" fill="rgb(38,99,254)" opacity="0.35"/>
<circle cx="24" cy="216" r="9" fill="rgb(38,99,254)"/>
<circle cx="48" cy="216" r="12" fill="rgb(27,121,254)" opacity="0.35"/>
<circle cx="48" cy="216" r="9" fill="rgb(27,121,254)"/>
<circle cx="72" cy="216" r="12" fill="rgb(28,118,254)" opacity="0.35"/>
<circle cx="72" cy="216" r="9" fill="rgb(28,118,254)"/>
<circle cx="96" cy="216" r="12" fill="rgb(68,162,255)" opacity="0.35"/>
<circle cx="96" cy="216" r="9" fill="rgb(68,162,255)"/>
<circle cx="120" cy="216" r="12" fill="rgb(123,137,255)" opacity="0.35"/>
<circle cx="120" cy="216" r="9" fill="rgb(123,137,255)"/>
<circle cx="144" cy="216" r="12" fill="rgb(229,85,255)" opacity="0.35"/>
<circle cx="144" cy="216" r="9" fill="rgb(229,85,255)"/>
<circle cx="168" cy="216" r="12" fill="rgb(255,200,255)" opacity="0.35"/>
<circle cx="168" cy="216" r="9" fill="rgb(255,200,255)"/>
<circle cx="192" cy="216" r="12" fill="rgb(255,255,255)" opacity="0.35"/>
<circle cx="192" cy="216" r="9" fill="rgb(255,255,255)"/>
<circle cx="216" cy="216" r="12" fill="rgb(255,255,255)" opacity="0.35"/>
<circle cx="216" cy="216" r="9" fill="rgb(255,255,255)"/>
<circle cx="240" cy="216" r="12" fill="rgb(255,255,245)" opacity="0.35"/>
<circle cx="240" cy="216" r="9" fill="rgb(255,255,245)"/>
<circle cx="264" cy="216" r="12" fill="rgb(255,255,255)" opacity="0.35"/>
<circle cx="264" cy="216" r="9" fill="rgb(255,255,255)"/>
<circle cx="288" cy="216" r="12" fill="rgb(255,255,255)" opacity="0.35"/>
<circle cx="288" cy="216" r="9" fill="rgb(255,255,255)"/>
<circle cx="312" cy="216" r="12" fill="rgb(255,255,206)" opacity="0.35"/>
<circle cx="312" cy="216" r="9" fill="rgb(255,255,206)"/>
<circle cx="336" cy="216" r="12" fill="rgb(255,255,194)" opacity="0.35"/>
<circle cx="336" cy="216" r="9" fill="rgb(255,255,194)"/>
<circle cx="360" cy="216" r="12" fill="rgb(255,255,182)" opacity="0.35"/>
<circle cx="360" cy="216" r="9" fill="rgb(255,255,182)"/>
<circle cx="384" cy="216" r="12" fill="rgb(255,255,145)" opacity="0.35"/>
<circle cx="384" cy="216" r="9" fill="rgb(255,255,145)"/>
<circle cx="24" cy="240" r="12" fill="rgb(51,78,254)" opacity="0.35"/>
<circle cx="24" cy="240" r="9" fill="rgb(51,78,254)"/>
<circle cx="48" cy="240" r="12" fill="rgb(39,97,254)" opacity="0.35"/>
<circle cx="48" cy="240" r="9" fill="rgb(39,97,254)"/>
<circle cx="72" cy="240" r="12" fill="rgb(42,92,254)" opacity="0.35"/>
<circle cx="72" cy="240" r="9" fill="rgb(42,92,254)"/>
<circle cx="96" cy="240" r="12" fill="rgb(112,121,255)" opacity="0.35"/>
<circle cx="96" cy="240" r="9" fill="rgb(112,121,255)"/>
<circle cx="120" cy="240" r="12" fill="rgb(186,94,255)" opacity="0.35"/>
<circle cx="120" cy="240" r="9" fill="rgb(186,94,255)"/>
<circle cx="144" cy="240" r="12" fill="rgb(255,105,178)" opacity="0.35"/>
<circle cx="144" cy="240" r="9" fill="rgb(255,105,178)"/>
<circle cx="168" cy="240" r="12" fill="rgb(255,214,255)" opacity="0.35"/>
<circle cx="168" cy="240" r="9" fill="rgb(255,214,255)"/>
<circle cx="192" cy="240" r="12" fill="rgb(255,255,255)" opacity="0.35"/>
<circle cx="192" cy="240" r="9" fill="rgb(255,255,255)"/>
<circle cx="216" cy="240" r="12" fill="rgb(255,255,162)" opacity="0.35"/>
<circle cx="216" cy="240" r="9" fill="rgb(255,255,162)"/>
<circle cx="240" cy="240" r="12" fill="rgb(255,255,255)" opacity="0.35"/>
<circle cx="240" cy="240" r="9" fill="rgb(255,255,255)"/>
<circle cx="264" cy="240" r="12" fill="rgb(255,255,255)" opacity="0.35"/>
<circle cx="264" cy="240" r="9" fill="rgb(255,255,255)"/>
<circle cx="288" cy="240" r="12" fill="rgb(236,255,204)" opacity="0.35"/>
<circle cx="288" cy="240" r="9" fill="rgb(236,255,204)"/>
<circle cx="312" cy="240" r="12" fill="rgb(213,255,255)" opacity="0.35"/>
<circle cx="312" cy="240" r="9" fill="rgb(213,255,255)"/>
<circle cx="336" cy="240" r="12" fill="rgb(255,255,255)" opacity="0.35"/>
<circle cx="336" cy="240" r="9" fill="rgb(255,255,255)"/>
<circle cx="360" cy="240" r="12" fill="rgb(255,255,175)" opacity="0.35"/>
<circle cx="360" cy="240" r="9" fill="rgb(255,255,175)"/>
<circle cx="384" cy="240" r="12" fill="rgb(255,255,197)" opacity="0.35"/>
<circle cx="384" cy="240" r="9" fill="rgb(255,255,197)"/>
<circle cx="24" cy="264" r="12" fill="rgb(94,57,253)" opacity="0.35"/>
<circle cx="24" cy="264" r="9" fill="rgb(94,57,253)"/>
<circle cx="48" cy="264" r="12" fill="rgb(64,71,254)" opacity="0.35"/>
<circle cx="48" cy="264" r="9" fill="rgb(64,71,254)"/>
<circle cx="72" cy="264" r="12" fill="rgb(75,66,253)" opacity="0.35"/>
<circle cx="72" cy="264" r="9" fill="rgb(75,66,253)"/>
<circle cx="96" cy="264" r="12" fill="rgb(192,82,255)" opacity="0.35"/>
<circle cx="96" cy="264" r="9" fill="rgb(192,82,255)"/>
<circle cx="120" cy="264" r="12" fill="rgb(255,51,255)" opacity="0.35"/>
<circle cx="120" cy="264" r="9" fill="rgb(255,51,255)"/>
<circle cx="144" cy="264" r="12" fill="rgb(255,125,177)" opacity="0.35"/>
<circle cx="144" cy="264" r="9" fill="rgb(255,125,177)"/>
<circle cx="168" cy="264" r="12" fill="rgb(255,214,255)" opacity="0.35"/>
<circle cx="168" cy="264" r="9" fill="rgb(255,214,255)"/>
<circle cx="192" cy="264" r="12" fill="rgb(255,248,255)" opacity="0.35"/>
<circle cx="192" cy="264" r="9" fill="rgb(255,248,255)"/>
<circle cx="216" cy="264" r="12" fill="rgb(255,255,184)" opacity="0.35"/>
<circle cx="216" cy="264" r="9" fill="rgb(255,255,184)"/>
<circle cx="240" cy="264" r="12" fill="rgb(255,255,255)" opacity="0.35"/>
<circle cx="240" cy="264" r="9" fill="rgb(255,255,255)"/>
<circle cx="264" cy="264" r="12" fill="rgb(255,255,255)" opacity="0.35"/>
<circle cx="264" cy="264" r="9" fill="rgb(255,255,255)"/>
<circle cx="288" cy="264" r="12" fill="rgb(201,255,255)" opacity="0.35"/>
<circle cx="288" cy="264" r="9" fill="rgb(201,255,255)"/>
<circle cx="312" cy="264" r="12" fill="rgb(191,255,255)" opacity="0.35"/>
<circle cx="312" cy="264" r="9" fill="rgb(191,255,255)"/>
<circle cx="336" cy="264" r="12" fill="rgb(199,255,255)" opacity="0.35"/>
<circle cx="336" cy="264" r="9" fill="rgb(199,255,255)"/>
<circle cx="360" cy="264" r="12" fill="rgb(183,255,255)" opacity="0.35"/>
<circle cx="360" cy="264" r="9" fill="rgb(183,255,255)"/>
<circle cx="384" cy="264" r="12" fill="rgb(255,255,255)" opacity="0.35"/>
<circle cx="384" cy="264" r="9" fill="rgb(255,255,255)"/>
<circle cx="24" cy="288" r="12" fill="rgb(141,34,251)" opacity="0.35"/>
<circle cx="24" cy="288" r="9" fill="rgb(141,34,251)"/>
<circle cx="48" cy="288" r="12" fill="rgb(112,48,252)" opacity="0.35"/>
<circle cx="48" cy="288" r="9" fill="rgb(112,48,252)"/>
<circle cx="72" cy="288" r="12" fill="rgb(123,43,252)" opacity="0.35"/>
<circle cx="72" cy="288" r="9" fill="rgb(123,43,252)"/>
<circle cx="96" cy="288" r="12" fill="rgb(255,43,255)" opacity="0.35"/>
<circle cx="96" cy="288" r="9" fill="rgb(255,43,255)"/>
<circle cx="120" cy="288" r="12" fill="rgb(255,65,176)" opacity="0.35"/>
<circle cx="120" cy="288" r="9" fill="rgb(255,65,176)"/>
<circle cx="144" cy="288" r="12" fill="rgb(255,139,176)" opacity="0.35"/>
<circle cx="144" cy="288" r="9" fill="rgb(255,139,176)"/>
<circle cx="168" cy="288" r="12" fill="rgb(255,207,255)" opacity="0.35"/>
<circle cx="168" cy="288" r="9" fill="rgb(255,207,255)"/>
<circle cx="192" cy="288" r="12" fill="rgb(255,255,148)" opacity="0.35"/>
<circle cx="192" cy="288" r="9" fill="rgb(255,255,148)"/>
<circle cx="216" cy="288" r="12" fill="rgb(255,255,199)" opacity="0.35"/>
<circle cx="216" cy="288" r="9" fill="rgb(255,255,199)"/>
<circle cx="240" cy="288" r="12" fill="rgb(255,255,255)" opacity="0.35"/>
<circle cx="240" cy="288" r="9" fill="rgb(255,255,255)"/>
<circle cx="264" cy="288" r="12" fill="rgb(255,255,255)" opacity="0.35"/>
<circle cx="264" cy="288" r="9" fill="rgb(255,255,255)"/>
<circle cx="288" cy="288" r="12" fill="rgb(182,255,255)" opacity="0.35"/>
<circle cx="288" cy="288" r="9" fill="rgb(182,255,255)"/>
<circle cx="312" cy="288" r="12" fill="rgb(218,255,255)" opacity="0.35"/>
<circle cx="312" cy="288" r="9" fill="rgb(218,255,255)"/>
<circle cx="336" cy="288" r="12" fill="rgb(201,255,255)" opacity="0.35"/>
<circle cx="336" cy="288" r="9" fill="rgb(201,255,255)"/>
<circle cx="360" cy="288" r="12" fill="rgb(128,255,255)" opacity="0.35"/>
<circle cx="360" cy="288" r="9" fill="rgb(128,255,255)"/>
<circle cx="384" cy="288" r="12" fill="rgb(185,255,255)" opacity="0.35"/>
<circle cx="384" cy="288" r="9" fill="rgb(185,255,255)"/>
<circle cx="24" cy="312" r="12" fill="rgb(188,12,250)" opacity="0.35"/>
<circle cx="24" cy="312" r="9" fill="rgb(188,12,250)"/>
<circle cx="48" cy="312" r="12" fill="rgb(158,26,251)" opacity="0.35"/>
<circle cx="48" cy="312" r="9" fill="rgb(158,26,251)"/>
<circle cx="72" cy="312" r="12" fill="rgb(167,22,250)" opacity="0.35"/>
<circle cx="72" cy="312" r="9" fill="rgb(167,22,250)"/>
<circle cx="96" cy="312" r="12" fill="rgb(255,8,175)" opacity="0.35"/>
<circle cx="96" cy="312" r="9" fill="rgb(255,8,175)"/>
<circle cx="120" cy="312" r="12" fill="rgb(255,76,176)" opacity="0.35"/>
<circle cx="120" cy="312" r="9" fill="rgb(255,76,176)"/>
<circle cx="144" cy="312" r="12" fill="rgb(255,145,175)" opacity="0.35"/>
<circle cx="144" cy="312" r="9" fill="rgb(255,145,175)"/>
<circle cx="168" cy="312" r="12" fill="rgb(255,197,122)" opacity="0.35"/>
<circle cx="168" cy="312" r="9" fill="rgb(255,197,122)"/>
<circle cx="192" cy="312" r="12" fill="rgb(255,255,159)" opacity="0.35"/>
<circle cx="192" cy="312" r="9" fill="rgb(255,255,159)"/>
<circle cx="216" cy="312" r="12" fill="rgb(255,255,210)" opacity="0.35"/>
<circle cx="216" cy="312" r="9" fill="rgb(255,255,210)"/>
<circle cx="240" cy="312" r="12" fill="rgb(255,255,253)" opacity="0.35"/>
<circle cx="240" cy="312" r="9" fill="rgb(255,255,253)"/>
<circle cx="264" cy="312" r="12" fill="rgb(255,255,255)" opacity="0.35"/>
<circle cx="264" cy="312" r="9" fill="rgb(255,255,255)"/>
<circle cx="288" cy="312" r="12" fill="rgb(182,255,255)" opacity="0.35"/>
<circle cx="288" cy="312" r="9" fill="rgb(182,255,255)"/>
<circle cx="312" cy="312" r="12" fill="rgb(255,255,255)" opacity="0.35"/>
<circle cx="312" cy="312" r="9" fill="rgb(255,255,255)"/>
<circle cx="336" cy="312" r="12" fill="rgb(196,255,255)" opacity="0.35"/>
<circle cx="336" cy="312" r="9" fill="rgb(196,255,255)"/>
<circle cx="360" cy="312" r="12" fill="rgb(127,255,255)" opacity="0.35"/>
<circle cx="360" cy="312" r="9" fill="rgb(127,255,255)"/>
<circle cx="384" cy="312" r="12" fill="rgb(180,255,255)" opacity="0.35"/>
<circle cx="384" cy="312" r="9" fill="rgb(180,255,255)"/>
<circle cx="24" cy="336" r="12" fill="rgb(255,13,0)" opacity="0.35"/>
<circle cx="24" cy="336" r="9" fill="rgb(255,13,0)"/>
<circle cx="48" cy="336" r="12" fill="rgb(200,6,249)" opacity="0.35"/>
<circle cx="48" cy="336" r="9" fill="rgb(200,6,249)"/>
<circle cx="72" cy="336" r="12" fill="rgb(206,3,249)" opacity="0.35"/>
<circle cx="72" cy="336" r="9" fill="rgb(206,3,249)"/>
<circle cx="96" cy="336" r="12" fill="rgb(255,35,0)" opacity="0.35"/>
<circle cx="96" cy="336" r="9" fill="rgb(255,35,0)"/>
<circle cx="120" cy="336" r="12" fill="rgb(255,83,174)" opacity="0.35"/>
<circle cx="120" cy="336" r="9" fill="rgb(255,83,174)"/>
<circle cx="144" cy="336" r="12" fill="rgb(255,143,174)" opacity="0.35"/>
<circle cx="144" cy="336" r="9" fill="rgb(255,143,174)"/>
<circle cx="168" cy="336" r="12" fill="rgb(255,224,0)" opacity="0.35"/>
<circle cx="168" cy="336" r="9" fill="rgb(255,224,0)"/>
<circle cx="192" cy="336" r="12" fill="rgb(255,255,163)" opacity="0.35"/>
<circle cx="192" cy="336" r="9" fill="rgb(255,255,163)"/>
<circle cx="216" cy="336" r="12" fill="rgb(255,255,217)" opacity="0.35"/>
<circle cx="216" cy="336" r="9" fill="rgb(255,255,217)"/>
<circle cx="240" cy="336" r="12" fill="rgb(255,255,174)" opacity="0.35"/>
<circle cx="240" cy="336" r="9" fill="rgb(255,255,174)"/>
<circle cx="264" cy="336" r="12" fill="rgb(255,255,255)" opacity="0.35"/>
<circle cx="264" cy="336" r="9" fill="rgb(255,255,255)"/>
<circle cx="288" cy="336" r="12" fill="rgb(196,255,255)" opacity="0.35"/>
<circle cx="288" cy="336" r="9" fill="rgb(196,255,255)"/>
<circle cx="312" cy="336" r="12" fill="rgb(255,255,255)" opacity="0.35"/>
<circle cx="312" cy="336" r="9" fill="rgb(255,255,255)"/>
<circle cx="336" cy="336" r="12" fill="rgb(198,255,255)" opacity="0.35"/>
<circle cx="336" cy="336" r="9" fill="rgb(198,255,255)"/>
<circle cx="360" cy="336" r="12" fill="rgb(136,255,255)" opacity="0.35"/>
<circle cx="360" cy="336" r="9" fill="rgb(136,255,255)"/>
<circle cx="384" cy="336" r="12" fill="rgb(191,255,255)" opacity="0.35"/>
<circle cx="384" cy="336" r="9" fill="rgb(191,255,255)"/>
<circle cx="24" cy="360" r="12" fill="rgb(255,42,0)" opacity="0.35"/>
<circle cx="24" cy="360" r="9" fill="rgb(255,42,0)"/>
<circle cx="48" cy="360" r="12" fill="rgb(255,18,0)" opacity="0.35"/>
<circle cx="48" cy="360" r="9" fill="rgb(255,18,0)"/>
<circle cx="72" cy="360" r="12" fill="rgb(255,20,0)" opacity="0.35"/>
<circle cx="72" cy="360" r="9" fill="rgb(255,20,0)"/>
<circle cx="96" cy="360" r="12" fill="rgb(255,75,0)" opacity="0.35"/>
<circle cx="96" cy="360" r="9" fill="rgb(255,75,0)"/>
<circle cx="120" cy="360" r="12" fill="rgb(255,107,0)" opacity="0.35"/>
<circle cx="120" cy="360" r="9" fill="rgb(255,107,0)"/>
<circle cx="144" cy="360" r="12" fill="rgb(255,163,0)" opacity="0.35"/>
<circle cx="144" cy="360" r="9" fill="rgb(255,163,0)"/>
<circle cx="168" cy="360" r="12" fill="rgb(255,255,0)" opacity="0.35"/>
<circle cx="168" cy="360" r="9" fill="rgb(255,255,0)"/>
<circle cx="192" cy="360" r="12" fill="rgb(255,255,41)" opacity="0.35"/>
<circle cx="192" cy="360" r="9" fill="rgb(255,255,41)"/>
<circle cx="216" cy="360" r="12" fill="rgb(255,255,91)" opacity="0.35"/>
<circle cx="216" cy="360" r="9" fill="rgb(255,255,91)"/>
<circle cx="240" cy="360" r="12" fill="rgb(255,255,169)" opacity="0.35"/>
<circle cx="240" cy="360" r="9" fill="rgb(255,255,169)"/>
<circle cx="264" cy="360" r="12" fill="rgb(255,255,252)" opacity="0.35"/>
<circle cx="264" cy="360" r="9" fill="rgb(255,255,252)"/>
<circle cx="288" cy="360" r="12" fill="rgb(212,255,255)" opacity="0.35"/>
<circle cx="288" cy="360" r="9" fill="rgb(212,255,255)"/>
<circle cx="312" cy="360" r="12" fill="rgb(255,255,255)" opacity="0.35"/>
<circle cx="312" cy="360" r="9" fill="rgb(255,255,255)"/>
<circle cx="336" cy="360" r="12" fill="rgb(211,255,255)" opacity="0.35"/>
<circle cx="336" cy="360" r="9" fill="rgb(211,255,255)"/>
<circle cx="360" cy="360" r="12" fill="rgb(148,255,255)" opacity="0.35"/>
<circle cx="360" cy="360" r="9" fill="rgb(148,255,255)"/>
<circle cx="384" cy="360" r="12" fill="rgb(191,255,255)" opacity="0.35"/>
<circle cx="384" cy="360" r="9" fill="rgb(191,255,255)"/>
<circle cx="24" cy="384" r="12" fill="rgb(255,66,0)" opacity="0.35"/>
<circle cx="24" cy="384" r="9" fill="rgb(255,66,0)"/>
<circle cx="48" cy="384" r="12" fill="rgb(255,42,0)" opacity="0.35"/>
<circle cx="48" cy="384" r="9" fill="rgb(255,42,0)"/>
<circle cx="72" cy="384" r="12" fill="rgb(255,41,0)" opacity="0.35"/>
<circle cx="72" cy="384" r="9" fill="rgb(255,41,0)"/>
<circle cx="96" cy="384" r="12" fill="rgb(255,109,0)" opacity="0.35"/>
<circle cx="96" cy="384" r="9" fill="rgb(255,109,0)"/>
<circle cx="120" cy="384" r="12" fill="rgb(255,135,0)" opacity="0.35"/>
<circle cx="120" cy="384" r="9" fill="rgb(255,135,0)"/>
<circle cx="144" cy="384" r="12" fill="rgb(255,182,0)" opacity="0.35"/>
<circle cx="144" cy="384" r="9" fill="rgb(255,182,0)"/>
<circle cx="168" cy="384" r="12" fill="rgb(255,255,0)" opacity="0.35"/>
<circle cx="168" cy="384" r="9" fill="rgb(255,255,0)"/>
<circle cx="192" cy="384" r="12" fill="rgb(255,255,38)" opacity="0.35"/>
<circle cx="192" cy="384" r="9" fill="rgb(255,255,38)"/>
<circle cx="216" cy="384" r="12" fill="rgb(255,255,81)" opacity="0.35"/>
<circle cx="216" cy="384" r="9" fill="rgb(255,255,81)"/>
<circle cx="240" cy="384" r="12" fill="rgb(255,255,153)" opacity="0.35"/>
<circle cx="240" cy="384" r="9" fill="rgb(255,255,153)"/>
<circle cx="264" cy="384" r="12" fill="rgb(255,255,234)" opacity="0.35"/>
<circle cx="264" cy="384" r="9" fill="rgb(255,255,234)"/>
<circle cx="288" cy="384" r="12" fill="rgb(216,255,255)" opacity="0.35"/>
<circle cx="288" cy="384" r="9" fill="rgb(216,255,255)"/>
<circle cx="312" cy="384" r="12" fill="rgb(255,255,255)" opacity="0.35"/>
<circle cx="312" cy="384" r="9" fill="rgb(255,255,255)"/>
<circle cx="336" cy="384" r="12" fill="rgb(217,255,255)" opacity="0.35"/>
<circle cx="336" cy="384" r="9" fill="rgb(217,255,255)"/>
<circle cx="360" cy="384" r="12" fill="rgb(151,255,255)" opacity="0.35"/>
<circle cx="360" cy="384" r="9" fill="rgb(151,255,255)"/>
<circle cx="384" cy="384" r="12" fill="rgb(191,255,255)" opacity="0.35"/>
<circle cx="384" cy="384" r="9" fill="rgb(191,255,255)"/>
</svg>
