<svg xmlns="http://www.w3.org/2000/svg" viewBox="0 0 408 408" width="408" height="408" role="img" aria-label="LED preview of the Audio Flow example graph">
<rect width="408" height="408" rx="10" fill="#05070a"/>
<circle cx="24" cy="24" r="12" fill="rgb(254,161,10)" opacity="0.35"/>
<circle cx="24" cy="24" r="9" fill="rgb(254,161,10)"/>
<circle cx="48" cy="24" r="12" fill="rgb(220,152,75)" opacity="0.35"/>
<circle cx="48" cy="24" r="9" fill="rgb(220,152,75)"/>
<circle cx="72" cy="24" r="12" fill="rgb(158,85,187)" opacity="0.35"/>
<circle cx="72" cy="24" r="9" fill="rgb(158,85,187)"/>
<circle cx="96" cy="24" r="12" fill="rgb(122,65,238)" opacity="0.35"/>
<circle cx="96" cy="24" r="9" fill="rgb(122,65,238)"/>
<circle cx="120" cy="24" r="12" fill="rgb(121,67,239)" opacity="0.35"/>
<circle cx="120" cy="24" r="9" fill="rgb(121,67,239)"/>
<circle cx="144" cy="24" r="12" fill="rgb(175,103,157)" opacity="0.35"/>
<circle cx="144" cy="24" r="9" fill="rgb(175,103,157)"/>
<circle cx="168" cy="24" r="12" fill="rgb(254,168,10)" opacity="0.35"/>
<circle cx="168" cy="24" r="9" fill="rgb(254,168,10)"/>
<circle cx="192" cy="24" r="12" fill="rgb(251,84,10)" opacity="0.35"/>
<circle cx="192" cy="24" r="9" fill="rgb(251,84,10)"/>
<circle cx="216" cy="24" r="12" fill="rgb(253,53,47)" opacity="0.35"/>
<circle cx="216" cy="24" r="9" fill="rgb(253,53,47)"/>
<circle cx="240" cy="24" r="12" fill="rgb(252,69,27)" opacity="0.35"/>
<circle cx="240" cy="24" r="9" fill="rgb(252,69,27)"/>
<circle cx="264" cy="24" r="12" fill="rgb(252,120,8)" opacity="0.35"/>
<circle cx="264" cy="24" r="9" fill="rgb(252,120,8)"/>
<circle cx="288" cy="24" r="12" fill="rgb(254,170,10)" opacity="0.35"/>
<circle cx="288" cy="24" r="9" fill="rgb(254,170,10)"/>
<circle cx="312" cy="24" r="12" fill="rgb(255,182,11)" opacity="0.35"/>
<circle cx="312" cy="24" r="9" fill="rgb(255,182,11)"/>
<circle cx="336" cy="24" r="12" fill="rgb(253,149,9)" opacity="0.35"/>
<circle cx="336" cy="24" r="9" fill="rgb(253,149,9)"/>
<circle cx="360" cy="24" r="12" fill="rgb(252,111,8)" opacity="0.35"/>
<circle cx="360" cy="24" r="9" fill="rgb(252,111,8)"/>
<circle cx="384" cy="24" r="12" fill="rgb(252,110,8)" opacity="0.35"/>
<circle cx="384" cy="24" r="9" fill="rgb(252,110,8)"/>
<circle cx="24" cy="48" r="12" fill="rgb(253,128,9)" opacity="0.35"/>
<circle cx="24" cy="48" r="9" fill="rgb(253,128,9)"/>
<circle cx="48" cy="48" r="12" fill="rgb(254,173,10)" opacity="0.35"/>
<circle cx="48" cy="48" r="9" fill="rgb(254,173,10)"/>
<circle cx="72" cy="48" r="12" fill="rgb(213,145,87)" opacity="0.35"/>
<circle cx="72" cy="48" r="9" fill="rgb(213,145,87)"/>
<circle cx="96" cy="48" r="12" fill="rgb(162,90,179)" opacity="0.35"/>
<circle cx="96" cy="48" r="9" fill="rgb(162,90,179)"/>
<circle cx="120" cy="48" r="12" fill="rgb(156,83,191)" opacity="0.35"/>
<circle cx="120" cy="48" r="9" fill="rgb(156,83,191)"/>
<circle cx="144" cy="48" r="12" fill="rgb(221,153,73)" opacity="0.35"/>
<circle cx="144" cy="48" r="9" fill="rgb(221,153,73)"/>
<circle cx="168" cy="48" r="12" fill="rgb(253,126,9)" opacity="0.35"/>
<circle cx="168" cy="48" r="9" fill="rgb(253,126,9)"/>
<circle cx="192" cy="48" r="12" fill="rgb(252,54,45)" opacity="0.35"/>
<circle cx="192" cy="48" r="9" fill="rgb(252,54,45)"/>
<circle cx="216" cy="48" r="12" fill="rgb(253,34,69)" opacity="0.35"/>
<circle cx="216" cy="48" r="9" fill="rgb(253,34,69)"/>
<circle cx="240" cy="48" r="12" fill="rgb(252,63,34)" opacity="0.35"/>
<circle cx="240" cy="48" r="9" fill="rgb(252,63,34)"/>
<circle cx="264" cy="48" r="12" fill="rgb(253,126,9)" opacity="0.35"/>
<circle cx="264" cy="48" r="9" fill="rgb(253,126,9)"/>
<circle cx="288" cy="48" r="12" fill="rgb(255,186,11)" opacity="0.35"/>
<circle cx="288" cy="48" r="9" fill="rgb(255,186,11)"/>
<circle cx="312" cy="48" r="12" fill="rgb(245,180,28)" opacity="0.35"/>
<circle cx="312" cy="48" r="9" fill="rgb(245,180,28)"/>
<circle cx="336" cy="48" r="12" fill="rgb(254,153,10)" opacity="0.35"/>
<circle cx="336" cy="48" r="9" fill="rgb(254,153,10)"/>
<circle cx="360" cy="48" r="12" fill="rgb(254,168,10)" opacity="0.35"/>
<circle cx="360" cy="48" r="9" fill="rgb(254,168,10)"/>
<circle cx="384" cy="48" r="12" fill="rgb(252,74,22)" opacity="0.35"/>
<circle cx="384" cy="48" r="9" fill="rgb(252,74,22)"/>
<circle cx="24" cy="72" r="12" fill="rgb(251,88,7)" opacity="0.35"/>
<circle cx="24" cy="72" r="9" fill="rgb(251,88,7)"/>
<circle cx="48" cy="72" r="12" fill="rgb(252,122,8)" opacity="0.35"/>
<circle cx="48" cy="72" r="9" fill="rgb(252,122,8)"/>
<circle cx="72" cy="72" r="12" fill="rgb(254,175,10)" opacity="0.35"/>
<circle cx="72" cy="72" r="9" fill="rgb(254,175,10)"/>
<circle cx="96" cy="72" r="12" fill="rgb(213,145,87)" opacity="0.35"/>
<circle cx="96" cy="72" r="9" fill="rgb(213,145,87)"/>
<circle cx="120" cy="72" r="12" fill="rgb(201,132,109)" opacity="0.35"/>
<circle cx="120" cy="72" r="9" fill="rgb(201,132,109)"/>
<circle cx="144" cy="72" r="12" fill="rgb(255,181,11)" opacity="0.35"/>
<circle cx="144" cy="72" r="9" fill="rgb(255,181,11)"/>
<circle cx="168" cy="72" r="12" fill="rgb(251,94,7)" opacity="0.35"/>
<circle cx="168" cy="72" r="9" fill="rgb(251,94,7)"/>
<circle cx="192" cy="72" r="12" fill="rgb(188,118,132)" opacity="0.35"/>
<circle cx="192" cy="72" r="9" fill="rgb(188,118,132)"/>
<circle cx="216" cy="72" r="12" fill="rgb(253,34,70)" opacity="0.35"/>
<circle cx="216" cy="72" r="9" fill="rgb(253,34,70)"/>
<circle cx="240" cy="72" r="12" fill="rgb(254,168,10)" opacity="0.35"/>
<circle cx="240" cy="72" r="9" fill="rgb(254,168,10)"/>
<circle cx="264" cy="72" r="12" fill="rgb(254,152,10)" opacity="0.35"/>
<circle cx="264" cy="72" r="9" fill="rgb(254,152,10)"/>
<circle cx="288" cy="72" r="12" fill="rgb(223,155,70)" opacity="0.35"/>
<circle cx="288" cy="72" r="9" fill="rgb(223,155,70)"/>
<circle cx="312" cy="72" r="12" fill="rgb(213,145,86)" opacity="0.35"/>
<circle cx="312" cy="72" r="9" fill="rgb(213,145,86)"/>
<circle cx="336" cy="72" r="12" fill="rgb(254,165,10)" opacity="0.35"/>
<circle cx="336" cy="72" r="9" fill="rgb(254,165,10)"/>
<circle cx="360" cy="72" r="12" fill="rgb(251,83,11)" opacity="0.35"/>
<circle cx="360" cy="72" r="9" fill="rgb(251,83,11)"/>
<circle cx="384" cy="72" r="12" fill="rgb(253,48,52)" opacity="0.35"/>
<circle cx="384" cy="72" r="9" fill="rgb(253,48,52)"/>
<circle cx="24" cy="96" r="12" fill="rgb(252,57,42)" opacity="0.35"/>
<circle cx="24" cy="96" r="9" fill="rgb(252,57,42)"/>
<circle cx="48" cy="96" r="12" fill="rgb(251,80,14)" opacity="0.35"/>
<circle cx="48" cy="96" r="9" fill="rgb(251,80,14)"/>
<circle cx="72" cy="96" r="12" fill="rgb(253,136,9)" opacity="0.35"/>
<circle cx="72" cy="96" r="9" fill="rgb(253,136,9)"/>
<circle cx="96" cy="96" r="12" fill="rgb(251,186,18)" opacity="0.35"/>
<circle cx="96" cy="96" r="9" fill="rgb(251,186,18)"/>
<circle cx="120" cy="96" r="12" fill="rgb(234,167,49)" opacity="0.35"/>
<circle cx="120" cy="96" r="9" fill="rgb(234,167,49)"/>
<circle cx="144" cy="96" r="12" fill="rgb(254,158,10)" opacity="0.35"/>
<circle cx="144" cy="96" r="9" fill="rgb(254,158,10)"/>
<circle cx="168" cy="96" r="12" fill="rgb(251,81,13)" opacity="0.35"/>
<circle cx="168" cy="96" r="9" fill="rgb(251,81,13)"/>
<circle cx="192" cy="96" r="12" fill="rgb(254,168,10)" opacity="0.35"/>
<circle cx="192" cy="96" r="9" fill="rgb(254,168,10)"/>
<circle cx="216" cy="96" r="12" fill="rgb(253,51,49)" opacity="0.35"/>
<circle cx="216" cy="96" r="9" fill="rgb(253,51,49)"/>
<circle cx="240" cy="96" r="12" fill="rgb(252,109,8)" opacity="0.35"/>
<circle cx="240" cy="96" r="9" fill="rgb(252,109,8)"/>
<circle cx="264" cy="96" r="12" fill="rgb(250,185,20)" opacity="0.35"/>
<circle cx="264" cy="96" r="9" fill="rgb(250,185,20)"/>
<circle cx="288" cy="96" r="12" fill="rgb(173,101,161)" opacity="0.35"/>
<circle cx="288" cy="96" r="9" fill="rgb(173,101,161)"/>
<circle cx="312" cy="96" r="12" fill="rgb(171,100,163)" opacity="0.35"/>
<circle cx="312" cy="96" r="9" fill="rgb(171,100,163)"/>
<circle cx="336" cy="96" r="12" fill="rgb(255,186,11)" opacity="0.35"/>
<circle cx="336" cy="96" r="9" fill="rgb(255,186,11)"/>
<circle cx="360" cy="96" r="12" fill="rgb(251,86,7)" opacity="0.35"/>
<circle cx="360" cy="96" r="9" fill="rgb(251,86,7)"/>
<circle cx="384" cy="96" r="12" fill="rgb(253,35,68)" opacity="0.35"/>
<circle cx="384" cy="96" r="9" fill="rgb(253,35,68)"/>
<circle cx="24" cy="120" r="12" fill="rgb(253,35,68)" opacity="0.35"/>
<circle cx="24" cy="120" r="9" fill="rgb(253,35,68)"/>
<circle cx="48" cy="120" r="12" fill="rgb(252,61,37)" opacity="0.35"/>
<circle cx="48" cy="120" r="9" fill="rgb(252,61,37)"/>
<circle cx="72" cy="120" r="12" fill="rgb(105,84,243)" opacity="0.35"/>
<circle cx="72" cy="120" r="9" fill="rgb(105,84,243)"/>
<circle cx="96" cy="120" r="12" fill="rgb(255,182,11)" opacity="0.35"/>
<circle cx="96" cy="120" r="9" fill="rgb(255,182,11)"/>
<circle cx="120" cy="120" r="12" fill="rgb(254,168,10)" opacity="0.35"/>
<circle cx="120" cy="120" r="9" fill="rgb(254,168,10)"/>
<circle cx="144" cy="120" r="12" fill="rgb(254,156,10)" opacity="0.35"/>
<circle cx="144" cy="120" r="9" fill="rgb(254,156,10)"/>
<circle cx="168" cy="120" r="12" fill="rgb(251,88,7)" opacity="0.35"/>
<circle cx="168" cy="120" r="9" fill="rgb(251,88,7)"/>
<circle cx="192" cy="120" r="12" fill="rgb(252,59,39)" opacity="0.35"/>
<circle cx="192" cy="120" r="9" fill="rgb(252,59,39)"/>
<circle cx="216" cy="120" r="12" fill="rgb(251,83,11)" opacity="0.35"/>
<circle cx="216" cy="120" r="9" fill="rgb(251,83,11)"/>
<circle cx="240" cy="120" r="12" fill="rgb(254,157,10)" opacity="0.35"/>
<circle cx="240" cy="120" r="9" fill="rgb(254,157,10)"/>
<circle cx="264" cy="120" r="12" fill="rgb(189,119,130)" opacity="0.35"/>
<circle cx="264" cy="120" r="9" fill="rgb(189,119,130)"/>
<circle cx="288" cy="120" r="12" fill="rgb(123,64,238)" opacity="0.35"/>
<circle cx="288" cy="120" r="9" fill="rgb(123,64,238)"/>
<circle cx="312" cy="120" r="12" fill="rgb(128,59,237)" opacity="0.35"/>
<circle cx="312" cy="120" r="9" fill="rgb(128,59,237)"/>
<circle cx="336" cy="120" r="12" fill="rgb(121,67,239)" opacity="0.35"/>
<circle cx="336" cy="120" r="9" fill="rgb(121,67,239)"/>
<circle cx="360" cy="120" r="12" fill="rgb(252,104,8)" opacity="0.35"/>
<circle cx="360" cy="120" r="9" fill="rgb(252,104,8)"/>
<circle cx="384" cy="120" r="12" fill="rgb(188,118,132)" opacity="0.35"/>
<circle cx="384" cy="120" r="9" fill="rgb(188,118,132)"/>
<circle cx="24" cy="144" r="12" fill="rgb(254,28,76)" opacity="0.35"/>
<circle cx="24" cy="144" r="9" fill="rgb(254,28,76)"/>
<circle cx="48" cy="144" r="12" fill="rgb(252,61,36)" opacity="0.35"/>
<circle cx="48" cy="144" r="9" fill="rgb(252,61,36)"/>
<circle cx="72" cy="144" r="12" fill="rgb(254,175,10)" opacity="0.35"/>
<circle cx="72" cy="144" r="9" fill="rgb(254,175,10)"/>
<circle cx="96" cy="144" r="12" fill="rgb(254,168,10)" opacity="0.35"/>
<circle cx="96" cy="144" r="9" fill="rgb(254,168,10)"/>
<circle cx="120" cy="144" r="12" fill="rgb(223,155,69)" opacity="0.35"/>
<circle cx="120" cy="144" r="9" fill="rgb(223,155,69)"/>
<circle cx="144" cy="144" r="12" fill="rgb(254,176,10)" opacity="0.35"/>
<circle cx="144" cy="144" r="9" fill="rgb(254,176,10)"/>
<circle cx="168" cy="144" r="12" fill="rgb(252,115,8)" opacity="0.35"/>
<circle cx="168" cy="144" r="9" fill="rgb(252,115,8)"/>
<circle cx="192" cy="144" r="12" fill="rgb(251,91,7)" opacity="0.35"/>
<circle cx="192" cy="144" r="9" fill="rgb(251,91,7)"/>
<circle cx="216" cy="144" r="12" fill="rgb(253,130,9)" opacity="0.35"/>
<circle cx="216" cy="144" r="9" fill="rgb(253,130,9)"/>
<circle cx="240" cy="144" r="12" fill="rgb(230,163,56)" opacity="0.35"/>
<circle cx="240" cy="144" r="9" fill="rgb(230,163,56)"/>
<circle cx="264" cy="144" r="12" fill="rgb(129,58,236)" opacity="0.35"/>
<circle cx="264" cy="144" r="9" fill="rgb(129,58,236)"/>
<circle cx="288" cy="144" r="12" fill="rgb(93,96,246)" opacity="0.35"/>
<circle cx="288" cy="144" r="9" fill="rgb(93,96,246)"/>
<circle cx="312" cy="144" r="12" fill="rgb(103,86,243)" opacity="0.35"/>
<circle cx="312" cy="144" r="9" fill="rgb(103,86,243)"/>
<circle cx="336" cy="144" r="12" fill="rgb(254,168,10)" opacity="0.35"/>
<circle cx="336" cy="144" r="9" fill="rgb(254,168,10)"/>
<circle cx="360" cy="144" r="12" fill="rgb(253,138,9)" opacity="0.35"/>
<circle cx="360" cy="144" r="9" fill="rgb(253,138,9)"/>
<circle cx="384" cy="144" r="12" fill="rgb(254,168,10)" opacity="0.35"/>
<circle cx="384" cy="144" r="9" fill="rgb(254,168,10)"/>
<circle cx="24" cy="168" r="12" fill="rgb(253,36,66)" opacity="0.35"/>
<circle cx="24" cy="168" r="9" fill="rgb(253,36,66)"/>
<circle cx="48" cy="168" r="12" fill="rgb(251,81,13)" opacity="0.35"/>
<circle cx="48" cy="168" r="9" fill="rgb(251,81,13)"/>
<circle cx="72" cy="168" r="12" fill="rgb(254,161,10)" opacity="0.35"/>
<circle cx="72" cy="168" r="9" fill="rgb(254,161,10)"/>
<circle cx="96" cy="168" r="12" fill="rgb(254,168,10)" opacity="0.35"/>
<circle cx="96" cy="168" r="9" fill="rgb(254,168,10)"/>
<circle cx="120" cy="168" r="12" fill="rgb(183,112,142)" opacity="0.35"/>
<circle cx="120" cy="168" r="9" fill="rgb(183,112,142)"/>
<circle cx="144" cy="168" r="12" fill="rgb(232,165,54)" opacity="0.35"/>
<circle cx="144" cy="168" r="9" fill="rgb(232,165,54)"/>
<circle cx="168" cy="168" r="12" fill="rgb(254,152,10)" opacity="0.35"/>
<circle cx="168" cy="168" r="9" fill="rgb(254,152,10)"/>
<circle cx="192" cy="168" r="12" fill="rgb(253,134,9)" opacity="0.35"/>
<circle cx="192" cy="168" r="9" fill="rgb(253,134,9)"/>
<circle cx="216" cy="168" r="12" fill="rgb(255,180,11)" opacity="0.35"/>
<circle cx="216" cy="168" r="9" fill="rgb(255,180,11)"/>
<circle cx="240" cy="168" r="12" fill="rgb(170,98,166)" opacity="0.35"/>
<circle cx="240" cy="168" r="9" fill="rgb(170,98,166)"/>
<circle cx="264" cy="168" r="12" fill="rgb(99,90,244)" opacity="0.35"/>
<circle cx="264" cy="168" r="9" fill="rgb(99,90,244)"/>
<circle cx="288" cy="168" r="12" fill="rgb(254,168,10)" opacity="0.35"/>
<circle cx="288" cy="168" r="9" fill="rgb(254,168,10)"/>
<circle cx="312" cy="168" r="12" fill="rgb(84,107,248)" opacity="0.35"/>
<circle cx="312" cy="168" r="9" fill="rgb(84,107,248)"/>
<circle cx="336" cy="168" r="12" fill="rgb(141,66,219)" opacity="0.35"/>
<circle cx="336" cy="168" r="9" fill="rgb(141,66,219)"/>
<circle cx="360" cy="168" r="12" fill="rgb(255,186,11)" opacity="0.35"/>
<circle cx="360" cy="168" r="9" fill="rgb(255,186,11)"/>
<circle cx="384" cy="168" r="12" fill="rgb(252,110,8)" opacity="0.35"/>
<circle cx="384" cy="168" r="9" fill="rgb(252,110,8)"/>
<circle cx="24" cy="192" r="12" fill="rgb(252,60,38)" opacity="0.35"/>
<circle cx="24" cy="192" r="9" fill="rgb(252,60,38)"/>
<circle cx="48" cy="192" r="12" fill="rgb(254,175,10)" opacity="0.35"/>
<circle cx="48" cy="192" r="9" fill="rgb(254,175,10)"/>
<circle cx="72" cy="192" r="12" fill="rgb(233,166,51)" opacity="0.35"/>
<circle cx="72" cy="192" r="9" fill="rgb(233,166,51)"/>
<circle cx="96" cy="192" r="12" fill="rgb(152,78,199)" opacity="0.35"/>
<circle cx="96" cy="192" r="9" fill="rgb(152,78,199)"/>
<circle cx="120" cy="192" r="12" fill="rgb(135,60,229)" opacity="0.35"/>
<circle cx="120" cy="192" r="9" fill="rgb(135,60,229)"/>
<circle cx="144" cy="192" r="12" fill="rgb(187,117,134)" opacity="0.35"/>
<circle cx="144" cy="192" r="9" fill="rgb(187,117,134)"/>
<circle cx="168" cy="192" r="12" fill="rgb(255,189,11)" opacity="0.35"/>
<circle cx="168" cy="192" r="9" fill="rgb(255,189,11)"/>
<circle cx="192" cy="192" r="12" fill="rgb(254,174,10)" opacity="0.35"/>
<circle cx="192" cy="192" r="9" fill="rgb(254,174,10)"/>
<circle cx="216" cy="192" r="12" fill="rgb(217,149,80)" opacity="0.35"/>
<circle cx="216" cy="192" r="9" fill="rgb(217,149,80)"/>
<circle cx="240" cy="192" r="12" fill="rgb(127,61,237)" opacity="0.35"/>
<circle cx="240" cy="192" r="9" fill="rgb(127,61,237)"/>
<circle cx="264" cy="192" r="12" fill="rgb(79,111,249)" opacity="0.35"/>
<circle cx="264" cy="192" r="9" fill="rgb(79,111,249)"/>
<circle cx="288" cy="192" r="12" fill="rgb(60,132,255)" opacity="0.35"/>
<circle cx="288" cy="192" r="9" fill="rgb(60,132,255)"/>
<circle cx="312" cy="192" r="12" fill="rgb(72,119,251)" opacity="0.35"/>
<circle cx="312" cy="192" r="9" fill="rgb(72,119,251)"/>
<circle cx="336" cy="192" r="12" fill="rgb(115,73,240)" opacity="0.35"/>
<circle cx="336" cy="192" r="9" fill="rgb(115,73,240)"/>
<circle cx="360" cy="192" r="12" fill="rgb(197,127,117)" opacity="0.35"/>
<circle cx="360" cy="192" r="9" fill="rgb(197,127,117)"/>
<circle cx="384" cy="192" r="12" fill="rgb(114,75,241)" opacity="0.35"/>
<circle cx="384" cy="192" r="9" fill="rgb(114,75,241)"/>
<circle cx="24" cy="216" r="12" fill="rgb(251,97,7)" opacity="0.35"/>
<circle cx="24" cy="216" r="9" fill="rgb(251,97,7)"/>
<circle cx="48" cy="216" r="12" fill="rgb(254,173,10)" opacity="0.35"/>
<circle cx="48" cy="216" r="9" fill="rgb(254,173,10)"/>
<circle cx="72" cy="216" r="12" fill="rgb(170,98,165)" opacity="0.35"/>
<circle cx="72" cy="216" r="9" fill="rgb(170,98,165)"/>
<circle cx="96" cy="216" r="12" fill="rgb(254,168,10)" opacity="0.35"/>
<circle cx="96" cy="216" r="9" fill="rgb(254,168,10)"/>
<circle cx="120" cy="216" r="12" fill="rgb(107,82,242)" opacity="0.35"/>
<circle cx="120" cy="216" r="9" fill="rgb(107,82,242)"/>
<circle cx="144" cy="216" r="12" fill="rgb(254,168,10)" opacity="0.35"/>
<circle cx="144" cy="216" r="9" fill="rgb(254,168,10)"/>
<circle cx="168" cy="216" r="12" fill="rgb(224,157,67)" opacity="0.35"/>
<circle cx="168" cy="216" r="9" fill="rgb(224,157,67)"/>
<circle cx="192" cy="216" r="12" fill="rgb(254,168,10)" opacity="0.35"/>
<circle cx="192" cy="216" r="9" fill="rgb(254,168,10)"/>
<circle cx="216" cy="216" r="12" fill="rgb(187,117,134)" opacity="0.35"/>
<circle cx="216" cy="216" r="9" fill="rgb(187,117,134)"/>
<circle cx="240" cy="216" r="12" fill="rgb(114,75,241)" opacity="0.35"/>
<circle cx="240" cy="216" r="9" fill="rgb(114,75,241)"/>
<circle cx="264" cy="216" r="12" fill="rgb(74,117,251)" opacity="0.35"/>
<circle cx="264" cy="216" r="9" fill="rgb(74,117,251)"/>
<circle cx="288" cy="216" r="12" fill="rgb(60,132,255)" opacity="0.35"/>
<circle cx="288" cy="216" r="9" fill="rgb(60,132,255)"/>
<circle cx="312" cy="216" r="12" fill="rgb(71,120,252)" opacity="0.35"/>
<circle cx="312" cy="216" r="9" fill="rgb(71,120,252)"/>
<circle cx="336" cy="216" r="12" fill="rgb(100,89,244)" opacity="0.35"/>
<circle cx="336" cy="216" r="9" fill="rgb(100,89,244)"/>
<circle cx="360" cy="216" r="12" fill="rgb(140,65,220)" opacity="0.35"/>
<circle cx="360" cy="216" r="9" fill="rgb(140,65,220)"/>
<circle cx="384" cy="216" r="12" fill="rgb(189,119,130)" opacity="0.35"/>
<circle cx="384" cy="216" r="9" fill="rgb(189,119,130)"/>
<circle cx="24" cy="240" r="12" fill="rgb(253,146,9)" opacity="0.35"/>
<circle cx="24" cy="240" r="9" fill="rgb(253,146,9)"/>
<circle cx="48" cy="240" r="12" fill="rgb(212,144,89)" opacity="0.35"/>
<circle cx="48" cy="240" r="9" fill="rgb(212,144,89)"/>
<circle cx="72" cy="240" r="12" fill="rgb(119,68,239)" opacity="0.35"/>
<circle cx="72" cy="240" r="9" fill="rgb(119,68,239)"/>
<circle cx="96" cy="240" r="12" fill="rgb(84,107,248)" opacity="0.35"/>
<circle cx="96" cy="240" r="9" fill="rgb(84,107,248)"/>
<circle cx="120" cy="240" r="12" fill="rgb(89,100,247)" opacity="0.35"/>
<circle cx="120" cy="240" r="9" fill="rgb(89,100,247)"/>
<circle cx="144" cy="240" r="12" fill="rgb(135,60,229)" opacity="0.35"/>
<circle cx="144" cy="240" r="9" fill="rgb(135,60,229)"/>
<circle cx="168" cy="240" r="12" fill="rgb(254,168,10)" opacity="0.35"/>
<circle cx="168" cy="240" r="9" fill="rgb(254,168,10)"/>
<circle cx="192" cy="240" r="12" fill="rgb(238,171,42)" opacity="0.35"/>
<circle cx="192" cy="240" r="9" fill="rgb(238,171,42)"/>
<circle cx="216" cy="240" r="12" fill="rgb(187,117,134)" opacity="0.35"/>
<circle cx="216" cy="240" r="9" fill="rgb(187,117,134)"/>
<circle cx="240" cy="240" r="12" fill="rgb(118,70,239)" opacity="0.35"/>
<circle cx="240" cy="240" r="9" fill="rgb(118,70,239)"/>
<circle cx="264" cy="240" r="12" fill="rgb(254,168,10)" opacity="0.35"/>
<circle cx="264" cy="240" r="9" fill="rgb(254,168,10)"/>
<circle cx="288" cy="240" r="12" fill="rgb(72,119,251)" opacity="0.35"/>
<circle cx="288" cy="240" r="9" fill="rgb(72,119,251)"/>
<circle cx="312" cy="240" r="12" fill="rgb(105,84,243)" opacity="0.35"/>
<circle cx="312" cy="240" r="9" fill="rgb(105,84,243)"/>
<circle cx="336" cy="240" r="12" fill="rgb(97,93,245)" opacity="0.35"/>
<circle cx="336" cy="240" r="9" fill="rgb(97,93,245)"/>
<circle cx="360" cy="240" r="12" fill="rgb(113,75,241)" opacity="0.35"/>
<circle cx="360" cy="240" r="9" fill="rgb(113,75,241)"/>
<circle cx="384" cy="240" r="12" fill="rgb(127,60,237)" opacity="0.35"/>
<circle cx="384" cy="240" r="9" fill="rgb(127,60,237)"/>
<circle cx="24" cy="264" r="12" fill="rgb(251,186,18)" opacity="0.35"/>
<circle cx="24" cy="264" r="9" fill="rgb(251,186,18)"/>
<circle cx="48" cy="264" r="12" fill="rgb(157,84,189)" opacity="0.35"/>
<circle cx="48" cy="264" r="9" fill="rgb(157,84,189)"/>
<circle cx="72" cy="264" r="12" fill="rgb(93,97,246)" opacity="0.35"/>
<circle cx="72" cy="264" r="9" fill="rgb(93,97,246)"/>
<circle cx="96" cy="264" r="12" fill="rgb(67,124,253)" opacity="0.35"/>
<circle cx="96" cy="264" r="9" fill="rgb(67,124,253)"/>
<circle cx="120" cy="264" r="12" fill="rgb(254,168,10)" opacity="0.35"/>
<circle cx="120" cy="264" r="9" fill="rgb(254,168,10)"/>
<circle cx="144" cy="264" r="12" fill="rgb(144,70,212)" opacity="0.35"/>
<circle cx="144" cy="264" r="9" fill="rgb(144,70,212)"/>
<circle cx="168" cy="264" r="12" fill="rgb(234,167,49)" opacity="0.35"/>
<circle cx="168" cy="264" r="9" fill="rgb(234,167,49)"/>
<circle cx="192" cy="264" r="12" fill="rgb(255,185,11)" opacity="0.35"/>
<circle cx="192" cy="264" r="9" fill="rgb(255,185,11)"/>
<circle cx="216" cy="264" r="12" fill="rgb(217,149,80)" opacity="0.35"/>
<circle cx="216" cy="264" r="9" fill="rgb(217,149,80)"/>
<circle cx="240" cy="264" r="12" fill="rgb(148,74,206)" opacity="0.35"/>
<circle cx="240" cy="264" r="9" fill="rgb(148,74,206)"/>
<circle cx="264" cy="264" r="12" fill="rgb(169,97,166)" opacity="0.35"/>
<circle cx="264" cy="264" r="9" fill="rgb(169,97,166)"/>
<circle cx="288" cy="264" r="12" fill="rgb(95,95,245)" opacity="0.35"/>
<circle cx="288" cy="264" r="9" fill="rgb(95,95,245)"/>
<circle cx="312" cy="264" r="12" fill="rgb(105,84,243)" opacity="0.35"/>
<circle cx="312" cy="264" r="9" fill="rgb(105,84,243)"/>
<circle cx="336" cy="264" r="12" fill="rgb(103,85,243)" opacity="0.35"/>
<circle cx="336" cy="264" r="9" fill="rgb(103,85,243)"/>
<circle cx="360" cy="264" r="12" fill="rgb(105,84,243)" opacity="0.35"/>
<circle cx="360" cy="264" r="9" fill="rgb(105,84,243)"/>
<circle cx="384" cy="264" r="12" fill="rgb(107,82,242)" opacity="0.35"/>
<circle cx="384" cy="264" r="9" fill="rgb(107,82,242)"/>
<circle cx="24" cy="288" r="12" fill="rgb(209,140,95)" opacity="0.35"/>
<circle cx="24" cy="288" r="9" fill="rgb(209,140,95)"/>
<circle cx="48" cy="288" r="12" fill="rgb(124,63,238)" opacity="0.35"/>
<circle cx="48" cy="288" r="9" fill="rgb(124,63,238)"/>
<circle cx="72" cy="288" r="12" fill="rgb(79,112,250)" opacity="0.35"/>
<circle cx="72" cy="288" r="9" fill="rgb(79,112,250)"/>
<circle cx="96" cy="288" r="12" fill="rgb(66,125,253)" opacity="0.35"/>
<circle cx="96" cy="288" r="9" fill="rgb(66,125,253)"/>
<circle cx="120" cy="288" r="12" fill="rgb(97,92,245)" opacity="0.35"/>
<circle cx="120" cy="288" r="9" fill="rgb(97,92,245)"/>
<circle cx="144" cy="288" r="12" fill="rgb(178,106,151)" opacity="0.35"/>
<circle cx="144" cy="288" r="9" fill="rgb(178,106,151)"/>
<circle cx="168" cy="288" r="12" fill="rgb(254,175,10)" opacity="0.35"/>
<circle cx="168" cy="288" r="9" fill="rgb(254,175,10)"/>
<circle cx="192" cy="288" r="12" fill="rgb(254,168,10)" opacity="0.35"/>
<circle cx="192" cy="288" r="9" fill="rgb(254,168,10)"/>
<circle cx="216" cy="288" r="12" fill="rgb(255,180,11)" opacity="0.35"/>
<circle cx="216" cy="288" r="9" fill="rgb(255,180,11)"/>
<circle cx="240" cy="288" r="12" fill="rgb(254,168,10)" opacity="0.35"/>
<circle cx="240" cy="288" r="9" fill="rgb(254,168,10)"/>
<circle cx="264" cy="288" r="12" fill="rgb(152,79,198)" opacity="0.35"/>
<circle cx="264" cy="288" r="9" fill="rgb(152,79,198)"/>
<circle cx="288" cy="288" r="12" fill="rgb(126,62,237)" opacity="0.35"/>
<circle cx="288" cy="288" r="9" fill="rgb(126,62,237)"/>
<circle cx="312" cy="288" r="12" fill="rgb(121,67,239)" opacity="0.35"/>
<circle cx="312" cy="288" r="9" fill="rgb(121,67,239)"/>
<circle cx="336" cy="288" r="12" fill="rgb(119,69,239)" opacity="0.35"/>
<circle cx="336" cy="288" r="9" fill="rgb(119,69,239)"/>
<circle cx="360" cy="288" r="12" fill="rgb(111,77,241)" opacity="0.35"/>
<circle cx="360" cy="288" r="9" fill="rgb(111,77,241)"/>
<circle cx="384" cy="288" r="12" fill="rgb(106,82,242)" opacity="0.35"/>
<circle cx="384" cy="288" r="9" fill="rgb(106,82,242)"/>
<circle cx="24" cy="312" r="12" fill="rgb(192,122,125)" opacity="0.35"/>
<circle cx="24" cy="312" r="9" fill="rgb(192,122,125)"/>
<circle cx="48" cy="312" r="12" fill="rgb(119,69,239)" opacity="0.35"/>
<circle cx="48" cy="312" r="9" fill="rgb(119,69,239)"/>
<circle cx="72" cy="312" r="12" fill="rgb(81,109,249)" opacity="0.35"/>
<circle cx="72" cy="312" r="9" fill="rgb(81,109,249)"/>
<circle cx="96" cy="312" r="12" fill="rgb(80,111,249)" opacity="0.35"/>
<circle cx="96" cy="312" r="9" fill="rgb(80,111,249)"/>
<circle cx="120" cy="312" r="12" fill="rgb(121,67,239)" opacity="0.35"/>
<circle cx="120" cy="312" r="9" fill="rgb(121,67,239)"/>
<circle cx="144" cy="312" r="12" fill="rgb(225,157,66)" opacity="0.35"/>
<circle cx="144" cy="312" r="9" fill="rgb(225,157,66)"/>
<circle cx="168" cy="312" r="12" fill="rgb(253,136,9)" opacity="0.35"/>
<circle cx="168" cy="312" r="9" fill="rgb(253,136,9)"/>
<circle cx="192" cy="312" r="12" fill="rgb(252,109,8)" opacity="0.35"/>
<circle cx="192" cy="312" r="9" fill="rgb(252,109,8)"/>
<circle cx="216" cy="312" r="12" fill="rgb(253,134,9)" opacity="0.35"/>
<circle cx="216" cy="312" r="9" fill="rgb(253,134,9)"/>
<circle cx="240" cy="312" r="12" fill="rgb(255,179,11)" opacity="0.35"/>
<circle cx="240" cy="312" r="9" fill="rgb(255,179,11)"/>
<circle cx="264" cy="312" r="12" fill="rgb(215,147,83)" opacity="0.35"/>
<circle cx="264" cy="312" r="9" fill="rgb(215,147,83)"/>
<circle cx="288" cy="312" r="12" fill="rgb(178,107,150)" opacity="0.35"/>
<circle cx="288" cy="312" r="9" fill="rgb(178,107,150)"/>
<circle cx="312" cy="312" r="12" fill="rgb(159,87,185)" opacity="0.35"/>
<circle cx="312" cy="312" r="9" fill="rgb(159,87,185)"/>
<circle cx="336" cy="312" r="12" fill="rgb(146,72,210)" opacity="0.35"/>
<circle cx="336" cy="312" r="9" fill="rgb(146,72,210)"/>
<circle cx="360" cy="312" r="12" fill="rgb(129,58,236)" opacity="0.35"/>
<circle cx="360" cy="312" r="9" fill="rgb(129,58,236)"/>
<circle cx="384" cy="312" r="12" fill="rgb(124,64,238)" opacity="0.35"/>
<circle cx="384" cy="312" r="9" fill="rgb(124,64,238)"/>
<circle cx="24" cy="336" r="12" fill="rgb(206,137,100)" opacity="0.35"/>
<circle cx="24" cy="336" r="9" fill="rgb(206,137,100)"/>
<circle cx="48" cy="336" r="12" fill="rgb(132,58,233)" opacity="0.35"/>
<circle cx="48" cy="336" r="9" fill="rgb(132,58,233)"/>
<circle cx="72" cy="336" r="12" fill="rgb(101,88,244)" opacity="0.35"/>
<circle cx="72" cy="336" r="9" fill="rgb(101,88,244)"/>
<circle cx="96" cy="336" r="12" fill="rgb(106,83,243)" opacity="0.35"/>
<circle cx="96" cy="336" r="9" fill="rgb(106,83,243)"/>
<circle cx="120" cy="336" r="12" fill="rgb(165,92,175)" opacity="0.35"/>
<circle cx="120" cy="336" r="9" fill="rgb(165,92,175)"/>
<circle cx="144" cy="336" r="12" fill="rgb(254,176,10)" opacity="0.35"/>
<circle cx="144" cy="336" r="9" fill="rgb(254,176,10)"/>
<circle cx="168" cy="336" r="12" fill="rgb(252,104,8)" opacity="0.35"/>
<circle cx="168" cy="336" r="9" fill="rgb(252,104,8)"/>
<circle cx="192" cy="336" r="12" fill="rgb(251,81,13)" opacity="0.35"/>
<circle cx="192" cy="336" r="9" fill="rgb(251,81,13)"/>
<circle cx="216" cy="336" r="12" fill="rgb(251,98,7)" opacity="0.35"/>
<circle cx="216" cy="336" r="9" fill="rgb(251,98,7)"/>
<circle cx="240" cy="336" r="12" fill="rgb(253,136,9)" opacity="0.35"/>
<circle cx="240" cy="336" r="9" fill="rgb(253,136,9)"/>
<circle cx="264" cy="336" r="12" fill="rgb(254,168,10)" opacity="0.35"/>
<circle cx="264" cy="336" r="9" fill="rgb(254,168,10)"/>
<circle cx="288" cy="336" r="12" fill="rgb(228,161,60)" opacity="0.35"/>
<circle cx="288" cy="336" r="9" fill="rgb(228,161,60)"/>
<circle cx="312" cy="336" r="12" fill="rgb(204,135,104)" opacity="0.35"/>
<circle cx="312" cy="336" r="9" fill="rgb(204,135,104)"/>
<circle cx="336" cy="336" r="12" fill="rgb(188,118,132)" opacity="0.35"/>
<circle cx="336" cy="336" r="9" fill="rgb(188,118,132)"/>
<circle cx="360" cy="336" r="12" fill="rgb(175,103,157)" opacity="0.35"/>
<circle cx="360" cy="336" r="9" fill="rgb(175,103,157)"/>
<circle cx="384" cy="336" r="12" fill="rgb(169,97,166)" opacity="0.35"/>
<circle cx="384" cy="336" r="9" fill="rgb(169,97,166)"/>
<circle cx="24" cy="360" r="12" fill="rgb(246,181,27)" opacity="0.35"/>
<circle cx="24" cy="360" r="9" fill="rgb(246,181,27)"/>
<circle cx="48" cy="360" r="12" fill="rgb(181,111,144)" opacity="0.35"/>
<circle cx="48" cy="360" r="9" fill="rgb(181,111,144)"/>
<circle cx="72" cy="360" r="12" fill="rgb(135,60,229)" opacity="0.35"/>
<circle cx="72" cy="360" r="9" fill="rgb(135,60,229)"/>
<circle cx="96" cy="360" r="12" fill="rgb(144,70,212)" opacity="0.35"/>
<circle cx="96" cy="360" r="9" fill="rgb(144,70,212)"/>
<circle cx="120" cy="360" r="12" fill="rgb(214,145,86)" opacity="0.35"/>
<circle cx="120" cy="360" r="9" fill="rgb(214,145,86)"/>
<circle cx="144" cy="360" r="12" fill="rgb(253,147,9)" opacity="0.35"/>
<circle cx="144" cy="360" r="9" fill="rgb(253,147,9)"/>
<circle cx="168" cy="360" r="12" fill="rgb(251,90,7)" opacity="0.35"/>
<circle cx="168" cy="360" r="9" fill="rgb(251,90,7)"/>
<circle cx="192" cy="360" r="12" fill="rgb(252,74,22)" opacity="0.35"/>
<circle cx="192" cy="360" r="9" fill="rgb(252,74,22)"/>
<circle cx="216" cy="360" r="12" fill="rgb(251,84,10)" opacity="0.35"/>
<circle cx="216" cy="360" r="9" fill="rgb(251,84,10)"/>
<circle cx="240" cy="360" r="12" fill="rgb(252,115,8)" opacity="0.35"/>
<circle cx="240" cy="360" r="9" fill="rgb(252,115,8)"/>
<circle cx="264" cy="360" r="12" fill="rgb(254,153,10)" opacity="0.35"/>
<circle cx="264" cy="360" r="9" fill="rgb(254,153,10)"/>
<circle cx="288" cy="360" r="12" fill="rgb(255,183,11)" opacity="0.35"/>
<circle cx="288" cy="360" r="9" fill="rgb(255,183,11)"/>
<circle cx="312" cy="360" r="12" fill="rgb(242,176,34)" opacity="0.35"/>
<circle cx="312" cy="360" r="9" fill="rgb(242,176,34)"/>
<circle cx="336" cy="360" r="12" fill="rgb(235,168,48)" opacity="0.35"/>
<circle cx="336" cy="360" r="9" fill="rgb(235,168,48)"/>
<circle cx="360" cy="360" r="12" fill="rgb(254,168,10)" opacity="0.35"/>
<circle cx="360" cy="360" r="9" fill="rgb(254,168,10)"/>
<circle cx="384" cy="360" r="12" fill="rgb(232,165,53)" opacity="0.35"/>
<circle cx="384" cy="360" r="9" fill="rgb(232,165,53)"/>
<circle cx="24" cy="384" r="12" fill="rgb(254,152,10)" opacity="0.35"/>
<circle cx="24" cy="384" r="9" fill="rgb(254,152,10)"/>
<circle cx="48" cy="384" r="12" fill="rgb(244,178,31)" opacity="0.35"/>
<circle cx="48" cy="384" r="9" fill="rgb(244,178,31)"/>
<circle cx="72" cy="384" r="12" fill="rgb(200,130,111)" opacity="0.35"/>
<circle cx="72" cy="384" r="9" fill="rgb(200,130,111)"/>
<circle cx="96" cy="384" r="12" fill="rgb(200,131,110)" opacity="0.35"/>
<circle cx="96" cy="384" r="9" fill="rgb(200,131,110)"/>
<circle cx="120" cy="384" r="12" fill="rgb(250,184,21)" opacity="0.35"/>
<circle cx="120" cy="384" r="9" fill="rgb(250,184,21)"/>
<circle cx="144" cy="384" r="12" fill="rgb(253,138,9)" opacity="0.35"/>
<circle cx="144" cy="384" r="9" fill="rgb(253,138,9)"/>
<circle cx="168" cy="384" r="12" fill="rgb(251,99,7)" opacity="0.35"/>
<circle cx="168" cy="384" r="9" fill="rgb(251,99,7)"/>
<circle cx="192" cy="384" r="12" fill="rgb(251,86,7)" opacity="0.35"/>
<circle cx="192" cy="384" r="9" fill="rgb(251,86,7)"/>
<circle cx="216" cy="384" r="12" fill="rgb(251,94,7)" opacity="0.35"/>
<circle cx="216" cy="384" r="9" fill="rgb(251,94,7)"/>
<circle cx="240" cy="384" r="12" fill="rgb(252,118,8)" opacity="0.35"/>
<circle cx="240" cy="384" r="9" fill="rgb(252,118,8)"/>
<circle cx="264" cy="384" r="12" fill="rgb(253,147,9)" opacity="0.35"/>
<circle cx="264" cy="384" r="9" fill="rgb(253,147,9)"/>
<circle cx="288" cy="384" r="12" fill="rgb(254,168,10)" opacity="0.35"/>
<circle cx="288" cy="384" r="9" fill="rgb(254,168,10)"/>
<circle cx="312" cy="384" r="12" fill="rgb(254,175,10)" opacity="0.35"/>
<circle cx="312" cy="384" r="9" fill="rgb(254,175,10)"/>
<circle cx="336" cy="384" r="12" fill="rgb(254,168,10)" opacity="0.35"/>
<circle cx="336" cy="384" r="9" fill="rgb(254,168,10)"/>
<circle cx="360" cy="384" r="12" fill="rgb(254,159,10)" opacity="0.35"/>
<circle cx="360" cy="384" r="9" fill="rgb(254,159,10)"/>
<circle cx="384" cy="384" r="12" fill="rgb(254,156,10)" opacity="0.35"/>
<circle cx="384" cy="384" r="9" fill="rgb(254,156,10)"/>
</svg>
