<svg xmlns="http://www.w3.org/2000/svg" viewBox="0 0 408 408" width="408" height="408" role="img" aria-label="LED preview of the Audio Flow example graph">
<rect width="408" height="408" rx="10" fill="#05070a"/>
<circle cx="24" cy="24" r="12" fill="rgb(254,159,10)" opacity="0.35"/>
<circle cx="24" cy="24" r="9" fill="rgb(254,159,10)"/>
<circle cx="48" cy="24" r="12" fill="rgb(222,154,71)" opacity="0.35"/>
<circle cx="48" cy="24" r="9" fill="rgb(222,154,71)"/>
<circle cx="72" cy="24" r="12" fill="rgb(159,87,184)" opacity="0.35"/>
<circle cx="72" cy="24" r="9" fill="rgb(159,87,184)"/>
<circle cx="96" cy="24" r="12" fill="rgb(123,65,238)" opacity="0.35"/>
<circle cx="96" cy="24" r="9" fill="rgb(123,65,238)"/>
<circle cx="120" cy="24" r="12" fill="rgb(120,67,239)" opacity="0.35"/>
<circle cx="120" cy="24" r="9" fill="rgb(120,67,239)"/>
<circle cx="144" cy="24" r="12" fill="rgb(172,100,162)" opacity="0.35"/>
<circle cx="144" cy="24" r="9" fill="rgb(172,100,162)"/>
<circle cx="168" cy="24" r="12" fill="rgb(254,170,10)" opacity="0.35"/>
<circle cx="168" cy="24" r="9" fill="rgb(254,170,10)"/>
<circle cx="192" cy="24" r="12" fill="rgb(251,86,8)" opacity="0.35"/>
<circle cx="192" cy="24" r="9" fill="rgb(251,86,8)"/>
<circle cx="216" cy="24" r="12" fill="rgb(253,53,47)" opacity="0.35"/>
<circle cx="216" cy="24" r="9" fill="rgb(253,53,47)"/>
<circle cx="240" cy="24" r="12" fill="rgb(252,68,28)" opacity="0.35"/>
<circle cx="240" cy="24" r="9" fill="rgb(252,68,28)"/>
<circle cx="264" cy="24" r="12" fill="rgb(252,118,8)" opacity="0.35"/>
<circle cx="264" cy="24" r="9" fill="rgb(252,118,8)"/>
<circle cx="288" cy="24" r="12" fill="rgb(254,169,10)" opacity="0.35"/>
<circle cx="288" cy="24" r="9" fill="rgb(254,169,10)"/>
<circle cx="312" cy="24" r="12" fill="rgb(255,182,11)" opacity="0.35"/>
<circle cx="312" cy="24" r="9" fill="rgb(255,182,11)"/>
<circle cx="336" cy="24" r="12" fill="rgb(253,151,9)" opacity="0.35"/>
<circle cx="336" cy="24" r="9" fill="rgb(253,151,9)"/>
<circle cx="360" cy="24" r="12" fill="rgb(252,112,8)" opacity="0.35"/>
<circle cx="360" cy="24" r="9" fill="rgb(252,112,8)"/>
<circle cx="384" cy="24" r="12" fill="rgb(252,110,8)" opacity="0.35"/>
<circle cx="384" cy="24" r="9" fill="rgb(252,110,8)"/>
<circle cx="24" cy="48" r="12" fill="rgb(253,127,9)" opacity="0.35"/>
<circle cx="24" cy="48" r="9" fill="rgb(253,127,9)"/>
<circle cx="48" cy="48" r="12" fill="rgb(254,172,10)" opacity="0.35"/>
<circle cx="48" cy="48" r="9" fill="rgb(254,172,10)"/>
<circle cx="72" cy="48" r="12" fill="rgb(215,147,84)" opacity="0.35"/>
<circle cx="72" cy="48" r="9" fill="rgb(215,147,84)"/>
<circle cx="96" cy="48" r="12" fill="rgb(163,91,177)" opacity="0.35"/>
<circle cx="96" cy="48" r="9" fill="rgb(163,91,177)"/>
<circle cx="120" cy="48" r="12" fill="rgb(155,82,193)" opacity="0.35"/>
<circle cx="120" cy="48" r="9" fill="rgb(155,82,193)"/>
<circle cx="144" cy="48" r="12" fill="rgb(218,150,78)" opacity="0.35"/>
<circle cx="144" cy="48" r="9" fill="rgb(218,150,78)"/>
<circle cx="168" cy="48" r="12" fill="rgb(253,129,9)" opacity="0.35"/>
<circle cx="168" cy="48" r="9" fill="rgb(253,129,9)"/>
<circle cx="192" cy="48" r="12" fill="rgb(252,56,43)" opacity="0.35"/>
<circle cx="192" cy="48" r="9" fill="rgb(252,56,43)"/>
<circle cx="216" cy="48" r="12" fill="rgb(253,34,69)" opacity="0.35"/>
<circle cx="216" cy="48" r="9" fill="rgb(253,34,69)"/>
<circle cx="240" cy="48" r="12" fill="rgb(252,62,36)" opacity="0.35"/>
<circle cx="240" cy="48" r="9" fill="rgb(252,62,36)"/>
<circle cx="264" cy="48" r="12" fill="rgb(252,124,8)" opacity="0.35"/>
<circle cx="264" cy="48" r="9" fill="rgb(252,124,8)"/>
<circle cx="288" cy="48" r="12" fill="rgb(255,185,11)" opacity="0.35"/>
<circle cx="288" cy="48" r="9" fill="rgb(255,185,11)"/>
<circle cx="312" cy="48" r="12" fill="rgb(245,179,30)" opacity="0.35"/>
<circle cx="312" cy="48" r="9" fill="rgb(245,179,30)"/>
<circle cx="336" cy="48" r="12" fill="rgb(254,154,10)" opacity="0.35"/>
<circle cx="336" cy="48" r="9" fill="rgb(254,154,10)"/>
<circle cx="360" cy="48" r="12" fill="rgb(254,168,10)" opacity="0.35"/>
<circle cx="360" cy="48" r="9" fill="rgb(254,168,10)"/>
<circle cx="384" cy="48" r="12" fill="rgb(252,73,22)" opacity="0.35"/>
<circle cx="384" cy="48" r="9" fill="rgb(252,73,22)"/>
<circle cx="24" cy="72" r="12" fill="rgb(251,88,7)" opacity="0.35"/>
<circle cx="24" cy="72" r="9" fill="rgb(251,88,7)"/>
<circle cx="48" cy="72" r="12" fill="rgb(252,120,8)" opacity="0.35"/>
<circle cx="48" cy="72" r="9" fill="rgb(252,120,8)"/>
<circle cx="72" cy="72" r="12" fill="rgb(254,173,10)" opacity="0.35"/>
<circle cx="72" cy="72" r="9" fill="rgb(254,173,10)"/>
<circle cx="96" cy="72" r="12" fill="rgb(214,146,85)" opacity="0.35"/>
<circle cx="96" cy="72" r="9" fill="rgb(214,146,85)"/>
<circle cx="120" cy="72" r="12" fill="rgb(200,131,110)" opacity="0.35"/>
<circle cx="120" cy="72" r="9" fill="rgb(200,131,110)"/>
<circle cx="144" cy="72" r="12" fill="rgb(255,184,11)" opacity="0.35"/>
<circle cx="144" cy="72" r="9" fill="rgb(255,184,11)"/>
<circle cx="168" cy="72" r="12" fill="rgb(251,96,7)" opacity="0.35"/>
<circle cx="168" cy="72" r="9" fill="rgb(251,96,7)"/>
<circle cx="192" cy="72" r="12" fill="rgb(188,118,132)" opacity="0.35"/>
<circle cx="192" cy="72" r="9" fill="rgb(188,118,132)"/>
<circle cx="216" cy="72" r="12" fill="rgb(253,33,71)" opacity="0.35"/>
<circle cx="216" cy="72" r="9" fill="rgb(253,33,71)"/>
<circle cx="240" cy="72" r="12" fill="rgb(254,168,10)" opacity="0.35"/>
<circle cx="240" cy="72" r="9" fill="rgb(254,168,10)"/>
<circle cx="264" cy="72" r="12" fill="rgb(253,150,9)" opacity="0.35"/>
<circle cx="264" cy="72" r="9" fill="rgb(253,150,9)"/>
<circle cx="288" cy="72" r="12" fill="rgb(224,157,67)" opacity="0.35"/>
<circle cx="288" cy="72" r="9" fill="rgb(224,157,67)"/>
<circle cx="312" cy="72" r="12" fill="rgb(212,144,88)" opacity="0.35"/>
<circle cx="312" cy="72" r="9" fill="rgb(212,144,88)"/>
<circle cx="336" cy="72" r="12" fill="rgb(254,167,10)" opacity="0.35"/>
<circle cx="336" cy="72" r="9" fill="rgb(254,167,10)"/>
<circle cx="360" cy="72" r="12" fill="rgb(251,85,9)" opacity="0.35"/>
<circle cx="360" cy="72" r="9" fill="rgb(251,85,9)"/>
<circle cx="384" cy="72" r="12" fill="rgb(253,48,52)" opacity="0.35"/>
<circle cx="384" cy="72" r="9" fill="rgb(253,48,52)"/>
<circle cx="24" cy="96" r="12" fill="rgb(252,57,42)" opacity="0.35"/>
<circle cx="24" cy="96" r="9" fill="rgb(252,57,42)"/>
<circle cx="48" cy="96" r="12" fill="rgb(251,79,15)" opacity="0.35"/>
<circle cx="48" cy="96" r="9" fill="rgb(251,79,15)"/>
<circle cx="72" cy="96" r="12" fill="rgb(253,134,9)" opacity="0.35"/>
<circle cx="72" cy="96" r="9" fill="rgb(253,134,9)"/>
<circle cx="96" cy="96" r="12" fill="rgb(253,188,15)" opacity="0.35"/>
<circle cx="96" cy="96" r="9" fill="rgb(253,188,15)"/>
<circle cx="120" cy="96" r="12" fill="rgb(233,167,50)" opacity="0.35"/>
<circle cx="120" cy="96" r="9" fill="rgb(233,167,50)"/>
<circle cx="144" cy="96" r="12" fill="rgb(254,160,10)" opacity="0.35"/>
<circle cx="144" cy="96" r="9" fill="rgb(254,160,10)"/>
<circle cx="168" cy="96" r="12" fill="rgb(251,83,11)" opacity="0.35"/>
<circle cx="168" cy="96" r="9" fill="rgb(251,83,11)"/>
<circle cx="192" cy="96" r="12" fill="rgb(254,168,10)" opacity="0.35"/>
<circle cx="192" cy="96" r="9" fill="rgb(254,168,10)"/>
<circle cx="216" cy="96" r="12" fill="rgb(253,50,50)" opacity="0.35"/>
<circle cx="216" cy="96" r="9" fill="rgb(253,50,50)"/>
<circle cx="240" cy="96" r="12" fill="rgb(252,106,8)" opacity="0.35"/>
<circle cx="240" cy="96" r="9" fill="rgb(252,106,8)"/>
<circle cx="264" cy="96" r="12" fill="rgb(253,188,14)" opacity="0.35"/>
<circle cx="264" cy="96" r="9" fill="rgb(253,188,14)"/>
<circle cx="288" cy="96" r="12" fill="rgb(174,103,158)" opacity="0.35"/>
<circle cx="288" cy="96" r="9" fill="rgb(174,103,158)"/>
<circle cx="312" cy="96" r="12" fill="rgb(170,98,165)" opacity="0.35"/>
<circle cx="312" cy="96" r="9" fill="rgb(170,98,165)"/>
<circle cx="336" cy="96" r="12" fill="rgb(255,189,11)" opacity="0.35"/>
<circle cx="336" cy="96" r="9" fill="rgb(255,189,11)"/>
<circle cx="360" cy="96" r="12" fill="rgb(251,88,7)" opacity="0.35"/>
<circle cx="360" cy="96" r="9" fill="rgb(251,88,7)"/>
<circle cx="384" cy="96" r="12" fill="rgb(253,36,67)" opacity="0.35"/>
<circle cx="384" cy="96" r="9" fill="rgb(253,36,67)"/>
<circle cx="24" cy="120" r="12" fill="rgb(253,35,68)" opacity="0.35"/>
<circle cx="24" cy="120" r="9" fill="rgb(253,35,68)"/>
<circle cx="48" cy="120" r="12" fill="rgb(252,59,39)" opacity="0.35"/>
<circle cx="48" cy="120" r="9" fill="rgb(252,59,39)"/>
<circle cx="72" cy="120" r="12" fill="rgb(105,84,243)" opacity="0.35"/>
<circle cx="72" cy="120" r="9" fill="rgb(105,84,243)"/>
<circle cx="96" cy="120" r="12" fill="rgb(255,181,11)" opacity="0.35"/>
<circle cx="96" cy="120" r="9" fill="rgb(255,181,11)"/>
<circle cx="120" cy="120" r="12" fill="rgb(254,168,10)" opacity="0.35"/>
<circle cx="120" cy="120" r="9" fill="rgb(254,168,10)"/>
<circle cx="144" cy="120" r="12" fill="rgb(254,158,10)" opacity="0.35"/>
<circle cx="144" cy="120" r="9" fill="rgb(254,158,10)"/>
<circle cx="168" cy="120" r="12" fill="rgb(251,90,7)" opacity="0.35"/>
<circle cx="168" cy="120" r="9" fill="rgb(251,90,7)"/>
<circle cx="192" cy="120" r="12" fill="rgb(252,60,39)" opacity="0.35"/>
<circle cx="192" cy="120" r="9" fill="rgb(252,60,39)"/>
<circle cx="216" cy="120" r="12" fill="rgb(251,81,13)" opacity="0.35"/>
<circle cx="216" cy="120" r="9" fill="rgb(251,81,13)"/>
<circle cx="240" cy="120" r="12" fill="rgb(254,154,10)" opacity="0.35"/>
<circle cx="240" cy="120" r="9" fill="rgb(254,154,10)"/>
<circle cx="264" cy="120" r="12" fill="rgb(192,122,125)" opacity="0.35"/>
<circle cx="264" cy="120" r="9" fill="rgb(192,122,125)"/>
<circle cx="288" cy="120" r="12" fill="rgb(124,64,238)" opacity="0.35"/>
<circle cx="288" cy="120" r="9" fill="rgb(124,64,238)"/>
<circle cx="312" cy="120" r="12" fill="rgb(127,61,237)" opacity="0.35"/>
<circle cx="312" cy="120" r="9" fill="rgb(127,61,237)"/>
<circle cx="336" cy="120" r="12" fill="rgb(119,69,239)" opacity="0.35"/>
<circle cx="336" cy="120" r="9" fill="rgb(119,69,239)"/>
<circle cx="360" cy="120" r="12" fill="rgb(252,107,8)" opacity="0.35"/>
<circle cx="360" cy="120" r="9" fill="rgb(252,107,8)"/>
<circle cx="384" cy="120" r="12" fill="rgb(188,118,132)" opacity="0.35"/>
<circle cx="384" cy="120" r="9" fill="rgb(188,118,132)"/>
<circle cx="24" cy="144" r="12" fill="rgb(254,28,77)" opacity="0.35"/>
<circle cx="24" cy="144" r="9" fill="rgb(254,28,77)"/>
<circle cx="48" cy="144" r="12" fill="rgb(252,60,38)" opacity="0.35"/>
<circle cx="48" cy="144" r="9" fill="rgb(252,60,38)"/>
<circle cx="72" cy="144" r="12" fill="rgb(254,175,10)" opacity="0.35"/>
<circle cx="72" cy="144" r="9" fill="rgb(254,175,10)"/>
<circle cx="96" cy="144" r="12" fill="rgb(254,168,10)" opacity="0.35"/>
<circle cx="96" cy="144" r="9" fill="rgb(254,168,10)"/>
<circle cx="120" cy="144" r="12" fill="rgb(223,155,70)" opacity="0.35"/>
<circle cx="120" cy="144" r="9" fill="rgb(223,155,70)"/>
<circle cx="144" cy="144" r="12" fill="rgb(255,178,11)" opacity="0.35"/>
<circle cx="144" cy="144" r="9" fill="rgb(255,178,11)"/>
<circle cx="168" cy="144" r="12" fill="rgb(252,116,8)" opacity="0.35"/>
<circle cx="168" cy="144" r="9" fill="rgb(252,116,8)"/>
<circle cx="192" cy="144" r="12" fill="rgb(251,91,7)" opacity="0.35"/>
<circle cx="192" cy="144" r="9" fill="rgb(251,91,7)"/>
<circle cx="216" cy="144" r="12" fill="rgb(253,128,9)" opacity="0.35"/>
<circle cx="216" cy="144" r="9" fill="rgb(253,128,9)"/>
<circle cx="240" cy="144" r="12" fill="rgb(233,166,51)" opacity="0.35"/>
<circle cx="240" cy="144" r="9" fill="rgb(233,166,51)"/>
<circle cx="264" cy="144" r="12" fill="rgb(131,56,236)" opacity="0.35"/>
<circle cx="264" cy="144" r="9" fill="rgb(131,56,236)"/>
<circle cx="288" cy="144" r="12" fill="rgb(94,96,246)" opacity="0.35"/>
<circle cx="288" cy="144" r="9" fill="rgb(94,96,246)"/>
<circle cx="312" cy="144" r="12" fill="rgb(102,87,244)" opacity="0.35"/>
<circle cx="312" cy="144" r="9" fill="rgb(102,87,244)"/>
<circle cx="336" cy="144" r="12" fill="rgb(254,168,10)" opacity="0.35"/>
<circle cx="336" cy="144" r="9" fill="rgb(254,168,10)"/>
<circle cx="360" cy="144" r="12" fill="rgb(253,141,9)" opacity="0.35"/>
<circle cx="360" cy="144" r="9" fill="rgb(253,141,9)"/>
<circle cx="384" cy="144" r="12" fill="rgb(254,168,10)" opacity="0.35"/>
<circle cx="384" cy="144" r="9" fill="rgb(254,168,10)"/>
<circle cx="24" cy="168" r="12" fill="rgb(253,36,67)" opacity="0.35"/>
<circle cx="24" cy="168" r="9" fill="rgb(253,36,67)"/>
<circle cx="48" cy="168" r="12" fill="rgb(251,79,15)" opacity="0.35"/>
<circle cx="48" cy="168" r="9" fill="rgb(251,79,15)"/>
<circle cx="72" cy="168" r="12" fill="rgb(254,159,10)" opacity="0.35"/>
<circle cx="72" cy="168" r="9" fill="rgb(254,159,10)"/>
<circle cx="96" cy="168" r="12" fill="rgb(254,168,10)" opacity="0.35"/>
<circle cx="96" cy="168" r="9" fill="rgb(254,168,10)"/>
<circle cx="120" cy="168" r="12" fill="rgb(182,111,143)" opacity="0.35"/>
<circle cx="120" cy="168" r="9" fill="rgb(182,111,143)"/>
<circle cx="144" cy="168" r="12" fill="rgb(229,162,57)" opacity="0.35"/>
<circle cx="144" cy="168" r="9" fill="rgb(229,162,57)"/>
<circle cx="168" cy="168" r="12" fill="rgb(254,153,10)" opacity="0.35"/>
<circle cx="168" cy="168" r="9" fill="rgb(254,153,10)"/>
<circle cx="192" cy="168" r="12" fill="rgb(253,134,9)" opacity="0.35"/>
<circle cx="192" cy="168" r="9" fill="rgb(253,134,9)"/>
<circle cx="216" cy="168" r="12" fill="rgb(255,177,11)" opacity="0.35"/>
<circle cx="216" cy="168" r="9" fill="rgb(255,177,11)"/>
<circle cx="240" cy="168" r="12" fill="rgb(173,101,160)" opacity="0.35"/>
<circle cx="240" cy="168" r="9" fill="rgb(173,101,160)"/>
<circle cx="264" cy="168" r="12" fill="rgb(100,89,244)" opacity="0.35"/>
<circle cx="264" cy="168" r="9" fill="rgb(100,89,244)"/>
<circle cx="288" cy="168" r="12" fill="rgb(254,168,10)" opacity="0.35"/>
<circle cx="288" cy="168" r="9" fill="rgb(254,168,10)"/>
<circle cx="312" cy="168" r="12" fill="rgb(83,108,249)" opacity="0.35"/>
<circle cx="312" cy="168" r="9" fill="rgb(83,108,249)"/>
<circle cx="336" cy="168" r="12" fill="rgb(137,63,225)" opacity="0.35"/>
<circle cx="336" cy="168" r="9" fill="rgb(137,63,225)"/>
<circle cx="360" cy="168" r="12" fill="rgb(255,189,11)" opacity="0.35"/>
<circle cx="360" cy="168" r="9" fill="rgb(255,189,11)"/>
<circle cx="384" cy="168" r="12" fill="rgb(252,112,8)" opacity="0.35"/>
<circle cx="384" cy="168" r="9" fill="rgb(252,112,8)"/>
<circle cx="24" cy="192" r="12" fill="rgb(252,59,39)" opacity="0.35"/>
<circle cx="24" cy="192" r="9" fill="rgb(252,59,39)"/>
<circle cx="48" cy="192" r="12" fill="rgb(254,175,10)" opacity="0.35"/>
<circle cx="48" cy="192" r="9" fill="rgb(254,175,10)"/>
<circle cx="72" cy="192" r="12" fill="rgb(236,170,45)" opacity="0.35"/>
<circle cx="72" cy="192" r="9" fill="rgb(236,170,45)"/>
<circle cx="96" cy="192" r="12" fill="rgb(153,80,196)" opacity="0.35"/>
<circle cx="96" cy="192" r="9" fill="rgb(153,80,196)"/>
<circle cx="120" cy="192" r="12" fill="rgb(134,59,230)" opacity="0.35"/>
<circle cx="120" cy="192" r="9" fill="rgb(134,59,230)"/>
<circle cx="144" cy="192" r="12" fill="rgb(185,115,138)" opacity="0.35"/>
<circle cx="144" cy="192" r="9" fill="rgb(185,115,138)"/>
<circle cx="168" cy="192" r="12" fill="rgb(255,190,11)" opacity="0.35"/>
<circle cx="168" cy="192" r="9" fill="rgb(255,190,11)"/>
<circle cx="192" cy="192" r="12" fill="rgb(254,174,10)" opacity="0.35"/>
<circle cx="192" cy="192" r="9" fill="rgb(254,174,10)"/>
<circle cx="216" cy="192" r="12" fill="rgb(220,152,75)" opacity="0.35"/>
<circle cx="216" cy="192" r="9" fill="rgb(220,152,75)"/>
<circle cx="240" cy="192" r="12" fill="rgb(128,59,237)" opacity="0.35"/>
<circle cx="240" cy="192" r="9" fill="rgb(128,59,237)"/>
<circle cx="264" cy="192" r="12" fill="rgb(81,110,249)" opacity="0.35"/>
<circle cx="264" cy="192" r="9" fill="rgb(81,110,249)"/>
<circle cx="288" cy="192" r="12" fill="rgb(60,132,255)" opacity="0.35"/>
<circle cx="288" cy="192" r="9" fill="rgb(60,132,255)"/>
<circle cx="312" cy="192" r="12" fill="rgb(72,119,251)" opacity="0.35"/>
<circle cx="312" cy="192" r="9" fill="rgb(72,119,251)"/>
<circle cx="336" cy="192" r="12" fill="rgb(113,75,241)" opacity="0.35"/>
<circle cx="336" cy="192" r="9" fill="rgb(113,75,241)"/>
<circle cx="360" cy="192" r="12" fill="rgb(194,124,122)" opacity="0.35"/>
<circle cx="360" cy="192" r="9" fill="rgb(194,124,122)"/>
<circle cx="384" cy="192" r="12" fill="rgb(115,73,240)" opacity="0.35"/>
<circle cx="384" cy="192" r="9" fill="rgb(115,73,240)"/>
<circle cx="24" cy="216" r="12" fill="rgb(251,96,7)" opacity="0.35"/>
<circle cx="24" cy="216" r="9" fill="rgb(251,96,7)"/>
<circle cx="48" cy="216" r="12" fill="rgb(254,170,10)" opacity="0.35"/>
<circle cx="48" cy="216" r="9" fill="rgb(254,170,10)"/>
<circle cx="72" cy="216" r="12" fill="rgb(173,102,160)" opacity="0.35"/>
<circle cx="72" cy="216" r="9" fill="rgb(173,102,160)"/>
<circle cx="96" cy="216" r="12" fill="rgb(254,168,10)" opacity="0.35"/>
<circle cx="96" cy="216" r="9" fill="rgb(254,168,10)"/>
<circle cx="120" cy="216" r="12" fill="rgb(107,82,242)" opacity="0.35"/>
<circle cx="120" cy="216" r="9" fill="rgb(107,82,242)"/>
<circle cx="144" cy="216" r="12" fill="rgb(254,168,10)" opacity="0.35"/>
<circle cx="144" cy="216" r="9" fill="rgb(254,168,10)"/>
<circle cx="168" cy="216" r="12" fill="rgb(223,155,70)" opacity="0.35"/>
<circle cx="168" cy="216" r="9" fill="rgb(223,155,70)"/>
<circle cx="192" cy="216" r="12" fill="rgb(254,168,10)" opacity="0.35"/>
<circle cx="192" cy="216" r="9" fill="rgb(254,168,10)"/>
<circle cx="216" cy="216" r="12" fill="rgb(190,119,130)" opacity="0.35"/>
<circle cx="216" cy="216" r="9" fill="rgb(190,119,130)"/>
<circle cx="240" cy="216" r="12" fill="rgb(115,73,240)" opacity="0.35"/>
<circle cx="240" cy="216" r="9" fill="rgb(115,73,240)"/>
<circle cx="264" cy="216" r="12" fill="rgb(75,116,251)" opacity="0.35"/>
<circle cx="264" cy="216" r="9" fill="rgb(75,116,251)"/>
<circle cx="288" cy="216" r="12" fill="rgb(60,132,255)" opacity="0.35"/>
<circle cx="288" cy="216" r="9" fill="rgb(60,132,255)"/>
<circle cx="312" cy="216" r="12" fill="rgb(71,121,252)" opacity="0.35"/>
<circle cx="312" cy="216" r="9" fill="rgb(71,121,252)"/>
<circle cx="336" cy="216" r="12" fill="rgb(99,90,244)" opacity="0.35"/>
<circle cx="336" cy="216" r="9" fill="rgb(99,90,244)"/>
<circle cx="360" cy="216" r="12" fill="rgb(138,64,223)" opacity="0.35"/>
<circle cx="360" cy="216" r="9" fill="rgb(138,64,223)"/>
<circle cx="384" cy="216" r="12" fill="rgb(188,118,133)" opacity="0.35"/>
<circle cx="384" cy="216" r="9" fill="rgb(188,118,133)"/>
<circle cx="24" cy="240" r="12" fill="rgb(253,145,9)" opacity="0.35"/>
<circle cx="24" cy="240" r="9" fill="rgb(253,145,9)"/>
<circle cx="48" cy="240" r="12" fill="rgb(215,147,83)" opacity="0.35"/>
<circle cx="48" cy="240" r="9" fill="rgb(215,147,83)"/>
<circle cx="72" cy="240" r="12" fill="rgb(121,67,239)" opacity="0.35"/>
<circle cx="72" cy="240" r="9" fill="rgb(121,67,239)"/>
<circle cx="96" cy="240" r="12" fill="rgb(84,106,248)" opacity="0.35"/>
<circle cx="96" cy="240" r="9" fill="rgb(84,106,248)"/>
<circle cx="120" cy="240" r="12" fill="rgb(89,101,247)" opacity="0.35"/>
<circle cx="120" cy="240" r="9" fill="rgb(89,101,247)"/>
<circle cx="144" cy="240" r="12" fill="rgb(132,57,234)" opacity="0.35"/>
<circle cx="144" cy="240" r="9" fill="rgb(132,57,234)"/>
<circle cx="168" cy="240" r="12" fill="rgb(254,168,10)" opacity="0.35"/>
<circle cx="168" cy="240" r="9" fill="rgb(254,168,10)"/>
<circle cx="192" cy="240" r="12" fill="rgb(238,172,41)" opacity="0.35"/>
<circle cx="192" cy="240" r="9" fill="rgb(238,172,41)"/>
<circle cx="216" cy="240" r="12" fill="rgb(189,119,130)" opacity="0.35"/>
<circle cx="216" cy="240" r="9" fill="rgb(189,119,130)"/>
<circle cx="240" cy="240" r="12" fill="rgb(120,68,239)" opacity="0.35"/>
<circle cx="240" cy="240" r="9" fill="rgb(120,68,239)"/>
<circle cx="264" cy="240" r="12" fill="rgb(254,168,10)" opacity="0.35"/>
<circle cx="264" cy="240" r="9" fill="rgb(254,168,10)"/>
<circle cx="288" cy="240" r="12" fill="rgb(72,119,251)" opacity="0.35"/>
<circle cx="288" cy="240" r="9" fill="rgb(72,119,251)"/>
<circle cx="312" cy="240" r="12" fill="rgb(105,84,243)" opacity="0.35"/>
<circle cx="312" cy="240" r="9" fill="rgb(105,84,243)"/>
<circle cx="336" cy="240" r="12" fill="rgb(96,93,245)" opacity="0.35"/>
<circle cx="336" cy="240" r="9" fill="rgb(96,93,245)"/>
<circle cx="360" cy="240" r="12" fill="rgb(113,75,241)" opacity="0.35"/>
<circle cx="360" cy="240" r="9" fill="rgb(113,75,241)"/>
<circle cx="384" cy="240" r="12" fill="rgb(127,60,237)" opacity="0.35"/>
<circle cx="384" cy="240" r="9" fill="rgb(127,60,237)"/>
<circle cx="24" cy="264" r="12" fill="rgb(253,188,14)" opacity="0.35"/>
<circle cx="24" cy="264" r="9" fill="rgb(253,188,14)"/>
<circle cx="48" cy="264" r="12" fill="rgb(160,87,184)" opacity="0.35"/>
<circle cx="48" cy="264" r="9" fill="rgb(160,87,184)"/>
<circle cx="72" cy="264" r="12" fill="rgb(94,95,246)" opacity="0.35"/>
<circle cx="72" cy="264" r="9" fill="rgb(94,95,246)"/>
<circle cx="96" cy="264" r="12" fill="rgb(68,124,252)" opacity="0.35"/>
<circle cx="96" cy="264" r="9" fill="rgb(68,124,252)"/>
<circle cx="120" cy="264" r="12" fill="rgb(254,168,10)" opacity="0.35"/>
<circle cx="120" cy="264" r="9" fill="rgb(254,168,10)"/>
<circle cx="144" cy="264" r="12" fill="rgb(141,67,218)" opacity="0.35"/>
<circle cx="144" cy="264" r="9" fill="rgb(141,67,218)"/>
<circle cx="168" cy="264" r="12" fill="rgb(232,165,53)" opacity="0.35"/>
<circle cx="168" cy="264" r="9" fill="rgb(232,165,53)"/>
<circle cx="192" cy="264" r="12" fill="rgb(255,184,11)" opacity="0.35"/>
<circle cx="192" cy="264" r="9" fill="rgb(255,184,11)"/>
<circle cx="216" cy="264" r="12" fill="rgb(219,151,76)" opacity="0.35"/>
<circle cx="216" cy="264" r="9" fill="rgb(219,151,76)"/>
<circle cx="240" cy="264" r="12" fill="rgb(150,76,202)" opacity="0.35"/>
<circle cx="240" cy="264" r="9" fill="rgb(150,76,202)"/>
<circle cx="264" cy="264" r="12" fill="rgb(169,97,166)" opacity="0.35"/>
<circle cx="264" cy="264" r="9" fill="rgb(169,97,166)"/>
<circle cx="288" cy="264" r="12" fill="rgb(95,95,245)" opacity="0.35"/>
<circle cx="288" cy="264" r="9" fill="rgb(95,95,245)"/>
<circle cx="312" cy="264" r="12" fill="rgb(105,84,243)" opacity="0.35"/>
<circle cx="312" cy="264" r="9" fill="rgb(105,84,243)"/>
<circle cx="336" cy="264" r="12" fill="rgb(103,86,243)" opacity="0.35"/>
<circle cx="336" cy="264" r="9" fill="rgb(103,86,243)"/>
<circle cx="360" cy="264" r="12" fill="rgb(105,84,243)" opacity="0.35"/>
<circle cx="360" cy="264" r="9" fill="rgb(105,84,243)"/>
<circle cx="384" cy="264" r="12" fill="rgb(106,82,242)" opacity="0.35"/>
<circle cx="384" cy="264" r="9" fill="rgb(106,82,242)"/>
<circle cx="24" cy="288" r="12" fill="rgb(211,143,90)" opacity="0.35"/>
<circle cx="24" cy="288" r="9" fill="rgb(211,143,90)"/>
<circle cx="48" cy="288" r="12" fill="rgb(126,61,237)" opacity="0.35"/>
<circle cx="48" cy="288" r="9" fill="rgb(126,61,237)"/>
<circle cx="72" cy="288" r="12" fill="rgb(80,110,249)" opacity="0.35"/>
<circle cx="72" cy="288" r="9" fill="rgb(80,110,249)"/>
<circle cx="96" cy="288" r="12" fill="rgb(66,126,253)" opacity="0.35"/>
<circle cx="96" cy="288" r="9" fill="rgb(66,126,253)"/>
<circle cx="120" cy="288" r="12" fill="rgb(96,94,245)" opacity="0.35"/>
<circle cx="120" cy="288" r="9" fill="rgb(96,94,245)"/>
<circle cx="144" cy="288" r="12" fill="rgb(174,103,158)" opacity="0.35"/>
<circle cx="144" cy="288" r="9" fill="rgb(174,103,158)"/>
<circle cx="168" cy="288" r="12" fill="rgb(254,177,10)" opacity="0.35"/>
<circle cx="168" cy="288" r="9" fill="rgb(254,177,10)"/>
<circle cx="192" cy="288" r="12" fill="rgb(254,168,10)" opacity="0.35"/>
<circle cx="192" cy="288" r="9" fill="rgb(254,168,10)"/>
<circle cx="216" cy="288" r="12" fill="rgb(255,178,11)" opacity="0.35"/>
<circle cx="216" cy="288" r="9" fill="rgb(255,178,11)"/>
<circle cx="240" cy="288" r="12" fill="rgb(254,168,10)" opacity="0.35"/>
<circle cx="240" cy="288" r="9" fill="rgb(254,168,10)"/>
<circle cx="264" cy="288" r="12" fill="rgb(153,80,196)" opacity="0.35"/>
<circle cx="264" cy="288" r="9" fill="rgb(153,80,196)"/>
<circle cx="288" cy="288" r="12" fill="rgb(126,62,237)" opacity="0.35"/>
<circle cx="288" cy="288" r="9" fill="rgb(126,62,237)"/>
<circle cx="312" cy="288" r="12" fill="rgb(121,67,239)" opacity="0.35"/>
<circle cx="312" cy="288" r="9" fill="rgb(121,67,239)"/>
<circle cx="336" cy="288" r="12" fill="rgb(119,69,239)" opacity="0.35"/>
<circle cx="336" cy="288" r="9" fill="rgb(119,69,239)"/>
<circle cx="360" cy="288" r="12" fill="rgb(111,77,241)" opacity="0.35"/>
<circle cx="360" cy="288" r="9" fill="rgb(111,77,241)"/>
<circle cx="384" cy="288" r="12" fill="rgb(106,83,242)" opacity="0.35"/>
<circle cx="384" cy="288" r="9" fill="rgb(106,83,242)"/>
<circle cx="24" cy="312" r="12" fill="rgb(194,124,121)" opacity="0.35"/>
<circle cx="24" cy="312" r="9" fill="rgb(194,124,121)"/>
<circle cx="48" cy="312" r="12" fill="rgb(120,68,239)" opacity="0.35"/>
<circle cx="48" cy="312" r="9" fill="rgb(120,68,239)"/>
<circle cx="72" cy="312" r="12" fill="rgb(82,108,249)" opacity="0.35"/>
<circle cx="72" cy="312" r="9" fill="rgb(82,108,249)"/>
<circle cx="96" cy="312" r="12" fill="rgb(79,111,250)" opacity="0.35"/>
<circle cx="96" cy="312" r="9" fill="rgb(79,111,250)"/>
<circle cx="120" cy="312" r="12" fill="rgb(119,69,239)" opacity="0.35"/>
<circle cx="120" cy="312" r="9" fill="rgb(119,69,239)"/>
<circle cx="144" cy="312" r="12" fill="rgb(221,154,72)" opacity="0.35"/>
<circle cx="144" cy="312" r="9" fill="rgb(221,154,72)"/>
<circle cx="168" cy="312" r="12" fill="rgb(253,138,9)" opacity="0.35"/>
<circle cx="168" cy="312" r="9" fill="rgb(253,138,9)"/>
<circle cx="192" cy="312" r="12" fill="rgb(252,109,8)" opacity="0.35"/>
<circle cx="192" cy="312" r="9" fill="rgb(252,109,8)"/>
<circle cx="216" cy="312" r="12" fill="rgb(253,132,9)" opacity="0.35"/>
<circle cx="216" cy="312" r="9" fill="rgb(253,132,9)"/>
<circle cx="240" cy="312" r="12" fill="rgb(255,177,11)" opacity="0.35"/>
<circle cx="240" cy="312" r="9" fill="rgb(255,177,11)"/>
<circle cx="264" cy="312" r="12" fill="rgb(217,149,80)" opacity="0.35"/>
<circle cx="264" cy="312" r="9" fill="rgb(217,149,80)"/>
<circle cx="288" cy="312" r="12" fill="rgb(179,108,149)" opacity="0.35"/>
<circle cx="288" cy="312" r="9" fill="rgb(179,108,149)"/>
<circle cx="312" cy="312" r="12" fill="rgb(160,87,184)" opacity="0.35"/>
<circle cx="312" cy="312" r="9" fill="rgb(160,87,184)"/>
<circle cx="336" cy="312" r="12" fill="rgb(146,72,209)" opacity="0.35"/>
<circle cx="336" cy="312" r="9" fill="rgb(146,72,209)"/>
<circle cx="360" cy="312" r="12" fill="rgb(129,58,236)" opacity="0.35"/>
<circle cx="360" cy="312" r="9" fill="rgb(129,58,236)"/>
<circle cx="384" cy="312" r="12" fill="rgb(124,64,238)" opacity="0.35"/>
<circle cx="384" cy="312" r="9" fill="rgb(124,64,238)"/>
<circle cx="24" cy="336" r="12" fill="rgb(208,139,96)" opacity="0.35"/>
<circle cx="24" cy="336" r="9" fill="rgb(208,139,96)"/>
<circle cx="48" cy="336" r="12" fill="rgb(135,60,229)" opacity="0.35"/>
<circle cx="48" cy="336" r="9" fill="rgb(135,60,229)"/>
<circle cx="72" cy="336" r="12" fill="rgb(101,88,244)" opacity="0.35"/>
<circle cx="72" cy="336" r="9" fill="rgb(101,88,244)"/>
<circle cx="96" cy="336" r="12" fill="rgb(105,84,243)" opacity="0.35"/>
<circle cx="96" cy="336" r="9" fill="rgb(105,84,243)"/>
<circle cx="120" cy="336" r="12" fill="rgb(162,89,180)" opacity="0.35"/>
<circle cx="120" cy="336" r="9" fill="rgb(162,89,180)"/>
<circle cx="144" cy="336" r="12" fill="rgb(255,178,11)" opacity="0.35"/>
<circle cx="144" cy="336" r="9" fill="rgb(255,178,11)"/>
<circle cx="168" cy="336" r="12" fill="rgb(252,105,8)" opacity="0.35"/>
<circle cx="168" cy="336" r="9" fill="rgb(252,105,8)"/>
<circle cx="192" cy="336" r="12" fill="rgb(251,81,13)" opacity="0.35"/>
<circle cx="192" cy="336" r="9" fill="rgb(251,81,13)"/>
<circle cx="216" cy="336" r="12" fill="rgb(251,97,7)" opacity="0.35"/>
<circle cx="216" cy="336" r="9" fill="rgb(251,97,7)"/>
<circle cx="240" cy="336" r="12" fill="rgb(253,135,9)" opacity="0.35"/>
<circle cx="240" cy="336" r="9" fill="rgb(253,135,9)"/>
<circle cx="264" cy="336" r="12" fill="rgb(254,168,10)" opacity="0.35"/>
<circle cx="264" cy="336" r="9" fill="rgb(254,168,10)"/>
<circle cx="288" cy="336" r="12" fill="rgb(229,162,58)" opacity="0.35"/>
<circle cx="288" cy="336" r="9" fill="rgb(229,162,58)"/>
<circle cx="312" cy="336" r="12" fill="rgb(204,135,103)" opacity="0.35"/>
<circle cx="312" cy="336" r="9" fill="rgb(204,135,103)"/>
<circle cx="336" cy="336" r="12" fill="rgb(188,118,132)" opacity="0.35"/>
<circle cx="336" cy="336" r="9" fill="rgb(188,118,132)"/>
<circle cx="360" cy="336" r="12" fill="rgb(175,104,156)" opacity="0.35"/>
<circle cx="360" cy="336" r="9" fill="rgb(175,104,156)"/>
<circle cx="384" cy="336" r="12" fill="rgb(169,97,166)" opacity="0.35"/>
<circle cx="384" cy="336" r="9" fill="rgb(169,97,166)"/>
<circle cx="24" cy="360" r="12" fill="rgb(248,182,24)" opacity="0.35"/>
<circle cx="24" cy="360" r="9" fill="rgb(248,182,24)"/>
<circle cx="48" cy="360" r="12" fill="rgb(183,113,141)" opacity="0.35"/>
<circle cx="48" cy="360" r="9" fill="rgb(183,113,141)"/>
<circle cx="72" cy="360" r="12" fill="rgb(136,61,228)" opacity="0.35"/>
<circle cx="72" cy="360" r="9" fill="rgb(136,61,228)"/>
<circle cx="96" cy="360" r="12" fill="rgb(143,69,214)" opacity="0.35"/>
<circle cx="96" cy="360" r="9" fill="rgb(143,69,214)"/>
<circle cx="120" cy="360" r="12" fill="rgb(211,142,91)" opacity="0.35"/>
<circle cx="120" cy="360" r="9" fill="rgb(211,142,91)"/>
<circle cx="144" cy="360" r="12" fill="rgb(253,150,9)" opacity="0.35"/>
<circle cx="144" cy="360" r="9" fill="rgb(253,150,9)"/>
<circle cx="168" cy="360" r="12" fill="rgb(251,91,7)" opacity="0.35"/>
<circle cx="168" cy="360" r="9" fill="rgb(251,91,7)"/>
<circle cx="192" cy="360" r="12" fill="rgb(252,74,22)" opacity="0.35"/>
<circle cx="192" cy="360" r="9" fill="rgb(252,74,22)"/>
<circle cx="216" cy="360" r="12" fill="rgb(251,83,10)" opacity="0.35"/>
<circle cx="216" cy="360" r="9" fill="rgb(251,83,10)"/>
<circle cx="240" cy="360" r="12" fill="rgb(252,114,8)" opacity="0.35"/>
<circle cx="240" cy="360" r="9" fill="rgb(252,114,8)"/>
<circle cx="264" cy="360" r="12" fill="rgb(254,151,10)" opacity="0.35"/>
<circle cx="264" cy="360" r="9" fill="rgb(254,151,10)"/>
<circle cx="288" cy="360" r="12" fill="rgb(255,182,11)" opacity="0.35"/>
<circle cx="288" cy="360" r="9" fill="rgb(255,182,11)"/>
<circle cx="312" cy="360" r="12" fill="rgb(243,177,33)" opacity="0.35"/>
<circle cx="312" cy="360" r="9" fill="rgb(243,177,33)"/>
<circle cx="336" cy="360" r="12" fill="rgb(235,168,48)" opacity="0.35"/>
<circle cx="336" cy="360" r="9" fill="rgb(235,168,48)"/>
<circle cx="360" cy="360" r="12" fill="rgb(254,168,10)" opacity="0.35"/>
<circle cx="360" cy="360" r="9" fill="rgb(254,168,10)"/>
<circle cx="384" cy="360" r="12" fill="rgb(232,165,53)" opacity="0.35"/>
<circle cx="384" cy="360" r="9" fill="rgb(232,165,53)"/>
<circle cx="24" cy="384" r="12" fill="rgb(254,151,10)" opacity="0.35"/>
<circle cx="24" cy="384" r="9" fill="rgb(254,151,10)"/>
<circle cx="48" cy="384" r="12" fill="rgb(245,180,28)" opacity="0.35"/>
<circle cx="48" cy="384" r="9" fill="rgb(245,180,28)"/>
<circle cx="72" cy="384" r="12" fill="rgb(200,131,110)" opacity="0.35"/>
<circle cx="72" cy="384" r="9" fill="rgb(200,131,110)"/>
<circle cx="96" cy="384" r="12" fill="rgb(200,130,112)" opacity="0.35"/>
<circle cx="96" cy="384" r="9" fill="rgb(200,130,112)"/>
<circle cx="120" cy="384" r="12" fill="rgb(248,182,24)" opacity="0.35"/>
<circle cx="120" cy="384" r="9" fill="rgb(248,182,24)"/>
<circle cx="144" cy="384" r="12" fill="rgb(253,140,9)" opacity="0.35"/>
<circle cx="144" cy="384" r="9" fill="rgb(253,140,9)"/>
<circle cx="168" cy="384" r="12" fill="rgb(252,99,8)" opacity="0.35"/>
<circle cx="168" cy="384" r="9" fill="rgb(252,99,8)"/>
<circle cx="192" cy="384" r="12" fill="rgb(251,86,7)" opacity="0.35"/>
<circle cx="192" cy="384" r="9" fill="rgb(251,86,7)"/>
<circle cx="216" cy="384" r="12" fill="rgb(251,93,7)" opacity="0.35"/>
<circle cx="216" cy="384" r="9" fill="rgb(251,93,7)"/>
<circle cx="240" cy="384" r="12" fill="rgb(252,117,8)" opacity="0.35"/>
<circle cx="240" cy="384" r="9" fill="rgb(252,117,8)"/>
<circle cx="264" cy="384" r="12" fill="rgb(253,146,9)" opacity="0.35"/>
<circle cx="264" cy="384" r="9" fill="rgb(253,146,9)"/>
<circle cx="288" cy="384" r="12" fill="rgb(254,168,10)" opacity="0.35"/>
<circle cx="288" cy="384" r="9" fill="rgb(254,168,10)"/>
<circle cx="312" cy="384" r="12" fill="rgb(254,175,10)" opacity="0.35"/>
<circle cx="312" cy="384" r="9" fill="rgb(254,175,10)"/>
<circle cx="336" cy="384" r="12" fill="rgb(254,169,10)" opacity="0.35"/>
<circle cx="336" cy="384" r="9" fill="rgb(254,169,10)"/>
<circle cx="360" cy="384" r="12" fill="rgb(254,160,10)" opacity="0.35"/>
<circle cx="360" cy="384" r="9" fill="rgb(254,160,10)"/>
<circle cx="384" cy="384" r="12" fill="rgb(254,156,10)" opacity="0.35"/>
<circle cx="384" cy="384" r="9" fill="rgb(254,156,10)"/>
</svg>
