<svg xmlns="http://www.w3.org/2000/svg" viewBox="0 0 408 408" width="408" height="408" role="img" aria-label="LED preview of the Audio Features example graph">
<rect width="408" height="408" rx="10" fill="#05070a"/>
<circle cx="24" cy="24" r="12" fill="rgb(5,35,37)" opacity="0.35"/>
<circle cx="24" cy="24" r="9" fill="rgb(5,35,37)"/>
<circle cx="48" cy="24" r="12" fill="rgb(5,33,35)" opacity="0.35"/>
<circle cx="48" cy="24" r="9" fill="rgb(5,33,35)"/>
<circle cx="72" cy="24" r="12" fill="rgb(4,28,30)" opacity="0.35"/>
<circle cx="72" cy="24" r="9" fill="rgb(4,28,30)"/>
<circle cx="96" cy="24" r="12" fill="rgb(3,22,23)" opacity="0.35"/>
<circle cx="96" cy="24" r="9" fill="rgb(3,22,23)"/>
<circle cx="120" cy="24" r="9" fill="#14171c"/>
<circle cx="144" cy="24" r="9" fill="#14171c"/>
<circle cx="168" cy="24" r="9" fill="#14171c"/>
<circle cx="192" cy="24" r="9" fill="#14171c"/>
<circle cx="216" cy="24" r="9" fill="#14171c"/>
<circle cx="240" cy="24" r="9" fill="#14171c"/>
<circle cx="264" cy="24" r="12" fill="rgb(3,18,19)" opacity="0.35"/>
<circle cx="264" cy="24" r="9" fill="rgb(3,18,19)"/>
<circle cx="288" cy="24" r="12" fill="rgb(4,27,29)" opacity="0.35"/>
<circle cx="288" cy="24" r="9" fill="rgb(4,27,29)"/>
<circle cx="312" cy="24" r="12" fill="rgb(6,38,41)" opacity="0.35"/>
<circle cx="312" cy="24" r="9" fill="rgb(6,38,41)"/>
<circle cx="336" cy="24" r="12" fill="rgb(8,50,53)" opacity="0.35"/>
<circle cx="336" cy="24" r="9" fill="rgb(8,50,53)"/>
<circle cx="360" cy="24" r="12" fill="rgb(9,60,63)" opacity="0.35"/>
<circle cx="360" cy="24" r="9" fill="rgb(9,60,63)"/>
<circle cx="384" cy="24" r="12" fill="rgb(10,65,69)" opacity="0.35"/>
<circle cx="384" cy="24" r="9" fill="rgb(10,65,69)"/>
<circle cx="24" cy="48" r="12" fill="rgb(4,28,28)" opacity="0.35"/>
<circle cx="24" cy="48" r="9" fill="rgb(4,28,28)"/>
<circle cx="48" cy="48" r="12" fill="rgb(4,26,26)" opacity="0.35"/>
<circle cx="48" cy="48" r="9" fill="rgb(4,26,26)"/>
<circle cx="72" cy="48" r="12" fill="rgb(3,22,22)" opacity="0.35"/>
<circle cx="72" cy="48" r="9" fill="rgb(3,22,22)"/>
<circle cx="96" cy="48" r="12" fill="rgb(3,17,17)" opacity="0.35"/>
<circle cx="96" cy="48" r="9" fill="rgb(3,17,17)"/>
<circle cx="120" cy="48" r="9" fill="#14171c"/>
<circle cx="144" cy="48" r="9" fill="#14171c"/>
<circle cx="168" cy="48" r="9" fill="#14171c"/>
<circle cx="192" cy="48" r="9" fill="#14171c"/>
<circle cx="216" cy="48" r="9" fill="#14171c"/>
<circle cx="240" cy="48" r="9" fill="#14171c"/>
<circle cx="264" cy="48" r="9" fill="#14171c"/>
<circle cx="288" cy="48" r="12" fill="rgb(3,20,21)" opacity="0.35"/>
<circle cx="288" cy="48" r="9" fill="rgb(3,20,21)"/>
<circle cx="312" cy="48" r="12" fill="rgb(4,30,30)" opacity="0.35"/>
<circle cx="312" cy="48" r="9" fill="rgb(4,30,30)"/>
<circle cx="336" cy="48" r="12" fill="rgb(6,40,40)" opacity="0.35"/>
<circle cx="336" cy="48" r="9" fill="rgb(6,40,40)"/>
<circle cx="360" cy="48" r="12" fill="rgb(7,48,49)" opacity="0.35"/>
<circle cx="360" cy="48" r="9" fill="rgb(7,48,49)"/>
<circle cx="384" cy="48" r="12" fill="rgb(8,53,54)" opacity="0.35"/>
<circle cx="384" cy="48" r="9" fill="rgb(8,53,54)"/>
<circle cx="24" cy="72" r="12" fill="rgb(3,19,18)" opacity="0.35"/>
<circle cx="24" cy="72" r="9" fill="rgb(3,19,18)"/>
<circle cx="48" cy="72" r="12" fill="rgb(3,18,17)" opacity="0.35"/>
<circle cx="48" cy="72" r="9" fill="rgb(3,18,17)"/>
<circle cx="72" cy="72" r="9" fill="#14171c"/>
<circle cx="96" cy="72" r="9" fill="#14171c"/>
<circle cx="120" cy="72" r="9" fill="#14171c"/>
<circle cx="144" cy="72" r="9" fill="#14171c"/>
<circle cx="168" cy="72" r="9" fill="#14171c"/>
<circle cx="192" cy="72" r="9" fill="#14171c"/>
<circle cx="216" cy="72" r="9" fill="#14171c"/>
<circle cx="240" cy="72" r="9" fill="#14171c"/>
<circle cx="264" cy="72" r="9" fill="#14171c"/>
<circle cx="288" cy="72" r="9" fill="#14171c"/>
<circle cx="312" cy="72" r="12" fill="rgb(3,22,21)" opacity="0.35"/>
<circle cx="312" cy="72" r="9" fill="rgb(3,22,21)"/>
<circle cx="336" cy="72" r="12" fill="rgb(4,28,27)" opacity="0.35"/>
<circle cx="336" cy="72" r="9" fill="rgb(4,28,27)"/>
<circle cx="360" cy="72" r="12" fill="rgb(5,34,33)" opacity="0.35"/>
<circle cx="360" cy="72" r="9" fill="rgb(5,34,33)"/>
<circle cx="384" cy="72" r="12" fill="rgb(5,37,36)" opacity="0.35"/>
<circle cx="384" cy="72" r="9" fill="rgb(5,37,36)"/>
<circle cx="24" cy="96" r="9" fill="#14171c"/>
<circle cx="48" cy="96" r="9" fill="#14171c"/>
<circle cx="72" cy="96" r="9" fill="#14171c"/>
<circle cx="96" cy="96" r="9" fill="#14171c"/>
<circle cx="120" cy="96" r="9" fill="#14171c"/>
<circle cx="144" cy="96" r="9" fill="#14171c"/>
<circle cx="168" cy="96" r="9" fill="#14171c"/>
<circle cx="192" cy="96" r="9" fill="#14171c"/>
<circle cx="216" cy="96" r="9" fill="#14171c"/>
<circle cx="240" cy="96" r="9" fill="#14171c"/>
<circle cx="264" cy="96" r="9" fill="#14171c"/>
<circle cx="288" cy="96" r="9" fill="#14171c"/>
<circle cx="312" cy="96" r="9" fill="#14171c"/>
<circle cx="336" cy="96" r="9" fill="#14171c"/>
<circle cx="360" cy="96" r="12" fill="rgb(3,19,18)" opacity="0.35"/>
<circle cx="360" cy="96" r="9" fill="rgb(3,19,18)"/>
<circle cx="384" cy="96" r="12" fill="rgb(3,20,18)" opacity="0.35"/>
<circle cx="384" cy="96" r="9" fill="rgb(3,20,18)"/>
<circle cx="24" cy="120" r="9" fill="#14171c"/>
<circle cx="48" cy="120" r="9" fill="#14171c"/>
<circle cx="72" cy="120" r="9" fill="#14171c"/>
<circle cx="96" cy="120" r="9" fill="#14171c"/>
<circle cx="120" cy="120" r="9" fill="#14171c"/>
<circle cx="144" cy="120" r="9" fill="#14171c"/>
<circle cx="168" cy="120" r="9" fill="#14171c"/>
<circle cx="192" cy="120" r="9" fill="#14171c"/>
<circle cx="216" cy="120" r="9" fill="#14171c"/>
<circle cx="240" cy="120" r="9" fill="#14171c"/>
<circle cx="264" cy="120" r="9" fill="#14171c"/>
<circle cx="288" cy="120" r="9" fill="#14171c"/>
<circle cx="312" cy="120" r="9" fill="#14171c"/>
<circle cx="336" cy="120" r="9" fill="#14171c"/>
<circle cx="360" cy="120" r="9" fill="#14171c"/>
<circle cx="384" cy="120" r="9" fill="#14171c"/>
<circle cx="24" cy="144" r="9" fill="#14171c"/>
<circle cx="48" cy="144" r="9" fill="#14171c"/>
<circle cx="72" cy="144" r="9" fill="#14171c"/>
<circle cx="96" cy="144" r="9" fill="#14171c"/>
<circle cx="120" cy="144" r="9" fill="#14171c"/>
<circle cx="144" cy="144" r="9" fill="#14171c"/>
<circle cx="168" cy="144" r="9" fill="#14171c"/>
<circle cx="192" cy="144" r="9" fill="#14171c"/>
<circle cx="216" cy="144" r="9" fill="#14171c"/>
<circle cx="240" cy="144" r="9" fill="#14171c"/>
<circle cx="264" cy="144" r="9" fill="#14171c"/>
<circle cx="288" cy="144" r="9" fill="#14171c"/>
<circle cx="312" cy="144" r="9" fill="#14171c"/>
<circle cx="336" cy="144" r="9" fill="#14171c"/>
<circle cx="360" cy="144" r="9" fill="#14171c"/>
<circle cx="384" cy="144" r="9" fill="#14171c"/>
<circle cx="24" cy="168" r="9" fill="#14171c"/>
<circle cx="48" cy="168" r="9" fill="#14171c"/>
<circle cx="72" cy="168" r="9" fill="#14171c"/>
<circle cx="96" cy="168" r="9" fill="#14171c"/>
<circle cx="120" cy="168" r="9" fill="#14171c"/>
<circle cx="144" cy="168" r="9" fill="#14171c"/>
<circle cx="168" cy="168" r="9" fill="#14171c"/>
<circle cx="192" cy="168" r="9" fill="#14171c"/>
<circle cx="216" cy="168" r="9" fill="#14171c"/>
<circle cx="240" cy="168" r="9" fill="#14171c"/>
<circle cx="264" cy="168" r="9" fill="#14171c"/>
<circle cx="288" cy="168" r="9" fill="#14171c"/>
<circle cx="312" cy="168" r="9" fill="#14171c"/>
<circle cx="336" cy="168" r="9" fill="#14171c"/>
<circle cx="360" cy="168" r="9" fill="#14171c"/>
<circle cx="384" cy="168" r="9" fill="#14171c"/>
<circle cx="24" cy="192" r="9" fill="#14171c"/>
<circle cx="48" cy="192" r="9" fill="#14171c"/>
<circle cx="72" cy="192" r="9" fill="#14171c"/>
<circle cx="96" cy="192" r="9" fill="#14171c"/>
<circle cx="120" cy="192" r="9" fill="#14171c"/>
<circle cx="144" cy="192" r="12" fill="rgb(9,20,15)" opacity="0.35"/>
<circle cx="144" cy="192" r="9" fill="rgb(9,20,15)"/>
<circle cx="168" cy="192" r="12" fill="rgb(10,23,17)" opacity="0.35"/>
<circle cx="168" cy="192" r="9" fill="rgb(10,23,17)"/>
<circle cx="192" cy="192" r="12" fill="rgb(11,25,19)" opacity="0.35"/>
<circle cx="192" cy="192" r="9" fill="rgb(11,25,19)"/>
<circle cx="216" cy="192" r="12" fill="rgb(11,26,20)" opacity="0.35"/>
<circle cx="216" cy="192" r="9" fill="rgb(11,26,20)"/>
<circle cx="240" cy="192" r="12" fill="rgb(11,26,19)" opacity="0.35"/>
<circle cx="240" cy="192" r="9" fill="rgb(11,26,19)"/>
<circle cx="264" cy="192" r="12" fill="rgb(11,24,18)" opacity="0.35"/>
<circle cx="264" cy="192" r="9" fill="rgb(11,24,18)"/>
<circle cx="288" cy="192" r="12" fill="rgb(9,21,16)" opacity="0.35"/>
<circle cx="288" cy="192" r="9" fill="rgb(9,21,16)"/>
<circle cx="312" cy="192" r="12" fill="rgb(8,18,13)" opacity="0.35"/>
<circle cx="312" cy="192" r="9" fill="rgb(8,18,13)"/>
<circle cx="336" cy="192" r="9" fill="#14171c"/>
<circle cx="360" cy="192" r="9" fill="#14171c"/>
<circle cx="384" cy="192" r="9" fill="#14171c"/>
<circle cx="24" cy="216" r="9" fill="#14171c"/>
<circle cx="48" cy="216" r="9" fill="#14171c"/>
<circle cx="72" cy="216" r="12" fill="rgb(9,18,13)" opacity="0.35"/>
<circle cx="72" cy="216" r="9" fill="rgb(9,18,13)"/>
<circle cx="96" cy="216" r="12" fill="rgb(14,28,19)" opacity="0.35"/>
<circle cx="96" cy="216" r="9" fill="rgb(14,28,19)"/>
<circle cx="120" cy="216" r="12" fill="rgb(19,39,27)" opacity="0.35"/>
<circle cx="120" cy="216" r="9" fill="rgb(19,39,27)"/>
<circle cx="144" cy="216" r="12" fill="rgb(25,50,35)" opacity="0.35"/>
<circle cx="144" cy="216" r="9" fill="rgb(25,50,35)"/>
<circle cx="168" cy="216" r="12" fill="rgb(30,60,42)" opacity="0.35"/>
<circle cx="168" cy="216" r="9" fill="rgb(30,60,42)"/>
<circle cx="192" cy="216" r="12" fill="rgb(33,65,46)" opacity="0.35"/>
<circle cx="192" cy="216" r="9" fill="rgb(33,65,46)"/>
<circle cx="216" cy="216" r="12" fill="rgb(33,66,46)" opacity="0.35"/>
<circle cx="216" cy="216" r="9" fill="rgb(33,66,46)"/>
<circle cx="240" cy="216" r="12" fill="rgb(31,62,43)" opacity="0.35"/>
<circle cx="240" cy="216" r="9" fill="rgb(31,62,43)"/>
<circle cx="264" cy="216" r="12" fill="rgb(27,54,38)" opacity="0.35"/>
<circle cx="264" cy="216" r="9" fill="rgb(27,54,38)"/>
<circle cx="288" cy="216" r="12" fill="rgb(22,44,31)" opacity="0.35"/>
<circle cx="288" cy="216" r="9" fill="rgb(22,44,31)"/>
<circle cx="312" cy="216" r="12" fill="rgb(17,34,24)" opacity="0.35"/>
<circle cx="312" cy="216" r="9" fill="rgb(17,34,24)"/>
<circle cx="336" cy="216" r="12" fill="rgb(12,24,17)" opacity="0.35"/>
<circle cx="336" cy="216" r="9" fill="rgb(12,24,17)"/>
<circle cx="360" cy="216" r="9" fill="#14171c"/>
<circle cx="384" cy="216" r="9" fill="#14171c"/>
<circle cx="24" cy="240" r="9" fill="#14171c"/>
<circle cx="48" cy="240" r="12" fill="rgb(13,23,15)" opacity="0.35"/>
<circle cx="48" cy="240" r="9" fill="rgb(13,23,15)"/>
<circle cx="72" cy="240" r="12" fill="rgb(20,36,24)" opacity="0.35"/>
<circle cx="72" cy="240" r="9" fill="rgb(20,36,24)"/>
<circle cx="96" cy="240" r="12" fill="rgb(29,53,35)" opacity="0.35"/>
<circle cx="96" cy="240" r="9" fill="rgb(29,53,35)"/>
<circle cx="120" cy="240" r="12" fill="rgb(40,72,48)" opacity="0.35"/>
<circle cx="120" cy="240" r="9" fill="rgb(40,72,48)"/>
<circle cx="144" cy="240" r="12" fill="rgb(50,90,60)" opacity="0.35"/>
<circle cx="144" cy="240" r="9" fill="rgb(50,90,60)"/>
<circle cx="168" cy="240" r="12" fill="rgb(58,105,70)" opacity="0.35"/>
<circle cx="168" cy="240" r="9" fill="rgb(58,105,70)"/>
<circle cx="192" cy="240" r="12" fill="rgb(63,113,75)" opacity="0.35"/>
<circle cx="192" cy="240" r="9" fill="rgb(63,113,75)"/>
<circle cx="216" cy="240" r="12" fill="rgb(64,114,76)" opacity="0.35"/>
<circle cx="216" cy="240" r="9" fill="rgb(64,114,76)"/>
<circle cx="240" cy="240" r="12" fill="rgb(59,106,70)" opacity="0.35"/>
<circle cx="240" cy="240" r="9" fill="rgb(59,106,70)"/>
<circle cx="264" cy="240" r="12" fill="rgb(51,92,61)" opacity="0.35"/>
<circle cx="264" cy="240" r="9" fill="rgb(51,92,61)"/>
<circle cx="288" cy="240" r="12" fill="rgb(41,73,48)" opacity="0.35"/>
<circle cx="288" cy="240" r="9" fill="rgb(41,73,48)"/>
<circle cx="312" cy="240" r="12" fill="rgb(30,54,36)" opacity="0.35"/>
<circle cx="312" cy="240" r="9" fill="rgb(30,54,36)"/>
<circle cx="336" cy="240" r="12" fill="rgb(20,37,24)" opacity="0.35"/>
<circle cx="336" cy="240" r="9" fill="rgb(20,37,24)"/>
<circle cx="360" cy="240" r="12" fill="rgb(13,23,15)" opacity="0.35"/>
<circle cx="360" cy="240" r="9" fill="rgb(13,23,15)"/>
<circle cx="384" cy="240" r="9" fill="#14171c"/>
<circle cx="24" cy="264" r="12" fill="rgb(20,32,22)" opacity="0.35"/>
<circle cx="24" cy="264" r="9" fill="rgb(20,32,22)"/>
<circle cx="48" cy="264" r="12" fill="rgb(30,49,33)" opacity="0.35"/>
<circle cx="48" cy="264" r="9" fill="rgb(30,49,33)"/>
<circle cx="72" cy="264" r="12" fill="rgb(42,69,46)" opacity="0.35"/>
<circle cx="72" cy="264" r="9" fill="rgb(42,69,46)"/>
<circle cx="96" cy="264" r="12" fill="rgb(55,90,61)" opacity="0.35"/>
<circle cx="96" cy="264" r="9" fill="rgb(55,90,61)"/>
<circle cx="120" cy="264" r="12" fill="rgb(68,111,75)" opacity="0.35"/>
<circle cx="120" cy="264" r="9" fill="rgb(68,111,75)"/>
<circle cx="144" cy="264" r="12" fill="rgb(79,129,88)" opacity="0.35"/>
<circle cx="144" cy="264" r="9" fill="rgb(79,129,88)"/>
<circle cx="168" cy="264" r="12" fill="rgb(87,142,97)" opacity="0.35"/>
<circle cx="168" cy="264" r="9" fill="rgb(87,142,97)"/>
<circle cx="192" cy="264" r="12" fill="rgb(91,149,101)" opacity="0.35"/>
<circle cx="192" cy="264" r="9" fill="rgb(91,149,101)"/>
<circle cx="216" cy="264" r="12" fill="rgb(91,148,100)" opacity="0.35"/>
<circle cx="216" cy="264" r="9" fill="rgb(91,148,100)"/>
<circle cx="240" cy="264" r="12" fill="rgb(85,139,94)" opacity="0.35"/>
<circle cx="240" cy="264" r="9" fill="rgb(85,139,94)"/>
<circle cx="264" cy="264" r="12" fill="rgb(75,122,83)" opacity="0.35"/>
<circle cx="264" cy="264" r="9" fill="rgb(75,122,83)"/>
<circle cx="288" cy="264" r="12" fill="rgb(61,100,68)" opacity="0.35"/>
<circle cx="288" cy="264" r="9" fill="rgb(61,100,68)"/>
<circle cx="312" cy="264" r="12" fill="rgb(47,77,52)" opacity="0.35"/>
<circle cx="312" cy="264" r="9" fill="rgb(47,77,52)"/>
<circle cx="336" cy="264" r="12" fill="rgb(33,54,37)" opacity="0.35"/>
<circle cx="336" cy="264" r="9" fill="rgb(33,54,37)"/>
<circle cx="360" cy="264" r="12" fill="rgb(22,35,24)" opacity="0.35"/>
<circle cx="360" cy="264" r="9" fill="rgb(22,35,24)"/>
<circle cx="384" cy="264" r="12" fill="rgb(13,21,14)" opacity="0.35"/>
<circle cx="384" cy="264" r="9" fill="rgb(13,21,14)"/>
<circle cx="24" cy="288" r="12" fill="rgb(43,65,47)" opacity="0.35"/>
<circle cx="24" cy="288" r="9" fill="rgb(43,65,47)"/>
<circle cx="48" cy="288" r="12" fill="rgb(60,90,65)" opacity="0.35"/>
<circle cx="48" cy="288" r="9" fill="rgb(60,90,65)"/>
<circle cx="72" cy="288" r="12" fill="rgb(76,115,82)" opacity="0.35"/>
<circle cx="72" cy="288" r="9" fill="rgb(76,115,82)"/>
<circle cx="96" cy="288" r="12" fill="rgb(91,136,98)" opacity="0.35"/>
<circle cx="96" cy="288" r="9" fill="rgb(91,136,98)"/>
<circle cx="120" cy="288" r="12" fill="rgb(101,153,110)" opacity="0.35"/>
<circle cx="120" cy="288" r="9" fill="rgb(101,153,110)"/>
<circle cx="144" cy="288" r="12" fill="rgb(107,162,116)" opacity="0.35"/>
<circle cx="144" cy="288" r="9" fill="rgb(107,162,116)"/>
<circle cx="168" cy="288" r="12" fill="rgb(109,164,118)" opacity="0.35"/>
<circle cx="168" cy="288" r="9" fill="rgb(109,164,118)"/>
<circle cx="192" cy="288" r="12" fill="rgb(107,161,116)" opacity="0.35"/>
<circle cx="192" cy="288" r="9" fill="rgb(107,161,116)"/>
<circle cx="216" cy="288" r="12" fill="rgb(102,154,111)" opacity="0.35"/>
<circle cx="216" cy="288" r="9" fill="rgb(102,154,111)"/>
<circle cx="240" cy="288" r="12" fill="rgb(96,144,104)" opacity="0.35"/>
<circle cx="240" cy="288" r="9" fill="rgb(96,144,104)"/>
<circle cx="264" cy="288" r="12" fill="rgb(88,132,95)" opacity="0.35"/>
<circle cx="264" cy="288" r="9" fill="rgb(88,132,95)"/>
<circle cx="288" cy="288" r="12" fill="rgb(78,117,84)" opacity="0.35"/>
<circle cx="288" cy="288" r="9" fill="rgb(78,117,84)"/>
<circle cx="312" cy="288" r="12" fill="rgb(66,99,71)" opacity="0.35"/>
<circle cx="312" cy="288" r="9" fill="rgb(66,99,71)"/>
<circle cx="336" cy="288" r="12" fill="rgb(52,79,57)" opacity="0.35"/>
<circle cx="336" cy="288" r="9" fill="rgb(52,79,57)"/>
<circle cx="360" cy="288" r="12" fill="rgb(39,59,42)" opacity="0.35"/>
<circle cx="360" cy="288" r="9" fill="rgb(39,59,42)"/>
<circle cx="384" cy="288" r="12" fill="rgb(27,41,29)" opacity="0.35"/>
<circle cx="384" cy="288" r="9" fill="rgb(27,41,29)"/>
<circle cx="24" cy="312" r="12" fill="rgb(77,109,83)" opacity="0.35"/>
<circle cx="24" cy="312" r="9" fill="rgb(77,109,83)"/>
<circle cx="48" cy="312" r="12" fill="rgb(99,139,106)" opacity="0.35"/>
<circle cx="48" cy="312" r="9" fill="rgb(99,139,106)"/>
<circle cx="72" cy="312" r="12" fill="rgb(117,165,125)" opacity="0.35"/>
<circle cx="72" cy="312" r="9" fill="rgb(117,165,125)"/>
<circle cx="96" cy="312" r="12" fill="rgb(129,181,138)" opacity="0.35"/>
<circle cx="96" cy="312" r="9" fill="rgb(129,181,138)"/>
<circle cx="120" cy="312" r="12" fill="rgb(132,186,142)" opacity="0.35"/>
<circle cx="120" cy="312" r="9" fill="rgb(132,186,142)"/>
<circle cx="144" cy="312" r="12" fill="rgb(128,180,137)" opacity="0.35"/>
<circle cx="144" cy="312" r="9" fill="rgb(128,180,137)"/>
<circle cx="168" cy="312" r="12" fill="rgb(118,166,126)" opacity="0.35"/>
<circle cx="168" cy="312" r="9" fill="rgb(118,166,126)"/>
<circle cx="192" cy="312" r="12" fill="rgb(106,149,113)" opacity="0.35"/>
<circle cx="192" cy="312" r="9" fill="rgb(106,149,113)"/>
<circle cx="216" cy="312" r="12" fill="rgb(96,135,102)" opacity="0.35"/>
<circle cx="216" cy="312" r="9" fill="rgb(96,135,102)"/>
<circle cx="240" cy="312" r="12" fill="rgb(89,125,95)" opacity="0.35"/>
<circle cx="240" cy="312" r="9" fill="rgb(89,125,95)"/>
<circle cx="264" cy="312" r="12" fill="rgb(86,121,92)" opacity="0.35"/>
<circle cx="264" cy="312" r="9" fill="rgb(86,121,92)"/>
<circle cx="288" cy="312" r="12" fill="rgb(84,118,89)" opacity="0.35"/>
<circle cx="288" cy="312" r="9" fill="rgb(84,118,89)"/>
<circle cx="312" cy="312" r="12" fill="rgb(80,113,86)" opacity="0.35"/>
<circle cx="312" cy="312" r="9" fill="rgb(80,113,86)"/>
<circle cx="336" cy="312" r="12" fill="rgb(73,103,78)" opacity="0.35"/>
<circle cx="336" cy="312" r="9" fill="rgb(73,103,78)"/>
<circle cx="360" cy="312" r="12" fill="rgb(62,87,66)" opacity="0.35"/>
<circle cx="360" cy="312" r="9" fill="rgb(62,87,66)"/>
<circle cx="384" cy="312" r="12" fill="rgb(49,68,52)" opacity="0.35"/>
<circle cx="384" cy="312" r="9" fill="rgb(49,68,52)"/>
<circle cx="24" cy="336" r="12" fill="rgb(117,155,124)" opacity="0.35"/>
<circle cx="24" cy="336" r="9" fill="rgb(117,155,124)"/>
<circle cx="48" cy="336" r="12" fill="rgb(142,187,150)" opacity="0.35"/>
<circle cx="48" cy="336" r="9" fill="rgb(142,187,150)"/>
<circle cx="72" cy="336" r="12" fill="rgb(152,200,161)" opacity="0.35"/>
<circle cx="72" cy="336" r="9" fill="rgb(152,200,161)"/>
<circle cx="96" cy="336" r="12" fill="rgb(152,200,161)" opacity="0.35"/>
<circle cx="96" cy="336" r="9" fill="rgb(152,200,161)"/>
<circle cx="120" cy="336" r="12" fill="rgb(152,200,161)" opacity="0.35"/>
<circle cx="120" cy="336" r="9" fill="rgb(152,200,161)"/>
<circle cx="144" cy="336" r="12" fill="rgb(138,182,146)" opacity="0.35"/>
<circle cx="144" cy="336" r="9" fill="rgb(138,182,146)"/>
<circle cx="168" cy="336" r="12" fill="rgb(116,153,123)" opacity="0.35"/>
<circle cx="168" cy="336" r="9" fill="rgb(116,153,123)"/>
<circle cx="192" cy="336" r="12" fill="rgb(95,126,101)" opacity="0.35"/>
<circle cx="192" cy="336" r="9" fill="rgb(95,126,101)"/>
<circle cx="216" cy="336" r="12" fill="rgb(81,106,85)" opacity="0.35"/>
<circle cx="216" cy="336" r="9" fill="rgb(81,106,85)"/>
<circle cx="240" cy="336" r="12" fill="rgb(74,98,79)" opacity="0.35"/>
<circle cx="240" cy="336" r="9" fill="rgb(74,98,79)"/>
<circle cx="264" cy="336" r="12" fill="rgb(76,100,80)" opacity="0.35"/>
<circle cx="264" cy="336" r="9" fill="rgb(76,100,80)"/>
<circle cx="288" cy="336" r="12" fill="rgb(82,108,87)" opacity="0.35"/>
<circle cx="288" cy="336" r="9" fill="rgb(82,108,87)"/>
<circle cx="312" cy="336" r="12" fill="rgb(88,116,93)" opacity="0.35"/>
<circle cx="312" cy="336" r="9" fill="rgb(88,116,93)"/>
<circle cx="336" cy="336" r="12" fill="rgb(89,118,94)" opacity="0.35"/>
<circle cx="336" cy="336" r="9" fill="rgb(89,118,94)"/>
<circle cx="360" cy="336" r="12" fill="rgb(84,111,89)" opacity="0.35"/>
<circle cx="360" cy="336" r="9" fill="rgb(84,111,89)"/>
<circle cx="384" cy="336" r="12" fill="rgb(73,96,77)" opacity="0.35"/>
<circle cx="384" cy="336" r="9" fill="rgb(73,96,77)"/>
<circle cx="24" cy="360" r="12" fill="rgb(153,192,160)" opacity="0.35"/>
<circle cx="24" cy="360" r="9" fill="rgb(153,192,160)"/>
<circle cx="48" cy="360" r="12" fill="rgb(164,206,172)" opacity="0.35"/>
<circle cx="48" cy="360" r="9" fill="rgb(164,206,172)"/>
<circle cx="72" cy="360" r="12" fill="rgb(164,206,172)" opacity="0.35"/>
<circle cx="72" cy="360" r="9" fill="rgb(164,206,172)"/>
<circle cx="96" cy="360" r="12" fill="rgb(164,206,172)" opacity="0.35"/>
<circle cx="96" cy="360" r="9" fill="rgb(164,206,172)"/>
<circle cx="120" cy="360" r="12" fill="rgb(164,206,172)" opacity="0.35"/>
<circle cx="120" cy="360" r="9" fill="rgb(164,206,172)"/>
<circle cx="144" cy="360" r="12" fill="rgb(137,171,143)" opacity="0.35"/>
<circle cx="144" cy="360" r="9" fill="rgb(137,171,143)"/>
<circle cx="168" cy="360" r="12" fill="rgb(106,133,111)" opacity="0.35"/>
<circle cx="168" cy="360" r="9" fill="rgb(106,133,111)"/>
<circle cx="192" cy="360" r="12" fill="rgb(81,101,85)" opacity="0.35"/>
<circle cx="192" cy="360" r="9" fill="rgb(81,101,85)"/>
<circle cx="216" cy="360" r="12" fill="rgb(65,81,68)" opacity="0.35"/>
<circle cx="216" cy="360" r="9" fill="rgb(65,81,68)"/>
<circle cx="240" cy="360" r="12" fill="rgb(60,75,62)" opacity="0.35"/>
<circle cx="240" cy="360" r="9" fill="rgb(60,75,62)"/>
<circle cx="264" cy="360" r="12" fill="rgb(65,81,68)" opacity="0.35"/>
<circle cx="264" cy="360" r="9" fill="rgb(65,81,68)"/>
<circle cx="288" cy="360" r="12" fill="rgb(76,95,80)" opacity="0.35"/>
<circle cx="288" cy="360" r="9" fill="rgb(76,95,80)"/>
<circle cx="312" cy="360" r="12" fill="rgb(88,111,93)" opacity="0.35"/>
<circle cx="312" cy="360" r="9" fill="rgb(88,111,93)"/>
<circle cx="336" cy="360" r="12" fill="rgb(97,122,102)" opacity="0.35"/>
<circle cx="336" cy="360" r="9" fill="rgb(97,122,102)"/>
<circle cx="360" cy="360" r="12" fill="rgb(98,123,103)" opacity="0.35"/>
<circle cx="360" cy="360" r="9" fill="rgb(98,123,103)"/>
<circle cx="384" cy="360" r="12" fill="rgb(91,114,95)" opacity="0.35"/>
<circle cx="384" cy="360" r="9" fill="rgb(91,114,95)"/>
<circle cx="24" cy="384" r="12" fill="rgb(176,209,183)" opacity="0.35"/>
<circle cx="24" cy="384" r="9" fill="rgb(176,209,183)"/>
<circle cx="48" cy="384" r="12" fill="rgb(177,210,184)" opacity="0.35"/>
<circle cx="48" cy="384" r="9" fill="rgb(177,210,184)"/>
<circle cx="72" cy="384" r="12" fill="rgb(177,210,184)" opacity="0.35"/>
<circle cx="72" cy="384" r="9" fill="rgb(177,210,184)"/>
<circle cx="96" cy="384" r="12" fill="rgb(177,210,184)" opacity="0.35"/>
<circle cx="96" cy="384" r="9" fill="rgb(177,210,184)"/>
<circle cx="120" cy="384" r="12" fill="rgb(166,197,173)" opacity="0.35"/>
<circle cx="120" cy="384" r="9" fill="rgb(166,197,173)"/>
<circle cx="144" cy="384" r="12" fill="rgb(132,156,137)" opacity="0.35"/>
<circle cx="144" cy="384" r="9" fill="rgb(132,156,137)"/>
<circle cx="168" cy="384" r="12" fill="rgb(97,115,101)" opacity="0.35"/>
<circle cx="168" cy="384" r="9" fill="rgb(97,115,101)"/>
<circle cx="192" cy="384" r="12" fill="rgb(70,83,73)" opacity="0.35"/>
<circle cx="192" cy="384" r="9" fill="rgb(70,83,73)"/>
<circle cx="216" cy="384" r="12" fill="rgb(54,64,56)" opacity="0.35"/>
<circle cx="216" cy="384" r="9" fill="rgb(54,64,56)"/>
<circle cx="240" cy="384" r="12" fill="rgb(50,59,52)" opacity="0.35"/>
<circle cx="240" cy="384" r="9" fill="rgb(50,59,52)"/>
<circle cx="264" cy="384" r="12" fill="rgb(57,67,59)" opacity="0.35"/>
<circle cx="264" cy="384" r="9" fill="rgb(57,67,59)"/>
<circle cx="288" cy="384" r="12" fill="rgb(71,84,73)" opacity="0.35"/>
<circle cx="288" cy="384" r="9" fill="rgb(71,84,73)"/>
<circle cx="312" cy="384" r="12" fill="rgb(87,103,90)" opacity="0.35"/>
<circle cx="312" cy="384" r="9" fill="rgb(87,103,90)"/>
<circle cx="336" cy="384" r="12" fill="rgb(99,118,103)" opacity="0.35"/>
<circle cx="336" cy="384" r="9" fill="rgb(99,118,103)"/>
<circle cx="360" cy="384" r="12" fill="rgb(105,124,109)" opacity="0.35"/>
<circle cx="360" cy="384" r="9" fill="rgb(105,124,109)"/>
<circle cx="384" cy="384" r="12" fill="rgb(101,120,105)" opacity="0.35"/>
<circle cx="384" cy="384" r="9" fill="rgb(101,120,105)"/>
</svg>
