<svg xmlns="http://www.w3.org/2000/svg" viewBox="0 0 408 408" width="408" height="408" role="img" aria-label="LED preview of the Audio Cascade example graph">
<rect width="408" height="408" rx="10" fill="#05070a"/>
<circle cx="24" cy="24" r="12" fill="rgb(19,72,0)" opacity="0.35"/>
<circle cx="24" cy="24" r="9" fill="rgb(19,72,0)"/>
<circle cx="48" cy="24" r="12" fill="rgb(16,47,0)" opacity="0.35"/>
<circle cx="48" cy="24" r="9" fill="rgb(16,47,0)"/>
<circle cx="72" cy="24" r="12" fill="rgb(2,29,0)" opacity="0.35"/>
<circle cx="72" cy="24" r="9" fill="rgb(2,29,0)"/>
<circle cx="96" cy="24" r="12" fill="rgb(0,29,7)" opacity="0.35"/>
<circle cx="96" cy="24" r="9" fill="rgb(0,29,7)"/>
<circle cx="120" cy="24" r="12" fill="rgb(0,34,32)" opacity="0.35"/>
<circle cx="120" cy="24" r="9" fill="rgb(0,34,32)"/>
<circle cx="144" cy="24" r="12" fill="rgb(0,22,36)" opacity="0.35"/>
<circle cx="144" cy="24" r="9" fill="rgb(0,22,36)"/>
<circle cx="168" cy="24" r="12" fill="rgb(0,27,29)" opacity="0.35"/>
<circle cx="168" cy="24" r="9" fill="rgb(0,27,29)"/>
<circle cx="192" cy="24" r="12" fill="rgb(0,28,43)" opacity="0.35"/>
<circle cx="192" cy="24" r="9" fill="rgb(0,28,43)"/>
<circle cx="216" cy="24" r="12" fill="rgb(0,21,56)" opacity="0.35"/>
<circle cx="216" cy="24" r="9" fill="rgb(0,21,56)"/>
<circle cx="240" cy="24" r="12" fill="rgb(7,0,65)" opacity="0.35"/>
<circle cx="240" cy="24" r="9" fill="rgb(7,0,65)"/>
<circle cx="264" cy="24" r="12" fill="rgb(72,0,71)" opacity="0.35"/>
<circle cx="264" cy="24" r="9" fill="rgb(72,0,71)"/>
<circle cx="288" cy="24" r="12" fill="rgb(26,0,53)" opacity="0.35"/>
<circle cx="288" cy="24" r="9" fill="rgb(26,0,53)"/>
<circle cx="312" cy="24" r="12" fill="rgb(25,0,34)" opacity="0.35"/>
<circle cx="312" cy="24" r="9" fill="rgb(25,0,34)"/>
<circle cx="336" cy="24" r="12" fill="rgb(29,0,28)" opacity="0.35"/>
<circle cx="336" cy="24" r="9" fill="rgb(29,0,28)"/>
<circle cx="360" cy="24" r="12" fill="rgb(30,0,18)" opacity="0.35"/>
<circle cx="360" cy="24" r="9" fill="rgb(30,0,18)"/>
<circle cx="384" cy="24" r="12" fill="rgb(39,19,0)" opacity="0.35"/>
<circle cx="384" cy="24" r="9" fill="rgb(39,19,0)"/>
<circle cx="24" cy="48" r="12" fill="rgb(19,52,0)" opacity="0.35"/>
<circle cx="24" cy="48" r="9" fill="rgb(19,52,0)"/>
<circle cx="48" cy="48" r="12" fill="rgb(3,36,0)" opacity="0.35"/>
<circle cx="48" cy="48" r="9" fill="rgb(3,36,0)"/>
<circle cx="72" cy="48" r="12" fill="rgb(0,29,6)" opacity="0.35"/>
<circle cx="72" cy="48" r="9" fill="rgb(0,29,6)"/>
<circle cx="96" cy="48" r="12" fill="rgb(0,34,31)" opacity="0.35"/>
<circle cx="96" cy="48" r="9" fill="rgb(0,34,31)"/>
<circle cx="120" cy="48" r="12" fill="rgb(0,23,36)" opacity="0.35"/>
<circle cx="120" cy="48" r="9" fill="rgb(0,23,36)"/>
<circle cx="144" cy="48" r="12" fill="rgb(0,35,36)" opacity="0.35"/>
<circle cx="144" cy="48" r="9" fill="rgb(0,35,36)"/>
<circle cx="168" cy="48" r="12" fill="rgb(0,36,52)" opacity="0.35"/>
<circle cx="168" cy="48" r="9" fill="rgb(0,36,52)"/>
<circle cx="192" cy="48" r="12" fill="rgb(0,28,69)" opacity="0.35"/>
<circle cx="192" cy="48" r="9" fill="rgb(0,28,69)"/>
<circle cx="216" cy="48" r="12" fill="rgb(7,0,85)" opacity="0.35"/>
<circle cx="216" cy="48" r="9" fill="rgb(7,0,85)"/>
<circle cx="240" cy="48" r="12" fill="rgb(97,0,98)" opacity="0.35"/>
<circle cx="240" cy="48" r="9" fill="rgb(97,0,98)"/>
<circle cx="264" cy="48" r="12" fill="rgb(40,0,85)" opacity="0.35"/>
<circle cx="264" cy="48" r="9" fill="rgb(40,0,85)"/>
<circle cx="288" cy="48" r="12" fill="rgb(50,0,71)" opacity="0.35"/>
<circle cx="288" cy="48" r="9" fill="rgb(50,0,71)"/>
<circle cx="312" cy="48" r="12" fill="rgb(48,0,48)" opacity="0.35"/>
<circle cx="312" cy="48" r="9" fill="rgb(48,0,48)"/>
<circle cx="336" cy="48" r="12" fill="rgb(30,0,19)" opacity="0.35"/>
<circle cx="336" cy="48" r="9" fill="rgb(30,0,19)"/>
<circle cx="360" cy="48" r="12" fill="rgb(39,18,0)" opacity="0.35"/>
<circle cx="360" cy="48" r="9" fill="rgb(39,18,0)"/>
<circle cx="384" cy="48" r="12" fill="rgb(30,0,2)" opacity="0.35"/>
<circle cx="384" cy="48" r="9" fill="rgb(30,0,2)"/>
<circle cx="24" cy="72" r="12" fill="rgb(3,29,0)" opacity="0.35"/>
<circle cx="24" cy="72" r="9" fill="rgb(3,29,0)"/>
<circle cx="48" cy="72" r="12" fill="rgb(0,29,5)" opacity="0.35"/>
<circle cx="48" cy="72" r="9" fill="rgb(0,29,5)"/>
<circle cx="72" cy="72" r="12" fill="rgb(0,34,30)" opacity="0.35"/>
<circle cx="72" cy="72" r="9" fill="rgb(0,34,30)"/>
<circle cx="96" cy="72" r="12" fill="rgb(0,24,36)" opacity="0.35"/>
<circle cx="96" cy="72" r="9" fill="rgb(0,24,36)"/>
<circle cx="120" cy="72" r="12" fill="rgb(0,29,29)" opacity="0.35"/>
<circle cx="120" cy="72" r="9" fill="rgb(0,29,29)"/>
<circle cx="144" cy="72" r="12" fill="rgb(0,30,42)" opacity="0.35"/>
<circle cx="144" cy="72" r="9" fill="rgb(0,30,42)"/>
<circle cx="168" cy="72" r="12" fill="rgb(0,28,64)" opacity="0.35"/>
<circle cx="168" cy="72" r="9" fill="rgb(0,28,64)"/>
<circle cx="192" cy="72" r="12" fill="rgb(4,0,87)" opacity="0.35"/>
<circle cx="192" cy="72" r="9" fill="rgb(4,0,87)"/>
<circle cx="216" cy="72" r="12" fill="rgb(105,0,110)" opacity="0.35"/>
<circle cx="216" cy="72" r="9" fill="rgb(105,0,110)"/>
<circle cx="240" cy="72" r="12" fill="rgb(47,0,107)" opacity="0.35"/>
<circle cx="240" cy="72" r="9" fill="rgb(47,0,107)"/>
<circle cx="264" cy="72" r="12" fill="rgb(70,0,102)" opacity="0.35"/>
<circle cx="264" cy="72" r="9" fill="rgb(70,0,102)"/>
<circle cx="288" cy="72" r="12" fill="rgb(84,0,87)" opacity="0.35"/>
<circle cx="288" cy="72" r="9" fill="rgb(84,0,87)"/>
<circle cx="312" cy="72" r="12" fill="rgb(64,0,44)" opacity="0.35"/>
<circle cx="312" cy="72" r="9" fill="rgb(64,0,44)"/>
<circle cx="336" cy="72" r="12" fill="rgb(46,19,0)" opacity="0.35"/>
<circle cx="336" cy="72" r="9" fill="rgb(46,19,0)"/>
<circle cx="360" cy="72" r="12" fill="rgb(30,0,2)" opacity="0.35"/>
<circle cx="360" cy="72" r="9" fill="rgb(30,0,2)"/>
<circle cx="384" cy="72" r="12" fill="rgb(29,2,0)" opacity="0.35"/>
<circle cx="384" cy="72" r="9" fill="rgb(29,2,0)"/>
<circle cx="24" cy="96" r="12" fill="rgb(0,29,4)" opacity="0.35"/>
<circle cx="24" cy="96" r="9" fill="rgb(0,29,4)"/>
<circle cx="48" cy="96" r="12" fill="rgb(0,34,29)" opacity="0.35"/>
<circle cx="48" cy="96" r="9" fill="rgb(0,34,29)"/>
<circle cx="72" cy="96" r="12" fill="rgb(0,25,36)" opacity="0.35"/>
<circle cx="72" cy="96" r="9" fill="rgb(0,25,36)"/>
<circle cx="96" cy="96" r="12" fill="rgb(0,29,28)" opacity="0.35"/>
<circle cx="96" cy="96" r="9" fill="rgb(0,29,28)"/>
<circle cx="120" cy="96" r="12" fill="rgb(0,22,29)" opacity="0.35"/>
<circle cx="120" cy="96" r="9" fill="rgb(0,22,29)"/>
<circle cx="144" cy="96" r="12" fill="rgb(0,17,37)" opacity="0.35"/>
<circle cx="144" cy="96" r="9" fill="rgb(0,17,37)"/>
<circle cx="168" cy="96" r="12" fill="rgb(1,0,66)" opacity="0.35"/>
<circle cx="168" cy="96" r="9" fill="rgb(1,0,66)"/>
<circle cx="192" cy="96" r="12" fill="rgb(90,0,97)" opacity="0.35"/>
<circle cx="192" cy="96" r="9" fill="rgb(90,0,97)"/>
<circle cx="216" cy="96" r="12" fill="rgb(42,0,105)" opacity="0.35"/>
<circle cx="216" cy="96" r="9" fill="rgb(42,0,105)"/>
<circle cx="240" cy="96" r="12" fill="rgb(73,0,112)" opacity="0.35"/>
<circle cx="240" cy="96" r="9" fill="rgb(73,0,112)"/>
<circle cx="264" cy="96" r="12" fill="rgb(101,0,108)" opacity="0.35"/>
<circle cx="264" cy="96" r="9" fill="rgb(101,0,108)"/>
<circle cx="288" cy="96" r="12" fill="rgb(95,0,68)" opacity="0.35"/>
<circle cx="288" cy="96" r="9" fill="rgb(95,0,68)"/>
<circle cx="312" cy="96" r="12" fill="rgb(82,32,0)" opacity="0.35"/>
<circle cx="312" cy="96" r="9" fill="rgb(82,32,0)"/>
<circle cx="336" cy="96" r="12" fill="rgb(48,0,5)" opacity="0.35"/>
<circle cx="336" cy="96" r="9" fill="rgb(48,0,5)"/>
<circle cx="360" cy="96" r="12" fill="rgb(29,1,0)" opacity="0.35"/>
<circle cx="360" cy="96" r="9" fill="rgb(29,1,0)"/>
<circle cx="384" cy="96" r="12" fill="rgb(29,10,0)" opacity="0.35"/>
<circle cx="384" cy="96" r="9" fill="rgb(29,10,0)"/>
<circle cx="24" cy="120" r="12" fill="rgb(0,34,27)" opacity="0.35"/>
<circle cx="24" cy="120" r="9" fill="rgb(0,34,27)"/>
<circle cx="48" cy="120" r="12" fill="rgb(0,26,36)" opacity="0.35"/>
<circle cx="48" cy="120" r="9" fill="rgb(0,26,36)"/>
<circle cx="72" cy="120" r="12" fill="rgb(0,29,27)" opacity="0.35"/>
<circle cx="72" cy="120" r="9" fill="rgb(0,29,27)"/>
<circle cx="96" cy="120" r="12" fill="rgb(0,22,29)" opacity="0.35"/>
<circle cx="96" cy="120" r="9" fill="rgb(0,22,29)"/>
<circle cx="120" cy="120" r="12" fill="rgb(0,14,29)" opacity="0.35"/>
<circle cx="120" cy="120" r="9" fill="rgb(0,14,29)"/>
<circle cx="144" cy="120" r="12" fill="rgb(0,1,31)" opacity="0.35"/>
<circle cx="144" cy="120" r="9" fill="rgb(0,1,31)"/>
<circle cx="168" cy="120" r="12" fill="rgb(55,0,62)" opacity="0.35"/>
<circle cx="168" cy="120" r="9" fill="rgb(55,0,62)"/>
<circle cx="192" cy="120" r="12" fill="rgb(29,0,78)" opacity="0.35"/>
<circle cx="192" cy="120" r="9" fill="rgb(29,0,78)"/>
<circle cx="216" cy="120" r="12" fill="rgb(59,0,95)" opacity="0.35"/>
<circle cx="216" cy="120" r="9" fill="rgb(59,0,95)"/>
<circle cx="240" cy="120" r="12" fill="rgb(93,0,103)" opacity="0.35"/>
<circle cx="240" cy="120" r="9" fill="rgb(93,0,103)"/>
<circle cx="264" cy="120" r="12" fill="rgb(101,0,76)" opacity="0.35"/>
<circle cx="264" cy="120" r="9" fill="rgb(101,0,76)"/>
<circle cx="288" cy="120" r="12" fill="rgb(98,35,0)" opacity="0.35"/>
<circle cx="288" cy="120" r="9" fill="rgb(98,35,0)"/>
<circle cx="312" cy="120" r="12" fill="rgb(70,0,10)" opacity="0.35"/>
<circle cx="312" cy="120" r="9" fill="rgb(70,0,10)"/>
<circle cx="336" cy="120" r="12" fill="rgb(48,1,0)" opacity="0.35"/>
<circle cx="336" cy="120" r="9" fill="rgb(48,1,0)"/>
<circle cx="360" cy="120" r="12" fill="rgb(29,9,0)" opacity="0.35"/>
<circle cx="360" cy="120" r="9" fill="rgb(29,9,0)"/>
<circle cx="384" cy="120" r="12" fill="rgb(29,17,0)" opacity="0.35"/>
<circle cx="384" cy="120" r="9" fill="rgb(29,17,0)"/>
<circle cx="24" cy="144" r="12" fill="rgb(0,27,36)" opacity="0.35"/>
<circle cx="24" cy="144" r="9" fill="rgb(0,27,36)"/>
<circle cx="48" cy="144" r="12" fill="rgb(0,29,26)" opacity="0.35"/>
<circle cx="48" cy="144" r="9" fill="rgb(0,29,26)"/>
<circle cx="72" cy="144" r="12" fill="rgb(0,23,29)" opacity="0.35"/>
<circle cx="72" cy="144" r="9" fill="rgb(0,23,29)"/>
<circle cx="96" cy="144" r="12" fill="rgb(0,15,29)" opacity="0.35"/>
<circle cx="96" cy="144" r="9" fill="rgb(0,15,29)"/>
<circle cx="120" cy="144" r="12" fill="rgb(0,2,31)" opacity="0.35"/>
<circle cx="120" cy="144" r="9" fill="rgb(0,2,31)"/>
<circle cx="144" cy="144" r="12" fill="rgb(33,0,39)" opacity="0.35"/>
<circle cx="144" cy="144" r="9" fill="rgb(33,0,39)"/>
<circle cx="168" cy="144" r="12" fill="rgb(13,0,37)" opacity="0.35"/>
<circle cx="168" cy="144" r="9" fill="rgb(13,0,37)"/>
<circle cx="192" cy="144" r="12" fill="rgb(36,0,61)" opacity="0.35"/>
<circle cx="192" cy="144" r="9" fill="rgb(36,0,61)"/>
<circle cx="216" cy="144" r="12" fill="rgb(67,0,77)" opacity="0.35"/>
<circle cx="216" cy="144" r="9" fill="rgb(67,0,77)"/>
<circle cx="240" cy="144" r="12" fill="rgb(84,0,65)" opacity="0.35"/>
<circle cx="240" cy="144" r="9" fill="rgb(84,0,65)"/>
<circle cx="264" cy="144" r="12" fill="rgb(90,29,0)" opacity="0.35"/>
<circle cx="264" cy="144" r="9" fill="rgb(90,29,0)"/>
<circle cx="288" cy="144" r="12" fill="rgb(69,0,12)" opacity="0.35"/>
<circle cx="288" cy="144" r="9" fill="rgb(69,0,12)"/>
<circle cx="312" cy="144" r="12" fill="rgb(52,0,1)" opacity="0.35"/>
<circle cx="312" cy="144" r="9" fill="rgb(52,0,1)"/>
<circle cx="336" cy="144" r="12" fill="rgb(37,10,0)" opacity="0.35"/>
<circle cx="336" cy="144" r="9" fill="rgb(37,10,0)"/>
<circle cx="360" cy="144" r="12" fill="rgb(29,16,0)" opacity="0.35"/>
<circle cx="360" cy="144" r="9" fill="rgb(29,16,0)"/>
<circle cx="384" cy="144" r="12" fill="rgb(16,38,0)" opacity="0.35"/>
<circle cx="384" cy="144" r="9" fill="rgb(16,38,0)"/>
<circle cx="24" cy="168" r="12" fill="rgb(0,29,25)" opacity="0.35"/>
<circle cx="24" cy="168" r="9" fill="rgb(0,29,25)"/>
<circle cx="48" cy="168" r="12" fill="rgb(0,24,29)" opacity="0.35"/>
<circle cx="48" cy="168" r="9" fill="rgb(0,24,29)"/>
<circle cx="72" cy="168" r="12" fill="rgb(0,16,29)" opacity="0.35"/>
<circle cx="72" cy="168" r="9" fill="rgb(0,16,29)"/>
<circle cx="96" cy="168" r="12" fill="rgb(0,3,31)" opacity="0.35"/>
<circle cx="96" cy="168" r="9" fill="rgb(0,3,31)"/>
<circle cx="120" cy="168" r="12" fill="rgb(32,0,39)" opacity="0.35"/>
<circle cx="120" cy="168" r="9" fill="rgb(32,0,39)"/>
<circle cx="144" cy="168" r="12" fill="rgb(9,0,29)" opacity="0.35"/>
<circle cx="144" cy="168" r="9" fill="rgb(9,0,29)"/>
<circle cx="168" cy="168" r="12" fill="rgb(16,0,29)" opacity="0.35"/>
<circle cx="168" cy="168" r="9" fill="rgb(16,0,29)"/>
<circle cx="192" cy="168" r="12" fill="rgb(37,0,45)" opacity="0.35"/>
<circle cx="192" cy="168" r="9" fill="rgb(37,0,45)"/>
<circle cx="216" cy="168" r="12" fill="rgb(57,0,46)" opacity="0.35"/>
<circle cx="216" cy="168" r="9" fill="rgb(57,0,46)"/>
<circle cx="240" cy="168" r="12" fill="rgb(69,20,0)" opacity="0.35"/>
<circle cx="240" cy="168" r="9" fill="rgb(69,20,0)"/>
<circle cx="264" cy="168" r="12" fill="rgb(53,0,11)" opacity="0.35"/>
<circle cx="264" cy="168" r="9" fill="rgb(53,0,11)"/>
<circle cx="288" cy="168" r="12" fill="rgb(40,0,2)" opacity="0.35"/>
<circle cx="288" cy="168" r="9" fill="rgb(40,0,2)"/>
<circle cx="312" cy="168" r="12" fill="rgb(29,7,0)" opacity="0.35"/>
<circle cx="312" cy="168" r="9" fill="rgb(29,7,0)"/>
<circle cx="336" cy="168" r="12" fill="rgb(29,15,0)" opacity="0.35"/>
<circle cx="336" cy="168" r="9" fill="rgb(29,15,0)"/>
<circle cx="360" cy="168" r="12" fill="rgb(17,38,0)" opacity="0.35"/>
<circle cx="360" cy="168" r="9" fill="rgb(17,38,0)"/>
<circle cx="384" cy="168" r="12" fill="rgb(20,32,0)" opacity="0.35"/>
<circle cx="384" cy="168" r="9" fill="rgb(20,32,0)"/>
<circle cx="24" cy="192" r="12" fill="rgb(0,25,29)" opacity="0.35"/>
<circle cx="24" cy="192" r="9" fill="rgb(0,25,29)"/>
<circle cx="48" cy="192" r="12" fill="rgb(0,17,29)" opacity="0.35"/>
<circle cx="48" cy="192" r="9" fill="rgb(0,17,29)"/>
<circle cx="72" cy="192" r="12" fill="rgb(0,4,31)" opacity="0.35"/>
<circle cx="72" cy="192" r="9" fill="rgb(0,4,31)"/>
<circle cx="96" cy="192" r="12" fill="rgb(31,0,39)" opacity="0.35"/>
<circle cx="96" cy="192" r="9" fill="rgb(31,0,39)"/>
<circle cx="120" cy="192" r="12" fill="rgb(8,0,29)" opacity="0.35"/>
<circle cx="120" cy="192" r="9" fill="rgb(8,0,29)"/>
<circle cx="144" cy="192" r="12" fill="rgb(15,0,29)" opacity="0.35"/>
<circle cx="144" cy="192" r="9" fill="rgb(15,0,29)"/>
<circle cx="168" cy="192" r="12" fill="rgb(23,0,29)" opacity="0.35"/>
<circle cx="168" cy="192" r="9" fill="rgb(23,0,29)"/>
<circle cx="192" cy="192" r="12" fill="rgb(37,0,31)" opacity="0.35"/>
<circle cx="192" cy="192" r="9" fill="rgb(37,0,31)"/>
<circle cx="216" cy="192" r="12" fill="rgb(51,13,0)" opacity="0.35"/>
<circle cx="216" cy="192" r="9" fill="rgb(51,13,0)"/>
<circle cx="240" cy="192" r="12" fill="rgb(38,0,9)" opacity="0.35"/>
<circle cx="240" cy="192" r="9" fill="rgb(38,0,9)"/>
<circle cx="264" cy="192" r="12" fill="rgb(29,0,2)" opacity="0.35"/>
<circle cx="264" cy="192" r="9" fill="rgb(29,0,2)"/>
<circle cx="288" cy="192" r="12" fill="rgb(29,6,0)" opacity="0.35"/>
<circle cx="288" cy="192" r="9" fill="rgb(29,6,0)"/>
<circle cx="312" cy="192" r="12" fill="rgb(29,15,0)" opacity="0.35"/>
<circle cx="312" cy="192" r="9" fill="rgb(29,15,0)"/>
<circle cx="336" cy="192" r="12" fill="rgb(18,38,0)" opacity="0.35"/>
<circle cx="336" cy="192" r="9" fill="rgb(18,38,0)"/>
<circle cx="360" cy="192" r="12" fill="rgb(21,32,0)" opacity="0.35"/>
<circle cx="360" cy="192" r="9" fill="rgb(21,32,0)"/>
<circle cx="384" cy="192" r="12" fill="rgb(19,29,0)" opacity="0.35"/>
<circle cx="384" cy="192" r="9" fill="rgb(19,29,0)"/>
<circle cx="24" cy="216" r="12" fill="rgb(0,18,29)" opacity="0.35"/>
<circle cx="24" cy="216" r="9" fill="rgb(0,18,29)"/>
<circle cx="48" cy="216" r="12" fill="rgb(0,5,31)" opacity="0.35"/>
<circle cx="48" cy="216" r="9" fill="rgb(0,5,31)"/>
<circle cx="72" cy="216" r="12" fill="rgb(30,0,39)" opacity="0.35"/>
<circle cx="72" cy="216" r="9" fill="rgb(30,0,39)"/>
<circle cx="96" cy="216" r="12" fill="rgb(7,0,29)" opacity="0.35"/>
<circle cx="96" cy="216" r="9" fill="rgb(7,0,29)"/>
<circle cx="120" cy="216" r="12" fill="rgb(14,0,29)" opacity="0.35"/>
<circle cx="120" cy="216" r="9" fill="rgb(14,0,29)"/>
<circle cx="144" cy="216" r="12" fill="rgb(22,0,29)" opacity="0.35"/>
<circle cx="144" cy="216" r="9" fill="rgb(22,0,29)"/>
<circle cx="168" cy="216" r="12" fill="rgb(35,0,31)" opacity="0.35"/>
<circle cx="168" cy="216" r="9" fill="rgb(35,0,31)"/>
<circle cx="192" cy="216" r="12" fill="rgb(49,11,0)" opacity="0.35"/>
<circle cx="192" cy="216" r="9" fill="rgb(49,11,0)"/>
<circle cx="216" cy="216" r="12" fill="rgb(37,0,10)" opacity="0.35"/>
<circle cx="216" cy="216" r="9" fill="rgb(37,0,10)"/>
<circle cx="240" cy="216" r="12" fill="rgb(29,0,3)" opacity="0.35"/>
<circle cx="240" cy="216" r="9" fill="rgb(29,0,3)"/>
<circle cx="264" cy="216" r="12" fill="rgb(29,5,0)" opacity="0.35"/>
<circle cx="264" cy="216" r="9" fill="rgb(29,5,0)"/>
<circle cx="288" cy="216" r="12" fill="rgb(29,14,0)" opacity="0.35"/>
<circle cx="288" cy="216" r="9" fill="rgb(29,14,0)"/>
<circle cx="312" cy="216" r="12" fill="rgb(19,38,0)" opacity="0.35"/>
<circle cx="312" cy="216" r="9" fill="rgb(19,38,0)"/>
<circle cx="336" cy="216" r="12" fill="rgb(22,32,0)" opacity="0.35"/>
<circle cx="336" cy="216" r="9" fill="rgb(22,32,0)"/>
<circle cx="360" cy="216" r="12" fill="rgb(20,29,0)" opacity="0.35"/>
<circle cx="360" cy="216" r="9" fill="rgb(20,29,0)"/>
<circle cx="384" cy="216" r="12" fill="rgb(12,29,0)" opacity="0.35"/>
<circle cx="384" cy="216" r="9" fill="rgb(12,29,0)"/>
<circle cx="24" cy="240" r="12" fill="rgb(0,6,31)" opacity="0.35"/>
<circle cx="24" cy="240" r="9" fill="rgb(0,6,31)"/>
<circle cx="48" cy="240" r="12" fill="rgb(28,0,39)" opacity="0.35"/>
<circle cx="48" cy="240" r="9" fill="rgb(28,0,39)"/>
<circle cx="72" cy="240" r="12" fill="rgb(6,0,29)" opacity="0.35"/>
<circle cx="72" cy="240" r="9" fill="rgb(6,0,29)"/>
<circle cx="96" cy="240" r="12" fill="rgb(13,0,29)" opacity="0.35"/>
<circle cx="96" cy="240" r="9" fill="rgb(13,0,29)"/>
<circle cx="120" cy="240" r="12" fill="rgb(27,0,37)" opacity="0.35"/>
<circle cx="120" cy="240" r="9" fill="rgb(27,0,37)"/>
<circle cx="144" cy="240" r="12" fill="rgb(50,0,45)" opacity="0.35"/>
<circle cx="144" cy="240" r="9" fill="rgb(50,0,45)"/>
<circle cx="168" cy="240" r="12" fill="rgb(66,13,0)" opacity="0.35"/>
<circle cx="168" cy="240" r="9" fill="rgb(66,13,0)"/>
<circle cx="192" cy="240" r="12" fill="rgb(54,0,16)" opacity="0.35"/>
<circle cx="192" cy="240" r="9" fill="rgb(54,0,16)"/>
<circle cx="216" cy="240" r="12" fill="rgb(42,0,6)" opacity="0.35"/>
<circle cx="216" cy="240" r="9" fill="rgb(42,0,6)"/>
<circle cx="240" cy="240" r="12" fill="rgb(29,4,0)" opacity="0.35"/>
<circle cx="240" cy="240" r="9" fill="rgb(29,4,0)"/>
<circle cx="264" cy="240" r="12" fill="rgb(29,13,0)" opacity="0.35"/>
<circle cx="264" cy="240" r="9" fill="rgb(29,13,0)"/>
<circle cx="288" cy="240" r="12" fill="rgb(20,38,0)" opacity="0.35"/>
<circle cx="288" cy="240" r="9" fill="rgb(20,38,0)"/>
<circle cx="312" cy="240" r="12" fill="rgb(23,32,0)" opacity="0.35"/>
<circle cx="312" cy="240" r="9" fill="rgb(23,32,0)"/>
<circle cx="336" cy="240" r="12" fill="rgb(21,29,0)" opacity="0.35"/>
<circle cx="336" cy="240" r="9" fill="rgb(21,29,0)"/>
<circle cx="360" cy="240" r="12" fill="rgb(13,29,0)" opacity="0.35"/>
<circle cx="360" cy="240" r="9" fill="rgb(13,29,0)"/>
<circle cx="384" cy="240" r="12" fill="rgb(5,29,0)" opacity="0.35"/>
<circle cx="384" cy="240" r="9" fill="rgb(5,29,0)"/>
<circle cx="24" cy="264" r="12" fill="rgb(27,0,39)" opacity="0.35"/>
<circle cx="24" cy="264" r="9" fill="rgb(27,0,39)"/>
<circle cx="48" cy="264" r="12" fill="rgb(5,0,29)" opacity="0.35"/>
<circle cx="48" cy="264" r="9" fill="rgb(5,0,29)"/>
<circle cx="72" cy="264" r="12" fill="rgb(15,0,35)" opacity="0.35"/>
<circle cx="72" cy="264" r="9" fill="rgb(15,0,35)"/>
<circle cx="96" cy="264" r="12" fill="rgb(36,0,50)" opacity="0.35"/>
<circle cx="96" cy="264" r="9" fill="rgb(36,0,50)"/>
<circle cx="120" cy="264" r="12" fill="rgb(66,0,62)" opacity="0.35"/>
<circle cx="120" cy="264" r="9" fill="rgb(66,0,62)"/>
<circle cx="144" cy="264" r="12" fill="rgb(87,14,0)" opacity="0.35"/>
<circle cx="144" cy="264" r="9" fill="rgb(87,14,0)"/>
<circle cx="168" cy="264" r="12" fill="rgb(81,0,27)" opacity="0.35"/>
<circle cx="168" cy="264" r="9" fill="rgb(81,0,27)"/>
<circle cx="192" cy="264" r="12" fill="rgb(73,0,12)" opacity="0.35"/>
<circle cx="192" cy="264" r="9" fill="rgb(73,0,12)"/>
<circle cx="216" cy="264" r="12" fill="rgb(57,6,0)" opacity="0.35"/>
<circle cx="216" cy="264" r="9" fill="rgb(57,6,0)"/>
<circle cx="240" cy="264" r="12" fill="rgb(34,14,0)" opacity="0.35"/>
<circle cx="240" cy="264" r="9" fill="rgb(34,14,0)"/>
<circle cx="264" cy="264" r="12" fill="rgb(22,38,0)" opacity="0.35"/>
<circle cx="264" cy="264" r="9" fill="rgb(22,38,0)"/>
<circle cx="288" cy="264" r="12" fill="rgb(24,32,0)" opacity="0.35"/>
<circle cx="288" cy="264" r="9" fill="rgb(24,32,0)"/>
<circle cx="312" cy="264" r="12" fill="rgb(22,29,0)" opacity="0.35"/>
<circle cx="312" cy="264" r="9" fill="rgb(22,29,0)"/>
<circle cx="336" cy="264" r="12" fill="rgb(14,29,0)" opacity="0.35"/>
<circle cx="336" cy="264" r="9" fill="rgb(14,29,0)"/>
<circle cx="360" cy="264" r="12" fill="rgb(6,29,0)" opacity="0.35"/>
<circle cx="360" cy="264" r="9" fill="rgb(6,29,0)"/>
<circle cx="384" cy="264" r="12" fill="rgb(0,35,20)" opacity="0.35"/>
<circle cx="384" cy="264" r="9" fill="rgb(0,35,20)"/>
<circle cx="24" cy="288" r="12" fill="rgb(4,0,29)" opacity="0.35"/>
<circle cx="24" cy="288" r="9" fill="rgb(4,0,29)"/>
<circle cx="48" cy="288" r="12" fill="rgb(12,0,30)" opacity="0.35"/>
<circle cx="48" cy="288" r="9" fill="rgb(12,0,30)"/>
<circle cx="72" cy="288" r="12" fill="rgb(33,0,48)" opacity="0.35"/>
<circle cx="72" cy="288" r="9" fill="rgb(33,0,48)"/>
<circle cx="96" cy="288" r="12" fill="rgb(69,0,67)" opacity="0.35"/>
<circle cx="96" cy="288" r="9" fill="rgb(69,0,67)"/>
<circle cx="120" cy="288" r="12" fill="rgb(97,13,0)" opacity="0.35"/>
<circle cx="120" cy="288" r="9" fill="rgb(97,13,0)"/>
<circle cx="144" cy="288" r="12" fill="rgb(100,0,36)" opacity="0.35"/>
<circle cx="144" cy="288" r="9" fill="rgb(100,0,36)"/>
<circle cx="168" cy="288" r="12" fill="rgb(101,0,20)" opacity="0.35"/>
<circle cx="168" cy="288" r="9" fill="rgb(101,0,20)"/>
<circle cx="192" cy="288" r="12" fill="rgb(93,7,0)" opacity="0.35"/>
<circle cx="192" cy="288" r="9" fill="rgb(93,7,0)"/>
<circle cx="216" cy="288" r="12" fill="rgb(75,28,0)" opacity="0.35"/>
<circle cx="216" cy="288" r="9" fill="rgb(75,28,0)"/>
<circle cx="240" cy="288" r="12" fill="rgb(35,58,0)" opacity="0.35"/>
<circle cx="240" cy="288" r="9" fill="rgb(35,58,0)"/>
<circle cx="264" cy="288" r="12" fill="rgb(25,32,0)" opacity="0.35"/>
<circle cx="264" cy="288" r="9" fill="rgb(25,32,0)"/>
<circle cx="288" cy="288" r="12" fill="rgb(23,29,0)" opacity="0.35"/>
<circle cx="288" cy="288" r="9" fill="rgb(23,29,0)"/>
<circle cx="312" cy="288" r="12" fill="rgb(15,29,0)" opacity="0.35"/>
<circle cx="312" cy="288" r="9" fill="rgb(15,29,0)"/>
<circle cx="336" cy="288" r="12" fill="rgb(7,29,0)" opacity="0.35"/>
<circle cx="336" cy="288" r="9" fill="rgb(7,29,0)"/>
<circle cx="360" cy="288" r="12" fill="rgb(0,35,18)" opacity="0.35"/>
<circle cx="360" cy="288" r="9" fill="rgb(0,35,18)"/>
<circle cx="384" cy="288" r="12" fill="rgb(0,35,30)" opacity="0.35"/>
<circle cx="384" cy="288" r="9" fill="rgb(0,35,30)"/>
<circle cx="24" cy="312" r="12" fill="rgb(11,0,29)" opacity="0.35"/>
<circle cx="24" cy="312" r="9" fill="rgb(11,0,29)"/>
<circle cx="48" cy="312" r="12" fill="rgb(19,0,29)" opacity="0.35"/>
<circle cx="48" cy="312" r="9" fill="rgb(19,0,29)"/>
<circle cx="72" cy="312" r="12" fill="rgb(49,0,49)" opacity="0.35"/>
<circle cx="72" cy="312" r="9" fill="rgb(49,0,49)"/>
<circle cx="96" cy="312" r="12" fill="rgb(84,9,0)" opacity="0.35"/>
<circle cx="96" cy="312" r="9" fill="rgb(84,9,0)"/>
<circle cx="120" cy="312" r="12" fill="rgb(96,0,38)" opacity="0.35"/>
<circle cx="120" cy="312" r="9" fill="rgb(96,0,38)"/>
<circle cx="144" cy="312" r="12" fill="rgb(108,0,25)" opacity="0.35"/>
<circle cx="144" cy="312" r="9" fill="rgb(108,0,25)"/>
<circle cx="168" cy="312" r="12" fill="rgb(112,5,0)" opacity="0.35"/>
<circle cx="168" cy="312" r="9" fill="rgb(112,5,0)"/>
<circle cx="192" cy="312" r="12" fill="rgb(104,36,0)" opacity="0.35"/>
<circle cx="192" cy="312" r="9" fill="rgb(104,36,0)"/>
<circle cx="216" cy="312" r="12" fill="rgb(60,94,0)" opacity="0.35"/>
<circle cx="216" cy="312" r="9" fill="rgb(60,94,0)"/>
<circle cx="240" cy="312" r="12" fill="rgb(53,64,0)" opacity="0.35"/>
<circle cx="240" cy="312" r="9" fill="rgb(53,64,0)"/>
<circle cx="264" cy="312" r="12" fill="rgb(28,34,0)" opacity="0.35"/>
<circle cx="264" cy="312" r="9" fill="rgb(28,34,0)"/>
<circle cx="288" cy="312" r="12" fill="rgb(16,29,0)" opacity="0.35"/>
<circle cx="288" cy="312" r="9" fill="rgb(16,29,0)"/>
<circle cx="312" cy="312" r="12" fill="rgb(8,29,0)" opacity="0.35"/>
<circle cx="312" cy="312" r="9" fill="rgb(8,29,0)"/>
<circle cx="336" cy="312" r="12" fill="rgb(0,35,17)" opacity="0.35"/>
<circle cx="336" cy="312" r="9" fill="rgb(0,35,17)"/>
<circle cx="360" cy="312" r="12" fill="rgb(0,35,29)" opacity="0.35"/>
<circle cx="360" cy="312" r="9" fill="rgb(0,35,29)"/>
<circle cx="384" cy="312" r="12" fill="rgb(0,29,17)" opacity="0.35"/>
<circle cx="384" cy="312" r="9" fill="rgb(0,29,17)"/>
<circle cx="24" cy="336" r="12" fill="rgb(18,0,29)" opacity="0.35"/>
<circle cx="24" cy="336" r="9" fill="rgb(18,0,29)"/>
<circle cx="48" cy="336" r="12" fill="rgb(29,0,30)" opacity="0.35"/>
<circle cx="48" cy="336" r="9" fill="rgb(29,0,30)"/>
<circle cx="72" cy="336" r="12" fill="rgb(49,3,0)" opacity="0.35"/>
<circle cx="72" cy="336" r="9" fill="rgb(49,3,0)"/>
<circle cx="96" cy="336" r="12" fill="rgb(67,0,29)" opacity="0.35"/>
<circle cx="96" cy="336" r="9" fill="rgb(67,0,29)"/>
<circle cx="120" cy="336" r="12" fill="rgb(89,0,23)" opacity="0.35"/>
<circle cx="120" cy="336" r="9" fill="rgb(89,0,23)"/>
<circle cx="144" cy="336" r="12" fill="rgb(104,2,0)" opacity="0.35"/>
<circle cx="144" cy="336" r="9" fill="rgb(104,2,0)"/>
<circle cx="168" cy="336" r="12" fill="rgb(108,34,0)" opacity="0.35"/>
<circle cx="168" cy="336" r="9" fill="rgb(108,34,0)"/>
<circle cx="192" cy="336" r="12" fill="rgb(74,110,0)" opacity="0.35"/>
<circle cx="192" cy="336" r="9" fill="rgb(74,110,0)"/>
<circle cx="216" cy="336" r="12" fill="rgb(76,88,0)" opacity="0.35"/>
<circle cx="216" cy="336" r="9" fill="rgb(76,88,0)"/>
<circle cx="240" cy="336" r="12" fill="rgb(55,64,0)" opacity="0.35"/>
<circle cx="240" cy="336" r="9" fill="rgb(55,64,0)"/>
<circle cx="264" cy="336" r="12" fill="rgb(24,41,0)" opacity="0.35"/>
<circle cx="264" cy="336" r="9" fill="rgb(24,41,0)"/>
<circle cx="288" cy="336" r="12" fill="rgb(9,29,0)" opacity="0.35"/>
<circle cx="288" cy="336" r="9" fill="rgb(9,29,0)"/>
<circle cx="312" cy="336" r="12" fill="rgb(0,35,16)" opacity="0.35"/>
<circle cx="312" cy="336" r="9" fill="rgb(0,35,16)"/>
<circle cx="336" cy="336" r="12" fill="rgb(0,35,28)" opacity="0.35"/>
<circle cx="336" cy="336" r="9" fill="rgb(0,35,28)"/>
<circle cx="360" cy="336" r="12" fill="rgb(0,29,16)" opacity="0.35"/>
<circle cx="360" cy="336" r="9" fill="rgb(0,29,16)"/>
<circle cx="384" cy="336" r="12" fill="rgb(0,29,24)" opacity="0.35"/>
<circle cx="384" cy="336" r="9" fill="rgb(0,29,24)"/>
<circle cx="24" cy="360" r="12" fill="rgb(28,0,30)" opacity="0.35"/>
<circle cx="24" cy="360" r="9" fill="rgb(28,0,30)"/>
<circle cx="48" cy="360" r="12" fill="rgb(39,2,0)" opacity="0.35"/>
<circle cx="48" cy="360" r="9" fill="rgb(39,2,0)"/>
<circle cx="72" cy="360" r="12" fill="rgb(30,0,14)" opacity="0.35"/>
<circle cx="72" cy="360" r="9" fill="rgb(30,0,14)"/>
<circle cx="96" cy="360" r="12" fill="rgb(51,0,15)" opacity="0.35"/>
<circle cx="96" cy="360" r="9" fill="rgb(51,0,15)"/>
<circle cx="120" cy="360" r="12" fill="rgb(74,0,1)" opacity="0.35"/>
<circle cx="120" cy="360" r="9" fill="rgb(74,0,1)"/>
<circle cx="144" cy="360" r="12" fill="rgb(88,25,0)" opacity="0.35"/>
<circle cx="144" cy="360" r="9" fill="rgb(88,25,0)"/>
<circle cx="168" cy="360" r="12" fill="rgb(70,100,0)" opacity="0.35"/>
<circle cx="168" cy="360" r="9" fill="rgb(70,100,0)"/>
<circle cx="192" cy="360" r="12" fill="rgb(78,88,0)" opacity="0.35"/>
<circle cx="192" cy="360" r="9" fill="rgb(78,88,0)"/>
<circle cx="216" cy="360" r="12" fill="rgb(63,71,0)" opacity="0.35"/>
<circle cx="216" cy="360" r="9" fill="rgb(63,71,0)"/>
<circle cx="240" cy="360" r="12" fill="rgb(33,53,0)" opacity="0.35"/>
<circle cx="240" cy="360" r="9" fill="rgb(33,53,0)"/>
<circle cx="264" cy="360" r="12" fill="rgb(12,37,0)" opacity="0.35"/>
<circle cx="264" cy="360" r="9" fill="rgb(12,37,0)"/>
<circle cx="288" cy="360" r="12" fill="rgb(0,35,15)" opacity="0.35"/>
<circle cx="288" cy="360" r="9" fill="rgb(0,35,15)"/>
<circle cx="312" cy="360" r="12" fill="rgb(0,35,27)" opacity="0.35"/>
<circle cx="312" cy="360" r="9" fill="rgb(0,35,27)"/>
<circle cx="336" cy="360" r="12" fill="rgb(0,29,15)" opacity="0.35"/>
<circle cx="336" cy="360" r="9" fill="rgb(0,29,15)"/>
<circle cx="360" cy="360" r="12" fill="rgb(0,34,27)" opacity="0.35"/>
<circle cx="360" cy="360" r="9" fill="rgb(0,34,27)"/>
<circle cx="384" cy="360" r="12" fill="rgb(0,46,50)" opacity="0.35"/>
<circle cx="384" cy="360" r="9" fill="rgb(0,46,50)"/>
<circle cx="24" cy="384" r="12" fill="rgb(39,0,0)" opacity="0.35"/>
<circle cx="24" cy="384" r="9" fill="rgb(39,0,0)"/>
<circle cx="48" cy="384" r="12" fill="rgb(30,0,15)" opacity="0.35"/>
<circle cx="48" cy="384" r="9" fill="rgb(30,0,15)"/>
<circle cx="72" cy="384" r="12" fill="rgb(29,0,9)" opacity="0.35"/>
<circle cx="72" cy="384" r="9" fill="rgb(29,0,9)"/>
<circle cx="96" cy="384" r="12" fill="rgb(37,0,2)" opacity="0.35"/>
<circle cx="96" cy="384" r="9" fill="rgb(37,0,2)"/>
<circle cx="120" cy="384" r="12" fill="rgb(55,14,0)" opacity="0.35"/>
<circle cx="120" cy="384" r="9" fill="rgb(55,14,0)"/>
<circle cx="144" cy="384" r="12" fill="rgb(54,74,0)" opacity="0.35"/>
<circle cx="144" cy="384" r="9" fill="rgb(54,74,0)"/>
<circle cx="168" cy="384" r="12" fill="rgb(64,70,0)" opacity="0.35"/>
<circle cx="168" cy="384" r="9" fill="rgb(64,70,0)"/>
<circle cx="192" cy="384" r="12" fill="rgb(54,59,0)" opacity="0.35"/>
<circle cx="192" cy="384" r="9" fill="rgb(54,59,0)"/>
<circle cx="216" cy="384" r="12" fill="rgb(30,46,0)" opacity="0.35"/>
<circle cx="216" cy="384" r="9" fill="rgb(30,46,0)"/>
<circle cx="240" cy="384" r="12" fill="rgb(12,32,0)" opacity="0.35"/>
<circle cx="240" cy="384" r="9" fill="rgb(12,32,0)"/>
<circle cx="264" cy="384" r="12" fill="rgb(0,35,14)" opacity="0.35"/>
<circle cx="264" cy="384" r="9" fill="rgb(0,35,14)"/>
<circle cx="288" cy="384" r="12" fill="rgb(0,35,26)" opacity="0.35"/>
<circle cx="288" cy="384" r="9" fill="rgb(0,35,26)"/>
<circle cx="312" cy="384" r="12" fill="rgb(0,29,14)" opacity="0.35"/>
<circle cx="312" cy="384" r="9" fill="rgb(0,29,14)"/>
<circle cx="336" cy="384" r="12" fill="rgb(0,30,22)" opacity="0.35"/>
<circle cx="336" cy="384" r="9" fill="rgb(0,30,22)"/>
<circle cx="360" cy="384" r="12" fill="rgb(0,46,47)" opacity="0.35"/>
<circle cx="360" cy="384" r="9" fill="rgb(0,46,47)"/>
<circle cx="384" cy="384" r="12" fill="rgb(0,31,70)" opacity="0.35"/>
<circle cx="384" cy="384" r="9" fill="rgb(0,31,70)"/>
</svg>
