<svg xmlns="http://www.w3.org/2000/svg" viewBox="0 0 408 408" width="408" height="408" role="img" aria-label="LED preview of the Bass Rings example graph">
<rect width="408" height="408" rx="10" fill="#05070a"/>
<circle cx="24" cy="24" r="12" fill="rgb(153,0,0)" opacity="0.35"/>
<circle cx="24" cy="24" r="9" fill="rgb(153,0,0)"/>
<circle cx="48" cy="24" r="12" fill="rgb(22,0,8)" opacity="0.35"/>
<circle cx="48" cy="24" r="9" fill="rgb(22,0,8)"/>
<circle cx="72" cy="24" r="12" fill="rgb(158,0,110)" opacity="0.35"/>
<circle cx="72" cy="24" r="9" fill="rgb(158,0,110)"/>
<circle cx="96" cy="24" r="12" fill="rgb(26,0,26)" opacity="0.35"/>
<circle cx="96" cy="24" r="9" fill="rgb(26,0,26)"/>
<circle cx="120" cy="24" r="12" fill="rgb(22,0,30)" opacity="0.35"/>
<circle cx="120" cy="24" r="9" fill="rgb(22,0,30)"/>
<circle cx="144" cy="24" r="12" fill="rgb(84,0,158)" opacity="0.35"/>
<circle cx="144" cy="24" r="9" fill="rgb(84,0,158)"/>
<circle cx="168" cy="24" r="12" fill="rgb(36,0,96)" opacity="0.35"/>
<circle cx="168" cy="24" r="9" fill="rgb(36,0,96)"/>
<circle cx="192" cy="24" r="12" fill="rgb(10,0,36)" opacity="0.35"/>
<circle cx="192" cy="24" r="9" fill="rgb(10,0,36)"/>
<circle cx="216" cy="24" r="12" fill="rgb(7,0,28)" opacity="0.35"/>
<circle cx="216" cy="24" r="9" fill="rgb(7,0,28)"/>
<circle cx="240" cy="24" r="12" fill="rgb(10,0,36)" opacity="0.35"/>
<circle cx="240" cy="24" r="9" fill="rgb(10,0,36)"/>
<circle cx="264" cy="24" r="12" fill="rgb(36,0,96)" opacity="0.35"/>
<circle cx="264" cy="24" r="9" fill="rgb(36,0,96)"/>
<circle cx="288" cy="24" r="12" fill="rgb(84,0,158)" opacity="0.35"/>
<circle cx="288" cy="24" r="9" fill="rgb(84,0,158)"/>
<circle cx="312" cy="24" r="12" fill="rgb(22,0,30)" opacity="0.35"/>
<circle cx="312" cy="24" r="9" fill="rgb(22,0,30)"/>
<circle cx="336" cy="24" r="12" fill="rgb(26,0,26)" opacity="0.35"/>
<circle cx="336" cy="24" r="9" fill="rgb(26,0,26)"/>
<circle cx="360" cy="24" r="12" fill="rgb(158,0,110)" opacity="0.35"/>
<circle cx="360" cy="24" r="9" fill="rgb(158,0,110)"/>
<circle cx="384" cy="24" r="12" fill="rgb(22,0,8)" opacity="0.35"/>
<circle cx="384" cy="24" r="9" fill="rgb(22,0,8)"/>
<circle cx="24" cy="48" r="12" fill="rgb(22,0,8)" opacity="0.35"/>
<circle cx="24" cy="48" r="9" fill="rgb(22,0,8)"/>
<circle cx="48" cy="48" r="12" fill="rgb(161,0,121)" opacity="0.35"/>
<circle cx="48" cy="48" r="9" fill="rgb(161,0,121)"/>
<circle cx="72" cy="48" r="12" fill="rgb(20,0,22)" opacity="0.35"/>
<circle cx="72" cy="48" r="9" fill="rgb(20,0,22)"/>
<circle cx="96" cy="48" r="12" fill="rgb(80,0,143)" opacity="0.35"/>
<circle cx="96" cy="48" r="9" fill="rgb(80,0,143)"/>
<circle cx="120" cy="48" r="12" fill="rgb(10,0,36)" opacity="0.35"/>
<circle cx="120" cy="48" r="9" fill="rgb(10,0,36)"/>
<circle cx="144" cy="48" r="12" fill="rgb(1,0,23)" opacity="0.35"/>
<circle cx="144" cy="48" r="9" fill="rgb(1,0,23)"/>
<circle cx="168" cy="48" r="12" fill="rgb(0,12,89)" opacity="0.35"/>
<circle cx="168" cy="48" r="9" fill="rgb(0,12,89)"/>
<circle cx="192" cy="48" r="12" fill="rgb(0,40,161)" opacity="0.35"/>
<circle cx="192" cy="48" r="9" fill="rgb(0,40,161)"/>
<circle cx="216" cy="48" r="12" fill="rgb(0,47,163)" opacity="0.35"/>
<circle cx="216" cy="48" r="9" fill="rgb(0,47,163)"/>
<circle cx="240" cy="48" r="12" fill="rgb(0,40,161)" opacity="0.35"/>
<circle cx="240" cy="48" r="9" fill="rgb(0,40,161)"/>
<circle cx="264" cy="48" r="12" fill="rgb(0,12,89)" opacity="0.35"/>
<circle cx="264" cy="48" r="9" fill="rgb(0,12,89)"/>
<circle cx="288" cy="48" r="12" fill="rgb(1,0,23)" opacity="0.35"/>
<circle cx="288" cy="48" r="9" fill="rgb(1,0,23)"/>
<circle cx="312" cy="48" r="12" fill="rgb(10,0,36)" opacity="0.35"/>
<circle cx="312" cy="48" r="9" fill="rgb(10,0,36)"/>
<circle cx="336" cy="48" r="12" fill="rgb(80,0,143)" opacity="0.35"/>
<circle cx="336" cy="48" r="9" fill="rgb(80,0,143)"/>
<circle cx="360" cy="48" r="12" fill="rgb(20,0,22)" opacity="0.35"/>
<circle cx="360" cy="48" r="9" fill="rgb(20,0,22)"/>
<circle cx="384" cy="48" r="12" fill="rgb(161,0,121)" opacity="0.35"/>
<circle cx="384" cy="48" r="9" fill="rgb(161,0,121)"/>
<circle cx="24" cy="72" r="12" fill="rgb(158,0,110)" opacity="0.35"/>
<circle cx="24" cy="72" r="9" fill="rgb(158,0,110)"/>
<circle cx="48" cy="72" r="12" fill="rgb(20,0,22)" opacity="0.35"/>
<circle cx="48" cy="72" r="9" fill="rgb(20,0,22)"/>
<circle cx="72" cy="72" r="12" fill="rgb(82,0,164)" opacity="0.35"/>
<circle cx="72" cy="72" r="9" fill="rgb(82,0,164)"/>
<circle cx="96" cy="72" r="12" fill="rgb(3,0,22)" opacity="0.35"/>
<circle cx="96" cy="72" r="9" fill="rgb(3,0,22)"/>
<circle cx="120" cy="72" r="12" fill="rgb(0,21,118)" opacity="0.35"/>
<circle cx="120" cy="72" r="9" fill="rgb(0,21,118)"/>
<circle cx="144" cy="72" r="12" fill="rgb(0,28,63)" opacity="0.35"/>
<circle cx="144" cy="72" r="9" fill="rgb(0,28,63)"/>
<circle cx="168" cy="72" r="12" fill="rgb(0,14,22)" opacity="0.35"/>
<circle cx="168" cy="72" r="9" fill="rgb(0,14,22)"/>
<circle cx="192" cy="72" r="12" fill="rgb(0,19,25)" opacity="0.35"/>
<circle cx="192" cy="72" r="9" fill="rgb(0,19,25)"/>
<circle cx="216" cy="72" r="12" fill="rgb(0,28,34)" opacity="0.35"/>
<circle cx="216" cy="72" r="9" fill="rgb(0,28,34)"/>
<circle cx="240" cy="72" r="12" fill="rgb(0,19,25)" opacity="0.35"/>
<circle cx="240" cy="72" r="9" fill="rgb(0,19,25)"/>
<circle cx="264" cy="72" r="12" fill="rgb(0,14,22)" opacity="0.35"/>
<circle cx="264" cy="72" r="9" fill="rgb(0,14,22)"/>
<circle cx="288" cy="72" r="12" fill="rgb(0,28,63)" opacity="0.35"/>
<circle cx="288" cy="72" r="9" fill="rgb(0,28,63)"/>
<circle cx="312" cy="72" r="12" fill="rgb(0,21,118)" opacity="0.35"/>
<circle cx="312" cy="72" r="9" fill="rgb(0,21,118)"/>
<circle cx="336" cy="72" r="12" fill="rgb(3,0,22)" opacity="0.35"/>
<circle cx="336" cy="72" r="9" fill="rgb(3,0,22)"/>
<circle cx="360" cy="72" r="12" fill="rgb(82,0,164)" opacity="0.35"/>
<circle cx="360" cy="72" r="9" fill="rgb(82,0,164)"/>
<circle cx="384" cy="72" r="12" fill="rgb(20,0,22)" opacity="0.35"/>
<circle cx="384" cy="72" r="9" fill="rgb(20,0,22)"/>
<circle cx="24" cy="96" r="12" fill="rgb(26,0,26)" opacity="0.35"/>
<circle cx="24" cy="96" r="9" fill="rgb(26,0,26)"/>
<circle cx="48" cy="96" r="12" fill="rgb(80,0,143)" opacity="0.35"/>
<circle cx="48" cy="96" r="9" fill="rgb(80,0,143)"/>
<circle cx="72" cy="96" r="12" fill="rgb(3,0,22)" opacity="0.35"/>
<circle cx="72" cy="96" r="9" fill="rgb(3,0,22)"/>
<circle cx="96" cy="96" r="12" fill="rgb(0,40,161)" opacity="0.35"/>
<circle cx="96" cy="96" r="9" fill="rgb(0,40,161)"/>
<circle cx="120" cy="96" r="12" fill="rgb(0,13,22)" opacity="0.35"/>
<circle cx="120" cy="96" r="9" fill="rgb(0,13,22)"/>
<circle cx="144" cy="96" r="12" fill="rgb(0,77,86)" opacity="0.35"/>
<circle cx="144" cy="96" r="9" fill="rgb(0,77,86)"/>
<circle cx="168" cy="96" r="12" fill="rgb(0,118,101)" opacity="0.35"/>
<circle cx="168" cy="96" r="9" fill="rgb(0,118,101)"/>
<circle cx="192" cy="96" r="12" fill="rgb(0,29,20)" opacity="0.35"/>
<circle cx="192" cy="96" r="9" fill="rgb(0,29,20)"/>
<circle cx="216" cy="96" r="12" fill="rgb(0,23,15)" opacity="0.35"/>
<circle cx="216" cy="96" r="9" fill="rgb(0,23,15)"/>
<circle cx="240" cy="96" r="12" fill="rgb(0,29,20)" opacity="0.35"/>
<circle cx="240" cy="96" r="9" fill="rgb(0,29,20)"/>
<circle cx="264" cy="96" r="12" fill="rgb(0,118,101)" opacity="0.35"/>
<circle cx="264" cy="96" r="9" fill="rgb(0,118,101)"/>
<circle cx="288" cy="96" r="12" fill="rgb(0,77,86)" opacity="0.35"/>
<circle cx="288" cy="96" r="9" fill="rgb(0,77,86)"/>
<circle cx="312" cy="96" r="12" fill="rgb(0,13,22)" opacity="0.35"/>
<circle cx="312" cy="96" r="9" fill="rgb(0,13,22)"/>
<circle cx="336" cy="96" r="12" fill="rgb(0,40,161)" opacity="0.35"/>
<circle cx="336" cy="96" r="9" fill="rgb(0,40,161)"/>
<circle cx="360" cy="96" r="12" fill="rgb(3,0,22)" opacity="0.35"/>
<circle cx="360" cy="96" r="9" fill="rgb(3,0,22)"/>
<circle cx="384" cy="96" r="12" fill="rgb(80,0,143)" opacity="0.35"/>
<circle cx="384" cy="96" r="9" fill="rgb(80,0,143)"/>
<circle cx="24" cy="120" r="12" fill="rgb(22,0,30)" opacity="0.35"/>
<circle cx="24" cy="120" r="9" fill="rgb(22,0,30)"/>
<circle cx="48" cy="120" r="12" fill="rgb(10,0,36)" opacity="0.35"/>
<circle cx="48" cy="120" r="9" fill="rgb(10,0,36)"/>
<circle cx="72" cy="120" r="12" fill="rgb(0,21,118)" opacity="0.35"/>
<circle cx="72" cy="120" r="9" fill="rgb(0,21,118)"/>
<circle cx="96" cy="120" r="12" fill="rgb(0,13,22)" opacity="0.35"/>
<circle cx="96" cy="120" r="9" fill="rgb(0,13,22)"/>
<circle cx="120" cy="120" r="12" fill="rgb(0,152,152)" opacity="0.35"/>
<circle cx="120" cy="120" r="9" fill="rgb(0,152,152)"/>
<circle cx="144" cy="120" r="12" fill="rgb(0,23,15)" opacity="0.35"/>
<circle cx="144" cy="120" r="9" fill="rgb(0,23,15)"/>
<circle cx="168" cy="120" r="12" fill="rgb(0,50,19)" opacity="0.35"/>
<circle cx="168" cy="120" r="9" fill="rgb(0,50,19)"/>
<circle cx="192" cy="120" r="12" fill="rgb(0,164,31)" opacity="0.35"/>
<circle cx="192" cy="120" r="9" fill="rgb(0,164,31)"/>
<circle cx="216" cy="120" r="12" fill="rgb(0,145,18)" opacity="0.35"/>
<circle cx="216" cy="120" r="9" fill="rgb(0,145,18)"/>
<circle cx="240" cy="120" r="12" fill="rgb(0,164,31)" opacity="0.35"/>
<circle cx="240" cy="120" r="9" fill="rgb(0,164,31)"/>
<circle cx="264" cy="120" r="12" fill="rgb(0,50,19)" opacity="0.35"/>
<circle cx="264" cy="120" r="9" fill="rgb(0,50,19)"/>
<circle cx="288" cy="120" r="12" fill="rgb(0,23,15)" opacity="0.35"/>
<circle cx="288" cy="120" r="9" fill="rgb(0,23,15)"/>
<circle cx="312" cy="120" r="12" fill="rgb(0,152,152)" opacity="0.35"/>
<circle cx="312" cy="120" r="9" fill="rgb(0,152,152)"/>
<circle cx="336" cy="120" r="12" fill="rgb(0,13,22)" opacity="0.35"/>
<circle cx="336" cy="120" r="9" fill="rgb(0,13,22)"/>
<circle cx="360" cy="120" r="12" fill="rgb(0,21,118)" opacity="0.35"/>
<circle cx="360" cy="120" r="9" fill="rgb(0,21,118)"/>
<circle cx="384" cy="120" r="12" fill="rgb(10,0,36)" opacity="0.35"/>
<circle cx="384" cy="120" r="9" fill="rgb(10,0,36)"/>
<circle cx="24" cy="144" r="12" fill="rgb(84,0,158)" opacity="0.35"/>
<circle cx="24" cy="144" r="9" fill="rgb(84,0,158)"/>
<circle cx="48" cy="144" r="12" fill="rgb(1,0,23)" opacity="0.35"/>
<circle cx="48" cy="144" r="9" fill="rgb(1,0,23)"/>
<circle cx="72" cy="144" r="12" fill="rgb(0,28,63)" opacity="0.35"/>
<circle cx="72" cy="144" r="9" fill="rgb(0,28,63)"/>
<circle cx="96" cy="144" r="12" fill="rgb(0,77,86)" opacity="0.35"/>
<circle cx="96" cy="144" r="9" fill="rgb(0,77,86)"/>
<circle cx="120" cy="144" r="12" fill="rgb(0,23,15)" opacity="0.35"/>
<circle cx="120" cy="144" r="9" fill="rgb(0,23,15)"/>
<circle cx="144" cy="144" r="12" fill="rgb(0,139,35)" opacity="0.35"/>
<circle cx="144" cy="144" r="9" fill="rgb(0,139,35)"/>
<circle cx="168" cy="144" r="12" fill="rgb(2,26,0)" opacity="0.35"/>
<circle cx="168" cy="144" r="9" fill="rgb(2,26,0)"/>
<circle cx="192" cy="144" r="12" fill="rgb(8,26,0)" opacity="0.35"/>
<circle cx="192" cy="144" r="9" fill="rgb(8,26,0)"/>
<circle cx="216" cy="144" r="12" fill="rgb(22,55,0)" opacity="0.35"/>
<circle cx="216" cy="144" r="9" fill="rgb(22,55,0)"/>
<circle cx="240" cy="144" r="12" fill="rgb(8,26,0)" opacity="0.35"/>
<circle cx="240" cy="144" r="9" fill="rgb(8,26,0)"/>
<circle cx="264" cy="144" r="12" fill="rgb(2,26,0)" opacity="0.35"/>
<circle cx="264" cy="144" r="9" fill="rgb(2,26,0)"/>
<circle cx="288" cy="144" r="12" fill="rgb(0,139,35)" opacity="0.35"/>
<circle cx="288" cy="144" r="9" fill="rgb(0,139,35)"/>
<circle cx="312" cy="144" r="12" fill="rgb(0,23,15)" opacity="0.35"/>
<circle cx="312" cy="144" r="9" fill="rgb(0,23,15)"/>
<circle cx="336" cy="144" r="12" fill="rgb(0,77,86)" opacity="0.35"/>
<circle cx="336" cy="144" r="9" fill="rgb(0,77,86)"/>
<circle cx="360" cy="144" r="12" fill="rgb(0,28,63)" opacity="0.35"/>
<circle cx="360" cy="144" r="9" fill="rgb(0,28,63)"/>
<circle cx="384" cy="144" r="12" fill="rgb(1,0,23)" opacity="0.35"/>
<circle cx="384" cy="144" r="9" fill="rgb(1,0,23)"/>
<circle cx="24" cy="168" r="12" fill="rgb(36,0,96)" opacity="0.35"/>
<circle cx="24" cy="168" r="9" fill="rgb(36,0,96)"/>
<circle cx="48" cy="168" r="12" fill="rgb(0,12,89)" opacity="0.35"/>
<circle cx="48" cy="168" r="9" fill="rgb(0,12,89)"/>
<circle cx="72" cy="168" r="12" fill="rgb(0,14,22)" opacity="0.35"/>
<circle cx="72" cy="168" r="9" fill="rgb(0,14,22)"/>
<circle cx="96" cy="168" r="12" fill="rgb(0,118,101)" opacity="0.35"/>
<circle cx="96" cy="168" r="9" fill="rgb(0,118,101)"/>
<circle cx="120" cy="168" r="12" fill="rgb(0,50,19)" opacity="0.35"/>
<circle cx="120" cy="168" r="9" fill="rgb(0,50,19)"/>
<circle cx="144" cy="168" r="12" fill="rgb(2,26,0)" opacity="0.35"/>
<circle cx="144" cy="168" r="9" fill="rgb(2,26,0)"/>
<circle cx="168" cy="168" r="12" fill="rgb(62,123,0)" opacity="0.35"/>
<circle cx="168" cy="168" r="9" fill="rgb(62,123,0)"/>
<circle cx="192" cy="168" r="12" fill="rgb(29,36,0)" opacity="0.35"/>
<circle cx="192" cy="168" r="9" fill="rgb(29,36,0)"/>
<circle cx="216" cy="168" r="12" fill="rgb(21,22,0)" opacity="0.35"/>
<circle cx="216" cy="168" r="9" fill="rgb(21,22,0)"/>
<circle cx="240" cy="168" r="12" fill="rgb(29,36,0)" opacity="0.35"/>
<circle cx="240" cy="168" r="9" fill="rgb(29,36,0)"/>
<circle cx="264" cy="168" r="12" fill="rgb(62,123,0)" opacity="0.35"/>
<circle cx="264" cy="168" r="9" fill="rgb(62,123,0)"/>
<circle cx="288" cy="168" r="12" fill="rgb(2,26,0)" opacity="0.35"/>
<circle cx="288" cy="168" r="9" fill="rgb(2,26,0)"/>
<circle cx="312" cy="168" r="12" fill="rgb(0,50,19)" opacity="0.35"/>
<circle cx="312" cy="168" r="9" fill="rgb(0,50,19)"/>
<circle cx="336" cy="168" r="12" fill="rgb(0,118,101)" opacity="0.35"/>
<circle cx="336" cy="168" r="9" fill="rgb(0,118,101)"/>
<circle cx="360" cy="168" r="12" fill="rgb(0,14,22)" opacity="0.35"/>
<circle cx="360" cy="168" r="9" fill="rgb(0,14,22)"/>
<circle cx="384" cy="168" r="12" fill="rgb(0,12,89)" opacity="0.35"/>
<circle cx="384" cy="168" r="9" fill="rgb(0,12,89)"/>
<circle cx="24" cy="192" r="12" fill="rgb(10,0,36)" opacity="0.35"/>
<circle cx="24" cy="192" r="9" fill="rgb(10,0,36)"/>
<circle cx="48" cy="192" r="12" fill="rgb(0,40,161)" opacity="0.35"/>
<circle cx="48" cy="192" r="9" fill="rgb(0,40,161)"/>
<circle cx="72" cy="192" r="12" fill="rgb(0,19,25)" opacity="0.35"/>
<circle cx="72" cy="192" r="9" fill="rgb(0,19,25)"/>
<circle cx="96" cy="192" r="12" fill="rgb(0,29,20)" opacity="0.35"/>
<circle cx="96" cy="192" r="9" fill="rgb(0,29,20)"/>
<circle cx="120" cy="192" r="12" fill="rgb(0,164,31)" opacity="0.35"/>
<circle cx="120" cy="192" r="9" fill="rgb(0,164,31)"/>
<circle cx="144" cy="192" r="12" fill="rgb(8,26,0)" opacity="0.35"/>
<circle cx="144" cy="192" r="9" fill="rgb(8,26,0)"/>
<circle cx="168" cy="192" r="12" fill="rgb(29,36,0)" opacity="0.35"/>
<circle cx="168" cy="192" r="9" fill="rgb(29,36,0)"/>
<circle cx="192" cy="192" r="12" fill="rgb(105,79,0)" opacity="0.35"/>
<circle cx="192" cy="192" r="9" fill="rgb(105,79,0)"/>
<circle cx="216" cy="192" r="12" fill="rgb(112,59,0)" opacity="0.35"/>
<circle cx="216" cy="192" r="9" fill="rgb(112,59,0)"/>
<circle cx="240" cy="192" r="12" fill="rgb(105,79,0)" opacity="0.35"/>
<circle cx="240" cy="192" r="9" fill="rgb(105,79,0)"/>
<circle cx="264" cy="192" r="12" fill="rgb(29,36,0)" opacity="0.35"/>
<circle cx="264" cy="192" r="9" fill="rgb(29,36,0)"/>
<circle cx="288" cy="192" r="12" fill="rgb(8,26,0)" opacity="0.35"/>
<circle cx="288" cy="192" r="9" fill="rgb(8,26,0)"/>
<circle cx="312" cy="192" r="12" fill="rgb(0,164,31)" opacity="0.35"/>
<circle cx="312" cy="192" r="9" fill="rgb(0,164,31)"/>
<circle cx="336" cy="192" r="12" fill="rgb(0,29,20)" opacity="0.35"/>
<circle cx="336" cy="192" r="9" fill="rgb(0,29,20)"/>
<circle cx="360" cy="192" r="12" fill="rgb(0,19,25)" opacity="0.35"/>
<circle cx="360" cy="192" r="9" fill="rgb(0,19,25)"/>
<circle cx="384" cy="192" r="12" fill="rgb(0,40,161)" opacity="0.35"/>
<circle cx="384" cy="192" r="9" fill="rgb(0,40,161)"/>
<circle cx="24" cy="216" r="12" fill="rgb(7,0,28)" opacity="0.35"/>
<circle cx="24" cy="216" r="9" fill="rgb(7,0,28)"/>
<circle cx="48" cy="216" r="12" fill="rgb(0,47,163)" opacity="0.35"/>
<circle cx="48" cy="216" r="9" fill="rgb(0,47,163)"/>
<circle cx="72" cy="216" r="12" fill="rgb(0,28,34)" opacity="0.35"/>
<circle cx="72" cy="216" r="9" fill="rgb(0,28,34)"/>
<circle cx="96" cy="216" r="12" fill="rgb(0,23,15)" opacity="0.35"/>
<circle cx="96" cy="216" r="9" fill="rgb(0,23,15)"/>
<circle cx="120" cy="216" r="12" fill="rgb(0,145,18)" opacity="0.35"/>
<circle cx="120" cy="216" r="9" fill="rgb(0,145,18)"/>
<circle cx="144" cy="216" r="12" fill="rgb(22,55,0)" opacity="0.35"/>
<circle cx="144" cy="216" r="9" fill="rgb(22,55,0)"/>
<circle cx="168" cy="216" r="12" fill="rgb(21,22,0)" opacity="0.35"/>
<circle cx="168" cy="216" r="9" fill="rgb(21,22,0)"/>
<circle cx="192" cy="216" r="12" fill="rgb(112,59,0)" opacity="0.35"/>
<circle cx="192" cy="216" r="9" fill="rgb(112,59,0)"/>
<circle cx="216" cy="216" r="12" fill="rgb(87,0,0)" opacity="0.35"/>
<circle cx="216" cy="216" r="9" fill="rgb(87,0,0)"/>
<circle cx="240" cy="216" r="12" fill="rgb(112,59,0)" opacity="0.35"/>
<circle cx="240" cy="216" r="9" fill="rgb(112,59,0)"/>
<circle cx="264" cy="216" r="12" fill="rgb(21,22,0)" opacity="0.35"/>
<circle cx="264" cy="216" r="9" fill="rgb(21,22,0)"/>
<circle cx="288" cy="216" r="12" fill="rgb(22,55,0)" opacity="0.35"/>
<circle cx="288" cy="216" r="9" fill="rgb(22,55,0)"/>
<circle cx="312" cy="216" r="12" fill="rgb(0,145,18)" opacity="0.35"/>
<circle cx="312" cy="216" r="9" fill="rgb(0,145,18)"/>
<circle cx="336" cy="216" r="12" fill="rgb(0,23,15)" opacity="0.35"/>
<circle cx="336" cy="216" r="9" fill="rgb(0,23,15)"/>
<circle cx="360" cy="216" r="12" fill="rgb(0,28,34)" opacity="0.35"/>
<circle cx="360" cy="216" r="9" fill="rgb(0,28,34)"/>
<circle cx="384" cy="216" r="12" fill="rgb(0,47,163)" opacity="0.35"/>
<circle cx="384" cy="216" r="9" fill="rgb(0,47,163)"/>
<circle cx="24" cy="240" r="12" fill="rgb(10,0,36)" opacity="0.35"/>
<circle cx="24" cy="240" r="9" fill="rgb(10,0,36)"/>
<circle cx="48" cy="240" r="12" fill="rgb(0,40,161)" opacity="0.35"/>
<circle cx="48" cy="240" r="9" fill="rgb(0,40,161)"/>
<circle cx="72" cy="240" r="12" fill="rgb(0,19,25)" opacity="0.35"/>
<circle cx="72" cy="240" r="9" fill="rgb(0,19,25)"/>
<circle cx="96" cy="240" r="12" fill="rgb(0,29,20)" opacity="0.35"/>
<circle cx="96" cy="240" r="9" fill="rgb(0,29,20)"/>
<circle cx="120" cy="240" r="12" fill="rgb(0,164,31)" opacity="0.35"/>
<circle cx="120" cy="240" r="9" fill="rgb(0,164,31)"/>
<circle cx="144" cy="240" r="12" fill="rgb(8,26,0)" opacity="0.35"/>
<circle cx="144" cy="240" r="9" fill="rgb(8,26,0)"/>
<circle cx="168" cy="240" r="12" fill="rgb(29,36,0)" opacity="0.35"/>
<circle cx="168" cy="240" r="9" fill="rgb(29,36,0)"/>
<circle cx="192" cy="240" r="12" fill="rgb(105,79,0)" opacity="0.35"/>
<circle cx="192" cy="240" r="9" fill="rgb(105,79,0)"/>
<circle cx="216" cy="240" r="12" fill="rgb(112,59,0)" opacity="0.35"/>
<circle cx="216" cy="240" r="9" fill="rgb(112,59,0)"/>
<circle cx="240" cy="240" r="12" fill="rgb(105,79,0)" opacity="0.35"/>
<circle cx="240" cy="240" r="9" fill="rgb(105,79,0)"/>
<circle cx="264" cy="240" r="12" fill="rgb(29,36,0)" opacity="0.35"/>
<circle cx="264" cy="240" r="9" fill="rgb(29,36,0)"/>
<circle cx="288" cy="240" r="12" fill="rgb(8,26,0)" opacity="0.35"/>
<circle cx="288" cy="240" r="9" fill="rgb(8,26,0)"/>
<circle cx="312" cy="240" r="12" fill="rgb(0,164,31)" opacity="0.35"/>
<circle cx="312" cy="240" r="9" fill="rgb(0,164,31)"/>
<circle cx="336" cy="240" r="12" fill="rgb(0,29,20)" opacity="0.35"/>
<circle cx="336" cy="240" r="9" fill="rgb(0,29,20)"/>
<circle cx="360" cy="240" r="12" fill="rgb(0,19,25)" opacity="0.35"/>
<circle cx="360" cy="240" r="9" fill="rgb(0,19,25)"/>
<circle cx="384" cy="240" r="12" fill="rgb(0,40,161)" opacity="0.35"/>
<circle cx="384" cy="240" r="9" fill="rgb(0,40,161)"/>
<circle cx="24" cy="264" r="12" fill="rgb(36,0,96)" opacity="0.35"/>
<circle cx="24" cy="264" r="9" fill="rgb(36,0,96)"/>
<circle cx="48" cy="264" r="12" fill="rgb(0,12,89)" opacity="0.35"/>
<circle cx="48" cy="264" r="9" fill="rgb(0,12,89)"/>
<circle cx="72" cy="264" r="12" fill="rgb(0,14,22)" opacity="0.35"/>
<circle cx="72" cy="264" r="9" fill="rgb(0,14,22)"/>
<circle cx="96" cy="264" r="12" fill="rgb(0,118,101)" opacity="0.35"/>
<circle cx="96" cy="264" r="9" fill="rgb(0,118,101)"/>
<circle cx="120" cy="264" r="12" fill="rgb(0,50,19)" opacity="0.35"/>
<circle cx="120" cy="264" r="9" fill="rgb(0,50,19)"/>
<circle cx="144" cy="264" r="12" fill="rgb(2,26,0)" opacity="0.35"/>
<circle cx="144" cy="264" r="9" fill="rgb(2,26,0)"/>
<circle cx="168" cy="264" r="12" fill="rgb(62,123,0)" opacity="0.35"/>
<circle cx="168" cy="264" r="9" fill="rgb(62,123,0)"/>
<circle cx="192" cy="264" r="12" fill="rgb(29,36,0)" opacity="0.35"/>
<circle cx="192" cy="264" r="9" fill="rgb(29,36,0)"/>
<circle cx="216" cy="264" r="12" fill="rgb(21,22,0)" opacity="0.35"/>
<circle cx="216" cy="264" r="9" fill="rgb(21,22,0)"/>
<circle cx="240" cy="264" r="12" fill="rgb(29,36,0)" opacity="0.35"/>
<circle cx="240" cy="264" r="9" fill="rgb(29,36,0)"/>
<circle cx="264" cy="264" r="12" fill="rgb(62,123,0)" opacity="0.35"/>
<circle cx="264" cy="264" r="9" fill="rgb(62,123,0)"/>
<circle cx="288" cy="264" r="12" fill="rgb(2,26,0)" opacity="0.35"/>
<circle cx="288" cy="264" r="9" fill="rgb(2,26,0)"/>
<circle cx="312" cy="264" r="12" fill="rgb(0,50,19)" opacity="0.35"/>
<circle cx="312" cy="264" r="9" fill="rgb(0,50,19)"/>
<circle cx="336" cy="264" r="12" fill="rgb(0,118,101)" opacity="0.35"/>
<circle cx="336" cy="264" r="9" fill="rgb(0,118,101)"/>
<circle cx="360" cy="264" r="12" fill="rgb(0,14,22)" opacity="0.35"/>
<circle cx="360" cy="264" r="9" fill="rgb(0,14,22)"/>
<circle cx="384" cy="264" r="12" fill="rgb(0,12,89)" opacity="0.35"/>
<circle cx="384" cy="264" r="9" fill="rgb(0,12,89)"/>
<circle cx="24" cy="288" r="12" fill="rgb(84,0,158)" opacity="0.35"/>
<circle cx="24" cy="288" r="9" fill="rgb(84,0,158)"/>
<circle cx="48" cy="288" r="12" fill="rgb(1,0,23)" opacity="0.35"/>
<circle cx="48" cy="288" r="9" fill="rgb(1,0,23)"/>
<circle cx="72" cy="288" r="12" fill="rgb(0,28,63)" opacity="0.35"/>
<circle cx="72" cy="288" r="9" fill="rgb(0,28,63)"/>
<circle cx="96" cy="288" r="12" fill="rgb(0,77,86)" opacity="0.35"/>
<circle cx="96" cy="288" r="9" fill="rgb(0,77,86)"/>
<circle cx="120" cy="288" r="12" fill="rgb(0,23,15)" opacity="0.35"/>
<circle cx="120" cy="288" r="9" fill="rgb(0,23,15)"/>
<circle cx="144" cy="288" r="12" fill="rgb(0,139,35)" opacity="0.35"/>
<circle cx="144" cy="288" r="9" fill="rgb(0,139,35)"/>
<circle cx="168" cy="288" r="12" fill="rgb(2,26,0)" opacity="0.35"/>
<circle cx="168" cy="288" r="9" fill="rgb(2,26,0)"/>
<circle cx="192" cy="288" r="12" fill="rgb(8,26,0)" opacity="0.35"/>
<circle cx="192" cy="288" r="9" fill="rgb(8,26,0)"/>
<circle cx="216" cy="288" r="12" fill="rgb(22,55,0)" opacity="0.35"/>
<circle cx="216" cy="288" r="9" fill="rgb(22,55,0)"/>
<circle cx="240" cy="288" r="12" fill="rgb(8,26,0)" opacity="0.35"/>
<circle cx="240" cy="288" r="9" fill="rgb(8,26,0)"/>
<circle cx="264" cy="288" r="12" fill="rgb(2,26,0)" opacity="0.35"/>
<circle cx="264" cy="288" r="9" fill="rgb(2,26,0)"/>
<circle cx="288" cy="288" r="12" fill="rgb(0,139,35)" opacity="0.35"/>
<circle cx="288" cy="288" r="9" fill="rgb(0,139,35)"/>
<circle cx="312" cy="288" r="12" fill="rgb(0,23,15)" opacity="0.35"/>
<circle cx="312" cy="288" r="9" fill="rgb(0,23,15)"/>
<circle cx="336" cy="288" r="12" fill="rgb(0,77,86)" opacity="0.35"/>
<circle cx="336" cy="288" r="9" fill="rgb(0,77,86)"/>
<circle cx="360" cy="288" r="12" fill="rgb(0,28,63)" opacity="0.35"/>
<circle cx="360" cy="288" r="9" fill="rgb(0,28,63)"/>
<circle cx="384" cy="288" r="12" fill="rgb(1,0,23)" opacity="0.35"/>
<circle cx="384" cy="288" r="9" fill="rgb(1,0,23)"/>
<circle cx="24" cy="312" r="12" fill="rgb(22,0,30)" opacity="0.35"/>
<circle cx="24" cy="312" r="9" fill="rgb(22,0,30)"/>
<circle cx="48" cy="312" r="12" fill="rgb(10,0,36)" opacity="0.35"/>
<circle cx="48" cy="312" r="9" fill="rgb(10,0,36)"/>
<circle cx="72" cy="312" r="12" fill="rgb(0,21,118)" opacity="0.35"/>
<circle cx="72" cy="312" r="9" fill="rgb(0,21,118)"/>
<circle cx="96" cy="312" r="12" fill="rgb(0,13,22)" opacity="0.35"/>
<circle cx="96" cy="312" r="9" fill="rgb(0,13,22)"/>
<circle cx="120" cy="312" r="12" fill="rgb(0,152,152)" opacity="0.35"/>
<circle cx="120" cy="312" r="9" fill="rgb(0,152,152)"/>
<circle cx="144" cy="312" r="12" fill="rgb(0,23,15)" opacity="0.35"/>
<circle cx="144" cy="312" r="9" fill="rgb(0,23,15)"/>
<circle cx="168" cy="312" r="12" fill="rgb(0,50,19)" opacity="0.35"/>
<circle cx="168" cy="312" r="9" fill="rgb(0,50,19)"/>
<circle cx="192" cy="312" r="12" fill="rgb(0,164,31)" opacity="0.35"/>
<circle cx="192" cy="312" r="9" fill="rgb(0,164,31)"/>
<circle cx="216" cy="312" r="12" fill="rgb(0,145,18)" opacity="0.35"/>
<circle cx="216" cy="312" r="9" fill="rgb(0,145,18)"/>
<circle cx="240" cy="312" r="12" fill="rgb(0,164,31)" opacity="0.35"/>
<circle cx="240" cy="312" r="9" fill="rgb(0,164,31)"/>
<circle cx="264" cy="312" r="12" fill="rgb(0,50,19)" opacity="0.35"/>
<circle cx="264" cy="312" r="9" fill="rgb(0,50,19)"/>
<circle cx="288" cy="312" r="12" fill="rgb(0,23,15)" opacity="0.35"/>
<circle cx="288" cy="312" r="9" fill="rgb(0,23,15)"/>
<circle cx="312" cy="312" r="12" fill="rgb(0,152,152)" opacity="0.35"/>
<circle cx="312" cy="312" r="9" fill="rgb(0,152,152)"/>
<circle cx="336" cy="312" r="12" fill="rgb(0,13,22)" opacity="0.35"/>
<circle cx="336" cy="312" r="9" fill="rgb(0,13,22)"/>
<circle cx="360" cy="312" r="12" fill="rgb(0,21,118)" opacity="0.35"/>
<circle cx="360" cy="312" r="9" fill="rgb(0,21,118)"/>
<circle cx="384" cy="312" r="12" fill="rgb(10,0,36)" opacity="0.35"/>
<circle cx="384" cy="312" r="9" fill="rgb(10,0,36)"/>
<circle cx="24" cy="336" r="12" fill="rgb(26,0,26)" opacity="0.35"/>
<circle cx="24" cy="336" r="9" fill="rgb(26,0,26)"/>
<circle cx="48" cy="336" r="12" fill="rgb(80,0,143)" opacity="0.35"/>
<circle cx="48" cy="336" r="9" fill="rgb(80,0,143)"/>
<circle cx="72" cy="336" r="12" fill="rgb(3,0,22)" opacity="0.35"/>
<circle cx="72" cy="336" r="9" fill="rgb(3,0,22)"/>
<circle cx="96" cy="336" r="12" fill="rgb(0,40,161)" opacity="0.35"/>
<circle cx="96" cy="336" r="9" fill="rgb(0,40,161)"/>
<circle cx="120" cy="336" r="12" fill="rgb(0,13,22)" opacity="0.35"/>
<circle cx="120" cy="336" r="9" fill="rgb(0,13,22)"/>
<circle cx="144" cy="336" r="12" fill="rgb(0,77,86)" opacity="0.35"/>
<circle cx="144" cy="336" r="9" fill="rgb(0,77,86)"/>
<circle cx="168" cy="336" r="12" fill="rgb(0,118,101)" opacity="0.35"/>
<circle cx="168" cy="336" r="9" fill="rgb(0,118,101)"/>
<circle cx="192" cy="336" r="12" fill="rgb(0,29,20)" opacity="0.35"/>
<circle cx="192" cy="336" r="9" fill="rgb(0,29,20)"/>
<circle cx="216" cy="336" r="12" fill="rgb(0,23,15)" opacity="0.35"/>
<circle cx="216" cy="336" r="9" fill="rgb(0,23,15)"/>
<circle cx="240" cy="336" r="12" fill="rgb(0,29,20)" opacity="0.35"/>
<circle cx="240" cy="336" r="9" fill="rgb(0,29,20)"/>
<circle cx="264" cy="336" r="12" fill="rgb(0,118,101)" opacity="0.35"/>
<circle cx="264" cy="336" r="9" fill="rgb(0,118,101)"/>
<circle cx="288" cy="336" r="12" fill="rgb(0,77,86)" opacity="0.35"/>
<circle cx="288" cy="336" r="9" fill="rgb(0,77,86)"/>
<circle cx="312" cy="336" r="12" fill="rgb(0,13,22)" opacity="0.35"/>
<circle cx="312" cy="336" r="9" fill="rgb(0,13,22)"/>
<circle cx="336" cy="336" r="12" fill="rgb(0,40,161)" opacity="0.35"/>
<circle cx="336" cy="336" r="9" fill="rgb(0,40,161)"/>
<circle cx="360" cy="336" r="12" fill="rgb(3,0,22)" opacity="0.35"/>
<circle cx="360" cy="336" r="9" fill="rgb(3,0,22)"/>
<circle cx="384" cy="336" r="12" fill="rgb(80,0,143)" opacity="0.35"/>
<circle cx="384" cy="336" r="9" fill="rgb(80,0,143)"/>
<circle cx="24" cy="360" r="12" fill="rgb(158,0,110)" opacity="0.35"/>
<circle cx="24" cy="360" r="9" fill="rgb(158,0,110)"/>
<circle cx="48" cy="360" r="12" fill="rgb(20,0,22)" opacity="0.35"/>
<circle cx="48" cy="360" r="9" fill="rgb(20,0,22)"/>
<circle cx="72" cy="360" r="12" fill="rgb(82,0,164)" opacity="0.35"/>
<circle cx="72" cy="360" r="9" fill="rgb(82,0,164)"/>
<circle cx="96" cy="360" r="12" fill="rgb(3,0,22)" opacity="0.35"/>
<circle cx="96" cy="360" r="9" fill="rgb(3,0,22)"/>
<circle cx="120" cy="360" r="12" fill="rgb(0,21,118)" opacity="0.35"/>
<circle cx="120" cy="360" r="9" fill="rgb(0,21,118)"/>
<circle cx="144" cy="360" r="12" fill="rgb(0,28,63)" opacity="0.35"/>
<circle cx="144" cy="360" r="9" fill="rgb(0,28,63)"/>
<circle cx="168" cy="360" r="12" fill="rgb(0,14,22)" opacity="0.35"/>
<circle cx="168" cy="360" r="9" fill="rgb(0,14,22)"/>
<circle cx="192" cy="360" r="12" fill="rgb(0,19,25)" opacity="0.35"/>
<circle cx="192" cy="360" r="9" fill="rgb(0,19,25)"/>
<circle cx="216" cy="360" r="12" fill="rgb(0,28,34)" opacity="0.35"/>
<circle cx="216" cy="360" r="9" fill="rgb(0,28,34)"/>
<circle cx="240" cy="360" r="12" fill="rgb(0,19,25)" opacity="0.35"/>
<circle cx="240" cy="360" r="9" fill="rgb(0,19,25)"/>
<circle cx="264" cy="360" r="12" fill="rgb(0,14,22)" opacity="0.35"/>
<circle cx="264" cy="360" r="9" fill="rgb(0,14,22)"/>
<circle cx="288" cy="360" r="12" fill="rgb(0,28,63)" opacity="0.35"/>
<circle cx="288" cy="360" r="9" fill="rgb(0,28,63)"/>
<circle cx="312" cy="360" r="12" fill="rgb(0,21,118)" opacity="0.35"/>
<circle cx="312" cy="360" r="9" fill="rgb(0,21,118)"/>
<circle cx="336" cy="360" r="12" fill="rgb(3,0,22)" opacity="0.35"/>
<circle cx="336" cy="360" r="9" fill="rgb(3,0,22)"/>
<circle cx="360" cy="360" r="12" fill="rgb(82,0,164)" opacity="0.35"/>
<circle cx="360" cy="360" r="9" fill="rgb(82,0,164)"/>
<circle cx="384" cy="360" r="12" fill="rgb(20,0,22)" opacity="0.35"/>
<circle cx="384" cy="360" r="9" fill="rgb(20,0,22)"/>
<circle cx="24" cy="384" r="12" fill="rgb(22,0,8)" opacity="0.35"/>
<circle cx="24" cy="384" r="9" fill="rgb(22,0,8)"/>
<circle cx="48" cy="384" r="12" fill="rgb(161,0,121)" opacity="0.35"/>
<circle cx="48" cy="384" r="9" fill="rgb(161,0,121)"/>
<circle cx="72" cy="384" r="12" fill="rgb(20,0,22)" opacity="0.35"/>
<circle cx="72" cy="384" r="9" fill="rgb(20,0,22)"/>
<circle cx="96" cy="384" r="12" fill="rgb(80,0,143)" opacity="0.35"/>
<circle cx="96" cy="384" r="9" fill="rgb(80,0,143)"/>
<circle cx="120" cy="384" r="12" fill="rgb(10,0,36)" opacity="0.35"/>
<circle cx="120" cy="384" r="9" fill="rgb(10,0,36)"/>
<circle cx="144" cy="384" r="12" fill="rgb(1,0,23)" opacity="0.35"/>
<circle cx="144" cy="384" r="9" fill="rgb(1,0,23)"/>
<circle cx="168" cy="384" r="12" fill="rgb(0,12,89)" opacity="0.35"/>
<circle cx="168" cy="384" r="9" fill="rgb(0,12,89)"/>
<circle cx="192" cy="384" r="12" fill="rgb(0,40,161)" opacity="0.35"/>
<circle cx="192" cy="384" r="9" fill="rgb(0,40,161)"/>
<circle cx="216" cy="384" r="12" fill="rgb(0,47,163)" opacity="0.35"/>
<circle cx="216" cy="384" r="9" fill="rgb(0,47,163)"/>
<circle cx="240" cy="384" r="12" fill="rgb(0,40,161)" opacity="0.35"/>
<circle cx="240" cy="384" r="9" fill="rgb(0,40,161)"/>
<circle cx="264" cy="384" r="12" fill="rgb(0,12,89)" opacity="0.35"/>
<circle cx="264" cy="384" r="9" fill="rgb(0,12,89)"/>
<circle cx="288" cy="384" r="12" fill="rgb(1,0,23)" opacity="0.35"/>
<circle cx="288" cy="384" r="9" fill="rgb(1,0,23)"/>
<circle cx="312" cy="384" r="12" fill="rgb(10,0,36)" opacity="0.35"/>
<circle cx="312" cy="384" r="9" fill="rgb(10,0,36)"/>
<circle cx="336" cy="384" r="12" fill="rgb(80,0,143)" opacity="0.35"/>
<circle cx="336" cy="384" r="9" fill="rgb(80,0,143)"/>
<circle cx="360" cy="384" r="12" fill="rgb(20,0,22)" opacity="0.35"/>
<circle cx="360" cy="384" r="9" fill="rgb(20,0,22)"/>
<circle cx="384" cy="384" r="12" fill="rgb(161,0,121)" opacity="0.35"/>
<circle cx="384" cy="384" r="9" fill="rgb(161,0,121)"/>
</svg>
