<svg xmlns="http://www.w3.org/2000/svg" viewBox="0 0 408 408" width="408" height="408" role="img" aria-label="LED preview of the Beat Flash example graph">
<rect width="408" height="408" rx="10" fill="#05070a"/>
<circle cx="24" cy="24" r="12" fill="rgb(255,141,0)" opacity="0.35"/>
<circle cx="24" cy="24" r="9" fill="rgb(255,141,0)"/>
<circle cx="48" cy="24" r="12" fill="rgb(255,81,0)" opacity="0.35"/>
<circle cx="48" cy="24" r="9" fill="rgb(255,81,0)"/>
<circle cx="72" cy="24" r="12" fill="rgb(255,31,0)" opacity="0.35"/>
<circle cx="72" cy="24" r="9" fill="rgb(255,31,0)"/>
<circle cx="96" cy="24" r="12" fill="rgb(212,1,249)" opacity="0.35"/>
<circle cx="96" cy="24" r="9" fill="rgb(212,1,249)"/>
<circle cx="120" cy="24" r="12" fill="rgb(193,10,250)" opacity="0.35"/>
<circle cx="120" cy="24" r="9" fill="rgb(193,10,250)"/>
<circle cx="144" cy="24" r="12" fill="rgb(195,9,250)" opacity="0.35"/>
<circle cx="144" cy="24" r="9" fill="rgb(195,9,250)"/>
<circle cx="168" cy="24" r="12" fill="rgb(213,0,249)" opacity="0.35"/>
<circle cx="168" cy="24" r="9" fill="rgb(213,0,249)"/>
<circle cx="192" cy="24" r="12" fill="rgb(255,20,0)" opacity="0.35"/>
<circle cx="192" cy="24" r="9" fill="rgb(255,20,0)"/>
<circle cx="216" cy="24" r="12" fill="rgb(255,43,0)" opacity="0.35"/>
<circle cx="216" cy="24" r="9" fill="rgb(255,43,0)"/>
<circle cx="240" cy="24" r="12" fill="rgb(255,65,0)" opacity="0.35"/>
<circle cx="240" cy="24" r="9" fill="rgb(255,65,0)"/>
<circle cx="264" cy="24" r="12" fill="rgb(255,82,0)" opacity="0.35"/>
<circle cx="264" cy="24" r="9" fill="rgb(255,82,0)"/>
<circle cx="288" cy="24" r="12" fill="rgb(255,92,0)" opacity="0.35"/>
<circle cx="288" cy="24" r="9" fill="rgb(255,92,0)"/>
<circle cx="312" cy="24" r="12" fill="rgb(255,96,0)" opacity="0.35"/>
<circle cx="312" cy="24" r="9" fill="rgb(255,96,0)"/>
<circle cx="336" cy="24" r="12" fill="rgb(255,95,0)" opacity="0.35"/>
<circle cx="336" cy="24" r="9" fill="rgb(255,95,0)"/>
<circle cx="360" cy="24" r="12" fill="rgb(255,91,0)" opacity="0.35"/>
<circle cx="360" cy="24" r="9" fill="rgb(255,91,0)"/>
<circle cx="384" cy="24" r="12" fill="rgb(255,88,0)" opacity="0.35"/>
<circle cx="384" cy="24" r="9" fill="rgb(255,88,0)"/>
<circle cx="24" cy="48" r="12" fill="rgb(255,62,0)" opacity="0.35"/>
<circle cx="24" cy="48" r="9" fill="rgb(255,62,0)"/>
<circle cx="48" cy="48" r="12" fill="rgb(208,3,249)" opacity="0.35"/>
<circle cx="48" cy="48" r="9" fill="rgb(208,3,249)"/>
<circle cx="72" cy="48" r="12" fill="rgb(144,33,251)" opacity="0.35"/>
<circle cx="72" cy="48" r="9" fill="rgb(144,33,251)"/>
<circle cx="96" cy="48" r="12" fill="rgb(107,51,252)" opacity="0.35"/>
<circle cx="96" cy="48" r="9" fill="rgb(107,51,252)"/>
<circle cx="120" cy="48" r="12" fill="rgb(96,56,253)" opacity="0.35"/>
<circle cx="120" cy="48" r="9" fill="rgb(96,56,253)"/>
<circle cx="144" cy="48" r="12" fill="rgb(107,51,252)" opacity="0.35"/>
<circle cx="144" cy="48" r="9" fill="rgb(107,51,252)"/>
<circle cx="168" cy="48" r="12" fill="rgb(134,38,251)" opacity="0.35"/>
<circle cx="168" cy="48" r="9" fill="rgb(134,38,251)"/>
<circle cx="192" cy="48" r="12" fill="rgb(170,21,250)" opacity="0.35"/>
<circle cx="192" cy="48" r="9" fill="rgb(170,21,250)"/>
<circle cx="216" cy="48" r="12" fill="rgb(208,3,249)" opacity="0.35"/>
<circle cx="216" cy="48" r="9" fill="rgb(208,3,249)"/>
<circle cx="240" cy="48" r="12" fill="rgb(255,21,0)" opacity="0.35"/>
<circle cx="240" cy="48" r="9" fill="rgb(255,21,0)"/>
<circle cx="264" cy="48" r="12" fill="rgb(255,40,0)" opacity="0.35"/>
<circle cx="264" cy="48" r="9" fill="rgb(255,40,0)"/>
<circle cx="288" cy="48" r="12" fill="rgb(255,51,0)" opacity="0.35"/>
<circle cx="288" cy="48" r="9" fill="rgb(255,51,0)"/>
<circle cx="312" cy="48" r="12" fill="rgb(255,55,0)" opacity="0.35"/>
<circle cx="312" cy="48" r="9" fill="rgb(255,55,0)"/>
<circle cx="336" cy="48" r="12" fill="rgb(255,53,0)" opacity="0.35"/>
<circle cx="336" cy="48" r="9" fill="rgb(255,53,0)"/>
<circle cx="360" cy="48" r="12" fill="rgb(255,48,0)" opacity="0.35"/>
<circle cx="360" cy="48" r="9" fill="rgb(255,48,0)"/>
<circle cx="384" cy="48" r="12" fill="rgb(255,44,0)" opacity="0.35"/>
<circle cx="384" cy="48" r="9" fill="rgb(255,44,0)"/>
<circle cx="24" cy="72" r="12" fill="rgb(192,10,250)" opacity="0.35"/>
<circle cx="24" cy="72" r="9" fill="rgb(192,10,250)"/>
<circle cx="48" cy="72" r="12" fill="rgb(107,51,252)" opacity="0.35"/>
<circle cx="48" cy="72" r="9" fill="rgb(107,51,252)"/>
<circle cx="72" cy="72" r="12" fill="rgb(50,78,254)" opacity="0.35"/>
<circle cx="72" cy="72" r="9" fill="rgb(50,78,254)"/>
<circle cx="96" cy="72" r="12" fill="rgb(41,94,254)" opacity="0.35"/>
<circle cx="96" cy="72" r="9" fill="rgb(41,94,254)"/>
<circle cx="120" cy="72" r="12" fill="rgb(41,94,254)" opacity="0.35"/>
<circle cx="120" cy="72" r="9" fill="rgb(41,94,254)"/>
<circle cx="144" cy="72" r="12" fill="rgb(47,81,254)" opacity="0.35"/>
<circle cx="144" cy="72" r="9" fill="rgb(47,81,254)"/>
<circle cx="168" cy="72" r="12" fill="rgb(83,62,253)" opacity="0.35"/>
<circle cx="168" cy="72" r="9" fill="rgb(83,62,253)"/>
<circle cx="192" cy="72" r="12" fill="rgb(129,40,252)" opacity="0.35"/>
<circle cx="192" cy="72" r="9" fill="rgb(129,40,252)"/>
<circle cx="216" cy="72" r="12" fill="rgb(175,18,250)" opacity="0.35"/>
<circle cx="216" cy="72" r="9" fill="rgb(175,18,250)"/>
<circle cx="240" cy="72" r="12" fill="rgb(255,0,0)" opacity="0.35"/>
<circle cx="240" cy="72" r="9" fill="rgb(255,0,0)"/>
<circle cx="264" cy="72" r="12" fill="rgb(255,21,0)" opacity="0.35"/>
<circle cx="264" cy="72" r="9" fill="rgb(255,21,0)"/>
<circle cx="288" cy="72" r="12" fill="rgb(255,32,0)" opacity="0.35"/>
<circle cx="288" cy="72" r="9" fill="rgb(255,32,0)"/>
<circle cx="312" cy="72" r="12" fill="rgb(255,34,0)" opacity="0.35"/>
<circle cx="312" cy="72" r="9" fill="rgb(255,34,0)"/>
<circle cx="336" cy="72" r="12" fill="rgb(255,30,0)" opacity="0.35"/>
<circle cx="336" cy="72" r="9" fill="rgb(255,30,0)"/>
<circle cx="360" cy="72" r="12" fill="rgb(255,23,0)" opacity="0.35"/>
<circle cx="360" cy="72" r="9" fill="rgb(255,23,0)"/>
<circle cx="384" cy="72" r="12" fill="rgb(255,16,0)" opacity="0.35"/>
<circle cx="384" cy="72" r="9" fill="rgb(255,16,0)"/>
<circle cx="24" cy="96" r="12" fill="rgb(106,51,252)" opacity="0.35"/>
<circle cx="24" cy="96" r="9" fill="rgb(106,51,252)"/>
<circle cx="48" cy="96" r="12" fill="rgb(42,91,254)" opacity="0.35"/>
<circle cx="48" cy="96" r="9" fill="rgb(42,91,254)"/>
<circle cx="72" cy="96" r="12" fill="rgb(28,119,254)" opacity="0.35"/>
<circle cx="72" cy="96" r="9" fill="rgb(28,119,254)"/>
<circle cx="96" cy="96" r="12" fill="rgb(23,129,255)" opacity="0.35"/>
<circle cx="96" cy="96" r="9" fill="rgb(23,129,255)"/>
<circle cx="120" cy="96" r="12" fill="rgb(27,121,254)" opacity="0.35"/>
<circle cx="120" cy="96" r="9" fill="rgb(27,121,254)"/>
<circle cx="144" cy="96" r="12" fill="rgb(38,99,254)" opacity="0.35"/>
<circle cx="144" cy="96" r="9" fill="rgb(38,99,254)"/>
<circle cx="168" cy="96" r="12" fill="rgb(65,71,253)" opacity="0.35"/>
<circle cx="168" cy="96" r="9" fill="rgb(65,71,253)"/>
<circle cx="192" cy="96" r="12" fill="rgb(122,44,252)" opacity="0.35"/>
<circle cx="192" cy="96" r="9" fill="rgb(122,44,252)"/>
<circle cx="216" cy="96" r="12" fill="rgb(176,18,250)" opacity="0.35"/>
<circle cx="216" cy="96" r="9" fill="rgb(176,18,250)"/>
<circle cx="240" cy="96" r="12" fill="rgb(255,5,0)" opacity="0.35"/>
<circle cx="240" cy="96" r="9" fill="rgb(255,5,0)"/>
<circle cx="264" cy="96" r="12" fill="rgb(255,27,0)" opacity="0.35"/>
<circle cx="264" cy="96" r="9" fill="rgb(255,27,0)"/>
<circle cx="288" cy="96" r="12" fill="rgb(255,37,0)" opacity="0.35"/>
<circle cx="288" cy="96" r="9" fill="rgb(255,37,0)"/>
<circle cx="312" cy="96" r="12" fill="rgb(255,37,0)" opacity="0.35"/>
<circle cx="312" cy="96" r="9" fill="rgb(255,37,0)"/>
<circle cx="336" cy="96" r="12" fill="rgb(255,29,0)" opacity="0.35"/>
<circle cx="336" cy="96" r="9" fill="rgb(255,29,0)"/>
<circle cx="360" cy="96" r="12" fill="rgb(255,17,0)" opacity="0.35"/>
<circle cx="360" cy="96" r="9" fill="rgb(255,17,0)"/>
<circle cx="384" cy="96" r="12" fill="rgb(255,7,0)" opacity="0.35"/>
<circle cx="384" cy="96" r="9" fill="rgb(255,7,0)"/>
<circle cx="24" cy="120" r="12" fill="rgb(46,83,254)" opacity="0.35"/>
<circle cx="24" cy="120" r="9" fill="rgb(46,83,254)"/>
<circle cx="48" cy="120" r="12" fill="rgb(26,124,254)" opacity="0.35"/>
<circle cx="48" cy="120" r="9" fill="rgb(26,124,254)"/>
<circle cx="72" cy="120" r="12" fill="rgb(15,146,255)" opacity="0.35"/>
<circle cx="72" cy="120" r="9" fill="rgb(15,146,255)"/>
<circle cx="96" cy="120" r="12" fill="rgb(14,147,255)" opacity="0.35"/>
<circle cx="96" cy="120" r="9" fill="rgb(14,147,255)"/>
<circle cx="120" cy="120" r="12" fill="rgb(22,131,255)" opacity="0.35"/>
<circle cx="120" cy="120" r="9" fill="rgb(22,131,255)"/>
<circle cx="144" cy="120" r="12" fill="rgb(37,100,254)" opacity="0.35"/>
<circle cx="144" cy="120" r="9" fill="rgb(37,100,254)"/>
<circle cx="168" cy="120" r="12" fill="rgb(77,65,253)" opacity="0.35"/>
<circle cx="168" cy="120" r="9" fill="rgb(77,65,253)"/>
<circle cx="192" cy="120" r="12" fill="rgb(147,32,251)" opacity="0.35"/>
<circle cx="192" cy="120" r="9" fill="rgb(147,32,251)"/>
<circle cx="216" cy="120" r="12" fill="rgb(210,2,249)" opacity="0.35"/>
<circle cx="216" cy="120" r="9" fill="rgb(210,2,249)"/>
<circle cx="240" cy="120" r="12" fill="rgb(255,34,0)" opacity="0.35"/>
<circle cx="240" cy="120" r="9" fill="rgb(255,34,0)"/>
<circle cx="264" cy="120" r="12" fill="rgb(255,56,0)" opacity="0.35"/>
<circle cx="264" cy="120" r="9" fill="rgb(255,56,0)"/>
<circle cx="288" cy="120" r="12" fill="rgb(255,65,0)" opacity="0.35"/>
<circle cx="288" cy="120" r="9" fill="rgb(255,65,0)"/>
<circle cx="312" cy="120" r="12" fill="rgb(255,61,0)" opacity="0.35"/>
<circle cx="312" cy="120" r="9" fill="rgb(255,61,0)"/>
<circle cx="336" cy="120" r="12" fill="rgb(255,49,0)" opacity="0.35"/>
<circle cx="336" cy="120" r="9" fill="rgb(255,49,0)"/>
<circle cx="360" cy="120" r="12" fill="rgb(255,32,0)" opacity="0.35"/>
<circle cx="360" cy="120" r="9" fill="rgb(255,32,0)"/>
<circle cx="384" cy="120" r="12" fill="rgb(255,16,0)" opacity="0.35"/>
<circle cx="384" cy="120" r="9" fill="rgb(255,16,0)"/>
<circle cx="24" cy="144" r="12" fill="rgb(35,106,254)" opacity="0.35"/>
<circle cx="24" cy="144" r="9" fill="rgb(35,106,254)"/>
<circle cx="48" cy="144" r="12" fill="rgb(17,142,255)" opacity="0.35"/>
<circle cx="48" cy="144" r="9" fill="rgb(17,142,255)"/>
<circle cx="72" cy="144" r="12" fill="rgb(9,157,255)" opacity="0.35"/>
<circle cx="72" cy="144" r="9" fill="rgb(9,157,255)"/>
<circle cx="96" cy="144" r="12" fill="rgb(13,150,255)" opacity="0.35"/>
<circle cx="96" cy="144" r="9" fill="rgb(13,150,255)"/>
<circle cx="120" cy="144" r="12" fill="rgb(25,125,254)" opacity="0.35"/>
<circle cx="120" cy="144" r="9" fill="rgb(25,125,254)"/>
<circle cx="144" cy="144" r="12" fill="rgb(45,85,254)" opacity="0.35"/>
<circle cx="144" cy="144" r="9" fill="rgb(45,85,254)"/>
<circle cx="168" cy="144" r="12" fill="rgb(118,45,252)" opacity="0.35"/>
<circle cx="168" cy="144" r="9" fill="rgb(118,45,252)"/>
<circle cx="192" cy="144" r="12" fill="rgb(201,6,249)" opacity="0.35"/>
<circle cx="192" cy="144" r="9" fill="rgb(201,6,249)"/>
<circle cx="216" cy="144" r="12" fill="rgb(255,45,0)" opacity="0.35"/>
<circle cx="216" cy="144" r="9" fill="rgb(255,45,0)"/>
<circle cx="240" cy="144" r="12" fill="rgb(255,84,0)" opacity="0.35"/>
<circle cx="240" cy="144" r="9" fill="rgb(255,84,0)"/>
<circle cx="264" cy="144" r="12" fill="rgb(255,106,0)" opacity="0.35"/>
<circle cx="264" cy="144" r="9" fill="rgb(255,106,0)"/>
<circle cx="288" cy="144" r="12" fill="rgb(255,112,0)" opacity="0.35"/>
<circle cx="288" cy="144" r="9" fill="rgb(255,112,0)"/>
<circle cx="312" cy="144" r="12" fill="rgb(255,105,0)" opacity="0.35"/>
<circle cx="312" cy="144" r="9" fill="rgb(255,105,0)"/>
<circle cx="336" cy="144" r="12" fill="rgb(255,87,0)" opacity="0.35"/>
<circle cx="336" cy="144" r="9" fill="rgb(255,87,0)"/>
<circle cx="360" cy="144" r="12" fill="rgb(255,65,0)" opacity="0.35"/>
<circle cx="360" cy="144" r="9" fill="rgb(255,65,0)"/>
<circle cx="384" cy="144" r="12" fill="rgb(255,43,0)" opacity="0.35"/>
<circle cx="384" cy="144" r="9" fill="rgb(255,43,0)"/>
<circle cx="24" cy="168" r="12" fill="rgb(30,115,254)" opacity="0.35"/>
<circle cx="24" cy="168" r="9" fill="rgb(30,115,254)"/>
<circle cx="48" cy="168" r="12" fill="rgb(15,146,255)" opacity="0.35"/>
<circle cx="48" cy="168" r="9" fill="rgb(15,146,255)"/>
<circle cx="72" cy="168" r="12" fill="rgb(11,154,255)" opacity="0.35"/>
<circle cx="72" cy="168" r="9" fill="rgb(11,154,255)"/>
<circle cx="96" cy="168" r="12" fill="rgb(18,140,255)" opacity="0.35"/>
<circle cx="96" cy="168" r="9" fill="rgb(18,140,255)"/>
<circle cx="120" cy="168" r="12" fill="rgb(35,106,254)" opacity="0.35"/>
<circle cx="120" cy="168" r="9" fill="rgb(35,106,254)"/>
<circle cx="144" cy="168" r="12" fill="rgb(85,61,253)" opacity="0.35"/>
<circle cx="144" cy="168" r="9" fill="rgb(85,61,253)"/>
<circle cx="168" cy="168" r="12" fill="rgb(181,15,250)" opacity="0.35"/>
<circle cx="168" cy="168" r="9" fill="rgb(181,15,250)"/>
<circle cx="192" cy="168" r="12" fill="rgb(255,48,0)" opacity="0.35"/>
<circle cx="192" cy="168" r="9" fill="rgb(255,48,0)"/>
<circle cx="216" cy="168" r="12" fill="rgb(255,108,0)" opacity="0.35"/>
<circle cx="216" cy="168" r="9" fill="rgb(255,108,0)"/>
<circle cx="240" cy="168" r="12" fill="rgb(255,143,0)" opacity="0.35"/>
<circle cx="240" cy="168" r="9" fill="rgb(255,143,0)"/>
<circle cx="264" cy="168" r="12" fill="rgb(255,158,0)" opacity="0.35"/>
<circle cx="264" cy="168" r="9" fill="rgb(255,158,0)"/>
<circle cx="288" cy="168" r="12" fill="rgb(255,161,0)" opacity="0.35"/>
<circle cx="288" cy="168" r="9" fill="rgb(255,161,0)"/>
<circle cx="312" cy="168" r="12" fill="rgb(255,152,0)" opacity="0.35"/>
<circle cx="312" cy="168" r="9" fill="rgb(255,152,0)"/>
<circle cx="336" cy="168" r="12" fill="rgb(255,136,0)" opacity="0.35"/>
<circle cx="336" cy="168" r="9" fill="rgb(255,136,0)"/>
<circle cx="360" cy="168" r="12" fill="rgb(255,113,0)" opacity="0.35"/>
<circle cx="360" cy="168" r="9" fill="rgb(255,113,0)"/>
<circle cx="384" cy="168" r="12" fill="rgb(255,85,0)" opacity="0.35"/>
<circle cx="384" cy="168" r="9" fill="rgb(255,85,0)"/>
<circle cx="24" cy="192" r="12" fill="rgb(32,112,254)" opacity="0.35"/>
<circle cx="24" cy="192" r="9" fill="rgb(32,112,254)"/>
<circle cx="48" cy="192" r="12" fill="rgb(19,138,255)" opacity="0.35"/>
<circle cx="48" cy="192" r="9" fill="rgb(19,138,255)"/>
<circle cx="72" cy="192" r="12" fill="rgb(18,140,255)" opacity="0.35"/>
<circle cx="72" cy="192" r="9" fill="rgb(18,140,255)"/>
<circle cx="96" cy="192" r="12" fill="rgb(28,119,254)" opacity="0.35"/>
<circle cx="96" cy="192" r="9" fill="rgb(28,119,254)"/>
<circle cx="120" cy="192" r="12" fill="rgb(49,78,254)" opacity="0.35"/>
<circle cx="120" cy="192" r="9" fill="rgb(49,78,254)"/>
<circle cx="144" cy="192" r="12" fill="rgb(145,33,251)" opacity="0.35"/>
<circle cx="144" cy="192" r="9" fill="rgb(145,33,251)"/>
<circle cx="168" cy="192" r="12" fill="rgb(255,31,0)" opacity="0.35"/>
<circle cx="168" cy="192" r="9" fill="rgb(255,31,0)"/>
<circle cx="192" cy="192" r="12" fill="rgb(255,114,0)" opacity="0.35"/>
<circle cx="192" cy="192" r="9" fill="rgb(255,114,0)"/>
<circle cx="216" cy="192" r="12" fill="rgb(255,167,0)" opacity="0.35"/>
<circle cx="216" cy="192" r="9" fill="rgb(255,167,0)"/>
<circle cx="240" cy="192" r="12" fill="rgb(255,198,0)" opacity="0.35"/>
<circle cx="240" cy="192" r="9" fill="rgb(255,198,0)"/>
<circle cx="264" cy="192" r="12" fill="rgb(255,212,0)" opacity="0.35"/>
<circle cx="264" cy="192" r="9" fill="rgb(255,212,0)"/>
<circle cx="288" cy="192" r="12" fill="rgb(255,212,0)" opacity="0.35"/>
<circle cx="288" cy="192" r="9" fill="rgb(255,212,0)"/>
<circle cx="312" cy="192" r="12" fill="rgb(255,201,0)" opacity="0.35"/>
<circle cx="312" cy="192" r="9" fill="rgb(255,201,0)"/>
<circle cx="336" cy="192" r="12" fill="rgb(255,182,0)" opacity="0.35"/>
<circle cx="336" cy="192" r="9" fill="rgb(255,182,0)"/>
<circle cx="360" cy="192" r="12" fill="rgb(255,158,0)" opacity="0.35"/>
<circle cx="360" cy="192" r="9" fill="rgb(255,158,0)"/>
<circle cx="384" cy="192" r="12" fill="rgb(255,133,0)" opacity="0.35"/>
<circle cx="384" cy="192" r="9" fill="rgb(255,133,0)"/>
<circle cx="24" cy="216" r="12" fill="rgb(38,99,254)" opacity="0.35"/>
<circle cx="24" cy="216" r="9" fill="rgb(38,99,254)"/>
<circle cx="48" cy="216" r="12" fill="rgb(27,121,254)" opacity="0.35"/>
<circle cx="48" cy="216" r="9" fill="rgb(27,121,254)"/>
<circle cx="72" cy="216" r="12" fill="rgb(28,118,254)" opacity="0.35"/>
<circle cx="72" cy="216" r="9" fill="rgb(28,118,254)"/>
<circle cx="96" cy="216" r="12" fill="rgb(41,93,254)" opacity="0.35"/>
<circle cx="96" cy="216" r="9" fill="rgb(41,93,254)"/>
<circle cx="120" cy="216" r="12" fill="rgb(104,52,252)" opacity="0.35"/>
<circle cx="120" cy="216" r="9" fill="rgb(104,52,252)"/>
<circle cx="144" cy="216" r="12" fill="rgb(209,2,249)" opacity="0.35"/>
<circle cx="144" cy="216" r="9" fill="rgb(209,2,249)"/>
<circle cx="168" cy="216" r="12" fill="rgb(255,86,0)" opacity="0.35"/>
<circle cx="168" cy="216" r="9" fill="rgb(255,86,0)"/>
<circle cx="192" cy="216" r="12" fill="rgb(255,163,0)" opacity="0.35"/>
<circle cx="192" cy="216" r="9" fill="rgb(255,163,0)"/>
<circle cx="216" cy="216" r="12" fill="rgb(220,211,11)" opacity="0.35"/>
<circle cx="216" cy="216" r="9" fill="rgb(220,211,11)"/>
<circle cx="240" cy="216" r="12" fill="rgb(149,208,34)" opacity="0.35"/>
<circle cx="240" cy="216" r="9" fill="rgb(149,208,34)"/>
<circle cx="264" cy="216" r="12" fill="rgb(115,206,46)" opacity="0.35"/>
<circle cx="264" cy="216" r="9" fill="rgb(115,206,46)"/>
<circle cx="288" cy="216" r="12" fill="rgb(116,206,45)" opacity="0.35"/>
<circle cx="288" cy="216" r="9" fill="rgb(116,206,45)"/>
<circle cx="312" cy="216" r="12" fill="rgb(150,208,34)" opacity="0.35"/>
<circle cx="312" cy="216" r="9" fill="rgb(150,208,34)"/>
<circle cx="336" cy="216" r="12" fill="rgb(208,211,15)" opacity="0.35"/>
<circle cx="336" cy="216" r="9" fill="rgb(208,211,15)"/>
<circle cx="360" cy="216" r="12" fill="rgb(255,204,0)" opacity="0.35"/>
<circle cx="360" cy="216" r="9" fill="rgb(255,204,0)"/>
<circle cx="384" cy="216" r="12" fill="rgb(255,176,0)" opacity="0.35"/>
<circle cx="384" cy="216" r="9" fill="rgb(255,176,0)"/>
<circle cx="24" cy="240" r="12" fill="rgb(51,78,254)" opacity="0.35"/>
<circle cx="24" cy="240" r="9" fill="rgb(51,78,254)"/>
<circle cx="48" cy="240" r="12" fill="rgb(39,97,254)" opacity="0.35"/>
<circle cx="48" cy="240" r="9" fill="rgb(39,97,254)"/>
<circle cx="72" cy="240" r="12" fill="rgb(42,92,254)" opacity="0.35"/>
<circle cx="72" cy="240" r="9" fill="rgb(42,92,254)"/>
<circle cx="96" cy="240" r="12" fill="rgb(76,66,253)" opacity="0.35"/>
<circle cx="96" cy="240" r="9" fill="rgb(76,66,253)"/>
<circle cx="120" cy="240" r="12" fill="rgb(159,26,251)" opacity="0.35"/>
<circle cx="120" cy="240" r="9" fill="rgb(159,26,251)"/>
<circle cx="144" cy="240" r="12" fill="rgb(255,41,0)" opacity="0.35"/>
<circle cx="144" cy="240" r="9" fill="rgb(255,41,0)"/>
<circle cx="168" cy="240" r="12" fill="rgb(255,130,0)" opacity="0.35"/>
<circle cx="168" cy="240" r="9" fill="rgb(255,130,0)"/>
<circle cx="192" cy="240" r="12" fill="rgb(255,197,0)" opacity="0.35"/>
<circle cx="192" cy="240" r="9" fill="rgb(255,197,0)"/>
<circle cx="216" cy="240" r="12" fill="rgb(139,207,38)" opacity="0.35"/>
<circle cx="216" cy="240" r="9" fill="rgb(139,207,38)"/>
<circle cx="240" cy="240" r="12" fill="rgb(41,202,70)" opacity="0.35"/>
<circle cx="240" cy="240" r="9" fill="rgb(41,202,70)"/>
<circle cx="264" cy="240" r="12" fill="rgb(0,199,87)" opacity="0.35"/>
<circle cx="264" cy="240" r="9" fill="rgb(0,199,87)"/>
<circle cx="288" cy="240" r="12" fill="rgb(0,199,90)" opacity="0.35"/>
<circle cx="288" cy="240" r="9" fill="rgb(0,199,90)"/>
<circle cx="312" cy="240" r="12" fill="rgb(21,201,76)" opacity="0.35"/>
<circle cx="312" cy="240" r="9" fill="rgb(21,201,76)"/>
<circle cx="336" cy="240" r="12" fill="rgb(80,204,57)" opacity="0.35"/>
<circle cx="336" cy="240" r="9" fill="rgb(80,204,57)"/>
<circle cx="360" cy="240" r="12" fill="rgb(156,208,32)" opacity="0.35"/>
<circle cx="360" cy="240" r="9" fill="rgb(156,208,32)"/>
<circle cx="384" cy="240" r="12" fill="rgb(237,212,6)" opacity="0.35"/>
<circle cx="384" cy="240" r="9" fill="rgb(237,212,6)"/>
<circle cx="24" cy="264" r="12" fill="rgb(94,57,253)" opacity="0.35"/>
<circle cx="24" cy="264" r="9" fill="rgb(94,57,253)"/>
<circle cx="48" cy="264" r="12" fill="rgb(64,71,254)" opacity="0.35"/>
<circle cx="48" cy="264" r="9" fill="rgb(64,71,254)"/>
<circle cx="72" cy="264" r="12" fill="rgb(75,66,253)" opacity="0.35"/>
<circle cx="72" cy="264" r="9" fill="rgb(75,66,253)"/>
<circle cx="96" cy="264" r="12" fill="rgb(126,42,252)" opacity="0.35"/>
<circle cx="96" cy="264" r="9" fill="rgb(126,42,252)"/>
<circle cx="120" cy="264" r="12" fill="rgb(211,1,249)" opacity="0.35"/>
<circle cx="120" cy="264" r="9" fill="rgb(211,1,249)"/>
<circle cx="144" cy="264" r="12" fill="rgb(255,79,0)" opacity="0.35"/>
<circle cx="144" cy="264" r="9" fill="rgb(255,79,0)"/>
<circle cx="168" cy="264" r="12" fill="rgb(255,157,0)" opacity="0.35"/>
<circle cx="168" cy="264" r="9" fill="rgb(255,157,0)"/>
<circle cx="192" cy="264" r="12" fill="rgb(228,212,9)" opacity="0.35"/>
<circle cx="192" cy="264" r="9" fill="rgb(228,212,9)"/>
<circle cx="216" cy="264" r="12" fill="rgb(72,204,60)" opacity="0.35"/>
<circle cx="216" cy="264" r="9" fill="rgb(72,204,60)"/>
<circle cx="240" cy="264" r="12" fill="rgb(0,196,109)" opacity="0.35"/>
<circle cx="240" cy="264" r="9" fill="rgb(0,196,109)"/>
<circle cx="264" cy="264" r="12" fill="rgb(0,191,149)" opacity="0.35"/>
<circle cx="264" cy="264" r="9" fill="rgb(0,191,149)"/>
<circle cx="288" cy="264" r="12" fill="rgb(0,190,158)" opacity="0.35"/>
<circle cx="288" cy="264" r="9" fill="rgb(0,190,158)"/>
<circle cx="312" cy="264" r="12" fill="rgb(0,192,141)" opacity="0.35"/>
<circle cx="312" cy="264" r="9" fill="rgb(0,192,141)"/>
<circle cx="336" cy="264" r="12" fill="rgb(0,197,104)" opacity="0.35"/>
<circle cx="336" cy="264" r="9" fill="rgb(0,197,104)"/>
<circle cx="360" cy="264" r="12" fill="rgb(43,202,69)" opacity="0.35"/>
<circle cx="360" cy="264" r="9" fill="rgb(43,202,69)"/>
<circle cx="384" cy="264" r="12" fill="rgb(126,206,42)" opacity="0.35"/>
<circle cx="384" cy="264" r="9" fill="rgb(126,206,42)"/>
<circle cx="24" cy="288" r="12" fill="rgb(141,34,251)" opacity="0.35"/>
<circle cx="24" cy="288" r="9" fill="rgb(141,34,251)"/>
<circle cx="48" cy="288" r="12" fill="rgb(112,48,252)" opacity="0.35"/>
<circle cx="48" cy="288" r="9" fill="rgb(112,48,252)"/>
<circle cx="72" cy="288" r="12" fill="rgb(123,43,252)" opacity="0.35"/>
<circle cx="72" cy="288" r="9" fill="rgb(123,43,252)"/>
<circle cx="96" cy="288" r="12" fill="rgb(173,19,250)" opacity="0.35"/>
<circle cx="96" cy="288" r="9" fill="rgb(173,19,250)"/>
<circle cx="120" cy="288" r="12" fill="rgb(255,31,0)" opacity="0.35"/>
<circle cx="120" cy="288" r="9" fill="rgb(255,31,0)"/>
<circle cx="144" cy="288" r="12" fill="rgb(255,109,0)" opacity="0.35"/>
<circle cx="144" cy="288" r="9" fill="rgb(255,109,0)"/>
<circle cx="168" cy="288" r="12" fill="rgb(255,177,0)" opacity="0.35"/>
<circle cx="168" cy="288" r="9" fill="rgb(255,177,0)"/>
<circle cx="192" cy="288" r="12" fill="rgb(177,209,25)" opacity="0.35"/>
<circle cx="192" cy="288" r="9" fill="rgb(177,209,25)"/>
<circle cx="216" cy="288" r="12" fill="rgb(22,201,76)" opacity="0.35"/>
<circle cx="216" cy="288" r="9" fill="rgb(22,201,76)"/>
<circle cx="240" cy="288" r="12" fill="rgb(0,191,146)" opacity="0.35"/>
<circle cx="240" cy="288" r="9" fill="rgb(0,191,146)"/>
<circle cx="264" cy="288" r="12" fill="rgb(0,185,192)" opacity="0.35"/>
<circle cx="264" cy="288" r="9" fill="rgb(0,185,192)"/>
<circle cx="288" cy="288" r="12" fill="rgb(0,182,208)" opacity="0.35"/>
<circle cx="288" cy="288" r="9" fill="rgb(0,182,208)"/>
<circle cx="312" cy="288" r="12" fill="rgb(0,184,197)" opacity="0.35"/>
<circle cx="312" cy="288" r="9" fill="rgb(0,184,197)"/>
<circle cx="336" cy="288" r="12" fill="rgb(0,189,164)" opacity="0.35"/>
<circle cx="336" cy="288" r="9" fill="rgb(0,189,164)"/>
<circle cx="360" cy="288" r="12" fill="rgb(0,195,116)" opacity="0.35"/>
<circle cx="360" cy="288" r="9" fill="rgb(0,195,116)"/>
<circle cx="384" cy="288" r="12" fill="rgb(32,202,72)" opacity="0.35"/>
<circle cx="384" cy="288" r="9" fill="rgb(32,202,72)"/>
<circle cx="24" cy="312" r="12" fill="rgb(188,12,250)" opacity="0.35"/>
<circle cx="24" cy="312" r="9" fill="rgb(188,12,250)"/>
<circle cx="48" cy="312" r="12" fill="rgb(158,26,251)" opacity="0.35"/>
<circle cx="48" cy="312" r="9" fill="rgb(158,26,251)"/>
<circle cx="72" cy="312" r="12" fill="rgb(167,22,250)" opacity="0.35"/>
<circle cx="72" cy="312" r="9" fill="rgb(167,22,250)"/>
<circle cx="96" cy="312" r="12" fill="rgb(255,0,0)" opacity="0.35"/>
<circle cx="96" cy="312" r="9" fill="rgb(255,0,0)"/>
<circle cx="120" cy="312" r="12" fill="rgb(255,58,0)" opacity="0.35"/>
<circle cx="120" cy="312" r="9" fill="rgb(255,58,0)"/>
<circle cx="144" cy="312" r="12" fill="rgb(255,130,0)" opacity="0.35"/>
<circle cx="144" cy="312" r="9" fill="rgb(255,130,0)"/>
<circle cx="168" cy="312" r="12" fill="rgb(255,191,0)" opacity="0.35"/>
<circle cx="168" cy="312" r="9" fill="rgb(255,191,0)"/>
<circle cx="192" cy="312" r="12" fill="rgb(144,207,36)" opacity="0.35"/>
<circle cx="192" cy="312" r="9" fill="rgb(144,207,36)"/>
<circle cx="216" cy="312" r="12" fill="rgb(0,199,88)" opacity="0.35"/>
<circle cx="216" cy="312" r="9" fill="rgb(0,199,88)"/>
<circle cx="240" cy="312" r="12" fill="rgb(0,188,167)" opacity="0.35"/>
<circle cx="240" cy="312" r="9" fill="rgb(0,188,167)"/>
<circle cx="264" cy="312" r="12" fill="rgb(0,181,218)" opacity="0.35"/>
<circle cx="264" cy="312" r="9" fill="rgb(0,181,218)"/>
<circle cx="288" cy="312" r="12" fill="rgb(0,178,240)" opacity="0.35"/>
<circle cx="288" cy="312" r="9" fill="rgb(0,178,240)"/>
<circle cx="312" cy="312" r="12" fill="rgb(0,179,234)" opacity="0.35"/>
<circle cx="312" cy="312" r="9" fill="rgb(0,179,234)"/>
<circle cx="336" cy="312" r="12" fill="rgb(0,183,206)" opacity="0.35"/>
<circle cx="336" cy="312" r="9" fill="rgb(0,183,206)"/>
<circle cx="360" cy="312" r="12" fill="rgb(0,189,161)" opacity="0.35"/>
<circle cx="360" cy="312" r="9" fill="rgb(0,189,161)"/>
<circle cx="384" cy="312" r="12" fill="rgb(0,197,108)" opacity="0.35"/>
<circle cx="384" cy="312" r="9" fill="rgb(0,197,108)"/>
<circle cx="24" cy="336" r="12" fill="rgb(255,13,0)" opacity="0.35"/>
<circle cx="24" cy="336" r="9" fill="rgb(255,13,0)"/>
<circle cx="48" cy="336" r="12" fill="rgb(200,6,249)" opacity="0.35"/>
<circle cx="48" cy="336" r="9" fill="rgb(200,6,249)"/>
<circle cx="72" cy="336" r="12" fill="rgb(206,3,249)" opacity="0.35"/>
<circle cx="72" cy="336" r="9" fill="rgb(206,3,249)"/>
<circle cx="96" cy="336" r="12" fill="rgb(255,26,0)" opacity="0.35"/>
<circle cx="96" cy="336" r="9" fill="rgb(255,26,0)"/>
<circle cx="120" cy="336" r="12" fill="rgb(255,79,0)" opacity="0.35"/>
<circle cx="120" cy="336" r="9" fill="rgb(255,79,0)"/>
<circle cx="144" cy="336" r="12" fill="rgb(255,141,0)" opacity="0.35"/>
<circle cx="144" cy="336" r="9" fill="rgb(255,141,0)"/>
<circle cx="168" cy="336" r="12" fill="rgb(255,200,0)" opacity="0.35"/>
<circle cx="168" cy="336" r="9" fill="rgb(255,200,0)"/>
<circle cx="192" cy="336" r="12" fill="rgb(129,207,41)" opacity="0.35"/>
<circle cx="192" cy="336" r="9" fill="rgb(129,207,41)"/>
<circle cx="216" cy="336" r="12" fill="rgb(0,198,95)" opacity="0.35"/>
<circle cx="216" cy="336" r="9" fill="rgb(0,198,95)"/>
<circle cx="240" cy="336" r="12" fill="rgb(0,187,174)" opacity="0.35"/>
<circle cx="240" cy="336" r="9" fill="rgb(0,187,174)"/>
<circle cx="264" cy="336" r="12" fill="rgb(0,180,228)" opacity="0.35"/>
<circle cx="264" cy="336" r="9" fill="rgb(0,180,228)"/>
<circle cx="288" cy="336" r="12" fill="rgb(0,176,253)" opacity="0.35"/>
<circle cx="288" cy="336" r="9" fill="rgb(0,176,253)"/>
<circle cx="312" cy="336" r="12" fill="rgb(0,176,252)" opacity="0.35"/>
<circle cx="312" cy="336" r="9" fill="rgb(0,176,252)"/>
<circle cx="336" cy="336" r="12" fill="rgb(0,180,228)" opacity="0.35"/>
<circle cx="336" cy="336" r="9" fill="rgb(0,180,228)"/>
<circle cx="360" cy="336" r="12" fill="rgb(0,185,187)" opacity="0.35"/>
<circle cx="360" cy="336" r="9" fill="rgb(0,185,187)"/>
<circle cx="384" cy="336" r="12" fill="rgb(0,193,137)" opacity="0.35"/>
<circle cx="384" cy="336" r="9" fill="rgb(0,193,137)"/>
<circle cx="24" cy="360" r="12" fill="rgb(255,42,0)" opacity="0.35"/>
<circle cx="24" cy="360" r="9" fill="rgb(255,42,0)"/>
<circle cx="48" cy="360" r="12" fill="rgb(255,18,0)" opacity="0.35"/>
<circle cx="48" cy="360" r="9" fill="rgb(255,18,0)"/>
<circle cx="72" cy="360" r="12" fill="rgb(255,20,0)" opacity="0.35"/>
<circle cx="72" cy="360" r="9" fill="rgb(255,20,0)"/>
<circle cx="96" cy="360" r="12" fill="rgb(255,46,0)" opacity="0.35"/>
<circle cx="96" cy="360" r="9" fill="rgb(255,46,0)"/>
<circle cx="120" cy="360" r="12" fill="rgb(255,94,0)" opacity="0.35"/>
<circle cx="120" cy="360" r="9" fill="rgb(255,94,0)"/>
<circle cx="144" cy="360" r="12" fill="rgb(255,149,0)" opacity="0.35"/>
<circle cx="144" cy="360" r="9" fill="rgb(255,149,0)"/>
<circle cx="168" cy="360" r="12" fill="rgb(255,203,0)" opacity="0.35"/>
<circle cx="168" cy="360" r="9" fill="rgb(255,203,0)"/>
<circle cx="192" cy="360" r="12" fill="rgb(129,207,41)" opacity="0.35"/>
<circle cx="192" cy="360" r="9" fill="rgb(129,207,41)"/>
<circle cx="216" cy="360" r="12" fill="rgb(0,199,91)" opacity="0.35"/>
<circle cx="216" cy="360" r="9" fill="rgb(0,199,91)"/>
<circle cx="240" cy="360" r="12" fill="rgb(0,188,169)" opacity="0.35"/>
<circle cx="240" cy="360" r="9" fill="rgb(0,188,169)"/>
<circle cx="264" cy="360" r="12" fill="rgb(0,180,223)" opacity="0.35"/>
<circle cx="264" cy="360" r="9" fill="rgb(0,180,223)"/>
<circle cx="288" cy="360" r="12" fill="rgb(0,177,251)" opacity="0.35"/>
<circle cx="288" cy="360" r="9" fill="rgb(0,177,251)"/>
<circle cx="312" cy="360" r="12" fill="rgb(0,176,253)" opacity="0.35"/>
<circle cx="312" cy="360" r="9" fill="rgb(0,176,253)"/>
<circle cx="336" cy="360" r="12" fill="rgb(0,179,233)" opacity="0.35"/>
<circle cx="336" cy="360" r="9" fill="rgb(0,179,233)"/>
<circle cx="360" cy="360" r="12" fill="rgb(0,184,195)" opacity="0.35"/>
<circle cx="360" cy="360" r="9" fill="rgb(0,184,195)"/>
<circle cx="384" cy="360" r="12" fill="rgb(0,191,147)" opacity="0.35"/>
<circle cx="384" cy="360" r="9" fill="rgb(0,191,147)"/>
<circle cx="24" cy="384" r="12" fill="rgb(255,66,0)" opacity="0.35"/>
<circle cx="24" cy="384" r="9" fill="rgb(255,66,0)"/>
<circle cx="48" cy="384" r="12" fill="rgb(255,42,0)" opacity="0.35"/>
<circle cx="48" cy="384" r="9" fill="rgb(255,42,0)"/>
<circle cx="72" cy="384" r="12" fill="rgb(255,41,0)" opacity="0.35"/>
<circle cx="72" cy="384" r="9" fill="rgb(255,41,0)"/>
<circle cx="96" cy="384" r="12" fill="rgb(255,63,0)" opacity="0.35"/>
<circle cx="96" cy="384" r="9" fill="rgb(255,63,0)"/>
<circle cx="120" cy="384" r="12" fill="rgb(255,106,0)" opacity="0.35"/>
<circle cx="120" cy="384" r="9" fill="rgb(255,106,0)"/>
<circle cx="144" cy="384" r="12" fill="rgb(255,153,0)" opacity="0.35"/>
<circle cx="144" cy="384" r="9" fill="rgb(255,153,0)"/>
<circle cx="168" cy="384" r="12" fill="rgb(255,203,0)" opacity="0.35"/>
<circle cx="168" cy="384" r="9" fill="rgb(255,203,0)"/>
<circle cx="192" cy="384" r="12" fill="rgb(140,207,38)" opacity="0.35"/>
<circle cx="192" cy="384" r="9" fill="rgb(140,207,38)"/>
<circle cx="216" cy="384" r="12" fill="rgb(6,200,81)" opacity="0.35"/>
<circle cx="216" cy="384" r="9" fill="rgb(6,200,81)"/>
<circle cx="240" cy="384" r="12" fill="rgb(0,190,153)" opacity="0.35"/>
<circle cx="240" cy="384" r="9" fill="rgb(0,190,153)"/>
<circle cx="264" cy="384" r="12" fill="rgb(0,183,207)" opacity="0.35"/>
<circle cx="264" cy="384" r="9" fill="rgb(0,183,207)"/>
<circle cx="288" cy="384" r="12" fill="rgb(0,179,235)" opacity="0.35"/>
<circle cx="288" cy="384" r="9" fill="rgb(0,179,235)"/>
<circle cx="312" cy="384" r="12" fill="rgb(0,178,239)" opacity="0.35"/>
<circle cx="312" cy="384" r="9" fill="rgb(0,178,239)"/>
<circle cx="336" cy="384" r="12" fill="rgb(0,181,221)" opacity="0.35"/>
<circle cx="336" cy="384" r="9" fill="rgb(0,181,221)"/>
<circle cx="360" cy="384" r="12" fill="rgb(0,186,186)" opacity="0.35"/>
<circle cx="360" cy="384" r="9" fill="rgb(0,186,186)"/>
<circle cx="384" cy="384" r="12" fill="rgb(0,192,139)" opacity="0.35"/>
<circle cx="384" cy="384" r="9" fill="rgb(0,192,139)"/>
</svg>
