<svg xmlns="http://www.w3.org/2000/svg" viewBox="0 0 408 408" width="408" height="408" role="img" aria-label="LED preview of the Blend example graph">
<rect width="408" height="408" rx="10" fill="#05070a"/>
<circle cx="24" cy="24" r="12" fill="rgb(162,221,219)" opacity="0.35"/>
<circle cx="24" cy="24" r="9" fill="rgb(162,221,219)"/>
<circle cx="48" cy="24" r="12" fill="rgb(153,202,205)" opacity="0.35"/>
<circle cx="48" cy="24" r="9" fill="rgb(153,202,205)"/>
<circle cx="72" cy="24" r="12" fill="rgb(150,196,200)" opacity="0.35"/>
<circle cx="72" cy="24" r="9" fill="rgb(150,196,200)"/>
<circle cx="96" cy="24" r="12" fill="rgb(149,199,202)" opacity="0.35"/>
<circle cx="96" cy="24" r="9" fill="rgb(149,199,202)"/>
<circle cx="120" cy="24" r="12" fill="rgb(142,192,198)" opacity="0.35"/>
<circle cx="120" cy="24" r="9" fill="rgb(142,192,198)"/>
<circle cx="144" cy="24" r="12" fill="rgb(134,189,197)" opacity="0.35"/>
<circle cx="144" cy="24" r="9" fill="rgb(134,189,197)"/>
<circle cx="168" cy="24" r="12" fill="rgb(134,203,208)" opacity="0.35"/>
<circle cx="168" cy="24" r="9" fill="rgb(134,203,208)"/>
<circle cx="192" cy="24" r="12" fill="rgb(122,198,205)" opacity="0.35"/>
<circle cx="192" cy="24" r="9" fill="rgb(122,198,205)"/>
<circle cx="216" cy="24" r="12" fill="rgb(105,182,196)" opacity="0.35"/>
<circle cx="216" cy="24" r="9" fill="rgb(105,182,196)"/>
<circle cx="240" cy="24" r="12" fill="rgb(124,189,198)" opacity="0.35"/>
<circle cx="240" cy="24" r="9" fill="rgb(124,189,198)"/>
<circle cx="264" cy="24" r="12" fill="rgb(190,204,198)" opacity="0.35"/>
<circle cx="264" cy="24" r="9" fill="rgb(190,204,198)"/>
<circle cx="288" cy="24" r="12" fill="rgb(116,188,198)" opacity="0.35"/>
<circle cx="288" cy="24" r="9" fill="rgb(116,188,198)"/>
<circle cx="312" cy="24" r="12" fill="rgb(69,180,200)" opacity="0.35"/>
<circle cx="312" cy="24" r="9" fill="rgb(69,180,200)"/>
<circle cx="336" cy="24" r="12" fill="rgb(60,171,195)" opacity="0.35"/>
<circle cx="336" cy="24" r="9" fill="rgb(60,171,195)"/>
<circle cx="360" cy="24" r="12" fill="rgb(45,151,182)" opacity="0.35"/>
<circle cx="360" cy="24" r="9" fill="rgb(45,151,182)"/>
<circle cx="384" cy="24" r="12" fill="rgb(32,132,169)" opacity="0.35"/>
<circle cx="384" cy="24" r="9" fill="rgb(32,132,169)"/>
<circle cx="24" cy="48" r="12" fill="rgb(151,206,207)" opacity="0.35"/>
<circle cx="24" cy="48" r="9" fill="rgb(151,206,207)"/>
<circle cx="48" cy="48" r="12" fill="rgb(149,197,202)" opacity="0.35"/>
<circle cx="48" cy="48" r="9" fill="rgb(149,197,202)"/>
<circle cx="72" cy="48" r="12" fill="rgb(146,192,198)" opacity="0.35"/>
<circle cx="72" cy="48" r="9" fill="rgb(146,192,198)"/>
<circle cx="96" cy="48" r="12" fill="rgb(142,189,195)" opacity="0.35"/>
<circle cx="96" cy="48" r="9" fill="rgb(142,189,195)"/>
<circle cx="120" cy="48" r="12" fill="rgb(140,192,199)" opacity="0.35"/>
<circle cx="120" cy="48" r="9" fill="rgb(140,192,199)"/>
<circle cx="144" cy="48" r="12" fill="rgb(132,187,196)" opacity="0.35"/>
<circle cx="144" cy="48" r="9" fill="rgb(132,187,196)"/>
<circle cx="168" cy="48" r="12" fill="rgb(133,205,209)" opacity="0.35"/>
<circle cx="168" cy="48" r="9" fill="rgb(133,205,209)"/>
<circle cx="192" cy="48" r="12" fill="rgb(124,203,210)" opacity="0.35"/>
<circle cx="192" cy="48" r="9" fill="rgb(124,203,210)"/>
<circle cx="216" cy="48" r="12" fill="rgb(107,189,200)" opacity="0.35"/>
<circle cx="216" cy="48" r="9" fill="rgb(107,189,200)"/>
<circle cx="240" cy="48" r="12" fill="rgb(167,197,197)" opacity="0.35"/>
<circle cx="240" cy="48" r="9" fill="rgb(167,197,197)"/>
<circle cx="264" cy="48" r="12" fill="rgb(174,195,194)" opacity="0.35"/>
<circle cx="264" cy="48" r="9" fill="rgb(174,195,194)"/>
<circle cx="288" cy="48" r="12" fill="rgb(68,169,190)" opacity="0.35"/>
<circle cx="288" cy="48" r="9" fill="rgb(68,169,190)"/>
<circle cx="312" cy="48" r="12" fill="rgb(79,190,210)" opacity="0.35"/>
<circle cx="312" cy="48" r="9" fill="rgb(79,190,210)"/>
<circle cx="336" cy="48" r="12" fill="rgb(71,183,206)" opacity="0.35"/>
<circle cx="336" cy="48" r="9" fill="rgb(71,183,206)"/>
<circle cx="360" cy="48" r="12" fill="rgb(45,151,182)" opacity="0.35"/>
<circle cx="360" cy="48" r="9" fill="rgb(45,151,182)"/>
<circle cx="384" cy="48" r="12" fill="rgb(36,142,175)" opacity="0.35"/>
<circle cx="384" cy="48" r="9" fill="rgb(36,142,175)"/>
<circle cx="24" cy="72" r="12" fill="rgb(144,194,199)" opacity="0.35"/>
<circle cx="24" cy="72" r="9" fill="rgb(144,194,199)"/>
<circle cx="48" cy="72" r="12" fill="rgb(150,203,206)" opacity="0.35"/>
<circle cx="48" cy="72" r="9" fill="rgb(150,203,206)"/>
<circle cx="72" cy="72" r="12" fill="rgb(146,196,200)" opacity="0.35"/>
<circle cx="72" cy="72" r="9" fill="rgb(146,196,200)"/>
<circle cx="96" cy="72" r="12" fill="rgb(143,194,199)" opacity="0.35"/>
<circle cx="96" cy="72" r="9" fill="rgb(143,194,199)"/>
<circle cx="120" cy="72" r="12" fill="rgb(139,194,200)" opacity="0.35"/>
<circle cx="120" cy="72" r="9" fill="rgb(139,194,200)"/>
<circle cx="144" cy="72" r="12" fill="rgb(132,192,199)" opacity="0.35"/>
<circle cx="144" cy="72" r="9" fill="rgb(132,192,199)"/>
<circle cx="168" cy="72" r="12" fill="rgb(125,191,200)" opacity="0.35"/>
<circle cx="168" cy="72" r="9" fill="rgb(125,191,200)"/>
<circle cx="192" cy="72" r="12" fill="rgb(121,200,207)" opacity="0.35"/>
<circle cx="192" cy="72" r="9" fill="rgb(121,200,207)"/>
<circle cx="216" cy="72" r="12" fill="rgb(123,200,206)" opacity="0.35"/>
<circle cx="216" cy="72" r="9" fill="rgb(123,200,206)"/>
<circle cx="240" cy="72" r="12" fill="rgb(190,206,200)" opacity="0.35"/>
<circle cx="240" cy="72" r="9" fill="rgb(190,206,200)"/>
<circle cx="264" cy="72" r="12" fill="rgb(131,185,192)" opacity="0.35"/>
<circle cx="264" cy="72" r="9" fill="rgb(131,185,192)"/>
<circle cx="288" cy="72" r="12" fill="rgb(66,166,188)" opacity="0.35"/>
<circle cx="288" cy="72" r="9" fill="rgb(66,166,188)"/>
<circle cx="312" cy="72" r="12" fill="rgb(63,170,192)" opacity="0.35"/>
<circle cx="312" cy="72" r="9" fill="rgb(63,170,192)"/>
<circle cx="336" cy="72" r="12" fill="rgb(59,170,194)" opacity="0.35"/>
<circle cx="336" cy="72" r="9" fill="rgb(59,170,194)"/>
<circle cx="360" cy="72" r="12" fill="rgb(45,150,181)" opacity="0.35"/>
<circle cx="360" cy="72" r="9" fill="rgb(45,150,181)"/>
<circle cx="384" cy="72" r="12" fill="rgb(41,152,184)" opacity="0.35"/>
<circle cx="384" cy="72" r="9" fill="rgb(41,152,184)"/>
<circle cx="24" cy="96" r="12" fill="rgb(138,185,193)" opacity="0.35"/>
<circle cx="24" cy="96" r="9" fill="rgb(138,185,193)"/>
<circle cx="48" cy="96" r="12" fill="rgb(141,191,197)" opacity="0.35"/>
<circle cx="48" cy="96" r="9" fill="rgb(141,191,197)"/>
<circle cx="72" cy="96" r="12" fill="rgb(145,199,203)" opacity="0.35"/>
<circle cx="72" cy="96" r="9" fill="rgb(145,199,203)"/>
<circle cx="96" cy="96" r="12" fill="rgb(142,199,203)" opacity="0.35"/>
<circle cx="96" cy="96" r="9" fill="rgb(142,199,203)"/>
<circle cx="120" cy="96" r="12" fill="rgb(143,207,210)" opacity="0.35"/>
<circle cx="120" cy="96" r="9" fill="rgb(143,207,210)"/>
<circle cx="144" cy="96" r="12" fill="rgb(132,196,203)" opacity="0.35"/>
<circle cx="144" cy="96" r="9" fill="rgb(132,196,203)"/>
<circle cx="168" cy="96" r="12" fill="rgb(131,207,212)" opacity="0.35"/>
<circle cx="168" cy="96" r="9" fill="rgb(131,207,212)"/>
<circle cx="192" cy="96" r="12" fill="rgb(119,200,207)" opacity="0.35"/>
<circle cx="192" cy="96" r="9" fill="rgb(119,200,207)"/>
<circle cx="216" cy="96" r="12" fill="rgb(173,219,214)" opacity="0.35"/>
<circle cx="216" cy="96" r="9" fill="rgb(173,219,214)"/>
<circle cx="240" cy="96" r="12" fill="rgb(188,212,205)" opacity="0.35"/>
<circle cx="240" cy="96" r="9" fill="rgb(188,212,205)"/>
<circle cx="264" cy="96" r="12" fill="rgb(76,176,194)" opacity="0.35"/>
<circle cx="264" cy="96" r="9" fill="rgb(76,176,194)"/>
<circle cx="288" cy="96" r="12" fill="rgb(65,164,187)" opacity="0.35"/>
<circle cx="288" cy="96" r="9" fill="rgb(65,164,187)"/>
<circle cx="312" cy="96" r="12" fill="rgb(56,156,182)" opacity="0.35"/>
<circle cx="312" cy="96" r="9" fill="rgb(56,156,182)"/>
<circle cx="336" cy="96" r="12" fill="rgb(50,152,180)" opacity="0.35"/>
<circle cx="336" cy="96" r="9" fill="rgb(50,152,180)"/>
<circle cx="360" cy="96" r="12" fill="rgb(45,153,182)" opacity="0.35"/>
<circle cx="360" cy="96" r="9" fill="rgb(45,153,182)"/>
<circle cx="384" cy="96" r="12" fill="rgb(44,159,189)" opacity="0.35"/>
<circle cx="384" cy="96" r="9" fill="rgb(44,159,189)"/>
<circle cx="24" cy="120" r="12" fill="rgb(135,186,194)" opacity="0.35"/>
<circle cx="24" cy="120" r="9" fill="rgb(135,186,194)"/>
<circle cx="48" cy="120" r="12" fill="rgb(144,202,205)" opacity="0.35"/>
<circle cx="48" cy="120" r="9" fill="rgb(144,202,205)"/>
<circle cx="72" cy="120" r="12" fill="rgb(149,211,213)" opacity="0.35"/>
<circle cx="72" cy="120" r="9" fill="rgb(149,211,213)"/>
<circle cx="96" cy="120" r="12" fill="rgb(139,194,200)" opacity="0.35"/>
<circle cx="96" cy="120" r="9" fill="rgb(139,194,200)"/>
<circle cx="120" cy="120" r="12" fill="rgb(141,206,210)" opacity="0.35"/>
<circle cx="120" cy="120" r="9" fill="rgb(141,206,210)"/>
<circle cx="144" cy="120" r="12" fill="rgb(131,197,204)" opacity="0.35"/>
<circle cx="144" cy="120" r="9" fill="rgb(131,197,204)"/>
<circle cx="168" cy="120" r="12" fill="rgb(127,203,209)" opacity="0.35"/>
<circle cx="168" cy="120" r="9" fill="rgb(127,203,209)"/>
<circle cx="192" cy="120" r="12" fill="rgb(114,194,203)" opacity="0.35"/>
<circle cx="192" cy="120" r="9" fill="rgb(114,194,203)"/>
<circle cx="216" cy="120" r="12" fill="rgb(198,226,215)" opacity="0.35"/>
<circle cx="216" cy="120" r="9" fill="rgb(198,226,215)"/>
<circle cx="240" cy="120" r="12" fill="rgb(160,213,211)" opacity="0.35"/>
<circle cx="240" cy="120" r="9" fill="rgb(160,213,211)"/>
<circle cx="264" cy="120" r="12" fill="rgb(75,176,195)" opacity="0.35"/>
<circle cx="264" cy="120" r="9" fill="rgb(75,176,195)"/>
<circle cx="288" cy="120" r="12" fill="rgb(62,159,183)" opacity="0.35"/>
<circle cx="288" cy="120" r="9" fill="rgb(62,159,183)"/>
<circle cx="312" cy="120" r="12" fill="rgb(55,153,180)" opacity="0.35"/>
<circle cx="312" cy="120" r="9" fill="rgb(55,153,180)"/>
<circle cx="336" cy="120" r="12" fill="rgb(49,152,181)" opacity="0.35"/>
<circle cx="336" cy="120" r="9" fill="rgb(49,152,181)"/>
<circle cx="360" cy="120" r="12" fill="rgb(43,148,179)" opacity="0.35"/>
<circle cx="360" cy="120" r="9" fill="rgb(43,148,179)"/>
<circle cx="384" cy="120" r="12" fill="rgb(40,151,182)" opacity="0.35"/>
<circle cx="384" cy="120" r="9" fill="rgb(40,151,182)"/>
<circle cx="24" cy="144" r="12" fill="rgb(130,181,191)" opacity="0.35"/>
<circle cx="24" cy="144" r="9" fill="rgb(130,181,191)"/>
<circle cx="48" cy="144" r="12" fill="rgb(138,193,200)" opacity="0.35"/>
<circle cx="48" cy="144" r="9" fill="rgb(138,193,200)"/>
<circle cx="72" cy="144" r="12" fill="rgb(144,206,209)" opacity="0.35"/>
<circle cx="72" cy="144" r="9" fill="rgb(144,206,209)"/>
<circle cx="96" cy="144" r="12" fill="rgb(147,215,217)" opacity="0.35"/>
<circle cx="96" cy="144" r="9" fill="rgb(147,215,217)"/>
<circle cx="120" cy="144" r="12" fill="rgb(134,198,204)" opacity="0.35"/>
<circle cx="120" cy="144" r="9" fill="rgb(134,198,204)"/>
<circle cx="144" cy="144" r="12" fill="rgb(127,193,201)" opacity="0.35"/>
<circle cx="144" cy="144" r="9" fill="rgb(127,193,201)"/>
<circle cx="168" cy="144" r="12" fill="rgb(123,199,207)" opacity="0.35"/>
<circle cx="168" cy="144" r="9" fill="rgb(123,199,207)"/>
<circle cx="192" cy="144" r="12" fill="rgb(161,207,207)" opacity="0.35"/>
<circle cx="192" cy="144" r="9" fill="rgb(161,207,207)"/>
<circle cx="216" cy="144" r="12" fill="rgb(199,229,217)" opacity="0.35"/>
<circle cx="216" cy="144" r="9" fill="rgb(199,229,217)"/>
<circle cx="240" cy="144" r="12" fill="rgb(97,192,205)" opacity="0.35"/>
<circle cx="240" cy="144" r="9" fill="rgb(97,192,205)"/>
<circle cx="264" cy="144" r="12" fill="rgb(73,172,192)" opacity="0.35"/>
<circle cx="264" cy="144" r="9" fill="rgb(73,172,192)"/>
<circle cx="288" cy="144" r="12" fill="rgb(64,164,188)" opacity="0.35"/>
<circle cx="288" cy="144" r="9" fill="rgb(64,164,188)"/>
<circle cx="312" cy="144" r="12" fill="rgb(55,156,183)" opacity="0.35"/>
<circle cx="312" cy="144" r="9" fill="rgb(55,156,183)"/>
<circle cx="336" cy="144" r="12" fill="rgb(49,151,181)" opacity="0.35"/>
<circle cx="336" cy="144" r="9" fill="rgb(49,151,181)"/>
<circle cx="360" cy="144" r="12" fill="rgb(43,147,179)" opacity="0.35"/>
<circle cx="360" cy="144" r="9" fill="rgb(43,147,179)"/>
<circle cx="384" cy="144" r="12" fill="rgb(40,152,183)" opacity="0.35"/>
<circle cx="384" cy="144" r="9" fill="rgb(40,152,183)"/>
<circle cx="24" cy="168" r="12" fill="rgb(125,177,188)" opacity="0.35"/>
<circle cx="24" cy="168" r="9" fill="rgb(125,177,188)"/>
<circle cx="48" cy="168" r="12" fill="rgb(132,187,195)" opacity="0.35"/>
<circle cx="48" cy="168" r="9" fill="rgb(132,187,195)"/>
<circle cx="72" cy="168" r="12" fill="rgb(130,183,192)" opacity="0.35"/>
<circle cx="72" cy="168" r="9" fill="rgb(130,183,192)"/>
<circle cx="96" cy="168" r="12" fill="rgb(134,196,202)" opacity="0.35"/>
<circle cx="96" cy="168" r="9" fill="rgb(134,196,202)"/>
<circle cx="120" cy="168" r="12" fill="rgb(129,191,199)" opacity="0.35"/>
<circle cx="120" cy="168" r="9" fill="rgb(129,191,199)"/>
<circle cx="144" cy="168" r="12" fill="rgb(120,185,195)" opacity="0.35"/>
<circle cx="144" cy="168" r="9" fill="rgb(120,185,195)"/>
<circle cx="168" cy="168" r="12" fill="rgb(114,186,197)" opacity="0.35"/>
<circle cx="168" cy="168" r="9" fill="rgb(114,186,197)"/>
<circle cx="192" cy="168" r="12" fill="rgb(190,219,210)" opacity="0.35"/>
<circle cx="192" cy="168" r="9" fill="rgb(190,219,210)"/>
<circle cx="216" cy="168" r="12" fill="rgb(176,224,217)" opacity="0.35"/>
<circle cx="216" cy="168" r="9" fill="rgb(176,224,217)"/>
<circle cx="240" cy="168" r="12" fill="rgb(103,204,217)" opacity="0.35"/>
<circle cx="240" cy="168" r="9" fill="rgb(103,204,217)"/>
<circle cx="264" cy="168" r="12" fill="rgb(73,176,195)" opacity="0.35"/>
<circle cx="264" cy="168" r="9" fill="rgb(73,176,195)"/>
<circle cx="288" cy="168" r="12" fill="rgb(65,166,189)" opacity="0.35"/>
<circle cx="288" cy="168" r="9" fill="rgb(65,166,189)"/>
<circle cx="312" cy="168" r="12" fill="rgb(68,182,202)" opacity="0.35"/>
<circle cx="312" cy="168" r="9" fill="rgb(68,182,202)"/>
<circle cx="336" cy="168" r="12" fill="rgb(55,164,191)" opacity="0.35"/>
<circle cx="336" cy="168" r="9" fill="rgb(55,164,191)"/>
<circle cx="360" cy="168" r="12" fill="rgb(47,158,186)" opacity="0.35"/>
<circle cx="360" cy="168" r="9" fill="rgb(47,158,186)"/>
<circle cx="384" cy="168" r="12" fill="rgb(45,164,193)" opacity="0.35"/>
<circle cx="384" cy="168" r="9" fill="rgb(45,164,193)"/>
<circle cx="24" cy="192" r="12" fill="rgb(125,184,194)" opacity="0.35"/>
<circle cx="24" cy="192" r="9" fill="rgb(125,184,194)"/>
<circle cx="48" cy="192" r="12" fill="rgb(128,185,195)" opacity="0.35"/>
<circle cx="48" cy="192" r="9" fill="rgb(128,185,195)"/>
<circle cx="72" cy="192" r="12" fill="rgb(129,185,195)" opacity="0.35"/>
<circle cx="72" cy="192" r="9" fill="rgb(129,185,195)"/>
<circle cx="96" cy="192" r="12" fill="rgb(129,189,198)" opacity="0.35"/>
<circle cx="96" cy="192" r="9" fill="rgb(129,189,198)"/>
<circle cx="120" cy="192" r="12" fill="rgb(130,201,206)" opacity="0.35"/>
<circle cx="120" cy="192" r="9" fill="rgb(130,201,206)"/>
<circle cx="144" cy="192" r="12" fill="rgb(117,181,193)" opacity="0.35"/>
<circle cx="144" cy="192" r="9" fill="rgb(117,181,193)"/>
<circle cx="168" cy="192" r="12" fill="rgb(143,187,192)" opacity="0.35"/>
<circle cx="168" cy="192" r="9" fill="rgb(143,187,192)"/>
<circle cx="192" cy="192" r="12" fill="rgb(189,204,198)" opacity="0.35"/>
<circle cx="192" cy="192" r="9" fill="rgb(189,204,198)"/>
<circle cx="216" cy="192" r="12" fill="rgb(122,202,208)" opacity="0.35"/>
<circle cx="216" cy="192" r="9" fill="rgb(122,202,208)"/>
<circle cx="240" cy="192" r="12" fill="rgb(100,203,216)" opacity="0.35"/>
<circle cx="240" cy="192" r="9" fill="rgb(100,203,216)"/>
<circle cx="264" cy="192" r="12" fill="rgb(78,187,204)" opacity="0.35"/>
<circle cx="264" cy="192" r="9" fill="rgb(78,187,204)"/>
<circle cx="288" cy="192" r="12" fill="rgb(68,175,195)" opacity="0.35"/>
<circle cx="288" cy="192" r="9" fill="rgb(68,175,195)"/>
<circle cx="312" cy="192" r="12" fill="rgb(70,184,205)" opacity="0.35"/>
<circle cx="312" cy="192" r="9" fill="rgb(70,184,205)"/>
<circle cx="336" cy="192" r="12" fill="rgb(55,165,191)" opacity="0.35"/>
<circle cx="336" cy="192" r="9" fill="rgb(55,165,191)"/>
<circle cx="360" cy="192" r="12" fill="rgb(45,155,185)" opacity="0.35"/>
<circle cx="360" cy="192" r="9" fill="rgb(45,155,185)"/>
<circle cx="384" cy="192" r="12" fill="rgb(39,152,183)" opacity="0.35"/>
<circle cx="384" cy="192" r="9" fill="rgb(39,152,183)"/>
<circle cx="24" cy="216" r="12" fill="rgb(122,184,194)" opacity="0.35"/>
<circle cx="24" cy="216" r="9" fill="rgb(122,184,194)"/>
<circle cx="48" cy="216" r="12" fill="rgb(127,191,199)" opacity="0.35"/>
<circle cx="48" cy="216" r="9" fill="rgb(127,191,199)"/>
<circle cx="72" cy="216" r="12" fill="rgb(133,201,207)" opacity="0.35"/>
<circle cx="72" cy="216" r="9" fill="rgb(133,201,207)"/>
<circle cx="96" cy="216" r="12" fill="rgb(135,208,212)" opacity="0.35"/>
<circle cx="96" cy="216" r="9" fill="rgb(135,208,212)"/>
<circle cx="120" cy="216" r="12" fill="rgb(128,200,207)" opacity="0.35"/>
<circle cx="120" cy="216" r="9" fill="rgb(128,200,207)"/>
<circle cx="144" cy="216" r="12" fill="rgb(113,180,192)" opacity="0.35"/>
<circle cx="144" cy="216" r="9" fill="rgb(113,180,192)"/>
<circle cx="168" cy="216" r="12" fill="rgb(174,191,190)" opacity="0.35"/>
<circle cx="168" cy="216" r="9" fill="rgb(174,191,190)"/>
<circle cx="192" cy="216" r="12" fill="rgb(171,196,195)" opacity="0.35"/>
<circle cx="192" cy="216" r="9" fill="rgb(171,196,195)"/>
<circle cx="216" cy="216" r="12" fill="rgb(90,180,196)" opacity="0.35"/>
<circle cx="216" cy="216" r="9" fill="rgb(90,180,196)"/>
<circle cx="240" cy="216" r="12" fill="rgb(78,175,194)" opacity="0.35"/>
<circle cx="240" cy="216" r="9" fill="rgb(78,175,194)"/>
<circle cx="264" cy="216" r="12" fill="rgb(70,170,191)" opacity="0.35"/>
<circle cx="264" cy="216" r="9" fill="rgb(70,170,191)"/>
<circle cx="288" cy="216" r="12" fill="rgb(71,182,201)" opacity="0.35"/>
<circle cx="288" cy="216" r="9" fill="rgb(71,182,201)"/>
<circle cx="312" cy="216" r="12" fill="rgb(61,172,195)" opacity="0.35"/>
<circle cx="312" cy="216" r="9" fill="rgb(61,172,195)"/>
<circle cx="336" cy="216" r="12" fill="rgb(47,150,180)" opacity="0.35"/>
<circle cx="336" cy="216" r="9" fill="rgb(47,150,180)"/>
<circle cx="360" cy="216" r="12" fill="rgb(39,143,176)" opacity="0.35"/>
<circle cx="360" cy="216" r="9" fill="rgb(39,143,176)"/>
<circle cx="384" cy="216" r="12" fill="rgb(38,151,183)" opacity="0.35"/>
<circle cx="384" cy="216" r="9" fill="rgb(38,151,183)"/>
<circle cx="24" cy="240" r="12" fill="rgb(121,187,197)" opacity="0.35"/>
<circle cx="24" cy="240" r="9" fill="rgb(121,187,197)"/>
<circle cx="48" cy="240" r="12" fill="rgb(126,194,202)" opacity="0.35"/>
<circle cx="48" cy="240" r="9" fill="rgb(126,194,202)"/>
<circle cx="72" cy="240" r="12" fill="rgb(130,201,207)" opacity="0.35"/>
<circle cx="72" cy="240" r="9" fill="rgb(130,201,207)"/>
<circle cx="96" cy="240" r="12" fill="rgb(132,209,213)" opacity="0.35"/>
<circle cx="96" cy="240" r="9" fill="rgb(132,209,213)"/>
<circle cx="120" cy="240" r="12" fill="rgb(129,210,214)" opacity="0.35"/>
<circle cx="120" cy="240" r="9" fill="rgb(129,210,214)"/>
<circle cx="144" cy="240" r="12" fill="rgb(137,192,198)" opacity="0.35"/>
<circle cx="144" cy="240" r="9" fill="rgb(137,192,198)"/>
<circle cx="168" cy="240" r="12" fill="rgb(192,208,201)" opacity="0.35"/>
<circle cx="168" cy="240" r="9" fill="rgb(192,208,201)"/>
<circle cx="192" cy="240" r="12" fill="rgb(128,184,192)" opacity="0.35"/>
<circle cx="192" cy="240" r="9" fill="rgb(128,184,192)"/>
<circle cx="216" cy="240" r="12" fill="rgb(85,173,191)" opacity="0.35"/>
<circle cx="216" cy="240" r="9" fill="rgb(85,173,191)"/>
<circle cx="240" cy="240" r="12" fill="rgb(73,168,188)" opacity="0.35"/>
<circle cx="240" cy="240" r="9" fill="rgb(73,168,188)"/>
<circle cx="264" cy="240" r="12" fill="rgb(67,165,187)" opacity="0.35"/>
<circle cx="264" cy="240" r="9" fill="rgb(67,165,187)"/>
<circle cx="288" cy="240" r="12" fill="rgb(67,176,197)" opacity="0.35"/>
<circle cx="288" cy="240" r="9" fill="rgb(67,176,197)"/>
<circle cx="312" cy="240" r="12" fill="rgb(57,164,189)" opacity="0.35"/>
<circle cx="312" cy="240" r="9" fill="rgb(57,164,189)"/>
<circle cx="336" cy="240" r="12" fill="rgb(45,148,179)" opacity="0.35"/>
<circle cx="336" cy="240" r="9" fill="rgb(45,148,179)"/>
<circle cx="360" cy="240" r="12" fill="rgb(35,136,171)" opacity="0.35"/>
<circle cx="360" cy="240" r="9" fill="rgb(35,136,171)"/>
<circle cx="384" cy="240" r="12" fill="rgb(30,135,171)" opacity="0.35"/>
<circle cx="384" cy="240" r="9" fill="rgb(30,135,171)"/>
<circle cx="24" cy="264" r="12" fill="rgb(115,181,193)" opacity="0.35"/>
<circle cx="24" cy="264" r="9" fill="rgb(115,181,193)"/>
<circle cx="48" cy="264" r="12" fill="rgb(120,187,198)" opacity="0.35"/>
<circle cx="48" cy="264" r="9" fill="rgb(120,187,198)"/>
<circle cx="72" cy="264" r="12" fill="rgb(125,198,205)" opacity="0.35"/>
<circle cx="72" cy="264" r="9" fill="rgb(125,198,205)"/>
<circle cx="96" cy="264" r="12" fill="rgb(124,199,206)" opacity="0.35"/>
<circle cx="96" cy="264" r="9" fill="rgb(124,199,206)"/>
<circle cx="120" cy="264" r="12" fill="rgb(121,199,207)" opacity="0.35"/>
<circle cx="120" cy="264" r="9" fill="rgb(121,199,207)"/>
<circle cx="144" cy="264" r="12" fill="rgb(183,222,214)" opacity="0.35"/>
<circle cx="144" cy="264" r="9" fill="rgb(183,222,214)"/>
<circle cx="168" cy="264" r="12" fill="rgb(194,231,220)" opacity="0.35"/>
<circle cx="168" cy="264" r="9" fill="rgb(194,231,220)"/>
<circle cx="192" cy="264" r="12" fill="rgb(101,195,206)" opacity="0.35"/>
<circle cx="192" cy="264" r="9" fill="rgb(101,195,206)"/>
<circle cx="216" cy="264" r="12" fill="rgb(82,173,191)" opacity="0.35"/>
<circle cx="216" cy="264" r="9" fill="rgb(82,173,191)"/>
<circle cx="240" cy="264" r="12" fill="rgb(73,173,193)" opacity="0.35"/>
<circle cx="240" cy="264" r="9" fill="rgb(73,173,193)"/>
<circle cx="264" cy="264" r="12" fill="rgb(67,168,190)" opacity="0.35"/>
<circle cx="264" cy="264" r="9" fill="rgb(67,168,190)"/>
<circle cx="288" cy="264" r="12" fill="rgb(69,181,201)" opacity="0.35"/>
<circle cx="288" cy="264" r="9" fill="rgb(69,181,201)"/>
<circle cx="312" cy="264" r="12" fill="rgb(59,170,194)" opacity="0.35"/>
<circle cx="312" cy="264" r="9" fill="rgb(59,170,194)"/>
<circle cx="336" cy="264" r="12" fill="rgb(45,152,181)" opacity="0.35"/>
<circle cx="336" cy="264" r="9" fill="rgb(45,152,181)"/>
<circle cx="360" cy="264" r="12" fill="rgb(35,138,173)" opacity="0.35"/>
<circle cx="360" cy="264" r="9" fill="rgb(35,138,173)"/>
<circle cx="384" cy="264" r="12" fill="rgb(29,133,170)" opacity="0.35"/>
<circle cx="384" cy="264" r="9" fill="rgb(29,133,170)"/>
<circle cx="24" cy="288" r="12" fill="rgb(111,180,193)" opacity="0.35"/>
<circle cx="24" cy="288" r="9" fill="rgb(111,180,193)"/>
<circle cx="48" cy="288" r="12" fill="rgb(114,182,194)" opacity="0.35"/>
<circle cx="48" cy="288" r="9" fill="rgb(114,182,194)"/>
<circle cx="72" cy="288" r="12" fill="rgb(124,202,209)" opacity="0.35"/>
<circle cx="72" cy="288" r="9" fill="rgb(124,202,209)"/>
<circle cx="96" cy="288" r="12" fill="rgb(114,184,195)" opacity="0.35"/>
<circle cx="96" cy="288" r="9" fill="rgb(114,184,195)"/>
<circle cx="120" cy="288" r="12" fill="rgb(123,187,196)" opacity="0.35"/>
<circle cx="120" cy="288" r="9" fill="rgb(123,187,196)"/>
<circle cx="144" cy="288" r="12" fill="rgb(196,219,209)" opacity="0.35"/>
<circle cx="144" cy="288" r="9" fill="rgb(196,219,209)"/>
<circle cx="168" cy="288" r="12" fill="rgb(162,222,220)" opacity="0.35"/>
<circle cx="168" cy="288" r="9" fill="rgb(162,222,220)"/>
<circle cx="192" cy="288" r="12" fill="rgb(105,204,214)" opacity="0.35"/>
<circle cx="192" cy="288" r="9" fill="rgb(105,204,214)"/>
<circle cx="216" cy="288" r="12" fill="rgb(80,175,193)" opacity="0.35"/>
<circle cx="216" cy="288" r="9" fill="rgb(80,175,193)"/>
<circle cx="240" cy="288" r="12" fill="rgb(70,167,189)" opacity="0.35"/>
<circle cx="240" cy="288" r="9" fill="rgb(70,167,189)"/>
<circle cx="264" cy="288" r="12" fill="rgb(64,165,188)" opacity="0.35"/>
<circle cx="264" cy="288" r="9" fill="rgb(64,165,188)"/>
<circle cx="288" cy="288" r="12" fill="rgb(61,167,190)" opacity="0.35"/>
<circle cx="288" cy="288" r="9" fill="rgb(61,167,190)"/>
<circle cx="312" cy="288" r="12" fill="rgb(55,162,189)" opacity="0.35"/>
<circle cx="312" cy="288" r="9" fill="rgb(55,162,189)"/>
<circle cx="336" cy="288" r="12" fill="rgb(49,159,187)" opacity="0.35"/>
<circle cx="336" cy="288" r="9" fill="rgb(49,159,187)"/>
<circle cx="360" cy="288" r="12" fill="rgb(41,150,182)" opacity="0.35"/>
<circle cx="360" cy="288" r="9" fill="rgb(41,150,182)"/>
<circle cx="384" cy="288" r="12" fill="rgb(27,132,169)" opacity="0.35"/>
<circle cx="384" cy="288" r="9" fill="rgb(27,132,169)"/>
<circle cx="24" cy="312" r="12" fill="rgb(106,178,192)" opacity="0.35"/>
<circle cx="24" cy="312" r="9" fill="rgb(106,178,192)"/>
<circle cx="48" cy="312" r="12" fill="rgb(112,184,196)" opacity="0.35"/>
<circle cx="48" cy="312" r="9" fill="rgb(112,184,196)"/>
<circle cx="72" cy="312" r="12" fill="rgb(120,200,208)" opacity="0.35"/>
<circle cx="72" cy="312" r="9" fill="rgb(120,200,208)"/>
<circle cx="96" cy="312" r="12" fill="rgb(108,178,191)" opacity="0.35"/>
<circle cx="96" cy="312" r="9" fill="rgb(108,178,191)"/>
<circle cx="120" cy="312" r="12" fill="rgb(160,190,192)" opacity="0.35"/>
<circle cx="120" cy="312" r="9" fill="rgb(160,190,192)"/>
<circle cx="144" cy="312" r="12" fill="rgb(184,202,197)" opacity="0.35"/>
<circle cx="144" cy="312" r="9" fill="rgb(184,202,197)"/>
<circle cx="168" cy="312" r="12" fill="rgb(98,186,199)" opacity="0.35"/>
<circle cx="168" cy="312" r="9" fill="rgb(98,186,199)"/>
<circle cx="192" cy="312" r="12" fill="rgb(97,199,210)" opacity="0.35"/>
<circle cx="192" cy="312" r="9" fill="rgb(97,199,210)"/>
<circle cx="216" cy="312" r="12" fill="rgb(79,177,195)" opacity="0.35"/>
<circle cx="216" cy="312" r="9" fill="rgb(79,177,195)"/>
<circle cx="240" cy="312" r="12" fill="rgb(73,176,195)" opacity="0.35"/>
<circle cx="240" cy="312" r="9" fill="rgb(73,176,195)"/>
<circle cx="264" cy="312" r="12" fill="rgb(63,164,187)" opacity="0.35"/>
<circle cx="264" cy="312" r="9" fill="rgb(63,164,187)"/>
<circle cx="288" cy="312" r="12" fill="rgb(58,163,187)" opacity="0.35"/>
<circle cx="288" cy="312" r="9" fill="rgb(58,163,187)"/>
<circle cx="312" cy="312" r="12" fill="rgb(51,157,184)" opacity="0.35"/>
<circle cx="312" cy="312" r="9" fill="rgb(51,157,184)"/>
<circle cx="336" cy="312" r="12" fill="rgb(47,156,185)" opacity="0.35"/>
<circle cx="336" cy="312" r="9" fill="rgb(47,156,185)"/>
<circle cx="360" cy="312" r="12" fill="rgb(36,144,177)" opacity="0.35"/>
<circle cx="360" cy="312" r="9" fill="rgb(36,144,177)"/>
<circle cx="384" cy="312" r="12" fill="rgb(28,133,170)" opacity="0.35"/>
<circle cx="384" cy="312" r="9" fill="rgb(28,133,170)"/>
<circle cx="24" cy="336" r="12" fill="rgb(105,182,195)" opacity="0.35"/>
<circle cx="24" cy="336" r="9" fill="rgb(105,182,195)"/>
<circle cx="48" cy="336" r="12" fill="rgb(108,185,197)" opacity="0.35"/>
<circle cx="48" cy="336" r="9" fill="rgb(108,185,197)"/>
<circle cx="72" cy="336" r="12" fill="rgb(117,202,210)" opacity="0.35"/>
<circle cx="72" cy="336" r="9" fill="rgb(117,202,210)"/>
<circle cx="96" cy="336" r="12" fill="rgb(108,186,198)" opacity="0.35"/>
<circle cx="96" cy="336" r="9" fill="rgb(108,186,198)"/>
<circle cx="120" cy="336" r="12" fill="rgb(182,194,192)" opacity="0.35"/>
<circle cx="120" cy="336" r="9" fill="rgb(182,194,192)"/>
<circle cx="144" cy="336" r="12" fill="rgb(152,189,192)" opacity="0.35"/>
<circle cx="144" cy="336" r="9" fill="rgb(152,189,192)"/>
<circle cx="168" cy="336" r="12" fill="rgb(91,178,194)" opacity="0.35"/>
<circle cx="168" cy="336" r="9" fill="rgb(91,178,194)"/>
<circle cx="192" cy="336" r="12" fill="rgb(89,187,202)" opacity="0.35"/>
<circle cx="192" cy="336" r="9" fill="rgb(89,187,202)"/>
<circle cx="216" cy="336" r="12" fill="rgb(78,181,198)" opacity="0.35"/>
<circle cx="216" cy="336" r="9" fill="rgb(78,181,198)"/>
<circle cx="240" cy="336" r="12" fill="rgb(73,178,197)" opacity="0.35"/>
<circle cx="240" cy="336" r="9" fill="rgb(73,178,197)"/>
<circle cx="264" cy="336" r="12" fill="rgb(65,170,192)" opacity="0.35"/>
<circle cx="264" cy="336" r="9" fill="rgb(65,170,192)"/>
<circle cx="288" cy="336" r="12" fill="rgb(56,161,187)" opacity="0.35"/>
<circle cx="288" cy="336" r="9" fill="rgb(56,161,187)"/>
<circle cx="312" cy="336" r="12" fill="rgb(52,161,188)" opacity="0.35"/>
<circle cx="312" cy="336" r="9" fill="rgb(52,161,188)"/>
<circle cx="336" cy="336" r="12" fill="rgb(41,146,178)" opacity="0.35"/>
<circle cx="336" cy="336" r="9" fill="rgb(41,146,178)"/>
<circle cx="360" cy="336" r="12" fill="rgb(33,138,173)" opacity="0.35"/>
<circle cx="360" cy="336" r="9" fill="rgb(33,138,173)"/>
<circle cx="384" cy="336" r="12" fill="rgb(28,137,173)" opacity="0.35"/>
<circle cx="384" cy="336" r="9" fill="rgb(28,137,173)"/>
<circle cx="24" cy="360" r="12" fill="rgb(109,198,208)" opacity="0.35"/>
<circle cx="24" cy="360" r="9" fill="rgb(109,198,208)"/>
<circle cx="48" cy="360" r="12" fill="rgb(111,199,208)" opacity="0.35"/>
<circle cx="48" cy="360" r="9" fill="rgb(111,199,208)"/>
<circle cx="72" cy="360" r="12" fill="rgb(112,198,207)" opacity="0.35"/>
<circle cx="72" cy="360" r="9" fill="rgb(112,198,207)"/>
<circle cx="96" cy="360" r="12" fill="rgb(162,214,211)" opacity="0.35"/>
<circle cx="96" cy="360" r="9" fill="rgb(162,214,211)"/>
<circle cx="120" cy="360" r="12" fill="rgb(188,206,200)" opacity="0.35"/>
<circle cx="120" cy="360" r="9" fill="rgb(188,206,200)"/>
<circle cx="144" cy="360" r="12" fill="rgb(96,175,191)" opacity="0.35"/>
<circle cx="144" cy="360" r="9" fill="rgb(96,175,191)"/>
<circle cx="168" cy="360" r="12" fill="rgb(86,174,191)" opacity="0.35"/>
<circle cx="168" cy="360" r="9" fill="rgb(86,174,191)"/>
<circle cx="192" cy="360" r="12" fill="rgb(79,175,193)" opacity="0.35"/>
<circle cx="192" cy="360" r="9" fill="rgb(79,175,193)"/>
<circle cx="216" cy="360" r="12" fill="rgb(84,197,211)" opacity="0.35"/>
<circle cx="216" cy="360" r="9" fill="rgb(84,197,211)"/>
<circle cx="240" cy="360" r="12" fill="rgb(75,186,203)" opacity="0.35"/>
<circle cx="240" cy="360" r="9" fill="rgb(75,186,203)"/>
<circle cx="264" cy="360" r="12" fill="rgb(61,165,189)" opacity="0.35"/>
<circle cx="264" cy="360" r="9" fill="rgb(61,165,189)"/>
<circle cx="288" cy="360" r="12" fill="rgb(57,163,188)" opacity="0.35"/>
<circle cx="288" cy="360" r="9" fill="rgb(57,163,188)"/>
<circle cx="312" cy="360" r="12" fill="rgb(45,148,179)" opacity="0.35"/>
<circle cx="312" cy="360" r="9" fill="rgb(45,148,179)"/>
<circle cx="336" cy="360" r="12" fill="rgb(35,134,170)" opacity="0.35"/>
<circle cx="336" cy="360" r="9" fill="rgb(35,134,170)"/>
<circle cx="360" cy="360" r="12" fill="rgb(29,131,168)" opacity="0.35"/>
<circle cx="360" cy="360" r="9" fill="rgb(29,131,168)"/>
<circle cx="384" cy="360" r="12" fill="rgb(27,136,173)" opacity="0.35"/>
<circle cx="384" cy="360" r="9" fill="rgb(27,136,173)"/>
<circle cx="24" cy="384" r="12" fill="rgb(106,198,208)" opacity="0.35"/>
<circle cx="24" cy="384" r="9" fill="rgb(106,198,208)"/>
<circle cx="48" cy="384" r="12" fill="rgb(119,209,219)" opacity="0.35"/>
<circle cx="48" cy="384" r="9" fill="rgb(119,209,219)"/>
<circle cx="72" cy="384" r="12" fill="rgb(107,196,207)" opacity="0.35"/>
<circle cx="72" cy="384" r="9" fill="rgb(107,196,207)"/>
<circle cx="96" cy="384" r="12" fill="rgb(188,215,207)" opacity="0.35"/>
<circle cx="96" cy="384" r="9" fill="rgb(188,215,207)"/>
<circle cx="120" cy="384" r="12" fill="rgb(173,217,212)" opacity="0.35"/>
<circle cx="120" cy="384" r="9" fill="rgb(173,217,212)"/>
<circle cx="144" cy="384" r="12" fill="rgb(95,187,200)" opacity="0.35"/>
<circle cx="144" cy="384" r="9" fill="rgb(95,187,200)"/>
<circle cx="168" cy="384" r="12" fill="rgb(84,177,194)" opacity="0.35"/>
<circle cx="168" cy="384" r="9" fill="rgb(84,177,194)"/>
<circle cx="192" cy="384" r="12" fill="rgb(80,182,198)" opacity="0.35"/>
<circle cx="192" cy="384" r="9" fill="rgb(80,182,198)"/>
<circle cx="216" cy="384" r="12" fill="rgb(79,188,204)" opacity="0.35"/>
<circle cx="216" cy="384" r="9" fill="rgb(79,188,204)"/>
<circle cx="240" cy="384" r="12" fill="rgb(77,190,207)" opacity="0.35"/>
<circle cx="240" cy="384" r="9" fill="rgb(77,190,207)"/>
<circle cx="264" cy="384" r="12" fill="rgb(61,166,191)" opacity="0.35"/>
<circle cx="264" cy="384" r="9" fill="rgb(61,166,191)"/>
<circle cx="288" cy="384" r="12" fill="rgb(50,153,181)" opacity="0.35"/>
<circle cx="288" cy="384" r="9" fill="rgb(50,153,181)"/>
<circle cx="312" cy="384" r="12" fill="rgb(45,149,180)" opacity="0.35"/>
<circle cx="312" cy="384" r="9" fill="rgb(45,149,180)"/>
<circle cx="336" cy="384" r="12" fill="rgb(37,143,176)" opacity="0.35"/>
<circle cx="336" cy="384" r="9" fill="rgb(37,143,176)"/>
<circle cx="360" cy="384" r="12" fill="rgb(28,131,168)" opacity="0.35"/>
<circle cx="360" cy="384" r="9" fill="rgb(28,131,168)"/>
<circle cx="384" cy="384" r="12" fill="rgb(32,147,181)" opacity="0.35"/>
<circle cx="384" cy="384" r="9" fill="rgb(32,147,181)"/>
</svg>
