<svg xmlns="http://www.w3.org/2000/svg" viewBox="0 0 408 408" width="408" height="408" role="img" aria-label="LED preview of the Blobs example graph">
<rect width="408" height="408" rx="10" fill="#05070a"/>
<circle cx="24" cy="24" r="12" fill="rgb(252,65,32)" opacity="0.35"/>
<circle cx="24" cy="24" r="9" fill="rgb(252,65,32)"/>
<circle cx="48" cy="24" r="12" fill="rgb(252,71,24)" opacity="0.35"/>
<circle cx="48" cy="24" r="9" fill="rgb(252,71,24)"/>
<circle cx="72" cy="24" r="12" fill="rgb(251,78,16)" opacity="0.35"/>
<circle cx="72" cy="24" r="9" fill="rgb(251,78,16)"/>
<circle cx="96" cy="24" r="12" fill="rgb(251,85,8)" opacity="0.35"/>
<circle cx="96" cy="24" r="9" fill="rgb(251,85,8)"/>
<circle cx="120" cy="24" r="12" fill="rgb(251,93,7)" opacity="0.35"/>
<circle cx="120" cy="24" r="9" fill="rgb(251,93,7)"/>
<circle cx="144" cy="24" r="12" fill="rgb(252,101,8)" opacity="0.35"/>
<circle cx="144" cy="24" r="9" fill="rgb(252,101,8)"/>
<circle cx="168" cy="24" r="12" fill="rgb(252,108,8)" opacity="0.35"/>
<circle cx="168" cy="24" r="9" fill="rgb(252,108,8)"/>
<circle cx="192" cy="24" r="12" fill="rgb(252,114,8)" opacity="0.35"/>
<circle cx="192" cy="24" r="9" fill="rgb(252,114,8)"/>
<circle cx="216" cy="24" r="12" fill="rgb(252,121,8)" opacity="0.35"/>
<circle cx="216" cy="24" r="9" fill="rgb(252,121,8)"/>
<circle cx="240" cy="24" r="12" fill="rgb(253,129,9)" opacity="0.35"/>
<circle cx="240" cy="24" r="9" fill="rgb(253,129,9)"/>
<circle cx="264" cy="24" r="12" fill="rgb(253,139,9)" opacity="0.35"/>
<circle cx="264" cy="24" r="9" fill="rgb(253,139,9)"/>
<circle cx="288" cy="24" r="12" fill="rgb(254,153,10)" opacity="0.35"/>
<circle cx="288" cy="24" r="9" fill="rgb(254,153,10)"/>
<circle cx="312" cy="24" r="12" fill="rgb(254,168,10)" opacity="0.35"/>
<circle cx="312" cy="24" r="9" fill="rgb(254,168,10)"/>
<circle cx="336" cy="24" r="12" fill="rgb(255,181,11)" opacity="0.35"/>
<circle cx="336" cy="24" r="9" fill="rgb(255,181,11)"/>
<circle cx="360" cy="24" r="12" fill="rgb(255,188,11)" opacity="0.35"/>
<circle cx="360" cy="24" r="9" fill="rgb(255,188,11)"/>
<circle cx="384" cy="24" r="12" fill="rgb(255,185,11)" opacity="0.35"/>
<circle cx="384" cy="24" r="9" fill="rgb(255,185,11)"/>
<circle cx="24" cy="48" r="12" fill="rgb(252,71,25)" opacity="0.35"/>
<circle cx="24" cy="48" r="9" fill="rgb(252,71,25)"/>
<circle cx="48" cy="48" r="12" fill="rgb(251,79,15)" opacity="0.35"/>
<circle cx="48" cy="48" r="9" fill="rgb(251,79,15)"/>
<circle cx="72" cy="48" r="12" fill="rgb(251,88,7)" opacity="0.35"/>
<circle cx="72" cy="48" r="9" fill="rgb(251,88,7)"/>
<circle cx="96" cy="48" r="12" fill="rgb(251,99,7)" opacity="0.35"/>
<circle cx="96" cy="48" r="9" fill="rgb(251,99,7)"/>
<circle cx="120" cy="48" r="12" fill="rgb(252,109,8)" opacity="0.35"/>
<circle cx="120" cy="48" r="9" fill="rgb(252,109,8)"/>
<circle cx="144" cy="48" r="12" fill="rgb(252,118,8)" opacity="0.35"/>
<circle cx="144" cy="48" r="9" fill="rgb(252,118,8)"/>
<circle cx="168" cy="48" r="12" fill="rgb(253,126,9)" opacity="0.35"/>
<circle cx="168" cy="48" r="9" fill="rgb(253,126,9)"/>
<circle cx="192" cy="48" r="12" fill="rgb(253,133,9)" opacity="0.35"/>
<circle cx="192" cy="48" r="9" fill="rgb(253,133,9)"/>
<circle cx="216" cy="48" r="12" fill="rgb(253,140,9)" opacity="0.35"/>
<circle cx="216" cy="48" r="9" fill="rgb(253,140,9)"/>
<circle cx="240" cy="48" r="12" fill="rgb(253,148,9)" opacity="0.35"/>
<circle cx="240" cy="48" r="9" fill="rgb(253,148,9)"/>
<circle cx="264" cy="48" r="12" fill="rgb(254,160,10)" opacity="0.35"/>
<circle cx="264" cy="48" r="9" fill="rgb(254,160,10)"/>
<circle cx="288" cy="48" r="12" fill="rgb(255,178,11)" opacity="0.35"/>
<circle cx="288" cy="48" r="9" fill="rgb(255,178,11)"/>
<circle cx="312" cy="48" r="12" fill="rgb(241,175,37)" opacity="0.35"/>
<circle cx="312" cy="48" r="9" fill="rgb(241,175,37)"/>
<circle cx="336" cy="48" r="12" fill="rgb(213,144,88)" opacity="0.35"/>
<circle cx="336" cy="48" r="9" fill="rgb(213,144,88)"/>
<circle cx="360" cy="48" r="12" fill="rgb(196,126,118)" opacity="0.35"/>
<circle cx="360" cy="48" r="9" fill="rgb(196,126,118)"/>
<circle cx="384" cy="48" r="12" fill="rgb(201,132,108)" opacity="0.35"/>
<circle cx="384" cy="48" r="9" fill="rgb(201,132,108)"/>
<circle cx="24" cy="72" r="12" fill="rgb(251,78,16)" opacity="0.35"/>
<circle cx="24" cy="72" r="9" fill="rgb(251,78,16)"/>
<circle cx="48" cy="72" r="12" fill="rgb(251,88,7)" opacity="0.35"/>
<circle cx="48" cy="72" r="9" fill="rgb(251,88,7)"/>
<circle cx="72" cy="72" r="12" fill="rgb(252,101,8)" opacity="0.35"/>
<circle cx="72" cy="72" r="9" fill="rgb(252,101,8)"/>
<circle cx="96" cy="72" r="12" fill="rgb(252,115,8)" opacity="0.35"/>
<circle cx="96" cy="72" r="9" fill="rgb(252,115,8)"/>
<circle cx="120" cy="72" r="12" fill="rgb(253,128,9)" opacity="0.35"/>
<circle cx="120" cy="72" r="9" fill="rgb(253,128,9)"/>
<circle cx="144" cy="72" r="12" fill="rgb(253,140,9)" opacity="0.35"/>
<circle cx="144" cy="72" r="9" fill="rgb(253,140,9)"/>
<circle cx="168" cy="72" r="12" fill="rgb(253,149,9)" opacity="0.35"/>
<circle cx="168" cy="72" r="9" fill="rgb(253,149,9)"/>
<circle cx="192" cy="72" r="12" fill="rgb(254,156,10)" opacity="0.35"/>
<circle cx="192" cy="72" r="9" fill="rgb(254,156,10)"/>
<circle cx="216" cy="72" r="12" fill="rgb(254,161,10)" opacity="0.35"/>
<circle cx="216" cy="72" r="9" fill="rgb(254,161,10)"/>
<circle cx="240" cy="72" r="12" fill="rgb(254,168,10)" opacity="0.35"/>
<circle cx="240" cy="72" r="9" fill="rgb(254,168,10)"/>
<circle cx="264" cy="72" r="12" fill="rgb(255,181,11)" opacity="0.35"/>
<circle cx="264" cy="72" r="9" fill="rgb(255,181,11)"/>
<circle cx="288" cy="72" r="12" fill="rgb(239,173,40)" opacity="0.35"/>
<circle cx="288" cy="72" r="9" fill="rgb(239,173,40)"/>
<circle cx="312" cy="72" r="12" fill="rgb(199,130,112)" opacity="0.35"/>
<circle cx="312" cy="72" r="9" fill="rgb(199,130,112)"/>
<circle cx="336" cy="72" r="12" fill="rgb(154,81,194)" opacity="0.35"/>
<circle cx="336" cy="72" r="9" fill="rgb(154,81,194)"/>
<circle cx="360" cy="72" r="12" fill="rgb(127,60,237)" opacity="0.35"/>
<circle cx="360" cy="72" r="9" fill="rgb(127,60,237)"/>
<circle cx="384" cy="72" r="12" fill="rgb(132,57,234)" opacity="0.35"/>
<circle cx="384" cy="72" r="9" fill="rgb(132,57,234)"/>
<circle cx="24" cy="96" r="12" fill="rgb(251,85,8)" opacity="0.35"/>
<circle cx="24" cy="96" r="9" fill="rgb(251,85,8)"/>
<circle cx="48" cy="96" r="12" fill="rgb(252,100,8)" opacity="0.35"/>
<circle cx="48" cy="96" r="9" fill="rgb(252,100,8)"/>
<circle cx="72" cy="96" r="12" fill="rgb(252,116,8)" opacity="0.35"/>
<circle cx="72" cy="96" r="9" fill="rgb(252,116,8)"/>
<circle cx="96" cy="96" r="12" fill="rgb(253,134,9)" opacity="0.35"/>
<circle cx="96" cy="96" r="9" fill="rgb(253,134,9)"/>
<circle cx="120" cy="96" r="12" fill="rgb(254,153,10)" opacity="0.35"/>
<circle cx="120" cy="96" r="9" fill="rgb(254,153,10)"/>
<circle cx="144" cy="96" r="12" fill="rgb(254,168,10)" opacity="0.35"/>
<circle cx="144" cy="96" r="9" fill="rgb(254,168,10)"/>
<circle cx="168" cy="96" r="12" fill="rgb(255,179,11)" opacity="0.35"/>
<circle cx="168" cy="96" r="9" fill="rgb(255,179,11)"/>
<circle cx="192" cy="96" r="12" fill="rgb(255,184,11)" opacity="0.35"/>
<circle cx="192" cy="96" r="9" fill="rgb(255,184,11)"/>
<circle cx="216" cy="96" r="12" fill="rgb(255,185,11)" opacity="0.35"/>
<circle cx="216" cy="96" r="9" fill="rgb(255,185,11)"/>
<circle cx="240" cy="96" r="12" fill="rgb(255,188,11)" opacity="0.35"/>
<circle cx="240" cy="96" r="9" fill="rgb(255,188,11)"/>
<circle cx="264" cy="96" r="12" fill="rgb(246,180,28)" opacity="0.35"/>
<circle cx="264" cy="96" r="9" fill="rgb(246,180,28)"/>
<circle cx="288" cy="96" r="12" fill="rgb(217,149,80)" opacity="0.35"/>
<circle cx="288" cy="96" r="9" fill="rgb(217,149,80)"/>
<circle cx="312" cy="96" r="12" fill="rgb(168,96,169)" opacity="0.35"/>
<circle cx="312" cy="96" r="9" fill="rgb(168,96,169)"/>
<circle cx="336" cy="96" r="12" fill="rgb(117,71,240)" opacity="0.35"/>
<circle cx="336" cy="96" r="9" fill="rgb(117,71,240)"/>
<circle cx="360" cy="96" r="12" fill="rgb(92,98,246)" opacity="0.35"/>
<circle cx="360" cy="96" r="9" fill="rgb(92,98,246)"/>
<circle cx="384" cy="96" r="12" fill="rgb(97,92,245)" opacity="0.35"/>
<circle cx="384" cy="96" r="9" fill="rgb(97,92,245)"/>
<circle cx="24" cy="120" r="12" fill="rgb(251,94,7)" opacity="0.35"/>
<circle cx="24" cy="120" r="9" fill="rgb(251,94,7)"/>
<circle cx="48" cy="120" r="12" fill="rgb(252,112,8)" opacity="0.35"/>
<circle cx="48" cy="120" r="9" fill="rgb(252,112,8)"/>
<circle cx="72" cy="120" r="12" fill="rgb(253,133,9)" opacity="0.35"/>
<circle cx="72" cy="120" r="9" fill="rgb(253,133,9)"/>
<circle cx="96" cy="120" r="12" fill="rgb(254,157,10)" opacity="0.35"/>
<circle cx="96" cy="120" r="9" fill="rgb(254,157,10)"/>
<circle cx="120" cy="120" r="12" fill="rgb(255,182,11)" opacity="0.35"/>
<circle cx="120" cy="120" r="9" fill="rgb(255,182,11)"/>
<circle cx="144" cy="120" r="12" fill="rgb(237,171,43)" opacity="0.35"/>
<circle cx="144" cy="120" r="9" fill="rgb(237,171,43)"/>
<circle cx="168" cy="120" r="12" fill="rgb(220,153,74)" opacity="0.35"/>
<circle cx="168" cy="120" r="9" fill="rgb(220,153,74)"/>
<circle cx="192" cy="120" r="12" fill="rgb(218,150,79)" opacity="0.35"/>
<circle cx="192" cy="120" r="9" fill="rgb(218,150,79)"/>
<circle cx="216" cy="120" r="12" fill="rgb(225,158,65)" opacity="0.35"/>
<circle cx="216" cy="120" r="9" fill="rgb(225,158,65)"/>
<circle cx="240" cy="120" r="12" fill="rgb(233,167,50)" opacity="0.35"/>
<circle cx="240" cy="120" r="9" fill="rgb(233,167,50)"/>
<circle cx="264" cy="120" r="12" fill="rgb(230,163,57)" opacity="0.35"/>
<circle cx="264" cy="120" r="9" fill="rgb(230,163,57)"/>
<circle cx="288" cy="120" r="12" fill="rgb(206,138,99)" opacity="0.35"/>
<circle cx="288" cy="120" r="9" fill="rgb(206,138,99)"/>
<circle cx="312" cy="120" r="12" fill="rgb(159,86,186)" opacity="0.35"/>
<circle cx="312" cy="120" r="9" fill="rgb(159,86,186)"/>
<circle cx="336" cy="120" r="12" fill="rgb(110,78,241)" opacity="0.35"/>
<circle cx="336" cy="120" r="9" fill="rgb(110,78,241)"/>
<circle cx="360" cy="120" r="12" fill="rgb(83,107,248)" opacity="0.35"/>
<circle cx="360" cy="120" r="9" fill="rgb(83,107,248)"/>
<circle cx="384" cy="120" r="12" fill="rgb(89,101,247)" opacity="0.35"/>
<circle cx="384" cy="120" r="9" fill="rgb(89,101,247)"/>
<circle cx="24" cy="144" r="12" fill="rgb(252,102,8)" opacity="0.35"/>
<circle cx="24" cy="144" r="9" fill="rgb(252,102,8)"/>
<circle cx="48" cy="144" r="12" fill="rgb(252,123,8)" opacity="0.35"/>
<circle cx="48" cy="144" r="9" fill="rgb(252,123,8)"/>
<circle cx="72" cy="144" r="12" fill="rgb(253,149,9)" opacity="0.35"/>
<circle cx="72" cy="144" r="9" fill="rgb(253,149,9)"/>
<circle cx="96" cy="144" r="12" fill="rgb(255,180,11)" opacity="0.35"/>
<circle cx="96" cy="144" r="9" fill="rgb(255,180,11)"/>
<circle cx="120" cy="144" r="12" fill="rgb(224,157,66)" opacity="0.35"/>
<circle cx="120" cy="144" r="9" fill="rgb(224,157,66)"/>
<circle cx="144" cy="144" r="12" fill="rgb(184,113,139)" opacity="0.35"/>
<circle cx="144" cy="144" r="9" fill="rgb(184,113,139)"/>
<circle cx="168" cy="144" r="12" fill="rgb(159,87,185)" opacity="0.35"/>
<circle cx="168" cy="144" r="9" fill="rgb(159,87,185)"/>
<circle cx="192" cy="144" r="12" fill="rgb(161,88,182)" opacity="0.35"/>
<circle cx="192" cy="144" r="9" fill="rgb(161,88,182)"/>
<circle cx="216" cy="144" r="12" fill="rgb(183,112,142)" opacity="0.35"/>
<circle cx="216" cy="144" r="9" fill="rgb(183,112,142)"/>
<circle cx="240" cy="144" r="12" fill="rgb(207,138,98)" opacity="0.35"/>
<circle cx="240" cy="144" r="9" fill="rgb(207,138,98)"/>
<circle cx="264" cy="144" r="12" fill="rgb(218,150,78)" opacity="0.35"/>
<circle cx="264" cy="144" r="9" fill="rgb(218,150,78)"/>
<circle cx="288" cy="144" r="12" fill="rgb(208,139,97)" opacity="0.35"/>
<circle cx="288" cy="144" r="9" fill="rgb(208,139,97)"/>
<circle cx="312" cy="144" r="12" fill="rgb(174,102,158)" opacity="0.35"/>
<circle cx="312" cy="144" r="9" fill="rgb(174,102,158)"/>
<circle cx="336" cy="144" r="12" fill="rgb(128,59,237)" opacity="0.35"/>
<circle cx="336" cy="144" r="9" fill="rgb(128,59,237)"/>
<circle cx="360" cy="144" r="12" fill="rgb(108,81,242)" opacity="0.35"/>
<circle cx="360" cy="144" r="9" fill="rgb(108,81,242)"/>
<circle cx="384" cy="144" r="12" fill="rgb(113,76,241)" opacity="0.35"/>
<circle cx="384" cy="144" r="9" fill="rgb(113,76,241)"/>
<circle cx="24" cy="168" r="12" fill="rgb(252,109,8)" opacity="0.35"/>
<circle cx="24" cy="168" r="9" fill="rgb(252,109,8)"/>
<circle cx="48" cy="168" r="12" fill="rgb(253,132,9)" opacity="0.35"/>
<circle cx="48" cy="168" r="9" fill="rgb(253,132,9)"/>
<circle cx="72" cy="168" r="12" fill="rgb(254,162,10)" opacity="0.35"/>
<circle cx="72" cy="168" r="9" fill="rgb(254,162,10)"/>
<circle cx="96" cy="168" r="12" fill="rgb(242,176,34)" opacity="0.35"/>
<circle cx="96" cy="168" r="9" fill="rgb(242,176,34)"/>
<circle cx="120" cy="168" r="12" fill="rgb(187,117,134)" opacity="0.35"/>
<circle cx="120" cy="168" r="9" fill="rgb(187,117,134)"/>
<circle cx="144" cy="168" r="12" fill="rgb(130,57,236)" opacity="0.35"/>
<circle cx="144" cy="168" r="9" fill="rgb(130,57,236)"/>
<circle cx="168" cy="168" r="12" fill="rgb(108,80,242)" opacity="0.35"/>
<circle cx="168" cy="168" r="9" fill="rgb(108,80,242)"/>
<circle cx="192" cy="168" r="12" fill="rgb(112,77,241)" opacity="0.35"/>
<circle cx="192" cy="168" r="9" fill="rgb(112,77,241)"/>
<circle cx="216" cy="168" r="12" fill="rgb(139,64,222)" opacity="0.35"/>
<circle cx="216" cy="168" r="9" fill="rgb(139,64,222)"/>
<circle cx="240" cy="168" r="12" fill="rgb(183,112,142)" opacity="0.35"/>
<circle cx="240" cy="168" r="9" fill="rgb(183,112,142)"/>
<circle cx="264" cy="168" r="12" fill="rgb(210,142,92)" opacity="0.35"/>
<circle cx="264" cy="168" r="9" fill="rgb(210,142,92)"/>
<circle cx="288" cy="168" r="12" fill="rgb(215,147,83)" opacity="0.35"/>
<circle cx="288" cy="168" r="9" fill="rgb(215,147,83)"/>
<circle cx="312" cy="168" r="12" fill="rgb(200,131,110)" opacity="0.35"/>
<circle cx="312" cy="168" r="9" fill="rgb(200,131,110)"/>
<circle cx="336" cy="168" r="12" fill="rgb(175,103,156)" opacity="0.35"/>
<circle cx="336" cy="168" r="9" fill="rgb(175,103,156)"/>
<circle cx="360" cy="168" r="12" fill="rgb(157,84,188)" opacity="0.35"/>
<circle cx="360" cy="168" r="9" fill="rgb(157,84,188)"/>
<circle cx="384" cy="168" r="12" fill="rgb(164,92,176)" opacity="0.35"/>
<circle cx="384" cy="168" r="9" fill="rgb(164,92,176)"/>
<circle cx="24" cy="192" r="12" fill="rgb(252,113,8)" opacity="0.35"/>
<circle cx="24" cy="192" r="9" fill="rgb(252,113,8)"/>
<circle cx="48" cy="192" r="12" fill="rgb(253,138,9)" opacity="0.35"/>
<circle cx="48" cy="192" r="9" fill="rgb(253,138,9)"/>
<circle cx="72" cy="192" r="12" fill="rgb(254,170,10)" opacity="0.35"/>
<circle cx="72" cy="192" r="9" fill="rgb(254,170,10)"/>
<circle cx="96" cy="192" r="12" fill="rgb(228,161,59)" opacity="0.35"/>
<circle cx="96" cy="192" r="9" fill="rgb(228,161,59)"/>
<circle cx="120" cy="192" r="12" fill="rgb(165,93,174)" opacity="0.35"/>
<circle cx="120" cy="192" r="9" fill="rgb(165,93,174)"/>
<circle cx="144" cy="192" r="12" fill="rgb(111,78,241)" opacity="0.35"/>
<circle cx="144" cy="192" r="9" fill="rgb(111,78,241)"/>
<circle cx="168" cy="192" r="12" fill="rgb(83,107,248)" opacity="0.35"/>
<circle cx="168" cy="192" r="9" fill="rgb(83,107,248)"/>
<circle cx="192" cy="192" r="12" fill="rgb(88,102,247)" opacity="0.35"/>
<circle cx="192" cy="192" r="9" fill="rgb(88,102,247)"/>
<circle cx="216" cy="192" r="12" fill="rgb(119,68,239)" opacity="0.35"/>
<circle cx="216" cy="192" r="9" fill="rgb(119,68,239)"/>
<circle cx="240" cy="192" r="12" fill="rgb(169,97,168)" opacity="0.35"/>
<circle cx="240" cy="192" r="9" fill="rgb(169,97,168)"/>
<circle cx="264" cy="192" r="12" fill="rgb(207,138,98)" opacity="0.35"/>
<circle cx="264" cy="192" r="9" fill="rgb(207,138,98)"/>
<circle cx="288" cy="192" r="12" fill="rgb(224,157,67)" opacity="0.35"/>
<circle cx="288" cy="192" r="9" fill="rgb(224,157,67)"/>
<circle cx="312" cy="192" r="12" fill="rgb(225,158,65)" opacity="0.35"/>
<circle cx="312" cy="192" r="9" fill="rgb(225,158,65)"/>
<circle cx="336" cy="192" r="12" fill="rgb(218,150,78)" opacity="0.35"/>
<circle cx="336" cy="192" r="9" fill="rgb(218,150,78)"/>
<circle cx="360" cy="192" r="12" fill="rgb(214,146,85)" opacity="0.35"/>
<circle cx="360" cy="192" r="9" fill="rgb(214,146,85)"/>
<circle cx="384" cy="192" r="12" fill="rgb(222,154,71)" opacity="0.35"/>
<circle cx="384" cy="192" r="9" fill="rgb(222,154,71)"/>
<circle cx="24" cy="216" r="12" fill="rgb(252,114,8)" opacity="0.35"/>
<circle cx="24" cy="216" r="9" fill="rgb(252,114,8)"/>
<circle cx="48" cy="216" r="12" fill="rgb(253,139,9)" opacity="0.35"/>
<circle cx="48" cy="216" r="9" fill="rgb(253,139,9)"/>
<circle cx="72" cy="216" r="12" fill="rgb(254,171,10)" opacity="0.35"/>
<circle cx="72" cy="216" r="9" fill="rgb(254,171,10)"/>
<circle cx="96" cy="216" r="12" fill="rgb(229,162,58)" opacity="0.35"/>
<circle cx="96" cy="216" r="9" fill="rgb(229,162,58)"/>
<circle cx="120" cy="216" r="12" fill="rgb(169,97,166)" opacity="0.35"/>
<circle cx="120" cy="216" r="9" fill="rgb(169,97,166)"/>
<circle cx="144" cy="216" r="12" fill="rgb(116,72,240)" opacity="0.35"/>
<circle cx="144" cy="216" r="9" fill="rgb(116,72,240)"/>
<circle cx="168" cy="216" r="12" fill="rgb(91,99,246)" opacity="0.35"/>
<circle cx="168" cy="216" r="9" fill="rgb(91,99,246)"/>
<circle cx="192" cy="216" r="12" fill="rgb(95,95,245)" opacity="0.35"/>
<circle cx="192" cy="216" r="9" fill="rgb(95,95,245)"/>
<circle cx="216" cy="216" r="12" fill="rgb(123,64,238)" opacity="0.35"/>
<circle cx="216" cy="216" r="9" fill="rgb(123,64,238)"/>
<circle cx="240" cy="216" r="12" fill="rgb(172,100,162)" opacity="0.35"/>
<circle cx="240" cy="216" r="9" fill="rgb(172,100,162)"/>
<circle cx="264" cy="216" r="12" fill="rgb(211,142,92)" opacity="0.35"/>
<circle cx="264" cy="216" r="9" fill="rgb(211,142,92)"/>
<circle cx="288" cy="216" r="12" fill="rgb(234,167,50)" opacity="0.35"/>
<circle cx="288" cy="216" r="9" fill="rgb(234,167,50)"/>
<circle cx="312" cy="216" r="12" fill="rgb(245,179,30)" opacity="0.35"/>
<circle cx="312" cy="216" r="9" fill="rgb(245,179,30)"/>
<circle cx="336" cy="216" r="12" fill="rgb(249,184,21)" opacity="0.35"/>
<circle cx="336" cy="216" r="9" fill="rgb(249,184,21)"/>
<circle cx="360" cy="216" r="12" fill="rgb(254,189,13)" opacity="0.35"/>
<circle cx="360" cy="216" r="9" fill="rgb(254,189,13)"/>
<circle cx="384" cy="216" r="12" fill="rgb(255,183,11)" opacity="0.35"/>
<circle cx="384" cy="216" r="9" fill="rgb(255,183,11)"/>
<circle cx="24" cy="240" r="12" fill="rgb(252,114,8)" opacity="0.35"/>
<circle cx="24" cy="240" r="9" fill="rgb(252,114,8)"/>
<circle cx="48" cy="240" r="12" fill="rgb(253,137,9)" opacity="0.35"/>
<circle cx="48" cy="240" r="9" fill="rgb(253,137,9)"/>
<circle cx="72" cy="240" r="12" fill="rgb(254,166,10)" opacity="0.35"/>
<circle cx="72" cy="240" r="9" fill="rgb(254,166,10)"/>
<circle cx="96" cy="240" r="12" fill="rgb(242,175,35)" opacity="0.35"/>
<circle cx="96" cy="240" r="9" fill="rgb(242,175,35)"/>
<circle cx="120" cy="240" r="12" fill="rgb(194,124,122)" opacity="0.35"/>
<circle cx="120" cy="240" r="9" fill="rgb(194,124,122)"/>
<circle cx="144" cy="240" r="12" fill="rgb(147,73,208)" opacity="0.35"/>
<circle cx="144" cy="240" r="9" fill="rgb(147,73,208)"/>
<circle cx="168" cy="240" r="12" fill="rgb(123,65,238)" opacity="0.35"/>
<circle cx="168" cy="240" r="9" fill="rgb(123,65,238)"/>
<circle cx="192" cy="240" r="12" fill="rgb(124,63,238)" opacity="0.35"/>
<circle cx="192" cy="240" r="9" fill="rgb(124,63,238)"/>
<circle cx="216" cy="240" r="12" fill="rgb(150,77,201)" opacity="0.35"/>
<circle cx="216" cy="240" r="9" fill="rgb(150,77,201)"/>
<circle cx="240" cy="240" r="12" fill="rgb(187,117,134)" opacity="0.35"/>
<circle cx="240" cy="240" r="9" fill="rgb(187,117,134)"/>
<circle cx="264" cy="240" r="12" fill="rgb(219,151,77)" opacity="0.35"/>
<circle cx="264" cy="240" r="9" fill="rgb(219,151,77)"/>
<circle cx="288" cy="240" r="12" fill="rgb(242,176,35)" opacity="0.35"/>
<circle cx="288" cy="240" r="9" fill="rgb(242,176,35)"/>
<circle cx="312" cy="240" r="12" fill="rgb(255,188,11)" opacity="0.35"/>
<circle cx="312" cy="240" r="9" fill="rgb(255,188,11)"/>
<circle cx="336" cy="240" r="12" fill="rgb(255,178,11)" opacity="0.35"/>
<circle cx="336" cy="240" r="9" fill="rgb(255,178,11)"/>
<circle cx="360" cy="240" r="12" fill="rgb(254,169,10)" opacity="0.35"/>
<circle cx="360" cy="240" r="9" fill="rgb(254,169,10)"/>
<circle cx="384" cy="240" r="12" fill="rgb(254,159,10)" opacity="0.35"/>
<circle cx="384" cy="240" r="9" fill="rgb(254,159,10)"/>
<circle cx="24" cy="264" r="12" fill="rgb(252,111,8)" opacity="0.35"/>
<circle cx="24" cy="264" r="9" fill="rgb(252,111,8)"/>
<circle cx="48" cy="264" r="12" fill="rgb(253,133,9)" opacity="0.35"/>
<circle cx="48" cy="264" r="9" fill="rgb(253,133,9)"/>
<circle cx="72" cy="264" r="12" fill="rgb(254,158,10)" opacity="0.35"/>
<circle cx="72" cy="264" r="9" fill="rgb(254,158,10)"/>
<circle cx="96" cy="264" r="12" fill="rgb(255,187,11)" opacity="0.35"/>
<circle cx="96" cy="264" r="9" fill="rgb(255,187,11)"/>
<circle cx="120" cy="264" r="12" fill="rgb(222,154,72)" opacity="0.35"/>
<circle cx="120" cy="264" r="9" fill="rgb(222,154,72)"/>
<circle cx="144" cy="264" r="12" fill="rgb(189,118,131)" opacity="0.35"/>
<circle cx="144" cy="264" r="9" fill="rgb(189,118,131)"/>
<circle cx="168" cy="264" r="12" fill="rgb(168,96,168)" opacity="0.35"/>
<circle cx="168" cy="264" r="9" fill="rgb(168,96,168)"/>
<circle cx="192" cy="264" r="12" fill="rgb(166,94,173)" opacity="0.35"/>
<circle cx="192" cy="264" r="9" fill="rgb(166,94,173)"/>
<circle cx="216" cy="264" r="12" fill="rgb(179,108,149)" opacity="0.35"/>
<circle cx="216" cy="264" r="9" fill="rgb(179,108,149)"/>
<circle cx="240" cy="264" r="12" fill="rgb(200,131,111)" opacity="0.35"/>
<circle cx="240" cy="264" r="9" fill="rgb(200,131,111)"/>
<circle cx="264" cy="264" r="12" fill="rgb(223,156,68)" opacity="0.35"/>
<circle cx="264" cy="264" r="9" fill="rgb(223,156,68)"/>
<circle cx="288" cy="264" r="12" fill="rgb(246,180,28)" opacity="0.35"/>
<circle cx="288" cy="264" r="9" fill="rgb(246,180,28)"/>
<circle cx="312" cy="264" r="12" fill="rgb(255,181,11)" opacity="0.35"/>
<circle cx="312" cy="264" r="9" fill="rgb(255,181,11)"/>
<circle cx="336" cy="264" r="12" fill="rgb(254,167,10)" opacity="0.35"/>
<circle cx="336" cy="264" r="9" fill="rgb(254,167,10)"/>
<circle cx="360" cy="264" r="12" fill="rgb(254,155,10)" opacity="0.35"/>
<circle cx="360" cy="264" r="9" fill="rgb(254,155,10)"/>
<circle cx="384" cy="264" r="12" fill="rgb(253,143,9)" opacity="0.35"/>
<circle cx="384" cy="264" r="9" fill="rgb(253,143,9)"/>
<circle cx="24" cy="288" r="12" fill="rgb(252,108,8)" opacity="0.35"/>
<circle cx="24" cy="288" r="9" fill="rgb(252,108,8)"/>
<circle cx="48" cy="288" r="12" fill="rgb(253,128,9)" opacity="0.35"/>
<circle cx="48" cy="288" r="9" fill="rgb(253,128,9)"/>
<circle cx="72" cy="288" r="12" fill="rgb(253,151,9)" opacity="0.35"/>
<circle cx="72" cy="288" r="9" fill="rgb(253,151,9)"/>
<circle cx="96" cy="288" r="12" fill="rgb(254,176,10)" opacity="0.35"/>
<circle cx="96" cy="288" r="9" fill="rgb(254,176,10)"/>
<circle cx="120" cy="288" r="12" fill="rgb(241,175,36)" opacity="0.35"/>
<circle cx="120" cy="288" r="9" fill="rgb(241,175,36)"/>
<circle cx="144" cy="288" r="12" fill="rgb(213,145,87)" opacity="0.35"/>
<circle cx="144" cy="288" r="9" fill="rgb(213,145,87)"/>
<circle cx="168" cy="288" r="12" fill="rgb(192,122,125)" opacity="0.35"/>
<circle cx="168" cy="288" r="9" fill="rgb(192,122,125)"/>
<circle cx="192" cy="288" r="12" fill="rgb(181,111,144)" opacity="0.35"/>
<circle cx="192" cy="288" r="9" fill="rgb(181,111,144)"/>
<circle cx="216" cy="288" r="12" fill="rgb(182,112,143)" opacity="0.35"/>
<circle cx="216" cy="288" r="9" fill="rgb(182,112,143)"/>
<circle cx="240" cy="288" r="12" fill="rgb(195,126,119)" opacity="0.35"/>
<circle cx="240" cy="288" r="9" fill="rgb(195,126,119)"/>
<circle cx="264" cy="288" r="12" fill="rgb(217,149,80)" opacity="0.35"/>
<circle cx="264" cy="288" r="9" fill="rgb(217,149,80)"/>
<circle cx="288" cy="288" r="12" fill="rgb(242,176,34)" opacity="0.35"/>
<circle cx="288" cy="288" r="9" fill="rgb(242,176,34)"/>
<circle cx="312" cy="288" r="12" fill="rgb(255,180,11)" opacity="0.35"/>
<circle cx="312" cy="288" r="9" fill="rgb(255,180,11)"/>
<circle cx="336" cy="288" r="12" fill="rgb(254,162,10)" opacity="0.35"/>
<circle cx="336" cy="288" r="9" fill="rgb(254,162,10)"/>
<circle cx="360" cy="288" r="12" fill="rgb(253,147,9)" opacity="0.35"/>
<circle cx="360" cy="288" r="9" fill="rgb(253,147,9)"/>
<circle cx="384" cy="288" r="12" fill="rgb(253,133,9)" opacity="0.35"/>
<circle cx="384" cy="288" r="9" fill="rgb(253,133,9)"/>
<circle cx="24" cy="312" r="12" fill="rgb(252,104,8)" opacity="0.35"/>
<circle cx="24" cy="312" r="9" fill="rgb(252,104,8)"/>
<circle cx="48" cy="312" r="12" fill="rgb(252,123,8)" opacity="0.35"/>
<circle cx="48" cy="312" r="9" fill="rgb(252,123,8)"/>
<circle cx="72" cy="312" r="12" fill="rgb(253,144,9)" opacity="0.35"/>
<circle cx="72" cy="312" r="9" fill="rgb(253,144,9)"/>
<circle cx="96" cy="312" r="12" fill="rgb(254,168,10)" opacity="0.35"/>
<circle cx="96" cy="312" r="9" fill="rgb(254,168,10)"/>
<circle cx="120" cy="312" r="12" fill="rgb(250,184,21)" opacity="0.35"/>
<circle cx="120" cy="312" r="9" fill="rgb(250,184,21)"/>
<circle cx="144" cy="312" r="12" fill="rgb(217,149,79)" opacity="0.35"/>
<circle cx="144" cy="312" r="9" fill="rgb(217,149,79)"/>
<circle cx="168" cy="312" r="12" fill="rgb(186,115,136)" opacity="0.35"/>
<circle cx="168" cy="312" r="9" fill="rgb(186,115,136)"/>
<circle cx="192" cy="312" r="12" fill="rgb(161,88,182)" opacity="0.35"/>
<circle cx="192" cy="312" r="9" fill="rgb(161,88,182)"/>
<circle cx="216" cy="312" r="12" fill="rgb(152,79,198)" opacity="0.35"/>
<circle cx="216" cy="312" r="9" fill="rgb(152,79,198)"/>
<circle cx="240" cy="312" r="12" fill="rgb(165,93,174)" opacity="0.35"/>
<circle cx="240" cy="312" r="9" fill="rgb(165,93,174)"/>
<circle cx="264" cy="312" r="12" fill="rgb(195,126,119)" opacity="0.35"/>
<circle cx="264" cy="312" r="9" fill="rgb(195,126,119)"/>
<circle cx="288" cy="312" r="12" fill="rgb(231,164,55)" opacity="0.35"/>
<circle cx="288" cy="312" r="9" fill="rgb(231,164,55)"/>
<circle cx="312" cy="312" r="12" fill="rgb(255,183,11)" opacity="0.35"/>
<circle cx="312" cy="312" r="9" fill="rgb(255,183,11)"/>
<circle cx="336" cy="312" r="12" fill="rgb(254,160,10)" opacity="0.35"/>
<circle cx="336" cy="312" r="9" fill="rgb(254,160,10)"/>
<circle cx="360" cy="312" r="12" fill="rgb(253,141,9)" opacity="0.35"/>
<circle cx="360" cy="312" r="9" fill="rgb(253,141,9)"/>
<circle cx="384" cy="312" r="12" fill="rgb(253,125,9)" opacity="0.35"/>
<circle cx="384" cy="312" r="9" fill="rgb(253,125,9)"/>
<circle cx="24" cy="336" r="12" fill="rgb(252,100,8)" opacity="0.35"/>
<circle cx="24" cy="336" r="9" fill="rgb(252,100,8)"/>
<circle cx="48" cy="336" r="12" fill="rgb(252,118,8)" opacity="0.35"/>
<circle cx="48" cy="336" r="9" fill="rgb(252,118,8)"/>
<circle cx="72" cy="336" r="12" fill="rgb(253,139,9)" opacity="0.35"/>
<circle cx="72" cy="336" r="9" fill="rgb(253,139,9)"/>
<circle cx="96" cy="336" r="12" fill="rgb(254,164,10)" opacity="0.35"/>
<circle cx="96" cy="336" r="9" fill="rgb(254,164,10)"/>
<circle cx="120" cy="336" r="12" fill="rgb(251,186,18)" opacity="0.35"/>
<circle cx="120" cy="336" r="9" fill="rgb(251,186,18)"/>
<circle cx="144" cy="336" r="12" fill="rgb(209,140,94)" opacity="0.35"/>
<circle cx="144" cy="336" r="9" fill="rgb(209,140,94)"/>
<circle cx="168" cy="336" r="12" fill="rgb(161,88,182)" opacity="0.35"/>
<circle cx="168" cy="336" r="9" fill="rgb(161,88,182)"/>
<circle cx="192" cy="336" r="12" fill="rgb(122,66,238)" opacity="0.35"/>
<circle cx="192" cy="336" r="9" fill="rgb(122,66,238)"/>
<circle cx="216" cy="336" r="12" fill="rgb(110,79,241)" opacity="0.35"/>
<circle cx="216" cy="336" r="9" fill="rgb(110,79,241)"/>
<circle cx="240" cy="336" r="12" fill="rgb(122,65,238)" opacity="0.35"/>
<circle cx="240" cy="336" r="9" fill="rgb(122,65,238)"/>
<circle cx="264" cy="336" r="12" fill="rgb(164,92,176)" opacity="0.35"/>
<circle cx="264" cy="336" r="9" fill="rgb(164,92,176)"/>
<circle cx="288" cy="336" r="12" fill="rgb(215,147,84)" opacity="0.35"/>
<circle cx="288" cy="336" r="9" fill="rgb(215,147,84)"/>
<circle cx="312" cy="336" r="12" fill="rgb(255,188,11)" opacity="0.35"/>
<circle cx="312" cy="336" r="9" fill="rgb(255,188,11)"/>
<circle cx="336" cy="336" r="12" fill="rgb(254,159,10)" opacity="0.35"/>
<circle cx="336" cy="336" r="9" fill="rgb(254,159,10)"/>
<circle cx="360" cy="336" r="12" fill="rgb(253,137,9)" opacity="0.35"/>
<circle cx="360" cy="336" r="9" fill="rgb(253,137,9)"/>
<circle cx="384" cy="336" r="12" fill="rgb(252,120,8)" opacity="0.35"/>
<circle cx="384" cy="336" r="9" fill="rgb(252,120,8)"/>
<circle cx="24" cy="360" r="12" fill="rgb(251,95,7)" opacity="0.35"/>
<circle cx="24" cy="360" r="9" fill="rgb(251,95,7)"/>
<circle cx="48" cy="360" r="12" fill="rgb(252,112,8)" opacity="0.35"/>
<circle cx="48" cy="360" r="9" fill="rgb(252,112,8)"/>
<circle cx="72" cy="360" r="12" fill="rgb(253,133,9)" opacity="0.35"/>
<circle cx="72" cy="360" r="9" fill="rgb(253,133,9)"/>
<circle cx="96" cy="360" r="12" fill="rgb(254,159,10)" opacity="0.35"/>
<circle cx="96" cy="360" r="9" fill="rgb(254,159,10)"/>
<circle cx="120" cy="360" r="12" fill="rgb(253,187,15)" opacity="0.35"/>
<circle cx="120" cy="360" r="9" fill="rgb(253,187,15)"/>
<circle cx="144" cy="360" r="12" fill="rgb(202,133,107)" opacity="0.35"/>
<circle cx="144" cy="360" r="9" fill="rgb(202,133,107)"/>
<circle cx="168" cy="360" r="12" fill="rgb(140,65,220)" opacity="0.35"/>
<circle cx="168" cy="360" r="9" fill="rgb(140,65,220)"/>
<circle cx="192" cy="360" r="12" fill="rgb(99,90,244)" opacity="0.35"/>
<circle cx="192" cy="360" r="9" fill="rgb(99,90,244)"/>
<circle cx="216" cy="360" r="12" fill="rgb(82,108,249)" opacity="0.35"/>
<circle cx="216" cy="360" r="9" fill="rgb(82,108,249)"/>
<circle cx="240" cy="360" r="12" fill="rgb(99,90,244)" opacity="0.35"/>
<circle cx="240" cy="360" r="9" fill="rgb(99,90,244)"/>
<circle cx="264" cy="360" r="12" fill="rgb(141,67,218)" opacity="0.35"/>
<circle cx="264" cy="360" r="9" fill="rgb(141,67,218)"/>
<circle cx="288" cy="360" r="12" fill="rgb(205,136,102)" opacity="0.35"/>
<circle cx="288" cy="360" r="9" fill="rgb(205,136,102)"/>
<circle cx="312" cy="360" r="12" fill="rgb(255,189,11)" opacity="0.35"/>
<circle cx="312" cy="360" r="9" fill="rgb(255,189,11)"/>
<circle cx="336" cy="360" r="12" fill="rgb(254,157,10)" opacity="0.35"/>
<circle cx="336" cy="360" r="9" fill="rgb(254,157,10)"/>
<circle cx="360" cy="360" r="12" fill="rgb(253,133,9)" opacity="0.35"/>
<circle cx="360" cy="360" r="9" fill="rgb(253,133,9)"/>
<circle cx="384" cy="360" r="12" fill="rgb(252,114,8)" opacity="0.35"/>
<circle cx="384" cy="360" r="9" fill="rgb(252,114,8)"/>
<circle cx="24" cy="384" r="12" fill="rgb(251,90,7)" opacity="0.35"/>
<circle cx="24" cy="384" r="9" fill="rgb(251,90,7)"/>
<circle cx="48" cy="384" r="12" fill="rgb(252,106,8)" opacity="0.35"/>
<circle cx="48" cy="384" r="9" fill="rgb(252,106,8)"/>
<circle cx="72" cy="384" r="12" fill="rgb(253,126,9)" opacity="0.35"/>
<circle cx="72" cy="384" r="9" fill="rgb(253,126,9)"/>
<circle cx="96" cy="384" r="12" fill="rgb(254,152,10)" opacity="0.35"/>
<circle cx="96" cy="384" r="9" fill="rgb(254,152,10)"/>
<circle cx="120" cy="384" r="12" fill="rgb(255,185,11)" opacity="0.35"/>
<circle cx="120" cy="384" r="9" fill="rgb(255,185,11)"/>
<circle cx="144" cy="384" r="12" fill="rgb(209,141,94)" opacity="0.35"/>
<circle cx="144" cy="384" r="9" fill="rgb(209,141,94)"/>
<circle cx="168" cy="384" r="12" fill="rgb(146,72,209)" opacity="0.35"/>
<circle cx="168" cy="384" r="9" fill="rgb(146,72,209)"/>
<circle cx="192" cy="384" r="12" fill="rgb(103,86,243)" opacity="0.35"/>
<circle cx="192" cy="384" r="9" fill="rgb(103,86,243)"/>
<circle cx="216" cy="384" r="12" fill="rgb(86,104,248)" opacity="0.35"/>
<circle cx="216" cy="384" r="9" fill="rgb(86,104,248)"/>
<circle cx="240" cy="384" r="12" fill="rgb(103,86,243)" opacity="0.35"/>
<circle cx="240" cy="384" r="9" fill="rgb(103,86,243)"/>
<circle cx="264" cy="384" r="12" fill="rgb(146,72,208)" opacity="0.35"/>
<circle cx="264" cy="384" r="9" fill="rgb(146,72,208)"/>
<circle cx="288" cy="384" r="12" fill="rgb(211,142,92)" opacity="0.35"/>
<circle cx="288" cy="384" r="9" fill="rgb(211,142,92)"/>
<circle cx="312" cy="384" r="12" fill="rgb(255,184,11)" opacity="0.35"/>
<circle cx="312" cy="384" r="9" fill="rgb(255,184,11)"/>
<circle cx="336" cy="384" r="12" fill="rgb(253,151,9)" opacity="0.35"/>
<circle cx="336" cy="384" r="9" fill="rgb(253,151,9)"/>
<circle cx="360" cy="384" r="12" fill="rgb(253,127,9)" opacity="0.35"/>
<circle cx="360" cy="384" r="9" fill="rgb(253,127,9)"/>
<circle cx="384" cy="384" r="12" fill="rgb(252,108,8)" opacity="0.35"/>
<circle cx="384" cy="384" r="9" fill="rgb(252,108,8)"/>
</svg>
