<svg xmlns="http://www.w3.org/2000/svg" viewBox="0 0 408 408" width="408" height="408" role="img" aria-label="LED preview of the Brightness example graph">
<rect width="408" height="408" rx="10" fill="#05070a"/>
<circle cx="24" cy="24" r="12" fill="rgb(47,57,61)" opacity="0.35"/>
<circle cx="24" cy="24" r="9" fill="rgb(47,57,61)"/>
<circle cx="48" cy="24" r="12" fill="rgb(47,57,61)" opacity="0.35"/>
<circle cx="48" cy="24" r="9" fill="rgb(47,57,61)"/>
<circle cx="72" cy="24" r="12" fill="rgb(47,57,61)" opacity="0.35"/>
<circle cx="72" cy="24" r="9" fill="rgb(47,57,61)"/>
<circle cx="96" cy="24" r="12" fill="rgb(46,57,61)" opacity="0.35"/>
<circle cx="96" cy="24" r="9" fill="rgb(46,57,61)"/>
<circle cx="120" cy="24" r="12" fill="rgb(44,56,60)" opacity="0.35"/>
<circle cx="120" cy="24" r="9" fill="rgb(44,56,60)"/>
<circle cx="144" cy="24" r="12" fill="rgb(42,55,60)" opacity="0.35"/>
<circle cx="144" cy="24" r="9" fill="rgb(42,55,60)"/>
<circle cx="168" cy="24" r="12" fill="rgb(39,54,60)" opacity="0.35"/>
<circle cx="168" cy="24" r="9" fill="rgb(39,54,60)"/>
<circle cx="192" cy="24" r="12" fill="rgb(36,53,59)" opacity="0.35"/>
<circle cx="192" cy="24" r="9" fill="rgb(36,53,59)"/>
<circle cx="216" cy="24" r="12" fill="rgb(32,52,59)" opacity="0.35"/>
<circle cx="216" cy="24" r="9" fill="rgb(32,52,59)"/>
<circle cx="240" cy="24" r="12" fill="rgb(38,54,59)" opacity="0.35"/>
<circle cx="240" cy="24" r="9" fill="rgb(38,54,59)"/>
<circle cx="264" cy="24" r="12" fill="rgb(61,61,61)" opacity="0.35"/>
<circle cx="264" cy="24" r="9" fill="rgb(61,61,61)"/>
<circle cx="288" cy="24" r="12" fill="rgb(35,53,59)" opacity="0.35"/>
<circle cx="288" cy="24" r="9" fill="rgb(35,53,59)"/>
<circle cx="312" cy="24" r="12" fill="rgb(16,45,56)" opacity="0.35"/>
<circle cx="312" cy="24" r="9" fill="rgb(16,45,56)"/>
<circle cx="336" cy="24" r="12" fill="rgb(14,43,55)" opacity="0.35"/>
<circle cx="336" cy="24" r="9" fill="rgb(14,43,55)"/>
<circle cx="360" cy="24" r="12" fill="rgb(11,41,54)" opacity="0.35"/>
<circle cx="360" cy="24" r="9" fill="rgb(11,41,54)"/>
<circle cx="384" cy="24" r="12" fill="rgb(8,39,53)" opacity="0.35"/>
<circle cx="384" cy="24" r="9" fill="rgb(8,39,53)"/>
<circle cx="24" cy="48" r="12" fill="rgb(46,56,60)" opacity="0.35"/>
<circle cx="24" cy="48" r="9" fill="rgb(46,56,60)"/>
<circle cx="48" cy="48" r="12" fill="rgb(46,57,61)" opacity="0.35"/>
<circle cx="48" cy="48" r="9" fill="rgb(46,57,61)"/>
<circle cx="72" cy="48" r="12" fill="rgb(46,57,61)" opacity="0.35"/>
<circle cx="72" cy="48" r="9" fill="rgb(46,57,61)"/>
<circle cx="96" cy="48" r="12" fill="rgb(45,56,60)" opacity="0.35"/>
<circle cx="96" cy="48" r="9" fill="rgb(45,56,60)"/>
<circle cx="120" cy="48" r="12" fill="rgb(44,56,60)" opacity="0.35"/>
<circle cx="120" cy="48" r="9" fill="rgb(44,56,60)"/>
<circle cx="144" cy="48" r="12" fill="rgb(41,55,60)" opacity="0.35"/>
<circle cx="144" cy="48" r="9" fill="rgb(41,55,60)"/>
<circle cx="168" cy="48" r="12" fill="rgb(38,54,60)" opacity="0.35"/>
<circle cx="168" cy="48" r="9" fill="rgb(38,54,60)"/>
<circle cx="192" cy="48" r="12" fill="rgb(35,53,59)" opacity="0.35"/>
<circle cx="192" cy="48" r="9" fill="rgb(35,53,59)"/>
<circle cx="216" cy="48" r="12" fill="rgb(31,52,59)" opacity="0.35"/>
<circle cx="216" cy="48" r="9" fill="rgb(31,52,59)"/>
<circle cx="240" cy="48" r="12" fill="rgb(53,59,61)" opacity="0.35"/>
<circle cx="240" cy="48" r="9" fill="rgb(53,59,61)"/>
<circle cx="264" cy="48" r="12" fill="rgb(57,60,61)" opacity="0.35"/>
<circle cx="264" cy="48" r="9" fill="rgb(57,60,61)"/>
<circle cx="288" cy="48" r="12" fill="rgb(19,48,57)" opacity="0.35"/>
<circle cx="288" cy="48" r="9" fill="rgb(19,48,57)"/>
<circle cx="312" cy="48" r="12" fill="rgb(16,45,56)" opacity="0.35"/>
<circle cx="312" cy="48" r="9" fill="rgb(16,45,56)"/>
<circle cx="336" cy="48" r="12" fill="rgb(13,43,55)" opacity="0.35"/>
<circle cx="336" cy="48" r="9" fill="rgb(13,43,55)"/>
<circle cx="360" cy="48" r="12" fill="rgb(11,41,54)" opacity="0.35"/>
<circle cx="360" cy="48" r="9" fill="rgb(11,41,54)"/>
<circle cx="384" cy="48" r="12" fill="rgb(8,39,53)" opacity="0.35"/>
<circle cx="384" cy="48" r="9" fill="rgb(8,39,53)"/>
<circle cx="24" cy="72" r="12" fill="rgb(45,56,60)" opacity="0.35"/>
<circle cx="24" cy="72" r="9" fill="rgb(45,56,60)"/>
<circle cx="48" cy="72" r="12" fill="rgb(45,56,60)" opacity="0.35"/>
<circle cx="48" cy="72" r="9" fill="rgb(45,56,60)"/>
<circle cx="72" cy="72" r="12" fill="rgb(45,56,60)" opacity="0.35"/>
<circle cx="72" cy="72" r="9" fill="rgb(45,56,60)"/>
<circle cx="96" cy="72" r="12" fill="rgb(44,56,60)" opacity="0.35"/>
<circle cx="96" cy="72" r="9" fill="rgb(44,56,60)"/>
<circle cx="120" cy="72" r="12" fill="rgb(43,56,60)" opacity="0.35"/>
<circle cx="120" cy="72" r="9" fill="rgb(43,56,60)"/>
<circle cx="144" cy="72" r="12" fill="rgb(41,55,60)" opacity="0.35"/>
<circle cx="144" cy="72" r="9" fill="rgb(41,55,60)"/>
<circle cx="168" cy="72" r="12" fill="rgb(38,54,60)" opacity="0.35"/>
<circle cx="168" cy="72" r="9" fill="rgb(38,54,60)"/>
<circle cx="192" cy="72" r="12" fill="rgb(35,53,59)" opacity="0.35"/>
<circle cx="192" cy="72" r="9" fill="rgb(35,53,59)"/>
<circle cx="216" cy="72" r="12" fill="rgb(35,53,59)" opacity="0.35"/>
<circle cx="216" cy="72" r="9" fill="rgb(35,53,59)"/>
<circle cx="240" cy="72" r="12" fill="rgb(61,61,61)" opacity="0.35"/>
<circle cx="240" cy="72" r="9" fill="rgb(61,61,61)"/>
<circle cx="264" cy="72" r="12" fill="rgb(42,55,59)" opacity="0.35"/>
<circle cx="264" cy="72" r="9" fill="rgb(42,55,59)"/>
<circle cx="288" cy="72" r="12" fill="rgb(19,47,57)" opacity="0.35"/>
<circle cx="288" cy="72" r="9" fill="rgb(19,47,57)"/>
<circle cx="312" cy="72" r="12" fill="rgb(16,45,56)" opacity="0.35"/>
<circle cx="312" cy="72" r="9" fill="rgb(16,45,56)"/>
<circle cx="336" cy="72" r="12" fill="rgb(13,43,55)" opacity="0.35"/>
<circle cx="336" cy="72" r="9" fill="rgb(13,43,55)"/>
<circle cx="360" cy="72" r="12" fill="rgb(11,41,53)" opacity="0.35"/>
<circle cx="360" cy="72" r="9" fill="rgb(11,41,53)"/>
<circle cx="384" cy="72" r="12" fill="rgb(8,38,53)" opacity="0.35"/>
<circle cx="384" cy="72" r="9" fill="rgb(8,38,53)"/>
<circle cx="24" cy="96" r="12" fill="rgb(44,56,60)" opacity="0.35"/>
<circle cx="24" cy="96" r="9" fill="rgb(44,56,60)"/>
<circle cx="48" cy="96" r="12" fill="rgb(44,56,60)" opacity="0.35"/>
<circle cx="48" cy="96" r="9" fill="rgb(44,56,60)"/>
<circle cx="72" cy="96" r="12" fill="rgb(44,56,60)" opacity="0.35"/>
<circle cx="72" cy="96" r="9" fill="rgb(44,56,60)"/>
<circle cx="96" cy="96" r="12" fill="rgb(43,56,60)" opacity="0.35"/>
<circle cx="96" cy="96" r="9" fill="rgb(43,56,60)"/>
<circle cx="120" cy="96" r="12" fill="rgb(42,55,60)" opacity="0.35"/>
<circle cx="120" cy="96" r="9" fill="rgb(42,55,60)"/>
<circle cx="144" cy="96" r="12" fill="rgb(40,55,60)" opacity="0.35"/>
<circle cx="144" cy="96" r="9" fill="rgb(40,55,60)"/>
<circle cx="168" cy="96" r="12" fill="rgb(37,54,60)" opacity="0.35"/>
<circle cx="168" cy="96" r="9" fill="rgb(37,54,60)"/>
<circle cx="192" cy="96" r="12" fill="rgb(34,53,59)" opacity="0.35"/>
<circle cx="192" cy="96" r="9" fill="rgb(34,53,59)"/>
<circle cx="216" cy="96" r="12" fill="rgb(51,58,60)" opacity="0.35"/>
<circle cx="216" cy="96" r="9" fill="rgb(51,58,60)"/>
<circle cx="240" cy="96" r="12" fill="rgb(59,60,61)" opacity="0.35"/>
<circle cx="240" cy="96" r="9" fill="rgb(59,60,61)"/>
<circle cx="264" cy="96" r="12" fill="rgb(21,49,58)" opacity="0.35"/>
<circle cx="264" cy="96" r="9" fill="rgb(21,49,58)"/>
<circle cx="288" cy="96" r="12" fill="rgb(18,47,57)" opacity="0.35"/>
<circle cx="288" cy="96" r="9" fill="rgb(18,47,57)"/>
<circle cx="312" cy="96" r="12" fill="rgb(16,45,56)" opacity="0.35"/>
<circle cx="312" cy="96" r="9" fill="rgb(16,45,56)"/>
<circle cx="336" cy="96" r="12" fill="rgb(13,43,55)" opacity="0.35"/>
<circle cx="336" cy="96" r="9" fill="rgb(13,43,55)"/>
<circle cx="360" cy="96" r="12" fill="rgb(11,41,53)" opacity="0.35"/>
<circle cx="360" cy="96" r="9" fill="rgb(11,41,53)"/>
<circle cx="384" cy="96" r="12" fill="rgb(8,38,53)" opacity="0.35"/>
<circle cx="384" cy="96" r="9" fill="rgb(8,38,53)"/>
<circle cx="24" cy="120" r="12" fill="rgb(43,56,60)" opacity="0.35"/>
<circle cx="24" cy="120" r="9" fill="rgb(43,56,60)"/>
<circle cx="48" cy="120" r="12" fill="rgb(43,56,60)" opacity="0.35"/>
<circle cx="48" cy="120" r="9" fill="rgb(43,56,60)"/>
<circle cx="72" cy="120" r="12" fill="rgb(43,56,60)" opacity="0.35"/>
<circle cx="72" cy="120" r="9" fill="rgb(43,56,60)"/>
<circle cx="96" cy="120" r="12" fill="rgb(43,55,60)" opacity="0.35"/>
<circle cx="96" cy="120" r="9" fill="rgb(43,55,60)"/>
<circle cx="120" cy="120" r="12" fill="rgb(41,55,60)" opacity="0.35"/>
<circle cx="120" cy="120" r="9" fill="rgb(41,55,60)"/>
<circle cx="144" cy="120" r="12" fill="rgb(39,54,60)" opacity="0.35"/>
<circle cx="144" cy="120" r="9" fill="rgb(39,54,60)"/>
<circle cx="168" cy="120" r="12" fill="rgb(36,53,59)" opacity="0.35"/>
<circle cx="168" cy="120" r="9" fill="rgb(36,53,59)"/>
<circle cx="192" cy="120" r="12" fill="rgb(33,53,59)" opacity="0.35"/>
<circle cx="192" cy="120" r="9" fill="rgb(33,53,59)"/>
<circle cx="216" cy="120" r="12" fill="rgb(60,61,61)" opacity="0.35"/>
<circle cx="216" cy="120" r="9" fill="rgb(60,61,61)"/>
<circle cx="240" cy="120" r="12" fill="rgb(48,57,60)" opacity="0.35"/>
<circle cx="240" cy="120" r="9" fill="rgb(48,57,60)"/>
<circle cx="264" cy="120" r="12" fill="rgb(21,49,58)" opacity="0.35"/>
<circle cx="264" cy="120" r="9" fill="rgb(21,49,58)"/>
<circle cx="288" cy="120" r="12" fill="rgb(18,47,57)" opacity="0.35"/>
<circle cx="288" cy="120" r="9" fill="rgb(18,47,57)"/>
<circle cx="312" cy="120" r="12" fill="rgb(16,45,56)" opacity="0.35"/>
<circle cx="312" cy="120" r="9" fill="rgb(16,45,56)"/>
<circle cx="336" cy="120" r="12" fill="rgb(13,42,55)" opacity="0.35"/>
<circle cx="336" cy="120" r="9" fill="rgb(13,42,55)"/>
<circle cx="360" cy="120" r="12" fill="rgb(10,40,53)" opacity="0.35"/>
<circle cx="360" cy="120" r="9" fill="rgb(10,40,53)"/>
<circle cx="384" cy="120" r="12" fill="rgb(8,38,52)" opacity="0.35"/>
<circle cx="384" cy="120" r="9" fill="rgb(8,38,52)"/>
<circle cx="24" cy="144" r="12" fill="rgb(42,55,60)" opacity="0.35"/>
<circle cx="24" cy="144" r="9" fill="rgb(42,55,60)"/>
<circle cx="48" cy="144" r="12" fill="rgb(42,55,60)" opacity="0.35"/>
<circle cx="48" cy="144" r="9" fill="rgb(42,55,60)"/>
<circle cx="72" cy="144" r="12" fill="rgb(42,55,60)" opacity="0.35"/>
<circle cx="72" cy="144" r="9" fill="rgb(42,55,60)"/>
<circle cx="96" cy="144" r="12" fill="rgb(42,55,60)" opacity="0.35"/>
<circle cx="96" cy="144" r="9" fill="rgb(42,55,60)"/>
<circle cx="120" cy="144" r="12" fill="rgb(40,55,60)" opacity="0.35"/>
<circle cx="120" cy="144" r="9" fill="rgb(40,55,60)"/>
<circle cx="144" cy="144" r="12" fill="rgb(38,54,60)" opacity="0.35"/>
<circle cx="144" cy="144" r="9" fill="rgb(38,54,60)"/>
<circle cx="168" cy="144" r="12" fill="rgb(36,53,59)" opacity="0.35"/>
<circle cx="168" cy="144" r="9" fill="rgb(36,53,59)"/>
<circle cx="192" cy="144" r="12" fill="rgb(49,57,60)" opacity="0.35"/>
<circle cx="192" cy="144" r="9" fill="rgb(49,57,60)"/>
<circle cx="216" cy="144" r="12" fill="rgb(60,61,61)" opacity="0.35"/>
<circle cx="216" cy="144" r="9" fill="rgb(60,61,61)"/>
<circle cx="240" cy="144" r="12" fill="rgb(27,51,59)" opacity="0.35"/>
<circle cx="240" cy="144" r="9" fill="rgb(27,51,59)"/>
<circle cx="264" cy="144" r="12" fill="rgb(21,49,58)" opacity="0.35"/>
<circle cx="264" cy="144" r="9" fill="rgb(21,49,58)"/>
<circle cx="288" cy="144" r="12" fill="rgb(18,47,57)" opacity="0.35"/>
<circle cx="288" cy="144" r="9" fill="rgb(18,47,57)"/>
<circle cx="312" cy="144" r="12" fill="rgb(15,44,56)" opacity="0.35"/>
<circle cx="312" cy="144" r="9" fill="rgb(15,44,56)"/>
<circle cx="336" cy="144" r="12" fill="rgb(13,42,54)" opacity="0.35"/>
<circle cx="336" cy="144" r="9" fill="rgb(13,42,54)"/>
<circle cx="360" cy="144" r="12" fill="rgb(10,40,53)" opacity="0.35"/>
<circle cx="360" cy="144" r="9" fill="rgb(10,40,53)"/>
<circle cx="384" cy="144" r="12" fill="rgb(8,38,52)" opacity="0.35"/>
<circle cx="384" cy="144" r="9" fill="rgb(8,38,52)"/>
<circle cx="24" cy="168" r="12" fill="rgb(41,55,60)" opacity="0.35"/>
<circle cx="24" cy="168" r="9" fill="rgb(41,55,60)"/>
<circle cx="48" cy="168" r="12" fill="rgb(41,55,60)" opacity="0.35"/>
<circle cx="48" cy="168" r="9" fill="rgb(41,55,60)"/>
<circle cx="72" cy="168" r="12" fill="rgb(41,55,60)" opacity="0.35"/>
<circle cx="72" cy="168" r="9" fill="rgb(41,55,60)"/>
<circle cx="96" cy="168" r="12" fill="rgb(41,55,60)" opacity="0.35"/>
<circle cx="96" cy="168" r="9" fill="rgb(41,55,60)"/>
<circle cx="120" cy="168" r="12" fill="rgb(39,54,60)" opacity="0.35"/>
<circle cx="120" cy="168" r="9" fill="rgb(39,54,60)"/>
<circle cx="144" cy="168" r="12" fill="rgb(37,54,60)" opacity="0.35"/>
<circle cx="144" cy="168" r="9" fill="rgb(37,54,60)"/>
<circle cx="168" cy="168" r="12" fill="rgb(35,53,59)" opacity="0.35"/>
<circle cx="168" cy="168" r="9" fill="rgb(35,53,59)"/>
<circle cx="192" cy="168" r="12" fill="rgb(59,60,61)" opacity="0.35"/>
<circle cx="192" cy="168" r="9" fill="rgb(59,60,61)"/>
<circle cx="216" cy="168" r="12" fill="rgb(52,58,60)" opacity="0.35"/>
<circle cx="216" cy="168" r="9" fill="rgb(52,58,60)"/>
<circle cx="240" cy="168" r="12" fill="rgb(24,50,58)" opacity="0.35"/>
<circle cx="240" cy="168" r="9" fill="rgb(24,50,58)"/>
<circle cx="264" cy="168" r="12" fill="rgb(20,48,58)" opacity="0.35"/>
<circle cx="264" cy="168" r="9" fill="rgb(20,48,58)"/>
<circle cx="288" cy="168" r="12" fill="rgb(18,46,57)" opacity="0.35"/>
<circle cx="288" cy="168" r="9" fill="rgb(18,46,57)"/>
<circle cx="312" cy="168" r="12" fill="rgb(15,44,55)" opacity="0.35"/>
<circle cx="312" cy="168" r="9" fill="rgb(15,44,55)"/>
<circle cx="336" cy="168" r="12" fill="rgb(12,42,54)" opacity="0.35"/>
<circle cx="336" cy="168" r="9" fill="rgb(12,42,54)"/>
<circle cx="360" cy="168" r="12" fill="rgb(10,40,53)" opacity="0.35"/>
<circle cx="360" cy="168" r="9" fill="rgb(10,40,53)"/>
<circle cx="384" cy="168" r="12" fill="rgb(7,38,52)" opacity="0.35"/>
<circle cx="384" cy="168" r="9" fill="rgb(7,38,52)"/>
<circle cx="24" cy="192" r="12" fill="rgb(39,54,60)" opacity="0.35"/>
<circle cx="24" cy="192" r="9" fill="rgb(39,54,60)"/>
<circle cx="48" cy="192" r="12" fill="rgb(40,55,60)" opacity="0.35"/>
<circle cx="48" cy="192" r="9" fill="rgb(40,55,60)"/>
<circle cx="72" cy="192" r="12" fill="rgb(40,55,60)" opacity="0.35"/>
<circle cx="72" cy="192" r="9" fill="rgb(40,55,60)"/>
<circle cx="96" cy="192" r="12" fill="rgb(40,55,60)" opacity="0.35"/>
<circle cx="96" cy="192" r="9" fill="rgb(40,55,60)"/>
<circle cx="120" cy="192" r="12" fill="rgb(38,54,60)" opacity="0.35"/>
<circle cx="120" cy="192" r="9" fill="rgb(38,54,60)"/>
<circle cx="144" cy="192" r="12" fill="rgb(36,53,59)" opacity="0.35"/>
<circle cx="144" cy="192" r="9" fill="rgb(36,53,59)"/>
<circle cx="168" cy="192" r="12" fill="rgb(46,57,60)" opacity="0.35"/>
<circle cx="168" cy="192" r="9" fill="rgb(46,57,60)"/>
<circle cx="192" cy="192" r="12" fill="rgb(61,61,61)" opacity="0.35"/>
<circle cx="192" cy="192" r="9" fill="rgb(61,61,61)"/>
<circle cx="216" cy="192" r="12" fill="rgb(35,53,59)" opacity="0.35"/>
<circle cx="216" cy="192" r="9" fill="rgb(35,53,59)"/>
<circle cx="240" cy="192" r="12" fill="rgb(23,50,58)" opacity="0.35"/>
<circle cx="240" cy="192" r="9" fill="rgb(23,50,58)"/>
<circle cx="264" cy="192" r="12" fill="rgb(20,48,58)" opacity="0.35"/>
<circle cx="264" cy="192" r="9" fill="rgb(20,48,58)"/>
<circle cx="288" cy="192" r="12" fill="rgb(17,46,56)" opacity="0.35"/>
<circle cx="288" cy="192" r="9" fill="rgb(17,46,56)"/>
<circle cx="312" cy="192" r="12" fill="rgb(15,44,55)" opacity="0.35"/>
<circle cx="312" cy="192" r="9" fill="rgb(15,44,55)"/>
<circle cx="336" cy="192" r="12" fill="rgb(12,42,54)" opacity="0.35"/>
<circle cx="336" cy="192" r="9" fill="rgb(12,42,54)"/>
<circle cx="360" cy="192" r="12" fill="rgb(10,40,53)" opacity="0.35"/>
<circle cx="360" cy="192" r="9" fill="rgb(10,40,53)"/>
<circle cx="384" cy="192" r="12" fill="rgb(7,38,52)" opacity="0.35"/>
<circle cx="384" cy="192" r="9" fill="rgb(7,38,52)"/>
<circle cx="24" cy="216" r="12" fill="rgb(38,54,60)" opacity="0.35"/>
<circle cx="24" cy="216" r="9" fill="rgb(38,54,60)"/>
<circle cx="48" cy="216" r="12" fill="rgb(39,54,60)" opacity="0.35"/>
<circle cx="48" cy="216" r="9" fill="rgb(39,54,60)"/>
<circle cx="72" cy="216" r="12" fill="rgb(39,54,60)" opacity="0.35"/>
<circle cx="72" cy="216" r="9" fill="rgb(39,54,60)"/>
<circle cx="96" cy="216" r="12" fill="rgb(38,54,60)" opacity="0.35"/>
<circle cx="96" cy="216" r="9" fill="rgb(38,54,60)"/>
<circle cx="120" cy="216" r="12" fill="rgb(37,54,60)" opacity="0.35"/>
<circle cx="120" cy="216" r="9" fill="rgb(37,54,60)"/>
<circle cx="144" cy="216" r="12" fill="rgb(35,53,59)" opacity="0.35"/>
<circle cx="144" cy="216" r="9" fill="rgb(35,53,59)"/>
<circle cx="168" cy="216" r="12" fill="rgb(57,60,61)" opacity="0.35"/>
<circle cx="168" cy="216" r="9" fill="rgb(57,60,61)"/>
<circle cx="192" cy="216" r="12" fill="rgb(55,59,61)" opacity="0.35"/>
<circle cx="192" cy="216" r="9" fill="rgb(55,59,61)"/>
<circle cx="216" cy="216" r="12" fill="rgb(26,51,59)" opacity="0.35"/>
<circle cx="216" cy="216" r="9" fill="rgb(26,51,59)"/>
<circle cx="240" cy="216" r="12" fill="rgb(22,49,58)" opacity="0.35"/>
<circle cx="240" cy="216" r="9" fill="rgb(22,49,58)"/>
<circle cx="264" cy="216" r="12" fill="rgb(19,48,57)" opacity="0.35"/>
<circle cx="264" cy="216" r="9" fill="rgb(19,48,57)"/>
<circle cx="288" cy="216" r="12" fill="rgb(17,46,56)" opacity="0.35"/>
<circle cx="288" cy="216" r="9" fill="rgb(17,46,56)"/>
<circle cx="312" cy="216" r="12" fill="rgb(14,44,55)" opacity="0.35"/>
<circle cx="312" cy="216" r="9" fill="rgb(14,44,55)"/>
<circle cx="336" cy="216" r="12" fill="rgb(12,42,54)" opacity="0.35"/>
<circle cx="336" cy="216" r="9" fill="rgb(12,42,54)"/>
<circle cx="360" cy="216" r="12" fill="rgb(9,40,53)" opacity="0.35"/>
<circle cx="360" cy="216" r="9" fill="rgb(9,40,53)"/>
<circle cx="384" cy="216" r="12" fill="rgb(7,38,52)" opacity="0.35"/>
<circle cx="384" cy="216" r="9" fill="rgb(7,38,52)"/>
<circle cx="24" cy="240" r="12" fill="rgb(37,54,60)" opacity="0.35"/>
<circle cx="24" cy="240" r="9" fill="rgb(37,54,60)"/>
<circle cx="48" cy="240" r="12" fill="rgb(38,54,60)" opacity="0.35"/>
<circle cx="48" cy="240" r="9" fill="rgb(38,54,60)"/>
<circle cx="72" cy="240" r="12" fill="rgb(38,54,60)" opacity="0.35"/>
<circle cx="72" cy="240" r="9" fill="rgb(38,54,60)"/>
<circle cx="96" cy="240" r="12" fill="rgb(37,54,60)" opacity="0.35"/>
<circle cx="96" cy="240" r="9" fill="rgb(37,54,60)"/>
<circle cx="120" cy="240" r="12" fill="rgb(36,53,59)" opacity="0.35"/>
<circle cx="120" cy="240" r="9" fill="rgb(36,53,59)"/>
<circle cx="144" cy="240" r="12" fill="rgb(42,55,60)" opacity="0.35"/>
<circle cx="144" cy="240" r="9" fill="rgb(42,55,60)"/>
<circle cx="168" cy="240" r="12" fill="rgb(61,61,61)" opacity="0.35"/>
<circle cx="168" cy="240" r="9" fill="rgb(61,61,61)"/>
<circle cx="192" cy="240" r="12" fill="rgb(41,55,60)" opacity="0.35"/>
<circle cx="192" cy="240" r="9" fill="rgb(41,55,60)"/>
<circle cx="216" cy="240" r="12" fill="rgb(25,50,59)" opacity="0.35"/>
<circle cx="216" cy="240" r="9" fill="rgb(25,50,59)"/>
<circle cx="240" cy="240" r="12" fill="rgb(21,49,58)" opacity="0.35"/>
<circle cx="240" cy="240" r="9" fill="rgb(21,49,58)"/>
<circle cx="264" cy="240" r="12" fill="rgb(19,47,57)" opacity="0.35"/>
<circle cx="264" cy="240" r="9" fill="rgb(19,47,57)"/>
<circle cx="288" cy="240" r="12" fill="rgb(17,45,56)" opacity="0.35"/>
<circle cx="288" cy="240" r="9" fill="rgb(17,45,56)"/>
<circle cx="312" cy="240" r="12" fill="rgb(14,43,55)" opacity="0.35"/>
<circle cx="312" cy="240" r="9" fill="rgb(14,43,55)"/>
<circle cx="336" cy="240" r="12" fill="rgb(12,41,54)" opacity="0.35"/>
<circle cx="336" cy="240" r="9" fill="rgb(12,41,54)"/>
<circle cx="360" cy="240" r="12" fill="rgb(9,39,53)" opacity="0.35"/>
<circle cx="360" cy="240" r="9" fill="rgb(9,39,53)"/>
<circle cx="384" cy="240" r="12" fill="rgb(7,37,52)" opacity="0.35"/>
<circle cx="384" cy="240" r="9" fill="rgb(7,37,52)"/>
<circle cx="24" cy="264" r="12" fill="rgb(36,53,59)" opacity="0.35"/>
<circle cx="24" cy="264" r="9" fill="rgb(36,53,59)"/>
<circle cx="48" cy="264" r="12" fill="rgb(36,54,60)" opacity="0.35"/>
<circle cx="48" cy="264" r="9" fill="rgb(36,54,60)"/>
<circle cx="72" cy="264" r="12" fill="rgb(37,54,60)" opacity="0.35"/>
<circle cx="72" cy="264" r="9" fill="rgb(37,54,60)"/>
<circle cx="96" cy="264" r="12" fill="rgb(36,53,59)" opacity="0.35"/>
<circle cx="96" cy="264" r="9" fill="rgb(36,53,59)"/>
<circle cx="120" cy="264" r="12" fill="rgb(35,53,59)" opacity="0.35"/>
<circle cx="120" cy="264" r="9" fill="rgb(35,53,59)"/>
<circle cx="144" cy="264" r="12" fill="rgb(55,59,61)" opacity="0.35"/>
<circle cx="144" cy="264" r="9" fill="rgb(55,59,61)"/>
<circle cx="168" cy="264" r="12" fill="rgb(58,60,61)" opacity="0.35"/>
<circle cx="168" cy="264" r="9" fill="rgb(58,60,61)"/>
<circle cx="192" cy="264" r="12" fill="rgb(28,51,59)" opacity="0.35"/>
<circle cx="192" cy="264" r="9" fill="rgb(28,51,59)"/>
<circle cx="216" cy="264" r="12" fill="rgb(24,50,58)" opacity="0.35"/>
<circle cx="216" cy="264" r="9" fill="rgb(24,50,58)"/>
<circle cx="240" cy="264" r="12" fill="rgb(21,49,58)" opacity="0.35"/>
<circle cx="240" cy="264" r="9" fill="rgb(21,49,58)"/>
<circle cx="264" cy="264" r="12" fill="rgb(18,47,57)" opacity="0.35"/>
<circle cx="264" cy="264" r="9" fill="rgb(18,47,57)"/>
<circle cx="288" cy="264" r="12" fill="rgb(16,45,56)" opacity="0.35"/>
<circle cx="288" cy="264" r="9" fill="rgb(16,45,56)"/>
<circle cx="312" cy="264" r="12" fill="rgb(13,43,55)" opacity="0.35"/>
<circle cx="312" cy="264" r="9" fill="rgb(13,43,55)"/>
<circle cx="336" cy="264" r="12" fill="rgb(11,41,54)" opacity="0.35"/>
<circle cx="336" cy="264" r="9" fill="rgb(11,41,54)"/>
<circle cx="360" cy="264" r="12" fill="rgb(9,39,53)" opacity="0.35"/>
<circle cx="360" cy="264" r="9" fill="rgb(9,39,53)"/>
<circle cx="384" cy="264" r="12" fill="rgb(6,37,52)" opacity="0.35"/>
<circle cx="384" cy="264" r="9" fill="rgb(6,37,52)"/>
<circle cx="24" cy="288" r="12" fill="rgb(34,53,59)" opacity="0.35"/>
<circle cx="24" cy="288" r="9" fill="rgb(34,53,59)"/>
<circle cx="48" cy="288" r="12" fill="rgb(35,53,59)" opacity="0.35"/>
<circle cx="48" cy="288" r="9" fill="rgb(35,53,59)"/>
<circle cx="72" cy="288" r="12" fill="rgb(35,53,59)" opacity="0.35"/>
<circle cx="72" cy="288" r="9" fill="rgb(35,53,59)"/>
<circle cx="96" cy="288" r="12" fill="rgb(35,53,59)" opacity="0.35"/>
<circle cx="96" cy="288" r="9" fill="rgb(35,53,59)"/>
<circle cx="120" cy="288" r="12" fill="rgb(38,54,59)" opacity="0.35"/>
<circle cx="120" cy="288" r="9" fill="rgb(38,54,59)"/>
<circle cx="144" cy="288" r="12" fill="rgb(61,61,61)" opacity="0.35"/>
<circle cx="144" cy="288" r="9" fill="rgb(61,61,61)"/>
<circle cx="168" cy="288" r="12" fill="rgb(45,56,60)" opacity="0.35"/>
<circle cx="168" cy="288" r="9" fill="rgb(45,56,60)"/>
<circle cx="192" cy="288" r="12" fill="rgb(26,51,59)" opacity="0.35"/>
<circle cx="192" cy="288" r="9" fill="rgb(26,51,59)"/>
<circle cx="216" cy="288" r="12" fill="rgb(23,50,58)" opacity="0.35"/>
<circle cx="216" cy="288" r="9" fill="rgb(23,50,58)"/>
<circle cx="240" cy="288" r="12" fill="rgb(20,48,58)" opacity="0.35"/>
<circle cx="240" cy="288" r="9" fill="rgb(20,48,58)"/>
<circle cx="264" cy="288" r="12" fill="rgb(18,47,57)" opacity="0.35"/>
<circle cx="264" cy="288" r="9" fill="rgb(18,47,57)"/>
<circle cx="288" cy="288" r="12" fill="rgb(16,45,56)" opacity="0.35"/>
<circle cx="288" cy="288" r="9" fill="rgb(16,45,56)"/>
<circle cx="312" cy="288" r="12" fill="rgb(13,42,55)" opacity="0.35"/>
<circle cx="312" cy="288" r="9" fill="rgb(13,42,55)"/>
<circle cx="336" cy="288" r="12" fill="rgb(11,41,53)" opacity="0.35"/>
<circle cx="336" cy="288" r="9" fill="rgb(11,41,53)"/>
<circle cx="360" cy="288" r="12" fill="rgb(8,39,53)" opacity="0.35"/>
<circle cx="360" cy="288" r="9" fill="rgb(8,39,53)"/>
<circle cx="384" cy="288" r="12" fill="rgb(6,37,52)" opacity="0.35"/>
<circle cx="384" cy="288" r="9" fill="rgb(6,37,52)"/>
<circle cx="24" cy="312" r="12" fill="rgb(33,53,59)" opacity="0.35"/>
<circle cx="24" cy="312" r="9" fill="rgb(33,53,59)"/>
<circle cx="48" cy="312" r="12" fill="rgb(34,53,59)" opacity="0.35"/>
<circle cx="48" cy="312" r="9" fill="rgb(34,53,59)"/>
<circle cx="72" cy="312" r="12" fill="rgb(34,53,59)" opacity="0.35"/>
<circle cx="72" cy="312" r="9" fill="rgb(34,53,59)"/>
<circle cx="96" cy="312" r="12" fill="rgb(33,53,59)" opacity="0.35"/>
<circle cx="96" cy="312" r="9" fill="rgb(33,53,59)"/>
<circle cx="120" cy="312" r="12" fill="rgb(52,58,60)" opacity="0.35"/>
<circle cx="120" cy="312" r="9" fill="rgb(52,58,60)"/>
<circle cx="144" cy="312" r="12" fill="rgb(59,60,61)" opacity="0.35"/>
<circle cx="144" cy="312" r="9" fill="rgb(59,60,61)"/>
<circle cx="168" cy="312" r="12" fill="rgb(28,51,59)" opacity="0.35"/>
<circle cx="168" cy="312" r="9" fill="rgb(28,51,59)"/>
<circle cx="192" cy="312" r="12" fill="rgb(25,50,59)" opacity="0.35"/>
<circle cx="192" cy="312" r="9" fill="rgb(25,50,59)"/>
<circle cx="216" cy="312" r="12" fill="rgb(22,49,58)" opacity="0.35"/>
<circle cx="216" cy="312" r="9" fill="rgb(22,49,58)"/>
<circle cx="240" cy="312" r="12" fill="rgb(19,48,57)" opacity="0.35"/>
<circle cx="240" cy="312" r="9" fill="rgb(19,48,57)"/>
<circle cx="264" cy="312" r="12" fill="rgb(17,46,56)" opacity="0.35"/>
<circle cx="264" cy="312" r="9" fill="rgb(17,46,56)"/>
<circle cx="288" cy="312" r="12" fill="rgb(15,44,55)" opacity="0.35"/>
<circle cx="288" cy="312" r="9" fill="rgb(15,44,55)"/>
<circle cx="312" cy="312" r="12" fill="rgb(12,42,54)" opacity="0.35"/>
<circle cx="312" cy="312" r="9" fill="rgb(12,42,54)"/>
<circle cx="336" cy="312" r="12" fill="rgb(10,40,53)" opacity="0.35"/>
<circle cx="336" cy="312" r="9" fill="rgb(10,40,53)"/>
<circle cx="360" cy="312" r="12" fill="rgb(8,38,52)" opacity="0.35"/>
<circle cx="360" cy="312" r="9" fill="rgb(8,38,52)"/>
<circle cx="384" cy="312" r="12" fill="rgb(6,36,51)" opacity="0.35"/>
<circle cx="384" cy="312" r="9" fill="rgb(6,36,51)"/>
<circle cx="24" cy="336" r="12" fill="rgb(32,52,59)" opacity="0.35"/>
<circle cx="24" cy="336" r="9" fill="rgb(32,52,59)"/>
<circle cx="48" cy="336" r="12" fill="rgb(32,53,59)" opacity="0.35"/>
<circle cx="48" cy="336" r="9" fill="rgb(32,53,59)"/>
<circle cx="72" cy="336" r="12" fill="rgb(33,53,59)" opacity="0.35"/>
<circle cx="72" cy="336" r="9" fill="rgb(33,53,59)"/>
<circle cx="96" cy="336" r="12" fill="rgb(32,52,59)" opacity="0.35"/>
<circle cx="96" cy="336" r="9" fill="rgb(32,52,59)"/>
<circle cx="120" cy="336" r="12" fill="rgb(60,61,61)" opacity="0.35"/>
<circle cx="120" cy="336" r="9" fill="rgb(60,61,61)"/>
<circle cx="144" cy="336" r="12" fill="rgb(49,58,60)" opacity="0.35"/>
<circle cx="144" cy="336" r="9" fill="rgb(49,58,60)"/>
<circle cx="168" cy="336" r="12" fill="rgb(27,51,59)" opacity="0.35"/>
<circle cx="168" cy="336" r="9" fill="rgb(27,51,59)"/>
<circle cx="192" cy="336" r="12" fill="rgb(24,50,58)" opacity="0.35"/>
<circle cx="192" cy="336" r="9" fill="rgb(24,50,58)"/>
<circle cx="216" cy="336" r="12" fill="rgb(21,49,58)" opacity="0.35"/>
<circle cx="216" cy="336" r="9" fill="rgb(21,49,58)"/>
<circle cx="240" cy="336" r="12" fill="rgb(19,47,57)" opacity="0.35"/>
<circle cx="240" cy="336" r="9" fill="rgb(19,47,57)"/>
<circle cx="264" cy="336" r="12" fill="rgb(17,46,56)" opacity="0.35"/>
<circle cx="264" cy="336" r="9" fill="rgb(17,46,56)"/>
<circle cx="288" cy="336" r="12" fill="rgb(14,44,55)" opacity="0.35"/>
<circle cx="288" cy="336" r="9" fill="rgb(14,44,55)"/>
<circle cx="312" cy="336" r="12" fill="rgb(12,42,54)" opacity="0.35"/>
<circle cx="312" cy="336" r="9" fill="rgb(12,42,54)"/>
<circle cx="336" cy="336" r="12" fill="rgb(10,40,53)" opacity="0.35"/>
<circle cx="336" cy="336" r="9" fill="rgb(10,40,53)"/>
<circle cx="360" cy="336" r="12" fill="rgb(7,38,52)" opacity="0.35"/>
<circle cx="360" cy="336" r="9" fill="rgb(7,38,52)"/>
<circle cx="384" cy="336" r="12" fill="rgb(5,36,51)" opacity="0.35"/>
<circle cx="384" cy="336" r="9" fill="rgb(5,36,51)"/>
<circle cx="24" cy="360" r="12" fill="rgb(30,52,59)" opacity="0.35"/>
<circle cx="24" cy="360" r="9" fill="rgb(30,52,59)"/>
<circle cx="48" cy="360" r="12" fill="rgb(31,52,59)" opacity="0.35"/>
<circle cx="48" cy="360" r="9" fill="rgb(31,52,59)"/>
<circle cx="72" cy="360" r="12" fill="rgb(31,52,59)" opacity="0.35"/>
<circle cx="72" cy="360" r="9" fill="rgb(31,52,59)"/>
<circle cx="96" cy="360" r="12" fill="rgb(48,57,60)" opacity="0.35"/>
<circle cx="96" cy="360" r="9" fill="rgb(48,57,60)"/>
<circle cx="120" cy="360" r="12" fill="rgb(60,61,61)" opacity="0.35"/>
<circle cx="120" cy="360" r="9" fill="rgb(60,61,61)"/>
<circle cx="144" cy="360" r="12" fill="rgb(30,52,59)" opacity="0.35"/>
<circle cx="144" cy="360" r="9" fill="rgb(30,52,59)"/>
<circle cx="168" cy="360" r="12" fill="rgb(26,50,59)" opacity="0.35"/>
<circle cx="168" cy="360" r="9" fill="rgb(26,50,59)"/>
<circle cx="192" cy="360" r="12" fill="rgb(23,50,58)" opacity="0.35"/>
<circle cx="192" cy="360" r="9" fill="rgb(23,50,58)"/>
<circle cx="216" cy="360" r="12" fill="rgb(20,48,58)" opacity="0.35"/>
<circle cx="216" cy="360" r="9" fill="rgb(20,48,58)"/>
<circle cx="240" cy="360" r="12" fill="rgb(18,47,57)" opacity="0.35"/>
<circle cx="240" cy="360" r="9" fill="rgb(18,47,57)"/>
<circle cx="264" cy="360" r="12" fill="rgb(16,45,56)" opacity="0.35"/>
<circle cx="264" cy="360" r="9" fill="rgb(16,45,56)"/>
<circle cx="288" cy="360" r="12" fill="rgb(14,43,55)" opacity="0.35"/>
<circle cx="288" cy="360" r="9" fill="rgb(14,43,55)"/>
<circle cx="312" cy="360" r="12" fill="rgb(12,41,54)" opacity="0.35"/>
<circle cx="312" cy="360" r="9" fill="rgb(12,41,54)"/>
<circle cx="336" cy="360" r="12" fill="rgb(9,39,53)" opacity="0.35"/>
<circle cx="336" cy="360" r="9" fill="rgb(9,39,53)"/>
<circle cx="360" cy="360" r="12" fill="rgb(7,38,52)" opacity="0.35"/>
<circle cx="360" cy="360" r="9" fill="rgb(7,38,52)"/>
<circle cx="384" cy="360" r="12" fill="rgb(5,36,51)" opacity="0.35"/>
<circle cx="384" cy="360" r="9" fill="rgb(5,36,51)"/>
<circle cx="24" cy="384" r="12" fill="rgb(29,51,59)" opacity="0.35"/>
<circle cx="24" cy="384" r="9" fill="rgb(29,51,59)"/>
<circle cx="48" cy="384" r="12" fill="rgb(30,52,59)" opacity="0.35"/>
<circle cx="48" cy="384" r="9" fill="rgb(30,52,59)"/>
<circle cx="72" cy="384" r="12" fill="rgb(30,52,59)" opacity="0.35"/>
<circle cx="72" cy="384" r="9" fill="rgb(30,52,59)"/>
<circle cx="96" cy="384" r="12" fill="rgb(59,60,61)" opacity="0.35"/>
<circle cx="96" cy="384" r="9" fill="rgb(59,60,61)"/>
<circle cx="120" cy="384" r="12" fill="rgb(52,58,60)" opacity="0.35"/>
<circle cx="120" cy="384" r="9" fill="rgb(52,58,60)"/>
<circle cx="144" cy="384" r="12" fill="rgb(27,51,59)" opacity="0.35"/>
<circle cx="144" cy="384" r="9" fill="rgb(27,51,59)"/>
<circle cx="168" cy="384" r="12" fill="rgb(24,50,58)" opacity="0.35"/>
<circle cx="168" cy="384" r="9" fill="rgb(24,50,58)"/>
<circle cx="192" cy="384" r="12" fill="rgb(22,49,58)" opacity="0.35"/>
<circle cx="192" cy="384" r="9" fill="rgb(22,49,58)"/>
<circle cx="216" cy="384" r="12" fill="rgb(19,48,57)" opacity="0.35"/>
<circle cx="216" cy="384" r="9" fill="rgb(19,48,57)"/>
<circle cx="240" cy="384" r="12" fill="rgb(18,46,57)" opacity="0.35"/>
<circle cx="240" cy="384" r="9" fill="rgb(18,46,57)"/>
<circle cx="264" cy="384" r="12" fill="rgb(15,44,56)" opacity="0.35"/>
<circle cx="264" cy="384" r="9" fill="rgb(15,44,56)"/>
<circle cx="288" cy="384" r="12" fill="rgb(13,43,55)" opacity="0.35"/>
<circle cx="288" cy="384" r="9" fill="rgb(13,43,55)"/>
<circle cx="312" cy="384" r="12" fill="rgb(11,41,54)" opacity="0.35"/>
<circle cx="312" cy="384" r="9" fill="rgb(11,41,54)"/>
<circle cx="336" cy="384" r="12" fill="rgb(9,39,53)" opacity="0.35"/>
<circle cx="336" cy="384" r="9" fill="rgb(9,39,53)"/>
<circle cx="360" cy="384" r="12" fill="rgb(6,37,52)" opacity="0.35"/>
<circle cx="360" cy="384" r="9" fill="rgb(6,37,52)"/>
<circle cx="384" cy="384" r="12" fill="rgb(4,36,51)" opacity="0.35"/>
<circle cx="384" cy="384" r="9" fill="rgb(4,36,51)"/>
</svg>
