<svg xmlns="http://www.w3.org/2000/svg" viewBox="0 0 408 408" width="408" height="408" role="img" aria-label="LED preview of the CHSV example graph">
<rect width="408" height="408" rx="10" fill="#05070a"/>
<circle cx="24" cy="24" r="12" fill="rgb(60,255,0)" opacity="0.35"/>
<circle cx="24" cy="24" r="9" fill="rgb(60,255,0)"/>
<circle cx="48" cy="24" r="12" fill="rgb(69,252,17)" opacity="0.35"/>
<circle cx="48" cy="24" r="9" fill="rgb(69,252,17)"/>
<circle cx="72" cy="24" r="12" fill="rgb(77,249,34)" opacity="0.35"/>
<circle cx="72" cy="24" r="9" fill="rgb(77,249,34)"/>
<circle cx="96" cy="24" r="12" fill="rgb(86,246,51)" opacity="0.35"/>
<circle cx="96" cy="24" r="9" fill="rgb(86,246,51)"/>
<circle cx="120" cy="24" r="12" fill="rgb(95,243,68)" opacity="0.35"/>
<circle cx="120" cy="24" r="9" fill="rgb(95,243,68)"/>
<circle cx="144" cy="24" r="12" fill="rgb(104,240,85)" opacity="0.35"/>
<circle cx="144" cy="24" r="9" fill="rgb(104,240,85)"/>
<circle cx="168" cy="24" r="12" fill="rgb(112,237,102)" opacity="0.35"/>
<circle cx="168" cy="24" r="9" fill="rgb(112,237,102)"/>
<circle cx="192" cy="24" r="12" fill="rgb(121,234,119)" opacity="0.35"/>
<circle cx="192" cy="24" r="9" fill="rgb(121,234,119)"/>
<circle cx="216" cy="24" r="12" fill="rgb(130,232,136)" opacity="0.35"/>
<circle cx="216" cy="24" r="9" fill="rgb(130,232,136)"/>
<circle cx="240" cy="24" r="12" fill="rgb(139,229,153)" opacity="0.35"/>
<circle cx="240" cy="24" r="9" fill="rgb(139,229,153)"/>
<circle cx="264" cy="24" r="12" fill="rgb(147,226,170)" opacity="0.35"/>
<circle cx="264" cy="24" r="9" fill="rgb(147,226,170)"/>
<circle cx="288" cy="24" r="12" fill="rgb(156,223,187)" opacity="0.35"/>
<circle cx="288" cy="24" r="9" fill="rgb(156,223,187)"/>
<circle cx="312" cy="24" r="12" fill="rgb(165,220,204)" opacity="0.35"/>
<circle cx="312" cy="24" r="9" fill="rgb(165,220,204)"/>
<circle cx="336" cy="24" r="12" fill="rgb(174,217,221)" opacity="0.35"/>
<circle cx="336" cy="24" r="9" fill="rgb(174,217,221)"/>
<circle cx="360" cy="24" r="12" fill="rgb(182,214,238)" opacity="0.35"/>
<circle cx="360" cy="24" r="9" fill="rgb(182,214,238)"/>
<circle cx="384" cy="24" r="12" fill="rgb(191,211,255)" opacity="0.35"/>
<circle cx="384" cy="24" r="9" fill="rgb(191,211,255)"/>
<circle cx="24" cy="48" r="12" fill="rgb(60,255,0)" opacity="0.35"/>
<circle cx="24" cy="48" r="9" fill="rgb(60,255,0)"/>
<circle cx="48" cy="48" r="12" fill="rgb(69,252,17)" opacity="0.35"/>
<circle cx="48" cy="48" r="9" fill="rgb(69,252,17)"/>
<circle cx="72" cy="48" r="12" fill="rgb(77,249,34)" opacity="0.35"/>
<circle cx="72" cy="48" r="9" fill="rgb(77,249,34)"/>
<circle cx="96" cy="48" r="12" fill="rgb(86,246,51)" opacity="0.35"/>
<circle cx="96" cy="48" r="9" fill="rgb(86,246,51)"/>
<circle cx="120" cy="48" r="12" fill="rgb(95,243,68)" opacity="0.35"/>
<circle cx="120" cy="48" r="9" fill="rgb(95,243,68)"/>
<circle cx="144" cy="48" r="12" fill="rgb(104,240,85)" opacity="0.35"/>
<circle cx="144" cy="48" r="9" fill="rgb(104,240,85)"/>
<circle cx="168" cy="48" r="12" fill="rgb(112,237,102)" opacity="0.35"/>
<circle cx="168" cy="48" r="9" fill="rgb(112,237,102)"/>
<circle cx="192" cy="48" r="12" fill="rgb(121,234,119)" opacity="0.35"/>
<circle cx="192" cy="48" r="9" fill="rgb(121,234,119)"/>
<circle cx="216" cy="48" r="12" fill="rgb(130,232,136)" opacity="0.35"/>
<circle cx="216" cy="48" r="9" fill="rgb(130,232,136)"/>
<circle cx="240" cy="48" r="12" fill="rgb(139,229,153)" opacity="0.35"/>
<circle cx="240" cy="48" r="9" fill="rgb(139,229,153)"/>
<circle cx="264" cy="48" r="12" fill="rgb(147,226,170)" opacity="0.35"/>
<circle cx="264" cy="48" r="9" fill="rgb(147,226,170)"/>
<circle cx="288" cy="48" r="12" fill="rgb(156,223,187)" opacity="0.35"/>
<circle cx="288" cy="48" r="9" fill="rgb(156,223,187)"/>
<circle cx="312" cy="48" r="12" fill="rgb(165,220,204)" opacity="0.35"/>
<circle cx="312" cy="48" r="9" fill="rgb(165,220,204)"/>
<circle cx="336" cy="48" r="12" fill="rgb(174,217,221)" opacity="0.35"/>
<circle cx="336" cy="48" r="9" fill="rgb(174,217,221)"/>
<circle cx="360" cy="48" r="12" fill="rgb(182,214,238)" opacity="0.35"/>
<circle cx="360" cy="48" r="9" fill="rgb(182,214,238)"/>
<circle cx="384" cy="48" r="12" fill="rgb(191,211,255)" opacity="0.35"/>
<circle cx="384" cy="48" r="9" fill="rgb(191,211,255)"/>
<circle cx="24" cy="72" r="12" fill="rgb(60,255,0)" opacity="0.35"/>
<circle cx="24" cy="72" r="9" fill="rgb(60,255,0)"/>
<circle cx="48" cy="72" r="12" fill="rgb(69,252,17)" opacity="0.35"/>
<circle cx="48" cy="72" r="9" fill="rgb(69,252,17)"/>
<circle cx="72" cy="72" r="12" fill="rgb(77,249,34)" opacity="0.35"/>
<circle cx="72" cy="72" r="9" fill="rgb(77,249,34)"/>
<circle cx="96" cy="72" r="12" fill="rgb(86,246,51)" opacity="0.35"/>
<circle cx="96" cy="72" r="9" fill="rgb(86,246,51)"/>
<circle cx="120" cy="72" r="12" fill="rgb(95,243,68)" opacity="0.35"/>
<circle cx="120" cy="72" r="9" fill="rgb(95,243,68)"/>
<circle cx="144" cy="72" r="12" fill="rgb(104,240,85)" opacity="0.35"/>
<circle cx="144" cy="72" r="9" fill="rgb(104,240,85)"/>
<circle cx="168" cy="72" r="12" fill="rgb(112,237,102)" opacity="0.35"/>
<circle cx="168" cy="72" r="9" fill="rgb(112,237,102)"/>
<circle cx="192" cy="72" r="12" fill="rgb(121,234,119)" opacity="0.35"/>
<circle cx="192" cy="72" r="9" fill="rgb(121,234,119)"/>
<circle cx="216" cy="72" r="12" fill="rgb(130,232,136)" opacity="0.35"/>
<circle cx="216" cy="72" r="9" fill="rgb(130,232,136)"/>
<circle cx="240" cy="72" r="12" fill="rgb(139,229,153)" opacity="0.35"/>
<circle cx="240" cy="72" r="9" fill="rgb(139,229,153)"/>
<circle cx="264" cy="72" r="12" fill="rgb(147,226,170)" opacity="0.35"/>
<circle cx="264" cy="72" r="9" fill="rgb(147,226,170)"/>
<circle cx="288" cy="72" r="12" fill="rgb(156,223,187)" opacity="0.35"/>
<circle cx="288" cy="72" r="9" fill="rgb(156,223,187)"/>
<circle cx="312" cy="72" r="12" fill="rgb(165,220,204)" opacity="0.35"/>
<circle cx="312" cy="72" r="9" fill="rgb(165,220,204)"/>
<circle cx="336" cy="72" r="12" fill="rgb(174,217,221)" opacity="0.35"/>
<circle cx="336" cy="72" r="9" fill="rgb(174,217,221)"/>
<circle cx="360" cy="72" r="12" fill="rgb(182,214,238)" opacity="0.35"/>
<circle cx="360" cy="72" r="9" fill="rgb(182,214,238)"/>
<circle cx="384" cy="72" r="12" fill="rgb(191,211,255)" opacity="0.35"/>
<circle cx="384" cy="72" r="9" fill="rgb(191,211,255)"/>
<circle cx="24" cy="96" r="12" fill="rgb(60,255,0)" opacity="0.35"/>
<circle cx="24" cy="96" r="9" fill="rgb(60,255,0)"/>
<circle cx="48" cy="96" r="12" fill="rgb(69,252,17)" opacity="0.35"/>
<circle cx="48" cy="96" r="9" fill="rgb(69,252,17)"/>
<circle cx="72" cy="96" r="12" fill="rgb(77,249,34)" opacity="0.35"/>
<circle cx="72" cy="96" r="9" fill="rgb(77,249,34)"/>
<circle cx="96" cy="96" r="12" fill="rgb(86,246,51)" opacity="0.35"/>
<circle cx="96" cy="96" r="9" fill="rgb(86,246,51)"/>
<circle cx="120" cy="96" r="12" fill="rgb(95,243,68)" opacity="0.35"/>
<circle cx="120" cy="96" r="9" fill="rgb(95,243,68)"/>
<circle cx="144" cy="96" r="12" fill="rgb(104,240,85)" opacity="0.35"/>
<circle cx="144" cy="96" r="9" fill="rgb(104,240,85)"/>
<circle cx="168" cy="96" r="12" fill="rgb(112,237,102)" opacity="0.35"/>
<circle cx="168" cy="96" r="9" fill="rgb(112,237,102)"/>
<circle cx="192" cy="96" r="12" fill="rgb(121,234,119)" opacity="0.35"/>
<circle cx="192" cy="96" r="9" fill="rgb(121,234,119)"/>
<circle cx="216" cy="96" r="12" fill="rgb(130,232,136)" opacity="0.35"/>
<circle cx="216" cy="96" r="9" fill="rgb(130,232,136)"/>
<circle cx="240" cy="96" r="12" fill="rgb(139,229,153)" opacity="0.35"/>
<circle cx="240" cy="96" r="9" fill="rgb(139,229,153)"/>
<circle cx="264" cy="96" r="12" fill="rgb(147,226,170)" opacity="0.35"/>
<circle cx="264" cy="96" r="9" fill="rgb(147,226,170)"/>
<circle cx="288" cy="96" r="12" fill="rgb(156,223,187)" opacity="0.35"/>
<circle cx="288" cy="96" r="9" fill="rgb(156,223,187)"/>
<circle cx="312" cy="96" r="12" fill="rgb(165,220,204)" opacity="0.35"/>
<circle cx="312" cy="96" r="9" fill="rgb(165,220,204)"/>
<circle cx="336" cy="96" r="12" fill="rgb(174,217,221)" opacity="0.35"/>
<circle cx="336" cy="96" r="9" fill="rgb(174,217,221)"/>
<circle cx="360" cy="96" r="12" fill="rgb(182,214,238)" opacity="0.35"/>
<circle cx="360" cy="96" r="9" fill="rgb(182,214,238)"/>
<circle cx="384" cy="96" r="12" fill="rgb(191,211,255)" opacity="0.35"/>
<circle cx="384" cy="96" r="9" fill="rgb(191,211,255)"/>
<circle cx="24" cy="120" r="12" fill="rgb(60,255,0)" opacity="0.35"/>
<circle cx="24" cy="120" r="9" fill="rgb(60,255,0)"/>
<circle cx="48" cy="120" r="12" fill="rgb(69,252,17)" opacity="0.35"/>
<circle cx="48" cy="120" r="9" fill="rgb(69,252,17)"/>
<circle cx="72" cy="120" r="12" fill="rgb(77,249,34)" opacity="0.35"/>
<circle cx="72" cy="120" r="9" fill="rgb(77,249,34)"/>
<circle cx="96" cy="120" r="12" fill="rgb(86,246,51)" opacity="0.35"/>
<circle cx="96" cy="120" r="9" fill="rgb(86,246,51)"/>
<circle cx="120" cy="120" r="12" fill="rgb(95,243,68)" opacity="0.35"/>
<circle cx="120" cy="120" r="9" fill="rgb(95,243,68)"/>
<circle cx="144" cy="120" r="12" fill="rgb(104,240,85)" opacity="0.35"/>
<circle cx="144" cy="120" r="9" fill="rgb(104,240,85)"/>
<circle cx="168" cy="120" r="12" fill="rgb(112,237,102)" opacity="0.35"/>
<circle cx="168" cy="120" r="9" fill="rgb(112,237,102)"/>
<circle cx="192" cy="120" r="12" fill="rgb(121,234,119)" opacity="0.35"/>
<circle cx="192" cy="120" r="9" fill="rgb(121,234,119)"/>
<circle cx="216" cy="120" r="12" fill="rgb(130,232,136)" opacity="0.35"/>
<circle cx="216" cy="120" r="9" fill="rgb(130,232,136)"/>
<circle cx="240" cy="120" r="12" fill="rgb(139,229,153)" opacity="0.35"/>
<circle cx="240" cy="120" r="9" fill="rgb(139,229,153)"/>
<circle cx="264" cy="120" r="12" fill="rgb(147,226,170)" opacity="0.35"/>
<circle cx="264" cy="120" r="9" fill="rgb(147,226,170)"/>
<circle cx="288" cy="120" r="12" fill="rgb(156,223,187)" opacity="0.35"/>
<circle cx="288" cy="120" r="9" fill="rgb(156,223,187)"/>
<circle cx="312" cy="120" r="12" fill="rgb(165,220,204)" opacity="0.35"/>
<circle cx="312" cy="120" r="9" fill="rgb(165,220,204)"/>
<circle cx="336" cy="120" r="12" fill="rgb(174,217,221)" opacity="0.35"/>
<circle cx="336" cy="120" r="9" fill="rgb(174,217,221)"/>
<circle cx="360" cy="120" r="12" fill="rgb(182,214,238)" opacity="0.35"/>
<circle cx="360" cy="120" r="9" fill="rgb(182,214,238)"/>
<circle cx="384" cy="120" r="12" fill="rgb(191,211,255)" opacity="0.35"/>
<circle cx="384" cy="120" r="9" fill="rgb(191,211,255)"/>
<circle cx="24" cy="144" r="12" fill="rgb(60,255,0)" opacity="0.35"/>
<circle cx="24" cy="144" r="9" fill="rgb(60,255,0)"/>
<circle cx="48" cy="144" r="12" fill="rgb(69,252,17)" opacity="0.35"/>
<circle cx="48" cy="144" r="9" fill="rgb(69,252,17)"/>
<circle cx="72" cy="144" r="12" fill="rgb(77,249,34)" opacity="0.35"/>
<circle cx="72" cy="144" r="9" fill="rgb(77,249,34)"/>
<circle cx="96" cy="144" r="12" fill="rgb(86,246,51)" opacity="0.35"/>
<circle cx="96" cy="144" r="9" fill="rgb(86,246,51)"/>
<circle cx="120" cy="144" r="12" fill="rgb(95,243,68)" opacity="0.35"/>
<circle cx="120" cy="144" r="9" fill="rgb(95,243,68)"/>
<circle cx="144" cy="144" r="12" fill="rgb(104,240,85)" opacity="0.35"/>
<circle cx="144" cy="144" r="9" fill="rgb(104,240,85)"/>
<circle cx="168" cy="144" r="12" fill="rgb(112,237,102)" opacity="0.35"/>
<circle cx="168" cy="144" r="9" fill="rgb(112,237,102)"/>
<circle cx="192" cy="144" r="12" fill="rgb(121,234,119)" opacity="0.35"/>
<circle cx="192" cy="144" r="9" fill="rgb(121,234,119)"/>
<circle cx="216" cy="144" r="12" fill="rgb(130,232,136)" opacity="0.35"/>
<circle cx="216" cy="144" r="9" fill="rgb(130,232,136)"/>
<circle cx="240" cy="144" r="12" fill="rgb(139,229,153)" opacity="0.35"/>
<circle cx="240" cy="144" r="9" fill="rgb(139,229,153)"/>
<circle cx="264" cy="144" r="12" fill="rgb(147,226,170)" opacity="0.35"/>
<circle cx="264" cy="144" r="9" fill="rgb(147,226,170)"/>
<circle cx="288" cy="144" r="12" fill="rgb(156,223,187)" opacity="0.35"/>
<circle cx="288" cy="144" r="9" fill="rgb(156,223,187)"/>
<circle cx="312" cy="144" r="12" fill="rgb(165,220,204)" opacity="0.35"/>
<circle cx="312" cy="144" r="9" fill="rgb(165,220,204)"/>
<circle cx="336" cy="144" r="12" fill="rgb(174,217,221)" opacity="0.35"/>
<circle cx="336" cy="144" r="9" fill="rgb(174,217,221)"/>
<circle cx="360" cy="144" r="12" fill="rgb(182,214,238)" opacity="0.35"/>
<circle cx="360" cy="144" r="9" fill="rgb(182,214,238)"/>
<circle cx="384" cy="144" r="12" fill="rgb(191,211,255)" opacity="0.35"/>
<circle cx="384" cy="144" r="9" fill="rgb(191,211,255)"/>
<circle cx="24" cy="168" r="12" fill="rgb(60,255,0)" opacity="0.35"/>
<circle cx="24" cy="168" r="9" fill="rgb(60,255,0)"/>
<circle cx="48" cy="168" r="12" fill="rgb(69,252,17)" opacity="0.35"/>
<circle cx="48" cy="168" r="9" fill="rgb(69,252,17)"/>
<circle cx="72" cy="168" r="12" fill="rgb(77,249,34)" opacity="0.35"/>
<circle cx="72" cy="168" r="9" fill="rgb(77,249,34)"/>
<circle cx="96" cy="168" r="12" fill="rgb(86,246,51)" opacity="0.35"/>
<circle cx="96" cy="168" r="9" fill="rgb(86,246,51)"/>
<circle cx="120" cy="168" r="12" fill="rgb(95,243,68)" opacity="0.35"/>
<circle cx="120" cy="168" r="9" fill="rgb(95,243,68)"/>
<circle cx="144" cy="168" r="12" fill="rgb(104,240,85)" opacity="0.35"/>
<circle cx="144" cy="168" r="9" fill="rgb(104,240,85)"/>
<circle cx="168" cy="168" r="12" fill="rgb(112,237,102)" opacity="0.35"/>
<circle cx="168" cy="168" r="9" fill="rgb(112,237,102)"/>
<circle cx="192" cy="168" r="12" fill="rgb(121,234,119)" opacity="0.35"/>
<circle cx="192" cy="168" r="9" fill="rgb(121,234,119)"/>
<circle cx="216" cy="168" r="12" fill="rgb(130,232,136)" opacity="0.35"/>
<circle cx="216" cy="168" r="9" fill="rgb(130,232,136)"/>
<circle cx="240" cy="168" r="12" fill="rgb(139,229,153)" opacity="0.35"/>
<circle cx="240" cy="168" r="9" fill="rgb(139,229,153)"/>
<circle cx="264" cy="168" r="12" fill="rgb(147,226,170)" opacity="0.35"/>
<circle cx="264" cy="168" r="9" fill="rgb(147,226,170)"/>
<circle cx="288" cy="168" r="12" fill="rgb(156,223,187)" opacity="0.35"/>
<circle cx="288" cy="168" r="9" fill="rgb(156,223,187)"/>
<circle cx="312" cy="168" r="12" fill="rgb(165,220,204)" opacity="0.35"/>
<circle cx="312" cy="168" r="9" fill="rgb(165,220,204)"/>
<circle cx="336" cy="168" r="12" fill="rgb(174,217,221)" opacity="0.35"/>
<circle cx="336" cy="168" r="9" fill="rgb(174,217,221)"/>
<circle cx="360" cy="168" r="12" fill="rgb(182,214,238)" opacity="0.35"/>
<circle cx="360" cy="168" r="9" fill="rgb(182,214,238)"/>
<circle cx="384" cy="168" r="12" fill="rgb(191,211,255)" opacity="0.35"/>
<circle cx="384" cy="168" r="9" fill="rgb(191,211,255)"/>
<circle cx="24" cy="192" r="12" fill="rgb(60,255,0)" opacity="0.35"/>
<circle cx="24" cy="192" r="9" fill="rgb(60,255,0)"/>
<circle cx="48" cy="192" r="12" fill="rgb(69,252,17)" opacity="0.35"/>
<circle cx="48" cy="192" r="9" fill="rgb(69,252,17)"/>
<circle cx="72" cy="192" r="12" fill="rgb(77,249,34)" opacity="0.35"/>
<circle cx="72" cy="192" r="9" fill="rgb(77,249,34)"/>
<circle cx="96" cy="192" r="12" fill="rgb(86,246,51)" opacity="0.35"/>
<circle cx="96" cy="192" r="9" fill="rgb(86,246,51)"/>
<circle cx="120" cy="192" r="12" fill="rgb(95,243,68)" opacity="0.35"/>
<circle cx="120" cy="192" r="9" fill="rgb(95,243,68)"/>
<circle cx="144" cy="192" r="12" fill="rgb(104,240,85)" opacity="0.35"/>
<circle cx="144" cy="192" r="9" fill="rgb(104,240,85)"/>
<circle cx="168" cy="192" r="12" fill="rgb(112,237,102)" opacity="0.35"/>
<circle cx="168" cy="192" r="9" fill="rgb(112,237,102)"/>
<circle cx="192" cy="192" r="12" fill="rgb(121,234,119)" opacity="0.35"/>
<circle cx="192" cy="192" r="9" fill="rgb(121,234,119)"/>
<circle cx="216" cy="192" r="12" fill="rgb(130,232,136)" opacity="0.35"/>
<circle cx="216" cy="192" r="9" fill="rgb(130,232,136)"/>
<circle cx="240" cy="192" r="12" fill="rgb(139,229,153)" opacity="0.35"/>
<circle cx="240" cy="192" r="9" fill="rgb(139,229,153)"/>
<circle cx="264" cy="192" r="12" fill="rgb(147,226,170)" opacity="0.35"/>
<circle cx="264" cy="192" r="9" fill="rgb(147,226,170)"/>
<circle cx="288" cy="192" r="12" fill="rgb(156,223,187)" opacity="0.35"/>
<circle cx="288" cy="192" r="9" fill="rgb(156,223,187)"/>
<circle cx="312" cy="192" r="12" fill="rgb(165,220,204)" opacity="0.35"/>
<circle cx="312" cy="192" r="9" fill="rgb(165,220,204)"/>
<circle cx="336" cy="192" r="12" fill="rgb(174,217,221)" opacity="0.35"/>
<circle cx="336" cy="192" r="9" fill="rgb(174,217,221)"/>
<circle cx="360" cy="192" r="12" fill="rgb(182,214,238)" opacity="0.35"/>
<circle cx="360" cy="192" r="9" fill="rgb(182,214,238)"/>
<circle cx="384" cy="192" r="12" fill="rgb(191,211,255)" opacity="0.35"/>
<circle cx="384" cy="192" r="9" fill="rgb(191,211,255)"/>
<circle cx="24" cy="216" r="12" fill="rgb(60,255,0)" opacity="0.35"/>
<circle cx="24" cy="216" r="9" fill="rgb(60,255,0)"/>
<circle cx="48" cy="216" r="12" fill="rgb(69,252,17)" opacity="0.35"/>
<circle cx="48" cy="216" r="9" fill="rgb(69,252,17)"/>
<circle cx="72" cy="216" r="12" fill="rgb(77,249,34)" opacity="0.35"/>
<circle cx="72" cy="216" r="9" fill="rgb(77,249,34)"/>
<circle cx="96" cy="216" r="12" fill="rgb(86,246,51)" opacity="0.35"/>
<circle cx="96" cy="216" r="9" fill="rgb(86,246,51)"/>
<circle cx="120" cy="216" r="12" fill="rgb(95,243,68)" opacity="0.35"/>
<circle cx="120" cy="216" r="9" fill="rgb(95,243,68)"/>
<circle cx="144" cy="216" r="12" fill="rgb(104,240,85)" opacity="0.35"/>
<circle cx="144" cy="216" r="9" fill="rgb(104,240,85)"/>
<circle cx="168" cy="216" r="12" fill="rgb(112,237,102)" opacity="0.35"/>
<circle cx="168" cy="216" r="9" fill="rgb(112,237,102)"/>
<circle cx="192" cy="216" r="12" fill="rgb(121,234,119)" opacity="0.35"/>
<circle cx="192" cy="216" r="9" fill="rgb(121,234,119)"/>
<circle cx="216" cy="216" r="12" fill="rgb(130,232,136)" opacity="0.35"/>
<circle cx="216" cy="216" r="9" fill="rgb(130,232,136)"/>
<circle cx="240" cy="216" r="12" fill="rgb(139,229,153)" opacity="0.35"/>
<circle cx="240" cy="216" r="9" fill="rgb(139,229,153)"/>
<circle cx="264" cy="216" r="12" fill="rgb(147,226,170)" opacity="0.35"/>
<circle cx="264" cy="216" r="9" fill="rgb(147,226,170)"/>
<circle cx="288" cy="216" r="12" fill="rgb(156,223,187)" opacity="0.35"/>
<circle cx="288" cy="216" r="9" fill="rgb(156,223,187)"/>
<circle cx="312" cy="216" r="12" fill="rgb(165,220,204)" opacity="0.35"/>
<circle cx="312" cy="216" r="9" fill="rgb(165,220,204)"/>
<circle cx="336" cy="216" r="12" fill="rgb(174,217,221)" opacity="0.35"/>
<circle cx="336" cy="216" r="9" fill="rgb(174,217,221)"/>
<circle cx="360" cy="216" r="12" fill="rgb(182,214,238)" opacity="0.35"/>
<circle cx="360" cy="216" r="9" fill="rgb(182,214,238)"/>
<circle cx="384" cy="216" r="12" fill="rgb(191,211,255)" opacity="0.35"/>
<circle cx="384" cy="216" r="9" fill="rgb(191,211,255)"/>
<circle cx="24" cy="240" r="12" fill="rgb(60,255,0)" opacity="0.35"/>
<circle cx="24" cy="240" r="9" fill="rgb(60,255,0)"/>
<circle cx="48" cy="240" r="12" fill="rgb(69,252,17)" opacity="0.35"/>
<circle cx="48" cy="240" r="9" fill="rgb(69,252,17)"/>
<circle cx="72" cy="240" r="12" fill="rgb(77,249,34)" opacity="0.35"/>
<circle cx="72" cy="240" r="9" fill="rgb(77,249,34)"/>
<circle cx="96" cy="240" r="12" fill="rgb(86,246,51)" opacity="0.35"/>
<circle cx="96" cy="240" r="9" fill="rgb(86,246,51)"/>
<circle cx="120" cy="240" r="12" fill="rgb(95,243,68)" opacity="0.35"/>
<circle cx="120" cy="240" r="9" fill="rgb(95,243,68)"/>
<circle cx="144" cy="240" r="12" fill="rgb(104,240,85)" opacity="0.35"/>
<circle cx="144" cy="240" r="9" fill="rgb(104,240,85)"/>
<circle cx="168" cy="240" r="12" fill="rgb(112,237,102)" opacity="0.35"/>
<circle cx="168" cy="240" r="9" fill="rgb(112,237,102)"/>
<circle cx="192" cy="240" r="12" fill="rgb(121,234,119)" opacity="0.35"/>
<circle cx="192" cy="240" r="9" fill="rgb(121,234,119)"/>
<circle cx="216" cy="240" r="12" fill="rgb(130,232,136)" opacity="0.35"/>
<circle cx="216" cy="240" r="9" fill="rgb(130,232,136)"/>
<circle cx="240" cy="240" r="12" fill="rgb(139,229,153)" opacity="0.35"/>
<circle cx="240" cy="240" r="9" fill="rgb(139,229,153)"/>
<circle cx="264" cy="240" r="12" fill="rgb(147,226,170)" opacity="0.35"/>
<circle cx="264" cy="240" r="9" fill="rgb(147,226,170)"/>
<circle cx="288" cy="240" r="12" fill="rgb(156,223,187)" opacity="0.35"/>
<circle cx="288" cy="240" r="9" fill="rgb(156,223,187)"/>
<circle cx="312" cy="240" r="12" fill="rgb(165,220,204)" opacity="0.35"/>
<circle cx="312" cy="240" r="9" fill="rgb(165,220,204)"/>
<circle cx="336" cy="240" r="12" fill="rgb(174,217,221)" opacity="0.35"/>
<circle cx="336" cy="240" r="9" fill="rgb(174,217,221)"/>
<circle cx="360" cy="240" r="12" fill="rgb(182,214,238)" opacity="0.35"/>
<circle cx="360" cy="240" r="9" fill="rgb(182,214,238)"/>
<circle cx="384" cy="240" r="12" fill="rgb(191,211,255)" opacity="0.35"/>
<circle cx="384" cy="240" r="9" fill="rgb(191,211,255)"/>
<circle cx="24" cy="264" r="12" fill="rgb(60,255,0)" opacity="0.35"/>
<circle cx="24" cy="264" r="9" fill="rgb(60,255,0)"/>
<circle cx="48" cy="264" r="12" fill="rgb(69,252,17)" opacity="0.35"/>
<circle cx="48" cy="264" r="9" fill="rgb(69,252,17)"/>
<circle cx="72" cy="264" r="12" fill="rgb(77,249,34)" opacity="0.35"/>
<circle cx="72" cy="264" r="9" fill="rgb(77,249,34)"/>
<circle cx="96" cy="264" r="12" fill="rgb(86,246,51)" opacity="0.35"/>
<circle cx="96" cy="264" r="9" fill="rgb(86,246,51)"/>
<circle cx="120" cy="264" r="12" fill="rgb(95,243,68)" opacity="0.35"/>
<circle cx="120" cy="264" r="9" fill="rgb(95,243,68)"/>
<circle cx="144" cy="264" r="12" fill="rgb(104,240,85)" opacity="0.35"/>
<circle cx="144" cy="264" r="9" fill="rgb(104,240,85)"/>
<circle cx="168" cy="264" r="12" fill="rgb(112,237,102)" opacity="0.35"/>
<circle cx="168" cy="264" r="9" fill="rgb(112,237,102)"/>
<circle cx="192" cy="264" r="12" fill="rgb(121,234,119)" opacity="0.35"/>
<circle cx="192" cy="264" r="9" fill="rgb(121,234,119)"/>
<circle cx="216" cy="264" r="12" fill="rgb(130,232,136)" opacity="0.35"/>
<circle cx="216" cy="264" r="9" fill="rgb(130,232,136)"/>
<circle cx="240" cy="264" r="12" fill="rgb(139,229,153)" opacity="0.35"/>
<circle cx="240" cy="264" r="9" fill="rgb(139,229,153)"/>
<circle cx="264" cy="264" r="12" fill="rgb(147,226,170)" opacity="0.35"/>
<circle cx="264" cy="264" r="9" fill="rgb(147,226,170)"/>
<circle cx="288" cy="264" r="12" fill="rgb(156,223,187)" opacity="0.35"/>
<circle cx="288" cy="264" r="9" fill="rgb(156,223,187)"/>
<circle cx="312" cy="264" r="12" fill="rgb(165,220,204)" opacity="0.35"/>
<circle cx="312" cy="264" r="9" fill="rgb(165,220,204)"/>
<circle cx="336" cy="264" r="12" fill="rgb(174,217,221)" opacity="0.35"/>
<circle cx="336" cy="264" r="9" fill="rgb(174,217,221)"/>
<circle cx="360" cy="264" r="12" fill="rgb(182,214,238)" opacity="0.35"/>
<circle cx="360" cy="264" r="9" fill="rgb(182,214,238)"/>
<circle cx="384" cy="264" r="12" fill="rgb(191,211,255)" opacity="0.35"/>
<circle cx="384" cy="264" r="9" fill="rgb(191,211,255)"/>
<circle cx="24" cy="288" r="12" fill="rgb(60,255,0)" opacity="0.35"/>
<circle cx="24" cy="288" r="9" fill="rgb(60,255,0)"/>
<circle cx="48" cy="288" r="12" fill="rgb(69,252,17)" opacity="0.35"/>
<circle cx="48" cy="288" r="9" fill="rgb(69,252,17)"/>
<circle cx="72" cy="288" r="12" fill="rgb(77,249,34)" opacity="0.35"/>
<circle cx="72" cy="288" r="9" fill="rgb(77,249,34)"/>
<circle cx="96" cy="288" r="12" fill="rgb(86,246,51)" opacity="0.35"/>
<circle cx="96" cy="288" r="9" fill="rgb(86,246,51)"/>
<circle cx="120" cy="288" r="12" fill="rgb(95,243,68)" opacity="0.35"/>
<circle cx="120" cy="288" r="9" fill="rgb(95,243,68)"/>
<circle cx="144" cy="288" r="12" fill="rgb(104,240,85)" opacity="0.35"/>
<circle cx="144" cy="288" r="9" fill="rgb(104,240,85)"/>
<circle cx="168" cy="288" r="12" fill="rgb(112,237,102)" opacity="0.35"/>
<circle cx="168" cy="288" r="9" fill="rgb(112,237,102)"/>
<circle cx="192" cy="288" r="12" fill="rgb(121,234,119)" opacity="0.35"/>
<circle cx="192" cy="288" r="9" fill="rgb(121,234,119)"/>
<circle cx="216" cy="288" r="12" fill="rgb(130,232,136)" opacity="0.35"/>
<circle cx="216" cy="288" r="9" fill="rgb(130,232,136)"/>
<circle cx="240" cy="288" r="12" fill="rgb(139,229,153)" opacity="0.35"/>
<circle cx="240" cy="288" r="9" fill="rgb(139,229,153)"/>
<circle cx="264" cy="288" r="12" fill="rgb(147,226,170)" opacity="0.35"/>
<circle cx="264" cy="288" r="9" fill="rgb(147,226,170)"/>
<circle cx="288" cy="288" r="12" fill="rgb(156,223,187)" opacity="0.35"/>
<circle cx="288" cy="288" r="9" fill="rgb(156,223,187)"/>
<circle cx="312" cy="288" r="12" fill="rgb(165,220,204)" opacity="0.35"/>
<circle cx="312" cy="288" r="9" fill="rgb(165,220,204)"/>
<circle cx="336" cy="288" r="12" fill="rgb(174,217,221)" opacity="0.35"/>
<circle cx="336" cy="288" r="9" fill="rgb(174,217,221)"/>
<circle cx="360" cy="288" r="12" fill="rgb(182,214,238)" opacity="0.35"/>
<circle cx="360" cy="288" r="9" fill="rgb(182,214,238)"/>
<circle cx="384" cy="288" r="12" fill="rgb(191,211,255)" opacity="0.35"/>
<circle cx="384" cy="288" r="9" fill="rgb(191,211,255)"/>
<circle cx="24" cy="312" r="12" fill="rgb(60,255,0)" opacity="0.35"/>
<circle cx="24" cy="312" r="9" fill="rgb(60,255,0)"/>
<circle cx="48" cy="312" r="12" fill="rgb(69,252,17)" opacity="0.35"/>
<circle cx="48" cy="312" r="9" fill="rgb(69,252,17)"/>
<circle cx="72" cy="312" r="12" fill="rgb(77,249,34)" opacity="0.35"/>
<circle cx="72" cy="312" r="9" fill="rgb(77,249,34)"/>
<circle cx="96" cy="312" r="12" fill="rgb(86,246,51)" opacity="0.35"/>
<circle cx="96" cy="312" r="9" fill="rgb(86,246,51)"/>
<circle cx="120" cy="312" r="12" fill="rgb(95,243,68)" opacity="0.35"/>
<circle cx="120" cy="312" r="9" fill="rgb(95,243,68)"/>
<circle cx="144" cy="312" r="12" fill="rgb(104,240,85)" opacity="0.35"/>
<circle cx="144" cy="312" r="9" fill="rgb(104,240,85)"/>
<circle cx="168" cy="312" r="12" fill="rgb(112,237,102)" opacity="0.35"/>
<circle cx="168" cy="312" r="9" fill="rgb(112,237,102)"/>
<circle cx="192" cy="312" r="12" fill="rgb(121,234,119)" opacity="0.35"/>
<circle cx="192" cy="312" r="9" fill="rgb(121,234,119)"/>
<circle cx="216" cy="312" r="12" fill="rgb(130,232,136)" opacity="0.35"/>
<circle cx="216" cy="312" r="9" fill="rgb(130,232,136)"/>
<circle cx="240" cy="312" r="12" fill="rgb(139,229,153)" opacity="0.35"/>
<circle cx="240" cy="312" r="9" fill="rgb(139,229,153)"/>
<circle cx="264" cy="312" r="12" fill="rgb(147,226,170)" opacity="0.35"/>
<circle cx="264" cy="312" r="9" fill="rgb(147,226,170)"/>
<circle cx="288" cy="312" r="12" fill="rgb(156,223,187)" opacity="0.35"/>
<circle cx="288" cy="312" r="9" fill="rgb(156,223,187)"/>
<circle cx="312" cy="312" r="12" fill="rgb(165,220,204)" opacity="0.35"/>
<circle cx="312" cy="312" r="9" fill="rgb(165,220,204)"/>
<circle cx="336" cy="312" r="12" fill="rgb(174,217,221)" opacity="0.35"/>
<circle cx="336" cy="312" r="9" fill="rgb(174,217,221)"/>
<circle cx="360" cy="312" r="12" fill="rgb(182,214,238)" opacity="0.35"/>
<circle cx="360" cy="312" r="9" fill="rgb(182,214,238)"/>
<circle cx="384" cy="312" r="12" fill="rgb(191,211,255)" opacity="0.35"/>
<circle cx="384" cy="312" r="9" fill="rgb(191,211,255)"/>
<circle cx="24" cy="336" r="12" fill="rgb(60,255,0)" opacity="0.35"/>
<circle cx="24" cy="336" r="9" fill="rgb(60,255,0)"/>
<circle cx="48" cy="336" r="12" fill="rgb(69,252,17)" opacity="0.35"/>
<circle cx="48" cy="336" r="9" fill="rgb(69,252,17)"/>
<circle cx="72" cy="336" r="12" fill="rgb(77,249,34)" opacity="0.35"/>
<circle cx="72" cy="336" r="9" fill="rgb(77,249,34)"/>
<circle cx="96" cy="336" r="12" fill="rgb(86,246,51)" opacity="0.35"/>
<circle cx="96" cy="336" r="9" fill="rgb(86,246,51)"/>
<circle cx="120" cy="336" r="12" fill="rgb(95,243,68)" opacity="0.35"/>
<circle cx="120" cy="336" r="9" fill="rgb(95,243,68)"/>
<circle cx="144" cy="336" r="12" fill="rgb(104,240,85)" opacity="0.35"/>
<circle cx="144" cy="336" r="9" fill="rgb(104,240,85)"/>
<circle cx="168" cy="336" r="12" fill="rgb(112,237,102)" opacity="0.35"/>
<circle cx="168" cy="336" r="9" fill="rgb(112,237,102)"/>
<circle cx="192" cy="336" r="12" fill="rgb(121,234,119)" opacity="0.35"/>
<circle cx="192" cy="336" r="9" fill="rgb(121,234,119)"/>
<circle cx="216" cy="336" r="12" fill="rgb(130,232,136)" opacity="0.35"/>
<circle cx="216" cy="336" r="9" fill="rgb(130,232,136)"/>
<circle cx="240" cy="336" r="12" fill="rgb(139,229,153)" opacity="0.35"/>
<circle cx="240" cy="336" r="9" fill="rgb(139,229,153)"/>
<circle cx="264" cy="336" r="12" fill="rgb(147,226,170)" opacity="0.35"/>
<circle cx="264" cy="336" r="9" fill="rgb(147,226,170)"/>
<circle cx="288" cy="336" r="12" fill="rgb(156,223,187)" opacity="0.35"/>
<circle cx="288" cy="336" r="9" fill="rgb(156,223,187)"/>
<circle cx="312" cy="336" r="12" fill="rgb(165,220,204)" opacity="0.35"/>
<circle cx="312" cy="336" r="9" fill="rgb(165,220,204)"/>
<circle cx="336" cy="336" r="12" fill="rgb(174,217,221)" opacity="0.35"/>
<circle cx="336" cy="336" r="9" fill="rgb(174,217,221)"/>
<circle cx="360" cy="336" r="12" fill="rgb(182,214,238)" opacity="0.35"/>
<circle cx="360" cy="336" r="9" fill="rgb(182,214,238)"/>
<circle cx="384" cy="336" r="12" fill="rgb(191,211,255)" opacity="0.35"/>
<circle cx="384" cy="336" r="9" fill="rgb(191,211,255)"/>
<circle cx="24" cy="360" r="12" fill="rgb(60,255,0)" opacity="0.35"/>
<circle cx="24" cy="360" r="9" fill="rgb(60,255,0)"/>
<circle cx="48" cy="360" r="12" fill="rgb(69,252,17)" opacity="0.35"/>
<circle cx="48" cy="360" r="9" fill="rgb(69,252,17)"/>
<circle cx="72" cy="360" r="12" fill="rgb(77,249,34)" opacity="0.35"/>
<circle cx="72" cy="360" r="9" fill="rgb(77,249,34)"/>
<circle cx="96" cy="360" r="12" fill="rgb(86,246,51)" opacity="0.35"/>
<circle cx="96" cy="360" r="9" fill="rgb(86,246,51)"/>
<circle cx="120" cy="360" r="12" fill="rgb(95,243,68)" opacity="0.35"/>
<circle cx="120" cy="360" r="9" fill="rgb(95,243,68)"/>
<circle cx="144" cy="360" r="12" fill="rgb(104,240,85)" opacity="0.35"/>
<circle cx="144" cy="360" r="9" fill="rgb(104,240,85)"/>
<circle cx="168" cy="360" r="12" fill="rgb(112,237,102)" opacity="0.35"/>
<circle cx="168" cy="360" r="9" fill="rgb(112,237,102)"/>
<circle cx="192" cy="360" r="12" fill="rgb(121,234,119)" opacity="0.35"/>
<circle cx="192" cy="360" r="9" fill="rgb(121,234,119)"/>
<circle cx="216" cy="360" r="12" fill="rgb(130,232,136)" opacity="0.35"/>
<circle cx="216" cy="360" r="9" fill="rgb(130,232,136)"/>
<circle cx="240" cy="360" r="12" fill="rgb(139,229,153)" opacity="0.35"/>
<circle cx="240" cy="360" r="9" fill="rgb(139,229,153)"/>
<circle cx="264" cy="360" r="12" fill="rgb(147,226,170)" opacity="0.35"/>
<circle cx="264" cy="360" r="9" fill="rgb(147,226,170)"/>
<circle cx="288" cy="360" r="12" fill="rgb(156,223,187)" opacity="0.35"/>
<circle cx="288" cy="360" r="9" fill="rgb(156,223,187)"/>
<circle cx="312" cy="360" r="12" fill="rgb(165,220,204)" opacity="0.35"/>
<circle cx="312" cy="360" r="9" fill="rgb(165,220,204)"/>
<circle cx="336" cy="360" r="12" fill="rgb(174,217,221)" opacity="0.35"/>
<circle cx="336" cy="360" r="9" fill="rgb(174,217,221)"/>
<circle cx="360" cy="360" r="12" fill="rgb(182,214,238)" opacity="0.35"/>
<circle cx="360" cy="360" r="9" fill="rgb(182,214,238)"/>
<circle cx="384" cy="360" r="12" fill="rgb(191,211,255)" opacity="0.35"/>
<circle cx="384" cy="360" r="9" fill="rgb(191,211,255)"/>
<circle cx="24" cy="384" r="12" fill="rgb(60,255,0)" opacity="0.35"/>
<circle cx="24" cy="384" r="9" fill="rgb(60,255,0)"/>
<circle cx="48" cy="384" r="12" fill="rgb(69,252,17)" opacity="0.35"/>
<circle cx="48" cy="384" r="9" fill="rgb(69,252,17)"/>
<circle cx="72" cy="384" r="12" fill="rgb(77,249,34)" opacity="0.35"/>
<circle cx="72" cy="384" r="9" fill="rgb(77,249,34)"/>
<circle cx="96" cy="384" r="12" fill="rgb(86,246,51)" opacity="0.35"/>
<circle cx="96" cy="384" r="9" fill="rgb(86,246,51)"/>
<circle cx="120" cy="384" r="12" fill="rgb(95,243,68)" opacity="0.35"/>
<circle cx="120" cy="384" r="9" fill="rgb(95,243,68)"/>
<circle cx="144" cy="384" r="12" fill="rgb(104,240,85)" opacity="0.35"/>
<circle cx="144" cy="384" r="9" fill="rgb(104,240,85)"/>
<circle cx="168" cy="384" r="12" fill="rgb(112,237,102)" opacity="0.35"/>
<circle cx="168" cy="384" r="9" fill="rgb(112,237,102)"/>
<circle cx="192" cy="384" r="12" fill="rgb(121,234,119)" opacity="0.35"/>
<circle cx="192" cy="384" r="9" fill="rgb(121,234,119)"/>
<circle cx="216" cy="384" r="12" fill="rgb(130,232,136)" opacity="0.35"/>
<circle cx="216" cy="384" r="9" fill="rgb(130,232,136)"/>
<circle cx="240" cy="384" r="12" fill="rgb(139,229,153)" opacity="0.35"/>
<circle cx="240" cy="384" r="9" fill="rgb(139,229,153)"/>
<circle cx="264" cy="384" r="12" fill="rgb(147,226,170)" opacity="0.35"/>
<circle cx="264" cy="384" r="9" fill="rgb(147,226,170)"/>
<circle cx="288" cy="384" r="12" fill="rgb(156,223,187)" opacity="0.35"/>
<circle cx="288" cy="384" r="9" fill="rgb(156,223,187)"/>
<circle cx="312" cy="384" r="12" fill="rgb(165,220,204)" opacity="0.35"/>
<circle cx="312" cy="384" r="9" fill="rgb(165,220,204)"/>
<circle cx="336" cy="384" r="12" fill="rgb(174,217,221)" opacity="0.35"/>
<circle cx="336" cy="384" r="9" fill="rgb(174,217,221)"/>
<circle cx="360" cy="384" r="12" fill="rgb(182,214,238)" opacity="0.35"/>
<circle cx="360" cy="384" r="9" fill="rgb(182,214,238)"/>
<circle cx="384" cy="384" r="12" fill="rgb(191,211,255)" opacity="0.35"/>
<circle cx="384" cy="384" r="9" fill="rgb(191,211,255)"/>
</svg>
