<svg xmlns="http://www.w3.org/2000/svg" viewBox="0 0 408 408" width="408" height="408" role="img" aria-label="LED preview of the Color Trails example graph">
<rect width="408" height="408" rx="10" fill="#05070a"/>
<circle cx="24" cy="24" r="12" fill="rgb(86,162,36)" opacity="0.35"/>
<circle cx="24" cy="24" r="9" fill="rgb(86,162,36)"/>
<circle cx="48" cy="24" r="12" fill="rgb(86,162,36)" opacity="0.35"/>
<circle cx="48" cy="24" r="9" fill="rgb(86,162,36)"/>
<circle cx="72" cy="24" r="12" fill="rgb(86,164,36)" opacity="0.35"/>
<circle cx="72" cy="24" r="9" fill="rgb(86,164,36)"/>
<circle cx="96" cy="24" r="12" fill="rgb(83,167,36)" opacity="0.35"/>
<circle cx="96" cy="24" r="9" fill="rgb(83,167,36)"/>
<circle cx="120" cy="24" r="12" fill="rgb(79,174,36)" opacity="0.35"/>
<circle cx="120" cy="24" r="9" fill="rgb(79,174,36)"/>
<circle cx="144" cy="24" r="12" fill="rgb(74,181,38)" opacity="0.35"/>
<circle cx="144" cy="24" r="9" fill="rgb(74,181,38)"/>
<circle cx="168" cy="24" r="12" fill="rgb(71,183,43)" opacity="0.35"/>
<circle cx="168" cy="24" r="9" fill="rgb(71,183,43)"/>
<circle cx="192" cy="24" r="12" fill="rgb(69,179,45)" opacity="0.35"/>
<circle cx="192" cy="24" r="9" fill="rgb(69,179,45)"/>
<circle cx="216" cy="24" r="12" fill="rgb(69,180,47)" opacity="0.35"/>
<circle cx="216" cy="24" r="9" fill="rgb(69,180,47)"/>
<circle cx="240" cy="24" r="12" fill="rgb(75,175,42)" opacity="0.35"/>
<circle cx="240" cy="24" r="9" fill="rgb(75,175,42)"/>
<circle cx="264" cy="24" r="12" fill="rgb(81,167,38)" opacity="0.35"/>
<circle cx="264" cy="24" r="9" fill="rgb(81,167,38)"/>
<circle cx="288" cy="24" r="12" fill="rgb(85,164,36)" opacity="0.35"/>
<circle cx="288" cy="24" r="9" fill="rgb(85,164,36)"/>
<circle cx="312" cy="24" r="12" fill="rgb(87,161,36)" opacity="0.35"/>
<circle cx="312" cy="24" r="9" fill="rgb(87,161,36)"/>
<circle cx="336" cy="24" r="12" fill="rgb(88,160,37)" opacity="0.35"/>
<circle cx="336" cy="24" r="9" fill="rgb(88,160,37)"/>
<circle cx="360" cy="24" r="12" fill="rgb(89,159,36)" opacity="0.35"/>
<circle cx="360" cy="24" r="9" fill="rgb(89,159,36)"/>
<circle cx="384" cy="24" r="12" fill="rgb(88,160,36)" opacity="0.35"/>
<circle cx="384" cy="24" r="9" fill="rgb(88,160,36)"/>
<circle cx="24" cy="48" r="12" fill="rgb(81,170,37)" opacity="0.35"/>
<circle cx="24" cy="48" r="9" fill="rgb(81,170,37)"/>
<circle cx="48" cy="48" r="12" fill="rgb(81,170,37)" opacity="0.35"/>
<circle cx="48" cy="48" r="9" fill="rgb(81,170,37)"/>
<circle cx="72" cy="48" r="12" fill="rgb(80,172,37)" opacity="0.35"/>
<circle cx="72" cy="48" r="9" fill="rgb(80,172,37)"/>
<circle cx="96" cy="48" r="12" fill="rgb(76,177,38)" opacity="0.35"/>
<circle cx="96" cy="48" r="9" fill="rgb(76,177,38)"/>
<circle cx="120" cy="48" r="12" fill="rgb(71,183,41)" opacity="0.35"/>
<circle cx="120" cy="48" r="9" fill="rgb(71,183,41)"/>
<circle cx="144" cy="48" r="12" fill="rgb(64,186,47)" opacity="0.35"/>
<circle cx="144" cy="48" r="9" fill="rgb(64,186,47)"/>
<circle cx="168" cy="48" r="12" fill="rgb(55,195,57)" opacity="0.35"/>
<circle cx="168" cy="48" r="9" fill="rgb(55,195,57)"/>
<circle cx="192" cy="48" r="12" fill="rgb(44,206,64)" opacity="0.35"/>
<circle cx="192" cy="48" r="9" fill="rgb(44,206,64)"/>
<circle cx="216" cy="48" r="12" fill="rgb(42,207,68)" opacity="0.35"/>
<circle cx="216" cy="48" r="9" fill="rgb(42,207,68)"/>
<circle cx="240" cy="48" r="12" fill="rgb(50,200,60)" opacity="0.35"/>
<circle cx="240" cy="48" r="9" fill="rgb(50,200,60)"/>
<circle cx="264" cy="48" r="12" fill="rgb(65,184,49)" opacity="0.35"/>
<circle cx="264" cy="48" r="9" fill="rgb(65,184,49)"/>
<circle cx="288" cy="48" r="12" fill="rgb(78,171,38)" opacity="0.35"/>
<circle cx="288" cy="48" r="9" fill="rgb(78,171,38)"/>
<circle cx="312" cy="48" r="12" fill="rgb(82,168,37)" opacity="0.35"/>
<circle cx="312" cy="48" r="9" fill="rgb(82,168,37)"/>
<circle cx="336" cy="48" r="12" fill="rgb(84,165,36)" opacity="0.35"/>
<circle cx="336" cy="48" r="9" fill="rgb(84,165,36)"/>
<circle cx="360" cy="48" r="12" fill="rgb(85,165,36)" opacity="0.35"/>
<circle cx="360" cy="48" r="9" fill="rgb(85,165,36)"/>
<circle cx="384" cy="48" r="12" fill="rgb(84,167,37)" opacity="0.35"/>
<circle cx="384" cy="48" r="9" fill="rgb(84,167,37)"/>
<circle cx="24" cy="72" r="12" fill="rgb(72,179,41)" opacity="0.35"/>
<circle cx="24" cy="72" r="9" fill="rgb(72,179,41)"/>
<circle cx="48" cy="72" r="12" fill="rgb(74,179,40)" opacity="0.35"/>
<circle cx="48" cy="72" r="9" fill="rgb(74,179,40)"/>
<circle cx="72" cy="72" r="12" fill="rgb(72,181,41)" opacity="0.35"/>
<circle cx="72" cy="72" r="9" fill="rgb(72,181,41)"/>
<circle cx="96" cy="72" r="12" fill="rgb(67,185,45)" opacity="0.35"/>
<circle cx="96" cy="72" r="9" fill="rgb(67,185,45)"/>
<circle cx="120" cy="72" r="12" fill="rgb(58,192,53)" opacity="0.35"/>
<circle cx="120" cy="72" r="9" fill="rgb(58,192,53)"/>
<circle cx="144" cy="72" r="12" fill="rgb(43,205,68)" opacity="0.35"/>
<circle cx="144" cy="72" r="9" fill="rgb(43,205,68)"/>
<circle cx="168" cy="72" r="12" fill="rgb(29,219,86)" opacity="0.35"/>
<circle cx="168" cy="72" r="9" fill="rgb(29,219,86)"/>
<circle cx="192" cy="72" r="12" fill="rgb(19,229,101)" opacity="0.35"/>
<circle cx="192" cy="72" r="9" fill="rgb(19,229,101)"/>
<circle cx="216" cy="72" r="12" fill="rgb(17,230,106)" opacity="0.35"/>
<circle cx="216" cy="72" r="9" fill="rgb(17,230,106)"/>
<circle cx="240" cy="72" r="12" fill="rgb(20,230,92)" opacity="0.35"/>
<circle cx="240" cy="72" r="9" fill="rgb(20,230,92)"/>
<circle cx="264" cy="72" r="12" fill="rgb(32,218,74)" opacity="0.35"/>
<circle cx="264" cy="72" r="9" fill="rgb(32,218,74)"/>
<circle cx="288" cy="72" r="12" fill="rgb(56,193,54)" opacity="0.35"/>
<circle cx="288" cy="72" r="9" fill="rgb(56,193,54)"/>
<circle cx="312" cy="72" r="12" fill="rgb(73,176,42)" opacity="0.35"/>
<circle cx="312" cy="72" r="9" fill="rgb(73,176,42)"/>
<circle cx="336" cy="72" r="12" fill="rgb(77,173,39)" opacity="0.35"/>
<circle cx="336" cy="72" r="9" fill="rgb(77,173,39)"/>
<circle cx="360" cy="72" r="12" fill="rgb(78,173,38)" opacity="0.35"/>
<circle cx="360" cy="72" r="9" fill="rgb(78,173,38)"/>
<circle cx="384" cy="72" r="12" fill="rgb(76,176,39)" opacity="0.35"/>
<circle cx="384" cy="72" r="9" fill="rgb(76,176,39)"/>
<circle cx="24" cy="96" r="12" fill="rgb(59,189,52)" opacity="0.35"/>
<circle cx="24" cy="96" r="9" fill="rgb(59,189,52)"/>
<circle cx="48" cy="96" r="12" fill="rgb(61,188,50)" opacity="0.35"/>
<circle cx="48" cy="96" r="9" fill="rgb(61,188,50)"/>
<circle cx="72" cy="96" r="12" fill="rgb(59,191,53)" opacity="0.35"/>
<circle cx="72" cy="96" r="9" fill="rgb(59,191,53)"/>
<circle cx="96" cy="96" r="12" fill="rgb(51,198,62)" opacity="0.35"/>
<circle cx="96" cy="96" r="9" fill="rgb(51,198,62)"/>
<circle cx="120" cy="96" r="12" fill="rgb(36,209,78)" opacity="0.35"/>
<circle cx="120" cy="96" r="9" fill="rgb(36,209,78)"/>
<circle cx="144" cy="96" r="12" fill="rgb(20,221,105)" opacity="0.35"/>
<circle cx="144" cy="96" r="9" fill="rgb(20,221,105)"/>
<circle cx="168" cy="96" r="12" fill="rgb(11,221,136)" opacity="0.35"/>
<circle cx="168" cy="96" r="9" fill="rgb(11,221,136)"/>
<circle cx="192" cy="96" r="12" fill="rgb(5,215,161)" opacity="0.35"/>
<circle cx="192" cy="96" r="9" fill="rgb(5,215,161)"/>
<circle cx="216" cy="96" r="12" fill="rgb(4,213,167)" opacity="0.35"/>
<circle cx="216" cy="96" r="9" fill="rgb(4,213,167)"/>
<circle cx="240" cy="96" r="12" fill="rgb(5,229,152)" opacity="0.35"/>
<circle cx="240" cy="96" r="9" fill="rgb(5,229,152)"/>
<circle cx="264" cy="96" r="12" fill="rgb(7,244,116)" opacity="0.35"/>
<circle cx="264" cy="96" r="9" fill="rgb(7,244,116)"/>
<circle cx="288" cy="96" r="12" fill="rgb(18,235,87)" opacity="0.35"/>
<circle cx="288" cy="96" r="9" fill="rgb(18,235,87)"/>
<circle cx="312" cy="96" r="12" fill="rgb(42,207,67)" opacity="0.35"/>
<circle cx="312" cy="96" r="9" fill="rgb(42,207,67)"/>
<circle cx="336" cy="96" r="12" fill="rgb(66,182,46)" opacity="0.35"/>
<circle cx="336" cy="96" r="9" fill="rgb(66,182,46)"/>
<circle cx="360" cy="96" r="12" fill="rgb(67,182,45)" opacity="0.35"/>
<circle cx="360" cy="96" r="9" fill="rgb(67,182,45)"/>
<circle cx="384" cy="96" r="12" fill="rgb(65,185,47)" opacity="0.35"/>
<circle cx="384" cy="96" r="9" fill="rgb(65,185,47)"/>
<circle cx="24" cy="120" r="12" fill="rgb(41,200,76)" opacity="0.35"/>
<circle cx="24" cy="120" r="9" fill="rgb(41,200,76)"/>
<circle cx="48" cy="120" r="12" fill="rgb(43,202,72)" opacity="0.35"/>
<circle cx="48" cy="120" r="9" fill="rgb(43,202,72)"/>
<circle cx="72" cy="120" r="12" fill="rgb(40,204,78)" opacity="0.35"/>
<circle cx="72" cy="120" r="9" fill="rgb(40,204,78)"/>
<circle cx="96" cy="120" r="12" fill="rgb(29,212,94)" opacity="0.35"/>
<circle cx="96" cy="120" r="9" fill="rgb(29,212,94)"/>
<circle cx="120" cy="120" r="12" fill="rgb(17,215,121)" opacity="0.35"/>
<circle cx="120" cy="120" r="9" fill="rgb(17,215,121)"/>
<circle cx="144" cy="120" r="12" fill="rgb(9,202,159)" opacity="0.35"/>
<circle cx="144" cy="120" r="9" fill="rgb(9,202,159)"/>
<circle cx="168" cy="120" r="12" fill="rgb(7,172,194)" opacity="0.35"/>
<circle cx="168" cy="120" r="9" fill="rgb(7,172,194)"/>
<circle cx="192" cy="120" r="12" fill="rgb(8,145,219)" opacity="0.35"/>
<circle cx="192" cy="120" r="9" fill="rgb(8,145,219)"/>
<circle cx="216" cy="120" r="12" fill="rgb(9,139,222)" opacity="0.35"/>
<circle cx="216" cy="120" r="9" fill="rgb(9,139,222)"/>
<circle cx="240" cy="120" r="12" fill="rgb(4,165,216)" opacity="0.35"/>
<circle cx="240" cy="120" r="9" fill="rgb(4,165,216)"/>
<circle cx="264" cy="120" r="12" fill="rgb(2,211,193)" opacity="0.35"/>
<circle cx="264" cy="120" r="9" fill="rgb(2,211,193)"/>
<circle cx="288" cy="120" r="12" fill="rgb(1,249,137)" opacity="0.35"/>
<circle cx="288" cy="120" r="9" fill="rgb(1,249,137)"/>
<circle cx="312" cy="120" r="12" fill="rgb(8,245,107)" opacity="0.35"/>
<circle cx="312" cy="120" r="9" fill="rgb(8,245,107)"/>
<circle cx="336" cy="120" r="12" fill="rgb(49,192,65)" opacity="0.35"/>
<circle cx="336" cy="120" r="9" fill="rgb(49,192,65)"/>
<circle cx="360" cy="120" r="12" fill="rgb(51,193,62)" opacity="0.35"/>
<circle cx="360" cy="120" r="9" fill="rgb(51,193,62)"/>
<circle cx="384" cy="120" r="12" fill="rgb(49,196,65)" opacity="0.35"/>
<circle cx="384" cy="120" r="9" fill="rgb(49,196,65)"/>
<circle cx="24" cy="144" r="12" fill="rgb(24,201,114)" opacity="0.35"/>
<circle cx="24" cy="144" r="9" fill="rgb(24,201,114)"/>
<circle cx="48" cy="144" r="12" fill="rgb(25,206,110)" opacity="0.35"/>
<circle cx="48" cy="144" r="9" fill="rgb(25,206,110)"/>
<circle cx="72" cy="144" r="12" fill="rgb(22,205,119)" opacity="0.35"/>
<circle cx="72" cy="144" r="9" fill="rgb(22,205,119)"/>
<circle cx="96" cy="144" r="12" fill="rgb(14,202,142)" opacity="0.35"/>
<circle cx="96" cy="144" r="9" fill="rgb(14,202,142)"/>
<circle cx="120" cy="144" r="12" fill="rgb(11,181,175)" opacity="0.35"/>
<circle cx="120" cy="144" r="9" fill="rgb(11,181,175)"/>
<circle cx="144" cy="144" r="12" fill="rgb(15,139,210)" opacity="0.35"/>
<circle cx="144" cy="144" r="9" fill="rgb(15,139,210)"/>
<circle cx="168" cy="144" r="12" fill="rgb(29,88,232)" opacity="0.35"/>
<circle cx="168" cy="144" r="9" fill="rgb(29,88,232)"/>
<circle cx="192" cy="144" r="12" fill="rgb(43,55,243)" opacity="0.35"/>
<circle cx="192" cy="144" r="9" fill="rgb(43,55,243)"/>
<circle cx="216" cy="144" r="12" fill="rgb(48,50,245)" opacity="0.35"/>
<circle cx="216" cy="144" r="9" fill="rgb(48,50,245)"/>
<circle cx="240" cy="144" r="12" fill="rgb(26,63,245)" opacity="0.35"/>
<circle cx="240" cy="144" r="9" fill="rgb(26,63,245)"/>
<circle cx="264" cy="144" r="12" fill="rgb(6,119,241)" opacity="0.35"/>
<circle cx="264" cy="144" r="9" fill="rgb(6,119,241)"/>
<circle cx="288" cy="144" r="12" fill="rgb(7,213,187)" opacity="0.35"/>
<circle cx="288" cy="144" r="9" fill="rgb(7,213,187)"/>
<circle cx="312" cy="144" r="12" fill="rgb(11,228,130)" opacity="0.35"/>
<circle cx="312" cy="144" r="9" fill="rgb(11,228,130)"/>
<circle cx="336" cy="144" r="12" fill="rgb(33,197,95)" opacity="0.35"/>
<circle cx="336" cy="144" r="9" fill="rgb(33,197,95)"/>
<circle cx="360" cy="144" r="12" fill="rgb(34,200,92)" opacity="0.35"/>
<circle cx="360" cy="144" r="9" fill="rgb(34,200,92)"/>
<circle cx="384" cy="144" r="12" fill="rgb(31,200,97)" opacity="0.35"/>
<circle cx="384" cy="144" r="9" fill="rgb(31,200,97)"/>
<circle cx="24" cy="168" r="12" fill="rgb(17,182,154)" opacity="0.35"/>
<circle cx="24" cy="168" r="9" fill="rgb(17,182,154)"/>
<circle cx="48" cy="168" r="12" fill="rgb(16,186,153)" opacity="0.35"/>
<circle cx="48" cy="168" r="9" fill="rgb(16,186,153)"/>
<circle cx="72" cy="168" r="12" fill="rgb(15,180,164)" opacity="0.35"/>
<circle cx="72" cy="168" r="9" fill="rgb(15,180,164)"/>
<circle cx="96" cy="168" r="12" fill="rgb(15,161,189)" opacity="0.35"/>
<circle cx="96" cy="168" r="9" fill="rgb(15,161,189)"/>
<circle cx="120" cy="168" r="12" fill="rgb(26,119,217)" opacity="0.35"/>
<circle cx="120" cy="168" r="9" fill="rgb(26,119,217)"/>
<circle cx="144" cy="168" r="12" fill="rgb(51,68,236)" opacity="0.35"/>
<circle cx="144" cy="168" r="9" fill="rgb(51,68,236)"/>
<circle cx="168" cy="168" r="12" fill="rgb(93,28,241)" opacity="0.35"/>
<circle cx="168" cy="168" r="9" fill="rgb(93,28,241)"/>
<circle cx="192" cy="168" r="12" fill="rgb(133,9,240)" opacity="0.35"/>
<circle cx="192" cy="168" r="9" fill="rgb(133,9,240)"/>
<circle cx="216" cy="168" r="12" fill="rgb(141,8,240)" opacity="0.35"/>
<circle cx="216" cy="168" r="9" fill="rgb(141,8,240)"/>
<circle cx="240" cy="168" r="12" fill="rgb(97,26,230)" opacity="0.35"/>
<circle cx="240" cy="168" r="9" fill="rgb(97,26,230)"/>
<circle cx="264" cy="168" r="12" fill="rgb(63,118,160)" opacity="0.35"/>
<circle cx="264" cy="168" r="9" fill="rgb(63,118,160)"/>
<circle cx="288" cy="168" r="12" fill="rgb(60,207,105)" opacity="0.35"/>
<circle cx="288" cy="168" r="9" fill="rgb(60,207,105)"/>
<circle cx="312" cy="168" r="12" fill="rgb(38,201,111)" opacity="0.35"/>
<circle cx="312" cy="168" r="9" fill="rgb(38,201,111)"/>
<circle cx="336" cy="168" r="12" fill="rgb(25,192,124)" opacity="0.35"/>
<circle cx="336" cy="168" r="9" fill="rgb(25,192,124)"/>
<circle cx="360" cy="168" r="12" fill="rgb(22,192,126)" opacity="0.35"/>
<circle cx="360" cy="168" r="9" fill="rgb(22,192,126)"/>
<circle cx="384" cy="168" r="12" fill="rgb(21,191,134)" opacity="0.35"/>
<circle cx="384" cy="168" r="9" fill="rgb(21,191,134)"/>
<circle cx="24" cy="192" r="12" fill="rgb(21,164,167)" opacity="0.35"/>
<circle cx="24" cy="192" r="9" fill="rgb(21,164,167)"/>
<circle cx="48" cy="192" r="12" fill="rgb(18,160,180)" opacity="0.35"/>
<circle cx="48" cy="192" r="9" fill="rgb(18,160,180)"/>
<circle cx="72" cy="192" r="12" fill="rgb(20,148,192)" opacity="0.35"/>
<circle cx="72" cy="192" r="9" fill="rgb(20,148,192)"/>
<circle cx="96" cy="192" r="12" fill="rgb(29,116,215)" opacity="0.35"/>
<circle cx="96" cy="192" r="9" fill="rgb(29,116,215)"/>
<circle cx="120" cy="192" r="12" fill="rgb(55,70,232)" opacity="0.35"/>
<circle cx="120" cy="192" r="9" fill="rgb(55,70,232)"/>
<circle cx="144" cy="192" r="12" fill="rgb(106,31,229)" opacity="0.35"/>
<circle cx="144" cy="192" r="9" fill="rgb(106,31,229)"/>
<circle cx="168" cy="192" r="12" fill="rgb(181,8,194)" opacity="0.35"/>
<circle cx="168" cy="192" r="9" fill="rgb(181,8,194)"/>
<circle cx="192" cy="192" r="12" fill="rgb(247,1,170)" opacity="0.35"/>
<circle cx="192" cy="192" r="9" fill="rgb(247,1,170)"/>
<circle cx="216" cy="192" r="12" fill="rgb(229,13,200)" opacity="0.35"/>
<circle cx="216" cy="192" r="9" fill="rgb(229,13,200)"/>
<circle cx="240" cy="192" r="12" fill="rgb(175,108,109)" opacity="0.35"/>
<circle cx="240" cy="192" r="9" fill="rgb(175,108,109)"/>
<circle cx="264" cy="192" r="12" fill="rgb(135,186,47)" opacity="0.35"/>
<circle cx="264" cy="192" r="9" fill="rgb(135,186,47)"/>
<circle cx="288" cy="192" r="12" fill="rgb(106,223,28)" opacity="0.35"/>
<circle cx="288" cy="192" r="9" fill="rgb(106,223,28)"/>
<circle cx="312" cy="192" r="12" fill="rgb(71,216,56)" opacity="0.35"/>
<circle cx="312" cy="192" r="9" fill="rgb(71,216,56)"/>
<circle cx="336" cy="192" r="12" fill="rgb(38,192,112)" opacity="0.35"/>
<circle cx="336" cy="192" r="9" fill="rgb(38,192,112)"/>
<circle cx="360" cy="192" r="12" fill="rgb(20,180,147)" opacity="0.35"/>
<circle cx="360" cy="192" r="9" fill="rgb(20,180,147)"/>
<circle cx="384" cy="192" r="12" fill="rgb(19,177,155)" opacity="0.35"/>
<circle cx="384" cy="192" r="9" fill="rgb(19,177,155)"/>
<circle cx="24" cy="216" r="12" fill="rgb(31,174,137)" opacity="0.35"/>
<circle cx="24" cy="216" r="9" fill="rgb(31,174,137)"/>
<circle cx="48" cy="216" r="12" fill="rgb(21,153,186)" opacity="0.35"/>
<circle cx="48" cy="216" r="9" fill="rgb(21,153,186)"/>
<circle cx="72" cy="216" r="12" fill="rgb(26,134,201)" opacity="0.35"/>
<circle cx="72" cy="216" r="9" fill="rgb(26,134,201)"/>
<circle cx="96" cy="216" r="12" fill="rgb(41,99,220)" opacity="0.35"/>
<circle cx="96" cy="216" r="9" fill="rgb(41,99,220)"/>
<circle cx="120" cy="216" r="12" fill="rgb(87,65,215)" opacity="0.35"/>
<circle cx="120" cy="216" r="9" fill="rgb(87,65,215)"/>
<circle cx="144" cy="216" r="12" fill="rgb(180,67,138)" opacity="0.35"/>
<circle cx="144" cy="216" r="9" fill="rgb(180,67,138)"/>
<circle cx="168" cy="216" r="12" fill="rgb(239,42,63)" opacity="0.35"/>
<circle cx="168" cy="216" r="9" fill="rgb(239,42,63)"/>
<circle cx="192" cy="216" r="12" fill="rgb(255,2,66)" opacity="0.35"/>
<circle cx="192" cy="216" r="9" fill="rgb(255,2,66)"/>
<circle cx="216" cy="216" r="12" fill="rgb(244,58,101)" opacity="0.35"/>
<circle cx="216" cy="216" r="9" fill="rgb(244,58,101)"/>
<circle cx="240" cy="216" r="12" fill="rgb(205,169,14)" opacity="0.35"/>
<circle cx="240" cy="216" r="9" fill="rgb(205,169,14)"/>
<circle cx="264" cy="216" r="12" fill="rgb(161,211,13)" opacity="0.35"/>
<circle cx="264" cy="216" r="9" fill="rgb(161,211,13)"/>
<circle cx="288" cy="216" r="12" fill="rgb(118,228,20)" opacity="0.35"/>
<circle cx="288" cy="216" r="9" fill="rgb(118,228,20)"/>
<circle cx="312" cy="216" r="12" fill="rgb(88,232,27)" opacity="0.35"/>
<circle cx="312" cy="216" r="9" fill="rgb(88,232,27)"/>
<circle cx="336" cy="216" r="12" fill="rgb(67,218,53)" opacity="0.35"/>
<circle cx="336" cy="216" r="9" fill="rgb(67,218,53)"/>
<circle cx="360" cy="216" r="12" fill="rgb(25,178,143)" opacity="0.35"/>
<circle cx="360" cy="216" r="9" fill="rgb(25,178,143)"/>
<circle cx="384" cy="216" r="12" fill="rgb(21,172,157)" opacity="0.35"/>
<circle cx="384" cy="216" r="9" fill="rgb(21,172,157)"/>
<circle cx="24" cy="240" r="12" fill="rgb(40,192,106)" opacity="0.35"/>
<circle cx="24" cy="240" r="9" fill="rgb(40,192,106)"/>
<circle cx="48" cy="240" r="12" fill="rgb(17,215,119)" opacity="0.35"/>
<circle cx="48" cy="240" r="9" fill="rgb(17,215,119)"/>
<circle cx="72" cy="240" r="12" fill="rgb(17,186,152)" opacity="0.35"/>
<circle cx="72" cy="240" r="9" fill="rgb(17,186,152)"/>
<circle cx="96" cy="240" r="12" fill="rgb(48,150,154)" opacity="0.35"/>
<circle cx="96" cy="240" r="9" fill="rgb(48,150,154)"/>
<circle cx="120" cy="240" r="12" fill="rgb(122,140,124)" opacity="0.35"/>
<circle cx="120" cy="240" r="9" fill="rgb(122,140,124)"/>
<circle cx="144" cy="240" r="12" fill="rgb(232,168,21)" opacity="0.35"/>
<circle cx="144" cy="240" r="9" fill="rgb(232,168,21)"/>
<circle cx="168" cy="240" r="12" fill="rgb(253,103,3)" opacity="0.35"/>
<circle cx="168" cy="240" r="9" fill="rgb(253,103,3)"/>
<circle cx="192" cy="240" r="12" fill="rgb(253,72,10)" opacity="0.35"/>
<circle cx="192" cy="240" r="9" fill="rgb(253,72,10)"/>
<circle cx="216" cy="240" r="12" fill="rgb(233,131,8)" opacity="0.35"/>
<circle cx="216" cy="240" r="9" fill="rgb(233,131,8)"/>
<circle cx="240" cy="240" r="12" fill="rgb(196,188,9)" opacity="0.35"/>
<circle cx="240" cy="240" r="9" fill="rgb(196,188,9)"/>
<circle cx="264" cy="240" r="12" fill="rgb(150,219,15)" opacity="0.35"/>
<circle cx="264" cy="240" r="9" fill="rgb(150,219,15)"/>
<circle cx="288" cy="240" r="12" fill="rgb(107,233,23)" opacity="0.35"/>
<circle cx="288" cy="240" r="9" fill="rgb(107,233,23)"/>
<circle cx="312" cy="240" r="12" fill="rgb(82,235,28)" opacity="0.35"/>
<circle cx="312" cy="240" r="9" fill="rgb(82,235,28)"/>
<circle cx="336" cy="240" r="12" fill="rgb(75,233,29)" opacity="0.35"/>
<circle cx="336" cy="240" r="9" fill="rgb(75,233,29)"/>
<circle cx="360" cy="240" r="12" fill="rgb(62,216,61)" opacity="0.35"/>
<circle cx="360" cy="240" r="9" fill="rgb(62,216,61)"/>
<circle cx="384" cy="240" r="12" fill="rgb(34,185,125)" opacity="0.35"/>
<circle cx="384" cy="240" r="9" fill="rgb(34,185,125)"/>
<circle cx="24" cy="264" r="12" fill="rgb(54,212,65)" opacity="0.35"/>
<circle cx="24" cy="264" r="9" fill="rgb(54,212,65)"/>
<circle cx="48" cy="264" r="12" fill="rgb(32,227,83)" opacity="0.35"/>
<circle cx="48" cy="264" r="9" fill="rgb(32,227,83)"/>
<circle cx="72" cy="264" r="12" fill="rgb(5,241,106)" opacity="0.35"/>
<circle cx="72" cy="264" r="9" fill="rgb(5,241,106)"/>
<circle cx="96" cy="264" r="12" fill="rgb(36,238,62)" opacity="0.35"/>
<circle cx="96" cy="264" r="9" fill="rgb(36,238,62)"/>
<circle cx="120" cy="264" r="12" fill="rgb(114,248,12)" opacity="0.35"/>
<circle cx="120" cy="264" r="9" fill="rgb(114,248,12)"/>
<circle cx="144" cy="264" r="12" fill="rgb(195,230,4)" opacity="0.35"/>
<circle cx="144" cy="264" r="9" fill="rgb(195,230,4)"/>
<circle cx="168" cy="264" r="12" fill="rgb(222,182,3)" opacity="0.35"/>
<circle cx="168" cy="264" r="9" fill="rgb(222,182,3)"/>
<circle cx="192" cy="264" r="12" fill="rgb(226,173,4)" opacity="0.35"/>
<circle cx="192" cy="264" r="9" fill="rgb(226,173,4)"/>
<circle cx="216" cy="264" r="12" fill="rgb(199,193,7)" opacity="0.35"/>
<circle cx="216" cy="264" r="9" fill="rgb(199,193,7)"/>
<circle cx="240" cy="264" r="12" fill="rgb(156,220,13)" opacity="0.35"/>
<circle cx="240" cy="264" r="9" fill="rgb(156,220,13)"/>
<circle cx="264" cy="264" r="12" fill="rgb(111,234,23)" opacity="0.35"/>
<circle cx="264" cy="264" r="9" fill="rgb(111,234,23)"/>
<circle cx="288" cy="264" r="12" fill="rgb(76,237,31)" opacity="0.35"/>
<circle cx="288" cy="264" r="9" fill="rgb(76,237,31)"/>
<circle cx="312" cy="264" r="12" fill="rgb(63,235,35)" opacity="0.35"/>
<circle cx="312" cy="264" r="9" fill="rgb(63,235,35)"/>
<circle cx="336" cy="264" r="12" fill="rgb(61,231,35)" opacity="0.35"/>
<circle cx="336" cy="264" r="9" fill="rgb(61,231,35)"/>
<circle cx="360" cy="264" r="12" fill="rgb(63,228,37)" opacity="0.35"/>
<circle cx="360" cy="264" r="9" fill="rgb(63,228,37)"/>
<circle cx="384" cy="264" r="12" fill="rgb(54,211,70)" opacity="0.35"/>
<circle cx="384" cy="264" r="9" fill="rgb(54,211,70)"/>
<circle cx="24" cy="288" r="12" fill="rgb(58,218,41)" opacity="0.35"/>
<circle cx="24" cy="288" r="9" fill="rgb(58,218,41)"/>
<circle cx="48" cy="288" r="12" fill="rgb(55,219,46)" opacity="0.35"/>
<circle cx="48" cy="288" r="9" fill="rgb(55,219,46)"/>
<circle cx="72" cy="288" r="12" fill="rgb(32,234,68)" opacity="0.35"/>
<circle cx="72" cy="288" r="9" fill="rgb(32,234,68)"/>
<circle cx="96" cy="288" r="12" fill="rgb(16,247,70)" opacity="0.35"/>
<circle cx="96" cy="288" r="9" fill="rgb(16,247,70)"/>
<circle cx="120" cy="288" r="12" fill="rgb(47,250,32)" opacity="0.35"/>
<circle cx="120" cy="288" r="9" fill="rgb(47,250,32)"/>
<circle cx="144" cy="288" r="12" fill="rgb(108,246,17)" opacity="0.35"/>
<circle cx="144" cy="288" r="9" fill="rgb(108,246,17)"/>
<circle cx="168" cy="288" r="12" fill="rgb(146,234,12)" opacity="0.35"/>
<circle cx="168" cy="288" r="9" fill="rgb(146,234,12)"/>
<circle cx="192" cy="288" r="12" fill="rgb(150,231,12)" opacity="0.35"/>
<circle cx="192" cy="288" r="9" fill="rgb(150,231,12)"/>
<circle cx="216" cy="288" r="12" fill="rgb(128,235,18)" opacity="0.35"/>
<circle cx="216" cy="288" r="9" fill="rgb(128,235,18)"/>
<circle cx="240" cy="288" r="12" fill="rgb(92,240,27)" opacity="0.35"/>
<circle cx="240" cy="288" r="9" fill="rgb(92,240,27)"/>
<circle cx="264" cy="288" r="12" fill="rgb(63,239,37)" opacity="0.35"/>
<circle cx="264" cy="288" r="9" fill="rgb(63,239,37)"/>
<circle cx="288" cy="288" r="12" fill="rgb(51,232,41)" opacity="0.35"/>
<circle cx="288" cy="288" r="9" fill="rgb(51,232,41)"/>
<circle cx="312" cy="288" r="12" fill="rgb(52,224,40)" opacity="0.35"/>
<circle cx="312" cy="288" r="9" fill="rgb(52,224,40)"/>
<circle cx="336" cy="288" r="12" fill="rgb(53,220,39)" opacity="0.35"/>
<circle cx="336" cy="288" r="9" fill="rgb(53,220,39)"/>
<circle cx="360" cy="288" r="12" fill="rgb(54,220,39)" opacity="0.35"/>
<circle cx="360" cy="288" r="9" fill="rgb(54,220,39)"/>
<circle cx="384" cy="288" r="12" fill="rgb(58,221,41)" opacity="0.35"/>
<circle cx="384" cy="288" r="9" fill="rgb(58,221,41)"/>
<circle cx="24" cy="312" r="12" fill="rgb(61,204,39)" opacity="0.35"/>
<circle cx="24" cy="312" r="9" fill="rgb(61,204,39)"/>
<circle cx="48" cy="312" r="12" fill="rgb(60,206,37)" opacity="0.35"/>
<circle cx="48" cy="312" r="9" fill="rgb(60,206,37)"/>
<circle cx="72" cy="312" r="12" fill="rgb(58,212,41)" opacity="0.35"/>
<circle cx="72" cy="312" r="9" fill="rgb(58,212,41)"/>
<circle cx="96" cy="312" r="12" fill="rgb(38,227,60)" opacity="0.35"/>
<circle cx="96" cy="312" r="9" fill="rgb(38,227,60)"/>
<circle cx="120" cy="312" r="12" fill="rgb(23,241,66)" opacity="0.35"/>
<circle cx="120" cy="312" r="9" fill="rgb(23,241,66)"/>
<circle cx="144" cy="312" r="12" fill="rgb(38,247,44)" opacity="0.35"/>
<circle cx="144" cy="312" r="9" fill="rgb(38,247,44)"/>
<circle cx="168" cy="312" r="12" fill="rgb(65,246,33)" opacity="0.35"/>
<circle cx="168" cy="312" r="9" fill="rgb(65,246,33)"/>
<circle cx="192" cy="312" r="12" fill="rgb(69,246,31)" opacity="0.35"/>
<circle cx="192" cy="312" r="9" fill="rgb(69,246,31)"/>
<circle cx="216" cy="312" r="12" fill="rgb(59,244,36)" opacity="0.35"/>
<circle cx="216" cy="312" r="9" fill="rgb(59,244,36)"/>
<circle cx="240" cy="312" r="12" fill="rgb(47,238,43)" opacity="0.35"/>
<circle cx="240" cy="312" r="9" fill="rgb(47,238,43)"/>
<circle cx="264" cy="312" r="12" fill="rgb(45,228,45)" opacity="0.35"/>
<circle cx="264" cy="312" r="9" fill="rgb(45,228,45)"/>
<circle cx="288" cy="312" r="12" fill="rgb(50,215,43)" opacity="0.35"/>
<circle cx="288" cy="312" r="9" fill="rgb(50,215,43)"/>
<circle cx="312" cy="312" r="12" fill="rgb(58,204,41)" opacity="0.35"/>
<circle cx="312" cy="312" r="9" fill="rgb(58,204,41)"/>
<circle cx="336" cy="312" r="12" fill="rgb(62,199,40)" opacity="0.35"/>
<circle cx="336" cy="312" r="9" fill="rgb(62,199,40)"/>
<circle cx="360" cy="312" r="12" fill="rgb(60,201,40)" opacity="0.35"/>
<circle cx="360" cy="312" r="9" fill="rgb(60,201,40)"/>
<circle cx="384" cy="312" r="12" fill="rgb(60,208,39)" opacity="0.35"/>
<circle cx="384" cy="312" r="9" fill="rgb(60,208,39)"/>
<circle cx="24" cy="336" r="12" fill="rgb(72,184,39)" opacity="0.35"/>
<circle cx="24" cy="336" r="9" fill="rgb(72,184,39)"/>
<circle cx="48" cy="336" r="12" fill="rgb(69,186,37)" opacity="0.35"/>
<circle cx="48" cy="336" r="9" fill="rgb(69,186,37)"/>
<circle cx="72" cy="336" r="12" fill="rgb(66,195,37)" opacity="0.35"/>
<circle cx="72" cy="336" r="9" fill="rgb(66,195,37)"/>
<circle cx="96" cy="336" r="12" fill="rgb(61,206,39)" opacity="0.35"/>
<circle cx="96" cy="336" r="9" fill="rgb(61,206,39)"/>
<circle cx="120" cy="336" r="12" fill="rgb(45,221,54)" opacity="0.35"/>
<circle cx="120" cy="336" r="9" fill="rgb(45,221,54)"/>
<circle cx="144" cy="336" r="12" fill="rgb(32,234,60)" opacity="0.35"/>
<circle cx="144" cy="336" r="9" fill="rgb(32,234,60)"/>
<circle cx="168" cy="336" r="12" fill="rgb(33,238,54)" opacity="0.35"/>
<circle cx="168" cy="336" r="9" fill="rgb(33,238,54)"/>
<circle cx="192" cy="336" r="12" fill="rgb(33,239,51)" opacity="0.35"/>
<circle cx="192" cy="336" r="9" fill="rgb(33,239,51)"/>
<circle cx="216" cy="336" r="12" fill="rgb(37,234,49)" opacity="0.35"/>
<circle cx="216" cy="336" r="9" fill="rgb(37,234,49)"/>
<circle cx="240" cy="336" r="12" fill="rgb(43,224,47)" opacity="0.35"/>
<circle cx="240" cy="336" r="9" fill="rgb(43,224,47)"/>
<circle cx="264" cy="336" r="12" fill="rgb(54,208,44)" opacity="0.35"/>
<circle cx="264" cy="336" r="9" fill="rgb(54,208,44)"/>
<circle cx="288" cy="336" r="12" fill="rgb(65,192,40)" opacity="0.35"/>
<circle cx="288" cy="336" r="9" fill="rgb(65,192,40)"/>
<circle cx="312" cy="336" r="12" fill="rgb(72,182,38)" opacity="0.35"/>
<circle cx="312" cy="336" r="9" fill="rgb(72,182,38)"/>
<circle cx="336" cy="336" r="12" fill="rgb(75,179,38)" opacity="0.35"/>
<circle cx="336" cy="336" r="9" fill="rgb(75,179,38)"/>
<circle cx="360" cy="336" r="12" fill="rgb(74,180,38)" opacity="0.35"/>
<circle cx="360" cy="336" r="9" fill="rgb(74,180,38)"/>
<circle cx="384" cy="336" r="12" fill="rgb(71,188,39)" opacity="0.35"/>
<circle cx="384" cy="336" r="9" fill="rgb(71,188,39)"/>
<circle cx="24" cy="360" r="12" fill="rgb(83,167,37)" opacity="0.35"/>
<circle cx="24" cy="360" r="9" fill="rgb(83,167,37)"/>
<circle cx="48" cy="360" r="12" fill="rgb(80,169,36)" opacity="0.35"/>
<circle cx="48" cy="360" r="9" fill="rgb(80,169,36)"/>
<circle cx="72" cy="360" r="12" fill="rgb(76,176,36)" opacity="0.35"/>
<circle cx="72" cy="360" r="9" fill="rgb(76,176,36)"/>
<circle cx="96" cy="360" r="12" fill="rgb(70,188,36)" opacity="0.35"/>
<circle cx="96" cy="360" r="9" fill="rgb(70,188,36)"/>
<circle cx="120" cy="360" r="12" fill="rgb(64,199,39)" opacity="0.35"/>
<circle cx="120" cy="360" r="9" fill="rgb(64,199,39)"/>
<circle cx="144" cy="360" r="12" fill="rgb(54,213,47)" opacity="0.35"/>
<circle cx="144" cy="360" r="9" fill="rgb(54,213,47)"/>
<circle cx="168" cy="360" r="12" fill="rgb(44,220,52)" opacity="0.35"/>
<circle cx="168" cy="360" r="9" fill="rgb(44,220,52)"/>
<circle cx="192" cy="360" r="12" fill="rgb(44,220,51)" opacity="0.35"/>
<circle cx="192" cy="360" r="9" fill="rgb(44,220,51)"/>
<circle cx="216" cy="360" r="12" fill="rgb(50,214,47)" opacity="0.35"/>
<circle cx="216" cy="360" r="9" fill="rgb(50,214,47)"/>
<circle cx="240" cy="360" r="12" fill="rgb(59,202,43)" opacity="0.35"/>
<circle cx="240" cy="360" r="9" fill="rgb(59,202,43)"/>
<circle cx="264" cy="360" r="12" fill="rgb(71,183,39)" opacity="0.35"/>
<circle cx="264" cy="360" r="9" fill="rgb(71,183,39)"/>
<circle cx="288" cy="360" r="12" fill="rgb(79,173,38)" opacity="0.35"/>
<circle cx="288" cy="360" r="9" fill="rgb(79,173,38)"/>
<circle cx="312" cy="360" r="12" fill="rgb(83,166,37)" opacity="0.35"/>
<circle cx="312" cy="360" r="9" fill="rgb(83,166,37)"/>
<circle cx="336" cy="360" r="12" fill="rgb(85,165,37)" opacity="0.35"/>
<circle cx="336" cy="360" r="9" fill="rgb(85,165,37)"/>
<circle cx="360" cy="360" r="12" fill="rgb(84,165,37)" opacity="0.35"/>
<circle cx="360" cy="360" r="9" fill="rgb(84,165,37)"/>
<circle cx="384" cy="360" r="12" fill="rgb(82,170,37)" opacity="0.35"/>
<circle cx="384" cy="360" r="9" fill="rgb(82,170,37)"/>
<circle cx="24" cy="384" r="12" fill="rgb(88,159,36)" opacity="0.35"/>
<circle cx="24" cy="384" r="9" fill="rgb(88,159,36)"/>
<circle cx="48" cy="384" r="12" fill="rgb(88,160,36)" opacity="0.35"/>
<circle cx="48" cy="384" r="9" fill="rgb(88,160,36)"/>
<circle cx="72" cy="384" r="12" fill="rgb(85,164,36)" opacity="0.35"/>
<circle cx="72" cy="384" r="9" fill="rgb(85,164,36)"/>
<circle cx="96" cy="384" r="12" fill="rgb(80,171,35)" opacity="0.35"/>
<circle cx="96" cy="384" r="9" fill="rgb(80,171,35)"/>
<circle cx="120" cy="384" r="12" fill="rgb(74,181,36)" opacity="0.35"/>
<circle cx="120" cy="384" r="9" fill="rgb(74,181,36)"/>
<circle cx="144" cy="384" r="12" fill="rgb(70,192,37)" opacity="0.35"/>
<circle cx="144" cy="384" r="9" fill="rgb(70,192,37)"/>
<circle cx="168" cy="384" r="12" fill="rgb(63,199,41)" opacity="0.35"/>
<circle cx="168" cy="384" r="9" fill="rgb(63,199,41)"/>
<circle cx="192" cy="384" r="12" fill="rgb(63,199,40)" opacity="0.35"/>
<circle cx="192" cy="384" r="9" fill="rgb(63,199,40)"/>
<circle cx="216" cy="384" r="12" fill="rgb(67,191,41)" opacity="0.35"/>
<circle cx="216" cy="384" r="9" fill="rgb(67,191,41)"/>
<circle cx="240" cy="384" r="12" fill="rgb(76,178,38)" opacity="0.35"/>
<circle cx="240" cy="384" r="9" fill="rgb(76,178,38)"/>
<circle cx="264" cy="384" r="12" fill="rgb(83,167,37)" opacity="0.35"/>
<circle cx="264" cy="384" r="9" fill="rgb(83,167,37)"/>
<circle cx="288" cy="384" r="12" fill="rgb(86,163,36)" opacity="0.35"/>
<circle cx="288" cy="384" r="9" fill="rgb(86,163,36)"/>
<circle cx="312" cy="384" r="12" fill="rgb(88,160,37)" opacity="0.35"/>
<circle cx="312" cy="384" r="9" fill="rgb(88,160,37)"/>
<circle cx="336" cy="384" r="12" fill="rgb(88,160,36)" opacity="0.35"/>
<circle cx="336" cy="384" r="9" fill="rgb(88,160,36)"/>
<circle cx="360" cy="384" r="12" fill="rgb(89,159,37)" opacity="0.35"/>
<circle cx="360" cy="384" r="9" fill="rgb(89,159,37)"/>
<circle cx="384" cy="384" r="12" fill="rgb(88,160,36)" opacity="0.35"/>
<circle cx="384" cy="384" r="9" fill="rgb(88,160,36)"/>
</svg>
