<svg xmlns="http://www.w3.org/2000/svg" viewBox="0 0 408 408" width="408" height="408" role="img" aria-label="LED preview of the Comment example graph">
<rect width="408" height="408" rx="10" fill="#05070a"/>
<circle cx="24" cy="24" r="12" fill="rgb(192,236,253)" opacity="0.35"/>
<circle cx="24" cy="24" r="9" fill="rgb(192,236,253)"/>
<circle cx="48" cy="24" r="12" fill="rgb(197,237,253)" opacity="0.35"/>
<circle cx="48" cy="24" r="9" fill="rgb(197,237,253)"/>
<circle cx="72" cy="24" r="12" fill="rgb(198,238,253)" opacity="0.35"/>
<circle cx="72" cy="24" r="9" fill="rgb(198,238,253)"/>
<circle cx="96" cy="24" r="12" fill="rgb(197,237,253)" opacity="0.35"/>
<circle cx="96" cy="24" r="9" fill="rgb(197,237,253)"/>
<circle cx="120" cy="24" r="12" fill="rgb(193,236,253)" opacity="0.35"/>
<circle cx="120" cy="24" r="9" fill="rgb(193,236,253)"/>
<circle cx="144" cy="24" r="12" fill="rgb(186,234,252)" opacity="0.35"/>
<circle cx="144" cy="24" r="9" fill="rgb(186,234,252)"/>
<circle cx="168" cy="24" r="12" fill="rgb(176,231,251)" opacity="0.35"/>
<circle cx="168" cy="24" r="9" fill="rgb(176,231,251)"/>
<circle cx="192" cy="24" r="12" fill="rgb(164,227,250)" opacity="0.35"/>
<circle cx="192" cy="24" r="9" fill="rgb(164,227,250)"/>
<circle cx="216" cy="24" r="12" fill="rgb(149,223,248)" opacity="0.35"/>
<circle cx="216" cy="24" r="9" fill="rgb(149,223,248)"/>
<circle cx="240" cy="24" r="12" fill="rgb(133,218,247)" opacity="0.35"/>
<circle cx="240" cy="24" r="9" fill="rgb(133,218,247)"/>
<circle cx="264" cy="24" r="12" fill="rgb(220,244,253)" opacity="0.35"/>
<circle cx="264" cy="24" r="9" fill="rgb(220,244,253)"/>
<circle cx="288" cy="24" r="12" fill="rgb(239,250,254)" opacity="0.35"/>
<circle cx="288" cy="24" r="9" fill="rgb(239,250,254)"/>
<circle cx="312" cy="24" r="12" fill="rgb(81,199,239)" opacity="0.35"/>
<circle cx="312" cy="24" r="9" fill="rgb(81,199,239)"/>
<circle cx="336" cy="24" r="12" fill="rgb(69,189,234)" opacity="0.35"/>
<circle cx="336" cy="24" r="9" fill="rgb(69,189,234)"/>
<circle cx="360" cy="24" r="12" fill="rgb(58,180,229)" opacity="0.35"/>
<circle cx="360" cy="24" r="9" fill="rgb(58,180,229)"/>
<circle cx="384" cy="24" r="12" fill="rgb(47,171,224)" opacity="0.35"/>
<circle cx="384" cy="24" r="9" fill="rgb(47,171,224)"/>
<circle cx="24" cy="48" r="12" fill="rgb(188,235,252)" opacity="0.35"/>
<circle cx="24" cy="48" r="9" fill="rgb(188,235,252)"/>
<circle cx="48" cy="48" r="12" fill="rgb(193,236,253)" opacity="0.35"/>
<circle cx="48" cy="48" r="9" fill="rgb(193,236,253)"/>
<circle cx="72" cy="48" r="12" fill="rgb(195,237,253)" opacity="0.35"/>
<circle cx="72" cy="48" r="9" fill="rgb(195,237,253)"/>
<circle cx="96" cy="48" r="12" fill="rgb(194,236,253)" opacity="0.35"/>
<circle cx="96" cy="48" r="9" fill="rgb(194,236,253)"/>
<circle cx="120" cy="48" r="12" fill="rgb(190,235,252)" opacity="0.35"/>
<circle cx="120" cy="48" r="9" fill="rgb(190,235,252)"/>
<circle cx="144" cy="48" r="12" fill="rgb(183,233,252)" opacity="0.35"/>
<circle cx="144" cy="48" r="9" fill="rgb(183,233,252)"/>
<circle cx="168" cy="48" r="12" fill="rgb(174,230,251)" opacity="0.35"/>
<circle cx="168" cy="48" r="9" fill="rgb(174,230,251)"/>
<circle cx="192" cy="48" r="12" fill="rgb(162,227,250)" opacity="0.35"/>
<circle cx="192" cy="48" r="9" fill="rgb(162,227,250)"/>
<circle cx="216" cy="48" r="12" fill="rgb(147,222,248)" opacity="0.35"/>
<circle cx="216" cy="48" r="9" fill="rgb(147,222,248)"/>
<circle cx="240" cy="48" r="12" fill="rgb(144,221,247)" opacity="0.35"/>
<circle cx="240" cy="48" r="9" fill="rgb(144,221,247)"/>
<circle cx="264" cy="48" r="12" fill="rgb(252,254,255)" opacity="0.35"/>
<circle cx="264" cy="48" r="9" fill="rgb(252,254,255)"/>
<circle cx="288" cy="48" r="12" fill="rgb(180,232,249)" opacity="0.35"/>
<circle cx="288" cy="48" r="9" fill="rgb(180,232,249)"/>
<circle cx="312" cy="48" r="12" fill="rgb(80,198,239)" opacity="0.35"/>
<circle cx="312" cy="48" r="9" fill="rgb(80,198,239)"/>
<circle cx="336" cy="48" r="12" fill="rgb(69,189,234)" opacity="0.35"/>
<circle cx="336" cy="48" r="9" fill="rgb(69,189,234)"/>
<circle cx="360" cy="48" r="12" fill="rgb(57,180,229)" opacity="0.35"/>
<circle cx="360" cy="48" r="9" fill="rgb(57,180,229)"/>
<circle cx="384" cy="48" r="12" fill="rgb(46,171,224)" opacity="0.35"/>
<circle cx="384" cy="48" r="9" fill="rgb(46,171,224)"/>
<circle cx="24" cy="72" r="12" fill="rgb(184,233,252)" opacity="0.35"/>
<circle cx="24" cy="72" r="9" fill="rgb(184,233,252)"/>
<circle cx="48" cy="72" r="12" fill="rgb(190,235,252)" opacity="0.35"/>
<circle cx="48" cy="72" r="9" fill="rgb(190,235,252)"/>
<circle cx="72" cy="72" r="12" fill="rgb(192,236,253)" opacity="0.35"/>
<circle cx="72" cy="72" r="9" fill="rgb(192,236,253)"/>
<circle cx="96" cy="72" r="12" fill="rgb(191,235,252)" opacity="0.35"/>
<circle cx="96" cy="72" r="9" fill="rgb(191,235,252)"/>
<circle cx="120" cy="72" r="12" fill="rgb(187,234,252)" opacity="0.35"/>
<circle cx="120" cy="72" r="9" fill="rgb(187,234,252)"/>
<circle cx="144" cy="72" r="12" fill="rgb(180,232,251)" opacity="0.35"/>
<circle cx="144" cy="72" r="9" fill="rgb(180,232,251)"/>
<circle cx="168" cy="72" r="12" fill="rgb(171,229,250)" opacity="0.35"/>
<circle cx="168" cy="72" r="9" fill="rgb(171,229,250)"/>
<circle cx="192" cy="72" r="12" fill="rgb(159,226,249)" opacity="0.35"/>
<circle cx="192" cy="72" r="9" fill="rgb(159,226,249)"/>
<circle cx="216" cy="72" r="12" fill="rgb(145,222,248)" opacity="0.35"/>
<circle cx="216" cy="72" r="9" fill="rgb(145,222,248)"/>
<circle cx="240" cy="72" r="12" fill="rgb(211,242,252)" opacity="0.35"/>
<circle cx="240" cy="72" r="9" fill="rgb(211,242,252)"/>
<circle cx="264" cy="72" r="12" fill="rgb(247,253,254)" opacity="0.35"/>
<circle cx="264" cy="72" r="9" fill="rgb(247,253,254)"/>
<circle cx="288" cy="72" r="12" fill="rgb(93,206,243)" opacity="0.35"/>
<circle cx="288" cy="72" r="9" fill="rgb(93,206,243)"/>
<circle cx="312" cy="72" r="12" fill="rgb(79,198,239)" opacity="0.35"/>
<circle cx="312" cy="72" r="9" fill="rgb(79,198,239)"/>
<circle cx="336" cy="72" r="12" fill="rgb(68,189,234)" opacity="0.35"/>
<circle cx="336" cy="72" r="9" fill="rgb(68,189,234)"/>
<circle cx="360" cy="72" r="12" fill="rgb(57,179,229)" opacity="0.35"/>
<circle cx="360" cy="72" r="9" fill="rgb(57,179,229)"/>
<circle cx="384" cy="72" r="12" fill="rgb(46,170,224)" opacity="0.35"/>
<circle cx="384" cy="72" r="9" fill="rgb(46,170,224)"/>
<circle cx="24" cy="96" r="12" fill="rgb(181,232,251)" opacity="0.35"/>
<circle cx="24" cy="96" r="9" fill="rgb(181,232,251)"/>
<circle cx="48" cy="96" r="12" fill="rgb(186,234,252)" opacity="0.35"/>
<circle cx="48" cy="96" r="9" fill="rgb(186,234,252)"/>
<circle cx="72" cy="96" r="12" fill="rgb(188,235,252)" opacity="0.35"/>
<circle cx="72" cy="96" r="9" fill="rgb(188,235,252)"/>
<circle cx="96" cy="96" r="12" fill="rgb(188,234,252)" opacity="0.35"/>
<circle cx="96" cy="96" r="9" fill="rgb(188,234,252)"/>
<circle cx="120" cy="96" r="12" fill="rgb(184,233,252)" opacity="0.35"/>
<circle cx="120" cy="96" r="9" fill="rgb(184,233,252)"/>
<circle cx="144" cy="96" r="12" fill="rgb(177,231,251)" opacity="0.35"/>
<circle cx="144" cy="96" r="9" fill="rgb(177,231,251)"/>
<circle cx="168" cy="96" r="12" fill="rgb(168,229,250)" opacity="0.35"/>
<circle cx="168" cy="96" r="9" fill="rgb(168,229,250)"/>
<circle cx="192" cy="96" r="12" fill="rgb(156,225,249)" opacity="0.35"/>
<circle cx="192" cy="96" r="9" fill="rgb(156,225,249)"/>
<circle cx="216" cy="96" r="12" fill="rgb(143,221,248)" opacity="0.35"/>
<circle cx="216" cy="96" r="9" fill="rgb(143,221,248)"/>
<circle cx="240" cy="96" r="12" fill="rgb(248,253,255)" opacity="0.35"/>
<circle cx="240" cy="96" r="9" fill="rgb(248,253,255)"/>
<circle cx="264" cy="96" r="12" fill="rgb(204,240,251)" opacity="0.35"/>
<circle cx="264" cy="96" r="9" fill="rgb(204,240,251)"/>
<circle cx="288" cy="96" r="12" fill="rgb(91,205,242)" opacity="0.35"/>
<circle cx="288" cy="96" r="9" fill="rgb(91,205,242)"/>
<circle cx="312" cy="96" r="12" fill="rgb(78,197,238)" opacity="0.35"/>
<circle cx="312" cy="96" r="9" fill="rgb(78,197,238)"/>
<circle cx="336" cy="96" r="12" fill="rgb(67,188,233)" opacity="0.35"/>
<circle cx="336" cy="96" r="9" fill="rgb(67,188,233)"/>
<circle cx="360" cy="96" r="12" fill="rgb(56,179,229)" opacity="0.35"/>
<circle cx="360" cy="96" r="9" fill="rgb(56,179,229)"/>
<circle cx="384" cy="96" r="12" fill="rgb(46,170,224)" opacity="0.35"/>
<circle cx="384" cy="96" r="9" fill="rgb(46,170,224)"/>
<circle cx="24" cy="120" r="12" fill="rgb(176,231,251)" opacity="0.35"/>
<circle cx="24" cy="120" r="9" fill="rgb(176,231,251)"/>
<circle cx="48" cy="120" r="12" fill="rgb(182,233,252)" opacity="0.35"/>
<circle cx="48" cy="120" r="9" fill="rgb(182,233,252)"/>
<circle cx="72" cy="120" r="12" fill="rgb(184,233,252)" opacity="0.35"/>
<circle cx="72" cy="120" r="9" fill="rgb(184,233,252)"/>
<circle cx="96" cy="120" r="12" fill="rgb(184,233,252)" opacity="0.35"/>
<circle cx="96" cy="120" r="9" fill="rgb(184,233,252)"/>
<circle cx="120" cy="120" r="12" fill="rgb(180,232,251)" opacity="0.35"/>
<circle cx="120" cy="120" r="9" fill="rgb(180,232,251)"/>
<circle cx="144" cy="120" r="12" fill="rgb(174,230,251)" opacity="0.35"/>
<circle cx="144" cy="120" r="9" fill="rgb(174,230,251)"/>
<circle cx="168" cy="120" r="12" fill="rgb(165,228,250)" opacity="0.35"/>
<circle cx="168" cy="120" r="9" fill="rgb(165,228,250)"/>
<circle cx="192" cy="120" r="12" fill="rgb(153,224,249)" opacity="0.35"/>
<circle cx="192" cy="120" r="9" fill="rgb(153,224,249)"/>
<circle cx="216" cy="120" r="12" fill="rgb(202,239,251)" opacity="0.35"/>
<circle cx="216" cy="120" r="9" fill="rgb(202,239,251)"/>
<circle cx="240" cy="120" r="12" fill="rgb(252,254,255)" opacity="0.35"/>
<circle cx="240" cy="120" r="9" fill="rgb(252,254,255)"/>
<circle cx="264" cy="120" r="12" fill="rgb(122,214,245)" opacity="0.35"/>
<circle cx="264" cy="120" r="9" fill="rgb(122,214,245)"/>
<circle cx="288" cy="120" r="12" fill="rgb(89,205,242)" opacity="0.35"/>
<circle cx="288" cy="120" r="9" fill="rgb(89,205,242)"/>
<circle cx="312" cy="120" r="12" fill="rgb(77,196,238)" opacity="0.35"/>
<circle cx="312" cy="120" r="9" fill="rgb(77,196,238)"/>
<circle cx="336" cy="120" r="12" fill="rgb(67,187,233)" opacity="0.35"/>
<circle cx="336" cy="120" r="9" fill="rgb(67,187,233)"/>
<circle cx="360" cy="120" r="12" fill="rgb(56,178,228)" opacity="0.35"/>
<circle cx="360" cy="120" r="9" fill="rgb(56,178,228)"/>
<circle cx="384" cy="120" r="12" fill="rgb(45,169,224)" opacity="0.35"/>
<circle cx="384" cy="120" r="9" fill="rgb(45,169,224)"/>
<circle cx="24" cy="144" r="12" fill="rgb(172,230,251)" opacity="0.35"/>
<circle cx="24" cy="144" r="9" fill="rgb(172,230,251)"/>
<circle cx="48" cy="144" r="12" fill="rgb(178,231,251)" opacity="0.35"/>
<circle cx="48" cy="144" r="9" fill="rgb(178,231,251)"/>
<circle cx="72" cy="144" r="12" fill="rgb(180,232,251)" opacity="0.35"/>
<circle cx="72" cy="144" r="9" fill="rgb(180,232,251)"/>
<circle cx="96" cy="144" r="12" fill="rgb(180,232,251)" opacity="0.35"/>
<circle cx="96" cy="144" r="9" fill="rgb(180,232,251)"/>
<circle cx="120" cy="144" r="12" fill="rgb(177,231,251)" opacity="0.35"/>
<circle cx="120" cy="144" r="9" fill="rgb(177,231,251)"/>
<circle cx="144" cy="144" r="12" fill="rgb(170,229,250)" opacity="0.35"/>
<circle cx="144" cy="144" r="9" fill="rgb(170,229,250)"/>
<circle cx="168" cy="144" r="12" fill="rgb(161,227,250)" opacity="0.35"/>
<circle cx="168" cy="144" r="9" fill="rgb(161,227,250)"/>
<circle cx="192" cy="144" r="12" fill="rgb(150,223,248)" opacity="0.35"/>
<circle cx="192" cy="144" r="9" fill="rgb(150,223,248)"/>
<circle cx="216" cy="144" r="12" fill="rgb(243,251,254)" opacity="0.35"/>
<circle cx="216" cy="144" r="9" fill="rgb(243,251,254)"/>
<circle cx="240" cy="144" r="12" fill="rgb(221,245,252)" opacity="0.35"/>
<circle cx="240" cy="144" r="9" fill="rgb(221,245,252)"/>
<circle cx="264" cy="144" r="12" fill="rgb(105,209,244)" opacity="0.35"/>
<circle cx="264" cy="144" r="9" fill="rgb(105,209,244)"/>
<circle cx="288" cy="144" r="12" fill="rgb(87,204,242)" opacity="0.35"/>
<circle cx="288" cy="144" r="9" fill="rgb(87,204,242)"/>
<circle cx="312" cy="144" r="12" fill="rgb(76,195,237)" opacity="0.35"/>
<circle cx="312" cy="144" r="9" fill="rgb(76,195,237)"/>
<circle cx="336" cy="144" r="12" fill="rgb(66,186,233)" opacity="0.35"/>
<circle cx="336" cy="144" r="9" fill="rgb(66,186,233)"/>
<circle cx="360" cy="144" r="12" fill="rgb(55,177,228)" opacity="0.35"/>
<circle cx="360" cy="144" r="9" fill="rgb(55,177,228)"/>
<circle cx="384" cy="144" r="12" fill="rgb(44,169,223)" opacity="0.35"/>
<circle cx="384" cy="144" r="9" fill="rgb(44,169,223)"/>
<circle cx="24" cy="168" r="12" fill="rgb(168,228,250)" opacity="0.35"/>
<circle cx="24" cy="168" r="9" fill="rgb(168,228,250)"/>
<circle cx="48" cy="168" r="12" fill="rgb(173,230,251)" opacity="0.35"/>
<circle cx="48" cy="168" r="9" fill="rgb(173,230,251)"/>
<circle cx="72" cy="168" r="12" fill="rgb(176,231,251)" opacity="0.35"/>
<circle cx="72" cy="168" r="9" fill="rgb(176,231,251)"/>
<circle cx="96" cy="168" r="12" fill="rgb(176,231,251)" opacity="0.35"/>
<circle cx="96" cy="168" r="9" fill="rgb(176,231,251)"/>
<circle cx="120" cy="168" r="12" fill="rgb(172,230,251)" opacity="0.35"/>
<circle cx="120" cy="168" r="9" fill="rgb(172,230,251)"/>
<circle cx="144" cy="168" r="12" fill="rgb(166,228,250)" opacity="0.35"/>
<circle cx="144" cy="168" r="9" fill="rgb(166,228,250)"/>
<circle cx="168" cy="168" r="12" fill="rgb(158,225,249)" opacity="0.35"/>
<circle cx="168" cy="168" r="9" fill="rgb(158,225,249)"/>
<circle cx="192" cy="168" r="12" fill="rgb(191,236,251)" opacity="0.35"/>
<circle cx="192" cy="168" r="9" fill="rgb(191,236,251)"/>
<circle cx="216" cy="168" r="12" fill="rgb(255,255,255)" opacity="0.35"/>
<circle cx="216" cy="168" r="9" fill="rgb(255,255,255)"/>
<circle cx="240" cy="168" r="12" fill="rgb(153,225,248)" opacity="0.35"/>
<circle cx="240" cy="168" r="9" fill="rgb(153,225,248)"/>
<circle cx="264" cy="168" r="12" fill="rgb(102,208,243)" opacity="0.35"/>
<circle cx="264" cy="168" r="9" fill="rgb(102,208,243)"/>
<circle cx="288" cy="168" r="12" fill="rgb(85,203,241)" opacity="0.35"/>
<circle cx="288" cy="168" r="9" fill="rgb(85,203,241)"/>
<circle cx="312" cy="168" r="12" fill="rgb(75,194,237)" opacity="0.35"/>
<circle cx="312" cy="168" r="9" fill="rgb(75,194,237)"/>
<circle cx="336" cy="168" r="12" fill="rgb(64,185,232)" opacity="0.35"/>
<circle cx="336" cy="168" r="9" fill="rgb(64,185,232)"/>
<circle cx="360" cy="168" r="12" fill="rgb(54,177,227)" opacity="0.35"/>
<circle cx="360" cy="168" r="9" fill="rgb(54,177,227)"/>
<circle cx="384" cy="168" r="12" fill="rgb(43,168,223)" opacity="0.35"/>
<circle cx="384" cy="168" r="9" fill="rgb(43,168,223)"/>
<circle cx="24" cy="192" r="12" fill="rgb(163,227,250)" opacity="0.35"/>
<circle cx="24" cy="192" r="9" fill="rgb(163,227,250)"/>
<circle cx="48" cy="192" r="12" fill="rgb(169,229,250)" opacity="0.35"/>
<circle cx="48" cy="192" r="9" fill="rgb(169,229,250)"/>
<circle cx="72" cy="192" r="12" fill="rgb(171,230,251)" opacity="0.35"/>
<circle cx="72" cy="192" r="9" fill="rgb(171,230,251)"/>
<circle cx="96" cy="192" r="12" fill="rgb(171,229,250)" opacity="0.35"/>
<circle cx="96" cy="192" r="9" fill="rgb(171,229,250)"/>
<circle cx="120" cy="192" r="12" fill="rgb(168,229,250)" opacity="0.35"/>
<circle cx="120" cy="192" r="9" fill="rgb(168,229,250)"/>
<circle cx="144" cy="192" r="12" fill="rgb(162,227,250)" opacity="0.35"/>
<circle cx="144" cy="192" r="9" fill="rgb(162,227,250)"/>
<circle cx="168" cy="192" r="12" fill="rgb(154,224,249)" opacity="0.35"/>
<circle cx="168" cy="192" r="9" fill="rgb(154,224,249)"/>
<circle cx="192" cy="192" r="12" fill="rgb(236,249,254)" opacity="0.35"/>
<circle cx="192" cy="192" r="9" fill="rgb(236,249,254)"/>
<circle cx="216" cy="192" r="12" fill="rgb(234,249,253)" opacity="0.35"/>
<circle cx="216" cy="192" r="9" fill="rgb(234,249,253)"/>
<circle cx="240" cy="192" r="12" fill="rgb(115,213,245)" opacity="0.35"/>
<circle cx="240" cy="192" r="9" fill="rgb(115,213,245)"/>
<circle cx="264" cy="192" r="12" fill="rgb(99,208,243)" opacity="0.35"/>
<circle cx="264" cy="192" r="9" fill="rgb(99,208,243)"/>
<circle cx="288" cy="192" r="12" fill="rgb(84,201,241)" opacity="0.35"/>
<circle cx="288" cy="192" r="9" fill="rgb(84,201,241)"/>
<circle cx="312" cy="192" r="12" fill="rgb(73,193,236)" opacity="0.35"/>
<circle cx="312" cy="192" r="9" fill="rgb(73,193,236)"/>
<circle cx="336" cy="192" r="12" fill="rgb(63,184,231)" opacity="0.35"/>
<circle cx="336" cy="192" r="9" fill="rgb(63,184,231)"/>
<circle cx="360" cy="192" r="12" fill="rgb(53,176,227)" opacity="0.35"/>
<circle cx="360" cy="192" r="9" fill="rgb(53,176,227)"/>
<circle cx="384" cy="192" r="12" fill="rgb(42,167,222)" opacity="0.35"/>
<circle cx="384" cy="192" r="9" fill="rgb(42,167,222)"/>
<circle cx="24" cy="216" r="12" fill="rgb(158,225,249)" opacity="0.35"/>
<circle cx="24" cy="216" r="9" fill="rgb(158,225,249)"/>
<circle cx="48" cy="216" r="12" fill="rgb(164,227,250)" opacity="0.35"/>
<circle cx="48" cy="216" r="9" fill="rgb(164,227,250)"/>
<circle cx="72" cy="216" r="12" fill="rgb(167,228,250)" opacity="0.35"/>
<circle cx="72" cy="216" r="9" fill="rgb(167,228,250)"/>
<circle cx="96" cy="216" r="12" fill="rgb(167,228,250)" opacity="0.35"/>
<circle cx="96" cy="216" r="9" fill="rgb(167,228,250)"/>
<circle cx="120" cy="216" r="12" fill="rgb(164,227,250)" opacity="0.35"/>
<circle cx="120" cy="216" r="9" fill="rgb(164,227,250)"/>
<circle cx="144" cy="216" r="12" fill="rgb(158,225,249)" opacity="0.35"/>
<circle cx="144" cy="216" r="9" fill="rgb(158,225,249)"/>
<circle cx="168" cy="216" r="12" fill="rgb(178,231,250)" opacity="0.35"/>
<circle cx="168" cy="216" r="9" fill="rgb(178,231,250)"/>
<circle cx="192" cy="216" r="12" fill="rgb(255,255,255)" opacity="0.35"/>
<circle cx="192" cy="216" r="9" fill="rgb(255,255,255)"/>
<circle cx="216" cy="216" r="12" fill="rgb(178,232,250)" opacity="0.35"/>
<circle cx="216" cy="216" r="9" fill="rgb(178,232,250)"/>
<circle cx="240" cy="216" r="12" fill="rgb(112,211,244)" opacity="0.35"/>
<circle cx="240" cy="216" r="9" fill="rgb(112,211,244)"/>
<circle cx="264" cy="216" r="12" fill="rgb(95,207,243)" opacity="0.35"/>
<circle cx="264" cy="216" r="9" fill="rgb(95,207,243)"/>
<circle cx="288" cy="216" r="12" fill="rgb(82,200,240)" opacity="0.35"/>
<circle cx="288" cy="216" r="9" fill="rgb(82,200,240)"/>
<circle cx="312" cy="216" r="12" fill="rgb(72,192,235)" opacity="0.35"/>
<circle cx="312" cy="216" r="9" fill="rgb(72,192,235)"/>
<circle cx="336" cy="216" r="12" fill="rgb(62,183,231)" opacity="0.35"/>
<circle cx="336" cy="216" r="9" fill="rgb(62,183,231)"/>
<circle cx="360" cy="216" r="12" fill="rgb(51,175,226)" opacity="0.35"/>
<circle cx="360" cy="216" r="9" fill="rgb(51,175,226)"/>
<circle cx="384" cy="216" r="12" fill="rgb(41,166,222)" opacity="0.35"/>
<circle cx="384" cy="216" r="9" fill="rgb(41,166,222)"/>
<circle cx="24" cy="240" r="12" fill="rgb(153,224,249)" opacity="0.35"/>
<circle cx="24" cy="240" r="9" fill="rgb(153,224,249)"/>
<circle cx="48" cy="240" r="12" fill="rgb(159,226,249)" opacity="0.35"/>
<circle cx="48" cy="240" r="9" fill="rgb(159,226,249)"/>
<circle cx="72" cy="240" r="12" fill="rgb(162,227,250)" opacity="0.35"/>
<circle cx="72" cy="240" r="9" fill="rgb(162,227,250)"/>
<circle cx="96" cy="240" r="12" fill="rgb(162,227,250)" opacity="0.35"/>
<circle cx="96" cy="240" r="9" fill="rgb(162,227,250)"/>
<circle cx="120" cy="240" r="12" fill="rgb(159,226,249)" opacity="0.35"/>
<circle cx="120" cy="240" r="9" fill="rgb(159,226,249)"/>
<circle cx="144" cy="240" r="12" fill="rgb(153,224,249)" opacity="0.35"/>
<circle cx="144" cy="240" r="9" fill="rgb(153,224,249)"/>
<circle cx="168" cy="240" r="12" fill="rgb(228,247,253)" opacity="0.35"/>
<circle cx="168" cy="240" r="9" fill="rgb(228,247,253)"/>
<circle cx="192" cy="240" r="12" fill="rgb(243,251,254)" opacity="0.35"/>
<circle cx="192" cy="240" r="9" fill="rgb(243,251,254)"/>
<circle cx="216" cy="240" r="12" fill="rgb(122,215,246)" opacity="0.35"/>
<circle cx="216" cy="240" r="9" fill="rgb(122,215,246)"/>
<circle cx="240" cy="240" r="12" fill="rgb(108,210,244)" opacity="0.35"/>
<circle cx="240" cy="240" r="9" fill="rgb(108,210,244)"/>
<circle cx="264" cy="240" r="12" fill="rgb(92,205,242)" opacity="0.35"/>
<circle cx="264" cy="240" r="9" fill="rgb(92,205,242)"/>
<circle cx="288" cy="240" r="12" fill="rgb(80,198,239)" opacity="0.35"/>
<circle cx="288" cy="240" r="9" fill="rgb(80,198,239)"/>
<circle cx="312" cy="240" r="12" fill="rgb(70,190,235)" opacity="0.35"/>
<circle cx="312" cy="240" r="9" fill="rgb(70,190,235)"/>
<circle cx="336" cy="240" r="12" fill="rgb(60,182,230)" opacity="0.35"/>
<circle cx="336" cy="240" r="9" fill="rgb(60,182,230)"/>
<circle cx="360" cy="240" r="12" fill="rgb(50,173,226)" opacity="0.35"/>
<circle cx="360" cy="240" r="9" fill="rgb(50,173,226)"/>
<circle cx="384" cy="240" r="12" fill="rgb(40,165,221)" opacity="0.35"/>
<circle cx="384" cy="240" r="9" fill="rgb(40,165,221)"/>
<circle cx="24" cy="264" r="12" fill="rgb(148,222,248)" opacity="0.35"/>
<circle cx="24" cy="264" r="9" fill="rgb(148,222,248)"/>
<circle cx="48" cy="264" r="12" fill="rgb(154,224,249)" opacity="0.35"/>
<circle cx="48" cy="264" r="9" fill="rgb(154,224,249)"/>
<circle cx="72" cy="264" r="12" fill="rgb(157,225,249)" opacity="0.35"/>
<circle cx="72" cy="264" r="9" fill="rgb(157,225,249)"/>
<circle cx="96" cy="264" r="12" fill="rgb(157,225,249)" opacity="0.35"/>
<circle cx="96" cy="264" r="9" fill="rgb(157,225,249)"/>
<circle cx="120" cy="264" r="12" fill="rgb(154,224,249)" opacity="0.35"/>
<circle cx="120" cy="264" r="9" fill="rgb(154,224,249)"/>
<circle cx="144" cy="264" r="12" fill="rgb(160,226,249)" opacity="0.35"/>
<circle cx="144" cy="264" r="9" fill="rgb(160,226,249)"/>
<circle cx="168" cy="264" r="12" fill="rgb(253,254,255)" opacity="0.35"/>
<circle cx="168" cy="264" r="9" fill="rgb(253,254,255)"/>
<circle cx="192" cy="264" r="12" fill="rgb(197,237,251)" opacity="0.35"/>
<circle cx="192" cy="264" r="9" fill="rgb(197,237,251)"/>
<circle cx="216" cy="264" r="12" fill="rgb(118,213,245)" opacity="0.35"/>
<circle cx="216" cy="264" r="9" fill="rgb(118,213,245)"/>
<circle cx="240" cy="264" r="12" fill="rgb(104,209,244)" opacity="0.35"/>
<circle cx="240" cy="264" r="9" fill="rgb(104,209,244)"/>
<circle cx="264" cy="264" r="12" fill="rgb(88,204,242)" opacity="0.35"/>
<circle cx="264" cy="264" r="9" fill="rgb(88,204,242)"/>
<circle cx="288" cy="264" r="12" fill="rgb(78,197,238)" opacity="0.35"/>
<circle cx="288" cy="264" r="9" fill="rgb(78,197,238)"/>
<circle cx="312" cy="264" r="12" fill="rgb(68,189,234)" opacity="0.35"/>
<circle cx="312" cy="264" r="9" fill="rgb(68,189,234)"/>
<circle cx="336" cy="264" r="12" fill="rgb(58,180,229)" opacity="0.35"/>
<circle cx="336" cy="264" r="9" fill="rgb(58,180,229)"/>
<circle cx="360" cy="264" r="12" fill="rgb(48,172,225)" opacity="0.35"/>
<circle cx="360" cy="264" r="9" fill="rgb(48,172,225)"/>
<circle cx="384" cy="264" r="12" fill="rgb(38,164,221)" opacity="0.35"/>
<circle cx="384" cy="264" r="9" fill="rgb(38,164,221)"/>
<circle cx="24" cy="288" r="12" fill="rgb(142,221,248)" opacity="0.35"/>
<circle cx="24" cy="288" r="9" fill="rgb(142,221,248)"/>
<circle cx="48" cy="288" r="12" fill="rgb(148,223,248)" opacity="0.35"/>
<circle cx="48" cy="288" r="9" fill="rgb(148,223,248)"/>
<circle cx="72" cy="288" r="12" fill="rgb(151,223,248)" opacity="0.35"/>
<circle cx="72" cy="288" r="9" fill="rgb(151,223,248)"/>
<circle cx="96" cy="288" r="12" fill="rgb(152,224,249)" opacity="0.35"/>
<circle cx="96" cy="288" r="9" fill="rgb(152,224,249)"/>
<circle cx="120" cy="288" r="12" fill="rgb(149,223,248)" opacity="0.35"/>
<circle cx="120" cy="288" r="9" fill="rgb(149,223,248)"/>
<circle cx="144" cy="288" r="12" fill="rgb(217,243,253)" opacity="0.35"/>
<circle cx="144" cy="288" r="9" fill="rgb(217,243,253)"/>
<circle cx="168" cy="288" r="12" fill="rgb(249,253,255)" opacity="0.35"/>
<circle cx="168" cy="288" r="9" fill="rgb(249,253,255)"/>
<circle cx="192" cy="288" r="12" fill="rgb(126,216,246)" opacity="0.35"/>
<circle cx="192" cy="288" r="9" fill="rgb(126,216,246)"/>
<circle cx="216" cy="288" r="12" fill="rgb(113,212,245)" opacity="0.35"/>
<circle cx="216" cy="288" r="9" fill="rgb(113,212,245)"/>
<circle cx="240" cy="288" r="12" fill="rgb(99,208,243)" opacity="0.35"/>
<circle cx="240" cy="288" r="9" fill="rgb(99,208,243)"/>
<circle cx="264" cy="288" r="12" fill="rgb(85,203,241)" opacity="0.35"/>
<circle cx="264" cy="288" r="9" fill="rgb(85,203,241)"/>
<circle cx="288" cy="288" r="12" fill="rgb(76,195,237)" opacity="0.35"/>
<circle cx="288" cy="288" r="9" fill="rgb(76,195,237)"/>
<circle cx="312" cy="288" r="12" fill="rgb(66,187,233)" opacity="0.35"/>
<circle cx="312" cy="288" r="9" fill="rgb(66,187,233)"/>
<circle cx="336" cy="288" r="12" fill="rgb(56,179,229)" opacity="0.35"/>
<circle cx="336" cy="288" r="9" fill="rgb(56,179,229)"/>
<circle cx="360" cy="288" r="12" fill="rgb(46,171,224)" opacity="0.35"/>
<circle cx="360" cy="288" r="9" fill="rgb(46,171,224)"/>
<circle cx="384" cy="288" r="12" fill="rgb(37,163,220)" opacity="0.35"/>
<circle cx="384" cy="288" r="9" fill="rgb(37,163,220)"/>
<circle cx="24" cy="312" r="12" fill="rgb(137,219,247)" opacity="0.35"/>
<circle cx="24" cy="312" r="9" fill="rgb(137,219,247)"/>
<circle cx="48" cy="312" r="12" fill="rgb(143,221,248)" opacity="0.35"/>
<circle cx="48" cy="312" r="9" fill="rgb(143,221,248)"/>
<circle cx="72" cy="312" r="12" fill="rgb(146,222,248)" opacity="0.35"/>
<circle cx="72" cy="312" r="9" fill="rgb(146,222,248)"/>
<circle cx="96" cy="312" r="12" fill="rgb(146,222,248)" opacity="0.35"/>
<circle cx="96" cy="312" r="9" fill="rgb(146,222,248)"/>
<circle cx="120" cy="312" r="12" fill="rgb(144,221,248)" opacity="0.35"/>
<circle cx="120" cy="312" r="9" fill="rgb(144,221,248)"/>
<circle cx="144" cy="312" r="12" fill="rgb(249,253,255)" opacity="0.35"/>
<circle cx="144" cy="312" r="9" fill="rgb(249,253,255)"/>
<circle cx="168" cy="312" r="12" fill="rgb(211,242,252)" opacity="0.35"/>
<circle cx="168" cy="312" r="9" fill="rgb(211,242,252)"/>
<circle cx="192" cy="312" r="12" fill="rgb(121,214,245)" opacity="0.35"/>
<circle cx="192" cy="312" r="9" fill="rgb(121,214,245)"/>
<circle cx="216" cy="312" r="12" fill="rgb(109,211,244)" opacity="0.35"/>
<circle cx="216" cy="312" r="9" fill="rgb(109,211,244)"/>
<circle cx="240" cy="312" r="12" fill="rgb(95,206,243)" opacity="0.35"/>
<circle cx="240" cy="312" r="9" fill="rgb(95,206,243)"/>
<circle cx="264" cy="312" r="12" fill="rgb(83,201,240)" opacity="0.35"/>
<circle cx="264" cy="312" r="9" fill="rgb(83,201,240)"/>
<circle cx="288" cy="312" r="12" fill="rgb(74,193,236)" opacity="0.35"/>
<circle cx="288" cy="312" r="9" fill="rgb(74,193,236)"/>
<circle cx="312" cy="312" r="12" fill="rgb(64,185,232)" opacity="0.35"/>
<circle cx="312" cy="312" r="9" fill="rgb(64,185,232)"/>
<circle cx="336" cy="312" r="12" fill="rgb(54,177,228)" opacity="0.35"/>
<circle cx="336" cy="312" r="9" fill="rgb(54,177,228)"/>
<circle cx="360" cy="312" r="12" fill="rgb(45,169,223)" opacity="0.35"/>
<circle cx="360" cy="312" r="9" fill="rgb(45,169,223)"/>
<circle cx="384" cy="312" r="12" fill="rgb(35,161,219)" opacity="0.35"/>
<circle cx="384" cy="312" r="9" fill="rgb(35,161,219)"/>
<circle cx="24" cy="336" r="12" fill="rgb(131,217,246)" opacity="0.35"/>
<circle cx="24" cy="336" r="9" fill="rgb(131,217,246)"/>
<circle cx="48" cy="336" r="12" fill="rgb(137,219,247)" opacity="0.35"/>
<circle cx="48" cy="336" r="9" fill="rgb(137,219,247)"/>
<circle cx="72" cy="336" r="12" fill="rgb(140,220,247)" opacity="0.35"/>
<circle cx="72" cy="336" r="9" fill="rgb(140,220,247)"/>
<circle cx="96" cy="336" r="12" fill="rgb(141,220,247)" opacity="0.35"/>
<circle cx="96" cy="336" r="9" fill="rgb(141,220,247)"/>
<circle cx="120" cy="336" r="12" fill="rgb(201,239,251)" opacity="0.35"/>
<circle cx="120" cy="336" r="9" fill="rgb(201,239,251)"/>
<circle cx="144" cy="336" r="12" fill="rgb(253,254,255)" opacity="0.35"/>
<circle cx="144" cy="336" r="9" fill="rgb(253,254,255)"/>
<circle cx="168" cy="336" r="12" fill="rgb(139,220,247)" opacity="0.35"/>
<circle cx="168" cy="336" r="9" fill="rgb(139,220,247)"/>
<circle cx="192" cy="336" r="12" fill="rgb(116,213,245)" opacity="0.35"/>
<circle cx="192" cy="336" r="9" fill="rgb(116,213,245)"/>
<circle cx="216" cy="336" r="12" fill="rgb(104,209,244)" opacity="0.35"/>
<circle cx="216" cy="336" r="9" fill="rgb(104,209,244)"/>
<circle cx="240" cy="336" r="12" fill="rgb(90,205,242)" opacity="0.35"/>
<circle cx="240" cy="336" r="9" fill="rgb(90,205,242)"/>
<circle cx="264" cy="336" r="12" fill="rgb(80,199,239)" opacity="0.35"/>
<circle cx="264" cy="336" r="9" fill="rgb(80,199,239)"/>
<circle cx="288" cy="336" r="12" fill="rgb(71,191,235)" opacity="0.35"/>
<circle cx="288" cy="336" r="9" fill="rgb(71,191,235)"/>
<circle cx="312" cy="336" r="12" fill="rgb(62,183,231)" opacity="0.35"/>
<circle cx="312" cy="336" r="9" fill="rgb(62,183,231)"/>
<circle cx="336" cy="336" r="12" fill="rgb(52,175,227)" opacity="0.35"/>
<circle cx="336" cy="336" r="9" fill="rgb(52,175,227)"/>
<circle cx="360" cy="336" r="12" fill="rgb(43,168,223)" opacity="0.35"/>
<circle cx="360" cy="336" r="9" fill="rgb(43,168,223)"/>
<circle cx="384" cy="336" r="12" fill="rgb(33,160,218)" opacity="0.35"/>
<circle cx="384" cy="336" r="9" fill="rgb(33,160,218)"/>
<circle cx="24" cy="360" r="12" fill="rgb(125,216,246)" opacity="0.35"/>
<circle cx="24" cy="360" r="9" fill="rgb(125,216,246)"/>
<circle cx="48" cy="360" r="12" fill="rgb(131,217,246)" opacity="0.35"/>
<circle cx="48" cy="360" r="9" fill="rgb(131,217,246)"/>
<circle cx="72" cy="360" r="12" fill="rgb(135,218,247)" opacity="0.35"/>
<circle cx="72" cy="360" r="9" fill="rgb(135,218,247)"/>
<circle cx="96" cy="360" r="12" fill="rgb(135,219,247)" opacity="0.35"/>
<circle cx="96" cy="360" r="9" fill="rgb(135,219,247)"/>
<circle cx="120" cy="360" r="12" fill="rgb(243,251,254)" opacity="0.35"/>
<circle cx="120" cy="360" r="9" fill="rgb(243,251,254)"/>
<circle cx="144" cy="360" r="12" fill="rgb(223,245,253)" opacity="0.35"/>
<circle cx="144" cy="360" r="9" fill="rgb(223,245,253)"/>
<circle cx="168" cy="360" r="12" fill="rgb(120,214,245)" opacity="0.35"/>
<circle cx="168" cy="360" r="9" fill="rgb(120,214,245)"/>
<circle cx="192" cy="360" r="12" fill="rgb(111,211,244)" opacity="0.35"/>
<circle cx="192" cy="360" r="9" fill="rgb(111,211,244)"/>
<circle cx="216" cy="360" r="12" fill="rgb(99,208,243)" opacity="0.35"/>
<circle cx="216" cy="360" r="9" fill="rgb(99,208,243)"/>
<circle cx="240" cy="360" r="12" fill="rgb(86,203,242)" opacity="0.35"/>
<circle cx="240" cy="360" r="9" fill="rgb(86,203,242)"/>
<circle cx="264" cy="360" r="12" fill="rgb(78,196,238)" opacity="0.35"/>
<circle cx="264" cy="360" r="9" fill="rgb(78,196,238)"/>
<circle cx="288" cy="360" r="12" fill="rgb(69,189,234)" opacity="0.35"/>
<circle cx="288" cy="360" r="9" fill="rgb(69,189,234)"/>
<circle cx="312" cy="360" r="12" fill="rgb(59,181,230)" opacity="0.35"/>
<circle cx="312" cy="360" r="9" fill="rgb(59,181,230)"/>
<circle cx="336" cy="360" r="12" fill="rgb(50,174,226)" opacity="0.35"/>
<circle cx="336" cy="360" r="9" fill="rgb(50,174,226)"/>
<circle cx="360" cy="360" r="12" fill="rgb(40,166,222)" opacity="0.35"/>
<circle cx="360" cy="360" r="9" fill="rgb(40,166,222)"/>
<circle cx="384" cy="360" r="12" fill="rgb(31,158,218)" opacity="0.35"/>
<circle cx="384" cy="360" r="9" fill="rgb(31,158,218)"/>
<circle cx="24" cy="384" r="12" fill="rgb(120,214,245)" opacity="0.35"/>
<circle cx="24" cy="384" r="9" fill="rgb(120,214,245)"/>
<circle cx="48" cy="384" r="12" fill="rgb(126,216,246)" opacity="0.35"/>
<circle cx="48" cy="384" r="9" fill="rgb(126,216,246)"/>
<circle cx="72" cy="384" r="12" fill="rgb(129,217,246)" opacity="0.35"/>
<circle cx="72" cy="384" r="9" fill="rgb(129,217,246)"/>
<circle cx="96" cy="384" r="12" fill="rgb(181,233,250)" opacity="0.35"/>
<circle cx="96" cy="384" r="9" fill="rgb(181,233,250)"/>
<circle cx="120" cy="384" r="12" fill="rgb(255,255,255)" opacity="0.35"/>
<circle cx="120" cy="384" r="9" fill="rgb(255,255,255)"/>
<circle cx="144" cy="384" r="12" fill="rgb(156,225,248)" opacity="0.35"/>
<circle cx="144" cy="384" r="9" fill="rgb(156,225,248)"/>
<circle cx="168" cy="384" r="12" fill="rgb(115,212,245)" opacity="0.35"/>
<circle cx="168" cy="384" r="9" fill="rgb(115,212,245)"/>
<circle cx="192" cy="384" r="12" fill="rgb(105,210,244)" opacity="0.35"/>
<circle cx="192" cy="384" r="9" fill="rgb(105,210,244)"/>
<circle cx="216" cy="384" r="12" fill="rgb(94,206,243)" opacity="0.35"/>
<circle cx="216" cy="384" r="9" fill="rgb(94,206,243)"/>
<circle cx="240" cy="384" r="12" fill="rgb(83,201,240)" opacity="0.35"/>
<circle cx="240" cy="384" r="9" fill="rgb(83,201,240)"/>
<circle cx="264" cy="384" r="12" fill="rgb(75,194,237)" opacity="0.35"/>
<circle cx="264" cy="384" r="9" fill="rgb(75,194,237)"/>
<circle cx="288" cy="384" r="12" fill="rgb(66,187,233)" opacity="0.35"/>
<circle cx="288" cy="384" r="9" fill="rgb(66,187,233)"/>
<circle cx="312" cy="384" r="12" fill="rgb(57,179,229)" opacity="0.35"/>
<circle cx="312" cy="384" r="9" fill="rgb(57,179,229)"/>
<circle cx="336" cy="384" r="12" fill="rgb(48,172,225)" opacity="0.35"/>
<circle cx="336" cy="384" r="9" fill="rgb(48,172,225)"/>
<circle cx="360" cy="384" r="12" fill="rgb(38,164,221)" opacity="0.35"/>
<circle cx="360" cy="384" r="9" fill="rgb(38,164,221)"/>
<circle cx="384" cy="384" r="12" fill="rgb(29,157,217)" opacity="0.35"/>
<circle cx="384" cy="384" r="9" fill="rgb(29,157,217)"/>
</svg>
