<svg xmlns="http://www.w3.org/2000/svg" viewBox="0 0 408 408" width="408" height="408" role="img" aria-label="LED preview of the Ember Pulse example graph">
<rect width="408" height="408" rx="10" fill="#05070a"/>
<circle cx="24" cy="24" r="12" fill="rgb(20,0,0)" opacity="0.35"/>
<circle cx="24" cy="24" r="9" fill="rgb(20,0,0)"/>
<circle cx="48" cy="24" r="12" fill="rgb(56,0,0)" opacity="0.35"/>
<circle cx="48" cy="24" r="9" fill="rgb(56,0,0)"/>
<circle cx="72" cy="24" r="12" fill="rgb(128,0,0)" opacity="0.35"/>
<circle cx="72" cy="24" r="9" fill="rgb(128,0,0)"/>
<circle cx="96" cy="24" r="12" fill="rgb(228,0,0)" opacity="0.35"/>
<circle cx="96" cy="24" r="9" fill="rgb(228,0,0)"/>
<circle cx="120" cy="24" r="12" fill="rgb(255,36,0)" opacity="0.35"/>
<circle cx="120" cy="24" r="9" fill="rgb(255,36,0)"/>
<circle cx="144" cy="24" r="12" fill="rgb(255,20,0)" opacity="0.35"/>
<circle cx="144" cy="24" r="9" fill="rgb(255,20,0)"/>
<circle cx="168" cy="24" r="12" fill="rgb(240,0,0)" opacity="0.35"/>
<circle cx="168" cy="24" r="9" fill="rgb(240,0,0)"/>
<circle cx="192" cy="24" r="12" fill="rgb(196,0,0)" opacity="0.35"/>
<circle cx="192" cy="24" r="9" fill="rgb(196,0,0)"/>
<circle cx="216" cy="24" r="12" fill="rgb(232,0,0)" opacity="0.35"/>
<circle cx="216" cy="24" r="9" fill="rgb(232,0,0)"/>
<circle cx="240" cy="24" r="12" fill="rgb(255,32,0)" opacity="0.35"/>
<circle cx="240" cy="24" r="9" fill="rgb(255,32,0)"/>
<circle cx="264" cy="24" r="12" fill="rgb(255,24,0)" opacity="0.35"/>
<circle cx="264" cy="24" r="9" fill="rgb(255,24,0)"/>
<circle cx="288" cy="24" r="12" fill="rgb(255,4,0)" opacity="0.35"/>
<circle cx="288" cy="24" r="9" fill="rgb(255,4,0)"/>
<circle cx="312" cy="24" r="12" fill="rgb(200,0,0)" opacity="0.35"/>
<circle cx="312" cy="24" r="9" fill="rgb(200,0,0)"/>
<circle cx="336" cy="24" r="12" fill="rgb(120,0,0)" opacity="0.35"/>
<circle cx="336" cy="24" r="9" fill="rgb(120,0,0)"/>
<circle cx="360" cy="24" r="12" fill="rgb(68,0,0)" opacity="0.35"/>
<circle cx="360" cy="24" r="9" fill="rgb(68,0,0)"/>
<circle cx="384" cy="24" r="12" fill="rgb(24,0,0)" opacity="0.35"/>
<circle cx="384" cy="24" r="9" fill="rgb(24,0,0)"/>
<circle cx="24" cy="48" r="12" fill="rgb(36,0,0)" opacity="0.35"/>
<circle cx="24" cy="48" r="9" fill="rgb(36,0,0)"/>
<circle cx="48" cy="48" r="12" fill="rgb(72,0,0)" opacity="0.35"/>
<circle cx="48" cy="48" r="9" fill="rgb(72,0,0)"/>
<circle cx="72" cy="48" r="12" fill="rgb(140,0,0)" opacity="0.35"/>
<circle cx="72" cy="48" r="9" fill="rgb(140,0,0)"/>
<circle cx="96" cy="48" r="12" fill="rgb(236,0,0)" opacity="0.35"/>
<circle cx="96" cy="48" r="9" fill="rgb(236,0,0)"/>
<circle cx="120" cy="48" r="12" fill="rgb(255,48,0)" opacity="0.35"/>
<circle cx="120" cy="48" r="9" fill="rgb(255,48,0)"/>
<circle cx="144" cy="48" r="12" fill="rgb(255,44,0)" opacity="0.35"/>
<circle cx="144" cy="48" r="9" fill="rgb(255,44,0)"/>
<circle cx="168" cy="48" r="9" fill="#14171c"/>
<circle cx="192" cy="48" r="12" fill="rgb(204,0,0)" opacity="0.35"/>
<circle cx="192" cy="48" r="9" fill="rgb(204,0,0)"/>
<circle cx="216" cy="48" r="12" fill="rgb(236,0,0)" opacity="0.35"/>
<circle cx="216" cy="48" r="9" fill="rgb(236,0,0)"/>
<circle cx="240" cy="48" r="12" fill="rgb(255,44,0)" opacity="0.35"/>
<circle cx="240" cy="48" r="9" fill="rgb(255,44,0)"/>
<circle cx="264" cy="48" r="12" fill="rgb(255,40,0)" opacity="0.35"/>
<circle cx="264" cy="48" r="9" fill="rgb(255,40,0)"/>
<circle cx="288" cy="48" r="12" fill="rgb(255,24,0)" opacity="0.35"/>
<circle cx="288" cy="48" r="9" fill="rgb(255,24,0)"/>
<circle cx="312" cy="48" r="12" fill="rgb(216,0,0)" opacity="0.35"/>
<circle cx="312" cy="48" r="9" fill="rgb(216,0,0)"/>
<circle cx="336" cy="48" r="12" fill="rgb(132,0,0)" opacity="0.35"/>
<circle cx="336" cy="48" r="9" fill="rgb(132,0,0)"/>
<circle cx="360" cy="48" r="12" fill="rgb(80,0,0)" opacity="0.35"/>
<circle cx="360" cy="48" r="9" fill="rgb(80,0,0)"/>
<circle cx="384" cy="48" r="12" fill="rgb(40,0,0)" opacity="0.35"/>
<circle cx="384" cy="48" r="9" fill="rgb(40,0,0)"/>
<circle cx="24" cy="72" r="12" fill="rgb(52,0,0)" opacity="0.35"/>
<circle cx="24" cy="72" r="9" fill="rgb(52,0,0)"/>
<circle cx="48" cy="72" r="12" fill="rgb(84,0,0)" opacity="0.35"/>
<circle cx="48" cy="72" r="9" fill="rgb(84,0,0)"/>
<circle cx="72" cy="72" r="12" fill="rgb(152,0,0)" opacity="0.35"/>
<circle cx="72" cy="72" r="9" fill="rgb(152,0,0)"/>
<circle cx="96" cy="72" r="12" fill="rgb(244,0,0)" opacity="0.35"/>
<circle cx="96" cy="72" r="9" fill="rgb(244,0,0)"/>
<circle cx="120" cy="72" r="12" fill="rgb(255,60,0)" opacity="0.35"/>
<circle cx="120" cy="72" r="9" fill="rgb(255,60,0)"/>
<circle cx="144" cy="72" r="12" fill="rgb(255,64,0)" opacity="0.35"/>
<circle cx="144" cy="72" r="9" fill="rgb(255,64,0)"/>
<circle cx="168" cy="72" r="12" fill="rgb(255,20,0)" opacity="0.35"/>
<circle cx="168" cy="72" r="9" fill="rgb(255,20,0)"/>
<circle cx="192" cy="72" r="12" fill="rgb(216,0,0)" opacity="0.35"/>
<circle cx="192" cy="72" r="9" fill="rgb(216,0,0)"/>
<circle cx="216" cy="72" r="12" fill="rgb(240,0,0)" opacity="0.35"/>
<circle cx="216" cy="72" r="9" fill="rgb(240,0,0)"/>
<circle cx="240" cy="72" r="12" fill="rgb(255,52,0)" opacity="0.35"/>
<circle cx="240" cy="72" r="9" fill="rgb(255,52,0)"/>
<circle cx="264" cy="72" r="12" fill="rgb(255,56,0)" opacity="0.35"/>
<circle cx="264" cy="72" r="9" fill="rgb(255,56,0)"/>
<circle cx="288" cy="72" r="12" fill="rgb(255,44,0)" opacity="0.35"/>
<circle cx="288" cy="72" r="9" fill="rgb(255,44,0)"/>
<circle cx="312" cy="72" r="12" fill="rgb(232,0,0)" opacity="0.35"/>
<circle cx="312" cy="72" r="9" fill="rgb(232,0,0)"/>
<circle cx="336" cy="72" r="12" fill="rgb(144,0,0)" opacity="0.35"/>
<circle cx="336" cy="72" r="9" fill="rgb(144,0,0)"/>
<circle cx="360" cy="72" r="12" fill="rgb(92,0,0)" opacity="0.35"/>
<circle cx="360" cy="72" r="9" fill="rgb(92,0,0)"/>
<circle cx="384" cy="72" r="12" fill="rgb(60,0,0)" opacity="0.35"/>
<circle cx="384" cy="72" r="9" fill="rgb(60,0,0)"/>
<circle cx="24" cy="96" r="12" fill="rgb(68,0,0)" opacity="0.35"/>
<circle cx="24" cy="96" r="9" fill="rgb(68,0,0)"/>
<circle cx="48" cy="96" r="12" fill="rgb(100,0,0)" opacity="0.35"/>
<circle cx="48" cy="96" r="9" fill="rgb(100,0,0)"/>
<circle cx="72" cy="96" r="12" fill="rgb(164,0,0)" opacity="0.35"/>
<circle cx="72" cy="96" r="9" fill="rgb(164,0,0)"/>
<circle cx="96" cy="96" r="12" fill="rgb(248,0,0)" opacity="0.35"/>
<circle cx="96" cy="96" r="9" fill="rgb(248,0,0)"/>
<circle cx="120" cy="96" r="12" fill="rgb(255,68,0)" opacity="0.35"/>
<circle cx="120" cy="96" r="9" fill="rgb(255,68,0)"/>
<circle cx="144" cy="96" r="12" fill="rgb(255,80,0)" opacity="0.35"/>
<circle cx="144" cy="96" r="9" fill="rgb(255,80,0)"/>
<circle cx="168" cy="96" r="12" fill="rgb(255,44,0)" opacity="0.35"/>
<circle cx="168" cy="96" r="9" fill="rgb(255,44,0)"/>
<circle cx="192" cy="96" r="12" fill="rgb(232,0,0)" opacity="0.35"/>
<circle cx="192" cy="96" r="9" fill="rgb(232,0,0)"/>
<circle cx="216" cy="96" r="12" fill="rgb(248,0,0)" opacity="0.35"/>
<circle cx="216" cy="96" r="9" fill="rgb(248,0,0)"/>
<circle cx="240" cy="96" r="12" fill="rgb(255,56,0)" opacity="0.35"/>
<circle cx="240" cy="96" r="9" fill="rgb(255,56,0)"/>
<circle cx="264" cy="96" r="12" fill="rgb(255,68,0)" opacity="0.35"/>
<circle cx="264" cy="96" r="9" fill="rgb(255,68,0)"/>
<circle cx="288" cy="96" r="12" fill="rgb(255,68,0)" opacity="0.35"/>
<circle cx="288" cy="96" r="9" fill="rgb(255,68,0)"/>
<circle cx="312" cy="96" r="12" fill="rgb(252,0,0)" opacity="0.35"/>
<circle cx="312" cy="96" r="9" fill="rgb(252,0,0)"/>
<circle cx="336" cy="96" r="12" fill="rgb(156,0,0)" opacity="0.35"/>
<circle cx="336" cy="96" r="9" fill="rgb(156,0,0)"/>
<circle cx="360" cy="96" r="12" fill="rgb(104,0,0)" opacity="0.35"/>
<circle cx="360" cy="96" r="9" fill="rgb(104,0,0)"/>
<circle cx="384" cy="96" r="12" fill="rgb(76,0,0)" opacity="0.35"/>
<circle cx="384" cy="96" r="9" fill="rgb(76,0,0)"/>
<circle cx="24" cy="120" r="12" fill="rgb(88,0,0)" opacity="0.35"/>
<circle cx="24" cy="120" r="9" fill="rgb(88,0,0)"/>
<circle cx="48" cy="120" r="12" fill="rgb(120,0,0)" opacity="0.35"/>
<circle cx="48" cy="120" r="9" fill="rgb(120,0,0)"/>
<circle cx="72" cy="120" r="12" fill="rgb(176,0,0)" opacity="0.35"/>
<circle cx="72" cy="120" r="9" fill="rgb(176,0,0)"/>
<circle cx="96" cy="120" r="9" fill="#14171c"/>
<circle cx="120" cy="120" r="12" fill="rgb(255,72,0)" opacity="0.35"/>
<circle cx="120" cy="120" r="9" fill="rgb(255,72,0)"/>
<circle cx="144" cy="120" r="12" fill="rgb(255,96,0)" opacity="0.35"/>
<circle cx="144" cy="120" r="9" fill="rgb(255,96,0)"/>
<circle cx="168" cy="120" r="12" fill="rgb(255,64,0)" opacity="0.35"/>
<circle cx="168" cy="120" r="9" fill="rgb(255,64,0)"/>
<circle cx="192" cy="120" r="12" fill="rgb(244,0,0)" opacity="0.35"/>
<circle cx="192" cy="120" r="9" fill="rgb(244,0,0)"/>
<circle cx="216" cy="120" r="12" fill="rgb(252,0,0)" opacity="0.35"/>
<circle cx="216" cy="120" r="9" fill="rgb(252,0,0)"/>
<circle cx="240" cy="120" r="12" fill="rgb(255,60,0)" opacity="0.35"/>
<circle cx="240" cy="120" r="9" fill="rgb(255,60,0)"/>
<circle cx="264" cy="120" r="12" fill="rgb(255,80,0)" opacity="0.35"/>
<circle cx="264" cy="120" r="9" fill="rgb(255,80,0)"/>
<circle cx="288" cy="120" r="12" fill="rgb(255,88,0)" opacity="0.35"/>
<circle cx="288" cy="120" r="9" fill="rgb(255,88,0)"/>
<circle cx="312" cy="120" r="12" fill="rgb(255,16,0)" opacity="0.35"/>
<circle cx="312" cy="120" r="9" fill="rgb(255,16,0)"/>
<circle cx="336" cy="120" r="12" fill="rgb(168,0,0)" opacity="0.35"/>
<circle cx="336" cy="120" r="9" fill="rgb(168,0,0)"/>
<circle cx="360" cy="120" r="12" fill="rgb(116,0,0)" opacity="0.35"/>
<circle cx="360" cy="120" r="9" fill="rgb(116,0,0)"/>
<circle cx="384" cy="120" r="12" fill="rgb(88,0,0)" opacity="0.35"/>
<circle cx="384" cy="120" r="9" fill="rgb(88,0,0)"/>
<circle cx="24" cy="144" r="12" fill="rgb(104,0,0)" opacity="0.35"/>
<circle cx="24" cy="144" r="9" fill="rgb(104,0,0)"/>
<circle cx="48" cy="144" r="12" fill="rgb(136,0,0)" opacity="0.35"/>
<circle cx="48" cy="144" r="9" fill="rgb(136,0,0)"/>
<circle cx="72" cy="144" r="12" fill="rgb(192,0,0)" opacity="0.35"/>
<circle cx="72" cy="144" r="9" fill="rgb(192,0,0)"/>
<circle cx="96" cy="144" r="12" fill="rgb(255,4,0)" opacity="0.35"/>
<circle cx="96" cy="144" r="9" fill="rgb(255,4,0)"/>
<circle cx="120" cy="144" r="12" fill="rgb(255,72,0)" opacity="0.35"/>
<circle cx="120" cy="144" r="9" fill="rgb(255,72,0)"/>
<circle cx="144" cy="144" r="12" fill="rgb(255,112,0)" opacity="0.35"/>
<circle cx="144" cy="144" r="9" fill="rgb(255,112,0)"/>
<circle cx="168" cy="144" r="12" fill="rgb(255,88,0)" opacity="0.35"/>
<circle cx="168" cy="144" r="9" fill="rgb(255,88,0)"/>
<circle cx="192" cy="144" r="12" fill="rgb(255,8,0)" opacity="0.35"/>
<circle cx="192" cy="144" r="9" fill="rgb(255,8,0)"/>
<circle cx="216" cy="144" r="12" fill="rgb(255,8,0)" opacity="0.35"/>
<circle cx="216" cy="144" r="9" fill="rgb(255,8,0)"/>
<circle cx="240" cy="144" r="12" fill="rgb(255,64,0)" opacity="0.35"/>
<circle cx="240" cy="144" r="9" fill="rgb(255,64,0)"/>
<circle cx="264" cy="144" r="12" fill="rgb(255,84,0)" opacity="0.35"/>
<circle cx="264" cy="144" r="9" fill="rgb(255,84,0)"/>
<circle cx="288" cy="144" r="12" fill="rgb(255,104,0)" opacity="0.35"/>
<circle cx="288" cy="144" r="9" fill="rgb(255,104,0)"/>
<circle cx="312" cy="144" r="12" fill="rgb(255,40,0)" opacity="0.35"/>
<circle cx="312" cy="144" r="9" fill="rgb(255,40,0)"/>
<circle cx="336" cy="144" r="12" fill="rgb(184,0,0)" opacity="0.35"/>
<circle cx="336" cy="144" r="9" fill="rgb(184,0,0)"/>
<circle cx="360" cy="144" r="12" fill="rgb(124,0,0)" opacity="0.35"/>
<circle cx="360" cy="144" r="9" fill="rgb(124,0,0)"/>
<circle cx="384" cy="144" r="12" fill="rgb(104,0,0)" opacity="0.35"/>
<circle cx="384" cy="144" r="9" fill="rgb(104,0,0)"/>
<circle cx="24" cy="168" r="12" fill="rgb(124,0,0)" opacity="0.35"/>
<circle cx="24" cy="168" r="9" fill="rgb(124,0,0)"/>
<circle cx="48" cy="168" r="12" fill="rgb(156,0,0)" opacity="0.35"/>
<circle cx="48" cy="168" r="9" fill="rgb(156,0,0)"/>
<circle cx="72" cy="168" r="12" fill="rgb(212,0,0)" opacity="0.35"/>
<circle cx="72" cy="168" r="9" fill="rgb(212,0,0)"/>
<circle cx="96" cy="168" r="12" fill="rgb(255,12,0)" opacity="0.35"/>
<circle cx="96" cy="168" r="9" fill="rgb(255,12,0)"/>
<circle cx="120" cy="168" r="12" fill="rgb(255,76,0)" opacity="0.35"/>
<circle cx="120" cy="168" r="9" fill="rgb(255,76,0)"/>
<circle cx="144" cy="168" r="12" fill="rgb(255,124,0)" opacity="0.35"/>
<circle cx="144" cy="168" r="9" fill="rgb(255,124,0)"/>
<circle cx="168" cy="168" r="12" fill="rgb(255,108,0)" opacity="0.35"/>
<circle cx="168" cy="168" r="9" fill="rgb(255,108,0)"/>
<circle cx="192" cy="168" r="12" fill="rgb(255,28,0)" opacity="0.35"/>
<circle cx="192" cy="168" r="9" fill="rgb(255,28,0)"/>
<circle cx="216" cy="168" r="12" fill="rgb(255,16,0)" opacity="0.35"/>
<circle cx="216" cy="168" r="9" fill="rgb(255,16,0)"/>
<circle cx="240" cy="168" r="12" fill="rgb(255,68,0)" opacity="0.35"/>
<circle cx="240" cy="168" r="9" fill="rgb(255,68,0)"/>
<circle cx="264" cy="168" r="12" fill="rgb(255,92,0)" opacity="0.35"/>
<circle cx="264" cy="168" r="9" fill="rgb(255,92,0)"/>
<circle cx="288" cy="168" r="12" fill="rgb(255,120,0)" opacity="0.35"/>
<circle cx="288" cy="168" r="9" fill="rgb(255,120,0)"/>
<circle cx="312" cy="168" r="12" fill="rgb(255,60,0)" opacity="0.35"/>
<circle cx="312" cy="168" r="9" fill="rgb(255,60,0)"/>
<circle cx="336" cy="168" r="12" fill="rgb(200,0,0)" opacity="0.35"/>
<circle cx="336" cy="168" r="9" fill="rgb(200,0,0)"/>
<circle cx="360" cy="168" r="12" fill="rgb(136,0,0)" opacity="0.35"/>
<circle cx="360" cy="168" r="9" fill="rgb(136,0,0)"/>
<circle cx="384" cy="168" r="12" fill="rgb(116,0,0)" opacity="0.35"/>
<circle cx="384" cy="168" r="9" fill="rgb(116,0,0)"/>
<circle cx="24" cy="192" r="12" fill="rgb(140,0,0)" opacity="0.35"/>
<circle cx="24" cy="192" r="9" fill="rgb(140,0,0)"/>
<circle cx="48" cy="192" r="12" fill="rgb(176,0,0)" opacity="0.35"/>
<circle cx="48" cy="192" r="9" fill="rgb(176,0,0)"/>
<circle cx="72" cy="192" r="12" fill="rgb(228,0,0)" opacity="0.35"/>
<circle cx="72" cy="192" r="9" fill="rgb(228,0,0)"/>
<circle cx="96" cy="192" r="12" fill="rgb(255,20,0)" opacity="0.35"/>
<circle cx="96" cy="192" r="9" fill="rgb(255,20,0)"/>
<circle cx="120" cy="192" r="12" fill="rgb(255,76,0)" opacity="0.35"/>
<circle cx="120" cy="192" r="9" fill="rgb(255,76,0)"/>
<circle cx="144" cy="192" r="12" fill="rgb(255,132,0)" opacity="0.35"/>
<circle cx="144" cy="192" r="9" fill="rgb(255,132,0)"/>
<circle cx="168" cy="192" r="12" fill="rgb(255,132,0)" opacity="0.35"/>
<circle cx="168" cy="192" r="9" fill="rgb(255,132,0)"/>
<circle cx="192" cy="192" r="12" fill="rgb(255,48,0)" opacity="0.35"/>
<circle cx="192" cy="192" r="9" fill="rgb(255,48,0)"/>
<circle cx="216" cy="192" r="12" fill="rgb(255,32,0)" opacity="0.35"/>
<circle cx="216" cy="192" r="9" fill="rgb(255,32,0)"/>
<circle cx="240" cy="192" r="12" fill="rgb(255,72,0)" opacity="0.35"/>
<circle cx="240" cy="192" r="9" fill="rgb(255,72,0)"/>
<circle cx="264" cy="192" r="12" fill="rgb(255,92,0)" opacity="0.35"/>
<circle cx="264" cy="192" r="9" fill="rgb(255,92,0)"/>
<circle cx="288" cy="192" r="12" fill="rgb(255,132,0)" opacity="0.35"/>
<circle cx="288" cy="192" r="9" fill="rgb(255,132,0)"/>
<circle cx="312" cy="192" r="12" fill="rgb(255,84,0)" opacity="0.35"/>
<circle cx="312" cy="192" r="9" fill="rgb(255,84,0)"/>
<circle cx="336" cy="192" r="12" fill="rgb(220,0,0)" opacity="0.35"/>
<circle cx="336" cy="192" r="9" fill="rgb(220,0,0)"/>
<circle cx="360" cy="192" r="12" fill="rgb(148,0,0)" opacity="0.35"/>
<circle cx="360" cy="192" r="9" fill="rgb(148,0,0)"/>
<circle cx="384" cy="192" r="12" fill="rgb(128,0,0)" opacity="0.35"/>
<circle cx="384" cy="192" r="9" fill="rgb(128,0,0)"/>
<circle cx="24" cy="216" r="12" fill="rgb(156,0,0)" opacity="0.35"/>
<circle cx="24" cy="216" r="9" fill="rgb(156,0,0)"/>
<circle cx="48" cy="216" r="12" fill="rgb(196,0,0)" opacity="0.35"/>
<circle cx="48" cy="216" r="9" fill="rgb(196,0,0)"/>
<circle cx="72" cy="216" r="12" fill="rgb(252,0,0)" opacity="0.35"/>
<circle cx="72" cy="216" r="9" fill="rgb(252,0,0)"/>
<circle cx="96" cy="216" r="12" fill="rgb(255,32,0)" opacity="0.35"/>
<circle cx="96" cy="216" r="9" fill="rgb(255,32,0)"/>
<circle cx="120" cy="216" r="12" fill="rgb(255,72,0)" opacity="0.35"/>
<circle cx="120" cy="216" r="9" fill="rgb(255,72,0)"/>
<circle cx="144" cy="216" r="12" fill="rgb(255,136,0)" opacity="0.35"/>
<circle cx="144" cy="216" r="9" fill="rgb(255,136,0)"/>
<circle cx="168" cy="216" r="12" fill="rgb(255,148,0)" opacity="0.35"/>
<circle cx="168" cy="216" r="9" fill="rgb(255,148,0)"/>
<circle cx="192" cy="216" r="12" fill="rgb(255,72,0)" opacity="0.35"/>
<circle cx="192" cy="216" r="9" fill="rgb(255,72,0)"/>
<circle cx="216" cy="216" r="12" fill="rgb(255,48,0)" opacity="0.35"/>
<circle cx="216" cy="216" r="9" fill="rgb(255,48,0)"/>
<circle cx="240" cy="216" r="12" fill="rgb(255,76,0)" opacity="0.35"/>
<circle cx="240" cy="216" r="9" fill="rgb(255,76,0)"/>
<circle cx="264" cy="216" r="12" fill="rgb(255,96,0)" opacity="0.35"/>
<circle cx="264" cy="216" r="9" fill="rgb(255,96,0)"/>
<circle cx="288" cy="216" r="12" fill="rgb(255,144,0)" opacity="0.35"/>
<circle cx="288" cy="216" r="9" fill="rgb(255,144,0)"/>
<circle cx="312" cy="216" r="12" fill="rgb(255,108,0)" opacity="0.35"/>
<circle cx="312" cy="216" r="9" fill="rgb(255,108,0)"/>
<circle cx="336" cy="216" r="12" fill="rgb(240,0,0)" opacity="0.35"/>
<circle cx="336" cy="216" r="9" fill="rgb(240,0,0)"/>
<circle cx="360" cy="216" r="12" fill="rgb(160,0,0)" opacity="0.35"/>
<circle cx="360" cy="216" r="9" fill="rgb(160,0,0)"/>
<circle cx="384" cy="216" r="12" fill="rgb(140,0,0)" opacity="0.35"/>
<circle cx="384" cy="216" r="9" fill="rgb(140,0,0)"/>
<circle cx="24" cy="240" r="12" fill="rgb(172,0,0)" opacity="0.35"/>
<circle cx="24" cy="240" r="9" fill="rgb(172,0,0)"/>
<circle cx="48" cy="240" r="12" fill="rgb(216,0,0)" opacity="0.35"/>
<circle cx="48" cy="240" r="9" fill="rgb(216,0,0)"/>
<circle cx="72" cy="240" r="12" fill="rgb(255,16,0)" opacity="0.35"/>
<circle cx="72" cy="240" r="9" fill="rgb(255,16,0)"/>
<circle cx="96" cy="240" r="12" fill="rgb(255,44,0)" opacity="0.35"/>
<circle cx="96" cy="240" r="9" fill="rgb(255,44,0)"/>
<circle cx="120" cy="240" r="12" fill="rgb(255,76,0)" opacity="0.35"/>
<circle cx="120" cy="240" r="9" fill="rgb(255,76,0)"/>
<circle cx="144" cy="240" r="12" fill="rgb(255,140,0)" opacity="0.35"/>
<circle cx="144" cy="240" r="9" fill="rgb(255,140,0)"/>
<circle cx="168" cy="240" r="12" fill="rgb(255,164,0)" opacity="0.35"/>
<circle cx="168" cy="240" r="9" fill="rgb(255,164,0)"/>
<circle cx="192" cy="240" r="12" fill="rgb(255,96,0)" opacity="0.35"/>
<circle cx="192" cy="240" r="9" fill="rgb(255,96,0)"/>
<circle cx="216" cy="240" r="12" fill="rgb(255,68,0)" opacity="0.35"/>
<circle cx="216" cy="240" r="9" fill="rgb(255,68,0)"/>
<circle cx="240" cy="240" r="12" fill="rgb(255,84,0)" opacity="0.35"/>
<circle cx="240" cy="240" r="9" fill="rgb(255,84,0)"/>
<circle cx="264" cy="240" r="12" fill="rgb(255,96,0)" opacity="0.35"/>
<circle cx="264" cy="240" r="9" fill="rgb(255,96,0)"/>
<circle cx="288" cy="240" r="12" fill="rgb(255,148,0)" opacity="0.35"/>
<circle cx="288" cy="240" r="9" fill="rgb(255,148,0)"/>
<circle cx="312" cy="240" r="12" fill="rgb(255,128,0)" opacity="0.35"/>
<circle cx="312" cy="240" r="9" fill="rgb(255,128,0)"/>
<circle cx="336" cy="240" r="12" fill="rgb(255,8,0)" opacity="0.35"/>
<circle cx="336" cy="240" r="9" fill="rgb(255,8,0)"/>
<circle cx="360" cy="240" r="12" fill="rgb(176,0,0)" opacity="0.35"/>
<circle cx="360" cy="240" r="9" fill="rgb(176,0,0)"/>
<circle cx="384" cy="240" r="12" fill="rgb(148,0,0)" opacity="0.35"/>
<circle cx="384" cy="240" r="9" fill="rgb(148,0,0)"/>
<circle cx="24" cy="264" r="12" fill="rgb(184,0,0)" opacity="0.35"/>
<circle cx="24" cy="264" r="9" fill="rgb(184,0,0)"/>
<circle cx="48" cy="264" r="12" fill="rgb(236,0,0)" opacity="0.35"/>
<circle cx="48" cy="264" r="9" fill="rgb(236,0,0)"/>
<circle cx="72" cy="264" r="12" fill="rgb(255,44,0)" opacity="0.35"/>
<circle cx="72" cy="264" r="9" fill="rgb(255,44,0)"/>
<circle cx="96" cy="264" r="12" fill="rgb(255,64,0)" opacity="0.35"/>
<circle cx="96" cy="264" r="9" fill="rgb(255,64,0)"/>
<circle cx="120" cy="264" r="12" fill="rgb(255,76,0)" opacity="0.35"/>
<circle cx="120" cy="264" r="9" fill="rgb(255,76,0)"/>
<circle cx="144" cy="264" r="12" fill="rgb(255,144,0)" opacity="0.35"/>
<circle cx="144" cy="264" r="9" fill="rgb(255,144,0)"/>
<circle cx="168" cy="264" r="12" fill="rgb(255,176,0)" opacity="0.35"/>
<circle cx="168" cy="264" r="9" fill="rgb(255,176,0)"/>
<circle cx="192" cy="264" r="12" fill="rgb(255,116,0)" opacity="0.35"/>
<circle cx="192" cy="264" r="9" fill="rgb(255,116,0)"/>
<circle cx="216" cy="264" r="12" fill="rgb(255,88,0)" opacity="0.35"/>
<circle cx="216" cy="264" r="9" fill="rgb(255,88,0)"/>
<circle cx="240" cy="264" r="12" fill="rgb(255,96,0)" opacity="0.35"/>
<circle cx="240" cy="264" r="9" fill="rgb(255,96,0)"/>
<circle cx="264" cy="264" r="12" fill="rgb(255,96,0)" opacity="0.35"/>
<circle cx="264" cy="264" r="9" fill="rgb(255,96,0)"/>
<circle cx="288" cy="264" r="12" fill="rgb(255,152,0)" opacity="0.35"/>
<circle cx="288" cy="264" r="9" fill="rgb(255,152,0)"/>
<circle cx="312" cy="264" r="12" fill="rgb(255,148,0)" opacity="0.35"/>
<circle cx="312" cy="264" r="9" fill="rgb(255,148,0)"/>
<circle cx="336" cy="264" r="12" fill="rgb(255,32,0)" opacity="0.35"/>
<circle cx="336" cy="264" r="9" fill="rgb(255,32,0)"/>
<circle cx="360" cy="264" r="12" fill="rgb(192,0,0)" opacity="0.35"/>
<circle cx="360" cy="264" r="9" fill="rgb(192,0,0)"/>
<circle cx="384" cy="264" r="12" fill="rgb(160,0,0)" opacity="0.35"/>
<circle cx="384" cy="264" r="9" fill="rgb(160,0,0)"/>
<circle cx="24" cy="288" r="12" fill="rgb(196,0,0)" opacity="0.35"/>
<circle cx="24" cy="288" r="9" fill="rgb(196,0,0)"/>
<circle cx="48" cy="288" r="9" fill="#14171c"/>
<circle cx="72" cy="288" r="12" fill="rgb(255,68,0)" opacity="0.35"/>
<circle cx="72" cy="288" r="9" fill="rgb(255,68,0)"/>
<circle cx="96" cy="288" r="12" fill="rgb(255,80,0)" opacity="0.35"/>
<circle cx="96" cy="288" r="9" fill="rgb(255,80,0)"/>
<circle cx="120" cy="288" r="12" fill="rgb(255,80,0)" opacity="0.35"/>
<circle cx="120" cy="288" r="9" fill="rgb(255,80,0)"/>
<circle cx="144" cy="288" r="12" fill="rgb(255,144,0)" opacity="0.35"/>
<circle cx="144" cy="288" r="9" fill="rgb(255,144,0)"/>
<circle cx="168" cy="288" r="12" fill="rgb(255,188,0)" opacity="0.35"/>
<circle cx="168" cy="288" r="9" fill="rgb(255,188,0)"/>
<circle cx="192" cy="288" r="12" fill="rgb(255,140,0)" opacity="0.35"/>
<circle cx="192" cy="288" r="9" fill="rgb(255,140,0)"/>
<circle cx="216" cy="288" r="12" fill="rgb(255,112,0)" opacity="0.35"/>
<circle cx="216" cy="288" r="9" fill="rgb(255,112,0)"/>
<circle cx="240" cy="288" r="12" fill="rgb(255,108,0)" opacity="0.35"/>
<circle cx="240" cy="288" r="9" fill="rgb(255,108,0)"/>
<circle cx="264" cy="288" r="12" fill="rgb(255,96,0)" opacity="0.35"/>
<circle cx="264" cy="288" r="9" fill="rgb(255,96,0)"/>
<circle cx="288" cy="288" r="12" fill="rgb(255,156,0)" opacity="0.35"/>
<circle cx="288" cy="288" r="9" fill="rgb(255,156,0)"/>
<circle cx="312" cy="288" r="12" fill="rgb(255,168,0)" opacity="0.35"/>
<circle cx="312" cy="288" r="9" fill="rgb(255,168,0)"/>
<circle cx="336" cy="288" r="12" fill="rgb(255,56,0)" opacity="0.35"/>
<circle cx="336" cy="288" r="9" fill="rgb(255,56,0)"/>
<circle cx="360" cy="288" r="12" fill="rgb(208,0,0)" opacity="0.35"/>
<circle cx="360" cy="288" r="9" fill="rgb(208,0,0)"/>
<circle cx="384" cy="288" r="12" fill="rgb(172,0,0)" opacity="0.35"/>
<circle cx="384" cy="288" r="9" fill="rgb(172,0,0)"/>
<circle cx="24" cy="312" r="12" fill="rgb(204,0,0)" opacity="0.35"/>
<circle cx="24" cy="312" r="9" fill="rgb(204,0,0)"/>
<circle cx="48" cy="312" r="12" fill="rgb(255,16,0)" opacity="0.35"/>
<circle cx="48" cy="312" r="9" fill="rgb(255,16,0)"/>
<circle cx="72" cy="312" r="12" fill="rgb(255,92,0)" opacity="0.35"/>
<circle cx="72" cy="312" r="9" fill="rgb(255,92,0)"/>
<circle cx="96" cy="312" r="12" fill="rgb(255,104,0)" opacity="0.35"/>
<circle cx="96" cy="312" r="9" fill="rgb(255,104,0)"/>
<circle cx="120" cy="312" r="12" fill="rgb(255,88,0)" opacity="0.35"/>
<circle cx="120" cy="312" r="9" fill="rgb(255,88,0)"/>
<circle cx="144" cy="312" r="12" fill="rgb(255,144,0)" opacity="0.35"/>
<circle cx="144" cy="312" r="9" fill="rgb(255,144,0)"/>
<circle cx="168" cy="312" r="12" fill="rgb(255,192,0)" opacity="0.35"/>
<circle cx="168" cy="312" r="9" fill="rgb(255,192,0)"/>
<circle cx="192" cy="312" r="12" fill="rgb(255,156,0)" opacity="0.35"/>
<circle cx="192" cy="312" r="9" fill="rgb(255,156,0)"/>
<circle cx="216" cy="312" r="12" fill="rgb(255,136,0)" opacity="0.35"/>
<circle cx="216" cy="312" r="9" fill="rgb(255,136,0)"/>
<circle cx="240" cy="312" r="12" fill="rgb(255,124,0)" opacity="0.35"/>
<circle cx="240" cy="312" r="9" fill="rgb(255,124,0)"/>
<circle cx="264" cy="312" r="12" fill="rgb(255,100,0)" opacity="0.35"/>
<circle cx="264" cy="312" r="9" fill="rgb(255,100,0)"/>
<circle cx="288" cy="312" r="12" fill="rgb(255,152,0)" opacity="0.35"/>
<circle cx="288" cy="312" r="9" fill="rgb(255,152,0)"/>
<circle cx="312" cy="312" r="12" fill="rgb(255,180,0)" opacity="0.35"/>
<circle cx="312" cy="312" r="9" fill="rgb(255,180,0)"/>
<circle cx="336" cy="312" r="12" fill="rgb(255,80,0)" opacity="0.35"/>
<circle cx="336" cy="312" r="9" fill="rgb(255,80,0)"/>
<circle cx="360" cy="312" r="12" fill="rgb(228,0,0)" opacity="0.35"/>
<circle cx="360" cy="312" r="9" fill="rgb(228,0,0)"/>
<circle cx="384" cy="312" r="12" fill="rgb(184,0,0)" opacity="0.35"/>
<circle cx="384" cy="312" r="9" fill="rgb(184,0,0)"/>
<circle cx="24" cy="336" r="12" fill="rgb(212,0,0)" opacity="0.35"/>
<circle cx="24" cy="336" r="9" fill="rgb(212,0,0)"/>
<circle cx="48" cy="336" r="12" fill="rgb(255,28,0)" opacity="0.35"/>
<circle cx="48" cy="336" r="9" fill="rgb(255,28,0)"/>
<circle cx="72" cy="336" r="12" fill="rgb(255,116,0)" opacity="0.35"/>
<circle cx="72" cy="336" r="9" fill="rgb(255,116,0)"/>
<circle cx="96" cy="336" r="12" fill="rgb(255,128,0)" opacity="0.35"/>
<circle cx="96" cy="336" r="9" fill="rgb(255,128,0)"/>
<circle cx="120" cy="336" r="12" fill="rgb(255,100,0)" opacity="0.35"/>
<circle cx="120" cy="336" r="9" fill="rgb(255,100,0)"/>
<circle cx="144" cy="336" r="12" fill="rgb(255,144,0)" opacity="0.35"/>
<circle cx="144" cy="336" r="9" fill="rgb(255,144,0)"/>
<circle cx="168" cy="336" r="12" fill="rgb(255,196,0)" opacity="0.35"/>
<circle cx="168" cy="336" r="9" fill="rgb(255,196,0)"/>
<circle cx="192" cy="336" r="12" fill="rgb(255,172,0)" opacity="0.35"/>
<circle cx="192" cy="336" r="9" fill="rgb(255,172,0)"/>
<circle cx="216" cy="336" r="12" fill="rgb(255,160,0)" opacity="0.35"/>
<circle cx="216" cy="336" r="9" fill="rgb(255,160,0)"/>
<circle cx="240" cy="336" r="12" fill="rgb(255,148,0)" opacity="0.35"/>
<circle cx="240" cy="336" r="9" fill="rgb(255,148,0)"/>
<circle cx="264" cy="336" r="12" fill="rgb(255,104,0)" opacity="0.35"/>
<circle cx="264" cy="336" r="9" fill="rgb(255,104,0)"/>
<circle cx="288" cy="336" r="12" fill="rgb(255,152,0)" opacity="0.35"/>
<circle cx="288" cy="336" r="9" fill="rgb(255,152,0)"/>
<circle cx="312" cy="336" r="12" fill="rgb(255,192,0)" opacity="0.35"/>
<circle cx="312" cy="336" r="9" fill="rgb(255,192,0)"/>
<circle cx="336" cy="336" r="12" fill="rgb(255,100,0)" opacity="0.35"/>
<circle cx="336" cy="336" r="9" fill="rgb(255,100,0)"/>
<circle cx="360" cy="336" r="12" fill="rgb(252,0,0)" opacity="0.35"/>
<circle cx="360" cy="336" r="9" fill="rgb(252,0,0)"/>
<circle cx="384" cy="336" r="12" fill="rgb(200,0,0)" opacity="0.35"/>
<circle cx="384" cy="336" r="9" fill="rgb(200,0,0)"/>
<circle cx="24" cy="360" r="12" fill="rgb(220,0,0)" opacity="0.35"/>
<circle cx="24" cy="360" r="9" fill="rgb(220,0,0)"/>
<circle cx="48" cy="360" r="12" fill="rgb(255,40,0)" opacity="0.35"/>
<circle cx="48" cy="360" r="9" fill="rgb(255,40,0)"/>
<circle cx="72" cy="360" r="12" fill="rgb(255,140,0)" opacity="0.35"/>
<circle cx="72" cy="360" r="9" fill="rgb(255,140,0)"/>
<circle cx="96" cy="360" r="12" fill="rgb(255,156,0)" opacity="0.35"/>
<circle cx="96" cy="360" r="9" fill="rgb(255,156,0)"/>
<circle cx="120" cy="360" r="12" fill="rgb(255,112,0)" opacity="0.35"/>
<circle cx="120" cy="360" r="9" fill="rgb(255,112,0)"/>
<circle cx="144" cy="360" r="12" fill="rgb(255,144,0)" opacity="0.35"/>
<circle cx="144" cy="360" r="9" fill="rgb(255,144,0)"/>
<circle cx="168" cy="360" r="12" fill="rgb(255,196,0)" opacity="0.35"/>
<circle cx="168" cy="360" r="9" fill="rgb(255,196,0)"/>
<circle cx="192" cy="360" r="12" fill="rgb(255,184,0)" opacity="0.35"/>
<circle cx="192" cy="360" r="9" fill="rgb(255,184,0)"/>
<circle cx="216" cy="360" r="12" fill="rgb(255,188,0)" opacity="0.35"/>
<circle cx="216" cy="360" r="9" fill="rgb(255,188,0)"/>
<circle cx="240" cy="360" r="12" fill="rgb(255,168,0)" opacity="0.35"/>
<circle cx="240" cy="360" r="9" fill="rgb(255,168,0)"/>
<circle cx="264" cy="360" r="12" fill="rgb(255,112,0)" opacity="0.35"/>
<circle cx="264" cy="360" r="9" fill="rgb(255,112,0)"/>
<circle cx="288" cy="360" r="12" fill="rgb(255,148,0)" opacity="0.35"/>
<circle cx="288" cy="360" r="9" fill="rgb(255,148,0)"/>
<circle cx="312" cy="360" r="12" fill="rgb(255,196,0)" opacity="0.35"/>
<circle cx="312" cy="360" r="9" fill="rgb(255,196,0)"/>
<circle cx="336" cy="360" r="12" fill="rgb(255,124,0)" opacity="0.35"/>
<circle cx="336" cy="360" r="9" fill="rgb(255,124,0)"/>
<circle cx="360" cy="360" r="12" fill="rgb(255,20,0)" opacity="0.35"/>
<circle cx="360" cy="360" r="9" fill="rgb(255,20,0)"/>
<circle cx="384" cy="360" r="12" fill="rgb(216,0,0)" opacity="0.35"/>
<circle cx="384" cy="360" r="9" fill="rgb(216,0,0)"/>
<circle cx="24" cy="384" r="12" fill="rgb(228,0,0)" opacity="0.35"/>
<circle cx="24" cy="384" r="9" fill="rgb(228,0,0)"/>
<circle cx="48" cy="384" r="12" fill="rgb(255,48,0)" opacity="0.35"/>
<circle cx="48" cy="384" r="9" fill="rgb(255,48,0)"/>
<circle cx="72" cy="384" r="12" fill="rgb(255,160,0)" opacity="0.35"/>
<circle cx="72" cy="384" r="9" fill="rgb(255,160,0)"/>
<circle cx="96" cy="384" r="12" fill="rgb(255,180,0)" opacity="0.35"/>
<circle cx="96" cy="384" r="9" fill="rgb(255,180,0)"/>
<circle cx="120" cy="384" r="12" fill="rgb(255,132,0)" opacity="0.35"/>
<circle cx="120" cy="384" r="9" fill="rgb(255,132,0)"/>
<circle cx="144" cy="384" r="12" fill="rgb(255,148,0)" opacity="0.35"/>
<circle cx="144" cy="384" r="9" fill="rgb(255,148,0)"/>
<circle cx="168" cy="384" r="12" fill="rgb(255,196,0)" opacity="0.35"/>
<circle cx="168" cy="384" r="9" fill="rgb(255,196,0)"/>
<circle cx="192" cy="384" r="12" fill="rgb(255,196,0)" opacity="0.35"/>
<circle cx="192" cy="384" r="9" fill="rgb(255,196,0)"/>
<circle cx="216" cy="384" r="12" fill="rgb(255,208,0)" opacity="0.35"/>
<circle cx="216" cy="384" r="9" fill="rgb(255,208,0)"/>
<circle cx="240" cy="384" r="12" fill="rgb(255,196,0)" opacity="0.35"/>
<circle cx="240" cy="384" r="9" fill="rgb(255,196,0)"/>
<circle cx="264" cy="384" r="12" fill="rgb(255,124,0)" opacity="0.35"/>
<circle cx="264" cy="384" r="9" fill="rgb(255,124,0)"/>
<circle cx="288" cy="384" r="12" fill="rgb(255,148,0)" opacity="0.35"/>
<circle cx="288" cy="384" r="9" fill="rgb(255,148,0)"/>
<circle cx="312" cy="384" r="12" fill="rgb(255,204,0)" opacity="0.35"/>
<circle cx="312" cy="384" r="9" fill="rgb(255,204,0)"/>
<circle cx="336" cy="384" r="12" fill="rgb(255,140,0)" opacity="0.35"/>
<circle cx="336" cy="384" r="9" fill="rgb(255,140,0)"/>
<circle cx="360" cy="384" r="12" fill="rgb(255,44,0)" opacity="0.35"/>
<circle cx="360" cy="384" r="9" fill="rgb(255,44,0)"/>
<circle cx="384" cy="384" r="12" fill="rgb(236,0,0)" opacity="0.35"/>
<circle cx="384" cy="384" r="9" fill="rgb(236,0,0)"/>
</svg>
