<svg xmlns="http://www.w3.org/2000/svg" viewBox="0 0 408 408" width="408" height="408" role="img" aria-label="LED preview of the Encoder example graph">
<rect width="408" height="408" rx="10" fill="#05070a"/>
<circle cx="24" cy="24" r="9" fill="#14171c"/>
<circle cx="48" cy="24" r="9" fill="#14171c"/>
<circle cx="72" cy="24" r="9" fill="#14171c"/>
<circle cx="96" cy="24" r="9" fill="#14171c"/>
<circle cx="120" cy="24" r="9" fill="#14171c"/>
<circle cx="144" cy="24" r="9" fill="#14171c"/>
<circle cx="168" cy="24" r="9" fill="#14171c"/>
<circle cx="192" cy="24" r="9" fill="#14171c"/>
<circle cx="216" cy="24" r="9" fill="#14171c"/>
<circle cx="240" cy="24" r="9" fill="#14171c"/>
<circle cx="264" cy="24" r="9" fill="#14171c"/>
<circle cx="288" cy="24" r="9" fill="#14171c"/>
<circle cx="312" cy="24" r="9" fill="#14171c"/>
<circle cx="336" cy="24" r="9" fill="#14171c"/>
<circle cx="360" cy="24" r="9" fill="#14171c"/>
<circle cx="384" cy="24" r="9" fill="#14171c"/>
<circle cx="24" cy="48" r="9" fill="#14171c"/>
<circle cx="48" cy="48" r="9" fill="#14171c"/>
<circle cx="72" cy="48" r="9" fill="#14171c"/>
<circle cx="96" cy="48" r="9" fill="#14171c"/>
<circle cx="120" cy="48" r="9" fill="#14171c"/>
<circle cx="144" cy="48" r="9" fill="#14171c"/>
<circle cx="168" cy="48" r="9" fill="#14171c"/>
<circle cx="192" cy="48" r="12" fill="rgb(31,10,21)" opacity="0.35"/>
<circle cx="192" cy="48" r="9" fill="rgb(31,10,21)"/>
<circle cx="216" cy="48" r="12" fill="rgb(62,51,76)" opacity="0.35"/>
<circle cx="216" cy="48" r="9" fill="rgb(62,51,76)"/>
<circle cx="240" cy="48" r="12" fill="rgb(52,124,156)" opacity="0.35"/>
<circle cx="240" cy="48" r="9" fill="rgb(52,124,156)"/>
<circle cx="264" cy="48" r="12" fill="rgb(63,80,110)" opacity="0.35"/>
<circle cx="264" cy="48" r="9" fill="rgb(63,80,110)"/>
<circle cx="288" cy="48" r="9" fill="#14171c"/>
<circle cx="312" cy="48" r="9" fill="#14171c"/>
<circle cx="336" cy="48" r="9" fill="#14171c"/>
<circle cx="360" cy="48" r="9" fill="#14171c"/>
<circle cx="384" cy="48" r="9" fill="#14171c"/>
<circle cx="24" cy="72" r="9" fill="#14171c"/>
<circle cx="48" cy="72" r="9" fill="#14171c"/>
<circle cx="72" cy="72" r="9" fill="#14171c"/>
<circle cx="96" cy="72" r="9" fill="#14171c"/>
<circle cx="120" cy="72" r="12" fill="rgb(35,12,24)" opacity="0.35"/>
<circle cx="120" cy="72" r="9" fill="rgb(35,12,24)"/>
<circle cx="144" cy="72" r="12" fill="rgb(64,68,96)" opacity="0.35"/>
<circle cx="144" cy="72" r="9" fill="rgb(64,68,96)"/>
<circle cx="168" cy="72" r="12" fill="rgb(38,155,188)" opacity="0.35"/>
<circle cx="168" cy="72" r="9" fill="rgb(38,155,188)"/>
<circle cx="192" cy="72" r="12" fill="rgb(0,224,255)" opacity="0.35"/>
<circle cx="192" cy="72" r="9" fill="rgb(0,224,255)"/>
<circle cx="216" cy="72" r="12" fill="rgb(0,224,255)" opacity="0.35"/>
<circle cx="216" cy="72" r="9" fill="rgb(0,224,255)"/>
<circle cx="240" cy="72" r="12" fill="rgb(86,165,212)" opacity="0.35"/>
<circle cx="240" cy="72" r="9" fill="rgb(86,165,212)"/>
<circle cx="264" cy="72" r="12" fill="rgb(0,224,255)" opacity="0.35"/>
<circle cx="264" cy="72" r="9" fill="rgb(0,224,255)"/>
<circle cx="288" cy="72" r="12" fill="rgb(60,45,68)" opacity="0.35"/>
<circle cx="288" cy="72" r="9" fill="rgb(60,45,68)"/>
<circle cx="312" cy="72" r="9" fill="#14171c"/>
<circle cx="336" cy="72" r="9" fill="#14171c"/>
<circle cx="360" cy="72" r="9" fill="#14171c"/>
<circle cx="384" cy="72" r="9" fill="#14171c"/>
<circle cx="24" cy="96" r="9" fill="#14171c"/>
<circle cx="48" cy="96" r="9" fill="#14171c"/>
<circle cx="72" cy="96" r="12" fill="rgb(61,46,70)" opacity="0.35"/>
<circle cx="72" cy="96" r="9" fill="rgb(61,46,70)"/>
<circle cx="96" cy="96" r="12" fill="rgb(43,147,180)" opacity="0.35"/>
<circle cx="96" cy="96" r="9" fill="rgb(43,147,180)"/>
<circle cx="120" cy="96" r="12" fill="rgb(0,224,255)" opacity="0.35"/>
<circle cx="120" cy="96" r="9" fill="rgb(0,224,255)"/>
<circle cx="144" cy="96" r="12" fill="rgb(0,224,255)" opacity="0.35"/>
<circle cx="144" cy="96" r="9" fill="rgb(0,224,255)"/>
<circle cx="168" cy="96" r="12" fill="rgb(68,177,221)" opacity="0.35"/>
<circle cx="168" cy="96" r="9" fill="rgb(68,177,221)"/>
<circle cx="192" cy="96" r="12" fill="rgb(151,120,180)" opacity="0.35"/>
<circle cx="192" cy="96" r="9" fill="rgb(151,120,180)"/>
<circle cx="216" cy="96" r="12" fill="rgb(253,49,129)" opacity="0.35"/>
<circle cx="216" cy="96" r="9" fill="rgb(253,49,129)"/>
<circle cx="240" cy="96" r="12" fill="rgb(255,48,128)" opacity="0.35"/>
<circle cx="240" cy="96" r="9" fill="rgb(255,48,128)"/>
<circle cx="264" cy="96" r="12" fill="rgb(102,153,204)" opacity="0.35"/>
<circle cx="264" cy="96" r="9" fill="rgb(102,153,204)"/>
<circle cx="288" cy="96" r="12" fill="rgb(0,224,255)" opacity="0.35"/>
<circle cx="288" cy="96" r="9" fill="rgb(0,224,255)"/>
<circle cx="312" cy="96" r="12" fill="rgb(42,18,33)" opacity="0.35"/>
<circle cx="312" cy="96" r="9" fill="rgb(42,18,33)"/>
<circle cx="336" cy="96" r="9" fill="#14171c"/>
<circle cx="360" cy="96" r="9" fill="#14171c"/>
<circle cx="384" cy="96" r="9" fill="#14171c"/>
<circle cx="24" cy="120" r="9" fill="#14171c"/>
<circle cx="48" cy="120" r="9" fill="#14171c"/>
<circle cx="72" cy="120" r="12" fill="rgb(9,210,241)" opacity="0.35"/>
<circle cx="72" cy="120" r="9" fill="rgb(9,210,241)"/>
<circle cx="96" cy="120" r="12" fill="rgb(102,153,204)" opacity="0.35"/>
<circle cx="96" cy="120" r="9" fill="rgb(102,153,204)"/>
<circle cx="120" cy="120" r="12" fill="rgb(179,100,166)" opacity="0.35"/>
<circle cx="120" cy="120" r="9" fill="rgb(179,100,166)"/>
<circle cx="144" cy="120" r="12" fill="rgb(246,54,133)" opacity="0.35"/>
<circle cx="144" cy="120" r="9" fill="rgb(246,54,133)"/>
<circle cx="168" cy="120" r="12" fill="rgb(255,48,128)" opacity="0.35"/>
<circle cx="168" cy="120" r="9" fill="rgb(255,48,128)"/>
<circle cx="192" cy="120" r="12" fill="rgb(255,48,128)" opacity="0.35"/>
<circle cx="192" cy="120" r="9" fill="rgb(255,48,128)"/>
<circle cx="216" cy="120" r="12" fill="rgb(255,48,128)" opacity="0.35"/>
<circle cx="216" cy="120" r="9" fill="rgb(255,48,128)"/>
<circle cx="240" cy="120" r="12" fill="rgb(255,48,128)" opacity="0.35"/>
<circle cx="240" cy="120" r="9" fill="rgb(255,48,128)"/>
<circle cx="264" cy="120" r="12" fill="rgb(253,49,129)" opacity="0.35"/>
<circle cx="264" cy="120" r="9" fill="rgb(253,49,129)"/>
<circle cx="288" cy="120" r="12" fill="rgb(28,177,209)" opacity="0.35"/>
<circle cx="288" cy="120" r="9" fill="rgb(28,177,209)"/>
<circle cx="312" cy="120" r="12" fill="rgb(39,155,187)" opacity="0.35"/>
<circle cx="312" cy="120" r="9" fill="rgb(39,155,187)"/>
<circle cx="336" cy="120" r="9" fill="#14171c"/>
<circle cx="360" cy="120" r="9" fill="#14171c"/>
<circle cx="384" cy="120" r="9" fill="#14171c"/>
<circle cx="24" cy="144" r="9" fill="#14171c"/>
<circle cx="48" cy="144" r="9" fill="#14171c"/>
<circle cx="72" cy="144" r="12" fill="rgb(4,218,249)" opacity="0.35"/>
<circle cx="72" cy="144" r="9" fill="rgb(4,218,249)"/>
<circle cx="96" cy="144" r="12" fill="rgb(158,115,177)" opacity="0.35"/>
<circle cx="96" cy="144" r="9" fill="rgb(158,115,177)"/>
<circle cx="120" cy="144" r="12" fill="rgb(255,48,128)" opacity="0.35"/>
<circle cx="120" cy="144" r="9" fill="rgb(255,48,128)"/>
<circle cx="144" cy="144" r="12" fill="rgb(255,48,128)" opacity="0.35"/>
<circle cx="144" cy="144" r="9" fill="rgb(255,48,128)"/>
<circle cx="168" cy="144" r="12" fill="rgb(255,48,128)" opacity="0.35"/>
<circle cx="168" cy="144" r="9" fill="rgb(255,48,128)"/>
<circle cx="192" cy="144" r="12" fill="rgb(255,48,128)" opacity="0.35"/>
<circle cx="192" cy="144" r="9" fill="rgb(255,48,128)"/>
<circle cx="216" cy="144" r="12" fill="rgb(255,48,128)" opacity="0.35"/>
<circle cx="216" cy="144" r="9" fill="rgb(255,48,128)"/>
<circle cx="240" cy="144" r="12" fill="rgb(255,48,128)" opacity="0.35"/>
<circle cx="240" cy="144" r="9" fill="rgb(255,48,128)"/>
<circle cx="264" cy="144" r="12" fill="rgb(255,48,128)" opacity="0.35"/>
<circle cx="264" cy="144" r="9" fill="rgb(255,48,128)"/>
<circle cx="288" cy="144" r="12" fill="rgb(180,99,165)" opacity="0.35"/>
<circle cx="288" cy="144" r="9" fill="rgb(180,99,165)"/>
<circle cx="312" cy="144" r="12" fill="rgb(0,224,255)" opacity="0.35"/>
<circle cx="312" cy="144" r="9" fill="rgb(0,224,255)"/>
<circle cx="336" cy="144" r="12" fill="rgb(62,86,116)" opacity="0.35"/>
<circle cx="336" cy="144" r="9" fill="rgb(62,86,116)"/>
<circle cx="360" cy="144" r="9" fill="#14171c"/>
<circle cx="384" cy="144" r="9" fill="#14171c"/>
<circle cx="24" cy="168" r="9" fill="#14171c"/>
<circle cx="48" cy="168" r="9" fill="#14171c"/>
<circle cx="72" cy="168" r="12" fill="rgb(0,224,255)" opacity="0.35"/>
<circle cx="72" cy="168" r="9" fill="rgb(0,224,255)"/>
<circle cx="96" cy="168" r="12" fill="rgb(140,127,185)" opacity="0.35"/>
<circle cx="96" cy="168" r="9" fill="rgb(140,127,185)"/>
<circle cx="120" cy="168" r="12" fill="rgb(255,48,128)" opacity="0.35"/>
<circle cx="120" cy="168" r="9" fill="rgb(255,48,128)"/>
<circle cx="144" cy="168" r="12" fill="rgb(255,48,128)" opacity="0.35"/>
<circle cx="144" cy="168" r="9" fill="rgb(255,48,128)"/>
<circle cx="168" cy="168" r="12" fill="rgb(255,48,128)" opacity="0.35"/>
<circle cx="168" cy="168" r="9" fill="rgb(255,48,128)"/>
<circle cx="192" cy="168" r="12" fill="rgb(255,48,128)" opacity="0.35"/>
<circle cx="192" cy="168" r="9" fill="rgb(255,48,128)"/>
<circle cx="216" cy="168" r="12" fill="rgb(255,48,128)" opacity="0.35"/>
<circle cx="216" cy="168" r="9" fill="rgb(255,48,128)"/>
<circle cx="240" cy="168" r="12" fill="rgb(255,48,128)" opacity="0.35"/>
<circle cx="240" cy="168" r="9" fill="rgb(255,48,128)"/>
<circle cx="264" cy="168" r="12" fill="rgb(255,48,128)" opacity="0.35"/>
<circle cx="264" cy="168" r="9" fill="rgb(255,48,128)"/>
<circle cx="288" cy="168" r="12" fill="rgb(255,48,128)" opacity="0.35"/>
<circle cx="288" cy="168" r="9" fill="rgb(255,48,128)"/>
<circle cx="312" cy="168" r="12" fill="rgb(133,132,189)" opacity="0.35"/>
<circle cx="312" cy="168" r="9" fill="rgb(133,132,189)"/>
<circle cx="336" cy="168" r="12" fill="rgb(0,224,255)" opacity="0.35"/>
<circle cx="336" cy="168" r="9" fill="rgb(0,224,255)"/>
<circle cx="360" cy="168" r="12" fill="rgb(53,29,48)" opacity="0.35"/>
<circle cx="360" cy="168" r="9" fill="rgb(53,29,48)"/>
<circle cx="384" cy="168" r="9" fill="#14171c"/>
<circle cx="24" cy="192" r="9" fill="#14171c"/>
<circle cx="48" cy="192" r="9" fill="#14171c"/>
<circle cx="72" cy="192" r="12" fill="rgb(0,224,255)" opacity="0.35"/>
<circle cx="72" cy="192" r="9" fill="rgb(0,224,255)"/>
<circle cx="96" cy="192" r="12" fill="rgb(131,134,190)" opacity="0.35"/>
<circle cx="96" cy="192" r="9" fill="rgb(131,134,190)"/>
<circle cx="120" cy="192" r="12" fill="rgb(255,48,128)" opacity="0.35"/>
<circle cx="120" cy="192" r="9" fill="rgb(255,48,128)"/>
<circle cx="144" cy="192" r="12" fill="rgb(255,48,128)" opacity="0.35"/>
<circle cx="144" cy="192" r="9" fill="rgb(255,48,128)"/>
<circle cx="168" cy="192" r="12" fill="rgb(255,48,128)" opacity="0.35"/>
<circle cx="168" cy="192" r="9" fill="rgb(255,48,128)"/>
<circle cx="192" cy="192" r="12" fill="rgb(255,48,128)" opacity="0.35"/>
<circle cx="192" cy="192" r="9" fill="rgb(255,48,128)"/>
<circle cx="216" cy="192" r="12" fill="rgb(255,48,128)" opacity="0.35"/>
<circle cx="216" cy="192" r="9" fill="rgb(255,48,128)"/>
<circle cx="240" cy="192" r="12" fill="rgb(255,48,128)" opacity="0.35"/>
<circle cx="240" cy="192" r="9" fill="rgb(255,48,128)"/>
<circle cx="264" cy="192" r="12" fill="rgb(255,48,128)" opacity="0.35"/>
<circle cx="264" cy="192" r="9" fill="rgb(255,48,128)"/>
<circle cx="288" cy="192" r="12" fill="rgb(255,48,128)" opacity="0.35"/>
<circle cx="288" cy="192" r="9" fill="rgb(255,48,128)"/>
<circle cx="312" cy="192" r="12" fill="rgb(255,48,128)" opacity="0.35"/>
<circle cx="312" cy="192" r="9" fill="rgb(255,48,128)"/>
<circle cx="336" cy="192" r="12" fill="rgb(89,162,211)" opacity="0.35"/>
<circle cx="336" cy="192" r="9" fill="rgb(89,162,211)"/>
<circle cx="360" cy="192" r="12" fill="rgb(22,187,220)" opacity="0.35"/>
<circle cx="360" cy="192" r="9" fill="rgb(22,187,220)"/>
<circle cx="384" cy="192" r="9" fill="#14171c"/>
<circle cx="24" cy="216" r="9" fill="#14171c"/>
<circle cx="48" cy="216" r="9" fill="#14171c"/>
<circle cx="72" cy="216" r="12" fill="rgb(0,224,255)" opacity="0.35"/>
<circle cx="72" cy="216" r="9" fill="rgb(0,224,255)"/>
<circle cx="96" cy="216" r="12" fill="rgb(131,134,190)" opacity="0.35"/>
<circle cx="96" cy="216" r="9" fill="rgb(131,134,190)"/>
<circle cx="120" cy="216" r="12" fill="rgb(255,48,128)" opacity="0.35"/>
<circle cx="120" cy="216" r="9" fill="rgb(255,48,128)"/>
<circle cx="144" cy="216" r="12" fill="rgb(255,48,128)" opacity="0.35"/>
<circle cx="144" cy="216" r="9" fill="rgb(255,48,128)"/>
<circle cx="168" cy="216" r="12" fill="rgb(255,48,128)" opacity="0.35"/>
<circle cx="168" cy="216" r="9" fill="rgb(255,48,128)"/>
<circle cx="192" cy="216" r="12" fill="rgb(255,48,128)" opacity="0.35"/>
<circle cx="192" cy="216" r="9" fill="rgb(255,48,128)"/>
<circle cx="216" cy="216" r="12" fill="rgb(255,48,128)" opacity="0.35"/>
<circle cx="216" cy="216" r="9" fill="rgb(255,48,128)"/>
<circle cx="240" cy="216" r="12" fill="rgb(255,48,128)" opacity="0.35"/>
<circle cx="240" cy="216" r="9" fill="rgb(255,48,128)"/>
<circle cx="264" cy="216" r="12" fill="rgb(255,48,128)" opacity="0.35"/>
<circle cx="264" cy="216" r="9" fill="rgb(255,48,128)"/>
<circle cx="288" cy="216" r="12" fill="rgb(255,48,128)" opacity="0.35"/>
<circle cx="288" cy="216" r="9" fill="rgb(255,48,128)"/>
<circle cx="312" cy="216" r="12" fill="rgb(255,48,128)" opacity="0.35"/>
<circle cx="312" cy="216" r="9" fill="rgb(255,48,128)"/>
<circle cx="336" cy="216" r="12" fill="rgb(89,162,211)" opacity="0.35"/>
<circle cx="336" cy="216" r="9" fill="rgb(89,162,211)"/>
<circle cx="360" cy="216" r="12" fill="rgb(22,187,220)" opacity="0.35"/>
<circle cx="360" cy="216" r="9" fill="rgb(22,187,220)"/>
<circle cx="384" cy="216" r="9" fill="#14171c"/>
<circle cx="24" cy="240" r="9" fill="#14171c"/>
<circle cx="48" cy="240" r="9" fill="#14171c"/>
<circle cx="72" cy="240" r="12" fill="rgb(0,224,255)" opacity="0.35"/>
<circle cx="72" cy="240" r="9" fill="rgb(0,224,255)"/>
<circle cx="96" cy="240" r="12" fill="rgb(140,127,185)" opacity="0.35"/>
<circle cx="96" cy="240" r="9" fill="rgb(140,127,185)"/>
<circle cx="120" cy="240" r="12" fill="rgb(255,48,128)" opacity="0.35"/>
<circle cx="120" cy="240" r="9" fill="rgb(255,48,128)"/>
<circle cx="144" cy="240" r="12" fill="rgb(255,48,128)" opacity="0.35"/>
<circle cx="144" cy="240" r="9" fill="rgb(255,48,128)"/>
<circle cx="168" cy="240" r="12" fill="rgb(255,48,128)" opacity="0.35"/>
<circle cx="168" cy="240" r="9" fill="rgb(255,48,128)"/>
<circle cx="192" cy="240" r="12" fill="rgb(255,48,128)" opacity="0.35"/>
<circle cx="192" cy="240" r="9" fill="rgb(255,48,128)"/>
<circle cx="216" cy="240" r="12" fill="rgb(255,48,128)" opacity="0.35"/>
<circle cx="216" cy="240" r="9" fill="rgb(255,48,128)"/>
<circle cx="240" cy="240" r="12" fill="rgb(255,48,128)" opacity="0.35"/>
<circle cx="240" cy="240" r="9" fill="rgb(255,48,128)"/>
<circle cx="264" cy="240" r="12" fill="rgb(255,48,128)" opacity="0.35"/>
<circle cx="264" cy="240" r="9" fill="rgb(255,48,128)"/>
<circle cx="288" cy="240" r="12" fill="rgb(255,48,128)" opacity="0.35"/>
<circle cx="288" cy="240" r="9" fill="rgb(255,48,128)"/>
<circle cx="312" cy="240" r="12" fill="rgb(133,132,189)" opacity="0.35"/>
<circle cx="312" cy="240" r="9" fill="rgb(133,132,189)"/>
<circle cx="336" cy="240" r="12" fill="rgb(0,224,255)" opacity="0.35"/>
<circle cx="336" cy="240" r="9" fill="rgb(0,224,255)"/>
<circle cx="360" cy="240" r="12" fill="rgb(53,29,48)" opacity="0.35"/>
<circle cx="360" cy="240" r="9" fill="rgb(53,29,48)"/>
<circle cx="384" cy="240" r="9" fill="#14171c"/>
<circle cx="24" cy="264" r="9" fill="#14171c"/>
<circle cx="48" cy="264" r="9" fill="#14171c"/>
<circle cx="72" cy="264" r="12" fill="rgb(4,218,249)" opacity="0.35"/>
<circle cx="72" cy="264" r="9" fill="rgb(4,218,249)"/>
<circle cx="96" cy="264" r="12" fill="rgb(158,115,177)" opacity="0.35"/>
<circle cx="96" cy="264" r="9" fill="rgb(158,115,177)"/>
<circle cx="120" cy="264" r="12" fill="rgb(255,48,128)" opacity="0.35"/>
<circle cx="120" cy="264" r="9" fill="rgb(255,48,128)"/>
<circle cx="144" cy="264" r="12" fill="rgb(255,48,128)" opacity="0.35"/>
<circle cx="144" cy="264" r="9" fill="rgb(255,48,128)"/>
<circle cx="168" cy="264" r="12" fill="rgb(255,48,128)" opacity="0.35"/>
<circle cx="168" cy="264" r="9" fill="rgb(255,48,128)"/>
<circle cx="192" cy="264" r="12" fill="rgb(255,48,128)" opacity="0.35"/>
<circle cx="192" cy="264" r="9" fill="rgb(255,48,128)"/>
<circle cx="216" cy="264" r="12" fill="rgb(255,48,128)" opacity="0.35"/>
<circle cx="216" cy="264" r="9" fill="rgb(255,48,128)"/>
<circle cx="240" cy="264" r="12" fill="rgb(255,48,128)" opacity="0.35"/>
<circle cx="240" cy="264" r="9" fill="rgb(255,48,128)"/>
<circle cx="264" cy="264" r="12" fill="rgb(255,48,128)" opacity="0.35"/>
<circle cx="264" cy="264" r="9" fill="rgb(255,48,128)"/>
<circle cx="288" cy="264" r="12" fill="rgb(180,99,165)" opacity="0.35"/>
<circle cx="288" cy="264" r="9" fill="rgb(180,99,165)"/>
<circle cx="312" cy="264" r="12" fill="rgb(0,224,255)" opacity="0.35"/>
<circle cx="312" cy="264" r="9" fill="rgb(0,224,255)"/>
<circle cx="336" cy="264" r="12" fill="rgb(62,86,116)" opacity="0.35"/>
<circle cx="336" cy="264" r="9" fill="rgb(62,86,116)"/>
<circle cx="360" cy="264" r="9" fill="#14171c"/>
<circle cx="384" cy="264" r="9" fill="#14171c"/>
<circle cx="24" cy="288" r="9" fill="#14171c"/>
<circle cx="48" cy="288" r="9" fill="#14171c"/>
<circle cx="72" cy="288" r="12" fill="rgb(9,210,241)" opacity="0.35"/>
<circle cx="72" cy="288" r="9" fill="rgb(9,210,241)"/>
<circle cx="96" cy="288" r="12" fill="rgb(102,153,204)" opacity="0.35"/>
<circle cx="96" cy="288" r="9" fill="rgb(102,153,204)"/>
<circle cx="120" cy="288" r="12" fill="rgb(179,100,166)" opacity="0.35"/>
<circle cx="120" cy="288" r="9" fill="rgb(179,100,166)"/>
<circle cx="144" cy="288" r="12" fill="rgb(246,54,133)" opacity="0.35"/>
<circle cx="144" cy="288" r="9" fill="rgb(246,54,133)"/>
<circle cx="168" cy="288" r="12" fill="rgb(255,48,128)" opacity="0.35"/>
<circle cx="168" cy="288" r="9" fill="rgb(255,48,128)"/>
<circle cx="192" cy="288" r="12" fill="rgb(255,48,128)" opacity="0.35"/>
<circle cx="192" cy="288" r="9" fill="rgb(255,48,128)"/>
<circle cx="216" cy="288" r="12" fill="rgb(255,48,128)" opacity="0.35"/>
<circle cx="216" cy="288" r="9" fill="rgb(255,48,128)"/>
<circle cx="240" cy="288" r="12" fill="rgb(255,48,128)" opacity="0.35"/>
<circle cx="240" cy="288" r="9" fill="rgb(255,48,128)"/>
<circle cx="264" cy="288" r="12" fill="rgb(253,49,129)" opacity="0.35"/>
<circle cx="264" cy="288" r="9" fill="rgb(253,49,129)"/>
<circle cx="288" cy="288" r="12" fill="rgb(28,177,209)" opacity="0.35"/>
<circle cx="288" cy="288" r="9" fill="rgb(28,177,209)"/>
<circle cx="312" cy="288" r="12" fill="rgb(39,155,187)" opacity="0.35"/>
<circle cx="312" cy="288" r="9" fill="rgb(39,155,187)"/>
<circle cx="336" cy="288" r="9" fill="#14171c"/>
<circle cx="360" cy="288" r="9" fill="#14171c"/>
<circle cx="384" cy="288" r="9" fill="#14171c"/>
<circle cx="24" cy="312" r="9" fill="#14171c"/>
<circle cx="48" cy="312" r="9" fill="#14171c"/>
<circle cx="72" cy="312" r="12" fill="rgb(61,46,70)" opacity="0.35"/>
<circle cx="72" cy="312" r="9" fill="rgb(61,46,70)"/>
<circle cx="96" cy="312" r="12" fill="rgb(43,147,180)" opacity="0.35"/>
<circle cx="96" cy="312" r="9" fill="rgb(43,147,180)"/>
<circle cx="120" cy="312" r="12" fill="rgb(0,224,255)" opacity="0.35"/>
<circle cx="120" cy="312" r="9" fill="rgb(0,224,255)"/>
<circle cx="144" cy="312" r="12" fill="rgb(0,224,255)" opacity="0.35"/>
<circle cx="144" cy="312" r="9" fill="rgb(0,224,255)"/>
<circle cx="168" cy="312" r="12" fill="rgb(68,177,221)" opacity="0.35"/>
<circle cx="168" cy="312" r="9" fill="rgb(68,177,221)"/>
<circle cx="192" cy="312" r="12" fill="rgb(151,120,180)" opacity="0.35"/>
<circle cx="192" cy="312" r="9" fill="rgb(151,120,180)"/>
<circle cx="216" cy="312" r="12" fill="rgb(253,49,129)" opacity="0.35"/>
<circle cx="216" cy="312" r="9" fill="rgb(253,49,129)"/>
<circle cx="240" cy="312" r="12" fill="rgb(255,48,128)" opacity="0.35"/>
<circle cx="240" cy="312" r="9" fill="rgb(255,48,128)"/>
<circle cx="264" cy="312" r="12" fill="rgb(102,153,204)" opacity="0.35"/>
<circle cx="264" cy="312" r="9" fill="rgb(102,153,204)"/>
<circle cx="288" cy="312" r="12" fill="rgb(0,224,255)" opacity="0.35"/>
<circle cx="288" cy="312" r="9" fill="rgb(0,224,255)"/>
<circle cx="312" cy="312" r="12" fill="rgb(42,18,33)" opacity="0.35"/>
<circle cx="312" cy="312" r="9" fill="rgb(42,18,33)"/>
<circle cx="336" cy="312" r="9" fill="#14171c"/>
<circle cx="360" cy="312" r="9" fill="#14171c"/>
<circle cx="384" cy="312" r="9" fill="#14171c"/>
<circle cx="24" cy="336" r="9" fill="#14171c"/>
<circle cx="48" cy="336" r="9" fill="#14171c"/>
<circle cx="72" cy="336" r="9" fill="#14171c"/>
<circle cx="96" cy="336" r="9" fill="#14171c"/>
<circle cx="120" cy="336" r="12" fill="rgb(35,12,24)" opacity="0.35"/>
<circle cx="120" cy="336" r="9" fill="rgb(35,12,24)"/>
<circle cx="144" cy="336" r="12" fill="rgb(64,68,96)" opacity="0.35"/>
<circle cx="144" cy="336" r="9" fill="rgb(64,68,96)"/>
<circle cx="168" cy="336" r="12" fill="rgb(38,155,188)" opacity="0.35"/>
<circle cx="168" cy="336" r="9" fill="rgb(38,155,188)"/>
<circle cx="192" cy="336" r="12" fill="rgb(0,224,255)" opacity="0.35"/>
<circle cx="192" cy="336" r="9" fill="rgb(0,224,255)"/>
<circle cx="216" cy="336" r="12" fill="rgb(0,224,255)" opacity="0.35"/>
<circle cx="216" cy="336" r="9" fill="rgb(0,224,255)"/>
<circle cx="240" cy="336" r="12" fill="rgb(86,165,212)" opacity="0.35"/>
<circle cx="240" cy="336" r="9" fill="rgb(86,165,212)"/>
<circle cx="264" cy="336" r="12" fill="rgb(0,224,255)" opacity="0.35"/>
<circle cx="264" cy="336" r="9" fill="rgb(0,224,255)"/>
<circle cx="288" cy="336" r="12" fill="rgb(60,45,68)" opacity="0.35"/>
<circle cx="288" cy="336" r="9" fill="rgb(60,45,68)"/>
<circle cx="312" cy="336" r="9" fill="#14171c"/>
<circle cx="336" cy="336" r="9" fill="#14171c"/>
<circle cx="360" cy="336" r="9" fill="#14171c"/>
<circle cx="384" cy="336" r="9" fill="#14171c"/>
<circle cx="24" cy="360" r="9" fill="#14171c"/>
<circle cx="48" cy="360" r="9" fill="#14171c"/>
<circle cx="72" cy="360" r="9" fill="#14171c"/>
<circle cx="96" cy="360" r="9" fill="#14171c"/>
<circle cx="120" cy="360" r="9" fill="#14171c"/>
<circle cx="144" cy="360" r="9" fill="#14171c"/>
<circle cx="168" cy="360" r="9" fill="#14171c"/>
<circle cx="192" cy="360" r="12" fill="rgb(31,10,21)" opacity="0.35"/>
<circle cx="192" cy="360" r="9" fill="rgb(31,10,21)"/>
<circle cx="216" cy="360" r="12" fill="rgb(62,51,76)" opacity="0.35"/>
<circle cx="216" cy="360" r="9" fill="rgb(62,51,76)"/>
<circle cx="240" cy="360" r="12" fill="rgb(52,124,156)" opacity="0.35"/>
<circle cx="240" cy="360" r="9" fill="rgb(52,124,156)"/>
<circle cx="264" cy="360" r="12" fill="rgb(63,80,110)" opacity="0.35"/>
<circle cx="264" cy="360" r="9" fill="rgb(63,80,110)"/>
<circle cx="288" cy="360" r="9" fill="#14171c"/>
<circle cx="312" cy="360" r="9" fill="#14171c"/>
<circle cx="336" cy="360" r="9" fill="#14171c"/>
<circle cx="360" cy="360" r="9" fill="#14171c"/>
<circle cx="384" cy="360" r="9" fill="#14171c"/>
<circle cx="24" cy="384" r="9" fill="#14171c"/>
<circle cx="48" cy="384" r="9" fill="#14171c"/>
<circle cx="72" cy="384" r="9" fill="#14171c"/>
<circle cx="96" cy="384" r="9" fill="#14171c"/>
<circle cx="120" cy="384" r="9" fill="#14171c"/>
<circle cx="144" cy="384" r="9" fill="#14171c"/>
<circle cx="168" cy="384" r="9" fill="#14171c"/>
<circle cx="192" cy="384" r="9" fill="#14171c"/>
<circle cx="216" cy="384" r="9" fill="#14171c"/>
<circle cx="240" cy="384" r="9" fill="#14171c"/>
<circle cx="264" cy="384" r="9" fill="#14171c"/>
<circle cx="288" cy="384" r="9" fill="#14171c"/>
<circle cx="312" cy="384" r="9" fill="#14171c"/>
<circle cx="336" cy="384" r="9" fill="#14171c"/>
<circle cx="360" cy="384" r="9" fill="#14171c"/>
<circle cx="384" cy="384" r="9" fill="#14171c"/>
</svg>
