<svg xmlns="http://www.w3.org/2000/svg" viewBox="0 0 408 408" width="408" height="408" role="img" aria-label="LED preview of the Fade to Black example graph">
<rect width="408" height="408" rx="10" fill="#05070a"/>
<circle cx="24" cy="24" r="12" fill="rgb(137,76,0)" opacity="0.35"/>
<circle cx="24" cy="24" r="9" fill="rgb(137,76,0)"/>
<circle cx="48" cy="24" r="12" fill="rgb(137,43,0)" opacity="0.35"/>
<circle cx="48" cy="24" r="9" fill="rgb(137,43,0)"/>
<circle cx="72" cy="24" r="12" fill="rgb(137,17,0)" opacity="0.35"/>
<circle cx="72" cy="24" r="9" fill="rgb(137,17,0)"/>
<circle cx="96" cy="24" r="12" fill="rgb(114,1,133)" opacity="0.35"/>
<circle cx="96" cy="24" r="9" fill="rgb(114,1,133)"/>
<circle cx="120" cy="24" r="12" fill="rgb(103,5,134)" opacity="0.35"/>
<circle cx="120" cy="24" r="9" fill="rgb(103,5,134)"/>
<circle cx="144" cy="24" r="12" fill="rgb(104,5,134)" opacity="0.35"/>
<circle cx="144" cy="24" r="9" fill="rgb(104,5,134)"/>
<circle cx="168" cy="24" r="12" fill="rgb(114,0,133)" opacity="0.35"/>
<circle cx="168" cy="24" r="9" fill="rgb(114,0,133)"/>
<circle cx="192" cy="24" r="12" fill="rgb(137,11,0)" opacity="0.35"/>
<circle cx="192" cy="24" r="9" fill="rgb(137,11,0)"/>
<circle cx="216" cy="24" r="12" fill="rgb(137,23,0)" opacity="0.35"/>
<circle cx="216" cy="24" r="9" fill="rgb(137,23,0)"/>
<circle cx="240" cy="24" r="12" fill="rgb(137,35,0)" opacity="0.35"/>
<circle cx="240" cy="24" r="9" fill="rgb(137,35,0)"/>
<circle cx="264" cy="24" r="12" fill="rgb(137,44,0)" opacity="0.35"/>
<circle cx="264" cy="24" r="9" fill="rgb(137,44,0)"/>
<circle cx="288" cy="24" r="12" fill="rgb(137,49,0)" opacity="0.35"/>
<circle cx="288" cy="24" r="9" fill="rgb(137,49,0)"/>
<circle cx="312" cy="24" r="12" fill="rgb(137,51,0)" opacity="0.35"/>
<circle cx="312" cy="24" r="9" fill="rgb(137,51,0)"/>
<circle cx="336" cy="24" r="12" fill="rgb(137,51,0)" opacity="0.35"/>
<circle cx="336" cy="24" r="9" fill="rgb(137,51,0)"/>
<circle cx="360" cy="24" r="12" fill="rgb(137,49,0)" opacity="0.35"/>
<circle cx="360" cy="24" r="9" fill="rgb(137,49,0)"/>
<circle cx="384" cy="24" r="12" fill="rgb(137,47,0)" opacity="0.35"/>
<circle cx="384" cy="24" r="9" fill="rgb(137,47,0)"/>
<circle cx="24" cy="48" r="12" fill="rgb(137,33,0)" opacity="0.35"/>
<circle cx="24" cy="48" r="9" fill="rgb(137,33,0)"/>
<circle cx="48" cy="48" r="12" fill="rgb(111,2,133)" opacity="0.35"/>
<circle cx="48" cy="48" r="9" fill="rgb(111,2,133)"/>
<circle cx="72" cy="48" r="12" fill="rgb(77,18,134)" opacity="0.35"/>
<circle cx="72" cy="48" r="9" fill="rgb(77,18,134)"/>
<circle cx="96" cy="48" r="12" fill="rgb(57,27,135)" opacity="0.35"/>
<circle cx="96" cy="48" r="9" fill="rgb(57,27,135)"/>
<circle cx="120" cy="48" r="12" fill="rgb(51,30,135)" opacity="0.35"/>
<circle cx="120" cy="48" r="9" fill="rgb(51,30,135)"/>
<circle cx="144" cy="48" r="12" fill="rgb(57,27,135)" opacity="0.35"/>
<circle cx="144" cy="48" r="9" fill="rgb(57,27,135)"/>
<circle cx="168" cy="48" r="12" fill="rgb(72,20,134)" opacity="0.35"/>
<circle cx="168" cy="48" r="9" fill="rgb(72,20,134)"/>
<circle cx="192" cy="48" r="12" fill="rgb(91,11,134)" opacity="0.35"/>
<circle cx="192" cy="48" r="9" fill="rgb(91,11,134)"/>
<circle cx="216" cy="48" r="12" fill="rgb(111,2,133)" opacity="0.35"/>
<circle cx="216" cy="48" r="9" fill="rgb(111,2,133)"/>
<circle cx="240" cy="48" r="12" fill="rgb(137,11,0)" opacity="0.35"/>
<circle cx="240" cy="48" r="9" fill="rgb(137,11,0)"/>
<circle cx="264" cy="48" r="12" fill="rgb(137,21,0)" opacity="0.35"/>
<circle cx="264" cy="48" r="9" fill="rgb(137,21,0)"/>
<circle cx="288" cy="48" r="12" fill="rgb(137,27,0)" opacity="0.35"/>
<circle cx="288" cy="48" r="9" fill="rgb(137,27,0)"/>
<circle cx="312" cy="48" r="12" fill="rgb(137,29,0)" opacity="0.35"/>
<circle cx="312" cy="48" r="9" fill="rgb(137,29,0)"/>
<circle cx="336" cy="48" r="12" fill="rgb(137,28,0)" opacity="0.35"/>
<circle cx="336" cy="48" r="9" fill="rgb(137,28,0)"/>
<circle cx="360" cy="48" r="12" fill="rgb(137,26,0)" opacity="0.35"/>
<circle cx="360" cy="48" r="9" fill="rgb(137,26,0)"/>
<circle cx="384" cy="48" r="12" fill="rgb(137,24,0)" opacity="0.35"/>
<circle cx="384" cy="48" r="9" fill="rgb(137,24,0)"/>
<circle cx="24" cy="72" r="12" fill="rgb(103,5,134)" opacity="0.35"/>
<circle cx="24" cy="72" r="9" fill="rgb(103,5,134)"/>
<circle cx="48" cy="72" r="12" fill="rgb(57,27,135)" opacity="0.35"/>
<circle cx="48" cy="72" r="9" fill="rgb(57,27,135)"/>
<circle cx="72" cy="72" r="12" fill="rgb(27,42,136)" opacity="0.35"/>
<circle cx="72" cy="72" r="9" fill="rgb(27,42,136)"/>
<circle cx="96" cy="72" r="12" fill="rgb(22,50,136)" opacity="0.35"/>
<circle cx="96" cy="72" r="9" fill="rgb(22,50,136)"/>
<circle cx="120" cy="72" r="12" fill="rgb(22,50,136)" opacity="0.35"/>
<circle cx="120" cy="72" r="9" fill="rgb(22,50,136)"/>
<circle cx="144" cy="72" r="12" fill="rgb(25,43,136)" opacity="0.35"/>
<circle cx="144" cy="72" r="9" fill="rgb(25,43,136)"/>
<circle cx="168" cy="72" r="12" fill="rgb(44,33,135)" opacity="0.35"/>
<circle cx="168" cy="72" r="9" fill="rgb(44,33,135)"/>
<circle cx="192" cy="72" r="12" fill="rgb(69,21,135)" opacity="0.35"/>
<circle cx="192" cy="72" r="9" fill="rgb(69,21,135)"/>
<circle cx="216" cy="72" r="12" fill="rgb(94,10,134)" opacity="0.35"/>
<circle cx="216" cy="72" r="9" fill="rgb(94,10,134)"/>
<circle cx="240" cy="72" r="12" fill="rgb(137,0,0)" opacity="0.35"/>
<circle cx="240" cy="72" r="9" fill="rgb(137,0,0)"/>
<circle cx="264" cy="72" r="12" fill="rgb(137,11,0)" opacity="0.35"/>
<circle cx="264" cy="72" r="9" fill="rgb(137,11,0)"/>
<circle cx="288" cy="72" r="12" fill="rgb(137,17,0)" opacity="0.35"/>
<circle cx="288" cy="72" r="9" fill="rgb(137,17,0)"/>
<circle cx="312" cy="72" r="12" fill="rgb(137,18,0)" opacity="0.35"/>
<circle cx="312" cy="72" r="9" fill="rgb(137,18,0)"/>
<circle cx="336" cy="72" r="12" fill="rgb(137,16,0)" opacity="0.35"/>
<circle cx="336" cy="72" r="9" fill="rgb(137,16,0)"/>
<circle cx="360" cy="72" r="12" fill="rgb(137,12,0)" opacity="0.35"/>
<circle cx="360" cy="72" r="9" fill="rgb(137,12,0)"/>
<circle cx="384" cy="72" r="12" fill="rgb(137,9,0)" opacity="0.35"/>
<circle cx="384" cy="72" r="9" fill="rgb(137,9,0)"/>
<circle cx="24" cy="96" r="12" fill="rgb(57,27,135)" opacity="0.35"/>
<circle cx="24" cy="96" r="9" fill="rgb(57,27,135)"/>
<circle cx="48" cy="96" r="12" fill="rgb(22,49,136)" opacity="0.35"/>
<circle cx="48" cy="96" r="9" fill="rgb(22,49,136)"/>
<circle cx="72" cy="96" r="12" fill="rgb(15,64,136)" opacity="0.35"/>
<circle cx="72" cy="96" r="9" fill="rgb(15,64,136)"/>
<circle cx="96" cy="96" r="12" fill="rgb(12,69,137)" opacity="0.35"/>
<circle cx="96" cy="96" r="9" fill="rgb(12,69,137)"/>
<circle cx="120" cy="96" r="12" fill="rgb(14,65,136)" opacity="0.35"/>
<circle cx="120" cy="96" r="9" fill="rgb(14,65,136)"/>
<circle cx="144" cy="96" r="12" fill="rgb(20,53,136)" opacity="0.35"/>
<circle cx="144" cy="96" r="9" fill="rgb(20,53,136)"/>
<circle cx="168" cy="96" r="12" fill="rgb(35,38,135)" opacity="0.35"/>
<circle cx="168" cy="96" r="9" fill="rgb(35,38,135)"/>
<circle cx="192" cy="96" r="12" fill="rgb(65,24,135)" opacity="0.35"/>
<circle cx="192" cy="96" r="9" fill="rgb(65,24,135)"/>
<circle cx="216" cy="96" r="12" fill="rgb(94,10,134)" opacity="0.35"/>
<circle cx="216" cy="96" r="9" fill="rgb(94,10,134)"/>
<circle cx="240" cy="96" r="12" fill="rgb(137,3,0)" opacity="0.35"/>
<circle cx="240" cy="96" r="9" fill="rgb(137,3,0)"/>
<circle cx="264" cy="96" r="12" fill="rgb(137,14,0)" opacity="0.35"/>
<circle cx="264" cy="96" r="9" fill="rgb(137,14,0)"/>
<circle cx="288" cy="96" r="12" fill="rgb(137,20,0)" opacity="0.35"/>
<circle cx="288" cy="96" r="9" fill="rgb(137,20,0)"/>
<circle cx="312" cy="96" r="12" fill="rgb(137,20,0)" opacity="0.35"/>
<circle cx="312" cy="96" r="9" fill="rgb(137,20,0)"/>
<circle cx="336" cy="96" r="12" fill="rgb(137,16,0)" opacity="0.35"/>
<circle cx="336" cy="96" r="9" fill="rgb(137,16,0)"/>
<circle cx="360" cy="96" r="12" fill="rgb(137,9,0)" opacity="0.35"/>
<circle cx="360" cy="96" r="9" fill="rgb(137,9,0)"/>
<circle cx="384" cy="96" r="12" fill="rgb(137,4,0)" opacity="0.35"/>
<circle cx="384" cy="96" r="9" fill="rgb(137,4,0)"/>
<circle cx="24" cy="120" r="12" fill="rgb(25,44,136)" opacity="0.35"/>
<circle cx="24" cy="120" r="9" fill="rgb(25,44,136)"/>
<circle cx="48" cy="120" r="12" fill="rgb(14,66,136)" opacity="0.35"/>
<circle cx="48" cy="120" r="9" fill="rgb(14,66,136)"/>
<circle cx="72" cy="120" r="12" fill="rgb(8,78,137)" opacity="0.35"/>
<circle cx="72" cy="120" r="9" fill="rgb(8,78,137)"/>
<circle cx="96" cy="120" r="12" fill="rgb(7,79,137)" opacity="0.35"/>
<circle cx="96" cy="120" r="9" fill="rgb(7,79,137)"/>
<circle cx="120" cy="120" r="12" fill="rgb(12,70,137)" opacity="0.35"/>
<circle cx="120" cy="120" r="9" fill="rgb(12,70,137)"/>
<circle cx="144" cy="120" r="12" fill="rgb(20,54,136)" opacity="0.35"/>
<circle cx="144" cy="120" r="9" fill="rgb(20,54,136)"/>
<circle cx="168" cy="120" r="12" fill="rgb(41,35,135)" opacity="0.35"/>
<circle cx="168" cy="120" r="9" fill="rgb(41,35,135)"/>
<circle cx="192" cy="120" r="12" fill="rgb(79,17,134)" opacity="0.35"/>
<circle cx="192" cy="120" r="9" fill="rgb(79,17,134)"/>
<circle cx="216" cy="120" r="12" fill="rgb(112,1,133)" opacity="0.35"/>
<circle cx="216" cy="120" r="9" fill="rgb(112,1,133)"/>
<circle cx="240" cy="120" r="12" fill="rgb(137,18,0)" opacity="0.35"/>
<circle cx="240" cy="120" r="9" fill="rgb(137,18,0)"/>
<circle cx="264" cy="120" r="12" fill="rgb(137,30,0)" opacity="0.35"/>
<circle cx="264" cy="120" r="9" fill="rgb(137,30,0)"/>
<circle cx="288" cy="120" r="12" fill="rgb(137,35,0)" opacity="0.35"/>
<circle cx="288" cy="120" r="9" fill="rgb(137,35,0)"/>
<circle cx="312" cy="120" r="12" fill="rgb(137,33,0)" opacity="0.35"/>
<circle cx="312" cy="120" r="9" fill="rgb(137,33,0)"/>
<circle cx="336" cy="120" r="12" fill="rgb(137,26,0)" opacity="0.35"/>
<circle cx="336" cy="120" r="9" fill="rgb(137,26,0)"/>
<circle cx="360" cy="120" r="12" fill="rgb(137,17,0)" opacity="0.35"/>
<circle cx="360" cy="120" r="9" fill="rgb(137,17,0)"/>
<circle cx="384" cy="120" r="12" fill="rgb(137,9,0)" opacity="0.35"/>
<circle cx="384" cy="120" r="9" fill="rgb(137,9,0)"/>
<circle cx="24" cy="144" r="12" fill="rgb(19,57,136)" opacity="0.35"/>
<circle cx="24" cy="144" r="9" fill="rgb(19,57,136)"/>
<circle cx="48" cy="144" r="12" fill="rgb(9,76,137)" opacity="0.35"/>
<circle cx="48" cy="144" r="9" fill="rgb(9,76,137)"/>
<circle cx="72" cy="144" r="12" fill="rgb(5,84,137)" opacity="0.35"/>
<circle cx="72" cy="144" r="9" fill="rgb(5,84,137)"/>
<circle cx="96" cy="144" r="12" fill="rgb(7,80,137)" opacity="0.35"/>
<circle cx="96" cy="144" r="9" fill="rgb(7,80,137)"/>
<circle cx="120" cy="144" r="12" fill="rgb(13,67,136)" opacity="0.35"/>
<circle cx="120" cy="144" r="9" fill="rgb(13,67,136)"/>
<circle cx="144" cy="144" r="12" fill="rgb(24,46,136)" opacity="0.35"/>
<circle cx="144" cy="144" r="9" fill="rgb(24,46,136)"/>
<circle cx="168" cy="144" r="12" fill="rgb(63,24,135)" opacity="0.35"/>
<circle cx="168" cy="144" r="9" fill="rgb(63,24,135)"/>
<circle cx="192" cy="144" r="12" fill="rgb(108,3,133)" opacity="0.35"/>
<circle cx="192" cy="144" r="9" fill="rgb(108,3,133)"/>
<circle cx="216" cy="144" r="12" fill="rgb(137,24,0)" opacity="0.35"/>
<circle cx="216" cy="144" r="9" fill="rgb(137,24,0)"/>
<circle cx="240" cy="144" r="12" fill="rgb(137,45,0)" opacity="0.35"/>
<circle cx="240" cy="144" r="9" fill="rgb(137,45,0)"/>
<circle cx="264" cy="144" r="12" fill="rgb(137,57,0)" opacity="0.35"/>
<circle cx="264" cy="144" r="9" fill="rgb(137,57,0)"/>
<circle cx="288" cy="144" r="12" fill="rgb(137,60,0)" opacity="0.35"/>
<circle cx="288" cy="144" r="9" fill="rgb(137,60,0)"/>
<circle cx="312" cy="144" r="12" fill="rgb(137,56,0)" opacity="0.35"/>
<circle cx="312" cy="144" r="9" fill="rgb(137,56,0)"/>
<circle cx="336" cy="144" r="12" fill="rgb(137,47,0)" opacity="0.35"/>
<circle cx="336" cy="144" r="9" fill="rgb(137,47,0)"/>
<circle cx="360" cy="144" r="12" fill="rgb(137,35,0)" opacity="0.35"/>
<circle cx="360" cy="144" r="9" fill="rgb(137,35,0)"/>
<circle cx="384" cy="144" r="12" fill="rgb(137,23,0)" opacity="0.35"/>
<circle cx="384" cy="144" r="9" fill="rgb(137,23,0)"/>
<circle cx="24" cy="168" r="12" fill="rgb(16,62,136)" opacity="0.35"/>
<circle cx="24" cy="168" r="9" fill="rgb(16,62,136)"/>
<circle cx="48" cy="168" r="12" fill="rgb(8,78,137)" opacity="0.35"/>
<circle cx="48" cy="168" r="9" fill="rgb(8,78,137)"/>
<circle cx="72" cy="168" r="12" fill="rgb(6,82,137)" opacity="0.35"/>
<circle cx="72" cy="168" r="9" fill="rgb(6,82,137)"/>
<circle cx="96" cy="168" r="12" fill="rgb(10,75,137)" opacity="0.35"/>
<circle cx="96" cy="168" r="9" fill="rgb(10,75,137)"/>
<circle cx="120" cy="168" r="12" fill="rgb(19,57,136)" opacity="0.35"/>
<circle cx="120" cy="168" r="9" fill="rgb(19,57,136)"/>
<circle cx="144" cy="168" r="12" fill="rgb(46,33,135)" opacity="0.35"/>
<circle cx="144" cy="168" r="9" fill="rgb(46,33,135)"/>
<circle cx="168" cy="168" r="12" fill="rgb(97,8,134)" opacity="0.35"/>
<circle cx="168" cy="168" r="9" fill="rgb(97,8,134)"/>
<circle cx="192" cy="168" r="12" fill="rgb(137,26,0)" opacity="0.35"/>
<circle cx="192" cy="168" r="9" fill="rgb(137,26,0)"/>
<circle cx="216" cy="168" r="12" fill="rgb(137,58,0)" opacity="0.35"/>
<circle cx="216" cy="168" r="9" fill="rgb(137,58,0)"/>
<circle cx="240" cy="168" r="12" fill="rgb(137,77,0)" opacity="0.35"/>
<circle cx="240" cy="168" r="9" fill="rgb(137,77,0)"/>
<circle cx="264" cy="168" r="12" fill="rgb(137,85,0)" opacity="0.35"/>
<circle cx="264" cy="168" r="9" fill="rgb(137,85,0)"/>
<circle cx="288" cy="168" r="12" fill="rgb(137,86,0)" opacity="0.35"/>
<circle cx="288" cy="168" r="9" fill="rgb(137,86,0)"/>
<circle cx="312" cy="168" r="12" fill="rgb(137,81,0)" opacity="0.35"/>
<circle cx="312" cy="168" r="9" fill="rgb(137,81,0)"/>
<circle cx="336" cy="168" r="12" fill="rgb(137,73,0)" opacity="0.35"/>
<circle cx="336" cy="168" r="9" fill="rgb(137,73,0)"/>
<circle cx="360" cy="168" r="12" fill="rgb(137,61,0)" opacity="0.35"/>
<circle cx="360" cy="168" r="9" fill="rgb(137,61,0)"/>
<circle cx="384" cy="168" r="12" fill="rgb(137,46,0)" opacity="0.35"/>
<circle cx="384" cy="168" r="9" fill="rgb(137,46,0)"/>
<circle cx="24" cy="192" r="12" fill="rgb(17,60,136)" opacity="0.35"/>
<circle cx="24" cy="192" r="9" fill="rgb(17,60,136)"/>
<circle cx="48" cy="192" r="12" fill="rgb(10,74,137)" opacity="0.35"/>
<circle cx="48" cy="192" r="9" fill="rgb(10,74,137)"/>
<circle cx="72" cy="192" r="12" fill="rgb(10,75,137)" opacity="0.35"/>
<circle cx="72" cy="192" r="9" fill="rgb(10,75,137)"/>
<circle cx="96" cy="192" r="12" fill="rgb(15,64,136)" opacity="0.35"/>
<circle cx="96" cy="192" r="9" fill="rgb(15,64,136)"/>
<circle cx="120" cy="192" r="12" fill="rgb(26,42,136)" opacity="0.35"/>
<circle cx="120" cy="192" r="9" fill="rgb(26,42,136)"/>
<circle cx="144" cy="192" r="12" fill="rgb(78,18,134)" opacity="0.35"/>
<circle cx="144" cy="192" r="9" fill="rgb(78,18,134)"/>
<circle cx="168" cy="192" r="12" fill="rgb(137,17,0)" opacity="0.35"/>
<circle cx="168" cy="192" r="9" fill="rgb(137,17,0)"/>
<circle cx="192" cy="192" r="12" fill="rgb(137,61,0)" opacity="0.35"/>
<circle cx="192" cy="192" r="9" fill="rgb(137,61,0)"/>
<circle cx="216" cy="192" r="12" fill="rgb(137,89,0)" opacity="0.35"/>
<circle cx="216" cy="192" r="9" fill="rgb(137,89,0)"/>
<circle cx="240" cy="192" r="12" fill="rgb(137,106,0)" opacity="0.35"/>
<circle cx="240" cy="192" r="9" fill="rgb(137,106,0)"/>
<circle cx="264" cy="192" r="12" fill="rgb(137,114,0)" opacity="0.35"/>
<circle cx="264" cy="192" r="9" fill="rgb(137,114,0)"/>
<circle cx="288" cy="192" r="12" fill="rgb(137,114,0)" opacity="0.35"/>
<circle cx="288" cy="192" r="9" fill="rgb(137,114,0)"/>
<circle cx="312" cy="192" r="12" fill="rgb(137,108,0)" opacity="0.35"/>
<circle cx="312" cy="192" r="9" fill="rgb(137,108,0)"/>
<circle cx="336" cy="192" r="12" fill="rgb(137,97,0)" opacity="0.35"/>
<circle cx="336" cy="192" r="9" fill="rgb(137,97,0)"/>
<circle cx="360" cy="192" r="12" fill="rgb(137,85,0)" opacity="0.35"/>
<circle cx="360" cy="192" r="9" fill="rgb(137,85,0)"/>
<circle cx="384" cy="192" r="12" fill="rgb(137,71,0)" opacity="0.35"/>
<circle cx="384" cy="192" r="9" fill="rgb(137,71,0)"/>
<circle cx="24" cy="216" r="12" fill="rgb(20,53,136)" opacity="0.35"/>
<circle cx="24" cy="216" r="9" fill="rgb(20,53,136)"/>
<circle cx="48" cy="216" r="12" fill="rgb(14,65,136)" opacity="0.35"/>
<circle cx="48" cy="216" r="9" fill="rgb(14,65,136)"/>
<circle cx="72" cy="216" r="12" fill="rgb(15,63,136)" opacity="0.35"/>
<circle cx="72" cy="216" r="9" fill="rgb(15,63,136)"/>
<circle cx="96" cy="216" r="12" fill="rgb(22,50,136)" opacity="0.35"/>
<circle cx="96" cy="216" r="9" fill="rgb(22,50,136)"/>
<circle cx="120" cy="216" r="12" fill="rgb(56,28,135)" opacity="0.35"/>
<circle cx="120" cy="216" r="9" fill="rgb(56,28,135)"/>
<circle cx="144" cy="216" r="12" fill="rgb(112,1,133)" opacity="0.35"/>
<circle cx="144" cy="216" r="9" fill="rgb(112,1,133)"/>
<circle cx="168" cy="216" r="12" fill="rgb(137,46,0)" opacity="0.35"/>
<circle cx="168" cy="216" r="9" fill="rgb(137,46,0)"/>
<circle cx="192" cy="216" r="12" fill="rgb(137,87,0)" opacity="0.35"/>
<circle cx="192" cy="216" r="9" fill="rgb(137,87,0)"/>
<circle cx="216" cy="216" r="12" fill="rgb(118,113,6)" opacity="0.35"/>
<circle cx="216" cy="216" r="9" fill="rgb(118,113,6)"/>
<circle cx="240" cy="216" r="12" fill="rgb(80,111,18)" opacity="0.35"/>
<circle cx="240" cy="216" r="9" fill="rgb(80,111,18)"/>
<circle cx="264" cy="216" r="12" fill="rgb(62,110,25)" opacity="0.35"/>
<circle cx="264" cy="216" r="9" fill="rgb(62,110,25)"/>
<circle cx="288" cy="216" r="12" fill="rgb(62,110,24)" opacity="0.35"/>
<circle cx="288" cy="216" r="9" fill="rgb(62,110,24)"/>
<circle cx="312" cy="216" r="12" fill="rgb(80,111,18)" opacity="0.35"/>
<circle cx="312" cy="216" r="9" fill="rgb(80,111,18)"/>
<circle cx="336" cy="216" r="12" fill="rgb(111,113,8)" opacity="0.35"/>
<circle cx="336" cy="216" r="9" fill="rgb(111,113,8)"/>
<circle cx="360" cy="216" r="12" fill="rgb(137,109,0)" opacity="0.35"/>
<circle cx="360" cy="216" r="9" fill="rgb(137,109,0)"/>
<circle cx="384" cy="216" r="12" fill="rgb(137,94,0)" opacity="0.35"/>
<circle cx="384" cy="216" r="9" fill="rgb(137,94,0)"/>
<circle cx="24" cy="240" r="12" fill="rgb(27,42,136)" opacity="0.35"/>
<circle cx="24" cy="240" r="9" fill="rgb(27,42,136)"/>
<circle cx="48" cy="240" r="12" fill="rgb(21,52,136)" opacity="0.35"/>
<circle cx="48" cy="240" r="9" fill="rgb(21,52,136)"/>
<circle cx="72" cy="240" r="12" fill="rgb(22,49,136)" opacity="0.35"/>
<circle cx="72" cy="240" r="9" fill="rgb(22,49,136)"/>
<circle cx="96" cy="240" r="12" fill="rgb(41,35,135)" opacity="0.35"/>
<circle cx="96" cy="240" r="9" fill="rgb(41,35,135)"/>
<circle cx="120" cy="240" r="12" fill="rgb(85,14,134)" opacity="0.35"/>
<circle cx="120" cy="240" r="9" fill="rgb(85,14,134)"/>
<circle cx="144" cy="240" r="12" fill="rgb(137,22,0)" opacity="0.35"/>
<circle cx="144" cy="240" r="9" fill="rgb(137,22,0)"/>
<circle cx="168" cy="240" r="12" fill="rgb(137,70,0)" opacity="0.35"/>
<circle cx="168" cy="240" r="9" fill="rgb(137,70,0)"/>
<circle cx="192" cy="240" r="12" fill="rgb(137,106,0)" opacity="0.35"/>
<circle cx="192" cy="240" r="9" fill="rgb(137,106,0)"/>
<circle cx="216" cy="240" r="12" fill="rgb(74,111,20)" opacity="0.35"/>
<circle cx="216" cy="240" r="9" fill="rgb(74,111,20)"/>
<circle cx="240" cy="240" r="12" fill="rgb(22,108,37)" opacity="0.35"/>
<circle cx="240" cy="240" r="9" fill="rgb(22,108,37)"/>
<circle cx="264" cy="240" r="12" fill="rgb(0,107,47)" opacity="0.35"/>
<circle cx="264" cy="240" r="9" fill="rgb(0,107,47)"/>
<circle cx="288" cy="240" r="12" fill="rgb(0,107,48)" opacity="0.35"/>
<circle cx="288" cy="240" r="9" fill="rgb(0,107,48)"/>
<circle cx="312" cy="240" r="12" fill="rgb(11,108,41)" opacity="0.35"/>
<circle cx="312" cy="240" r="9" fill="rgb(11,108,41)"/>
<circle cx="336" cy="240" r="12" fill="rgb(43,109,31)" opacity="0.35"/>
<circle cx="336" cy="240" r="9" fill="rgb(43,109,31)"/>
<circle cx="360" cy="240" r="12" fill="rgb(84,111,17)" opacity="0.35"/>
<circle cx="360" cy="240" r="9" fill="rgb(84,111,17)"/>
<circle cx="384" cy="240" r="12" fill="rgb(127,114,3)" opacity="0.35"/>
<circle cx="384" cy="240" r="9" fill="rgb(127,114,3)"/>
<circle cx="24" cy="264" r="12" fill="rgb(50,31,135)" opacity="0.35"/>
<circle cx="24" cy="264" r="9" fill="rgb(50,31,135)"/>
<circle cx="48" cy="264" r="12" fill="rgb(34,38,136)" opacity="0.35"/>
<circle cx="48" cy="264" r="9" fill="rgb(34,38,136)"/>
<circle cx="72" cy="264" r="12" fill="rgb(40,35,135)" opacity="0.35"/>
<circle cx="72" cy="264" r="9" fill="rgb(40,35,135)"/>
<circle cx="96" cy="264" r="12" fill="rgb(67,22,135)" opacity="0.35"/>
<circle cx="96" cy="264" r="9" fill="rgb(67,22,135)"/>
<circle cx="120" cy="264" r="12" fill="rgb(113,1,133)" opacity="0.35"/>
<circle cx="120" cy="264" r="9" fill="rgb(113,1,133)"/>
<circle cx="144" cy="264" r="12" fill="rgb(137,42,0)" opacity="0.35"/>
<circle cx="144" cy="264" r="9" fill="rgb(137,42,0)"/>
<circle cx="168" cy="264" r="12" fill="rgb(137,84,0)" opacity="0.35"/>
<circle cx="168" cy="264" r="9" fill="rgb(137,84,0)"/>
<circle cx="192" cy="264" r="12" fill="rgb(122,114,5)" opacity="0.35"/>
<circle cx="192" cy="264" r="9" fill="rgb(122,114,5)"/>
<circle cx="216" cy="264" r="12" fill="rgb(39,109,32)" opacity="0.35"/>
<circle cx="216" cy="264" r="9" fill="rgb(39,109,32)"/>
<circle cx="240" cy="264" r="12" fill="rgb(0,105,58)" opacity="0.35"/>
<circle cx="240" cy="264" r="9" fill="rgb(0,105,58)"/>
<circle cx="264" cy="264" r="12" fill="rgb(0,102,80)" opacity="0.35"/>
<circle cx="264" cy="264" r="9" fill="rgb(0,102,80)"/>
<circle cx="288" cy="264" r="12" fill="rgb(0,102,85)" opacity="0.35"/>
<circle cx="288" cy="264" r="9" fill="rgb(0,102,85)"/>
<circle cx="312" cy="264" r="12" fill="rgb(0,103,76)" opacity="0.35"/>
<circle cx="312" cy="264" r="9" fill="rgb(0,103,76)"/>
<circle cx="336" cy="264" r="12" fill="rgb(0,106,56)" opacity="0.35"/>
<circle cx="336" cy="264" r="9" fill="rgb(0,106,56)"/>
<circle cx="360" cy="264" r="12" fill="rgb(23,108,37)" opacity="0.35"/>
<circle cx="360" cy="264" r="9" fill="rgb(23,108,37)"/>
<circle cx="384" cy="264" r="12" fill="rgb(67,110,22)" opacity="0.35"/>
<circle cx="384" cy="264" r="9" fill="rgb(67,110,22)"/>
<circle cx="24" cy="288" r="12" fill="rgb(76,18,134)" opacity="0.35"/>
<circle cx="24" cy="288" r="9" fill="rgb(76,18,134)"/>
<circle cx="48" cy="288" r="12" fill="rgb(60,26,135)" opacity="0.35"/>
<circle cx="48" cy="288" r="9" fill="rgb(60,26,135)"/>
<circle cx="72" cy="288" r="12" fill="rgb(66,23,135)" opacity="0.35"/>
<circle cx="72" cy="288" r="9" fill="rgb(66,23,135)"/>
<circle cx="96" cy="288" r="12" fill="rgb(93,10,134)" opacity="0.35"/>
<circle cx="96" cy="288" r="9" fill="rgb(93,10,134)"/>
<circle cx="120" cy="288" r="12" fill="rgb(137,17,0)" opacity="0.35"/>
<circle cx="120" cy="288" r="9" fill="rgb(137,17,0)"/>
<circle cx="144" cy="288" r="12" fill="rgb(137,58,0)" opacity="0.35"/>
<circle cx="144" cy="288" r="9" fill="rgb(137,58,0)"/>
<circle cx="168" cy="288" r="12" fill="rgb(137,95,0)" opacity="0.35"/>
<circle cx="168" cy="288" r="9" fill="rgb(137,95,0)"/>
<circle cx="192" cy="288" r="12" fill="rgb(95,112,13)" opacity="0.35"/>
<circle cx="192" cy="288" r="9" fill="rgb(95,112,13)"/>
<circle cx="216" cy="288" r="12" fill="rgb(12,108,41)" opacity="0.35"/>
<circle cx="216" cy="288" r="9" fill="rgb(12,108,41)"/>
<circle cx="240" cy="288" r="12" fill="rgb(0,102,78)" opacity="0.35"/>
<circle cx="240" cy="288" r="9" fill="rgb(0,102,78)"/>
<circle cx="264" cy="288" r="12" fill="rgb(0,99,103)" opacity="0.35"/>
<circle cx="264" cy="288" r="9" fill="rgb(0,99,103)"/>
<circle cx="288" cy="288" r="12" fill="rgb(0,97,111)" opacity="0.35"/>
<circle cx="288" cy="288" r="9" fill="rgb(0,97,111)"/>
<circle cx="312" cy="288" r="12" fill="rgb(0,99,106)" opacity="0.35"/>
<circle cx="312" cy="288" r="9" fill="rgb(0,99,106)"/>
<circle cx="336" cy="288" r="12" fill="rgb(0,101,88)" opacity="0.35"/>
<circle cx="336" cy="288" r="9" fill="rgb(0,101,88)"/>
<circle cx="360" cy="288" r="12" fill="rgb(0,104,62)" opacity="0.35"/>
<circle cx="360" cy="288" r="9" fill="rgb(0,104,62)"/>
<circle cx="384" cy="288" r="12" fill="rgb(17,108,39)" opacity="0.35"/>
<circle cx="384" cy="288" r="9" fill="rgb(17,108,39)"/>
<circle cx="24" cy="312" r="12" fill="rgb(101,6,134)" opacity="0.35"/>
<circle cx="24" cy="312" r="9" fill="rgb(101,6,134)"/>
<circle cx="48" cy="312" r="12" fill="rgb(85,14,134)" opacity="0.35"/>
<circle cx="48" cy="312" r="9" fill="rgb(85,14,134)"/>
<circle cx="72" cy="312" r="12" fill="rgb(89,12,134)" opacity="0.35"/>
<circle cx="72" cy="312" r="9" fill="rgb(89,12,134)"/>
<circle cx="96" cy="312" r="12" fill="rgb(137,0,0)" opacity="0.35"/>
<circle cx="96" cy="312" r="9" fill="rgb(137,0,0)"/>
<circle cx="120" cy="312" r="12" fill="rgb(137,31,0)" opacity="0.35"/>
<circle cx="120" cy="312" r="9" fill="rgb(137,31,0)"/>
<circle cx="144" cy="312" r="12" fill="rgb(137,70,0)" opacity="0.35"/>
<circle cx="144" cy="312" r="9" fill="rgb(137,70,0)"/>
<circle cx="168" cy="312" r="12" fill="rgb(137,102,0)" opacity="0.35"/>
<circle cx="168" cy="312" r="9" fill="rgb(137,102,0)"/>
<circle cx="192" cy="312" r="12" fill="rgb(77,111,19)" opacity="0.35"/>
<circle cx="192" cy="312" r="9" fill="rgb(77,111,19)"/>
<circle cx="216" cy="312" r="12" fill="rgb(0,107,47)" opacity="0.35"/>
<circle cx="216" cy="312" r="9" fill="rgb(0,107,47)"/>
<circle cx="240" cy="312" r="12" fill="rgb(0,101,89)" opacity="0.35"/>
<circle cx="240" cy="312" r="9" fill="rgb(0,101,89)"/>
<circle cx="264" cy="312" r="12" fill="rgb(0,97,117)" opacity="0.35"/>
<circle cx="264" cy="312" r="9" fill="rgb(0,97,117)"/>
<circle cx="288" cy="312" r="12" fill="rgb(0,95,129)" opacity="0.35"/>
<circle cx="288" cy="312" r="9" fill="rgb(0,95,129)"/>
<circle cx="312" cy="312" r="12" fill="rgb(0,96,125)" opacity="0.35"/>
<circle cx="312" cy="312" r="9" fill="rgb(0,96,125)"/>
<circle cx="336" cy="312" r="12" fill="rgb(0,98,110)" opacity="0.35"/>
<circle cx="336" cy="312" r="9" fill="rgb(0,98,110)"/>
<circle cx="360" cy="312" r="12" fill="rgb(0,101,86)" opacity="0.35"/>
<circle cx="360" cy="312" r="9" fill="rgb(0,101,86)"/>
<circle cx="384" cy="312" r="12" fill="rgb(0,106,58)" opacity="0.35"/>
<circle cx="384" cy="312" r="9" fill="rgb(0,106,58)"/>
<circle cx="24" cy="336" r="12" fill="rgb(137,7,0)" opacity="0.35"/>
<circle cx="24" cy="336" r="9" fill="rgb(137,7,0)"/>
<circle cx="48" cy="336" r="12" fill="rgb(107,3,133)" opacity="0.35"/>
<circle cx="48" cy="336" r="9" fill="rgb(107,3,133)"/>
<circle cx="72" cy="336" r="12" fill="rgb(110,2,133)" opacity="0.35"/>
<circle cx="72" cy="336" r="9" fill="rgb(110,2,133)"/>
<circle cx="96" cy="336" r="12" fill="rgb(137,14,0)" opacity="0.35"/>
<circle cx="96" cy="336" r="9" fill="rgb(137,14,0)"/>
<circle cx="120" cy="336" r="12" fill="rgb(137,42,0)" opacity="0.35"/>
<circle cx="120" cy="336" r="9" fill="rgb(137,42,0)"/>
<circle cx="144" cy="336" r="12" fill="rgb(137,76,0)" opacity="0.35"/>
<circle cx="144" cy="336" r="9" fill="rgb(137,76,0)"/>
<circle cx="168" cy="336" r="12" fill="rgb(137,107,0)" opacity="0.35"/>
<circle cx="168" cy="336" r="9" fill="rgb(137,107,0)"/>
<circle cx="192" cy="336" r="12" fill="rgb(69,111,22)" opacity="0.35"/>
<circle cx="192" cy="336" r="9" fill="rgb(69,111,22)"/>
<circle cx="216" cy="336" r="12" fill="rgb(0,106,51)" opacity="0.35"/>
<circle cx="216" cy="336" r="9" fill="rgb(0,106,51)"/>
<circle cx="240" cy="336" r="12" fill="rgb(0,100,93)" opacity="0.35"/>
<circle cx="240" cy="336" r="9" fill="rgb(0,100,93)"/>
<circle cx="264" cy="336" r="12" fill="rgb(0,96,122)" opacity="0.35"/>
<circle cx="264" cy="336" r="9" fill="rgb(0,96,122)"/>
<circle cx="288" cy="336" r="12" fill="rgb(0,94,135)" opacity="0.35"/>
<circle cx="288" cy="336" r="9" fill="rgb(0,94,135)"/>
<circle cx="312" cy="336" r="12" fill="rgb(0,94,135)" opacity="0.35"/>
<circle cx="312" cy="336" r="9" fill="rgb(0,94,135)"/>
<circle cx="336" cy="336" r="12" fill="rgb(0,96,122)" opacity="0.35"/>
<circle cx="336" cy="336" r="9" fill="rgb(0,96,122)"/>
<circle cx="360" cy="336" r="12" fill="rgb(0,99,100)" opacity="0.35"/>
<circle cx="360" cy="336" r="9" fill="rgb(0,99,100)"/>
<circle cx="384" cy="336" r="12" fill="rgb(0,103,73)" opacity="0.35"/>
<circle cx="384" cy="336" r="9" fill="rgb(0,103,73)"/>
<circle cx="24" cy="360" r="12" fill="rgb(137,22,0)" opacity="0.35"/>
<circle cx="24" cy="360" r="9" fill="rgb(137,22,0)"/>
<circle cx="48" cy="360" r="12" fill="rgb(137,10,0)" opacity="0.35"/>
<circle cx="48" cy="360" r="9" fill="rgb(137,10,0)"/>
<circle cx="72" cy="360" r="12" fill="rgb(137,11,0)" opacity="0.35"/>
<circle cx="72" cy="360" r="9" fill="rgb(137,11,0)"/>
<circle cx="96" cy="360" r="12" fill="rgb(137,25,0)" opacity="0.35"/>
<circle cx="96" cy="360" r="9" fill="rgb(137,25,0)"/>
<circle cx="120" cy="360" r="12" fill="rgb(137,50,0)" opacity="0.35"/>
<circle cx="120" cy="360" r="9" fill="rgb(137,50,0)"/>
<circle cx="144" cy="360" r="12" fill="rgb(137,80,0)" opacity="0.35"/>
<circle cx="144" cy="360" r="9" fill="rgb(137,80,0)"/>
<circle cx="168" cy="360" r="12" fill="rgb(137,109,0)" opacity="0.35"/>
<circle cx="168" cy="360" r="9" fill="rgb(137,109,0)"/>
<circle cx="192" cy="360" r="12" fill="rgb(69,111,22)" opacity="0.35"/>
<circle cx="192" cy="360" r="9" fill="rgb(69,111,22)"/>
<circle cx="216" cy="360" r="12" fill="rgb(0,107,49)" opacity="0.35"/>
<circle cx="216" cy="360" r="9" fill="rgb(0,107,49)"/>
<circle cx="240" cy="360" r="12" fill="rgb(0,101,91)" opacity="0.35"/>
<circle cx="240" cy="360" r="9" fill="rgb(0,101,91)"/>
<circle cx="264" cy="360" r="12" fill="rgb(0,96,119)" opacity="0.35"/>
<circle cx="264" cy="360" r="9" fill="rgb(0,96,119)"/>
<circle cx="288" cy="360" r="12" fill="rgb(0,95,134)" opacity="0.35"/>
<circle cx="288" cy="360" r="9" fill="rgb(0,95,134)"/>
<circle cx="312" cy="360" r="12" fill="rgb(0,94,135)" opacity="0.35"/>
<circle cx="312" cy="360" r="9" fill="rgb(0,94,135)"/>
<circle cx="336" cy="360" r="12" fill="rgb(0,96,125)" opacity="0.35"/>
<circle cx="336" cy="360" r="9" fill="rgb(0,96,125)"/>
<circle cx="360" cy="360" r="12" fill="rgb(0,99,104)" opacity="0.35"/>
<circle cx="360" cy="360" r="9" fill="rgb(0,99,104)"/>
<circle cx="384" cy="360" r="12" fill="rgb(0,102,79)" opacity="0.35"/>
<circle cx="384" cy="360" r="9" fill="rgb(0,102,79)"/>
<circle cx="24" cy="384" r="12" fill="rgb(137,35,0)" opacity="0.35"/>
<circle cx="24" cy="384" r="9" fill="rgb(137,35,0)"/>
<circle cx="48" cy="384" r="12" fill="rgb(137,22,0)" opacity="0.35"/>
<circle cx="48" cy="384" r="9" fill="rgb(137,22,0)"/>
<circle cx="72" cy="384" r="12" fill="rgb(137,22,0)" opacity="0.35"/>
<circle cx="72" cy="384" r="9" fill="rgb(137,22,0)"/>
<circle cx="96" cy="384" r="12" fill="rgb(137,34,0)" opacity="0.35"/>
<circle cx="96" cy="384" r="9" fill="rgb(137,34,0)"/>
<circle cx="120" cy="384" r="12" fill="rgb(137,57,0)" opacity="0.35"/>
<circle cx="120" cy="384" r="9" fill="rgb(137,57,0)"/>
<circle cx="144" cy="384" r="12" fill="rgb(137,82,0)" opacity="0.35"/>
<circle cx="144" cy="384" r="9" fill="rgb(137,82,0)"/>
<circle cx="168" cy="384" r="12" fill="rgb(137,109,0)" opacity="0.35"/>
<circle cx="168" cy="384" r="9" fill="rgb(137,109,0)"/>
<circle cx="192" cy="384" r="12" fill="rgb(75,111,20)" opacity="0.35"/>
<circle cx="192" cy="384" r="9" fill="rgb(75,111,20)"/>
<circle cx="216" cy="384" r="12" fill="rgb(3,107,43)" opacity="0.35"/>
<circle cx="216" cy="384" r="9" fill="rgb(3,107,43)"/>
<circle cx="240" cy="384" r="12" fill="rgb(0,102,82)" opacity="0.35"/>
<circle cx="240" cy="384" r="9" fill="rgb(0,102,82)"/>
<circle cx="264" cy="384" r="12" fill="rgb(0,98,111)" opacity="0.35"/>
<circle cx="264" cy="384" r="9" fill="rgb(0,98,111)"/>
<circle cx="288" cy="384" r="12" fill="rgb(0,96,126)" opacity="0.35"/>
<circle cx="288" cy="384" r="9" fill="rgb(0,96,126)"/>
<circle cx="312" cy="384" r="12" fill="rgb(0,95,128)" opacity="0.35"/>
<circle cx="312" cy="384" r="9" fill="rgb(0,95,128)"/>
<circle cx="336" cy="384" r="12" fill="rgb(0,97,118)" opacity="0.35"/>
<circle cx="336" cy="384" r="9" fill="rgb(0,97,118)"/>
<circle cx="360" cy="384" r="12" fill="rgb(0,100,100)" opacity="0.35"/>
<circle cx="360" cy="384" r="9" fill="rgb(0,100,100)"/>
<circle cx="384" cy="384" r="12" fill="rgb(0,103,74)" opacity="0.35"/>
<circle cx="384" cy="384" r="9" fill="rgb(0,103,74)"/>
</svg>
