<svg xmlns="http://www.w3.org/2000/svg" viewBox="0 0 408 408" width="408" height="408" role="img" aria-label="LED preview of the Field Tile example graph">
<rect width="408" height="408" rx="10" fill="#05070a"/>
<circle cx="24" cy="24" r="12" fill="rgb(253,36,67)" opacity="0.35"/>
<circle cx="24" cy="24" r="9" fill="rgb(253,36,67)"/>
<circle cx="48" cy="24" r="12" fill="rgb(253,131,9)" opacity="0.35"/>
<circle cx="48" cy="24" r="9" fill="rgb(253,131,9)"/>
<circle cx="72" cy="24" r="12" fill="rgb(170,98,166)" opacity="0.35"/>
<circle cx="72" cy="24" r="9" fill="rgb(170,98,166)"/>
<circle cx="96" cy="24" r="12" fill="rgb(136,62,227)" opacity="0.35"/>
<circle cx="96" cy="24" r="9" fill="rgb(136,62,227)"/>
<circle cx="120" cy="24" r="12" fill="rgb(252,118,8)" opacity="0.35"/>
<circle cx="120" cy="24" r="9" fill="rgb(252,118,8)"/>
<circle cx="144" cy="24" r="12" fill="rgb(255,188,11)" opacity="0.35"/>
<circle cx="144" cy="24" r="9" fill="rgb(255,188,11)"/>
<circle cx="168" cy="24" r="12" fill="rgb(255,180,11)" opacity="0.35"/>
<circle cx="168" cy="24" r="9" fill="rgb(255,180,11)"/>
<circle cx="192" cy="24" r="12" fill="rgb(249,183,23)" opacity="0.35"/>
<circle cx="192" cy="24" r="9" fill="rgb(249,183,23)"/>
<circle cx="216" cy="24" r="12" fill="rgb(254,155,10)" opacity="0.35"/>
<circle cx="216" cy="24" r="9" fill="rgb(254,155,10)"/>
<circle cx="240" cy="24" r="12" fill="rgb(249,183,22)" opacity="0.35"/>
<circle cx="240" cy="24" r="9" fill="rgb(249,183,22)"/>
<circle cx="264" cy="24" r="12" fill="rgb(252,187,16)" opacity="0.35"/>
<circle cx="264" cy="24" r="9" fill="rgb(252,187,16)"/>
<circle cx="288" cy="24" r="12" fill="rgb(164,92,176)" opacity="0.35"/>
<circle cx="288" cy="24" r="9" fill="rgb(164,92,176)"/>
<circle cx="312" cy="24" r="12" fill="rgb(254,159,10)" opacity="0.35"/>
<circle cx="312" cy="24" r="9" fill="rgb(254,159,10)"/>
<circle cx="336" cy="24" r="12" fill="rgb(254,169,10)" opacity="0.35"/>
<circle cx="336" cy="24" r="9" fill="rgb(254,169,10)"/>
<circle cx="360" cy="24" r="12" fill="rgb(254,164,10)" opacity="0.35"/>
<circle cx="360" cy="24" r="9" fill="rgb(254,164,10)"/>
<circle cx="384" cy="24" r="12" fill="rgb(254,153,10)" opacity="0.35"/>
<circle cx="384" cy="24" r="9" fill="rgb(254,153,10)"/>
<circle cx="24" cy="48" r="12" fill="rgb(251,186,18)" opacity="0.35"/>
<circle cx="24" cy="48" r="9" fill="rgb(251,186,18)"/>
<circle cx="48" cy="48" r="12" fill="rgb(175,104,155)" opacity="0.35"/>
<circle cx="48" cy="48" r="9" fill="rgb(175,104,155)"/>
<circle cx="72" cy="48" r="12" fill="rgb(186,115,137)" opacity="0.35"/>
<circle cx="72" cy="48" r="9" fill="rgb(186,115,137)"/>
<circle cx="96" cy="48" r="12" fill="rgb(206,137,100)" opacity="0.35"/>
<circle cx="96" cy="48" r="9" fill="rgb(206,137,100)"/>
<circle cx="120" cy="48" r="12" fill="rgb(240,174,38)" opacity="0.35"/>
<circle cx="120" cy="48" r="9" fill="rgb(240,174,38)"/>
<circle cx="144" cy="48" r="12" fill="rgb(254,155,10)" opacity="0.35"/>
<circle cx="144" cy="48" r="9" fill="rgb(254,155,10)"/>
<circle cx="168" cy="48" r="12" fill="rgb(253,187,15)" opacity="0.35"/>
<circle cx="168" cy="48" r="9" fill="rgb(253,187,15)"/>
<circle cx="192" cy="48" r="12" fill="rgb(255,179,11)" opacity="0.35"/>
<circle cx="192" cy="48" r="9" fill="rgb(255,179,11)"/>
<circle cx="216" cy="48" r="12" fill="rgb(253,144,9)" opacity="0.35"/>
<circle cx="216" cy="48" r="9" fill="rgb(253,144,9)"/>
<circle cx="240" cy="48" r="12" fill="rgb(251,185,19)" opacity="0.35"/>
<circle cx="240" cy="48" r="9" fill="rgb(251,185,19)"/>
<circle cx="264" cy="48" r="12" fill="rgb(252,122,8)" opacity="0.35"/>
<circle cx="264" cy="48" r="9" fill="rgb(252,122,8)"/>
<circle cx="288" cy="48" r="12" fill="rgb(140,66,220)" opacity="0.35"/>
<circle cx="288" cy="48" r="9" fill="rgb(140,66,220)"/>
<circle cx="312" cy="48" r="12" fill="rgb(255,189,11)" opacity="0.35"/>
<circle cx="312" cy="48" r="9" fill="rgb(255,189,11)"/>
<circle cx="336" cy="48" r="12" fill="rgb(254,170,10)" opacity="0.35"/>
<circle cx="336" cy="48" r="9" fill="rgb(254,170,10)"/>
<circle cx="360" cy="48" r="12" fill="rgb(149,75,204)" opacity="0.35"/>
<circle cx="360" cy="48" r="9" fill="rgb(149,75,204)"/>
<circle cx="384" cy="48" r="12" fill="rgb(251,185,19)" opacity="0.35"/>
<circle cx="384" cy="48" r="9" fill="rgb(251,185,19)"/>
<circle cx="24" cy="72" r="12" fill="rgb(196,126,119)" opacity="0.35"/>
<circle cx="24" cy="72" r="9" fill="rgb(196,126,119)"/>
<circle cx="48" cy="72" r="12" fill="rgb(196,126,118)" opacity="0.35"/>
<circle cx="48" cy="72" r="9" fill="rgb(196,126,118)"/>
<circle cx="72" cy="72" r="12" fill="rgb(253,133,9)" opacity="0.35"/>
<circle cx="72" cy="72" r="9" fill="rgb(253,133,9)"/>
<circle cx="96" cy="72" r="12" fill="rgb(207,139,97)" opacity="0.35"/>
<circle cx="96" cy="72" r="9" fill="rgb(207,139,97)"/>
<circle cx="120" cy="72" r="12" fill="rgb(252,187,17)" opacity="0.35"/>
<circle cx="120" cy="72" r="9" fill="rgb(252,187,17)"/>
<circle cx="144" cy="72" r="12" fill="rgb(136,62,226)" opacity="0.35"/>
<circle cx="144" cy="72" r="9" fill="rgb(136,62,226)"/>
<circle cx="168" cy="72" r="12" fill="rgb(156,83,191)" opacity="0.35"/>
<circle cx="168" cy="72" r="9" fill="rgb(156,83,191)"/>
<circle cx="192" cy="72" r="12" fill="rgb(253,128,9)" opacity="0.35"/>
<circle cx="192" cy="72" r="9" fill="rgb(253,128,9)"/>
<circle cx="216" cy="72" r="12" fill="rgb(178,106,151)" opacity="0.35"/>
<circle cx="216" cy="72" r="9" fill="rgb(178,106,151)"/>
<circle cx="240" cy="72" r="12" fill="rgb(253,141,9)" opacity="0.35"/>
<circle cx="240" cy="72" r="9" fill="rgb(253,141,9)"/>
<circle cx="264" cy="72" r="12" fill="rgb(251,87,7)" opacity="0.35"/>
<circle cx="264" cy="72" r="9" fill="rgb(251,87,7)"/>
<circle cx="288" cy="72" r="12" fill="rgb(239,173,40)" opacity="0.35"/>
<circle cx="288" cy="72" r="9" fill="rgb(239,173,40)"/>
<circle cx="312" cy="72" r="12" fill="rgb(255,187,11)" opacity="0.35"/>
<circle cx="312" cy="72" r="9" fill="rgb(255,187,11)"/>
<circle cx="336" cy="72" r="12" fill="rgb(226,159,63)" opacity="0.35"/>
<circle cx="336" cy="72" r="9" fill="rgb(226,159,63)"/>
<circle cx="360" cy="72" r="12" fill="rgb(161,88,182)" opacity="0.35"/>
<circle cx="360" cy="72" r="9" fill="rgb(161,88,182)"/>
<circle cx="384" cy="72" r="12" fill="rgb(252,113,8)" opacity="0.35"/>
<circle cx="384" cy="72" r="9" fill="rgb(252,113,8)"/>
<circle cx="24" cy="96" r="12" fill="rgb(188,117,133)" opacity="0.35"/>
<circle cx="24" cy="96" r="9" fill="rgb(188,117,133)"/>
<circle cx="48" cy="96" r="12" fill="rgb(180,109,147)" opacity="0.35"/>
<circle cx="48" cy="96" r="9" fill="rgb(180,109,147)"/>
<circle cx="72" cy="96" r="12" fill="rgb(255,185,11)" opacity="0.35"/>
<circle cx="72" cy="96" r="9" fill="rgb(255,185,11)"/>
<circle cx="96" cy="96" r="12" fill="rgb(254,152,10)" opacity="0.35"/>
<circle cx="96" cy="96" r="9" fill="rgb(254,152,10)"/>
<circle cx="120" cy="96" r="12" fill="rgb(254,171,10)" opacity="0.35"/>
<circle cx="120" cy="96" r="9" fill="rgb(254,171,10)"/>
<circle cx="144" cy="96" r="12" fill="rgb(216,147,83)" opacity="0.35"/>
<circle cx="144" cy="96" r="9" fill="rgb(216,147,83)"/>
<circle cx="168" cy="96" r="12" fill="rgb(252,111,8)" opacity="0.35"/>
<circle cx="168" cy="96" r="9" fill="rgb(252,111,8)"/>
<circle cx="192" cy="96" r="12" fill="rgb(251,185,19)" opacity="0.35"/>
<circle cx="192" cy="96" r="9" fill="rgb(251,185,19)"/>
<circle cx="216" cy="96" r="12" fill="rgb(251,95,7)" opacity="0.35"/>
<circle cx="216" cy="96" r="9" fill="rgb(251,95,7)"/>
<circle cx="240" cy="96" r="12" fill="rgb(196,126,118)" opacity="0.35"/>
<circle cx="240" cy="96" r="9" fill="rgb(196,126,118)"/>
<circle cx="264" cy="96" r="12" fill="rgb(255,185,11)" opacity="0.35"/>
<circle cx="264" cy="96" r="9" fill="rgb(255,185,11)"/>
<circle cx="288" cy="96" r="12" fill="rgb(253,133,9)" opacity="0.35"/>
<circle cx="288" cy="96" r="9" fill="rgb(253,133,9)"/>
<circle cx="312" cy="96" r="12" fill="rgb(118,70,239)" opacity="0.35"/>
<circle cx="312" cy="96" r="9" fill="rgb(118,70,239)"/>
<circle cx="336" cy="96" r="12" fill="rgb(253,148,9)" opacity="0.35"/>
<circle cx="336" cy="96" r="9" fill="rgb(253,148,9)"/>
<circle cx="360" cy="96" r="12" fill="rgb(239,173,39)" opacity="0.35"/>
<circle cx="360" cy="96" r="9" fill="rgb(239,173,39)"/>
<circle cx="384" cy="96" r="12" fill="rgb(252,75,20)" opacity="0.35"/>
<circle cx="384" cy="96" r="9" fill="rgb(252,75,20)"/>
<circle cx="24" cy="120" r="12" fill="rgb(255,179,11)" opacity="0.35"/>
<circle cx="24" cy="120" r="9" fill="rgb(255,179,11)"/>
<circle cx="48" cy="120" r="12" fill="rgb(251,93,7)" opacity="0.35"/>
<circle cx="48" cy="120" r="9" fill="rgb(251,93,7)"/>
<circle cx="72" cy="120" r="12" fill="rgb(164,91,176)" opacity="0.35"/>
<circle cx="72" cy="120" r="9" fill="rgb(164,91,176)"/>
<circle cx="96" cy="120" r="12" fill="rgb(254,159,10)" opacity="0.35"/>
<circle cx="96" cy="120" r="9" fill="rgb(254,159,10)"/>
<circle cx="120" cy="120" r="12" fill="rgb(251,185,19)" opacity="0.35"/>
<circle cx="120" cy="120" r="9" fill="rgb(251,185,19)"/>
<circle cx="144" cy="120" r="12" fill="rgb(254,167,10)" opacity="0.35"/>
<circle cx="144" cy="120" r="9" fill="rgb(254,167,10)"/>
<circle cx="168" cy="120" r="12" fill="rgb(254,169,10)" opacity="0.35"/>
<circle cx="168" cy="120" r="9" fill="rgb(254,169,10)"/>
<circle cx="192" cy="120" r="12" fill="rgb(166,94,172)" opacity="0.35"/>
<circle cx="192" cy="120" r="9" fill="rgb(166,94,172)"/>
<circle cx="216" cy="120" r="12" fill="rgb(234,167,50)" opacity="0.35"/>
<circle cx="216" cy="120" r="9" fill="rgb(234,167,50)"/>
<circle cx="240" cy="120" r="12" fill="rgb(252,61,37)" opacity="0.35"/>
<circle cx="240" cy="120" r="9" fill="rgb(252,61,37)"/>
<circle cx="264" cy="120" r="12" fill="rgb(129,58,237)" opacity="0.35"/>
<circle cx="264" cy="120" r="9" fill="rgb(129,58,237)"/>
<circle cx="288" cy="120" r="12" fill="rgb(255,181,11)" opacity="0.35"/>
<circle cx="288" cy="120" r="9" fill="rgb(255,181,11)"/>
<circle cx="312" cy="120" r="12" fill="rgb(254,167,10)" opacity="0.35"/>
<circle cx="312" cy="120" r="9" fill="rgb(254,167,10)"/>
<circle cx="336" cy="120" r="12" fill="rgb(191,121,126)" opacity="0.35"/>
<circle cx="336" cy="120" r="9" fill="rgb(191,121,126)"/>
<circle cx="360" cy="120" r="12" fill="rgb(252,105,8)" opacity="0.35"/>
<circle cx="360" cy="120" r="9" fill="rgb(252,105,8)"/>
<circle cx="384" cy="120" r="12" fill="rgb(253,137,9)" opacity="0.35"/>
<circle cx="384" cy="120" r="9" fill="rgb(253,137,9)"/>
<circle cx="24" cy="144" r="12" fill="rgb(251,185,19)" opacity="0.35"/>
<circle cx="24" cy="144" r="9" fill="rgb(251,185,19)"/>
<circle cx="48" cy="144" r="12" fill="rgb(254,171,10)" opacity="0.35"/>
<circle cx="48" cy="144" r="9" fill="rgb(254,171,10)"/>
<circle cx="72" cy="144" r="12" fill="rgb(251,84,9)" opacity="0.35"/>
<circle cx="72" cy="144" r="9" fill="rgb(251,84,9)"/>
<circle cx="96" cy="144" r="12" fill="rgb(100,89,244)" opacity="0.35"/>
<circle cx="96" cy="144" r="9" fill="rgb(100,89,244)"/>
<circle cx="120" cy="144" r="12" fill="rgb(251,185,19)" opacity="0.35"/>
<circle cx="120" cy="144" r="9" fill="rgb(251,185,19)"/>
<circle cx="144" cy="144" r="12" fill="rgb(251,76,19)" opacity="0.35"/>
<circle cx="144" cy="144" r="9" fill="rgb(251,76,19)"/>
<circle cx="168" cy="144" r="12" fill="rgb(140,66,219)" opacity="0.35"/>
<circle cx="168" cy="144" r="9" fill="rgb(140,66,219)"/>
<circle cx="192" cy="144" r="12" fill="rgb(253,145,9)" opacity="0.35"/>
<circle cx="192" cy="144" r="9" fill="rgb(253,145,9)"/>
<circle cx="216" cy="144" r="12" fill="rgb(251,185,19)" opacity="0.35"/>
<circle cx="216" cy="144" r="9" fill="rgb(251,185,19)"/>
<circle cx="240" cy="144" r="12" fill="rgb(255,179,11)" opacity="0.35"/>
<circle cx="240" cy="144" r="9" fill="rgb(255,179,11)"/>
<circle cx="264" cy="144" r="12" fill="rgb(254,152,10)" opacity="0.35"/>
<circle cx="264" cy="144" r="9" fill="rgb(254,152,10)"/>
<circle cx="288" cy="144" r="12" fill="rgb(254,173,10)" opacity="0.35"/>
<circle cx="288" cy="144" r="9" fill="rgb(254,173,10)"/>
<circle cx="312" cy="144" r="12" fill="rgb(251,185,19)" opacity="0.35"/>
<circle cx="312" cy="144" r="9" fill="rgb(251,185,19)"/>
<circle cx="336" cy="144" r="12" fill="rgb(254,157,10)" opacity="0.35"/>
<circle cx="336" cy="144" r="9" fill="rgb(254,157,10)"/>
<circle cx="360" cy="144" r="12" fill="rgb(253,141,9)" opacity="0.35"/>
<circle cx="360" cy="144" r="9" fill="rgb(253,141,9)"/>
<circle cx="384" cy="144" r="12" fill="rgb(253,129,9)" opacity="0.35"/>
<circle cx="384" cy="144" r="9" fill="rgb(253,129,9)"/>
<circle cx="24" cy="168" r="12" fill="rgb(254,175,10)" opacity="0.35"/>
<circle cx="24" cy="168" r="9" fill="rgb(254,175,10)"/>
<circle cx="48" cy="168" r="12" fill="rgb(207,138,98)" opacity="0.35"/>
<circle cx="48" cy="168" r="9" fill="rgb(207,138,98)"/>
<circle cx="72" cy="168" r="12" fill="rgb(251,185,19)" opacity="0.35"/>
<circle cx="72" cy="168" r="9" fill="rgb(251,185,19)"/>
<circle cx="96" cy="168" r="12" fill="rgb(215,147,83)" opacity="0.35"/>
<circle cx="96" cy="168" r="9" fill="rgb(215,147,83)"/>
<circle cx="120" cy="168" r="12" fill="rgb(203,134,105)" opacity="0.35"/>
<circle cx="120" cy="168" r="9" fill="rgb(203,134,105)"/>
<circle cx="144" cy="168" r="12" fill="rgb(254,155,10)" opacity="0.35"/>
<circle cx="144" cy="168" r="9" fill="rgb(254,155,10)"/>
<circle cx="168" cy="168" r="12" fill="rgb(252,102,8)" opacity="0.35"/>
<circle cx="168" cy="168" r="9" fill="rgb(252,102,8)"/>
<circle cx="192" cy="168" r="12" fill="rgb(197,127,116)" opacity="0.35"/>
<circle cx="192" cy="168" r="9" fill="rgb(197,127,116)"/>
<circle cx="216" cy="168" r="12" fill="rgb(253,143,9)" opacity="0.35"/>
<circle cx="216" cy="168" r="9" fill="rgb(253,143,9)"/>
<circle cx="240" cy="168" r="12" fill="rgb(255,190,11)" opacity="0.35"/>
<circle cx="240" cy="168" r="9" fill="rgb(255,190,11)"/>
<circle cx="264" cy="168" r="12" fill="rgb(251,82,12)" opacity="0.35"/>
<circle cx="264" cy="168" r="9" fill="rgb(251,82,12)"/>
<circle cx="288" cy="168" r="12" fill="rgb(254,162,10)" opacity="0.35"/>
<circle cx="288" cy="168" r="9" fill="rgb(254,162,10)"/>
<circle cx="312" cy="168" r="12" fill="rgb(255,183,11)" opacity="0.35"/>
<circle cx="312" cy="168" r="9" fill="rgb(255,183,11)"/>
<circle cx="336" cy="168" r="12" fill="rgb(217,149,79)" opacity="0.35"/>
<circle cx="336" cy="168" r="9" fill="rgb(217,149,79)"/>
<circle cx="360" cy="168" r="12" fill="rgb(164,92,176)" opacity="0.35"/>
<circle cx="360" cy="168" r="9" fill="rgb(164,92,176)"/>
<circle cx="384" cy="168" r="12" fill="rgb(210,142,92)" opacity="0.35"/>
<circle cx="384" cy="168" r="9" fill="rgb(210,142,92)"/>
<circle cx="24" cy="192" r="12" fill="rgb(141,67,217)" opacity="0.35"/>
<circle cx="24" cy="192" r="9" fill="rgb(141,67,217)"/>
<circle cx="48" cy="192" r="12" fill="rgb(189,119,131)" opacity="0.35"/>
<circle cx="48" cy="192" r="9" fill="rgb(189,119,131)"/>
<circle cx="72" cy="192" r="12" fill="rgb(253,142,9)" opacity="0.35"/>
<circle cx="72" cy="192" r="9" fill="rgb(253,142,9)"/>
<circle cx="96" cy="192" r="12" fill="rgb(254,161,10)" opacity="0.35"/>
<circle cx="96" cy="192" r="9" fill="rgb(254,161,10)"/>
<circle cx="120" cy="192" r="12" fill="rgb(162,90,179)" opacity="0.35"/>
<circle cx="120" cy="192" r="9" fill="rgb(162,90,179)"/>
<circle cx="144" cy="192" r="12" fill="rgb(208,139,97)" opacity="0.35"/>
<circle cx="144" cy="192" r="9" fill="rgb(208,139,97)"/>
<circle cx="168" cy="192" r="12" fill="rgb(163,91,178)" opacity="0.35"/>
<circle cx="168" cy="192" r="9" fill="rgb(163,91,178)"/>
<circle cx="192" cy="192" r="12" fill="rgb(195,125,120)" opacity="0.35"/>
<circle cx="192" cy="192" r="9" fill="rgb(195,125,120)"/>
<circle cx="216" cy="192" r="12" fill="rgb(129,59,237)" opacity="0.35"/>
<circle cx="216" cy="192" r="9" fill="rgb(129,59,237)"/>
<circle cx="240" cy="192" r="12" fill="rgb(255,182,11)" opacity="0.35"/>
<circle cx="240" cy="192" r="9" fill="rgb(255,182,11)"/>
<circle cx="264" cy="192" r="12" fill="rgb(154,80,195)" opacity="0.35"/>
<circle cx="264" cy="192" r="9" fill="rgb(154,80,195)"/>
<circle cx="288" cy="192" r="12" fill="rgb(251,185,19)" opacity="0.35"/>
<circle cx="288" cy="192" r="9" fill="rgb(251,185,19)"/>
<circle cx="312" cy="192" r="12" fill="rgb(197,127,116)" opacity="0.35"/>
<circle cx="312" cy="192" r="9" fill="rgb(197,127,116)"/>
<circle cx="336" cy="192" r="12" fill="rgb(192,122,125)" opacity="0.35"/>
<circle cx="336" cy="192" r="9" fill="rgb(192,122,125)"/>
<circle cx="360" cy="192" r="12" fill="rgb(197,127,117)" opacity="0.35"/>
<circle cx="360" cy="192" r="9" fill="rgb(197,127,117)"/>
<circle cx="384" cy="192" r="12" fill="rgb(253,149,9)" opacity="0.35"/>
<circle cx="384" cy="192" r="9" fill="rgb(253,149,9)"/>
<circle cx="24" cy="216" r="12" fill="rgb(163,91,178)" opacity="0.35"/>
<circle cx="24" cy="216" r="9" fill="rgb(163,91,178)"/>
<circle cx="48" cy="216" r="12" fill="rgb(252,111,8)" opacity="0.35"/>
<circle cx="48" cy="216" r="9" fill="rgb(252,111,8)"/>
<circle cx="72" cy="216" r="12" fill="rgb(253,130,9)" opacity="0.35"/>
<circle cx="72" cy="216" r="9" fill="rgb(253,130,9)"/>
<circle cx="96" cy="216" r="12" fill="rgb(251,185,19)" opacity="0.35"/>
<circle cx="96" cy="216" r="9" fill="rgb(251,185,19)"/>
<circle cx="120" cy="216" r="12" fill="rgb(251,85,8)" opacity="0.35"/>
<circle cx="120" cy="216" r="9" fill="rgb(251,85,8)"/>
<circle cx="144" cy="216" r="12" fill="rgb(252,62,36)" opacity="0.35"/>
<circle cx="144" cy="216" r="9" fill="rgb(252,62,36)"/>
<circle cx="168" cy="216" r="12" fill="rgb(252,118,8)" opacity="0.35"/>
<circle cx="168" cy="216" r="9" fill="rgb(252,118,8)"/>
<circle cx="192" cy="216" r="12" fill="rgb(254,189,13)" opacity="0.35"/>
<circle cx="192" cy="216" r="9" fill="rgb(254,189,13)"/>
<circle cx="216" cy="216" r="12" fill="rgb(251,185,19)" opacity="0.35"/>
<circle cx="216" cy="216" r="9" fill="rgb(251,185,19)"/>
<circle cx="240" cy="216" r="12" fill="rgb(254,159,10)" opacity="0.35"/>
<circle cx="240" cy="216" r="9" fill="rgb(254,159,10)"/>
<circle cx="264" cy="216" r="12" fill="rgb(177,106,152)" opacity="0.35"/>
<circle cx="264" cy="216" r="9" fill="rgb(177,106,152)"/>
<circle cx="288" cy="216" r="12" fill="rgb(180,109,147)" opacity="0.35"/>
<circle cx="288" cy="216" r="9" fill="rgb(180,109,147)"/>
<circle cx="312" cy="216" r="12" fill="rgb(182,111,144)" opacity="0.35"/>
<circle cx="312" cy="216" r="9" fill="rgb(182,111,144)"/>
<circle cx="336" cy="216" r="12" fill="rgb(236,170,45)" opacity="0.35"/>
<circle cx="336" cy="216" r="9" fill="rgb(236,170,45)"/>
<circle cx="360" cy="216" r="12" fill="rgb(162,90,179)" opacity="0.35"/>
<circle cx="360" cy="216" r="9" fill="rgb(162,90,179)"/>
<circle cx="384" cy="216" r="12" fill="rgb(252,123,8)" opacity="0.35"/>
<circle cx="384" cy="216" r="9" fill="rgb(252,123,8)"/>
<circle cx="24" cy="240" r="12" fill="rgb(254,174,10)" opacity="0.35"/>
<circle cx="24" cy="240" r="9" fill="rgb(254,174,10)"/>
<circle cx="48" cy="240" r="12" fill="rgb(252,74,21)" opacity="0.35"/>
<circle cx="48" cy="240" r="9" fill="rgb(252,74,21)"/>
<circle cx="72" cy="240" r="12" fill="rgb(255,186,11)" opacity="0.35"/>
<circle cx="72" cy="240" r="9" fill="rgb(255,186,11)"/>
<circle cx="96" cy="240" r="12" fill="rgb(115,73,240)" opacity="0.35"/>
<circle cx="96" cy="240" r="9" fill="rgb(115,73,240)"/>
<circle cx="120" cy="240" r="12" fill="rgb(251,185,19)" opacity="0.35"/>
<circle cx="120" cy="240" r="9" fill="rgb(251,185,19)"/>
<circle cx="144" cy="240" r="12" fill="rgb(251,185,19)" opacity="0.35"/>
<circle cx="144" cy="240" r="9" fill="rgb(251,185,19)"/>
<circle cx="168" cy="240" r="12" fill="rgb(251,185,19)" opacity="0.35"/>
<circle cx="168" cy="240" r="9" fill="rgb(251,185,19)"/>
<circle cx="192" cy="240" r="12" fill="rgb(254,173,10)" opacity="0.35"/>
<circle cx="192" cy="240" r="9" fill="rgb(254,173,10)"/>
<circle cx="216" cy="240" r="12" fill="rgb(253,129,9)" opacity="0.35"/>
<circle cx="216" cy="240" r="9" fill="rgb(253,129,9)"/>
<circle cx="240" cy="240" r="12" fill="rgb(136,62,226)" opacity="0.35"/>
<circle cx="240" cy="240" r="9" fill="rgb(136,62,226)"/>
<circle cx="264" cy="240" r="12" fill="rgb(251,185,19)" opacity="0.35"/>
<circle cx="264" cy="240" r="9" fill="rgb(251,185,19)"/>
<circle cx="288" cy="240" r="12" fill="rgb(252,116,8)" opacity="0.35"/>
<circle cx="288" cy="240" r="9" fill="rgb(252,116,8)"/>
<circle cx="312" cy="240" r="12" fill="rgb(236,170,45)" opacity="0.35"/>
<circle cx="312" cy="240" r="9" fill="rgb(236,170,45)"/>
<circle cx="336" cy="240" r="12" fill="rgb(200,130,111)" opacity="0.35"/>
<circle cx="336" cy="240" r="9" fill="rgb(200,130,111)"/>
<circle cx="360" cy="240" r="12" fill="rgb(254,163,10)" opacity="0.35"/>
<circle cx="360" cy="240" r="9" fill="rgb(254,163,10)"/>
<circle cx="384" cy="240" r="12" fill="rgb(253,131,9)" opacity="0.35"/>
<circle cx="384" cy="240" r="9" fill="rgb(253,131,9)"/>
<circle cx="24" cy="264" r="12" fill="rgb(240,174,38)" opacity="0.35"/>
<circle cx="24" cy="264" r="9" fill="rgb(240,174,38)"/>
<circle cx="48" cy="264" r="12" fill="rgb(255,183,11)" opacity="0.35"/>
<circle cx="48" cy="264" r="9" fill="rgb(255,183,11)"/>
<circle cx="72" cy="264" r="12" fill="rgb(254,165,10)" opacity="0.35"/>
<circle cx="72" cy="264" r="9" fill="rgb(254,165,10)"/>
<circle cx="96" cy="264" r="12" fill="rgb(136,62,226)" opacity="0.35"/>
<circle cx="96" cy="264" r="9" fill="rgb(136,62,226)"/>
<circle cx="120" cy="264" r="12" fill="rgb(251,185,19)" opacity="0.35"/>
<circle cx="120" cy="264" r="9" fill="rgb(251,185,19)"/>
<circle cx="144" cy="264" r="12" fill="rgb(254,173,10)" opacity="0.35"/>
<circle cx="144" cy="264" r="9" fill="rgb(254,173,10)"/>
<circle cx="168" cy="264" r="12" fill="rgb(115,73,240)" opacity="0.35"/>
<circle cx="168" cy="264" r="9" fill="rgb(115,73,240)"/>
<circle cx="192" cy="264" r="12" fill="rgb(136,62,226)" opacity="0.35"/>
<circle cx="192" cy="264" r="9" fill="rgb(136,62,226)"/>
<circle cx="216" cy="264" r="12" fill="rgb(120,67,239)" opacity="0.35"/>
<circle cx="216" cy="264" r="9" fill="rgb(120,67,239)"/>
<circle cx="240" cy="264" r="12" fill="rgb(197,127,117)" opacity="0.35"/>
<circle cx="240" cy="264" r="9" fill="rgb(197,127,117)"/>
<circle cx="264" cy="264" r="12" fill="rgb(253,129,9)" opacity="0.35"/>
<circle cx="264" cy="264" r="9" fill="rgb(253,129,9)"/>
<circle cx="288" cy="264" r="12" fill="rgb(167,95,170)" opacity="0.35"/>
<circle cx="288" cy="264" r="9" fill="rgb(167,95,170)"/>
<circle cx="312" cy="264" r="12" fill="rgb(254,165,10)" opacity="0.35"/>
<circle cx="312" cy="264" r="9" fill="rgb(254,165,10)"/>
<circle cx="336" cy="264" r="12" fill="rgb(252,124,8)" opacity="0.35"/>
<circle cx="336" cy="264" r="9" fill="rgb(252,124,8)"/>
<circle cx="360" cy="264" r="12" fill="rgb(138,64,223)" opacity="0.35"/>
<circle cx="360" cy="264" r="9" fill="rgb(138,64,223)"/>
<circle cx="384" cy="264" r="12" fill="rgb(199,129,113)" opacity="0.35"/>
<circle cx="384" cy="264" r="9" fill="rgb(199,129,113)"/>
<circle cx="24" cy="288" r="12" fill="rgb(253,148,9)" opacity="0.35"/>
<circle cx="24" cy="288" r="9" fill="rgb(253,148,9)"/>
<circle cx="48" cy="288" r="12" fill="rgb(253,188,15)" opacity="0.35"/>
<circle cx="48" cy="288" r="9" fill="rgb(253,188,15)"/>
<circle cx="72" cy="288" r="12" fill="rgb(253,146,9)" opacity="0.35"/>
<circle cx="72" cy="288" r="9" fill="rgb(253,146,9)"/>
<circle cx="96" cy="288" r="12" fill="rgb(254,165,10)" opacity="0.35"/>
<circle cx="96" cy="288" r="9" fill="rgb(254,165,10)"/>
<circle cx="120" cy="288" r="12" fill="rgb(254,161,10)" opacity="0.35"/>
<circle cx="120" cy="288" r="9" fill="rgb(254,161,10)"/>
<circle cx="144" cy="288" r="12" fill="rgb(252,104,8)" opacity="0.35"/>
<circle cx="144" cy="288" r="9" fill="rgb(252,104,8)"/>
<circle cx="168" cy="288" r="12" fill="rgb(253,148,9)" opacity="0.35"/>
<circle cx="168" cy="288" r="9" fill="rgb(253,148,9)"/>
<circle cx="192" cy="288" r="12" fill="rgb(172,100,161)" opacity="0.35"/>
<circle cx="192" cy="288" r="9" fill="rgb(172,100,161)"/>
<circle cx="216" cy="288" r="12" fill="rgb(251,78,16)" opacity="0.35"/>
<circle cx="216" cy="288" r="9" fill="rgb(251,78,16)"/>
<circle cx="240" cy="288" r="12" fill="rgb(251,185,19)" opacity="0.35"/>
<circle cx="240" cy="288" r="9" fill="rgb(251,185,19)"/>
<circle cx="264" cy="288" r="12" fill="rgb(254,157,10)" opacity="0.35"/>
<circle cx="264" cy="288" r="9" fill="rgb(254,157,10)"/>
<circle cx="288" cy="288" r="12" fill="rgb(253,143,9)" opacity="0.35"/>
<circle cx="288" cy="288" r="9" fill="rgb(253,143,9)"/>
<circle cx="312" cy="288" r="12" fill="rgb(244,178,31)" opacity="0.35"/>
<circle cx="312" cy="288" r="9" fill="rgb(244,178,31)"/>
<circle cx="336" cy="288" r="12" fill="rgb(252,108,8)" opacity="0.35"/>
<circle cx="336" cy="288" r="9" fill="rgb(252,108,8)"/>
<circle cx="360" cy="288" r="12" fill="rgb(156,83,190)" opacity="0.35"/>
<circle cx="360" cy="288" r="9" fill="rgb(156,83,190)"/>
<circle cx="384" cy="288" r="12" fill="rgb(254,162,10)" opacity="0.35"/>
<circle cx="384" cy="288" r="9" fill="rgb(254,162,10)"/>
<circle cx="24" cy="312" r="12" fill="rgb(233,167,50)" opacity="0.35"/>
<circle cx="24" cy="312" r="9" fill="rgb(233,167,50)"/>
<circle cx="48" cy="312" r="12" fill="rgb(253,146,9)" opacity="0.35"/>
<circle cx="48" cy="312" r="9" fill="rgb(253,146,9)"/>
<circle cx="72" cy="312" r="12" fill="rgb(252,125,8)" opacity="0.35"/>
<circle cx="72" cy="312" r="9" fill="rgb(252,125,8)"/>
<circle cx="96" cy="312" r="12" fill="rgb(170,98,165)" opacity="0.35"/>
<circle cx="96" cy="312" r="9" fill="rgb(170,98,165)"/>
<circle cx="120" cy="312" r="12" fill="rgb(251,87,7)" opacity="0.35"/>
<circle cx="120" cy="312" r="9" fill="rgb(251,87,7)"/>
<circle cx="144" cy="312" r="12" fill="rgb(253,127,9)" opacity="0.35"/>
<circle cx="144" cy="312" r="9" fill="rgb(253,127,9)"/>
<circle cx="168" cy="312" r="12" fill="rgb(251,185,19)" opacity="0.35"/>
<circle cx="168" cy="312" r="9" fill="rgb(251,185,19)"/>
<circle cx="192" cy="312" r="12" fill="rgb(253,145,9)" opacity="0.35"/>
<circle cx="192" cy="312" r="9" fill="rgb(253,145,9)"/>
<circle cx="216" cy="312" r="12" fill="rgb(243,177,33)" opacity="0.35"/>
<circle cx="216" cy="312" r="9" fill="rgb(243,177,33)"/>
<circle cx="240" cy="312" r="12" fill="rgb(229,162,58)" opacity="0.35"/>
<circle cx="240" cy="312" r="9" fill="rgb(229,162,58)"/>
<circle cx="264" cy="312" r="12" fill="rgb(253,133,9)" opacity="0.35"/>
<circle cx="264" cy="312" r="9" fill="rgb(253,133,9)"/>
<circle cx="288" cy="312" r="12" fill="rgb(253,151,9)" opacity="0.35"/>
<circle cx="288" cy="312" r="9" fill="rgb(253,151,9)"/>
<circle cx="312" cy="312" r="12" fill="rgb(214,146,85)" opacity="0.35"/>
<circle cx="312" cy="312" r="9" fill="rgb(214,146,85)"/>
<circle cx="336" cy="312" r="12" fill="rgb(136,62,226)" opacity="0.35"/>
<circle cx="336" cy="312" r="9" fill="rgb(136,62,226)"/>
<circle cx="360" cy="312" r="12" fill="rgb(214,146,85)" opacity="0.35"/>
<circle cx="360" cy="312" r="9" fill="rgb(214,146,85)"/>
<circle cx="384" cy="312" r="12" fill="rgb(255,188,11)" opacity="0.35"/>
<circle cx="384" cy="312" r="9" fill="rgb(255,188,11)"/>
<circle cx="24" cy="336" r="12" fill="rgb(255,178,11)" opacity="0.35"/>
<circle cx="24" cy="336" r="9" fill="rgb(255,178,11)"/>
<circle cx="48" cy="336" r="12" fill="rgb(251,86,7)" opacity="0.35"/>
<circle cx="48" cy="336" r="9" fill="rgb(251,86,7)"/>
<circle cx="72" cy="336" r="12" fill="rgb(254,189,12)" opacity="0.35"/>
<circle cx="72" cy="336" r="9" fill="rgb(254,189,12)"/>
<circle cx="96" cy="336" r="12" fill="rgb(221,153,73)" opacity="0.35"/>
<circle cx="96" cy="336" r="9" fill="rgb(221,153,73)"/>
<circle cx="120" cy="336" r="12" fill="rgb(255,186,11)" opacity="0.35"/>
<circle cx="120" cy="336" r="9" fill="rgb(255,186,11)"/>
<circle cx="144" cy="336" r="12" fill="rgb(252,117,8)" opacity="0.35"/>
<circle cx="144" cy="336" r="9" fill="rgb(252,117,8)"/>
<circle cx="168" cy="336" r="12" fill="rgb(228,161,61)" opacity="0.35"/>
<circle cx="168" cy="336" r="9" fill="rgb(228,161,61)"/>
<circle cx="192" cy="336" r="12" fill="rgb(232,165,54)" opacity="0.35"/>
<circle cx="192" cy="336" r="9" fill="rgb(232,165,54)"/>
<circle cx="216" cy="336" r="12" fill="rgb(231,164,55)" opacity="0.35"/>
<circle cx="216" cy="336" r="9" fill="rgb(231,164,55)"/>
<circle cx="240" cy="336" r="12" fill="rgb(251,93,7)" opacity="0.35"/>
<circle cx="240" cy="336" r="9" fill="rgb(251,93,7)"/>
<circle cx="264" cy="336" r="12" fill="rgb(247,182,25)" opacity="0.35"/>
<circle cx="264" cy="336" r="9" fill="rgb(247,182,25)"/>
<circle cx="288" cy="336" r="12" fill="rgb(123,64,238)" opacity="0.35"/>
<circle cx="288" cy="336" r="9" fill="rgb(123,64,238)"/>
<circle cx="312" cy="336" r="12" fill="rgb(254,152,10)" opacity="0.35"/>
<circle cx="312" cy="336" r="9" fill="rgb(254,152,10)"/>
<circle cx="336" cy="336" r="12" fill="rgb(179,108,149)" opacity="0.35"/>
<circle cx="336" cy="336" r="9" fill="rgb(179,108,149)"/>
<circle cx="360" cy="336" r="12" fill="rgb(253,139,9)" opacity="0.35"/>
<circle cx="360" cy="336" r="9" fill="rgb(253,139,9)"/>
<circle cx="384" cy="336" r="12" fill="rgb(133,58,233)" opacity="0.35"/>
<circle cx="384" cy="336" r="9" fill="rgb(133,58,233)"/>
<circle cx="24" cy="360" r="12" fill="rgb(229,162,58)" opacity="0.35"/>
<circle cx="24" cy="360" r="9" fill="rgb(229,162,58)"/>
<circle cx="48" cy="360" r="12" fill="rgb(181,110,145)" opacity="0.35"/>
<circle cx="48" cy="360" r="9" fill="rgb(181,110,145)"/>
<circle cx="72" cy="360" r="12" fill="rgb(202,133,107)" opacity="0.35"/>
<circle cx="72" cy="360" r="9" fill="rgb(202,133,107)"/>
<circle cx="96" cy="360" r="12" fill="rgb(253,130,9)" opacity="0.35"/>
<circle cx="96" cy="360" r="9" fill="rgb(253,130,9)"/>
<circle cx="120" cy="360" r="12" fill="rgb(205,136,101)" opacity="0.35"/>
<circle cx="120" cy="360" r="9" fill="rgb(205,136,101)"/>
<circle cx="144" cy="360" r="12" fill="rgb(250,185,19)" opacity="0.35"/>
<circle cx="144" cy="360" r="9" fill="rgb(250,185,19)"/>
<circle cx="168" cy="360" r="12" fill="rgb(254,169,10)" opacity="0.35"/>
<circle cx="168" cy="360" r="9" fill="rgb(254,169,10)"/>
<circle cx="192" cy="360" r="12" fill="rgb(252,112,8)" opacity="0.35"/>
<circle cx="192" cy="360" r="9" fill="rgb(252,112,8)"/>
<circle cx="216" cy="360" r="12" fill="rgb(198,129,114)" opacity="0.35"/>
<circle cx="216" cy="360" r="9" fill="rgb(198,129,114)"/>
<circle cx="240" cy="360" r="12" fill="rgb(143,69,215)" opacity="0.35"/>
<circle cx="240" cy="360" r="9" fill="rgb(143,69,215)"/>
<circle cx="264" cy="360" r="12" fill="rgb(251,185,19)" opacity="0.35"/>
<circle cx="264" cy="360" r="9" fill="rgb(251,185,19)"/>
<circle cx="288" cy="360" r="12" fill="rgb(155,82,192)" opacity="0.35"/>
<circle cx="288" cy="360" r="9" fill="rgb(155,82,192)"/>
<circle cx="312" cy="360" r="12" fill="rgb(192,122,125)" opacity="0.35"/>
<circle cx="312" cy="360" r="9" fill="rgb(192,122,125)"/>
<circle cx="336" cy="360" r="12" fill="rgb(252,57,41)" opacity="0.35"/>
<circle cx="336" cy="360" r="9" fill="rgb(252,57,41)"/>
<circle cx="360" cy="360" r="12" fill="rgb(251,185,19)" opacity="0.35"/>
<circle cx="360" cy="360" r="9" fill="rgb(251,185,19)"/>
<circle cx="384" cy="360" r="12" fill="rgb(198,128,114)" opacity="0.35"/>
<circle cx="384" cy="360" r="9" fill="rgb(198,128,114)"/>
<circle cx="24" cy="384" r="12" fill="rgb(226,159,63)" opacity="0.35"/>
<circle cx="24" cy="384" r="9" fill="rgb(226,159,63)"/>
<circle cx="48" cy="384" r="12" fill="rgb(253,128,9)" opacity="0.35"/>
<circle cx="48" cy="384" r="9" fill="rgb(253,128,9)"/>
<circle cx="72" cy="384" r="12" fill="rgb(161,88,182)" opacity="0.35"/>
<circle cx="72" cy="384" r="9" fill="rgb(161,88,182)"/>
<circle cx="96" cy="384" r="12" fill="rgb(163,90,178)" opacity="0.35"/>
<circle cx="96" cy="384" r="9" fill="rgb(163,90,178)"/>
<circle cx="120" cy="384" r="12" fill="rgb(165,92,175)" opacity="0.35"/>
<circle cx="120" cy="384" r="9" fill="rgb(165,92,175)"/>
<circle cx="144" cy="384" r="12" fill="rgb(192,122,125)" opacity="0.35"/>
<circle cx="144" cy="384" r="9" fill="rgb(192,122,125)"/>
<circle cx="168" cy="384" r="12" fill="rgb(207,138,99)" opacity="0.35"/>
<circle cx="168" cy="384" r="9" fill="rgb(207,138,99)"/>
<circle cx="192" cy="384" r="12" fill="rgb(105,84,243)" opacity="0.35"/>
<circle cx="192" cy="384" r="9" fill="rgb(105,84,243)"/>
<circle cx="216" cy="384" r="12" fill="rgb(251,185,19)" opacity="0.35"/>
<circle cx="216" cy="384" r="9" fill="rgb(251,185,19)"/>
<circle cx="240" cy="384" r="12" fill="rgb(254,159,10)" opacity="0.35"/>
<circle cx="240" cy="384" r="9" fill="rgb(254,159,10)"/>
<circle cx="264" cy="384" r="12" fill="rgb(171,99,164)" opacity="0.35"/>
<circle cx="264" cy="384" r="9" fill="rgb(171,99,164)"/>
<circle cx="288" cy="384" r="12" fill="rgb(207,138,98)" opacity="0.35"/>
<circle cx="288" cy="384" r="9" fill="rgb(207,138,98)"/>
<circle cx="312" cy="384" r="12" fill="rgb(251,83,10)" opacity="0.35"/>
<circle cx="312" cy="384" r="9" fill="rgb(251,83,10)"/>
<circle cx="336" cy="384" r="12" fill="rgb(254,155,10)" opacity="0.35"/>
<circle cx="336" cy="384" r="9" fill="rgb(254,155,10)"/>
<circle cx="360" cy="384" r="12" fill="rgb(251,185,19)" opacity="0.35"/>
<circle cx="360" cy="384" r="9" fill="rgb(251,185,19)"/>
<circle cx="384" cy="384" r="12" fill="rgb(210,142,92)" opacity="0.35"/>
<circle cx="384" cy="384" r="9" fill="rgb(210,142,92)"/>
</svg>
