<svg xmlns="http://www.w3.org/2000/svg" viewBox="0 0 408 408" width="408" height="408" role="img" aria-label="LED preview of the Field Noise example graph">
<rect width="408" height="408" rx="10" fill="#05070a"/>
<circle cx="24" cy="24" r="12" fill="rgb(255,190,11)" opacity="0.35"/>
<circle cx="24" cy="24" r="9" fill="rgb(255,190,11)"/>
<circle cx="48" cy="24" r="12" fill="rgb(252,105,8)" opacity="0.35"/>
<circle cx="48" cy="24" r="9" fill="rgb(252,105,8)"/>
<circle cx="72" cy="24" r="12" fill="rgb(253,151,9)" opacity="0.35"/>
<circle cx="72" cy="24" r="9" fill="rgb(253,151,9)"/>
<circle cx="96" cy="24" r="12" fill="rgb(252,187,16)" opacity="0.35"/>
<circle cx="96" cy="24" r="9" fill="rgb(252,187,16)"/>
<circle cx="120" cy="24" r="12" fill="rgb(195,125,120)" opacity="0.35"/>
<circle cx="120" cy="24" r="9" fill="rgb(195,125,120)"/>
<circle cx="144" cy="24" r="12" fill="rgb(182,111,144)" opacity="0.35"/>
<circle cx="144" cy="24" r="9" fill="rgb(182,111,144)"/>
<circle cx="168" cy="24" r="12" fill="rgb(237,171,43)" opacity="0.35"/>
<circle cx="168" cy="24" r="9" fill="rgb(237,171,43)"/>
<circle cx="192" cy="24" r="12" fill="rgb(218,150,78)" opacity="0.35"/>
<circle cx="192" cy="24" r="9" fill="rgb(218,150,78)"/>
<circle cx="216" cy="24" r="12" fill="rgb(237,170,44)" opacity="0.35"/>
<circle cx="216" cy="24" r="9" fill="rgb(237,170,44)"/>
<circle cx="240" cy="24" r="12" fill="rgb(252,117,8)" opacity="0.35"/>
<circle cx="240" cy="24" r="9" fill="rgb(252,117,8)"/>
<circle cx="264" cy="24" r="12" fill="rgb(255,178,11)" opacity="0.35"/>
<circle cx="264" cy="24" r="9" fill="rgb(255,178,11)"/>
<circle cx="288" cy="24" r="12" fill="rgb(255,182,11)" opacity="0.35"/>
<circle cx="288" cy="24" r="9" fill="rgb(255,182,11)"/>
<circle cx="312" cy="24" r="12" fill="rgb(251,99,7)" opacity="0.35"/>
<circle cx="312" cy="24" r="9" fill="rgb(251,99,7)"/>
<circle cx="336" cy="24" r="12" fill="rgb(252,122,8)" opacity="0.35"/>
<circle cx="336" cy="24" r="9" fill="rgb(252,122,8)"/>
<circle cx="360" cy="24" r="12" fill="rgb(236,170,45)" opacity="0.35"/>
<circle cx="360" cy="24" r="9" fill="rgb(236,170,45)"/>
<circle cx="384" cy="24" r="12" fill="rgb(141,67,218)" opacity="0.35"/>
<circle cx="384" cy="24" r="9" fill="rgb(141,67,218)"/>
<circle cx="24" cy="48" r="12" fill="rgb(133,58,233)" opacity="0.35"/>
<circle cx="24" cy="48" r="9" fill="rgb(133,58,233)"/>
<circle cx="48" cy="48" r="12" fill="rgb(254,163,10)" opacity="0.35"/>
<circle cx="48" cy="48" r="9" fill="rgb(254,163,10)"/>
<circle cx="72" cy="48" r="12" fill="rgb(252,112,8)" opacity="0.35"/>
<circle cx="72" cy="48" r="9" fill="rgb(252,112,8)"/>
<circle cx="96" cy="48" r="12" fill="rgb(254,155,10)" opacity="0.35"/>
<circle cx="96" cy="48" r="9" fill="rgb(254,155,10)"/>
<circle cx="120" cy="48" r="12" fill="rgb(253,130,9)" opacity="0.35"/>
<circle cx="120" cy="48" r="9" fill="rgb(253,130,9)"/>
<circle cx="144" cy="48" r="12" fill="rgb(165,93,174)" opacity="0.35"/>
<circle cx="144" cy="48" r="9" fill="rgb(165,93,174)"/>
<circle cx="168" cy="48" r="12" fill="rgb(219,151,76)" opacity="0.35"/>
<circle cx="168" cy="48" r="9" fill="rgb(219,151,76)"/>
<circle cx="192" cy="48" r="12" fill="rgb(252,106,8)" opacity="0.35"/>
<circle cx="192" cy="48" r="9" fill="rgb(252,106,8)"/>
<circle cx="216" cy="48" r="12" fill="rgb(253,127,9)" opacity="0.35"/>
<circle cx="216" cy="48" r="9" fill="rgb(253,127,9)"/>
<circle cx="240" cy="48" r="12" fill="rgb(253,132,9)" opacity="0.35"/>
<circle cx="240" cy="48" r="9" fill="rgb(253,132,9)"/>
<circle cx="264" cy="48" r="12" fill="rgb(253,145,9)" opacity="0.35"/>
<circle cx="264" cy="48" r="9" fill="rgb(253,145,9)"/>
<circle cx="288" cy="48" r="12" fill="rgb(198,129,114)" opacity="0.35"/>
<circle cx="288" cy="48" r="9" fill="rgb(198,129,114)"/>
<circle cx="312" cy="48" r="12" fill="rgb(253,138,9)" opacity="0.35"/>
<circle cx="312" cy="48" r="9" fill="rgb(253,138,9)"/>
<circle cx="336" cy="48" r="12" fill="rgb(251,79,15)" opacity="0.35"/>
<circle cx="336" cy="48" r="9" fill="rgb(251,79,15)"/>
<circle cx="360" cy="48" r="12" fill="rgb(254,169,10)" opacity="0.35"/>
<circle cx="360" cy="48" r="9" fill="rgb(254,169,10)"/>
<circle cx="384" cy="48" r="12" fill="rgb(176,104,155)" opacity="0.35"/>
<circle cx="384" cy="48" r="9" fill="rgb(176,104,155)"/>
<circle cx="24" cy="72" r="12" fill="rgb(159,87,184)" opacity="0.35"/>
<circle cx="24" cy="72" r="9" fill="rgb(159,87,184)"/>
<circle cx="48" cy="72" r="12" fill="rgb(254,159,10)" opacity="0.35"/>
<circle cx="48" cy="72" r="9" fill="rgb(254,159,10)"/>
<circle cx="72" cy="72" r="12" fill="rgb(253,137,9)" opacity="0.35"/>
<circle cx="72" cy="72" r="9" fill="rgb(253,137,9)"/>
<circle cx="96" cy="72" r="12" fill="rgb(252,118,8)" opacity="0.35"/>
<circle cx="96" cy="72" r="9" fill="rgb(252,118,8)"/>
<circle cx="120" cy="72" r="12" fill="rgb(252,125,8)" opacity="0.35"/>
<circle cx="120" cy="72" r="9" fill="rgb(252,125,8)"/>
<circle cx="144" cy="72" r="12" fill="rgb(200,130,112)" opacity="0.35"/>
<circle cx="144" cy="72" r="9" fill="rgb(200,130,112)"/>
<circle cx="168" cy="72" r="12" fill="rgb(238,171,42)" opacity="0.35"/>
<circle cx="168" cy="72" r="9" fill="rgb(238,171,42)"/>
<circle cx="192" cy="72" r="12" fill="rgb(253,139,9)" opacity="0.35"/>
<circle cx="192" cy="72" r="9" fill="rgb(253,139,9)"/>
<circle cx="216" cy="72" r="12" fill="rgb(252,74,21)" opacity="0.35"/>
<circle cx="216" cy="72" r="9" fill="rgb(252,74,21)"/>
<circle cx="240" cy="72" r="12" fill="rgb(254,169,10)" opacity="0.35"/>
<circle cx="240" cy="72" r="9" fill="rgb(254,169,10)"/>
<circle cx="264" cy="72" r="12" fill="rgb(167,94,171)" opacity="0.35"/>
<circle cx="264" cy="72" r="9" fill="rgb(167,94,171)"/>
<circle cx="288" cy="72" r="12" fill="rgb(176,105,154)" opacity="0.35"/>
<circle cx="288" cy="72" r="9" fill="rgb(176,105,154)"/>
<circle cx="312" cy="72" r="12" fill="rgb(254,175,10)" opacity="0.35"/>
<circle cx="312" cy="72" r="9" fill="rgb(254,175,10)"/>
<circle cx="336" cy="72" r="12" fill="rgb(252,68,28)" opacity="0.35"/>
<circle cx="336" cy="72" r="9" fill="rgb(252,68,28)"/>
<circle cx="360" cy="72" r="12" fill="rgb(251,80,14)" opacity="0.35"/>
<circle cx="360" cy="72" r="9" fill="rgb(251,80,14)"/>
<circle cx="384" cy="72" r="12" fill="rgb(254,176,10)" opacity="0.35"/>
<circle cx="384" cy="72" r="9" fill="rgb(254,176,10)"/>
<circle cx="24" cy="96" r="12" fill="rgb(206,137,99)" opacity="0.35"/>
<circle cx="24" cy="96" r="9" fill="rgb(206,137,99)"/>
<circle cx="48" cy="96" r="12" fill="rgb(254,166,10)" opacity="0.35"/>
<circle cx="48" cy="96" r="9" fill="rgb(254,166,10)"/>
<circle cx="72" cy="96" r="12" fill="rgb(253,127,9)" opacity="0.35"/>
<circle cx="72" cy="96" r="9" fill="rgb(253,127,9)"/>
<circle cx="96" cy="96" r="12" fill="rgb(251,88,7)" opacity="0.35"/>
<circle cx="96" cy="96" r="9" fill="rgb(251,88,7)"/>
<circle cx="120" cy="96" r="12" fill="rgb(252,114,8)" opacity="0.35"/>
<circle cx="120" cy="96" r="9" fill="rgb(252,114,8)"/>
<circle cx="144" cy="96" r="12" fill="rgb(254,189,12)" opacity="0.35"/>
<circle cx="144" cy="96" r="9" fill="rgb(254,189,12)"/>
<circle cx="168" cy="96" r="12" fill="rgb(215,147,83)" opacity="0.35"/>
<circle cx="168" cy="96" r="9" fill="rgb(215,147,83)"/>
<circle cx="192" cy="96" r="12" fill="rgb(254,169,10)" opacity="0.35"/>
<circle cx="192" cy="96" r="9" fill="rgb(254,169,10)"/>
<circle cx="216" cy="96" r="12" fill="rgb(252,124,8)" opacity="0.35"/>
<circle cx="216" cy="96" r="9" fill="rgb(252,124,8)"/>
<circle cx="240" cy="96" r="12" fill="rgb(253,150,9)" opacity="0.35"/>
<circle cx="240" cy="96" r="9" fill="rgb(253,150,9)"/>
<circle cx="264" cy="96" r="12" fill="rgb(136,61,227)" opacity="0.35"/>
<circle cx="264" cy="96" r="9" fill="rgb(136,61,227)"/>
<circle cx="288" cy="96" r="12" fill="rgb(167,95,170)" opacity="0.35"/>
<circle cx="288" cy="96" r="9" fill="rgb(167,95,170)"/>
<circle cx="312" cy="96" r="12" fill="rgb(227,160,61)" opacity="0.35"/>
<circle cx="312" cy="96" r="9" fill="rgb(227,160,61)"/>
<circle cx="336" cy="96" r="12" fill="rgb(253,131,9)" opacity="0.35"/>
<circle cx="336" cy="96" r="9" fill="rgb(253,131,9)"/>
<circle cx="360" cy="96" r="12" fill="rgb(252,73,23)" opacity="0.35"/>
<circle cx="360" cy="96" r="9" fill="rgb(252,73,23)"/>
<circle cx="384" cy="96" r="12" fill="rgb(252,115,8)" opacity="0.35"/>
<circle cx="384" cy="96" r="9" fill="rgb(252,115,8)"/>
<circle cx="24" cy="120" r="12" fill="rgb(243,177,32)" opacity="0.35"/>
<circle cx="24" cy="120" r="9" fill="rgb(243,177,32)"/>
<circle cx="48" cy="120" r="12" fill="rgb(254,152,10)" opacity="0.35"/>
<circle cx="48" cy="120" r="9" fill="rgb(254,152,10)"/>
<circle cx="72" cy="120" r="12" fill="rgb(255,184,11)" opacity="0.35"/>
<circle cx="72" cy="120" r="9" fill="rgb(255,184,11)"/>
<circle cx="96" cy="120" r="12" fill="rgb(253,135,9)" opacity="0.35"/>
<circle cx="96" cy="120" r="9" fill="rgb(253,135,9)"/>
<circle cx="120" cy="120" r="12" fill="rgb(254,169,10)" opacity="0.35"/>
<circle cx="120" cy="120" r="9" fill="rgb(254,169,10)"/>
<circle cx="144" cy="120" r="12" fill="rgb(162,89,180)" opacity="0.35"/>
<circle cx="144" cy="120" r="9" fill="rgb(162,89,180)"/>
<circle cx="168" cy="120" r="12" fill="rgb(210,141,93)" opacity="0.35"/>
<circle cx="168" cy="120" r="9" fill="rgb(210,141,93)"/>
<circle cx="192" cy="120" r="12" fill="rgb(254,154,10)" opacity="0.35"/>
<circle cx="192" cy="120" r="9" fill="rgb(254,154,10)"/>
<circle cx="216" cy="120" r="12" fill="rgb(255,186,11)" opacity="0.35"/>
<circle cx="216" cy="120" r="9" fill="rgb(255,186,11)"/>
<circle cx="240" cy="120" r="12" fill="rgb(242,176,35)" opacity="0.35"/>
<circle cx="240" cy="120" r="9" fill="rgb(242,176,35)"/>
<circle cx="264" cy="120" r="12" fill="rgb(129,58,237)" opacity="0.35"/>
<circle cx="264" cy="120" r="9" fill="rgb(129,58,237)"/>
<circle cx="288" cy="120" r="12" fill="rgb(159,86,185)" opacity="0.35"/>
<circle cx="288" cy="120" r="9" fill="rgb(159,86,185)"/>
<circle cx="312" cy="120" r="12" fill="rgb(198,128,115)" opacity="0.35"/>
<circle cx="312" cy="120" r="9" fill="rgb(198,128,115)"/>
<circle cx="336" cy="120" r="12" fill="rgb(253,142,9)" opacity="0.35"/>
<circle cx="336" cy="120" r="9" fill="rgb(253,142,9)"/>
<circle cx="360" cy="120" r="12" fill="rgb(211,143,91)" opacity="0.35"/>
<circle cx="360" cy="120" r="9" fill="rgb(211,143,91)"/>
<circle cx="384" cy="120" r="12" fill="rgb(253,139,9)" opacity="0.35"/>
<circle cx="384" cy="120" r="9" fill="rgb(253,139,9)"/>
<circle cx="24" cy="144" r="12" fill="rgb(227,159,63)" opacity="0.35"/>
<circle cx="24" cy="144" r="9" fill="rgb(227,159,63)"/>
<circle cx="48" cy="144" r="12" fill="rgb(255,190,11)" opacity="0.35"/>
<circle cx="48" cy="144" r="9" fill="rgb(255,190,11)"/>
<circle cx="72" cy="144" r="12" fill="rgb(254,162,10)" opacity="0.35"/>
<circle cx="72" cy="144" r="9" fill="rgb(254,162,10)"/>
<circle cx="96" cy="144" r="12" fill="rgb(254,169,10)" opacity="0.35"/>
<circle cx="96" cy="144" r="9" fill="rgb(254,169,10)"/>
<circle cx="120" cy="144" r="12" fill="rgb(160,88,183)" opacity="0.35"/>
<circle cx="120" cy="144" r="9" fill="rgb(160,88,183)"/>
<circle cx="144" cy="144" r="12" fill="rgb(116,72,240)" opacity="0.35"/>
<circle cx="144" cy="144" r="9" fill="rgb(116,72,240)"/>
<circle cx="168" cy="144" r="12" fill="rgb(124,64,238)" opacity="0.35"/>
<circle cx="168" cy="144" r="9" fill="rgb(124,64,238)"/>
<circle cx="192" cy="144" r="12" fill="rgb(255,183,11)" opacity="0.35"/>
<circle cx="192" cy="144" r="9" fill="rgb(255,183,11)"/>
<circle cx="216" cy="144" r="12" fill="rgb(254,159,10)" opacity="0.35"/>
<circle cx="216" cy="144" r="9" fill="rgb(254,159,10)"/>
<circle cx="240" cy="144" r="12" fill="rgb(244,179,30)" opacity="0.35"/>
<circle cx="240" cy="144" r="9" fill="rgb(244,179,30)"/>
<circle cx="264" cy="144" r="12" fill="rgb(171,99,164)" opacity="0.35"/>
<circle cx="264" cy="144" r="9" fill="rgb(171,99,164)"/>
<circle cx="288" cy="144" r="12" fill="rgb(139,64,222)" opacity="0.35"/>
<circle cx="288" cy="144" r="9" fill="rgb(139,64,222)"/>
<circle cx="312" cy="144" r="12" fill="rgb(172,100,162)" opacity="0.35"/>
<circle cx="312" cy="144" r="9" fill="rgb(172,100,162)"/>
<circle cx="336" cy="144" r="12" fill="rgb(254,169,10)" opacity="0.35"/>
<circle cx="336" cy="144" r="9" fill="rgb(254,169,10)"/>
<circle cx="360" cy="144" r="12" fill="rgb(156,83,190)" opacity="0.35"/>
<circle cx="360" cy="144" r="9" fill="rgb(156,83,190)"/>
<circle cx="384" cy="144" r="12" fill="rgb(254,169,10)" opacity="0.35"/>
<circle cx="384" cy="144" r="9" fill="rgb(254,169,10)"/>
<circle cx="24" cy="168" r="12" fill="rgb(254,151,10)" opacity="0.35"/>
<circle cx="24" cy="168" r="9" fill="rgb(254,151,10)"/>
<circle cx="48" cy="168" r="12" fill="rgb(250,184,20)" opacity="0.35"/>
<circle cx="48" cy="168" r="9" fill="rgb(250,184,20)"/>
<circle cx="72" cy="168" r="12" fill="rgb(254,153,10)" opacity="0.35"/>
<circle cx="72" cy="168" r="9" fill="rgb(254,153,10)"/>
<circle cx="96" cy="168" r="12" fill="rgb(254,169,10)" opacity="0.35"/>
<circle cx="96" cy="168" r="9" fill="rgb(254,169,10)"/>
<circle cx="120" cy="168" r="12" fill="rgb(212,144,88)" opacity="0.35"/>
<circle cx="120" cy="168" r="9" fill="rgb(212,144,88)"/>
<circle cx="144" cy="168" r="12" fill="rgb(175,104,156)" opacity="0.35"/>
<circle cx="144" cy="168" r="9" fill="rgb(175,104,156)"/>
<circle cx="168" cy="168" r="12" fill="rgb(255,180,11)" opacity="0.35"/>
<circle cx="168" cy="168" r="9" fill="rgb(255,180,11)"/>
<circle cx="192" cy="168" r="12" fill="rgb(254,157,10)" opacity="0.35"/>
<circle cx="192" cy="168" r="9" fill="rgb(254,157,10)"/>
<circle cx="216" cy="168" r="12" fill="rgb(254,151,10)" opacity="0.35"/>
<circle cx="216" cy="168" r="9" fill="rgb(254,151,10)"/>
<circle cx="240" cy="168" r="12" fill="rgb(254,163,10)" opacity="0.35"/>
<circle cx="240" cy="168" r="9" fill="rgb(254,163,10)"/>
<circle cx="264" cy="168" r="12" fill="rgb(255,186,11)" opacity="0.35"/>
<circle cx="264" cy="168" r="9" fill="rgb(255,186,11)"/>
<circle cx="288" cy="168" r="12" fill="rgb(254,169,10)" opacity="0.35"/>
<circle cx="288" cy="168" r="9" fill="rgb(254,169,10)"/>
<circle cx="312" cy="168" r="12" fill="rgb(209,140,95)" opacity="0.35"/>
<circle cx="312" cy="168" r="9" fill="rgb(209,140,95)"/>
<circle cx="336" cy="168" r="12" fill="rgb(246,180,28)" opacity="0.35"/>
<circle cx="336" cy="168" r="9" fill="rgb(246,180,28)"/>
<circle cx="360" cy="168" r="12" fill="rgb(255,184,11)" opacity="0.35"/>
<circle cx="360" cy="168" r="9" fill="rgb(255,184,11)"/>
<circle cx="384" cy="168" r="12" fill="rgb(192,122,124)" opacity="0.35"/>
<circle cx="384" cy="168" r="9" fill="rgb(192,122,124)"/>
<circle cx="24" cy="192" r="12" fill="rgb(253,134,9)" opacity="0.35"/>
<circle cx="24" cy="192" r="9" fill="rgb(253,134,9)"/>
<circle cx="48" cy="192" r="12" fill="rgb(254,162,10)" opacity="0.35"/>
<circle cx="48" cy="192" r="9" fill="rgb(254,162,10)"/>
<circle cx="72" cy="192" r="12" fill="rgb(253,150,9)" opacity="0.35"/>
<circle cx="72" cy="192" r="9" fill="rgb(253,150,9)"/>
<circle cx="96" cy="192" r="12" fill="rgb(254,158,10)" opacity="0.35"/>
<circle cx="96" cy="192" r="9" fill="rgb(254,158,10)"/>
<circle cx="120" cy="192" r="12" fill="rgb(229,162,57)" opacity="0.35"/>
<circle cx="120" cy="192" r="9" fill="rgb(229,162,57)"/>
<circle cx="144" cy="192" r="12" fill="rgb(254,177,10)" opacity="0.35"/>
<circle cx="144" cy="192" r="9" fill="rgb(254,177,10)"/>
<circle cx="168" cy="192" r="12" fill="rgb(253,142,9)" opacity="0.35"/>
<circle cx="168" cy="192" r="9" fill="rgb(253,142,9)"/>
<circle cx="192" cy="192" r="12" fill="rgb(254,152,10)" opacity="0.35"/>
<circle cx="192" cy="192" r="9" fill="rgb(254,152,10)"/>
<circle cx="216" cy="192" r="12" fill="rgb(245,179,30)" opacity="0.35"/>
<circle cx="216" cy="192" r="9" fill="rgb(245,179,30)"/>
<circle cx="240" cy="192" r="12" fill="rgb(253,148,9)" opacity="0.35"/>
<circle cx="240" cy="192" r="9" fill="rgb(253,148,9)"/>
<circle cx="264" cy="192" r="12" fill="rgb(255,178,11)" opacity="0.35"/>
<circle cx="264" cy="192" r="9" fill="rgb(255,178,11)"/>
<circle cx="288" cy="192" r="12" fill="rgb(253,147,9)" opacity="0.35"/>
<circle cx="288" cy="192" r="9" fill="rgb(253,147,9)"/>
<circle cx="312" cy="192" r="12" fill="rgb(242,176,35)" opacity="0.35"/>
<circle cx="312" cy="192" r="9" fill="rgb(242,176,35)"/>
<circle cx="336" cy="192" r="12" fill="rgb(222,154,72)" opacity="0.35"/>
<circle cx="336" cy="192" r="9" fill="rgb(222,154,72)"/>
<circle cx="360" cy="192" r="12" fill="rgb(252,124,8)" opacity="0.35"/>
<circle cx="360" cy="192" r="9" fill="rgb(252,124,8)"/>
<circle cx="384" cy="192" r="12" fill="rgb(238,171,43)" opacity="0.35"/>
<circle cx="384" cy="192" r="9" fill="rgb(238,171,43)"/>
<circle cx="24" cy="216" r="12" fill="rgb(252,119,8)" opacity="0.35"/>
<circle cx="24" cy="216" r="9" fill="rgb(252,119,8)"/>
<circle cx="48" cy="216" r="12" fill="rgb(253,140,9)" opacity="0.35"/>
<circle cx="48" cy="216" r="9" fill="rgb(253,140,9)"/>
<circle cx="72" cy="216" r="12" fill="rgb(253,143,9)" opacity="0.35"/>
<circle cx="72" cy="216" r="9" fill="rgb(253,143,9)"/>
<circle cx="96" cy="216" r="12" fill="rgb(254,169,10)" opacity="0.35"/>
<circle cx="96" cy="216" r="9" fill="rgb(254,169,10)"/>
<circle cx="120" cy="216" r="12" fill="rgb(253,126,9)" opacity="0.35"/>
<circle cx="120" cy="216" r="9" fill="rgb(253,126,9)"/>
<circle cx="144" cy="216" r="12" fill="rgb(254,169,10)" opacity="0.35"/>
<circle cx="144" cy="216" r="9" fill="rgb(254,169,10)"/>
<circle cx="168" cy="216" r="12" fill="rgb(255,183,11)" opacity="0.35"/>
<circle cx="168" cy="216" r="9" fill="rgb(255,183,11)"/>
<circle cx="192" cy="216" r="12" fill="rgb(254,169,10)" opacity="0.35"/>
<circle cx="192" cy="216" r="9" fill="rgb(254,169,10)"/>
<circle cx="216" cy="216" r="12" fill="rgb(254,165,10)" opacity="0.35"/>
<circle cx="216" cy="216" r="9" fill="rgb(254,165,10)"/>
<circle cx="240" cy="216" r="12" fill="rgb(238,171,43)" opacity="0.35"/>
<circle cx="240" cy="216" r="9" fill="rgb(238,171,43)"/>
<circle cx="264" cy="216" r="12" fill="rgb(227,160,61)" opacity="0.35"/>
<circle cx="264" cy="216" r="9" fill="rgb(227,160,61)"/>
<circle cx="288" cy="216" r="12" fill="rgb(255,180,11)" opacity="0.35"/>
<circle cx="288" cy="216" r="9" fill="rgb(255,180,11)"/>
<circle cx="312" cy="216" r="12" fill="rgb(253,147,9)" opacity="0.35"/>
<circle cx="312" cy="216" r="9" fill="rgb(253,147,9)"/>
<circle cx="336" cy="216" r="12" fill="rgb(251,98,7)" opacity="0.35"/>
<circle cx="336" cy="216" r="9" fill="rgb(251,98,7)"/>
<circle cx="360" cy="216" r="12" fill="rgb(251,87,7)" opacity="0.35"/>
<circle cx="360" cy="216" r="9" fill="rgb(251,87,7)"/>
<circle cx="384" cy="216" r="12" fill="rgb(252,116,8)" opacity="0.35"/>
<circle cx="384" cy="216" r="9" fill="rgb(252,116,8)"/>
<circle cx="24" cy="240" r="12" fill="rgb(254,167,10)" opacity="0.35"/>
<circle cx="24" cy="240" r="9" fill="rgb(254,167,10)"/>
<circle cx="48" cy="240" r="12" fill="rgb(255,183,11)" opacity="0.35"/>
<circle cx="48" cy="240" r="9" fill="rgb(255,183,11)"/>
<circle cx="72" cy="240" r="12" fill="rgb(254,157,10)" opacity="0.35"/>
<circle cx="72" cy="240" r="9" fill="rgb(254,157,10)"/>
<circle cx="96" cy="240" r="12" fill="rgb(255,177,11)" opacity="0.35"/>
<circle cx="96" cy="240" r="9" fill="rgb(255,177,11)"/>
<circle cx="120" cy="240" r="12" fill="rgb(231,164,55)" opacity="0.35"/>
<circle cx="120" cy="240" r="9" fill="rgb(231,164,55)"/>
<circle cx="144" cy="240" r="12" fill="rgb(203,134,106)" opacity="0.35"/>
<circle cx="144" cy="240" r="9" fill="rgb(203,134,106)"/>
<circle cx="168" cy="240" r="12" fill="rgb(254,169,10)" opacity="0.35"/>
<circle cx="168" cy="240" r="9" fill="rgb(254,169,10)"/>
<circle cx="192" cy="240" r="12" fill="rgb(198,128,114)" opacity="0.35"/>
<circle cx="192" cy="240" r="9" fill="rgb(198,128,114)"/>
<circle cx="216" cy="240" r="12" fill="rgb(245,179,30)" opacity="0.35"/>
<circle cx="216" cy="240" r="9" fill="rgb(245,179,30)"/>
<circle cx="240" cy="240" r="12" fill="rgb(168,96,168)" opacity="0.35"/>
<circle cx="240" cy="240" r="9" fill="rgb(168,96,168)"/>
<circle cx="264" cy="240" r="12" fill="rgb(254,169,10)" opacity="0.35"/>
<circle cx="264" cy="240" r="9" fill="rgb(254,169,10)"/>
<circle cx="288" cy="240" r="12" fill="rgb(203,133,106)" opacity="0.35"/>
<circle cx="288" cy="240" r="9" fill="rgb(203,133,106)"/>
<circle cx="312" cy="240" r="12" fill="rgb(255,184,11)" opacity="0.35"/>
<circle cx="312" cy="240" r="9" fill="rgb(255,184,11)"/>
<circle cx="336" cy="240" r="12" fill="rgb(254,177,10)" opacity="0.35"/>
<circle cx="336" cy="240" r="9" fill="rgb(254,177,10)"/>
<circle cx="360" cy="240" r="12" fill="rgb(254,153,10)" opacity="0.35"/>
<circle cx="360" cy="240" r="9" fill="rgb(254,153,10)"/>
<circle cx="384" cy="240" r="12" fill="rgb(253,145,9)" opacity="0.35"/>
<circle cx="384" cy="240" r="9" fill="rgb(253,145,9)"/>
<circle cx="24" cy="264" r="12" fill="rgb(236,169,46)" opacity="0.35"/>
<circle cx="24" cy="264" r="9" fill="rgb(236,169,46)"/>
<circle cx="48" cy="264" r="12" fill="rgb(213,145,87)" opacity="0.35"/>
<circle cx="48" cy="264" r="9" fill="rgb(213,145,87)"/>
<circle cx="72" cy="264" r="12" fill="rgb(233,166,51)" opacity="0.35"/>
<circle cx="72" cy="264" r="9" fill="rgb(233,166,51)"/>
<circle cx="96" cy="264" r="12" fill="rgb(185,114,138)" opacity="0.35"/>
<circle cx="96" cy="264" r="9" fill="rgb(185,114,138)"/>
<circle cx="120" cy="264" r="12" fill="rgb(254,169,10)" opacity="0.35"/>
<circle cx="120" cy="264" r="9" fill="rgb(254,169,10)"/>
<circle cx="144" cy="264" r="12" fill="rgb(176,105,154)" opacity="0.35"/>
<circle cx="144" cy="264" r="9" fill="rgb(176,105,154)"/>
<circle cx="168" cy="264" r="12" fill="rgb(238,172,41)" opacity="0.35"/>
<circle cx="168" cy="264" r="9" fill="rgb(238,172,41)"/>
<circle cx="192" cy="264" r="12" fill="rgb(255,184,11)" opacity="0.35"/>
<circle cx="192" cy="264" r="9" fill="rgb(255,184,11)"/>
<circle cx="216" cy="264" r="12" fill="rgb(216,148,82)" opacity="0.35"/>
<circle cx="216" cy="264" r="9" fill="rgb(216,148,82)"/>
<circle cx="240" cy="264" r="12" fill="rgb(137,62,226)" opacity="0.35"/>
<circle cx="240" cy="264" r="9" fill="rgb(137,62,226)"/>
<circle cx="264" cy="264" r="12" fill="rgb(239,173,40)" opacity="0.35"/>
<circle cx="264" cy="264" r="9" fill="rgb(239,173,40)"/>
<circle cx="288" cy="264" r="12" fill="rgb(206,137,101)" opacity="0.35"/>
<circle cx="288" cy="264" r="9" fill="rgb(206,137,101)"/>
<circle cx="312" cy="264" r="12" fill="rgb(255,184,11)" opacity="0.35"/>
<circle cx="312" cy="264" r="9" fill="rgb(255,184,11)"/>
<circle cx="336" cy="264" r="12" fill="rgb(172,100,162)" opacity="0.35"/>
<circle cx="336" cy="264" r="9" fill="rgb(172,100,162)"/>
<circle cx="360" cy="264" r="12" fill="rgb(255,184,11)" opacity="0.35"/>
<circle cx="360" cy="264" r="9" fill="rgb(255,184,11)"/>
<circle cx="384" cy="264" r="12" fill="rgb(255,184,11)" opacity="0.35"/>
<circle cx="384" cy="264" r="9" fill="rgb(255,184,11)"/>
<circle cx="24" cy="288" r="12" fill="rgb(255,178,11)" opacity="0.35"/>
<circle cx="24" cy="288" r="9" fill="rgb(255,178,11)"/>
<circle cx="48" cy="288" r="12" fill="rgb(217,149,81)" opacity="0.35"/>
<circle cx="48" cy="288" r="9" fill="rgb(217,149,81)"/>
<circle cx="72" cy="288" r="12" fill="rgb(136,61,227)" opacity="0.35"/>
<circle cx="72" cy="288" r="9" fill="rgb(136,61,227)"/>
<circle cx="96" cy="288" r="12" fill="rgb(172,100,162)" opacity="0.35"/>
<circle cx="96" cy="288" r="9" fill="rgb(172,100,162)"/>
<circle cx="120" cy="288" r="12" fill="rgb(225,157,66)" opacity="0.35"/>
<circle cx="120" cy="288" r="9" fill="rgb(225,157,66)"/>
<circle cx="144" cy="288" r="12" fill="rgb(241,175,36)" opacity="0.35"/>
<circle cx="144" cy="288" r="9" fill="rgb(241,175,36)"/>
<circle cx="168" cy="288" r="12" fill="rgb(253,151,9)" opacity="0.35"/>
<circle cx="168" cy="288" r="9" fill="rgb(253,151,9)"/>
<circle cx="192" cy="288" r="12" fill="rgb(254,169,10)" opacity="0.35"/>
<circle cx="192" cy="288" r="9" fill="rgb(254,169,10)"/>
<circle cx="216" cy="288" r="12" fill="rgb(255,184,11)" opacity="0.35"/>
<circle cx="216" cy="288" r="9" fill="rgb(255,184,11)"/>
<circle cx="240" cy="288" r="12" fill="rgb(254,169,10)" opacity="0.35"/>
<circle cx="240" cy="288" r="9" fill="rgb(254,169,10)"/>
<circle cx="264" cy="288" r="12" fill="rgb(226,159,63)" opacity="0.35"/>
<circle cx="264" cy="288" r="9" fill="rgb(226,159,63)"/>
<circle cx="288" cy="288" r="12" fill="rgb(148,75,205)" opacity="0.35"/>
<circle cx="288" cy="288" r="9" fill="rgb(148,75,205)"/>
<circle cx="312" cy="288" r="12" fill="rgb(162,89,181)" opacity="0.35"/>
<circle cx="312" cy="288" r="9" fill="rgb(162,89,181)"/>
<circle cx="336" cy="288" r="12" fill="rgb(238,171,42)" opacity="0.35"/>
<circle cx="336" cy="288" r="9" fill="rgb(238,171,42)"/>
<circle cx="360" cy="288" r="12" fill="rgb(205,136,101)" opacity="0.35"/>
<circle cx="360" cy="288" r="9" fill="rgb(205,136,101)"/>
<circle cx="384" cy="288" r="12" fill="rgb(255,188,11)" opacity="0.35"/>
<circle cx="384" cy="288" r="9" fill="rgb(255,188,11)"/>
<circle cx="24" cy="312" r="12" fill="rgb(254,162,10)" opacity="0.35"/>
<circle cx="24" cy="312" r="9" fill="rgb(254,162,10)"/>
<circle cx="48" cy="312" r="12" fill="rgb(255,178,11)" opacity="0.35"/>
<circle cx="48" cy="312" r="9" fill="rgb(255,178,11)"/>
<circle cx="72" cy="312" r="12" fill="rgb(190,119,130)" opacity="0.35"/>
<circle cx="72" cy="312" r="9" fill="rgb(190,119,130)"/>
<circle cx="96" cy="312" r="12" fill="rgb(170,99,165)" opacity="0.35"/>
<circle cx="96" cy="312" r="9" fill="rgb(170,99,165)"/>
<circle cx="120" cy="312" r="12" fill="rgb(253,142,9)" opacity="0.35"/>
<circle cx="120" cy="312" r="9" fill="rgb(253,142,9)"/>
<circle cx="144" cy="312" r="12" fill="rgb(253,140,9)" opacity="0.35"/>
<circle cx="144" cy="312" r="9" fill="rgb(253,140,9)"/>
<circle cx="168" cy="312" r="12" fill="rgb(253,138,9)" opacity="0.35"/>
<circle cx="168" cy="312" r="9" fill="rgb(253,138,9)"/>
<circle cx="192" cy="312" r="12" fill="rgb(255,186,11)" opacity="0.35"/>
<circle cx="192" cy="312" r="9" fill="rgb(255,186,11)"/>
<circle cx="216" cy="312" r="12" fill="rgb(253,148,9)" opacity="0.35"/>
<circle cx="216" cy="312" r="9" fill="rgb(253,148,9)"/>
<circle cx="240" cy="312" r="12" fill="rgb(254,162,10)" opacity="0.35"/>
<circle cx="240" cy="312" r="9" fill="rgb(254,162,10)"/>
<circle cx="264" cy="312" r="12" fill="rgb(255,187,11)" opacity="0.35"/>
<circle cx="264" cy="312" r="9" fill="rgb(255,187,11)"/>
<circle cx="288" cy="312" r="12" fill="rgb(255,185,11)" opacity="0.35"/>
<circle cx="288" cy="312" r="9" fill="rgb(255,185,11)"/>
<circle cx="312" cy="312" r="12" fill="rgb(254,155,10)" opacity="0.35"/>
<circle cx="312" cy="312" r="9" fill="rgb(254,155,10)"/>
<circle cx="336" cy="312" r="12" fill="rgb(254,172,10)" opacity="0.35"/>
<circle cx="336" cy="312" r="9" fill="rgb(254,172,10)"/>
<circle cx="360" cy="312" r="12" fill="rgb(226,159,64)" opacity="0.35"/>
<circle cx="360" cy="312" r="9" fill="rgb(226,159,64)"/>
<circle cx="384" cy="312" r="12" fill="rgb(226,159,63)" opacity="0.35"/>
<circle cx="384" cy="312" r="9" fill="rgb(226,159,63)"/>
<circle cx="24" cy="336" r="12" fill="rgb(254,172,10)" opacity="0.35"/>
<circle cx="24" cy="336" r="9" fill="rgb(254,172,10)"/>
<circle cx="48" cy="336" r="12" fill="rgb(255,186,11)" opacity="0.35"/>
<circle cx="48" cy="336" r="9" fill="rgb(255,186,11)"/>
<circle cx="72" cy="336" r="12" fill="rgb(180,109,147)" opacity="0.35"/>
<circle cx="72" cy="336" r="9" fill="rgb(180,109,147)"/>
<circle cx="96" cy="336" r="12" fill="rgb(193,123,123)" opacity="0.35"/>
<circle cx="96" cy="336" r="9" fill="rgb(193,123,123)"/>
<circle cx="120" cy="336" r="12" fill="rgb(254,189,12)" opacity="0.35"/>
<circle cx="120" cy="336" r="9" fill="rgb(254,189,12)"/>
<circle cx="144" cy="336" r="12" fill="rgb(254,159,10)" opacity="0.35"/>
<circle cx="144" cy="336" r="9" fill="rgb(254,159,10)"/>
<circle cx="168" cy="336" r="12" fill="rgb(253,132,9)" opacity="0.35"/>
<circle cx="168" cy="336" r="9" fill="rgb(253,132,9)"/>
<circle cx="192" cy="336" r="12" fill="rgb(227,160,61)" opacity="0.35"/>
<circle cx="192" cy="336" r="9" fill="rgb(227,160,61)"/>
<circle cx="216" cy="336" r="12" fill="rgb(223,155,69)" opacity="0.35"/>
<circle cx="216" cy="336" r="9" fill="rgb(223,155,69)"/>
<circle cx="240" cy="336" r="12" fill="rgb(244,178,32)" opacity="0.35"/>
<circle cx="240" cy="336" r="9" fill="rgb(244,178,32)"/>
<circle cx="264" cy="336" r="12" fill="rgb(254,169,10)" opacity="0.35"/>
<circle cx="264" cy="336" r="9" fill="rgb(254,169,10)"/>
<circle cx="288" cy="336" r="12" fill="rgb(251,85,8)" opacity="0.35"/>
<circle cx="288" cy="336" r="9" fill="rgb(251,85,8)"/>
<circle cx="312" cy="336" r="12" fill="rgb(252,107,8)" opacity="0.35"/>
<circle cx="312" cy="336" r="9" fill="rgb(252,107,8)"/>
<circle cx="336" cy="336" r="12" fill="rgb(253,139,9)" opacity="0.35"/>
<circle cx="336" cy="336" r="9" fill="rgb(253,139,9)"/>
<circle cx="360" cy="336" r="12" fill="rgb(254,166,10)" opacity="0.35"/>
<circle cx="360" cy="336" r="9" fill="rgb(254,166,10)"/>
<circle cx="384" cy="336" r="12" fill="rgb(239,173,40)" opacity="0.35"/>
<circle cx="384" cy="336" r="9" fill="rgb(239,173,40)"/>
<circle cx="24" cy="360" r="12" fill="rgb(255,189,11)" opacity="0.35"/>
<circle cx="24" cy="360" r="9" fill="rgb(255,189,11)"/>
<circle cx="48" cy="360" r="12" fill="rgb(195,125,120)" opacity="0.35"/>
<circle cx="48" cy="360" r="9" fill="rgb(195,125,120)"/>
<circle cx="72" cy="360" r="12" fill="rgb(173,102,159)" opacity="0.35"/>
<circle cx="72" cy="360" r="9" fill="rgb(173,102,159)"/>
<circle cx="96" cy="360" r="12" fill="rgb(155,82,192)" opacity="0.35"/>
<circle cx="96" cy="360" r="9" fill="rgb(155,82,192)"/>
<circle cx="120" cy="360" r="12" fill="rgb(224,157,67)" opacity="0.35"/>
<circle cx="120" cy="360" r="9" fill="rgb(224,157,67)"/>
<circle cx="144" cy="360" r="12" fill="rgb(254,172,10)" opacity="0.35"/>
<circle cx="144" cy="360" r="9" fill="rgb(254,172,10)"/>
<circle cx="168" cy="360" r="12" fill="rgb(237,171,43)" opacity="0.35"/>
<circle cx="168" cy="360" r="9" fill="rgb(237,171,43)"/>
<circle cx="192" cy="360" r="12" fill="rgb(166,93,173)" opacity="0.35"/>
<circle cx="192" cy="360" r="9" fill="rgb(166,93,173)"/>
<circle cx="216" cy="360" r="12" fill="rgb(187,117,134)" opacity="0.35"/>
<circle cx="216" cy="360" r="9" fill="rgb(187,117,134)"/>
<circle cx="240" cy="360" r="12" fill="rgb(237,171,43)" opacity="0.35"/>
<circle cx="240" cy="360" r="9" fill="rgb(237,171,43)"/>
<circle cx="264" cy="360" r="12" fill="rgb(254,158,10)" opacity="0.35"/>
<circle cx="264" cy="360" r="9" fill="rgb(254,158,10)"/>
<circle cx="288" cy="360" r="12" fill="rgb(252,67,30)" opacity="0.35"/>
<circle cx="288" cy="360" r="9" fill="rgb(252,67,30)"/>
<circle cx="312" cy="360" r="12" fill="rgb(253,125,9)" opacity="0.35"/>
<circle cx="312" cy="360" r="9" fill="rgb(253,125,9)"/>
<circle cx="336" cy="360" r="12" fill="rgb(255,190,11)" opacity="0.35"/>
<circle cx="336" cy="360" r="9" fill="rgb(255,190,11)"/>
<circle cx="360" cy="360" r="12" fill="rgb(254,169,10)" opacity="0.35"/>
<circle cx="360" cy="360" r="9" fill="rgb(254,169,10)"/>
<circle cx="384" cy="360" r="12" fill="rgb(198,129,114)" opacity="0.35"/>
<circle cx="384" cy="360" r="9" fill="rgb(198,129,114)"/>
<circle cx="24" cy="384" r="12" fill="rgb(254,168,10)" opacity="0.35"/>
<circle cx="24" cy="384" r="9" fill="rgb(254,168,10)"/>
<circle cx="48" cy="384" r="12" fill="rgb(253,140,9)" opacity="0.35"/>
<circle cx="48" cy="384" r="9" fill="rgb(253,140,9)"/>
<circle cx="72" cy="384" r="12" fill="rgb(228,161,59)" opacity="0.35"/>
<circle cx="72" cy="384" r="9" fill="rgb(228,161,59)"/>
<circle cx="96" cy="384" r="12" fill="rgb(150,76,202)" opacity="0.35"/>
<circle cx="96" cy="384" r="9" fill="rgb(150,76,202)"/>
<circle cx="120" cy="384" r="12" fill="rgb(216,148,82)" opacity="0.35"/>
<circle cx="120" cy="384" r="9" fill="rgb(216,148,82)"/>
<circle cx="144" cy="384" r="12" fill="rgb(233,166,52)" opacity="0.35"/>
<circle cx="144" cy="384" r="9" fill="rgb(233,166,52)"/>
<circle cx="168" cy="384" r="12" fill="rgb(196,126,119)" opacity="0.35"/>
<circle cx="168" cy="384" r="9" fill="rgb(196,126,119)"/>
<circle cx="192" cy="384" r="12" fill="rgb(172,100,161)" opacity="0.35"/>
<circle cx="192" cy="384" r="9" fill="rgb(172,100,161)"/>
<circle cx="216" cy="384" r="12" fill="rgb(223,155,70)" opacity="0.35"/>
<circle cx="216" cy="384" r="9" fill="rgb(223,155,70)"/>
<circle cx="240" cy="384" r="12" fill="rgb(255,182,11)" opacity="0.35"/>
<circle cx="240" cy="384" r="9" fill="rgb(255,182,11)"/>
<circle cx="264" cy="384" r="12" fill="rgb(252,116,8)" opacity="0.35"/>
<circle cx="264" cy="384" r="9" fill="rgb(252,116,8)"/>
<circle cx="288" cy="384" r="12" fill="rgb(254,169,10)" opacity="0.35"/>
<circle cx="288" cy="384" r="9" fill="rgb(254,169,10)"/>
<circle cx="312" cy="384" r="12" fill="rgb(254,162,10)" opacity="0.35"/>
<circle cx="312" cy="384" r="9" fill="rgb(254,162,10)"/>
<circle cx="336" cy="384" r="12" fill="rgb(255,185,11)" opacity="0.35"/>
<circle cx="336" cy="384" r="9" fill="rgb(255,185,11)"/>
<circle cx="360" cy="384" r="12" fill="rgb(254,189,12)" opacity="0.35"/>
<circle cx="360" cy="384" r="9" fill="rgb(254,189,12)"/>
<circle cx="384" cy="384" r="12" fill="rgb(128,59,237)" opacity="0.35"/>
<circle cx="384" cy="384" r="9" fill="rgb(128,59,237)"/>
</svg>
