<svg xmlns="http://www.w3.org/2000/svg" viewBox="0 0 408 408" width="408" height="408" role="img" aria-label="LED preview of the Field Formula example graph">
<rect width="408" height="408" rx="10" fill="#05070a"/>
<circle cx="24" cy="24" r="12" fill="rgb(194,124,122)" opacity="0.35"/>
<circle cx="24" cy="24" r="9" fill="rgb(194,124,122)"/>
<circle cx="48" cy="24" r="12" fill="rgb(254,155,10)" opacity="0.35"/>
<circle cx="48" cy="24" r="9" fill="rgb(254,155,10)"/>
<circle cx="72" cy="24" r="12" fill="rgb(251,84,10)" opacity="0.35"/>
<circle cx="72" cy="24" r="9" fill="rgb(251,84,10)"/>
<circle cx="96" cy="24" r="12" fill="rgb(253,36,66)" opacity="0.35"/>
<circle cx="96" cy="24" r="9" fill="rgb(253,36,66)"/>
<circle cx="120" cy="24" r="12" fill="rgb(254,12,95)" opacity="0.35"/>
<circle cx="120" cy="24" r="9" fill="rgb(254,12,95)"/>
<circle cx="144" cy="24" r="12" fill="rgb(255,1,108)" opacity="0.35"/>
<circle cx="144" cy="24" r="9" fill="rgb(255,1,108)"/>
<circle cx="168" cy="24" r="12" fill="rgb(255,0,110)" opacity="0.35"/>
<circle cx="168" cy="24" r="9" fill="rgb(255,0,110)"/>
<circle cx="192" cy="24" r="12" fill="rgb(255,3,107)" opacity="0.35"/>
<circle cx="192" cy="24" r="9" fill="rgb(255,3,107)"/>
<circle cx="216" cy="24" r="12" fill="rgb(255,3,107)" opacity="0.35"/>
<circle cx="216" cy="24" r="9" fill="rgb(255,3,107)"/>
<circle cx="240" cy="24" r="12" fill="rgb(255,3,107)" opacity="0.35"/>
<circle cx="240" cy="24" r="9" fill="rgb(255,3,107)"/>
<circle cx="264" cy="24" r="12" fill="rgb(255,0,110)" opacity="0.35"/>
<circle cx="264" cy="24" r="9" fill="rgb(255,0,110)"/>
<circle cx="288" cy="24" r="12" fill="rgb(255,1,108)" opacity="0.35"/>
<circle cx="288" cy="24" r="9" fill="rgb(255,1,108)"/>
<circle cx="312" cy="24" r="12" fill="rgb(254,12,95)" opacity="0.35"/>
<circle cx="312" cy="24" r="9" fill="rgb(254,12,95)"/>
<circle cx="336" cy="24" r="12" fill="rgb(253,36,66)" opacity="0.35"/>
<circle cx="336" cy="24" r="9" fill="rgb(253,36,66)"/>
<circle cx="360" cy="24" r="12" fill="rgb(251,84,10)" opacity="0.35"/>
<circle cx="360" cy="24" r="9" fill="rgb(251,84,10)"/>
<circle cx="384" cy="24" r="12" fill="rgb(254,155,10)" opacity="0.35"/>
<circle cx="384" cy="24" r="9" fill="rgb(254,155,10)"/>
<circle cx="24" cy="48" r="12" fill="rgb(254,155,10)" opacity="0.35"/>
<circle cx="24" cy="48" r="9" fill="rgb(254,155,10)"/>
<circle cx="48" cy="48" r="12" fill="rgb(252,73,23)" opacity="0.35"/>
<circle cx="48" cy="48" r="9" fill="rgb(252,73,23)"/>
<circle cx="72" cy="48" r="12" fill="rgb(254,24,81)" opacity="0.35"/>
<circle cx="72" cy="48" r="9" fill="rgb(254,24,81)"/>
<circle cx="96" cy="48" r="12" fill="rgb(255,3,107)" opacity="0.35"/>
<circle cx="96" cy="48" r="9" fill="rgb(255,3,107)"/>
<circle cx="120" cy="48" r="12" fill="rgb(255,3,107)" opacity="0.35"/>
<circle cx="120" cy="48" r="9" fill="rgb(255,3,107)"/>
<circle cx="144" cy="48" r="12" fill="rgb(254,16,91)" opacity="0.35"/>
<circle cx="144" cy="48" r="9" fill="rgb(254,16,91)"/>
<circle cx="168" cy="48" r="12" fill="rgb(253,34,70)" opacity="0.35"/>
<circle cx="168" cy="48" r="9" fill="rgb(253,34,70)"/>
<circle cx="192" cy="48" r="12" fill="rgb(253,50,50)" opacity="0.35"/>
<circle cx="192" cy="48" r="9" fill="rgb(253,50,50)"/>
<circle cx="216" cy="48" r="12" fill="rgb(252,54,45)" opacity="0.35"/>
<circle cx="216" cy="48" r="9" fill="rgb(252,54,45)"/>
<circle cx="240" cy="48" r="12" fill="rgb(253,50,50)" opacity="0.35"/>
<circle cx="240" cy="48" r="9" fill="rgb(253,50,50)"/>
<circle cx="264" cy="48" r="12" fill="rgb(253,34,70)" opacity="0.35"/>
<circle cx="264" cy="48" r="9" fill="rgb(253,34,70)"/>
<circle cx="288" cy="48" r="12" fill="rgb(254,16,91)" opacity="0.35"/>
<circle cx="288" cy="48" r="9" fill="rgb(254,16,91)"/>
<circle cx="312" cy="48" r="12" fill="rgb(255,3,107)" opacity="0.35"/>
<circle cx="312" cy="48" r="9" fill="rgb(255,3,107)"/>
<circle cx="336" cy="48" r="12" fill="rgb(255,3,107)" opacity="0.35"/>
<circle cx="336" cy="48" r="9" fill="rgb(255,3,107)"/>
<circle cx="360" cy="48" r="12" fill="rgb(254,24,81)" opacity="0.35"/>
<circle cx="360" cy="48" r="9" fill="rgb(254,24,81)"/>
<circle cx="384" cy="48" r="12" fill="rgb(252,73,23)" opacity="0.35"/>
<circle cx="384" cy="48" r="9" fill="rgb(252,73,23)"/>
<circle cx="24" cy="72" r="12" fill="rgb(251,84,10)" opacity="0.35"/>
<circle cx="24" cy="72" r="9" fill="rgb(251,84,10)"/>
<circle cx="48" cy="72" r="12" fill="rgb(254,24,81)" opacity="0.35"/>
<circle cx="48" cy="72" r="9" fill="rgb(254,24,81)"/>
<circle cx="72" cy="72" r="12" fill="rgb(255,1,108)" opacity="0.35"/>
<circle cx="72" cy="72" r="9" fill="rgb(255,1,108)"/>
<circle cx="96" cy="72" r="12" fill="rgb(255,8,100)" opacity="0.35"/>
<circle cx="96" cy="72" r="9" fill="rgb(255,8,100)"/>
<circle cx="120" cy="72" r="12" fill="rgb(253,39,63)" opacity="0.35"/>
<circle cx="120" cy="72" r="9" fill="rgb(253,39,63)"/>
<circle cx="144" cy="72" r="12" fill="rgb(251,81,13)" opacity="0.35"/>
<circle cx="144" cy="72" r="9" fill="rgb(251,81,13)"/>
<circle cx="168" cy="72" r="12" fill="rgb(252,121,8)" opacity="0.35"/>
<circle cx="168" cy="72" r="9" fill="rgb(252,121,8)"/>
<circle cx="192" cy="72" r="12" fill="rgb(253,150,9)" opacity="0.35"/>
<circle cx="192" cy="72" r="9" fill="rgb(253,150,9)"/>
<circle cx="216" cy="72" r="12" fill="rgb(254,160,10)" opacity="0.35"/>
<circle cx="216" cy="72" r="9" fill="rgb(254,160,10)"/>
<circle cx="240" cy="72" r="12" fill="rgb(253,150,9)" opacity="0.35"/>
<circle cx="240" cy="72" r="9" fill="rgb(253,150,9)"/>
<circle cx="264" cy="72" r="12" fill="rgb(252,121,8)" opacity="0.35"/>
<circle cx="264" cy="72" r="9" fill="rgb(252,121,8)"/>
<circle cx="288" cy="72" r="12" fill="rgb(251,81,13)" opacity="0.35"/>
<circle cx="288" cy="72" r="9" fill="rgb(251,81,13)"/>
<circle cx="312" cy="72" r="12" fill="rgb(253,39,63)" opacity="0.35"/>
<circle cx="312" cy="72" r="9" fill="rgb(253,39,63)"/>
<circle cx="336" cy="72" r="12" fill="rgb(255,8,100)" opacity="0.35"/>
<circle cx="336" cy="72" r="9" fill="rgb(255,8,100)"/>
<circle cx="360" cy="72" r="12" fill="rgb(255,1,108)" opacity="0.35"/>
<circle cx="360" cy="72" r="9" fill="rgb(255,1,108)"/>
<circle cx="384" cy="72" r="12" fill="rgb(254,24,81)" opacity="0.35"/>
<circle cx="384" cy="72" r="9" fill="rgb(254,24,81)"/>
<circle cx="24" cy="96" r="12" fill="rgb(253,36,66)" opacity="0.35"/>
<circle cx="24" cy="96" r="9" fill="rgb(253,36,66)"/>
<circle cx="48" cy="96" r="12" fill="rgb(255,3,107)" opacity="0.35"/>
<circle cx="48" cy="96" r="9" fill="rgb(255,3,107)"/>
<circle cx="72" cy="96" r="12" fill="rgb(255,8,100)" opacity="0.35"/>
<circle cx="72" cy="96" r="9" fill="rgb(255,8,100)"/>
<circle cx="96" cy="96" r="12" fill="rgb(253,50,50)" opacity="0.35"/>
<circle cx="96" cy="96" r="9" fill="rgb(253,50,50)"/>
<circle cx="120" cy="96" r="12" fill="rgb(252,111,8)" opacity="0.35"/>
<circle cx="120" cy="96" r="9" fill="rgb(252,111,8)"/>
<circle cx="144" cy="96" r="12" fill="rgb(255,186,11)" opacity="0.35"/>
<circle cx="144" cy="96" r="9" fill="rgb(255,186,11)"/>
<circle cx="168" cy="96" r="12" fill="rgb(194,124,122)" opacity="0.35"/>
<circle cx="168" cy="96" r="9" fill="rgb(194,124,122)"/>
<circle cx="192" cy="96" r="12" fill="rgb(153,80,196)" opacity="0.35"/>
<circle cx="192" cy="96" r="9" fill="rgb(153,80,196)"/>
<circle cx="216" cy="96" r="12" fill="rgb(141,67,217)" opacity="0.35"/>
<circle cx="216" cy="96" r="9" fill="rgb(141,67,217)"/>
<circle cx="240" cy="96" r="12" fill="rgb(153,80,196)" opacity="0.35"/>
<circle cx="240" cy="96" r="9" fill="rgb(153,80,196)"/>
<circle cx="264" cy="96" r="12" fill="rgb(194,124,122)" opacity="0.35"/>
<circle cx="264" cy="96" r="9" fill="rgb(194,124,122)"/>
<circle cx="288" cy="96" r="12" fill="rgb(255,186,11)" opacity="0.35"/>
<circle cx="288" cy="96" r="9" fill="rgb(255,186,11)"/>
<circle cx="312" cy="96" r="12" fill="rgb(252,111,8)" opacity="0.35"/>
<circle cx="312" cy="96" r="9" fill="rgb(252,111,8)"/>
<circle cx="336" cy="96" r="12" fill="rgb(253,50,50)" opacity="0.35"/>
<circle cx="336" cy="96" r="9" fill="rgb(253,50,50)"/>
<circle cx="360" cy="96" r="12" fill="rgb(255,8,100)" opacity="0.35"/>
<circle cx="360" cy="96" r="9" fill="rgb(255,8,100)"/>
<circle cx="384" cy="96" r="12" fill="rgb(255,3,107)" opacity="0.35"/>
<circle cx="384" cy="96" r="9" fill="rgb(255,3,107)"/>
<circle cx="24" cy="120" r="12" fill="rgb(254,12,95)" opacity="0.35"/>
<circle cx="24" cy="120" r="9" fill="rgb(254,12,95)"/>
<circle cx="48" cy="120" r="12" fill="rgb(255,3,107)" opacity="0.35"/>
<circle cx="48" cy="120" r="9" fill="rgb(255,3,107)"/>
<circle cx="72" cy="120" r="12" fill="rgb(253,39,63)" opacity="0.35"/>
<circle cx="72" cy="120" r="9" fill="rgb(253,39,63)"/>
<circle cx="96" cy="120" r="12" fill="rgb(252,111,8)" opacity="0.35"/>
<circle cx="96" cy="120" r="9" fill="rgb(252,111,8)"/>
<circle cx="120" cy="120" r="12" fill="rgb(237,170,45)" opacity="0.35"/>
<circle cx="120" cy="120" r="9" fill="rgb(237,170,45)"/>
<circle cx="144" cy="120" r="12" fill="rgb(141,67,217)" opacity="0.35"/>
<circle cx="144" cy="120" r="9" fill="rgb(141,67,217)"/>
<circle cx="168" cy="120" r="12" fill="rgb(97,92,245)" opacity="0.35"/>
<circle cx="168" cy="120" r="9" fill="rgb(97,92,245)"/>
<circle cx="192" cy="120" r="12" fill="rgb(80,111,249)" opacity="0.35"/>
<circle cx="192" cy="120" r="9" fill="rgb(80,111,249)"/>
<circle cx="216" cy="120" r="12" fill="rgb(74,117,251)" opacity="0.35"/>
<circle cx="216" cy="120" r="9" fill="rgb(74,117,251)"/>
<circle cx="240" cy="120" r="12" fill="rgb(80,111,249)" opacity="0.35"/>
<circle cx="240" cy="120" r="9" fill="rgb(80,111,249)"/>
<circle cx="264" cy="120" r="12" fill="rgb(97,92,245)" opacity="0.35"/>
<circle cx="264" cy="120" r="9" fill="rgb(97,92,245)"/>
<circle cx="288" cy="120" r="12" fill="rgb(141,67,217)" opacity="0.35"/>
<circle cx="288" cy="120" r="9" fill="rgb(141,67,217)"/>
<circle cx="312" cy="120" r="12" fill="rgb(237,170,45)" opacity="0.35"/>
<circle cx="312" cy="120" r="9" fill="rgb(237,170,45)"/>
<circle cx="336" cy="120" r="12" fill="rgb(252,111,8)" opacity="0.35"/>
<circle cx="336" cy="120" r="9" fill="rgb(252,111,8)"/>
<circle cx="360" cy="120" r="12" fill="rgb(253,39,63)" opacity="0.35"/>
<circle cx="360" cy="120" r="9" fill="rgb(253,39,63)"/>
<circle cx="384" cy="120" r="12" fill="rgb(255,3,107)" opacity="0.35"/>
<circle cx="384" cy="120" r="9" fill="rgb(255,3,107)"/>
<circle cx="24" cy="144" r="12" fill="rgb(255,1,108)" opacity="0.35"/>
<circle cx="24" cy="144" r="9" fill="rgb(255,1,108)"/>
<circle cx="48" cy="144" r="12" fill="rgb(254,16,91)" opacity="0.35"/>
<circle cx="48" cy="144" r="9" fill="rgb(254,16,91)"/>
<circle cx="72" cy="144" r="12" fill="rgb(251,81,13)" opacity="0.35"/>
<circle cx="72" cy="144" r="9" fill="rgb(251,81,13)"/>
<circle cx="96" cy="144" r="12" fill="rgb(255,186,11)" opacity="0.35"/>
<circle cx="96" cy="144" r="9" fill="rgb(255,186,11)"/>
<circle cx="120" cy="144" r="12" fill="rgb(141,67,217)" opacity="0.35"/>
<circle cx="120" cy="144" r="9" fill="rgb(141,67,217)"/>
<circle cx="144" cy="144" r="12" fill="rgb(85,105,248)" opacity="0.35"/>
<circle cx="144" cy="144" r="9" fill="rgb(85,105,248)"/>
<circle cx="168" cy="144" r="12" fill="rgb(61,130,254)" opacity="0.35"/>
<circle cx="168" cy="144" r="9" fill="rgb(61,130,254)"/>
<circle cx="192" cy="144" r="12" fill="rgb(255,0,110)" opacity="0.35"/>
<circle cx="192" cy="144" r="9" fill="rgb(255,0,110)"/>
<circle cx="216" cy="144" r="12" fill="rgb(255,0,110)" opacity="0.35"/>
<circle cx="216" cy="144" r="9" fill="rgb(255,0,110)"/>
<circle cx="240" cy="144" r="12" fill="rgb(255,0,110)" opacity="0.35"/>
<circle cx="240" cy="144" r="9" fill="rgb(255,0,110)"/>
<circle cx="264" cy="144" r="12" fill="rgb(61,130,254)" opacity="0.35"/>
<circle cx="264" cy="144" r="9" fill="rgb(61,130,254)"/>
<circle cx="288" cy="144" r="12" fill="rgb(85,105,248)" opacity="0.35"/>
<circle cx="288" cy="144" r="9" fill="rgb(85,105,248)"/>
<circle cx="312" cy="144" r="12" fill="rgb(141,67,217)" opacity="0.35"/>
<circle cx="312" cy="144" r="9" fill="rgb(141,67,217)"/>
<circle cx="336" cy="144" r="12" fill="rgb(255,186,11)" opacity="0.35"/>
<circle cx="336" cy="144" r="9" fill="rgb(255,186,11)"/>
<circle cx="360" cy="144" r="12" fill="rgb(251,81,13)" opacity="0.35"/>
<circle cx="360" cy="144" r="9" fill="rgb(251,81,13)"/>
<circle cx="384" cy="144" r="12" fill="rgb(254,16,91)" opacity="0.35"/>
<circle cx="384" cy="144" r="9" fill="rgb(254,16,91)"/>
<circle cx="24" cy="168" r="12" fill="rgb(255,0,110)" opacity="0.35"/>
<circle cx="24" cy="168" r="9" fill="rgb(255,0,110)"/>
<circle cx="48" cy="168" r="12" fill="rgb(253,34,70)" opacity="0.35"/>
<circle cx="48" cy="168" r="9" fill="rgb(253,34,70)"/>
<circle cx="72" cy="168" r="12" fill="rgb(252,121,8)" opacity="0.35"/>
<circle cx="72" cy="168" r="9" fill="rgb(252,121,8)"/>
<circle cx="96" cy="168" r="12" fill="rgb(194,124,122)" opacity="0.35"/>
<circle cx="96" cy="168" r="9" fill="rgb(194,124,122)"/>
<circle cx="120" cy="168" r="12" fill="rgb(97,92,245)" opacity="0.35"/>
<circle cx="120" cy="168" r="9" fill="rgb(97,92,245)"/>
<circle cx="144" cy="168" r="12" fill="rgb(61,130,254)" opacity="0.35"/>
<circle cx="144" cy="168" r="9" fill="rgb(61,130,254)"/>
<circle cx="168" cy="168" r="12" fill="rgb(61,130,254)" opacity="0.35"/>
<circle cx="168" cy="168" r="9" fill="rgb(61,130,254)"/>
<circle cx="192" cy="168" r="12" fill="rgb(83,107,248)" opacity="0.35"/>
<circle cx="192" cy="168" r="9" fill="rgb(83,107,248)"/>
<circle cx="216" cy="168" r="12" fill="rgb(95,95,245)" opacity="0.35"/>
<circle cx="216" cy="168" r="9" fill="rgb(95,95,245)"/>
<circle cx="240" cy="168" r="12" fill="rgb(83,107,248)" opacity="0.35"/>
<circle cx="240" cy="168" r="9" fill="rgb(83,107,248)"/>
<circle cx="264" cy="168" r="12" fill="rgb(61,130,254)" opacity="0.35"/>
<circle cx="264" cy="168" r="9" fill="rgb(61,130,254)"/>
<circle cx="288" cy="168" r="12" fill="rgb(61,130,254)" opacity="0.35"/>
<circle cx="288" cy="168" r="9" fill="rgb(61,130,254)"/>
<circle cx="312" cy="168" r="12" fill="rgb(97,92,245)" opacity="0.35"/>
<circle cx="312" cy="168" r="9" fill="rgb(97,92,245)"/>
<circle cx="336" cy="168" r="12" fill="rgb(194,124,122)" opacity="0.35"/>
<circle cx="336" cy="168" r="9" fill="rgb(194,124,122)"/>
<circle cx="360" cy="168" r="12" fill="rgb(252,121,8)" opacity="0.35"/>
<circle cx="360" cy="168" r="9" fill="rgb(252,121,8)"/>
<circle cx="384" cy="168" r="12" fill="rgb(253,34,70)" opacity="0.35"/>
<circle cx="384" cy="168" r="9" fill="rgb(253,34,70)"/>
<circle cx="24" cy="192" r="12" fill="rgb(255,3,107)" opacity="0.35"/>
<circle cx="24" cy="192" r="9" fill="rgb(255,3,107)"/>
<circle cx="48" cy="192" r="12" fill="rgb(253,50,50)" opacity="0.35"/>
<circle cx="48" cy="192" r="9" fill="rgb(253,50,50)"/>
<circle cx="72" cy="192" r="12" fill="rgb(253,150,9)" opacity="0.35"/>
<circle cx="72" cy="192" r="9" fill="rgb(253,150,9)"/>
<circle cx="96" cy="192" r="12" fill="rgb(153,80,196)" opacity="0.35"/>
<circle cx="96" cy="192" r="9" fill="rgb(153,80,196)"/>
<circle cx="120" cy="192" r="12" fill="rgb(80,111,249)" opacity="0.35"/>
<circle cx="120" cy="192" r="9" fill="rgb(80,111,249)"/>
<circle cx="144" cy="192" r="12" fill="rgb(255,0,110)" opacity="0.35"/>
<circle cx="144" cy="192" r="9" fill="rgb(255,0,110)"/>
<circle cx="168" cy="192" r="12" fill="rgb(83,107,248)" opacity="0.35"/>
<circle cx="168" cy="192" r="9" fill="rgb(83,107,248)"/>
<circle cx="192" cy="192" r="12" fill="rgb(141,67,217)" opacity="0.35"/>
<circle cx="192" cy="192" r="9" fill="rgb(141,67,217)"/>
<circle cx="216" cy="192" r="12" fill="rgb(200,130,112)" opacity="0.35"/>
<circle cx="216" cy="192" r="9" fill="rgb(200,130,112)"/>
<circle cx="240" cy="192" r="12" fill="rgb(141,67,217)" opacity="0.35"/>
<circle cx="240" cy="192" r="9" fill="rgb(141,67,217)"/>
<circle cx="264" cy="192" r="12" fill="rgb(83,107,248)" opacity="0.35"/>
<circle cx="264" cy="192" r="9" fill="rgb(83,107,248)"/>
<circle cx="288" cy="192" r="12" fill="rgb(255,0,110)" opacity="0.35"/>
<circle cx="288" cy="192" r="9" fill="rgb(255,0,110)"/>
<circle cx="312" cy="192" r="12" fill="rgb(80,111,249)" opacity="0.35"/>
<circle cx="312" cy="192" r="9" fill="rgb(80,111,249)"/>
<circle cx="336" cy="192" r="12" fill="rgb(153,80,196)" opacity="0.35"/>
<circle cx="336" cy="192" r="9" fill="rgb(153,80,196)"/>
<circle cx="360" cy="192" r="12" fill="rgb(253,150,9)" opacity="0.35"/>
<circle cx="360" cy="192" r="9" fill="rgb(253,150,9)"/>
<circle cx="384" cy="192" r="12" fill="rgb(253,50,50)" opacity="0.35"/>
<circle cx="384" cy="192" r="9" fill="rgb(253,50,50)"/>
<circle cx="24" cy="216" r="12" fill="rgb(255,3,107)" opacity="0.35"/>
<circle cx="24" cy="216" r="9" fill="rgb(255,3,107)"/>
<circle cx="48" cy="216" r="12" fill="rgb(252,54,45)" opacity="0.35"/>
<circle cx="48" cy="216" r="9" fill="rgb(252,54,45)"/>
<circle cx="72" cy="216" r="12" fill="rgb(254,160,10)" opacity="0.35"/>
<circle cx="72" cy="216" r="9" fill="rgb(254,160,10)"/>
<circle cx="96" cy="216" r="12" fill="rgb(141,67,217)" opacity="0.35"/>
<circle cx="96" cy="216" r="9" fill="rgb(141,67,217)"/>
<circle cx="120" cy="216" r="12" fill="rgb(74,117,251)" opacity="0.35"/>
<circle cx="120" cy="216" r="9" fill="rgb(74,117,251)"/>
<circle cx="144" cy="216" r="12" fill="rgb(255,0,110)" opacity="0.35"/>
<circle cx="144" cy="216" r="9" fill="rgb(255,0,110)"/>
<circle cx="168" cy="216" r="12" fill="rgb(95,95,245)" opacity="0.35"/>
<circle cx="168" cy="216" r="9" fill="rgb(95,95,245)"/>
<circle cx="192" cy="216" r="12" fill="rgb(200,130,112)" opacity="0.35"/>
<circle cx="192" cy="216" r="9" fill="rgb(200,130,112)"/>
<circle cx="216" cy="216" r="12" fill="rgb(252,111,8)" opacity="0.35"/>
<circle cx="216" cy="216" r="9" fill="rgb(252,111,8)"/>
<circle cx="240" cy="216" r="12" fill="rgb(200,130,112)" opacity="0.35"/>
<circle cx="240" cy="216" r="9" fill="rgb(200,130,112)"/>
<circle cx="264" cy="216" r="12" fill="rgb(95,95,245)" opacity="0.35"/>
<circle cx="264" cy="216" r="9" fill="rgb(95,95,245)"/>
<circle cx="288" cy="216" r="12" fill="rgb(255,0,110)" opacity="0.35"/>
<circle cx="288" cy="216" r="9" fill="rgb(255,0,110)"/>
<circle cx="312" cy="216" r="12" fill="rgb(74,117,251)" opacity="0.35"/>
<circle cx="312" cy="216" r="9" fill="rgb(74,117,251)"/>
<circle cx="336" cy="216" r="12" fill="rgb(141,67,217)" opacity="0.35"/>
<circle cx="336" cy="216" r="9" fill="rgb(141,67,217)"/>
<circle cx="360" cy="216" r="12" fill="rgb(254,160,10)" opacity="0.35"/>
<circle cx="360" cy="216" r="9" fill="rgb(254,160,10)"/>
<circle cx="384" cy="216" r="12" fill="rgb(252,54,45)" opacity="0.35"/>
<circle cx="384" cy="216" r="9" fill="rgb(252,54,45)"/>
<circle cx="24" cy="240" r="12" fill="rgb(255,3,107)" opacity="0.35"/>
<circle cx="24" cy="240" r="9" fill="rgb(255,3,107)"/>
<circle cx="48" cy="240" r="12" fill="rgb(253,50,50)" opacity="0.35"/>
<circle cx="48" cy="240" r="9" fill="rgb(253,50,50)"/>
<circle cx="72" cy="240" r="12" fill="rgb(253,150,9)" opacity="0.35"/>
<circle cx="72" cy="240" r="9" fill="rgb(253,150,9)"/>
<circle cx="96" cy="240" r="12" fill="rgb(153,80,196)" opacity="0.35"/>
<circle cx="96" cy="240" r="9" fill="rgb(153,80,196)"/>
<circle cx="120" cy="240" r="12" fill="rgb(80,111,249)" opacity="0.35"/>
<circle cx="120" cy="240" r="9" fill="rgb(80,111,249)"/>
<circle cx="144" cy="240" r="12" fill="rgb(255,0,110)" opacity="0.35"/>
<circle cx="144" cy="240" r="9" fill="rgb(255,0,110)"/>
<circle cx="168" cy="240" r="12" fill="rgb(83,107,248)" opacity="0.35"/>
<circle cx="168" cy="240" r="9" fill="rgb(83,107,248)"/>
<circle cx="192" cy="240" r="12" fill="rgb(141,67,217)" opacity="0.35"/>
<circle cx="192" cy="240" r="9" fill="rgb(141,67,217)"/>
<circle cx="216" cy="240" r="12" fill="rgb(200,130,112)" opacity="0.35"/>
<circle cx="216" cy="240" r="9" fill="rgb(200,130,112)"/>
<circle cx="240" cy="240" r="12" fill="rgb(141,67,217)" opacity="0.35"/>
<circle cx="240" cy="240" r="9" fill="rgb(141,67,217)"/>
<circle cx="264" cy="240" r="12" fill="rgb(83,107,248)" opacity="0.35"/>
<circle cx="264" cy="240" r="9" fill="rgb(83,107,248)"/>
<circle cx="288" cy="240" r="12" fill="rgb(255,0,110)" opacity="0.35"/>
<circle cx="288" cy="240" r="9" fill="rgb(255,0,110)"/>
<circle cx="312" cy="240" r="12" fill="rgb(80,111,249)" opacity="0.35"/>
<circle cx="312" cy="240" r="9" fill="rgb(80,111,249)"/>
<circle cx="336" cy="240" r="12" fill="rgb(153,80,196)" opacity="0.35"/>
<circle cx="336" cy="240" r="9" fill="rgb(153,80,196)"/>
<circle cx="360" cy="240" r="12" fill="rgb(253,150,9)" opacity="0.35"/>
<circle cx="360" cy="240" r="9" fill="rgb(253,150,9)"/>
<circle cx="384" cy="240" r="12" fill="rgb(253,50,50)" opacity="0.35"/>
<circle cx="384" cy="240" r="9" fill="rgb(253,50,50)"/>
<circle cx="24" cy="264" r="12" fill="rgb(255,0,110)" opacity="0.35"/>
<circle cx="24" cy="264" r="9" fill="rgb(255,0,110)"/>
<circle cx="48" cy="264" r="12" fill="rgb(253,34,70)" opacity="0.35"/>
<circle cx="48" cy="264" r="9" fill="rgb(253,34,70)"/>
<circle cx="72" cy="264" r="12" fill="rgb(252,121,8)" opacity="0.35"/>
<circle cx="72" cy="264" r="9" fill="rgb(252,121,8)"/>
<circle cx="96" cy="264" r="12" fill="rgb(194,124,122)" opacity="0.35"/>
<circle cx="96" cy="264" r="9" fill="rgb(194,124,122)"/>
<circle cx="120" cy="264" r="12" fill="rgb(97,92,245)" opacity="0.35"/>
<circle cx="120" cy="264" r="9" fill="rgb(97,92,245)"/>
<circle cx="144" cy="264" r="12" fill="rgb(61,130,254)" opacity="0.35"/>
<circle cx="144" cy="264" r="9" fill="rgb(61,130,254)"/>
<circle cx="168" cy="264" r="12" fill="rgb(61,130,254)" opacity="0.35"/>
<circle cx="168" cy="264" r="9" fill="rgb(61,130,254)"/>
<circle cx="192" cy="264" r="12" fill="rgb(83,107,248)" opacity="0.35"/>
<circle cx="192" cy="264" r="9" fill="rgb(83,107,248)"/>
<circle cx="216" cy="264" r="12" fill="rgb(95,95,245)" opacity="0.35"/>
<circle cx="216" cy="264" r="9" fill="rgb(95,95,245)"/>
<circle cx="240" cy="264" r="12" fill="rgb(83,107,248)" opacity="0.35"/>
<circle cx="240" cy="264" r="9" fill="rgb(83,107,248)"/>
<circle cx="264" cy="264" r="12" fill="rgb(61,130,254)" opacity="0.35"/>
<circle cx="264" cy="264" r="9" fill="rgb(61,130,254)"/>
<circle cx="288" cy="264" r="12" fill="rgb(61,130,254)" opacity="0.35"/>
<circle cx="288" cy="264" r="9" fill="rgb(61,130,254)"/>
<circle cx="312" cy="264" r="12" fill="rgb(97,92,245)" opacity="0.35"/>
<circle cx="312" cy="264" r="9" fill="rgb(97,92,245)"/>
<circle cx="336" cy="264" r="12" fill="rgb(194,124,122)" opacity="0.35"/>
<circle cx="336" cy="264" r="9" fill="rgb(194,124,122)"/>
<circle cx="360" cy="264" r="12" fill="rgb(252,121,8)" opacity="0.35"/>
<circle cx="360" cy="264" r="9" fill="rgb(252,121,8)"/>
<circle cx="384" cy="264" r="12" fill="rgb(253,34,70)" opacity="0.35"/>
<circle cx="384" cy="264" r="9" fill="rgb(253,34,70)"/>
<circle cx="24" cy="288" r="12" fill="rgb(255,1,108)" opacity="0.35"/>
<circle cx="24" cy="288" r="9" fill="rgb(255,1,108)"/>
<circle cx="48" cy="288" r="12" fill="rgb(254,16,91)" opacity="0.35"/>
<circle cx="48" cy="288" r="9" fill="rgb(254,16,91)"/>
<circle cx="72" cy="288" r="12" fill="rgb(251,81,13)" opacity="0.35"/>
<circle cx="72" cy="288" r="9" fill="rgb(251,81,13)"/>
<circle cx="96" cy="288" r="12" fill="rgb(255,186,11)" opacity="0.35"/>
<circle cx="96" cy="288" r="9" fill="rgb(255,186,11)"/>
<circle cx="120" cy="288" r="12" fill="rgb(141,67,217)" opacity="0.35"/>
<circle cx="120" cy="288" r="9" fill="rgb(141,67,217)"/>
<circle cx="144" cy="288" r="12" fill="rgb(85,105,248)" opacity="0.35"/>
<circle cx="144" cy="288" r="9" fill="rgb(85,105,248)"/>
<circle cx="168" cy="288" r="12" fill="rgb(61,130,254)" opacity="0.35"/>
<circle cx="168" cy="288" r="9" fill="rgb(61,130,254)"/>
<circle cx="192" cy="288" r="12" fill="rgb(255,0,110)" opacity="0.35"/>
<circle cx="192" cy="288" r="9" fill="rgb(255,0,110)"/>
<circle cx="216" cy="288" r="12" fill="rgb(255,0,110)" opacity="0.35"/>
<circle cx="216" cy="288" r="9" fill="rgb(255,0,110)"/>
<circle cx="240" cy="288" r="12" fill="rgb(255,0,110)" opacity="0.35"/>
<circle cx="240" cy="288" r="9" fill="rgb(255,0,110)"/>
<circle cx="264" cy="288" r="12" fill="rgb(61,130,254)" opacity="0.35"/>
<circle cx="264" cy="288" r="9" fill="rgb(61,130,254)"/>
<circle cx="288" cy="288" r="12" fill="rgb(85,105,248)" opacity="0.35"/>
<circle cx="288" cy="288" r="9" fill="rgb(85,105,248)"/>
<circle cx="312" cy="288" r="12" fill="rgb(141,67,217)" opacity="0.35"/>
<circle cx="312" cy="288" r="9" fill="rgb(141,67,217)"/>
<circle cx="336" cy="288" r="12" fill="rgb(255,186,11)" opacity="0.35"/>
<circle cx="336" cy="288" r="9" fill="rgb(255,186,11)"/>
<circle cx="360" cy="288" r="12" fill="rgb(251,81,13)" opacity="0.35"/>
<circle cx="360" cy="288" r="9" fill="rgb(251,81,13)"/>
<circle cx="384" cy="288" r="12" fill="rgb(254,16,91)" opacity="0.35"/>
<circle cx="384" cy="288" r="9" fill="rgb(254,16,91)"/>
<circle cx="24" cy="312" r="12" fill="rgb(254,12,95)" opacity="0.35"/>
<circle cx="24" cy="312" r="9" fill="rgb(254,12,95)"/>
<circle cx="48" cy="312" r="12" fill="rgb(255,3,107)" opacity="0.35"/>
<circle cx="48" cy="312" r="9" fill="rgb(255,3,107)"/>
<circle cx="72" cy="312" r="12" fill="rgb(253,39,63)" opacity="0.35"/>
<circle cx="72" cy="312" r="9" fill="rgb(253,39,63)"/>
<circle cx="96" cy="312" r="12" fill="rgb(252,111,8)" opacity="0.35"/>
<circle cx="96" cy="312" r="9" fill="rgb(252,111,8)"/>
<circle cx="120" cy="312" r="12" fill="rgb(237,170,45)" opacity="0.35"/>
<circle cx="120" cy="312" r="9" fill="rgb(237,170,45)"/>
<circle cx="144" cy="312" r="12" fill="rgb(141,67,217)" opacity="0.35"/>
<circle cx="144" cy="312" r="9" fill="rgb(141,67,217)"/>
<circle cx="168" cy="312" r="12" fill="rgb(97,92,245)" opacity="0.35"/>
<circle cx="168" cy="312" r="9" fill="rgb(97,92,245)"/>
<circle cx="192" cy="312" r="12" fill="rgb(80,111,249)" opacity="0.35"/>
<circle cx="192" cy="312" r="9" fill="rgb(80,111,249)"/>
<circle cx="216" cy="312" r="12" fill="rgb(74,117,251)" opacity="0.35"/>
<circle cx="216" cy="312" r="9" fill="rgb(74,117,251)"/>
<circle cx="240" cy="312" r="12" fill="rgb(80,111,249)" opacity="0.35"/>
<circle cx="240" cy="312" r="9" fill="rgb(80,111,249)"/>
<circle cx="264" cy="312" r="12" fill="rgb(97,92,245)" opacity="0.35"/>
<circle cx="264" cy="312" r="9" fill="rgb(97,92,245)"/>
<circle cx="288" cy="312" r="12" fill="rgb(141,67,217)" opacity="0.35"/>
<circle cx="288" cy="312" r="9" fill="rgb(141,67,217)"/>
<circle cx="312" cy="312" r="12" fill="rgb(237,170,45)" opacity="0.35"/>
<circle cx="312" cy="312" r="9" fill="rgb(237,170,45)"/>
<circle cx="336" cy="312" r="12" fill="rgb(252,111,8)" opacity="0.35"/>
<circle cx="336" cy="312" r="9" fill="rgb(252,111,8)"/>
<circle cx="360" cy="312" r="12" fill="rgb(253,39,63)" opacity="0.35"/>
<circle cx="360" cy="312" r="9" fill="rgb(253,39,63)"/>
<circle cx="384" cy="312" r="12" fill="rgb(255,3,107)" opacity="0.35"/>
<circle cx="384" cy="312" r="9" fill="rgb(255,3,107)"/>
<circle cx="24" cy="336" r="12" fill="rgb(253,36,66)" opacity="0.35"/>
<circle cx="24" cy="336" r="9" fill="rgb(253,36,66)"/>
<circle cx="48" cy="336" r="12" fill="rgb(255,3,107)" opacity="0.35"/>
<circle cx="48" cy="336" r="9" fill="rgb(255,3,107)"/>
<circle cx="72" cy="336" r="12" fill="rgb(255,8,100)" opacity="0.35"/>
<circle cx="72" cy="336" r="9" fill="rgb(255,8,100)"/>
<circle cx="96" cy="336" r="12" fill="rgb(253,50,50)" opacity="0.35"/>
<circle cx="96" cy="336" r="9" fill="rgb(253,50,50)"/>
<circle cx="120" cy="336" r="12" fill="rgb(252,111,8)" opacity="0.35"/>
<circle cx="120" cy="336" r="9" fill="rgb(252,111,8)"/>
<circle cx="144" cy="336" r="12" fill="rgb(255,186,11)" opacity="0.35"/>
<circle cx="144" cy="336" r="9" fill="rgb(255,186,11)"/>
<circle cx="168" cy="336" r="12" fill="rgb(194,124,122)" opacity="0.35"/>
<circle cx="168" cy="336" r="9" fill="rgb(194,124,122)"/>
<circle cx="192" cy="336" r="12" fill="rgb(153,80,196)" opacity="0.35"/>
<circle cx="192" cy="336" r="9" fill="rgb(153,80,196)"/>
<circle cx="216" cy="336" r="12" fill="rgb(141,67,217)" opacity="0.35"/>
<circle cx="216" cy="336" r="9" fill="rgb(141,67,217)"/>
<circle cx="240" cy="336" r="12" fill="rgb(153,80,196)" opacity="0.35"/>
<circle cx="240" cy="336" r="9" fill="rgb(153,80,196)"/>
<circle cx="264" cy="336" r="12" fill="rgb(194,124,122)" opacity="0.35"/>
<circle cx="264" cy="336" r="9" fill="rgb(194,124,122)"/>
<circle cx="288" cy="336" r="12" fill="rgb(255,186,11)" opacity="0.35"/>
<circle cx="288" cy="336" r="9" fill="rgb(255,186,11)"/>
<circle cx="312" cy="336" r="12" fill="rgb(252,111,8)" opacity="0.35"/>
<circle cx="312" cy="336" r="9" fill="rgb(252,111,8)"/>
<circle cx="336" cy="336" r="12" fill="rgb(253,50,50)" opacity="0.35"/>
<circle cx="336" cy="336" r="9" fill="rgb(253,50,50)"/>
<circle cx="360" cy="336" r="12" fill="rgb(255,8,100)" opacity="0.35"/>
<circle cx="360" cy="336" r="9" fill="rgb(255,8,100)"/>
<circle cx="384" cy="336" r="12" fill="rgb(255,3,107)" opacity="0.35"/>
<circle cx="384" cy="336" r="9" fill="rgb(255,3,107)"/>
<circle cx="24" cy="360" r="12" fill="rgb(251,84,10)" opacity="0.35"/>
<circle cx="24" cy="360" r="9" fill="rgb(251,84,10)"/>
<circle cx="48" cy="360" r="12" fill="rgb(254,24,81)" opacity="0.35"/>
<circle cx="48" cy="360" r="9" fill="rgb(254,24,81)"/>
<circle cx="72" cy="360" r="12" fill="rgb(255,1,108)" opacity="0.35"/>
<circle cx="72" cy="360" r="9" fill="rgb(255,1,108)"/>
<circle cx="96" cy="360" r="12" fill="rgb(255,8,100)" opacity="0.35"/>
<circle cx="96" cy="360" r="9" fill="rgb(255,8,100)"/>
<circle cx="120" cy="360" r="12" fill="rgb(253,39,63)" opacity="0.35"/>
<circle cx="120" cy="360" r="9" fill="rgb(253,39,63)"/>
<circle cx="144" cy="360" r="12" fill="rgb(251,81,13)" opacity="0.35"/>
<circle cx="144" cy="360" r="9" fill="rgb(251,81,13)"/>
<circle cx="168" cy="360" r="12" fill="rgb(252,121,8)" opacity="0.35"/>
<circle cx="168" cy="360" r="9" fill="rgb(252,121,8)"/>
<circle cx="192" cy="360" r="12" fill="rgb(253,150,9)" opacity="0.35"/>
<circle cx="192" cy="360" r="9" fill="rgb(253,150,9)"/>
<circle cx="216" cy="360" r="12" fill="rgb(254,160,10)" opacity="0.35"/>
<circle cx="216" cy="360" r="9" fill="rgb(254,160,10)"/>
<circle cx="240" cy="360" r="12" fill="rgb(253,150,9)" opacity="0.35"/>
<circle cx="240" cy="360" r="9" fill="rgb(253,150,9)"/>
<circle cx="264" cy="360" r="12" fill="rgb(252,121,8)" opacity="0.35"/>
<circle cx="264" cy="360" r="9" fill="rgb(252,121,8)"/>
<circle cx="288" cy="360" r="12" fill="rgb(251,81,13)" opacity="0.35"/>
<circle cx="288" cy="360" r="9" fill="rgb(251,81,13)"/>
<circle cx="312" cy="360" r="12" fill="rgb(253,39,63)" opacity="0.35"/>
<circle cx="312" cy="360" r="9" fill="rgb(253,39,63)"/>
<circle cx="336" cy="360" r="12" fill="rgb(255,8,100)" opacity="0.35"/>
<circle cx="336" cy="360" r="9" fill="rgb(255,8,100)"/>
<circle cx="360" cy="360" r="12" fill="rgb(255,1,108)" opacity="0.35"/>
<circle cx="360" cy="360" r="9" fill="rgb(255,1,108)"/>
<circle cx="384" cy="360" r="12" fill="rgb(254,24,81)" opacity="0.35"/>
<circle cx="384" cy="360" r="9" fill="rgb(254,24,81)"/>
<circle cx="24" cy="384" r="12" fill="rgb(254,155,10)" opacity="0.35"/>
<circle cx="24" cy="384" r="9" fill="rgb(254,155,10)"/>
<circle cx="48" cy="384" r="12" fill="rgb(252,73,23)" opacity="0.35"/>
<circle cx="48" cy="384" r="9" fill="rgb(252,73,23)"/>
<circle cx="72" cy="384" r="12" fill="rgb(254,24,81)" opacity="0.35"/>
<circle cx="72" cy="384" r="9" fill="rgb(254,24,81)"/>
<circle cx="96" cy="384" r="12" fill="rgb(255,3,107)" opacity="0.35"/>
<circle cx="96" cy="384" r="9" fill="rgb(255,3,107)"/>
<circle cx="120" cy="384" r="12" fill="rgb(255,3,107)" opacity="0.35"/>
<circle cx="120" cy="384" r="9" fill="rgb(255,3,107)"/>
<circle cx="144" cy="384" r="12" fill="rgb(254,16,91)" opacity="0.35"/>
<circle cx="144" cy="384" r="9" fill="rgb(254,16,91)"/>
<circle cx="168" cy="384" r="12" fill="rgb(253,34,70)" opacity="0.35"/>
<circle cx="168" cy="384" r="9" fill="rgb(253,34,70)"/>
<circle cx="192" cy="384" r="12" fill="rgb(253,50,50)" opacity="0.35"/>
<circle cx="192" cy="384" r="9" fill="rgb(253,50,50)"/>
<circle cx="216" cy="384" r="12" fill="rgb(252,54,45)" opacity="0.35"/>
<circle cx="216" cy="384" r="9" fill="rgb(252,54,45)"/>
<circle cx="240" cy="384" r="12" fill="rgb(253,50,50)" opacity="0.35"/>
<circle cx="240" cy="384" r="9" fill="rgb(253,50,50)"/>
<circle cx="264" cy="384" r="12" fill="rgb(253,34,70)" opacity="0.35"/>
<circle cx="264" cy="384" r="9" fill="rgb(253,34,70)"/>
<circle cx="288" cy="384" r="12" fill="rgb(254,16,91)" opacity="0.35"/>
<circle cx="288" cy="384" r="9" fill="rgb(254,16,91)"/>
<circle cx="312" cy="384" r="12" fill="rgb(255,3,107)" opacity="0.35"/>
<circle cx="312" cy="384" r="9" fill="rgb(255,3,107)"/>
<circle cx="336" cy="384" r="12" fill="rgb(255,3,107)" opacity="0.35"/>
<circle cx="336" cy="384" r="9" fill="rgb(255,3,107)"/>
<circle cx="360" cy="384" r="12" fill="rgb(254,24,81)" opacity="0.35"/>
<circle cx="360" cy="384" r="9" fill="rgb(254,24,81)"/>
<circle cx="384" cy="384" r="12" fill="rgb(252,73,23)" opacity="0.35"/>
<circle cx="384" cy="384" r="9" fill="rgb(252,73,23)"/>
</svg>
