<svg xmlns="http://www.w3.org/2000/svg" viewBox="0 0 408 408" width="408" height="408" role="img" aria-label="LED preview of the Fire example graph">
<rect width="408" height="408" rx="10" fill="#05070a"/>
<circle cx="24" cy="24" r="12" fill="rgb(20,0,0)" opacity="0.35"/>
<circle cx="24" cy="24" r="9" fill="rgb(20,0,0)"/>
<circle cx="48" cy="24" r="12" fill="rgb(20,0,0)" opacity="0.35"/>
<circle cx="48" cy="24" r="9" fill="rgb(20,0,0)"/>
<circle cx="72" cy="24" r="12" fill="rgb(20,0,0)" opacity="0.35"/>
<circle cx="72" cy="24" r="9" fill="rgb(20,0,0)"/>
<circle cx="96" cy="24" r="12" fill="rgb(20,0,0)" opacity="0.35"/>
<circle cx="96" cy="24" r="9" fill="rgb(20,0,0)"/>
<circle cx="120" cy="24" r="12" fill="rgb(20,0,0)" opacity="0.35"/>
<circle cx="120" cy="24" r="9" fill="rgb(20,0,0)"/>
<circle cx="144" cy="24" r="12" fill="rgb(20,0,0)" opacity="0.35"/>
<circle cx="144" cy="24" r="9" fill="rgb(20,0,0)"/>
<circle cx="168" cy="24" r="12" fill="rgb(20,0,0)" opacity="0.35"/>
<circle cx="168" cy="24" r="9" fill="rgb(20,0,0)"/>
<circle cx="192" cy="24" r="12" fill="rgb(20,0,0)" opacity="0.35"/>
<circle cx="192" cy="24" r="9" fill="rgb(20,0,0)"/>
<circle cx="216" cy="24" r="12" fill="rgb(20,0,0)" opacity="0.35"/>
<circle cx="216" cy="24" r="9" fill="rgb(20,0,0)"/>
<circle cx="240" cy="24" r="12" fill="rgb(20,0,0)" opacity="0.35"/>
<circle cx="240" cy="24" r="9" fill="rgb(20,0,0)"/>
<circle cx="264" cy="24" r="12" fill="rgb(20,0,0)" opacity="0.35"/>
<circle cx="264" cy="24" r="9" fill="rgb(20,0,0)"/>
<circle cx="288" cy="24" r="12" fill="rgb(20,0,0)" opacity="0.35"/>
<circle cx="288" cy="24" r="9" fill="rgb(20,0,0)"/>
<circle cx="312" cy="24" r="12" fill="rgb(20,0,0)" opacity="0.35"/>
<circle cx="312" cy="24" r="9" fill="rgb(20,0,0)"/>
<circle cx="336" cy="24" r="12" fill="rgb(20,0,0)" opacity="0.35"/>
<circle cx="336" cy="24" r="9" fill="rgb(20,0,0)"/>
<circle cx="360" cy="24" r="12" fill="rgb(20,0,0)" opacity="0.35"/>
<circle cx="360" cy="24" r="9" fill="rgb(20,0,0)"/>
<circle cx="384" cy="24" r="12" fill="rgb(20,0,0)" opacity="0.35"/>
<circle cx="384" cy="24" r="9" fill="rgb(20,0,0)"/>
<circle cx="24" cy="48" r="12" fill="rgb(20,0,0)" opacity="0.35"/>
<circle cx="24" cy="48" r="9" fill="rgb(20,0,0)"/>
<circle cx="48" cy="48" r="12" fill="rgb(20,0,0)" opacity="0.35"/>
<circle cx="48" cy="48" r="9" fill="rgb(20,0,0)"/>
<circle cx="72" cy="48" r="12" fill="rgb(20,0,0)" opacity="0.35"/>
<circle cx="72" cy="48" r="9" fill="rgb(20,0,0)"/>
<circle cx="96" cy="48" r="12" fill="rgb(20,0,0)" opacity="0.35"/>
<circle cx="96" cy="48" r="9" fill="rgb(20,0,0)"/>
<circle cx="120" cy="48" r="12" fill="rgb(20,0,0)" opacity="0.35"/>
<circle cx="120" cy="48" r="9" fill="rgb(20,0,0)"/>
<circle cx="144" cy="48" r="12" fill="rgb(20,0,0)" opacity="0.35"/>
<circle cx="144" cy="48" r="9" fill="rgb(20,0,0)"/>
<circle cx="168" cy="48" r="12" fill="rgb(20,0,0)" opacity="0.35"/>
<circle cx="168" cy="48" r="9" fill="rgb(20,0,0)"/>
<circle cx="192" cy="48" r="12" fill="rgb(20,0,0)" opacity="0.35"/>
<circle cx="192" cy="48" r="9" fill="rgb(20,0,0)"/>
<circle cx="216" cy="48" r="12" fill="rgb(20,0,0)" opacity="0.35"/>
<circle cx="216" cy="48" r="9" fill="rgb(20,0,0)"/>
<circle cx="240" cy="48" r="12" fill="rgb(20,0,0)" opacity="0.35"/>
<circle cx="240" cy="48" r="9" fill="rgb(20,0,0)"/>
<circle cx="264" cy="48" r="12" fill="rgb(20,0,0)" opacity="0.35"/>
<circle cx="264" cy="48" r="9" fill="rgb(20,0,0)"/>
<circle cx="288" cy="48" r="12" fill="rgb(20,0,0)" opacity="0.35"/>
<circle cx="288" cy="48" r="9" fill="rgb(20,0,0)"/>
<circle cx="312" cy="48" r="12" fill="rgb(20,0,0)" opacity="0.35"/>
<circle cx="312" cy="48" r="9" fill="rgb(20,0,0)"/>
<circle cx="336" cy="48" r="12" fill="rgb(20,0,0)" opacity="0.35"/>
<circle cx="336" cy="48" r="9" fill="rgb(20,0,0)"/>
<circle cx="360" cy="48" r="12" fill="rgb(20,0,0)" opacity="0.35"/>
<circle cx="360" cy="48" r="9" fill="rgb(20,0,0)"/>
<circle cx="384" cy="48" r="12" fill="rgb(20,0,0)" opacity="0.35"/>
<circle cx="384" cy="48" r="9" fill="rgb(20,0,0)"/>
<circle cx="24" cy="72" r="12" fill="rgb(20,0,0)" opacity="0.35"/>
<circle cx="24" cy="72" r="9" fill="rgb(20,0,0)"/>
<circle cx="48" cy="72" r="12" fill="rgb(20,0,0)" opacity="0.35"/>
<circle cx="48" cy="72" r="9" fill="rgb(20,0,0)"/>
<circle cx="72" cy="72" r="12" fill="rgb(20,0,0)" opacity="0.35"/>
<circle cx="72" cy="72" r="9" fill="rgb(20,0,0)"/>
<circle cx="96" cy="72" r="12" fill="rgb(20,0,0)" opacity="0.35"/>
<circle cx="96" cy="72" r="9" fill="rgb(20,0,0)"/>
<circle cx="120" cy="72" r="12" fill="rgb(20,0,0)" opacity="0.35"/>
<circle cx="120" cy="72" r="9" fill="rgb(20,0,0)"/>
<circle cx="144" cy="72" r="12" fill="rgb(20,0,0)" opacity="0.35"/>
<circle cx="144" cy="72" r="9" fill="rgb(20,0,0)"/>
<circle cx="168" cy="72" r="12" fill="rgb(20,0,0)" opacity="0.35"/>
<circle cx="168" cy="72" r="9" fill="rgb(20,0,0)"/>
<circle cx="192" cy="72" r="12" fill="rgb(20,0,0)" opacity="0.35"/>
<circle cx="192" cy="72" r="9" fill="rgb(20,0,0)"/>
<circle cx="216" cy="72" r="12" fill="rgb(20,0,0)" opacity="0.35"/>
<circle cx="216" cy="72" r="9" fill="rgb(20,0,0)"/>
<circle cx="240" cy="72" r="12" fill="rgb(20,0,0)" opacity="0.35"/>
<circle cx="240" cy="72" r="9" fill="rgb(20,0,0)"/>
<circle cx="264" cy="72" r="12" fill="rgb(20,0,0)" opacity="0.35"/>
<circle cx="264" cy="72" r="9" fill="rgb(20,0,0)"/>
<circle cx="288" cy="72" r="12" fill="rgb(20,0,0)" opacity="0.35"/>
<circle cx="288" cy="72" r="9" fill="rgb(20,0,0)"/>
<circle cx="312" cy="72" r="12" fill="rgb(20,0,0)" opacity="0.35"/>
<circle cx="312" cy="72" r="9" fill="rgb(20,0,0)"/>
<circle cx="336" cy="72" r="12" fill="rgb(20,0,0)" opacity="0.35"/>
<circle cx="336" cy="72" r="9" fill="rgb(20,0,0)"/>
<circle cx="360" cy="72" r="12" fill="rgb(20,0,0)" opacity="0.35"/>
<circle cx="360" cy="72" r="9" fill="rgb(20,0,0)"/>
<circle cx="384" cy="72" r="12" fill="rgb(20,0,0)" opacity="0.35"/>
<circle cx="384" cy="72" r="9" fill="rgb(20,0,0)"/>
<circle cx="24" cy="96" r="12" fill="rgb(20,0,0)" opacity="0.35"/>
<circle cx="24" cy="96" r="9" fill="rgb(20,0,0)"/>
<circle cx="48" cy="96" r="12" fill="rgb(20,0,0)" opacity="0.35"/>
<circle cx="48" cy="96" r="9" fill="rgb(20,0,0)"/>
<circle cx="72" cy="96" r="12" fill="rgb(20,0,0)" opacity="0.35"/>
<circle cx="72" cy="96" r="9" fill="rgb(20,0,0)"/>
<circle cx="96" cy="96" r="12" fill="rgb(20,0,0)" opacity="0.35"/>
<circle cx="96" cy="96" r="9" fill="rgb(20,0,0)"/>
<circle cx="120" cy="96" r="12" fill="rgb(20,0,0)" opacity="0.35"/>
<circle cx="120" cy="96" r="9" fill="rgb(20,0,0)"/>
<circle cx="144" cy="96" r="12" fill="rgb(20,0,0)" opacity="0.35"/>
<circle cx="144" cy="96" r="9" fill="rgb(20,0,0)"/>
<circle cx="168" cy="96" r="12" fill="rgb(20,0,0)" opacity="0.35"/>
<circle cx="168" cy="96" r="9" fill="rgb(20,0,0)"/>
<circle cx="192" cy="96" r="12" fill="rgb(20,0,0)" opacity="0.35"/>
<circle cx="192" cy="96" r="9" fill="rgb(20,0,0)"/>
<circle cx="216" cy="96" r="12" fill="rgb(20,0,0)" opacity="0.35"/>
<circle cx="216" cy="96" r="9" fill="rgb(20,0,0)"/>
<circle cx="240" cy="96" r="12" fill="rgb(20,0,0)" opacity="0.35"/>
<circle cx="240" cy="96" r="9" fill="rgb(20,0,0)"/>
<circle cx="264" cy="96" r="12" fill="rgb(20,0,0)" opacity="0.35"/>
<circle cx="264" cy="96" r="9" fill="rgb(20,0,0)"/>
<circle cx="288" cy="96" r="12" fill="rgb(20,0,0)" opacity="0.35"/>
<circle cx="288" cy="96" r="9" fill="rgb(20,0,0)"/>
<circle cx="312" cy="96" r="12" fill="rgb(20,0,0)" opacity="0.35"/>
<circle cx="312" cy="96" r="9" fill="rgb(20,0,0)"/>
<circle cx="336" cy="96" r="12" fill="rgb(20,0,0)" opacity="0.35"/>
<circle cx="336" cy="96" r="9" fill="rgb(20,0,0)"/>
<circle cx="360" cy="96" r="12" fill="rgb(20,0,0)" opacity="0.35"/>
<circle cx="360" cy="96" r="9" fill="rgb(20,0,0)"/>
<circle cx="384" cy="96" r="12" fill="rgb(20,0,0)" opacity="0.35"/>
<circle cx="384" cy="96" r="9" fill="rgb(20,0,0)"/>
<circle cx="24" cy="120" r="12" fill="rgb(23,0,0)" opacity="0.35"/>
<circle cx="24" cy="120" r="9" fill="rgb(23,0,0)"/>
<circle cx="48" cy="120" r="12" fill="rgb(22,0,0)" opacity="0.35"/>
<circle cx="48" cy="120" r="9" fill="rgb(22,0,0)"/>
<circle cx="72" cy="120" r="12" fill="rgb(21,0,0)" opacity="0.35"/>
<circle cx="72" cy="120" r="9" fill="rgb(21,0,0)"/>
<circle cx="96" cy="120" r="12" fill="rgb(20,0,0)" opacity="0.35"/>
<circle cx="96" cy="120" r="9" fill="rgb(20,0,0)"/>
<circle cx="120" cy="120" r="12" fill="rgb(20,0,0)" opacity="0.35"/>
<circle cx="120" cy="120" r="9" fill="rgb(20,0,0)"/>
<circle cx="144" cy="120" r="12" fill="rgb(20,0,0)" opacity="0.35"/>
<circle cx="144" cy="120" r="9" fill="rgb(20,0,0)"/>
<circle cx="168" cy="120" r="12" fill="rgb(20,0,0)" opacity="0.35"/>
<circle cx="168" cy="120" r="9" fill="rgb(20,0,0)"/>
<circle cx="192" cy="120" r="12" fill="rgb(20,0,0)" opacity="0.35"/>
<circle cx="192" cy="120" r="9" fill="rgb(20,0,0)"/>
<circle cx="216" cy="120" r="12" fill="rgb(21,0,0)" opacity="0.35"/>
<circle cx="216" cy="120" r="9" fill="rgb(21,0,0)"/>
<circle cx="240" cy="120" r="12" fill="rgb(21,0,0)" opacity="0.35"/>
<circle cx="240" cy="120" r="9" fill="rgb(21,0,0)"/>
<circle cx="264" cy="120" r="12" fill="rgb(21,0,0)" opacity="0.35"/>
<circle cx="264" cy="120" r="9" fill="rgb(21,0,0)"/>
<circle cx="288" cy="120" r="12" fill="rgb(20,0,0)" opacity="0.35"/>
<circle cx="288" cy="120" r="9" fill="rgb(20,0,0)"/>
<circle cx="312" cy="120" r="12" fill="rgb(20,0,0)" opacity="0.35"/>
<circle cx="312" cy="120" r="9" fill="rgb(20,0,0)"/>
<circle cx="336" cy="120" r="12" fill="rgb(20,0,0)" opacity="0.35"/>
<circle cx="336" cy="120" r="9" fill="rgb(20,0,0)"/>
<circle cx="360" cy="120" r="12" fill="rgb(20,0,0)" opacity="0.35"/>
<circle cx="360" cy="120" r="9" fill="rgb(20,0,0)"/>
<circle cx="384" cy="120" r="12" fill="rgb(20,0,0)" opacity="0.35"/>
<circle cx="384" cy="120" r="9" fill="rgb(20,0,0)"/>
<circle cx="24" cy="144" r="12" fill="rgb(34,0,0)" opacity="0.35"/>
<circle cx="24" cy="144" r="9" fill="rgb(34,0,0)"/>
<circle cx="48" cy="144" r="12" fill="rgb(35,0,0)" opacity="0.35"/>
<circle cx="48" cy="144" r="9" fill="rgb(35,0,0)"/>
<circle cx="72" cy="144" r="12" fill="rgb(35,0,0)" opacity="0.35"/>
<circle cx="72" cy="144" r="9" fill="rgb(35,0,0)"/>
<circle cx="96" cy="144" r="12" fill="rgb(38,0,0)" opacity="0.35"/>
<circle cx="96" cy="144" r="9" fill="rgb(38,0,0)"/>
<circle cx="120" cy="144" r="12" fill="rgb(35,0,0)" opacity="0.35"/>
<circle cx="120" cy="144" r="9" fill="rgb(35,0,0)"/>
<circle cx="144" cy="144" r="12" fill="rgb(34,0,0)" opacity="0.35"/>
<circle cx="144" cy="144" r="9" fill="rgb(34,0,0)"/>
<circle cx="168" cy="144" r="12" fill="rgb(31,0,0)" opacity="0.35"/>
<circle cx="168" cy="144" r="9" fill="rgb(31,0,0)"/>
<circle cx="192" cy="144" r="12" fill="rgb(32,0,0)" opacity="0.35"/>
<circle cx="192" cy="144" r="9" fill="rgb(32,0,0)"/>
<circle cx="216" cy="144" r="12" fill="rgb(33,0,0)" opacity="0.35"/>
<circle cx="216" cy="144" r="9" fill="rgb(33,0,0)"/>
<circle cx="240" cy="144" r="12" fill="rgb(35,0,0)" opacity="0.35"/>
<circle cx="240" cy="144" r="9" fill="rgb(35,0,0)"/>
<circle cx="264" cy="144" r="12" fill="rgb(35,0,0)" opacity="0.35"/>
<circle cx="264" cy="144" r="9" fill="rgb(35,0,0)"/>
<circle cx="288" cy="144" r="12" fill="rgb(37,0,0)" opacity="0.35"/>
<circle cx="288" cy="144" r="9" fill="rgb(37,0,0)"/>
<circle cx="312" cy="144" r="12" fill="rgb(34,0,0)" opacity="0.35"/>
<circle cx="312" cy="144" r="9" fill="rgb(34,0,0)"/>
<circle cx="336" cy="144" r="12" fill="rgb(30,0,0)" opacity="0.35"/>
<circle cx="336" cy="144" r="9" fill="rgb(30,0,0)"/>
<circle cx="360" cy="144" r="12" fill="rgb(28,0,0)" opacity="0.35"/>
<circle cx="360" cy="144" r="9" fill="rgb(28,0,0)"/>
<circle cx="384" cy="144" r="12" fill="rgb(28,0,0)" opacity="0.35"/>
<circle cx="384" cy="144" r="9" fill="rgb(28,0,0)"/>
<circle cx="24" cy="168" r="12" fill="rgb(55,0,0)" opacity="0.35"/>
<circle cx="24" cy="168" r="9" fill="rgb(55,0,0)"/>
<circle cx="48" cy="168" r="12" fill="rgb(53,0,0)" opacity="0.35"/>
<circle cx="48" cy="168" r="9" fill="rgb(53,0,0)"/>
<circle cx="72" cy="168" r="12" fill="rgb(56,0,0)" opacity="0.35"/>
<circle cx="72" cy="168" r="9" fill="rgb(56,0,0)"/>
<circle cx="96" cy="168" r="12" fill="rgb(56,0,0)" opacity="0.35"/>
<circle cx="96" cy="168" r="9" fill="rgb(56,0,0)"/>
<circle cx="120" cy="168" r="12" fill="rgb(59,0,0)" opacity="0.35"/>
<circle cx="120" cy="168" r="9" fill="rgb(59,0,0)"/>
<circle cx="144" cy="168" r="12" fill="rgb(54,0,0)" opacity="0.35"/>
<circle cx="144" cy="168" r="9" fill="rgb(54,0,0)"/>
<circle cx="168" cy="168" r="12" fill="rgb(53,0,0)" opacity="0.35"/>
<circle cx="168" cy="168" r="9" fill="rgb(53,0,0)"/>
<circle cx="192" cy="168" r="12" fill="rgb(48,0,0)" opacity="0.35"/>
<circle cx="192" cy="168" r="9" fill="rgb(48,0,0)"/>
<circle cx="216" cy="168" r="12" fill="rgb(48,0,0)" opacity="0.35"/>
<circle cx="216" cy="168" r="9" fill="rgb(48,0,0)"/>
<circle cx="240" cy="168" r="12" fill="rgb(47,0,0)" opacity="0.35"/>
<circle cx="240" cy="168" r="9" fill="rgb(47,0,0)"/>
<circle cx="264" cy="168" r="12" fill="rgb(51,0,0)" opacity="0.35"/>
<circle cx="264" cy="168" r="9" fill="rgb(51,0,0)"/>
<circle cx="288" cy="168" r="12" fill="rgb(53,0,0)" opacity="0.35"/>
<circle cx="288" cy="168" r="9" fill="rgb(53,0,0)"/>
<circle cx="312" cy="168" r="12" fill="rgb(56,0,0)" opacity="0.35"/>
<circle cx="312" cy="168" r="9" fill="rgb(56,0,0)"/>
<circle cx="336" cy="168" r="12" fill="rgb(53,0,0)" opacity="0.35"/>
<circle cx="336" cy="168" r="9" fill="rgb(53,0,0)"/>
<circle cx="360" cy="168" r="12" fill="rgb(48,0,0)" opacity="0.35"/>
<circle cx="360" cy="168" r="9" fill="rgb(48,0,0)"/>
<circle cx="384" cy="168" r="12" fill="rgb(48,0,0)" opacity="0.35"/>
<circle cx="384" cy="168" r="9" fill="rgb(48,0,0)"/>
<circle cx="24" cy="192" r="12" fill="rgb(62,0,0)" opacity="0.35"/>
<circle cx="24" cy="192" r="9" fill="rgb(62,0,0)"/>
<circle cx="48" cy="192" r="12" fill="rgb(66,0,0)" opacity="0.35"/>
<circle cx="48" cy="192" r="9" fill="rgb(66,0,0)"/>
<circle cx="72" cy="192" r="12" fill="rgb(68,0,0)" opacity="0.35"/>
<circle cx="72" cy="192" r="9" fill="rgb(68,0,0)"/>
<circle cx="96" cy="192" r="12" fill="rgb(73,0,0)" opacity="0.35"/>
<circle cx="96" cy="192" r="9" fill="rgb(73,0,0)"/>
<circle cx="120" cy="192" r="12" fill="rgb(74,0,0)" opacity="0.35"/>
<circle cx="120" cy="192" r="9" fill="rgb(74,0,0)"/>
<circle cx="144" cy="192" r="12" fill="rgb(73,0,0)" opacity="0.35"/>
<circle cx="144" cy="192" r="9" fill="rgb(73,0,0)"/>
<circle cx="168" cy="192" r="12" fill="rgb(70,0,0)" opacity="0.35"/>
<circle cx="168" cy="192" r="9" fill="rgb(70,0,0)"/>
<circle cx="192" cy="192" r="12" fill="rgb(66,0,0)" opacity="0.35"/>
<circle cx="192" cy="192" r="9" fill="rgb(66,0,0)"/>
<circle cx="216" cy="192" r="12" fill="rgb(63,0,0)" opacity="0.35"/>
<circle cx="216" cy="192" r="9" fill="rgb(63,0,0)"/>
<circle cx="240" cy="192" r="12" fill="rgb(64,0,0)" opacity="0.35"/>
<circle cx="240" cy="192" r="9" fill="rgb(64,0,0)"/>
<circle cx="264" cy="192" r="12" fill="rgb(65,0,0)" opacity="0.35"/>
<circle cx="264" cy="192" r="9" fill="rgb(65,0,0)"/>
<circle cx="288" cy="192" r="12" fill="rgb(70,0,0)" opacity="0.35"/>
<circle cx="288" cy="192" r="9" fill="rgb(70,0,0)"/>
<circle cx="312" cy="192" r="12" fill="rgb(74,0,0)" opacity="0.35"/>
<circle cx="312" cy="192" r="9" fill="rgb(74,0,0)"/>
<circle cx="336" cy="192" r="12" fill="rgb(71,0,0)" opacity="0.35"/>
<circle cx="336" cy="192" r="9" fill="rgb(71,0,0)"/>
<circle cx="360" cy="192" r="12" fill="rgb(70,0,0)" opacity="0.35"/>
<circle cx="360" cy="192" r="9" fill="rgb(70,0,0)"/>
<circle cx="384" cy="192" r="12" fill="rgb(66,0,0)" opacity="0.35"/>
<circle cx="384" cy="192" r="9" fill="rgb(66,0,0)"/>
<circle cx="24" cy="216" r="12" fill="rgb(73,0,0)" opacity="0.35"/>
<circle cx="24" cy="216" r="9" fill="rgb(73,0,0)"/>
<circle cx="48" cy="216" r="12" fill="rgb(76,0,0)" opacity="0.35"/>
<circle cx="48" cy="216" r="9" fill="rgb(76,0,0)"/>
<circle cx="72" cy="216" r="12" fill="rgb(78,0,0)" opacity="0.35"/>
<circle cx="72" cy="216" r="9" fill="rgb(78,0,0)"/>
<circle cx="96" cy="216" r="12" fill="rgb(80,0,0)" opacity="0.35"/>
<circle cx="96" cy="216" r="9" fill="rgb(80,0,0)"/>
<circle cx="120" cy="216" r="12" fill="rgb(84,0,0)" opacity="0.35"/>
<circle cx="120" cy="216" r="9" fill="rgb(84,0,0)"/>
<circle cx="144" cy="216" r="12" fill="rgb(89,0,0)" opacity="0.35"/>
<circle cx="144" cy="216" r="9" fill="rgb(89,0,0)"/>
<circle cx="168" cy="216" r="12" fill="rgb(88,0,0)" opacity="0.35"/>
<circle cx="168" cy="216" r="9" fill="rgb(88,0,0)"/>
<circle cx="192" cy="216" r="12" fill="rgb(87,0,0)" opacity="0.35"/>
<circle cx="192" cy="216" r="9" fill="rgb(87,0,0)"/>
<circle cx="216" cy="216" r="12" fill="rgb(84,0,0)" opacity="0.35"/>
<circle cx="216" cy="216" r="9" fill="rgb(84,0,0)"/>
<circle cx="240" cy="216" r="12" fill="rgb(82,0,0)" opacity="0.35"/>
<circle cx="240" cy="216" r="9" fill="rgb(82,0,0)"/>
<circle cx="264" cy="216" r="12" fill="rgb(82,0,0)" opacity="0.35"/>
<circle cx="264" cy="216" r="9" fill="rgb(82,0,0)"/>
<circle cx="288" cy="216" r="12" fill="rgb(84,0,0)" opacity="0.35"/>
<circle cx="288" cy="216" r="9" fill="rgb(84,0,0)"/>
<circle cx="312" cy="216" r="12" fill="rgb(86,0,0)" opacity="0.35"/>
<circle cx="312" cy="216" r="9" fill="rgb(86,0,0)"/>
<circle cx="336" cy="216" r="12" fill="rgb(87,0,0)" opacity="0.35"/>
<circle cx="336" cy="216" r="9" fill="rgb(87,0,0)"/>
<circle cx="360" cy="216" r="12" fill="rgb(86,0,0)" opacity="0.35"/>
<circle cx="360" cy="216" r="9" fill="rgb(86,0,0)"/>
<circle cx="384" cy="216" r="12" fill="rgb(83,0,0)" opacity="0.35"/>
<circle cx="384" cy="216" r="9" fill="rgb(83,0,0)"/>
<circle cx="24" cy="240" r="12" fill="rgb(87,0,0)" opacity="0.35"/>
<circle cx="24" cy="240" r="9" fill="rgb(87,0,0)"/>
<circle cx="48" cy="240" r="12" fill="rgb(86,0,0)" opacity="0.35"/>
<circle cx="48" cy="240" r="9" fill="rgb(86,0,0)"/>
<circle cx="72" cy="240" r="12" fill="rgb(86,0,0)" opacity="0.35"/>
<circle cx="72" cy="240" r="9" fill="rgb(86,0,0)"/>
<circle cx="96" cy="240" r="12" fill="rgb(89,0,0)" opacity="0.35"/>
<circle cx="96" cy="240" r="9" fill="rgb(89,0,0)"/>
<circle cx="120" cy="240" r="12" fill="rgb(99,2,2)" opacity="0.35"/>
<circle cx="120" cy="240" r="9" fill="rgb(99,2,2)"/>
<circle cx="144" cy="240" r="12" fill="rgb(111,7,7)" opacity="0.35"/>
<circle cx="144" cy="240" r="9" fill="rgb(111,7,7)"/>
<circle cx="168" cy="240" r="12" fill="rgb(118,10,10)" opacity="0.35"/>
<circle cx="168" cy="240" r="9" fill="rgb(118,10,10)"/>
<circle cx="192" cy="240" r="12" fill="rgb(118,10,10)" opacity="0.35"/>
<circle cx="192" cy="240" r="9" fill="rgb(118,10,10)"/>
<circle cx="216" cy="240" r="12" fill="rgb(115,8,8)" opacity="0.35"/>
<circle cx="216" cy="240" r="9" fill="rgb(115,8,8)"/>
<circle cx="240" cy="240" r="12" fill="rgb(112,7,7)" opacity="0.35"/>
<circle cx="240" cy="240" r="9" fill="rgb(112,7,7)"/>
<circle cx="264" cy="240" r="12" fill="rgb(108,6,6)" opacity="0.35"/>
<circle cx="264" cy="240" r="9" fill="rgb(108,6,6)"/>
<circle cx="288" cy="240" r="12" fill="rgb(106,5,5)" opacity="0.35"/>
<circle cx="288" cy="240" r="9" fill="rgb(106,5,5)"/>
<circle cx="312" cy="240" r="12" fill="rgb(103,4,4)" opacity="0.35"/>
<circle cx="312" cy="240" r="9" fill="rgb(103,4,4)"/>
<circle cx="336" cy="240" r="12" fill="rgb(97,1,1)" opacity="0.35"/>
<circle cx="336" cy="240" r="9" fill="rgb(97,1,1)"/>
<circle cx="360" cy="240" r="12" fill="rgb(91,0,0)" opacity="0.35"/>
<circle cx="360" cy="240" r="9" fill="rgb(91,0,0)"/>
<circle cx="384" cy="240" r="12" fill="rgb(86,0,0)" opacity="0.35"/>
<circle cx="384" cy="240" r="9" fill="rgb(86,0,0)"/>
<circle cx="24" cy="264" r="12" fill="rgb(111,7,7)" opacity="0.35"/>
<circle cx="24" cy="264" r="9" fill="rgb(111,7,7)"/>
<circle cx="48" cy="264" r="12" fill="rgb(111,7,7)" opacity="0.35"/>
<circle cx="48" cy="264" r="9" fill="rgb(111,7,7)"/>
<circle cx="72" cy="264" r="12" fill="rgb(110,7,7)" opacity="0.35"/>
<circle cx="72" cy="264" r="9" fill="rgb(110,7,7)"/>
<circle cx="96" cy="264" r="12" fill="rgb(111,7,7)" opacity="0.35"/>
<circle cx="96" cy="264" r="9" fill="rgb(111,7,7)"/>
<circle cx="120" cy="264" r="12" fill="rgb(117,9,9)" opacity="0.35"/>
<circle cx="120" cy="264" r="9" fill="rgb(117,9,9)"/>
<circle cx="144" cy="264" r="12" fill="rgb(124,12,12)" opacity="0.35"/>
<circle cx="144" cy="264" r="9" fill="rgb(124,12,12)"/>
<circle cx="168" cy="264" r="12" fill="rgb(136,17,17)" opacity="0.35"/>
<circle cx="168" cy="264" r="9" fill="rgb(136,17,17)"/>
<circle cx="192" cy="264" r="12" fill="rgb(142,19,19)" opacity="0.35"/>
<circle cx="192" cy="264" r="9" fill="rgb(142,19,19)"/>
<circle cx="216" cy="264" r="12" fill="rgb(141,19,19)" opacity="0.35"/>
<circle cx="216" cy="264" r="9" fill="rgb(141,19,19)"/>
<circle cx="240" cy="264" r="12" fill="rgb(137,17,17)" opacity="0.35"/>
<circle cx="240" cy="264" r="9" fill="rgb(137,17,17)"/>
<circle cx="264" cy="264" r="12" fill="rgb(130,14,14)" opacity="0.35"/>
<circle cx="264" cy="264" r="9" fill="rgb(130,14,14)"/>
<circle cx="288" cy="264" r="12" fill="rgb(123,12,12)" opacity="0.35"/>
<circle cx="288" cy="264" r="9" fill="rgb(123,12,12)"/>
<circle cx="312" cy="264" r="12" fill="rgb(117,9,9)" opacity="0.35"/>
<circle cx="312" cy="264" r="9" fill="rgb(117,9,9)"/>
<circle cx="336" cy="264" r="12" fill="rgb(106,5,5)" opacity="0.35"/>
<circle cx="336" cy="264" r="9" fill="rgb(106,5,5)"/>
<circle cx="360" cy="264" r="12" fill="rgb(92,0,0)" opacity="0.35"/>
<circle cx="360" cy="264" r="9" fill="rgb(92,0,0)"/>
<circle cx="384" cy="264" r="12" fill="rgb(82,0,0)" opacity="0.35"/>
<circle cx="384" cy="264" r="9" fill="rgb(82,0,0)"/>
<circle cx="24" cy="288" r="12" fill="rgb(138,18,18)" opacity="0.35"/>
<circle cx="24" cy="288" r="9" fill="rgb(138,18,18)"/>
<circle cx="48" cy="288" r="12" fill="rgb(146,21,21)" opacity="0.35"/>
<circle cx="48" cy="288" r="9" fill="rgb(146,21,21)"/>
<circle cx="72" cy="288" r="12" fill="rgb(149,22,22)" opacity="0.35"/>
<circle cx="72" cy="288" r="9" fill="rgb(149,22,22)"/>
<circle cx="96" cy="288" r="12" fill="rgb(148,22,22)" opacity="0.35"/>
<circle cx="96" cy="288" r="9" fill="rgb(148,22,22)"/>
<circle cx="120" cy="288" r="12" fill="rgb(147,21,21)" opacity="0.35"/>
<circle cx="120" cy="288" r="9" fill="rgb(147,21,21)"/>
<circle cx="144" cy="288" r="12" fill="rgb(148,22,22)" opacity="0.35"/>
<circle cx="144" cy="288" r="9" fill="rgb(148,22,22)"/>
<circle cx="168" cy="288" r="12" fill="rgb(153,24,24)" opacity="0.35"/>
<circle cx="168" cy="288" r="9" fill="rgb(153,24,24)"/>
<circle cx="192" cy="288" r="12" fill="rgb(161,27,27)" opacity="0.35"/>
<circle cx="192" cy="288" r="9" fill="rgb(161,27,27)"/>
<circle cx="216" cy="288" r="12" fill="rgb(164,28,28)" opacity="0.35"/>
<circle cx="216" cy="288" r="9" fill="rgb(164,28,28)"/>
<circle cx="240" cy="288" r="12" fill="rgb(159,26,26)" opacity="0.35"/>
<circle cx="240" cy="288" r="9" fill="rgb(159,26,26)"/>
<circle cx="264" cy="288" r="12" fill="rgb(155,25,25)" opacity="0.35"/>
<circle cx="264" cy="288" r="9" fill="rgb(155,25,25)"/>
<circle cx="288" cy="288" r="12" fill="rgb(152,24,24)" opacity="0.35"/>
<circle cx="288" cy="288" r="9" fill="rgb(152,24,24)"/>
<circle cx="312" cy="288" r="12" fill="rgb(151,23,23)" opacity="0.35"/>
<circle cx="312" cy="288" r="9" fill="rgb(151,23,23)"/>
<circle cx="336" cy="288" r="12" fill="rgb(147,21,21)" opacity="0.35"/>
<circle cx="336" cy="288" r="9" fill="rgb(147,21,21)"/>
<circle cx="360" cy="288" r="12" fill="rgb(132,16,16)" opacity="0.35"/>
<circle cx="360" cy="288" r="9" fill="rgb(132,16,16)"/>
<circle cx="384" cy="288" r="12" fill="rgb(122,11,11)" opacity="0.35"/>
<circle cx="384" cy="288" r="9" fill="rgb(122,11,11)"/>
<circle cx="24" cy="312" r="12" fill="rgb(179,35,34)" opacity="0.35"/>
<circle cx="24" cy="312" r="9" fill="rgb(179,35,34)"/>
<circle cx="48" cy="312" r="12" fill="rgb(185,39,31)" opacity="0.35"/>
<circle cx="48" cy="312" r="9" fill="rgb(185,39,31)"/>
<circle cx="72" cy="312" r="12" fill="rgb(186,40,30)" opacity="0.35"/>
<circle cx="72" cy="312" r="9" fill="rgb(186,40,30)"/>
<circle cx="96" cy="312" r="12" fill="rgb(182,37,32)" opacity="0.35"/>
<circle cx="96" cy="312" r="9" fill="rgb(182,37,32)"/>
<circle cx="120" cy="312" r="12" fill="rgb(174,33,33)" opacity="0.35"/>
<circle cx="120" cy="312" r="9" fill="rgb(174,33,33)"/>
<circle cx="144" cy="312" r="12" fill="rgb(169,30,30)" opacity="0.35"/>
<circle cx="144" cy="312" r="9" fill="rgb(169,30,30)"/>
<circle cx="168" cy="312" r="12" fill="rgb(167,30,30)" opacity="0.35"/>
<circle cx="168" cy="312" r="9" fill="rgb(167,30,30)"/>
<circle cx="192" cy="312" r="12" fill="rgb(177,33,33)" opacity="0.35"/>
<circle cx="192" cy="312" r="9" fill="rgb(177,33,33)"/>
<circle cx="216" cy="312" r="12" fill="rgb(184,39,31)" opacity="0.35"/>
<circle cx="216" cy="312" r="9" fill="rgb(184,39,31)"/>
<circle cx="240" cy="312" r="12" fill="rgb(188,41,30)" opacity="0.35"/>
<circle cx="240" cy="312" r="9" fill="rgb(188,41,30)"/>
<circle cx="264" cy="312" r="12" fill="rgb(189,42,29)" opacity="0.35"/>
<circle cx="264" cy="312" r="9" fill="rgb(189,42,29)"/>
<circle cx="288" cy="312" r="12" fill="rgb(189,42,29)" opacity="0.35"/>
<circle cx="288" cy="312" r="9" fill="rgb(189,42,29)"/>
<circle cx="312" cy="312" r="12" fill="rgb(192,44,28)" opacity="0.35"/>
<circle cx="312" cy="312" r="9" fill="rgb(192,44,28)"/>
<circle cx="336" cy="312" r="12" fill="rgb(193,45,27)" opacity="0.35"/>
<circle cx="336" cy="312" r="9" fill="rgb(193,45,27)"/>
<circle cx="360" cy="312" r="12" fill="rgb(190,43,29)" opacity="0.35"/>
<circle cx="360" cy="312" r="9" fill="rgb(190,43,29)"/>
<circle cx="384" cy="312" r="12" fill="rgb(184,39,31)" opacity="0.35"/>
<circle cx="384" cy="312" r="9" fill="rgb(184,39,31)"/>
<circle cx="24" cy="336" r="12" fill="rgb(217,62,17)" opacity="0.35"/>
<circle cx="24" cy="336" r="9" fill="rgb(217,62,17)"/>
<circle cx="48" cy="336" r="12" fill="rgb(208,56,21)" opacity="0.35"/>
<circle cx="48" cy="336" r="9" fill="rgb(208,56,21)"/>
<circle cx="72" cy="336" r="12" fill="rgb(211,58,20)" opacity="0.35"/>
<circle cx="72" cy="336" r="9" fill="rgb(211,58,20)"/>
<circle cx="96" cy="336" r="12" fill="rgb(200,50,25)" opacity="0.35"/>
<circle cx="96" cy="336" r="9" fill="rgb(200,50,25)"/>
<circle cx="120" cy="336" r="12" fill="rgb(187,41,30)" opacity="0.35"/>
<circle cx="120" cy="336" r="9" fill="rgb(187,41,30)"/>
<circle cx="144" cy="336" r="12" fill="rgb(173,32,32)" opacity="0.35"/>
<circle cx="144" cy="336" r="9" fill="rgb(173,32,32)"/>
<circle cx="168" cy="336" r="12" fill="rgb(175,33,33)" opacity="0.35"/>
<circle cx="168" cy="336" r="9" fill="rgb(175,33,33)"/>
<circle cx="192" cy="336" r="12" fill="rgb(190,43,29)" opacity="0.35"/>
<circle cx="192" cy="336" r="9" fill="rgb(190,43,29)"/>
<circle cx="216" cy="336" r="12" fill="rgb(204,53,22)" opacity="0.35"/>
<circle cx="216" cy="336" r="9" fill="rgb(204,53,22)"/>
<circle cx="240" cy="336" r="12" fill="rgb(221,65,15)" opacity="0.35"/>
<circle cx="240" cy="336" r="9" fill="rgb(221,65,15)"/>
<circle cx="264" cy="336" r="12" fill="rgb(234,75,9)" opacity="0.35"/>
<circle cx="264" cy="336" r="9" fill="rgb(234,75,9)"/>
<circle cx="288" cy="336" r="12" fill="rgb(243,82,5)" opacity="0.35"/>
<circle cx="288" cy="336" r="9" fill="rgb(243,82,5)"/>
<circle cx="312" cy="336" r="12" fill="rgb(246,83,4)" opacity="0.35"/>
<circle cx="312" cy="336" r="9" fill="rgb(246,83,4)"/>
<circle cx="336" cy="336" r="12" fill="rgb(239,79,7)" opacity="0.35"/>
<circle cx="336" cy="336" r="9" fill="rgb(239,79,7)"/>
<circle cx="360" cy="336" r="12" fill="rgb(229,71,11)" opacity="0.35"/>
<circle cx="360" cy="336" r="9" fill="rgb(229,71,11)"/>
<circle cx="384" cy="336" r="12" fill="rgb(220,64,16)" opacity="0.35"/>
<circle cx="384" cy="336" r="9" fill="rgb(220,64,16)"/>
<circle cx="24" cy="360" r="12" fill="rgb(233,74,10)" opacity="0.35"/>
<circle cx="24" cy="360" r="9" fill="rgb(233,74,10)"/>
<circle cx="48" cy="360" r="12" fill="rgb(215,61,18)" opacity="0.35"/>
<circle cx="48" cy="360" r="9" fill="rgb(215,61,18)"/>
<circle cx="72" cy="360" r="12" fill="rgb(199,50,25)" opacity="0.35"/>
<circle cx="72" cy="360" r="9" fill="rgb(199,50,25)"/>
<circle cx="96" cy="360" r="12" fill="rgb(236,76,8)" opacity="0.35"/>
<circle cx="96" cy="360" r="9" fill="rgb(236,76,8)"/>
<circle cx="120" cy="360" r="12" fill="rgb(203,52,23)" opacity="0.35"/>
<circle cx="120" cy="360" r="9" fill="rgb(203,52,23)"/>
<circle cx="144" cy="360" r="12" fill="rgb(182,37,32)" opacity="0.35"/>
<circle cx="144" cy="360" r="9" fill="rgb(182,37,32)"/>
<circle cx="168" cy="360" r="12" fill="rgb(178,34,34)" opacity="0.35"/>
<circle cx="168" cy="360" r="9" fill="rgb(178,34,34)"/>
<circle cx="192" cy="360" r="12" fill="rgb(197,48,26)" opacity="0.35"/>
<circle cx="192" cy="360" r="9" fill="rgb(197,48,26)"/>
<circle cx="216" cy="360" r="12" fill="rgb(215,61,18)" opacity="0.35"/>
<circle cx="216" cy="360" r="9" fill="rgb(215,61,18)"/>
<circle cx="240" cy="360" r="12" fill="rgb(215,61,17)" opacity="0.35"/>
<circle cx="240" cy="360" r="9" fill="rgb(215,61,17)"/>
<circle cx="264" cy="360" r="12" fill="rgb(250,86,2)" opacity="0.35"/>
<circle cx="264" cy="360" r="9" fill="rgb(250,86,2)"/>
<circle cx="288" cy="360" r="12" fill="rgb(255,126,29)" opacity="0.35"/>
<circle cx="288" cy="360" r="9" fill="rgb(255,126,29)"/>
<circle cx="312" cy="360" r="12" fill="rgb(255,120,24)" opacity="0.35"/>
<circle cx="312" cy="360" r="9" fill="rgb(255,120,24)"/>
<circle cx="336" cy="360" r="12" fill="rgb(255,119,23)" opacity="0.35"/>
<circle cx="336" cy="360" r="9" fill="rgb(255,119,23)"/>
<circle cx="360" cy="360" r="12" fill="rgb(242,81,6)" opacity="0.35"/>
<circle cx="360" cy="360" r="9" fill="rgb(242,81,6)"/>
<circle cx="384" cy="360" r="12" fill="rgb(225,68,13)" opacity="0.35"/>
<circle cx="384" cy="360" r="9" fill="rgb(225,68,13)"/>
<circle cx="24" cy="384" r="12" fill="rgb(255,187,77)" opacity="0.35"/>
<circle cx="24" cy="384" r="9" fill="rgb(255,187,77)"/>
<circle cx="48" cy="384" r="12" fill="rgb(171,31,31)" opacity="0.35"/>
<circle cx="48" cy="384" r="9" fill="rgb(171,31,31)"/>
<circle cx="72" cy="384" r="12" fill="rgb(208,55,21)" opacity="0.35"/>
<circle cx="72" cy="384" r="9" fill="rgb(208,55,21)"/>
<circle cx="96" cy="384" r="12" fill="rgb(218,63,16)" opacity="0.35"/>
<circle cx="96" cy="384" r="9" fill="rgb(218,63,16)"/>
<circle cx="120" cy="384" r="12" fill="rgb(255,140,40)" opacity="0.35"/>
<circle cx="120" cy="384" r="9" fill="rgb(255,140,40)"/>
<circle cx="144" cy="384" r="12" fill="rgb(107,5,5)" opacity="0.35"/>
<circle cx="144" cy="384" r="9" fill="rgb(107,5,5)"/>
<circle cx="168" cy="384" r="12" fill="rgb(255,189,78)" opacity="0.35"/>
<circle cx="168" cy="384" r="9" fill="rgb(255,189,78)"/>
<circle cx="192" cy="384" r="12" fill="rgb(255,138,38)" opacity="0.35"/>
<circle cx="192" cy="384" r="9" fill="rgb(255,138,38)"/>
<circle cx="216" cy="384" r="12" fill="rgb(255,197,84)" opacity="0.35"/>
<circle cx="216" cy="384" r="9" fill="rgb(255,197,84)"/>
<circle cx="240" cy="384" r="12" fill="rgb(207,55,21)" opacity="0.35"/>
<circle cx="240" cy="384" r="9" fill="rgb(207,55,21)"/>
<circle cx="264" cy="384" r="12" fill="rgb(255,94,3)" opacity="0.35"/>
<circle cx="264" cy="384" r="9" fill="rgb(255,94,3)"/>
<circle cx="288" cy="384" r="12" fill="rgb(255,137,37)" opacity="0.35"/>
<circle cx="288" cy="384" r="9" fill="rgb(255,137,37)"/>
<circle cx="312" cy="384" r="12" fill="rgb(255,165,60)" opacity="0.35"/>
<circle cx="312" cy="384" r="9" fill="rgb(255,165,60)"/>
<circle cx="336" cy="384" r="12" fill="rgb(251,87,2)" opacity="0.35"/>
<circle cx="336" cy="384" r="9" fill="rgb(251,87,2)"/>
<circle cx="360" cy="384" r="12" fill="rgb(255,131,33)" opacity="0.35"/>
<circle cx="360" cy="384" r="9" fill="rgb(255,131,33)"/>
<circle cx="384" cy="384" r="12" fill="rgb(198,48,25)" opacity="0.35"/>
<circle cx="384" cy="384" r="9" fill="rgb(198,48,25)"/>
</svg>
