<svg xmlns="http://www.w3.org/2000/svg" viewBox="0 0 408 408" width="408" height="408" role="img" aria-label="LED preview of the Fractal Noise example graph">
<rect width="408" height="408" rx="10" fill="#05070a"/>
<circle cx="24" cy="24" r="12" fill="rgb(30,202,73)" opacity="0.35"/>
<circle cx="24" cy="24" r="9" fill="rgb(30,202,73)"/>
<circle cx="48" cy="24" r="12" fill="rgb(60,203,64)" opacity="0.35"/>
<circle cx="48" cy="24" r="9" fill="rgb(60,203,64)"/>
<circle cx="72" cy="24" r="12" fill="rgb(89,205,54)" opacity="0.35"/>
<circle cx="72" cy="24" r="9" fill="rgb(89,205,54)"/>
<circle cx="96" cy="24" r="12" fill="rgb(116,206,45)" opacity="0.35"/>
<circle cx="96" cy="24" r="9" fill="rgb(116,206,45)"/>
<circle cx="120" cy="24" r="12" fill="rgb(142,207,37)" opacity="0.35"/>
<circle cx="120" cy="24" r="9" fill="rgb(142,207,37)"/>
<circle cx="144" cy="24" r="12" fill="rgb(167,208,29)" opacity="0.35"/>
<circle cx="144" cy="24" r="9" fill="rgb(167,208,29)"/>
<circle cx="168" cy="24" r="12" fill="rgb(189,210,22)" opacity="0.35"/>
<circle cx="168" cy="24" r="9" fill="rgb(189,210,22)"/>
<circle cx="192" cy="24" r="12" fill="rgb(208,211,15)" opacity="0.35"/>
<circle cx="192" cy="24" r="9" fill="rgb(208,211,15)"/>
<circle cx="216" cy="24" r="12" fill="rgb(225,211,10)" opacity="0.35"/>
<circle cx="216" cy="24" r="9" fill="rgb(225,211,10)"/>
<circle cx="240" cy="24" r="12" fill="rgb(239,212,5)" opacity="0.35"/>
<circle cx="240" cy="24" r="9" fill="rgb(239,212,5)"/>
<circle cx="264" cy="24" r="12" fill="rgb(251,213,1)" opacity="0.35"/>
<circle cx="264" cy="24" r="9" fill="rgb(251,213,1)"/>
<circle cx="288" cy="24" r="12" fill="rgb(255,211,0)" opacity="0.35"/>
<circle cx="288" cy="24" r="9" fill="rgb(255,211,0)"/>
<circle cx="312" cy="24" r="12" fill="rgb(255,208,0)" opacity="0.35"/>
<circle cx="312" cy="24" r="9" fill="rgb(255,208,0)"/>
<circle cx="336" cy="24" r="12" fill="rgb(255,206,0)" opacity="0.35"/>
<circle cx="336" cy="24" r="9" fill="rgb(255,206,0)"/>
<circle cx="360" cy="24" r="12" fill="rgb(255,204,0)" opacity="0.35"/>
<circle cx="360" cy="24" r="9" fill="rgb(255,204,0)"/>
<circle cx="384" cy="24" r="12" fill="rgb(255,202,0)" opacity="0.35"/>
<circle cx="384" cy="24" r="9" fill="rgb(255,202,0)"/>
<circle cx="24" cy="48" r="12" fill="rgb(0,200,83)" opacity="0.35"/>
<circle cx="24" cy="48" r="9" fill="rgb(0,200,83)"/>
<circle cx="48" cy="48" r="12" fill="rgb(30,202,73)" opacity="0.35"/>
<circle cx="48" cy="48" r="9" fill="rgb(30,202,73)"/>
<circle cx="72" cy="48" r="12" fill="rgb(59,203,64)" opacity="0.35"/>
<circle cx="72" cy="48" r="9" fill="rgb(59,203,64)"/>
<circle cx="96" cy="48" r="12" fill="rgb(87,204,55)" opacity="0.35"/>
<circle cx="96" cy="48" r="9" fill="rgb(87,204,55)"/>
<circle cx="120" cy="48" r="12" fill="rgb(114,206,46)" opacity="0.35"/>
<circle cx="120" cy="48" r="9" fill="rgb(114,206,46)"/>
<circle cx="144" cy="48" r="12" fill="rgb(139,207,38)" opacity="0.35"/>
<circle cx="144" cy="48" r="9" fill="rgb(139,207,38)"/>
<circle cx="168" cy="48" r="12" fill="rgb(162,208,30)" opacity="0.35"/>
<circle cx="168" cy="48" r="9" fill="rgb(162,208,30)"/>
<circle cx="192" cy="48" r="12" fill="rgb(182,209,24)" opacity="0.35"/>
<circle cx="192" cy="48" r="9" fill="rgb(182,209,24)"/>
<circle cx="216" cy="48" r="12" fill="rgb(200,210,18)" opacity="0.35"/>
<circle cx="216" cy="48" r="9" fill="rgb(200,210,18)"/>
<circle cx="240" cy="48" r="12" fill="rgb(216,211,13)" opacity="0.35"/>
<circle cx="240" cy="48" r="9" fill="rgb(216,211,13)"/>
<circle cx="264" cy="48" r="12" fill="rgb(229,212,8)" opacity="0.35"/>
<circle cx="264" cy="48" r="9" fill="rgb(229,212,8)"/>
<circle cx="288" cy="48" r="12" fill="rgb(241,212,5)" opacity="0.35"/>
<circle cx="288" cy="48" r="9" fill="rgb(241,212,5)"/>
<circle cx="312" cy="48" r="12" fill="rgb(250,213,2)" opacity="0.35"/>
<circle cx="312" cy="48" r="9" fill="rgb(250,213,2)"/>
<circle cx="336" cy="48" r="12" fill="rgb(255,212,0)" opacity="0.35"/>
<circle cx="336" cy="48" r="9" fill="rgb(255,212,0)"/>
<circle cx="360" cy="48" r="12" fill="rgb(255,210,0)" opacity="0.35"/>
<circle cx="360" cy="48" r="9" fill="rgb(255,210,0)"/>
<circle cx="384" cy="48" r="12" fill="rgb(255,208,0)" opacity="0.35"/>
<circle cx="384" cy="48" r="9" fill="rgb(255,208,0)"/>
<circle cx="24" cy="72" r="12" fill="rgb(0,197,102)" opacity="0.35"/>
<circle cx="24" cy="72" r="9" fill="rgb(0,197,102)"/>
<circle cx="48" cy="72" r="12" fill="rgb(1,200,83)" opacity="0.35"/>
<circle cx="48" cy="72" r="9" fill="rgb(1,200,83)"/>
<circle cx="72" cy="72" r="12" fill="rgb(30,202,73)" opacity="0.35"/>
<circle cx="72" cy="72" r="9" fill="rgb(30,202,73)"/>
<circle cx="96" cy="72" r="12" fill="rgb(58,203,64)" opacity="0.35"/>
<circle cx="96" cy="72" r="9" fill="rgb(58,203,64)"/>
<circle cx="120" cy="72" r="12" fill="rgb(85,204,55)" opacity="0.35"/>
<circle cx="120" cy="72" r="9" fill="rgb(85,204,55)"/>
<circle cx="144" cy="72" r="12" fill="rgb(111,206,47)" opacity="0.35"/>
<circle cx="144" cy="72" r="9" fill="rgb(111,206,47)"/>
<circle cx="168" cy="72" r="12" fill="rgb(135,207,39)" opacity="0.35"/>
<circle cx="168" cy="72" r="9" fill="rgb(135,207,39)"/>
<circle cx="192" cy="72" r="12" fill="rgb(156,208,32)" opacity="0.35"/>
<circle cx="192" cy="72" r="9" fill="rgb(156,208,32)"/>
<circle cx="216" cy="72" r="12" fill="rgb(176,209,26)" opacity="0.35"/>
<circle cx="216" cy="72" r="9" fill="rgb(176,209,26)"/>
<circle cx="240" cy="72" r="12" fill="rgb(193,210,20)" opacity="0.35"/>
<circle cx="240" cy="72" r="9" fill="rgb(193,210,20)"/>
<circle cx="264" cy="72" r="12" fill="rgb(208,211,15)" opacity="0.35"/>
<circle cx="264" cy="72" r="9" fill="rgb(208,211,15)"/>
<circle cx="288" cy="72" r="12" fill="rgb(220,211,11)" opacity="0.35"/>
<circle cx="288" cy="72" r="9" fill="rgb(220,211,11)"/>
<circle cx="312" cy="72" r="12" fill="rgb(231,212,8)" opacity="0.35"/>
<circle cx="312" cy="72" r="9" fill="rgb(231,212,8)"/>
<circle cx="336" cy="72" r="12" fill="rgb(240,212,5)" opacity="0.35"/>
<circle cx="336" cy="72" r="9" fill="rgb(240,212,5)"/>
<circle cx="360" cy="72" r="12" fill="rgb(247,213,3)" opacity="0.35"/>
<circle cx="360" cy="72" r="9" fill="rgb(247,213,3)"/>
<circle cx="384" cy="72" r="12" fill="rgb(253,213,1)" opacity="0.35"/>
<circle cx="384" cy="72" r="9" fill="rgb(253,213,1)"/>
<circle cx="24" cy="96" r="12" fill="rgb(0,195,122)" opacity="0.35"/>
<circle cx="24" cy="96" r="9" fill="rgb(0,195,122)"/>
<circle cx="48" cy="96" r="12" fill="rgb(0,197,102)" opacity="0.35"/>
<circle cx="48" cy="96" r="9" fill="rgb(0,197,102)"/>
<circle cx="72" cy="96" r="12" fill="rgb(1,200,83)" opacity="0.35"/>
<circle cx="72" cy="96" r="9" fill="rgb(1,200,83)"/>
<circle cx="96" cy="96" r="12" fill="rgb(30,202,73)" opacity="0.35"/>
<circle cx="96" cy="96" r="9" fill="rgb(30,202,73)"/>
<circle cx="120" cy="96" r="12" fill="rgb(57,203,64)" opacity="0.35"/>
<circle cx="120" cy="96" r="9" fill="rgb(57,203,64)"/>
<circle cx="144" cy="96" r="12" fill="rgb(83,204,56)" opacity="0.35"/>
<circle cx="144" cy="96" r="9" fill="rgb(83,204,56)"/>
<circle cx="168" cy="96" r="12" fill="rgb(108,205,48)" opacity="0.35"/>
<circle cx="168" cy="96" r="9" fill="rgb(108,205,48)"/>
<circle cx="192" cy="96" r="12" fill="rgb(131,207,41)" opacity="0.35"/>
<circle cx="192" cy="96" r="9" fill="rgb(131,207,41)"/>
<circle cx="216" cy="96" r="12" fill="rgb(151,208,34)" opacity="0.35"/>
<circle cx="216" cy="96" r="9" fill="rgb(151,208,34)"/>
<circle cx="240" cy="96" r="12" fill="rgb(170,209,28)" opacity="0.35"/>
<circle cx="240" cy="96" r="9" fill="rgb(170,209,28)"/>
<circle cx="264" cy="96" r="12" fill="rgb(187,210,22)" opacity="0.35"/>
<circle cx="264" cy="96" r="9" fill="rgb(187,210,22)"/>
<circle cx="288" cy="96" r="12" fill="rgb(201,210,18)" opacity="0.35"/>
<circle cx="288" cy="96" r="9" fill="rgb(201,210,18)"/>
<circle cx="312" cy="96" r="12" fill="rgb(213,211,14)" opacity="0.35"/>
<circle cx="312" cy="96" r="9" fill="rgb(213,211,14)"/>
<circle cx="336" cy="96" r="12" fill="rgb(224,211,10)" opacity="0.35"/>
<circle cx="336" cy="96" r="9" fill="rgb(224,211,10)"/>
<circle cx="360" cy="96" r="12" fill="rgb(232,212,7)" opacity="0.35"/>
<circle cx="360" cy="96" r="9" fill="rgb(232,212,7)"/>
<circle cx="384" cy="96" r="12" fill="rgb(240,212,5)" opacity="0.35"/>
<circle cx="384" cy="96" r="9" fill="rgb(240,212,5)"/>
<circle cx="24" cy="120" r="12" fill="rgb(0,192,140)" opacity="0.35"/>
<circle cx="24" cy="120" r="9" fill="rgb(0,192,140)"/>
<circle cx="48" cy="120" r="12" fill="rgb(0,195,120)" opacity="0.35"/>
<circle cx="48" cy="120" r="9" fill="rgb(0,195,120)"/>
<circle cx="72" cy="120" r="12" fill="rgb(0,197,101)" opacity="0.35"/>
<circle cx="72" cy="120" r="9" fill="rgb(0,197,101)"/>
<circle cx="96" cy="120" r="12" fill="rgb(2,200,82)" opacity="0.35"/>
<circle cx="96" cy="120" r="9" fill="rgb(2,200,82)"/>
<circle cx="120" cy="120" r="12" fill="rgb(29,202,73)" opacity="0.35"/>
<circle cx="120" cy="120" r="9" fill="rgb(29,202,73)"/>
<circle cx="144" cy="120" r="12" fill="rgb(56,203,65)" opacity="0.35"/>
<circle cx="144" cy="120" r="9" fill="rgb(56,203,65)"/>
<circle cx="168" cy="120" r="12" fill="rgb(82,204,56)" opacity="0.35"/>
<circle cx="168" cy="120" r="9" fill="rgb(82,204,56)"/>
<circle cx="192" cy="120" r="12" fill="rgb(106,205,49)" opacity="0.35"/>
<circle cx="192" cy="120" r="9" fill="rgb(106,205,49)"/>
<circle cx="216" cy="120" r="12" fill="rgb(128,207,41)" opacity="0.35"/>
<circle cx="216" cy="120" r="9" fill="rgb(128,207,41)"/>
<circle cx="240" cy="120" r="12" fill="rgb(148,208,35)" opacity="0.35"/>
<circle cx="240" cy="120" r="9" fill="rgb(148,208,35)"/>
<circle cx="264" cy="120" r="12" fill="rgb(166,208,29)" opacity="0.35"/>
<circle cx="264" cy="120" r="9" fill="rgb(166,208,29)"/>
<circle cx="288" cy="120" r="12" fill="rgb(182,209,24)" opacity="0.35"/>
<circle cx="288" cy="120" r="9" fill="rgb(182,209,24)"/>
<circle cx="312" cy="120" r="12" fill="rgb(196,210,19)" opacity="0.35"/>
<circle cx="312" cy="120" r="9" fill="rgb(196,210,19)"/>
<circle cx="336" cy="120" r="12" fill="rgb(208,211,15)" opacity="0.35"/>
<circle cx="336" cy="120" r="9" fill="rgb(208,211,15)"/>
<circle cx="360" cy="120" r="12" fill="rgb(219,211,12)" opacity="0.35"/>
<circle cx="360" cy="120" r="9" fill="rgb(219,211,12)"/>
<circle cx="384" cy="120" r="12" fill="rgb(227,212,9)" opacity="0.35"/>
<circle cx="384" cy="120" r="9" fill="rgb(227,212,9)"/>
<circle cx="24" cy="144" r="12" fill="rgb(0,190,157)" opacity="0.35"/>
<circle cx="24" cy="144" r="9" fill="rgb(0,190,157)"/>
<circle cx="48" cy="144" r="12" fill="rgb(0,192,138)" opacity="0.35"/>
<circle cx="48" cy="144" r="9" fill="rgb(0,192,138)"/>
<circle cx="72" cy="144" r="12" fill="rgb(0,195,119)" opacity="0.35"/>
<circle cx="72" cy="144" r="9" fill="rgb(0,195,119)"/>
<circle cx="96" cy="144" r="12" fill="rgb(0,198,100)" opacity="0.35"/>
<circle cx="96" cy="144" r="9" fill="rgb(0,198,100)"/>
<circle cx="120" cy="144" r="12" fill="rgb(3,200,82)" opacity="0.35"/>
<circle cx="120" cy="144" r="9" fill="rgb(3,200,82)"/>
<circle cx="144" cy="144" r="12" fill="rgb(31,202,73)" opacity="0.35"/>
<circle cx="144" cy="144" r="9" fill="rgb(31,202,73)"/>
<circle cx="168" cy="144" r="12" fill="rgb(57,203,64)" opacity="0.35"/>
<circle cx="168" cy="144" r="9" fill="rgb(57,203,64)"/>
<circle cx="192" cy="144" r="12" fill="rgb(82,204,56)" opacity="0.35"/>
<circle cx="192" cy="144" r="9" fill="rgb(82,204,56)"/>
<circle cx="216" cy="144" r="12" fill="rgb(106,205,49)" opacity="0.35"/>
<circle cx="216" cy="144" r="9" fill="rgb(106,205,49)"/>
<circle cx="240" cy="144" r="12" fill="rgb(127,206,42)" opacity="0.35"/>
<circle cx="240" cy="144" r="9" fill="rgb(127,206,42)"/>
<circle cx="264" cy="144" r="12" fill="rgb(147,208,35)" opacity="0.35"/>
<circle cx="264" cy="144" r="9" fill="rgb(147,208,35)"/>
<circle cx="288" cy="144" r="12" fill="rgb(165,208,29)" opacity="0.35"/>
<circle cx="288" cy="144" r="9" fill="rgb(165,208,29)"/>
<circle cx="312" cy="144" r="12" fill="rgb(181,209,24)" opacity="0.35"/>
<circle cx="312" cy="144" r="9" fill="rgb(181,209,24)"/>
<circle cx="336" cy="144" r="12" fill="rgb(194,210,20)" opacity="0.35"/>
<circle cx="336" cy="144" r="9" fill="rgb(194,210,20)"/>
<circle cx="360" cy="144" r="12" fill="rgb(206,210,16)" opacity="0.35"/>
<circle cx="360" cy="144" r="9" fill="rgb(206,210,16)"/>
<circle cx="384" cy="144" r="12" fill="rgb(216,211,13)" opacity="0.35"/>
<circle cx="384" cy="144" r="9" fill="rgb(216,211,13)"/>
<circle cx="24" cy="168" r="12" fill="rgb(0,187,173)" opacity="0.35"/>
<circle cx="24" cy="168" r="9" fill="rgb(0,187,173)"/>
<circle cx="48" cy="168" r="12" fill="rgb(0,190,154)" opacity="0.35"/>
<circle cx="48" cy="168" r="9" fill="rgb(0,190,154)"/>
<circle cx="72" cy="168" r="12" fill="rgb(0,193,135)" opacity="0.35"/>
<circle cx="72" cy="168" r="9" fill="rgb(0,193,135)"/>
<circle cx="96" cy="168" r="12" fill="rgb(0,195,116)" opacity="0.35"/>
<circle cx="96" cy="168" r="9" fill="rgb(0,195,116)"/>
<circle cx="120" cy="168" r="12" fill="rgb(0,198,97)" opacity="0.35"/>
<circle cx="120" cy="168" r="9" fill="rgb(0,198,97)"/>
<circle cx="144" cy="168" r="12" fill="rgb(7,200,81)" opacity="0.35"/>
<circle cx="144" cy="168" r="9" fill="rgb(7,200,81)"/>
<circle cx="168" cy="168" r="12" fill="rgb(34,202,72)" opacity="0.35"/>
<circle cx="168" cy="168" r="9" fill="rgb(34,202,72)"/>
<circle cx="192" cy="168" r="12" fill="rgb(60,203,63)" opacity="0.35"/>
<circle cx="192" cy="168" r="9" fill="rgb(60,203,63)"/>
<circle cx="216" cy="168" r="12" fill="rgb(85,204,55)" opacity="0.35"/>
<circle cx="216" cy="168" r="9" fill="rgb(85,204,55)"/>
<circle cx="240" cy="168" r="12" fill="rgb(108,206,48)" opacity="0.35"/>
<circle cx="240" cy="168" r="9" fill="rgb(108,206,48)"/>
<circle cx="264" cy="168" r="12" fill="rgb(129,207,41)" opacity="0.35"/>
<circle cx="264" cy="168" r="9" fill="rgb(129,207,41)"/>
<circle cx="288" cy="168" r="12" fill="rgb(148,208,35)" opacity="0.35"/>
<circle cx="288" cy="168" r="9" fill="rgb(148,208,35)"/>
<circle cx="312" cy="168" r="12" fill="rgb(166,208,29)" opacity="0.35"/>
<circle cx="312" cy="168" r="9" fill="rgb(166,208,29)"/>
<circle cx="336" cy="168" r="12" fill="rgb(181,209,24)" opacity="0.35"/>
<circle cx="336" cy="168" r="9" fill="rgb(181,209,24)"/>
<circle cx="360" cy="168" r="12" fill="rgb(194,210,20)" opacity="0.35"/>
<circle cx="360" cy="168" r="9" fill="rgb(194,210,20)"/>
<circle cx="384" cy="168" r="12" fill="rgb(205,210,16)" opacity="0.35"/>
<circle cx="384" cy="168" r="9" fill="rgb(205,210,16)"/>
<circle cx="24" cy="192" r="12" fill="rgb(0,185,187)" opacity="0.35"/>
<circle cx="24" cy="192" r="9" fill="rgb(0,185,187)"/>
<circle cx="48" cy="192" r="12" fill="rgb(0,188,169)" opacity="0.35"/>
<circle cx="48" cy="192" r="9" fill="rgb(0,188,169)"/>
<circle cx="72" cy="192" r="12" fill="rgb(0,191,150)" opacity="0.35"/>
<circle cx="72" cy="192" r="9" fill="rgb(0,191,150)"/>
<circle cx="96" cy="192" r="12" fill="rgb(0,193,131)" opacity="0.35"/>
<circle cx="96" cy="192" r="9" fill="rgb(0,193,131)"/>
<circle cx="120" cy="192" r="12" fill="rgb(0,196,112)" opacity="0.35"/>
<circle cx="120" cy="192" r="9" fill="rgb(0,196,112)"/>
<circle cx="144" cy="192" r="12" fill="rgb(0,199,93)" opacity="0.35"/>
<circle cx="144" cy="192" r="9" fill="rgb(0,199,93)"/>
<circle cx="168" cy="192" r="12" fill="rgb(13,201,79)" opacity="0.35"/>
<circle cx="168" cy="192" r="9" fill="rgb(13,201,79)"/>
<circle cx="192" cy="192" r="12" fill="rgb(40,202,70)" opacity="0.35"/>
<circle cx="192" cy="192" r="9" fill="rgb(40,202,70)"/>
<circle cx="216" cy="192" r="12" fill="rgb(65,203,62)" opacity="0.35"/>
<circle cx="216" cy="192" r="9" fill="rgb(65,203,62)"/>
<circle cx="240" cy="192" r="12" fill="rgb(90,205,54)" opacity="0.35"/>
<circle cx="240" cy="192" r="9" fill="rgb(90,205,54)"/>
<circle cx="264" cy="192" r="12" fill="rgb(112,206,46)" opacity="0.35"/>
<circle cx="264" cy="192" r="9" fill="rgb(112,206,46)"/>
<circle cx="288" cy="192" r="12" fill="rgb(133,207,40)" opacity="0.35"/>
<circle cx="288" cy="192" r="9" fill="rgb(133,207,40)"/>
<circle cx="312" cy="192" r="12" fill="rgb(151,208,34)" opacity="0.35"/>
<circle cx="312" cy="192" r="9" fill="rgb(151,208,34)"/>
<circle cx="336" cy="192" r="12" fill="rgb(168,209,28)" opacity="0.35"/>
<circle cx="336" cy="192" r="9" fill="rgb(168,209,28)"/>
<circle cx="360" cy="192" r="12" fill="rgb(182,209,24)" opacity="0.35"/>
<circle cx="360" cy="192" r="9" fill="rgb(182,209,24)"/>
<circle cx="384" cy="192" r="12" fill="rgb(194,210,20)" opacity="0.35"/>
<circle cx="384" cy="192" r="9" fill="rgb(194,210,20)"/>
<circle cx="24" cy="216" r="12" fill="rgb(0,184,201)" opacity="0.35"/>
<circle cx="24" cy="216" r="9" fill="rgb(0,184,201)"/>
<circle cx="48" cy="216" r="12" fill="rgb(0,186,183)" opacity="0.35"/>
<circle cx="48" cy="216" r="9" fill="rgb(0,186,183)"/>
<circle cx="72" cy="216" r="12" fill="rgb(0,189,164)" opacity="0.35"/>
<circle cx="72" cy="216" r="9" fill="rgb(0,189,164)"/>
<circle cx="96" cy="216" r="12" fill="rgb(0,191,145)" opacity="0.35"/>
<circle cx="96" cy="216" r="9" fill="rgb(0,191,145)"/>
<circle cx="120" cy="216" r="12" fill="rgb(0,194,126)" opacity="0.35"/>
<circle cx="120" cy="216" r="9" fill="rgb(0,194,126)"/>
<circle cx="144" cy="216" r="12" fill="rgb(0,197,106)" opacity="0.35"/>
<circle cx="144" cy="216" r="9" fill="rgb(0,197,106)"/>
<circle cx="168" cy="216" r="12" fill="rgb(0,199,87)" opacity="0.35"/>
<circle cx="168" cy="216" r="9" fill="rgb(0,199,87)"/>
<circle cx="192" cy="216" r="12" fill="rgb(21,201,76)" opacity="0.35"/>
<circle cx="192" cy="216" r="9" fill="rgb(21,201,76)"/>
<circle cx="216" cy="216" r="12" fill="rgb(48,202,68)" opacity="0.35"/>
<circle cx="216" cy="216" r="9" fill="rgb(48,202,68)"/>
<circle cx="240" cy="216" r="12" fill="rgb(73,204,59)" opacity="0.35"/>
<circle cx="240" cy="216" r="9" fill="rgb(73,204,59)"/>
<circle cx="264" cy="216" r="12" fill="rgb(96,205,52)" opacity="0.35"/>
<circle cx="264" cy="216" r="9" fill="rgb(96,205,52)"/>
<circle cx="288" cy="216" r="12" fill="rgb(118,206,45)" opacity="0.35"/>
<circle cx="288" cy="216" r="9" fill="rgb(118,206,45)"/>
<circle cx="312" cy="216" r="12" fill="rgb(137,207,38)" opacity="0.35"/>
<circle cx="312" cy="216" r="9" fill="rgb(137,207,38)"/>
<circle cx="336" cy="216" r="12" fill="rgb(155,208,33)" opacity="0.35"/>
<circle cx="336" cy="216" r="9" fill="rgb(155,208,33)"/>
<circle cx="360" cy="216" r="12" fill="rgb(170,209,28)" opacity="0.35"/>
<circle cx="360" cy="216" r="9" fill="rgb(170,209,28)"/>
<circle cx="384" cy="216" r="12" fill="rgb(183,209,23)" opacity="0.35"/>
<circle cx="384" cy="216" r="9" fill="rgb(183,209,23)"/>
<circle cx="24" cy="240" r="12" fill="rgb(0,182,213)" opacity="0.35"/>
<circle cx="24" cy="240" r="9" fill="rgb(0,182,213)"/>
<circle cx="48" cy="240" r="12" fill="rgb(0,184,195)" opacity="0.35"/>
<circle cx="48" cy="240" r="9" fill="rgb(0,184,195)"/>
<circle cx="72" cy="240" r="12" fill="rgb(0,187,177)" opacity="0.35"/>
<circle cx="72" cy="240" r="9" fill="rgb(0,187,177)"/>
<circle cx="96" cy="240" r="12" fill="rgb(0,190,158)" opacity="0.35"/>
<circle cx="96" cy="240" r="9" fill="rgb(0,190,158)"/>
<circle cx="120" cy="240" r="12" fill="rgb(0,192,138)" opacity="0.35"/>
<circle cx="120" cy="240" r="9" fill="rgb(0,192,138)"/>
<circle cx="144" cy="240" r="12" fill="rgb(0,195,119)" opacity="0.35"/>
<circle cx="144" cy="240" r="9" fill="rgb(0,195,119)"/>
<circle cx="168" cy="240" r="12" fill="rgb(0,198,99)" opacity="0.35"/>
<circle cx="168" cy="240" r="9" fill="rgb(0,198,99)"/>
<circle cx="192" cy="240" r="12" fill="rgb(4,200,82)" opacity="0.35"/>
<circle cx="192" cy="240" r="9" fill="rgb(4,200,82)"/>
<circle cx="216" cy="240" r="12" fill="rgb(31,202,73)" opacity="0.35"/>
<circle cx="216" cy="240" r="9" fill="rgb(31,202,73)"/>
<circle cx="240" cy="240" r="12" fill="rgb(57,203,64)" opacity="0.35"/>
<circle cx="240" cy="240" r="9" fill="rgb(57,203,64)"/>
<circle cx="264" cy="240" r="12" fill="rgb(81,204,57)" opacity="0.35"/>
<circle cx="264" cy="240" r="9" fill="rgb(81,204,57)"/>
<circle cx="288" cy="240" r="12" fill="rgb(104,205,49)" opacity="0.35"/>
<circle cx="288" cy="240" r="9" fill="rgb(104,205,49)"/>
<circle cx="312" cy="240" r="12" fill="rgb(124,206,43)" opacity="0.35"/>
<circle cx="312" cy="240" r="9" fill="rgb(124,206,43)"/>
<circle cx="336" cy="240" r="12" fill="rgb(142,207,37)" opacity="0.35"/>
<circle cx="336" cy="240" r="9" fill="rgb(142,207,37)"/>
<circle cx="360" cy="240" r="12" fill="rgb(158,208,32)" opacity="0.35"/>
<circle cx="360" cy="240" r="9" fill="rgb(158,208,32)"/>
<circle cx="384" cy="240" r="12" fill="rgb(172,209,27)" opacity="0.35"/>
<circle cx="384" cy="240" r="9" fill="rgb(172,209,27)"/>
<circle cx="24" cy="264" r="12" fill="rgb(0,180,224)" opacity="0.35"/>
<circle cx="24" cy="264" r="9" fill="rgb(0,180,224)"/>
<circle cx="48" cy="264" r="12" fill="rgb(0,183,207)" opacity="0.35"/>
<circle cx="48" cy="264" r="9" fill="rgb(0,183,207)"/>
<circle cx="72" cy="264" r="12" fill="rgb(0,185,188)" opacity="0.35"/>
<circle cx="72" cy="264" r="9" fill="rgb(0,185,188)"/>
<circle cx="96" cy="264" r="12" fill="rgb(0,188,169)" opacity="0.35"/>
<circle cx="96" cy="264" r="9" fill="rgb(0,188,169)"/>
<circle cx="120" cy="264" r="12" fill="rgb(0,191,149)" opacity="0.35"/>
<circle cx="120" cy="264" r="9" fill="rgb(0,191,149)"/>
<circle cx="144" cy="264" r="12" fill="rgb(0,193,130)" opacity="0.35"/>
<circle cx="144" cy="264" r="9" fill="rgb(0,193,130)"/>
<circle cx="168" cy="264" r="12" fill="rgb(0,196,110)" opacity="0.35"/>
<circle cx="168" cy="264" r="9" fill="rgb(0,196,110)"/>
<circle cx="192" cy="264" r="12" fill="rgb(0,199,91)" opacity="0.35"/>
<circle cx="192" cy="264" r="9" fill="rgb(0,199,91)"/>
<circle cx="216" cy="264" r="12" fill="rgb(16,201,78)" opacity="0.35"/>
<circle cx="216" cy="264" r="9" fill="rgb(16,201,78)"/>
<circle cx="240" cy="264" r="12" fill="rgb(42,202,69)" opacity="0.35"/>
<circle cx="240" cy="264" r="9" fill="rgb(42,202,69)"/>
<circle cx="264" cy="264" r="12" fill="rgb(67,203,61)" opacity="0.35"/>
<circle cx="264" cy="264" r="9" fill="rgb(67,203,61)"/>
<circle cx="288" cy="264" r="12" fill="rgb(90,205,54)" opacity="0.35"/>
<circle cx="288" cy="264" r="9" fill="rgb(90,205,54)"/>
<circle cx="312" cy="264" r="12" fill="rgb(110,206,47)" opacity="0.35"/>
<circle cx="312" cy="264" r="9" fill="rgb(110,206,47)"/>
<circle cx="336" cy="264" r="12" fill="rgb(129,207,41)" opacity="0.35"/>
<circle cx="336" cy="264" r="9" fill="rgb(129,207,41)"/>
<circle cx="360" cy="264" r="12" fill="rgb(145,207,36)" opacity="0.35"/>
<circle cx="360" cy="264" r="9" fill="rgb(145,207,36)"/>
<circle cx="384" cy="264" r="12" fill="rgb(160,208,31)" opacity="0.35"/>
<circle cx="384" cy="264" r="9" fill="rgb(160,208,31)"/>
<circle cx="24" cy="288" r="12" fill="rgb(0,179,234)" opacity="0.35"/>
<circle cx="24" cy="288" r="9" fill="rgb(0,179,234)"/>
<circle cx="48" cy="288" r="12" fill="rgb(0,181,217)" opacity="0.35"/>
<circle cx="48" cy="288" r="9" fill="rgb(0,181,217)"/>
<circle cx="72" cy="288" r="12" fill="rgb(0,184,199)" opacity="0.35"/>
<circle cx="72" cy="288" r="9" fill="rgb(0,184,199)"/>
<circle cx="96" cy="288" r="12" fill="rgb(0,187,179)" opacity="0.35"/>
<circle cx="96" cy="288" r="9" fill="rgb(0,187,179)"/>
<circle cx="120" cy="288" r="12" fill="rgb(0,189,160)" opacity="0.35"/>
<circle cx="120" cy="288" r="9" fill="rgb(0,189,160)"/>
<circle cx="144" cy="288" r="12" fill="rgb(0,192,140)" opacity="0.35"/>
<circle cx="144" cy="288" r="9" fill="rgb(0,192,140)"/>
<circle cx="168" cy="288" r="12" fill="rgb(0,195,120)" opacity="0.35"/>
<circle cx="168" cy="288" r="9" fill="rgb(0,195,120)"/>
<circle cx="192" cy="288" r="12" fill="rgb(0,198,101)" opacity="0.35"/>
<circle cx="192" cy="288" r="9" fill="rgb(0,198,101)"/>
<circle cx="216" cy="288" r="12" fill="rgb(1,200,83)" opacity="0.35"/>
<circle cx="216" cy="288" r="9" fill="rgb(1,200,83)"/>
<circle cx="240" cy="288" r="12" fill="rgb(28,201,74)" opacity="0.35"/>
<circle cx="240" cy="288" r="9" fill="rgb(28,201,74)"/>
<circle cx="264" cy="288" r="12" fill="rgb(53,203,66)" opacity="0.35"/>
<circle cx="264" cy="288" r="9" fill="rgb(53,203,66)"/>
<circle cx="288" cy="288" r="12" fill="rgb(76,204,58)" opacity="0.35"/>
<circle cx="288" cy="288" r="9" fill="rgb(76,204,58)"/>
<circle cx="312" cy="288" r="12" fill="rgb(97,205,52)" opacity="0.35"/>
<circle cx="312" cy="288" r="9" fill="rgb(97,205,52)"/>
<circle cx="336" cy="288" r="12" fill="rgb(115,206,45)" opacity="0.35"/>
<circle cx="336" cy="288" r="9" fill="rgb(115,206,45)"/>
<circle cx="360" cy="288" r="12" fill="rgb(132,207,40)" opacity="0.35"/>
<circle cx="360" cy="288" r="9" fill="rgb(132,207,40)"/>
<circle cx="384" cy="288" r="12" fill="rgb(147,207,35)" opacity="0.35"/>
<circle cx="384" cy="288" r="9" fill="rgb(147,207,35)"/>
<circle cx="24" cy="312" r="12" fill="rgb(0,178,244)" opacity="0.35"/>
<circle cx="24" cy="312" r="9" fill="rgb(0,178,244)"/>
<circle cx="48" cy="312" r="12" fill="rgb(0,180,227)" opacity="0.35"/>
<circle cx="48" cy="312" r="9" fill="rgb(0,180,227)"/>
<circle cx="72" cy="312" r="12" fill="rgb(0,183,208)" opacity="0.35"/>
<circle cx="72" cy="312" r="9" fill="rgb(0,183,208)"/>
<circle cx="96" cy="312" r="12" fill="rgb(0,185,189)" opacity="0.35"/>
<circle cx="96" cy="312" r="9" fill="rgb(0,185,189)"/>
<circle cx="120" cy="312" r="12" fill="rgb(0,188,169)" opacity="0.35"/>
<circle cx="120" cy="312" r="9" fill="rgb(0,188,169)"/>
<circle cx="144" cy="312" r="12" fill="rgb(0,191,150)" opacity="0.35"/>
<circle cx="144" cy="312" r="9" fill="rgb(0,191,150)"/>
<circle cx="168" cy="312" r="12" fill="rgb(0,193,130)" opacity="0.35"/>
<circle cx="168" cy="312" r="9" fill="rgb(0,193,130)"/>
<circle cx="192" cy="312" r="12" fill="rgb(0,196,110)" opacity="0.35"/>
<circle cx="192" cy="312" r="9" fill="rgb(0,196,110)"/>
<circle cx="216" cy="312" r="12" fill="rgb(0,199,91)" opacity="0.35"/>
<circle cx="216" cy="312" r="9" fill="rgb(0,199,91)"/>
<circle cx="240" cy="312" r="12" fill="rgb(14,201,78)" opacity="0.35"/>
<circle cx="240" cy="312" r="9" fill="rgb(14,201,78)"/>
<circle cx="264" cy="312" r="12" fill="rgb(39,202,70)" opacity="0.35"/>
<circle cx="264" cy="312" r="9" fill="rgb(39,202,70)"/>
<circle cx="288" cy="312" r="12" fill="rgb(62,203,63)" opacity="0.35"/>
<circle cx="288" cy="312" r="9" fill="rgb(62,203,63)"/>
<circle cx="312" cy="312" r="12" fill="rgb(83,204,56)" opacity="0.35"/>
<circle cx="312" cy="312" r="9" fill="rgb(83,204,56)"/>
<circle cx="336" cy="312" r="12" fill="rgb(101,205,50)" opacity="0.35"/>
<circle cx="336" cy="312" r="9" fill="rgb(101,205,50)"/>
<circle cx="360" cy="312" r="12" fill="rgb(118,206,45)" opacity="0.35"/>
<circle cx="360" cy="312" r="9" fill="rgb(118,206,45)"/>
<circle cx="384" cy="312" r="12" fill="rgb(133,207,40)" opacity="0.35"/>
<circle cx="384" cy="312" r="9" fill="rgb(133,207,40)"/>
<circle cx="24" cy="336" r="12" fill="rgb(0,176,253)" opacity="0.35"/>
<circle cx="24" cy="336" r="9" fill="rgb(0,176,253)"/>
<circle cx="48" cy="336" r="12" fill="rgb(0,179,236)" opacity="0.35"/>
<circle cx="48" cy="336" r="9" fill="rgb(0,179,236)"/>
<circle cx="72" cy="336" r="12" fill="rgb(0,181,217)" opacity="0.35"/>
<circle cx="72" cy="336" r="9" fill="rgb(0,181,217)"/>
<circle cx="96" cy="336" r="12" fill="rgb(0,184,198)" opacity="0.35"/>
<circle cx="96" cy="336" r="9" fill="rgb(0,184,198)"/>
<circle cx="120" cy="336" r="12" fill="rgb(0,187,179)" opacity="0.35"/>
<circle cx="120" cy="336" r="9" fill="rgb(0,187,179)"/>
<circle cx="144" cy="336" r="12" fill="rgb(0,189,159)" opacity="0.35"/>
<circle cx="144" cy="336" r="9" fill="rgb(0,189,159)"/>
<circle cx="168" cy="336" r="12" fill="rgb(0,192,139)" opacity="0.35"/>
<circle cx="168" cy="336" r="9" fill="rgb(0,192,139)"/>
<circle cx="192" cy="336" r="12" fill="rgb(0,195,119)" opacity="0.35"/>
<circle cx="192" cy="336" r="9" fill="rgb(0,195,119)"/>
<circle cx="216" cy="336" r="12" fill="rgb(0,198,101)" opacity="0.35"/>
<circle cx="216" cy="336" r="9" fill="rgb(0,198,101)"/>
<circle cx="240" cy="336" r="12" fill="rgb(0,200,83)" opacity="0.35"/>
<circle cx="240" cy="336" r="9" fill="rgb(0,200,83)"/>
<circle cx="264" cy="336" r="12" fill="rgb(25,201,75)" opacity="0.35"/>
<circle cx="264" cy="336" r="9" fill="rgb(25,201,75)"/>
<circle cx="288" cy="336" r="12" fill="rgb(47,202,68)" opacity="0.35"/>
<circle cx="288" cy="336" r="9" fill="rgb(47,202,68)"/>
<circle cx="312" cy="336" r="12" fill="rgb(68,203,61)" opacity="0.35"/>
<circle cx="312" cy="336" r="9" fill="rgb(68,203,61)"/>
<circle cx="336" cy="336" r="12" fill="rgb(87,204,55)" opacity="0.35"/>
<circle cx="336" cy="336" r="9" fill="rgb(87,204,55)"/>
<circle cx="360" cy="336" r="12" fill="rgb(103,205,49)" opacity="0.35"/>
<circle cx="360" cy="336" r="9" fill="rgb(103,205,49)"/>
<circle cx="384" cy="336" r="12" fill="rgb(118,206,45)" opacity="0.35"/>
<circle cx="384" cy="336" r="9" fill="rgb(118,206,45)"/>
<circle cx="24" cy="360" r="12" fill="rgb(2,173,255)" opacity="0.35"/>
<circle cx="24" cy="360" r="9" fill="rgb(2,173,255)"/>
<circle cx="48" cy="360" r="12" fill="rgb(0,178,244)" opacity="0.35"/>
<circle cx="48" cy="360" r="9" fill="rgb(0,178,244)"/>
<circle cx="72" cy="360" r="12" fill="rgb(0,180,226)" opacity="0.35"/>
<circle cx="72" cy="360" r="9" fill="rgb(0,180,226)"/>
<circle cx="96" cy="360" r="12" fill="rgb(0,183,207)" opacity="0.35"/>
<circle cx="96" cy="360" r="9" fill="rgb(0,183,207)"/>
<circle cx="120" cy="360" r="12" fill="rgb(0,185,187)" opacity="0.35"/>
<circle cx="120" cy="360" r="9" fill="rgb(0,185,187)"/>
<circle cx="144" cy="360" r="12" fill="rgb(0,188,168)" opacity="0.35"/>
<circle cx="144" cy="360" r="9" fill="rgb(0,188,168)"/>
<circle cx="168" cy="360" r="12" fill="rgb(0,191,148)" opacity="0.35"/>
<circle cx="168" cy="360" r="9" fill="rgb(0,191,148)"/>
<circle cx="192" cy="360" r="12" fill="rgb(0,194,128)" opacity="0.35"/>
<circle cx="192" cy="360" r="9" fill="rgb(0,194,128)"/>
<circle cx="216" cy="360" r="12" fill="rgb(0,196,110)" opacity="0.35"/>
<circle cx="216" cy="360" r="9" fill="rgb(0,196,110)"/>
<circle cx="240" cy="360" r="12" fill="rgb(0,199,92)" opacity="0.35"/>
<circle cx="240" cy="360" r="9" fill="rgb(0,199,92)"/>
<circle cx="264" cy="360" r="12" fill="rgb(10,201,80)" opacity="0.35"/>
<circle cx="264" cy="360" r="9" fill="rgb(10,201,80)"/>
<circle cx="288" cy="360" r="12" fill="rgb(33,202,72)" opacity="0.35"/>
<circle cx="288" cy="360" r="9" fill="rgb(33,202,72)"/>
<circle cx="312" cy="360" r="12" fill="rgb(53,203,66)" opacity="0.35"/>
<circle cx="312" cy="360" r="9" fill="rgb(53,203,66)"/>
<circle cx="336" cy="360" r="12" fill="rgb(72,204,60)" opacity="0.35"/>
<circle cx="336" cy="360" r="9" fill="rgb(72,204,60)"/>
<circle cx="360" cy="360" r="12" fill="rgb(88,204,54)" opacity="0.35"/>
<circle cx="360" cy="360" r="9" fill="rgb(88,204,54)"/>
<circle cx="384" cy="360" r="12" fill="rgb(102,205,50)" opacity="0.35"/>
<circle cx="384" cy="360" r="9" fill="rgb(102,205,50)"/>
<circle cx="24" cy="384" r="12" fill="rgb(4,168,255)" opacity="0.35"/>
<circle cx="24" cy="384" r="9" fill="rgb(4,168,255)"/>
<circle cx="48" cy="384" r="12" fill="rgb(0,176,252)" opacity="0.35"/>
<circle cx="48" cy="384" r="9" fill="rgb(0,176,252)"/>
<circle cx="72" cy="384" r="12" fill="rgb(0,179,234)" opacity="0.35"/>
<circle cx="72" cy="384" r="9" fill="rgb(0,179,234)"/>
<circle cx="96" cy="384" r="12" fill="rgb(0,182,215)" opacity="0.35"/>
<circle cx="96" cy="384" r="9" fill="rgb(0,182,215)"/>
<circle cx="120" cy="384" r="12" fill="rgb(0,184,196)" opacity="0.35"/>
<circle cx="120" cy="384" r="9" fill="rgb(0,184,196)"/>
<circle cx="144" cy="384" r="12" fill="rgb(0,187,176)" opacity="0.35"/>
<circle cx="144" cy="384" r="9" fill="rgb(0,187,176)"/>
<circle cx="168" cy="384" r="12" fill="rgb(0,190,157)" opacity="0.35"/>
<circle cx="168" cy="384" r="9" fill="rgb(0,190,157)"/>
<circle cx="192" cy="384" r="12" fill="rgb(0,192,138)" opacity="0.35"/>
<circle cx="192" cy="384" r="9" fill="rgb(0,192,138)"/>
<circle cx="216" cy="384" r="12" fill="rgb(0,195,119)" opacity="0.35"/>
<circle cx="216" cy="384" r="9" fill="rgb(0,195,119)"/>
<circle cx="240" cy="384" r="12" fill="rgb(0,197,102)" opacity="0.35"/>
<circle cx="240" cy="384" r="9" fill="rgb(0,197,102)"/>
<circle cx="264" cy="384" r="12" fill="rgb(0,200,86)" opacity="0.35"/>
<circle cx="264" cy="384" r="9" fill="rgb(0,200,86)"/>
<circle cx="288" cy="384" r="12" fill="rgb(18,201,77)" opacity="0.35"/>
<circle cx="288" cy="384" r="9" fill="rgb(18,201,77)"/>
<circle cx="312" cy="384" r="12" fill="rgb(38,202,71)" opacity="0.35"/>
<circle cx="312" cy="384" r="9" fill="rgb(38,202,71)"/>
<circle cx="336" cy="384" r="12" fill="rgb(56,203,65)" opacity="0.35"/>
<circle cx="336" cy="384" r="9" fill="rgb(56,203,65)"/>
<circle cx="360" cy="384" r="12" fill="rgb(72,204,60)" opacity="0.35"/>
<circle cx="360" cy="384" r="9" fill="rgb(72,204,60)"/>
<circle cx="384" cy="384" r="12" fill="rgb(86,204,55)" opacity="0.35"/>
<circle cx="384" cy="384" r="9" fill="rgb(86,204,55)"/>
</svg>
