<svg xmlns="http://www.w3.org/2000/svg" viewBox="0 0 408 408" width="408" height="408" role="img" aria-label="LED preview of the Fractal Noise example graph">
<rect width="408" height="408" rx="10" fill="#05070a"/>
<circle cx="24" cy="24" r="12" fill="rgb(45,106,79)" opacity="0.35"/>
<circle cx="24" cy="24" r="9" fill="rgb(45,106,79)"/>
<circle cx="48" cy="24" r="12" fill="rgb(30,74,55)" opacity="0.35"/>
<circle cx="48" cy="24" r="9" fill="rgb(30,74,55)"/>
<circle cx="72" cy="24" r="12" fill="rgb(38,91,68)" opacity="0.35"/>
<circle cx="72" cy="24" r="9" fill="rgb(38,91,68)"/>
<circle cx="96" cy="24" r="12" fill="rgb(46,108,80)" opacity="0.35"/>
<circle cx="96" cy="24" r="9" fill="rgb(46,108,80)"/>
<circle cx="120" cy="24" r="12" fill="rgb(62,142,106)" opacity="0.35"/>
<circle cx="120" cy="24" r="9" fill="rgb(62,142,106)"/>
<circle cx="144" cy="24" r="12" fill="rgb(70,158,118)" opacity="0.35"/>
<circle cx="144" cy="24" r="9" fill="rgb(70,158,118)"/>
<circle cx="168" cy="24" r="12" fill="rgb(49,114,85)" opacity="0.35"/>
<circle cx="168" cy="24" r="9" fill="rgb(49,114,85)"/>
<circle cx="192" cy="24" r="12" fill="rgb(57,132,98)" opacity="0.35"/>
<circle cx="192" cy="24" r="9" fill="rgb(57,132,98)"/>
<circle cx="216" cy="24" r="12" fill="rgb(48,112,83)" opacity="0.35"/>
<circle cx="216" cy="24" r="9" fill="rgb(48,112,83)"/>
<circle cx="240" cy="24" r="12" fill="rgb(32,77,57)" opacity="0.35"/>
<circle cx="240" cy="24" r="9" fill="rgb(32,77,57)"/>
<circle cx="264" cy="24" r="12" fill="rgb(49,114,85)" opacity="0.35"/>
<circle cx="264" cy="24" r="9" fill="rgb(49,114,85)"/>
<circle cx="288" cy="24" r="12" fill="rgb(42,99,73)" opacity="0.35"/>
<circle cx="288" cy="24" r="9" fill="rgb(42,99,73)"/>
<circle cx="312" cy="24" r="12" fill="rgb(28,69,52)" opacity="0.35"/>
<circle cx="312" cy="24" r="9" fill="rgb(28,69,52)"/>
<circle cx="336" cy="24" r="12" fill="rgb(36,87,65)" opacity="0.35"/>
<circle cx="336" cy="24" r="9" fill="rgb(36,87,65)"/>
<circle cx="360" cy="24" r="12" fill="rgb(61,140,104)" opacity="0.35"/>
<circle cx="360" cy="24" r="9" fill="rgb(61,140,104)"/>
<circle cx="384" cy="24" r="12" fill="rgb(81,181,135)" opacity="0.35"/>
<circle cx="384" cy="24" r="9" fill="rgb(81,181,135)"/>
<circle cx="24" cy="48" r="12" fill="rgb(82,183,136)" opacity="0.35"/>
<circle cx="24" cy="48" r="9" fill="rgb(82,183,136)"/>
<circle cx="48" cy="48" r="12" fill="rgb(41,97,72)" opacity="0.35"/>
<circle cx="48" cy="48" r="9" fill="rgb(41,97,72)"/>
<circle cx="72" cy="48" r="12" fill="rgb(32,77,58)" opacity="0.35"/>
<circle cx="72" cy="48" r="9" fill="rgb(32,77,58)"/>
<circle cx="96" cy="48" r="12" fill="rgb(39,93,69)" opacity="0.35"/>
<circle cx="96" cy="48" r="9" fill="rgb(39,93,69)"/>
<circle cx="120" cy="48" r="12" fill="rgb(35,84,63)" opacity="0.35"/>
<circle cx="120" cy="48" r="9" fill="rgb(35,84,63)"/>
<circle cx="144" cy="48" r="12" fill="rgb(75,167,124)" opacity="0.35"/>
<circle cx="144" cy="48" r="9" fill="rgb(75,167,124)"/>
<circle cx="168" cy="48" r="12" fill="rgb(46,107,80)" opacity="0.35"/>
<circle cx="168" cy="48" r="9" fill="rgb(46,107,80)"/>
<circle cx="192" cy="48" r="12" fill="rgb(31,75,56)" opacity="0.35"/>
<circle cx="192" cy="48" r="9" fill="rgb(31,75,56)"/>
<circle cx="216" cy="48" r="12" fill="rgb(34,82,61)" opacity="0.35"/>
<circle cx="216" cy="48" r="9" fill="rgb(34,82,61)"/>
<circle cx="240" cy="48" r="12" fill="rgb(36,87,65)" opacity="0.35"/>
<circle cx="240" cy="48" r="9" fill="rgb(36,87,65)"/>
<circle cx="264" cy="48" r="12" fill="rgb(41,98,73)" opacity="0.35"/>
<circle cx="264" cy="48" r="9" fill="rgb(41,98,73)"/>
<circle cx="288" cy="48" r="12" fill="rgb(57,131,98)" opacity="0.35"/>
<circle cx="288" cy="48" r="9" fill="rgb(57,131,98)"/>
<circle cx="312" cy="48" r="12" fill="rgb(36,86,64)" opacity="0.35"/>
<circle cx="312" cy="48" r="9" fill="rgb(36,86,64)"/>
<circle cx="336" cy="48" r="12" fill="rgb(24,61,45)" opacity="0.35"/>
<circle cx="336" cy="48" r="9" fill="rgb(24,61,45)"/>
<circle cx="360" cy="48" r="12" fill="rgb(33,80,60)" opacity="0.35"/>
<circle cx="360" cy="48" r="9" fill="rgb(33,80,60)"/>
<circle cx="384" cy="48" r="12" fill="rgb(80,179,133)" opacity="0.35"/>
<circle cx="384" cy="48" r="9" fill="rgb(80,179,133)"/>
<circle cx="24" cy="72" r="12" fill="rgb(74,166,123)" opacity="0.35"/>
<circle cx="24" cy="72" r="9" fill="rgb(74,166,123)"/>
<circle cx="48" cy="72" r="12" fill="rgb(40,94,70)" opacity="0.35"/>
<circle cx="48" cy="72" r="9" fill="rgb(40,94,70)"/>
<circle cx="72" cy="72" r="12" fill="rgb(36,87,65)" opacity="0.35"/>
<circle cx="72" cy="72" r="9" fill="rgb(36,87,65)"/>
<circle cx="96" cy="72" r="12" fill="rgb(32,77,57)" opacity="0.35"/>
<circle cx="96" cy="72" r="9" fill="rgb(32,77,57)"/>
<circle cx="120" cy="72" r="12" fill="rgb(35,84,62)" opacity="0.35"/>
<circle cx="120" cy="72" r="9" fill="rgb(35,84,62)"/>
<circle cx="144" cy="72" r="12" fill="rgb(64,145,108)" opacity="0.35"/>
<circle cx="144" cy="72" r="9" fill="rgb(64,145,108)"/>
<circle cx="168" cy="72" r="12" fill="rgb(49,115,86)" opacity="0.35"/>
<circle cx="168" cy="72" r="9" fill="rgb(49,115,86)"/>
<circle cx="192" cy="72" r="12" fill="rgb(36,86,64)" opacity="0.35"/>
<circle cx="192" cy="72" r="9" fill="rgb(36,86,64)"/>
<circle cx="216" cy="72" r="12" fill="rgb(25,64,47)" opacity="0.35"/>
<circle cx="216" cy="72" r="9" fill="rgb(25,64,47)"/>
<circle cx="240" cy="72" r="12" fill="rgb(45,107,80)" opacity="0.35"/>
<circle cx="240" cy="72" r="9" fill="rgb(45,107,80)"/>
<circle cx="264" cy="72" r="12" fill="rgb(77,173,128)" opacity="0.35"/>
<circle cx="264" cy="72" r="9" fill="rgb(77,173,128)"/>
<circle cx="288" cy="72" r="12" fill="rgb(70,157,117)" opacity="0.35"/>
<circle cx="288" cy="72" r="9" fill="rgb(70,157,117)"/>
<circle cx="312" cy="72" r="12" fill="rgb(35,84,63)" opacity="0.35"/>
<circle cx="312" cy="72" r="9" fill="rgb(35,84,63)"/>
<circle cx="336" cy="72" r="12" fill="rgb(26,64,48)" opacity="0.35"/>
<circle cx="336" cy="72" r="9" fill="rgb(26,64,48)"/>
<circle cx="360" cy="72" r="12" fill="rgb(31,76,57)" opacity="0.35"/>
<circle cx="360" cy="72" r="9" fill="rgb(31,76,57)"/>
<circle cx="384" cy="72" r="12" fill="rgb(49,114,85)" opacity="0.35"/>
<circle cx="384" cy="72" r="9" fill="rgb(49,114,85)"/>
<circle cx="24" cy="96" r="12" fill="rgb(59,134,100)" opacity="0.35"/>
<circle cx="24" cy="96" r="9" fill="rgb(59,134,100)"/>
<circle cx="48" cy="96" r="12" fill="rgb(40,95,71)" opacity="0.35"/>
<circle cx="48" cy="96" r="9" fill="rgb(40,95,71)"/>
<circle cx="72" cy="96" r="12" fill="rgb(34,81,61)" opacity="0.35"/>
<circle cx="72" cy="96" r="9" fill="rgb(34,81,61)"/>
<circle cx="96" cy="96" r="12" fill="rgb(25,63,47)" opacity="0.35"/>
<circle cx="96" cy="96" r="9" fill="rgb(25,63,47)"/>
<circle cx="120" cy="96" r="12" fill="rgb(33,80,60)" opacity="0.35"/>
<circle cx="120" cy="96" r="9" fill="rgb(33,80,60)"/>
<circle cx="144" cy="96" r="12" fill="rgb(46,109,81)" opacity="0.35"/>
<circle cx="144" cy="96" r="9" fill="rgb(46,109,81)"/>
<circle cx="168" cy="96" r="12" fill="rgb(55,127,95)" opacity="0.35"/>
<circle cx="168" cy="96" r="9" fill="rgb(55,127,95)"/>
<circle cx="192" cy="96" r="12" fill="rgb(38,92,68)" opacity="0.35"/>
<circle cx="192" cy="96" r="9" fill="rgb(38,92,68)"/>
<circle cx="216" cy="96" r="12" fill="rgb(33,79,59)" opacity="0.35"/>
<circle cx="216" cy="96" r="9" fill="rgb(33,79,59)"/>
<circle cx="240" cy="96" r="12" fill="rgb(40,95,71)" opacity="0.35"/>
<circle cx="240" cy="96" r="9" fill="rgb(40,95,71)"/>
<circle cx="264" cy="96" r="12" fill="rgb(81,180,134)" opacity="0.35"/>
<circle cx="264" cy="96" r="9" fill="rgb(81,180,134)"/>
<circle cx="288" cy="96" r="12" fill="rgb(64,145,108)" opacity="0.35"/>
<circle cx="288" cy="96" r="9" fill="rgb(64,145,108)"/>
<circle cx="312" cy="96" r="12" fill="rgb(50,117,87)" opacity="0.35"/>
<circle cx="312" cy="96" r="9" fill="rgb(50,117,87)"/>
<circle cx="336" cy="96" r="12" fill="rgb(35,83,62)" opacity="0.35"/>
<circle cx="336" cy="96" r="9" fill="rgb(35,83,62)"/>
<circle cx="360" cy="96" r="12" fill="rgb(24,61,45)" opacity="0.35"/>
<circle cx="360" cy="96" r="9" fill="rgb(24,61,45)"/>
<circle cx="384" cy="96" r="12" fill="rgb(37,88,66)" opacity="0.35"/>
<circle cx="384" cy="96" r="9" fill="rgb(37,88,66)"/>
<circle cx="24" cy="120" r="12" fill="rgb(48,113,84)" opacity="0.35"/>
<circle cx="24" cy="120" r="9" fill="rgb(48,113,84)"/>
<circle cx="48" cy="120" r="12" fill="rgb(38,91,68)" opacity="0.35"/>
<circle cx="48" cy="120" r="9" fill="rgb(38,91,68)"/>
<circle cx="72" cy="120" r="12" fill="rgb(30,74,55)" opacity="0.35"/>
<circle cx="72" cy="120" r="9" fill="rgb(30,74,55)"/>
<circle cx="96" cy="120" r="12" fill="rgb(38,92,68)" opacity="0.35"/>
<circle cx="96" cy="120" r="9" fill="rgb(38,92,68)"/>
<circle cx="120" cy="120" r="12" fill="rgb(49,114,85)" opacity="0.35"/>
<circle cx="120" cy="120" r="9" fill="rgb(49,114,85)"/>
<circle cx="144" cy="120" r="12" fill="rgb(77,173,129)" opacity="0.35"/>
<circle cx="144" cy="120" r="9" fill="rgb(77,173,129)"/>
<circle cx="168" cy="120" r="12" fill="rgb(54,124,92)" opacity="0.35"/>
<circle cx="168" cy="120" r="9" fill="rgb(54,124,92)"/>
<circle cx="192" cy="120" r="12" fill="rgb(37,89,66)" opacity="0.35"/>
<circle cx="192" cy="120" r="9" fill="rgb(37,89,66)"/>
<circle cx="216" cy="120" r="12" fill="rgb(47,109,81)" opacity="0.35"/>
<circle cx="216" cy="120" r="9" fill="rgb(47,109,81)"/>
<circle cx="240" cy="120" r="12" fill="rgb(52,120,90)" opacity="0.35"/>
<circle cx="240" cy="120" r="9" fill="rgb(52,120,90)"/>
<circle cx="264" cy="120" r="12" fill="rgb(100,191,147)" opacity="0.35"/>
<circle cx="264" cy="120" r="9" fill="rgb(100,191,147)"/>
<circle cx="288" cy="120" r="12" fill="rgb(75,168,125)" opacity="0.35"/>
<circle cx="288" cy="120" r="9" fill="rgb(75,168,125)"/>
<circle cx="312" cy="120" r="12" fill="rgb(63,143,107)" opacity="0.35"/>
<circle cx="312" cy="120" r="9" fill="rgb(63,143,107)"/>
<circle cx="336" cy="120" r="12" fill="rgb(71,160,119)" opacity="0.35"/>
<circle cx="336" cy="120" r="9" fill="rgb(71,160,119)"/>
<circle cx="360" cy="120" r="12" fill="rgb(54,126,94)" opacity="0.35"/>
<circle cx="360" cy="120" r="9" fill="rgb(54,126,94)"/>
<circle cx="384" cy="120" r="12" fill="rgb(35,84,63)" opacity="0.35"/>
<circle cx="384" cy="120" r="9" fill="rgb(35,84,63)"/>
<circle cx="24" cy="144" r="12" fill="rgb(54,124,93)" opacity="0.35"/>
<circle cx="24" cy="144" r="9" fill="rgb(54,124,93)"/>
<circle cx="48" cy="144" r="12" fill="rgb(47,110,82)" opacity="0.35"/>
<circle cx="48" cy="144" r="9" fill="rgb(47,110,82)"/>
<circle cx="72" cy="144" r="12" fill="rgb(46,109,81)" opacity="0.35"/>
<circle cx="72" cy="144" r="9" fill="rgb(46,109,81)"/>
<circle cx="96" cy="144" r="12" fill="rgb(49,115,86)" opacity="0.35"/>
<circle cx="96" cy="144" r="9" fill="rgb(49,115,86)"/>
<circle cx="120" cy="144" r="12" fill="rgb(76,170,127)" opacity="0.35"/>
<circle cx="120" cy="144" r="9" fill="rgb(76,170,127)"/>
<circle cx="144" cy="144" r="12" fill="rgb(103,192,149)" opacity="0.35"/>
<circle cx="144" cy="144" r="9" fill="rgb(103,192,149)"/>
<circle cx="168" cy="144" r="12" fill="rgb(80,179,133)" opacity="0.35"/>
<circle cx="168" cy="144" r="9" fill="rgb(80,179,133)"/>
<circle cx="192" cy="144" r="12" fill="rgb(41,97,72)" opacity="0.35"/>
<circle cx="192" cy="144" r="9" fill="rgb(41,97,72)"/>
<circle cx="216" cy="144" r="12" fill="rgb(40,96,71)" opacity="0.35"/>
<circle cx="216" cy="144" r="9" fill="rgb(40,96,71)"/>
<circle cx="240" cy="144" r="12" fill="rgb(48,113,84)" opacity="0.35"/>
<circle cx="240" cy="144" r="9" fill="rgb(48,113,84)"/>
<circle cx="264" cy="144" r="12" fill="rgb(73,165,122)" opacity="0.35"/>
<circle cx="264" cy="144" r="9" fill="rgb(73,165,122)"/>
<circle cx="288" cy="144" r="12" fill="rgb(72,163,121)" opacity="0.35"/>
<circle cx="288" cy="144" r="9" fill="rgb(72,163,121)"/>
<circle cx="312" cy="144" r="12" fill="rgb(61,139,104)" opacity="0.35"/>
<circle cx="312" cy="144" r="9" fill="rgb(61,139,104)"/>
<circle cx="336" cy="144" r="12" fill="rgb(59,136,101)" opacity="0.35"/>
<circle cx="336" cy="144" r="9" fill="rgb(59,136,101)"/>
<circle cx="360" cy="144" r="12" fill="rgb(69,156,116)" opacity="0.35"/>
<circle cx="360" cy="144" r="9" fill="rgb(69,156,116)"/>
<circle cx="384" cy="144" r="12" fill="rgb(48,111,83)" opacity="0.35"/>
<circle cx="384" cy="144" r="9" fill="rgb(48,111,83)"/>
<circle cx="24" cy="168" r="12" fill="rgb(39,92,69)" opacity="0.35"/>
<circle cx="24" cy="168" r="9" fill="rgb(39,92,69)"/>
<circle cx="48" cy="168" r="12" fill="rgb(47,110,82)" opacity="0.35"/>
<circle cx="48" cy="168" r="9" fill="rgb(47,110,82)"/>
<circle cx="72" cy="168" r="12" fill="rgb(37,89,66)" opacity="0.35"/>
<circle cx="72" cy="168" r="9" fill="rgb(37,89,66)"/>
<circle cx="96" cy="168" r="12" fill="rgb(43,101,75)" opacity="0.35"/>
<circle cx="96" cy="168" r="9" fill="rgb(43,101,75)"/>
<circle cx="120" cy="168" r="12" fill="rgb(59,134,100)" opacity="0.35"/>
<circle cx="120" cy="168" r="9" fill="rgb(59,134,100)"/>
<circle cx="144" cy="168" r="12" fill="rgb(63,143,107)" opacity="0.35"/>
<circle cx="144" cy="168" r="9" fill="rgb(63,143,107)"/>
<circle cx="168" cy="168" r="12" fill="rgb(39,93,69)" opacity="0.35"/>
<circle cx="168" cy="168" r="9" fill="rgb(39,93,69)"/>
<circle cx="192" cy="168" r="12" fill="rgb(36,87,65)" opacity="0.35"/>
<circle cx="192" cy="168" r="9" fill="rgb(36,87,65)"/>
<circle cx="216" cy="168" r="12" fill="rgb(37,90,67)" opacity="0.35"/>
<circle cx="216" cy="168" r="9" fill="rgb(37,90,67)"/>
<circle cx="240" cy="168" r="12" fill="rgb(37,89,66)" opacity="0.35"/>
<circle cx="240" cy="168" r="9" fill="rgb(37,89,66)"/>
<circle cx="264" cy="168" r="12" fill="rgb(42,99,73)" opacity="0.35"/>
<circle cx="264" cy="168" r="9" fill="rgb(42,99,73)"/>
<circle cx="288" cy="168" r="12" fill="rgb(42,100,75)" opacity="0.35"/>
<circle cx="288" cy="168" r="9" fill="rgb(42,100,75)"/>
<circle cx="312" cy="168" r="12" fill="rgb(52,121,90)" opacity="0.35"/>
<circle cx="312" cy="168" r="9" fill="rgb(52,121,90)"/>
<circle cx="336" cy="168" r="12" fill="rgb(42,99,74)" opacity="0.35"/>
<circle cx="336" cy="168" r="9" fill="rgb(42,99,74)"/>
<circle cx="360" cy="168" r="12" fill="rgb(44,104,77)" opacity="0.35"/>
<circle cx="360" cy="168" r="9" fill="rgb(44,104,77)"/>
<circle cx="384" cy="168" r="12" fill="rgb(63,143,106)" opacity="0.35"/>
<circle cx="384" cy="168" r="9" fill="rgb(63,143,106)"/>
<circle cx="24" cy="192" r="12" fill="rgb(35,85,63)" opacity="0.35"/>
<circle cx="24" cy="192" r="9" fill="rgb(35,85,63)"/>
<circle cx="48" cy="192" r="12" fill="rgb(41,97,72)" opacity="0.35"/>
<circle cx="48" cy="192" r="9" fill="rgb(41,97,72)"/>
<circle cx="72" cy="192" r="12" fill="rgb(38,91,68)" opacity="0.35"/>
<circle cx="72" cy="192" r="9" fill="rgb(38,91,68)"/>
<circle cx="96" cy="192" r="12" fill="rgb(41,97,72)" opacity="0.35"/>
<circle cx="96" cy="192" r="9" fill="rgb(41,97,72)"/>
<circle cx="120" cy="192" r="12" fill="rgb(51,118,88)" opacity="0.35"/>
<circle cx="120" cy="192" r="9" fill="rgb(51,118,88)"/>
<circle cx="144" cy="192" r="12" fill="rgb(40,95,71)" opacity="0.35"/>
<circle cx="144" cy="192" r="9" fill="rgb(40,95,71)"/>
<circle cx="168" cy="192" r="12" fill="rgb(38,90,67)" opacity="0.35"/>
<circle cx="168" cy="192" r="9" fill="rgb(38,90,67)"/>
<circle cx="192" cy="192" r="12" fill="rgb(39,92,69)" opacity="0.35"/>
<circle cx="192" cy="192" r="9" fill="rgb(39,92,69)"/>
<circle cx="216" cy="192" r="12" fill="rgb(50,116,87)" opacity="0.35"/>
<circle cx="216" cy="192" r="9" fill="rgb(50,116,87)"/>
<circle cx="240" cy="192" r="12" fill="rgb(39,92,69)" opacity="0.35"/>
<circle cx="240" cy="192" r="9" fill="rgb(39,92,69)"/>
<circle cx="264" cy="192" r="12" fill="rgb(44,103,77)" opacity="0.35"/>
<circle cx="264" cy="192" r="9" fill="rgb(44,103,77)"/>
<circle cx="288" cy="192" r="12" fill="rgb(43,101,75)" opacity="0.35"/>
<circle cx="288" cy="192" r="9" fill="rgb(43,101,75)"/>
<circle cx="312" cy="192" r="12" fill="rgb(43,102,76)" opacity="0.35"/>
<circle cx="312" cy="192" r="9" fill="rgb(43,102,76)"/>
<circle cx="336" cy="192" r="12" fill="rgb(42,100,75)" opacity="0.35"/>
<circle cx="336" cy="192" r="9" fill="rgb(42,100,75)"/>
<circle cx="360" cy="192" r="12" fill="rgb(30,74,55)" opacity="0.35"/>
<circle cx="360" cy="192" r="9" fill="rgb(30,74,55)"/>
<circle cx="384" cy="192" r="12" fill="rgb(40,96,71)" opacity="0.35"/>
<circle cx="384" cy="192" r="9" fill="rgb(40,96,71)"/>
<circle cx="24" cy="216" r="12" fill="rgb(34,81,61)" opacity="0.35"/>
<circle cx="24" cy="216" r="9" fill="rgb(34,81,61)"/>
<circle cx="48" cy="216" r="12" fill="rgb(37,89,66)" opacity="0.35"/>
<circle cx="48" cy="216" r="9" fill="rgb(37,89,66)"/>
<circle cx="72" cy="216" r="12" fill="rgb(35,85,64)" opacity="0.35"/>
<circle cx="72" cy="216" r="9" fill="rgb(35,85,64)"/>
<circle cx="96" cy="216" r="12" fill="rgb(40,96,71)" opacity="0.35"/>
<circle cx="96" cy="216" r="9" fill="rgb(40,96,71)"/>
<circle cx="120" cy="216" r="12" fill="rgb(35,85,64)" opacity="0.35"/>
<circle cx="120" cy="216" r="9" fill="rgb(35,85,64)"/>
<circle cx="144" cy="216" r="12" fill="rgb(36,86,64)" opacity="0.35"/>
<circle cx="144" cy="216" r="9" fill="rgb(36,86,64)"/>
<circle cx="168" cy="216" r="12" fill="rgb(47,110,82)" opacity="0.35"/>
<circle cx="168" cy="216" r="9" fill="rgb(47,110,82)"/>
<circle cx="192" cy="216" r="12" fill="rgb(42,101,75)" opacity="0.35"/>
<circle cx="192" cy="216" r="9" fill="rgb(42,101,75)"/>
<circle cx="216" cy="216" r="12" fill="rgb(42,99,74)" opacity="0.35"/>
<circle cx="216" cy="216" r="9" fill="rgb(42,99,74)"/>
<circle cx="240" cy="216" r="12" fill="rgb(55,126,94)" opacity="0.35"/>
<circle cx="240" cy="216" r="9" fill="rgb(55,126,94)"/>
<circle cx="264" cy="216" r="12" fill="rgb(56,128,95)" opacity="0.35"/>
<circle cx="264" cy="216" r="9" fill="rgb(56,128,95)"/>
<circle cx="288" cy="216" r="12" fill="rgb(39,94,70)" opacity="0.35"/>
<circle cx="288" cy="216" r="9" fill="rgb(39,94,70)"/>
<circle cx="312" cy="216" r="12" fill="rgb(31,75,56)" opacity="0.35"/>
<circle cx="312" cy="216" r="9" fill="rgb(31,75,56)"/>
<circle cx="336" cy="216" r="12" fill="rgb(28,68,51)" opacity="0.35"/>
<circle cx="336" cy="216" r="9" fill="rgb(28,68,51)"/>
<circle cx="360" cy="216" r="12" fill="rgb(26,66,49)" opacity="0.35"/>
<circle cx="360" cy="216" r="9" fill="rgb(26,66,49)"/>
<circle cx="384" cy="216" r="12" fill="rgb(36,87,65)" opacity="0.35"/>
<circle cx="384" cy="216" r="9" fill="rgb(36,87,65)"/>
<circle cx="24" cy="240" r="12" fill="rgb(40,96,71)" opacity="0.35"/>
<circle cx="24" cy="240" r="9" fill="rgb(40,96,71)"/>
<circle cx="48" cy="240" r="12" fill="rgb(47,111,83)" opacity="0.35"/>
<circle cx="48" cy="240" r="9" fill="rgb(47,111,83)"/>
<circle cx="72" cy="240" r="12" fill="rgb(42,100,75)" opacity="0.35"/>
<circle cx="72" cy="240" r="9" fill="rgb(42,100,75)"/>
<circle cx="96" cy="240" r="12" fill="rgb(47,110,82)" opacity="0.35"/>
<circle cx="96" cy="240" r="9" fill="rgb(47,110,82)"/>
<circle cx="120" cy="240" r="12" fill="rgb(49,115,86)" opacity="0.35"/>
<circle cx="120" cy="240" r="9" fill="rgb(49,115,86)"/>
<circle cx="144" cy="240" r="12" fill="rgb(61,138,103)" opacity="0.35"/>
<circle cx="144" cy="240" r="9" fill="rgb(61,138,103)"/>
<circle cx="168" cy="240" r="12" fill="rgb(56,129,96)" opacity="0.35"/>
<circle cx="168" cy="240" r="9" fill="rgb(56,129,96)"/>
<circle cx="192" cy="240" r="12" fill="rgb(62,141,105)" opacity="0.35"/>
<circle cx="192" cy="240" r="9" fill="rgb(62,141,105)"/>
<circle cx="216" cy="240" r="12" fill="rgb(61,139,104)" opacity="0.35"/>
<circle cx="216" cy="240" r="9" fill="rgb(61,139,104)"/>
<circle cx="240" cy="240" r="12" fill="rgb(72,162,120)" opacity="0.35"/>
<circle cx="240" cy="240" r="9" fill="rgb(72,162,120)"/>
<circle cx="264" cy="240" r="12" fill="rgb(54,124,92)" opacity="0.35"/>
<circle cx="264" cy="240" r="9" fill="rgb(54,124,92)"/>
<circle cx="288" cy="240" r="12" fill="rgb(56,129,96)" opacity="0.35"/>
<circle cx="288" cy="240" r="9" fill="rgb(56,129,96)"/>
<circle cx="312" cy="240" r="12" fill="rgb(50,116,86)" opacity="0.35"/>
<circle cx="312" cy="240" r="9" fill="rgb(50,116,86)"/>
<circle cx="336" cy="240" r="12" fill="rgb(46,109,81)" opacity="0.35"/>
<circle cx="336" cy="240" r="9" fill="rgb(46,109,81)"/>
<circle cx="360" cy="240" r="12" fill="rgb(38,90,67)" opacity="0.35"/>
<circle cx="360" cy="240" r="9" fill="rgb(38,90,67)"/>
<circle cx="384" cy="240" r="12" fill="rgb(42,100,75)" opacity="0.35"/>
<circle cx="384" cy="240" r="9" fill="rgb(42,100,75)"/>
<circle cx="24" cy="264" r="12" fill="rgb(52,120,89)" opacity="0.35"/>
<circle cx="24" cy="264" r="9" fill="rgb(52,120,89)"/>
<circle cx="48" cy="264" r="12" fill="rgb(63,144,107)" opacity="0.35"/>
<circle cx="48" cy="264" r="9" fill="rgb(63,144,107)"/>
<circle cx="72" cy="264" r="12" fill="rgb(54,125,93)" opacity="0.35"/>
<circle cx="72" cy="264" r="9" fill="rgb(54,125,93)"/>
<circle cx="96" cy="264" r="12" fill="rgb(75,168,125)" opacity="0.35"/>
<circle cx="96" cy="264" r="9" fill="rgb(75,168,125)"/>
<circle cx="120" cy="264" r="12" fill="rgb(59,135,101)" opacity="0.35"/>
<circle cx="120" cy="264" r="9" fill="rgb(59,135,101)"/>
<circle cx="144" cy="264" r="12" fill="rgb(70,157,117)" opacity="0.35"/>
<circle cx="144" cy="264" r="9" fill="rgb(70,157,117)"/>
<circle cx="168" cy="264" r="12" fill="rgb(43,101,75)" opacity="0.35"/>
<circle cx="168" cy="264" r="9" fill="rgb(43,101,75)"/>
<circle cx="192" cy="264" r="12" fill="rgb(41,98,73)" opacity="0.35"/>
<circle cx="192" cy="264" r="9" fill="rgb(41,98,73)"/>
<circle cx="216" cy="264" r="12" fill="rgb(58,133,99)" opacity="0.35"/>
<circle cx="216" cy="264" r="9" fill="rgb(58,133,99)"/>
<circle cx="240" cy="264" r="12" fill="rgb(72,161,120)" opacity="0.35"/>
<circle cx="240" cy="264" r="9" fill="rgb(72,161,120)"/>
<circle cx="264" cy="264" r="12" fill="rgb(61,139,103)" opacity="0.35"/>
<circle cx="264" cy="264" r="9" fill="rgb(61,139,103)"/>
<circle cx="288" cy="264" r="12" fill="rgb(73,165,122)" opacity="0.35"/>
<circle cx="288" cy="264" r="9" fill="rgb(73,165,122)"/>
<circle cx="312" cy="264" r="12" fill="rgb(81,180,134)" opacity="0.35"/>
<circle cx="312" cy="264" r="9" fill="rgb(81,180,134)"/>
<circle cx="336" cy="264" r="12" fill="rgb(56,129,96)" opacity="0.35"/>
<circle cx="336" cy="264" r="9" fill="rgb(56,129,96)"/>
<circle cx="360" cy="264" r="12" fill="rgb(40,95,71)" opacity="0.35"/>
<circle cx="360" cy="264" r="9" fill="rgb(40,95,71)"/>
<circle cx="384" cy="264" r="12" fill="rgb(45,106,79)" opacity="0.35"/>
<circle cx="384" cy="264" r="9" fill="rgb(45,106,79)"/>
<circle cx="24" cy="288" r="12" fill="rgb(42,99,74)" opacity="0.35"/>
<circle cx="24" cy="288" r="9" fill="rgb(42,99,74)"/>
<circle cx="48" cy="288" r="12" fill="rgb(50,116,87)" opacity="0.35"/>
<circle cx="48" cy="288" r="9" fill="rgb(50,116,87)"/>
<circle cx="72" cy="288" r="12" fill="rgb(75,167,124)" opacity="0.35"/>
<circle cx="72" cy="288" r="9" fill="rgb(75,167,124)"/>
<circle cx="96" cy="288" r="12" fill="rgb(68,153,114)" opacity="0.35"/>
<circle cx="96" cy="288" r="9" fill="rgb(68,153,114)"/>
<circle cx="120" cy="288" r="12" fill="rgb(49,115,86)" opacity="0.35"/>
<circle cx="120" cy="288" r="9" fill="rgb(49,115,86)"/>
<circle cx="144" cy="288" r="12" fill="rgb(43,102,76)" opacity="0.35"/>
<circle cx="144" cy="288" r="9" fill="rgb(43,102,76)"/>
<circle cx="168" cy="288" r="12" fill="rgb(38,91,68)" opacity="0.35"/>
<circle cx="168" cy="288" r="9" fill="rgb(38,91,68)"/>
<circle cx="192" cy="288" r="12" fill="rgb(46,109,81)" opacity="0.35"/>
<circle cx="192" cy="288" r="9" fill="rgb(46,109,81)"/>
<circle cx="216" cy="288" r="12" fill="rgb(43,101,75)" opacity="0.35"/>
<circle cx="216" cy="288" r="9" fill="rgb(43,101,75)"/>
<circle cx="240" cy="288" r="12" fill="rgb(43,102,76)" opacity="0.35"/>
<circle cx="240" cy="288" r="9" fill="rgb(43,102,76)"/>
<circle cx="264" cy="288" r="12" fill="rgb(53,123,91)" opacity="0.35"/>
<circle cx="264" cy="288" r="9" fill="rgb(53,123,91)"/>
<circle cx="288" cy="288" r="12" fill="rgb(77,172,128)" opacity="0.35"/>
<circle cx="288" cy="288" r="9" fill="rgb(77,172,128)"/>
<circle cx="312" cy="288" r="12" fill="rgb(65,148,110)" opacity="0.35"/>
<circle cx="312" cy="288" r="9" fill="rgb(65,148,110)"/>
<circle cx="336" cy="288" r="12" fill="rgb(48,112,83)" opacity="0.35"/>
<circle cx="336" cy="288" r="9" fill="rgb(48,112,83)"/>
<circle cx="360" cy="288" r="12" fill="rgb(66,149,111)" opacity="0.35"/>
<circle cx="360" cy="288" r="9" fill="rgb(66,149,111)"/>
<circle cx="384" cy="288" r="12" fill="rgb(55,126,94)" opacity="0.35"/>
<circle cx="384" cy="288" r="9" fill="rgb(55,126,94)"/>
<circle cx="24" cy="312" r="12" fill="rgb(43,103,76)" opacity="0.35"/>
<circle cx="24" cy="312" r="9" fill="rgb(43,103,76)"/>
<circle cx="48" cy="312" r="12" fill="rgb(40,96,72)" opacity="0.35"/>
<circle cx="48" cy="312" r="9" fill="rgb(40,96,72)"/>
<circle cx="72" cy="312" r="12" fill="rgb(67,153,113)" opacity="0.35"/>
<circle cx="72" cy="312" r="9" fill="rgb(67,153,113)"/>
<circle cx="96" cy="312" r="12" fill="rgb(69,155,116)" opacity="0.35"/>
<circle cx="96" cy="312" r="9" fill="rgb(69,155,116)"/>
<circle cx="120" cy="312" r="12" fill="rgb(36,86,64)" opacity="0.35"/>
<circle cx="120" cy="312" r="9" fill="rgb(36,86,64)"/>
<circle cx="144" cy="312" r="12" fill="rgb(35,85,64)" opacity="0.35"/>
<circle cx="144" cy="312" r="9" fill="rgb(35,85,64)"/>
<circle cx="168" cy="312" r="12" fill="rgb(35,84,63)" opacity="0.35"/>
<circle cx="168" cy="312" r="9" fill="rgb(35,84,63)"/>
<circle cx="192" cy="312" r="12" fill="rgb(47,110,82)" opacity="0.35"/>
<circle cx="192" cy="312" r="9" fill="rgb(47,110,82)"/>
<circle cx="216" cy="312" r="12" fill="rgb(40,96,72)" opacity="0.35"/>
<circle cx="216" cy="312" r="9" fill="rgb(40,96,72)"/>
<circle cx="240" cy="312" r="12" fill="rgb(42,100,74)" opacity="0.35"/>
<circle cx="240" cy="312" r="9" fill="rgb(42,100,74)"/>
<circle cx="264" cy="312" r="12" fill="rgb(42,99,74)" opacity="0.35"/>
<circle cx="264" cy="312" r="9" fill="rgb(42,99,74)"/>
<circle cx="288" cy="312" r="12" fill="rgb(35,85,64)" opacity="0.35"/>
<circle cx="288" cy="312" r="9" fill="rgb(35,85,64)"/>
<circle cx="312" cy="312" r="12" fill="rgb(34,81,61)" opacity="0.35"/>
<circle cx="312" cy="312" r="9" fill="rgb(34,81,61)"/>
<circle cx="336" cy="312" r="12" fill="rgb(42,100,75)" opacity="0.35"/>
<circle cx="336" cy="312" r="9" fill="rgb(42,100,75)"/>
<circle cx="360" cy="312" r="12" fill="rgb(47,110,82)" opacity="0.35"/>
<circle cx="360" cy="312" r="9" fill="rgb(47,110,82)"/>
<circle cx="384" cy="312" r="12" fill="rgb(63,143,106)" opacity="0.35"/>
<circle cx="384" cy="312" r="9" fill="rgb(63,143,106)"/>
<circle cx="24" cy="336" r="12" fill="rgb(39,93,69)" opacity="0.35"/>
<circle cx="24" cy="336" r="9" fill="rgb(39,93,69)"/>
<circle cx="48" cy="336" r="12" fill="rgb(43,101,75)" opacity="0.35"/>
<circle cx="48" cy="336" r="9" fill="rgb(43,101,75)"/>
<circle cx="72" cy="336" r="12" fill="rgb(70,158,117)" opacity="0.35"/>
<circle cx="72" cy="336" r="9" fill="rgb(70,158,117)"/>
<circle cx="96" cy="336" r="12" fill="rgb(66,149,111)" opacity="0.35"/>
<circle cx="96" cy="336" r="9" fill="rgb(66,149,111)"/>
<circle cx="120" cy="336" r="12" fill="rgb(44,104,78)" opacity="0.35"/>
<circle cx="120" cy="336" r="9" fill="rgb(44,104,78)"/>
<circle cx="144" cy="336" r="12" fill="rgb(41,98,73)" opacity="0.35"/>
<circle cx="144" cy="336" r="9" fill="rgb(41,98,73)"/>
<circle cx="168" cy="336" r="12" fill="rgb(40,95,71)" opacity="0.35"/>
<circle cx="168" cy="336" r="9" fill="rgb(40,95,71)"/>
<circle cx="192" cy="336" r="12" fill="rgb(63,143,106)" opacity="0.35"/>
<circle cx="192" cy="336" r="9" fill="rgb(63,143,106)"/>
<circle cx="216" cy="336" r="12" fill="rgb(63,143,106)" opacity="0.35"/>
<circle cx="216" cy="336" r="9" fill="rgb(63,143,106)"/>
<circle cx="240" cy="336" r="12" fill="rgb(49,114,85)" opacity="0.35"/>
<circle cx="240" cy="336" r="9" fill="rgb(49,114,85)"/>
<circle cx="264" cy="336" r="12" fill="rgb(36,87,65)" opacity="0.35"/>
<circle cx="264" cy="336" r="9" fill="rgb(36,87,65)"/>
<circle cx="288" cy="336" r="12" fill="rgb(27,67,50)" opacity="0.35"/>
<circle cx="288" cy="336" r="9" fill="rgb(27,67,50)"/>
<circle cx="312" cy="336" r="12" fill="rgb(31,75,56)" opacity="0.35"/>
<circle cx="312" cy="336" r="9" fill="rgb(31,75,56)"/>
<circle cx="336" cy="336" r="12" fill="rgb(39,94,70)" opacity="0.35"/>
<circle cx="336" cy="336" r="9" fill="rgb(39,94,70)"/>
<circle cx="360" cy="336" r="12" fill="rgb(41,98,73)" opacity="0.35"/>
<circle cx="360" cy="336" r="9" fill="rgb(41,98,73)"/>
<circle cx="384" cy="336" r="12" fill="rgb(64,146,109)" opacity="0.35"/>
<circle cx="384" cy="336" r="9" fill="rgb(64,146,109)"/>
<circle cx="24" cy="360" r="12" fill="rgb(48,113,84)" opacity="0.35"/>
<circle cx="24" cy="360" r="9" fill="rgb(48,113,84)"/>
<circle cx="48" cy="360" r="12" fill="rgb(61,138,103)" opacity="0.35"/>
<circle cx="48" cy="360" r="9" fill="rgb(61,138,103)"/>
<circle cx="72" cy="360" r="12" fill="rgb(65,148,110)" opacity="0.35"/>
<circle cx="72" cy="360" r="9" fill="rgb(65,148,110)"/>
<circle cx="96" cy="360" r="12" fill="rgb(81,180,134)" opacity="0.35"/>
<circle cx="96" cy="360" r="9" fill="rgb(81,180,134)"/>
<circle cx="120" cy="360" r="12" fill="rgb(60,138,103)" opacity="0.35"/>
<circle cx="120" cy="360" r="9" fill="rgb(60,138,103)"/>
<circle cx="144" cy="360" r="12" fill="rgb(48,112,83)" opacity="0.35"/>
<circle cx="144" cy="360" r="9" fill="rgb(48,112,83)"/>
<circle cx="168" cy="360" r="12" fill="rgb(63,144,107)" opacity="0.35"/>
<circle cx="168" cy="360" r="9" fill="rgb(63,144,107)"/>
<circle cx="192" cy="360" r="12" fill="rgb(69,157,117)" opacity="0.35"/>
<circle cx="192" cy="360" r="9" fill="rgb(69,157,117)"/>
<circle cx="216" cy="360" r="12" fill="rgb(69,155,115)" opacity="0.35"/>
<circle cx="216" cy="360" r="9" fill="rgb(69,155,115)"/>
<circle cx="240" cy="360" r="12" fill="rgb(45,105,78)" opacity="0.35"/>
<circle cx="240" cy="360" r="9" fill="rgb(45,105,78)"/>
<circle cx="264" cy="360" r="12" fill="rgb(36,85,64)" opacity="0.35"/>
<circle cx="264" cy="360" r="9" fill="rgb(36,85,64)"/>
<circle cx="288" cy="360" r="12" fill="rgb(28,69,51)" opacity="0.35"/>
<circle cx="288" cy="360" r="9" fill="rgb(28,69,51)"/>
<circle cx="312" cy="360" r="12" fill="rgb(40,95,71)" opacity="0.35"/>
<circle cx="312" cy="360" r="9" fill="rgb(40,95,71)"/>
<circle cx="336" cy="360" r="12" fill="rgb(50,117,87)" opacity="0.35"/>
<circle cx="336" cy="360" r="9" fill="rgb(50,117,87)"/>
<circle cx="360" cy="360" r="12" fill="rgb(48,112,84)" opacity="0.35"/>
<circle cx="360" cy="360" r="9" fill="rgb(48,112,84)"/>
<circle cx="384" cy="360" r="12" fill="rgb(73,165,123)" opacity="0.35"/>
<circle cx="384" cy="360" r="9" fill="rgb(73,165,123)"/>
<circle cx="24" cy="384" r="12" fill="rgb(38,92,68)" opacity="0.35"/>
<circle cx="24" cy="384" r="9" fill="rgb(38,92,68)"/>
<circle cx="48" cy="384" r="12" fill="rgb(39,92,69)" opacity="0.35"/>
<circle cx="48" cy="384" r="9" fill="rgb(39,92,69)"/>
<circle cx="72" cy="384" r="12" fill="rgb(50,116,86)" opacity="0.35"/>
<circle cx="72" cy="384" r="9" fill="rgb(50,116,86)"/>
<circle cx="96" cy="384" r="12" fill="rgb(73,164,122)" opacity="0.35"/>
<circle cx="96" cy="384" r="9" fill="rgb(73,164,122)"/>
<circle cx="120" cy="384" r="12" fill="rgb(52,121,90)" opacity="0.35"/>
<circle cx="120" cy="384" r="9" fill="rgb(52,121,90)"/>
<circle cx="144" cy="384" r="12" fill="rgb(52,120,89)" opacity="0.35"/>
<circle cx="144" cy="384" r="9" fill="rgb(52,120,89)"/>
<circle cx="168" cy="384" r="12" fill="rgb(66,150,111)" opacity="0.35"/>
<circle cx="168" cy="384" r="9" fill="rgb(66,150,111)"/>
<circle cx="192" cy="384" r="12" fill="rgb(71,160,119)" opacity="0.35"/>
<circle cx="192" cy="384" r="9" fill="rgb(71,160,119)"/>
<circle cx="216" cy="384" r="12" fill="rgb(43,102,76)" opacity="0.35"/>
<circle cx="216" cy="384" r="9" fill="rgb(43,102,76)"/>
<circle cx="240" cy="384" r="12" fill="rgb(36,87,65)" opacity="0.35"/>
<circle cx="240" cy="384" r="9" fill="rgb(36,87,65)"/>
<circle cx="264" cy="384" r="12" fill="rgb(32,79,59)" opacity="0.35"/>
<circle cx="264" cy="384" r="9" fill="rgb(32,79,59)"/>
<circle cx="288" cy="384" r="12" fill="rgb(41,96,72)" opacity="0.35"/>
<circle cx="288" cy="384" r="9" fill="rgb(41,96,72)"/>
<circle cx="312" cy="384" r="12" fill="rgb(38,90,67)" opacity="0.35"/>
<circle cx="312" cy="384" r="9" fill="rgb(38,90,67)"/>
<circle cx="336" cy="384" r="12" fill="rgb(38,91,68)" opacity="0.35"/>
<circle cx="336" cy="384" r="9" fill="rgb(38,91,68)"/>
<circle cx="360" cy="384" r="12" fill="rgb(58,132,99)" opacity="0.35"/>
<circle cx="360" cy="384" r="9" fill="rgb(58,132,99)"/>
<circle cx="384" cy="384" r="12" fill="rgb(74,166,124)" opacity="0.35"/>
<circle cx="384" cy="384" r="9" fill="rgb(74,166,124)"/>
</svg>
