<svg xmlns="http://www.w3.org/2000/svg" viewBox="0 0 408 408" width="408" height="408" role="img" aria-label="LED preview of the Frame → Field example graph">
<rect width="408" height="408" rx="10" fill="#05070a"/>
<circle cx="24" cy="24" r="12" fill="rgb(0,228,255)" opacity="0.35"/>
<circle cx="24" cy="24" r="9" fill="rgb(0,228,255)"/>
<circle cx="48" cy="24" r="12" fill="rgb(0,110,255)" opacity="0.35"/>
<circle cx="48" cy="24" r="9" fill="rgb(0,110,255)"/>
<circle cx="72" cy="24" r="12" fill="rgb(0,255,62)" opacity="0.35"/>
<circle cx="72" cy="24" r="9" fill="rgb(0,255,62)"/>
<circle cx="96" cy="24" r="12" fill="rgb(0,96,255)" opacity="0.35"/>
<circle cx="96" cy="24" r="9" fill="rgb(0,96,255)"/>
<circle cx="120" cy="24" r="12" fill="rgb(0,114,255)" opacity="0.35"/>
<circle cx="120" cy="24" r="9" fill="rgb(0,114,255)"/>
<circle cx="144" cy="24" r="12" fill="rgb(0,112,255)" opacity="0.35"/>
<circle cx="144" cy="24" r="9" fill="rgb(0,112,255)"/>
<circle cx="168" cy="24" r="12" fill="rgb(0,96,255)" opacity="0.35"/>
<circle cx="168" cy="24" r="9" fill="rgb(0,96,255)"/>
<circle cx="192" cy="24" r="12" fill="rgb(0,255,40)" opacity="0.35"/>
<circle cx="192" cy="24" r="9" fill="rgb(0,255,40)"/>
<circle cx="216" cy="24" r="12" fill="rgb(0,255,86)" opacity="0.35"/>
<circle cx="216" cy="24" r="9" fill="rgb(0,255,86)"/>
<circle cx="240" cy="24" r="12" fill="rgb(0,255,130)" opacity="0.35"/>
<circle cx="240" cy="24" r="9" fill="rgb(0,255,130)"/>
<circle cx="264" cy="24" r="12" fill="rgb(0,255,164)" opacity="0.35"/>
<circle cx="264" cy="24" r="9" fill="rgb(0,255,164)"/>
<circle cx="288" cy="24" r="12" fill="rgb(0,255,184)" opacity="0.35"/>
<circle cx="288" cy="24" r="9" fill="rgb(0,255,184)"/>
<circle cx="312" cy="24" r="12" fill="rgb(0,255,192)" opacity="0.35"/>
<circle cx="312" cy="24" r="9" fill="rgb(0,255,192)"/>
<circle cx="336" cy="24" r="12" fill="rgb(0,255,190)" opacity="0.35"/>
<circle cx="336" cy="24" r="9" fill="rgb(0,255,190)"/>
<circle cx="360" cy="24" r="12" fill="rgb(0,255,182)" opacity="0.35"/>
<circle cx="360" cy="24" r="9" fill="rgb(0,255,182)"/>
<circle cx="384" cy="24" r="12" fill="rgb(0,255,176)" opacity="0.35"/>
<circle cx="384" cy="24" r="9" fill="rgb(0,255,176)"/>
<circle cx="24" cy="48" r="12" fill="rgb(0,255,124)" opacity="0.35"/>
<circle cx="24" cy="48" r="9" fill="rgb(0,255,124)"/>
<circle cx="48" cy="48" r="12" fill="rgb(0,100,255)" opacity="0.35"/>
<circle cx="48" cy="48" r="9" fill="rgb(0,100,255)"/>
<circle cx="72" cy="48" r="12" fill="rgb(0,164,255)" opacity="0.35"/>
<circle cx="72" cy="48" r="9" fill="rgb(0,164,255)"/>
<circle cx="96" cy="48" r="12" fill="rgb(0,200,255)" opacity="0.35"/>
<circle cx="96" cy="48" r="9" fill="rgb(0,200,255)"/>
<circle cx="120" cy="48" r="12" fill="rgb(0,210,255)" opacity="0.35"/>
<circle cx="120" cy="48" r="9" fill="rgb(0,210,255)"/>
<circle cx="144" cy="48" r="12" fill="rgb(0,200,255)" opacity="0.35"/>
<circle cx="144" cy="48" r="9" fill="rgb(0,200,255)"/>
<circle cx="168" cy="48" r="12" fill="rgb(0,174,255)" opacity="0.35"/>
<circle cx="168" cy="48" r="9" fill="rgb(0,174,255)"/>
<circle cx="192" cy="48" r="12" fill="rgb(0,138,255)" opacity="0.35"/>
<circle cx="192" cy="48" r="9" fill="rgb(0,138,255)"/>
<circle cx="216" cy="48" r="12" fill="rgb(0,100,255)" opacity="0.35"/>
<circle cx="216" cy="48" r="9" fill="rgb(0,100,255)"/>
<circle cx="240" cy="48" r="12" fill="rgb(0,255,234)" opacity="0.35"/>
<circle cx="240" cy="48" r="9" fill="rgb(0,255,234)"/>
<circle cx="264" cy="48" r="12" fill="rgb(0,255,80)" opacity="0.35"/>
<circle cx="264" cy="48" r="9" fill="rgb(0,255,80)"/>
<circle cx="288" cy="48" r="12" fill="rgb(0,255,102)" opacity="0.35"/>
<circle cx="288" cy="48" r="9" fill="rgb(0,255,102)"/>
<circle cx="312" cy="48" r="12" fill="rgb(0,255,110)" opacity="0.35"/>
<circle cx="312" cy="48" r="9" fill="rgb(0,255,110)"/>
<circle cx="336" cy="48" r="12" fill="rgb(0,255,106)" opacity="0.35"/>
<circle cx="336" cy="48" r="9" fill="rgb(0,255,106)"/>
<circle cx="360" cy="48" r="12" fill="rgb(0,255,96)" opacity="0.35"/>
<circle cx="360" cy="48" r="9" fill="rgb(0,255,96)"/>
<circle cx="384" cy="48" r="12" fill="rgb(0,255,234)" opacity="0.35"/>
<circle cx="384" cy="48" r="9" fill="rgb(0,255,234)"/>
<circle cx="24" cy="72" r="12" fill="rgb(0,116,255)" opacity="0.35"/>
<circle cx="24" cy="72" r="9" fill="rgb(0,116,255)"/>
<circle cx="48" cy="72" r="12" fill="rgb(0,200,255)" opacity="0.35"/>
<circle cx="48" cy="72" r="9" fill="rgb(0,200,255)"/>
<circle cx="72" cy="72" r="12" fill="rgb(0,255,254)" opacity="0.35"/>
<circle cx="72" cy="72" r="9" fill="rgb(0,255,254)"/>
<circle cx="96" cy="72" r="12" fill="rgb(0,242,255)" opacity="0.35"/>
<circle cx="96" cy="72" r="9" fill="rgb(0,242,255)"/>
<circle cx="120" cy="72" r="12" fill="rgb(0,242,255)" opacity="0.35"/>
<circle cx="120" cy="72" r="9" fill="rgb(0,242,255)"/>
<circle cx="144" cy="72" r="12" fill="rgb(0,242,255)" opacity="0.35"/>
<circle cx="144" cy="72" r="9" fill="rgb(0,242,255)"/>
<circle cx="168" cy="72" r="12" fill="rgb(0,224,255)" opacity="0.35"/>
<circle cx="168" cy="72" r="9" fill="rgb(0,224,255)"/>
<circle cx="192" cy="72" r="12" fill="rgb(0,178,255)" opacity="0.35"/>
<circle cx="192" cy="72" r="9" fill="rgb(0,178,255)"/>
<circle cx="216" cy="72" r="12" fill="rgb(0,134,255)" opacity="0.35"/>
<circle cx="216" cy="72" r="9" fill="rgb(0,134,255)"/>
<circle cx="240" cy="72" r="12" fill="rgb(0,255,0)" opacity="0.35"/>
<circle cx="240" cy="72" r="9" fill="rgb(0,255,0)"/>
<circle cx="264" cy="72" r="12" fill="rgb(0,255,42)" opacity="0.35"/>
<circle cx="264" cy="72" r="9" fill="rgb(0,255,42)"/>
<circle cx="288" cy="72" r="12" fill="rgb(0,255,64)" opacity="0.35"/>
<circle cx="288" cy="72" r="9" fill="rgb(0,255,64)"/>
<circle cx="312" cy="72" r="12" fill="rgb(0,255,68)" opacity="0.35"/>
<circle cx="312" cy="72" r="9" fill="rgb(0,255,68)"/>
<circle cx="336" cy="72" r="12" fill="rgb(0,255,60)" opacity="0.35"/>
<circle cx="336" cy="72" r="9" fill="rgb(0,255,60)"/>
<circle cx="360" cy="72" r="12" fill="rgb(0,255,46)" opacity="0.35"/>
<circle cx="360" cy="72" r="9" fill="rgb(0,255,46)"/>
<circle cx="384" cy="72" r="12" fill="rgb(0,255,32)" opacity="0.35"/>
<circle cx="384" cy="72" r="9" fill="rgb(0,255,32)"/>
<circle cx="24" cy="96" r="12" fill="rgb(0,202,255)" opacity="0.35"/>
<circle cx="24" cy="96" r="9" fill="rgb(0,202,255)"/>
<circle cx="48" cy="96" r="12" fill="rgb(0,246,255)" opacity="0.35"/>
<circle cx="48" cy="96" r="9" fill="rgb(0,246,255)"/>
<circle cx="72" cy="96" r="12" fill="rgb(0,218,255)" opacity="0.35"/>
<circle cx="72" cy="96" r="9" fill="rgb(0,218,255)"/>
<circle cx="96" cy="96" r="12" fill="rgb(0,206,255)" opacity="0.35"/>
<circle cx="96" cy="96" r="9" fill="rgb(0,206,255)"/>
<circle cx="120" cy="96" r="12" fill="rgb(0,216,255)" opacity="0.35"/>
<circle cx="120" cy="96" r="9" fill="rgb(0,216,255)"/>
<circle cx="144" cy="96" r="12" fill="rgb(0,238,255)" opacity="0.35"/>
<circle cx="144" cy="96" r="9" fill="rgb(0,238,255)"/>
<circle cx="168" cy="96" r="12" fill="rgb(0,242,255)" opacity="0.35"/>
<circle cx="168" cy="96" r="9" fill="rgb(0,242,255)"/>
<circle cx="192" cy="96" r="12" fill="rgb(0,255,234)" opacity="0.35"/>
<circle cx="192" cy="96" r="9" fill="rgb(0,255,234)"/>
<circle cx="216" cy="96" r="12" fill="rgb(0,132,255)" opacity="0.35"/>
<circle cx="216" cy="96" r="9" fill="rgb(0,132,255)"/>
<circle cx="240" cy="96" r="12" fill="rgb(0,255,10)" opacity="0.35"/>
<circle cx="240" cy="96" r="9" fill="rgb(0,255,10)"/>
<circle cx="264" cy="96" r="12" fill="rgb(0,255,54)" opacity="0.35"/>
<circle cx="264" cy="96" r="9" fill="rgb(0,255,54)"/>
<circle cx="288" cy="96" r="12" fill="rgb(0,255,74)" opacity="0.35"/>
<circle cx="288" cy="96" r="9" fill="rgb(0,255,74)"/>
<circle cx="312" cy="96" r="12" fill="rgb(0,255,74)" opacity="0.35"/>
<circle cx="312" cy="96" r="9" fill="rgb(0,255,74)"/>
<circle cx="336" cy="96" r="12" fill="rgb(0,255,58)" opacity="0.35"/>
<circle cx="336" cy="96" r="9" fill="rgb(0,255,58)"/>
<circle cx="360" cy="96" r="12" fill="rgb(0,255,34)" opacity="0.35"/>
<circle cx="360" cy="96" r="9" fill="rgb(0,255,34)"/>
<circle cx="384" cy="96" r="12" fill="rgb(0,255,14)" opacity="0.35"/>
<circle cx="384" cy="96" r="9" fill="rgb(0,255,14)"/>
<circle cx="24" cy="120" r="12" fill="rgb(0,254,255)" opacity="0.35"/>
<circle cx="24" cy="120" r="9" fill="rgb(0,254,255)"/>
<circle cx="48" cy="120" r="12" fill="rgb(0,212,255)" opacity="0.35"/>
<circle cx="48" cy="120" r="9" fill="rgb(0,212,255)"/>
<circle cx="72" cy="120" r="12" fill="rgb(0,188,255)" opacity="0.35"/>
<circle cx="72" cy="120" r="9" fill="rgb(0,188,255)"/>
<circle cx="96" cy="120" r="12" fill="rgb(0,188,255)" opacity="0.35"/>
<circle cx="96" cy="120" r="9" fill="rgb(0,188,255)"/>
<circle cx="120" cy="120" r="12" fill="rgb(0,255,234)" opacity="0.35"/>
<circle cx="120" cy="120" r="9" fill="rgb(0,255,234)"/>
<circle cx="144" cy="120" r="12" fill="rgb(0,238,255)" opacity="0.35"/>
<circle cx="144" cy="120" r="9" fill="rgb(0,238,255)"/>
<circle cx="168" cy="120" r="12" fill="rgb(0,230,255)" opacity="0.35"/>
<circle cx="168" cy="120" r="9" fill="rgb(0,230,255)"/>
<circle cx="192" cy="120" r="12" fill="rgb(0,160,255)" opacity="0.35"/>
<circle cx="192" cy="120" r="9" fill="rgb(0,160,255)"/>
<circle cx="216" cy="120" r="12" fill="rgb(0,98,255)" opacity="0.35"/>
<circle cx="216" cy="120" r="9" fill="rgb(0,98,255)"/>
<circle cx="240" cy="120" r="12" fill="rgb(0,255,68)" opacity="0.35"/>
<circle cx="240" cy="120" r="9" fill="rgb(0,255,68)"/>
<circle cx="264" cy="120" r="12" fill="rgb(0,255,112)" opacity="0.35"/>
<circle cx="264" cy="120" r="9" fill="rgb(0,255,112)"/>
<circle cx="288" cy="120" r="12" fill="rgb(0,255,130)" opacity="0.35"/>
<circle cx="288" cy="120" r="9" fill="rgb(0,255,130)"/>
<circle cx="312" cy="120" r="12" fill="rgb(0,255,122)" opacity="0.35"/>
<circle cx="312" cy="120" r="9" fill="rgb(0,255,122)"/>
<circle cx="336" cy="120" r="12" fill="rgb(0,255,98)" opacity="0.35"/>
<circle cx="336" cy="120" r="9" fill="rgb(0,255,98)"/>
<circle cx="360" cy="120" r="12" fill="rgb(0,255,64)" opacity="0.35"/>
<circle cx="360" cy="120" r="9" fill="rgb(0,255,64)"/>
<circle cx="384" cy="120" r="12" fill="rgb(0,255,32)" opacity="0.35"/>
<circle cx="384" cy="120" r="9" fill="rgb(0,255,32)"/>
<circle cx="24" cy="144" r="12" fill="rgb(0,255,234)" opacity="0.35"/>
<circle cx="24" cy="144" r="9" fill="rgb(0,255,234)"/>
<circle cx="48" cy="144" r="12" fill="rgb(0,192,255)" opacity="0.35"/>
<circle cx="48" cy="144" r="9" fill="rgb(0,192,255)"/>
<circle cx="72" cy="144" r="12" fill="rgb(0,178,255)" opacity="0.35"/>
<circle cx="72" cy="144" r="9" fill="rgb(0,178,255)"/>
<circle cx="96" cy="144" r="12" fill="rgb(0,184,255)" opacity="0.35"/>
<circle cx="96" cy="144" r="9" fill="rgb(0,184,255)"/>
<circle cx="120" cy="144" r="12" fill="rgb(0,255,234)" opacity="0.35"/>
<circle cx="120" cy="144" r="9" fill="rgb(0,255,234)"/>
<circle cx="144" cy="144" r="12" fill="rgb(0,252,255)" opacity="0.35"/>
<circle cx="144" cy="144" r="9" fill="rgb(0,252,255)"/>
<circle cx="168" cy="144" r="12" fill="rgb(0,190,255)" opacity="0.35"/>
<circle cx="168" cy="144" r="9" fill="rgb(0,190,255)"/>
<circle cx="192" cy="144" r="12" fill="rgb(0,108,255)" opacity="0.35"/>
<circle cx="192" cy="144" r="9" fill="rgb(0,108,255)"/>
<circle cx="216" cy="144" r="12" fill="rgb(0,255,234)" opacity="0.35"/>
<circle cx="216" cy="144" r="9" fill="rgb(0,255,234)"/>
<circle cx="240" cy="144" r="12" fill="rgb(0,255,168)" opacity="0.35"/>
<circle cx="240" cy="144" r="9" fill="rgb(0,255,168)"/>
<circle cx="264" cy="144" r="12" fill="rgb(0,255,212)" opacity="0.35"/>
<circle cx="264" cy="144" r="9" fill="rgb(0,255,212)"/>
<circle cx="288" cy="144" r="12" fill="rgb(0,255,224)" opacity="0.35"/>
<circle cx="288" cy="144" r="9" fill="rgb(0,255,224)"/>
<circle cx="312" cy="144" r="12" fill="rgb(0,255,234)" opacity="0.35"/>
<circle cx="312" cy="144" r="9" fill="rgb(0,255,234)"/>
<circle cx="336" cy="144" r="12" fill="rgb(0,255,174)" opacity="0.35"/>
<circle cx="336" cy="144" r="9" fill="rgb(0,255,174)"/>
<circle cx="360" cy="144" r="12" fill="rgb(0,255,130)" opacity="0.35"/>
<circle cx="360" cy="144" r="9" fill="rgb(0,255,130)"/>
<circle cx="384" cy="144" r="12" fill="rgb(0,255,86)" opacity="0.35"/>
<circle cx="384" cy="144" r="9" fill="rgb(0,255,86)"/>
<circle cx="24" cy="168" r="12" fill="rgb(0,222,255)" opacity="0.35"/>
<circle cx="24" cy="168" r="9" fill="rgb(0,222,255)"/>
<circle cx="48" cy="168" r="12" fill="rgb(0,188,255)" opacity="0.35"/>
<circle cx="48" cy="168" r="9" fill="rgb(0,188,255)"/>
<circle cx="72" cy="168" r="12" fill="rgb(0,255,234)" opacity="0.35"/>
<circle cx="72" cy="168" r="9" fill="rgb(0,255,234)"/>
<circle cx="96" cy="168" r="12" fill="rgb(0,194,255)" opacity="0.35"/>
<circle cx="96" cy="168" r="9" fill="rgb(0,194,255)"/>
<circle cx="120" cy="168" r="12" fill="rgb(0,230,255)" opacity="0.35"/>
<circle cx="120" cy="168" r="9" fill="rgb(0,230,255)"/>
<circle cx="144" cy="168" r="12" fill="rgb(0,222,255)" opacity="0.35"/>
<circle cx="144" cy="168" r="9" fill="rgb(0,222,255)"/>
<circle cx="168" cy="168" r="12" fill="rgb(0,128,255)" opacity="0.35"/>
<circle cx="168" cy="168" r="9" fill="rgb(0,128,255)"/>
<circle cx="192" cy="168" r="12" fill="rgb(0,255,96)" opacity="0.35"/>
<circle cx="192" cy="168" r="9" fill="rgb(0,255,96)"/>
<circle cx="216" cy="168" r="12" fill="rgb(0,255,216)" opacity="0.35"/>
<circle cx="216" cy="168" r="9" fill="rgb(0,255,216)"/>
<circle cx="240" cy="168" r="12" fill="rgb(0,224,255)" opacity="0.35"/>
<circle cx="240" cy="168" r="9" fill="rgb(0,224,255)"/>
<circle cx="264" cy="168" r="12" fill="rgb(0,194,255)" opacity="0.35"/>
<circle cx="264" cy="168" r="9" fill="rgb(0,194,255)"/>
<circle cx="288" cy="168" r="12" fill="rgb(0,188,255)" opacity="0.35"/>
<circle cx="288" cy="168" r="9" fill="rgb(0,188,255)"/>
<circle cx="312" cy="168" r="12" fill="rgb(0,206,255)" opacity="0.35"/>
<circle cx="312" cy="168" r="9" fill="rgb(0,206,255)"/>
<circle cx="336" cy="168" r="12" fill="rgb(0,238,255)" opacity="0.35"/>
<circle cx="336" cy="168" r="9" fill="rgb(0,238,255)"/>
<circle cx="360" cy="168" r="12" fill="rgb(0,255,226)" opacity="0.35"/>
<circle cx="360" cy="168" r="9" fill="rgb(0,255,226)"/>
<circle cx="384" cy="168" r="12" fill="rgb(0,255,170)" opacity="0.35"/>
<circle cx="384" cy="168" r="9" fill="rgb(0,255,170)"/>
<circle cx="24" cy="192" r="12" fill="rgb(0,224,255)" opacity="0.35"/>
<circle cx="24" cy="192" r="9" fill="rgb(0,224,255)"/>
<circle cx="48" cy="192" r="12" fill="rgb(0,196,255)" opacity="0.35"/>
<circle cx="48" cy="192" r="9" fill="rgb(0,196,255)"/>
<circle cx="72" cy="192" r="12" fill="rgb(0,194,255)" opacity="0.35"/>
<circle cx="72" cy="192" r="9" fill="rgb(0,194,255)"/>
<circle cx="96" cy="192" r="12" fill="rgb(0,218,255)" opacity="0.35"/>
<circle cx="96" cy="192" r="9" fill="rgb(0,218,255)"/>
<circle cx="120" cy="192" r="12" fill="rgb(0,255,252)" opacity="0.35"/>
<circle cx="120" cy="192" r="9" fill="rgb(0,255,252)"/>
<circle cx="144" cy="192" r="12" fill="rgb(0,162,255)" opacity="0.35"/>
<circle cx="144" cy="192" r="9" fill="rgb(0,162,255)"/>
<circle cx="168" cy="192" r="12" fill="rgb(0,255,62)" opacity="0.35"/>
<circle cx="168" cy="192" r="9" fill="rgb(0,255,62)"/>
<circle cx="192" cy="192" r="12" fill="rgb(0,255,228)" opacity="0.35"/>
<circle cx="192" cy="192" r="9" fill="rgb(0,255,228)"/>
<circle cx="216" cy="192" r="12" fill="rgb(0,176,255)" opacity="0.35"/>
<circle cx="216" cy="192" r="9" fill="rgb(0,176,255)"/>
<circle cx="240" cy="192" r="12" fill="rgb(0,114,255)" opacity="0.35"/>
<circle cx="240" cy="192" r="9" fill="rgb(0,114,255)"/>
<circle cx="264" cy="192" r="12" fill="rgb(0,86,255)" opacity="0.35"/>
<circle cx="264" cy="192" r="9" fill="rgb(0,86,255)"/>
<circle cx="288" cy="192" r="12" fill="rgb(0,255,234)" opacity="0.35"/>
<circle cx="288" cy="192" r="9" fill="rgb(0,255,234)"/>
<circle cx="312" cy="192" r="12" fill="rgb(0,108,255)" opacity="0.35"/>
<circle cx="312" cy="192" r="9" fill="rgb(0,108,255)"/>
<circle cx="336" cy="192" r="12" fill="rgb(0,146,255)" opacity="0.35"/>
<circle cx="336" cy="192" r="9" fill="rgb(0,146,255)"/>
<circle cx="360" cy="192" r="12" fill="rgb(0,194,255)" opacity="0.35"/>
<circle cx="360" cy="192" r="9" fill="rgb(0,194,255)"/>
<circle cx="384" cy="192" r="12" fill="rgb(0,244,255)" opacity="0.35"/>
<circle cx="384" cy="192" r="9" fill="rgb(0,244,255)"/>
<circle cx="24" cy="216" r="12" fill="rgb(0,238,255)" opacity="0.35"/>
<circle cx="24" cy="216" r="9" fill="rgb(0,238,255)"/>
<circle cx="48" cy="216" r="12" fill="rgb(0,216,255)" opacity="0.35"/>
<circle cx="48" cy="216" r="9" fill="rgb(0,216,255)"/>
<circle cx="72" cy="216" r="12" fill="rgb(0,220,255)" opacity="0.35"/>
<circle cx="72" cy="216" r="9" fill="rgb(0,220,255)"/>
<circle cx="96" cy="216" r="12" fill="rgb(0,255,234)" opacity="0.35"/>
<circle cx="96" cy="216" r="9" fill="rgb(0,255,234)"/>
<circle cx="120" cy="216" r="12" fill="rgb(0,204,255)" opacity="0.35"/>
<circle cx="120" cy="216" r="9" fill="rgb(0,204,255)"/>
<circle cx="144" cy="216" r="12" fill="rgb(0,100,255)" opacity="0.35"/>
<circle cx="144" cy="216" r="9" fill="rgb(0,100,255)"/>
<circle cx="168" cy="216" r="12" fill="rgb(0,255,172)" opacity="0.35"/>
<circle cx="168" cy="216" r="9" fill="rgb(0,255,172)"/>
<circle cx="192" cy="216" r="12" fill="rgb(0,184,255)" opacity="0.35"/>
<circle cx="192" cy="216" r="9" fill="rgb(0,184,255)"/>
<circle cx="216" cy="216" r="12" fill="rgb(0,255,234)" opacity="0.35"/>
<circle cx="216" cy="216" r="9" fill="rgb(0,255,234)"/>
<circle cx="240" cy="216" r="12" fill="rgb(0,238,255)" opacity="0.35"/>
<circle cx="240" cy="216" r="9" fill="rgb(0,238,255)"/>
<circle cx="264" cy="216" r="12" fill="rgb(0,255,224)" opacity="0.35"/>
<circle cx="264" cy="216" r="9" fill="rgb(0,255,224)"/>
<circle cx="288" cy="216" r="12" fill="rgb(0,255,224)" opacity="0.35"/>
<circle cx="288" cy="216" r="9" fill="rgb(0,255,224)"/>
<circle cx="312" cy="216" r="12" fill="rgb(0,236,255)" opacity="0.35"/>
<circle cx="312" cy="216" r="9" fill="rgb(0,236,255)"/>
<circle cx="336" cy="216" r="12" fill="rgb(0,152,255)" opacity="0.35"/>
<circle cx="336" cy="216" r="9" fill="rgb(0,152,255)"/>
<circle cx="360" cy="216" r="12" fill="rgb(0,102,255)" opacity="0.35"/>
<circle cx="360" cy="216" r="9" fill="rgb(0,102,255)"/>
<circle cx="384" cy="216" r="12" fill="rgb(0,158,255)" opacity="0.35"/>
<circle cx="384" cy="216" r="9" fill="rgb(0,158,255)"/>
<circle cx="24" cy="240" r="12" fill="rgb(0,254,255)" opacity="0.35"/>
<circle cx="24" cy="240" r="9" fill="rgb(0,254,255)"/>
<circle cx="48" cy="240" r="12" fill="rgb(0,240,255)" opacity="0.35"/>
<circle cx="48" cy="240" r="9" fill="rgb(0,240,255)"/>
<circle cx="72" cy="240" r="12" fill="rgb(0,244,255)" opacity="0.35"/>
<circle cx="72" cy="240" r="9" fill="rgb(0,244,255)"/>
<circle cx="96" cy="240" r="12" fill="rgb(0,230,255)" opacity="0.35"/>
<circle cx="96" cy="240" r="9" fill="rgb(0,230,255)"/>
<circle cx="120" cy="240" r="12" fill="rgb(0,255,234)" opacity="0.35"/>
<circle cx="120" cy="240" r="9" fill="rgb(0,255,234)"/>
<circle cx="144" cy="240" r="12" fill="rgb(0,255,234)" opacity="0.35"/>
<circle cx="144" cy="240" r="9" fill="rgb(0,255,234)"/>
<circle cx="168" cy="240" r="12" fill="rgb(0,255,234)" opacity="0.35"/>
<circle cx="168" cy="240" r="9" fill="rgb(0,255,234)"/>
<circle cx="192" cy="240" r="12" fill="rgb(0,116,255)" opacity="0.35"/>
<circle cx="192" cy="240" r="9" fill="rgb(0,116,255)"/>
<circle cx="216" cy="240" r="12" fill="rgb(0,252,255)" opacity="0.35"/>
<circle cx="216" cy="240" r="9" fill="rgb(0,252,255)"/>
<circle cx="240" cy="240" r="12" fill="rgb(0,242,255)" opacity="0.35"/>
<circle cx="240" cy="240" r="9" fill="rgb(0,242,255)"/>
<circle cx="264" cy="240" r="12" fill="rgb(0,255,234)" opacity="0.35"/>
<circle cx="264" cy="240" r="9" fill="rgb(0,255,234)"/>
<circle cx="288" cy="240" r="12" fill="rgb(0,255,68)" opacity="0.35"/>
<circle cx="288" cy="240" r="9" fill="rgb(0,255,68)"/>
<circle cx="312" cy="240" r="12" fill="rgb(0,255,86)" opacity="0.35"/>
<circle cx="312" cy="240" r="9" fill="rgb(0,255,86)"/>
<circle cx="336" cy="240" r="12" fill="rgb(0,255,172)" opacity="0.35"/>
<circle cx="336" cy="240" r="9" fill="rgb(0,255,172)"/>
<circle cx="360" cy="240" r="12" fill="rgb(0,228,255)" opacity="0.35"/>
<circle cx="360" cy="240" r="9" fill="rgb(0,228,255)"/>
<circle cx="384" cy="240" r="12" fill="rgb(0,110,255)" opacity="0.35"/>
<circle cx="384" cy="240" r="9" fill="rgb(0,110,255)"/>
<circle cx="24" cy="264" r="12" fill="rgb(0,212,255)" opacity="0.35"/>
<circle cx="24" cy="264" r="9" fill="rgb(0,212,255)"/>
<circle cx="48" cy="264" r="12" fill="rgb(0,242,255)" opacity="0.35"/>
<circle cx="48" cy="264" r="9" fill="rgb(0,242,255)"/>
<circle cx="72" cy="264" r="12" fill="rgb(0,232,255)" opacity="0.35"/>
<circle cx="72" cy="264" r="9" fill="rgb(0,232,255)"/>
<circle cx="96" cy="264" r="12" fill="rgb(0,242,255)" opacity="0.35"/>
<circle cx="96" cy="264" r="9" fill="rgb(0,242,255)"/>
<circle cx="120" cy="264" r="12" fill="rgb(0,255,234)" opacity="0.35"/>
<circle cx="120" cy="264" r="9" fill="rgb(0,255,234)"/>
<circle cx="144" cy="264" r="12" fill="rgb(0,255,158)" opacity="0.35"/>
<circle cx="144" cy="264" r="9" fill="rgb(0,255,158)"/>
<circle cx="168" cy="264" r="12" fill="rgb(0,196,255)" opacity="0.35"/>
<circle cx="168" cy="264" r="9" fill="rgb(0,196,255)"/>
<circle cx="192" cy="264" r="12" fill="rgb(0,242,255)" opacity="0.35"/>
<circle cx="192" cy="264" r="9" fill="rgb(0,242,255)"/>
<circle cx="216" cy="264" r="12" fill="rgb(0,255,162)" opacity="0.35"/>
<circle cx="216" cy="264" r="9" fill="rgb(0,255,162)"/>
<circle cx="240" cy="264" r="12" fill="rgb(0,255,100)" opacity="0.35"/>
<circle cx="240" cy="264" r="9" fill="rgb(0,255,100)"/>
<circle cx="264" cy="264" r="12" fill="rgb(0,255,170)" opacity="0.35"/>
<circle cx="264" cy="264" r="9" fill="rgb(0,255,170)"/>
<circle cx="288" cy="264" r="12" fill="rgb(0,255,186)" opacity="0.35"/>
<circle cx="288" cy="264" r="9" fill="rgb(0,255,186)"/>
<circle cx="312" cy="264" r="12" fill="rgb(0,255,156)" opacity="0.35"/>
<circle cx="312" cy="264" r="9" fill="rgb(0,255,156)"/>
<circle cx="336" cy="264" r="12" fill="rgb(0,255,92)" opacity="0.35"/>
<circle cx="336" cy="264" r="9" fill="rgb(0,255,92)"/>
<circle cx="360" cy="264" r="12" fill="rgb(0,255,118)" opacity="0.35"/>
<circle cx="360" cy="264" r="9" fill="rgb(0,255,118)"/>
<circle cx="384" cy="264" r="12" fill="rgb(0,255,238)" opacity="0.35"/>
<circle cx="384" cy="264" r="9" fill="rgb(0,255,238)"/>
<circle cx="24" cy="288" r="12" fill="rgb(0,168,255)" opacity="0.35"/>
<circle cx="24" cy="288" r="9" fill="rgb(0,168,255)"/>
<circle cx="48" cy="288" r="12" fill="rgb(0,196,255)" opacity="0.35"/>
<circle cx="48" cy="288" r="9" fill="rgb(0,196,255)"/>
<circle cx="72" cy="288" r="12" fill="rgb(0,184,255)" opacity="0.35"/>
<circle cx="72" cy="288" r="9" fill="rgb(0,184,255)"/>
<circle cx="96" cy="288" r="12" fill="rgb(0,136,255)" opacity="0.35"/>
<circle cx="96" cy="288" r="9" fill="rgb(0,136,255)"/>
<circle cx="120" cy="288" r="12" fill="rgb(0,255,62)" opacity="0.35"/>
<circle cx="120" cy="288" r="9" fill="rgb(0,255,62)"/>
<circle cx="144" cy="288" r="12" fill="rgb(0,255,218)" opacity="0.35"/>
<circle cx="144" cy="288" r="9" fill="rgb(0,255,218)"/>
<circle cx="168" cy="288" r="12" fill="rgb(0,156,255)" opacity="0.35"/>
<circle cx="168" cy="288" r="9" fill="rgb(0,156,255)"/>
<circle cx="192" cy="288" r="12" fill="rgb(0,198,255)" opacity="0.35"/>
<circle cx="192" cy="288" r="9" fill="rgb(0,198,255)"/>
<circle cx="216" cy="288" r="12" fill="rgb(0,255,88)" opacity="0.35"/>
<circle cx="216" cy="288" r="9" fill="rgb(0,255,88)"/>
<circle cx="240" cy="288" r="12" fill="rgb(0,255,234)" opacity="0.35"/>
<circle cx="240" cy="288" r="9" fill="rgb(0,255,234)"/>
<circle cx="264" cy="288" r="12" fill="rgb(0,255,244)" opacity="0.35"/>
<circle cx="264" cy="288" r="9" fill="rgb(0,255,244)"/>
<circle cx="288" cy="288" r="12" fill="rgb(0,240,255)" opacity="0.35"/>
<circle cx="288" cy="288" r="9" fill="rgb(0,240,255)"/>
<circle cx="312" cy="288" r="12" fill="rgb(0,255,252)" opacity="0.35"/>
<circle cx="312" cy="288" r="9" fill="rgb(0,255,252)"/>
<circle cx="336" cy="288" r="12" fill="rgb(0,255,196)" opacity="0.35"/>
<circle cx="336" cy="288" r="9" fill="rgb(0,255,196)"/>
<circle cx="360" cy="288" r="12" fill="rgb(0,255,112)" opacity="0.35"/>
<circle cx="360" cy="288" r="9" fill="rgb(0,255,112)"/>
<circle cx="384" cy="288" r="12" fill="rgb(0,255,102)" opacity="0.35"/>
<circle cx="384" cy="288" r="9" fill="rgb(0,255,102)"/>
<circle cx="24" cy="312" r="12" fill="rgb(0,120,255)" opacity="0.35"/>
<circle cx="24" cy="312" r="9" fill="rgb(0,120,255)"/>
<circle cx="48" cy="312" r="12" fill="rgb(0,150,255)" opacity="0.35"/>
<circle cx="48" cy="312" r="9" fill="rgb(0,150,255)"/>
<circle cx="72" cy="312" r="12" fill="rgb(0,142,255)" opacity="0.35"/>
<circle cx="72" cy="312" r="9" fill="rgb(0,142,255)"/>
<circle cx="96" cy="312" r="12" fill="rgb(0,255,0)" opacity="0.35"/>
<circle cx="96" cy="312" r="9" fill="rgb(0,255,0)"/>
<circle cx="120" cy="312" r="12" fill="rgb(0,255,116)" opacity="0.35"/>
<circle cx="120" cy="312" r="9" fill="rgb(0,255,116)"/>
<circle cx="144" cy="312" r="12" fill="rgb(0,250,255)" opacity="0.35"/>
<circle cx="144" cy="312" r="9" fill="rgb(0,250,255)"/>
<circle cx="168" cy="312" r="12" fill="rgb(0,255,234)" opacity="0.35"/>
<circle cx="168" cy="312" r="9" fill="rgb(0,255,234)"/>
<circle cx="192" cy="312" r="12" fill="rgb(0,246,255)" opacity="0.35"/>
<circle cx="192" cy="312" r="9" fill="rgb(0,246,255)"/>
<circle cx="216" cy="312" r="12" fill="rgb(0,255,64)" opacity="0.35"/>
<circle cx="216" cy="312" r="9" fill="rgb(0,255,64)"/>
<circle cx="240" cy="312" r="12" fill="rgb(0,255,200)" opacity="0.35"/>
<circle cx="240" cy="312" r="9" fill="rgb(0,255,200)"/>
<circle cx="264" cy="312" r="12" fill="rgb(0,222,255)" opacity="0.35"/>
<circle cx="264" cy="312" r="9" fill="rgb(0,222,255)"/>
<circle cx="288" cy="312" r="12" fill="rgb(0,184,255)" opacity="0.35"/>
<circle cx="288" cy="312" r="9" fill="rgb(0,184,255)"/>
<circle cx="312" cy="312" r="12" fill="rgb(0,194,255)" opacity="0.35"/>
<circle cx="312" cy="312" r="9" fill="rgb(0,194,255)"/>
<circle cx="336" cy="312" r="12" fill="rgb(0,242,255)" opacity="0.35"/>
<circle cx="336" cy="312" r="9" fill="rgb(0,242,255)"/>
<circle cx="360" cy="312" r="12" fill="rgb(0,255,190)" opacity="0.35"/>
<circle cx="360" cy="312" r="9" fill="rgb(0,255,190)"/>
<circle cx="384" cy="312" r="12" fill="rgb(0,255,100)" opacity="0.35"/>
<circle cx="384" cy="312" r="9" fill="rgb(0,255,100)"/>
<circle cx="24" cy="336" r="12" fill="rgb(0,255,26)" opacity="0.35"/>
<circle cx="24" cy="336" r="9" fill="rgb(0,255,26)"/>
<circle cx="48" cy="336" r="12" fill="rgb(0,110,255)" opacity="0.35"/>
<circle cx="48" cy="336" r="9" fill="rgb(0,110,255)"/>
<circle cx="72" cy="336" r="12" fill="rgb(0,104,255)" opacity="0.35"/>
<circle cx="72" cy="336" r="9" fill="rgb(0,104,255)"/>
<circle cx="96" cy="336" r="12" fill="rgb(0,255,52)" opacity="0.35"/>
<circle cx="96" cy="336" r="9" fill="rgb(0,255,52)"/>
<circle cx="120" cy="336" r="12" fill="rgb(0,255,158)" opacity="0.35"/>
<circle cx="120" cy="336" r="9" fill="rgb(0,255,158)"/>
<circle cx="144" cy="336" r="12" fill="rgb(0,228,255)" opacity="0.35"/>
<circle cx="144" cy="336" r="9" fill="rgb(0,228,255)"/>
<circle cx="168" cy="336" r="12" fill="rgb(0,110,255)" opacity="0.35"/>
<circle cx="168" cy="336" r="9" fill="rgb(0,110,255)"/>
<circle cx="192" cy="336" r="12" fill="rgb(0,255,244)" opacity="0.35"/>
<circle cx="192" cy="336" r="9" fill="rgb(0,255,244)"/>
<circle cx="216" cy="336" r="12" fill="rgb(0,255,76)" opacity="0.35"/>
<circle cx="216" cy="336" r="9" fill="rgb(0,255,76)"/>
<circle cx="240" cy="336" r="12" fill="rgb(0,255,212)" opacity="0.35"/>
<circle cx="240" cy="336" r="9" fill="rgb(0,255,212)"/>
<circle cx="264" cy="336" r="12" fill="rgb(0,204,255)" opacity="0.35"/>
<circle cx="264" cy="336" r="9" fill="rgb(0,204,255)"/>
<circle cx="288" cy="336" r="12" fill="rgb(0,162,255)" opacity="0.35"/>
<circle cx="288" cy="336" r="9" fill="rgb(0,162,255)"/>
<circle cx="312" cy="336" r="12" fill="rgb(0,164,255)" opacity="0.35"/>
<circle cx="312" cy="336" r="9" fill="rgb(0,164,255)"/>
<circle cx="336" cy="336" r="12" fill="rgb(0,204,255)" opacity="0.35"/>
<circle cx="336" cy="336" r="9" fill="rgb(0,204,255)"/>
<circle cx="360" cy="336" r="12" fill="rgb(0,255,234)" opacity="0.35"/>
<circle cx="360" cy="336" r="9" fill="rgb(0,255,234)"/>
<circle cx="384" cy="336" r="12" fill="rgb(0,255,150)" opacity="0.35"/>
<circle cx="384" cy="336" r="9" fill="rgb(0,255,150)"/>
<circle cx="24" cy="360" r="12" fill="rgb(0,255,84)" opacity="0.35"/>
<circle cx="24" cy="360" r="9" fill="rgb(0,255,84)"/>
<circle cx="48" cy="360" r="12" fill="rgb(0,255,36)" opacity="0.35"/>
<circle cx="48" cy="360" r="9" fill="rgb(0,255,36)"/>
<circle cx="72" cy="360" r="12" fill="rgb(0,255,40)" opacity="0.35"/>
<circle cx="72" cy="360" r="9" fill="rgb(0,255,40)"/>
<circle cx="96" cy="360" r="12" fill="rgb(0,255,92)" opacity="0.35"/>
<circle cx="96" cy="360" r="9" fill="rgb(0,255,92)"/>
<circle cx="120" cy="360" r="12" fill="rgb(0,255,188)" opacity="0.35"/>
<circle cx="120" cy="360" r="9" fill="rgb(0,255,188)"/>
<circle cx="144" cy="360" r="12" fill="rgb(0,212,255)" opacity="0.35"/>
<circle cx="144" cy="360" r="9" fill="rgb(0,212,255)"/>
<circle cx="168" cy="360" r="12" fill="rgb(0,104,255)" opacity="0.35"/>
<circle cx="168" cy="360" r="9" fill="rgb(0,104,255)"/>
<circle cx="192" cy="360" r="12" fill="rgb(0,255,244)" opacity="0.35"/>
<circle cx="192" cy="360" r="9" fill="rgb(0,255,244)"/>
<circle cx="216" cy="360" r="12" fill="rgb(0,255,70)" opacity="0.35"/>
<circle cx="216" cy="360" r="9" fill="rgb(0,255,70)"/>
<circle cx="240" cy="360" r="12" fill="rgb(0,255,204)" opacity="0.35"/>
<circle cx="240" cy="360" r="9" fill="rgb(0,255,204)"/>
<circle cx="264" cy="360" r="12" fill="rgb(0,255,234)" opacity="0.35"/>
<circle cx="264" cy="360" r="9" fill="rgb(0,255,234)"/>
<circle cx="288" cy="360" r="12" fill="rgb(0,164,255)" opacity="0.35"/>
<circle cx="288" cy="360" r="9" fill="rgb(0,164,255)"/>
<circle cx="312" cy="360" r="12" fill="rgb(0,162,255)" opacity="0.35"/>
<circle cx="312" cy="360" r="9" fill="rgb(0,162,255)"/>
<circle cx="336" cy="360" r="12" fill="rgb(0,196,255)" opacity="0.35"/>
<circle cx="336" cy="360" r="9" fill="rgb(0,196,255)"/>
<circle cx="360" cy="360" r="12" fill="rgb(0,255,234)" opacity="0.35"/>
<circle cx="360" cy="360" r="9" fill="rgb(0,255,234)"/>
<circle cx="384" cy="360" r="12" fill="rgb(0,255,166)" opacity="0.35"/>
<circle cx="384" cy="360" r="9" fill="rgb(0,255,166)"/>
<circle cx="24" cy="384" r="12" fill="rgb(0,255,132)" opacity="0.35"/>
<circle cx="24" cy="384" r="9" fill="rgb(0,255,132)"/>
<circle cx="48" cy="384" r="12" fill="rgb(0,255,84)" opacity="0.35"/>
<circle cx="48" cy="384" r="9" fill="rgb(0,255,84)"/>
<circle cx="72" cy="384" r="12" fill="rgb(0,255,82)" opacity="0.35"/>
<circle cx="72" cy="384" r="9" fill="rgb(0,255,82)"/>
<circle cx="96" cy="384" r="12" fill="rgb(0,255,126)" opacity="0.35"/>
<circle cx="96" cy="384" r="9" fill="rgb(0,255,126)"/>
<circle cx="120" cy="384" r="12" fill="rgb(0,255,212)" opacity="0.35"/>
<circle cx="120" cy="384" r="9" fill="rgb(0,255,212)"/>
<circle cx="144" cy="384" r="12" fill="rgb(0,204,255)" opacity="0.35"/>
<circle cx="144" cy="384" r="9" fill="rgb(0,204,255)"/>
<circle cx="168" cy="384" r="12" fill="rgb(0,104,255)" opacity="0.35"/>
<circle cx="168" cy="384" r="9" fill="rgb(0,104,255)"/>
<circle cx="192" cy="384" r="12" fill="rgb(0,250,255)" opacity="0.35"/>
<circle cx="192" cy="384" r="9" fill="rgb(0,250,255)"/>
<circle cx="216" cy="384" r="12" fill="rgb(0,255,234)" opacity="0.35"/>
<circle cx="216" cy="384" r="9" fill="rgb(0,255,234)"/>
<circle cx="240" cy="384" r="12" fill="rgb(0,255,176)" opacity="0.35"/>
<circle cx="240" cy="384" r="9" fill="rgb(0,255,176)"/>
<circle cx="264" cy="384" r="12" fill="rgb(0,240,255)" opacity="0.35"/>
<circle cx="264" cy="384" r="9" fill="rgb(0,240,255)"/>
<circle cx="288" cy="384" r="12" fill="rgb(0,192,255)" opacity="0.35"/>
<circle cx="288" cy="384" r="9" fill="rgb(0,192,255)"/>
<circle cx="312" cy="384" r="12" fill="rgb(0,186,255)" opacity="0.35"/>
<circle cx="312" cy="384" r="9" fill="rgb(0,186,255)"/>
<circle cx="336" cy="384" r="12" fill="rgb(0,216,255)" opacity="0.35"/>
<circle cx="336" cy="384" r="9" fill="rgb(0,216,255)"/>
<circle cx="360" cy="384" r="12" fill="rgb(0,255,234)" opacity="0.35"/>
<circle cx="360" cy="384" r="9" fill="rgb(0,255,234)"/>
<circle cx="384" cy="384" r="12" fill="rgb(0,255,152)" opacity="0.35"/>
<circle cx="384" cy="384" r="9" fill="rgb(0,255,152)"/>
</svg>
