<svg xmlns="http://www.w3.org/2000/svg" viewBox="0 0 408 408" width="408" height="408" role="img" aria-label="LED preview of the Frame Feedback example graph">
<rect width="408" height="408" rx="10" fill="#05070a"/>
<circle cx="24" cy="24" r="12" fill="rgb(59,135,101)" opacity="0.35"/>
<circle cx="24" cy="24" r="9" fill="rgb(59,135,101)"/>
<circle cx="48" cy="24" r="12" fill="rgb(31,76,57)" opacity="0.35"/>
<circle cx="48" cy="24" r="9" fill="rgb(31,76,57)"/>
<circle cx="72" cy="24" r="12" fill="rgb(28,69,52)" opacity="0.35"/>
<circle cx="72" cy="24" r="9" fill="rgb(28,69,52)"/>
<circle cx="96" cy="24" r="12" fill="rgb(40,94,71)" opacity="0.35"/>
<circle cx="96" cy="24" r="9" fill="rgb(40,94,71)"/>
<circle cx="120" cy="24" r="12" fill="rgb(41,97,73)" opacity="0.35"/>
<circle cx="120" cy="24" r="9" fill="rgb(41,97,73)"/>
<circle cx="144" cy="24" r="12" fill="rgb(62,140,105)" opacity="0.35"/>
<circle cx="144" cy="24" r="9" fill="rgb(62,140,105)"/>
<circle cx="168" cy="24" r="12" fill="rgb(81,177,133)" opacity="0.35"/>
<circle cx="168" cy="24" r="9" fill="rgb(81,177,133)"/>
<circle cx="192" cy="24" r="12" fill="rgb(61,139,103)" opacity="0.35"/>
<circle cx="192" cy="24" r="9" fill="rgb(61,139,103)"/>
<circle cx="216" cy="24" r="12" fill="rgb(42,99,74)" opacity="0.35"/>
<circle cx="216" cy="24" r="9" fill="rgb(42,99,74)"/>
<circle cx="240" cy="24" r="12" fill="rgb(50,117,87)" opacity="0.35"/>
<circle cx="240" cy="24" r="9" fill="rgb(50,117,87)"/>
<circle cx="264" cy="24" r="12" fill="rgb(57,129,96)" opacity="0.35"/>
<circle cx="264" cy="24" r="9" fill="rgb(57,129,96)"/>
<circle cx="288" cy="24" r="12" fill="rgb(111,198,155)" opacity="0.35"/>
<circle cx="288" cy="24" r="9" fill="rgb(111,198,155)"/>
<circle cx="312" cy="24" r="12" fill="rgb(107,196,153)" opacity="0.35"/>
<circle cx="312" cy="24" r="9" fill="rgb(107,196,153)"/>
<circle cx="336" cy="24" r="12" fill="rgb(79,173,130)" opacity="0.35"/>
<circle cx="336" cy="24" r="9" fill="rgb(79,173,130)"/>
<circle cx="360" cy="24" r="12" fill="rgb(52,120,90)" opacity="0.35"/>
<circle cx="360" cy="24" r="9" fill="rgb(52,120,90)"/>
<circle cx="384" cy="24" r="12" fill="rgb(39,91,69)" opacity="0.35"/>
<circle cx="384" cy="24" r="9" fill="rgb(39,91,69)"/>
<circle cx="24" cy="48" r="12" fill="rgb(35,84,63)" opacity="0.35"/>
<circle cx="24" cy="48" r="9" fill="rgb(35,84,63)"/>
<circle cx="48" cy="48" r="12" fill="rgb(40,94,71)" opacity="0.35"/>
<circle cx="48" cy="48" r="9" fill="rgb(40,94,71)"/>
<circle cx="72" cy="48" r="12" fill="rgb(32,80,59)" opacity="0.35"/>
<circle cx="72" cy="48" r="9" fill="rgb(32,80,59)"/>
<circle cx="96" cy="48" r="12" fill="rgb(25,63,47)" opacity="0.35"/>
<circle cx="96" cy="48" r="9" fill="rgb(25,63,47)"/>
<circle cx="120" cy="48" r="12" fill="rgb(41,95,72)" opacity="0.35"/>
<circle cx="120" cy="48" r="9" fill="rgb(41,95,72)"/>
<circle cx="144" cy="48" r="12" fill="rgb(54,123,92)" opacity="0.35"/>
<circle cx="144" cy="48" r="9" fill="rgb(54,123,92)"/>
<circle cx="168" cy="48" r="12" fill="rgb(42,98,74)" opacity="0.35"/>
<circle cx="168" cy="48" r="9" fill="rgb(42,98,74)"/>
<circle cx="192" cy="48" r="12" fill="rgb(34,83,62)" opacity="0.35"/>
<circle cx="192" cy="48" r="9" fill="rgb(34,83,62)"/>
<circle cx="216" cy="48" r="12" fill="rgb(52,120,90)" opacity="0.35"/>
<circle cx="216" cy="48" r="9" fill="rgb(52,120,90)"/>
<circle cx="240" cy="48" r="12" fill="rgb(77,170,128)" opacity="0.35"/>
<circle cx="240" cy="48" r="9" fill="rgb(77,170,128)"/>
<circle cx="264" cy="48" r="12" fill="rgb(75,164,123)" opacity="0.35"/>
<circle cx="264" cy="48" r="9" fill="rgb(75,164,123)"/>
<circle cx="288" cy="48" r="12" fill="rgb(71,156,118)" opacity="0.35"/>
<circle cx="288" cy="48" r="9" fill="rgb(71,156,118)"/>
<circle cx="312" cy="48" r="12" fill="rgb(77,169,127)" opacity="0.35"/>
<circle cx="312" cy="48" r="9" fill="rgb(77,169,127)"/>
<circle cx="336" cy="48" r="12" fill="rgb(69,152,115)" opacity="0.35"/>
<circle cx="336" cy="48" r="9" fill="rgb(69,152,115)"/>
<circle cx="360" cy="48" r="12" fill="rgb(43,100,75)" opacity="0.35"/>
<circle cx="360" cy="48" r="9" fill="rgb(43,100,75)"/>
<circle cx="384" cy="48" r="12" fill="rgb(46,107,80)" opacity="0.35"/>
<circle cx="384" cy="48" r="9" fill="rgb(46,107,80)"/>
<circle cx="24" cy="72" r="12" fill="rgb(27,67,50)" opacity="0.35"/>
<circle cx="24" cy="72" r="9" fill="rgb(27,67,50)"/>
<circle cx="48" cy="72" r="12" fill="rgb(41,96,72)" opacity="0.35"/>
<circle cx="48" cy="72" r="9" fill="rgb(41,96,72)"/>
<circle cx="72" cy="72" r="12" fill="rgb(48,111,84)" opacity="0.35"/>
<circle cx="72" cy="72" r="9" fill="rgb(48,111,84)"/>
<circle cx="96" cy="72" r="12" fill="rgb(41,96,72)" opacity="0.35"/>
<circle cx="96" cy="72" r="9" fill="rgb(41,96,72)"/>
<circle cx="120" cy="72" r="12" fill="rgb(46,107,80)" opacity="0.35"/>
<circle cx="120" cy="72" r="9" fill="rgb(46,107,80)"/>
<circle cx="144" cy="72" r="12" fill="rgb(47,109,82)" opacity="0.35"/>
<circle cx="144" cy="72" r="9" fill="rgb(47,109,82)"/>
<circle cx="168" cy="72" r="12" fill="rgb(34,82,61)" opacity="0.35"/>
<circle cx="168" cy="72" r="9" fill="rgb(34,82,61)"/>
<circle cx="192" cy="72" r="12" fill="rgb(34,83,62)" opacity="0.35"/>
<circle cx="192" cy="72" r="9" fill="rgb(34,83,62)"/>
<circle cx="216" cy="72" r="12" fill="rgb(59,131,98)" opacity="0.35"/>
<circle cx="216" cy="72" r="9" fill="rgb(59,131,98)"/>
<circle cx="240" cy="72" r="12" fill="rgb(51,119,89)" opacity="0.35"/>
<circle cx="240" cy="72" r="9" fill="rgb(51,119,89)"/>
<circle cx="264" cy="72" r="12" fill="rgb(79,173,130)" opacity="0.35"/>
<circle cx="264" cy="72" r="9" fill="rgb(79,173,130)"/>
<circle cx="288" cy="72" r="12" fill="rgb(70,156,118)" opacity="0.35"/>
<circle cx="288" cy="72" r="9" fill="rgb(70,156,118)"/>
<circle cx="312" cy="72" r="12" fill="rgb(45,106,79)" opacity="0.35"/>
<circle cx="312" cy="72" r="9" fill="rgb(45,106,79)"/>
<circle cx="336" cy="72" r="12" fill="rgb(30,75,57)" opacity="0.35"/>
<circle cx="336" cy="72" r="9" fill="rgb(30,75,57)"/>
<circle cx="360" cy="72" r="12" fill="rgb(26,65,49)" opacity="0.35"/>
<circle cx="360" cy="72" r="9" fill="rgb(26,65,49)"/>
<circle cx="384" cy="72" r="12" fill="rgb(30,75,57)" opacity="0.35"/>
<circle cx="384" cy="72" r="9" fill="rgb(30,75,57)"/>
<circle cx="24" cy="96" r="12" fill="rgb(33,81,60)" opacity="0.35"/>
<circle cx="24" cy="96" r="9" fill="rgb(33,81,60)"/>
<circle cx="48" cy="96" r="12" fill="rgb(39,93,70)" opacity="0.35"/>
<circle cx="48" cy="96" r="9" fill="rgb(39,93,70)"/>
<circle cx="72" cy="96" r="12" fill="rgb(50,117,87)" opacity="0.35"/>
<circle cx="72" cy="96" r="9" fill="rgb(50,117,87)"/>
<circle cx="96" cy="96" r="12" fill="rgb(69,153,115)" opacity="0.35"/>
<circle cx="96" cy="96" r="9" fill="rgb(69,153,115)"/>
<circle cx="120" cy="96" r="12" fill="rgb(65,145,108)" opacity="0.35"/>
<circle cx="120" cy="96" r="9" fill="rgb(65,145,108)"/>
<circle cx="144" cy="96" r="12" fill="rgb(36,84,63)" opacity="0.35"/>
<circle cx="144" cy="96" r="9" fill="rgb(36,84,63)"/>
<circle cx="168" cy="96" r="12" fill="rgb(26,66,49)" opacity="0.35"/>
<circle cx="168" cy="96" r="9" fill="rgb(26,66,49)"/>
<circle cx="192" cy="96" r="12" fill="rgb(44,102,77)" opacity="0.35"/>
<circle cx="192" cy="96" r="9" fill="rgb(44,102,77)"/>
<circle cx="216" cy="96" r="12" fill="rgb(74,163,122)" opacity="0.35"/>
<circle cx="216" cy="96" r="9" fill="rgb(74,163,122)"/>
<circle cx="240" cy="96" r="12" fill="rgb(69,152,114)" opacity="0.35"/>
<circle cx="240" cy="96" r="9" fill="rgb(69,152,114)"/>
<circle cx="264" cy="96" r="12" fill="rgb(79,172,130)" opacity="0.35"/>
<circle cx="264" cy="96" r="9" fill="rgb(79,172,130)"/>
<circle cx="288" cy="96" r="12" fill="rgb(76,168,127)" opacity="0.35"/>
<circle cx="288" cy="96" r="9" fill="rgb(76,168,127)"/>
<circle cx="312" cy="96" r="12" fill="rgb(45,107,79)" opacity="0.35"/>
<circle cx="312" cy="96" r="9" fill="rgb(45,107,79)"/>
<circle cx="336" cy="96" r="12" fill="rgb(29,72,54)" opacity="0.35"/>
<circle cx="336" cy="96" r="9" fill="rgb(29,72,54)"/>
<circle cx="360" cy="96" r="12" fill="rgb(23,59,44)" opacity="0.35"/>
<circle cx="360" cy="96" r="9" fill="rgb(23,59,44)"/>
<circle cx="384" cy="96" r="12" fill="rgb(28,71,52)" opacity="0.35"/>
<circle cx="384" cy="96" r="9" fill="rgb(28,71,52)"/>
<circle cx="24" cy="120" r="12" fill="rgb(25,62,47)" opacity="0.35"/>
<circle cx="24" cy="120" r="9" fill="rgb(25,62,47)"/>
<circle cx="48" cy="120" r="12" fill="rgb(28,71,53)" opacity="0.35"/>
<circle cx="48" cy="120" r="9" fill="rgb(28,71,53)"/>
<circle cx="72" cy="120" r="12" fill="rgb(48,112,84)" opacity="0.35"/>
<circle cx="72" cy="120" r="9" fill="rgb(48,112,84)"/>
<circle cx="96" cy="120" r="12" fill="rgb(60,138,103)" opacity="0.35"/>
<circle cx="96" cy="120" r="9" fill="rgb(60,138,103)"/>
<circle cx="120" cy="120" r="12" fill="rgb(73,161,120)" opacity="0.35"/>
<circle cx="120" cy="120" r="9" fill="rgb(73,161,120)"/>
<circle cx="144" cy="120" r="12" fill="rgb(55,124,93)" opacity="0.35"/>
<circle cx="144" cy="120" r="9" fill="rgb(55,124,93)"/>
<circle cx="168" cy="120" r="12" fill="rgb(48,111,84)" opacity="0.35"/>
<circle cx="168" cy="120" r="9" fill="rgb(48,111,84)"/>
<circle cx="192" cy="120" r="12" fill="rgb(39,92,69)" opacity="0.35"/>
<circle cx="192" cy="120" r="9" fill="rgb(39,92,69)"/>
<circle cx="216" cy="120" r="12" fill="rgb(64,144,108)" opacity="0.35"/>
<circle cx="216" cy="120" r="9" fill="rgb(64,144,108)"/>
<circle cx="240" cy="120" r="12" fill="rgb(88,187,141)" opacity="0.35"/>
<circle cx="240" cy="120" r="9" fill="rgb(88,187,141)"/>
<circle cx="264" cy="120" r="12" fill="rgb(76,166,125)" opacity="0.35"/>
<circle cx="264" cy="120" r="9" fill="rgb(76,166,125)"/>
<circle cx="288" cy="120" r="12" fill="rgb(40,94,71)" opacity="0.35"/>
<circle cx="288" cy="120" r="9" fill="rgb(40,94,71)"/>
<circle cx="312" cy="120" r="12" fill="rgb(42,99,74)" opacity="0.35"/>
<circle cx="312" cy="120" r="9" fill="rgb(42,99,74)"/>
<circle cx="336" cy="120" r="12" fill="rgb(34,83,61)" opacity="0.35"/>
<circle cx="336" cy="120" r="9" fill="rgb(34,83,61)"/>
<circle cx="360" cy="120" r="12" fill="rgb(31,76,57)" opacity="0.35"/>
<circle cx="360" cy="120" r="9" fill="rgb(31,76,57)"/>
<circle cx="384" cy="120" r="12" fill="rgb(40,94,71)" opacity="0.35"/>
<circle cx="384" cy="120" r="9" fill="rgb(40,94,71)"/>
<circle cx="24" cy="144" r="12" fill="rgb(36,86,64)" opacity="0.35"/>
<circle cx="24" cy="144" r="9" fill="rgb(36,86,64)"/>
<circle cx="48" cy="144" r="12" fill="rgb(39,92,70)" opacity="0.35"/>
<circle cx="48" cy="144" r="9" fill="rgb(39,92,70)"/>
<circle cx="72" cy="144" r="12" fill="rgb(43,101,76)" opacity="0.35"/>
<circle cx="72" cy="144" r="9" fill="rgb(43,101,76)"/>
<circle cx="96" cy="144" r="12" fill="rgb(45,105,79)" opacity="0.35"/>
<circle cx="96" cy="144" r="9" fill="rgb(45,105,79)"/>
<circle cx="120" cy="144" r="12" fill="rgb(52,120,90)" opacity="0.35"/>
<circle cx="120" cy="144" r="9" fill="rgb(52,120,90)"/>
<circle cx="144" cy="144" r="12" fill="rgb(49,113,85)" opacity="0.35"/>
<circle cx="144" cy="144" r="9" fill="rgb(49,113,85)"/>
<circle cx="168" cy="144" r="12" fill="rgb(45,104,78)" opacity="0.35"/>
<circle cx="168" cy="144" r="9" fill="rgb(45,104,78)"/>
<circle cx="192" cy="144" r="12" fill="rgb(36,84,63)" opacity="0.35"/>
<circle cx="192" cy="144" r="9" fill="rgb(36,84,63)"/>
<circle cx="216" cy="144" r="12" fill="rgb(58,131,98)" opacity="0.35"/>
<circle cx="216" cy="144" r="9" fill="rgb(58,131,98)"/>
<circle cx="240" cy="144" r="12" fill="rgb(63,142,107)" opacity="0.35"/>
<circle cx="240" cy="144" r="9" fill="rgb(63,142,107)"/>
<circle cx="264" cy="144" r="12" fill="rgb(39,91,69)" opacity="0.35"/>
<circle cx="264" cy="144" r="9" fill="rgb(39,91,69)"/>
<circle cx="288" cy="144" r="12" fill="rgb(26,66,49)" opacity="0.35"/>
<circle cx="288" cy="144" r="9" fill="rgb(26,66,49)"/>
<circle cx="312" cy="144" r="12" fill="rgb(39,91,68)" opacity="0.35"/>
<circle cx="312" cy="144" r="9" fill="rgb(39,91,68)"/>
<circle cx="336" cy="144" r="12" fill="rgb(36,85,63)" opacity="0.35"/>
<circle cx="336" cy="144" r="9" fill="rgb(36,85,63)"/>
<circle cx="360" cy="144" r="12" fill="rgb(58,131,98)" opacity="0.35"/>
<circle cx="360" cy="144" r="9" fill="rgb(58,131,98)"/>
<circle cx="384" cy="144" r="12" fill="rgb(76,168,126)" opacity="0.35"/>
<circle cx="384" cy="144" r="9" fill="rgb(76,168,126)"/>
<circle cx="24" cy="168" r="12" fill="rgb(42,99,74)" opacity="0.35"/>
<circle cx="24" cy="168" r="9" fill="rgb(42,99,74)"/>
<circle cx="48" cy="168" r="12" fill="rgb(46,108,81)" opacity="0.35"/>
<circle cx="48" cy="168" r="9" fill="rgb(46,108,81)"/>
<circle cx="72" cy="168" r="12" fill="rgb(49,113,85)" opacity="0.35"/>
<circle cx="72" cy="168" r="9" fill="rgb(49,113,85)"/>
<circle cx="96" cy="168" r="12" fill="rgb(53,121,91)" opacity="0.35"/>
<circle cx="96" cy="168" r="9" fill="rgb(53,121,91)"/>
<circle cx="120" cy="168" r="12" fill="rgb(59,131,98)" opacity="0.35"/>
<circle cx="120" cy="168" r="9" fill="rgb(59,131,98)"/>
<circle cx="144" cy="168" r="12" fill="rgb(72,158,119)" opacity="0.35"/>
<circle cx="144" cy="168" r="9" fill="rgb(72,158,119)"/>
<circle cx="168" cy="168" r="12" fill="rgb(70,155,117)" opacity="0.35"/>
<circle cx="168" cy="168" r="9" fill="rgb(70,155,117)"/>
<circle cx="192" cy="168" r="12" fill="rgb(64,146,109)" opacity="0.35"/>
<circle cx="192" cy="168" r="9" fill="rgb(64,146,109)"/>
<circle cx="216" cy="168" r="12" fill="rgb(61,139,104)" opacity="0.35"/>
<circle cx="216" cy="168" r="9" fill="rgb(61,139,104)"/>
<circle cx="240" cy="168" r="12" fill="rgb(44,103,78)" opacity="0.35"/>
<circle cx="240" cy="168" r="9" fill="rgb(44,103,78)"/>
<circle cx="264" cy="168" r="12" fill="rgb(34,83,62)" opacity="0.35"/>
<circle cx="264" cy="168" r="9" fill="rgb(34,83,62)"/>
<circle cx="288" cy="168" r="12" fill="rgb(30,74,56)" opacity="0.35"/>
<circle cx="288" cy="168" r="9" fill="rgb(30,74,56)"/>
<circle cx="312" cy="168" r="12" fill="rgb(31,75,57)" opacity="0.35"/>
<circle cx="312" cy="168" r="9" fill="rgb(31,75,57)"/>
<circle cx="336" cy="168" r="12" fill="rgb(43,100,75)" opacity="0.35"/>
<circle cx="336" cy="168" r="9" fill="rgb(43,100,75)"/>
<circle cx="360" cy="168" r="12" fill="rgb(58,130,97)" opacity="0.35"/>
<circle cx="360" cy="168" r="9" fill="rgb(58,130,97)"/>
<circle cx="384" cy="168" r="12" fill="rgb(82,179,134)" opacity="0.35"/>
<circle cx="384" cy="168" r="9" fill="rgb(82,179,134)"/>
<circle cx="24" cy="192" r="12" fill="rgb(39,92,69)" opacity="0.35"/>
<circle cx="24" cy="192" r="9" fill="rgb(39,92,69)"/>
<circle cx="48" cy="192" r="12" fill="rgb(44,101,76)" opacity="0.35"/>
<circle cx="48" cy="192" r="9" fill="rgb(44,101,76)"/>
<circle cx="72" cy="192" r="12" fill="rgb(46,107,80)" opacity="0.35"/>
<circle cx="72" cy="192" r="9" fill="rgb(46,107,80)"/>
<circle cx="96" cy="192" r="12" fill="rgb(46,107,80)" opacity="0.35"/>
<circle cx="96" cy="192" r="9" fill="rgb(46,107,80)"/>
<circle cx="120" cy="192" r="12" fill="rgb(61,139,104)" opacity="0.35"/>
<circle cx="120" cy="192" r="9" fill="rgb(61,139,104)"/>
<circle cx="144" cy="192" r="12" fill="rgb(73,161,120)" opacity="0.35"/>
<circle cx="144" cy="192" r="9" fill="rgb(73,161,120)"/>
<circle cx="168" cy="192" r="12" fill="rgb(68,150,112)" opacity="0.35"/>
<circle cx="168" cy="192" r="9" fill="rgb(68,150,112)"/>
<circle cx="192" cy="192" r="12" fill="rgb(64,145,109)" opacity="0.35"/>
<circle cx="192" cy="192" r="9" fill="rgb(64,145,109)"/>
<circle cx="216" cy="192" r="12" fill="rgb(53,122,92)" opacity="0.35"/>
<circle cx="216" cy="192" r="9" fill="rgb(53,122,92)"/>
<circle cx="240" cy="192" r="12" fill="rgb(48,112,84)" opacity="0.35"/>
<circle cx="240" cy="192" r="9" fill="rgb(48,112,84)"/>
<circle cx="264" cy="192" r="12" fill="rgb(59,133,100)" opacity="0.35"/>
<circle cx="264" cy="192" r="9" fill="rgb(59,133,100)"/>
<circle cx="288" cy="192" r="12" fill="rgb(45,107,80)" opacity="0.35"/>
<circle cx="288" cy="192" r="9" fill="rgb(45,107,80)"/>
<circle cx="312" cy="192" r="12" fill="rgb(50,116,86)" opacity="0.35"/>
<circle cx="312" cy="192" r="9" fill="rgb(50,116,86)"/>
<circle cx="336" cy="192" r="12" fill="rgb(54,123,93)" opacity="0.35"/>
<circle cx="336" cy="192" r="9" fill="rgb(54,123,93)"/>
<circle cx="360" cy="192" r="12" fill="rgb(45,107,80)" opacity="0.35"/>
<circle cx="360" cy="192" r="9" fill="rgb(45,107,80)"/>
<circle cx="384" cy="192" r="12" fill="rgb(63,142,107)" opacity="0.35"/>
<circle cx="384" cy="192" r="9" fill="rgb(63,142,107)"/>
<circle cx="24" cy="216" r="12" fill="rgb(28,70,52)" opacity="0.35"/>
<circle cx="24" cy="216" r="9" fill="rgb(28,70,52)"/>
<circle cx="48" cy="216" r="12" fill="rgb(34,84,62)" opacity="0.35"/>
<circle cx="48" cy="216" r="9" fill="rgb(34,84,62)"/>
<circle cx="72" cy="216" r="12" fill="rgb(33,80,59)" opacity="0.35"/>
<circle cx="72" cy="216" r="9" fill="rgb(33,80,59)"/>
<circle cx="96" cy="216" r="12" fill="rgb(48,112,84)" opacity="0.35"/>
<circle cx="96" cy="216" r="9" fill="rgb(48,112,84)"/>
<circle cx="120" cy="216" r="12" fill="rgb(61,139,103)" opacity="0.35"/>
<circle cx="120" cy="216" r="9" fill="rgb(61,139,103)"/>
<circle cx="144" cy="216" r="12" fill="rgb(56,127,95)" opacity="0.35"/>
<circle cx="144" cy="216" r="9" fill="rgb(56,127,95)"/>
<circle cx="168" cy="216" r="12" fill="rgb(42,99,75)" opacity="0.35"/>
<circle cx="168" cy="216" r="9" fill="rgb(42,99,75)"/>
<circle cx="192" cy="216" r="12" fill="rgb(67,149,112)" opacity="0.35"/>
<circle cx="192" cy="216" r="9" fill="rgb(67,149,112)"/>
<circle cx="216" cy="216" r="12" fill="rgb(55,126,94)" opacity="0.35"/>
<circle cx="216" cy="216" r="9" fill="rgb(55,126,94)"/>
<circle cx="240" cy="216" r="12" fill="rgb(51,119,88)" opacity="0.35"/>
<circle cx="240" cy="216" r="9" fill="rgb(51,119,88)"/>
<circle cx="264" cy="216" r="12" fill="rgb(68,152,114)" opacity="0.35"/>
<circle cx="264" cy="216" r="9" fill="rgb(68,152,114)"/>
<circle cx="288" cy="216" r="12" fill="rgb(78,172,130)" opacity="0.35"/>
<circle cx="288" cy="216" r="9" fill="rgb(78,172,130)"/>
<circle cx="312" cy="216" r="12" fill="rgb(117,199,158)" opacity="0.35"/>
<circle cx="312" cy="216" r="9" fill="rgb(117,199,158)"/>
<circle cx="336" cy="216" r="12" fill="rgb(66,147,110)" opacity="0.35"/>
<circle cx="336" cy="216" r="9" fill="rgb(66,147,110)"/>
<circle cx="360" cy="216" r="12" fill="rgb(41,96,72)" opacity="0.35"/>
<circle cx="360" cy="216" r="9" fill="rgb(41,96,72)"/>
<circle cx="384" cy="216" r="12" fill="rgb(43,101,76)" opacity="0.35"/>
<circle cx="384" cy="216" r="9" fill="rgb(43,101,76)"/>
<circle cx="24" cy="240" r="12" fill="rgb(34,82,61)" opacity="0.35"/>
<circle cx="24" cy="240" r="9" fill="rgb(34,82,61)"/>
<circle cx="48" cy="240" r="12" fill="rgb(29,71,53)" opacity="0.35"/>
<circle cx="48" cy="240" r="9" fill="rgb(29,71,53)"/>
<circle cx="72" cy="240" r="12" fill="rgb(33,80,59)" opacity="0.35"/>
<circle cx="72" cy="240" r="9" fill="rgb(33,80,59)"/>
<circle cx="96" cy="240" r="12" fill="rgb(45,107,80)" opacity="0.35"/>
<circle cx="96" cy="240" r="9" fill="rgb(45,107,80)"/>
<circle cx="120" cy="240" r="12" fill="rgb(47,110,83)" opacity="0.35"/>
<circle cx="120" cy="240" r="9" fill="rgb(47,110,83)"/>
<circle cx="144" cy="240" r="12" fill="rgb(33,80,59)" opacity="0.35"/>
<circle cx="144" cy="240" r="9" fill="rgb(33,80,59)"/>
<circle cx="168" cy="240" r="12" fill="rgb(40,93,70)" opacity="0.35"/>
<circle cx="168" cy="240" r="9" fill="rgb(40,93,70)"/>
<circle cx="192" cy="240" r="12" fill="rgb(48,111,84)" opacity="0.35"/>
<circle cx="192" cy="240" r="9" fill="rgb(48,111,84)"/>
<circle cx="216" cy="240" r="12" fill="rgb(38,89,67)" opacity="0.35"/>
<circle cx="216" cy="240" r="9" fill="rgb(38,89,67)"/>
<circle cx="240" cy="240" r="12" fill="rgb(40,93,70)" opacity="0.35"/>
<circle cx="240" cy="240" r="9" fill="rgb(40,93,70)"/>
<circle cx="264" cy="240" r="12" fill="rgb(45,104,78)" opacity="0.35"/>
<circle cx="264" cy="240" r="9" fill="rgb(45,104,78)"/>
<circle cx="288" cy="240" r="12" fill="rgb(67,148,111)" opacity="0.35"/>
<circle cx="288" cy="240" r="9" fill="rgb(67,148,111)"/>
<circle cx="312" cy="240" r="12" fill="rgb(74,163,122)" opacity="0.35"/>
<circle cx="312" cy="240" r="9" fill="rgb(74,163,122)"/>
<circle cx="336" cy="240" r="12" fill="rgb(47,109,82)" opacity="0.35"/>
<circle cx="336" cy="240" r="9" fill="rgb(47,109,82)"/>
<circle cx="360" cy="240" r="12" fill="rgb(39,91,69)" opacity="0.35"/>
<circle cx="360" cy="240" r="9" fill="rgb(39,91,69)"/>
<circle cx="384" cy="240" r="12" fill="rgb(31,77,58)" opacity="0.35"/>
<circle cx="384" cy="240" r="9" fill="rgb(31,77,58)"/>
<circle cx="24" cy="264" r="12" fill="rgb(60,138,103)" opacity="0.35"/>
<circle cx="24" cy="264" r="9" fill="rgb(60,138,103)"/>
<circle cx="48" cy="264" r="12" fill="rgb(64,145,108)" opacity="0.35"/>
<circle cx="48" cy="264" r="9" fill="rgb(64,145,108)"/>
<circle cx="72" cy="264" r="12" fill="rgb(58,130,97)" opacity="0.35"/>
<circle cx="72" cy="264" r="9" fill="rgb(58,130,97)"/>
<circle cx="96" cy="264" r="12" fill="rgb(46,107,80)" opacity="0.35"/>
<circle cx="96" cy="264" r="9" fill="rgb(46,107,80)"/>
<circle cx="120" cy="264" r="12" fill="rgb(42,98,74)" opacity="0.35"/>
<circle cx="120" cy="264" r="9" fill="rgb(42,98,74)"/>
<circle cx="144" cy="264" r="12" fill="rgb(29,73,54)" opacity="0.35"/>
<circle cx="144" cy="264" r="9" fill="rgb(29,73,54)"/>
<circle cx="168" cy="264" r="12" fill="rgb(25,62,47)" opacity="0.35"/>
<circle cx="168" cy="264" r="9" fill="rgb(25,62,47)"/>
<circle cx="192" cy="264" r="12" fill="rgb(36,86,64)" opacity="0.35"/>
<circle cx="192" cy="264" r="9" fill="rgb(36,86,64)"/>
<circle cx="216" cy="264" r="12" fill="rgb(27,69,51)" opacity="0.35"/>
<circle cx="216" cy="264" r="9" fill="rgb(27,69,51)"/>
<circle cx="240" cy="264" r="12" fill="rgb(40,93,70)" opacity="0.35"/>
<circle cx="240" cy="264" r="9" fill="rgb(40,93,70)"/>
<circle cx="264" cy="264" r="12" fill="rgb(41,95,72)" opacity="0.35"/>
<circle cx="264" cy="264" r="9" fill="rgb(41,95,72)"/>
<circle cx="288" cy="264" r="12" fill="rgb(39,92,69)" opacity="0.35"/>
<circle cx="288" cy="264" r="9" fill="rgb(39,92,69)"/>
<circle cx="312" cy="264" r="12" fill="rgb(50,117,87)" opacity="0.35"/>
<circle cx="312" cy="264" r="9" fill="rgb(50,117,87)"/>
<circle cx="336" cy="264" r="12" fill="rgb(30,74,56)" opacity="0.35"/>
<circle cx="336" cy="264" r="9" fill="rgb(30,74,56)"/>
<circle cx="360" cy="264" r="12" fill="rgb(25,63,48)" opacity="0.35"/>
<circle cx="360" cy="264" r="9" fill="rgb(25,63,48)"/>
<circle cx="384" cy="264" r="12" fill="rgb(37,88,67)" opacity="0.35"/>
<circle cx="384" cy="264" r="9" fill="rgb(37,88,67)"/>
<circle cx="24" cy="288" r="12" fill="rgb(77,170,128)" opacity="0.35"/>
<circle cx="24" cy="288" r="9" fill="rgb(77,170,128)"/>
<circle cx="48" cy="288" r="12" fill="rgb(79,173,130)" opacity="0.35"/>
<circle cx="48" cy="288" r="9" fill="rgb(79,173,130)"/>
<circle cx="72" cy="288" r="12" fill="rgb(82,180,136)" opacity="0.35"/>
<circle cx="72" cy="288" r="9" fill="rgb(82,180,136)"/>
<circle cx="96" cy="288" r="12" fill="rgb(57,129,96)" opacity="0.35"/>
<circle cx="96" cy="288" r="9" fill="rgb(57,129,96)"/>
<circle cx="120" cy="288" r="12" fill="rgb(37,87,66)" opacity="0.35"/>
<circle cx="120" cy="288" r="9" fill="rgb(37,87,66)"/>
<circle cx="144" cy="288" r="12" fill="rgb(38,90,68)" opacity="0.35"/>
<circle cx="144" cy="288" r="9" fill="rgb(38,90,68)"/>
<circle cx="168" cy="288" r="12" fill="rgb(33,82,61)" opacity="0.35"/>
<circle cx="168" cy="288" r="9" fill="rgb(33,82,61)"/>
<circle cx="192" cy="288" r="12" fill="rgb(44,102,77)" opacity="0.35"/>
<circle cx="192" cy="288" r="9" fill="rgb(44,102,77)"/>
<circle cx="216" cy="288" r="12" fill="rgb(38,89,67)" opacity="0.35"/>
<circle cx="216" cy="288" r="9" fill="rgb(38,89,67)"/>
<circle cx="240" cy="288" r="12" fill="rgb(36,86,64)" opacity="0.35"/>
<circle cx="240" cy="288" r="9" fill="rgb(36,86,64)"/>
<circle cx="264" cy="288" r="12" fill="rgb(40,94,71)" opacity="0.35"/>
<circle cx="264" cy="288" r="9" fill="rgb(40,94,71)"/>
<circle cx="288" cy="288" r="12" fill="rgb(36,85,63)" opacity="0.35"/>
<circle cx="288" cy="288" r="9" fill="rgb(36,85,63)"/>
<circle cx="312" cy="288" r="12" fill="rgb(40,95,71)" opacity="0.35"/>
<circle cx="312" cy="288" r="9" fill="rgb(40,95,71)"/>
<circle cx="336" cy="288" r="12" fill="rgb(37,87,65)" opacity="0.35"/>
<circle cx="336" cy="288" r="9" fill="rgb(37,87,65)"/>
<circle cx="360" cy="288" r="12" fill="rgb(36,84,63)" opacity="0.35"/>
<circle cx="360" cy="288" r="9" fill="rgb(36,84,63)"/>
<circle cx="384" cy="288" r="12" fill="rgb(51,118,88)" opacity="0.35"/>
<circle cx="384" cy="288" r="9" fill="rgb(51,118,88)"/>
<circle cx="24" cy="312" r="12" fill="rgb(76,167,125)" opacity="0.35"/>
<circle cx="24" cy="312" r="9" fill="rgb(76,167,125)"/>
<circle cx="48" cy="312" r="12" fill="rgb(70,155,117)" opacity="0.35"/>
<circle cx="48" cy="312" r="9" fill="rgb(70,155,117)"/>
<circle cx="72" cy="312" r="12" fill="rgb(81,177,132)" opacity="0.35"/>
<circle cx="72" cy="312" r="9" fill="rgb(81,177,132)"/>
<circle cx="96" cy="312" r="12" fill="rgb(85,186,140)" opacity="0.35"/>
<circle cx="96" cy="312" r="9" fill="rgb(85,186,140)"/>
<circle cx="120" cy="312" r="12" fill="rgb(55,125,93)" opacity="0.35"/>
<circle cx="120" cy="312" r="9" fill="rgb(55,125,93)"/>
<circle cx="144" cy="312" r="12" fill="rgb(39,93,70)" opacity="0.35"/>
<circle cx="144" cy="312" r="9" fill="rgb(39,93,70)"/>
<circle cx="168" cy="312" r="12" fill="rgb(41,97,73)" opacity="0.35"/>
<circle cx="168" cy="312" r="9" fill="rgb(41,97,73)"/>
<circle cx="192" cy="312" r="12" fill="rgb(39,92,70)" opacity="0.35"/>
<circle cx="192" cy="312" r="9" fill="rgb(39,92,70)"/>
<circle cx="216" cy="312" r="12" fill="rgb(38,91,68)" opacity="0.35"/>
<circle cx="216" cy="312" r="9" fill="rgb(38,91,68)"/>
<circle cx="240" cy="312" r="12" fill="rgb(36,85,63)" opacity="0.35"/>
<circle cx="240" cy="312" r="9" fill="rgb(36,85,63)"/>
<circle cx="264" cy="312" r="12" fill="rgb(54,123,92)" opacity="0.35"/>
<circle cx="264" cy="312" r="9" fill="rgb(54,123,92)"/>
<circle cx="288" cy="312" r="12" fill="rgb(64,143,107)" opacity="0.35"/>
<circle cx="288" cy="312" r="9" fill="rgb(64,143,107)"/>
<circle cx="312" cy="312" r="12" fill="rgb(62,140,106)" opacity="0.35"/>
<circle cx="312" cy="312" r="9" fill="rgb(62,140,106)"/>
<circle cx="336" cy="312" r="12" fill="rgb(67,148,111)" opacity="0.35"/>
<circle cx="336" cy="312" r="9" fill="rgb(67,148,111)"/>
<circle cx="360" cy="312" r="12" fill="rgb(58,130,97)" opacity="0.35"/>
<circle cx="360" cy="312" r="9" fill="rgb(58,130,97)"/>
<circle cx="384" cy="312" r="12" fill="rgb(61,138,103)" opacity="0.35"/>
<circle cx="384" cy="312" r="9" fill="rgb(61,138,103)"/>
<circle cx="24" cy="336" r="12" fill="rgb(59,136,101)" opacity="0.35"/>
<circle cx="24" cy="336" r="9" fill="rgb(59,136,101)"/>
<circle cx="48" cy="336" r="12" fill="rgb(51,118,88)" opacity="0.35"/>
<circle cx="48" cy="336" r="9" fill="rgb(51,118,88)"/>
<circle cx="72" cy="336" r="12" fill="rgb(69,154,115)" opacity="0.35"/>
<circle cx="72" cy="336" r="9" fill="rgb(69,154,115)"/>
<circle cx="96" cy="336" r="12" fill="rgb(84,184,139)" opacity="0.35"/>
<circle cx="96" cy="336" r="9" fill="rgb(84,184,139)"/>
<circle cx="120" cy="336" r="12" fill="rgb(67,148,111)" opacity="0.35"/>
<circle cx="120" cy="336" r="9" fill="rgb(67,148,111)"/>
<circle cx="144" cy="336" r="12" fill="rgb(41,96,72)" opacity="0.35"/>
<circle cx="144" cy="336" r="9" fill="rgb(41,96,72)"/>
<circle cx="168" cy="336" r="12" fill="rgb(24,61,46)" opacity="0.35"/>
<circle cx="168" cy="336" r="9" fill="rgb(24,61,46)"/>
<circle cx="192" cy="336" r="12" fill="rgb(41,96,72)" opacity="0.35"/>
<circle cx="192" cy="336" r="9" fill="rgb(41,96,72)"/>
<circle cx="216" cy="336" r="12" fill="rgb(34,83,62)" opacity="0.35"/>
<circle cx="216" cy="336" r="9" fill="rgb(34,83,62)"/>
<circle cx="240" cy="336" r="12" fill="rgb(40,93,70)" opacity="0.35"/>
<circle cx="240" cy="336" r="9" fill="rgb(40,93,70)"/>
<circle cx="264" cy="336" r="12" fill="rgb(72,160,120)" opacity="0.35"/>
<circle cx="264" cy="336" r="9" fill="rgb(72,160,120)"/>
<circle cx="288" cy="336" r="12" fill="rgb(83,183,138)" opacity="0.35"/>
<circle cx="288" cy="336" r="9" fill="rgb(83,183,138)"/>
<circle cx="312" cy="336" r="12" fill="rgb(78,171,129)" opacity="0.35"/>
<circle cx="312" cy="336" r="9" fill="rgb(78,171,129)"/>
<circle cx="336" cy="336" r="12" fill="rgb(56,127,95)" opacity="0.35"/>
<circle cx="336" cy="336" r="9" fill="rgb(56,127,95)"/>
<circle cx="360" cy="336" r="12" fill="rgb(50,115,86)" opacity="0.35"/>
<circle cx="360" cy="336" r="9" fill="rgb(50,115,86)"/>
<circle cx="384" cy="336" r="12" fill="rgb(73,161,121)" opacity="0.35"/>
<circle cx="384" cy="336" r="9" fill="rgb(73,161,121)"/>
<circle cx="24" cy="360" r="12" fill="rgb(56,126,94)" opacity="0.35"/>
<circle cx="24" cy="360" r="9" fill="rgb(56,126,94)"/>
<circle cx="48" cy="360" r="12" fill="rgb(38,90,68)" opacity="0.35"/>
<circle cx="48" cy="360" r="9" fill="rgb(38,90,68)"/>
<circle cx="72" cy="360" r="12" fill="rgb(74,162,121)" opacity="0.35"/>
<circle cx="72" cy="360" r="9" fill="rgb(74,162,121)"/>
<circle cx="96" cy="360" r="12" fill="rgb(68,150,112)" opacity="0.35"/>
<circle cx="96" cy="360" r="9" fill="rgb(68,150,112)"/>
<circle cx="120" cy="360" r="12" fill="rgb(60,138,103)" opacity="0.35"/>
<circle cx="120" cy="360" r="9" fill="rgb(60,138,103)"/>
<circle cx="144" cy="360" r="12" fill="rgb(56,127,94)" opacity="0.35"/>
<circle cx="144" cy="360" r="9" fill="rgb(56,127,94)"/>
<circle cx="168" cy="360" r="12" fill="rgb(40,94,71)" opacity="0.35"/>
<circle cx="168" cy="360" r="9" fill="rgb(40,94,71)"/>
<circle cx="192" cy="360" r="12" fill="rgb(34,83,61)" opacity="0.35"/>
<circle cx="192" cy="360" r="9" fill="rgb(34,83,61)"/>
<circle cx="216" cy="360" r="12" fill="rgb(46,107,80)" opacity="0.35"/>
<circle cx="216" cy="360" r="9" fill="rgb(46,107,80)"/>
<circle cx="240" cy="360" r="12" fill="rgb(50,117,87)" opacity="0.35"/>
<circle cx="240" cy="360" r="9" fill="rgb(50,117,87)"/>
<circle cx="264" cy="360" r="12" fill="rgb(51,118,88)" opacity="0.35"/>
<circle cx="264" cy="360" r="9" fill="rgb(51,118,88)"/>
<circle cx="288" cy="360" r="12" fill="rgb(72,159,120)" opacity="0.35"/>
<circle cx="288" cy="360" r="9" fill="rgb(72,159,120)"/>
<circle cx="312" cy="360" r="12" fill="rgb(42,99,74)" opacity="0.35"/>
<circle cx="312" cy="360" r="9" fill="rgb(42,99,74)"/>
<circle cx="336" cy="360" r="12" fill="rgb(33,81,60)" opacity="0.35"/>
<circle cx="336" cy="360" r="9" fill="rgb(33,81,60)"/>
<circle cx="360" cy="360" r="12" fill="rgb(44,102,77)" opacity="0.35"/>
<circle cx="360" cy="360" r="9" fill="rgb(44,102,77)"/>
<circle cx="384" cy="360" r="12" fill="rgb(69,153,115)" opacity="0.35"/>
<circle cx="384" cy="360" r="9" fill="rgb(69,153,115)"/>
<circle cx="24" cy="384" r="12" fill="rgb(43,100,75)" opacity="0.35"/>
<circle cx="24" cy="384" r="9" fill="rgb(43,100,75)"/>
<circle cx="48" cy="384" r="12" fill="rgb(26,66,49)" opacity="0.35"/>
<circle cx="48" cy="384" r="9" fill="rgb(26,66,49)"/>
<circle cx="72" cy="384" r="12" fill="rgb(45,105,79)" opacity="0.35"/>
<circle cx="72" cy="384" r="9" fill="rgb(45,105,79)"/>
<circle cx="96" cy="384" r="12" fill="rgb(58,130,98)" opacity="0.35"/>
<circle cx="96" cy="384" r="9" fill="rgb(58,130,98)"/>
<circle cx="120" cy="384" r="12" fill="rgb(52,120,89)" opacity="0.35"/>
<circle cx="120" cy="384" r="9" fill="rgb(52,120,89)"/>
<circle cx="144" cy="384" r="12" fill="rgb(58,130,98)" opacity="0.35"/>
<circle cx="144" cy="384" r="9" fill="rgb(58,130,98)"/>
<circle cx="168" cy="384" r="12" fill="rgb(40,93,70)" opacity="0.35"/>
<circle cx="168" cy="384" r="9" fill="rgb(40,93,70)"/>
<circle cx="192" cy="384" r="12" fill="rgb(37,88,66)" opacity="0.35"/>
<circle cx="192" cy="384" r="9" fill="rgb(37,88,66)"/>
<circle cx="216" cy="384" r="12" fill="rgb(54,124,93)" opacity="0.35"/>
<circle cx="216" cy="384" r="9" fill="rgb(54,124,93)"/>
<circle cx="240" cy="384" r="12" fill="rgb(64,144,108)" opacity="0.35"/>
<circle cx="240" cy="384" r="9" fill="rgb(64,144,108)"/>
<circle cx="264" cy="384" r="12" fill="rgb(69,153,114)" opacity="0.35"/>
<circle cx="264" cy="384" r="9" fill="rgb(69,153,114)"/>
<circle cx="288" cy="384" r="12" fill="rgb(47,108,81)" opacity="0.35"/>
<circle cx="288" cy="384" r="9" fill="rgb(47,108,81)"/>
<circle cx="312" cy="384" r="12" fill="rgb(24,61,46)" opacity="0.35"/>
<circle cx="312" cy="384" r="9" fill="rgb(24,61,46)"/>
<circle cx="336" cy="384" r="12" fill="rgb(27,68,51)" opacity="0.35"/>
<circle cx="336" cy="384" r="9" fill="rgb(27,68,51)"/>
<circle cx="360" cy="384" r="12" fill="rgb(32,78,59)" opacity="0.35"/>
<circle cx="360" cy="384" r="9" fill="rgb(32,78,59)"/>
<circle cx="384" cy="384" r="12" fill="rgb(43,101,76)" opacity="0.35"/>
<circle cx="384" cy="384" r="9" fill="rgb(43,101,76)"/>
</svg>
