<svg xmlns="http://www.w3.org/2000/svg" viewBox="0 0 408 408" width="408" height="408" role="img" aria-label="LED preview of the Gabor Noise example graph">
<rect width="408" height="408" rx="10" fill="#05070a"/>
<circle cx="24" cy="24" r="12" fill="rgb(255,32,0)" opacity="0.35"/>
<circle cx="24" cy="24" r="9" fill="rgb(255,32,0)"/>
<circle cx="48" cy="24" r="12" fill="rgb(181,15,250)" opacity="0.35"/>
<circle cx="48" cy="24" r="9" fill="rgb(181,15,250)"/>
<circle cx="72" cy="24" r="12" fill="rgb(255,29,0)" opacity="0.35"/>
<circle cx="72" cy="24" r="9" fill="rgb(255,29,0)"/>
<circle cx="96" cy="24" r="12" fill="rgb(102,53,252)" opacity="0.35"/>
<circle cx="96" cy="24" r="9" fill="rgb(102,53,252)"/>
<circle cx="120" cy="24" r="12" fill="rgb(29,118,254)" opacity="0.35"/>
<circle cx="120" cy="24" r="9" fill="rgb(29,118,254)"/>
<circle cx="144" cy="24" r="12" fill="rgb(111,49,252)" opacity="0.35"/>
<circle cx="144" cy="24" r="9" fill="rgb(111,49,252)"/>
<circle cx="168" cy="24" r="12" fill="rgb(0,177,249)" opacity="0.35"/>
<circle cx="168" cy="24" r="9" fill="rgb(0,177,249)"/>
<circle cx="192" cy="24" r="12" fill="rgb(0,200,83)" opacity="0.35"/>
<circle cx="192" cy="24" r="9" fill="rgb(0,200,83)"/>
<circle cx="216" cy="24" r="12" fill="rgb(0,188,169)" opacity="0.35"/>
<circle cx="216" cy="24" r="9" fill="rgb(0,188,169)"/>
<circle cx="240" cy="24" r="12" fill="rgb(255,51,0)" opacity="0.35"/>
<circle cx="240" cy="24" r="9" fill="rgb(255,51,0)"/>
<circle cx="264" cy="24" r="12" fill="rgb(82,63,253)" opacity="0.35"/>
<circle cx="264" cy="24" r="9" fill="rgb(82,63,253)"/>
<circle cx="288" cy="24" r="12" fill="rgb(255,116,0)" opacity="0.35"/>
<circle cx="288" cy="24" r="9" fill="rgb(255,116,0)"/>
<circle cx="312" cy="24" r="12" fill="rgb(255,29,0)" opacity="0.35"/>
<circle cx="312" cy="24" r="9" fill="rgb(255,29,0)"/>
<circle cx="336" cy="24" r="12" fill="rgb(71,204,60)" opacity="0.35"/>
<circle cx="336" cy="24" r="9" fill="rgb(71,204,60)"/>
<circle cx="360" cy="24" r="12" fill="rgb(255,10,0)" opacity="0.35"/>
<circle cx="360" cy="24" r="9" fill="rgb(255,10,0)"/>
<circle cx="384" cy="24" r="12" fill="rgb(183,14,250)" opacity="0.35"/>
<circle cx="384" cy="24" r="9" fill="rgb(183,14,250)"/>
<circle cx="24" cy="48" r="12" fill="rgb(44,87,254)" opacity="0.35"/>
<circle cx="24" cy="48" r="9" fill="rgb(44,87,254)"/>
<circle cx="48" cy="48" r="12" fill="rgb(210,211,15)" opacity="0.35"/>
<circle cx="48" cy="48" r="9" fill="rgb(210,211,15)"/>
<circle cx="72" cy="48" r="12" fill="rgb(10,155,255)" opacity="0.35"/>
<circle cx="72" cy="48" r="9" fill="rgb(10,155,255)"/>
<circle cx="96" cy="48" r="12" fill="rgb(7,163,255)" opacity="0.35"/>
<circle cx="96" cy="48" r="9" fill="rgb(7,163,255)"/>
<circle cx="120" cy="48" r="12" fill="rgb(73,67,253)" opacity="0.35"/>
<circle cx="120" cy="48" r="9" fill="rgb(73,67,253)"/>
<circle cx="144" cy="48" r="12" fill="rgb(33,109,254)" opacity="0.35"/>
<circle cx="144" cy="48" r="9" fill="rgb(33,109,254)"/>
<circle cx="168" cy="48" r="12" fill="rgb(13,150,255)" opacity="0.35"/>
<circle cx="168" cy="48" r="9" fill="rgb(13,150,255)"/>
<circle cx="192" cy="48" r="12" fill="rgb(31,202,73)" opacity="0.35"/>
<circle cx="192" cy="48" r="9" fill="rgb(31,202,73)"/>
<circle cx="216" cy="48" r="12" fill="rgb(137,36,251)" opacity="0.35"/>
<circle cx="216" cy="48" r="9" fill="rgb(137,36,251)"/>
<circle cx="240" cy="48" r="12" fill="rgb(93,58,253)" opacity="0.35"/>
<circle cx="240" cy="48" r="9" fill="rgb(93,58,253)"/>
<circle cx="264" cy="48" r="12" fill="rgb(255,103,0)" opacity="0.35"/>
<circle cx="264" cy="48" r="9" fill="rgb(255,103,0)"/>
<circle cx="288" cy="48" r="12" fill="rgb(255,193,0)" opacity="0.35"/>
<circle cx="288" cy="48" r="9" fill="rgb(255,193,0)"/>
<circle cx="312" cy="48" r="12" fill="rgb(221,211,11)" opacity="0.35"/>
<circle cx="312" cy="48" r="9" fill="rgb(221,211,11)"/>
<circle cx="336" cy="48" r="12" fill="rgb(255,94,0)" opacity="0.35"/>
<circle cx="336" cy="48" r="9" fill="rgb(255,94,0)"/>
<circle cx="360" cy="48" r="12" fill="rgb(48,80,254)" opacity="0.35"/>
<circle cx="360" cy="48" r="9" fill="rgb(48,80,254)"/>
<circle cx="384" cy="48" r="12" fill="rgb(107,205,48)" opacity="0.35"/>
<circle cx="384" cy="48" r="9" fill="rgb(107,205,48)"/>
<circle cx="24" cy="72" r="12" fill="rgb(0,186,182)" opacity="0.35"/>
<circle cx="24" cy="72" r="9" fill="rgb(0,186,182)"/>
<circle cx="48" cy="72" r="12" fill="rgb(0,196,108)" opacity="0.35"/>
<circle cx="48" cy="72" r="9" fill="rgb(0,196,108)"/>
<circle cx="72" cy="72" r="12" fill="rgb(0,190,153)" opacity="0.35"/>
<circle cx="72" cy="72" r="9" fill="rgb(0,190,153)"/>
<circle cx="96" cy="72" r="12" fill="rgb(255,109,0)" opacity="0.35"/>
<circle cx="96" cy="72" r="9" fill="rgb(255,109,0)"/>
<circle cx="120" cy="72" r="12" fill="rgb(28,119,254)" opacity="0.35"/>
<circle cx="120" cy="72" r="9" fill="rgb(28,119,254)"/>
<circle cx="144" cy="72" r="12" fill="rgb(36,103,254)" opacity="0.35"/>
<circle cx="144" cy="72" r="9" fill="rgb(36,103,254)"/>
<circle cx="168" cy="72" r="12" fill="rgb(255,138,0)" opacity="0.35"/>
<circle cx="168" cy="72" r="9" fill="rgb(255,138,0)"/>
<circle cx="192" cy="72" r="12" fill="rgb(16,144,255)" opacity="0.35"/>
<circle cx="192" cy="72" r="9" fill="rgb(16,144,255)"/>
<circle cx="216" cy="72" r="12" fill="rgb(255,40,0)" opacity="0.35"/>
<circle cx="216" cy="72" r="9" fill="rgb(255,40,0)"/>
<circle cx="240" cy="72" r="12" fill="rgb(255,197,0)" opacity="0.35"/>
<circle cx="240" cy="72" r="9" fill="rgb(255,197,0)"/>
<circle cx="264" cy="72" r="12" fill="rgb(255,177,0)" opacity="0.35"/>
<circle cx="264" cy="72" r="9" fill="rgb(255,177,0)"/>
<circle cx="288" cy="72" r="12" fill="rgb(255,180,0)" opacity="0.35"/>
<circle cx="288" cy="72" r="9" fill="rgb(255,180,0)"/>
<circle cx="312" cy="72" r="12" fill="rgb(166,22,250)" opacity="0.35"/>
<circle cx="312" cy="72" r="9" fill="rgb(166,22,250)"/>
<circle cx="336" cy="72" r="12" fill="rgb(48,80,254)" opacity="0.35"/>
<circle cx="336" cy="72" r="9" fill="rgb(48,80,254)"/>
<circle cx="360" cy="72" r="12" fill="rgb(0,197,107)" opacity="0.35"/>
<circle cx="360" cy="72" r="9" fill="rgb(0,197,107)"/>
<circle cx="384" cy="72" r="12" fill="rgb(255,195,0)" opacity="0.35"/>
<circle cx="384" cy="72" r="9" fill="rgb(255,195,0)"/>
<circle cx="24" cy="96" r="12" fill="rgb(0,185,188)" opacity="0.35"/>
<circle cx="24" cy="96" r="9" fill="rgb(0,185,188)"/>
<circle cx="48" cy="96" r="12" fill="rgb(94,205,52)" opacity="0.35"/>
<circle cx="48" cy="96" r="9" fill="rgb(94,205,52)"/>
<circle cx="72" cy="96" r="12" fill="rgb(255,207,0)" opacity="0.35"/>
<circle cx="72" cy="96" r="9" fill="rgb(255,207,0)"/>
<circle cx="96" cy="96" r="12" fill="rgb(5,166,255)" opacity="0.35"/>
<circle cx="96" cy="96" r="9" fill="rgb(5,166,255)"/>
<circle cx="120" cy="96" r="12" fill="rgb(0,178,244)" opacity="0.35"/>
<circle cx="120" cy="96" r="9" fill="rgb(0,178,244)"/>
<circle cx="144" cy="96" r="12" fill="rgb(192,10,250)" opacity="0.35"/>
<circle cx="144" cy="96" r="9" fill="rgb(192,10,250)"/>
<circle cx="168" cy="96" r="12" fill="rgb(0,178,244)" opacity="0.35"/>
<circle cx="168" cy="96" r="9" fill="rgb(0,178,244)"/>
<circle cx="192" cy="96" r="12" fill="rgb(28,201,74)" opacity="0.35"/>
<circle cx="192" cy="96" r="9" fill="rgb(28,201,74)"/>
<circle cx="216" cy="96" r="12" fill="rgb(208,211,15)" opacity="0.35"/>
<circle cx="216" cy="96" r="9" fill="rgb(208,211,15)"/>
<circle cx="240" cy="96" r="12" fill="rgb(167,22,250)" opacity="0.35"/>
<circle cx="240" cy="96" r="9" fill="rgb(167,22,250)"/>
<circle cx="264" cy="96" r="12" fill="rgb(235,212,7)" opacity="0.35"/>
<circle cx="264" cy="96" r="9" fill="rgb(235,212,7)"/>
<circle cx="288" cy="96" r="12" fill="rgb(42,91,254)" opacity="0.35"/>
<circle cx="288" cy="96" r="9" fill="rgb(42,91,254)"/>
<circle cx="312" cy="96" r="12" fill="rgb(255,34,0)" opacity="0.35"/>
<circle cx="312" cy="96" r="9" fill="rgb(255,34,0)"/>
<circle cx="336" cy="96" r="12" fill="rgb(0,190,158)" opacity="0.35"/>
<circle cx="336" cy="96" r="9" fill="rgb(0,190,158)"/>
<circle cx="360" cy="96" r="12" fill="rgb(247,213,2)" opacity="0.35"/>
<circle cx="360" cy="96" r="9" fill="rgb(247,213,2)"/>
<circle cx="384" cy="96" r="12" fill="rgb(6,164,255)" opacity="0.35"/>
<circle cx="384" cy="96" r="9" fill="rgb(6,164,255)"/>
<circle cx="24" cy="120" r="12" fill="rgb(162,208,30)" opacity="0.35"/>
<circle cx="24" cy="120" r="9" fill="rgb(162,208,30)"/>
<circle cx="48" cy="120" r="12" fill="rgb(255,127,0)" opacity="0.35"/>
<circle cx="48" cy="120" r="9" fill="rgb(255,127,0)"/>
<circle cx="72" cy="120" r="12" fill="rgb(29,117,254)" opacity="0.35"/>
<circle cx="72" cy="120" r="9" fill="rgb(29,117,254)"/>
<circle cx="96" cy="120" r="12" fill="rgb(0,191,151)" opacity="0.35"/>
<circle cx="96" cy="120" r="9" fill="rgb(0,191,151)"/>
<circle cx="120" cy="120" r="12" fill="rgb(255,62,0)" opacity="0.35"/>
<circle cx="120" cy="120" r="9" fill="rgb(255,62,0)"/>
<circle cx="144" cy="120" r="12" fill="rgb(13,151,255)" opacity="0.35"/>
<circle cx="144" cy="120" r="9" fill="rgb(13,151,255)"/>
<circle cx="168" cy="120" r="12" fill="rgb(44,88,254)" opacity="0.35"/>
<circle cx="168" cy="120" r="9" fill="rgb(44,88,254)"/>
<circle cx="192" cy="120" r="12" fill="rgb(255,126,0)" opacity="0.35"/>
<circle cx="192" cy="120" r="9" fill="rgb(255,126,0)"/>
<circle cx="216" cy="120" r="12" fill="rgb(0,179,236)" opacity="0.35"/>
<circle cx="216" cy="120" r="9" fill="rgb(0,179,236)"/>
<circle cx="240" cy="120" r="12" fill="rgb(0,198,96)" opacity="0.35"/>
<circle cx="240" cy="120" r="9" fill="rgb(0,198,96)"/>
<circle cx="264" cy="120" r="12" fill="rgb(255,32,0)" opacity="0.35"/>
<circle cx="264" cy="120" r="9" fill="rgb(255,32,0)"/>
<circle cx="288" cy="120" r="12" fill="rgb(207,3,249)" opacity="0.35"/>
<circle cx="288" cy="120" r="9" fill="rgb(207,3,249)"/>
<circle cx="312" cy="120" r="12" fill="rgb(1,174,255)" opacity="0.35"/>
<circle cx="312" cy="120" r="9" fill="rgb(1,174,255)"/>
<circle cx="336" cy="120" r="12" fill="rgb(255,91,0)" opacity="0.35"/>
<circle cx="336" cy="120" r="9" fill="rgb(255,91,0)"/>
<circle cx="360" cy="120" r="12" fill="rgb(39,97,254)" opacity="0.35"/>
<circle cx="360" cy="120" r="9" fill="rgb(39,97,254)"/>
<circle cx="384" cy="120" r="12" fill="rgb(175,209,26)" opacity="0.35"/>
<circle cx="384" cy="120" r="9" fill="rgb(175,209,26)"/>
<circle cx="24" cy="144" r="12" fill="rgb(255,150,0)" opacity="0.35"/>
<circle cx="24" cy="144" r="9" fill="rgb(255,150,0)"/>
<circle cx="48" cy="144" r="12" fill="rgb(143,34,251)" opacity="0.35"/>
<circle cx="48" cy="144" r="9" fill="rgb(143,34,251)"/>
<circle cx="72" cy="144" r="12" fill="rgb(0,194,126)" opacity="0.35"/>
<circle cx="72" cy="144" r="9" fill="rgb(0,194,126)"/>
<circle cx="96" cy="144" r="12" fill="rgb(255,183,0)" opacity="0.35"/>
<circle cx="96" cy="144" r="9" fill="rgb(255,183,0)"/>
<circle cx="120" cy="144" r="12" fill="rgb(2,171,255)" opacity="0.35"/>
<circle cx="120" cy="144" r="9" fill="rgb(2,171,255)"/>
<circle cx="144" cy="144" r="12" fill="rgb(25,125,254)" opacity="0.35"/>
<circle cx="144" cy="144" r="9" fill="rgb(25,125,254)"/>
<circle cx="168" cy="144" r="12" fill="rgb(255,64,0)" opacity="0.35"/>
<circle cx="168" cy="144" r="9" fill="rgb(255,64,0)"/>
<circle cx="192" cy="144" r="12" fill="rgb(0,193,131)" opacity="0.35"/>
<circle cx="192" cy="144" r="9" fill="rgb(0,193,131)"/>
<circle cx="216" cy="144" r="12" fill="rgb(30,115,254)" opacity="0.35"/>
<circle cx="216" cy="144" r="9" fill="rgb(30,115,254)"/>
<circle cx="240" cy="144" r="12" fill="rgb(181,209,24)" opacity="0.35"/>
<circle cx="240" cy="144" r="9" fill="rgb(181,209,24)"/>
<circle cx="264" cy="144" r="12" fill="rgb(0,180,229)" opacity="0.35"/>
<circle cx="264" cy="144" r="9" fill="rgb(0,180,229)"/>
<circle cx="288" cy="144" r="12" fill="rgb(0,188,171)" opacity="0.35"/>
<circle cx="288" cy="144" r="9" fill="rgb(0,188,171)"/>
<circle cx="312" cy="144" r="12" fill="rgb(255,111,0)" opacity="0.35"/>
<circle cx="312" cy="144" r="9" fill="rgb(255,111,0)"/>
<circle cx="336" cy="144" r="12" fill="rgb(113,48,252)" opacity="0.35"/>
<circle cx="336" cy="144" r="9" fill="rgb(113,48,252)"/>
<circle cx="360" cy="144" r="12" fill="rgb(0,199,87)" opacity="0.35"/>
<circle cx="360" cy="144" r="9" fill="rgb(0,199,87)"/>
<circle cx="384" cy="144" r="12" fill="rgb(255,17,0)" opacity="0.35"/>
<circle cx="384" cy="144" r="9" fill="rgb(255,17,0)"/>
<circle cx="24" cy="168" r="12" fill="rgb(44,87,254)" opacity="0.35"/>
<circle cx="24" cy="168" r="9" fill="rgb(44,87,254)"/>
<circle cx="48" cy="168" r="12" fill="rgb(72,204,60)" opacity="0.35"/>
<circle cx="48" cy="168" r="9" fill="rgb(72,204,60)"/>
<circle cx="72" cy="168" r="12" fill="rgb(255,174,0)" opacity="0.35"/>
<circle cx="72" cy="168" r="9" fill="rgb(255,174,0)"/>
<circle cx="96" cy="168" r="12" fill="rgb(99,55,252)" opacity="0.35"/>
<circle cx="96" cy="168" r="9" fill="rgb(99,55,252)"/>
<circle cx="120" cy="168" r="12" fill="rgb(182,209,24)" opacity="0.35"/>
<circle cx="120" cy="168" r="9" fill="rgb(182,209,24)"/>
<circle cx="144" cy="168" r="12" fill="rgb(255,182,0)" opacity="0.35"/>
<circle cx="144" cy="168" r="9" fill="rgb(255,182,0)"/>
<circle cx="168" cy="168" r="12" fill="rgb(0,194,125)" opacity="0.35"/>
<circle cx="168" cy="168" r="9" fill="rgb(0,194,125)"/>
<circle cx="192" cy="168" r="12" fill="rgb(27,121,254)" opacity="0.35"/>
<circle cx="192" cy="168" r="9" fill="rgb(27,121,254)"/>
<circle cx="216" cy="168" r="12" fill="rgb(0,195,122)" opacity="0.35"/>
<circle cx="216" cy="168" r="9" fill="rgb(0,195,122)"/>
<circle cx="240" cy="168" r="12" fill="rgb(185,209,23)" opacity="0.35"/>
<circle cx="240" cy="168" r="9" fill="rgb(185,209,23)"/>
<circle cx="264" cy="168" r="12" fill="rgb(255,149,0)" opacity="0.35"/>
<circle cx="264" cy="168" r="9" fill="rgb(255,149,0)"/>
<circle cx="288" cy="168" r="12" fill="rgb(13,149,255)" opacity="0.35"/>
<circle cx="288" cy="168" r="9" fill="rgb(13,149,255)"/>
<circle cx="312" cy="168" r="12" fill="rgb(19,137,255)" opacity="0.35"/>
<circle cx="312" cy="168" r="9" fill="rgb(19,137,255)"/>
<circle cx="336" cy="168" r="12" fill="rgb(85,204,55)" opacity="0.35"/>
<circle cx="336" cy="168" r="9" fill="rgb(85,204,55)"/>
<circle cx="360" cy="168" r="12" fill="rgb(165,23,250)" opacity="0.35"/>
<circle cx="360" cy="168" r="9" fill="rgb(165,23,250)"/>
<circle cx="384" cy="168" r="12" fill="rgb(255,30,0)" opacity="0.35"/>
<circle cx="384" cy="168" r="9" fill="rgb(255,30,0)"/>
<circle cx="24" cy="192" r="12" fill="rgb(255,202,0)" opacity="0.35"/>
<circle cx="24" cy="192" r="9" fill="rgb(255,202,0)"/>
<circle cx="48" cy="192" r="12" fill="rgb(255,203,0)" opacity="0.35"/>
<circle cx="48" cy="192" r="9" fill="rgb(255,203,0)"/>
<circle cx="72" cy="192" r="12" fill="rgb(255,87,0)" opacity="0.35"/>
<circle cx="72" cy="192" r="9" fill="rgb(255,87,0)"/>
<circle cx="96" cy="192" r="12" fill="rgb(255,36,0)" opacity="0.35"/>
<circle cx="96" cy="192" r="9" fill="rgb(255,36,0)"/>
<circle cx="120" cy="192" r="12" fill="rgb(255,130,0)" opacity="0.35"/>
<circle cx="120" cy="192" r="9" fill="rgb(255,130,0)"/>
<circle cx="144" cy="192" r="12" fill="rgb(38,98,254)" opacity="0.35"/>
<circle cx="144" cy="192" r="9" fill="rgb(38,98,254)"/>
<circle cx="168" cy="192" r="12" fill="rgb(0,200,85)" opacity="0.35"/>
<circle cx="168" cy="192" r="9" fill="rgb(0,200,85)"/>
<circle cx="192" cy="192" r="12" fill="rgb(0,185,189)" opacity="0.35"/>
<circle cx="192" cy="192" r="9" fill="rgb(0,185,189)"/>
<circle cx="216" cy="192" r="12" fill="rgb(41,202,70)" opacity="0.35"/>
<circle cx="216" cy="192" r="9" fill="rgb(41,202,70)"/>
<circle cx="240" cy="192" r="12" fill="rgb(132,39,251)" opacity="0.35"/>
<circle cx="240" cy="192" r="9" fill="rgb(132,39,251)"/>
<circle cx="264" cy="192" r="12" fill="rgb(255,103,0)" opacity="0.35"/>
<circle cx="264" cy="192" r="9" fill="rgb(255,103,0)"/>
<circle cx="288" cy="192" r="12" fill="rgb(0,177,245)" opacity="0.35"/>
<circle cx="288" cy="192" r="9" fill="rgb(0,177,245)"/>
<circle cx="312" cy="192" r="12" fill="rgb(164,23,250)" opacity="0.35"/>
<circle cx="312" cy="192" r="9" fill="rgb(164,23,250)"/>
<circle cx="336" cy="192" r="12" fill="rgb(191,210,21)" opacity="0.35"/>
<circle cx="336" cy="192" r="9" fill="rgb(191,210,21)"/>
<circle cx="360" cy="192" r="12" fill="rgb(205,4,249)" opacity="0.35"/>
<circle cx="360" cy="192" r="9" fill="rgb(205,4,249)"/>
<circle cx="384" cy="192" r="12" fill="rgb(99,205,51)" opacity="0.35"/>
<circle cx="384" cy="192" r="9" fill="rgb(99,205,51)"/>
<circle cx="24" cy="216" r="12" fill="rgb(255,154,0)" opacity="0.35"/>
<circle cx="24" cy="216" r="9" fill="rgb(255,154,0)"/>
<circle cx="48" cy="216" r="12" fill="rgb(201,6,249)" opacity="0.35"/>
<circle cx="48" cy="216" r="9" fill="rgb(201,6,249)"/>
<circle cx="72" cy="216" r="12" fill="rgb(255,43,0)" opacity="0.35"/>
<circle cx="72" cy="216" r="9" fill="rgb(255,43,0)"/>
<circle cx="96" cy="216" r="12" fill="rgb(255,28,0)" opacity="0.35"/>
<circle cx="96" cy="216" r="9" fill="rgb(255,28,0)"/>
<circle cx="120" cy="216" r="12" fill="rgb(255,138,0)" opacity="0.35"/>
<circle cx="120" cy="216" r="9" fill="rgb(255,138,0)"/>
<circle cx="144" cy="216" r="12" fill="rgb(189,210,22)" opacity="0.35"/>
<circle cx="144" cy="216" r="9" fill="rgb(189,210,22)"/>
<circle cx="168" cy="216" r="12" fill="rgb(137,207,38)" opacity="0.35"/>
<circle cx="168" cy="216" r="9" fill="rgb(137,207,38)"/>
<circle cx="192" cy="216" r="12" fill="rgb(24,128,255)" opacity="0.35"/>
<circle cx="192" cy="216" r="9" fill="rgb(24,128,255)"/>
<circle cx="216" cy="216" r="12" fill="rgb(255,13,0)" opacity="0.35"/>
<circle cx="216" cy="216" r="9" fill="rgb(255,13,0)"/>
<circle cx="240" cy="216" r="12" fill="rgb(140,35,251)" opacity="0.35"/>
<circle cx="240" cy="216" r="9" fill="rgb(140,35,251)"/>
<circle cx="264" cy="216" r="12" fill="rgb(7,162,255)" opacity="0.35"/>
<circle cx="264" cy="216" r="9" fill="rgb(7,162,255)"/>
<circle cx="288" cy="216" r="12" fill="rgb(10,156,255)" opacity="0.35"/>
<circle cx="288" cy="216" r="9" fill="rgb(10,156,255)"/>
<circle cx="312" cy="216" r="12" fill="rgb(56,75,254)" opacity="0.35"/>
<circle cx="312" cy="216" r="9" fill="rgb(56,75,254)"/>
<circle cx="336" cy="216" r="12" fill="rgb(172,20,250)" opacity="0.35"/>
<circle cx="336" cy="216" r="9" fill="rgb(172,20,250)"/>
<circle cx="360" cy="216" r="12" fill="rgb(255,134,0)" opacity="0.35"/>
<circle cx="360" cy="216" r="9" fill="rgb(255,134,0)"/>
<circle cx="384" cy="216" r="12" fill="rgb(255,125,0)" opacity="0.35"/>
<circle cx="384" cy="216" r="9" fill="rgb(255,125,0)"/>
<circle cx="24" cy="240" r="12" fill="rgb(213,0,249)" opacity="0.35"/>
<circle cx="24" cy="240" r="9" fill="rgb(213,0,249)"/>
<circle cx="48" cy="240" r="12" fill="rgb(255,107,0)" opacity="0.35"/>
<circle cx="48" cy="240" r="9" fill="rgb(255,107,0)"/>
<circle cx="72" cy="240" r="12" fill="rgb(255,202,0)" opacity="0.35"/>
<circle cx="72" cy="240" r="9" fill="rgb(255,202,0)"/>
<circle cx="96" cy="240" r="12" fill="rgb(255,112,0)" opacity="0.35"/>
<circle cx="96" cy="240" r="9" fill="rgb(255,112,0)"/>
<circle cx="120" cy="240" r="12" fill="rgb(255,196,0)" opacity="0.35"/>
<circle cx="120" cy="240" r="9" fill="rgb(255,196,0)"/>
<circle cx="144" cy="240" r="12" fill="rgb(255,142,0)" opacity="0.35"/>
<circle cx="144" cy="240" r="9" fill="rgb(255,142,0)"/>
<circle cx="168" cy="240" r="12" fill="rgb(169,21,250)" opacity="0.35"/>
<circle cx="168" cy="240" r="9" fill="rgb(169,21,250)"/>
<circle cx="192" cy="240" r="12" fill="rgb(255,191,0)" opacity="0.35"/>
<circle cx="192" cy="240" r="9" fill="rgb(255,191,0)"/>
<circle cx="216" cy="240" r="12" fill="rgb(213,211,14)" opacity="0.35"/>
<circle cx="216" cy="240" r="9" fill="rgb(213,211,14)"/>
<circle cx="240" cy="240" r="12" fill="rgb(2,173,255)" opacity="0.35"/>
<circle cx="240" cy="240" r="9" fill="rgb(2,173,255)"/>
<circle cx="264" cy="240" r="12" fill="rgb(165,23,250)" opacity="0.35"/>
<circle cx="264" cy="240" r="9" fill="rgb(165,23,250)"/>
<circle cx="288" cy="240" r="12" fill="rgb(255,117,0)" opacity="0.35"/>
<circle cx="288" cy="240" r="9" fill="rgb(255,117,0)"/>
<circle cx="312" cy="240" r="12" fill="rgb(30,116,254)" opacity="0.35"/>
<circle cx="312" cy="240" r="9" fill="rgb(30,116,254)"/>
<circle cx="336" cy="240" r="12" fill="rgb(197,8,249)" opacity="0.35"/>
<circle cx="336" cy="240" r="9" fill="rgb(197,8,249)"/>
<circle cx="360" cy="240" r="12" fill="rgb(255,213,0)" opacity="0.35"/>
<circle cx="360" cy="240" r="9" fill="rgb(255,213,0)"/>
<circle cx="384" cy="240" r="12" fill="rgb(255,27,0)" opacity="0.35"/>
<circle cx="384" cy="240" r="9" fill="rgb(255,27,0)"/>
<circle cx="24" cy="264" r="12" fill="rgb(255,196,0)" opacity="0.35"/>
<circle cx="24" cy="264" r="9" fill="rgb(255,196,0)"/>
<circle cx="48" cy="264" r="12" fill="rgb(0,199,93)" opacity="0.35"/>
<circle cx="48" cy="264" r="9" fill="rgb(0,199,93)"/>
<circle cx="72" cy="264" r="12" fill="rgb(182,15,250)" opacity="0.35"/>
<circle cx="72" cy="264" r="9" fill="rgb(182,15,250)"/>
<circle cx="96" cy="264" r="12" fill="rgb(255,109,0)" opacity="0.35"/>
<circle cx="96" cy="264" r="9" fill="rgb(255,109,0)"/>
<circle cx="120" cy="264" r="12" fill="rgb(255,144,0)" opacity="0.35"/>
<circle cx="120" cy="264" r="9" fill="rgb(255,144,0)"/>
<circle cx="144" cy="264" r="12" fill="rgb(255,29,0)" opacity="0.35"/>
<circle cx="144" cy="264" r="9" fill="rgb(255,29,0)"/>
<circle cx="168" cy="264" r="12" fill="rgb(119,206,44)" opacity="0.35"/>
<circle cx="168" cy="264" r="9" fill="rgb(119,206,44)"/>
<circle cx="192" cy="264" r="12" fill="rgb(255,34,0)" opacity="0.35"/>
<circle cx="192" cy="264" r="9" fill="rgb(255,34,0)"/>
<circle cx="216" cy="264" r="12" fill="rgb(19,138,255)" opacity="0.35"/>
<circle cx="216" cy="264" r="9" fill="rgb(19,138,255)"/>
<circle cx="240" cy="264" r="12" fill="rgb(226,212,9)" opacity="0.35"/>
<circle cx="240" cy="264" r="9" fill="rgb(226,212,9)"/>
<circle cx="264" cy="264" r="12" fill="rgb(255,130,0)" opacity="0.35"/>
<circle cx="264" cy="264" r="9" fill="rgb(255,130,0)"/>
<circle cx="288" cy="264" r="12" fill="rgb(0,192,139)" opacity="0.35"/>
<circle cx="288" cy="264" r="9" fill="rgb(0,192,139)"/>
<circle cx="312" cy="264" r="12" fill="rgb(28,201,74)" opacity="0.35"/>
<circle cx="312" cy="264" r="9" fill="rgb(28,201,74)"/>
<circle cx="336" cy="264" r="12" fill="rgb(44,88,254)" opacity="0.35"/>
<circle cx="336" cy="264" r="9" fill="rgb(44,88,254)"/>
<circle cx="360" cy="264" r="12" fill="rgb(48,79,254)" opacity="0.35"/>
<circle cx="360" cy="264" r="9" fill="rgb(48,79,254)"/>
<circle cx="384" cy="264" r="12" fill="rgb(255,167,0)" opacity="0.35"/>
<circle cx="384" cy="264" r="9" fill="rgb(255,167,0)"/>
<circle cx="24" cy="288" r="12" fill="rgb(77,204,58)" opacity="0.35"/>
<circle cx="24" cy="288" r="9" fill="rgb(77,204,58)"/>
<circle cx="48" cy="288" r="12" fill="rgb(31,112,254)" opacity="0.35"/>
<circle cx="48" cy="288" r="9" fill="rgb(31,112,254)"/>
<circle cx="72" cy="288" r="12" fill="rgb(255,30,0)" opacity="0.35"/>
<circle cx="72" cy="288" r="9" fill="rgb(255,30,0)"/>
<circle cx="96" cy="288" r="12" fill="rgb(0,197,103)" opacity="0.35"/>
<circle cx="96" cy="288" r="9" fill="rgb(0,197,103)"/>
<circle cx="120" cy="288" r="12" fill="rgb(255,37,0)" opacity="0.35"/>
<circle cx="120" cy="288" r="9" fill="rgb(255,37,0)"/>
<circle cx="144" cy="288" r="12" fill="rgb(255,211,0)" opacity="0.35"/>
<circle cx="144" cy="288" r="9" fill="rgb(255,211,0)"/>
<circle cx="168" cy="288" r="12" fill="rgb(255,106,0)" opacity="0.35"/>
<circle cx="168" cy="288" r="9" fill="rgb(255,106,0)"/>
<circle cx="192" cy="288" r="12" fill="rgb(21,134,255)" opacity="0.35"/>
<circle cx="192" cy="288" r="9" fill="rgb(21,134,255)"/>
<circle cx="216" cy="288" r="12" fill="rgb(0,191,145)" opacity="0.35"/>
<circle cx="216" cy="288" r="9" fill="rgb(0,191,145)"/>
<circle cx="240" cy="288" r="12" fill="rgb(39,98,254)" opacity="0.35"/>
<circle cx="240" cy="288" r="9" fill="rgb(39,98,254)"/>
<circle cx="264" cy="288" r="12" fill="rgb(151,208,34)" opacity="0.35"/>
<circle cx="264" cy="288" r="9" fill="rgb(151,208,34)"/>
<circle cx="288" cy="288" r="12" fill="rgb(255,195,0)" opacity="0.35"/>
<circle cx="288" cy="288" r="9" fill="rgb(255,195,0)"/>
<circle cx="312" cy="288" r="12" fill="rgb(255,201,0)" opacity="0.35"/>
<circle cx="312" cy="288" r="9" fill="rgb(255,201,0)"/>
<circle cx="336" cy="288" r="12" fill="rgb(38,99,254)" opacity="0.35"/>
<circle cx="336" cy="288" r="9" fill="rgb(38,99,254)"/>
<circle cx="360" cy="288" r="12" fill="rgb(255,48,0)" opacity="0.35"/>
<circle cx="360" cy="288" r="9" fill="rgb(255,48,0)"/>
<circle cx="384" cy="288" r="12" fill="rgb(0,192,138)" opacity="0.35"/>
<circle cx="384" cy="288" r="9" fill="rgb(0,192,138)"/>
<circle cx="24" cy="312" r="12" fill="rgb(0,192,141)" opacity="0.35"/>
<circle cx="24" cy="312" r="9" fill="rgb(0,192,141)"/>
<circle cx="48" cy="312" r="12" fill="rgb(255,122,0)" opacity="0.35"/>
<circle cx="48" cy="312" r="9" fill="rgb(255,122,0)"/>
<circle cx="72" cy="312" r="12" fill="rgb(115,47,252)" opacity="0.35"/>
<circle cx="72" cy="312" r="9" fill="rgb(115,47,252)"/>
<circle cx="96" cy="312" r="12" fill="rgb(43,88,254)" opacity="0.35"/>
<circle cx="96" cy="312" r="9" fill="rgb(43,88,254)"/>
<circle cx="120" cy="312" r="12" fill="rgb(161,25,251)" opacity="0.35"/>
<circle cx="120" cy="312" r="9" fill="rgb(161,25,251)"/>
<circle cx="144" cy="312" r="12" fill="rgb(176,209,26)" opacity="0.35"/>
<circle cx="144" cy="312" r="9" fill="rgb(176,209,26)"/>
<circle cx="168" cy="312" r="12" fill="rgb(59,74,254)" opacity="0.35"/>
<circle cx="168" cy="312" r="9" fill="rgb(59,74,254)"/>
<circle cx="192" cy="312" r="12" fill="rgb(103,205,49)" opacity="0.35"/>
<circle cx="192" cy="312" r="9" fill="rgb(103,205,49)"/>
<circle cx="216" cy="312" r="12" fill="rgb(0,200,84)" opacity="0.35"/>
<circle cx="216" cy="312" r="9" fill="rgb(0,200,84)"/>
<circle cx="240" cy="312" r="12" fill="rgb(104,205,49)" opacity="0.35"/>
<circle cx="240" cy="312" r="9" fill="rgb(104,205,49)"/>
<circle cx="264" cy="312" r="12" fill="rgb(86,61,253)" opacity="0.35"/>
<circle cx="264" cy="312" r="9" fill="rgb(86,61,253)"/>
<circle cx="288" cy="312" r="12" fill="rgb(255,147,0)" opacity="0.35"/>
<circle cx="288" cy="312" r="9" fill="rgb(255,147,0)"/>
<circle cx="312" cy="312" r="12" fill="rgb(46,83,254)" opacity="0.35"/>
<circle cx="312" cy="312" r="9" fill="rgb(46,83,254)"/>
<circle cx="336" cy="312" r="12" fill="rgb(31,114,254)" opacity="0.35"/>
<circle cx="336" cy="312" r="9" fill="rgb(31,114,254)"/>
<circle cx="360" cy="312" r="12" fill="rgb(25,126,254)" opacity="0.35"/>
<circle cx="360" cy="312" r="9" fill="rgb(25,126,254)"/>
<circle cx="384" cy="312" r="12" fill="rgb(0,192,141)" opacity="0.35"/>
<circle cx="384" cy="312" r="9" fill="rgb(0,192,141)"/>
<circle cx="24" cy="336" r="12" fill="rgb(128,207,41)" opacity="0.35"/>
<circle cx="24" cy="336" r="9" fill="rgb(128,207,41)"/>
<circle cx="48" cy="336" r="12" fill="rgb(46,82,254)" opacity="0.35"/>
<circle cx="48" cy="336" r="9" fill="rgb(46,82,254)"/>
<circle cx="72" cy="336" r="12" fill="rgb(2,172,255)" opacity="0.35"/>
<circle cx="72" cy="336" r="9" fill="rgb(2,172,255)"/>
<circle cx="96" cy="336" r="12" fill="rgb(0,182,211)" opacity="0.35"/>
<circle cx="96" cy="336" r="9" fill="rgb(0,182,211)"/>
<circle cx="120" cy="336" r="12" fill="rgb(35,106,254)" opacity="0.35"/>
<circle cx="120" cy="336" r="9" fill="rgb(35,106,254)"/>
<circle cx="144" cy="336" r="12" fill="rgb(255,50,0)" opacity="0.35"/>
<circle cx="144" cy="336" r="9" fill="rgb(255,50,0)"/>
<circle cx="168" cy="336" r="12" fill="rgb(255,45,0)" opacity="0.35"/>
<circle cx="168" cy="336" r="9" fill="rgb(255,45,0)"/>
<circle cx="192" cy="336" r="12" fill="rgb(209,211,15)" opacity="0.35"/>
<circle cx="192" cy="336" r="9" fill="rgb(209,211,15)"/>
<circle cx="216" cy="336" r="12" fill="rgb(0,178,241)" opacity="0.35"/>
<circle cx="216" cy="336" r="9" fill="rgb(0,178,241)"/>
<circle cx="240" cy="336" r="12" fill="rgb(255,212,0)" opacity="0.35"/>
<circle cx="240" cy="336" r="9" fill="rgb(255,212,0)"/>
<circle cx="264" cy="336" r="12" fill="rgb(34,107,254)" opacity="0.35"/>
<circle cx="264" cy="336" r="9" fill="rgb(34,107,254)"/>
<circle cx="288" cy="336" r="12" fill="rgb(1,175,255)" opacity="0.35"/>
<circle cx="288" cy="336" r="9" fill="rgb(1,175,255)"/>
<circle cx="312" cy="336" r="12" fill="rgb(255,9,0)" opacity="0.35"/>
<circle cx="312" cy="336" r="9" fill="rgb(255,9,0)"/>
<circle cx="336" cy="336" r="12" fill="rgb(22,131,255)" opacity="0.35"/>
<circle cx="336" cy="336" r="9" fill="rgb(22,131,255)"/>
<circle cx="360" cy="336" r="12" fill="rgb(2,172,255)" opacity="0.35"/>
<circle cx="360" cy="336" r="9" fill="rgb(2,172,255)"/>
<circle cx="384" cy="336" r="12" fill="rgb(255,186,0)" opacity="0.35"/>
<circle cx="384" cy="336" r="9" fill="rgb(255,186,0)"/>
<circle cx="24" cy="360" r="12" fill="rgb(0,193,131)" opacity="0.35"/>
<circle cx="24" cy="360" r="9" fill="rgb(0,193,131)"/>
<circle cx="48" cy="360" r="12" fill="rgb(0,183,202)" opacity="0.35"/>
<circle cx="48" cy="360" r="9" fill="rgb(0,183,202)"/>
<circle cx="72" cy="360" r="12" fill="rgb(138,36,251)" opacity="0.35"/>
<circle cx="72" cy="360" r="9" fill="rgb(138,36,251)"/>
<circle cx="96" cy="360" r="12" fill="rgb(45,85,254)" opacity="0.35"/>
<circle cx="96" cy="360" r="9" fill="rgb(45,85,254)"/>
<circle cx="120" cy="360" r="12" fill="rgb(204,4,249)" opacity="0.35"/>
<circle cx="120" cy="360" r="9" fill="rgb(204,4,249)"/>
<circle cx="144" cy="360" r="12" fill="rgb(51,78,254)" opacity="0.35"/>
<circle cx="144" cy="360" r="9" fill="rgb(51,78,254)"/>
<circle cx="168" cy="360" r="12" fill="rgb(255,209,0)" opacity="0.35"/>
<circle cx="168" cy="360" r="9" fill="rgb(255,209,0)"/>
<circle cx="192" cy="360" r="12" fill="rgb(255,74,0)" opacity="0.35"/>
<circle cx="192" cy="360" r="9" fill="rgb(255,74,0)"/>
<circle cx="216" cy="360" r="12" fill="rgb(252,213,1)" opacity="0.35"/>
<circle cx="216" cy="360" r="9" fill="rgb(252,213,1)"/>
<circle cx="240" cy="360" r="12" fill="rgb(4,200,82)" opacity="0.35"/>
<circle cx="240" cy="360" r="9" fill="rgb(4,200,82)"/>
<circle cx="264" cy="360" r="12" fill="rgb(0,188,167)" opacity="0.35"/>
<circle cx="264" cy="360" r="9" fill="rgb(0,188,167)"/>
<circle cx="288" cy="360" r="12" fill="rgb(255,210,0)" opacity="0.35"/>
<circle cx="288" cy="360" r="9" fill="rgb(255,210,0)"/>
<circle cx="312" cy="360" r="12" fill="rgb(0,187,178)" opacity="0.35"/>
<circle cx="312" cy="360" r="9" fill="rgb(0,187,178)"/>
<circle cx="336" cy="360" r="12" fill="rgb(0,186,181)" opacity="0.35"/>
<circle cx="336" cy="360" r="9" fill="rgb(0,186,181)"/>
<circle cx="360" cy="360" r="12" fill="rgb(255,192,0)" opacity="0.35"/>
<circle cx="360" cy="360" r="9" fill="rgb(255,192,0)"/>
<circle cx="384" cy="360" r="12" fill="rgb(0,177,245)" opacity="0.35"/>
<circle cx="384" cy="360" r="9" fill="rgb(0,177,245)"/>
<circle cx="24" cy="384" r="12" fill="rgb(1,173,255)" opacity="0.35"/>
<circle cx="24" cy="384" r="9" fill="rgb(1,173,255)"/>
<circle cx="48" cy="384" r="12" fill="rgb(255,125,0)" opacity="0.35"/>
<circle cx="48" cy="384" r="9" fill="rgb(255,125,0)"/>
<circle cx="72" cy="384" r="12" fill="rgb(0,193,131)" opacity="0.35"/>
<circle cx="72" cy="384" r="9" fill="rgb(0,193,131)"/>
<circle cx="96" cy="384" r="12" fill="rgb(37,100,254)" opacity="0.35"/>
<circle cx="96" cy="384" r="9" fill="rgb(37,100,254)"/>
<circle cx="120" cy="384" r="12" fill="rgb(202,5,249)" opacity="0.35"/>
<circle cx="120" cy="384" r="9" fill="rgb(202,5,249)"/>
<circle cx="144" cy="384" r="12" fill="rgb(0,189,164)" opacity="0.35"/>
<circle cx="144" cy="384" r="9" fill="rgb(0,189,164)"/>
<circle cx="168" cy="384" r="12" fill="rgb(255,158,0)" opacity="0.35"/>
<circle cx="168" cy="384" r="9" fill="rgb(255,158,0)"/>
<circle cx="192" cy="384" r="12" fill="rgb(255,98,0)" opacity="0.35"/>
<circle cx="192" cy="384" r="9" fill="rgb(255,98,0)"/>
<circle cx="216" cy="384" r="12" fill="rgb(255,177,0)" opacity="0.35"/>
<circle cx="216" cy="384" r="9" fill="rgb(255,177,0)"/>
<circle cx="240" cy="384" r="12" fill="rgb(27,121,254)" opacity="0.35"/>
<circle cx="240" cy="384" r="9" fill="rgb(27,121,254)"/>
<circle cx="264" cy="384" r="12" fill="rgb(255,190,0)" opacity="0.35"/>
<circle cx="264" cy="384" r="9" fill="rgb(255,190,0)"/>
<circle cx="288" cy="384" r="12" fill="rgb(0,196,114)" opacity="0.35"/>
<circle cx="288" cy="384" r="9" fill="rgb(0,196,114)"/>
<circle cx="312" cy="384" r="12" fill="rgb(0,195,121)" opacity="0.35"/>
<circle cx="312" cy="384" r="9" fill="rgb(0,195,121)"/>
<circle cx="336" cy="384" r="12" fill="rgb(255,183,0)" opacity="0.35"/>
<circle cx="336" cy="384" r="9" fill="rgb(255,183,0)"/>
<circle cx="360" cy="384" r="12" fill="rgb(10,156,255)" opacity="0.35"/>
<circle cx="360" cy="384" r="9" fill="rgb(10,156,255)"/>
<circle cx="384" cy="384" r="12" fill="rgb(12,152,255)" opacity="0.35"/>
<circle cx="384" cy="384" r="9" fill="rgb(12,152,255)"/>
</svg>
