<svg xmlns="http://www.w3.org/2000/svg" viewBox="0 0 408 408" width="408" height="408" role="img" aria-label="LED preview of the Gamma example graph">
<rect width="408" height="408" rx="10" fill="#05070a"/>
<circle cx="24" cy="24" r="12" fill="rgb(0,248,240)" opacity="0.35"/>
<circle cx="24" cy="24" r="9" fill="rgb(0,248,240)"/>
<circle cx="48" cy="24" r="12" fill="rgb(216,249,223)" opacity="0.35"/>
<circle cx="48" cy="24" r="9" fill="rgb(216,249,223)"/>
<circle cx="72" cy="24" r="12" fill="rgb(231,249,218)" opacity="0.35"/>
<circle cx="72" cy="24" r="9" fill="rgb(231,249,218)"/>
<circle cx="96" cy="24" r="12" fill="rgb(215,249,223)" opacity="0.35"/>
<circle cx="96" cy="24" r="9" fill="rgb(215,249,223)"/>
<circle cx="120" cy="24" r="12" fill="rgb(0,248,240)" opacity="0.35"/>
<circle cx="120" cy="24" r="9" fill="rgb(0,248,240)"/>
<circle cx="144" cy="24" r="12" fill="rgb(157,245,255)" opacity="0.35"/>
<circle cx="144" cy="24" r="9" fill="rgb(157,245,255)"/>
<circle cx="168" cy="24" r="12" fill="rgb(210,233,255)" opacity="0.35"/>
<circle cx="168" cy="24" r="9" fill="rgb(210,233,255)"/>
<circle cx="192" cy="24" r="12" fill="rgb(233,218,255)" opacity="0.35"/>
<circle cx="192" cy="24" r="9" fill="rgb(233,218,255)"/>
<circle cx="216" cy="24" r="12" fill="rgb(242,206,255)" opacity="0.35"/>
<circle cx="216" cy="24" r="9" fill="rgb(242,206,255)"/>
<circle cx="240" cy="24" r="12" fill="rgb(239,210,255)" opacity="0.35"/>
<circle cx="240" cy="24" r="9" fill="rgb(239,210,255)"/>
<circle cx="264" cy="24" r="12" fill="rgb(223,224,255)" opacity="0.35"/>
<circle cx="264" cy="24" r="9" fill="rgb(223,224,255)"/>
<circle cx="288" cy="24" r="12" fill="rgb(199,239,255)" opacity="0.35"/>
<circle cx="288" cy="24" r="9" fill="rgb(199,239,255)"/>
<circle cx="312" cy="24" r="12" fill="rgb(0,247,249)" opacity="0.35"/>
<circle cx="312" cy="24" r="9" fill="rgb(0,247,249)"/>
<circle cx="336" cy="24" r="12" fill="rgb(0,249,231)" opacity="0.35"/>
<circle cx="336" cy="24" r="9" fill="rgb(0,249,231)"/>
<circle cx="360" cy="24" r="12" fill="rgb(227,249,220)" opacity="0.35"/>
<circle cx="360" cy="24" r="9" fill="rgb(227,249,220)"/>
<circle cx="384" cy="24" r="12" fill="rgb(228,249,219)" opacity="0.35"/>
<circle cx="384" cy="24" r="9" fill="rgb(228,249,219)"/>
<circle cx="24" cy="48" r="12" fill="rgb(226,249,220)" opacity="0.35"/>
<circle cx="24" cy="48" r="9" fill="rgb(226,249,220)"/>
<circle cx="48" cy="48" r="12" fill="rgb(249,250,195)" opacity="0.35"/>
<circle cx="48" cy="48" r="9" fill="rgb(249,250,195)"/>
<circle cx="72" cy="48" r="12" fill="rgb(254,250,157)" opacity="0.35"/>
<circle cx="72" cy="48" r="9" fill="rgb(254,250,157)"/>
<circle cx="96" cy="48" r="12" fill="rgb(249,250,195)" opacity="0.35"/>
<circle cx="96" cy="48" r="9" fill="rgb(249,250,195)"/>
<circle cx="120" cy="48" r="12" fill="rgb(225,249,220)" opacity="0.35"/>
<circle cx="120" cy="48" r="9" fill="rgb(225,249,220)"/>
<circle cx="144" cy="48" r="12" fill="rgb(0,248,243)" opacity="0.35"/>
<circle cx="144" cy="48" r="9" fill="rgb(0,248,243)"/>
<circle cx="168" cy="48" r="12" fill="rgb(178,244,255)" opacity="0.35"/>
<circle cx="168" cy="48" r="9" fill="rgb(178,244,255)"/>
<circle cx="192" cy="48" r="12" fill="rgb(209,234,255)" opacity="0.35"/>
<circle cx="192" cy="48" r="9" fill="rgb(209,234,255)"/>
<circle cx="216" cy="48" r="12" fill="rgb(216,227,255)" opacity="0.35"/>
<circle cx="216" cy="48" r="9" fill="rgb(216,227,255)"/>
<circle cx="240" cy="48" r="12" fill="rgb(214,229,255)" opacity="0.35"/>
<circle cx="240" cy="48" r="9" fill="rgb(214,229,255)"/>
<circle cx="264" cy="48" r="12" fill="rgb(201,238,255)" opacity="0.35"/>
<circle cx="264" cy="48" r="9" fill="rgb(201,238,255)"/>
<circle cx="288" cy="48" r="12" fill="rgb(0,246,252)" opacity="0.35"/>
<circle cx="288" cy="48" r="9" fill="rgb(0,246,252)"/>
<circle cx="312" cy="48" r="12" fill="rgb(0,249,232)" opacity="0.35"/>
<circle cx="312" cy="48" r="9" fill="rgb(0,249,232)"/>
<circle cx="336" cy="48" r="12" fill="rgb(240,250,211)" opacity="0.35"/>
<circle cx="336" cy="48" r="9" fill="rgb(240,250,211)"/>
<circle cx="360" cy="48" r="12" fill="rgb(253,250,175)" opacity="0.35"/>
<circle cx="360" cy="48" r="9" fill="rgb(253,250,175)"/>
<circle cx="384" cy="48" r="12" fill="rgb(254,250,172)" opacity="0.35"/>
<circle cx="384" cy="48" r="9" fill="rgb(254,250,172)"/>
<circle cx="24" cy="72" r="12" fill="rgb(255,250,0)" opacity="0.35"/>
<circle cx="24" cy="72" r="9" fill="rgb(255,250,0)"/>
<circle cx="48" cy="72" r="12" fill="rgb(255,244,0)" opacity="0.35"/>
<circle cx="48" cy="72" r="9" fill="rgb(255,244,0)"/>
<circle cx="72" cy="72" r="12" fill="rgb(255,241,0)" opacity="0.35"/>
<circle cx="72" cy="72" r="9" fill="rgb(255,241,0)"/>
<circle cx="96" cy="72" r="12" fill="rgb(255,244,0)" opacity="0.35"/>
<circle cx="96" cy="72" r="9" fill="rgb(255,244,0)"/>
<circle cx="120" cy="72" r="12" fill="rgb(255,250,0)" opacity="0.35"/>
<circle cx="120" cy="72" r="9" fill="rgb(255,250,0)"/>
<circle cx="144" cy="72" r="12" fill="rgb(227,249,220)" opacity="0.35"/>
<circle cx="144" cy="72" r="9" fill="rgb(227,249,220)"/>
<circle cx="168" cy="72" r="12" fill="rgb(0,248,242)" opacity="0.35"/>
<circle cx="168" cy="72" r="9" fill="rgb(0,248,242)"/>
<circle cx="192" cy="72" r="12" fill="rgb(0,246,255)" opacity="0.35"/>
<circle cx="192" cy="72" r="9" fill="rgb(0,246,255)"/>
<circle cx="216" cy="72" r="12" fill="rgb(189,242,255)" opacity="0.35"/>
<circle cx="216" cy="72" r="9" fill="rgb(189,242,255)"/>
<circle cx="240" cy="72" r="12" fill="rgb(183,243,255)" opacity="0.35"/>
<circle cx="240" cy="72" r="9" fill="rgb(183,243,255)"/>
<circle cx="264" cy="72" r="12" fill="rgb(0,247,250)" opacity="0.35"/>
<circle cx="264" cy="72" r="9" fill="rgb(0,247,250)"/>
<circle cx="288" cy="72" r="12" fill="rgb(0,249,232)" opacity="0.35"/>
<circle cx="288" cy="72" r="9" fill="rgb(0,249,232)"/>
<circle cx="312" cy="72" r="12" fill="rgb(244,250,205)" opacity="0.35"/>
<circle cx="312" cy="72" r="9" fill="rgb(244,250,205)"/>
<circle cx="336" cy="72" r="12" fill="rgb(255,247,0)" opacity="0.35"/>
<circle cx="336" cy="72" r="9" fill="rgb(255,247,0)"/>
<circle cx="360" cy="72" r="12" fill="rgb(255,242,0)" opacity="0.35"/>
<circle cx="360" cy="72" r="9" fill="rgb(255,242,0)"/>
<circle cx="384" cy="72" r="12" fill="rgb(255,242,0)" opacity="0.35"/>
<circle cx="384" cy="72" r="9" fill="rgb(255,242,0)"/>
<circle cx="24" cy="96" r="12" fill="rgb(255,241,0)" opacity="0.35"/>
<circle cx="24" cy="96" r="9" fill="rgb(255,241,0)"/>
<circle cx="48" cy="96" r="12" fill="rgb(255,231,0)" opacity="0.35"/>
<circle cx="48" cy="96" r="9" fill="rgb(255,231,0)"/>
<circle cx="72" cy="96" r="12" fill="rgb(255,225,0)" opacity="0.35"/>
<circle cx="72" cy="96" r="9" fill="rgb(255,225,0)"/>
<circle cx="96" cy="96" r="12" fill="rgb(255,231,0)" opacity="0.35"/>
<circle cx="96" cy="96" r="9" fill="rgb(255,231,0)"/>
<circle cx="120" cy="96" r="12" fill="rgb(255,242,0)" opacity="0.35"/>
<circle cx="120" cy="96" r="9" fill="rgb(255,242,0)"/>
<circle cx="144" cy="96" r="12" fill="rgb(255,250,0)" opacity="0.35"/>
<circle cx="144" cy="96" r="9" fill="rgb(255,250,0)"/>
<circle cx="168" cy="96" r="12" fill="rgb(224,249,221)" opacity="0.35"/>
<circle cx="168" cy="96" r="9" fill="rgb(224,249,221)"/>
<circle cx="192" cy="96" r="12" fill="rgb(0,248,239)" opacity="0.35"/>
<circle cx="192" cy="96" r="9" fill="rgb(0,248,239)"/>
<circle cx="216" cy="96" r="12" fill="rgb(0,247,247)" opacity="0.35"/>
<circle cx="216" cy="96" r="9" fill="rgb(0,247,247)"/>
<circle cx="240" cy="96" r="12" fill="rgb(0,247,245)" opacity="0.35"/>
<circle cx="240" cy="96" r="9" fill="rgb(0,247,245)"/>
<circle cx="264" cy="96" r="12" fill="rgb(0,249,231)" opacity="0.35"/>
<circle cx="264" cy="96" r="9" fill="rgb(0,249,231)"/>
<circle cx="288" cy="96" r="12" fill="rgb(242,250,208)" opacity="0.35"/>
<circle cx="288" cy="96" r="9" fill="rgb(242,250,208)"/>
<circle cx="312" cy="96" r="12" fill="rgb(255,247,0)" opacity="0.35"/>
<circle cx="312" cy="96" r="9" fill="rgb(255,247,0)"/>
<circle cx="336" cy="96" r="12" fill="rgb(255,237,0)" opacity="0.35"/>
<circle cx="336" cy="96" r="9" fill="rgb(255,237,0)"/>
<circle cx="360" cy="96" r="12" fill="rgb(255,227,0)" opacity="0.35"/>
<circle cx="360" cy="96" r="9" fill="rgb(255,227,0)"/>
<circle cx="384" cy="96" r="12" fill="rgb(255,226,0)" opacity="0.35"/>
<circle cx="384" cy="96" r="9" fill="rgb(255,226,0)"/>
<circle cx="24" cy="120" r="12" fill="rgb(255,232,0)" opacity="0.35"/>
<circle cx="24" cy="120" r="9" fill="rgb(255,232,0)"/>
<circle cx="48" cy="120" r="12" fill="rgb(255,211,0)" opacity="0.35"/>
<circle cx="48" cy="120" r="9" fill="rgb(255,211,0)"/>
<circle cx="72" cy="120" r="12" fill="rgb(255,193,0)" opacity="0.35"/>
<circle cx="72" cy="120" r="9" fill="rgb(255,193,0)"/>
<circle cx="96" cy="120" r="12" fill="rgb(255,211,0)" opacity="0.35"/>
<circle cx="96" cy="120" r="9" fill="rgb(255,211,0)"/>
<circle cx="120" cy="120" r="12" fill="rgb(255,232,0)" opacity="0.35"/>
<circle cx="120" cy="120" r="9" fill="rgb(255,232,0)"/>
<circle cx="144" cy="120" r="12" fill="rgb(255,245,0)" opacity="0.35"/>
<circle cx="144" cy="120" r="9" fill="rgb(255,245,0)"/>
<circle cx="168" cy="120" r="12" fill="rgb(247,250,200)" opacity="0.35"/>
<circle cx="168" cy="120" r="9" fill="rgb(247,250,200)"/>
<circle cx="192" cy="120" r="12" fill="rgb(212,249,224)" opacity="0.35"/>
<circle cx="192" cy="120" r="9" fill="rgb(212,249,224)"/>
<circle cx="216" cy="120" r="12" fill="rgb(0,249,233)" opacity="0.35"/>
<circle cx="216" cy="120" r="9" fill="rgb(0,249,233)"/>
<circle cx="240" cy="120" r="12" fill="rgb(0,249,230)" opacity="0.35"/>
<circle cx="240" cy="120" r="9" fill="rgb(0,249,230)"/>
<circle cx="264" cy="120" r="12" fill="rgb(232,249,217)" opacity="0.35"/>
<circle cx="264" cy="120" r="9" fill="rgb(232,249,217)"/>
<circle cx="288" cy="120" r="12" fill="rgb(255,250,0)" opacity="0.35"/>
<circle cx="288" cy="120" r="9" fill="rgb(255,250,0)"/>
<circle cx="312" cy="120" r="12" fill="rgb(255,240,0)" opacity="0.35"/>
<circle cx="312" cy="120" r="9" fill="rgb(255,240,0)"/>
<circle cx="336" cy="120" r="12" fill="rgb(255,224,0)" opacity="0.35"/>
<circle cx="336" cy="120" r="9" fill="rgb(255,224,0)"/>
<circle cx="360" cy="120" r="12" fill="rgb(255,200,0)" opacity="0.35"/>
<circle cx="360" cy="120" r="9" fill="rgb(255,200,0)"/>
<circle cx="384" cy="120" r="12" fill="rgb(255,199,0)" opacity="0.35"/>
<circle cx="384" cy="120" r="9" fill="rgb(255,199,0)"/>
<circle cx="24" cy="144" r="12" fill="rgb(255,228,0)" opacity="0.35"/>
<circle cx="24" cy="144" r="9" fill="rgb(255,228,0)"/>
<circle cx="48" cy="144" r="12" fill="rgb(255,200,0)" opacity="0.35"/>
<circle cx="48" cy="144" r="9" fill="rgb(255,200,0)"/>
<circle cx="72" cy="144" r="12" fill="rgb(255,147,0)" opacity="0.35"/>
<circle cx="72" cy="144" r="9" fill="rgb(255,147,0)"/>
<circle cx="96" cy="144" r="12" fill="rgb(255,200,0)" opacity="0.35"/>
<circle cx="96" cy="144" r="9" fill="rgb(255,200,0)"/>
<circle cx="120" cy="144" r="12" fill="rgb(255,228,0)" opacity="0.35"/>
<circle cx="120" cy="144" r="9" fill="rgb(255,228,0)"/>
<circle cx="144" cy="144" r="12" fill="rgb(255,243,0)" opacity="0.35"/>
<circle cx="144" cy="144" r="9" fill="rgb(255,243,0)"/>
<circle cx="168" cy="144" r="12" fill="rgb(251,250,186)" opacity="0.35"/>
<circle cx="168" cy="144" r="9" fill="rgb(251,250,186)"/>
<circle cx="192" cy="144" r="12" fill="rgb(225,249,220)" opacity="0.35"/>
<circle cx="192" cy="144" r="9" fill="rgb(225,249,220)"/>
<circle cx="216" cy="144" r="12" fill="rgb(164,249,228)" opacity="0.35"/>
<circle cx="216" cy="144" r="9" fill="rgb(164,249,228)"/>
<circle cx="240" cy="144" r="12" fill="rgb(201,249,226)" opacity="0.35"/>
<circle cx="240" cy="144" r="9" fill="rgb(201,249,226)"/>
<circle cx="264" cy="144" r="12" fill="rgb(239,250,212)" opacity="0.35"/>
<circle cx="264" cy="144" r="9" fill="rgb(239,250,212)"/>
<circle cx="288" cy="144" r="12" fill="rgb(255,248,0)" opacity="0.35"/>
<circle cx="288" cy="144" r="9" fill="rgb(255,248,0)"/>
<circle cx="312" cy="144" r="12" fill="rgb(255,238,0)" opacity="0.35"/>
<circle cx="312" cy="144" r="9" fill="rgb(255,238,0)"/>
<circle cx="336" cy="144" r="12" fill="rgb(255,218,0)" opacity="0.35"/>
<circle cx="336" cy="144" r="9" fill="rgb(255,218,0)"/>
<circle cx="360" cy="144" r="12" fill="rgb(255,180,0)" opacity="0.35"/>
<circle cx="360" cy="144" r="9" fill="rgb(255,180,0)"/>
<circle cx="384" cy="144" r="12" fill="rgb(255,172,0)" opacity="0.35"/>
<circle cx="384" cy="144" r="9" fill="rgb(255,172,0)"/>
<circle cx="24" cy="168" r="12" fill="rgb(255,235,0)" opacity="0.35"/>
<circle cx="24" cy="168" r="9" fill="rgb(255,235,0)"/>
<circle cx="48" cy="168" r="12" fill="rgb(255,217,0)" opacity="0.35"/>
<circle cx="48" cy="168" r="9" fill="rgb(255,217,0)"/>
<circle cx="72" cy="168" r="12" fill="rgb(255,205,0)" opacity="0.35"/>
<circle cx="72" cy="168" r="9" fill="rgb(255,205,0)"/>
<circle cx="96" cy="168" r="12" fill="rgb(255,218,0)" opacity="0.35"/>
<circle cx="96" cy="168" r="9" fill="rgb(255,218,0)"/>
<circle cx="120" cy="168" r="12" fill="rgb(255,235,0)" opacity="0.35"/>
<circle cx="120" cy="168" r="9" fill="rgb(255,235,0)"/>
<circle cx="144" cy="168" r="12" fill="rgb(255,246,0)" opacity="0.35"/>
<circle cx="144" cy="168" r="9" fill="rgb(255,246,0)"/>
<circle cx="168" cy="168" r="12" fill="rgb(243,250,207)" opacity="0.35"/>
<circle cx="168" cy="168" r="9" fill="rgb(243,250,207)"/>
<circle cx="192" cy="168" r="12" fill="rgb(189,249,227)" opacity="0.35"/>
<circle cx="192" cy="168" r="9" fill="rgb(189,249,227)"/>
<circle cx="216" cy="168" r="12" fill="rgb(0,248,237)" opacity="0.35"/>
<circle cx="216" cy="168" r="9" fill="rgb(0,248,237)"/>
<circle cx="240" cy="168" r="12" fill="rgb(0,249,234)" opacity="0.35"/>
<circle cx="240" cy="168" r="9" fill="rgb(0,249,234)"/>
<circle cx="264" cy="168" r="12" fill="rgb(225,249,220)" opacity="0.35"/>
<circle cx="264" cy="168" r="9" fill="rgb(225,249,220)"/>
<circle cx="288" cy="168" r="12" fill="rgb(254,250,168)" opacity="0.35"/>
<circle cx="288" cy="168" r="9" fill="rgb(254,250,168)"/>
<circle cx="312" cy="168" r="12" fill="rgb(255,242,0)" opacity="0.35"/>
<circle cx="312" cy="168" r="9" fill="rgb(255,242,0)"/>
<circle cx="336" cy="168" r="12" fill="rgb(255,228,0)" opacity="0.35"/>
<circle cx="336" cy="168" r="9" fill="rgb(255,228,0)"/>
<circle cx="360" cy="168" r="12" fill="rgb(255,210,0)" opacity="0.35"/>
<circle cx="360" cy="168" r="9" fill="rgb(255,210,0)"/>
<circle cx="384" cy="168" r="12" fill="rgb(255,208,0)" opacity="0.35"/>
<circle cx="384" cy="168" r="9" fill="rgb(255,208,0)"/>
<circle cx="24" cy="192" r="12" fill="rgb(255,244,0)" opacity="0.35"/>
<circle cx="24" cy="192" r="9" fill="rgb(255,244,0)"/>
<circle cx="48" cy="192" r="12" fill="rgb(255,236,0)" opacity="0.35"/>
<circle cx="48" cy="192" r="9" fill="rgb(255,236,0)"/>
<circle cx="72" cy="192" r="12" fill="rgb(255,231,0)" opacity="0.35"/>
<circle cx="72" cy="192" r="9" fill="rgb(255,231,0)"/>
<circle cx="96" cy="192" r="12" fill="rgb(255,236,0)" opacity="0.35"/>
<circle cx="96" cy="192" r="9" fill="rgb(255,236,0)"/>
<circle cx="120" cy="192" r="12" fill="rgb(255,244,0)" opacity="0.35"/>
<circle cx="120" cy="192" r="9" fill="rgb(255,244,0)"/>
<circle cx="144" cy="192" r="12" fill="rgb(250,250,193)" opacity="0.35"/>
<circle cx="144" cy="192" r="9" fill="rgb(250,250,193)"/>
<circle cx="168" cy="192" r="12" fill="rgb(199,249,226)" opacity="0.35"/>
<circle cx="168" cy="192" r="9" fill="rgb(199,249,226)"/>
<circle cx="192" cy="192" r="12" fill="rgb(0,247,245)" opacity="0.35"/>
<circle cx="192" cy="192" r="9" fill="rgb(0,247,245)"/>
<circle cx="216" cy="192" r="12" fill="rgb(0,246,251)" opacity="0.35"/>
<circle cx="216" cy="192" r="9" fill="rgb(0,246,251)"/>
<circle cx="240" cy="192" r="12" fill="rgb(0,247,249)" opacity="0.35"/>
<circle cx="240" cy="192" r="9" fill="rgb(0,247,249)"/>
<circle cx="264" cy="192" r="12" fill="rgb(0,248,238)" opacity="0.35"/>
<circle cx="264" cy="192" r="9" fill="rgb(0,248,238)"/>
<circle cx="288" cy="192" r="12" fill="rgb(233,249,217)" opacity="0.35"/>
<circle cx="288" cy="192" r="9" fill="rgb(233,249,217)"/>
<circle cx="312" cy="192" r="12" fill="rgb(255,249,0)" opacity="0.35"/>
<circle cx="312" cy="192" r="9" fill="rgb(255,249,0)"/>
<circle cx="336" cy="192" r="12" fill="rgb(255,240,0)" opacity="0.35"/>
<circle cx="336" cy="192" r="9" fill="rgb(255,240,0)"/>
<circle cx="360" cy="192" r="12" fill="rgb(255,233,0)" opacity="0.35"/>
<circle cx="360" cy="192" r="9" fill="rgb(255,233,0)"/>
<circle cx="384" cy="192" r="12" fill="rgb(255,232,0)" opacity="0.35"/>
<circle cx="384" cy="192" r="9" fill="rgb(255,232,0)"/>
<circle cx="24" cy="216" r="12" fill="rgb(250,250,193)" opacity="0.35"/>
<circle cx="24" cy="216" r="9" fill="rgb(250,250,193)"/>
<circle cx="48" cy="216" r="12" fill="rgb(255,247,0)" opacity="0.35"/>
<circle cx="48" cy="216" r="9" fill="rgb(255,247,0)"/>
<circle cx="72" cy="216" r="12" fill="rgb(255,245,0)" opacity="0.35"/>
<circle cx="72" cy="216" r="9" fill="rgb(255,245,0)"/>
<circle cx="96" cy="216" r="12" fill="rgb(255,247,0)" opacity="0.35"/>
<circle cx="96" cy="216" r="9" fill="rgb(255,247,0)"/>
<circle cx="120" cy="216" r="12" fill="rgb(249,250,195)" opacity="0.35"/>
<circle cx="120" cy="216" r="9" fill="rgb(249,250,195)"/>
<circle cx="144" cy="216" r="12" fill="rgb(201,249,226)" opacity="0.35"/>
<circle cx="144" cy="216" r="9" fill="rgb(201,249,226)"/>
<circle cx="168" cy="216" r="12" fill="rgb(0,247,248)" opacity="0.35"/>
<circle cx="168" cy="216" r="9" fill="rgb(0,247,248)"/>
<circle cx="192" cy="216" r="12" fill="rgb(184,243,255)" opacity="0.35"/>
<circle cx="192" cy="216" r="9" fill="rgb(184,243,255)"/>
<circle cx="216" cy="216" r="12" fill="rgb(201,238,255)" opacity="0.35"/>
<circle cx="216" cy="216" r="9" fill="rgb(201,238,255)"/>
<circle cx="240" cy="216" r="12" fill="rgb(198,239,255)" opacity="0.35"/>
<circle cx="240" cy="216" r="9" fill="rgb(198,239,255)"/>
<circle cx="264" cy="216" r="12" fill="rgb(0,246,255)" opacity="0.35"/>
<circle cx="264" cy="216" r="9" fill="rgb(0,246,255)"/>
<circle cx="288" cy="216" r="12" fill="rgb(0,248,240)" opacity="0.35"/>
<circle cx="288" cy="216" r="9" fill="rgb(0,248,240)"/>
<circle cx="312" cy="216" r="12" fill="rgb(234,250,216)" opacity="0.35"/>
<circle cx="312" cy="216" r="9" fill="rgb(234,250,216)"/>
<circle cx="336" cy="216" r="12" fill="rgb(255,250,0)" opacity="0.35"/>
<circle cx="336" cy="216" r="9" fill="rgb(255,250,0)"/>
<circle cx="360" cy="216" r="12" fill="rgb(255,245,0)" opacity="0.35"/>
<circle cx="360" cy="216" r="9" fill="rgb(255,245,0)"/>
<circle cx="384" cy="216" r="12" fill="rgb(255,245,0)" opacity="0.35"/>
<circle cx="384" cy="216" r="9" fill="rgb(255,245,0)"/>
<circle cx="24" cy="240" r="12" fill="rgb(200,249,226)" opacity="0.35"/>
<circle cx="24" cy="240" r="9" fill="rgb(200,249,226)"/>
<circle cx="48" cy="240" r="12" fill="rgb(242,250,208)" opacity="0.35"/>
<circle cx="48" cy="240" r="9" fill="rgb(242,250,208)"/>
<circle cx="72" cy="240" r="12" fill="rgb(249,250,197)" opacity="0.35"/>
<circle cx="72" cy="240" r="9" fill="rgb(249,250,197)"/>
<circle cx="96" cy="240" r="12" fill="rgb(242,250,208)" opacity="0.35"/>
<circle cx="96" cy="240" r="9" fill="rgb(242,250,208)"/>
<circle cx="120" cy="240" r="12" fill="rgb(198,249,226)" opacity="0.35"/>
<circle cx="120" cy="240" r="9" fill="rgb(198,249,226)"/>
<circle cx="144" cy="240" r="12" fill="rgb(0,247,248)" opacity="0.35"/>
<circle cx="144" cy="240" r="9" fill="rgb(0,247,248)"/>
<circle cx="168" cy="240" r="12" fill="rgb(195,240,255)" opacity="0.35"/>
<circle cx="168" cy="240" r="9" fill="rgb(195,240,255)"/>
<circle cx="192" cy="240" r="12" fill="rgb(214,229,255)" opacity="0.35"/>
<circle cx="192" cy="240" r="9" fill="rgb(214,229,255)"/>
<circle cx="216" cy="240" r="12" fill="rgb(228,221,255)" opacity="0.35"/>
<circle cx="216" cy="240" r="9" fill="rgb(228,221,255)"/>
<circle cx="240" cy="240" r="12" fill="rgb(224,224,255)" opacity="0.35"/>
<circle cx="240" cy="240" r="9" fill="rgb(224,224,255)"/>
<circle cx="264" cy="240" r="12" fill="rgb(208,234,255)" opacity="0.35"/>
<circle cx="264" cy="240" r="9" fill="rgb(208,234,255)"/>
<circle cx="288" cy="240" r="12" fill="rgb(157,245,255)" opacity="0.35"/>
<circle cx="288" cy="240" r="9" fill="rgb(157,245,255)"/>
<circle cx="312" cy="240" r="12" fill="rgb(0,248,239)" opacity="0.35"/>
<circle cx="312" cy="240" r="9" fill="rgb(0,248,239)"/>
<circle cx="336" cy="240" r="12" fill="rgb(229,249,219)" opacity="0.35"/>
<circle cx="336" cy="240" r="9" fill="rgb(229,249,219)"/>
<circle cx="360" cy="240" r="12" fill="rgb(247,250,200)" opacity="0.35"/>
<circle cx="360" cy="240" r="9" fill="rgb(247,250,200)"/>
<circle cx="384" cy="240" r="12" fill="rgb(247,250,200)" opacity="0.35"/>
<circle cx="384" cy="240" r="9" fill="rgb(247,250,200)"/>
<circle cx="24" cy="264" r="12" fill="rgb(0,247,243)" opacity="0.35"/>
<circle cx="24" cy="264" r="9" fill="rgb(0,247,243)"/>
<circle cx="48" cy="264" r="12" fill="rgb(191,249,227)" opacity="0.35"/>
<circle cx="48" cy="264" r="9" fill="rgb(191,249,227)"/>
<circle cx="72" cy="264" r="12" fill="rgb(221,249,222)" opacity="0.35"/>
<circle cx="72" cy="264" r="9" fill="rgb(221,249,222)"/>
<circle cx="96" cy="264" r="12" fill="rgb(188,249,227)" opacity="0.35"/>
<circle cx="96" cy="264" r="9" fill="rgb(188,249,227)"/>
<circle cx="120" cy="264" r="12" fill="rgb(0,247,244)" opacity="0.35"/>
<circle cx="120" cy="264" r="9" fill="rgb(0,247,244)"/>
<circle cx="144" cy="264" r="12" fill="rgb(180,243,255)" opacity="0.35"/>
<circle cx="144" cy="264" r="9" fill="rgb(180,243,255)"/>
<circle cx="168" cy="264" r="12" fill="rgb(213,230,255)" opacity="0.35"/>
<circle cx="168" cy="264" r="9" fill="rgb(213,230,255)"/>
<circle cx="192" cy="264" r="12" fill="rgb(238,213,255)" opacity="0.35"/>
<circle cx="192" cy="264" r="9" fill="rgb(238,213,255)"/>
<circle cx="216" cy="264" r="12" fill="rgb(245,198,254)" opacity="0.35"/>
<circle cx="216" cy="264" r="9" fill="rgb(245,198,254)"/>
<circle cx="240" cy="264" r="12" fill="rgb(243,203,255)" opacity="0.35"/>
<circle cx="240" cy="264" r="9" fill="rgb(243,203,255)"/>
<circle cx="264" cy="264" r="12" fill="rgb(229,221,255)" opacity="0.35"/>
<circle cx="264" cy="264" r="9" fill="rgb(229,221,255)"/>
<circle cx="288" cy="264" r="12" fill="rgb(204,236,255)" opacity="0.35"/>
<circle cx="288" cy="264" r="9" fill="rgb(204,236,255)"/>
<circle cx="312" cy="264" r="12" fill="rgb(0,246,252)" opacity="0.35"/>
<circle cx="312" cy="264" r="9" fill="rgb(0,246,252)"/>
<circle cx="336" cy="264" r="12" fill="rgb(0,248,236)" opacity="0.35"/>
<circle cx="336" cy="264" r="9" fill="rgb(0,248,236)"/>
<circle cx="360" cy="264" r="12" fill="rgb(214,249,223)" opacity="0.35"/>
<circle cx="360" cy="264" r="9" fill="rgb(214,249,223)"/>
<circle cx="384" cy="264" r="12" fill="rgb(217,249,223)" opacity="0.35"/>
<circle cx="384" cy="264" r="9" fill="rgb(217,249,223)"/>
<circle cx="24" cy="288" r="12" fill="rgb(0,247,249)" opacity="0.35"/>
<circle cx="24" cy="288" r="9" fill="rgb(0,247,249)"/>
<circle cx="48" cy="288" r="12" fill="rgb(0,248,235)" opacity="0.35"/>
<circle cx="48" cy="288" r="9" fill="rgb(0,248,235)"/>
<circle cx="72" cy="288" r="12" fill="rgb(147,249,228)" opacity="0.35"/>
<circle cx="72" cy="288" r="9" fill="rgb(147,249,228)"/>
<circle cx="96" cy="288" r="12" fill="rgb(0,248,235)" opacity="0.35"/>
<circle cx="96" cy="288" r="9" fill="rgb(0,248,235)"/>
<circle cx="120" cy="288" r="12" fill="rgb(0,247,249)" opacity="0.35"/>
<circle cx="120" cy="288" r="9" fill="rgb(0,247,249)"/>
<circle cx="144" cy="288" r="12" fill="rgb(197,240,255)" opacity="0.35"/>
<circle cx="144" cy="288" r="9" fill="rgb(197,240,255)"/>
<circle cx="168" cy="288" r="12" fill="rgb(224,224,255)" opacity="0.35"/>
<circle cx="168" cy="288" r="9" fill="rgb(224,224,255)"/>
<circle cx="192" cy="288" r="12" fill="rgb(244,201,254)" opacity="0.35"/>
<circle cx="192" cy="288" r="9" fill="rgb(244,201,254)"/>
<circle cx="216" cy="288" r="12" fill="rgb(250,147,254)" opacity="0.35"/>
<circle cx="216" cy="288" r="9" fill="rgb(250,147,254)"/>
<circle cx="240" cy="288" r="12" fill="rgb(248,180,254)" opacity="0.35"/>
<circle cx="240" cy="288" r="9" fill="rgb(248,180,254)"/>
<circle cx="264" cy="288" r="12" fill="rgb(238,213,255)" opacity="0.35"/>
<circle cx="264" cy="288" r="9" fill="rgb(238,213,255)"/>
<circle cx="288" cy="288" r="12" fill="rgb(211,232,255)" opacity="0.35"/>
<circle cx="288" cy="288" r="9" fill="rgb(211,232,255)"/>
<circle cx="312" cy="288" r="12" fill="rgb(164,245,255)" opacity="0.35"/>
<circle cx="312" cy="288" r="9" fill="rgb(164,245,255)"/>
<circle cx="336" cy="288" r="12" fill="rgb(0,248,243)" opacity="0.35"/>
<circle cx="336" cy="288" r="9" fill="rgb(0,248,243)"/>
<circle cx="360" cy="288" r="12" fill="rgb(0,249,230)" opacity="0.35"/>
<circle cx="360" cy="288" r="9" fill="rgb(0,249,230)"/>
<circle cx="384" cy="288" r="12" fill="rgb(0,249,230)" opacity="0.35"/>
<circle cx="384" cy="288" r="9" fill="rgb(0,249,230)"/>
<circle cx="24" cy="312" r="12" fill="rgb(0,247,246)" opacity="0.35"/>
<circle cx="24" cy="312" r="9" fill="rgb(0,247,246)"/>
<circle cx="48" cy="312" r="12" fill="rgb(0,249,230)" opacity="0.35"/>
<circle cx="48" cy="312" r="9" fill="rgb(0,249,230)"/>
<circle cx="72" cy="312" r="12" fill="rgb(209,249,224)" opacity="0.35"/>
<circle cx="72" cy="312" r="9" fill="rgb(209,249,224)"/>
<circle cx="96" cy="312" r="12" fill="rgb(0,249,230)" opacity="0.35"/>
<circle cx="96" cy="312" r="9" fill="rgb(0,249,230)"/>
<circle cx="120" cy="312" r="12" fill="rgb(0,247,246)" opacity="0.35"/>
<circle cx="120" cy="312" r="9" fill="rgb(0,247,246)"/>
<circle cx="144" cy="312" r="12" fill="rgb(189,242,255)" opacity="0.35"/>
<circle cx="144" cy="312" r="9" fill="rgb(189,242,255)"/>
<circle cx="168" cy="312" r="12" fill="rgb(216,227,255)" opacity="0.35"/>
<circle cx="168" cy="312" r="9" fill="rgb(216,227,255)"/>
<circle cx="192" cy="312" r="12" fill="rgb(240,208,255)" opacity="0.35"/>
<circle cx="192" cy="312" r="9" fill="rgb(240,208,255)"/>
<circle cx="216" cy="312" r="12" fill="rgb(247,188,254)" opacity="0.35"/>
<circle cx="216" cy="312" r="9" fill="rgb(247,188,254)"/>
<circle cx="240" cy="312" r="12" fill="rgb(245,197,254)" opacity="0.35"/>
<circle cx="240" cy="312" r="9" fill="rgb(245,197,254)"/>
<circle cx="264" cy="312" r="12" fill="rgb(233,218,255)" opacity="0.35"/>
<circle cx="264" cy="312" r="9" fill="rgb(233,218,255)"/>
<circle cx="288" cy="312" r="12" fill="rgb(207,235,255)" opacity="0.35"/>
<circle cx="288" cy="312" r="9" fill="rgb(207,235,255)"/>
<circle cx="312" cy="312" r="12" fill="rgb(0,246,254)" opacity="0.35"/>
<circle cx="312" cy="312" r="9" fill="rgb(0,246,254)"/>
<circle cx="336" cy="312" r="12" fill="rgb(0,248,239)" opacity="0.35"/>
<circle cx="336" cy="312" r="9" fill="rgb(0,248,239)"/>
<circle cx="360" cy="312" r="12" fill="rgb(199,249,226)" opacity="0.35"/>
<circle cx="360" cy="312" r="9" fill="rgb(199,249,226)"/>
<circle cx="384" cy="312" r="12" fill="rgb(203,249,226)" opacity="0.35"/>
<circle cx="384" cy="312" r="9" fill="rgb(203,249,226)"/>
<circle cx="24" cy="336" r="12" fill="rgb(0,249,231)" opacity="0.35"/>
<circle cx="24" cy="336" r="9" fill="rgb(0,249,231)"/>
<circle cx="48" cy="336" r="12" fill="rgb(234,250,216)" opacity="0.35"/>
<circle cx="48" cy="336" r="9" fill="rgb(234,250,216)"/>
<circle cx="72" cy="336" r="12" fill="rgb(243,250,208)" opacity="0.35"/>
<circle cx="72" cy="336" r="9" fill="rgb(243,250,208)"/>
<circle cx="96" cy="336" r="12" fill="rgb(234,249,216)" opacity="0.35"/>
<circle cx="96" cy="336" r="9" fill="rgb(234,249,216)"/>
<circle cx="120" cy="336" r="12" fill="rgb(0,249,232)" opacity="0.35"/>
<circle cx="120" cy="336" r="9" fill="rgb(0,249,232)"/>
<circle cx="144" cy="336" r="12" fill="rgb(0,246,251)" opacity="0.35"/>
<circle cx="144" cy="336" r="9" fill="rgb(0,246,251)"/>
<circle cx="168" cy="336" r="12" fill="rgb(202,237,255)" opacity="0.35"/>
<circle cx="168" cy="336" r="9" fill="rgb(202,237,255)"/>
<circle cx="192" cy="336" r="12" fill="rgb(222,224,255)" opacity="0.35"/>
<circle cx="192" cy="336" r="9" fill="rgb(222,224,255)"/>
<circle cx="216" cy="336" r="12" fill="rgb(234,216,255)" opacity="0.35"/>
<circle cx="216" cy="336" r="9" fill="rgb(234,216,255)"/>
<circle cx="240" cy="336" r="12" fill="rgb(232,219,255)" opacity="0.35"/>
<circle cx="240" cy="336" r="9" fill="rgb(232,219,255)"/>
<circle cx="264" cy="336" r="12" fill="rgb(213,230,255)" opacity="0.35"/>
<circle cx="264" cy="336" r="9" fill="rgb(213,230,255)"/>
<circle cx="288" cy="336" r="12" fill="rgb(184,243,255)" opacity="0.35"/>
<circle cx="288" cy="336" r="9" fill="rgb(184,243,255)"/>
<circle cx="312" cy="336" r="12" fill="rgb(0,247,244)" opacity="0.35"/>
<circle cx="312" cy="336" r="9" fill="rgb(0,247,244)"/>
<circle cx="336" cy="336" r="12" fill="rgb(214,249,223)" opacity="0.35"/>
<circle cx="336" cy="336" r="9" fill="rgb(214,249,223)"/>
<circle cx="360" cy="336" r="12" fill="rgb(240,250,210)" opacity="0.35"/>
<circle cx="360" cy="336" r="9" fill="rgb(240,250,210)"/>
<circle cx="384" cy="336" r="12" fill="rgb(241,250,210)" opacity="0.35"/>
<circle cx="384" cy="336" r="9" fill="rgb(241,250,210)"/>
<circle cx="24" cy="360" r="12" fill="rgb(243,250,207)" opacity="0.35"/>
<circle cx="24" cy="360" r="9" fill="rgb(243,250,207)"/>
<circle cx="48" cy="360" r="12" fill="rgb(255,249,0)" opacity="0.35"/>
<circle cx="48" cy="360" r="9" fill="rgb(255,249,0)"/>
<circle cx="72" cy="360" r="12" fill="rgb(255,247,0)" opacity="0.35"/>
<circle cx="72" cy="360" r="9" fill="rgb(255,247,0)"/>
<circle cx="96" cy="360" r="12" fill="rgb(255,249,0)" opacity="0.35"/>
<circle cx="96" cy="360" r="9" fill="rgb(255,249,0)"/>
<circle cx="120" cy="360" r="12" fill="rgb(242,250,208)" opacity="0.35"/>
<circle cx="120" cy="360" r="9" fill="rgb(242,250,208)"/>
<circle cx="144" cy="360" r="12" fill="rgb(0,249,232)" opacity="0.35"/>
<circle cx="144" cy="360" r="9" fill="rgb(0,249,232)"/>
<circle cx="168" cy="360" r="12" fill="rgb(0,246,252)" opacity="0.35"/>
<circle cx="168" cy="360" r="9" fill="rgb(0,246,252)"/>
<circle cx="192" cy="360" r="12" fill="rgb(198,239,255)" opacity="0.35"/>
<circle cx="192" cy="360" r="9" fill="rgb(198,239,255)"/>
<circle cx="216" cy="360" r="12" fill="rgb(208,234,255)" opacity="0.35"/>
<circle cx="216" cy="360" r="9" fill="rgb(208,234,255)"/>
<circle cx="240" cy="360" r="12" fill="rgb(205,236,255)" opacity="0.35"/>
<circle cx="240" cy="360" r="9" fill="rgb(205,236,255)"/>
<circle cx="264" cy="360" r="12" fill="rgb(183,243,255)" opacity="0.35"/>
<circle cx="264" cy="360" r="9" fill="rgb(183,243,255)"/>
<circle cx="288" cy="360" r="12" fill="rgb(0,247,245)" opacity="0.35"/>
<circle cx="288" cy="360" r="9" fill="rgb(0,247,245)"/>
<circle cx="312" cy="360" r="12" fill="rgb(220,249,222)" opacity="0.35"/>
<circle cx="312" cy="360" r="9" fill="rgb(220,249,222)"/>
<circle cx="336" cy="360" r="12" fill="rgb(251,250,186)" opacity="0.35"/>
<circle cx="336" cy="360" r="9" fill="rgb(251,250,186)"/>
<circle cx="360" cy="360" r="12" fill="rgb(255,248,0)" opacity="0.35"/>
<circle cx="360" cy="360" r="9" fill="rgb(255,248,0)"/>
<circle cx="384" cy="360" r="12" fill="rgb(255,247,0)" opacity="0.35"/>
<circle cx="384" cy="360" r="9" fill="rgb(255,247,0)"/>
<circle cx="24" cy="384" r="12" fill="rgb(255,246,0)" opacity="0.35"/>
<circle cx="24" cy="384" r="9" fill="rgb(255,246,0)"/>
<circle cx="48" cy="384" r="12" fill="rgb(255,239,0)" opacity="0.35"/>
<circle cx="48" cy="384" r="9" fill="rgb(255,239,0)"/>
<circle cx="72" cy="384" r="12" fill="rgb(255,236,0)" opacity="0.35"/>
<circle cx="72" cy="384" r="9" fill="rgb(255,236,0)"/>
<circle cx="96" cy="384" r="12" fill="rgb(255,239,0)" opacity="0.35"/>
<circle cx="96" cy="384" r="9" fill="rgb(255,239,0)"/>
<circle cx="120" cy="384" r="12" fill="rgb(255,247,0)" opacity="0.35"/>
<circle cx="120" cy="384" r="9" fill="rgb(255,247,0)"/>
<circle cx="144" cy="384" r="12" fill="rgb(244,250,207)" opacity="0.35"/>
<circle cx="144" cy="384" r="9" fill="rgb(244,250,207)"/>
<circle cx="168" cy="384" r="12" fill="rgb(0,249,232)" opacity="0.35"/>
<circle cx="168" cy="384" r="9" fill="rgb(0,249,232)"/>
<circle cx="192" cy="384" r="12" fill="rgb(0,247,249)" opacity="0.35"/>
<circle cx="192" cy="384" r="9" fill="rgb(0,247,249)"/>
<circle cx="216" cy="384" r="12" fill="rgb(0,246,254)" opacity="0.35"/>
<circle cx="216" cy="384" r="9" fill="rgb(0,246,254)"/>
<circle cx="240" cy="384" r="12" fill="rgb(0,246,253)" opacity="0.35"/>
<circle cx="240" cy="384" r="9" fill="rgb(0,246,253)"/>
<circle cx="264" cy="384" r="12" fill="rgb(0,247,243)" opacity="0.35"/>
<circle cx="264" cy="384" r="9" fill="rgb(0,247,243)"/>
<circle cx="288" cy="384" r="12" fill="rgb(220,249,222)" opacity="0.35"/>
<circle cx="288" cy="384" r="9" fill="rgb(220,249,222)"/>
<circle cx="312" cy="384" r="12" fill="rgb(254,250,164)" opacity="0.35"/>
<circle cx="312" cy="384" r="9" fill="rgb(254,250,164)"/>
<circle cx="336" cy="384" r="12" fill="rgb(255,243,0)" opacity="0.35"/>
<circle cx="336" cy="384" r="9" fill="rgb(255,243,0)"/>
<circle cx="360" cy="384" r="12" fill="rgb(255,237,0)" opacity="0.35"/>
<circle cx="360" cy="384" r="9" fill="rgb(255,237,0)"/>
<circle cx="384" cy="384" r="12" fill="rgb(255,237,0)" opacity="0.35"/>
<circle cx="384" cy="384" r="9" fill="rgb(255,237,0)"/>
</svg>
