<svg xmlns="http://www.w3.org/2000/svg" viewBox="0 0 408 408" width="408" height="408" role="img" aria-label="LED preview of the Hue Shift example graph">
<rect width="408" height="408" rx="10" fill="#05070a"/>
<circle cx="24" cy="24" r="12" fill="rgb(60,4,104)" opacity="0.35"/>
<circle cx="24" cy="24" r="9" fill="rgb(60,4,104)"/>
<circle cx="48" cy="24" r="12" fill="rgb(69,9,116)" opacity="0.35"/>
<circle cx="48" cy="24" r="9" fill="rgb(69,9,116)"/>
<circle cx="72" cy="24" r="12" fill="rgb(78,14,129)" opacity="0.35"/>
<circle cx="72" cy="24" r="9" fill="rgb(78,14,129)"/>
<circle cx="96" cy="24" r="12" fill="rgb(87,19,140)" opacity="0.35"/>
<circle cx="96" cy="24" r="9" fill="rgb(87,19,140)"/>
<circle cx="120" cy="24" r="12" fill="rgb(92,21,147)" opacity="0.35"/>
<circle cx="120" cy="24" r="9" fill="rgb(92,21,147)"/>
<circle cx="144" cy="24" r="12" fill="rgb(93,22,149)" opacity="0.35"/>
<circle cx="144" cy="24" r="9" fill="rgb(93,22,149)"/>
<circle cx="168" cy="24" r="12" fill="rgb(91,21,145)" opacity="0.35"/>
<circle cx="168" cy="24" r="9" fill="rgb(91,21,145)"/>
<circle cx="192" cy="24" r="12" fill="rgb(85,18,137)" opacity="0.35"/>
<circle cx="192" cy="24" r="9" fill="rgb(85,18,137)"/>
<circle cx="216" cy="24" r="12" fill="rgb(78,14,128)" opacity="0.35"/>
<circle cx="216" cy="24" r="9" fill="rgb(78,14,128)"/>
<circle cx="240" cy="24" r="12" fill="rgb(71,10,119)" opacity="0.35"/>
<circle cx="240" cy="24" r="9" fill="rgb(71,10,119)"/>
<circle cx="264" cy="24" r="12" fill="rgb(65,7,111)" opacity="0.35"/>
<circle cx="264" cy="24" r="9" fill="rgb(65,7,111)"/>
<circle cx="288" cy="24" r="12" fill="rgb(61,4,105)" opacity="0.35"/>
<circle cx="288" cy="24" r="9" fill="rgb(61,4,105)"/>
<circle cx="312" cy="24" r="12" fill="rgb(56,2,99)" opacity="0.35"/>
<circle cx="312" cy="24" r="9" fill="rgb(56,2,99)"/>
<circle cx="336" cy="24" r="12" fill="rgb(53,0,95)" opacity="0.35"/>
<circle cx="336" cy="24" r="9" fill="rgb(53,0,95)"/>
<circle cx="360" cy="24" r="12" fill="rgb(51,0,91)" opacity="0.35"/>
<circle cx="360" cy="24" r="9" fill="rgb(51,0,91)"/>
<circle cx="384" cy="24" r="12" fill="rgb(49,0,87)" opacity="0.35"/>
<circle cx="384" cy="24" r="9" fill="rgb(49,0,87)"/>
<circle cx="24" cy="48" r="12" fill="rgb(70,9,117)" opacity="0.35"/>
<circle cx="24" cy="48" r="9" fill="rgb(70,9,117)"/>
<circle cx="48" cy="48" r="12" fill="rgb(82,16,134)" opacity="0.35"/>
<circle cx="48" cy="48" r="9" fill="rgb(82,16,134)"/>
<circle cx="72" cy="48" r="12" fill="rgb(95,23,152)" opacity="0.35"/>
<circle cx="72" cy="48" r="9" fill="rgb(95,23,152)"/>
<circle cx="96" cy="48" r="12" fill="rgb(108,30,169)" opacity="0.35"/>
<circle cx="96" cy="48" r="9" fill="rgb(108,30,169)"/>
<circle cx="120" cy="48" r="12" fill="rgb(117,33,180)" opacity="0.35"/>
<circle cx="120" cy="48" r="9" fill="rgb(117,33,180)"/>
<circle cx="144" cy="48" r="12" fill="rgb(121,32,182)" opacity="0.35"/>
<circle cx="144" cy="48" r="9" fill="rgb(121,32,182)"/>
<circle cx="168" cy="48" r="12" fill="rgb(113,33,175)" opacity="0.35"/>
<circle cx="168" cy="48" r="9" fill="rgb(113,33,175)"/>
<circle cx="192" cy="48" r="12" fill="rgb(103,27,162)" opacity="0.35"/>
<circle cx="192" cy="48" r="9" fill="rgb(103,27,162)"/>
<circle cx="216" cy="48" r="12" fill="rgb(92,22,147)" opacity="0.35"/>
<circle cx="216" cy="48" r="9" fill="rgb(92,22,147)"/>
<circle cx="240" cy="48" r="12" fill="rgb(82,16,134)" opacity="0.35"/>
<circle cx="240" cy="48" r="9" fill="rgb(82,16,134)"/>
<circle cx="264" cy="48" r="12" fill="rgb(75,12,124)" opacity="0.35"/>
<circle cx="264" cy="48" r="9" fill="rgb(75,12,124)"/>
<circle cx="288" cy="48" r="12" fill="rgb(69,9,116)" opacity="0.35"/>
<circle cx="288" cy="48" r="9" fill="rgb(69,9,116)"/>
<circle cx="312" cy="48" r="12" fill="rgb(64,6,110)" opacity="0.35"/>
<circle cx="312" cy="48" r="9" fill="rgb(64,6,110)"/>
<circle cx="336" cy="48" r="12" fill="rgb(61,5,105)" opacity="0.35"/>
<circle cx="336" cy="48" r="9" fill="rgb(61,5,105)"/>
<circle cx="360" cy="48" r="12" fill="rgb(58,3,101)" opacity="0.35"/>
<circle cx="360" cy="48" r="9" fill="rgb(58,3,101)"/>
<circle cx="384" cy="48" r="12" fill="rgb(54,1,96)" opacity="0.35"/>
<circle cx="384" cy="48" r="9" fill="rgb(54,1,96)"/>
<circle cx="24" cy="72" r="12" fill="rgb(79,14,130)" opacity="0.35"/>
<circle cx="24" cy="72" r="9" fill="rgb(79,14,130)"/>
<circle cx="48" cy="72" r="12" fill="rgb(95,23,152)" opacity="0.35"/>
<circle cx="48" cy="72" r="9" fill="rgb(95,23,152)"/>
<circle cx="72" cy="72" r="12" fill="rgb(115,34,178)" opacity="0.35"/>
<circle cx="72" cy="72" r="9" fill="rgb(115,34,178)"/>
<circle cx="96" cy="72" r="12" fill="rgb(150,24,201)" opacity="0.35"/>
<circle cx="96" cy="72" r="9" fill="rgb(150,24,201)"/>
<circle cx="120" cy="72" r="12" fill="rgb(176,16,218)" opacity="0.35"/>
<circle cx="120" cy="72" r="9" fill="rgb(176,16,218)"/>
<circle cx="144" cy="72" r="12" fill="rgb(181,15,221)" opacity="0.35"/>
<circle cx="144" cy="72" r="9" fill="rgb(181,15,221)"/>
<circle cx="168" cy="72" r="12" fill="rgb(163,20,209)" opacity="0.35"/>
<circle cx="168" cy="72" r="9" fill="rgb(163,20,209)"/>
<circle cx="192" cy="72" r="12" fill="rgb(132,29,189)" opacity="0.35"/>
<circle cx="192" cy="72" r="9" fill="rgb(132,29,189)"/>
<circle cx="216" cy="72" r="12" fill="rgb(107,30,168)" opacity="0.35"/>
<circle cx="216" cy="72" r="9" fill="rgb(107,30,168)"/>
<circle cx="240" cy="72" r="12" fill="rgb(94,23,150)" opacity="0.35"/>
<circle cx="240" cy="72" r="9" fill="rgb(94,23,150)"/>
<circle cx="264" cy="72" r="12" fill="rgb(84,17,137)" opacity="0.35"/>
<circle cx="264" cy="72" r="9" fill="rgb(84,17,137)"/>
<circle cx="288" cy="72" r="12" fill="rgb(78,14,128)" opacity="0.35"/>
<circle cx="288" cy="72" r="9" fill="rgb(78,14,128)"/>
<circle cx="312" cy="72" r="12" fill="rgb(73,11,122)" opacity="0.35"/>
<circle cx="312" cy="72" r="9" fill="rgb(73,11,122)"/>
<circle cx="336" cy="72" r="12" fill="rgb(71,10,118)" opacity="0.35"/>
<circle cx="336" cy="72" r="9" fill="rgb(71,10,118)"/>
<circle cx="360" cy="72" r="12" fill="rgb(67,8,114)" opacity="0.35"/>
<circle cx="360" cy="72" r="9" fill="rgb(67,8,114)"/>
<circle cx="384" cy="72" r="12" fill="rgb(64,6,109)" opacity="0.35"/>
<circle cx="384" cy="72" r="9" fill="rgb(64,6,109)"/>
<circle cx="24" cy="96" r="12" fill="rgb(87,19,141)" opacity="0.35"/>
<circle cx="24" cy="96" r="9" fill="rgb(87,19,141)"/>
<circle cx="48" cy="96" r="12" fill="rgb(108,30,169)" opacity="0.35"/>
<circle cx="48" cy="96" r="9" fill="rgb(108,30,169)"/>
<circle cx="72" cy="96" r="12" fill="rgb(150,24,201)" opacity="0.35"/>
<circle cx="72" cy="96" r="9" fill="rgb(150,24,201)"/>
<circle cx="96" cy="96" r="12" fill="rgb(203,9,235)" opacity="0.35"/>
<circle cx="96" cy="96" r="9" fill="rgb(203,9,235)"/>
<circle cx="120" cy="96" r="12" fill="rgb(238,7,255)" opacity="0.35"/>
<circle cx="120" cy="96" r="9" fill="rgb(238,7,255)"/>
<circle cx="144" cy="96" r="12" fill="rgb(241,12,255)" opacity="0.35"/>
<circle cx="144" cy="96" r="9" fill="rgb(241,12,255)"/>
<circle cx="168" cy="96" r="12" fill="rgb(219,4,246)" opacity="0.35"/>
<circle cx="168" cy="96" r="9" fill="rgb(219,4,246)"/>
<circle cx="192" cy="96" r="12" fill="rgb(171,18,215)" opacity="0.35"/>
<circle cx="192" cy="96" r="9" fill="rgb(171,18,215)"/>
<circle cx="216" cy="96" r="12" fill="rgb(127,30,186)" opacity="0.35"/>
<circle cx="216" cy="96" r="9" fill="rgb(127,30,186)"/>
<circle cx="240" cy="96" r="12" fill="rgb(104,28,164)" opacity="0.35"/>
<circle cx="240" cy="96" r="9" fill="rgb(104,28,164)"/>
<circle cx="264" cy="96" r="12" fill="rgb(93,22,149)" opacity="0.35"/>
<circle cx="264" cy="96" r="9" fill="rgb(93,22,149)"/>
<circle cx="288" cy="96" r="12" fill="rgb(87,19,140)" opacity="0.35"/>
<circle cx="288" cy="96" r="9" fill="rgb(87,19,140)"/>
<circle cx="312" cy="96" r="12" fill="rgb(83,17,135)" opacity="0.35"/>
<circle cx="312" cy="96" r="9" fill="rgb(83,17,135)"/>
<circle cx="336" cy="96" r="12" fill="rgb(81,16,132)" opacity="0.35"/>
<circle cx="336" cy="96" r="9" fill="rgb(81,16,132)"/>
<circle cx="360" cy="96" r="12" fill="rgb(78,14,129)" opacity="0.35"/>
<circle cx="360" cy="96" r="9" fill="rgb(78,14,129)"/>
<circle cx="384" cy="96" r="12" fill="rgb(75,12,125)" opacity="0.35"/>
<circle cx="384" cy="96" r="9" fill="rgb(75,12,125)"/>
<circle cx="24" cy="120" r="12" fill="rgb(93,22,149)" opacity="0.35"/>
<circle cx="24" cy="120" r="9" fill="rgb(93,22,149)"/>
<circle cx="48" cy="120" r="12" fill="rgb(118,33,180)" opacity="0.35"/>
<circle cx="48" cy="120" r="9" fill="rgb(118,33,180)"/>
<circle cx="72" cy="120" r="12" fill="rgb(174,17,217)" opacity="0.35"/>
<circle cx="72" cy="120" r="9" fill="rgb(174,17,217)"/>
<circle cx="96" cy="120" r="12" fill="rgb(237,5,255)" opacity="0.35"/>
<circle cx="96" cy="120" r="9" fill="rgb(237,5,255)"/>
<circle cx="120" cy="120" r="12" fill="rgb(255,45,245)" opacity="0.35"/>
<circle cx="120" cy="120" r="9" fill="rgb(255,45,245)"/>
<circle cx="144" cy="120" r="12" fill="rgb(255,51,241)" opacity="0.35"/>
<circle cx="144" cy="120" r="9" fill="rgb(255,51,241)"/>
<circle cx="168" cy="120" r="12" fill="rgb(247,20,255)" opacity="0.35"/>
<circle cx="168" cy="120" r="9" fill="rgb(247,20,255)"/>
<circle cx="192" cy="120" r="12" fill="rgb(199,10,233)" opacity="0.35"/>
<circle cx="192" cy="120" r="9" fill="rgb(199,10,233)"/>
<circle cx="216" cy="120" r="12" fill="rgb(146,25,198)" opacity="0.35"/>
<circle cx="216" cy="120" r="9" fill="rgb(146,25,198)"/>
<circle cx="240" cy="120" r="12" fill="rgb(112,33,174)" opacity="0.35"/>
<circle cx="240" cy="120" r="9" fill="rgb(112,33,174)"/>
<circle cx="264" cy="120" r="12" fill="rgb(102,27,160)" opacity="0.35"/>
<circle cx="264" cy="120" r="9" fill="rgb(102,27,160)"/>
<circle cx="288" cy="120" r="12" fill="rgb(96,24,153)" opacity="0.35"/>
<circle cx="288" cy="120" r="9" fill="rgb(96,24,153)"/>
<circle cx="312" cy="120" r="12" fill="rgb(95,23,151)" opacity="0.35"/>
<circle cx="312" cy="120" r="9" fill="rgb(95,23,151)"/>
<circle cx="336" cy="120" r="12" fill="rgb(95,23,151)" opacity="0.35"/>
<circle cx="336" cy="120" r="9" fill="rgb(95,23,151)"/>
<circle cx="360" cy="120" r="12" fill="rgb(94,23,150)" opacity="0.35"/>
<circle cx="360" cy="120" r="9" fill="rgb(94,23,150)"/>
<circle cx="384" cy="120" r="12" fill="rgb(91,21,146)" opacity="0.35"/>
<circle cx="384" cy="120" r="9" fill="rgb(91,21,146)"/>
<circle cx="24" cy="144" r="12" fill="rgb(96,24,152)" opacity="0.35"/>
<circle cx="24" cy="144" r="9" fill="rgb(96,24,152)"/>
<circle cx="48" cy="144" r="12" fill="rgb(123,32,183)" opacity="0.35"/>
<circle cx="48" cy="144" r="9" fill="rgb(123,32,183)"/>
<circle cx="72" cy="144" r="12" fill="rgb(178,16,220)" opacity="0.35"/>
<circle cx="72" cy="144" r="9" fill="rgb(178,16,220)"/>
<circle cx="96" cy="144" r="12" fill="rgb(239,8,255)" opacity="0.35"/>
<circle cx="96" cy="144" r="9" fill="rgb(239,8,255)"/>
<circle cx="120" cy="144" r="12" fill="rgb(255,48,243)" opacity="0.35"/>
<circle cx="120" cy="144" r="9" fill="rgb(255,48,243)"/>
<circle cx="144" cy="144" r="12" fill="rgb(255,55,239)" opacity="0.35"/>
<circle cx="144" cy="144" r="9" fill="rgb(255,55,239)"/>
<circle cx="168" cy="144" r="12" fill="rgb(249,23,255)" opacity="0.35"/>
<circle cx="168" cy="144" r="9" fill="rgb(249,23,255)"/>
<circle cx="192" cy="144" r="12" fill="rgb(203,9,235)" opacity="0.35"/>
<circle cx="192" cy="144" r="9" fill="rgb(203,9,235)"/>
<circle cx="216" cy="144" r="12" fill="rgb(151,23,202)" opacity="0.35"/>
<circle cx="216" cy="144" r="9" fill="rgb(151,23,202)"/>
<circle cx="240" cy="144" r="12" fill="rgb(118,33,180)" opacity="0.35"/>
<circle cx="240" cy="144" r="9" fill="rgb(118,33,180)"/>
<circle cx="264" cy="144" r="12" fill="rgb(108,30,169)" opacity="0.35"/>
<circle cx="264" cy="144" r="9" fill="rgb(108,30,169)"/>
<circle cx="288" cy="144" r="12" fill="rgb(106,29,166)" opacity="0.35"/>
<circle cx="288" cy="144" r="9" fill="rgb(106,29,166)"/>
<circle cx="312" cy="144" r="12" fill="rgb(109,31,170)" opacity="0.35"/>
<circle cx="312" cy="144" r="9" fill="rgb(109,31,170)"/>
<circle cx="336" cy="144" r="12" fill="rgb(113,33,175)" opacity="0.35"/>
<circle cx="336" cy="144" r="9" fill="rgb(113,33,175)"/>
<circle cx="360" cy="144" r="12" fill="rgb(115,34,178)" opacity="0.35"/>
<circle cx="360" cy="144" r="9" fill="rgb(115,34,178)"/>
<circle cx="384" cy="144" r="12" fill="rgb(112,32,174)" opacity="0.35"/>
<circle cx="384" cy="144" r="9" fill="rgb(112,32,174)"/>
<circle cx="24" cy="168" r="12" fill="rgb(95,23,151)" opacity="0.35"/>
<circle cx="24" cy="168" r="9" fill="rgb(95,23,151)"/>
<circle cx="48" cy="168" r="12" fill="rgb(115,34,178)" opacity="0.35"/>
<circle cx="48" cy="168" r="9" fill="rgb(115,34,178)"/>
<circle cx="72" cy="168" r="12" fill="rgb(163,20,209)" opacity="0.35"/>
<circle cx="72" cy="168" r="9" fill="rgb(163,20,209)"/>
<circle cx="96" cy="168" r="12" fill="rgb(214,5,243)" opacity="0.35"/>
<circle cx="96" cy="168" r="9" fill="rgb(214,5,243)"/>
<circle cx="120" cy="168" r="12" fill="rgb(245,16,255)" opacity="0.35"/>
<circle cx="120" cy="168" r="9" fill="rgb(245,16,255)"/>
<circle cx="144" cy="168" r="12" fill="rgb(248,21,255)" opacity="0.35"/>
<circle cx="144" cy="168" r="9" fill="rgb(248,21,255)"/>
<circle cx="168" cy="168" r="12" fill="rgb(231,1,254)" opacity="0.35"/>
<circle cx="168" cy="168" r="9" fill="rgb(231,1,254)"/>
<circle cx="192" cy="168" r="12" fill="rgb(185,14,224)" opacity="0.35"/>
<circle cx="192" cy="168" r="9" fill="rgb(185,14,224)"/>
<circle cx="216" cy="168" r="12" fill="rgb(146,25,198)" opacity="0.35"/>
<circle cx="216" cy="168" r="9" fill="rgb(146,25,198)"/>
<circle cx="240" cy="168" r="12" fill="rgb(121,32,182)" opacity="0.35"/>
<circle cx="240" cy="168" r="9" fill="rgb(121,32,182)"/>
<circle cx="264" cy="168" r="12" fill="rgb(113,33,176)" opacity="0.35"/>
<circle cx="264" cy="168" r="9" fill="rgb(113,33,176)"/>
<circle cx="288" cy="168" r="12" fill="rgb(117,33,180)" opacity="0.35"/>
<circle cx="288" cy="168" r="9" fill="rgb(117,33,180)"/>
<circle cx="312" cy="168" r="12" fill="rgb(134,28,190)" opacity="0.35"/>
<circle cx="312" cy="168" r="9" fill="rgb(134,28,190)"/>
<circle cx="336" cy="168" r="12" fill="rgb(154,23,204)" opacity="0.35"/>
<circle cx="336" cy="168" r="9" fill="rgb(154,23,204)"/>
<circle cx="360" cy="168" r="12" fill="rgb(167,19,212)" opacity="0.35"/>
<circle cx="360" cy="168" r="9" fill="rgb(167,19,212)"/>
<circle cx="384" cy="168" r="12" fill="rgb(162,20,209)" opacity="0.35"/>
<circle cx="384" cy="168" r="9" fill="rgb(162,20,209)"/>
<circle cx="24" cy="192" r="12" fill="rgb(93,22,148)" opacity="0.35"/>
<circle cx="24" cy="192" r="9" fill="rgb(93,22,148)"/>
<circle cx="48" cy="192" r="12" fill="rgb(109,31,170)" opacity="0.35"/>
<circle cx="48" cy="192" r="9" fill="rgb(109,31,170)"/>
<circle cx="72" cy="192" r="12" fill="rgb(139,27,194)" opacity="0.35"/>
<circle cx="72" cy="192" r="9" fill="rgb(139,27,194)"/>
<circle cx="96" cy="192" r="12" fill="rgb(174,17,216)" opacity="0.35"/>
<circle cx="96" cy="192" r="9" fill="rgb(174,17,216)"/>
<circle cx="120" cy="192" r="12" fill="rgb(199,10,233)" opacity="0.35"/>
<circle cx="120" cy="192" r="9" fill="rgb(199,10,233)"/>
<circle cx="144" cy="192" r="12" fill="rgb(204,8,236)" opacity="0.35"/>
<circle cx="144" cy="192" r="9" fill="rgb(204,8,236)"/>
<circle cx="168" cy="192" r="12" fill="rgb(187,13,225)" opacity="0.35"/>
<circle cx="168" cy="192" r="9" fill="rgb(187,13,225)"/>
<circle cx="192" cy="192" r="12" fill="rgb(159,21,207)" opacity="0.35"/>
<circle cx="192" cy="192" r="9" fill="rgb(159,21,207)"/>
<circle cx="216" cy="192" r="12" fill="rgb(135,28,191)" opacity="0.35"/>
<circle cx="216" cy="192" r="9" fill="rgb(135,28,191)"/>
<circle cx="240" cy="192" r="12" fill="rgb(121,32,182)" opacity="0.35"/>
<circle cx="240" cy="192" r="9" fill="rgb(121,32,182)"/>
<circle cx="264" cy="192" r="12" fill="rgb(121,32,182)" opacity="0.35"/>
<circle cx="264" cy="192" r="9" fill="rgb(121,32,182)"/>
<circle cx="288" cy="192" r="12" fill="rgb(136,28,192)" opacity="0.35"/>
<circle cx="288" cy="192" r="9" fill="rgb(136,28,192)"/>
<circle cx="312" cy="192" r="12" fill="rgb(167,19,212)" opacity="0.35"/>
<circle cx="312" cy="192" r="9" fill="rgb(167,19,212)"/>
<circle cx="336" cy="192" r="12" fill="rgb(206,8,238)" opacity="0.35"/>
<circle cx="336" cy="192" r="9" fill="rgb(206,8,238)"/>
<circle cx="360" cy="192" r="12" fill="rgb(233,0,255)" opacity="0.35"/>
<circle cx="360" cy="192" r="9" fill="rgb(233,0,255)"/>
<circle cx="384" cy="192" r="12" fill="rgb(227,2,251)" opacity="0.35"/>
<circle cx="384" cy="192" r="9" fill="rgb(227,2,251)"/>
<circle cx="24" cy="216" r="12" fill="rgb(90,20,144)" opacity="0.35"/>
<circle cx="24" cy="216" r="9" fill="rgb(90,20,144)"/>
<circle cx="48" cy="216" r="12" fill="rgb(104,28,163)" opacity="0.35"/>
<circle cx="48" cy="216" r="9" fill="rgb(104,28,163)"/>
<circle cx="72" cy="216" r="12" fill="rgb(121,32,182)" opacity="0.35"/>
<circle cx="72" cy="216" r="9" fill="rgb(121,32,182)"/>
<circle cx="96" cy="216" r="12" fill="rgb(144,26,197)" opacity="0.35"/>
<circle cx="96" cy="216" r="9" fill="rgb(144,26,197)"/>
<circle cx="120" cy="216" r="12" fill="rgb(159,21,207)" opacity="0.35"/>
<circle cx="120" cy="216" r="9" fill="rgb(159,21,207)"/>
<circle cx="144" cy="216" r="12" fill="rgb(163,20,209)" opacity="0.35"/>
<circle cx="144" cy="216" r="9" fill="rgb(163,20,209)"/>
<circle cx="168" cy="216" r="12" fill="rgb(155,22,204)" opacity="0.35"/>
<circle cx="168" cy="216" r="9" fill="rgb(155,22,204)"/>
<circle cx="192" cy="216" r="12" fill="rgb(140,27,195)" opacity="0.35"/>
<circle cx="192" cy="216" r="9" fill="rgb(140,27,195)"/>
<circle cx="216" cy="216" r="12" fill="rgb(127,31,186)" opacity="0.35"/>
<circle cx="216" cy="216" r="9" fill="rgb(127,31,186)"/>
<circle cx="240" cy="216" r="12" fill="rgb(120,32,181)" opacity="0.35"/>
<circle cx="240" cy="216" r="9" fill="rgb(120,32,181)"/>
<circle cx="264" cy="216" r="12" fill="rgb(127,31,186)" opacity="0.35"/>
<circle cx="264" cy="216" r="9" fill="rgb(127,31,186)"/>
<circle cx="288" cy="216" r="12" fill="rgb(150,24,201)" opacity="0.35"/>
<circle cx="288" cy="216" r="9" fill="rgb(150,24,201)"/>
<circle cx="312" cy="216" r="12" fill="rgb(195,11,230)" opacity="0.35"/>
<circle cx="312" cy="216" r="9" fill="rgb(195,11,230)"/>
<circle cx="336" cy="216" r="12" fill="rgb(243,14,255)" opacity="0.35"/>
<circle cx="336" cy="216" r="9" fill="rgb(243,14,255)"/>
<circle cx="360" cy="216" r="12" fill="rgb(255,44,247)" opacity="0.35"/>
<circle cx="360" cy="216" r="9" fill="rgb(255,44,247)"/>
<circle cx="384" cy="216" r="12" fill="rgb(255,38,250)" opacity="0.35"/>
<circle cx="384" cy="216" r="9" fill="rgb(255,38,250)"/>
<circle cx="24" cy="240" r="12" fill="rgb(90,20,144)" opacity="0.35"/>
<circle cx="24" cy="240" r="9" fill="rgb(90,20,144)"/>
<circle cx="48" cy="240" r="12" fill="rgb(102,27,161)" opacity="0.35"/>
<circle cx="48" cy="240" r="9" fill="rgb(102,27,161)"/>
<circle cx="72" cy="240" r="12" fill="rgb(115,34,178)" opacity="0.35"/>
<circle cx="72" cy="240" r="9" fill="rgb(115,34,178)"/>
<circle cx="96" cy="240" r="12" fill="rgb(134,28,191)" opacity="0.35"/>
<circle cx="96" cy="240" r="9" fill="rgb(134,28,191)"/>
<circle cx="120" cy="240" r="12" fill="rgb(147,25,199)" opacity="0.35"/>
<circle cx="120" cy="240" r="9" fill="rgb(147,25,199)"/>
<circle cx="144" cy="240" r="12" fill="rgb(149,24,201)" opacity="0.35"/>
<circle cx="144" cy="240" r="9" fill="rgb(149,24,201)"/>
<circle cx="168" cy="240" r="12" fill="rgb(144,26,197)" opacity="0.35"/>
<circle cx="168" cy="240" r="9" fill="rgb(144,26,197)"/>
<circle cx="192" cy="240" r="12" fill="rgb(133,29,190)" opacity="0.35"/>
<circle cx="192" cy="240" r="9" fill="rgb(133,29,190)"/>
<circle cx="216" cy="240" r="12" fill="rgb(123,32,183)" opacity="0.35"/>
<circle cx="216" cy="240" r="9" fill="rgb(123,32,183)"/>
<circle cx="240" cy="240" r="12" fill="rgb(119,33,181)" opacity="0.35"/>
<circle cx="240" cy="240" r="9" fill="rgb(119,33,181)"/>
<circle cx="264" cy="240" r="12" fill="rgb(127,30,186)" opacity="0.35"/>
<circle cx="264" cy="240" r="9" fill="rgb(127,30,186)"/>
<circle cx="288" cy="240" r="12" fill="rgb(154,23,204)" opacity="0.35"/>
<circle cx="288" cy="240" r="9" fill="rgb(154,23,204)"/>
<circle cx="312" cy="240" r="12" fill="rgb(204,8,236)" opacity="0.35"/>
<circle cx="312" cy="240" r="9" fill="rgb(204,8,236)"/>
<circle cx="336" cy="240" r="12" fill="rgb(250,25,255)" opacity="0.35"/>
<circle cx="336" cy="240" r="9" fill="rgb(250,25,255)"/>
<circle cx="360" cy="240" r="12" fill="rgb(255,58,237)" opacity="0.35"/>
<circle cx="360" cy="240" r="9" fill="rgb(255,58,237)"/>
<circle cx="384" cy="240" r="12" fill="rgb(255,52,241)" opacity="0.35"/>
<circle cx="384" cy="240" r="9" fill="rgb(255,52,241)"/>
<circle cx="24" cy="264" r="12" fill="rgb(91,21,146)" opacity="0.35"/>
<circle cx="24" cy="264" r="9" fill="rgb(91,21,146)"/>
<circle cx="48" cy="264" r="12" fill="rgb(105,29,165)" opacity="0.35"/>
<circle cx="48" cy="264" r="9" fill="rgb(105,29,165)"/>
<circle cx="72" cy="264" r="12" fill="rgb(123,32,184)" opacity="0.35"/>
<circle cx="72" cy="264" r="9" fill="rgb(123,32,184)"/>
<circle cx="96" cy="264" r="12" fill="rgb(147,25,199)" opacity="0.35"/>
<circle cx="96" cy="264" r="9" fill="rgb(147,25,199)"/>
<circle cx="120" cy="264" r="12" fill="rgb(161,21,208)" opacity="0.35"/>
<circle cx="120" cy="264" r="9" fill="rgb(161,21,208)"/>
<circle cx="144" cy="264" r="12" fill="rgb(164,20,210)" opacity="0.35"/>
<circle cx="144" cy="264" r="9" fill="rgb(164,20,210)"/>
<circle cx="168" cy="264" r="12" fill="rgb(154,23,204)" opacity="0.35"/>
<circle cx="168" cy="264" r="9" fill="rgb(154,23,204)"/>
<circle cx="192" cy="264" r="12" fill="rgb(139,27,194)" opacity="0.35"/>
<circle cx="192" cy="264" r="9" fill="rgb(139,27,194)"/>
<circle cx="216" cy="264" r="12" fill="rgb(125,31,185)" opacity="0.35"/>
<circle cx="216" cy="264" r="9" fill="rgb(125,31,185)"/>
<circle cx="240" cy="264" r="12" fill="rgb(118,33,180)" opacity="0.35"/>
<circle cx="240" cy="264" r="9" fill="rgb(118,33,180)"/>
<circle cx="264" cy="264" r="12" fill="rgb(124,31,184)" opacity="0.35"/>
<circle cx="264" cy="264" r="9" fill="rgb(124,31,184)"/>
<circle cx="288" cy="264" r="12" fill="rgb(147,25,199)" opacity="0.35"/>
<circle cx="288" cy="264" r="9" fill="rgb(147,25,199)"/>
<circle cx="312" cy="264" r="12" fill="rgb(187,13,225)" opacity="0.35"/>
<circle cx="312" cy="264" r="9" fill="rgb(187,13,225)"/>
<circle cx="336" cy="264" r="12" fill="rgb(237,4,255)" opacity="0.35"/>
<circle cx="336" cy="264" r="9" fill="rgb(237,4,255)"/>
<circle cx="360" cy="264" r="12" fill="rgb(255,31,255)" opacity="0.35"/>
<circle cx="360" cy="264" r="9" fill="rgb(255,31,255)"/>
<circle cx="384" cy="264" r="12" fill="rgb(250,26,255)" opacity="0.35"/>
<circle cx="384" cy="264" r="9" fill="rgb(250,26,255)"/>
<circle cx="24" cy="288" r="12" fill="rgb(94,23,150)" opacity="0.35"/>
<circle cx="24" cy="288" r="9" fill="rgb(94,23,150)"/>
<circle cx="48" cy="288" r="12" fill="rgb(111,32,173)" opacity="0.35"/>
<circle cx="48" cy="288" r="9" fill="rgb(111,32,173)"/>
<circle cx="72" cy="288" r="12" fill="rgb(145,25,198)" opacity="0.35"/>
<circle cx="72" cy="288" r="9" fill="rgb(145,25,198)"/>
<circle cx="96" cy="288" r="12" fill="rgb(180,15,220)" opacity="0.35"/>
<circle cx="96" cy="288" r="9" fill="rgb(180,15,220)"/>
<circle cx="120" cy="288" r="12" fill="rgb(203,9,236)" opacity="0.35"/>
<circle cx="120" cy="288" r="9" fill="rgb(203,9,236)"/>
<circle cx="144" cy="288" r="12" fill="rgb(204,8,236)" opacity="0.35"/>
<circle cx="144" cy="288" r="9" fill="rgb(204,8,236)"/>
<circle cx="168" cy="288" r="12" fill="rgb(184,14,223)" opacity="0.35"/>
<circle cx="168" cy="288" r="9" fill="rgb(184,14,223)"/>
<circle cx="192" cy="288" r="12" fill="rgb(157,22,205)" opacity="0.35"/>
<circle cx="192" cy="288" r="9" fill="rgb(157,22,205)"/>
<circle cx="216" cy="288" r="12" fill="rgb(132,29,189)" opacity="0.35"/>
<circle cx="216" cy="288" r="9" fill="rgb(132,29,189)"/>
<circle cx="240" cy="288" r="12" fill="rgb(117,33,180)" opacity="0.35"/>
<circle cx="240" cy="288" r="9" fill="rgb(117,33,180)"/>
<circle cx="264" cy="288" r="12" fill="rgb(116,34,179)" opacity="0.35"/>
<circle cx="264" cy="288" r="9" fill="rgb(116,34,179)"/>
<circle cx="288" cy="288" r="12" fill="rgb(130,30,188)" opacity="0.35"/>
<circle cx="288" cy="288" r="9" fill="rgb(130,30,188)"/>
<circle cx="312" cy="288" r="12" fill="rgb(157,22,205)" opacity="0.35"/>
<circle cx="312" cy="288" r="9" fill="rgb(157,22,205)"/>
<circle cx="336" cy="288" r="12" fill="rgb(188,13,226)" opacity="0.35"/>
<circle cx="336" cy="288" r="9" fill="rgb(188,13,226)"/>
<circle cx="360" cy="288" r="12" fill="rgb(210,7,240)" opacity="0.35"/>
<circle cx="360" cy="288" r="9" fill="rgb(210,7,240)"/>
<circle cx="384" cy="288" r="12" fill="rgb(204,8,236)" opacity="0.35"/>
<circle cx="384" cy="288" r="9" fill="rgb(204,8,236)"/>
<circle cx="24" cy="312" r="12" fill="rgb(97,24,154)" opacity="0.35"/>
<circle cx="24" cy="312" r="9" fill="rgb(97,24,154)"/>
<circle cx="48" cy="312" r="12" fill="rgb(122,32,183)" opacity="0.35"/>
<circle cx="48" cy="312" r="9" fill="rgb(122,32,183)"/>
<circle cx="72" cy="312" r="12" fill="rgb(171,18,215)" opacity="0.35"/>
<circle cx="72" cy="312" r="9" fill="rgb(171,18,215)"/>
<circle cx="96" cy="312" r="12" fill="rgb(224,3,249)" opacity="0.35"/>
<circle cx="96" cy="312" r="9" fill="rgb(224,3,249)"/>
<circle cx="120" cy="312" r="12" fill="rgb(247,21,255)" opacity="0.35"/>
<circle cx="120" cy="312" r="9" fill="rgb(247,21,255)"/>
<circle cx="144" cy="312" r="12" fill="rgb(248,21,255)" opacity="0.35"/>
<circle cx="144" cy="312" r="9" fill="rgb(248,21,255)"/>
<circle cx="168" cy="312" r="12" fill="rgb(226,2,250)" opacity="0.35"/>
<circle cx="168" cy="312" r="9" fill="rgb(226,2,250)"/>
<circle cx="192" cy="312" r="12" fill="rgb(178,16,220)" opacity="0.35"/>
<circle cx="192" cy="312" r="9" fill="rgb(178,16,220)"/>
<circle cx="216" cy="312" r="12" fill="rgb(140,27,195)" opacity="0.35"/>
<circle cx="216" cy="312" r="9" fill="rgb(140,27,195)"/>
<circle cx="240" cy="312" r="12" fill="rgb(116,34,179)" opacity="0.35"/>
<circle cx="240" cy="312" r="9" fill="rgb(116,34,179)"/>
<circle cx="264" cy="312" r="12" fill="rgb(110,32,172)" opacity="0.35"/>
<circle cx="264" cy="312" r="9" fill="rgb(110,32,172)"/>
<circle cx="288" cy="312" r="12" fill="rgb(112,33,174)" opacity="0.35"/>
<circle cx="288" cy="312" r="9" fill="rgb(112,33,174)"/>
<circle cx="312" cy="312" r="12" fill="rgb(123,32,183)" opacity="0.35"/>
<circle cx="312" cy="312" r="9" fill="rgb(123,32,183)"/>
<circle cx="336" cy="312" r="12" fill="rgb(139,27,194)" opacity="0.35"/>
<circle cx="336" cy="312" r="9" fill="rgb(139,27,194)"/>
<circle cx="360" cy="312" r="12" fill="rgb(149,24,200)" opacity="0.35"/>
<circle cx="360" cy="312" r="9" fill="rgb(149,24,200)"/>
<circle cx="384" cy="312" r="12" fill="rgb(142,26,196)" opacity="0.35"/>
<circle cx="384" cy="312" r="9" fill="rgb(142,26,196)"/>
<circle cx="24" cy="336" r="12" fill="rgb(98,25,156)" opacity="0.35"/>
<circle cx="24" cy="336" r="9" fill="rgb(98,25,156)"/>
<circle cx="48" cy="336" r="12" fill="rgb(130,30,188)" opacity="0.35"/>
<circle cx="48" cy="336" r="9" fill="rgb(130,30,188)"/>
<circle cx="72" cy="336" r="12" fill="rgb(188,13,226)" opacity="0.35"/>
<circle cx="72" cy="336" r="9" fill="rgb(188,13,226)"/>
<circle cx="96" cy="336" r="12" fill="rgb(244,16,255)" opacity="0.35"/>
<circle cx="96" cy="336" r="9" fill="rgb(244,16,255)"/>
<circle cx="120" cy="336" r="12" fill="rgb(255,53,240)" opacity="0.35"/>
<circle cx="120" cy="336" r="9" fill="rgb(255,53,240)"/>
<circle cx="144" cy="336" r="12" fill="rgb(255,53,240)" opacity="0.35"/>
<circle cx="144" cy="336" r="9" fill="rgb(255,53,240)"/>
<circle cx="168" cy="336" r="12" fill="rgb(244,17,255)" opacity="0.35"/>
<circle cx="168" cy="336" r="9" fill="rgb(244,17,255)"/>
<circle cx="192" cy="336" r="12" fill="rgb(193,11,229)" opacity="0.35"/>
<circle cx="192" cy="336" r="9" fill="rgb(193,11,229)"/>
<circle cx="216" cy="336" r="12" fill="rgb(144,26,197)" opacity="0.35"/>
<circle cx="216" cy="336" r="9" fill="rgb(144,26,197)"/>
<circle cx="240" cy="336" r="12" fill="rgb(113,33,176)" opacity="0.35"/>
<circle cx="240" cy="336" r="9" fill="rgb(113,33,176)"/>
<circle cx="264" cy="336" r="12" fill="rgb(104,28,164)" opacity="0.35"/>
<circle cx="264" cy="336" r="9" fill="rgb(104,28,164)"/>
<circle cx="288" cy="336" r="12" fill="rgb(102,27,161)" opacity="0.35"/>
<circle cx="288" cy="336" r="9" fill="rgb(102,27,161)"/>
<circle cx="312" cy="336" r="12" fill="rgb(104,28,163)" opacity="0.35"/>
<circle cx="312" cy="336" r="9" fill="rgb(104,28,163)"/>
<circle cx="336" cy="336" r="12" fill="rgb(106,29,166)" opacity="0.35"/>
<circle cx="336" cy="336" r="9" fill="rgb(106,29,166)"/>
<circle cx="360" cy="336" r="12" fill="rgb(107,30,168)" opacity="0.35"/>
<circle cx="360" cy="336" r="9" fill="rgb(107,30,168)"/>
<circle cx="384" cy="336" r="12" fill="rgb(104,28,163)" opacity="0.35"/>
<circle cx="384" cy="336" r="9" fill="rgb(104,28,163)"/>
<circle cx="24" cy="360" r="12" fill="rgb(96,24,153)" opacity="0.35"/>
<circle cx="24" cy="360" r="9" fill="rgb(96,24,153)"/>
<circle cx="48" cy="360" r="12" fill="rgb(125,31,185)" opacity="0.35"/>
<circle cx="48" cy="360" r="9" fill="rgb(125,31,185)"/>
<circle cx="72" cy="360" r="12" fill="rgb(184,14,223)" opacity="0.35"/>
<circle cx="72" cy="360" r="9" fill="rgb(184,14,223)"/>
<circle cx="96" cy="360" r="12" fill="rgb(241,12,255)" opacity="0.35"/>
<circle cx="96" cy="360" r="9" fill="rgb(241,12,255)"/>
<circle cx="120" cy="360" r="12" fill="rgb(255,48,244)" opacity="0.35"/>
<circle cx="120" cy="360" r="9" fill="rgb(255,48,244)"/>
<circle cx="144" cy="360" r="12" fill="rgb(255,47,243)" opacity="0.35"/>
<circle cx="144" cy="360" r="9" fill="rgb(255,47,243)"/>
<circle cx="168" cy="360" r="12" fill="rgb(242,12,255)" opacity="0.35"/>
<circle cx="168" cy="360" r="9" fill="rgb(242,12,255)"/>
<circle cx="192" cy="360" r="12" fill="rgb(188,13,226)" opacity="0.35"/>
<circle cx="192" cy="360" r="9" fill="rgb(188,13,226)"/>
<circle cx="216" cy="360" r="12" fill="rgb(138,27,193)" opacity="0.35"/>
<circle cx="216" cy="360" r="9" fill="rgb(138,27,193)"/>
<circle cx="240" cy="360" r="12" fill="rgb(109,31,170)" opacity="0.35"/>
<circle cx="240" cy="360" r="9" fill="rgb(109,31,170)"/>
<circle cx="264" cy="360" r="12" fill="rgb(98,25,155)" opacity="0.35"/>
<circle cx="264" cy="360" r="9" fill="rgb(98,25,155)"/>
<circle cx="288" cy="360" r="12" fill="rgb(93,22,148)" opacity="0.35"/>
<circle cx="288" cy="360" r="9" fill="rgb(93,22,148)"/>
<circle cx="312" cy="360" r="12" fill="rgb(91,21,145)" opacity="0.35"/>
<circle cx="312" cy="360" r="9" fill="rgb(91,21,145)"/>
<circle cx="336" cy="360" r="12" fill="rgb(90,20,144)" opacity="0.35"/>
<circle cx="336" cy="360" r="9" fill="rgb(90,20,144)"/>
<circle cx="360" cy="360" r="12" fill="rgb(88,20,142)" opacity="0.35"/>
<circle cx="360" cy="360" r="9" fill="rgb(88,20,142)"/>
<circle cx="384" cy="360" r="12" fill="rgb(85,18,138)" opacity="0.35"/>
<circle cx="384" cy="360" r="9" fill="rgb(85,18,138)"/>
<circle cx="24" cy="384" r="12" fill="rgb(90,20,144)" opacity="0.35"/>
<circle cx="24" cy="384" r="9" fill="rgb(90,20,144)"/>
<circle cx="48" cy="384" r="12" fill="rgb(111,32,173)" opacity="0.35"/>
<circle cx="48" cy="384" r="9" fill="rgb(111,32,173)"/>
<circle cx="72" cy="384" r="12" fill="rgb(157,22,205)" opacity="0.35"/>
<circle cx="72" cy="384" r="9" fill="rgb(157,22,205)"/>
<circle cx="96" cy="384" r="12" fill="rgb(208,7,239)" opacity="0.35"/>
<circle cx="96" cy="384" r="9" fill="rgb(208,7,239)"/>
<circle cx="120" cy="384" r="12" fill="rgb(238,8,255)" opacity="0.35"/>
<circle cx="120" cy="384" r="9" fill="rgb(238,8,255)"/>
<circle cx="144" cy="384" r="12" fill="rgb(238,8,255)" opacity="0.35"/>
<circle cx="144" cy="384" r="9" fill="rgb(238,8,255)"/>
<circle cx="168" cy="384" r="12" fill="rgb(209,7,239)" opacity="0.35"/>
<circle cx="168" cy="384" r="9" fill="rgb(209,7,239)"/>
<circle cx="192" cy="384" r="12" fill="rgb(161,21,208)" opacity="0.35"/>
<circle cx="192" cy="384" r="9" fill="rgb(161,21,208)"/>
<circle cx="216" cy="384" r="12" fill="rgb(119,33,181)" opacity="0.35"/>
<circle cx="216" cy="384" r="9" fill="rgb(119,33,181)"/>
<circle cx="240" cy="384" r="12" fill="rgb(101,26,159)" opacity="0.35"/>
<circle cx="240" cy="384" r="9" fill="rgb(101,26,159)"/>
<circle cx="264" cy="384" r="12" fill="rgb(90,20,145)" opacity="0.35"/>
<circle cx="264" cy="384" r="9" fill="rgb(90,20,145)"/>
<circle cx="288" cy="384" r="12" fill="rgb(84,17,136)" opacity="0.35"/>
<circle cx="288" cy="384" r="9" fill="rgb(84,17,136)"/>
<circle cx="312" cy="384" r="12" fill="rgb(80,15,131)" opacity="0.35"/>
<circle cx="312" cy="384" r="9" fill="rgb(80,15,131)"/>
<circle cx="336" cy="384" r="12" fill="rgb(77,13,127)" opacity="0.35"/>
<circle cx="336" cy="384" r="9" fill="rgb(77,13,127)"/>
<circle cx="360" cy="384" r="12" fill="rgb(75,12,124)" opacity="0.35"/>
<circle cx="360" cy="384" r="9" fill="rgb(75,12,124)"/>
<circle cx="384" cy="384" r="12" fill="rgb(71,10,119)" opacity="0.35"/>
<circle cx="384" cy="384" r="9" fill="rgb(71,10,119)"/>
</svg>
