<svg xmlns="http://www.w3.org/2000/svg" viewBox="0 0 408 408" width="408" height="408" role="img" aria-label="LED preview of the Hue Shift example graph">
<rect width="408" height="408" rx="10" fill="#05070a"/>
<circle cx="24" cy="24" r="12" fill="rgb(0,192,147)" opacity="0.35"/>
<circle cx="24" cy="24" r="9" fill="rgb(0,192,147)"/>
<circle cx="48" cy="24" r="12" fill="rgb(48,202,75)" opacity="0.35"/>
<circle cx="48" cy="24" r="9" fill="rgb(48,202,75)"/>
<circle cx="72" cy="24" r="12" fill="rgb(86,205,52)" opacity="0.35"/>
<circle cx="72" cy="24" r="9" fill="rgb(86,205,52)"/>
<circle cx="96" cy="24" r="12" fill="rgb(46,202,76)" opacity="0.35"/>
<circle cx="96" cy="24" r="9" fill="rgb(46,202,76)"/>
<circle cx="120" cy="24" r="12" fill="rgb(0,192,149)" opacity="0.35"/>
<circle cx="120" cy="24" r="9" fill="rgb(0,192,149)"/>
<circle cx="144" cy="24" r="12" fill="rgb(2,160,255)" opacity="0.35"/>
<circle cx="144" cy="24" r="9" fill="rgb(2,160,255)"/>
<circle cx="168" cy="24" r="12" fill="rgb(37,91,254)" opacity="0.35"/>
<circle cx="168" cy="24" r="9" fill="rgb(37,91,254)"/>
<circle cx="192" cy="24" r="12" fill="rgb(114,52,252)" opacity="0.35"/>
<circle cx="192" cy="24" r="9" fill="rgb(114,52,252)"/>
<circle cx="216" cy="24" r="12" fill="rgb(161,30,251)" opacity="0.35"/>
<circle cx="216" cy="24" r="9" fill="rgb(161,30,251)"/>
<circle cx="240" cy="24" r="12" fill="rgb(147,37,251)" opacity="0.35"/>
<circle cx="240" cy="24" r="9" fill="rgb(147,37,251)"/>
<circle cx="264" cy="24" r="12" fill="rgb(70,66,253)" opacity="0.35"/>
<circle cx="264" cy="24" r="9" fill="rgb(70,66,253)"/>
<circle cx="288" cy="24" r="12" fill="rgb(21,121,255)" opacity="0.35"/>
<circle cx="288" cy="24" r="9" fill="rgb(21,121,255)"/>
<circle cx="312" cy="24" r="12" fill="rgb(0,173,203)" opacity="0.35"/>
<circle cx="312" cy="24" r="9" fill="rgb(0,173,203)"/>
<circle cx="336" cy="24" r="12" fill="rgb(0,198,104)" opacity="0.35"/>
<circle cx="336" cy="24" r="9" fill="rgb(0,198,104)"/>
<circle cx="360" cy="24" r="12" fill="rgb(72,204,57)" opacity="0.35"/>
<circle cx="360" cy="24" r="9" fill="rgb(72,204,57)"/>
<circle cx="384" cy="24" r="12" fill="rgb(78,204,55)" opacity="0.35"/>
<circle cx="384" cy="24" r="9" fill="rgb(78,204,55)"/>
<circle cx="24" cy="48" r="12" fill="rgb(69,204,58)" opacity="0.35"/>
<circle cx="24" cy="48" r="9" fill="rgb(69,204,58)"/>
<circle cx="48" cy="48" r="12" fill="rgb(194,210,17)" opacity="0.35"/>
<circle cx="48" cy="48" r="9" fill="rgb(194,210,17)"/>
<circle cx="72" cy="48" r="12" fill="rgb(250,225,2)" opacity="0.35"/>
<circle cx="72" cy="48" r="9" fill="rgb(250,225,2)"/>
<circle cx="96" cy="48" r="12" fill="rgb(192,210,17)" opacity="0.35"/>
<circle cx="96" cy="48" r="9" fill="rgb(192,210,17)"/>
<circle cx="120" cy="48" r="12" fill="rgb(66,204,59)" opacity="0.35"/>
<circle cx="120" cy="48" r="9" fill="rgb(66,204,59)"/>
<circle cx="144" cy="48" r="12" fill="rgb(0,190,164)" opacity="0.35"/>
<circle cx="144" cy="48" r="9" fill="rgb(0,190,164)"/>
<circle cx="168" cy="48" r="12" fill="rgb(7,149,255)" opacity="0.35"/>
<circle cx="168" cy="48" r="9" fill="rgb(7,149,255)"/>
<circle cx="192" cy="48" r="12" fill="rgb(35,95,254)" opacity="0.35"/>
<circle cx="192" cy="48" r="9" fill="rgb(35,95,254)"/>
<circle cx="216" cy="48" r="12" fill="rgb(49,69,254)" opacity="0.35"/>
<circle cx="216" cy="48" r="9" fill="rgb(49,69,254)"/>
<circle cx="240" cy="48" r="12" fill="rgb(44,77,254)" opacity="0.35"/>
<circle cx="240" cy="48" r="9" fill="rgb(44,77,254)"/>
<circle cx="264" cy="48" r="12" fill="rgb(24,116,255)" opacity="0.35"/>
<circle cx="264" cy="48" r="9" fill="rgb(24,116,255)"/>
<circle cx="288" cy="48" r="12" fill="rgb(0,169,226)" opacity="0.35"/>
<circle cx="288" cy="48" r="9" fill="rgb(0,169,226)"/>
<circle cx="312" cy="48" r="12" fill="rgb(0,198,108)" opacity="0.35"/>
<circle cx="312" cy="48" r="9" fill="rgb(0,198,108)"/>
<circle cx="336" cy="48" r="12" fill="rgb(132,207,38)" opacity="0.35"/>
<circle cx="336" cy="48" r="9" fill="rgb(132,207,38)"/>
<circle cx="360" cy="48" r="12" fill="rgb(235,223,6)" opacity="0.35"/>
<circle cx="360" cy="48" r="9" fill="rgb(235,223,6)"/>
<circle cx="384" cy="48" r="12" fill="rgb(241,224,5)" opacity="0.35"/>
<circle cx="384" cy="48" r="9" fill="rgb(241,224,5)"/>
<circle cx="24" cy="72" r="12" fill="rgb(255,223,0)" opacity="0.35"/>
<circle cx="24" cy="72" r="9" fill="rgb(255,223,0)"/>
<circle cx="48" cy="72" r="12" fill="rgb(255,177,0)" opacity="0.35"/>
<circle cx="48" cy="72" r="9" fill="rgb(255,177,0)"/>
<circle cx="72" cy="72" r="12" fill="rgb(255,161,0)" opacity="0.35"/>
<circle cx="72" cy="72" r="9" fill="rgb(255,161,0)"/>
<circle cx="96" cy="72" r="12" fill="rgb(255,178,0)" opacity="0.35"/>
<circle cx="96" cy="72" r="9" fill="rgb(255,178,0)"/>
<circle cx="120" cy="72" r="12" fill="rgb(255,224,0)" opacity="0.35"/>
<circle cx="120" cy="72" r="9" fill="rgb(255,224,0)"/>
<circle cx="144" cy="72" r="12" fill="rgb(74,204,57)" opacity="0.35"/>
<circle cx="144" cy="72" r="9" fill="rgb(74,204,57)"/>
<circle cx="168" cy="72" r="12" fill="rgb(0,190,163)" opacity="0.35"/>
<circle cx="168" cy="72" r="9" fill="rgb(0,190,163)"/>
<circle cx="192" cy="72" r="12" fill="rgb(0,163,253)" opacity="0.35"/>
<circle cx="192" cy="72" r="9" fill="rgb(0,163,253)"/>
<circle cx="216" cy="72" r="12" fill="rgb(13,138,255)" opacity="0.35"/>
<circle cx="216" cy="72" r="9" fill="rgb(13,138,255)"/>
<circle cx="240" cy="72" r="12" fill="rgb(9,146,255)" opacity="0.35"/>
<circle cx="240" cy="72" r="9" fill="rgb(9,146,255)"/>
<circle cx="264" cy="72" r="12" fill="rgb(0,171,213)" opacity="0.35"/>
<circle cx="264" cy="72" r="9" fill="rgb(0,171,213)"/>
<circle cx="288" cy="72" r="12" fill="rgb(0,198,109)" opacity="0.35"/>
<circle cx="288" cy="72" r="9" fill="rgb(0,198,109)"/>
<circle cx="312" cy="72" r="12" fill="rgb(157,208,29)" opacity="0.35"/>
<circle cx="312" cy="72" r="9" fill="rgb(157,208,29)"/>
<circle cx="336" cy="72" r="12" fill="rgb(255,200,0)" opacity="0.35"/>
<circle cx="336" cy="72" r="9" fill="rgb(255,200,0)"/>
<circle cx="360" cy="72" r="12" fill="rgb(255,166,0)" opacity="0.35"/>
<circle cx="360" cy="72" r="9" fill="rgb(255,166,0)"/>
<circle cx="384" cy="72" r="12" fill="rgb(255,164,0)" opacity="0.35"/>
<circle cx="384" cy="72" r="9" fill="rgb(255,164,0)"/>
<circle cx="24" cy="96" r="12" fill="rgb(255,161,0)" opacity="0.35"/>
<circle cx="24" cy="96" r="9" fill="rgb(255,161,0)"/>
<circle cx="48" cy="96" r="12" fill="rgb(255,108,0)" opacity="0.35"/>
<circle cx="48" cy="96" r="9" fill="rgb(255,108,0)"/>
<circle cx="72" cy="96" r="12" fill="rgb(255,86,0)" opacity="0.35"/>
<circle cx="72" cy="96" r="9" fill="rgb(255,86,0)"/>
<circle cx="96" cy="96" r="12" fill="rgb(255,109,0)" opacity="0.35"/>
<circle cx="96" cy="96" r="9" fill="rgb(255,109,0)"/>
<circle cx="120" cy="96" r="12" fill="rgb(255,162,0)" opacity="0.35"/>
<circle cx="120" cy="96" r="9" fill="rgb(255,162,0)"/>
<circle cx="144" cy="96" r="12" fill="rgb(255,226,0)" opacity="0.35"/>
<circle cx="144" cy="96" r="9" fill="rgb(255,226,0)"/>
<circle cx="168" cy="96" r="12" fill="rgb(63,204,60)" opacity="0.35"/>
<circle cx="168" cy="96" r="9" fill="rgb(63,204,60)"/>
<circle cx="192" cy="96" r="12" fill="rgb(0,193,145)" opacity="0.35"/>
<circle cx="192" cy="96" r="9" fill="rgb(0,193,145)"/>
<circle cx="216" cy="96" r="12" fill="rgb(0,180,186)" opacity="0.35"/>
<circle cx="216" cy="96" r="9" fill="rgb(0,180,186)"/>
<circle cx="240" cy="96" r="12" fill="rgb(0,188,178)" opacity="0.35"/>
<circle cx="240" cy="96" r="9" fill="rgb(0,188,178)"/>
<circle cx="264" cy="96" r="12" fill="rgb(0,198,105)" opacity="0.35"/>
<circle cx="264" cy="96" r="9" fill="rgb(0,198,105)"/>
<circle cx="288" cy="96" r="12" fill="rgb(142,208,34)" opacity="0.35"/>
<circle cx="288" cy="96" r="9" fill="rgb(142,208,34)"/>
<circle cx="312" cy="96" r="12" fill="rgb(255,196,0)" opacity="0.35"/>
<circle cx="312" cy="96" r="9" fill="rgb(255,196,0)"/>
<circle cx="336" cy="96" r="12" fill="rgb(255,138,0)" opacity="0.35"/>
<circle cx="336" cy="96" r="9" fill="rgb(255,138,0)"/>
<circle cx="360" cy="96" r="12" fill="rgb(255,93,0)" opacity="0.35"/>
<circle cx="360" cy="96" r="9" fill="rgb(255,93,0)"/>
<circle cx="384" cy="96" r="12" fill="rgb(255,90,0)" opacity="0.35"/>
<circle cx="384" cy="96" r="9" fill="rgb(255,90,0)"/>
<circle cx="24" cy="120" r="12" fill="rgb(255,113,0)" opacity="0.35"/>
<circle cx="24" cy="120" r="9" fill="rgb(255,113,0)"/>
<circle cx="48" cy="120" r="12" fill="rgb(255,51,0)" opacity="0.35"/>
<circle cx="48" cy="120" r="9" fill="rgb(255,51,0)"/>
<circle cx="72" cy="120" r="12" fill="rgb(255,29,0)" opacity="0.35"/>
<circle cx="72" cy="120" r="9" fill="rgb(255,29,0)"/>
<circle cx="96" cy="120" r="12" fill="rgb(255,52,0)" opacity="0.35"/>
<circle cx="96" cy="120" r="9" fill="rgb(255,52,0)"/>
<circle cx="120" cy="120" r="12" fill="rgb(255,114,0)" opacity="0.35"/>
<circle cx="120" cy="120" r="9" fill="rgb(255,114,0)"/>
<circle cx="144" cy="120" r="12" fill="rgb(255,184,0)" opacity="0.35"/>
<circle cx="144" cy="120" r="9" fill="rgb(255,184,0)"/>
<circle cx="168" cy="120" r="12" fill="rgb(179,210,22)" opacity="0.35"/>
<circle cx="168" cy="120" r="9" fill="rgb(179,210,22)"/>
<circle cx="192" cy="120" r="12" fill="rgb(41,202,78)" opacity="0.35"/>
<circle cx="192" cy="120" r="9" fill="rgb(41,202,78)"/>
<circle cx="216" cy="120" r="12" fill="rgb(0,197,114)" opacity="0.35"/>
<circle cx="216" cy="120" r="9" fill="rgb(0,197,114)"/>
<circle cx="240" cy="120" r="12" fill="rgb(0,199,99)" opacity="0.35"/>
<circle cx="240" cy="120" r="9" fill="rgb(0,199,99)"/>
<circle cx="264" cy="120" r="12" fill="rgb(92,205,51)" opacity="0.35"/>
<circle cx="264" cy="120" r="9" fill="rgb(92,205,51)"/>
<circle cx="288" cy="120" r="12" fill="rgb(255,221,0)" opacity="0.35"/>
<circle cx="288" cy="120" r="9" fill="rgb(255,221,0)"/>
<circle cx="312" cy="120" r="12" fill="rgb(255,153,0)" opacity="0.35"/>
<circle cx="312" cy="120" r="9" fill="rgb(255,153,0)"/>
<circle cx="336" cy="120" r="12" fill="rgb(255,82,0)" opacity="0.35"/>
<circle cx="336" cy="120" r="9" fill="rgb(255,82,0)"/>
<circle cx="360" cy="120" r="12" fill="rgb(255,36,0)" opacity="0.35"/>
<circle cx="360" cy="120" r="9" fill="rgb(255,36,0)"/>
<circle cx="384" cy="120" r="12" fill="rgb(255,34,0)" opacity="0.35"/>
<circle cx="384" cy="120" r="9" fill="rgb(255,34,0)"/>
<circle cx="24" cy="144" r="12" fill="rgb(255,97,0)" opacity="0.35"/>
<circle cx="24" cy="144" r="9" fill="rgb(255,97,0)"/>
<circle cx="48" cy="144" r="12" fill="rgb(255,36,0)" opacity="0.35"/>
<circle cx="48" cy="144" r="9" fill="rgb(255,36,0)"/>
<circle cx="72" cy="144" r="12" fill="rgb(255,14,0)" opacity="0.35"/>
<circle cx="72" cy="144" r="9" fill="rgb(255,14,0)"/>
<circle cx="96" cy="144" r="12" fill="rgb(255,36,0)" opacity="0.35"/>
<circle cx="96" cy="144" r="9" fill="rgb(255,36,0)"/>
<circle cx="120" cy="144" r="12" fill="rgb(255,98,0)" opacity="0.35"/>
<circle cx="120" cy="144" r="9" fill="rgb(255,98,0)"/>
<circle cx="144" cy="144" r="12" fill="rgb(255,172,0)" opacity="0.35"/>
<circle cx="144" cy="144" r="9" fill="rgb(255,172,0)"/>
<circle cx="168" cy="144" r="12" fill="rgb(221,221,11)" opacity="0.35"/>
<circle cx="168" cy="144" r="9" fill="rgb(221,221,11)"/>
<circle cx="192" cy="144" r="12" fill="rgb(67,204,59)" opacity="0.35"/>
<circle cx="192" cy="144" r="9" fill="rgb(67,204,59)"/>
<circle cx="216" cy="144" r="12" fill="rgb(3,200,92)" opacity="0.35"/>
<circle cx="216" cy="144" r="9" fill="rgb(3,200,92)"/>
<circle cx="240" cy="144" r="12" fill="rgb(24,201,84)" opacity="0.35"/>
<circle cx="240" cy="144" r="9" fill="rgb(24,201,84)"/>
<circle cx="264" cy="144" r="12" fill="rgb(125,207,40)" opacity="0.35"/>
<circle cx="264" cy="144" r="9" fill="rgb(125,207,40)"/>
<circle cx="288" cy="144" r="12" fill="rgb(255,209,0)" opacity="0.35"/>
<circle cx="288" cy="144" r="9" fill="rgb(255,209,0)"/>
<circle cx="312" cy="144" r="12" fill="rgb(255,142,0)" opacity="0.35"/>
<circle cx="312" cy="144" r="9" fill="rgb(255,142,0)"/>
<circle cx="336" cy="144" r="12" fill="rgb(255,66,0)" opacity="0.35"/>
<circle cx="336" cy="144" r="9" fill="rgb(255,66,0)"/>
<circle cx="360" cy="144" r="12" fill="rgb(255,21,0)" opacity="0.35"/>
<circle cx="360" cy="144" r="9" fill="rgb(255,21,0)"/>
<circle cx="384" cy="144" r="12" fill="rgb(255,18,0)" opacity="0.35"/>
<circle cx="384" cy="144" r="9" fill="rgb(255,18,0)"/>
<circle cx="24" cy="168" r="12" fill="rgb(255,126,0)" opacity="0.35"/>
<circle cx="24" cy="168" r="9" fill="rgb(255,126,0)"/>
<circle cx="48" cy="168" r="12" fill="rgb(255,64,0)" opacity="0.35"/>
<circle cx="48" cy="168" r="9" fill="rgb(255,64,0)"/>
<circle cx="72" cy="168" r="12" fill="rgb(255,42,0)" opacity="0.35"/>
<circle cx="72" cy="168" r="9" fill="rgb(255,42,0)"/>
<circle cx="96" cy="168" r="12" fill="rgb(255,65,0)" opacity="0.35"/>
<circle cx="96" cy="168" r="9" fill="rgb(255,65,0)"/>
<circle cx="120" cy="168" r="12" fill="rgb(255,127,0)" opacity="0.35"/>
<circle cx="120" cy="168" r="9" fill="rgb(255,127,0)"/>
<circle cx="144" cy="168" r="12" fill="rgb(255,193,0)" opacity="0.35"/>
<circle cx="144" cy="168" r="9" fill="rgb(255,193,0)"/>
<circle cx="168" cy="168" r="12" fill="rgb(151,208,31)" opacity="0.35"/>
<circle cx="168" cy="168" r="9" fill="rgb(151,208,31)"/>
<circle cx="192" cy="168" r="12" fill="rgb(13,201,88)" opacity="0.35"/>
<circle cx="192" cy="168" r="9" fill="rgb(13,201,88)"/>
<circle cx="216" cy="168" r="12" fill="rgb(0,195,132)" opacity="0.35"/>
<circle cx="216" cy="168" r="9" fill="rgb(0,195,132)"/>
<circle cx="240" cy="168" r="12" fill="rgb(0,197,118)" opacity="0.35"/>
<circle cx="240" cy="168" r="9" fill="rgb(0,197,118)"/>
<circle cx="264" cy="168" r="12" fill="rgb(65,204,59)" opacity="0.35"/>
<circle cx="264" cy="168" r="9" fill="rgb(65,204,59)"/>
<circle cx="288" cy="168" r="12" fill="rgb(242,224,4)" opacity="0.35"/>
<circle cx="288" cy="168" r="9" fill="rgb(242,224,4)"/>
<circle cx="312" cy="168" r="12" fill="rgb(255,163,0)" opacity="0.35"/>
<circle cx="312" cy="168" r="9" fill="rgb(255,163,0)"/>
<circle cx="336" cy="168" r="12" fill="rgb(255,95,0)" opacity="0.35"/>
<circle cx="336" cy="168" r="9" fill="rgb(255,95,0)"/>
<circle cx="360" cy="168" r="12" fill="rgb(255,50,0)" opacity="0.35"/>
<circle cx="360" cy="168" r="9" fill="rgb(255,50,0)"/>
<circle cx="384" cy="168" r="12" fill="rgb(255,47,0)" opacity="0.35"/>
<circle cx="384" cy="168" r="9" fill="rgb(255,47,0)"/>
<circle cx="24" cy="192" r="12" fill="rgb(255,178,0)" opacity="0.35"/>
<circle cx="24" cy="192" r="9" fill="rgb(255,178,0)"/>
<circle cx="48" cy="192" r="12" fill="rgb(255,131,0)" opacity="0.35"/>
<circle cx="48" cy="192" r="9" fill="rgb(255,131,0)"/>
<circle cx="72" cy="192" r="12" fill="rgb(255,109,0)" opacity="0.35"/>
<circle cx="72" cy="192" r="9" fill="rgb(255,109,0)"/>
<circle cx="96" cy="192" r="12" fill="rgb(255,132,0)" opacity="0.35"/>
<circle cx="96" cy="192" r="9" fill="rgb(255,132,0)"/>
<circle cx="120" cy="192" r="12" fill="rgb(255,179,0)" opacity="0.35"/>
<circle cx="120" cy="192" r="9" fill="rgb(255,179,0)"/>
<circle cx="144" cy="192" r="12" fill="rgb(197,211,16)" opacity="0.35"/>
<circle cx="144" cy="192" r="9" fill="rgb(197,211,16)"/>
<circle cx="168" cy="192" r="12" fill="rgb(21,201,85)" opacity="0.35"/>
<circle cx="168" cy="192" r="9" fill="rgb(21,201,85)"/>
<circle cx="192" cy="192" r="12" fill="rgb(0,188,177)" opacity="0.35"/>
<circle cx="192" cy="192" r="9" fill="rgb(0,188,177)"/>
<circle cx="216" cy="192" r="12" fill="rgb(0,170,216)" opacity="0.35"/>
<circle cx="216" cy="192" r="9" fill="rgb(0,170,216)"/>
<circle cx="240" cy="192" r="12" fill="rgb(0,173,202)" opacity="0.35"/>
<circle cx="240" cy="192" r="9" fill="rgb(0,173,202)"/>
<circle cx="264" cy="192" r="12" fill="rgb(0,194,138)" opacity="0.35"/>
<circle cx="264" cy="192" r="9" fill="rgb(0,194,138)"/>
<circle cx="288" cy="192" r="12" fill="rgb(95,205,50)" opacity="0.35"/>
<circle cx="288" cy="192" r="9" fill="rgb(95,205,50)"/>
<circle cx="312" cy="192" r="12" fill="rgb(255,213,0)" opacity="0.35"/>
<circle cx="312" cy="192" r="9" fill="rgb(255,213,0)"/>
<circle cx="336" cy="192" r="12" fill="rgb(255,155,0)" opacity="0.35"/>
<circle cx="336" cy="192" r="9" fill="rgb(255,155,0)"/>
<circle cx="360" cy="192" r="12" fill="rgb(255,116,0)" opacity="0.35"/>
<circle cx="360" cy="192" r="9" fill="rgb(255,116,0)"/>
<circle cx="384" cy="192" r="12" fill="rgb(255,113,0)" opacity="0.35"/>
<circle cx="384" cy="192" r="9" fill="rgb(255,113,0)"/>
<circle cx="24" cy="216" r="12" fill="rgb(196,211,16)" opacity="0.35"/>
<circle cx="24" cy="216" r="9" fill="rgb(196,211,16)"/>
<circle cx="48" cy="216" r="12" fill="rgb(255,198,0)" opacity="0.35"/>
<circle cx="48" cy="216" r="9" fill="rgb(255,198,0)"/>
<circle cx="72" cy="216" r="12" fill="rgb(255,181,0)" opacity="0.35"/>
<circle cx="72" cy="216" r="9" fill="rgb(255,181,0)"/>
<circle cx="96" cy="216" r="12" fill="rgb(255,198,0)" opacity="0.35"/>
<circle cx="96" cy="216" r="9" fill="rgb(255,198,0)"/>
<circle cx="120" cy="216" r="12" fill="rgb(194,210,17)" opacity="0.35"/>
<circle cx="120" cy="216" r="9" fill="rgb(194,210,17)"/>
<circle cx="144" cy="216" r="12" fill="rgb(24,201,84)" opacity="0.35"/>
<circle cx="144" cy="216" r="9" fill="rgb(24,201,84)"/>
<circle cx="168" cy="216" r="12" fill="rgb(0,175,193)" opacity="0.35"/>
<circle cx="168" cy="216" r="9" fill="rgb(0,175,193)"/>
<circle cx="192" cy="216" r="12" fill="rgb(10,143,255)" opacity="0.35"/>
<circle cx="192" cy="216" r="9" fill="rgb(10,143,255)"/>
<circle cx="216" cy="216" r="12" fill="rgb(24,116,255)" opacity="0.35"/>
<circle cx="216" cy="216" r="9" fill="rgb(24,116,255)"/>
<circle cx="240" cy="216" r="12" fill="rgb(20,124,255)" opacity="0.35"/>
<circle cx="240" cy="216" r="9" fill="rgb(20,124,255)"/>
<circle cx="264" cy="216" r="12" fill="rgb(0,163,252)" opacity="0.35"/>
<circle cx="264" cy="216" r="9" fill="rgb(0,163,252)"/>
<circle cx="288" cy="216" r="12" fill="rgb(0,192,147)" opacity="0.35"/>
<circle cx="288" cy="216" r="9" fill="rgb(0,192,147)"/>
<circle cx="312" cy="216" r="12" fill="rgb(100,206,48)" opacity="0.35"/>
<circle cx="312" cy="216" r="9" fill="rgb(100,206,48)"/>
<circle cx="336" cy="216" r="12" fill="rgb(255,220,0)" opacity="0.35"/>
<circle cx="336" cy="216" r="9" fill="rgb(255,220,0)"/>
<circle cx="360" cy="216" r="12" fill="rgb(255,186,0)" opacity="0.35"/>
<circle cx="360" cy="216" r="9" fill="rgb(255,186,0)"/>
<circle cx="384" cy="216" r="12" fill="rgb(255,184,0)" opacity="0.35"/>
<circle cx="384" cy="216" r="9" fill="rgb(255,184,0)"/>
<circle cx="24" cy="240" r="12" fill="rgb(23,201,84)" opacity="0.35"/>
<circle cx="24" cy="240" r="9" fill="rgb(23,201,84)"/>
<circle cx="48" cy="240" r="12" fill="rgb(143,208,34)" opacity="0.35"/>
<circle cx="48" cy="240" r="9" fill="rgb(143,208,34)"/>
<circle cx="72" cy="240" r="12" fill="rgb(188,210,19)" opacity="0.35"/>
<circle cx="72" cy="240" r="9" fill="rgb(188,210,19)"/>
<circle cx="96" cy="240" r="12" fill="rgb(141,208,34)" opacity="0.35"/>
<circle cx="96" cy="240" r="9" fill="rgb(141,208,34)"/>
<circle cx="120" cy="240" r="12" fill="rgb(20,201,85)" opacity="0.35"/>
<circle cx="120" cy="240" r="9" fill="rgb(20,201,85)"/>
<circle cx="144" cy="240" r="12" fill="rgb(0,175,191)" opacity="0.35"/>
<circle cx="144" cy="240" r="9" fill="rgb(0,175,191)"/>
<circle cx="168" cy="240" r="12" fill="rgb(17,130,255)" opacity="0.35"/>
<circle cx="168" cy="240" r="9" fill="rgb(17,130,255)"/>
<circle cx="192" cy="240" r="12" fill="rgb(45,76,254)" opacity="0.35"/>
<circle cx="192" cy="240" r="9" fill="rgb(45,76,254)"/>
<circle cx="216" cy="240" r="12" fill="rgb(93,62,253)" opacity="0.35"/>
<circle cx="216" cy="240" r="9" fill="rgb(93,62,253)"/>
<circle cx="240" cy="240" r="12" fill="rgb(78,69,253)" opacity="0.35"/>
<circle cx="240" cy="240" r="9" fill="rgb(78,69,253)"/>
<circle cx="264" cy="240" r="12" fill="rgb(34,97,254)" opacity="0.35"/>
<circle cx="264" cy="240" r="9" fill="rgb(34,97,254)"/>
<circle cx="288" cy="240" r="12" fill="rgb(2,160,255)" opacity="0.35"/>
<circle cx="288" cy="240" r="9" fill="rgb(2,160,255)"/>
<circle cx="312" cy="240" r="12" fill="rgb(0,193,143)" opacity="0.35"/>
<circle cx="312" cy="240" r="9" fill="rgb(0,193,143)"/>
<circle cx="336" cy="240" r="12" fill="rgb(80,204,55)" opacity="0.35"/>
<circle cx="336" cy="240" r="9" fill="rgb(80,204,55)"/>
<circle cx="360" cy="240" r="12" fill="rgb(174,209,23)" opacity="0.35"/>
<circle cx="360" cy="240" r="9" fill="rgb(174,209,23)"/>
<circle cx="384" cy="240" r="12" fill="rgb(179,210,22)" opacity="0.35"/>
<circle cx="384" cy="240" r="9" fill="rgb(179,210,22)"/>
<circle cx="24" cy="264" r="12" fill="rgb(0,189,169)" opacity="0.35"/>
<circle cx="24" cy="264" r="9" fill="rgb(0,189,169)"/>
<circle cx="48" cy="264" r="12" fill="rgb(14,201,88)" opacity="0.35"/>
<circle cx="48" cy="264" r="9" fill="rgb(14,201,88)"/>
<circle cx="72" cy="264" r="12" fill="rgb(60,203,71)" opacity="0.35"/>
<circle cx="72" cy="264" r="9" fill="rgb(60,203,71)"/>
<circle cx="96" cy="264" r="12" fill="rgb(12,201,88)" opacity="0.35"/>
<circle cx="96" cy="264" r="9" fill="rgb(12,201,88)"/>
<circle cx="120" cy="264" r="12" fill="rgb(0,189,171)" opacity="0.35"/>
<circle cx="120" cy="264" r="9" fill="rgb(0,189,171)"/>
<circle cx="144" cy="264" r="12" fill="rgb(8,148,255)" opacity="0.35"/>
<circle cx="144" cy="264" r="9" fill="rgb(8,148,255)"/>
<circle cx="168" cy="264" r="12" fill="rgb(43,78,254)" opacity="0.35"/>
<circle cx="168" cy="264" r="9" fill="rgb(43,78,254)"/>
<circle cx="192" cy="264" r="12" fill="rgb(136,42,252)" opacity="0.35"/>
<circle cx="192" cy="264" r="9" fill="rgb(136,42,252)"/>
<circle cx="216" cy="264" r="12" fill="rgb(183,20,250)" opacity="0.35"/>
<circle cx="216" cy="264" r="9" fill="rgb(183,20,250)"/>
<circle cx="240" cy="264" r="12" fill="rgb(169,26,251)" opacity="0.35"/>
<circle cx="240" cy="264" r="9" fill="rgb(169,26,251)"/>
<circle cx="264" cy="264" r="12" fill="rgb(98,60,253)" opacity="0.35"/>
<circle cx="264" cy="264" r="9" fill="rgb(98,60,253)"/>
<circle cx="288" cy="264" r="12" fill="rgb(28,109,254)" opacity="0.35"/>
<circle cx="288" cy="264" r="9" fill="rgb(28,109,254)"/>
<circle cx="312" cy="264" r="12" fill="rgb(0,169,226)" opacity="0.35"/>
<circle cx="312" cy="264" r="9" fill="rgb(0,169,226)"/>
<circle cx="336" cy="264" r="12" fill="rgb(0,195,127)" opacity="0.35"/>
<circle cx="336" cy="264" r="9" fill="rgb(0,195,127)"/>
<circle cx="360" cy="264" r="12" fill="rgb(45,202,76)" opacity="0.35"/>
<circle cx="360" cy="264" r="9" fill="rgb(45,202,76)"/>
<circle cx="384" cy="264" r="12" fill="rgb(50,203,75)" opacity="0.35"/>
<circle cx="384" cy="264" r="9" fill="rgb(50,203,75)"/>
<circle cx="24" cy="288" r="12" fill="rgb(0,174,200)" opacity="0.35"/>
<circle cx="24" cy="288" r="9" fill="rgb(0,174,200)"/>
<circle cx="48" cy="288" r="12" fill="rgb(0,196,123)" opacity="0.35"/>
<circle cx="48" cy="288" r="9" fill="rgb(0,196,123)"/>
<circle cx="72" cy="288" r="12" fill="rgb(1,200,93)" opacity="0.35"/>
<circle cx="72" cy="288" r="9" fill="rgb(1,200,93)"/>
<circle cx="96" cy="288" r="12" fill="rgb(0,196,125)" opacity="0.35"/>
<circle cx="96" cy="288" r="9" fill="rgb(0,196,125)"/>
<circle cx="120" cy="288" r="12" fill="rgb(0,173,202)" opacity="0.35"/>
<circle cx="120" cy="288" r="9" fill="rgb(0,173,202)"/>
<circle cx="144" cy="288" r="12" fill="rgb(19,125,255)" opacity="0.35"/>
<circle cx="144" cy="288" r="9" fill="rgb(19,125,255)"/>
<circle cx="168" cy="288" r="12" fill="rgb(78,69,253)" opacity="0.35"/>
<circle cx="168" cy="288" r="9" fill="rgb(78,69,253)"/>
<circle cx="192" cy="288" r="12" fill="rgb(175,24,250)" opacity="0.35"/>
<circle cx="192" cy="288" r="9" fill="rgb(175,24,250)"/>
<circle cx="216" cy="288" r="12" fill="rgb(222,1,249)" opacity="0.35"/>
<circle cx="216" cy="288" r="9" fill="rgb(222,1,249)"/>
<circle cx="240" cy="288" r="12" fill="rgb(208,8,250)" opacity="0.35"/>
<circle cx="240" cy="288" r="9" fill="rgb(208,8,250)"/>
<circle cx="264" cy="288" r="12" fill="rgb(136,42,252)" opacity="0.35"/>
<circle cx="264" cy="288" r="9" fill="rgb(136,42,252)"/>
<circle cx="288" cy="288" r="12" fill="rgb(39,87,254)" opacity="0.35"/>
<circle cx="288" cy="288" r="9" fill="rgb(39,87,254)"/>
<circle cx="312" cy="288" r="12" fill="rgb(3,157,255)" opacity="0.35"/>
<circle cx="312" cy="288" r="9" fill="rgb(3,157,255)"/>
<circle cx="336" cy="288" r="12" fill="rgb(0,190,166)" opacity="0.35"/>
<circle cx="336" cy="288" r="9" fill="rgb(0,190,166)"/>
<circle cx="360" cy="288" r="12" fill="rgb(0,199,102)" opacity="0.35"/>
<circle cx="360" cy="288" r="9" fill="rgb(0,199,102)"/>
<circle cx="384" cy="288" r="12" fill="rgb(0,199,99)" opacity="0.35"/>
<circle cx="384" cy="288" r="9" fill="rgb(0,199,99)"/>
<circle cx="24" cy="312" r="12" fill="rgb(0,187,186)" opacity="0.35"/>
<circle cx="24" cy="312" r="9" fill="rgb(0,187,186)"/>
<circle cx="48" cy="312" r="12" fill="rgb(0,199,100)" opacity="0.35"/>
<circle cx="48" cy="312" r="9" fill="rgb(0,199,100)"/>
<circle cx="72" cy="312" r="12" fill="rgb(35,202,79)" opacity="0.35"/>
<circle cx="72" cy="312" r="9" fill="rgb(35,202,79)"/>
<circle cx="96" cy="312" r="12" fill="rgb(0,199,101)" opacity="0.35"/>
<circle cx="96" cy="312" r="9" fill="rgb(0,199,101)"/>
<circle cx="120" cy="312" r="12" fill="rgb(0,186,187)" opacity="0.35"/>
<circle cx="120" cy="312" r="9" fill="rgb(0,186,187)"/>
<circle cx="144" cy="312" r="12" fill="rgb(13,139,255)" opacity="0.35"/>
<circle cx="144" cy="312" r="9" fill="rgb(13,139,255)"/>
<circle cx="168" cy="312" r="12" fill="rgb(48,70,254)" opacity="0.35"/>
<circle cx="168" cy="312" r="9" fill="rgb(48,70,254)"/>
<circle cx="192" cy="312" r="12" fill="rgb(153,34,251)" opacity="0.35"/>
<circle cx="192" cy="312" r="9" fill="rgb(153,34,251)"/>
<circle cx="216" cy="312" r="12" fill="rgb(200,12,250)" opacity="0.35"/>
<circle cx="216" cy="312" r="9" fill="rgb(200,12,250)"/>
<circle cx="240" cy="312" r="12" fill="rgb(186,19,250)" opacity="0.35"/>
<circle cx="240" cy="312" r="9" fill="rgb(186,19,250)"/>
<circle cx="264" cy="312" r="12" fill="rgb(114,52,252)" opacity="0.35"/>
<circle cx="264" cy="312" r="9" fill="rgb(114,52,252)"/>
<circle cx="288" cy="312" r="12" fill="rgb(32,100,254)" opacity="0.35"/>
<circle cx="288" cy="312" r="9" fill="rgb(32,100,254)"/>
<circle cx="312" cy="312" r="12" fill="rgb(0,166,243)" opacity="0.35"/>
<circle cx="312" cy="312" r="9" fill="rgb(0,166,243)"/>
<circle cx="336" cy="312" r="12" fill="rgb(0,193,143)" opacity="0.35"/>
<circle cx="336" cy="312" r="9" fill="rgb(0,193,143)"/>
<circle cx="360" cy="312" r="12" fill="rgb(21,201,85)" opacity="0.35"/>
<circle cx="360" cy="312" r="9" fill="rgb(21,201,85)"/>
<circle cx="384" cy="312" r="12" fill="rgb(26,201,84)" opacity="0.35"/>
<circle cx="384" cy="312" r="9" fill="rgb(26,201,84)"/>
<circle cx="24" cy="336" r="12" fill="rgb(0,198,106)" opacity="0.35"/>
<circle cx="24" cy="336" r="9" fill="rgb(0,198,106)"/>
<circle cx="48" cy="336" r="12" fill="rgb(101,206,48)" opacity="0.35"/>
<circle cx="48" cy="336" r="9" fill="rgb(101,206,48)"/>
<circle cx="72" cy="336" r="12" fill="rgb(146,208,33)" opacity="0.35"/>
<circle cx="72" cy="336" r="9" fill="rgb(146,208,33)"/>
<circle cx="96" cy="336" r="12" fill="rgb(99,205,48)" opacity="0.35"/>
<circle cx="96" cy="336" r="9" fill="rgb(99,205,48)"/>
<circle cx="120" cy="336" r="12" fill="rgb(0,198,108)" opacity="0.35"/>
<circle cx="120" cy="336" r="9" fill="rgb(0,198,108)"/>
<circle cx="144" cy="336" r="12" fill="rgb(0,170,219)" opacity="0.35"/>
<circle cx="144" cy="336" r="9" fill="rgb(0,170,219)"/>
<circle cx="168" cy="336" r="12" fill="rgb(25,114,254)" opacity="0.35"/>
<circle cx="168" cy="336" r="9" fill="rgb(25,114,254)"/>
<circle cx="192" cy="336" r="12" fill="rgb(66,64,254)" opacity="0.35"/>
<circle cx="192" cy="336" r="9" fill="rgb(66,64,254)"/>
<circle cx="216" cy="336" r="12" fill="rgb(120,49,252)" opacity="0.35"/>
<circle cx="216" cy="336" r="9" fill="rgb(120,49,252)"/>
<circle cx="240" cy="336" r="12" fill="rgb(107,56,253)" opacity="0.35"/>
<circle cx="240" cy="336" r="9" fill="rgb(107,56,253)"/>
<circle cx="264" cy="336" r="12" fill="rgb(42,81,254)" opacity="0.35"/>
<circle cx="264" cy="336" r="9" fill="rgb(42,81,254)"/>
<circle cx="288" cy="336" r="12" fill="rgb(10,144,255)" opacity="0.35"/>
<circle cx="288" cy="336" r="9" fill="rgb(10,144,255)"/>
<circle cx="312" cy="336" r="12" fill="rgb(0,189,171)" opacity="0.35"/>
<circle cx="312" cy="336" r="9" fill="rgb(0,189,171)"/>
<circle cx="336" cy="336" r="12" fill="rgb(45,202,76)" opacity="0.35"/>
<circle cx="336" cy="336" r="9" fill="rgb(45,202,76)"/>
<circle cx="360" cy="336" r="12" fill="rgb(132,207,37)" opacity="0.35"/>
<circle cx="360" cy="336" r="9" fill="rgb(132,207,37)"/>
<circle cx="384" cy="336" r="12" fill="rgb(137,207,36)" opacity="0.35"/>
<circle cx="384" cy="336" r="9" fill="rgb(137,207,36)"/>
<circle cx="24" cy="360" r="12" fill="rgb(147,208,32)" opacity="0.35"/>
<circle cx="24" cy="360" r="9" fill="rgb(147,208,32)"/>
<circle cx="48" cy="360" r="12" fill="rgb(255,216,0)" opacity="0.35"/>
<circle cx="48" cy="360" r="9" fill="rgb(255,216,0)"/>
<circle cx="72" cy="360" r="12" fill="rgb(255,199,0)" opacity="0.35"/>
<circle cx="72" cy="360" r="9" fill="rgb(255,199,0)"/>
<circle cx="96" cy="360" r="12" fill="rgb(255,216,0)" opacity="0.35"/>
<circle cx="96" cy="360" r="9" fill="rgb(255,216,0)"/>
<circle cx="120" cy="360" r="12" fill="rgb(144,208,33)" opacity="0.35"/>
<circle cx="120" cy="360" r="9" fill="rgb(144,208,33)"/>
<circle cx="144" cy="360" r="12" fill="rgb(0,197,111)" opacity="0.35"/>
<circle cx="144" cy="360" r="9" fill="rgb(0,197,111)"/>
<circle cx="168" cy="360" r="12" fill="rgb(0,169,227)" opacity="0.35"/>
<circle cx="168" cy="360" r="9" fill="rgb(0,169,227)"/>
<circle cx="192" cy="360" r="12" fill="rgb(20,124,255)" opacity="0.35"/>
<circle cx="192" cy="360" r="9" fill="rgb(20,124,255)"/>
<circle cx="216" cy="360" r="12" fill="rgb(33,98,254)" opacity="0.35"/>
<circle cx="216" cy="360" r="9" fill="rgb(33,98,254)"/>
<circle cx="240" cy="360" r="12" fill="rgb(29,106,254)" opacity="0.35"/>
<circle cx="240" cy="360" r="9" fill="rgb(29,106,254)"/>
<circle cx="264" cy="360" r="12" fill="rgb(9,146,255)" opacity="0.35"/>
<circle cx="264" cy="360" r="9" fill="rgb(9,146,255)"/>
<circle cx="288" cy="360" r="12" fill="rgb(0,188,181)" opacity="0.35"/>
<circle cx="288" cy="360" r="9" fill="rgb(0,188,181)"/>
<circle cx="312" cy="360" r="12" fill="rgb(58,203,71)" opacity="0.35"/>
<circle cx="312" cy="360" r="9" fill="rgb(58,203,71)"/>
<circle cx="336" cy="360" r="12" fill="rgb(219,220,11)" opacity="0.35"/>
<circle cx="336" cy="360" r="9" fill="rgb(219,220,11)"/>
<circle cx="360" cy="360" r="12" fill="rgb(255,204,0)" opacity="0.35"/>
<circle cx="360" cy="360" r="9" fill="rgb(255,204,0)"/>
<circle cx="384" cy="360" r="12" fill="rgb(255,202,0)" opacity="0.35"/>
<circle cx="384" cy="360" r="9" fill="rgb(255,202,0)"/>
<circle cx="24" cy="384" r="12" fill="rgb(255,194,0)" opacity="0.35"/>
<circle cx="24" cy="384" r="9" fill="rgb(255,194,0)"/>
<circle cx="48" cy="384" r="12" fill="rgb(255,148,0)" opacity="0.35"/>
<circle cx="48" cy="384" r="9" fill="rgb(255,148,0)"/>
<circle cx="72" cy="384" r="12" fill="rgb(255,131,0)" opacity="0.35"/>
<circle cx="72" cy="384" r="9" fill="rgb(255,131,0)"/>
<circle cx="96" cy="384" r="12" fill="rgb(255,149,0)" opacity="0.35"/>
<circle cx="96" cy="384" r="9" fill="rgb(255,149,0)"/>
<circle cx="120" cy="384" r="12" fill="rgb(255,195,0)" opacity="0.35"/>
<circle cx="120" cy="384" r="9" fill="rgb(255,195,0)"/>
<circle cx="144" cy="384" r="12" fill="rgb(152,208,31)" opacity="0.35"/>
<circle cx="144" cy="384" r="9" fill="rgb(152,208,31)"/>
<circle cx="168" cy="384" r="12" fill="rgb(0,198,110)" opacity="0.35"/>
<circle cx="168" cy="384" r="9" fill="rgb(0,198,110)"/>
<circle cx="192" cy="384" r="12" fill="rgb(0,174,199)" opacity="0.35"/>
<circle cx="192" cy="384" r="9" fill="rgb(0,174,199)"/>
<circle cx="216" cy="384" r="12" fill="rgb(0,165,247)" opacity="0.35"/>
<circle cx="216" cy="384" r="9" fill="rgb(0,165,247)"/>
<circle cx="240" cy="384" r="12" fill="rgb(0,167,233)" opacity="0.35"/>
<circle cx="240" cy="384" r="9" fill="rgb(0,167,233)"/>
<circle cx="264" cy="384" r="12" fill="rgb(0,189,168)" opacity="0.35"/>
<circle cx="264" cy="384" r="9" fill="rgb(0,189,168)"/>
<circle cx="288" cy="384" r="12" fill="rgb(57,203,72)" opacity="0.35"/>
<circle cx="288" cy="384" r="9" fill="rgb(57,203,72)"/>
<circle cx="312" cy="384" r="12" fill="rgb(246,225,3)" opacity="0.35"/>
<circle cx="312" cy="384" r="9" fill="rgb(246,225,3)"/>
<circle cx="336" cy="384" r="12" fill="rgb(255,171,0)" opacity="0.35"/>
<circle cx="336" cy="384" r="9" fill="rgb(255,171,0)"/>
<circle cx="360" cy="384" r="12" fill="rgb(255,137,0)" opacity="0.35"/>
<circle cx="360" cy="384" r="9" fill="rgb(255,137,0)"/>
<circle cx="384" cy="384" r="12" fill="rgb(255,135,0)" opacity="0.35"/>
<circle cx="384" cy="384" r="9" fill="rgb(255,135,0)"/>
</svg>
