<svg xmlns="http://www.w3.org/2000/svg" viewBox="0 0 408 408" width="408" height="408" role="img" aria-label="LED preview of the Invert example graph">
<rect width="408" height="408" rx="10" fill="#05070a"/>
<circle cx="24" cy="24" r="12" fill="rgb(255,63,118)" opacity="0.35"/>
<circle cx="24" cy="24" r="9" fill="rgb(255,63,118)"/>
<circle cx="48" cy="24" r="12" fill="rgb(207,53,188)" opacity="0.35"/>
<circle cx="48" cy="24" r="9" fill="rgb(207,53,188)"/>
<circle cx="72" cy="24" r="12" fill="rgb(161,50,203)" opacity="0.35"/>
<circle cx="72" cy="24" r="9" fill="rgb(161,50,203)"/>
<circle cx="96" cy="24" r="12" fill="rgb(209,53,187)" opacity="0.35"/>
<circle cx="96" cy="24" r="9" fill="rgb(209,53,187)"/>
<circle cx="120" cy="24" r="12" fill="rgb(255,63,116)" opacity="0.35"/>
<circle cx="120" cy="24" r="9" fill="rgb(255,63,116)"/>
<circle cx="144" cy="24" r="12" fill="rgb(253,82,0)" opacity="0.35"/>
<circle cx="144" cy="24" r="9" fill="rgb(253,82,0)"/>
<circle cx="168" cy="24" r="12" fill="rgb(218,153,1)" opacity="0.35"/>
<circle cx="168" cy="24" r="9" fill="rgb(218,153,1)"/>
<circle cx="192" cy="24" r="12" fill="rgb(151,203,3)" opacity="0.35"/>
<circle cx="192" cy="24" r="9" fill="rgb(151,203,3)"/>
<circle cx="216" cy="24" r="12" fill="rgb(105,225,4)" opacity="0.35"/>
<circle cx="216" cy="24" r="9" fill="rgb(105,225,4)"/>
<circle cx="240" cy="24" r="12" fill="rgb(119,218,4)" opacity="0.35"/>
<circle cx="240" cy="24" r="9" fill="rgb(119,218,4)"/>
<circle cx="264" cy="24" r="12" fill="rgb(189,184,2)" opacity="0.35"/>
<circle cx="264" cy="24" r="9" fill="rgb(189,184,2)"/>
<circle cx="288" cy="24" r="12" fill="rgb(234,122,0)" opacity="0.35"/>
<circle cx="288" cy="24" r="9" fill="rgb(234,122,0)"/>
<circle cx="312" cy="24" r="12" fill="rgb(255,72,52)" opacity="0.35"/>
<circle cx="312" cy="24" r="9" fill="rgb(255,72,52)"/>
<circle cx="336" cy="24" r="12" fill="rgb(255,57,161)" opacity="0.35"/>
<circle cx="336" cy="24" r="9" fill="rgb(255,57,161)"/>
<circle cx="360" cy="24" r="12" fill="rgb(176,51,198)" opacity="0.35"/>
<circle cx="360" cy="24" r="9" fill="rgb(176,51,198)"/>
<circle cx="384" cy="24" r="12" fill="rgb(170,51,200)" opacity="0.35"/>
<circle cx="384" cy="24" r="9" fill="rgb(170,51,200)"/>
<circle cx="24" cy="48" r="12" fill="rgb(179,51,197)" opacity="0.35"/>
<circle cx="24" cy="48" r="9" fill="rgb(179,51,197)"/>
<circle cx="48" cy="48" r="12" fill="rgb(51,45,238)" opacity="0.35"/>
<circle cx="48" cy="48" r="9" fill="rgb(51,45,238)"/>
<circle cx="72" cy="48" r="12" fill="rgb(5,42,253)" opacity="0.35"/>
<circle cx="72" cy="48" r="9" fill="rgb(5,42,253)"/>
<circle cx="96" cy="48" r="12" fill="rgb(53,45,238)" opacity="0.35"/>
<circle cx="96" cy="48" r="9" fill="rgb(53,45,238)"/>
<circle cx="120" cy="48" r="12" fill="rgb(182,51,196)" opacity="0.35"/>
<circle cx="120" cy="48" r="9" fill="rgb(182,51,196)"/>
<circle cx="144" cy="48" r="12" fill="rgb(255,65,100)" opacity="0.35"/>
<circle cx="144" cy="48" r="9" fill="rgb(255,65,100)"/>
<circle cx="168" cy="48" r="12" fill="rgb(248,94,0)" opacity="0.35"/>
<circle cx="168" cy="48" r="9" fill="rgb(248,94,0)"/>
<circle cx="192" cy="48" r="12" fill="rgb(220,149,1)" opacity="0.35"/>
<circle cx="192" cy="48" r="9" fill="rgb(220,149,1)"/>
<circle cx="216" cy="48" r="12" fill="rgb(206,176,1)" opacity="0.35"/>
<circle cx="216" cy="48" r="9" fill="rgb(206,176,1)"/>
<circle cx="240" cy="48" r="12" fill="rgb(211,168,1)" opacity="0.35"/>
<circle cx="240" cy="48" r="9" fill="rgb(211,168,1)"/>
<circle cx="264" cy="48" r="12" fill="rgb(231,127,0)" opacity="0.35"/>
<circle cx="264" cy="48" r="9" fill="rgb(231,127,0)"/>
<circle cx="288" cy="48" r="12" fill="rgb(255,75,29)" opacity="0.35"/>
<circle cx="288" cy="48" r="9" fill="rgb(255,75,29)"/>
<circle cx="312" cy="48" r="12" fill="rgb(255,57,157)" opacity="0.35"/>
<circle cx="312" cy="48" r="9" fill="rgb(255,57,157)"/>
<circle cx="336" cy="48" r="12" fill="rgb(115,48,217)" opacity="0.35"/>
<circle cx="336" cy="48" r="9" fill="rgb(115,48,217)"/>
<circle cx="360" cy="48" r="12" fill="rgb(20,43,249)" opacity="0.35"/>
<circle cx="360" cy="48" r="9" fill="rgb(20,43,249)"/>
<circle cx="384" cy="48" r="12" fill="rgb(14,43,250)" opacity="0.35"/>
<circle cx="384" cy="48" r="9" fill="rgb(14,43,250)"/>
<circle cx="24" cy="72" r="12" fill="rgb(0,45,255)" opacity="0.35"/>
<circle cx="24" cy="72" r="9" fill="rgb(0,45,255)"/>
<circle cx="48" cy="72" r="12" fill="rgb(0,91,255)" opacity="0.35"/>
<circle cx="48" cy="72" r="9" fill="rgb(0,91,255)"/>
<circle cx="72" cy="72" r="12" fill="rgb(0,107,255)" opacity="0.35"/>
<circle cx="72" cy="72" r="9" fill="rgb(0,107,255)"/>
<circle cx="96" cy="72" r="12" fill="rgb(0,90,255)" opacity="0.35"/>
<circle cx="96" cy="72" r="9" fill="rgb(0,90,255)"/>
<circle cx="120" cy="72" r="12" fill="rgb(0,44,255)" opacity="0.35"/>
<circle cx="120" cy="72" r="9" fill="rgb(0,44,255)"/>
<circle cx="144" cy="72" r="12" fill="rgb(174,51,198)" opacity="0.35"/>
<circle cx="144" cy="72" r="9" fill="rgb(174,51,198)"/>
<circle cx="168" cy="72" r="12" fill="rgb(255,65,101)" opacity="0.35"/>
<circle cx="168" cy="72" r="9" fill="rgb(255,65,101)"/>
<circle cx="192" cy="72" r="12" fill="rgb(255,79,2)" opacity="0.35"/>
<circle cx="192" cy="72" r="9" fill="rgb(255,79,2)"/>
<circle cx="216" cy="72" r="12" fill="rgb(242,105,0)" opacity="0.35"/>
<circle cx="216" cy="72" r="9" fill="rgb(242,105,0)"/>
<circle cx="240" cy="72" r="12" fill="rgb(246,97,0)" opacity="0.35"/>
<circle cx="240" cy="72" r="9" fill="rgb(246,97,0)"/>
<circle cx="264" cy="72" r="12" fill="rgb(255,73,42)" opacity="0.35"/>
<circle cx="264" cy="72" r="9" fill="rgb(255,73,42)"/>
<circle cx="288" cy="72" r="12" fill="rgb(255,57,156)" opacity="0.35"/>
<circle cx="288" cy="72" r="9" fill="rgb(255,57,156)"/>
<circle cx="312" cy="72" r="12" fill="rgb(89,47,226)" opacity="0.35"/>
<circle cx="312" cy="72" r="9" fill="rgb(89,47,226)"/>
<circle cx="336" cy="72" r="12" fill="rgb(0,68,255)" opacity="0.35"/>
<circle cx="336" cy="72" r="9" fill="rgb(0,68,255)"/>
<circle cx="360" cy="72" r="12" fill="rgb(0,102,255)" opacity="0.35"/>
<circle cx="360" cy="72" r="9" fill="rgb(0,102,255)"/>
<circle cx="384" cy="72" r="12" fill="rgb(0,104,255)" opacity="0.35"/>
<circle cx="384" cy="72" r="9" fill="rgb(0,104,255)"/>
<circle cx="24" cy="96" r="12" fill="rgb(0,107,255)" opacity="0.35"/>
<circle cx="24" cy="96" r="9" fill="rgb(0,107,255)"/>
<circle cx="48" cy="96" r="12" fill="rgb(0,160,255)" opacity="0.35"/>
<circle cx="48" cy="96" r="9" fill="rgb(0,160,255)"/>
<circle cx="72" cy="96" r="12" fill="rgb(0,182,255)" opacity="0.35"/>
<circle cx="72" cy="96" r="9" fill="rgb(0,182,255)"/>
<circle cx="96" cy="96" r="12" fill="rgb(0,159,255)" opacity="0.35"/>
<circle cx="96" cy="96" r="9" fill="rgb(0,159,255)"/>
<circle cx="120" cy="96" r="12" fill="rgb(0,106,255)" opacity="0.35"/>
<circle cx="120" cy="96" r="9" fill="rgb(0,106,255)"/>
<circle cx="144" cy="96" r="12" fill="rgb(0,42,255)" opacity="0.35"/>
<circle cx="144" cy="96" r="9" fill="rgb(0,42,255)"/>
<circle cx="168" cy="96" r="12" fill="rgb(185,51,195)" opacity="0.35"/>
<circle cx="168" cy="96" r="9" fill="rgb(185,51,195)"/>
<circle cx="192" cy="96" r="12" fill="rgb(255,62,120)" opacity="0.35"/>
<circle cx="192" cy="96" r="9" fill="rgb(255,62,120)"/>
<circle cx="216" cy="96" r="12" fill="rgb(255,69,72)" opacity="0.35"/>
<circle cx="216" cy="96" r="9" fill="rgb(255,69,72)"/>
<circle cx="240" cy="96" r="12" fill="rgb(255,67,86)" opacity="0.35"/>
<circle cx="240" cy="96" r="9" fill="rgb(255,67,86)"/>
<circle cx="264" cy="96" r="12" fill="rgb(255,57,160)" opacity="0.35"/>
<circle cx="264" cy="96" r="9" fill="rgb(255,57,160)"/>
<circle cx="288" cy="96" r="12" fill="rgb(104,47,221)" opacity="0.35"/>
<circle cx="288" cy="96" r="9" fill="rgb(104,47,221)"/>
<circle cx="312" cy="96" r="12" fill="rgb(0,72,255)" opacity="0.35"/>
<circle cx="312" cy="96" r="9" fill="rgb(0,72,255)"/>
<circle cx="336" cy="96" r="12" fill="rgb(0,130,255)" opacity="0.35"/>
<circle cx="336" cy="96" r="9" fill="rgb(0,130,255)"/>
<circle cx="360" cy="96" r="12" fill="rgb(0,175,255)" opacity="0.35"/>
<circle cx="360" cy="96" r="9" fill="rgb(0,175,255)"/>
<circle cx="384" cy="96" r="12" fill="rgb(0,178,255)" opacity="0.35"/>
<circle cx="384" cy="96" r="9" fill="rgb(0,178,255)"/>
<circle cx="24" cy="120" r="12" fill="rgb(0,155,255)" opacity="0.35"/>
<circle cx="24" cy="120" r="9" fill="rgb(0,155,255)"/>
<circle cx="48" cy="120" r="12" fill="rgb(0,217,255)" opacity="0.35"/>
<circle cx="48" cy="120" r="9" fill="rgb(0,217,255)"/>
<circle cx="72" cy="120" r="12" fill="rgb(0,239,255)" opacity="0.35"/>
<circle cx="72" cy="120" r="9" fill="rgb(0,239,255)"/>
<circle cx="96" cy="120" r="12" fill="rgb(0,216,255)" opacity="0.35"/>
<circle cx="96" cy="120" r="9" fill="rgb(0,216,255)"/>
<circle cx="120" cy="120" r="12" fill="rgb(0,154,255)" opacity="0.35"/>
<circle cx="120" cy="120" r="9" fill="rgb(0,154,255)"/>
<circle cx="144" cy="120" r="12" fill="rgb(0,84,255)" opacity="0.35"/>
<circle cx="144" cy="120" r="9" fill="rgb(0,84,255)"/>
<circle cx="168" cy="120" r="12" fill="rgb(67,45,233)" opacity="0.35"/>
<circle cx="168" cy="120" r="9" fill="rgb(67,45,233)"/>
<circle cx="192" cy="120" r="12" fill="rgb(214,53,185)" opacity="0.35"/>
<circle cx="192" cy="120" r="9" fill="rgb(214,53,185)"/>
<circle cx="216" cy="120" r="12" fill="rgb(255,58,151)" opacity="0.35"/>
<circle cx="216" cy="120" r="9" fill="rgb(255,58,151)"/>
<circle cx="240" cy="120" r="12" fill="rgb(255,56,166)" opacity="0.35"/>
<circle cx="240" cy="120" r="9" fill="rgb(255,56,166)"/>
<circle cx="264" cy="120" r="12" fill="rgb(155,50,204)" opacity="0.35"/>
<circle cx="264" cy="120" r="9" fill="rgb(155,50,204)"/>
<circle cx="288" cy="120" r="12" fill="rgb(0,47,255)" opacity="0.35"/>
<circle cx="288" cy="120" r="9" fill="rgb(0,47,255)"/>
<circle cx="312" cy="120" r="12" fill="rgb(0,115,255)" opacity="0.35"/>
<circle cx="312" cy="120" r="9" fill="rgb(0,115,255)"/>
<circle cx="336" cy="120" r="12" fill="rgb(0,186,255)" opacity="0.35"/>
<circle cx="336" cy="120" r="9" fill="rgb(0,186,255)"/>
<circle cx="360" cy="120" r="12" fill="rgb(0,232,255)" opacity="0.35"/>
<circle cx="360" cy="120" r="9" fill="rgb(0,232,255)"/>
<circle cx="384" cy="120" r="12" fill="rgb(0,234,255)" opacity="0.35"/>
<circle cx="384" cy="120" r="9" fill="rgb(0,234,255)"/>
<circle cx="24" cy="144" r="12" fill="rgb(0,171,255)" opacity="0.35"/>
<circle cx="24" cy="144" r="9" fill="rgb(0,171,255)"/>
<circle cx="48" cy="144" r="12" fill="rgb(0,232,255)" opacity="0.35"/>
<circle cx="48" cy="144" r="9" fill="rgb(0,232,255)"/>
<circle cx="72" cy="144" r="12" fill="rgb(0,254,255)" opacity="0.35"/>
<circle cx="72" cy="144" r="9" fill="rgb(0,254,255)"/>
<circle cx="96" cy="144" r="12" fill="rgb(0,232,255)" opacity="0.35"/>
<circle cx="96" cy="144" r="9" fill="rgb(0,232,255)"/>
<circle cx="120" cy="144" r="12" fill="rgb(0,170,255)" opacity="0.35"/>
<circle cx="120" cy="144" r="9" fill="rgb(0,170,255)"/>
<circle cx="144" cy="144" r="12" fill="rgb(0,96,255)" opacity="0.35"/>
<circle cx="144" cy="144" r="9" fill="rgb(0,96,255)"/>
<circle cx="168" cy="144" r="12" fill="rgb(34,44,244)" opacity="0.35"/>
<circle cx="168" cy="144" r="9" fill="rgb(34,44,244)"/>
<circle cx="192" cy="144" r="12" fill="rgb(181,51,196)" opacity="0.35"/>
<circle cx="192" cy="144" r="9" fill="rgb(181,51,196)"/>
<circle cx="216" cy="144" r="12" fill="rgb(252,55,173)" opacity="0.35"/>
<circle cx="216" cy="144" r="9" fill="rgb(252,55,173)"/>
<circle cx="240" cy="144" r="12" fill="rgb(231,54,180)" opacity="0.35"/>
<circle cx="240" cy="144" r="9" fill="rgb(231,54,180)"/>
<circle cx="264" cy="144" r="12" fill="rgb(122,48,215)" opacity="0.35"/>
<circle cx="264" cy="144" r="9" fill="rgb(122,48,215)"/>
<circle cx="288" cy="144" r="12" fill="rgb(0,59,255)" opacity="0.35"/>
<circle cx="288" cy="144" r="9" fill="rgb(0,59,255)"/>
<circle cx="312" cy="144" r="12" fill="rgb(0,126,255)" opacity="0.35"/>
<circle cx="312" cy="144" r="9" fill="rgb(0,126,255)"/>
<circle cx="336" cy="144" r="12" fill="rgb(0,202,255)" opacity="0.35"/>
<circle cx="336" cy="144" r="9" fill="rgb(0,202,255)"/>
<circle cx="360" cy="144" r="12" fill="rgb(0,247,255)" opacity="0.35"/>
<circle cx="360" cy="144" r="9" fill="rgb(0,247,255)"/>
<circle cx="384" cy="144" r="12" fill="rgb(0,250,255)" opacity="0.35"/>
<circle cx="384" cy="144" r="9" fill="rgb(0,250,255)"/>
<circle cx="24" cy="168" r="12" fill="rgb(0,142,255)" opacity="0.35"/>
<circle cx="24" cy="168" r="9" fill="rgb(0,142,255)"/>
<circle cx="48" cy="168" r="12" fill="rgb(0,204,255)" opacity="0.35"/>
<circle cx="48" cy="168" r="9" fill="rgb(0,204,255)"/>
<circle cx="72" cy="168" r="12" fill="rgb(0,226,255)" opacity="0.35"/>
<circle cx="72" cy="168" r="9" fill="rgb(0,226,255)"/>
<circle cx="96" cy="168" r="12" fill="rgb(0,203,255)" opacity="0.35"/>
<circle cx="96" cy="168" r="9" fill="rgb(0,203,255)"/>
<circle cx="120" cy="168" r="12" fill="rgb(0,141,255)" opacity="0.35"/>
<circle cx="120" cy="168" r="9" fill="rgb(0,141,255)"/>
<circle cx="144" cy="168" r="12" fill="rgb(0,75,255)" opacity="0.35"/>
<circle cx="144" cy="168" r="9" fill="rgb(0,75,255)"/>
<circle cx="168" cy="168" r="12" fill="rgb(95,47,224)" opacity="0.35"/>
<circle cx="168" cy="168" r="9" fill="rgb(95,47,224)"/>
<circle cx="192" cy="168" r="12" fill="rgb(242,54,176)" opacity="0.35"/>
<circle cx="192" cy="168" r="9" fill="rgb(242,54,176)"/>
<circle cx="216" cy="168" r="12" fill="rgb(255,60,133)" opacity="0.35"/>
<circle cx="216" cy="168" r="9" fill="rgb(255,60,133)"/>
<circle cx="240" cy="168" r="12" fill="rgb(255,58,147)" opacity="0.35"/>
<circle cx="240" cy="168" r="9" fill="rgb(255,58,147)"/>
<circle cx="264" cy="168" r="12" fill="rgb(183,51,196)" opacity="0.35"/>
<circle cx="264" cy="168" r="9" fill="rgb(183,51,196)"/>
<circle cx="288" cy="168" r="12" fill="rgb(13,43,251)" opacity="0.35"/>
<circle cx="288" cy="168" r="9" fill="rgb(13,43,251)"/>
<circle cx="312" cy="168" r="12" fill="rgb(0,105,255)" opacity="0.35"/>
<circle cx="312" cy="168" r="9" fill="rgb(0,105,255)"/>
<circle cx="336" cy="168" r="12" fill="rgb(0,173,255)" opacity="0.35"/>
<circle cx="336" cy="168" r="9" fill="rgb(0,173,255)"/>
<circle cx="360" cy="168" r="12" fill="rgb(0,218,255)" opacity="0.35"/>
<circle cx="360" cy="168" r="9" fill="rgb(0,218,255)"/>
<circle cx="384" cy="168" r="12" fill="rgb(0,221,255)" opacity="0.35"/>
<circle cx="384" cy="168" r="9" fill="rgb(0,221,255)"/>
<circle cx="24" cy="192" r="12" fill="rgb(0,90,255)" opacity="0.35"/>
<circle cx="24" cy="192" r="9" fill="rgb(0,90,255)"/>
<circle cx="48" cy="192" r="12" fill="rgb(0,137,255)" opacity="0.35"/>
<circle cx="48" cy="192" r="9" fill="rgb(0,137,255)"/>
<circle cx="72" cy="192" r="12" fill="rgb(0,159,255)" opacity="0.35"/>
<circle cx="72" cy="192" r="9" fill="rgb(0,159,255)"/>
<circle cx="96" cy="192" r="12" fill="rgb(0,136,255)" opacity="0.35"/>
<circle cx="96" cy="192" r="9" fill="rgb(0,136,255)"/>
<circle cx="120" cy="192" r="12" fill="rgb(0,89,255)" opacity="0.35"/>
<circle cx="120" cy="192" r="9" fill="rgb(0,89,255)"/>
<circle cx="144" cy="192" r="12" fill="rgb(48,44,239)" opacity="0.35"/>
<circle cx="144" cy="192" r="9" fill="rgb(48,44,239)"/>
<circle cx="168" cy="192" r="12" fill="rgb(234,54,179)" opacity="0.35"/>
<circle cx="168" cy="192" r="9" fill="rgb(234,54,179)"/>
<circle cx="192" cy="192" r="12" fill="rgb(255,67,87)" opacity="0.35"/>
<circle cx="192" cy="192" r="9" fill="rgb(255,67,87)"/>
<circle cx="216" cy="192" r="12" fill="rgb(255,74,39)" opacity="0.35"/>
<circle cx="216" cy="192" r="9" fill="rgb(255,74,39)"/>
<circle cx="240" cy="192" r="12" fill="rgb(255,72,53)" opacity="0.35"/>
<circle cx="240" cy="192" r="9" fill="rgb(255,72,53)"/>
<circle cx="264" cy="192" r="12" fill="rgb(255,61,127)" opacity="0.35"/>
<circle cx="264" cy="192" r="9" fill="rgb(255,61,127)"/>
<circle cx="288" cy="192" r="12" fill="rgb(152,50,205)" opacity="0.35"/>
<circle cx="288" cy="192" r="9" fill="rgb(152,50,205)"/>
<circle cx="312" cy="192" r="12" fill="rgb(0,55,255)" opacity="0.35"/>
<circle cx="312" cy="192" r="9" fill="rgb(0,55,255)"/>
<circle cx="336" cy="192" r="12" fill="rgb(0,113,255)" opacity="0.35"/>
<circle cx="336" cy="192" r="9" fill="rgb(0,113,255)"/>
<circle cx="360" cy="192" r="12" fill="rgb(0,152,255)" opacity="0.35"/>
<circle cx="360" cy="192" r="9" fill="rgb(0,152,255)"/>
<circle cx="384" cy="192" r="12" fill="rgb(0,155,255)" opacity="0.35"/>
<circle cx="384" cy="192" r="9" fill="rgb(0,155,255)"/>
<circle cx="24" cy="216" r="12" fill="rgb(49,44,239)" opacity="0.35"/>
<circle cx="24" cy="216" r="9" fill="rgb(49,44,239)"/>
<circle cx="48" cy="216" r="12" fill="rgb(0,70,255)" opacity="0.35"/>
<circle cx="48" cy="216" r="9" fill="rgb(0,70,255)"/>
<circle cx="72" cy="216" r="12" fill="rgb(0,87,255)" opacity="0.35"/>
<circle cx="72" cy="216" r="9" fill="rgb(0,87,255)"/>
<circle cx="96" cy="216" r="12" fill="rgb(0,70,255)" opacity="0.35"/>
<circle cx="96" cy="216" r="9" fill="rgb(0,70,255)"/>
<circle cx="120" cy="216" r="12" fill="rgb(51,45,238)" opacity="0.35"/>
<circle cx="120" cy="216" r="9" fill="rgb(51,45,238)"/>
<circle cx="144" cy="216" r="12" fill="rgb(231,54,180)" opacity="0.35"/>
<circle cx="144" cy="216" r="9" fill="rgb(231,54,180)"/>
<circle cx="168" cy="216" r="12" fill="rgb(255,70,62)" opacity="0.35"/>
<circle cx="168" cy="216" r="9" fill="rgb(255,70,62)"/>
<circle cx="192" cy="216" r="12" fill="rgb(245,100,0)" opacity="0.35"/>
<circle cx="192" cy="216" r="9" fill="rgb(245,100,0)"/>
<circle cx="216" cy="216" r="12" fill="rgb(231,127,0)" opacity="0.35"/>
<circle cx="216" cy="216" r="9" fill="rgb(231,127,0)"/>
<circle cx="240" cy="216" r="12" fill="rgb(235,119,0)" opacity="0.35"/>
<circle cx="240" cy="216" r="9" fill="rgb(235,119,0)"/>
<circle cx="264" cy="216" r="12" fill="rgb(255,79,3)" opacity="0.35"/>
<circle cx="264" cy="216" r="9" fill="rgb(255,79,3)"/>
<circle cx="288" cy="216" r="12" fill="rgb(255,63,118)" opacity="0.35"/>
<circle cx="288" cy="216" r="9" fill="rgb(255,63,118)"/>
<circle cx="312" cy="216" r="12" fill="rgb(147,49,207)" opacity="0.35"/>
<circle cx="312" cy="216" r="9" fill="rgb(147,49,207)"/>
<circle cx="336" cy="216" r="12" fill="rgb(0,48,255)" opacity="0.35"/>
<circle cx="336" cy="216" r="9" fill="rgb(0,48,255)"/>
<circle cx="360" cy="216" r="12" fill="rgb(0,82,255)" opacity="0.35"/>
<circle cx="360" cy="216" r="9" fill="rgb(0,82,255)"/>
<circle cx="384" cy="216" r="12" fill="rgb(0,84,255)" opacity="0.35"/>
<circle cx="384" cy="216" r="9" fill="rgb(0,84,255)"/>
<circle cx="24" cy="240" r="12" fill="rgb(232,54,180)" opacity="0.35"/>
<circle cx="24" cy="240" r="9" fill="rgb(232,54,180)"/>
<circle cx="48" cy="240" r="12" fill="rgb(103,47,221)" opacity="0.35"/>
<circle cx="48" cy="240" r="9" fill="rgb(103,47,221)"/>
<circle cx="72" cy="240" r="12" fill="rgb(57,45,236)" opacity="0.35"/>
<circle cx="72" cy="240" r="9" fill="rgb(57,45,236)"/>
<circle cx="96" cy="240" r="12" fill="rgb(105,47,221)" opacity="0.35"/>
<circle cx="96" cy="240" r="9" fill="rgb(105,47,221)"/>
<circle cx="120" cy="240" r="12" fill="rgb(235,54,179)" opacity="0.35"/>
<circle cx="120" cy="240" r="9" fill="rgb(235,54,179)"/>
<circle cx="144" cy="240" r="12" fill="rgb(255,70,64)" opacity="0.35"/>
<circle cx="144" cy="240" r="9" fill="rgb(255,70,64)"/>
<circle cx="168" cy="240" r="12" fill="rgb(238,113,0)" opacity="0.35"/>
<circle cx="168" cy="240" r="9" fill="rgb(238,113,0)"/>
<circle cx="192" cy="240" r="12" fill="rgb(210,169,1)" opacity="0.35"/>
<circle cx="192" cy="240" r="9" fill="rgb(210,169,1)"/>
<circle cx="216" cy="240" r="12" fill="rgb(172,193,2)" opacity="0.35"/>
<circle cx="216" cy="240" r="9" fill="rgb(172,193,2)"/>
<circle cx="240" cy="240" r="12" fill="rgb(186,186,2)" opacity="0.35"/>
<circle cx="240" cy="240" r="9" fill="rgb(186,186,2)"/>
<circle cx="264" cy="240" r="12" fill="rgb(221,147,1)" opacity="0.35"/>
<circle cx="264" cy="240" r="9" fill="rgb(221,147,1)"/>
<circle cx="288" cy="240" r="12" fill="rgb(253,82,0)" opacity="0.35"/>
<circle cx="288" cy="240" r="9" fill="rgb(253,82,0)"/>
<circle cx="312" cy="240" r="12" fill="rgb(255,62,122)" opacity="0.35"/>
<circle cx="312" cy="240" r="9" fill="rgb(255,62,122)"/>
<circle cx="336" cy="240" r="12" fill="rgb(168,51,200)" opacity="0.35"/>
<circle cx="336" cy="240" r="9" fill="rgb(168,51,200)"/>
<circle cx="360" cy="240" r="12" fill="rgb(72,46,232)" opacity="0.35"/>
<circle cx="360" cy="240" r="9" fill="rgb(72,46,232)"/>
<circle cx="384" cy="240" r="12" fill="rgb(67,45,233)" opacity="0.35"/>
<circle cx="384" cy="240" r="9" fill="rgb(67,45,233)"/>
<circle cx="24" cy="264" r="12" fill="rgb(255,66,95)" opacity="0.35"/>
<circle cx="24" cy="264" r="9" fill="rgb(255,66,95)"/>
<circle cx="48" cy="264" r="12" fill="rgb(241,54,176)" opacity="0.35"/>
<circle cx="48" cy="264" r="9" fill="rgb(241,54,176)"/>
<circle cx="72" cy="264" r="12" fill="rgb(195,52,191)" opacity="0.35"/>
<circle cx="72" cy="264" r="9" fill="rgb(195,52,191)"/>
<circle cx="96" cy="264" r="12" fill="rgb(243,54,176)" opacity="0.35"/>
<circle cx="96" cy="264" r="9" fill="rgb(243,54,176)"/>
<circle cx="120" cy="264" r="12" fill="rgb(255,66,93)" opacity="0.35"/>
<circle cx="120" cy="264" r="9" fill="rgb(255,66,93)"/>
<circle cx="144" cy="264" r="12" fill="rgb(247,95,0)" opacity="0.35"/>
<circle cx="144" cy="264" r="9" fill="rgb(247,95,0)"/>
<circle cx="168" cy="264" r="12" fill="rgb(212,166,1)" opacity="0.35"/>
<circle cx="168" cy="264" r="9" fill="rgb(212,166,1)"/>
<circle cx="192" cy="264" r="12" fill="rgb(129,213,3)" opacity="0.35"/>
<circle cx="192" cy="264" r="9" fill="rgb(129,213,3)"/>
<circle cx="216" cy="264" r="12" fill="rgb(83,235,5)" opacity="0.35"/>
<circle cx="216" cy="264" r="9" fill="rgb(83,235,5)"/>
<circle cx="240" cy="264" r="12" fill="rgb(97,229,4)" opacity="0.35"/>
<circle cx="240" cy="264" r="9" fill="rgb(97,229,4)"/>
<circle cx="264" cy="264" r="12" fill="rgb(167,195,2)" opacity="0.35"/>
<circle cx="264" cy="264" r="9" fill="rgb(167,195,2)"/>
<circle cx="288" cy="264" r="12" fill="rgb(227,135,1)" opacity="0.35"/>
<circle cx="288" cy="264" r="9" fill="rgb(227,135,1)"/>
<circle cx="312" cy="264" r="12" fill="rgb(255,75,29)" opacity="0.35"/>
<circle cx="312" cy="264" r="9" fill="rgb(255,75,29)"/>
<circle cx="336" cy="264" r="12" fill="rgb(255,60,138)" opacity="0.35"/>
<circle cx="336" cy="264" r="9" fill="rgb(255,60,138)"/>
<circle cx="360" cy="264" r="12" fill="rgb(210,53,187)" opacity="0.35"/>
<circle cx="360" cy="264" r="9" fill="rgb(210,53,187)"/>
<circle cx="384" cy="264" r="12" fill="rgb(205,52,188)" opacity="0.35"/>
<circle cx="384" cy="264" r="9" fill="rgb(205,52,188)"/>
<circle cx="24" cy="288" r="12" fill="rgb(255,71,55)" opacity="0.35"/>
<circle cx="24" cy="288" r="9" fill="rgb(255,71,55)"/>
<circle cx="48" cy="288" r="12" fill="rgb(255,59,142)" opacity="0.35"/>
<circle cx="48" cy="288" r="9" fill="rgb(255,59,142)"/>
<circle cx="72" cy="288" r="12" fill="rgb(254,55,172)" opacity="0.35"/>
<circle cx="72" cy="288" r="9" fill="rgb(254,55,172)"/>
<circle cx="96" cy="288" r="12" fill="rgb(255,59,140)" opacity="0.35"/>
<circle cx="96" cy="288" r="9" fill="rgb(255,59,140)"/>
<circle cx="120" cy="288" r="12" fill="rgb(255,72,53)" opacity="0.35"/>
<circle cx="120" cy="288" r="9" fill="rgb(255,72,53)"/>
<circle cx="144" cy="288" r="12" fill="rgb(236,118,0)" opacity="0.35"/>
<circle cx="144" cy="288" r="9" fill="rgb(236,118,0)"/>
<circle cx="168" cy="288" r="12" fill="rgb(186,186,2)" opacity="0.35"/>
<circle cx="168" cy="288" r="9" fill="rgb(186,186,2)"/>
<circle cx="192" cy="288" r="12" fill="rgb(91,231,5)" opacity="0.35"/>
<circle cx="192" cy="288" r="9" fill="rgb(91,231,5)"/>
<circle cx="216" cy="288" r="12" fill="rgb(45,254,6)" opacity="0.35"/>
<circle cx="216" cy="288" r="9" fill="rgb(45,254,6)"/>
<circle cx="240" cy="288" r="12" fill="rgb(59,247,5)" opacity="0.35"/>
<circle cx="240" cy="288" r="9" fill="rgb(59,247,5)"/>
<circle cx="264" cy="288" r="12" fill="rgb(129,213,3)" opacity="0.35"/>
<circle cx="264" cy="288" r="9" fill="rgb(129,213,3)"/>
<circle cx="288" cy="288" r="12" fill="rgb(216,157,1)" opacity="0.35"/>
<circle cx="288" cy="288" r="9" fill="rgb(216,157,1)"/>
<circle cx="312" cy="288" r="12" fill="rgb(252,85,0)" opacity="0.35"/>
<circle cx="312" cy="288" r="9" fill="rgb(252,85,0)"/>
<circle cx="336" cy="288" r="12" fill="rgb(255,65,98)" opacity="0.35"/>
<circle cx="336" cy="288" r="9" fill="rgb(255,65,98)"/>
<circle cx="360" cy="288" r="12" fill="rgb(255,56,163)" opacity="0.35"/>
<circle cx="360" cy="288" r="9" fill="rgb(255,56,163)"/>
<circle cx="384" cy="288" r="12" fill="rgb(255,56,166)" opacity="0.35"/>
<circle cx="384" cy="288" r="9" fill="rgb(255,56,166)"/>
<circle cx="24" cy="312" r="12" fill="rgb(255,68,78)" opacity="0.35"/>
<circle cx="24" cy="312" r="9" fill="rgb(255,68,78)"/>
<circle cx="48" cy="312" r="12" fill="rgb(255,56,165)" opacity="0.35"/>
<circle cx="48" cy="312" r="9" fill="rgb(255,56,165)"/>
<circle cx="72" cy="312" r="12" fill="rgb(220,53,184)" opacity="0.35"/>
<circle cx="72" cy="312" r="9" fill="rgb(220,53,184)"/>
<circle cx="96" cy="312" r="12" fill="rgb(255,56,164)" opacity="0.35"/>
<circle cx="96" cy="312" r="9" fill="rgb(255,56,164)"/>
<circle cx="120" cy="312" r="12" fill="rgb(255,68,76)" opacity="0.35"/>
<circle cx="120" cy="312" r="9" fill="rgb(255,68,76)"/>
<circle cx="144" cy="312" r="12" fill="rgb(242,104,0)" opacity="0.35"/>
<circle cx="144" cy="312" r="9" fill="rgb(242,104,0)"/>
<circle cx="168" cy="312" r="12" fill="rgb(207,175,1)" opacity="0.35"/>
<circle cx="168" cy="312" r="9" fill="rgb(207,175,1)"/>
<circle cx="192" cy="312" r="12" fill="rgb(113,221,4)" opacity="0.35"/>
<circle cx="192" cy="312" r="9" fill="rgb(113,221,4)"/>
<circle cx="216" cy="312" r="12" fill="rgb(67,243,5)" opacity="0.35"/>
<circle cx="216" cy="312" r="9" fill="rgb(67,243,5)"/>
<circle cx="240" cy="312" r="12" fill="rgb(81,236,5)" opacity="0.35"/>
<circle cx="240" cy="312" r="9" fill="rgb(81,236,5)"/>
<circle cx="264" cy="312" r="12" fill="rgb(151,203,3)" opacity="0.35"/>
<circle cx="264" cy="312" r="9" fill="rgb(151,203,3)"/>
<circle cx="288" cy="312" r="12" fill="rgb(223,144,1)" opacity="0.35"/>
<circle cx="288" cy="312" r="9" fill="rgb(223,144,1)"/>
<circle cx="312" cy="312" r="12" fill="rgb(255,77,12)" opacity="0.35"/>
<circle cx="312" cy="312" r="9" fill="rgb(255,77,12)"/>
<circle cx="336" cy="312" r="12" fill="rgb(255,62,122)" opacity="0.35"/>
<circle cx="336" cy="312" r="9" fill="rgb(255,62,122)"/>
<circle cx="360" cy="312" r="12" fill="rgb(234,54,179)" opacity="0.35"/>
<circle cx="360" cy="312" r="9" fill="rgb(234,54,179)"/>
<circle cx="384" cy="312" r="12" fill="rgb(229,54,180)" opacity="0.35"/>
<circle cx="384" cy="312" r="9" fill="rgb(229,54,180)"/>
<circle cx="24" cy="336" r="12" fill="rgb(255,57,159)" opacity="0.35"/>
<circle cx="24" cy="336" r="9" fill="rgb(255,57,159)"/>
<circle cx="48" cy="336" r="12" fill="rgb(146,49,207)" opacity="0.35"/>
<circle cx="48" cy="336" r="9" fill="rgb(146,49,207)"/>
<circle cx="72" cy="336" r="12" fill="rgb(100,47,222)" opacity="0.35"/>
<circle cx="72" cy="336" r="9" fill="rgb(100,47,222)"/>
<circle cx="96" cy="336" r="12" fill="rgb(148,50,207)" opacity="0.35"/>
<circle cx="96" cy="336" r="9" fill="rgb(148,50,207)"/>
<circle cx="120" cy="336" r="12" fill="rgb(255,57,157)" opacity="0.35"/>
<circle cx="120" cy="336" r="9" fill="rgb(255,57,157)"/>
<circle cx="144" cy="336" r="12" fill="rgb(255,74,36)" opacity="0.35"/>
<circle cx="144" cy="336" r="9" fill="rgb(255,74,36)"/>
<circle cx="168" cy="336" r="12" fill="rgb(230,130,1)" opacity="0.35"/>
<circle cx="168" cy="336" r="9" fill="rgb(230,130,1)"/>
<circle cx="192" cy="336" r="12" fill="rgb(191,184,1)" opacity="0.35"/>
<circle cx="192" cy="336" r="9" fill="rgb(191,184,1)"/>
<circle cx="216" cy="336" r="12" fill="rgb(145,206,3)" opacity="0.35"/>
<circle cx="216" cy="336" r="9" fill="rgb(145,206,3)"/>
<circle cx="240" cy="336" r="12" fill="rgb(158,199,2)" opacity="0.35"/>
<circle cx="240" cy="336" r="9" fill="rgb(158,199,2)"/>
<circle cx="264" cy="336" r="12" fill="rgb(213,163,1)" opacity="0.35"/>
<circle cx="264" cy="336" r="9" fill="rgb(213,163,1)"/>
<circle cx="288" cy="336" r="12" fill="rgb(245,99,0)" opacity="0.35"/>
<circle cx="288" cy="336" r="9" fill="rgb(245,99,0)"/>
<circle cx="312" cy="336" r="12" fill="rgb(255,66,93)" opacity="0.35"/>
<circle cx="312" cy="336" r="9" fill="rgb(255,66,93)"/>
<circle cx="336" cy="336" r="12" fill="rgb(210,53,187)" opacity="0.35"/>
<circle cx="336" cy="336" r="9" fill="rgb(210,53,187)"/>
<circle cx="360" cy="336" r="12" fill="rgb(115,48,218)" opacity="0.35"/>
<circle cx="360" cy="336" r="9" fill="rgb(115,48,218)"/>
<circle cx="384" cy="336" r="12" fill="rgb(109,48,219)" opacity="0.35"/>
<circle cx="384" cy="336" r="9" fill="rgb(109,48,219)"/>
<circle cx="24" cy="360" r="12" fill="rgb(99,47,223)" opacity="0.35"/>
<circle cx="24" cy="360" r="9" fill="rgb(99,47,223)"/>
<circle cx="48" cy="360" r="12" fill="rgb(0,52,255)" opacity="0.35"/>
<circle cx="48" cy="360" r="9" fill="rgb(0,52,255)"/>
<circle cx="72" cy="360" r="12" fill="rgb(0,69,255)" opacity="0.35"/>
<circle cx="72" cy="360" r="9" fill="rgb(0,69,255)"/>
<circle cx="96" cy="360" r="12" fill="rgb(0,52,255)" opacity="0.35"/>
<circle cx="96" cy="360" r="9" fill="rgb(0,52,255)"/>
<circle cx="120" cy="360" r="12" fill="rgb(102,47,222)" opacity="0.35"/>
<circle cx="120" cy="360" r="9" fill="rgb(102,47,222)"/>
<circle cx="144" cy="360" r="12" fill="rgb(255,58,154)" opacity="0.35"/>
<circle cx="144" cy="360" r="9" fill="rgb(255,58,154)"/>
<circle cx="168" cy="360" r="12" fill="rgb(255,75,28)" opacity="0.35"/>
<circle cx="168" cy="360" r="9" fill="rgb(255,75,28)"/>
<circle cx="192" cy="360" r="12" fill="rgb(235,119,0)" opacity="0.35"/>
<circle cx="192" cy="360" r="9" fill="rgb(235,119,0)"/>
<circle cx="216" cy="360" r="12" fill="rgb(222,146,1)" opacity="0.35"/>
<circle cx="216" cy="360" r="9" fill="rgb(222,146,1)"/>
<circle cx="240" cy="360" r="12" fill="rgb(226,138,1)" opacity="0.35"/>
<circle cx="240" cy="360" r="9" fill="rgb(226,138,1)"/>
<circle cx="264" cy="360" r="12" fill="rgb(246,97,0)" opacity="0.35"/>
<circle cx="264" cy="360" r="9" fill="rgb(246,97,0)"/>
<circle cx="288" cy="360" r="12" fill="rgb(255,67,83)" opacity="0.35"/>
<circle cx="288" cy="360" r="9" fill="rgb(255,67,83)"/>
<circle cx="312" cy="360" r="12" fill="rgb(197,52,191)" opacity="0.35"/>
<circle cx="312" cy="360" r="9" fill="rgb(197,52,191)"/>
<circle cx="336" cy="360" r="12" fill="rgb(35,44,244)" opacity="0.35"/>
<circle cx="336" cy="360" r="9" fill="rgb(35,44,244)"/>
<circle cx="360" cy="360" r="12" fill="rgb(0,64,255)" opacity="0.35"/>
<circle cx="360" cy="360" r="9" fill="rgb(0,64,255)"/>
<circle cx="384" cy="360" r="12" fill="rgb(0,66,255)" opacity="0.35"/>
<circle cx="384" cy="360" r="9" fill="rgb(0,66,255)"/>
<circle cx="24" cy="384" r="12" fill="rgb(0,74,255)" opacity="0.35"/>
<circle cx="24" cy="384" r="9" fill="rgb(0,74,255)"/>
<circle cx="48" cy="384" r="12" fill="rgb(0,120,255)" opacity="0.35"/>
<circle cx="48" cy="384" r="9" fill="rgb(0,120,255)"/>
<circle cx="72" cy="384" r="12" fill="rgb(0,137,255)" opacity="0.35"/>
<circle cx="72" cy="384" r="9" fill="rgb(0,137,255)"/>
<circle cx="96" cy="384" r="12" fill="rgb(0,119,255)" opacity="0.35"/>
<circle cx="96" cy="384" r="9" fill="rgb(0,119,255)"/>
<circle cx="120" cy="384" r="12" fill="rgb(0,73,255)" opacity="0.35"/>
<circle cx="120" cy="384" r="9" fill="rgb(0,73,255)"/>
<circle cx="144" cy="384" r="12" fill="rgb(94,47,224)" opacity="0.35"/>
<circle cx="144" cy="384" r="9" fill="rgb(94,47,224)"/>
<circle cx="168" cy="384" r="12" fill="rgb(255,57,155)" opacity="0.35"/>
<circle cx="168" cy="384" r="9" fill="rgb(255,57,155)"/>
<circle cx="192" cy="384" r="12" fill="rgb(255,71,56)" opacity="0.35"/>
<circle cx="192" cy="384" r="9" fill="rgb(255,71,56)"/>
<circle cx="216" cy="384" r="12" fill="rgb(255,78,8)" opacity="0.35"/>
<circle cx="216" cy="384" r="9" fill="rgb(255,78,8)"/>
<circle cx="240" cy="384" r="12" fill="rgb(255,76,22)" opacity="0.35"/>
<circle cx="240" cy="384" r="9" fill="rgb(255,76,22)"/>
<circle cx="264" cy="384" r="12" fill="rgb(255,66,96)" opacity="0.35"/>
<circle cx="264" cy="384" r="9" fill="rgb(255,66,96)"/>
<circle cx="288" cy="384" r="12" fill="rgb(198,52,190)" opacity="0.35"/>
<circle cx="288" cy="384" r="9" fill="rgb(198,52,190)"/>
<circle cx="312" cy="384" r="12" fill="rgb(9,42,252)" opacity="0.35"/>
<circle cx="312" cy="384" r="9" fill="rgb(9,42,252)"/>
<circle cx="336" cy="384" r="12" fill="rgb(0,97,255)" opacity="0.35"/>
<circle cx="336" cy="384" r="9" fill="rgb(0,97,255)"/>
<circle cx="360" cy="384" r="12" fill="rgb(0,131,255)" opacity="0.35"/>
<circle cx="360" cy="384" r="9" fill="rgb(0,131,255)"/>
<circle cx="384" cy="384" r="12" fill="rgb(0,133,255)" opacity="0.35"/>
<circle cx="384" cy="384" r="9" fill="rgb(0,133,255)"/>
</svg>
