<svg xmlns="http://www.w3.org/2000/svg" viewBox="0 0 408 408" width="408" height="408" role="img" aria-label="LED preview of the Juggle example graph">
<rect width="408" height="408" rx="10" fill="#05070a"/>
<circle cx="24" cy="24" r="9" fill="#14171c"/>
<circle cx="48" cy="24" r="9" fill="#14171c"/>
<circle cx="72" cy="24" r="9" fill="#14171c"/>
<circle cx="96" cy="24" r="9" fill="#14171c"/>
<circle cx="120" cy="24" r="9" fill="#14171c"/>
<circle cx="144" cy="24" r="9" fill="#14171c"/>
<circle cx="168" cy="24" r="9" fill="#14171c"/>
<circle cx="192" cy="24" r="9" fill="#14171c"/>
<circle cx="216" cy="24" r="9" fill="#14171c"/>
<circle cx="240" cy="24" r="9" fill="#14171c"/>
<circle cx="264" cy="24" r="9" fill="#14171c"/>
<circle cx="288" cy="24" r="9" fill="#14171c"/>
<circle cx="312" cy="24" r="9" fill="#14171c"/>
<circle cx="336" cy="24" r="9" fill="#14171c"/>
<circle cx="360" cy="24" r="9" fill="#14171c"/>
<circle cx="384" cy="24" r="9" fill="#14171c"/>
<circle cx="24" cy="48" r="12" fill="rgb(43,2,0)" opacity="0.35"/>
<circle cx="24" cy="48" r="9" fill="rgb(43,2,0)"/>
<circle cx="48" cy="48" r="12" fill="rgb(21,2,0)" opacity="0.35"/>
<circle cx="48" cy="48" r="9" fill="rgb(21,2,0)"/>
<circle cx="72" cy="48" r="12" fill="rgb(51,7,0)" opacity="0.35"/>
<circle cx="72" cy="48" r="9" fill="rgb(51,7,0)"/>
<circle cx="96" cy="48" r="12" fill="rgb(37,9,0)" opacity="0.35"/>
<circle cx="96" cy="48" r="9" fill="rgb(37,9,0)"/>
<circle cx="120" cy="48" r="9" fill="#14171c"/>
<circle cx="144" cy="48" r="9" fill="#14171c"/>
<circle cx="168" cy="48" r="9" fill="#14171c"/>
<circle cx="192" cy="48" r="9" fill="#14171c"/>
<circle cx="216" cy="48" r="12" fill="rgb(38,21,0)" opacity="0.35"/>
<circle cx="216" cy="48" r="9" fill="rgb(38,21,0)"/>
<circle cx="240" cy="48" r="9" fill="#14171c"/>
<circle cx="264" cy="48" r="9" fill="#14171c"/>
<circle cx="288" cy="48" r="9" fill="#14171c"/>
<circle cx="312" cy="48" r="9" fill="#14171c"/>
<circle cx="336" cy="48" r="9" fill="#14171c"/>
<circle cx="360" cy="48" r="9" fill="#14171c"/>
<circle cx="384" cy="48" r="9" fill="#14171c"/>
<circle cx="24" cy="72" r="12" fill="rgb(94,7,0)" opacity="0.35"/>
<circle cx="24" cy="72" r="9" fill="rgb(94,7,0)"/>
<circle cx="48" cy="72" r="12" fill="rgb(155,23,0)" opacity="0.35"/>
<circle cx="48" cy="72" r="9" fill="rgb(155,23,0)"/>
<circle cx="72" cy="72" r="12" fill="rgb(199,55,0)" opacity="0.35"/>
<circle cx="72" cy="72" r="9" fill="rgb(199,55,0)"/>
<circle cx="96" cy="72" r="12" fill="rgb(199,56,0)" opacity="0.35"/>
<circle cx="96" cy="72" r="9" fill="rgb(199,56,0)"/>
<circle cx="120" cy="72" r="12" fill="rgb(76,16,0)" opacity="0.35"/>
<circle cx="120" cy="72" r="9" fill="rgb(76,16,0)"/>
<circle cx="144" cy="72" r="9" fill="#14171c"/>
<circle cx="168" cy="72" r="9" fill="#14171c"/>
<circle cx="192" cy="72" r="12" fill="rgb(72,39,0)" opacity="0.35"/>
<circle cx="192" cy="72" r="9" fill="rgb(72,39,0)"/>
<circle cx="216" cy="72" r="12" fill="rgb(201,108,0)" opacity="0.35"/>
<circle cx="216" cy="72" r="9" fill="rgb(201,108,0)"/>
<circle cx="240" cy="72" r="12" fill="rgb(72,39,0)" opacity="0.35"/>
<circle cx="240" cy="72" r="9" fill="rgb(72,39,0)"/>
<circle cx="264" cy="72" r="9" fill="#14171c"/>
<circle cx="288" cy="72" r="9" fill="#14171c"/>
<circle cx="312" cy="72" r="9" fill="#14171c"/>
<circle cx="336" cy="72" r="9" fill="#14171c"/>
<circle cx="360" cy="72" r="9" fill="#14171c"/>
<circle cx="384" cy="72" r="9" fill="#14171c"/>
<circle cx="24" cy="96" r="12" fill="rgb(43,2,0)" opacity="0.35"/>
<circle cx="24" cy="96" r="9" fill="rgb(43,2,0)"/>
<circle cx="48" cy="96" r="12" fill="rgb(21,2,0)" opacity="0.35"/>
<circle cx="48" cy="96" r="9" fill="rgb(21,2,0)"/>
<circle cx="72" cy="96" r="12" fill="rgb(51,7,0)" opacity="0.35"/>
<circle cx="72" cy="96" r="9" fill="rgb(51,7,0)"/>
<circle cx="96" cy="96" r="12" fill="rgb(37,9,0)" opacity="0.35"/>
<circle cx="96" cy="96" r="9" fill="rgb(37,9,0)"/>
<circle cx="120" cy="96" r="9" fill="#14171c"/>
<circle cx="144" cy="96" r="9" fill="#14171c"/>
<circle cx="168" cy="96" r="9" fill="#14171c"/>
<circle cx="192" cy="96" r="9" fill="#14171c"/>
<circle cx="216" cy="96" r="12" fill="rgb(38,21,0)" opacity="0.35"/>
<circle cx="216" cy="96" r="9" fill="rgb(38,21,0)"/>
<circle cx="240" cy="96" r="9" fill="#14171c"/>
<circle cx="264" cy="96" r="9" fill="#14171c"/>
<circle cx="288" cy="96" r="9" fill="#14171c"/>
<circle cx="312" cy="96" r="9" fill="#14171c"/>
<circle cx="336" cy="96" r="9" fill="#14171c"/>
<circle cx="360" cy="96" r="9" fill="#14171c"/>
<circle cx="384" cy="96" r="9" fill="#14171c"/>
<circle cx="24" cy="120" r="9" fill="#14171c"/>
<circle cx="48" cy="120" r="9" fill="#14171c"/>
<circle cx="72" cy="120" r="9" fill="#14171c"/>
<circle cx="96" cy="120" r="9" fill="#14171c"/>
<circle cx="120" cy="120" r="9" fill="#14171c"/>
<circle cx="144" cy="120" r="9" fill="#14171c"/>
<circle cx="168" cy="120" r="9" fill="#14171c"/>
<circle cx="192" cy="120" r="9" fill="#14171c"/>
<circle cx="216" cy="120" r="9" fill="#14171c"/>
<circle cx="240" cy="120" r="9" fill="#14171c"/>
<circle cx="264" cy="120" r="9" fill="#14171c"/>
<circle cx="288" cy="120" r="9" fill="#14171c"/>
<circle cx="312" cy="120" r="9" fill="#14171c"/>
<circle cx="336" cy="120" r="9" fill="#14171c"/>
<circle cx="360" cy="120" r="9" fill="#14171c"/>
<circle cx="384" cy="120" r="9" fill="#14171c"/>
<circle cx="24" cy="144" r="9" fill="#14171c"/>
<circle cx="48" cy="144" r="9" fill="#14171c"/>
<circle cx="72" cy="144" r="9" fill="#14171c"/>
<circle cx="96" cy="144" r="9" fill="#14171c"/>
<circle cx="120" cy="144" r="9" fill="#14171c"/>
<circle cx="144" cy="144" r="9" fill="#14171c"/>
<circle cx="168" cy="144" r="9" fill="#14171c"/>
<circle cx="192" cy="144" r="9" fill="#14171c"/>
<circle cx="216" cy="144" r="9" fill="#14171c"/>
<circle cx="240" cy="144" r="9" fill="#14171c"/>
<circle cx="264" cy="144" r="9" fill="#14171c"/>
<circle cx="288" cy="144" r="9" fill="#14171c"/>
<circle cx="312" cy="144" r="9" fill="#14171c"/>
<circle cx="336" cy="144" r="9" fill="#14171c"/>
<circle cx="360" cy="144" r="12" fill="rgb(0,69,61)" opacity="0.35"/>
<circle cx="360" cy="144" r="9" fill="rgb(0,69,61)"/>
<circle cx="384" cy="144" r="12" fill="rgb(0,55,54)" opacity="0.35"/>
<circle cx="384" cy="144" r="9" fill="rgb(0,55,54)"/>
<circle cx="24" cy="168" r="9" fill="#14171c"/>
<circle cx="48" cy="168" r="9" fill="#14171c"/>
<circle cx="72" cy="168" r="9" fill="#14171c"/>
<circle cx="96" cy="168" r="9" fill="#14171c"/>
<circle cx="120" cy="168" r="9" fill="#14171c"/>
<circle cx="144" cy="168" r="9" fill="#14171c"/>
<circle cx="168" cy="168" r="9" fill="#14171c"/>
<circle cx="192" cy="168" r="9" fill="#14171c"/>
<circle cx="216" cy="168" r="9" fill="#14171c"/>
<circle cx="240" cy="168" r="9" fill="#14171c"/>
<circle cx="264" cy="168" r="12" fill="rgb(3,21,8)" opacity="0.35"/>
<circle cx="264" cy="168" r="9" fill="rgb(3,21,8)"/>
<circle cx="288" cy="168" r="12" fill="rgb(2,27,12)" opacity="0.35"/>
<circle cx="288" cy="168" r="9" fill="rgb(2,27,12)"/>
<circle cx="312" cy="168" r="12" fill="rgb(2,34,21)" opacity="0.35"/>
<circle cx="312" cy="168" r="9" fill="rgb(2,34,21)"/>
<circle cx="336" cy="168" r="12" fill="rgb(0,164,139)" opacity="0.35"/>
<circle cx="336" cy="168" r="9" fill="rgb(0,164,139)"/>
<circle cx="360" cy="168" r="12" fill="rgb(0,255,255)" opacity="0.35"/>
<circle cx="360" cy="168" r="9" fill="rgb(0,255,255)"/>
<circle cx="384" cy="168" r="12" fill="rgb(0,255,249)" opacity="0.35"/>
<circle cx="384" cy="168" r="9" fill="rgb(0,255,249)"/>
<circle cx="24" cy="192" r="9" fill="#14171c"/>
<circle cx="48" cy="192" r="9" fill="#14171c"/>
<circle cx="72" cy="192" r="9" fill="#14171c"/>
<circle cx="96" cy="192" r="9" fill="#14171c"/>
<circle cx="120" cy="192" r="9" fill="#14171c"/>
<circle cx="144" cy="192" r="9" fill="#14171c"/>
<circle cx="168" cy="192" r="9" fill="#14171c"/>
<circle cx="192" cy="192" r="9" fill="#14171c"/>
<circle cx="216" cy="192" r="9" fill="#14171c"/>
<circle cx="240" cy="192" r="9" fill="#14171c"/>
<circle cx="264" cy="192" r="9" fill="#14171c"/>
<circle cx="288" cy="192" r="9" fill="#14171c"/>
<circle cx="312" cy="192" r="9" fill="#14171c"/>
<circle cx="336" cy="192" r="9" fill="#14171c"/>
<circle cx="360" cy="192" r="12" fill="rgb(0,69,61)" opacity="0.35"/>
<circle cx="360" cy="192" r="9" fill="rgb(0,69,61)"/>
<circle cx="384" cy="192" r="12" fill="rgb(0,55,54)" opacity="0.35"/>
<circle cx="384" cy="192" r="9" fill="rgb(0,55,54)"/>
<circle cx="24" cy="216" r="9" fill="#14171c"/>
<circle cx="48" cy="216" r="9" fill="#14171c"/>
<circle cx="72" cy="216" r="9" fill="#14171c"/>
<circle cx="96" cy="216" r="9" fill="#14171c"/>
<circle cx="120" cy="216" r="9" fill="#14171c"/>
<circle cx="144" cy="216" r="9" fill="#14171c"/>
<circle cx="168" cy="216" r="9" fill="#14171c"/>
<circle cx="192" cy="216" r="9" fill="#14171c"/>
<circle cx="216" cy="216" r="9" fill="#14171c"/>
<circle cx="240" cy="216" r="9" fill="#14171c"/>
<circle cx="264" cy="216" r="9" fill="#14171c"/>
<circle cx="288" cy="216" r="9" fill="#14171c"/>
<circle cx="312" cy="216" r="9" fill="#14171c"/>
<circle cx="336" cy="216" r="9" fill="#14171c"/>
<circle cx="360" cy="216" r="9" fill="#14171c"/>
<circle cx="384" cy="216" r="9" fill="#14171c"/>
<circle cx="24" cy="240" r="12" fill="rgb(0,19,9)" opacity="0.35"/>
<circle cx="24" cy="240" r="9" fill="rgb(0,19,9)"/>
<circle cx="48" cy="240" r="12" fill="rgb(0,27,14)" opacity="0.35"/>
<circle cx="48" cy="240" r="9" fill="rgb(0,27,14)"/>
<circle cx="72" cy="240" r="9" fill="#14171c"/>
<circle cx="96" cy="240" r="9" fill="#14171c"/>
<circle cx="120" cy="240" r="9" fill="#14171c"/>
<circle cx="144" cy="240" r="9" fill="#14171c"/>
<circle cx="168" cy="240" r="9" fill="#14171c"/>
<circle cx="192" cy="240" r="9" fill="#14171c"/>
<circle cx="216" cy="240" r="9" fill="#14171c"/>
<circle cx="240" cy="240" r="9" fill="#14171c"/>
<circle cx="264" cy="240" r="9" fill="#14171c"/>
<circle cx="288" cy="240" r="9" fill="#14171c"/>
<circle cx="312" cy="240" r="9" fill="#14171c"/>
<circle cx="336" cy="240" r="9" fill="#14171c"/>
<circle cx="360" cy="240" r="9" fill="#14171c"/>
<circle cx="384" cy="240" r="12" fill="rgb(11,15,46)" opacity="0.35"/>
<circle cx="384" cy="240" r="9" fill="rgb(11,15,46)"/>
<circle cx="24" cy="264" r="12" fill="rgb(0,144,67)" opacity="0.35"/>
<circle cx="24" cy="264" r="9" fill="rgb(0,144,67)"/>
<circle cx="48" cy="264" r="12" fill="rgb(0,188,101)" opacity="0.35"/>
<circle cx="48" cy="264" r="9" fill="rgb(0,188,101)"/>
<circle cx="72" cy="264" r="12" fill="rgb(0,116,73)" opacity="0.35"/>
<circle cx="72" cy="264" r="9" fill="rgb(0,116,73)"/>
<circle cx="96" cy="264" r="12" fill="rgb(0,73,59)" opacity="0.35"/>
<circle cx="96" cy="264" r="9" fill="rgb(0,73,59)"/>
<circle cx="120" cy="264" r="12" fill="rgb(0,49,46)" opacity="0.35"/>
<circle cx="120" cy="264" r="9" fill="rgb(0,49,46)"/>
<circle cx="144" cy="264" r="12" fill="rgb(0,22,23)" opacity="0.35"/>
<circle cx="144" cy="264" r="9" fill="rgb(0,22,23)"/>
<circle cx="168" cy="264" r="12" fill="rgb(0,34,44)" opacity="0.35"/>
<circle cx="168" cy="264" r="9" fill="rgb(0,34,44)"/>
<circle cx="192" cy="264" r="12" fill="rgb(2,37,44)" opacity="0.35"/>
<circle cx="192" cy="264" r="9" fill="rgb(2,37,44)"/>
<circle cx="216" cy="264" r="12" fill="rgb(2,23,34)" opacity="0.35"/>
<circle cx="216" cy="264" r="9" fill="rgb(2,23,34)"/>
<circle cx="240" cy="264" r="9" fill="#14171c"/>
<circle cx="264" cy="264" r="12" fill="rgb(2,14,21)" opacity="0.35"/>
<circle cx="264" cy="264" r="9" fill="rgb(2,14,21)"/>
<circle cx="288" cy="264" r="12" fill="rgb(2,14,21)" opacity="0.35"/>
<circle cx="288" cy="264" r="9" fill="rgb(2,14,21)"/>
<circle cx="312" cy="264" r="9" fill="#14171c"/>
<circle cx="336" cy="264" r="9" fill="#14171c"/>
<circle cx="360" cy="264" r="12" fill="rgb(22,33,95)" opacity="0.35"/>
<circle cx="360" cy="264" r="9" fill="rgb(22,33,95)"/>
<circle cx="384" cy="264" r="12" fill="rgb(56,78,252)" opacity="0.35"/>
<circle cx="384" cy="264" r="9" fill="rgb(56,78,252)"/>
<circle cx="24" cy="288" r="12" fill="rgb(0,19,9)" opacity="0.35"/>
<circle cx="24" cy="288" r="9" fill="rgb(0,19,9)"/>
<circle cx="48" cy="288" r="12" fill="rgb(0,27,14)" opacity="0.35"/>
<circle cx="48" cy="288" r="9" fill="rgb(0,27,14)"/>
<circle cx="72" cy="288" r="9" fill="#14171c"/>
<circle cx="96" cy="288" r="9" fill="#14171c"/>
<circle cx="120" cy="288" r="9" fill="#14171c"/>
<circle cx="144" cy="288" r="9" fill="#14171c"/>
<circle cx="168" cy="288" r="9" fill="#14171c"/>
<circle cx="192" cy="288" r="9" fill="#14171c"/>
<circle cx="216" cy="288" r="9" fill="#14171c"/>
<circle cx="240" cy="288" r="9" fill="#14171c"/>
<circle cx="264" cy="288" r="9" fill="#14171c"/>
<circle cx="288" cy="288" r="9" fill="#14171c"/>
<circle cx="312" cy="288" r="9" fill="#14171c"/>
<circle cx="336" cy="288" r="9" fill="#14171c"/>
<circle cx="360" cy="288" r="9" fill="#14171c"/>
<circle cx="384" cy="288" r="12" fill="rgb(11,15,46)" opacity="0.35"/>
<circle cx="384" cy="288" r="9" fill="rgb(11,15,46)"/>
<circle cx="24" cy="312" r="9" fill="#14171c"/>
<circle cx="48" cy="312" r="9" fill="#14171c"/>
<circle cx="72" cy="312" r="9" fill="#14171c"/>
<circle cx="96" cy="312" r="9" fill="#14171c"/>
<circle cx="120" cy="312" r="9" fill="#14171c"/>
<circle cx="144" cy="312" r="9" fill="#14171c"/>
<circle cx="168" cy="312" r="9" fill="#14171c"/>
<circle cx="192" cy="312" r="9" fill="#14171c"/>
<circle cx="216" cy="312" r="9" fill="#14171c"/>
<circle cx="240" cy="312" r="9" fill="#14171c"/>
<circle cx="264" cy="312" r="9" fill="#14171c"/>
<circle cx="288" cy="312" r="9" fill="#14171c"/>
<circle cx="312" cy="312" r="9" fill="#14171c"/>
<circle cx="336" cy="312" r="9" fill="#14171c"/>
<circle cx="360" cy="312" r="9" fill="#14171c"/>
<circle cx="384" cy="312" r="9" fill="#14171c"/>
<circle cx="24" cy="336" r="9" fill="#14171c"/>
<circle cx="48" cy="336" r="9" fill="#14171c"/>
<circle cx="72" cy="336" r="9" fill="#14171c"/>
<circle cx="96" cy="336" r="9" fill="#14171c"/>
<circle cx="120" cy="336" r="9" fill="#14171c"/>
<circle cx="144" cy="336" r="9" fill="#14171c"/>
<circle cx="168" cy="336" r="9" fill="#14171c"/>
<circle cx="192" cy="336" r="9" fill="#14171c"/>
<circle cx="216" cy="336" r="9" fill="#14171c"/>
<circle cx="240" cy="336" r="9" fill="#14171c"/>
<circle cx="264" cy="336" r="12" fill="rgb(35,3,46)" opacity="0.35"/>
<circle cx="264" cy="336" r="9" fill="rgb(35,3,46)"/>
<circle cx="288" cy="336" r="9" fill="#14171c"/>
<circle cx="312" cy="336" r="9" fill="#14171c"/>
<circle cx="336" cy="336" r="12" fill="rgb(20,5,0)" opacity="0.35"/>
<circle cx="336" cy="336" r="9" fill="rgb(20,5,0)"/>
<circle cx="360" cy="336" r="9" fill="#14171c"/>
<circle cx="384" cy="336" r="9" fill="#14171c"/>
<circle cx="24" cy="360" r="12" fill="rgb(5,19,21)" opacity="0.35"/>
<circle cx="24" cy="360" r="9" fill="rgb(5,19,21)"/>
<circle cx="48" cy="360" r="12" fill="rgb(5,20,27)" opacity="0.35"/>
<circle cx="48" cy="360" r="9" fill="rgb(5,20,27)"/>
<circle cx="72" cy="360" r="12" fill="rgb(5,16,34)" opacity="0.35"/>
<circle cx="72" cy="360" r="9" fill="rgb(5,16,34)"/>
<circle cx="96" cy="360" r="12" fill="rgb(9,16,44)" opacity="0.35"/>
<circle cx="96" cy="360" r="9" fill="rgb(9,16,44)"/>
<circle cx="120" cy="360" r="12" fill="rgb(9,12,39)" opacity="0.35"/>
<circle cx="120" cy="360" r="9" fill="rgb(9,12,39)"/>
<circle cx="144" cy="360" r="12" fill="rgb(8,5,24)" opacity="0.35"/>
<circle cx="144" cy="360" r="9" fill="rgb(8,5,24)"/>
<circle cx="168" cy="360" r="12" fill="rgb(21,9,48)" opacity="0.35"/>
<circle cx="168" cy="360" r="9" fill="rgb(21,9,48)"/>
<circle cx="192" cy="360" r="12" fill="rgb(27,9,53)" opacity="0.35"/>
<circle cx="192" cy="360" r="9" fill="rgb(27,9,53)"/>
<circle cx="216" cy="360" r="12" fill="rgb(20,4,32)" opacity="0.35"/>
<circle cx="216" cy="360" r="9" fill="rgb(20,4,32)"/>
<circle cx="240" cy="360" r="12" fill="rgb(101,8,136)" opacity="0.35"/>
<circle cx="240" cy="360" r="9" fill="rgb(101,8,136)"/>
<circle cx="264" cy="360" r="12" fill="rgb(206,11,255)" opacity="0.35"/>
<circle cx="264" cy="360" r="9" fill="rgb(206,11,255)"/>
<circle cx="288" cy="360" r="12" fill="rgb(96,6,88)" opacity="0.35"/>
<circle cx="288" cy="360" r="9" fill="rgb(96,6,88)"/>
<circle cx="312" cy="360" r="12" fill="rgb(114,12,2)" opacity="0.35"/>
<circle cx="312" cy="360" r="9" fill="rgb(114,12,2)"/>
<circle cx="336" cy="360" r="12" fill="rgb(129,19,0)" opacity="0.35"/>
<circle cx="336" cy="360" r="9" fill="rgb(129,19,0)"/>
<circle cx="360" cy="360" r="12" fill="rgb(37,7,0)" opacity="0.35"/>
<circle cx="360" cy="360" r="9" fill="rgb(37,7,0)"/>
<circle cx="384" cy="360" r="9" fill="#14171c"/>
<circle cx="24" cy="384" r="9" fill="#14171c"/>
<circle cx="48" cy="384" r="9" fill="#14171c"/>
<circle cx="72" cy="384" r="9" fill="#14171c"/>
<circle cx="96" cy="384" r="9" fill="#14171c"/>
<circle cx="120" cy="384" r="9" fill="#14171c"/>
<circle cx="144" cy="384" r="9" fill="#14171c"/>
<circle cx="168" cy="384" r="9" fill="#14171c"/>
<circle cx="192" cy="384" r="9" fill="#14171c"/>
<circle cx="216" cy="384" r="9" fill="#14171c"/>
<circle cx="240" cy="384" r="9" fill="#14171c"/>
<circle cx="264" cy="384" r="12" fill="rgb(35,3,46)" opacity="0.35"/>
<circle cx="264" cy="384" r="9" fill="rgb(35,3,46)"/>
<circle cx="288" cy="384" r="9" fill="#14171c"/>
<circle cx="312" cy="384" r="9" fill="#14171c"/>
<circle cx="336" cy="384" r="12" fill="rgb(20,5,0)" opacity="0.35"/>
<circle cx="336" cy="384" r="9" fill="rgb(20,5,0)"/>
<circle cx="360" cy="384" r="9" fill="#14171c"/>
<circle cx="384" cy="384" r="9" fill="#14171c"/>
</svg>
