<svg xmlns="http://www.w3.org/2000/svg" viewBox="0 0 408 408" width="408" height="408" role="img" aria-label="LED preview of the Kaleidoscope example graph">
<rect width="408" height="408" rx="10" fill="#05070a"/>
<circle cx="24" cy="24" r="9" fill="#14171c"/>
<circle cx="48" cy="24" r="9" fill="#14171c"/>
<circle cx="72" cy="24" r="9" fill="#14171c"/>
<circle cx="96" cy="24" r="9" fill="#14171c"/>
<circle cx="120" cy="24" r="9" fill="#14171c"/>
<circle cx="144" cy="24" r="9" fill="#14171c"/>
<circle cx="168" cy="24" r="9" fill="#14171c"/>
<circle cx="192" cy="24" r="9" fill="#14171c"/>
<circle cx="216" cy="24" r="9" fill="#14171c"/>
<circle cx="240" cy="24" r="9" fill="#14171c"/>
<circle cx="264" cy="24" r="9" fill="#14171c"/>
<circle cx="288" cy="24" r="9" fill="#14171c"/>
<circle cx="312" cy="24" r="9" fill="#14171c"/>
<circle cx="336" cy="24" r="9" fill="#14171c"/>
<circle cx="360" cy="24" r="9" fill="#14171c"/>
<circle cx="384" cy="24" r="9" fill="#14171c"/>
<circle cx="24" cy="48" r="9" fill="#14171c"/>
<circle cx="48" cy="48" r="12" fill="rgb(0,192,139)" opacity="0.35"/>
<circle cx="48" cy="48" r="9" fill="rgb(0,192,139)"/>
<circle cx="72" cy="48" r="12" fill="rgb(0,186,186)" opacity="0.35"/>
<circle cx="72" cy="48" r="9" fill="rgb(0,186,186)"/>
<circle cx="96" cy="48" r="12" fill="rgb(0,181,221)" opacity="0.35"/>
<circle cx="96" cy="48" r="9" fill="rgb(0,181,221)"/>
<circle cx="120" cy="48" r="12" fill="rgb(0,178,239)" opacity="0.35"/>
<circle cx="120" cy="48" r="9" fill="rgb(0,178,239)"/>
<circle cx="144" cy="48" r="12" fill="rgb(0,179,235)" opacity="0.35"/>
<circle cx="144" cy="48" r="9" fill="rgb(0,179,235)"/>
<circle cx="168" cy="48" r="12" fill="rgb(0,183,207)" opacity="0.35"/>
<circle cx="168" cy="48" r="9" fill="rgb(0,183,207)"/>
<circle cx="192" cy="48" r="12" fill="rgb(0,190,153)" opacity="0.35"/>
<circle cx="192" cy="48" r="9" fill="rgb(0,190,153)"/>
<circle cx="216" cy="48" r="12" fill="rgb(6,200,81)" opacity="0.35"/>
<circle cx="216" cy="48" r="9" fill="rgb(6,200,81)"/>
<circle cx="240" cy="48" r="12" fill="rgb(0,190,153)" opacity="0.35"/>
<circle cx="240" cy="48" r="9" fill="rgb(0,190,153)"/>
<circle cx="264" cy="48" r="12" fill="rgb(0,183,207)" opacity="0.35"/>
<circle cx="264" cy="48" r="9" fill="rgb(0,183,207)"/>
<circle cx="288" cy="48" r="12" fill="rgb(0,179,235)" opacity="0.35"/>
<circle cx="288" cy="48" r="9" fill="rgb(0,179,235)"/>
<circle cx="312" cy="48" r="12" fill="rgb(0,178,239)" opacity="0.35"/>
<circle cx="312" cy="48" r="9" fill="rgb(0,178,239)"/>
<circle cx="336" cy="48" r="12" fill="rgb(0,181,221)" opacity="0.35"/>
<circle cx="336" cy="48" r="9" fill="rgb(0,181,221)"/>
<circle cx="360" cy="48" r="12" fill="rgb(0,186,186)" opacity="0.35"/>
<circle cx="360" cy="48" r="9" fill="rgb(0,186,186)"/>
<circle cx="384" cy="48" r="12" fill="rgb(0,192,139)" opacity="0.35"/>
<circle cx="384" cy="48" r="9" fill="rgb(0,192,139)"/>
<circle cx="24" cy="72" r="9" fill="#14171c"/>
<circle cx="48" cy="72" r="12" fill="rgb(0,191,147)" opacity="0.35"/>
<circle cx="48" cy="72" r="9" fill="rgb(0,191,147)"/>
<circle cx="72" cy="72" r="12" fill="rgb(0,184,195)" opacity="0.35"/>
<circle cx="72" cy="72" r="9" fill="rgb(0,184,195)"/>
<circle cx="96" cy="72" r="12" fill="rgb(0,179,233)" opacity="0.35"/>
<circle cx="96" cy="72" r="9" fill="rgb(0,179,233)"/>
<circle cx="120" cy="72" r="12" fill="rgb(0,176,253)" opacity="0.35"/>
<circle cx="120" cy="72" r="9" fill="rgb(0,176,253)"/>
<circle cx="144" cy="72" r="12" fill="rgb(0,177,251)" opacity="0.35"/>
<circle cx="144" cy="72" r="9" fill="rgb(0,177,251)"/>
<circle cx="168" cy="72" r="12" fill="rgb(0,180,223)" opacity="0.35"/>
<circle cx="168" cy="72" r="9" fill="rgb(0,180,223)"/>
<circle cx="192" cy="72" r="12" fill="rgb(0,188,169)" opacity="0.35"/>
<circle cx="192" cy="72" r="9" fill="rgb(0,188,169)"/>
<circle cx="216" cy="72" r="12" fill="rgb(0,199,91)" opacity="0.35"/>
<circle cx="216" cy="72" r="9" fill="rgb(0,199,91)"/>
<circle cx="240" cy="72" r="12" fill="rgb(0,188,169)" opacity="0.35"/>
<circle cx="240" cy="72" r="9" fill="rgb(0,188,169)"/>
<circle cx="264" cy="72" r="12" fill="rgb(0,180,223)" opacity="0.35"/>
<circle cx="264" cy="72" r="9" fill="rgb(0,180,223)"/>
<circle cx="288" cy="72" r="12" fill="rgb(0,177,251)" opacity="0.35"/>
<circle cx="288" cy="72" r="9" fill="rgb(0,177,251)"/>
<circle cx="312" cy="72" r="12" fill="rgb(0,176,253)" opacity="0.35"/>
<circle cx="312" cy="72" r="9" fill="rgb(0,176,253)"/>
<circle cx="336" cy="72" r="12" fill="rgb(0,179,233)" opacity="0.35"/>
<circle cx="336" cy="72" r="9" fill="rgb(0,179,233)"/>
<circle cx="360" cy="72" r="12" fill="rgb(0,184,195)" opacity="0.35"/>
<circle cx="360" cy="72" r="9" fill="rgb(0,184,195)"/>
<circle cx="384" cy="72" r="12" fill="rgb(0,191,147)" opacity="0.35"/>
<circle cx="384" cy="72" r="9" fill="rgb(0,191,147)"/>
<circle cx="24" cy="96" r="9" fill="#14171c"/>
<circle cx="48" cy="96" r="12" fill="rgb(0,193,137)" opacity="0.35"/>
<circle cx="48" cy="96" r="9" fill="rgb(0,193,137)"/>
<circle cx="72" cy="96" r="12" fill="rgb(0,185,187)" opacity="0.35"/>
<circle cx="72" cy="96" r="9" fill="rgb(0,185,187)"/>
<circle cx="96" cy="96" r="12" fill="rgb(0,180,228)" opacity="0.35"/>
<circle cx="96" cy="96" r="9" fill="rgb(0,180,228)"/>
<circle cx="120" cy="96" r="12" fill="rgb(0,176,252)" opacity="0.35"/>
<circle cx="120" cy="96" r="9" fill="rgb(0,176,252)"/>
<circle cx="144" cy="96" r="12" fill="rgb(0,176,253)" opacity="0.35"/>
<circle cx="144" cy="96" r="9" fill="rgb(0,176,253)"/>
<circle cx="168" cy="96" r="12" fill="rgb(0,180,228)" opacity="0.35"/>
<circle cx="168" cy="96" r="9" fill="rgb(0,180,228)"/>
<circle cx="192" cy="96" r="12" fill="rgb(0,187,174)" opacity="0.35"/>
<circle cx="192" cy="96" r="9" fill="rgb(0,187,174)"/>
<circle cx="216" cy="96" r="12" fill="rgb(0,198,95)" opacity="0.35"/>
<circle cx="216" cy="96" r="9" fill="rgb(0,198,95)"/>
<circle cx="240" cy="96" r="12" fill="rgb(0,187,174)" opacity="0.35"/>
<circle cx="240" cy="96" r="9" fill="rgb(0,187,174)"/>
<circle cx="264" cy="96" r="12" fill="rgb(0,180,228)" opacity="0.35"/>
<circle cx="264" cy="96" r="9" fill="rgb(0,180,228)"/>
<circle cx="288" cy="96" r="12" fill="rgb(0,176,253)" opacity="0.35"/>
<circle cx="288" cy="96" r="9" fill="rgb(0,176,253)"/>
<circle cx="312" cy="96" r="12" fill="rgb(0,176,252)" opacity="0.35"/>
<circle cx="312" cy="96" r="9" fill="rgb(0,176,252)"/>
<circle cx="336" cy="96" r="12" fill="rgb(0,180,228)" opacity="0.35"/>
<circle cx="336" cy="96" r="9" fill="rgb(0,180,228)"/>
<circle cx="360" cy="96" r="12" fill="rgb(0,185,187)" opacity="0.35"/>
<circle cx="360" cy="96" r="9" fill="rgb(0,185,187)"/>
<circle cx="384" cy="96" r="12" fill="rgb(0,193,137)" opacity="0.35"/>
<circle cx="384" cy="96" r="9" fill="rgb(0,193,137)"/>
<circle cx="24" cy="120" r="9" fill="#14171c"/>
<circle cx="48" cy="120" r="12" fill="rgb(0,197,108)" opacity="0.35"/>
<circle cx="48" cy="120" r="9" fill="rgb(0,197,108)"/>
<circle cx="72" cy="120" r="12" fill="rgb(0,189,161)" opacity="0.35"/>
<circle cx="72" cy="120" r="9" fill="rgb(0,189,161)"/>
<circle cx="96" cy="120" r="12" fill="rgb(0,183,206)" opacity="0.35"/>
<circle cx="96" cy="120" r="9" fill="rgb(0,183,206)"/>
<circle cx="120" cy="120" r="12" fill="rgb(0,179,234)" opacity="0.35"/>
<circle cx="120" cy="120" r="9" fill="rgb(0,179,234)"/>
<circle cx="144" cy="120" r="12" fill="rgb(0,178,240)" opacity="0.35"/>
<circle cx="144" cy="120" r="9" fill="rgb(0,178,240)"/>
<circle cx="168" cy="120" r="12" fill="rgb(0,181,218)" opacity="0.35"/>
<circle cx="168" cy="120" r="9" fill="rgb(0,181,218)"/>
<circle cx="192" cy="120" r="12" fill="rgb(0,188,167)" opacity="0.35"/>
<circle cx="192" cy="120" r="9" fill="rgb(0,188,167)"/>
<circle cx="216" cy="120" r="12" fill="rgb(0,199,88)" opacity="0.35"/>
<circle cx="216" cy="120" r="9" fill="rgb(0,199,88)"/>
<circle cx="240" cy="120" r="12" fill="rgb(0,188,167)" opacity="0.35"/>
<circle cx="240" cy="120" r="9" fill="rgb(0,188,167)"/>
<circle cx="264" cy="120" r="12" fill="rgb(0,181,218)" opacity="0.35"/>
<circle cx="264" cy="120" r="9" fill="rgb(0,181,218)"/>
<circle cx="288" cy="120" r="12" fill="rgb(0,178,240)" opacity="0.35"/>
<circle cx="288" cy="120" r="9" fill="rgb(0,178,240)"/>
<circle cx="312" cy="120" r="12" fill="rgb(0,179,234)" opacity="0.35"/>
<circle cx="312" cy="120" r="9" fill="rgb(0,179,234)"/>
<circle cx="336" cy="120" r="12" fill="rgb(0,183,206)" opacity="0.35"/>
<circle cx="336" cy="120" r="9" fill="rgb(0,183,206)"/>
<circle cx="360" cy="120" r="12" fill="rgb(0,189,161)" opacity="0.35"/>
<circle cx="360" cy="120" r="9" fill="rgb(0,189,161)"/>
<circle cx="384" cy="120" r="12" fill="rgb(0,197,108)" opacity="0.35"/>
<circle cx="384" cy="120" r="9" fill="rgb(0,197,108)"/>
<circle cx="24" cy="144" r="9" fill="#14171c"/>
<circle cx="48" cy="144" r="12" fill="rgb(32,202,72)" opacity="0.35"/>
<circle cx="48" cy="144" r="9" fill="rgb(32,202,72)"/>
<circle cx="72" cy="144" r="12" fill="rgb(0,195,116)" opacity="0.35"/>
<circle cx="72" cy="144" r="9" fill="rgb(0,195,116)"/>
<circle cx="96" cy="144" r="12" fill="rgb(0,189,164)" opacity="0.35"/>
<circle cx="96" cy="144" r="9" fill="rgb(0,189,164)"/>
<circle cx="120" cy="144" r="12" fill="rgb(0,184,197)" opacity="0.35"/>
<circle cx="120" cy="144" r="9" fill="rgb(0,184,197)"/>
<circle cx="144" cy="144" r="12" fill="rgb(0,182,208)" opacity="0.35"/>
<circle cx="144" cy="144" r="9" fill="rgb(0,182,208)"/>
<circle cx="168" cy="144" r="12" fill="rgb(0,185,192)" opacity="0.35"/>
<circle cx="168" cy="144" r="9" fill="rgb(0,185,192)"/>
<circle cx="192" cy="144" r="12" fill="rgb(0,191,146)" opacity="0.35"/>
<circle cx="192" cy="144" r="9" fill="rgb(0,191,146)"/>
<circle cx="216" cy="144" r="12" fill="rgb(22,201,76)" opacity="0.35"/>
<circle cx="216" cy="144" r="9" fill="rgb(22,201,76)"/>
<circle cx="240" cy="144" r="12" fill="rgb(0,191,146)" opacity="0.35"/>
<circle cx="240" cy="144" r="9" fill="rgb(0,191,146)"/>
<circle cx="264" cy="144" r="12" fill="rgb(0,185,192)" opacity="0.35"/>
<circle cx="264" cy="144" r="9" fill="rgb(0,185,192)"/>
<circle cx="288" cy="144" r="12" fill="rgb(0,182,208)" opacity="0.35"/>
<circle cx="288" cy="144" r="9" fill="rgb(0,182,208)"/>
<circle cx="312" cy="144" r="12" fill="rgb(0,184,197)" opacity="0.35"/>
<circle cx="312" cy="144" r="9" fill="rgb(0,184,197)"/>
<circle cx="336" cy="144" r="12" fill="rgb(0,189,164)" opacity="0.35"/>
<circle cx="336" cy="144" r="9" fill="rgb(0,189,164)"/>
<circle cx="360" cy="144" r="12" fill="rgb(0,195,116)" opacity="0.35"/>
<circle cx="360" cy="144" r="9" fill="rgb(0,195,116)"/>
<circle cx="384" cy="144" r="12" fill="rgb(32,202,72)" opacity="0.35"/>
<circle cx="384" cy="144" r="9" fill="rgb(32,202,72)"/>
<circle cx="24" cy="168" r="9" fill="#14171c"/>
<circle cx="48" cy="168" r="12" fill="rgb(126,206,42)" opacity="0.35"/>
<circle cx="48" cy="168" r="9" fill="rgb(126,206,42)"/>
<circle cx="72" cy="168" r="12" fill="rgb(43,202,69)" opacity="0.35"/>
<circle cx="72" cy="168" r="9" fill="rgb(43,202,69)"/>
<circle cx="96" cy="168" r="12" fill="rgb(0,197,104)" opacity="0.35"/>
<circle cx="96" cy="168" r="9" fill="rgb(0,197,104)"/>
<circle cx="120" cy="168" r="12" fill="rgb(0,192,141)" opacity="0.35"/>
<circle cx="120" cy="168" r="9" fill="rgb(0,192,141)"/>
<circle cx="144" cy="168" r="12" fill="rgb(0,190,158)" opacity="0.35"/>
<circle cx="144" cy="168" r="9" fill="rgb(0,190,158)"/>
<circle cx="168" cy="168" r="12" fill="rgb(0,191,149)" opacity="0.35"/>
<circle cx="168" cy="168" r="9" fill="rgb(0,191,149)"/>
<circle cx="192" cy="168" r="12" fill="rgb(0,196,109)" opacity="0.35"/>
<circle cx="192" cy="168" r="9" fill="rgb(0,196,109)"/>
<circle cx="216" cy="168" r="12" fill="rgb(72,204,60)" opacity="0.35"/>
<circle cx="216" cy="168" r="9" fill="rgb(72,204,60)"/>
<circle cx="240" cy="168" r="12" fill="rgb(0,196,109)" opacity="0.35"/>
<circle cx="240" cy="168" r="9" fill="rgb(0,196,109)"/>
<circle cx="264" cy="168" r="12" fill="rgb(0,191,149)" opacity="0.35"/>
<circle cx="264" cy="168" r="9" fill="rgb(0,191,149)"/>
<circle cx="288" cy="168" r="12" fill="rgb(0,190,158)" opacity="0.35"/>
<circle cx="288" cy="168" r="9" fill="rgb(0,190,158)"/>
<circle cx="312" cy="168" r="12" fill="rgb(0,192,141)" opacity="0.35"/>
<circle cx="312" cy="168" r="9" fill="rgb(0,192,141)"/>
<circle cx="336" cy="168" r="12" fill="rgb(0,197,104)" opacity="0.35"/>
<circle cx="336" cy="168" r="9" fill="rgb(0,197,104)"/>
<circle cx="360" cy="168" r="12" fill="rgb(43,202,69)" opacity="0.35"/>
<circle cx="360" cy="168" r="9" fill="rgb(43,202,69)"/>
<circle cx="384" cy="168" r="12" fill="rgb(126,206,42)" opacity="0.35"/>
<circle cx="384" cy="168" r="9" fill="rgb(126,206,42)"/>
<circle cx="24" cy="192" r="9" fill="#14171c"/>
<circle cx="48" cy="192" r="12" fill="rgb(237,212,6)" opacity="0.35"/>
<circle cx="48" cy="192" r="9" fill="rgb(237,212,6)"/>
<circle cx="72" cy="192" r="12" fill="rgb(156,208,32)" opacity="0.35"/>
<circle cx="72" cy="192" r="9" fill="rgb(156,208,32)"/>
<circle cx="96" cy="192" r="12" fill="rgb(80,204,57)" opacity="0.35"/>
<circle cx="96" cy="192" r="9" fill="rgb(80,204,57)"/>
<circle cx="120" cy="192" r="12" fill="rgb(21,201,76)" opacity="0.35"/>
<circle cx="120" cy="192" r="9" fill="rgb(21,201,76)"/>
<circle cx="144" cy="192" r="12" fill="rgb(0,199,90)" opacity="0.35"/>
<circle cx="144" cy="192" r="9" fill="rgb(0,199,90)"/>
<circle cx="168" cy="192" r="12" fill="rgb(0,199,87)" opacity="0.35"/>
<circle cx="168" cy="192" r="9" fill="rgb(0,199,87)"/>
<circle cx="192" cy="192" r="12" fill="rgb(41,202,70)" opacity="0.35"/>
<circle cx="192" cy="192" r="9" fill="rgb(41,202,70)"/>
<circle cx="216" cy="192" r="12" fill="rgb(139,207,38)" opacity="0.35"/>
<circle cx="216" cy="192" r="9" fill="rgb(139,207,38)"/>
<circle cx="240" cy="192" r="12" fill="rgb(41,202,70)" opacity="0.35"/>
<circle cx="240" cy="192" r="9" fill="rgb(41,202,70)"/>
<circle cx="264" cy="192" r="12" fill="rgb(0,199,87)" opacity="0.35"/>
<circle cx="264" cy="192" r="9" fill="rgb(0,199,87)"/>
<circle cx="288" cy="192" r="12" fill="rgb(0,199,90)" opacity="0.35"/>
<circle cx="288" cy="192" r="9" fill="rgb(0,199,90)"/>
<circle cx="312" cy="192" r="12" fill="rgb(21,201,76)" opacity="0.35"/>
<circle cx="312" cy="192" r="9" fill="rgb(21,201,76)"/>
<circle cx="336" cy="192" r="12" fill="rgb(80,204,57)" opacity="0.35"/>
<circle cx="336" cy="192" r="9" fill="rgb(80,204,57)"/>
<circle cx="360" cy="192" r="12" fill="rgb(156,208,32)" opacity="0.35"/>
<circle cx="360" cy="192" r="9" fill="rgb(156,208,32)"/>
<circle cx="384" cy="192" r="12" fill="rgb(237,212,6)" opacity="0.35"/>
<circle cx="384" cy="192" r="9" fill="rgb(237,212,6)"/>
<circle cx="24" cy="216" r="9" fill="#14171c"/>
<circle cx="48" cy="216" r="12" fill="rgb(255,176,0)" opacity="0.35"/>
<circle cx="48" cy="216" r="9" fill="rgb(255,176,0)"/>
<circle cx="72" cy="216" r="12" fill="rgb(255,204,0)" opacity="0.35"/>
<circle cx="72" cy="216" r="9" fill="rgb(255,204,0)"/>
<circle cx="96" cy="216" r="12" fill="rgb(208,211,15)" opacity="0.35"/>
<circle cx="96" cy="216" r="9" fill="rgb(208,211,15)"/>
<circle cx="120" cy="216" r="12" fill="rgb(150,208,34)" opacity="0.35"/>
<circle cx="120" cy="216" r="9" fill="rgb(150,208,34)"/>
<circle cx="144" cy="216" r="12" fill="rgb(116,206,45)" opacity="0.35"/>
<circle cx="144" cy="216" r="9" fill="rgb(116,206,45)"/>
<circle cx="168" cy="216" r="12" fill="rgb(115,206,46)" opacity="0.35"/>
<circle cx="168" cy="216" r="9" fill="rgb(115,206,46)"/>
<circle cx="192" cy="216" r="12" fill="rgb(149,208,34)" opacity="0.35"/>
<circle cx="192" cy="216" r="9" fill="rgb(149,208,34)"/>
<circle cx="216" cy="216" r="12" fill="rgb(220,211,11)" opacity="0.35"/>
<circle cx="216" cy="216" r="9" fill="rgb(220,211,11)"/>
<circle cx="240" cy="216" r="12" fill="rgb(149,208,34)" opacity="0.35"/>
<circle cx="240" cy="216" r="9" fill="rgb(149,208,34)"/>
<circle cx="264" cy="216" r="12" fill="rgb(115,206,46)" opacity="0.35"/>
<circle cx="264" cy="216" r="9" fill="rgb(115,206,46)"/>
<circle cx="288" cy="216" r="12" fill="rgb(116,206,45)" opacity="0.35"/>
<circle cx="288" cy="216" r="9" fill="rgb(116,206,45)"/>
<circle cx="312" cy="216" r="12" fill="rgb(150,208,34)" opacity="0.35"/>
<circle cx="312" cy="216" r="9" fill="rgb(150,208,34)"/>
<circle cx="336" cy="216" r="12" fill="rgb(208,211,15)" opacity="0.35"/>
<circle cx="336" cy="216" r="9" fill="rgb(208,211,15)"/>
<circle cx="360" cy="216" r="12" fill="rgb(255,204,0)" opacity="0.35"/>
<circle cx="360" cy="216" r="9" fill="rgb(255,204,0)"/>
<circle cx="384" cy="216" r="12" fill="rgb(255,176,0)" opacity="0.35"/>
<circle cx="384" cy="216" r="9" fill="rgb(255,176,0)"/>
<circle cx="24" cy="240" r="9" fill="#14171c"/>
<circle cx="48" cy="240" r="12" fill="rgb(237,212,6)" opacity="0.35"/>
<circle cx="48" cy="240" r="9" fill="rgb(237,212,6)"/>
<circle cx="72" cy="240" r="12" fill="rgb(156,208,32)" opacity="0.35"/>
<circle cx="72" cy="240" r="9" fill="rgb(156,208,32)"/>
<circle cx="96" cy="240" r="12" fill="rgb(80,204,57)" opacity="0.35"/>
<circle cx="96" cy="240" r="9" fill="rgb(80,204,57)"/>
<circle cx="120" cy="240" r="12" fill="rgb(21,201,76)" opacity="0.35"/>
<circle cx="120" cy="240" r="9" fill="rgb(21,201,76)"/>
<circle cx="144" cy="240" r="12" fill="rgb(0,199,90)" opacity="0.35"/>
<circle cx="144" cy="240" r="9" fill="rgb(0,199,90)"/>
<circle cx="168" cy="240" r="12" fill="rgb(0,199,87)" opacity="0.35"/>
<circle cx="168" cy="240" r="9" fill="rgb(0,199,87)"/>
<circle cx="192" cy="240" r="12" fill="rgb(41,202,70)" opacity="0.35"/>
<circle cx="192" cy="240" r="9" fill="rgb(41,202,70)"/>
<circle cx="216" cy="240" r="12" fill="rgb(139,207,38)" opacity="0.35"/>
<circle cx="216" cy="240" r="9" fill="rgb(139,207,38)"/>
<circle cx="240" cy="240" r="12" fill="rgb(41,202,70)" opacity="0.35"/>
<circle cx="240" cy="240" r="9" fill="rgb(41,202,70)"/>
<circle cx="264" cy="240" r="12" fill="rgb(0,199,87)" opacity="0.35"/>
<circle cx="264" cy="240" r="9" fill="rgb(0,199,87)"/>
<circle cx="288" cy="240" r="12" fill="rgb(0,199,90)" opacity="0.35"/>
<circle cx="288" cy="240" r="9" fill="rgb(0,199,90)"/>
<circle cx="312" cy="240" r="12" fill="rgb(21,201,76)" opacity="0.35"/>
<circle cx="312" cy="240" r="9" fill="rgb(21,201,76)"/>
<circle cx="336" cy="240" r="12" fill="rgb(80,204,57)" opacity="0.35"/>
<circle cx="336" cy="240" r="9" fill="rgb(80,204,57)"/>
<circle cx="360" cy="240" r="12" fill="rgb(156,208,32)" opacity="0.35"/>
<circle cx="360" cy="240" r="9" fill="rgb(156,208,32)"/>
<circle cx="384" cy="240" r="12" fill="rgb(237,212,6)" opacity="0.35"/>
<circle cx="384" cy="240" r="9" fill="rgb(237,212,6)"/>
<circle cx="24" cy="264" r="9" fill="#14171c"/>
<circle cx="48" cy="264" r="12" fill="rgb(126,206,42)" opacity="0.35"/>
<circle cx="48" cy="264" r="9" fill="rgb(126,206,42)"/>
<circle cx="72" cy="264" r="12" fill="rgb(43,202,69)" opacity="0.35"/>
<circle cx="72" cy="264" r="9" fill="rgb(43,202,69)"/>
<circle cx="96" cy="264" r="12" fill="rgb(0,197,104)" opacity="0.35"/>
<circle cx="96" cy="264" r="9" fill="rgb(0,197,104)"/>
<circle cx="120" cy="264" r="12" fill="rgb(0,192,141)" opacity="0.35"/>
<circle cx="120" cy="264" r="9" fill="rgb(0,192,141)"/>
<circle cx="144" cy="264" r="12" fill="rgb(0,190,158)" opacity="0.35"/>
<circle cx="144" cy="264" r="9" fill="rgb(0,190,158)"/>
<circle cx="168" cy="264" r="12" fill="rgb(0,191,149)" opacity="0.35"/>
<circle cx="168" cy="264" r="9" fill="rgb(0,191,149)"/>
<circle cx="192" cy="264" r="12" fill="rgb(0,196,109)" opacity="0.35"/>
<circle cx="192" cy="264" r="9" fill="rgb(0,196,109)"/>
<circle cx="216" cy="264" r="12" fill="rgb(72,204,60)" opacity="0.35"/>
<circle cx="216" cy="264" r="9" fill="rgb(72,204,60)"/>
<circle cx="240" cy="264" r="12" fill="rgb(0,196,109)" opacity="0.35"/>
<circle cx="240" cy="264" r="9" fill="rgb(0,196,109)"/>
<circle cx="264" cy="264" r="12" fill="rgb(0,191,149)" opacity="0.35"/>
<circle cx="264" cy="264" r="9" fill="rgb(0,191,149)"/>
<circle cx="288" cy="264" r="12" fill="rgb(0,190,158)" opacity="0.35"/>
<circle cx="288" cy="264" r="9" fill="rgb(0,190,158)"/>
<circle cx="312" cy="264" r="12" fill="rgb(0,192,141)" opacity="0.35"/>
<circle cx="312" cy="264" r="9" fill="rgb(0,192,141)"/>
<circle cx="336" cy="264" r="12" fill="rgb(0,197,104)" opacity="0.35"/>
<circle cx="336" cy="264" r="9" fill="rgb(0,197,104)"/>
<circle cx="360" cy="264" r="12" fill="rgb(43,202,69)" opacity="0.35"/>
<circle cx="360" cy="264" r="9" fill="rgb(43,202,69)"/>
<circle cx="384" cy="264" r="12" fill="rgb(126,206,42)" opacity="0.35"/>
<circle cx="384" cy="264" r="9" fill="rgb(126,206,42)"/>
<circle cx="24" cy="288" r="9" fill="#14171c"/>
<circle cx="48" cy="288" r="12" fill="rgb(32,202,72)" opacity="0.35"/>
<circle cx="48" cy="288" r="9" fill="rgb(32,202,72)"/>
<circle cx="72" cy="288" r="12" fill="rgb(0,195,116)" opacity="0.35"/>
<circle cx="72" cy="288" r="9" fill="rgb(0,195,116)"/>
<circle cx="96" cy="288" r="12" fill="rgb(0,189,164)" opacity="0.35"/>
<circle cx="96" cy="288" r="9" fill="rgb(0,189,164)"/>
<circle cx="120" cy="288" r="12" fill="rgb(0,184,197)" opacity="0.35"/>
<circle cx="120" cy="288" r="9" fill="rgb(0,184,197)"/>
<circle cx="144" cy="288" r="12" fill="rgb(0,182,208)" opacity="0.35"/>
<circle cx="144" cy="288" r="9" fill="rgb(0,182,208)"/>
<circle cx="168" cy="288" r="12" fill="rgb(0,185,192)" opacity="0.35"/>
<circle cx="168" cy="288" r="9" fill="rgb(0,185,192)"/>
<circle cx="192" cy="288" r="12" fill="rgb(0,191,146)" opacity="0.35"/>
<circle cx="192" cy="288" r="9" fill="rgb(0,191,146)"/>
<circle cx="216" cy="288" r="12" fill="rgb(22,201,76)" opacity="0.35"/>
<circle cx="216" cy="288" r="9" fill="rgb(22,201,76)"/>
<circle cx="240" cy="288" r="12" fill="rgb(0,191,146)" opacity="0.35"/>
<circle cx="240" cy="288" r="9" fill="rgb(0,191,146)"/>
<circle cx="264" cy="288" r="12" fill="rgb(0,185,192)" opacity="0.35"/>
<circle cx="264" cy="288" r="9" fill="rgb(0,185,192)"/>
<circle cx="288" cy="288" r="12" fill="rgb(0,182,208)" opacity="0.35"/>
<circle cx="288" cy="288" r="9" fill="rgb(0,182,208)"/>
<circle cx="312" cy="288" r="12" fill="rgb(0,184,197)" opacity="0.35"/>
<circle cx="312" cy="288" r="9" fill="rgb(0,184,197)"/>
<circle cx="336" cy="288" r="12" fill="rgb(0,189,164)" opacity="0.35"/>
<circle cx="336" cy="288" r="9" fill="rgb(0,189,164)"/>
<circle cx="360" cy="288" r="12" fill="rgb(0,195,116)" opacity="0.35"/>
<circle cx="360" cy="288" r="9" fill="rgb(0,195,116)"/>
<circle cx="384" cy="288" r="12" fill="rgb(32,202,72)" opacity="0.35"/>
<circle cx="384" cy="288" r="9" fill="rgb(32,202,72)"/>
<circle cx="24" cy="312" r="9" fill="#14171c"/>
<circle cx="48" cy="312" r="12" fill="rgb(0,197,108)" opacity="0.35"/>
<circle cx="48" cy="312" r="9" fill="rgb(0,197,108)"/>
<circle cx="72" cy="312" r="12" fill="rgb(0,189,161)" opacity="0.35"/>
<circle cx="72" cy="312" r="9" fill="rgb(0,189,161)"/>
<circle cx="96" cy="312" r="12" fill="rgb(0,183,206)" opacity="0.35"/>
<circle cx="96" cy="312" r="9" fill="rgb(0,183,206)"/>
<circle cx="120" cy="312" r="12" fill="rgb(0,179,234)" opacity="0.35"/>
<circle cx="120" cy="312" r="9" fill="rgb(0,179,234)"/>
<circle cx="144" cy="312" r="12" fill="rgb(0,178,240)" opacity="0.35"/>
<circle cx="144" cy="312" r="9" fill="rgb(0,178,240)"/>
<circle cx="168" cy="312" r="12" fill="rgb(0,181,218)" opacity="0.35"/>
<circle cx="168" cy="312" r="9" fill="rgb(0,181,218)"/>
<circle cx="192" cy="312" r="12" fill="rgb(0,188,167)" opacity="0.35"/>
<circle cx="192" cy="312" r="9" fill="rgb(0,188,167)"/>
<circle cx="216" cy="312" r="12" fill="rgb(0,199,88)" opacity="0.35"/>
<circle cx="216" cy="312" r="9" fill="rgb(0,199,88)"/>
<circle cx="240" cy="312" r="12" fill="rgb(0,188,167)" opacity="0.35"/>
<circle cx="240" cy="312" r="9" fill="rgb(0,188,167)"/>
<circle cx="264" cy="312" r="12" fill="rgb(0,181,218)" opacity="0.35"/>
<circle cx="264" cy="312" r="9" fill="rgb(0,181,218)"/>
<circle cx="288" cy="312" r="12" fill="rgb(0,178,240)" opacity="0.35"/>
<circle cx="288" cy="312" r="9" fill="rgb(0,178,240)"/>
<circle cx="312" cy="312" r="12" fill="rgb(0,179,234)" opacity="0.35"/>
<circle cx="312" cy="312" r="9" fill="rgb(0,179,234)"/>
<circle cx="336" cy="312" r="12" fill="rgb(0,183,206)" opacity="0.35"/>
<circle cx="336" cy="312" r="9" fill="rgb(0,183,206)"/>
<circle cx="360" cy="312" r="12" fill="rgb(0,189,161)" opacity="0.35"/>
<circle cx="360" cy="312" r="9" fill="rgb(0,189,161)"/>
<circle cx="384" cy="312" r="12" fill="rgb(0,197,108)" opacity="0.35"/>
<circle cx="384" cy="312" r="9" fill="rgb(0,197,108)"/>
<circle cx="24" cy="336" r="9" fill="#14171c"/>
<circle cx="48" cy="336" r="12" fill="rgb(0,193,137)" opacity="0.35"/>
<circle cx="48" cy="336" r="9" fill="rgb(0,193,137)"/>
<circle cx="72" cy="336" r="12" fill="rgb(0,185,187)" opacity="0.35"/>
<circle cx="72" cy="336" r="9" fill="rgb(0,185,187)"/>
<circle cx="96" cy="336" r="12" fill="rgb(0,180,228)" opacity="0.35"/>
<circle cx="96" cy="336" r="9" fill="rgb(0,180,228)"/>
<circle cx="120" cy="336" r="12" fill="rgb(0,176,252)" opacity="0.35"/>
<circle cx="120" cy="336" r="9" fill="rgb(0,176,252)"/>
<circle cx="144" cy="336" r="12" fill="rgb(0,176,253)" opacity="0.35"/>
<circle cx="144" cy="336" r="9" fill="rgb(0,176,253)"/>
<circle cx="168" cy="336" r="12" fill="rgb(0,180,228)" opacity="0.35"/>
<circle cx="168" cy="336" r="9" fill="rgb(0,180,228)"/>
<circle cx="192" cy="336" r="12" fill="rgb(0,187,174)" opacity="0.35"/>
<circle cx="192" cy="336" r="9" fill="rgb(0,187,174)"/>
<circle cx="216" cy="336" r="12" fill="rgb(0,198,95)" opacity="0.35"/>
<circle cx="216" cy="336" r="9" fill="rgb(0,198,95)"/>
<circle cx="240" cy="336" r="12" fill="rgb(0,187,174)" opacity="0.35"/>
<circle cx="240" cy="336" r="9" fill="rgb(0,187,174)"/>
<circle cx="264" cy="336" r="12" fill="rgb(0,180,228)" opacity="0.35"/>
<circle cx="264" cy="336" r="9" fill="rgb(0,180,228)"/>
<circle cx="288" cy="336" r="12" fill="rgb(0,176,253)" opacity="0.35"/>
<circle cx="288" cy="336" r="9" fill="rgb(0,176,253)"/>
<circle cx="312" cy="336" r="12" fill="rgb(0,176,252)" opacity="0.35"/>
<circle cx="312" cy="336" r="9" fill="rgb(0,176,252)"/>
<circle cx="336" cy="336" r="12" fill="rgb(0,180,228)" opacity="0.35"/>
<circle cx="336" cy="336" r="9" fill="rgb(0,180,228)"/>
<circle cx="360" cy="336" r="12" fill="rgb(0,185,187)" opacity="0.35"/>
<circle cx="360" cy="336" r="9" fill="rgb(0,185,187)"/>
<circle cx="384" cy="336" r="12" fill="rgb(0,193,137)" opacity="0.35"/>
<circle cx="384" cy="336" r="9" fill="rgb(0,193,137)"/>
<circle cx="24" cy="360" r="9" fill="#14171c"/>
<circle cx="48" cy="360" r="12" fill="rgb(0,191,147)" opacity="0.35"/>
<circle cx="48" cy="360" r="9" fill="rgb(0,191,147)"/>
<circle cx="72" cy="360" r="12" fill="rgb(0,184,195)" opacity="0.35"/>
<circle cx="72" cy="360" r="9" fill="rgb(0,184,195)"/>
<circle cx="96" cy="360" r="12" fill="rgb(0,179,233)" opacity="0.35"/>
<circle cx="96" cy="360" r="9" fill="rgb(0,179,233)"/>
<circle cx="120" cy="360" r="12" fill="rgb(0,176,253)" opacity="0.35"/>
<circle cx="120" cy="360" r="9" fill="rgb(0,176,253)"/>
<circle cx="144" cy="360" r="12" fill="rgb(0,177,251)" opacity="0.35"/>
<circle cx="144" cy="360" r="9" fill="rgb(0,177,251)"/>
<circle cx="168" cy="360" r="12" fill="rgb(0,180,223)" opacity="0.35"/>
<circle cx="168" cy="360" r="9" fill="rgb(0,180,223)"/>
<circle cx="192" cy="360" r="12" fill="rgb(0,188,169)" opacity="0.35"/>
<circle cx="192" cy="360" r="9" fill="rgb(0,188,169)"/>
<circle cx="216" cy="360" r="12" fill="rgb(0,199,91)" opacity="0.35"/>
<circle cx="216" cy="360" r="9" fill="rgb(0,199,91)"/>
<circle cx="240" cy="360" r="12" fill="rgb(0,188,169)" opacity="0.35"/>
<circle cx="240" cy="360" r="9" fill="rgb(0,188,169)"/>
<circle cx="264" cy="360" r="12" fill="rgb(0,180,223)" opacity="0.35"/>
<circle cx="264" cy="360" r="9" fill="rgb(0,180,223)"/>
<circle cx="288" cy="360" r="12" fill="rgb(0,177,251)" opacity="0.35"/>
<circle cx="288" cy="360" r="9" fill="rgb(0,177,251)"/>
<circle cx="312" cy="360" r="12" fill="rgb(0,176,253)" opacity="0.35"/>
<circle cx="312" cy="360" r="9" fill="rgb(0,176,253)"/>
<circle cx="336" cy="360" r="12" fill="rgb(0,179,233)" opacity="0.35"/>
<circle cx="336" cy="360" r="9" fill="rgb(0,179,233)"/>
<circle cx="360" cy="360" r="12" fill="rgb(0,184,195)" opacity="0.35"/>
<circle cx="360" cy="360" r="9" fill="rgb(0,184,195)"/>
<circle cx="384" cy="360" r="12" fill="rgb(0,191,147)" opacity="0.35"/>
<circle cx="384" cy="360" r="9" fill="rgb(0,191,147)"/>
<circle cx="24" cy="384" r="9" fill="#14171c"/>
<circle cx="48" cy="384" r="12" fill="rgb(0,192,139)" opacity="0.35"/>
<circle cx="48" cy="384" r="9" fill="rgb(0,192,139)"/>
<circle cx="72" cy="384" r="12" fill="rgb(0,186,186)" opacity="0.35"/>
<circle cx="72" cy="384" r="9" fill="rgb(0,186,186)"/>
<circle cx="96" cy="384" r="12" fill="rgb(0,181,221)" opacity="0.35"/>
<circle cx="96" cy="384" r="9" fill="rgb(0,181,221)"/>
<circle cx="120" cy="384" r="12" fill="rgb(0,178,239)" opacity="0.35"/>
<circle cx="120" cy="384" r="9" fill="rgb(0,178,239)"/>
<circle cx="144" cy="384" r="12" fill="rgb(0,179,235)" opacity="0.35"/>
<circle cx="144" cy="384" r="9" fill="rgb(0,179,235)"/>
<circle cx="168" cy="384" r="12" fill="rgb(0,183,207)" opacity="0.35"/>
<circle cx="168" cy="384" r="9" fill="rgb(0,183,207)"/>
<circle cx="192" cy="384" r="12" fill="rgb(0,190,153)" opacity="0.35"/>
<circle cx="192" cy="384" r="9" fill="rgb(0,190,153)"/>
<circle cx="216" cy="384" r="12" fill="rgb(6,200,81)" opacity="0.35"/>
<circle cx="216" cy="384" r="9" fill="rgb(6,200,81)"/>
<circle cx="240" cy="384" r="12" fill="rgb(0,190,153)" opacity="0.35"/>
<circle cx="240" cy="384" r="9" fill="rgb(0,190,153)"/>
<circle cx="264" cy="384" r="12" fill="rgb(0,183,207)" opacity="0.35"/>
<circle cx="264" cy="384" r="9" fill="rgb(0,183,207)"/>
<circle cx="288" cy="384" r="12" fill="rgb(0,179,235)" opacity="0.35"/>
<circle cx="288" cy="384" r="9" fill="rgb(0,179,235)"/>
<circle cx="312" cy="384" r="12" fill="rgb(0,178,239)" opacity="0.35"/>
<circle cx="312" cy="384" r="9" fill="rgb(0,178,239)"/>
<circle cx="336" cy="384" r="12" fill="rgb(0,181,221)" opacity="0.35"/>
<circle cx="336" cy="384" r="9" fill="rgb(0,181,221)"/>
<circle cx="360" cy="384" r="12" fill="rgb(0,186,186)" opacity="0.35"/>
<circle cx="360" cy="384" r="9" fill="rgb(0,186,186)"/>
<circle cx="384" cy="384" r="12" fill="rgb(0,192,139)" opacity="0.35"/>
<circle cx="384" cy="384" r="9" fill="rgb(0,192,139)"/>
</svg>
