<svg xmlns="http://www.w3.org/2000/svg" viewBox="0 0 408 408" width="408" height="408" role="img" aria-label="LED preview of the Kaleidoscope example graph">
<rect width="408" height="408" rx="10" fill="#05070a"/>
<circle cx="24" cy="24" r="9" fill="#14171c"/>
<circle cx="48" cy="24" r="9" fill="#14171c"/>
<circle cx="72" cy="24" r="9" fill="#14171c"/>
<circle cx="96" cy="24" r="9" fill="#14171c"/>
<circle cx="120" cy="24" r="9" fill="#14171c"/>
<circle cx="144" cy="24" r="9" fill="#14171c"/>
<circle cx="168" cy="24" r="9" fill="#14171c"/>
<circle cx="192" cy="24" r="9" fill="#14171c"/>
<circle cx="216" cy="24" r="9" fill="#14171c"/>
<circle cx="240" cy="24" r="9" fill="#14171c"/>
<circle cx="264" cy="24" r="9" fill="#14171c"/>
<circle cx="288" cy="24" r="9" fill="#14171c"/>
<circle cx="312" cy="24" r="9" fill="#14171c"/>
<circle cx="336" cy="24" r="9" fill="#14171c"/>
<circle cx="360" cy="24" r="9" fill="#14171c"/>
<circle cx="384" cy="24" r="9" fill="#14171c"/>
<circle cx="24" cy="48" r="9" fill="#14171c"/>
<circle cx="48" cy="48" r="12" fill="rgb(255,122,0)" opacity="0.35"/>
<circle cx="48" cy="48" r="9" fill="rgb(255,122,0)"/>
<circle cx="72" cy="48" r="12" fill="rgb(255,124,0)" opacity="0.35"/>
<circle cx="72" cy="48" r="9" fill="rgb(255,124,0)"/>
<circle cx="96" cy="48" r="12" fill="rgb(255,158,0)" opacity="0.35"/>
<circle cx="96" cy="48" r="9" fill="rgb(255,158,0)"/>
<circle cx="120" cy="48" r="12" fill="rgb(246,213,3)" opacity="0.35"/>
<circle cx="120" cy="48" r="9" fill="rgb(246,213,3)"/>
<circle cx="144" cy="48" r="12" fill="rgb(57,203,65)" opacity="0.35"/>
<circle cx="144" cy="48" r="9" fill="rgb(57,203,65)"/>
<circle cx="168" cy="48" r="12" fill="rgb(0,189,159)" opacity="0.35"/>
<circle cx="168" cy="48" r="9" fill="rgb(0,189,159)"/>
<circle cx="192" cy="48" r="12" fill="rgb(0,179,233)" opacity="0.35"/>
<circle cx="192" cy="48" r="9" fill="rgb(0,179,233)"/>
<circle cx="216" cy="48" r="12" fill="rgb(0,177,247)" opacity="0.35"/>
<circle cx="216" cy="48" r="9" fill="rgb(0,177,247)"/>
<circle cx="240" cy="48" r="12" fill="rgb(0,179,233)" opacity="0.35"/>
<circle cx="240" cy="48" r="9" fill="rgb(0,179,233)"/>
<circle cx="264" cy="48" r="12" fill="rgb(0,189,159)" opacity="0.35"/>
<circle cx="264" cy="48" r="9" fill="rgb(0,189,159)"/>
<circle cx="288" cy="48" r="12" fill="rgb(57,203,65)" opacity="0.35"/>
<circle cx="288" cy="48" r="9" fill="rgb(57,203,65)"/>
<circle cx="312" cy="48" r="12" fill="rgb(246,213,3)" opacity="0.35"/>
<circle cx="312" cy="48" r="9" fill="rgb(246,213,3)"/>
<circle cx="336" cy="48" r="12" fill="rgb(255,158,0)" opacity="0.35"/>
<circle cx="336" cy="48" r="9" fill="rgb(255,158,0)"/>
<circle cx="360" cy="48" r="12" fill="rgb(255,124,0)" opacity="0.35"/>
<circle cx="360" cy="48" r="9" fill="rgb(255,124,0)"/>
<circle cx="384" cy="48" r="12" fill="rgb(255,122,0)" opacity="0.35"/>
<circle cx="384" cy="48" r="9" fill="rgb(255,122,0)"/>
<circle cx="24" cy="72" r="9" fill="#14171c"/>
<circle cx="48" cy="72" r="12" fill="rgb(255,189,0)" opacity="0.35"/>
<circle cx="48" cy="72" r="9" fill="rgb(255,189,0)"/>
<circle cx="72" cy="72" r="12" fill="rgb(255,191,0)" opacity="0.35"/>
<circle cx="72" cy="72" r="9" fill="rgb(255,191,0)"/>
<circle cx="96" cy="72" r="12" fill="rgb(220,211,11)" opacity="0.35"/>
<circle cx="96" cy="72" r="9" fill="rgb(220,211,11)"/>
<circle cx="120" cy="72" r="12" fill="rgb(58,203,64)" opacity="0.35"/>
<circle cx="120" cy="72" r="9" fill="rgb(58,203,64)"/>
<circle cx="144" cy="72" r="12" fill="rgb(0,188,172)" opacity="0.35"/>
<circle cx="144" cy="72" r="9" fill="rgb(0,188,172)"/>
<circle cx="168" cy="72" r="12" fill="rgb(9,158,255)" opacity="0.35"/>
<circle cx="168" cy="72" r="9" fill="rgb(9,158,255)"/>
<circle cx="192" cy="72" r="12" fill="rgb(29,117,254)" opacity="0.35"/>
<circle cx="192" cy="72" r="9" fill="rgb(29,117,254)"/>
<circle cx="216" cy="72" r="12" fill="rgb(33,109,254)" opacity="0.35"/>
<circle cx="216" cy="72" r="9" fill="rgb(33,109,254)"/>
<circle cx="240" cy="72" r="12" fill="rgb(29,117,254)" opacity="0.35"/>
<circle cx="240" cy="72" r="9" fill="rgb(29,117,254)"/>
<circle cx="264" cy="72" r="12" fill="rgb(9,158,255)" opacity="0.35"/>
<circle cx="264" cy="72" r="9" fill="rgb(9,158,255)"/>
<circle cx="288" cy="72" r="12" fill="rgb(0,188,172)" opacity="0.35"/>
<circle cx="288" cy="72" r="9" fill="rgb(0,188,172)"/>
<circle cx="312" cy="72" r="12" fill="rgb(58,203,64)" opacity="0.35"/>
<circle cx="312" cy="72" r="9" fill="rgb(58,203,64)"/>
<circle cx="336" cy="72" r="12" fill="rgb(220,211,11)" opacity="0.35"/>
<circle cx="336" cy="72" r="9" fill="rgb(220,211,11)"/>
<circle cx="360" cy="72" r="12" fill="rgb(255,191,0)" opacity="0.35"/>
<circle cx="360" cy="72" r="9" fill="rgb(255,191,0)"/>
<circle cx="384" cy="72" r="12" fill="rgb(255,189,0)" opacity="0.35"/>
<circle cx="384" cy="72" r="9" fill="rgb(255,189,0)"/>
<circle cx="24" cy="96" r="9" fill="#14171c"/>
<circle cx="48" cy="96" r="12" fill="rgb(146,207,36)" opacity="0.35"/>
<circle cx="48" cy="96" r="9" fill="rgb(146,207,36)"/>
<circle cx="72" cy="96" r="12" fill="rgb(140,207,37)" opacity="0.35"/>
<circle cx="72" cy="96" r="9" fill="rgb(140,207,37)"/>
<circle cx="96" cy="96" r="12" fill="rgb(45,202,68)" opacity="0.35"/>
<circle cx="96" cy="96" r="9" fill="rgb(45,202,68)"/>
<circle cx="120" cy="96" r="12" fill="rgb(0,189,162)" opacity="0.35"/>
<circle cx="120" cy="96" r="9" fill="rgb(0,189,162)"/>
<circle cx="144" cy="96" r="12" fill="rgb(10,156,255)" opacity="0.35"/>
<circle cx="144" cy="96" r="9" fill="rgb(10,156,255)"/>
<circle cx="168" cy="96" r="12" fill="rgb(42,92,254)" opacity="0.35"/>
<circle cx="168" cy="96" r="9" fill="rgb(42,92,254)"/>
<circle cx="192" cy="96" r="12" fill="rgb(97,56,253)" opacity="0.35"/>
<circle cx="192" cy="96" r="9" fill="rgb(97,56,253)"/>
<circle cx="216" cy="96" r="12" fill="rgb(110,49,252)" opacity="0.35"/>
<circle cx="216" cy="96" r="9" fill="rgb(110,49,252)"/>
<circle cx="240" cy="96" r="12" fill="rgb(97,56,253)" opacity="0.35"/>
<circle cx="240" cy="96" r="9" fill="rgb(97,56,253)"/>
<circle cx="264" cy="96" r="12" fill="rgb(42,92,254)" opacity="0.35"/>
<circle cx="264" cy="96" r="9" fill="rgb(42,92,254)"/>
<circle cx="288" cy="96" r="12" fill="rgb(10,156,255)" opacity="0.35"/>
<circle cx="288" cy="96" r="9" fill="rgb(10,156,255)"/>
<circle cx="312" cy="96" r="12" fill="rgb(0,189,162)" opacity="0.35"/>
<circle cx="312" cy="96" r="9" fill="rgb(0,189,162)"/>
<circle cx="336" cy="96" r="12" fill="rgb(45,202,68)" opacity="0.35"/>
<circle cx="336" cy="96" r="9" fill="rgb(45,202,68)"/>
<circle cx="360" cy="96" r="12" fill="rgb(140,207,37)" opacity="0.35"/>
<circle cx="360" cy="96" r="9" fill="rgb(140,207,37)"/>
<circle cx="384" cy="96" r="12" fill="rgb(146,207,36)" opacity="0.35"/>
<circle cx="384" cy="96" r="9" fill="rgb(146,207,36)"/>
<circle cx="24" cy="120" r="9" fill="#14171c"/>
<circle cx="48" cy="120" r="12" fill="rgb(26,201,75)" opacity="0.35"/>
<circle cx="48" cy="120" r="9" fill="rgb(26,201,75)"/>
<circle cx="72" cy="120" r="12" fill="rgb(21,201,76)" opacity="0.35"/>
<circle cx="72" cy="120" r="9" fill="rgb(21,201,76)"/>
<circle cx="96" cy="120" r="12" fill="rgb(0,193,133)" opacity="0.35"/>
<circle cx="96" cy="120" r="9" fill="rgb(0,193,133)"/>
<circle cx="120" cy="120" r="12" fill="rgb(0,178,243)" opacity="0.35"/>
<circle cx="120" cy="120" r="9" fill="rgb(0,178,243)"/>
<circle cx="144" cy="120" r="12" fill="rgb(32,111,254)" opacity="0.35"/>
<circle cx="144" cy="120" r="9" fill="rgb(32,111,254)"/>
<circle cx="168" cy="120" r="12" fill="rgb(104,52,252)" opacity="0.35"/>
<circle cx="168" cy="120" r="9" fill="rgb(104,52,252)"/>
<circle cx="192" cy="120" r="12" fill="rgb(174,19,250)" opacity="0.35"/>
<circle cx="192" cy="120" r="9" fill="rgb(174,19,250)"/>
<circle cx="216" cy="120" r="12" fill="rgb(188,12,250)" opacity="0.35"/>
<circle cx="216" cy="120" r="9" fill="rgb(188,12,250)"/>
<circle cx="240" cy="120" r="12" fill="rgb(174,19,250)" opacity="0.35"/>
<circle cx="240" cy="120" r="9" fill="rgb(174,19,250)"/>
<circle cx="264" cy="120" r="12" fill="rgb(104,52,252)" opacity="0.35"/>
<circle cx="264" cy="120" r="9" fill="rgb(104,52,252)"/>
<circle cx="288" cy="120" r="12" fill="rgb(32,111,254)" opacity="0.35"/>
<circle cx="288" cy="120" r="9" fill="rgb(32,111,254)"/>
<circle cx="312" cy="120" r="12" fill="rgb(0,178,243)" opacity="0.35"/>
<circle cx="312" cy="120" r="9" fill="rgb(0,178,243)"/>
<circle cx="336" cy="120" r="12" fill="rgb(0,193,133)" opacity="0.35"/>
<circle cx="336" cy="120" r="9" fill="rgb(0,193,133)"/>
<circle cx="360" cy="120" r="12" fill="rgb(21,201,76)" opacity="0.35"/>
<circle cx="360" cy="120" r="9" fill="rgb(21,201,76)"/>
<circle cx="384" cy="120" r="12" fill="rgb(26,201,75)" opacity="0.35"/>
<circle cx="384" cy="120" r="9" fill="rgb(26,201,75)"/>
<circle cx="24" cy="144" r="9" fill="#14171c"/>
<circle cx="48" cy="144" r="12" fill="rgb(0,199,89)" opacity="0.35"/>
<circle cx="48" cy="144" r="9" fill="rgb(0,199,89)"/>
<circle cx="72" cy="144" r="12" fill="rgb(0,199,92)" opacity="0.35"/>
<circle cx="72" cy="144" r="9" fill="rgb(0,199,92)"/>
<circle cx="96" cy="144" r="12" fill="rgb(0,190,157)" opacity="0.35"/>
<circle cx="96" cy="144" r="9" fill="rgb(0,190,157)"/>
<circle cx="120" cy="144" r="12" fill="rgb(3,170,255)" opacity="0.35"/>
<circle cx="120" cy="144" r="9" fill="rgb(3,170,255)"/>
<circle cx="144" cy="144" r="12" fill="rgb(39,98,254)" opacity="0.35"/>
<circle cx="144" cy="144" r="9" fill="rgb(39,98,254)"/>
<circle cx="168" cy="144" r="12" fill="rgb(126,42,252)" opacity="0.35"/>
<circle cx="168" cy="144" r="9" fill="rgb(126,42,252)"/>
<circle cx="192" cy="144" r="12" fill="rgb(196,8,250)" opacity="0.35"/>
<circle cx="192" cy="144" r="9" fill="rgb(196,8,250)"/>
<circle cx="216" cy="144" r="12" fill="rgb(210,1,249)" opacity="0.35"/>
<circle cx="216" cy="144" r="9" fill="rgb(210,1,249)"/>
<circle cx="240" cy="144" r="12" fill="rgb(196,8,250)" opacity="0.35"/>
<circle cx="240" cy="144" r="9" fill="rgb(196,8,250)"/>
<circle cx="264" cy="144" r="12" fill="rgb(126,42,252)" opacity="0.35"/>
<circle cx="264" cy="144" r="9" fill="rgb(126,42,252)"/>
<circle cx="288" cy="144" r="12" fill="rgb(39,98,254)" opacity="0.35"/>
<circle cx="288" cy="144" r="9" fill="rgb(39,98,254)"/>
<circle cx="312" cy="144" r="12" fill="rgb(3,170,255)" opacity="0.35"/>
<circle cx="312" cy="144" r="9" fill="rgb(3,170,255)"/>
<circle cx="336" cy="144" r="12" fill="rgb(0,190,157)" opacity="0.35"/>
<circle cx="336" cy="144" r="9" fill="rgb(0,190,157)"/>
<circle cx="360" cy="144" r="12" fill="rgb(0,199,92)" opacity="0.35"/>
<circle cx="360" cy="144" r="9" fill="rgb(0,199,92)"/>
<circle cx="384" cy="144" r="12" fill="rgb(0,199,89)" opacity="0.35"/>
<circle cx="384" cy="144" r="9" fill="rgb(0,199,89)"/>
<circle cx="24" cy="168" r="9" fill="#14171c"/>
<circle cx="48" cy="168" r="12" fill="rgb(50,203,67)" opacity="0.35"/>
<circle cx="48" cy="168" r="9" fill="rgb(50,203,67)"/>
<circle cx="72" cy="168" r="12" fill="rgb(45,202,68)" opacity="0.35"/>
<circle cx="72" cy="168" r="9" fill="rgb(45,202,68)"/>
<circle cx="96" cy="168" r="12" fill="rgb(0,195,117)" opacity="0.35"/>
<circle cx="96" cy="168" r="9" fill="rgb(0,195,117)"/>
<circle cx="120" cy="168" r="12" fill="rgb(0,180,226)" opacity="0.35"/>
<circle cx="120" cy="168" r="9" fill="rgb(0,180,226)"/>
<circle cx="144" cy="168" r="12" fill="rgb(28,120,254)" opacity="0.35"/>
<circle cx="144" cy="168" r="9" fill="rgb(28,120,254)"/>
<circle cx="168" cy="168" r="12" fill="rgb(88,60,253)" opacity="0.35"/>
<circle cx="168" cy="168" r="9" fill="rgb(88,60,253)"/>
<circle cx="192" cy="168" r="12" fill="rgb(158,26,251)" opacity="0.35"/>
<circle cx="192" cy="168" r="9" fill="rgb(158,26,251)"/>
<circle cx="216" cy="168" r="12" fill="rgb(172,20,250)" opacity="0.35"/>
<circle cx="216" cy="168" r="9" fill="rgb(172,20,250)"/>
<circle cx="240" cy="168" r="12" fill="rgb(158,26,251)" opacity="0.35"/>
<circle cx="240" cy="168" r="9" fill="rgb(158,26,251)"/>
<circle cx="264" cy="168" r="12" fill="rgb(88,60,253)" opacity="0.35"/>
<circle cx="264" cy="168" r="9" fill="rgb(88,60,253)"/>
<circle cx="288" cy="168" r="12" fill="rgb(28,120,254)" opacity="0.35"/>
<circle cx="288" cy="168" r="9" fill="rgb(28,120,254)"/>
<circle cx="312" cy="168" r="12" fill="rgb(0,180,226)" opacity="0.35"/>
<circle cx="312" cy="168" r="9" fill="rgb(0,180,226)"/>
<circle cx="336" cy="168" r="12" fill="rgb(0,195,117)" opacity="0.35"/>
<circle cx="336" cy="168" r="9" fill="rgb(0,195,117)"/>
<circle cx="360" cy="168" r="12" fill="rgb(45,202,68)" opacity="0.35"/>
<circle cx="360" cy="168" r="9" fill="rgb(45,202,68)"/>
<circle cx="384" cy="168" r="12" fill="rgb(50,203,67)" opacity="0.35"/>
<circle cx="384" cy="168" r="9" fill="rgb(50,203,67)"/>
<circle cx="24" cy="192" r="9" fill="#14171c"/>
<circle cx="48" cy="192" r="12" fill="rgb(188,210,22)" opacity="0.35"/>
<circle cx="48" cy="192" r="9" fill="rgb(188,210,22)"/>
<circle cx="72" cy="192" r="12" fill="rgb(183,209,23)" opacity="0.35"/>
<circle cx="72" cy="192" r="9" fill="rgb(183,209,23)"/>
<circle cx="96" cy="192" r="12" fill="rgb(87,204,55)" opacity="0.35"/>
<circle cx="96" cy="192" r="9" fill="rgb(87,204,55)"/>
<circle cx="120" cy="192" r="12" fill="rgb(0,193,133)" opacity="0.35"/>
<circle cx="120" cy="192" r="9" fill="rgb(0,193,133)"/>
<circle cx="144" cy="192" r="12" fill="rgb(2,173,255)" opacity="0.35"/>
<circle cx="144" cy="192" r="9" fill="rgb(2,173,255)"/>
<circle cx="168" cy="192" r="12" fill="rgb(34,108,254)" opacity="0.35"/>
<circle cx="168" cy="192" r="9" fill="rgb(34,108,254)"/>
<circle cx="192" cy="192" r="12" fill="rgb(69,69,253)" opacity="0.35"/>
<circle cx="192" cy="192" r="9" fill="rgb(69,69,253)"/>
<circle cx="216" cy="192" r="12" fill="rgb(83,62,253)" opacity="0.35"/>
<circle cx="216" cy="192" r="9" fill="rgb(83,62,253)"/>
<circle cx="240" cy="192" r="12" fill="rgb(69,69,253)" opacity="0.35"/>
<circle cx="240" cy="192" r="9" fill="rgb(69,69,253)"/>
<circle cx="264" cy="192" r="12" fill="rgb(34,108,254)" opacity="0.35"/>
<circle cx="264" cy="192" r="9" fill="rgb(34,108,254)"/>
<circle cx="288" cy="192" r="12" fill="rgb(2,173,255)" opacity="0.35"/>
<circle cx="288" cy="192" r="9" fill="rgb(2,173,255)"/>
<circle cx="312" cy="192" r="12" fill="rgb(0,193,133)" opacity="0.35"/>
<circle cx="312" cy="192" r="9" fill="rgb(0,193,133)"/>
<circle cx="336" cy="192" r="12" fill="rgb(87,204,55)" opacity="0.35"/>
<circle cx="336" cy="192" r="9" fill="rgb(87,204,55)"/>
<circle cx="360" cy="192" r="12" fill="rgb(183,209,23)" opacity="0.35"/>
<circle cx="360" cy="192" r="9" fill="rgb(183,209,23)"/>
<circle cx="384" cy="192" r="12" fill="rgb(188,210,22)" opacity="0.35"/>
<circle cx="384" cy="192" r="9" fill="rgb(188,210,22)"/>
<circle cx="24" cy="216" r="9" fill="#14171c"/>
<circle cx="48" cy="216" r="12" fill="rgb(255,171,0)" opacity="0.35"/>
<circle cx="48" cy="216" r="9" fill="rgb(255,171,0)"/>
<circle cx="72" cy="216" r="12" fill="rgb(255,173,0)" opacity="0.35"/>
<circle cx="72" cy="216" r="9" fill="rgb(255,173,0)"/>
<circle cx="96" cy="216" r="12" fill="rgb(255,207,0)" opacity="0.35"/>
<circle cx="96" cy="216" r="9" fill="rgb(255,207,0)"/>
<circle cx="120" cy="216" r="12" fill="rgb(108,206,48)" opacity="0.35"/>
<circle cx="120" cy="216" r="9" fill="rgb(108,206,48)"/>
<circle cx="144" cy="216" r="12" fill="rgb(0,192,137)" opacity="0.35"/>
<circle cx="144" cy="216" r="9" fill="rgb(0,192,137)"/>
<circle cx="168" cy="216" r="12" fill="rgb(0,176,252)" opacity="0.35"/>
<circle cx="168" cy="216" r="9" fill="rgb(0,176,252)"/>
<circle cx="192" cy="216" r="12" fill="rgb(20,136,255)" opacity="0.35"/>
<circle cx="192" cy="216" r="9" fill="rgb(20,136,255)"/>
<circle cx="216" cy="216" r="12" fill="rgb(24,128,255)" opacity="0.35"/>
<circle cx="216" cy="216" r="9" fill="rgb(24,128,255)"/>
<circle cx="240" cy="216" r="12" fill="rgb(20,136,255)" opacity="0.35"/>
<circle cx="240" cy="216" r="9" fill="rgb(20,136,255)"/>
<circle cx="264" cy="216" r="12" fill="rgb(0,176,252)" opacity="0.35"/>
<circle cx="264" cy="216" r="9" fill="rgb(0,176,252)"/>
<circle cx="288" cy="216" r="12" fill="rgb(0,192,137)" opacity="0.35"/>
<circle cx="288" cy="216" r="9" fill="rgb(0,192,137)"/>
<circle cx="312" cy="216" r="12" fill="rgb(108,206,48)" opacity="0.35"/>
<circle cx="312" cy="216" r="9" fill="rgb(108,206,48)"/>
<circle cx="336" cy="216" r="12" fill="rgb(255,207,0)" opacity="0.35"/>
<circle cx="336" cy="216" r="9" fill="rgb(255,207,0)"/>
<circle cx="360" cy="216" r="12" fill="rgb(255,173,0)" opacity="0.35"/>
<circle cx="360" cy="216" r="9" fill="rgb(255,173,0)"/>
<circle cx="384" cy="216" r="12" fill="rgb(255,171,0)" opacity="0.35"/>
<circle cx="384" cy="216" r="9" fill="rgb(255,171,0)"/>
<circle cx="24" cy="240" r="9" fill="#14171c"/>
<circle cx="48" cy="240" r="12" fill="rgb(188,210,22)" opacity="0.35"/>
<circle cx="48" cy="240" r="9" fill="rgb(188,210,22)"/>
<circle cx="72" cy="240" r="12" fill="rgb(183,209,23)" opacity="0.35"/>
<circle cx="72" cy="240" r="9" fill="rgb(183,209,23)"/>
<circle cx="96" cy="240" r="12" fill="rgb(87,204,55)" opacity="0.35"/>
<circle cx="96" cy="240" r="9" fill="rgb(87,204,55)"/>
<circle cx="120" cy="240" r="12" fill="rgb(0,193,133)" opacity="0.35"/>
<circle cx="120" cy="240" r="9" fill="rgb(0,193,133)"/>
<circle cx="144" cy="240" r="12" fill="rgb(2,173,255)" opacity="0.35"/>
<circle cx="144" cy="240" r="9" fill="rgb(2,173,255)"/>
<circle cx="168" cy="240" r="12" fill="rgb(34,108,254)" opacity="0.35"/>
<circle cx="168" cy="240" r="9" fill="rgb(34,108,254)"/>
<circle cx="192" cy="240" r="12" fill="rgb(69,69,253)" opacity="0.35"/>
<circle cx="192" cy="240" r="9" fill="rgb(69,69,253)"/>
<circle cx="216" cy="240" r="12" fill="rgb(83,62,253)" opacity="0.35"/>
<circle cx="216" cy="240" r="9" fill="rgb(83,62,253)"/>
<circle cx="240" cy="240" r="12" fill="rgb(69,69,253)" opacity="0.35"/>
<circle cx="240" cy="240" r="9" fill="rgb(69,69,253)"/>
<circle cx="264" cy="240" r="12" fill="rgb(34,108,254)" opacity="0.35"/>
<circle cx="264" cy="240" r="9" fill="rgb(34,108,254)"/>
<circle cx="288" cy="240" r="12" fill="rgb(2,173,255)" opacity="0.35"/>
<circle cx="288" cy="240" r="9" fill="rgb(2,173,255)"/>
<circle cx="312" cy="240" r="12" fill="rgb(0,193,133)" opacity="0.35"/>
<circle cx="312" cy="240" r="9" fill="rgb(0,193,133)"/>
<circle cx="336" cy="240" r="12" fill="rgb(87,204,55)" opacity="0.35"/>
<circle cx="336" cy="240" r="9" fill="rgb(87,204,55)"/>
<circle cx="360" cy="240" r="12" fill="rgb(183,209,23)" opacity="0.35"/>
<circle cx="360" cy="240" r="9" fill="rgb(183,209,23)"/>
<circle cx="384" cy="240" r="12" fill="rgb(188,210,22)" opacity="0.35"/>
<circle cx="384" cy="240" r="9" fill="rgb(188,210,22)"/>
<circle cx="24" cy="264" r="9" fill="#14171c"/>
<circle cx="48" cy="264" r="12" fill="rgb(50,203,67)" opacity="0.35"/>
<circle cx="48" cy="264" r="9" fill="rgb(50,203,67)"/>
<circle cx="72" cy="264" r="12" fill="rgb(45,202,68)" opacity="0.35"/>
<circle cx="72" cy="264" r="9" fill="rgb(45,202,68)"/>
<circle cx="96" cy="264" r="12" fill="rgb(0,195,117)" opacity="0.35"/>
<circle cx="96" cy="264" r="9" fill="rgb(0,195,117)"/>
<circle cx="120" cy="264" r="12" fill="rgb(0,180,226)" opacity="0.35"/>
<circle cx="120" cy="264" r="9" fill="rgb(0,180,226)"/>
<circle cx="144" cy="264" r="12" fill="rgb(28,120,254)" opacity="0.35"/>
<circle cx="144" cy="264" r="9" fill="rgb(28,120,254)"/>
<circle cx="168" cy="264" r="12" fill="rgb(88,60,253)" opacity="0.35"/>
<circle cx="168" cy="264" r="9" fill="rgb(88,60,253)"/>
<circle cx="192" cy="264" r="12" fill="rgb(158,26,251)" opacity="0.35"/>
<circle cx="192" cy="264" r="9" fill="rgb(158,26,251)"/>
<circle cx="216" cy="264" r="12" fill="rgb(172,20,250)" opacity="0.35"/>
<circle cx="216" cy="264" r="9" fill="rgb(172,20,250)"/>
<circle cx="240" cy="264" r="12" fill="rgb(158,26,251)" opacity="0.35"/>
<circle cx="240" cy="264" r="9" fill="rgb(158,26,251)"/>
<circle cx="264" cy="264" r="12" fill="rgb(88,60,253)" opacity="0.35"/>
<circle cx="264" cy="264" r="9" fill="rgb(88,60,253)"/>
<circle cx="288" cy="264" r="12" fill="rgb(28,120,254)" opacity="0.35"/>
<circle cx="288" cy="264" r="9" fill="rgb(28,120,254)"/>
<circle cx="312" cy="264" r="12" fill="rgb(0,180,226)" opacity="0.35"/>
<circle cx="312" cy="264" r="9" fill="rgb(0,180,226)"/>
<circle cx="336" cy="264" r="12" fill="rgb(0,195,117)" opacity="0.35"/>
<circle cx="336" cy="264" r="9" fill="rgb(0,195,117)"/>
<circle cx="360" cy="264" r="12" fill="rgb(45,202,68)" opacity="0.35"/>
<circle cx="360" cy="264" r="9" fill="rgb(45,202,68)"/>
<circle cx="384" cy="264" r="12" fill="rgb(50,203,67)" opacity="0.35"/>
<circle cx="384" cy="264" r="9" fill="rgb(50,203,67)"/>
<circle cx="24" cy="288" r="9" fill="#14171c"/>
<circle cx="48" cy="288" r="12" fill="rgb(0,199,89)" opacity="0.35"/>
<circle cx="48" cy="288" r="9" fill="rgb(0,199,89)"/>
<circle cx="72" cy="288" r="12" fill="rgb(0,199,92)" opacity="0.35"/>
<circle cx="72" cy="288" r="9" fill="rgb(0,199,92)"/>
<circle cx="96" cy="288" r="12" fill="rgb(0,190,157)" opacity="0.35"/>
<circle cx="96" cy="288" r="9" fill="rgb(0,190,157)"/>
<circle cx="120" cy="288" r="12" fill="rgb(3,170,255)" opacity="0.35"/>
<circle cx="120" cy="288" r="9" fill="rgb(3,170,255)"/>
<circle cx="144" cy="288" r="12" fill="rgb(39,98,254)" opacity="0.35"/>
<circle cx="144" cy="288" r="9" fill="rgb(39,98,254)"/>
<circle cx="168" cy="288" r="12" fill="rgb(126,42,252)" opacity="0.35"/>
<circle cx="168" cy="288" r="9" fill="rgb(126,42,252)"/>
<circle cx="192" cy="288" r="12" fill="rgb(196,8,250)" opacity="0.35"/>
<circle cx="192" cy="288" r="9" fill="rgb(196,8,250)"/>
<circle cx="216" cy="288" r="12" fill="rgb(210,1,249)" opacity="0.35"/>
<circle cx="216" cy="288" r="9" fill="rgb(210,1,249)"/>
<circle cx="240" cy="288" r="12" fill="rgb(196,8,250)" opacity="0.35"/>
<circle cx="240" cy="288" r="9" fill="rgb(196,8,250)"/>
<circle cx="264" cy="288" r="12" fill="rgb(126,42,252)" opacity="0.35"/>
<circle cx="264" cy="288" r="9" fill="rgb(126,42,252)"/>
<circle cx="288" cy="288" r="12" fill="rgb(39,98,254)" opacity="0.35"/>
<circle cx="288" cy="288" r="9" fill="rgb(39,98,254)"/>
<circle cx="312" cy="288" r="12" fill="rgb(3,170,255)" opacity="0.35"/>
<circle cx="312" cy="288" r="9" fill="rgb(3,170,255)"/>
<circle cx="336" cy="288" r="12" fill="rgb(0,190,157)" opacity="0.35"/>
<circle cx="336" cy="288" r="9" fill="rgb(0,190,157)"/>
<circle cx="360" cy="288" r="12" fill="rgb(0,199,92)" opacity="0.35"/>
<circle cx="360" cy="288" r="9" fill="rgb(0,199,92)"/>
<circle cx="384" cy="288" r="12" fill="rgb(0,199,89)" opacity="0.35"/>
<circle cx="384" cy="288" r="9" fill="rgb(0,199,89)"/>
<circle cx="24" cy="312" r="9" fill="#14171c"/>
<circle cx="48" cy="312" r="12" fill="rgb(26,201,75)" opacity="0.35"/>
<circle cx="48" cy="312" r="9" fill="rgb(26,201,75)"/>
<circle cx="72" cy="312" r="12" fill="rgb(21,201,76)" opacity="0.35"/>
<circle cx="72" cy="312" r="9" fill="rgb(21,201,76)"/>
<circle cx="96" cy="312" r="12" fill="rgb(0,193,133)" opacity="0.35"/>
<circle cx="96" cy="312" r="9" fill="rgb(0,193,133)"/>
<circle cx="120" cy="312" r="12" fill="rgb(0,178,243)" opacity="0.35"/>
<circle cx="120" cy="312" r="9" fill="rgb(0,178,243)"/>
<circle cx="144" cy="312" r="12" fill="rgb(32,111,254)" opacity="0.35"/>
<circle cx="144" cy="312" r="9" fill="rgb(32,111,254)"/>
<circle cx="168" cy="312" r="12" fill="rgb(104,52,252)" opacity="0.35"/>
<circle cx="168" cy="312" r="9" fill="rgb(104,52,252)"/>
<circle cx="192" cy="312" r="12" fill="rgb(174,19,250)" opacity="0.35"/>
<circle cx="192" cy="312" r="9" fill="rgb(174,19,250)"/>
<circle cx="216" cy="312" r="12" fill="rgb(188,12,250)" opacity="0.35"/>
<circle cx="216" cy="312" r="9" fill="rgb(188,12,250)"/>
<circle cx="240" cy="312" r="12" fill="rgb(174,19,250)" opacity="0.35"/>
<circle cx="240" cy="312" r="9" fill="rgb(174,19,250)"/>
<circle cx="264" cy="312" r="12" fill="rgb(104,52,252)" opacity="0.35"/>
<circle cx="264" cy="312" r="9" fill="rgb(104,52,252)"/>
<circle cx="288" cy="312" r="12" fill="rgb(32,111,254)" opacity="0.35"/>
<circle cx="288" cy="312" r="9" fill="rgb(32,111,254)"/>
<circle cx="312" cy="312" r="12" fill="rgb(0,178,243)" opacity="0.35"/>
<circle cx="312" cy="312" r="9" fill="rgb(0,178,243)"/>
<circle cx="336" cy="312" r="12" fill="rgb(0,193,133)" opacity="0.35"/>
<circle cx="336" cy="312" r="9" fill="rgb(0,193,133)"/>
<circle cx="360" cy="312" r="12" fill="rgb(21,201,76)" opacity="0.35"/>
<circle cx="360" cy="312" r="9" fill="rgb(21,201,76)"/>
<circle cx="384" cy="312" r="12" fill="rgb(26,201,75)" opacity="0.35"/>
<circle cx="384" cy="312" r="9" fill="rgb(26,201,75)"/>
<circle cx="24" cy="336" r="9" fill="#14171c"/>
<circle cx="48" cy="336" r="12" fill="rgb(146,207,36)" opacity="0.35"/>
<circle cx="48" cy="336" r="9" fill="rgb(146,207,36)"/>
<circle cx="72" cy="336" r="12" fill="rgb(140,207,37)" opacity="0.35"/>
<circle cx="72" cy="336" r="9" fill="rgb(140,207,37)"/>
<circle cx="96" cy="336" r="12" fill="rgb(45,202,68)" opacity="0.35"/>
<circle cx="96" cy="336" r="9" fill="rgb(45,202,68)"/>
<circle cx="120" cy="336" r="12" fill="rgb(0,189,162)" opacity="0.35"/>
<circle cx="120" cy="336" r="9" fill="rgb(0,189,162)"/>
<circle cx="144" cy="336" r="12" fill="rgb(10,156,255)" opacity="0.35"/>
<circle cx="144" cy="336" r="9" fill="rgb(10,156,255)"/>
<circle cx="168" cy="336" r="12" fill="rgb(42,92,254)" opacity="0.35"/>
<circle cx="168" cy="336" r="9" fill="rgb(42,92,254)"/>
<circle cx="192" cy="336" r="12" fill="rgb(97,56,253)" opacity="0.35"/>
<circle cx="192" cy="336" r="9" fill="rgb(97,56,253)"/>
<circle cx="216" cy="336" r="12" fill="rgb(110,49,252)" opacity="0.35"/>
<circle cx="216" cy="336" r="9" fill="rgb(110,49,252)"/>
<circle cx="240" cy="336" r="12" fill="rgb(97,56,253)" opacity="0.35"/>
<circle cx="240" cy="336" r="9" fill="rgb(97,56,253)"/>
<circle cx="264" cy="336" r="12" fill="rgb(42,92,254)" opacity="0.35"/>
<circle cx="264" cy="336" r="9" fill="rgb(42,92,254)"/>
<circle cx="288" cy="336" r="12" fill="rgb(10,156,255)" opacity="0.35"/>
<circle cx="288" cy="336" r="9" fill="rgb(10,156,255)"/>
<circle cx="312" cy="336" r="12" fill="rgb(0,189,162)" opacity="0.35"/>
<circle cx="312" cy="336" r="9" fill="rgb(0,189,162)"/>
<circle cx="336" cy="336" r="12" fill="rgb(45,202,68)" opacity="0.35"/>
<circle cx="336" cy="336" r="9" fill="rgb(45,202,68)"/>
<circle cx="360" cy="336" r="12" fill="rgb(140,207,37)" opacity="0.35"/>
<circle cx="360" cy="336" r="9" fill="rgb(140,207,37)"/>
<circle cx="384" cy="336" r="12" fill="rgb(146,207,36)" opacity="0.35"/>
<circle cx="384" cy="336" r="9" fill="rgb(146,207,36)"/>
<circle cx="24" cy="360" r="9" fill="#14171c"/>
<circle cx="48" cy="360" r="12" fill="rgb(255,189,0)" opacity="0.35"/>
<circle cx="48" cy="360" r="9" fill="rgb(255,189,0)"/>
<circle cx="72" cy="360" r="12" fill="rgb(255,191,0)" opacity="0.35"/>
<circle cx="72" cy="360" r="9" fill="rgb(255,191,0)"/>
<circle cx="96" cy="360" r="12" fill="rgb(220,211,11)" opacity="0.35"/>
<circle cx="96" cy="360" r="9" fill="rgb(220,211,11)"/>
<circle cx="120" cy="360" r="12" fill="rgb(58,203,64)" opacity="0.35"/>
<circle cx="120" cy="360" r="9" fill="rgb(58,203,64)"/>
<circle cx="144" cy="360" r="12" fill="rgb(0,188,172)" opacity="0.35"/>
<circle cx="144" cy="360" r="9" fill="rgb(0,188,172)"/>
<circle cx="168" cy="360" r="12" fill="rgb(9,158,255)" opacity="0.35"/>
<circle cx="168" cy="360" r="9" fill="rgb(9,158,255)"/>
<circle cx="192" cy="360" r="12" fill="rgb(29,117,254)" opacity="0.35"/>
<circle cx="192" cy="360" r="9" fill="rgb(29,117,254)"/>
<circle cx="216" cy="360" r="12" fill="rgb(33,109,254)" opacity="0.35"/>
<circle cx="216" cy="360" r="9" fill="rgb(33,109,254)"/>
<circle cx="240" cy="360" r="12" fill="rgb(29,117,254)" opacity="0.35"/>
<circle cx="240" cy="360" r="9" fill="rgb(29,117,254)"/>
<circle cx="264" cy="360" r="12" fill="rgb(9,158,255)" opacity="0.35"/>
<circle cx="264" cy="360" r="9" fill="rgb(9,158,255)"/>
<circle cx="288" cy="360" r="12" fill="rgb(0,188,172)" opacity="0.35"/>
<circle cx="288" cy="360" r="9" fill="rgb(0,188,172)"/>
<circle cx="312" cy="360" r="12" fill="rgb(58,203,64)" opacity="0.35"/>
<circle cx="312" cy="360" r="9" fill="rgb(58,203,64)"/>
<circle cx="336" cy="360" r="12" fill="rgb(220,211,11)" opacity="0.35"/>
<circle cx="336" cy="360" r="9" fill="rgb(220,211,11)"/>
<circle cx="360" cy="360" r="12" fill="rgb(255,191,0)" opacity="0.35"/>
<circle cx="360" cy="360" r="9" fill="rgb(255,191,0)"/>
<circle cx="384" cy="360" r="12" fill="rgb(255,189,0)" opacity="0.35"/>
<circle cx="384" cy="360" r="9" fill="rgb(255,189,0)"/>
<circle cx="24" cy="384" r="9" fill="#14171c"/>
<circle cx="48" cy="384" r="12" fill="rgb(255,122,0)" opacity="0.35"/>
<circle cx="48" cy="384" r="9" fill="rgb(255,122,0)"/>
<circle cx="72" cy="384" r="12" fill="rgb(255,124,0)" opacity="0.35"/>
<circle cx="72" cy="384" r="9" fill="rgb(255,124,0)"/>
<circle cx="96" cy="384" r="12" fill="rgb(255,158,0)" opacity="0.35"/>
<circle cx="96" cy="384" r="9" fill="rgb(255,158,0)"/>
<circle cx="120" cy="384" r="12" fill="rgb(246,213,3)" opacity="0.35"/>
<circle cx="120" cy="384" r="9" fill="rgb(246,213,3)"/>
<circle cx="144" cy="384" r="12" fill="rgb(57,203,65)" opacity="0.35"/>
<circle cx="144" cy="384" r="9" fill="rgb(57,203,65)"/>
<circle cx="168" cy="384" r="12" fill="rgb(0,189,159)" opacity="0.35"/>
<circle cx="168" cy="384" r="9" fill="rgb(0,189,159)"/>
<circle cx="192" cy="384" r="12" fill="rgb(0,179,233)" opacity="0.35"/>
<circle cx="192" cy="384" r="9" fill="rgb(0,179,233)"/>
<circle cx="216" cy="384" r="12" fill="rgb(0,177,247)" opacity="0.35"/>
<circle cx="216" cy="384" r="9" fill="rgb(0,177,247)"/>
<circle cx="240" cy="384" r="12" fill="rgb(0,179,233)" opacity="0.35"/>
<circle cx="240" cy="384" r="9" fill="rgb(0,179,233)"/>
<circle cx="264" cy="384" r="12" fill="rgb(0,189,159)" opacity="0.35"/>
<circle cx="264" cy="384" r="9" fill="rgb(0,189,159)"/>
<circle cx="288" cy="384" r="12" fill="rgb(57,203,65)" opacity="0.35"/>
<circle cx="288" cy="384" r="9" fill="rgb(57,203,65)"/>
<circle cx="312" cy="384" r="12" fill="rgb(246,213,3)" opacity="0.35"/>
<circle cx="312" cy="384" r="9" fill="rgb(246,213,3)"/>
<circle cx="336" cy="384" r="12" fill="rgb(255,158,0)" opacity="0.35"/>
<circle cx="336" cy="384" r="9" fill="rgb(255,158,0)"/>
<circle cx="360" cy="384" r="12" fill="rgb(255,124,0)" opacity="0.35"/>
<circle cx="360" cy="384" r="9" fill="rgb(255,124,0)"/>
<circle cx="384" cy="384" r="12" fill="rgb(255,122,0)" opacity="0.35"/>
<circle cx="384" cy="384" r="9" fill="rgb(255,122,0)"/>
</svg>
