<svg xmlns="http://www.w3.org/2000/svg" viewBox="0 0 408 408" width="408" height="408" role="img" aria-label="LED preview of the MIDI example graph">
<rect width="408" height="408" rx="10" fill="#05070a"/>
<circle cx="24" cy="24" r="12" fill="rgb(29,35,38)" opacity="0.35"/>
<circle cx="24" cy="24" r="9" fill="rgb(29,35,38)"/>
<circle cx="48" cy="24" r="12" fill="rgb(30,36,38)" opacity="0.35"/>
<circle cx="48" cy="24" r="9" fill="rgb(30,36,38)"/>
<circle cx="72" cy="24" r="12" fill="rgb(30,36,38)" opacity="0.35"/>
<circle cx="72" cy="24" r="9" fill="rgb(30,36,38)"/>
<circle cx="96" cy="24" r="12" fill="rgb(30,36,38)" opacity="0.35"/>
<circle cx="96" cy="24" r="9" fill="rgb(30,36,38)"/>
<circle cx="120" cy="24" r="12" fill="rgb(29,35,38)" opacity="0.35"/>
<circle cx="120" cy="24" r="9" fill="rgb(29,35,38)"/>
<circle cx="144" cy="24" r="12" fill="rgb(28,35,38)" opacity="0.35"/>
<circle cx="144" cy="24" r="9" fill="rgb(28,35,38)"/>
<circle cx="168" cy="24" r="12" fill="rgb(26,35,38)" opacity="0.35"/>
<circle cx="168" cy="24" r="9" fill="rgb(26,35,38)"/>
<circle cx="192" cy="24" r="12" fill="rgb(25,34,38)" opacity="0.35"/>
<circle cx="192" cy="24" r="9" fill="rgb(25,34,38)"/>
<circle cx="216" cy="24" r="12" fill="rgb(22,33,37)" opacity="0.35"/>
<circle cx="216" cy="24" r="9" fill="rgb(22,33,37)"/>
<circle cx="240" cy="24" r="12" fill="rgb(20,33,37)" opacity="0.35"/>
<circle cx="240" cy="24" r="9" fill="rgb(20,33,37)"/>
<circle cx="264" cy="24" r="12" fill="rgb(33,37,38)" opacity="0.35"/>
<circle cx="264" cy="24" r="9" fill="rgb(33,37,38)"/>
<circle cx="288" cy="24" r="12" fill="rgb(36,38,38)" opacity="0.35"/>
<circle cx="288" cy="24" r="9" fill="rgb(36,38,38)"/>
<circle cx="312" cy="24" r="12" fill="rgb(12,30,36)" opacity="0.35"/>
<circle cx="312" cy="24" r="9" fill="rgb(12,30,36)"/>
<circle cx="336" cy="24" r="12" fill="rgb(10,28,35)" opacity="0.35"/>
<circle cx="336" cy="24" r="9" fill="rgb(10,28,35)"/>
<circle cx="360" cy="24" r="12" fill="rgb(9,27,34)" opacity="0.35"/>
<circle cx="360" cy="24" r="9" fill="rgb(9,27,34)"/>
<circle cx="384" cy="24" r="12" fill="rgb(7,26,34)" opacity="0.35"/>
<circle cx="384" cy="24" r="9" fill="rgb(7,26,34)"/>
<circle cx="24" cy="48" r="12" fill="rgb(28,35,38)" opacity="0.35"/>
<circle cx="24" cy="48" r="9" fill="rgb(28,35,38)"/>
<circle cx="48" cy="48" r="12" fill="rgb(29,35,38)" opacity="0.35"/>
<circle cx="48" cy="48" r="9" fill="rgb(29,35,38)"/>
<circle cx="72" cy="48" r="12" fill="rgb(29,36,38)" opacity="0.35"/>
<circle cx="72" cy="48" r="9" fill="rgb(29,36,38)"/>
<circle cx="96" cy="48" r="12" fill="rgb(29,35,38)" opacity="0.35"/>
<circle cx="96" cy="48" r="9" fill="rgb(29,35,38)"/>
<circle cx="120" cy="48" r="12" fill="rgb(29,35,38)" opacity="0.35"/>
<circle cx="120" cy="48" r="9" fill="rgb(29,35,38)"/>
<circle cx="144" cy="48" r="12" fill="rgb(27,35,38)" opacity="0.35"/>
<circle cx="144" cy="48" r="9" fill="rgb(27,35,38)"/>
<circle cx="168" cy="48" r="12" fill="rgb(26,35,38)" opacity="0.35"/>
<circle cx="168" cy="48" r="9" fill="rgb(26,35,38)"/>
<circle cx="192" cy="48" r="12" fill="rgb(24,34,38)" opacity="0.35"/>
<circle cx="192" cy="48" r="9" fill="rgb(24,34,38)"/>
<circle cx="216" cy="48" r="12" fill="rgb(22,33,37)" opacity="0.35"/>
<circle cx="216" cy="48" r="9" fill="rgb(22,33,37)"/>
<circle cx="240" cy="48" r="12" fill="rgb(22,33,37)" opacity="0.35"/>
<circle cx="240" cy="48" r="9" fill="rgb(22,33,37)"/>
<circle cx="264" cy="48" r="12" fill="rgb(38,38,38)" opacity="0.35"/>
<circle cx="264" cy="48" r="9" fill="rgb(38,38,38)"/>
<circle cx="288" cy="48" r="12" fill="rgb(27,35,37)" opacity="0.35"/>
<circle cx="288" cy="48" r="9" fill="rgb(27,35,37)"/>
<circle cx="312" cy="48" r="12" fill="rgb(12,30,36)" opacity="0.35"/>
<circle cx="312" cy="48" r="9" fill="rgb(12,30,36)"/>
<circle cx="336" cy="48" r="12" fill="rgb(10,28,35)" opacity="0.35"/>
<circle cx="336" cy="48" r="9" fill="rgb(10,28,35)"/>
<circle cx="360" cy="48" r="12" fill="rgb(9,27,34)" opacity="0.35"/>
<circle cx="360" cy="48" r="9" fill="rgb(9,27,34)"/>
<circle cx="384" cy="48" r="12" fill="rgb(7,26,34)" opacity="0.35"/>
<circle cx="384" cy="48" r="9" fill="rgb(7,26,34)"/>
<circle cx="24" cy="72" r="12" fill="rgb(28,35,38)" opacity="0.35"/>
<circle cx="24" cy="72" r="9" fill="rgb(28,35,38)"/>
<circle cx="48" cy="72" r="12" fill="rgb(29,35,38)" opacity="0.35"/>
<circle cx="48" cy="72" r="9" fill="rgb(29,35,38)"/>
<circle cx="72" cy="72" r="12" fill="rgb(29,35,38)" opacity="0.35"/>
<circle cx="72" cy="72" r="9" fill="rgb(29,35,38)"/>
<circle cx="96" cy="72" r="12" fill="rgb(29,35,38)" opacity="0.35"/>
<circle cx="96" cy="72" r="9" fill="rgb(29,35,38)"/>
<circle cx="120" cy="72" r="12" fill="rgb(28,35,38)" opacity="0.35"/>
<circle cx="120" cy="72" r="9" fill="rgb(28,35,38)"/>
<circle cx="144" cy="72" r="12" fill="rgb(27,35,38)" opacity="0.35"/>
<circle cx="144" cy="72" r="9" fill="rgb(27,35,38)"/>
<circle cx="168" cy="72" r="12" fill="rgb(26,34,38)" opacity="0.35"/>
<circle cx="168" cy="72" r="9" fill="rgb(26,34,38)"/>
<circle cx="192" cy="72" r="12" fill="rgb(24,34,37)" opacity="0.35"/>
<circle cx="192" cy="72" r="9" fill="rgb(24,34,37)"/>
<circle cx="216" cy="72" r="12" fill="rgb(22,33,37)" opacity="0.35"/>
<circle cx="216" cy="72" r="9" fill="rgb(22,33,37)"/>
<circle cx="240" cy="72" r="12" fill="rgb(32,36,38)" opacity="0.35"/>
<circle cx="240" cy="72" r="9" fill="rgb(32,36,38)"/>
<circle cx="264" cy="72" r="12" fill="rgb(37,38,38)" opacity="0.35"/>
<circle cx="264" cy="72" r="9" fill="rgb(37,38,38)"/>
<circle cx="288" cy="72" r="12" fill="rgb(14,31,36)" opacity="0.35"/>
<circle cx="288" cy="72" r="9" fill="rgb(14,31,36)"/>
<circle cx="312" cy="72" r="12" fill="rgb(12,30,36)" opacity="0.35"/>
<circle cx="312" cy="72" r="9" fill="rgb(12,30,36)"/>
<circle cx="336" cy="72" r="12" fill="rgb(10,28,35)" opacity="0.35"/>
<circle cx="336" cy="72" r="9" fill="rgb(10,28,35)"/>
<circle cx="360" cy="72" r="12" fill="rgb(9,27,34)" opacity="0.35"/>
<circle cx="360" cy="72" r="9" fill="rgb(9,27,34)"/>
<circle cx="384" cy="72" r="12" fill="rgb(7,26,34)" opacity="0.35"/>
<circle cx="384" cy="72" r="9" fill="rgb(7,26,34)"/>
<circle cx="24" cy="96" r="12" fill="rgb(27,35,38)" opacity="0.35"/>
<circle cx="24" cy="96" r="9" fill="rgb(27,35,38)"/>
<circle cx="48" cy="96" r="12" fill="rgb(28,35,38)" opacity="0.35"/>
<circle cx="48" cy="96" r="9" fill="rgb(28,35,38)"/>
<circle cx="72" cy="96" r="12" fill="rgb(28,35,38)" opacity="0.35"/>
<circle cx="72" cy="96" r="9" fill="rgb(28,35,38)"/>
<circle cx="96" cy="96" r="12" fill="rgb(28,35,38)" opacity="0.35"/>
<circle cx="96" cy="96" r="9" fill="rgb(28,35,38)"/>
<circle cx="120" cy="96" r="12" fill="rgb(28,35,38)" opacity="0.35"/>
<circle cx="120" cy="96" r="9" fill="rgb(28,35,38)"/>
<circle cx="144" cy="96" r="12" fill="rgb(27,35,38)" opacity="0.35"/>
<circle cx="144" cy="96" r="9" fill="rgb(27,35,38)"/>
<circle cx="168" cy="96" r="12" fill="rgb(25,34,38)" opacity="0.35"/>
<circle cx="168" cy="96" r="9" fill="rgb(25,34,38)"/>
<circle cx="192" cy="96" r="12" fill="rgb(23,34,37)" opacity="0.35"/>
<circle cx="192" cy="96" r="9" fill="rgb(23,34,37)"/>
<circle cx="216" cy="96" r="12" fill="rgb(21,33,37)" opacity="0.35"/>
<circle cx="216" cy="96" r="9" fill="rgb(21,33,37)"/>
<circle cx="240" cy="96" r="12" fill="rgb(37,38,38)" opacity="0.35"/>
<circle cx="240" cy="96" r="9" fill="rgb(37,38,38)"/>
<circle cx="264" cy="96" r="12" fill="rgb(31,36,38)" opacity="0.35"/>
<circle cx="264" cy="96" r="9" fill="rgb(31,36,38)"/>
<circle cx="288" cy="96" r="12" fill="rgb(14,31,36)" opacity="0.35"/>
<circle cx="288" cy="96" r="9" fill="rgb(14,31,36)"/>
<circle cx="312" cy="96" r="12" fill="rgb(12,30,36)" opacity="0.35"/>
<circle cx="312" cy="96" r="9" fill="rgb(12,30,36)"/>
<circle cx="336" cy="96" r="12" fill="rgb(10,28,35)" opacity="0.35"/>
<circle cx="336" cy="96" r="9" fill="rgb(10,28,35)"/>
<circle cx="360" cy="96" r="12" fill="rgb(8,27,34)" opacity="0.35"/>
<circle cx="360" cy="96" r="9" fill="rgb(8,27,34)"/>
<circle cx="384" cy="96" r="12" fill="rgb(7,26,34)" opacity="0.35"/>
<circle cx="384" cy="96" r="9" fill="rgb(7,26,34)"/>
<circle cx="24" cy="120" r="12" fill="rgb(26,35,38)" opacity="0.35"/>
<circle cx="24" cy="120" r="9" fill="rgb(26,35,38)"/>
<circle cx="48" cy="120" r="12" fill="rgb(27,35,38)" opacity="0.35"/>
<circle cx="48" cy="120" r="9" fill="rgb(27,35,38)"/>
<circle cx="72" cy="120" r="12" fill="rgb(28,35,38)" opacity="0.35"/>
<circle cx="72" cy="120" r="9" fill="rgb(28,35,38)"/>
<circle cx="96" cy="120" r="12" fill="rgb(28,35,38)" opacity="0.35"/>
<circle cx="96" cy="120" r="9" fill="rgb(28,35,38)"/>
<circle cx="120" cy="120" r="12" fill="rgb(27,35,38)" opacity="0.35"/>
<circle cx="120" cy="120" r="9" fill="rgb(27,35,38)"/>
<circle cx="144" cy="120" r="12" fill="rgb(26,35,38)" opacity="0.35"/>
<circle cx="144" cy="120" r="9" fill="rgb(26,35,38)"/>
<circle cx="168" cy="120" r="12" fill="rgb(25,34,38)" opacity="0.35"/>
<circle cx="168" cy="120" r="9" fill="rgb(25,34,38)"/>
<circle cx="192" cy="120" r="12" fill="rgb(23,34,37)" opacity="0.35"/>
<circle cx="192" cy="120" r="9" fill="rgb(23,34,37)"/>
<circle cx="216" cy="120" r="12" fill="rgb(30,36,38)" opacity="0.35"/>
<circle cx="216" cy="120" r="9" fill="rgb(30,36,38)"/>
<circle cx="240" cy="120" r="12" fill="rgb(38,38,38)" opacity="0.35"/>
<circle cx="240" cy="120" r="9" fill="rgb(38,38,38)"/>
<circle cx="264" cy="120" r="12" fill="rgb(18,32,37)" opacity="0.35"/>
<circle cx="264" cy="120" r="9" fill="rgb(18,32,37)"/>
<circle cx="288" cy="120" r="12" fill="rgb(13,31,36)" opacity="0.35"/>
<circle cx="288" cy="120" r="9" fill="rgb(13,31,36)"/>
<circle cx="312" cy="120" r="12" fill="rgb(12,29,36)" opacity="0.35"/>
<circle cx="312" cy="120" r="9" fill="rgb(12,29,36)"/>
<circle cx="336" cy="120" r="12" fill="rgb(10,28,35)" opacity="0.35"/>
<circle cx="336" cy="120" r="9" fill="rgb(10,28,35)"/>
<circle cx="360" cy="120" r="12" fill="rgb(8,27,34)" opacity="0.35"/>
<circle cx="360" cy="120" r="9" fill="rgb(8,27,34)"/>
<circle cx="384" cy="120" r="12" fill="rgb(7,25,34)" opacity="0.35"/>
<circle cx="384" cy="120" r="9" fill="rgb(7,25,34)"/>
<circle cx="24" cy="144" r="12" fill="rgb(26,35,38)" opacity="0.35"/>
<circle cx="24" cy="144" r="9" fill="rgb(26,35,38)"/>
<circle cx="48" cy="144" r="12" fill="rgb(27,35,38)" opacity="0.35"/>
<circle cx="48" cy="144" r="9" fill="rgb(27,35,38)"/>
<circle cx="72" cy="144" r="12" fill="rgb(27,35,38)" opacity="0.35"/>
<circle cx="72" cy="144" r="9" fill="rgb(27,35,38)"/>
<circle cx="96" cy="144" r="12" fill="rgb(27,35,38)" opacity="0.35"/>
<circle cx="96" cy="144" r="9" fill="rgb(27,35,38)"/>
<circle cx="120" cy="144" r="12" fill="rgb(27,35,38)" opacity="0.35"/>
<circle cx="120" cy="144" r="9" fill="rgb(27,35,38)"/>
<circle cx="144" cy="144" r="12" fill="rgb(26,34,38)" opacity="0.35"/>
<circle cx="144" cy="144" r="9" fill="rgb(26,34,38)"/>
<circle cx="168" cy="144" r="12" fill="rgb(24,34,38)" opacity="0.35"/>
<circle cx="168" cy="144" r="9" fill="rgb(24,34,38)"/>
<circle cx="192" cy="144" r="12" fill="rgb(23,33,37)" opacity="0.35"/>
<circle cx="192" cy="144" r="9" fill="rgb(23,33,37)"/>
<circle cx="216" cy="144" r="12" fill="rgb(36,38,38)" opacity="0.35"/>
<circle cx="216" cy="144" r="9" fill="rgb(36,38,38)"/>
<circle cx="240" cy="144" r="12" fill="rgb(33,37,38)" opacity="0.35"/>
<circle cx="240" cy="144" r="9" fill="rgb(33,37,38)"/>
<circle cx="264" cy="144" r="12" fill="rgb(16,31,37)" opacity="0.35"/>
<circle cx="264" cy="144" r="9" fill="rgb(16,31,37)"/>
<circle cx="288" cy="144" r="12" fill="rgb(13,31,36)" opacity="0.35"/>
<circle cx="288" cy="144" r="9" fill="rgb(13,31,36)"/>
<circle cx="312" cy="144" r="12" fill="rgb(11,29,36)" opacity="0.35"/>
<circle cx="312" cy="144" r="9" fill="rgb(11,29,36)"/>
<circle cx="336" cy="144" r="12" fill="rgb(10,28,35)" opacity="0.35"/>
<circle cx="336" cy="144" r="9" fill="rgb(10,28,35)"/>
<circle cx="360" cy="144" r="12" fill="rgb(8,27,34)" opacity="0.35"/>
<circle cx="360" cy="144" r="9" fill="rgb(8,27,34)"/>
<circle cx="384" cy="144" r="12" fill="rgb(7,25,33)" opacity="0.35"/>
<circle cx="384" cy="144" r="9" fill="rgb(7,25,33)"/>
<circle cx="24" cy="168" r="12" fill="rgb(25,34,38)" opacity="0.35"/>
<circle cx="24" cy="168" r="9" fill="rgb(25,34,38)"/>
<circle cx="48" cy="168" r="12" fill="rgb(26,35,38)" opacity="0.35"/>
<circle cx="48" cy="168" r="9" fill="rgb(26,35,38)"/>
<circle cx="72" cy="168" r="12" fill="rgb(26,35,38)" opacity="0.35"/>
<circle cx="72" cy="168" r="9" fill="rgb(26,35,38)"/>
<circle cx="96" cy="168" r="12" fill="rgb(26,35,38)" opacity="0.35"/>
<circle cx="96" cy="168" r="9" fill="rgb(26,35,38)"/>
<circle cx="120" cy="168" r="12" fill="rgb(26,35,38)" opacity="0.35"/>
<circle cx="120" cy="168" r="9" fill="rgb(26,35,38)"/>
<circle cx="144" cy="168" r="12" fill="rgb(25,34,38)" opacity="0.35"/>
<circle cx="144" cy="168" r="9" fill="rgb(25,34,38)"/>
<circle cx="168" cy="168" r="12" fill="rgb(24,34,37)" opacity="0.35"/>
<circle cx="168" cy="168" r="9" fill="rgb(24,34,37)"/>
<circle cx="192" cy="168" r="12" fill="rgb(29,35,38)" opacity="0.35"/>
<circle cx="192" cy="168" r="9" fill="rgb(29,35,38)"/>
<circle cx="216" cy="168" r="12" fill="rgb(38,38,38)" opacity="0.35"/>
<circle cx="216" cy="168" r="9" fill="rgb(38,38,38)"/>
<circle cx="240" cy="168" r="12" fill="rgb(23,34,37)" opacity="0.35"/>
<circle cx="240" cy="168" r="9" fill="rgb(23,34,37)"/>
<circle cx="264" cy="168" r="12" fill="rgb(15,31,36)" opacity="0.35"/>
<circle cx="264" cy="168" r="9" fill="rgb(15,31,36)"/>
<circle cx="288" cy="168" r="12" fill="rgb(13,30,36)" opacity="0.35"/>
<circle cx="288" cy="168" r="9" fill="rgb(13,30,36)"/>
<circle cx="312" cy="168" r="12" fill="rgb(11,29,36)" opacity="0.35"/>
<circle cx="312" cy="168" r="9" fill="rgb(11,29,36)"/>
<circle cx="336" cy="168" r="12" fill="rgb(10,28,35)" opacity="0.35"/>
<circle cx="336" cy="168" r="9" fill="rgb(10,28,35)"/>
<circle cx="360" cy="168" r="12" fill="rgb(8,27,34)" opacity="0.35"/>
<circle cx="360" cy="168" r="9" fill="rgb(8,27,34)"/>
<circle cx="384" cy="168" r="12" fill="rgb(6,25,33)" opacity="0.35"/>
<circle cx="384" cy="168" r="9" fill="rgb(6,25,33)"/>
<circle cx="24" cy="192" r="12" fill="rgb(24,34,38)" opacity="0.35"/>
<circle cx="24" cy="192" r="9" fill="rgb(24,34,38)"/>
<circle cx="48" cy="192" r="12" fill="rgb(25,34,38)" opacity="0.35"/>
<circle cx="48" cy="192" r="9" fill="rgb(25,34,38)"/>
<circle cx="72" cy="192" r="12" fill="rgb(26,35,38)" opacity="0.35"/>
<circle cx="72" cy="192" r="9" fill="rgb(26,35,38)"/>
<circle cx="96" cy="192" r="12" fill="rgb(26,34,38)" opacity="0.35"/>
<circle cx="96" cy="192" r="9" fill="rgb(26,34,38)"/>
<circle cx="120" cy="192" r="12" fill="rgb(25,34,38)" opacity="0.35"/>
<circle cx="120" cy="192" r="9" fill="rgb(25,34,38)"/>
<circle cx="144" cy="192" r="12" fill="rgb(24,34,38)" opacity="0.35"/>
<circle cx="144" cy="192" r="9" fill="rgb(24,34,38)"/>
<circle cx="168" cy="192" r="12" fill="rgb(23,34,37)" opacity="0.35"/>
<circle cx="168" cy="192" r="9" fill="rgb(23,34,37)"/>
<circle cx="192" cy="192" r="12" fill="rgb(35,37,38)" opacity="0.35"/>
<circle cx="192" cy="192" r="9" fill="rgb(35,37,38)"/>
<circle cx="216" cy="192" r="12" fill="rgb(35,37,38)" opacity="0.35"/>
<circle cx="216" cy="192" r="9" fill="rgb(35,37,38)"/>
<circle cx="240" cy="192" r="12" fill="rgb(17,32,37)" opacity="0.35"/>
<circle cx="240" cy="192" r="9" fill="rgb(17,32,37)"/>
<circle cx="264" cy="192" r="12" fill="rgb(15,31,36)" opacity="0.35"/>
<circle cx="264" cy="192" r="9" fill="rgb(15,31,36)"/>
<circle cx="288" cy="192" r="12" fill="rgb(13,30,36)" opacity="0.35"/>
<circle cx="288" cy="192" r="9" fill="rgb(13,30,36)"/>
<circle cx="312" cy="192" r="12" fill="rgb(11,29,35)" opacity="0.35"/>
<circle cx="312" cy="192" r="9" fill="rgb(11,29,35)"/>
<circle cx="336" cy="192" r="12" fill="rgb(9,28,35)" opacity="0.35"/>
<circle cx="336" cy="192" r="9" fill="rgb(9,28,35)"/>
<circle cx="360" cy="192" r="12" fill="rgb(8,26,34)" opacity="0.35"/>
<circle cx="360" cy="192" r="9" fill="rgb(8,26,34)"/>
<circle cx="384" cy="192" r="12" fill="rgb(6,25,33)" opacity="0.35"/>
<circle cx="384" cy="192" r="9" fill="rgb(6,25,33)"/>
<circle cx="24" cy="216" r="12" fill="rgb(24,34,37)" opacity="0.35"/>
<circle cx="24" cy="216" r="9" fill="rgb(24,34,37)"/>
<circle cx="48" cy="216" r="12" fill="rgb(25,34,38)" opacity="0.35"/>
<circle cx="48" cy="216" r="9" fill="rgb(25,34,38)"/>
<circle cx="72" cy="216" r="12" fill="rgb(25,34,38)" opacity="0.35"/>
<circle cx="72" cy="216" r="9" fill="rgb(25,34,38)"/>
<circle cx="96" cy="216" r="12" fill="rgb(25,34,38)" opacity="0.35"/>
<circle cx="96" cy="216" r="9" fill="rgb(25,34,38)"/>
<circle cx="120" cy="216" r="12" fill="rgb(25,34,38)" opacity="0.35"/>
<circle cx="120" cy="216" r="9" fill="rgb(25,34,38)"/>
<circle cx="144" cy="216" r="12" fill="rgb(24,34,37)" opacity="0.35"/>
<circle cx="144" cy="216" r="9" fill="rgb(24,34,37)"/>
<circle cx="168" cy="216" r="12" fill="rgb(27,35,38)" opacity="0.35"/>
<circle cx="168" cy="216" r="9" fill="rgb(27,35,38)"/>
<circle cx="192" cy="216" r="12" fill="rgb(38,38,38)" opacity="0.35"/>
<circle cx="192" cy="216" r="9" fill="rgb(38,38,38)"/>
<circle cx="216" cy="216" r="12" fill="rgb(27,35,38)" opacity="0.35"/>
<circle cx="216" cy="216" r="9" fill="rgb(27,35,38)"/>
<circle cx="240" cy="216" r="12" fill="rgb(17,32,37)" opacity="0.35"/>
<circle cx="240" cy="216" r="9" fill="rgb(17,32,37)"/>
<circle cx="264" cy="216" r="12" fill="rgb(14,31,36)" opacity="0.35"/>
<circle cx="264" cy="216" r="9" fill="rgb(14,31,36)"/>
<circle cx="288" cy="216" r="12" fill="rgb(12,30,36)" opacity="0.35"/>
<circle cx="288" cy="216" r="9" fill="rgb(12,30,36)"/>
<circle cx="312" cy="216" r="12" fill="rgb(11,29,35)" opacity="0.35"/>
<circle cx="312" cy="216" r="9" fill="rgb(11,29,35)"/>
<circle cx="336" cy="216" r="12" fill="rgb(9,27,35)" opacity="0.35"/>
<circle cx="336" cy="216" r="9" fill="rgb(9,27,35)"/>
<circle cx="360" cy="216" r="12" fill="rgb(8,26,34)" opacity="0.35"/>
<circle cx="360" cy="216" r="9" fill="rgb(8,26,34)"/>
<circle cx="384" cy="216" r="12" fill="rgb(6,25,33)" opacity="0.35"/>
<circle cx="384" cy="216" r="9" fill="rgb(6,25,33)"/>
<circle cx="24" cy="240" r="12" fill="rgb(23,34,37)" opacity="0.35"/>
<circle cx="24" cy="240" r="9" fill="rgb(23,34,37)"/>
<circle cx="48" cy="240" r="12" fill="rgb(24,34,37)" opacity="0.35"/>
<circle cx="48" cy="240" r="9" fill="rgb(24,34,37)"/>
<circle cx="72" cy="240" r="12" fill="rgb(24,34,38)" opacity="0.35"/>
<circle cx="72" cy="240" r="9" fill="rgb(24,34,38)"/>
<circle cx="96" cy="240" r="12" fill="rgb(24,34,38)" opacity="0.35"/>
<circle cx="96" cy="240" r="9" fill="rgb(24,34,38)"/>
<circle cx="120" cy="240" r="12" fill="rgb(24,34,37)" opacity="0.35"/>
<circle cx="120" cy="240" r="9" fill="rgb(24,34,37)"/>
<circle cx="144" cy="240" r="12" fill="rgb(23,34,37)" opacity="0.35"/>
<circle cx="144" cy="240" r="9" fill="rgb(23,34,37)"/>
<circle cx="168" cy="240" r="12" fill="rgb(34,37,38)" opacity="0.35"/>
<circle cx="168" cy="240" r="9" fill="rgb(34,37,38)"/>
<circle cx="192" cy="240" r="12" fill="rgb(36,38,38)" opacity="0.35"/>
<circle cx="192" cy="240" r="9" fill="rgb(36,38,38)"/>
<circle cx="216" cy="240" r="12" fill="rgb(18,32,37)" opacity="0.35"/>
<circle cx="216" cy="240" r="9" fill="rgb(18,32,37)"/>
<circle cx="240" cy="240" r="12" fill="rgb(16,32,37)" opacity="0.35"/>
<circle cx="240" cy="240" r="9" fill="rgb(16,32,37)"/>
<circle cx="264" cy="240" r="12" fill="rgb(14,31,36)" opacity="0.35"/>
<circle cx="264" cy="240" r="9" fill="rgb(14,31,36)"/>
<circle cx="288" cy="240" r="12" fill="rgb(12,30,36)" opacity="0.35"/>
<circle cx="288" cy="240" r="9" fill="rgb(12,30,36)"/>
<circle cx="312" cy="240" r="12" fill="rgb(11,29,35)" opacity="0.35"/>
<circle cx="312" cy="240" r="9" fill="rgb(11,29,35)"/>
<circle cx="336" cy="240" r="12" fill="rgb(9,27,35)" opacity="0.35"/>
<circle cx="336" cy="240" r="9" fill="rgb(9,27,35)"/>
<circle cx="360" cy="240" r="12" fill="rgb(8,26,34)" opacity="0.35"/>
<circle cx="360" cy="240" r="9" fill="rgb(8,26,34)"/>
<circle cx="384" cy="240" r="12" fill="rgb(6,25,33)" opacity="0.35"/>
<circle cx="384" cy="240" r="9" fill="rgb(6,25,33)"/>
<circle cx="24" cy="264" r="12" fill="rgb(22,33,37)" opacity="0.35"/>
<circle cx="24" cy="264" r="9" fill="rgb(22,33,37)"/>
<circle cx="48" cy="264" r="12" fill="rgb(23,34,37)" opacity="0.35"/>
<circle cx="48" cy="264" r="9" fill="rgb(23,34,37)"/>
<circle cx="72" cy="264" r="12" fill="rgb(24,34,37)" opacity="0.35"/>
<circle cx="72" cy="264" r="9" fill="rgb(24,34,37)"/>
<circle cx="96" cy="264" r="12" fill="rgb(24,34,37)" opacity="0.35"/>
<circle cx="96" cy="264" r="9" fill="rgb(24,34,37)"/>
<circle cx="120" cy="264" r="12" fill="rgb(23,34,37)" opacity="0.35"/>
<circle cx="120" cy="264" r="9" fill="rgb(23,34,37)"/>
<circle cx="144" cy="264" r="12" fill="rgb(24,34,37)" opacity="0.35"/>
<circle cx="144" cy="264" r="9" fill="rgb(24,34,37)"/>
<circle cx="168" cy="264" r="12" fill="rgb(38,38,38)" opacity="0.35"/>
<circle cx="168" cy="264" r="9" fill="rgb(38,38,38)"/>
<circle cx="192" cy="264" r="12" fill="rgb(30,36,38)" opacity="0.35"/>
<circle cx="192" cy="264" r="9" fill="rgb(30,36,38)"/>
<circle cx="216" cy="264" r="12" fill="rgb(18,32,37)" opacity="0.35"/>
<circle cx="216" cy="264" r="9" fill="rgb(18,32,37)"/>
<circle cx="240" cy="264" r="12" fill="rgb(16,31,37)" opacity="0.35"/>
<circle cx="240" cy="264" r="9" fill="rgb(16,31,37)"/>
<circle cx="264" cy="264" r="12" fill="rgb(13,31,36)" opacity="0.35"/>
<circle cx="264" cy="264" r="9" fill="rgb(13,31,36)"/>
<circle cx="288" cy="264" r="12" fill="rgb(12,30,36)" opacity="0.35"/>
<circle cx="288" cy="264" r="9" fill="rgb(12,30,36)"/>
<circle cx="312" cy="264" r="12" fill="rgb(10,28,35)" opacity="0.35"/>
<circle cx="312" cy="264" r="9" fill="rgb(10,28,35)"/>
<circle cx="336" cy="264" r="12" fill="rgb(9,27,34)" opacity="0.35"/>
<circle cx="336" cy="264" r="9" fill="rgb(9,27,34)"/>
<circle cx="360" cy="264" r="12" fill="rgb(7,26,34)" opacity="0.35"/>
<circle cx="360" cy="264" r="9" fill="rgb(7,26,34)"/>
<circle cx="384" cy="264" r="12" fill="rgb(6,25,33)" opacity="0.35"/>
<circle cx="384" cy="264" r="9" fill="rgb(6,25,33)"/>
<circle cx="24" cy="288" r="12" fill="rgb(21,33,37)" opacity="0.35"/>
<circle cx="24" cy="288" r="9" fill="rgb(21,33,37)"/>
<circle cx="48" cy="288" r="12" fill="rgb(22,33,37)" opacity="0.35"/>
<circle cx="48" cy="288" r="9" fill="rgb(22,33,37)"/>
<circle cx="72" cy="288" r="12" fill="rgb(23,33,37)" opacity="0.35"/>
<circle cx="72" cy="288" r="9" fill="rgb(23,33,37)"/>
<circle cx="96" cy="288" r="12" fill="rgb(23,34,37)" opacity="0.35"/>
<circle cx="96" cy="288" r="9" fill="rgb(23,34,37)"/>
<circle cx="120" cy="288" r="12" fill="rgb(22,33,37)" opacity="0.35"/>
<circle cx="120" cy="288" r="9" fill="rgb(22,33,37)"/>
<circle cx="144" cy="288" r="12" fill="rgb(33,36,38)" opacity="0.35"/>
<circle cx="144" cy="288" r="9" fill="rgb(33,36,38)"/>
<circle cx="168" cy="288" r="12" fill="rgb(37,38,38)" opacity="0.35"/>
<circle cx="168" cy="288" r="9" fill="rgb(37,38,38)"/>
<circle cx="192" cy="288" r="12" fill="rgb(19,32,37)" opacity="0.35"/>
<circle cx="192" cy="288" r="9" fill="rgb(19,32,37)"/>
<circle cx="216" cy="288" r="12" fill="rgb(17,32,37)" opacity="0.35"/>
<circle cx="216" cy="288" r="9" fill="rgb(17,32,37)"/>
<circle cx="240" cy="288" r="12" fill="rgb(15,31,36)" opacity="0.35"/>
<circle cx="240" cy="288" r="9" fill="rgb(15,31,36)"/>
<circle cx="264" cy="288" r="12" fill="rgb(13,30,36)" opacity="0.35"/>
<circle cx="264" cy="288" r="9" fill="rgb(13,30,36)"/>
<circle cx="288" cy="288" r="12" fill="rgb(11,29,36)" opacity="0.35"/>
<circle cx="288" cy="288" r="9" fill="rgb(11,29,36)"/>
<circle cx="312" cy="288" r="12" fill="rgb(10,28,35)" opacity="0.35"/>
<circle cx="312" cy="288" r="9" fill="rgb(10,28,35)"/>
<circle cx="336" cy="288" r="12" fill="rgb(8,27,34)" opacity="0.35"/>
<circle cx="336" cy="288" r="9" fill="rgb(8,27,34)"/>
<circle cx="360" cy="288" r="12" fill="rgb(7,26,34)" opacity="0.35"/>
<circle cx="360" cy="288" r="9" fill="rgb(7,26,34)"/>
<circle cx="384" cy="288" r="12" fill="rgb(6,24,33)" opacity="0.35"/>
<circle cx="384" cy="288" r="9" fill="rgb(6,24,33)"/>
<circle cx="24" cy="312" r="12" fill="rgb(21,33,37)" opacity="0.35"/>
<circle cx="24" cy="312" r="9" fill="rgb(21,33,37)"/>
<circle cx="48" cy="312" r="12" fill="rgb(21,33,37)" opacity="0.35"/>
<circle cx="48" cy="312" r="9" fill="rgb(21,33,37)"/>
<circle cx="72" cy="312" r="12" fill="rgb(22,33,37)" opacity="0.35"/>
<circle cx="72" cy="312" r="9" fill="rgb(22,33,37)"/>
<circle cx="96" cy="312" r="12" fill="rgb(22,33,37)" opacity="0.35"/>
<circle cx="96" cy="312" r="9" fill="rgb(22,33,37)"/>
<circle cx="120" cy="312" r="12" fill="rgb(22,33,37)" opacity="0.35"/>
<circle cx="120" cy="312" r="9" fill="rgb(22,33,37)"/>
<circle cx="144" cy="312" r="12" fill="rgb(37,38,38)" opacity="0.35"/>
<circle cx="144" cy="312" r="9" fill="rgb(37,38,38)"/>
<circle cx="168" cy="312" r="12" fill="rgb(32,36,38)" opacity="0.35"/>
<circle cx="168" cy="312" r="9" fill="rgb(32,36,38)"/>
<circle cx="192" cy="312" r="12" fill="rgb(18,32,37)" opacity="0.35"/>
<circle cx="192" cy="312" r="9" fill="rgb(18,32,37)"/>
<circle cx="216" cy="312" r="12" fill="rgb(16,32,37)" opacity="0.35"/>
<circle cx="216" cy="312" r="9" fill="rgb(16,32,37)"/>
<circle cx="240" cy="312" r="12" fill="rgb(14,31,36)" opacity="0.35"/>
<circle cx="240" cy="312" r="9" fill="rgb(14,31,36)"/>
<circle cx="264" cy="312" r="12" fill="rgb(12,30,36)" opacity="0.35"/>
<circle cx="264" cy="312" r="9" fill="rgb(12,30,36)"/>
<circle cx="288" cy="312" r="12" fill="rgb(11,29,35)" opacity="0.35"/>
<circle cx="288" cy="312" r="9" fill="rgb(11,29,35)"/>
<circle cx="312" cy="312" r="12" fill="rgb(10,28,35)" opacity="0.35"/>
<circle cx="312" cy="312" r="9" fill="rgb(10,28,35)"/>
<circle cx="336" cy="312" r="12" fill="rgb(8,27,34)" opacity="0.35"/>
<circle cx="336" cy="312" r="9" fill="rgb(8,27,34)"/>
<circle cx="360" cy="312" r="12" fill="rgb(7,25,33)" opacity="0.35"/>
<circle cx="360" cy="312" r="9" fill="rgb(7,25,33)"/>
<circle cx="384" cy="312" r="12" fill="rgb(5,24,33)" opacity="0.35"/>
<circle cx="384" cy="312" r="9" fill="rgb(5,24,33)"/>
<circle cx="24" cy="336" r="12" fill="rgb(20,33,37)" opacity="0.35"/>
<circle cx="24" cy="336" r="9" fill="rgb(20,33,37)"/>
<circle cx="48" cy="336" r="12" fill="rgb(21,33,37)" opacity="0.35"/>
<circle cx="48" cy="336" r="9" fill="rgb(21,33,37)"/>
<circle cx="72" cy="336" r="12" fill="rgb(21,33,37)" opacity="0.35"/>
<circle cx="72" cy="336" r="9" fill="rgb(21,33,37)"/>
<circle cx="96" cy="336" r="12" fill="rgb(21,33,37)" opacity="0.35"/>
<circle cx="96" cy="336" r="9" fill="rgb(21,33,37)"/>
<circle cx="120" cy="336" r="12" fill="rgb(30,36,38)" opacity="0.35"/>
<circle cx="120" cy="336" r="9" fill="rgb(30,36,38)"/>
<circle cx="144" cy="336" r="12" fill="rgb(38,38,38)" opacity="0.35"/>
<circle cx="144" cy="336" r="9" fill="rgb(38,38,38)"/>
<circle cx="168" cy="336" r="12" fill="rgb(21,33,37)" opacity="0.35"/>
<circle cx="168" cy="336" r="9" fill="rgb(21,33,37)"/>
<circle cx="192" cy="336" r="12" fill="rgb(17,32,37)" opacity="0.35"/>
<circle cx="192" cy="336" r="9" fill="rgb(17,32,37)"/>
<circle cx="216" cy="336" r="12" fill="rgb(16,31,37)" opacity="0.35"/>
<circle cx="216" cy="336" r="9" fill="rgb(16,31,37)"/>
<circle cx="240" cy="336" r="12" fill="rgb(14,31,36)" opacity="0.35"/>
<circle cx="240" cy="336" r="9" fill="rgb(14,31,36)"/>
<circle cx="264" cy="336" r="12" fill="rgb(12,30,36)" opacity="0.35"/>
<circle cx="264" cy="336" r="9" fill="rgb(12,30,36)"/>
<circle cx="288" cy="336" r="12" fill="rgb(11,29,35)" opacity="0.35"/>
<circle cx="288" cy="336" r="9" fill="rgb(11,29,35)"/>
<circle cx="312" cy="336" r="12" fill="rgb(9,27,35)" opacity="0.35"/>
<circle cx="312" cy="336" r="9" fill="rgb(9,27,35)"/>
<circle cx="336" cy="336" r="12" fill="rgb(8,26,34)" opacity="0.35"/>
<circle cx="336" cy="336" r="9" fill="rgb(8,26,34)"/>
<circle cx="360" cy="336" r="12" fill="rgb(6,25,33)" opacity="0.35"/>
<circle cx="360" cy="336" r="9" fill="rgb(6,25,33)"/>
<circle cx="384" cy="336" r="12" fill="rgb(5,24,33)" opacity="0.35"/>
<circle cx="384" cy="336" r="9" fill="rgb(5,24,33)"/>
<circle cx="24" cy="360" r="12" fill="rgb(19,32,37)" opacity="0.35"/>
<circle cx="24" cy="360" r="9" fill="rgb(19,32,37)"/>
<circle cx="48" cy="360" r="12" fill="rgb(20,33,37)" opacity="0.35"/>
<circle cx="48" cy="360" r="9" fill="rgb(20,33,37)"/>
<circle cx="72" cy="360" r="12" fill="rgb(20,33,37)" opacity="0.35"/>
<circle cx="72" cy="360" r="9" fill="rgb(20,33,37)"/>
<circle cx="96" cy="360" r="12" fill="rgb(20,33,37)" opacity="0.35"/>
<circle cx="96" cy="360" r="9" fill="rgb(20,33,37)"/>
<circle cx="120" cy="360" r="12" fill="rgb(36,38,38)" opacity="0.35"/>
<circle cx="120" cy="360" r="9" fill="rgb(36,38,38)"/>
<circle cx="144" cy="360" r="12" fill="rgb(33,37,38)" opacity="0.35"/>
<circle cx="144" cy="360" r="9" fill="rgb(33,37,38)"/>
<circle cx="168" cy="360" r="12" fill="rgb(18,32,37)" opacity="0.35"/>
<circle cx="168" cy="360" r="9" fill="rgb(18,32,37)"/>
<circle cx="192" cy="360" r="12" fill="rgb(17,32,37)" opacity="0.35"/>
<circle cx="192" cy="360" r="9" fill="rgb(17,32,37)"/>
<circle cx="216" cy="360" r="12" fill="rgb(15,31,36)" opacity="0.35"/>
<circle cx="216" cy="360" r="9" fill="rgb(15,31,36)"/>
<circle cx="240" cy="360" r="12" fill="rgb(13,30,36)" opacity="0.35"/>
<circle cx="240" cy="360" r="9" fill="rgb(13,30,36)"/>
<circle cx="264" cy="360" r="12" fill="rgb(12,29,36)" opacity="0.35"/>
<circle cx="264" cy="360" r="9" fill="rgb(12,29,36)"/>
<circle cx="288" cy="360" r="12" fill="rgb(10,28,35)" opacity="0.35"/>
<circle cx="288" cy="360" r="9" fill="rgb(10,28,35)"/>
<circle cx="312" cy="360" r="12" fill="rgb(9,27,35)" opacity="0.35"/>
<circle cx="312" cy="360" r="9" fill="rgb(9,27,35)"/>
<circle cx="336" cy="360" r="12" fill="rgb(8,26,34)" opacity="0.35"/>
<circle cx="336" cy="360" r="9" fill="rgb(8,26,34)"/>
<circle cx="360" cy="360" r="12" fill="rgb(6,25,33)" opacity="0.35"/>
<circle cx="360" cy="360" r="9" fill="rgb(6,25,33)"/>
<circle cx="384" cy="360" r="12" fill="rgb(5,24,33)" opacity="0.35"/>
<circle cx="384" cy="360" r="9" fill="rgb(5,24,33)"/>
<circle cx="24" cy="384" r="12" fill="rgb(18,32,37)" opacity="0.35"/>
<circle cx="24" cy="384" r="9" fill="rgb(18,32,37)"/>
<circle cx="48" cy="384" r="12" fill="rgb(19,32,37)" opacity="0.35"/>
<circle cx="48" cy="384" r="9" fill="rgb(19,32,37)"/>
<circle cx="72" cy="384" r="12" fill="rgb(19,33,37)" opacity="0.35"/>
<circle cx="72" cy="384" r="9" fill="rgb(19,33,37)"/>
<circle cx="96" cy="384" r="12" fill="rgb(27,35,38)" opacity="0.35"/>
<circle cx="96" cy="384" r="9" fill="rgb(27,35,38)"/>
<circle cx="120" cy="384" r="12" fill="rgb(38,38,38)" opacity="0.35"/>
<circle cx="120" cy="384" r="9" fill="rgb(38,38,38)"/>
<circle cx="144" cy="384" r="12" fill="rgb(23,34,37)" opacity="0.35"/>
<circle cx="144" cy="384" r="9" fill="rgb(23,34,37)"/>
<circle cx="168" cy="384" r="12" fill="rgb(17,32,37)" opacity="0.35"/>
<circle cx="168" cy="384" r="9" fill="rgb(17,32,37)"/>
<circle cx="192" cy="384" r="12" fill="rgb(16,32,37)" opacity="0.35"/>
<circle cx="192" cy="384" r="9" fill="rgb(16,32,37)"/>
<circle cx="216" cy="384" r="12" fill="rgb(14,31,36)" opacity="0.35"/>
<circle cx="216" cy="384" r="9" fill="rgb(14,31,36)"/>
<circle cx="240" cy="384" r="12" fill="rgb(12,30,36)" opacity="0.35"/>
<circle cx="240" cy="384" r="9" fill="rgb(12,30,36)"/>
<circle cx="264" cy="384" r="12" fill="rgb(11,29,36)" opacity="0.35"/>
<circle cx="264" cy="384" r="9" fill="rgb(11,29,36)"/>
<circle cx="288" cy="384" r="12" fill="rgb(10,28,35)" opacity="0.35"/>
<circle cx="288" cy="384" r="9" fill="rgb(10,28,35)"/>
<circle cx="312" cy="384" r="12" fill="rgb(9,27,34)" opacity="0.35"/>
<circle cx="312" cy="384" r="9" fill="rgb(9,27,34)"/>
<circle cx="336" cy="384" r="12" fill="rgb(7,26,34)" opacity="0.35"/>
<circle cx="336" cy="384" r="9" fill="rgb(7,26,34)"/>
<circle cx="360" cy="384" r="12" fill="rgb(6,25,33)" opacity="0.35"/>
<circle cx="360" cy="384" r="9" fill="rgb(6,25,33)"/>
<circle cx="384" cy="384" r="12" fill="rgb(4,24,33)" opacity="0.35"/>
<circle cx="384" cy="384" r="9" fill="rgb(4,24,33)"/>
</svg>
