<svg xmlns="http://www.w3.org/2000/svg" viewBox="0 0 408 408" width="408" height="408" role="img" aria-label="LED preview of the Midrange Bloom example graph">
<rect width="408" height="408" rx="10" fill="#05070a"/>
<circle cx="24" cy="24" r="12" fill="rgb(19,27,61)" opacity="0.35"/>
<circle cx="24" cy="24" r="9" fill="rgb(19,27,61)"/>
<circle cx="48" cy="24" r="9" fill="#14171c"/>
<circle cx="72" cy="24" r="9" fill="#14171c"/>
<circle cx="96" cy="24" r="12" fill="rgb(38,6,10)" opacity="0.35"/>
<circle cx="96" cy="24" r="9" fill="rgb(38,6,10)"/>
<circle cx="120" cy="24" r="12" fill="rgb(103,19,21)" opacity="0.35"/>
<circle cx="120" cy="24" r="9" fill="rgb(103,19,21)"/>
<circle cx="144" cy="24" r="12" fill="rgb(89,12,25)" opacity="0.35"/>
<circle cx="144" cy="24" r="9" fill="rgb(89,12,25)"/>
<circle cx="168" cy="24" r="12" fill="rgb(25,1,10)" opacity="0.35"/>
<circle cx="168" cy="24" r="9" fill="rgb(25,1,10)"/>
<circle cx="192" cy="24" r="9" fill="#14171c"/>
<circle cx="216" cy="24" r="9" fill="#14171c"/>
<circle cx="240" cy="24" r="9" fill="#14171c"/>
<circle cx="264" cy="24" r="12" fill="rgb(7,7,18)" opacity="0.35"/>
<circle cx="264" cy="24" r="9" fill="rgb(7,7,18)"/>
<circle cx="288" cy="24" r="12" fill="rgb(30,36,86)" opacity="0.35"/>
<circle cx="288" cy="24" r="9" fill="rgb(30,36,86)"/>
<circle cx="312" cy="24" r="12" fill="rgb(31,43,96)" opacity="0.35"/>
<circle cx="312" cy="24" r="9" fill="rgb(31,43,96)"/>
<circle cx="336" cy="24" r="12" fill="rgb(6,8,19)" opacity="0.35"/>
<circle cx="336" cy="24" r="9" fill="rgb(6,8,19)"/>
<circle cx="360" cy="24" r="9" fill="#14171c"/>
<circle cx="384" cy="24" r="12" fill="rgb(103,9,34)" opacity="0.35"/>
<circle cx="384" cy="24" r="9" fill="rgb(103,9,34)"/>
<circle cx="24" cy="48" r="9" fill="#14171c"/>
<circle cx="48" cy="48" r="12" fill="rgb(8,12,26)" opacity="0.35"/>
<circle cx="48" cy="48" r="9" fill="rgb(8,12,26)"/>
<circle cx="72" cy="48" r="12" fill="rgb(39,43,106)" opacity="0.35"/>
<circle cx="72" cy="48" r="9" fill="rgb(39,43,106)"/>
<circle cx="96" cy="48" r="12" fill="rgb(11,17,36)" opacity="0.35"/>
<circle cx="96" cy="48" r="9" fill="rgb(11,17,36)"/>
<circle cx="120" cy="48" r="9" fill="#14171c"/>
<circle cx="144" cy="48" r="9" fill="#14171c"/>
<circle cx="168" cy="48" r="12" fill="rgb(6,10,22)" opacity="0.35"/>
<circle cx="168" cy="48" r="9" fill="rgb(6,10,22)"/>
<circle cx="192" cy="48" r="12" fill="rgb(24,25,64)" opacity="0.35"/>
<circle cx="192" cy="48" r="9" fill="rgb(24,25,64)"/>
<circle cx="216" cy="48" r="12" fill="rgb(36,26,80)" opacity="0.35"/>
<circle cx="216" cy="48" r="9" fill="rgb(36,26,80)"/>
<circle cx="240" cy="48" r="12" fill="rgb(33,19,66)" opacity="0.35"/>
<circle cx="240" cy="48" r="9" fill="rgb(33,19,66)"/>
<circle cx="264" cy="48" r="12" fill="rgb(13,7,26)" opacity="0.35"/>
<circle cx="264" cy="48" r="9" fill="rgb(13,7,26)"/>
<circle cx="288" cy="48" r="9" fill="#14171c"/>
<circle cx="312" cy="48" r="9" fill="#14171c"/>
<circle cx="336" cy="48" r="12" fill="rgb(42,26,86)" opacity="0.35"/>
<circle cx="336" cy="48" r="9" fill="rgb(42,26,86)"/>
<circle cx="360" cy="48" r="12" fill="rgb(6,10,20)" opacity="0.35"/>
<circle cx="360" cy="48" r="9" fill="rgb(6,10,20)"/>
<circle cx="384" cy="48" r="12" fill="rgb(40,11,4)" opacity="0.35"/>
<circle cx="384" cy="48" r="9" fill="rgb(40,11,4)"/>
<circle cx="24" cy="72" r="9" fill="#14171c"/>
<circle cx="48" cy="72" r="12" fill="rgb(93,8,31)" opacity="0.35"/>
<circle cx="48" cy="72" r="9" fill="rgb(93,8,31)"/>
<circle cx="72" cy="72" r="9" fill="#14171c"/>
<circle cx="96" cy="72" r="9" fill="#14171c"/>
<circle cx="120" cy="72" r="12" fill="rgb(47,25,91)" opacity="0.35"/>
<circle cx="120" cy="72" r="9" fill="rgb(47,25,91)"/>
<circle cx="144" cy="72" r="12" fill="rgb(44,19,80)" opacity="0.35"/>
<circle cx="144" cy="72" r="9" fill="rgb(44,19,80)"/>
<circle cx="168" cy="72" r="9" fill="#14171c"/>
<circle cx="192" cy="72" r="9" fill="#14171c"/>
<circle cx="216" cy="72" r="9" fill="#14171c"/>
<circle cx="240" cy="72" r="9" fill="#14171c"/>
<circle cx="264" cy="72" r="12" fill="rgb(29,19,14)" opacity="0.35"/>
<circle cx="264" cy="72" r="9" fill="rgb(29,19,14)"/>
<circle cx="288" cy="72" r="12" fill="rgb(84,54,52)" opacity="0.35"/>
<circle cx="288" cy="72" r="9" fill="rgb(84,54,52)"/>
<circle cx="312" cy="72" r="12" fill="rgb(20,11,23)" opacity="0.35"/>
<circle cx="312" cy="72" r="9" fill="rgb(20,11,23)"/>
<circle cx="336" cy="72" r="9" fill="#14171c"/>
<circle cx="360" cy="72" r="12" fill="rgb(88,10,27)" opacity="0.35"/>
<circle cx="360" cy="72" r="9" fill="rgb(88,10,27)"/>
<circle cx="384" cy="72" r="9" fill="#14171c"/>
<circle cx="24" cy="96" r="12" fill="rgb(54,5,18)" opacity="0.35"/>
<circle cx="24" cy="96" r="9" fill="rgb(54,5,18)"/>
<circle cx="48" cy="96" r="12" fill="rgb(93,14,24)" opacity="0.35"/>
<circle cx="48" cy="96" r="9" fill="rgb(93,14,24)"/>
<circle cx="72" cy="96" r="9" fill="#14171c"/>
<circle cx="96" cy="96" r="12" fill="rgb(52,29,103)" opacity="0.35"/>
<circle cx="96" cy="96" r="9" fill="rgb(52,29,103)"/>
<circle cx="120" cy="96" r="9" fill="#14171c"/>
<circle cx="144" cy="96" r="9" fill="#14171c"/>
<circle cx="168" cy="96" r="12" fill="rgb(73,53,3)" opacity="0.35"/>
<circle cx="168" cy="96" r="9" fill="rgb(73,53,3)"/>
<circle cx="192" cy="96" r="12" fill="rgb(110,72,4)" opacity="0.35"/>
<circle cx="192" cy="96" r="9" fill="rgb(110,72,4)"/>
<circle cx="216" cy="96" r="12" fill="rgb(111,71,4)" opacity="0.35"/>
<circle cx="216" cy="96" r="9" fill="rgb(111,71,4)"/>
<circle cx="240" cy="96" r="12" fill="rgb(85,56,3)" opacity="0.35"/>
<circle cx="240" cy="96" r="9" fill="rgb(85,56,3)"/>
<circle cx="264" cy="96" r="9" fill="#14171c"/>
<circle cx="288" cy="96" r="9" fill="#14171c"/>
<circle cx="312" cy="96" r="12" fill="rgb(59,26,103)" opacity="0.35"/>
<circle cx="312" cy="96" r="9" fill="rgb(59,26,103)"/>
<circle cx="336" cy="96" r="9" fill="#14171c"/>
<circle cx="360" cy="96" r="12" fill="rgb(95,15,23)" opacity="0.35"/>
<circle cx="360" cy="96" r="9" fill="rgb(95,15,23)"/>
<circle cx="384" cy="96" r="12" fill="rgb(43,6,12)" opacity="0.35"/>
<circle cx="384" cy="96" r="9" fill="rgb(43,6,12)"/>
<circle cx="24" cy="120" r="12" fill="rgb(27,52,105)" opacity="0.35"/>
<circle cx="24" cy="120" r="9" fill="rgb(27,52,105)"/>
<circle cx="48" cy="120" r="9" fill="#14171c"/>
<circle cx="72" cy="120" r="12" fill="rgb(9,17,34)" opacity="0.35"/>
<circle cx="72" cy="120" r="9" fill="rgb(9,17,34)"/>
<circle cx="96" cy="120" r="12" fill="rgb(18,9,35)" opacity="0.35"/>
<circle cx="96" cy="120" r="9" fill="rgb(18,9,35)"/>
<circle cx="120" cy="120" r="9" fill="#14171c"/>
<circle cx="144" cy="120" r="12" fill="rgb(104,65,4)" opacity="0.35"/>
<circle cx="144" cy="120" r="9" fill="rgb(104,65,4)"/>
<circle cx="168" cy="120" r="9" fill="#14171c"/>
<circle cx="192" cy="120" r="9" fill="#14171c"/>
<circle cx="216" cy="120" r="9" fill="#14171c"/>
<circle cx="240" cy="120" r="12" fill="rgb(19,11,1)" opacity="0.35"/>
<circle cx="240" cy="120" r="9" fill="rgb(19,11,1)"/>
<circle cx="264" cy="120" r="12" fill="rgb(112,82,5)" opacity="0.35"/>
<circle cx="264" cy="120" r="9" fill="rgb(112,82,5)"/>
<circle cx="288" cy="120" r="9" fill="#14171c"/>
<circle cx="312" cy="120" r="12" fill="rgb(23,17,52)" opacity="0.35"/>
<circle cx="312" cy="120" r="9" fill="rgb(23,17,52)"/>
<circle cx="336" cy="120" r="12" fill="rgb(6,14,28)" opacity="0.35"/>
<circle cx="336" cy="120" r="9" fill="rgb(6,14,28)"/>
<circle cx="360" cy="120" r="9" fill="#14171c"/>
<circle cx="384" cy="120" r="12" fill="rgb(29,44,95)" opacity="0.35"/>
<circle cx="384" cy="120" r="9" fill="rgb(29,44,95)"/>
<circle cx="24" cy="144" r="12" fill="rgb(9,11,25)" opacity="0.35"/>
<circle cx="24" cy="144" r="9" fill="rgb(9,11,25)"/>
<circle cx="48" cy="144" r="9" fill="#14171c"/>
<circle cx="72" cy="144" r="12" fill="rgb(38,46,109)" opacity="0.35"/>
<circle cx="72" cy="144" r="9" fill="rgb(38,46,109)"/>
<circle cx="96" cy="144" r="9" fill="#14171c"/>
<circle cx="120" cy="144" r="12" fill="rgb(104,76,18)" opacity="0.35"/>
<circle cx="120" cy="144" r="9" fill="rgb(104,76,18)"/>
<circle cx="144" cy="144" r="9" fill="#14171c"/>
<circle cx="168" cy="144" r="12" fill="rgb(25,10,1)" opacity="0.35"/>
<circle cx="168" cy="144" r="9" fill="rgb(25,10,1)"/>
<circle cx="192" cy="144" r="12" fill="rgb(89,32,2)" opacity="0.35"/>
<circle cx="192" cy="144" r="9" fill="rgb(89,32,2)"/>
<circle cx="216" cy="144" r="12" fill="rgb(76,33,2)" opacity="0.35"/>
<circle cx="216" cy="144" r="9" fill="rgb(76,33,2)"/>
<circle cx="240" cy="144" r="9" fill="#14171c"/>
<circle cx="264" cy="144" r="12" fill="rgb(20,14,3)" opacity="0.35"/>
<circle cx="264" cy="144" r="9" fill="rgb(20,14,3)"/>
<circle cx="288" cy="144" r="12" fill="rgb(45,24,56)" opacity="0.35"/>
<circle cx="288" cy="144" r="9" fill="rgb(45,24,56)"/>
<circle cx="312" cy="144" r="9" fill="#14171c"/>
<circle cx="336" cy="144" r="12" fill="rgb(28,52,107)" opacity="0.35"/>
<circle cx="336" cy="144" r="9" fill="rgb(28,52,107)"/>
<circle cx="360" cy="144" r="9" fill="#14171c"/>
<circle cx="384" cy="144" r="9" fill="#14171c"/>
<circle cx="24" cy="168" r="9" fill="#14171c"/>
<circle cx="48" cy="168" r="12" fill="rgb(24,18,53)" opacity="0.35"/>
<circle cx="48" cy="168" r="9" fill="rgb(24,18,53)"/>
<circle cx="72" cy="168" r="12" fill="rgb(21,14,45)" opacity="0.35"/>
<circle cx="72" cy="168" r="9" fill="rgb(21,14,45)"/>
<circle cx="96" cy="168" r="9" fill="#14171c"/>
<circle cx="120" cy="168" r="12" fill="rgb(51,38,3)" opacity="0.35"/>
<circle cx="120" cy="168" r="9" fill="rgb(51,38,3)"/>
<circle cx="144" cy="168" r="9" fill="#14171c"/>
<circle cx="168" cy="168" r="12" fill="rgb(106,40,3)" opacity="0.35"/>
<circle cx="168" cy="168" r="9" fill="rgb(106,40,3)"/>
<circle cx="192" cy="168" r="12" fill="rgb(23,8,1)" opacity="0.35"/>
<circle cx="192" cy="168" r="9" fill="rgb(23,8,1)"/>
<circle cx="216" cy="168" r="12" fill="rgb(39,17,1)" opacity="0.35"/>
<circle cx="216" cy="168" r="9" fill="rgb(39,17,1)"/>
<circle cx="240" cy="168" r="12" fill="rgb(102,64,4)" opacity="0.35"/>
<circle cx="240" cy="168" r="9" fill="rgb(102,64,4)"/>
<circle cx="264" cy="168" r="9" fill="#14171c"/>
<circle cx="288" cy="168" r="12" fill="rgb(62,30,95)" opacity="0.35"/>
<circle cx="288" cy="168" r="9" fill="rgb(62,30,95)"/>
<circle cx="312" cy="168" r="9" fill="#14171c"/>
<circle cx="336" cy="168" r="12" fill="rgb(27,31,76)" opacity="0.35"/>
<circle cx="336" cy="168" r="9" fill="rgb(27,31,76)"/>
<circle cx="360" cy="168" r="12" fill="rgb(29,19,61)" opacity="0.35"/>
<circle cx="360" cy="168" r="9" fill="rgb(29,19,61)"/>
<circle cx="384" cy="168" r="9" fill="#14171c"/>
<circle cx="24" cy="192" r="9" fill="#14171c"/>
<circle cx="48" cy="192" r="12" fill="rgb(57,25,94)" opacity="0.35"/>
<circle cx="48" cy="192" r="9" fill="rgb(57,25,94)"/>
<circle cx="72" cy="192" r="9" fill="#14171c"/>
<circle cx="96" cy="192" r="12" fill="rgb(44,27,30)" opacity="0.35"/>
<circle cx="96" cy="192" r="9" fill="rgb(44,27,30)"/>
<circle cx="120" cy="192" r="9" fill="#14171c"/>
<circle cx="144" cy="192" r="12" fill="rgb(55,29,2)" opacity="0.35"/>
<circle cx="144" cy="192" r="9" fill="rgb(55,29,2)"/>
<circle cx="168" cy="192" r="12" fill="rgb(33,13,1)" opacity="0.35"/>
<circle cx="168" cy="192" r="9" fill="rgb(33,13,1)"/>
<circle cx="192" cy="192" r="9" fill="#14171c"/>
<circle cx="216" cy="192" r="9" fill="#14171c"/>
<circle cx="240" cy="192" r="12" fill="rgb(86,58,3)" opacity="0.35"/>
<circle cx="240" cy="192" r="9" fill="rgb(86,58,3)"/>
<circle cx="264" cy="192" r="9" fill="#14171c"/>
<circle cx="288" cy="192" r="12" fill="rgb(46,23,66)" opacity="0.35"/>
<circle cx="288" cy="192" r="9" fill="rgb(46,23,66)"/>
<circle cx="312" cy="192" r="9" fill="#14171c"/>
<circle cx="336" cy="192" r="12" fill="rgb(11,7,23)" opacity="0.35"/>
<circle cx="336" cy="192" r="9" fill="rgb(11,7,23)"/>
<circle cx="360" cy="192" r="12" fill="rgb(64,32,88)" opacity="0.35"/>
<circle cx="360" cy="192" r="9" fill="rgb(64,32,88)"/>
<circle cx="384" cy="192" r="9" fill="#14171c"/>
<circle cx="24" cy="216" r="9" fill="#14171c"/>
<circle cx="48" cy="216" r="12" fill="rgb(72,40,78)" opacity="0.35"/>
<circle cx="48" cy="216" r="9" fill="rgb(72,40,78)"/>
<circle cx="72" cy="216" r="9" fill="#14171c"/>
<circle cx="96" cy="216" r="12" fill="rgb(49,31,29)" opacity="0.35"/>
<circle cx="96" cy="216" r="9" fill="rgb(49,31,29)"/>
<circle cx="120" cy="216" r="9" fill="#14171c"/>
<circle cx="144" cy="216" r="12" fill="rgb(41,25,2)" opacity="0.35"/>
<circle cx="144" cy="216" r="9" fill="rgb(41,25,2)"/>
<circle cx="168" cy="216" r="12" fill="rgb(51,26,2)" opacity="0.35"/>
<circle cx="168" cy="216" r="9" fill="rgb(51,26,2)"/>
<circle cx="192" cy="216" r="9" fill="#14171c"/>
<circle cx="216" cy="216" r="9" fill="#14171c"/>
<circle cx="240" cy="216" r="12" fill="rgb(93,65,4)" opacity="0.35"/>
<circle cx="240" cy="216" r="9" fill="rgb(93,65,4)"/>
<circle cx="264" cy="216" r="9" fill="#14171c"/>
<circle cx="288" cy="216" r="12" fill="rgb(44,24,47)" opacity="0.35"/>
<circle cx="288" cy="216" r="9" fill="rgb(44,24,47)"/>
<circle cx="312" cy="216" r="12" fill="rgb(10,5,19)" opacity="0.35"/>
<circle cx="312" cy="216" r="9" fill="rgb(10,5,19)"/>
<circle cx="336" cy="216" r="9" fill="#14171c"/>
<circle cx="360" cy="216" r="12" fill="rgb(76,45,70)" opacity="0.35"/>
<circle cx="360" cy="216" r="9" fill="rgb(76,45,70)"/>
<circle cx="384" cy="216" r="9" fill="#14171c"/>
<circle cx="24" cy="240" r="9" fill="#14171c"/>
<circle cx="48" cy="240" r="12" fill="rgb(67,38,70)" opacity="0.35"/>
<circle cx="48" cy="240" r="9" fill="rgb(67,38,70)"/>
<circle cx="72" cy="240" r="9" fill="#14171c"/>
<circle cx="96" cy="240" r="9" fill="#14171c"/>
<circle cx="120" cy="240" r="12" fill="rgb(61,44,14)" opacity="0.35"/>
<circle cx="120" cy="240" r="9" fill="rgb(61,44,14)"/>
<circle cx="144" cy="240" r="9" fill="#14171c"/>
<circle cx="168" cy="240" r="12" fill="rgb(102,64,4)" opacity="0.35"/>
<circle cx="168" cy="240" r="9" fill="rgb(102,64,4)"/>
<circle cx="192" cy="240" r="12" fill="rgb(74,45,3)" opacity="0.35"/>
<circle cx="192" cy="240" r="9" fill="rgb(74,45,3)"/>
<circle cx="216" cy="240" r="12" fill="rgb(81,52,3)" opacity="0.35"/>
<circle cx="216" cy="240" r="9" fill="rgb(81,52,3)"/>
<circle cx="240" cy="240" r="12" fill="rgb(87,63,4)" opacity="0.35"/>
<circle cx="240" cy="240" r="9" fill="rgb(87,63,4)"/>
<circle cx="264" cy="240" r="9" fill="#14171c"/>
<circle cx="288" cy="240" r="12" fill="rgb(70,44,48)" opacity="0.35"/>
<circle cx="288" cy="240" r="9" fill="rgb(70,44,48)"/>
<circle cx="312" cy="240" r="9" fill="#14171c"/>
<circle cx="336" cy="240" r="12" fill="rgb(14,6,22)" opacity="0.35"/>
<circle cx="336" cy="240" r="9" fill="rgb(14,6,22)"/>
<circle cx="360" cy="240" r="12" fill="rgb(71,41,68)" opacity="0.35"/>
<circle cx="360" cy="240" r="9" fill="rgb(71,41,68)"/>
<circle cx="384" cy="240" r="9" fill="#14171c"/>
<circle cx="24" cy="264" r="9" fill="#14171c"/>
<circle cx="48" cy="264" r="12" fill="rgb(23,11,36)" opacity="0.35"/>
<circle cx="48" cy="264" r="9" fill="rgb(23,11,36)"/>
<circle cx="72" cy="264" r="12" fill="rgb(44,19,80)" opacity="0.35"/>
<circle cx="72" cy="264" r="9" fill="rgb(44,19,80)"/>
<circle cx="96" cy="264" r="9" fill="#14171c"/>
<circle cx="120" cy="264" r="12" fill="rgb(84,56,40)" opacity="0.35"/>
<circle cx="120" cy="264" r="9" fill="rgb(84,56,40)"/>
<circle cx="144" cy="264" r="12" fill="rgb(20,14,3)" opacity="0.35"/>
<circle cx="144" cy="264" r="9" fill="rgb(20,14,3)"/>
<circle cx="168" cy="264" r="9" fill="#14171c"/>
<circle cx="192" cy="264" r="12" fill="rgb(20,14,1)" opacity="0.35"/>
<circle cx="192" cy="264" r="9" fill="rgb(20,14,1)"/>
<circle cx="216" cy="264" r="12" fill="rgb(22,16,1)" opacity="0.35"/>
<circle cx="216" cy="264" r="9" fill="rgb(22,16,1)"/>
<circle cx="240" cy="264" r="9" fill="#14171c"/>
<circle cx="264" cy="264" r="9" fill="#14171c"/>
<circle cx="288" cy="264" r="12" fill="rgb(95,67,30)" opacity="0.35"/>
<circle cx="288" cy="264" r="9" fill="rgb(95,67,30)"/>
<circle cx="312" cy="264" r="9" fill="#14171c"/>
<circle cx="336" cy="264" r="12" fill="rgb(44,19,74)" opacity="0.35"/>
<circle cx="336" cy="264" r="9" fill="rgb(44,19,74)"/>
<circle cx="360" cy="264" r="12" fill="rgb(22,10,35)" opacity="0.35"/>
<circle cx="360" cy="264" r="9" fill="rgb(22,10,35)"/>
<circle cx="384" cy="264" r="9" fill="#14171c"/>
<circle cx="24" cy="288" r="12" fill="rgb(18,8,30)" opacity="0.35"/>
<circle cx="24" cy="288" r="9" fill="rgb(18,8,30)"/>
<circle cx="48" cy="288" r="9" fill="#14171c"/>
<circle cx="72" cy="288" r="12" fill="rgb(38,26,82)" opacity="0.35"/>
<circle cx="72" cy="288" r="9" fill="rgb(38,26,82)"/>
<circle cx="96" cy="288" r="12" fill="rgb(13,6,19)" opacity="0.35"/>
<circle cx="96" cy="288" r="9" fill="rgb(13,6,19)"/>
<circle cx="120" cy="288" r="9" fill="#14171c"/>
<circle cx="144" cy="288" r="12" fill="rgb(85,57,40)" opacity="0.35"/>
<circle cx="144" cy="288" r="9" fill="rgb(85,57,40)"/>
<circle cx="168" cy="288" r="12" fill="rgb(65,45,22)" opacity="0.35"/>
<circle cx="168" cy="288" r="9" fill="rgb(65,45,22)"/>
<circle cx="192" cy="288" r="12" fill="rgb(21,15,5)" opacity="0.35"/>
<circle cx="192" cy="288" r="9" fill="rgb(21,15,5)"/>
<circle cx="216" cy="288" r="9" fill="#14171c"/>
<circle cx="240" cy="288" r="12" fill="rgb(42,29,2)" opacity="0.35"/>
<circle cx="240" cy="288" r="9" fill="rgb(42,29,2)"/>
<circle cx="264" cy="288" r="12" fill="rgb(109,74,4)" opacity="0.35"/>
<circle cx="264" cy="288" r="9" fill="rgb(109,74,4)"/>
<circle cx="288" cy="288" r="12" fill="rgb(33,25,1)" opacity="0.35"/>
<circle cx="288" cy="288" r="9" fill="rgb(33,25,1)"/>
<circle cx="312" cy="288" r="9" fill="#14171c"/>
<circle cx="336" cy="288" r="12" fill="rgb(51,24,94)" opacity="0.35"/>
<circle cx="336" cy="288" r="9" fill="rgb(51,24,94)"/>
<circle cx="360" cy="288" r="9" fill="#14171c"/>
<circle cx="384" cy="288" r="12" fill="rgb(26,19,57)" opacity="0.35"/>
<circle cx="384" cy="288" r="9" fill="rgb(26,19,57)"/>
<circle cx="24" cy="312" r="12" fill="rgb(39,41,104)" opacity="0.35"/>
<circle cx="24" cy="312" r="9" fill="rgb(39,41,104)"/>
<circle cx="48" cy="312" r="12" fill="rgb(11,16,36)" opacity="0.35"/>
<circle cx="48" cy="312" r="9" fill="rgb(11,16,36)"/>
<circle cx="72" cy="312" r="9" fill="#14171c"/>
<circle cx="96" cy="312" r="12" fill="rgb(59,26,103)" opacity="0.35"/>
<circle cx="96" cy="312" r="9" fill="rgb(59,26,103)"/>
<circle cx="120" cy="312" r="9" fill="#14171c"/>
<circle cx="144" cy="312" r="9" fill="#14171c"/>
<circle cx="168" cy="312" r="9" fill="#14171c"/>
<circle cx="192" cy="312" r="12" fill="rgb(46,29,30)" opacity="0.35"/>
<circle cx="192" cy="312" r="9" fill="rgb(46,29,30)"/>
<circle cx="216" cy="312" r="12" fill="rgb(68,47,24)" opacity="0.35"/>
<circle cx="216" cy="312" r="9" fill="rgb(68,47,24)"/>
<circle cx="240" cy="312" r="12" fill="rgb(61,45,6)" opacity="0.35"/>
<circle cx="240" cy="312" r="9" fill="rgb(61,45,6)"/>
<circle cx="264" cy="312" r="9" fill="#14171c"/>
<circle cx="288" cy="312" r="9" fill="#14171c"/>
<circle cx="312" cy="312" r="12" fill="rgb(69,48,26)" opacity="0.35"/>
<circle cx="312" cy="312" r="9" fill="rgb(69,48,26)"/>
<circle cx="336" cy="312" r="9" fill="#14171c"/>
<circle cx="360" cy="312" r="12" fill="rgb(12,21,43)" opacity="0.35"/>
<circle cx="360" cy="312" r="9" fill="rgb(12,21,43)"/>
<circle cx="384" cy="312" r="12" fill="rgb(75,1,31)" opacity="0.35"/>
<circle cx="384" cy="312" r="9" fill="rgb(75,1,31)"/>
<circle cx="24" cy="336" r="9" fill="#14171c"/>
<circle cx="48" cy="336" r="12" fill="rgb(28,55,109)" opacity="0.35"/>
<circle cx="48" cy="336" r="9" fill="rgb(28,55,109)"/>
<circle cx="72" cy="336" r="9" fill="#14171c"/>
<circle cx="96" cy="336" r="9" fill="#14171c"/>
<circle cx="120" cy="336" r="12" fill="rgb(41,26,86)" opacity="0.35"/>
<circle cx="120" cy="336" r="9" fill="rgb(41,26,86)"/>
<circle cx="144" cy="336" r="12" fill="rgb(45,31,97)" opacity="0.35"/>
<circle cx="144" cy="336" r="9" fill="rgb(45,31,97)"/>
<circle cx="168" cy="336" r="12" fill="rgb(20,13,42)" opacity="0.35"/>
<circle cx="168" cy="336" r="9" fill="rgb(20,13,42)"/>
<circle cx="192" cy="336" r="9" fill="#14171c"/>
<circle cx="216" cy="336" r="9" fill="#14171c"/>
<circle cx="240" cy="336" r="9" fill="#14171c"/>
<circle cx="264" cy="336" r="12" fill="rgb(26,18,11)" opacity="0.35"/>
<circle cx="264" cy="336" r="9" fill="rgb(26,18,11)"/>
<circle cx="288" cy="336" r="12" fill="rgb(87,61,28)" opacity="0.35"/>
<circle cx="288" cy="336" r="9" fill="rgb(87,61,28)"/>
<circle cx="312" cy="336" r="12" fill="rgb(46,30,25)" opacity="0.35"/>
<circle cx="312" cy="336" r="9" fill="rgb(46,30,25)"/>
<circle cx="336" cy="336" r="9" fill="#14171c"/>
<circle cx="360" cy="336" r="12" fill="rgb(107,0,46)" opacity="0.35"/>
<circle cx="360" cy="336" r="9" fill="rgb(107,0,46)"/>
<circle cx="384" cy="336" r="9" fill="#14171c"/>
<circle cx="24" cy="360" r="9" fill="#14171c"/>
<circle cx="48" cy="360" r="12" fill="rgb(6,10,20)" opacity="0.35"/>
<circle cx="48" cy="360" r="9" fill="rgb(6,10,20)"/>
<circle cx="72" cy="360" r="12" fill="rgb(38,45,108)" opacity="0.35"/>
<circle cx="72" cy="360" r="9" fill="rgb(38,45,108)"/>
<circle cx="96" cy="360" r="12" fill="rgb(11,18,38)" opacity="0.35"/>
<circle cx="96" cy="360" r="9" fill="rgb(11,18,38)"/>
<circle cx="120" cy="360" r="9" fill="#14171c"/>
<circle cx="144" cy="360" r="9" fill="#14171c"/>
<circle cx="168" cy="360" r="12" fill="rgb(9,12,28)" opacity="0.35"/>
<circle cx="168" cy="360" r="9" fill="rgb(9,12,28)"/>
<circle cx="192" cy="360" r="12" fill="rgb(29,26,71)" opacity="0.35"/>
<circle cx="192" cy="360" r="9" fill="rgb(29,26,71)"/>
<circle cx="216" cy="360" r="12" fill="rgb(41,26,85)" opacity="0.35"/>
<circle cx="216" cy="360" r="9" fill="rgb(41,26,85)"/>
<circle cx="240" cy="360" r="12" fill="rgb(35,19,69)" opacity="0.35"/>
<circle cx="240" cy="360" r="9" fill="rgb(35,19,69)"/>
<circle cx="264" cy="360" r="12" fill="rgb(13,7,25)" opacity="0.35"/>
<circle cx="264" cy="360" r="9" fill="rgb(13,7,25)"/>
<circle cx="288" cy="360" r="9" fill="#14171c"/>
<circle cx="312" cy="360" r="9" fill="#14171c"/>
<circle cx="336" cy="360" r="12" fill="rgb(42,31,94)" opacity="0.35"/>
<circle cx="336" cy="360" r="9" fill="rgb(42,31,94)"/>
<circle cx="360" cy="360" r="9" fill="#14171c"/>
<circle cx="384" cy="360" r="12" fill="rgb(44,13,4)" opacity="0.35"/>
<circle cx="384" cy="360" r="9" fill="rgb(44,13,4)"/>
<circle cx="24" cy="384" r="12" fill="rgb(103,9,34)" opacity="0.35"/>
<circle cx="24" cy="384" r="9" fill="rgb(103,9,34)"/>
<circle cx="48" cy="384" r="9" fill="#14171c"/>
<circle cx="72" cy="384" r="9" fill="#14171c"/>
<circle cx="96" cy="384" r="12" fill="rgb(30,6,6)" opacity="0.35"/>
<circle cx="96" cy="384" r="9" fill="rgb(30,6,6)"/>
<circle cx="120" cy="384" r="12" fill="rgb(109,15,29)" opacity="0.35"/>
<circle cx="120" cy="384" r="9" fill="rgb(109,15,29)"/>
<circle cx="144" cy="384" r="12" fill="rgb(13,30,58)" opacity="0.35"/>
<circle cx="144" cy="384" r="9" fill="rgb(13,30,58)"/>
<circle cx="168" cy="384" r="9" fill="#14171c"/>
<circle cx="192" cy="384" r="9" fill="#14171c"/>
<circle cx="216" cy="384" r="9" fill="#14171c"/>
<circle cx="240" cy="384" r="9" fill="#14171c"/>
<circle cx="264" cy="384" r="12" fill="rgb(8,9,23)" opacity="0.35"/>
<circle cx="264" cy="384" r="9" fill="rgb(8,9,23)"/>
<circle cx="288" cy="384" r="12" fill="rgb(26,55,107)" opacity="0.35"/>
<circle cx="288" cy="384" r="9" fill="rgb(26,55,107)"/>
<circle cx="312" cy="384" r="12" fill="rgb(59,4,21)" opacity="0.35"/>
<circle cx="312" cy="384" r="9" fill="rgb(59,4,21)"/>
<circle cx="336" cy="384" r="9" fill="#14171c"/>
<circle cx="360" cy="384" r="9" fill="#14171c"/>
<circle cx="384" cy="384" r="12" fill="rgb(111,20,25)" opacity="0.35"/>
<circle cx="384" cy="384" r="9" fill="rgb(111,20,25)"/>
</svg>
