<svg xmlns="http://www.w3.org/2000/svg" viewBox="0 0 408 408" width="408" height="408" role="img" aria-label="LED preview of the Midrange Waves example graph">
<rect width="408" height="408" rx="10" fill="#05070a"/>
<circle cx="24" cy="24" r="9" fill="#14171c"/>
<circle cx="48" cy="24" r="9" fill="#14171c"/>
<circle cx="72" cy="24" r="9" fill="#14171c"/>
<circle cx="96" cy="24" r="12" fill="rgb(15,35,26)" opacity="0.35"/>
<circle cx="96" cy="24" r="9" fill="rgb(15,35,26)"/>
<circle cx="120" cy="24" r="12" fill="rgb(100,118,105)" opacity="0.35"/>
<circle cx="120" cy="24" r="9" fill="rgb(100,118,105)"/>
<circle cx="144" cy="24" r="9" fill="#14171c"/>
<circle cx="168" cy="24" r="12" fill="rgb(66,96,80)" opacity="0.35"/>
<circle cx="168" cy="24" r="9" fill="rgb(66,96,80)"/>
<circle cx="192" cy="24" r="12" fill="rgb(8,20,15)" opacity="0.35"/>
<circle cx="192" cy="24" r="9" fill="rgb(8,20,15)"/>
<circle cx="216" cy="24" r="9" fill="#14171c"/>
<circle cx="240" cy="24" r="9" fill="#14171c"/>
<circle cx="264" cy="24" r="9" fill="#14171c"/>
<circle cx="288" cy="24" r="12" fill="rgb(20,46,34)" opacity="0.35"/>
<circle cx="288" cy="24" r="9" fill="rgb(20,46,34)"/>
<circle cx="312" cy="24" r="9" fill="#14171c"/>
<circle cx="336" cy="24" r="9" fill="#14171c"/>
<circle cx="360" cy="24" r="12" fill="rgb(48,84,66)" opacity="0.35"/>
<circle cx="360" cy="24" r="9" fill="rgb(48,84,66)"/>
<circle cx="384" cy="24" r="9" fill="#14171c"/>
<circle cx="24" cy="48" r="9" fill="#14171c"/>
<circle cx="48" cy="48" r="9" fill="#14171c"/>
<circle cx="72" cy="48" r="9" fill="#14171c"/>
<circle cx="96" cy="48" r="12" fill="rgb(14,34,25)" opacity="0.35"/>
<circle cx="96" cy="48" r="9" fill="rgb(14,34,25)"/>
<circle cx="120" cy="48" r="12" fill="rgb(70,99,83)" opacity="0.35"/>
<circle cx="120" cy="48" r="9" fill="rgb(70,99,83)"/>
<circle cx="144" cy="48" r="12" fill="rgb(109,124,112)" opacity="0.35"/>
<circle cx="144" cy="48" r="9" fill="rgb(109,124,112)"/>
<circle cx="168" cy="48" r="12" fill="rgb(46,82,64)" opacity="0.35"/>
<circle cx="168" cy="48" r="9" fill="rgb(46,82,64)"/>
<circle cx="192" cy="48" r="12" fill="rgb(9,21,16)" opacity="0.35"/>
<circle cx="192" cy="48" r="9" fill="rgb(9,21,16)"/>
<circle cx="216" cy="48" r="9" fill="#14171c"/>
<circle cx="240" cy="48" r="9" fill="#14171c"/>
<circle cx="264" cy="48" r="9" fill="#14171c"/>
<circle cx="288" cy="48" r="12" fill="rgb(18,43,32)" opacity="0.35"/>
<circle cx="288" cy="48" r="9" fill="rgb(18,43,32)"/>
<circle cx="312" cy="48" r="12" fill="rgb(81,106,91)" opacity="0.35"/>
<circle cx="312" cy="48" r="9" fill="rgb(81,106,91)"/>
<circle cx="336" cy="48" r="12" fill="rgb(105,122,109)" opacity="0.35"/>
<circle cx="336" cy="48" r="9" fill="rgb(105,122,109)"/>
<circle cx="360" cy="48" r="12" fill="rgb(33,73,54)" opacity="0.35"/>
<circle cx="360" cy="48" r="9" fill="rgb(33,73,54)"/>
<circle cx="384" cy="48" r="12" fill="rgb(7,17,13)" opacity="0.35"/>
<circle cx="384" cy="48" r="9" fill="rgb(7,17,13)"/>
<circle cx="24" cy="72" r="9" fill="#14171c"/>
<circle cx="48" cy="72" r="9" fill="#14171c"/>
<circle cx="72" cy="72" r="9" fill="#14171c"/>
<circle cx="96" cy="72" r="12" fill="rgb(13,31,23)" opacity="0.35"/>
<circle cx="96" cy="72" r="9" fill="rgb(13,31,23)"/>
<circle cx="120" cy="72" r="12" fill="rgb(28,62,46)" opacity="0.35"/>
<circle cx="120" cy="72" r="9" fill="rgb(28,62,46)"/>
<circle cx="144" cy="72" r="12" fill="rgb(35,74,56)" opacity="0.35"/>
<circle cx="144" cy="72" r="9" fill="rgb(35,74,56)"/>
<circle cx="168" cy="72" r="12" fill="rgb(24,54,40)" opacity="0.35"/>
<circle cx="168" cy="72" r="9" fill="rgb(24,54,40)"/>
<circle cx="192" cy="72" r="12" fill="rgb(10,24,18)" opacity="0.35"/>
<circle cx="192" cy="72" r="9" fill="rgb(10,24,18)"/>
<circle cx="216" cy="72" r="9" fill="#14171c"/>
<circle cx="240" cy="72" r="9" fill="#14171c"/>
<circle cx="264" cy="72" r="9" fill="#14171c"/>
<circle cx="288" cy="72" r="12" fill="rgb(15,35,26)" opacity="0.35"/>
<circle cx="288" cy="72" r="9" fill="rgb(15,35,26)"/>
<circle cx="312" cy="72" r="12" fill="rgb(29,66,49)" opacity="0.35"/>
<circle cx="312" cy="72" r="9" fill="rgb(29,66,49)"/>
<circle cx="336" cy="72" r="12" fill="rgb(34,73,55)" opacity="0.35"/>
<circle cx="336" cy="72" r="9" fill="rgb(34,73,55)"/>
<circle cx="360" cy="72" r="12" fill="rgb(22,49,37)" opacity="0.35"/>
<circle cx="360" cy="72" r="9" fill="rgb(22,49,37)"/>
<circle cx="384" cy="72" r="12" fill="rgb(9,22,16)" opacity="0.35"/>
<circle cx="384" cy="72" r="9" fill="rgb(9,22,16)"/>
<circle cx="24" cy="96" r="12" fill="rgb(13,31,23)" opacity="0.35"/>
<circle cx="24" cy="96" r="9" fill="rgb(13,31,23)"/>
<circle cx="48" cy="96" r="12" fill="rgb(14,32,24)" opacity="0.35"/>
<circle cx="48" cy="96" r="9" fill="rgb(14,32,24)"/>
<circle cx="72" cy="96" r="12" fill="rgb(13,31,23)" opacity="0.35"/>
<circle cx="72" cy="96" r="9" fill="rgb(13,31,23)"/>
<circle cx="96" cy="96" r="12" fill="rgb(12,28,21)" opacity="0.35"/>
<circle cx="96" cy="96" r="9" fill="rgb(12,28,21)"/>
<circle cx="120" cy="96" r="12" fill="rgb(11,25,19)" opacity="0.35"/>
<circle cx="120" cy="96" r="9" fill="rgb(11,25,19)"/>
<circle cx="144" cy="96" r="12" fill="rgb(11,25,18)" opacity="0.35"/>
<circle cx="144" cy="96" r="9" fill="rgb(11,25,18)"/>
<circle cx="168" cy="96" r="12" fill="rgb(11,26,19)" opacity="0.35"/>
<circle cx="168" cy="96" r="9" fill="rgb(11,26,19)"/>
<circle cx="192" cy="96" r="12" fill="rgb(12,28,21)" opacity="0.35"/>
<circle cx="192" cy="96" r="9" fill="rgb(12,28,21)"/>
<circle cx="216" cy="96" r="12" fill="rgb(13,31,23)" opacity="0.35"/>
<circle cx="216" cy="96" r="9" fill="rgb(13,31,23)"/>
<circle cx="240" cy="96" r="12" fill="rgb(14,32,24)" opacity="0.35"/>
<circle cx="240" cy="96" r="9" fill="rgb(14,32,24)"/>
<circle cx="264" cy="96" r="12" fill="rgb(13,30,23)" opacity="0.35"/>
<circle cx="264" cy="96" r="9" fill="rgb(13,30,23)"/>
<circle cx="288" cy="96" r="12" fill="rgb(12,27,20)" opacity="0.35"/>
<circle cx="288" cy="96" r="9" fill="rgb(12,27,20)"/>
<circle cx="312" cy="96" r="12" fill="rgb(11,25,19)" opacity="0.35"/>
<circle cx="312" cy="96" r="9" fill="rgb(11,25,19)"/>
<circle cx="336" cy="96" r="12" fill="rgb(11,25,18)" opacity="0.35"/>
<circle cx="336" cy="96" r="9" fill="rgb(11,25,18)"/>
<circle cx="360" cy="96" r="12" fill="rgb(11,26,20)" opacity="0.35"/>
<circle cx="360" cy="96" r="9" fill="rgb(11,26,20)"/>
<circle cx="384" cy="96" r="12" fill="rgb(12,29,22)" opacity="0.35"/>
<circle cx="384" cy="96" r="9" fill="rgb(12,29,22)"/>
<circle cx="24" cy="120" r="12" fill="rgb(31,68,51)" opacity="0.35"/>
<circle cx="24" cy="120" r="9" fill="rgb(31,68,51)"/>
<circle cx="48" cy="120" r="12" fill="rgb(50,85,68)" opacity="0.35"/>
<circle cx="48" cy="120" r="9" fill="rgb(50,85,68)"/>
<circle cx="72" cy="120" r="12" fill="rgb(28,63,47)" opacity="0.35"/>
<circle cx="72" cy="120" r="9" fill="rgb(28,63,47)"/>
<circle cx="96" cy="120" r="12" fill="rgb(11,25,19)" opacity="0.35"/>
<circle cx="96" cy="120" r="9" fill="rgb(11,25,19)"/>
<circle cx="120" cy="120" r="9" fill="#14171c"/>
<circle cx="144" cy="120" r="9" fill="#14171c"/>
<circle cx="168" cy="120" r="9" fill="#14171c"/>
<circle cx="192" cy="120" r="12" fill="rgb(15,34,25)" opacity="0.35"/>
<circle cx="192" cy="120" r="9" fill="rgb(15,34,25)"/>
<circle cx="216" cy="120" r="12" fill="rgb(34,73,55)" opacity="0.35"/>
<circle cx="216" cy="120" r="9" fill="rgb(34,73,55)"/>
<circle cx="240" cy="120" r="12" fill="rgb(49,84,67)" opacity="0.35"/>
<circle cx="240" cy="120" r="9" fill="rgb(49,84,67)"/>
<circle cx="264" cy="120" r="12" fill="rgb(26,57,43)" opacity="0.35"/>
<circle cx="264" cy="120" r="9" fill="rgb(26,57,43)"/>
<circle cx="288" cy="120" r="12" fill="rgb(9,22,16)" opacity="0.35"/>
<circle cx="288" cy="120" r="9" fill="rgb(9,22,16)"/>
<circle cx="312" cy="120" r="9" fill="#14171c"/>
<circle cx="336" cy="120" r="9" fill="#14171c"/>
<circle cx="360" cy="120" r="9" fill="#14171c"/>
<circle cx="384" cy="120" r="12" fill="rgb(17,40,30)" opacity="0.35"/>
<circle cx="384" cy="120" r="9" fill="rgb(17,40,30)"/>
<circle cx="24" cy="144" r="12" fill="rgb(72,100,84)" opacity="0.35"/>
<circle cx="24" cy="144" r="9" fill="rgb(72,100,84)"/>
<circle cx="48" cy="144" r="9" fill="#14171c"/>
<circle cx="72" cy="144" r="12" fill="rgb(59,91,74)" opacity="0.35"/>
<circle cx="72" cy="144" r="9" fill="rgb(59,91,74)"/>
<circle cx="96" cy="144" r="12" fill="rgb(10,24,18)" opacity="0.35"/>
<circle cx="96" cy="144" r="9" fill="rgb(10,24,18)"/>
<circle cx="120" cy="144" r="9" fill="#14171c"/>
<circle cx="144" cy="144" r="9" fill="#14171c"/>
<circle cx="168" cy="144" r="9" fill="#14171c"/>
<circle cx="192" cy="144" r="12" fill="rgb(17,39,29)" opacity="0.35"/>
<circle cx="192" cy="144" r="9" fill="rgb(17,39,29)"/>
<circle cx="216" cy="144" r="12" fill="rgb(85,109,94)" opacity="0.35"/>
<circle cx="216" cy="144" r="9" fill="rgb(85,109,94)"/>
<circle cx="240" cy="144" r="9" fill="#14171c"/>
<circle cx="264" cy="144" r="12" fill="rgb(45,81,63)" opacity="0.35"/>
<circle cx="264" cy="144" r="9" fill="rgb(45,81,63)"/>
<circle cx="288" cy="144" r="12" fill="rgb(8,19,14)" opacity="0.35"/>
<circle cx="288" cy="144" r="9" fill="rgb(8,19,14)"/>
<circle cx="312" cy="144" r="9" fill="#14171c"/>
<circle cx="336" cy="144" r="9" fill="#14171c"/>
<circle cx="360" cy="144" r="9" fill="#14171c"/>
<circle cx="384" cy="144" r="12" fill="rgb(22,49,37)" opacity="0.35"/>
<circle cx="384" cy="144" r="9" fill="rgb(22,49,37)"/>
<circle cx="24" cy="168" r="12" fill="rgb(92,114,99)" opacity="0.35"/>
<circle cx="24" cy="168" r="9" fill="rgb(92,114,99)"/>
<circle cx="48" cy="168" r="9" fill="#14171c"/>
<circle cx="72" cy="168" r="12" fill="rgb(76,103,87)" opacity="0.35"/>
<circle cx="72" cy="168" r="9" fill="rgb(76,103,87)"/>
<circle cx="96" cy="168" r="12" fill="rgb(10,23,17)" opacity="0.35"/>
<circle cx="96" cy="168" r="9" fill="rgb(10,23,17)"/>
<circle cx="120" cy="168" r="9" fill="#14171c"/>
<circle cx="144" cy="168" r="9" fill="#14171c"/>
<circle cx="168" cy="168" r="9" fill="#14171c"/>
<circle cx="192" cy="168" r="12" fill="rgb(18,40,30)" opacity="0.35"/>
<circle cx="192" cy="168" r="9" fill="rgb(18,40,30)"/>
<circle cx="216" cy="168" r="12" fill="rgb(109,124,112)" opacity="0.35"/>
<circle cx="216" cy="168" r="9" fill="rgb(109,124,112)"/>
<circle cx="240" cy="168" r="9" fill="#14171c"/>
<circle cx="264" cy="168" r="12" fill="rgb(58,90,74)" opacity="0.35"/>
<circle cx="264" cy="168" r="9" fill="rgb(58,90,74)"/>
<circle cx="288" cy="168" r="12" fill="rgb(7,17,13)" opacity="0.35"/>
<circle cx="288" cy="168" r="9" fill="rgb(7,17,13)"/>
<circle cx="312" cy="168" r="9" fill="#14171c"/>
<circle cx="336" cy="168" r="9" fill="#14171c"/>
<circle cx="360" cy="168" r="9" fill="#14171c"/>
<circle cx="384" cy="168" r="12" fill="rgb(23,53,39)" opacity="0.35"/>
<circle cx="384" cy="168" r="9" fill="rgb(23,53,39)"/>
<circle cx="24" cy="192" r="12" fill="rgb(74,102,86)" opacity="0.35"/>
<circle cx="24" cy="192" r="9" fill="rgb(74,102,86)"/>
<circle cx="48" cy="192" r="9" fill="#14171c"/>
<circle cx="72" cy="192" r="12" fill="rgb(61,93,76)" opacity="0.35"/>
<circle cx="72" cy="192" r="9" fill="rgb(61,93,76)"/>
<circle cx="96" cy="192" r="12" fill="rgb(10,24,18)" opacity="0.35"/>
<circle cx="96" cy="192" r="9" fill="rgb(10,24,18)"/>
<circle cx="120" cy="192" r="9" fill="#14171c"/>
<circle cx="144" cy="192" r="9" fill="#14171c"/>
<circle cx="168" cy="192" r="9" fill="#14171c"/>
<circle cx="192" cy="192" r="12" fill="rgb(17,39,29)" opacity="0.35"/>
<circle cx="192" cy="192" r="9" fill="rgb(17,39,29)"/>
<circle cx="216" cy="192" r="12" fill="rgb(89,111,97)" opacity="0.35"/>
<circle cx="216" cy="192" r="9" fill="rgb(89,111,97)"/>
<circle cx="240" cy="192" r="9" fill="#14171c"/>
<circle cx="264" cy="192" r="12" fill="rgb(46,82,65)" opacity="0.35"/>
<circle cx="264" cy="192" r="9" fill="rgb(46,82,65)"/>
<circle cx="288" cy="192" r="12" fill="rgb(8,18,14)" opacity="0.35"/>
<circle cx="288" cy="192" r="9" fill="rgb(8,18,14)"/>
<circle cx="312" cy="192" r="9" fill="#14171c"/>
<circle cx="336" cy="192" r="9" fill="#14171c"/>
<circle cx="360" cy="192" r="9" fill="#14171c"/>
<circle cx="384" cy="192" r="12" fill="rgb(22,49,37)" opacity="0.35"/>
<circle cx="384" cy="192" r="9" fill="rgb(22,49,37)"/>
<circle cx="24" cy="216" r="12" fill="rgb(32,71,53)" opacity="0.35"/>
<circle cx="24" cy="216" r="9" fill="rgb(32,71,53)"/>
<circle cx="48" cy="216" r="12" fill="rgb(56,89,72)" opacity="0.35"/>
<circle cx="48" cy="216" r="9" fill="rgb(56,89,72)"/>
<circle cx="72" cy="216" r="12" fill="rgb(29,66,49)" opacity="0.35"/>
<circle cx="72" cy="216" r="9" fill="rgb(29,66,49)"/>
<circle cx="96" cy="216" r="12" fill="rgb(11,25,19)" opacity="0.35"/>
<circle cx="96" cy="216" r="9" fill="rgb(11,25,19)"/>
<circle cx="120" cy="216" r="9" fill="#14171c"/>
<circle cx="144" cy="216" r="9" fill="#14171c"/>
<circle cx="168" cy="216" r="9" fill="#14171c"/>
<circle cx="192" cy="216" r="12" fill="rgb(15,35,26)" opacity="0.35"/>
<circle cx="192" cy="216" r="9" fill="rgb(15,35,26)"/>
<circle cx="216" cy="216" r="12" fill="rgb(38,76,58)" opacity="0.35"/>
<circle cx="216" cy="216" r="9" fill="rgb(38,76,58)"/>
<circle cx="240" cy="216" r="12" fill="rgb(55,88,71)" opacity="0.35"/>
<circle cx="240" cy="216" r="9" fill="rgb(55,88,71)"/>
<circle cx="264" cy="216" r="12" fill="rgb(26,60,44)" opacity="0.35"/>
<circle cx="264" cy="216" r="9" fill="rgb(26,60,44)"/>
<circle cx="288" cy="216" r="12" fill="rgb(9,22,16)" opacity="0.35"/>
<circle cx="288" cy="216" r="9" fill="rgb(9,22,16)"/>
<circle cx="312" cy="216" r="9" fill="#14171c"/>
<circle cx="336" cy="216" r="9" fill="#14171c"/>
<circle cx="360" cy="216" r="9" fill="#14171c"/>
<circle cx="384" cy="216" r="12" fill="rgb(18,41,30)" opacity="0.35"/>
<circle cx="384" cy="216" r="9" fill="rgb(18,41,30)"/>
<circle cx="24" cy="240" r="12" fill="rgb(14,33,25)" opacity="0.35"/>
<circle cx="24" cy="240" r="9" fill="rgb(14,33,25)"/>
<circle cx="48" cy="240" r="12" fill="rgb(15,36,26)" opacity="0.35"/>
<circle cx="48" cy="240" r="9" fill="rgb(15,36,26)"/>
<circle cx="72" cy="240" r="12" fill="rgb(14,33,24)" opacity="0.35"/>
<circle cx="72" cy="240" r="9" fill="rgb(14,33,24)"/>
<circle cx="96" cy="240" r="12" fill="rgb(12,27,20)" opacity="0.35"/>
<circle cx="96" cy="240" r="9" fill="rgb(12,27,20)"/>
<circle cx="120" cy="240" r="12" fill="rgb(10,24,18)" opacity="0.35"/>
<circle cx="120" cy="240" r="9" fill="rgb(10,24,18)"/>
<circle cx="144" cy="240" r="12" fill="rgb(10,23,17)" opacity="0.35"/>
<circle cx="144" cy="240" r="9" fill="rgb(10,23,17)"/>
<circle cx="168" cy="240" r="12" fill="rgb(11,25,18)" opacity="0.35"/>
<circle cx="168" cy="240" r="9" fill="rgb(11,25,18)"/>
<circle cx="192" cy="240" r="12" fill="rgb(12,29,22)" opacity="0.35"/>
<circle cx="192" cy="240" r="9" fill="rgb(12,29,22)"/>
<circle cx="216" cy="240" r="12" fill="rgb(15,34,25)" opacity="0.35"/>
<circle cx="216" cy="240" r="9" fill="rgb(15,34,25)"/>
<circle cx="240" cy="240" r="12" fill="rgb(15,35,26)" opacity="0.35"/>
<circle cx="240" cy="240" r="9" fill="rgb(15,35,26)"/>
<circle cx="264" cy="240" r="12" fill="rgb(14,32,24)" opacity="0.35"/>
<circle cx="264" cy="240" r="9" fill="rgb(14,32,24)"/>
<circle cx="288" cy="240" r="12" fill="rgb(11,27,20)" opacity="0.35"/>
<circle cx="288" cy="240" r="9" fill="rgb(11,27,20)"/>
<circle cx="312" cy="240" r="12" fill="rgb(10,24,18)" opacity="0.35"/>
<circle cx="312" cy="240" r="9" fill="rgb(10,24,18)"/>
<circle cx="336" cy="240" r="12" fill="rgb(10,23,17)" opacity="0.35"/>
<circle cx="336" cy="240" r="9" fill="rgb(10,23,17)"/>
<circle cx="360" cy="240" r="12" fill="rgb(11,25,19)" opacity="0.35"/>
<circle cx="360" cy="240" r="9" fill="rgb(11,25,19)"/>
<circle cx="384" cy="240" r="12" fill="rgb(13,30,22)" opacity="0.35"/>
<circle cx="384" cy="240" r="9" fill="rgb(13,30,22)"/>
<circle cx="24" cy="264" r="9" fill="#14171c"/>
<circle cx="48" cy="264" r="9" fill="#14171c"/>
<circle cx="72" cy="264" r="9" fill="#14171c"/>
<circle cx="96" cy="264" r="12" fill="rgb(13,31,23)" opacity="0.35"/>
<circle cx="96" cy="264" r="9" fill="rgb(13,31,23)"/>
<circle cx="120" cy="264" r="12" fill="rgb(26,59,44)" opacity="0.35"/>
<circle cx="120" cy="264" r="9" fill="rgb(26,59,44)"/>
<circle cx="144" cy="264" r="12" fill="rgb(31,70,52)" opacity="0.35"/>
<circle cx="144" cy="264" r="9" fill="rgb(31,70,52)"/>
<circle cx="168" cy="264" r="12" fill="rgb(23,52,38)" opacity="0.35"/>
<circle cx="168" cy="264" r="9" fill="rgb(23,52,38)"/>
<circle cx="192" cy="264" r="12" fill="rgb(10,25,18)" opacity="0.35"/>
<circle cx="192" cy="264" r="9" fill="rgb(10,25,18)"/>
<circle cx="216" cy="264" r="9" fill="#14171c"/>
<circle cx="240" cy="264" r="9" fill="#14171c"/>
<circle cx="264" cy="264" r="9" fill="#14171c"/>
<circle cx="288" cy="264" r="12" fill="rgb(15,35,26)" opacity="0.35"/>
<circle cx="288" cy="264" r="9" fill="rgb(15,35,26)"/>
<circle cx="312" cy="264" r="12" fill="rgb(28,62,46)" opacity="0.35"/>
<circle cx="312" cy="264" r="9" fill="rgb(28,62,46)"/>
<circle cx="336" cy="264" r="12" fill="rgb(31,69,51)" opacity="0.35"/>
<circle cx="336" cy="264" r="9" fill="rgb(31,69,51)"/>
<circle cx="360" cy="264" r="12" fill="rgb(21,47,35)" opacity="0.35"/>
<circle cx="360" cy="264" r="9" fill="rgb(21,47,35)"/>
<circle cx="384" cy="264" r="12" fill="rgb(9,22,17)" opacity="0.35"/>
<circle cx="384" cy="264" r="9" fill="rgb(9,22,17)"/>
<circle cx="24" cy="288" r="9" fill="#14171c"/>
<circle cx="48" cy="288" r="9" fill="#14171c"/>
<circle cx="72" cy="288" r="9" fill="#14171c"/>
<circle cx="96" cy="288" r="12" fill="rgb(14,33,25)" opacity="0.35"/>
<circle cx="96" cy="288" r="9" fill="rgb(14,33,25)"/>
<circle cx="120" cy="288" r="12" fill="rgb(66,97,80)" opacity="0.35"/>
<circle cx="120" cy="288" r="9" fill="rgb(66,97,80)"/>
<circle cx="144" cy="288" r="12" fill="rgb(104,121,108)" opacity="0.35"/>
<circle cx="144" cy="288" r="9" fill="rgb(104,121,108)"/>
<circle cx="168" cy="288" r="12" fill="rgb(44,80,62)" opacity="0.35"/>
<circle cx="168" cy="288" r="9" fill="rgb(44,80,62)"/>
<circle cx="192" cy="288" r="12" fill="rgb(9,22,16)" opacity="0.35"/>
<circle cx="192" cy="288" r="9" fill="rgb(9,22,16)"/>
<circle cx="216" cy="288" r="9" fill="#14171c"/>
<circle cx="240" cy="288" r="9" fill="#14171c"/>
<circle cx="264" cy="288" r="9" fill="#14171c"/>
<circle cx="288" cy="288" r="12" fill="rgb(18,42,31)" opacity="0.35"/>
<circle cx="288" cy="288" r="9" fill="rgb(18,42,31)"/>
<circle cx="312" cy="288" r="12" fill="rgb(78,104,88)" opacity="0.35"/>
<circle cx="312" cy="288" r="9" fill="rgb(78,104,88)"/>
<circle cx="336" cy="288" r="12" fill="rgb(100,119,105)" opacity="0.35"/>
<circle cx="336" cy="288" r="9" fill="rgb(100,119,105)"/>
<circle cx="360" cy="288" r="12" fill="rgb(32,71,53)" opacity="0.35"/>
<circle cx="360" cy="288" r="9" fill="rgb(32,71,53)"/>
<circle cx="384" cy="288" r="12" fill="rgb(7,17,13)" opacity="0.35"/>
<circle cx="384" cy="288" r="9" fill="rgb(7,17,13)"/>
<circle cx="24" cy="312" r="9" fill="#14171c"/>
<circle cx="48" cy="312" r="9" fill="#14171c"/>
<circle cx="72" cy="312" r="9" fill="#14171c"/>
<circle cx="96" cy="312" r="12" fill="rgb(15,35,26)" opacity="0.35"/>
<circle cx="96" cy="312" r="9" fill="rgb(15,35,26)"/>
<circle cx="120" cy="312" r="12" fill="rgb(99,118,104)" opacity="0.35"/>
<circle cx="120" cy="312" r="9" fill="rgb(99,118,104)"/>
<circle cx="144" cy="312" r="9" fill="#14171c"/>
<circle cx="168" cy="312" r="12" fill="rgb(65,96,79)" opacity="0.35"/>
<circle cx="168" cy="312" r="9" fill="rgb(65,96,79)"/>
<circle cx="192" cy="312" r="12" fill="rgb(8,20,15)" opacity="0.35"/>
<circle cx="192" cy="312" r="9" fill="rgb(8,20,15)"/>
<circle cx="216" cy="312" r="9" fill="#14171c"/>
<circle cx="240" cy="312" r="9" fill="#14171c"/>
<circle cx="264" cy="312" r="9" fill="#14171c"/>
<circle cx="288" cy="312" r="12" fill="rgb(20,46,34)" opacity="0.35"/>
<circle cx="288" cy="312" r="9" fill="rgb(20,46,34)"/>
<circle cx="312" cy="312" r="9" fill="#14171c"/>
<circle cx="336" cy="312" r="9" fill="#14171c"/>
<circle cx="360" cy="312" r="12" fill="rgb(48,83,66)" opacity="0.35"/>
<circle cx="360" cy="312" r="9" fill="rgb(48,83,66)"/>
<circle cx="384" cy="312" r="9" fill="#14171c"/>
<circle cx="24" cy="336" r="9" fill="#14171c"/>
<circle cx="48" cy="336" r="9" fill="#14171c"/>
<circle cx="72" cy="336" r="9" fill="#14171c"/>
<circle cx="96" cy="336" r="12" fill="rgb(15,35,26)" opacity="0.35"/>
<circle cx="96" cy="336" r="9" fill="rgb(15,35,26)"/>
<circle cx="120" cy="336" r="12" fill="rgb(91,113,99)" opacity="0.35"/>
<circle cx="120" cy="336" r="9" fill="rgb(91,113,99)"/>
<circle cx="144" cy="336" r="9" fill="#14171c"/>
<circle cx="168" cy="336" r="12" fill="rgb(60,92,75)" opacity="0.35"/>
<circle cx="168" cy="336" r="9" fill="rgb(60,92,75)"/>
<circle cx="192" cy="336" r="12" fill="rgb(9,20,15)" opacity="0.35"/>
<circle cx="192" cy="336" r="9" fill="rgb(9,20,15)"/>
<circle cx="216" cy="336" r="9" fill="#14171c"/>
<circle cx="240" cy="336" r="9" fill="#14171c"/>
<circle cx="264" cy="336" r="9" fill="#14171c"/>
<circle cx="288" cy="336" r="12" fill="rgb(20,45,34)" opacity="0.35"/>
<circle cx="288" cy="336" r="9" fill="rgb(20,45,34)"/>
<circle cx="312" cy="336" r="12" fill="rgb(106,122,109)" opacity="0.35"/>
<circle cx="312" cy="336" r="9" fill="rgb(106,122,109)"/>
<circle cx="336" cy="336" r="9" fill="#14171c"/>
<circle cx="360" cy="336" r="12" fill="rgb(44,81,63)" opacity="0.35"/>
<circle cx="360" cy="336" r="9" fill="rgb(44,81,63)"/>
<circle cx="384" cy="336" r="9" fill="#14171c"/>
<circle cx="24" cy="360" r="9" fill="#14171c"/>
<circle cx="48" cy="360" r="9" fill="#14171c"/>
<circle cx="72" cy="360" r="9" fill="#14171c"/>
<circle cx="96" cy="360" r="12" fill="rgb(14,32,24)" opacity="0.35"/>
<circle cx="96" cy="360" r="9" fill="rgb(14,32,24)"/>
<circle cx="120" cy="360" r="12" fill="rgb(49,84,67)" opacity="0.35"/>
<circle cx="120" cy="360" r="9" fill="rgb(49,84,67)"/>
<circle cx="144" cy="360" r="12" fill="rgb(77,103,88)" opacity="0.35"/>
<circle cx="144" cy="360" r="9" fill="rgb(77,103,88)"/>
<circle cx="168" cy="360" r="12" fill="rgb(32,71,53)" opacity="0.35"/>
<circle cx="168" cy="360" r="9" fill="rgb(32,71,53)"/>
<circle cx="192" cy="360" r="12" fill="rgb(10,23,17)" opacity="0.35"/>
<circle cx="192" cy="360" r="9" fill="rgb(10,23,17)"/>
<circle cx="216" cy="360" r="9" fill="#14171c"/>
<circle cx="240" cy="360" r="9" fill="#14171c"/>
<circle cx="264" cy="360" r="9" fill="#14171c"/>
<circle cx="288" cy="360" r="12" fill="rgb(17,40,29)" opacity="0.35"/>
<circle cx="288" cy="360" r="9" fill="rgb(17,40,29)"/>
<circle cx="312" cy="360" r="12" fill="rgb(57,90,73)" opacity="0.35"/>
<circle cx="312" cy="360" r="9" fill="rgb(57,90,73)"/>
<circle cx="336" cy="360" r="12" fill="rgb(74,102,86)" opacity="0.35"/>
<circle cx="336" cy="360" r="9" fill="rgb(74,102,86)"/>
<circle cx="360" cy="360" r="12" fill="rgb(28,63,47)" opacity="0.35"/>
<circle cx="360" cy="360" r="9" fill="rgb(28,63,47)"/>
<circle cx="384" cy="360" r="12" fill="rgb(8,19,14)" opacity="0.35"/>
<circle cx="384" cy="360" r="9" fill="rgb(8,19,14)"/>
<circle cx="24" cy="384" r="12" fill="rgb(8,19,14)" opacity="0.35"/>
<circle cx="24" cy="384" r="9" fill="rgb(8,19,14)"/>
<circle cx="48" cy="384" r="9" fill="#14171c"/>
<circle cx="72" cy="384" r="12" fill="rgb(8,20,15)" opacity="0.35"/>
<circle cx="72" cy="384" r="9" fill="rgb(8,20,15)"/>
<circle cx="96" cy="384" r="12" fill="rgb(13,29,22)" opacity="0.35"/>
<circle cx="96" cy="384" r="9" fill="rgb(13,29,22)"/>
<circle cx="120" cy="384" r="12" fill="rgb(19,44,33)" opacity="0.35"/>
<circle cx="120" cy="384" r="9" fill="rgb(19,44,33)"/>
<circle cx="144" cy="384" r="12" fill="rgb(22,49,37)" opacity="0.35"/>
<circle cx="144" cy="384" r="9" fill="rgb(22,49,37)"/>
<circle cx="168" cy="384" r="12" fill="rgb(18,40,30)" opacity="0.35"/>
<circle cx="168" cy="384" r="9" fill="rgb(18,40,30)"/>
<circle cx="192" cy="384" r="12" fill="rgb(11,26,19)" opacity="0.35"/>
<circle cx="192" cy="384" r="9" fill="rgb(11,26,19)"/>
<circle cx="216" cy="384" r="12" fill="rgb(8,18,13)" opacity="0.35"/>
<circle cx="216" cy="384" r="9" fill="rgb(8,18,13)"/>
<circle cx="240" cy="384" r="9" fill="#14171c"/>
<circle cx="264" cy="384" r="12" fill="rgb(9,21,15)" opacity="0.35"/>
<circle cx="264" cy="384" r="9" fill="rgb(9,21,15)"/>
<circle cx="288" cy="384" r="12" fill="rgb(14,31,23)" opacity="0.35"/>
<circle cx="288" cy="384" r="9" fill="rgb(14,31,23)"/>
<circle cx="312" cy="384" r="12" fill="rgb(20,46,34)" opacity="0.35"/>
<circle cx="312" cy="384" r="9" fill="rgb(20,46,34)"/>
<circle cx="336" cy="384" r="12" fill="rgb(22,49,37)" opacity="0.35"/>
<circle cx="336" cy="384" r="9" fill="rgb(22,49,37)"/>
<circle cx="360" cy="384" r="12" fill="rgb(17,38,28)" opacity="0.35"/>
<circle cx="360" cy="384" r="9" fill="rgb(17,38,28)"/>
<circle cx="384" cy="384" r="12" fill="rgb(10,24,18)" opacity="0.35"/>
<circle cx="384" cy="384" r="9" fill="rgb(10,24,18)"/>
</svg>
