<svg xmlns="http://www.w3.org/2000/svg" viewBox="0 0 408 408" width="408" height="408" role="img" aria-label="LED preview of the Midrange Bloom example graph">
<rect width="408" height="408" rx="10" fill="#05070a"/>
<circle cx="24" cy="24" r="12" fill="rgb(11,15,49)" opacity="0.35"/>
<circle cx="24" cy="24" r="9" fill="rgb(11,15,49)"/>
<circle cx="48" cy="24" r="12" fill="rgb(2,17,29)" opacity="0.35"/>
<circle cx="48" cy="24" r="9" fill="rgb(2,17,29)"/>
<circle cx="72" cy="24" r="9" fill="#14171c"/>
<circle cx="96" cy="24" r="9" fill="#14171c"/>
<circle cx="120" cy="24" r="9" fill="#14171c"/>
<circle cx="144" cy="24" r="9" fill="#14171c"/>
<circle cx="168" cy="24" r="12" fill="rgb(0,17,26)" opacity="0.35"/>
<circle cx="168" cy="24" r="9" fill="rgb(0,17,26)"/>
<circle cx="192" cy="24" r="12" fill="rgb(0,33,33)" opacity="0.35"/>
<circle cx="192" cy="24" r="9" fill="rgb(0,33,33)"/>
<circle cx="216" cy="24" r="12" fill="rgb(0,37,29)" opacity="0.35"/>
<circle cx="216" cy="24" r="9" fill="rgb(0,37,29)"/>
<circle cx="240" cy="24" r="12" fill="rgb(0,32,26)" opacity="0.35"/>
<circle cx="240" cy="24" r="9" fill="rgb(0,32,26)"/>
<circle cx="264" cy="24" r="12" fill="rgb(0,16,17)" opacity="0.35"/>
<circle cx="264" cy="24" r="9" fill="rgb(0,16,17)"/>
<circle cx="288" cy="24" r="9" fill="#14171c"/>
<circle cx="312" cy="24" r="9" fill="#14171c"/>
<circle cx="336" cy="24" r="9" fill="#14171c"/>
<circle cx="360" cy="24" r="12" fill="rgb(2,17,32)" opacity="0.35"/>
<circle cx="360" cy="24" r="9" fill="rgb(2,17,32)"/>
<circle cx="384" cy="24" r="12" fill="rgb(20,5,36)" opacity="0.35"/>
<circle cx="384" cy="24" r="9" fill="rgb(20,5,36)"/>
<circle cx="24" cy="48" r="12" fill="rgb(36,5,55)" opacity="0.35"/>
<circle cx="24" cy="48" r="9" fill="rgb(36,5,55)"/>
<circle cx="48" cy="48" r="9" fill="#14171c"/>
<circle cx="72" cy="48" r="9" fill="#14171c"/>
<circle cx="96" cy="48" r="12" fill="rgb(0,21,18)" opacity="0.35"/>
<circle cx="96" cy="48" r="9" fill="rgb(0,21,18)"/>
<circle cx="120" cy="48" r="12" fill="rgb(0,42,29)" opacity="0.35"/>
<circle cx="120" cy="48" r="9" fill="rgb(0,42,29)"/>
<circle cx="144" cy="48" r="12" fill="rgb(0,37,20)" opacity="0.35"/>
<circle cx="144" cy="48" r="9" fill="rgb(0,37,20)"/>
<circle cx="168" cy="48" r="12" fill="rgb(2,22,9)" opacity="0.35"/>
<circle cx="168" cy="48" r="9" fill="rgb(2,22,9)"/>
<circle cx="192" cy="48" r="9" fill="#14171c"/>
<circle cx="216" cy="48" r="9" fill="#14171c"/>
<circle cx="240" cy="48" r="12" fill="rgb(5,18,6)" opacity="0.35"/>
<circle cx="240" cy="48" r="9" fill="rgb(5,18,6)"/>
<circle cx="264" cy="48" r="12" fill="rgb(4,34,13)" opacity="0.35"/>
<circle cx="264" cy="48" r="9" fill="rgb(4,34,13)"/>
<circle cx="288" cy="48" r="12" fill="rgb(0,44,20)" opacity="0.35"/>
<circle cx="288" cy="48" r="9" fill="rgb(0,44,20)"/>
<circle cx="312" cy="48" r="12" fill="rgb(0,26,17)" opacity="0.35"/>
<circle cx="312" cy="48" r="9" fill="rgb(0,26,17)"/>
<circle cx="336" cy="48" r="9" fill="#14171c"/>
<circle cx="360" cy="48" r="9" fill="#14171c"/>
<circle cx="384" cy="48" r="12" fill="rgb(41,3,55)" opacity="0.35"/>
<circle cx="384" cy="48" r="9" fill="rgb(41,3,55)"/>
<circle cx="24" cy="72" r="12" fill="rgb(9,5,23)" opacity="0.35"/>
<circle cx="24" cy="72" r="9" fill="rgb(9,5,23)"/>
<circle cx="48" cy="72" r="9" fill="#14171c"/>
<circle cx="72" cy="72" r="12" fill="rgb(0,11,17)" opacity="0.35"/>
<circle cx="72" cy="72" r="9" fill="rgb(0,11,17)"/>
<circle cx="96" cy="72" r="12" fill="rgb(4,39,15)" opacity="0.35"/>
<circle cx="96" cy="72" r="9" fill="rgb(4,39,15)"/>
<circle cx="120" cy="72" r="9" fill="#14171c"/>
<circle cx="144" cy="72" r="9" fill="#14171c"/>
<circle cx="168" cy="72" r="9" fill="#14171c"/>
<circle cx="192" cy="72" r="9" fill="#14171c"/>
<circle cx="216" cy="72" r="9" fill="#14171c"/>
<circle cx="240" cy="72" r="9" fill="#14171c"/>
<circle cx="264" cy="72" r="9" fill="#14171c"/>
<circle cx="288" cy="72" r="9" fill="#14171c"/>
<circle cx="312" cy="72" r="12" fill="rgb(0,41,28)" opacity="0.35"/>
<circle cx="312" cy="72" r="9" fill="rgb(0,41,28)"/>
<circle cx="336" cy="72" r="9" fill="#14171c"/>
<circle cx="360" cy="72" r="9" fill="#14171c"/>
<circle cx="384" cy="72" r="9" fill="#14171c"/>
<circle cx="24" cy="96" r="9" fill="#14171c"/>
<circle cx="48" cy="96" r="9" fill="#14171c"/>
<circle cx="72" cy="96" r="12" fill="rgb(1,34,52)" opacity="0.35"/>
<circle cx="72" cy="96" r="9" fill="rgb(1,34,52)"/>
<circle cx="96" cy="96" r="9" fill="#14171c"/>
<circle cx="120" cy="96" r="9" fill="#14171c"/>
<circle cx="144" cy="96" r="12" fill="rgb(34,16,0)" opacity="0.35"/>
<circle cx="144" cy="96" r="9" fill="rgb(34,16,0)"/>
<circle cx="168" cy="96" r="12" fill="rgb(56,19,0)" opacity="0.35"/>
<circle cx="168" cy="96" r="9" fill="rgb(56,19,0)"/>
<circle cx="192" cy="96" r="12" fill="rgb(55,20,0)" opacity="0.35"/>
<circle cx="192" cy="96" r="9" fill="rgb(55,20,0)"/>
<circle cx="216" cy="96" r="12" fill="rgb(56,27,0)" opacity="0.35"/>
<circle cx="216" cy="96" r="9" fill="rgb(56,27,0)"/>
<circle cx="240" cy="96" r="12" fill="rgb(43,27,0)" opacity="0.35"/>
<circle cx="240" cy="96" r="9" fill="rgb(43,27,0)"/>
<circle cx="264" cy="96" r="9" fill="#14171c"/>
<circle cx="288" cy="96" r="9" fill="#14171c"/>
<circle cx="312" cy="96" r="12" fill="rgb(0,23,24)" opacity="0.35"/>
<circle cx="312" cy="96" r="9" fill="rgb(0,23,24)"/>
<circle cx="336" cy="96" r="12" fill="rgb(4,22,43)" opacity="0.35"/>
<circle cx="336" cy="96" r="9" fill="rgb(4,22,43)"/>
<circle cx="360" cy="96" r="9" fill="#14171c"/>
<circle cx="384" cy="96" r="9" fill="#14171c"/>
<circle cx="24" cy="120" r="9" fill="#14171c"/>
<circle cx="48" cy="120" r="12" fill="rgb(0,34,39)" opacity="0.35"/>
<circle cx="48" cy="120" r="9" fill="rgb(0,34,39)"/>
<circle cx="72" cy="120" r="12" fill="rgb(0,27,26)" opacity="0.35"/>
<circle cx="72" cy="120" r="9" fill="rgb(0,27,26)"/>
<circle cx="96" cy="120" r="9" fill="#14171c"/>
<circle cx="120" cy="120" r="12" fill="rgb(26,18,0)" opacity="0.35"/>
<circle cx="120" cy="120" r="9" fill="rgb(26,18,0)"/>
<circle cx="144" cy="120" r="12" fill="rgb(52,22,0)" opacity="0.35"/>
<circle cx="144" cy="120" r="9" fill="rgb(52,22,0)"/>
<circle cx="168" cy="120" r="12" fill="rgb(20,6,0)" opacity="0.35"/>
<circle cx="168" cy="120" r="9" fill="rgb(20,6,0)"/>
<circle cx="192" cy="120" r="9" fill="#14171c"/>
<circle cx="216" cy="120" r="12" fill="rgb(17,8,0)" opacity="0.35"/>
<circle cx="216" cy="120" r="9" fill="rgb(17,8,0)"/>
<circle cx="240" cy="120" r="12" fill="rgb(46,31,0)" opacity="0.35"/>
<circle cx="240" cy="120" r="9" fill="rgb(46,31,0)"/>
<circle cx="264" cy="120" r="12" fill="rgb(35,36,3)" opacity="0.35"/>
<circle cx="264" cy="120" r="9" fill="rgb(35,36,3)"/>
<circle cx="288" cy="120" r="9" fill="#14171c"/>
<circle cx="312" cy="120" r="9" fill="#14171c"/>
<circle cx="336" cy="120" r="12" fill="rgb(1,33,50)" opacity="0.35"/>
<circle cx="336" cy="120" r="9" fill="rgb(1,33,50)"/>
<circle cx="360" cy="120" r="12" fill="rgb(0,37,37)" opacity="0.35"/>
<circle cx="360" cy="120" r="9" fill="rgb(0,37,37)"/>
<circle cx="384" cy="120" r="12" fill="rgb(4,20,7)" opacity="0.35"/>
<circle cx="384" cy="120" r="9" fill="rgb(4,20,7)"/>
<circle cx="24" cy="144" r="12" fill="rgb(0,30,15)" opacity="0.35"/>
<circle cx="24" cy="144" r="9" fill="rgb(0,30,15)"/>
<circle cx="48" cy="144" r="12" fill="rgb(8,32,11)" opacity="0.35"/>
<circle cx="48" cy="144" r="9" fill="rgb(8,32,11)"/>
<circle cx="72" cy="144" r="9" fill="#14171c"/>
<circle cx="96" cy="144" r="9" fill="#14171c"/>
<circle cx="120" cy="144" r="12" fill="rgb(55,39,0)" opacity="0.35"/>
<circle cx="120" cy="144" r="9" fill="rgb(55,39,0)"/>
<circle cx="144" cy="144" r="12" fill="rgb(19,10,0)" opacity="0.35"/>
<circle cx="144" cy="144" r="9" fill="rgb(19,10,0)"/>
<circle cx="168" cy="144" r="9" fill="#14171c"/>
<circle cx="192" cy="144" r="9" fill="#14171c"/>
<circle cx="216" cy="144" r="9" fill="#14171c"/>
<circle cx="240" cy="144" r="9" fill="#14171c"/>
<circle cx="264" cy="144" r="12" fill="rgb(33,43,6)" opacity="0.35"/>
<circle cx="264" cy="144" r="9" fill="rgb(33,43,6)"/>
<circle cx="288" cy="144" r="12" fill="rgb(0,17,7)" opacity="0.35"/>
<circle cx="288" cy="144" r="9" fill="rgb(0,17,7)"/>
<circle cx="312" cy="144" r="9" fill="#14171c"/>
<circle cx="336" cy="144" r="9" fill="#14171c"/>
<circle cx="360" cy="144" r="12" fill="rgb(12,29,8)" opacity="0.35"/>
<circle cx="360" cy="144" r="9" fill="rgb(12,29,8)"/>
<circle cx="384" cy="144" r="12" fill="rgb(39,45,5)" opacity="0.35"/>
<circle cx="384" cy="144" r="9" fill="rgb(39,45,5)"/>
<circle cx="24" cy="168" r="12" fill="rgb(17,44,12)" opacity="0.35"/>
<circle cx="24" cy="168" r="9" fill="rgb(17,44,12)"/>
<circle cx="48" cy="168" r="9" fill="#14171c"/>
<circle cx="72" cy="168" r="9" fill="#14171c"/>
<circle cx="96" cy="168" r="12" fill="rgb(20,19,1)" opacity="0.35"/>
<circle cx="96" cy="168" r="9" fill="rgb(20,19,1)"/>
<circle cx="120" cy="168" r="12" fill="rgb(51,38,0)" opacity="0.35"/>
<circle cx="120" cy="168" r="9" fill="rgb(51,38,0)"/>
<circle cx="144" cy="168" r="9" fill="#14171c"/>
<circle cx="168" cy="168" r="9" fill="#14171c"/>
<circle cx="192" cy="168" r="9" fill="#14171c"/>
<circle cx="216" cy="168" r="9" fill="#14171c"/>
<circle cx="240" cy="168" r="9" fill="#14171c"/>
<circle cx="264" cy="168" r="12" fill="rgb(15,17,2)" opacity="0.35"/>
<circle cx="264" cy="168" r="9" fill="rgb(15,17,2)"/>
<circle cx="288" cy="168" r="12" fill="rgb(12,42,13)" opacity="0.35"/>
<circle cx="288" cy="168" r="9" fill="rgb(12,42,13)"/>
<circle cx="312" cy="168" r="9" fill="#14171c"/>
<circle cx="336" cy="168" r="9" fill="#14171c"/>
<circle cx="360" cy="168" r="9" fill="#14171c"/>
<circle cx="384" cy="168" r="12" fill="rgb(48,44,2)" opacity="0.35"/>
<circle cx="384" cy="168" r="9" fill="rgb(48,44,2)"/>
<circle cx="24" cy="192" r="12" fill="rgb(33,44,6)" opacity="0.35"/>
<circle cx="24" cy="192" r="9" fill="rgb(33,44,6)"/>
<circle cx="48" cy="192" r="9" fill="#14171c"/>
<circle cx="72" cy="192" r="9" fill="#14171c"/>
<circle cx="96" cy="192" r="12" fill="rgb(32,30,1)" opacity="0.35"/>
<circle cx="96" cy="192" r="9" fill="rgb(32,30,1)"/>
<circle cx="120" cy="192" r="12" fill="rgb(44,35,0)" opacity="0.35"/>
<circle cx="120" cy="192" r="9" fill="rgb(44,35,0)"/>
<circle cx="144" cy="192" r="9" fill="#14171c"/>
<circle cx="168" cy="192" r="9" fill="#14171c"/>
<circle cx="192" cy="192" r="12" fill="rgb(54,26,0)" opacity="0.35"/>
<circle cx="192" cy="192" r="9" fill="rgb(54,26,0)"/>
<circle cx="216" cy="192" r="12" fill="rgb(53,27,0)" opacity="0.35"/>
<circle cx="216" cy="192" r="9" fill="rgb(53,27,0)"/>
<circle cx="240" cy="192" r="9" fill="#14171c"/>
<circle cx="264" cy="192" r="9" fill="#14171c"/>
<circle cx="288" cy="192" r="12" fill="rgb(33,43,6)" opacity="0.35"/>
<circle cx="288" cy="192" r="9" fill="rgb(33,43,6)"/>
<circle cx="312" cy="192" r="12" fill="rgb(14,21,4)" opacity="0.35"/>
<circle cx="312" cy="192" r="9" fill="rgb(14,21,4)"/>
<circle cx="336" cy="192" r="9" fill="#14171c"/>
<circle cx="360" cy="192" r="9" fill="#14171c"/>
<circle cx="384" cy="192" r="12" fill="rgb(43,41,2)" opacity="0.35"/>
<circle cx="384" cy="192" r="9" fill="rgb(43,41,2)"/>
<circle cx="24" cy="216" r="12" fill="rgb(42,41,2)" opacity="0.35"/>
<circle cx="24" cy="216" r="9" fill="rgb(42,41,2)"/>
<circle cx="48" cy="216" r="9" fill="#14171c"/>
<circle cx="72" cy="216" r="9" fill="#14171c"/>
<circle cx="96" cy="216" r="12" fill="rgb(18,23,3)" opacity="0.35"/>
<circle cx="96" cy="216" r="9" fill="rgb(18,23,3)"/>
<circle cx="120" cy="216" r="12" fill="rgb(37,42,5)" opacity="0.35"/>
<circle cx="120" cy="216" r="9" fill="rgb(37,42,5)"/>
<circle cx="144" cy="216" r="9" fill="#14171c"/>
<circle cx="168" cy="216" r="9" fill="#14171c"/>
<circle cx="192" cy="216" r="12" fill="rgb(53,27,0)" opacity="0.35"/>
<circle cx="192" cy="216" r="9" fill="rgb(53,27,0)"/>
<circle cx="216" cy="216" r="12" fill="rgb(54,27,0)" opacity="0.35"/>
<circle cx="216" cy="216" r="9" fill="rgb(54,27,0)"/>
<circle cx="240" cy="216" r="9" fill="#14171c"/>
<circle cx="264" cy="216" r="9" fill="#14171c"/>
<circle cx="288" cy="216" r="12" fill="rgb(45,38,0)" opacity="0.35"/>
<circle cx="288" cy="216" r="9" fill="rgb(45,38,0)"/>
<circle cx="312" cy="216" r="12" fill="rgb(28,28,2)" opacity="0.35"/>
<circle cx="312" cy="216" r="9" fill="rgb(28,28,2)"/>
<circle cx="336" cy="216" r="9" fill="#14171c"/>
<circle cx="360" cy="216" r="9" fill="#14171c"/>
<circle cx="384" cy="216" r="12" fill="rgb(37,43,5)" opacity="0.35"/>
<circle cx="384" cy="216" r="9" fill="rgb(37,43,5)"/>
<circle cx="24" cy="240" r="12" fill="rgb(49,44,1)" opacity="0.35"/>
<circle cx="24" cy="240" r="9" fill="rgb(49,44,1)"/>
<circle cx="48" cy="240" r="9" fill="#14171c"/>
<circle cx="72" cy="240" r="9" fill="#14171c"/>
<circle cx="96" cy="240" r="9" fill="#14171c"/>
<circle cx="120" cy="240" r="12" fill="rgb(17,43,12)" opacity="0.35"/>
<circle cx="120" cy="240" r="9" fill="rgb(17,43,12)"/>
<circle cx="144" cy="240" r="9" fill="#14171c"/>
<circle cx="168" cy="240" r="9" fill="#14171c"/>
<circle cx="192" cy="240" r="9" fill="#14171c"/>
<circle cx="216" cy="240" r="9" fill="#14171c"/>
<circle cx="240" cy="240" r="9" fill="#14171c"/>
<circle cx="264" cy="240" r="9" fill="#14171c"/>
<circle cx="288" cy="240" r="12" fill="rgb(52,39,0)" opacity="0.35"/>
<circle cx="288" cy="240" r="9" fill="rgb(52,39,0)"/>
<circle cx="312" cy="240" r="12" fill="rgb(20,19,1)" opacity="0.35"/>
<circle cx="312" cy="240" r="9" fill="rgb(20,19,1)"/>
<circle cx="336" cy="240" r="9" fill="#14171c"/>
<circle cx="360" cy="240" r="9" fill="#14171c"/>
<circle cx="384" cy="240" r="12" fill="rgb(22,45,11)" opacity="0.35"/>
<circle cx="384" cy="240" r="9" fill="rgb(22,45,11)"/>
<circle cx="24" cy="264" r="12" fill="rgb(42,46,4)" opacity="0.35"/>
<circle cx="24" cy="264" r="9" fill="rgb(42,46,4)"/>
<circle cx="48" cy="264" r="12" fill="rgb(14,27,6)" opacity="0.35"/>
<circle cx="48" cy="264" r="9" fill="rgb(14,27,6)"/>
<circle cx="72" cy="264" r="9" fill="#14171c"/>
<circle cx="96" cy="264" r="9" fill="#14171c"/>
<circle cx="120" cy="264" r="12" fill="rgb(0,18,7)" opacity="0.35"/>
<circle cx="120" cy="264" r="9" fill="rgb(0,18,7)"/>
<circle cx="144" cy="264" r="12" fill="rgb(33,43,6)" opacity="0.35"/>
<circle cx="144" cy="264" r="9" fill="rgb(33,43,6)"/>
<circle cx="168" cy="264" r="9" fill="#14171c"/>
<circle cx="192" cy="264" r="9" fill="#14171c"/>
<circle cx="216" cy="264" r="9" fill="#14171c"/>
<circle cx="240" cy="264" r="9" fill="#14171c"/>
<circle cx="264" cy="264" r="12" fill="rgb(21,11,0)" opacity="0.35"/>
<circle cx="264" cy="264" r="9" fill="rgb(21,11,0)"/>
<circle cx="288" cy="264" r="12" fill="rgb(54,39,0)" opacity="0.35"/>
<circle cx="288" cy="264" r="9" fill="rgb(54,39,0)"/>
<circle cx="312" cy="264" r="9" fill="#14171c"/>
<circle cx="336" cy="264" r="9" fill="#14171c"/>
<circle cx="360" cy="264" r="12" fill="rgb(11,30,9)" opacity="0.35"/>
<circle cx="360" cy="264" r="9" fill="rgb(11,30,9)"/>
<circle cx="384" cy="264" r="12" fill="rgb(0,32,14)" opacity="0.35"/>
<circle cx="384" cy="264" r="9" fill="rgb(0,32,14)"/>
<circle cx="24" cy="288" r="12" fill="rgb(7,22,7)" opacity="0.35"/>
<circle cx="24" cy="288" r="9" fill="rgb(7,22,7)"/>
<circle cx="48" cy="288" r="12" fill="rgb(0,38,35)" opacity="0.35"/>
<circle cx="48" cy="288" r="9" fill="rgb(0,38,35)"/>
<circle cx="72" cy="288" r="12" fill="rgb(0,34,48)" opacity="0.35"/>
<circle cx="72" cy="288" r="9" fill="rgb(0,34,48)"/>
<circle cx="96" cy="288" r="9" fill="#14171c"/>
<circle cx="120" cy="288" r="9" fill="#14171c"/>
<circle cx="144" cy="288" r="12" fill="rgb(32,36,4)" opacity="0.35"/>
<circle cx="144" cy="288" r="9" fill="rgb(32,36,4)"/>
<circle cx="168" cy="288" r="12" fill="rgb(48,33,0)" opacity="0.35"/>
<circle cx="168" cy="288" r="9" fill="rgb(48,33,0)"/>
<circle cx="192" cy="288" r="12" fill="rgb(20,10,0)" opacity="0.35"/>
<circle cx="192" cy="288" r="9" fill="rgb(20,10,0)"/>
<circle cx="216" cy="288" r="9" fill="#14171c"/>
<circle cx="240" cy="288" r="12" fill="rgb(22,7,0)" opacity="0.35"/>
<circle cx="240" cy="288" r="9" fill="rgb(22,7,0)"/>
<circle cx="264" cy="288" r="12" fill="rgb(53,23,0)" opacity="0.35"/>
<circle cx="264" cy="288" r="9" fill="rgb(53,23,0)"/>
<circle cx="288" cy="288" r="12" fill="rgb(27,19,0)" opacity="0.35"/>
<circle cx="288" cy="288" r="9" fill="rgb(27,19,0)"/>
<circle cx="312" cy="288" r="9" fill="#14171c"/>
<circle cx="336" cy="288" r="12" fill="rgb(0,26,22)" opacity="0.35"/>
<circle cx="336" cy="288" r="9" fill="rgb(0,26,22)"/>
<circle cx="360" cy="288" r="12" fill="rgb(0,36,38)" opacity="0.35"/>
<circle cx="360" cy="288" r="9" fill="rgb(0,36,38)"/>
<circle cx="384" cy="288" r="9" fill="#14171c"/>
<circle cx="24" cy="312" r="9" fill="#14171c"/>
<circle cx="48" cy="312" r="9" fill="#14171c"/>
<circle cx="72" cy="312" r="12" fill="rgb(4,23,44)" opacity="0.35"/>
<circle cx="72" cy="312" r="9" fill="rgb(4,23,44)"/>
<circle cx="96" cy="312" r="12" fill="rgb(0,23,24)" opacity="0.35"/>
<circle cx="96" cy="312" r="9" fill="rgb(0,23,24)"/>
<circle cx="120" cy="312" r="9" fill="#14171c"/>
<circle cx="144" cy="312" r="9" fill="#14171c"/>
<circle cx="168" cy="312" r="12" fill="rgb(41,27,0)" opacity="0.35"/>
<circle cx="168" cy="312" r="9" fill="rgb(41,27,0)"/>
<circle cx="192" cy="312" r="12" fill="rgb(56,28,0)" opacity="0.35"/>
<circle cx="192" cy="312" r="9" fill="rgb(56,28,0)"/>
<circle cx="216" cy="312" r="12" fill="rgb(56,21,0)" opacity="0.35"/>
<circle cx="216" cy="312" r="9" fill="rgb(56,21,0)"/>
<circle cx="240" cy="312" r="12" fill="rgb(55,19,0)" opacity="0.35"/>
<circle cx="240" cy="312" r="9" fill="rgb(55,19,0)"/>
<circle cx="264" cy="312" r="12" fill="rgb(35,16,0)" opacity="0.35"/>
<circle cx="264" cy="312" r="9" fill="rgb(35,16,0)"/>
<circle cx="288" cy="312" r="9" fill="#14171c"/>
<circle cx="312" cy="312" r="9" fill="#14171c"/>
<circle cx="336" cy="312" r="12" fill="rgb(0,37,52)" opacity="0.35"/>
<circle cx="336" cy="312" r="9" fill="rgb(0,37,52)"/>
<circle cx="360" cy="312" r="9" fill="#14171c"/>
<circle cx="384" cy="312" r="9" fill="#14171c"/>
<circle cx="24" cy="336" r="9" fill="#14171c"/>
<circle cx="48" cy="336" r="9" fill="#14171c"/>
<circle cx="72" cy="336" r="9" fill="#14171c"/>
<circle cx="96" cy="336" r="12" fill="rgb(0,42,30)" opacity="0.35"/>
<circle cx="96" cy="336" r="9" fill="rgb(0,42,30)"/>
<circle cx="120" cy="336" r="9" fill="#14171c"/>
<circle cx="144" cy="336" r="9" fill="#14171c"/>
<circle cx="168" cy="336" r="9" fill="#14171c"/>
<circle cx="192" cy="336" r="9" fill="#14171c"/>
<circle cx="216" cy="336" r="9" fill="#14171c"/>
<circle cx="240" cy="336" r="9" fill="#14171c"/>
<circle cx="264" cy="336" r="9" fill="#14171c"/>
<circle cx="288" cy="336" r="9" fill="#14171c"/>
<circle cx="312" cy="336" r="12" fill="rgb(8,38,13)" opacity="0.35"/>
<circle cx="312" cy="336" r="9" fill="rgb(8,38,13)"/>
<circle cx="336" cy="336" r="12" fill="rgb(0,13,19)" opacity="0.35"/>
<circle cx="336" cy="336" r="9" fill="rgb(0,13,19)"/>
<circle cx="360" cy="336" r="9" fill="#14171c"/>
<circle cx="384" cy="336" r="12" fill="rgb(9,5,24)" opacity="0.35"/>
<circle cx="384" cy="336" r="9" fill="rgb(9,5,24)"/>
<circle cx="24" cy="360" r="12" fill="rgb(39,4,55)" opacity="0.35"/>
<circle cx="24" cy="360" r="9" fill="rgb(39,4,55)"/>
<circle cx="48" cy="360" r="9" fill="#14171c"/>
<circle cx="72" cy="360" r="9" fill="#14171c"/>
<circle cx="96" cy="360" r="12" fill="rgb(0,24,18)" opacity="0.35"/>
<circle cx="96" cy="360" r="9" fill="rgb(0,24,18)"/>
<circle cx="120" cy="360" r="12" fill="rgb(0,43,23)" opacity="0.35"/>
<circle cx="120" cy="360" r="9" fill="rgb(0,43,23)"/>
<circle cx="144" cy="360" r="12" fill="rgb(0,35,14)" opacity="0.35"/>
<circle cx="144" cy="360" r="9" fill="rgb(0,35,14)"/>
<circle cx="168" cy="360" r="12" fill="rgb(4,20,7)" opacity="0.35"/>
<circle cx="168" cy="360" r="9" fill="rgb(4,20,7)"/>
<circle cx="192" cy="360" r="9" fill="#14171c"/>
<circle cx="216" cy="360" r="9" fill="#14171c"/>
<circle cx="240" cy="360" r="12" fill="rgb(3,21,7)" opacity="0.35"/>
<circle cx="240" cy="360" r="9" fill="rgb(3,21,7)"/>
<circle cx="264" cy="360" r="12" fill="rgb(0,36,17)" opacity="0.35"/>
<circle cx="264" cy="360" r="9" fill="rgb(0,36,17)"/>
<circle cx="288" cy="360" r="12" fill="rgb(0,43,26)" opacity="0.35"/>
<circle cx="288" cy="360" r="9" fill="rgb(0,43,26)"/>
<circle cx="312" cy="360" r="12" fill="rgb(0,23,18)" opacity="0.35"/>
<circle cx="312" cy="360" r="9" fill="rgb(0,23,18)"/>
<circle cx="336" cy="360" r="9" fill="#14171c"/>
<circle cx="360" cy="360" r="9" fill="#14171c"/>
<circle cx="384" cy="360" r="12" fill="rgb(38,4,55)" opacity="0.35"/>
<circle cx="384" cy="360" r="9" fill="rgb(38,4,55)"/>
<circle cx="24" cy="384" r="12" fill="rgb(20,5,36)" opacity="0.35"/>
<circle cx="24" cy="384" r="9" fill="rgb(20,5,36)"/>
<circle cx="48" cy="384" r="12" fill="rgb(3,17,33)" opacity="0.35"/>
<circle cx="48" cy="384" r="9" fill="rgb(3,17,33)"/>
<circle cx="72" cy="384" r="9" fill="#14171c"/>
<circle cx="96" cy="384" r="9" fill="#14171c"/>
<circle cx="120" cy="384" r="9" fill="#14171c"/>
<circle cx="144" cy="384" r="12" fill="rgb(0,15,17)" opacity="0.35"/>
<circle cx="144" cy="384" r="9" fill="rgb(0,15,17)"/>
<circle cx="168" cy="384" r="12" fill="rgb(0,32,27)" opacity="0.35"/>
<circle cx="168" cy="384" r="9" fill="rgb(0,32,27)"/>
<circle cx="192" cy="384" r="12" fill="rgb(0,38,28)" opacity="0.35"/>
<circle cx="192" cy="384" r="9" fill="rgb(0,38,28)"/>
<circle cx="216" cy="384" r="12" fill="rgb(0,34,32)" opacity="0.35"/>
<circle cx="216" cy="384" r="9" fill="rgb(0,34,32)"/>
<circle cx="240" cy="384" r="12" fill="rgb(0,20,27)" opacity="0.35"/>
<circle cx="240" cy="384" r="9" fill="rgb(0,20,27)"/>
<circle cx="264" cy="384" r="9" fill="#14171c"/>
<circle cx="288" cy="384" r="9" fill="#14171c"/>
<circle cx="312" cy="384" r="9" fill="#14171c"/>
<circle cx="336" cy="384" r="9" fill="#14171c"/>
<circle cx="360" cy="384" r="12" fill="rgb(2,17,31)" opacity="0.35"/>
<circle cx="360" cy="384" r="9" fill="rgb(2,17,31)"/>
<circle cx="384" cy="384" r="12" fill="rgb(13,13,47)" opacity="0.35"/>
<circle cx="384" cy="384" r="9" fill="rgb(13,13,47)"/>
</svg>
