<svg xmlns="http://www.w3.org/2000/svg" viewBox="0 0 408 408" width="408" height="408" role="img" aria-label="LED preview of the Mirror example graph">
<rect width="408" height="408" rx="10" fill="#05070a"/>
<circle cx="24" cy="24" r="12" fill="rgb(0,192,137)" opacity="0.35"/>
<circle cx="24" cy="24" r="9" fill="rgb(0,192,137)"/>
<circle cx="48" cy="24" r="12" fill="rgb(48,202,67)" opacity="0.35"/>
<circle cx="48" cy="24" r="9" fill="rgb(48,202,67)"/>
<circle cx="72" cy="24" r="12" fill="rgb(94,205,52)" opacity="0.35"/>
<circle cx="72" cy="24" r="9" fill="rgb(94,205,52)"/>
<circle cx="96" cy="24" r="12" fill="rgb(46,202,68)" opacity="0.35"/>
<circle cx="96" cy="24" r="9" fill="rgb(46,202,68)"/>
<circle cx="120" cy="24" r="12" fill="rgb(0,192,139)" opacity="0.35"/>
<circle cx="120" cy="24" r="9" fill="rgb(0,192,139)"/>
<circle cx="144" cy="24" r="12" fill="rgb(2,173,255)" opacity="0.35"/>
<circle cx="144" cy="24" r="9" fill="rgb(2,173,255)"/>
<circle cx="168" cy="24" r="12" fill="rgb(37,102,254)" opacity="0.35"/>
<circle cx="168" cy="24" r="9" fill="rgb(37,102,254)"/>
<circle cx="192" cy="24" r="12" fill="rgb(104,52,252)" opacity="0.35"/>
<circle cx="192" cy="24" r="9" fill="rgb(104,52,252)"/>
<circle cx="216" cy="24" r="12" fill="rgb(104,52,252)" opacity="0.35"/>
<circle cx="216" cy="24" r="9" fill="rgb(104,52,252)"/>
<circle cx="240" cy="24" r="12" fill="rgb(37,102,254)" opacity="0.35"/>
<circle cx="240" cy="24" r="9" fill="rgb(37,102,254)"/>
<circle cx="264" cy="24" r="12" fill="rgb(2,173,255)" opacity="0.35"/>
<circle cx="264" cy="24" r="9" fill="rgb(2,173,255)"/>
<circle cx="288" cy="24" r="12" fill="rgb(0,192,139)" opacity="0.35"/>
<circle cx="288" cy="24" r="9" fill="rgb(0,192,139)"/>
<circle cx="312" cy="24" r="12" fill="rgb(46,202,68)" opacity="0.35"/>
<circle cx="312" cy="24" r="9" fill="rgb(46,202,68)"/>
<circle cx="336" cy="24" r="12" fill="rgb(94,205,52)" opacity="0.35"/>
<circle cx="336" cy="24" r="9" fill="rgb(94,205,52)"/>
<circle cx="360" cy="24" r="12" fill="rgb(48,202,67)" opacity="0.35"/>
<circle cx="360" cy="24" r="9" fill="rgb(48,202,67)"/>
<circle cx="384" cy="24" r="12" fill="rgb(0,192,137)" opacity="0.35"/>
<circle cx="384" cy="24" r="9" fill="rgb(0,192,137)"/>
<circle cx="24" cy="48" r="12" fill="rgb(76,204,58)" opacity="0.35"/>
<circle cx="24" cy="48" r="9" fill="rgb(76,204,58)"/>
<circle cx="48" cy="48" r="12" fill="rgb(204,210,17)" opacity="0.35"/>
<circle cx="48" cy="48" r="9" fill="rgb(204,210,17)"/>
<circle cx="72" cy="48" r="12" fill="rgb(250,213,2)" opacity="0.35"/>
<circle cx="72" cy="48" r="9" fill="rgb(250,213,2)"/>
<circle cx="96" cy="48" r="12" fill="rgb(202,210,17)" opacity="0.35"/>
<circle cx="96" cy="48" r="9" fill="rgb(202,210,17)"/>
<circle cx="120" cy="48" r="12" fill="rgb(73,204,59)" opacity="0.35"/>
<circle cx="120" cy="48" r="9" fill="rgb(73,204,59)"/>
<circle cx="144" cy="48" r="12" fill="rgb(0,190,155)" opacity="0.35"/>
<circle cx="144" cy="48" r="9" fill="rgb(0,190,155)"/>
<circle cx="168" cy="48" r="12" fill="rgb(7,161,255)" opacity="0.35"/>
<circle cx="168" cy="48" r="9" fill="rgb(7,161,255)"/>
<circle cx="192" cy="48" r="12" fill="rgb(35,106,254)" opacity="0.35"/>
<circle cx="192" cy="48" r="9" fill="rgb(35,106,254)"/>
<circle cx="216" cy="48" r="12" fill="rgb(35,106,254)" opacity="0.35"/>
<circle cx="216" cy="48" r="9" fill="rgb(35,106,254)"/>
<circle cx="240" cy="48" r="12" fill="rgb(7,161,255)" opacity="0.35"/>
<circle cx="240" cy="48" r="9" fill="rgb(7,161,255)"/>
<circle cx="264" cy="48" r="12" fill="rgb(0,190,155)" opacity="0.35"/>
<circle cx="264" cy="48" r="9" fill="rgb(0,190,155)"/>
<circle cx="288" cy="48" r="12" fill="rgb(73,204,59)" opacity="0.35"/>
<circle cx="288" cy="48" r="9" fill="rgb(73,204,59)"/>
<circle cx="312" cy="48" r="12" fill="rgb(202,210,17)" opacity="0.35"/>
<circle cx="312" cy="48" r="9" fill="rgb(202,210,17)"/>
<circle cx="336" cy="48" r="12" fill="rgb(250,213,2)" opacity="0.35"/>
<circle cx="336" cy="48" r="9" fill="rgb(250,213,2)"/>
<circle cx="360" cy="48" r="12" fill="rgb(204,210,17)" opacity="0.35"/>
<circle cx="360" cy="48" r="9" fill="rgb(204,210,17)"/>
<circle cx="384" cy="48" r="12" fill="rgb(76,204,58)" opacity="0.35"/>
<circle cx="384" cy="48" r="9" fill="rgb(76,204,58)"/>
<circle cx="24" cy="72" r="12" fill="rgb(255,210,0)" opacity="0.35"/>
<circle cx="24" cy="72" r="9" fill="rgb(255,210,0)"/>
<circle cx="48" cy="72" r="12" fill="rgb(255,164,0)" opacity="0.35"/>
<circle cx="48" cy="72" r="9" fill="rgb(255,164,0)"/>
<circle cx="72" cy="72" r="12" fill="rgb(255,148,0)" opacity="0.35"/>
<circle cx="72" cy="72" r="9" fill="rgb(255,148,0)"/>
<circle cx="96" cy="72" r="12" fill="rgb(255,165,0)" opacity="0.35"/>
<circle cx="96" cy="72" r="9" fill="rgb(255,165,0)"/>
<circle cx="120" cy="72" r="12" fill="rgb(255,211,0)" opacity="0.35"/>
<circle cx="120" cy="72" r="9" fill="rgb(255,211,0)"/>
<circle cx="144" cy="72" r="12" fill="rgb(81,204,57)" opacity="0.35"/>
<circle cx="144" cy="72" r="9" fill="rgb(81,204,57)"/>
<circle cx="168" cy="72" r="12" fill="rgb(0,190,154)" opacity="0.35"/>
<circle cx="168" cy="72" r="9" fill="rgb(0,190,154)"/>
<circle cx="192" cy="72" r="12" fill="rgb(0,176,253)" opacity="0.35"/>
<circle cx="192" cy="72" r="9" fill="rgb(0,176,253)"/>
<circle cx="216" cy="72" r="12" fill="rgb(0,176,253)" opacity="0.35"/>
<circle cx="216" cy="72" r="9" fill="rgb(0,176,253)"/>
<circle cx="240" cy="72" r="12" fill="rgb(0,190,154)" opacity="0.35"/>
<circle cx="240" cy="72" r="9" fill="rgb(0,190,154)"/>
<circle cx="264" cy="72" r="12" fill="rgb(81,204,57)" opacity="0.35"/>
<circle cx="264" cy="72" r="9" fill="rgb(81,204,57)"/>
<circle cx="288" cy="72" r="12" fill="rgb(255,211,0)" opacity="0.35"/>
<circle cx="288" cy="72" r="9" fill="rgb(255,211,0)"/>
<circle cx="312" cy="72" r="12" fill="rgb(255,165,0)" opacity="0.35"/>
<circle cx="312" cy="72" r="9" fill="rgb(255,165,0)"/>
<circle cx="336" cy="72" r="12" fill="rgb(255,148,0)" opacity="0.35"/>
<circle cx="336" cy="72" r="9" fill="rgb(255,148,0)"/>
<circle cx="360" cy="72" r="12" fill="rgb(255,164,0)" opacity="0.35"/>
<circle cx="360" cy="72" r="9" fill="rgb(255,164,0)"/>
<circle cx="384" cy="72" r="12" fill="rgb(255,210,0)" opacity="0.35"/>
<circle cx="384" cy="72" r="9" fill="rgb(255,210,0)"/>
<circle cx="24" cy="96" r="12" fill="rgb(255,148,0)" opacity="0.35"/>
<circle cx="24" cy="96" r="9" fill="rgb(255,148,0)"/>
<circle cx="48" cy="96" r="12" fill="rgb(255,95,0)" opacity="0.35"/>
<circle cx="48" cy="96" r="9" fill="rgb(255,95,0)"/>
<circle cx="72" cy="96" r="12" fill="rgb(255,73,0)" opacity="0.35"/>
<circle cx="72" cy="96" r="9" fill="rgb(255,73,0)"/>
<circle cx="96" cy="96" r="12" fill="rgb(255,96,0)" opacity="0.35"/>
<circle cx="96" cy="96" r="9" fill="rgb(255,96,0)"/>
<circle cx="120" cy="96" r="12" fill="rgb(255,149,0)" opacity="0.35"/>
<circle cx="120" cy="96" r="9" fill="rgb(255,149,0)"/>
<circle cx="144" cy="96" r="12" fill="rgb(255,213,0)" opacity="0.35"/>
<circle cx="144" cy="96" r="9" fill="rgb(255,213,0)"/>
<circle cx="168" cy="96" r="12" fill="rgb(70,204,60)" opacity="0.35"/>
<circle cx="168" cy="96" r="9" fill="rgb(70,204,60)"/>
<circle cx="192" cy="96" r="12" fill="rgb(0,193,135)" opacity="0.35"/>
<circle cx="192" cy="96" r="9" fill="rgb(0,193,135)"/>
<circle cx="216" cy="96" r="12" fill="rgb(0,193,135)" opacity="0.35"/>
<circle cx="216" cy="96" r="9" fill="rgb(0,193,135)"/>
<circle cx="240" cy="96" r="12" fill="rgb(70,204,60)" opacity="0.35"/>
<circle cx="240" cy="96" r="9" fill="rgb(70,204,60)"/>
<circle cx="264" cy="96" r="12" fill="rgb(255,213,0)" opacity="0.35"/>
<circle cx="264" cy="96" r="9" fill="rgb(255,213,0)"/>
<circle cx="288" cy="96" r="12" fill="rgb(255,149,0)" opacity="0.35"/>
<circle cx="288" cy="96" r="9" fill="rgb(255,149,0)"/>
<circle cx="312" cy="96" r="12" fill="rgb(255,96,0)" opacity="0.35"/>
<circle cx="312" cy="96" r="9" fill="rgb(255,96,0)"/>
<circle cx="336" cy="96" r="12" fill="rgb(255,73,0)" opacity="0.35"/>
<circle cx="336" cy="96" r="9" fill="rgb(255,73,0)"/>
<circle cx="360" cy="96" r="12" fill="rgb(255,95,0)" opacity="0.35"/>
<circle cx="360" cy="96" r="9" fill="rgb(255,95,0)"/>
<circle cx="384" cy="96" r="12" fill="rgb(255,148,0)" opacity="0.35"/>
<circle cx="384" cy="96" r="9" fill="rgb(255,148,0)"/>
<circle cx="24" cy="120" r="12" fill="rgb(255,100,0)" opacity="0.35"/>
<circle cx="24" cy="120" r="9" fill="rgb(255,100,0)"/>
<circle cx="48" cy="120" r="12" fill="rgb(255,38,0)" opacity="0.35"/>
<circle cx="48" cy="120" r="9" fill="rgb(255,38,0)"/>
<circle cx="72" cy="120" r="12" fill="rgb(255,16,0)" opacity="0.35"/>
<circle cx="72" cy="120" r="9" fill="rgb(255,16,0)"/>
<circle cx="96" cy="120" r="12" fill="rgb(255,39,0)" opacity="0.35"/>
<circle cx="96" cy="120" r="9" fill="rgb(255,39,0)"/>
<circle cx="120" cy="120" r="12" fill="rgb(255,101,0)" opacity="0.35"/>
<circle cx="120" cy="120" r="9" fill="rgb(255,101,0)"/>
<circle cx="144" cy="120" r="12" fill="rgb(255,171,0)" opacity="0.35"/>
<circle cx="144" cy="120" r="9" fill="rgb(255,171,0)"/>
<circle cx="168" cy="120" r="12" fill="rgb(188,210,22)" opacity="0.35"/>
<circle cx="168" cy="120" r="9" fill="rgb(188,210,22)"/>
<circle cx="192" cy="120" r="12" fill="rgb(41,202,70)" opacity="0.35"/>
<circle cx="192" cy="120" r="9" fill="rgb(41,202,70)"/>
<circle cx="216" cy="120" r="12" fill="rgb(41,202,70)" opacity="0.35"/>
<circle cx="216" cy="120" r="9" fill="rgb(41,202,70)"/>
<circle cx="240" cy="120" r="12" fill="rgb(188,210,22)" opacity="0.35"/>
<circle cx="240" cy="120" r="9" fill="rgb(188,210,22)"/>
<circle cx="264" cy="120" r="12" fill="rgb(255,171,0)" opacity="0.35"/>
<circle cx="264" cy="120" r="9" fill="rgb(255,171,0)"/>
<circle cx="288" cy="120" r="12" fill="rgb(255,101,0)" opacity="0.35"/>
<circle cx="288" cy="120" r="9" fill="rgb(255,101,0)"/>
<circle cx="312" cy="120" r="12" fill="rgb(255,39,0)" opacity="0.35"/>
<circle cx="312" cy="120" r="9" fill="rgb(255,39,0)"/>
<circle cx="336" cy="120" r="12" fill="rgb(255,16,0)" opacity="0.35"/>
<circle cx="336" cy="120" r="9" fill="rgb(255,16,0)"/>
<circle cx="360" cy="120" r="12" fill="rgb(255,38,0)" opacity="0.35"/>
<circle cx="360" cy="120" r="9" fill="rgb(255,38,0)"/>
<circle cx="384" cy="120" r="12" fill="rgb(255,100,0)" opacity="0.35"/>
<circle cx="384" cy="120" r="9" fill="rgb(255,100,0)"/>
<circle cx="24" cy="144" r="12" fill="rgb(255,84,0)" opacity="0.35"/>
<circle cx="24" cy="144" r="9" fill="rgb(255,84,0)"/>
<circle cx="48" cy="144" r="12" fill="rgb(255,23,0)" opacity="0.35"/>
<circle cx="48" cy="144" r="9" fill="rgb(255,23,0)"/>
<circle cx="72" cy="144" r="12" fill="rgb(255,1,0)" opacity="0.35"/>
<circle cx="72" cy="144" r="9" fill="rgb(255,1,0)"/>
<circle cx="96" cy="144" r="12" fill="rgb(255,23,0)" opacity="0.35"/>
<circle cx="96" cy="144" r="9" fill="rgb(255,23,0)"/>
<circle cx="120" cy="144" r="12" fill="rgb(255,85,0)" opacity="0.35"/>
<circle cx="120" cy="144" r="9" fill="rgb(255,85,0)"/>
<circle cx="144" cy="144" r="12" fill="rgb(255,159,0)" opacity="0.35"/>
<circle cx="144" cy="144" r="9" fill="rgb(255,159,0)"/>
<circle cx="168" cy="144" r="12" fill="rgb(221,211,11)" opacity="0.35"/>
<circle cx="168" cy="144" r="9" fill="rgb(221,211,11)"/>
<circle cx="192" cy="144" r="12" fill="rgb(74,204,59)" opacity="0.35"/>
<circle cx="192" cy="144" r="9" fill="rgb(74,204,59)"/>
<circle cx="216" cy="144" r="12" fill="rgb(74,204,59)" opacity="0.35"/>
<circle cx="216" cy="144" r="9" fill="rgb(74,204,59)"/>
<circle cx="240" cy="144" r="12" fill="rgb(221,211,11)" opacity="0.35"/>
<circle cx="240" cy="144" r="9" fill="rgb(221,211,11)"/>
<circle cx="264" cy="144" r="12" fill="rgb(255,159,0)" opacity="0.35"/>
<circle cx="264" cy="144" r="9" fill="rgb(255,159,0)"/>
<circle cx="288" cy="144" r="12" fill="rgb(255,85,0)" opacity="0.35"/>
<circle cx="288" cy="144" r="9" fill="rgb(255,85,0)"/>
<circle cx="312" cy="144" r="12" fill="rgb(255,23,0)" opacity="0.35"/>
<circle cx="312" cy="144" r="9" fill="rgb(255,23,0)"/>
<circle cx="336" cy="144" r="12" fill="rgb(255,1,0)" opacity="0.35"/>
<circle cx="336" cy="144" r="9" fill="rgb(255,1,0)"/>
<circle cx="360" cy="144" r="12" fill="rgb(255,23,0)" opacity="0.35"/>
<circle cx="360" cy="144" r="9" fill="rgb(255,23,0)"/>
<circle cx="384" cy="144" r="12" fill="rgb(255,84,0)" opacity="0.35"/>
<circle cx="384" cy="144" r="9" fill="rgb(255,84,0)"/>
<circle cx="24" cy="168" r="12" fill="rgb(255,113,0)" opacity="0.35"/>
<circle cx="24" cy="168" r="9" fill="rgb(255,113,0)"/>
<circle cx="48" cy="168" r="12" fill="rgb(255,51,0)" opacity="0.35"/>
<circle cx="48" cy="168" r="9" fill="rgb(255,51,0)"/>
<circle cx="72" cy="168" r="12" fill="rgb(255,29,0)" opacity="0.35"/>
<circle cx="72" cy="168" r="9" fill="rgb(255,29,0)"/>
<circle cx="96" cy="168" r="12" fill="rgb(255,52,0)" opacity="0.35"/>
<circle cx="96" cy="168" r="9" fill="rgb(255,52,0)"/>
<circle cx="120" cy="168" r="12" fill="rgb(255,114,0)" opacity="0.35"/>
<circle cx="120" cy="168" r="9" fill="rgb(255,114,0)"/>
<circle cx="144" cy="168" r="12" fill="rgb(255,180,0)" opacity="0.35"/>
<circle cx="144" cy="168" r="9" fill="rgb(255,180,0)"/>
<circle cx="168" cy="168" r="12" fill="rgb(160,208,31)" opacity="0.35"/>
<circle cx="168" cy="168" r="9" fill="rgb(160,208,31)"/>
<circle cx="192" cy="168" r="12" fill="rgb(13,201,79)" opacity="0.35"/>
<circle cx="192" cy="168" r="9" fill="rgb(13,201,79)"/>
<circle cx="216" cy="168" r="12" fill="rgb(13,201,79)" opacity="0.35"/>
<circle cx="216" cy="168" r="9" fill="rgb(13,201,79)"/>
<circle cx="240" cy="168" r="12" fill="rgb(160,208,31)" opacity="0.35"/>
<circle cx="240" cy="168" r="9" fill="rgb(160,208,31)"/>
<circle cx="264" cy="168" r="12" fill="rgb(255,180,0)" opacity="0.35"/>
<circle cx="264" cy="168" r="9" fill="rgb(255,180,0)"/>
<circle cx="288" cy="168" r="12" fill="rgb(255,114,0)" opacity="0.35"/>
<circle cx="288" cy="168" r="9" fill="rgb(255,114,0)"/>
<circle cx="312" cy="168" r="12" fill="rgb(255,52,0)" opacity="0.35"/>
<circle cx="312" cy="168" r="9" fill="rgb(255,52,0)"/>
<circle cx="336" cy="168" r="12" fill="rgb(255,29,0)" opacity="0.35"/>
<circle cx="336" cy="168" r="9" fill="rgb(255,29,0)"/>
<circle cx="360" cy="168" r="12" fill="rgb(255,51,0)" opacity="0.35"/>
<circle cx="360" cy="168" r="9" fill="rgb(255,51,0)"/>
<circle cx="384" cy="168" r="12" fill="rgb(255,113,0)" opacity="0.35"/>
<circle cx="384" cy="168" r="9" fill="rgb(255,113,0)"/>
<circle cx="24" cy="192" r="12" fill="rgb(255,165,0)" opacity="0.35"/>
<circle cx="24" cy="192" r="9" fill="rgb(255,165,0)"/>
<circle cx="48" cy="192" r="12" fill="rgb(255,118,0)" opacity="0.35"/>
<circle cx="48" cy="192" r="9" fill="rgb(255,118,0)"/>
<circle cx="72" cy="192" r="12" fill="rgb(255,96,0)" opacity="0.35"/>
<circle cx="72" cy="192" r="9" fill="rgb(255,96,0)"/>
<circle cx="96" cy="192" r="12" fill="rgb(255,119,0)" opacity="0.35"/>
<circle cx="96" cy="192" r="9" fill="rgb(255,119,0)"/>
<circle cx="120" cy="192" r="12" fill="rgb(255,166,0)" opacity="0.35"/>
<circle cx="120" cy="192" r="9" fill="rgb(255,166,0)"/>
<circle cx="144" cy="192" r="12" fill="rgb(207,211,16)" opacity="0.35"/>
<circle cx="144" cy="192" r="9" fill="rgb(207,211,16)"/>
<circle cx="168" cy="192" r="12" fill="rgb(21,201,76)" opacity="0.35"/>
<circle cx="168" cy="192" r="9" fill="rgb(21,201,76)"/>
<circle cx="192" cy="192" r="12" fill="rgb(0,188,168)" opacity="0.35"/>
<circle cx="192" cy="192" r="9" fill="rgb(0,188,168)"/>
<circle cx="216" cy="192" r="12" fill="rgb(0,188,168)" opacity="0.35"/>
<circle cx="216" cy="192" r="9" fill="rgb(0,188,168)"/>
<circle cx="240" cy="192" r="12" fill="rgb(21,201,76)" opacity="0.35"/>
<circle cx="240" cy="192" r="9" fill="rgb(21,201,76)"/>
<circle cx="264" cy="192" r="12" fill="rgb(207,211,16)" opacity="0.35"/>
<circle cx="264" cy="192" r="9" fill="rgb(207,211,16)"/>
<circle cx="288" cy="192" r="12" fill="rgb(255,166,0)" opacity="0.35"/>
<circle cx="288" cy="192" r="9" fill="rgb(255,166,0)"/>
<circle cx="312" cy="192" r="12" fill="rgb(255,119,0)" opacity="0.35"/>
<circle cx="312" cy="192" r="9" fill="rgb(255,119,0)"/>
<circle cx="336" cy="192" r="12" fill="rgb(255,96,0)" opacity="0.35"/>
<circle cx="336" cy="192" r="9" fill="rgb(255,96,0)"/>
<circle cx="360" cy="192" r="12" fill="rgb(255,118,0)" opacity="0.35"/>
<circle cx="360" cy="192" r="9" fill="rgb(255,118,0)"/>
<circle cx="384" cy="192" r="12" fill="rgb(255,165,0)" opacity="0.35"/>
<circle cx="384" cy="192" r="9" fill="rgb(255,165,0)"/>
<circle cx="24" cy="216" r="12" fill="rgb(206,211,16)" opacity="0.35"/>
<circle cx="24" cy="216" r="9" fill="rgb(206,211,16)"/>
<circle cx="48" cy="216" r="12" fill="rgb(255,185,0)" opacity="0.35"/>
<circle cx="48" cy="216" r="9" fill="rgb(255,185,0)"/>
<circle cx="72" cy="216" r="12" fill="rgb(255,168,0)" opacity="0.35"/>
<circle cx="72" cy="216" r="9" fill="rgb(255,168,0)"/>
<circle cx="96" cy="216" r="12" fill="rgb(255,185,0)" opacity="0.35"/>
<circle cx="96" cy="216" r="9" fill="rgb(255,185,0)"/>
<circle cx="120" cy="216" r="12" fill="rgb(204,210,17)" opacity="0.35"/>
<circle cx="120" cy="216" r="9" fill="rgb(204,210,17)"/>
<circle cx="144" cy="216" r="12" fill="rgb(24,201,75)" opacity="0.35"/>
<circle cx="144" cy="216" r="9" fill="rgb(24,201,75)"/>
<circle cx="168" cy="216" r="12" fill="rgb(0,185,193)" opacity="0.35"/>
<circle cx="168" cy="216" r="9" fill="rgb(0,185,193)"/>
<circle cx="192" cy="216" r="12" fill="rgb(10,155,255)" opacity="0.35"/>
<circle cx="192" cy="216" r="9" fill="rgb(10,155,255)"/>
<circle cx="216" cy="216" r="12" fill="rgb(10,155,255)" opacity="0.35"/>
<circle cx="216" cy="216" r="9" fill="rgb(10,155,255)"/>
<circle cx="240" cy="216" r="12" fill="rgb(0,185,193)" opacity="0.35"/>
<circle cx="240" cy="216" r="9" fill="rgb(0,185,193)"/>
<circle cx="264" cy="216" r="12" fill="rgb(24,201,75)" opacity="0.35"/>
<circle cx="264" cy="216" r="9" fill="rgb(24,201,75)"/>
<circle cx="288" cy="216" r="12" fill="rgb(204,210,17)" opacity="0.35"/>
<circle cx="288" cy="216" r="9" fill="rgb(204,210,17)"/>
<circle cx="312" cy="216" r="12" fill="rgb(255,185,0)" opacity="0.35"/>
<circle cx="312" cy="216" r="9" fill="rgb(255,185,0)"/>
<circle cx="336" cy="216" r="12" fill="rgb(255,168,0)" opacity="0.35"/>
<circle cx="336" cy="216" r="9" fill="rgb(255,168,0)"/>
<circle cx="360" cy="216" r="12" fill="rgb(255,185,0)" opacity="0.35"/>
<circle cx="360" cy="216" r="9" fill="rgb(255,185,0)"/>
<circle cx="384" cy="216" r="12" fill="rgb(206,211,16)" opacity="0.35"/>
<circle cx="384" cy="216" r="9" fill="rgb(206,211,16)"/>
<circle cx="24" cy="240" r="12" fill="rgb(23,201,75)" opacity="0.35"/>
<circle cx="24" cy="240" r="9" fill="rgb(23,201,75)"/>
<circle cx="48" cy="240" r="12" fill="rgb(152,208,34)" opacity="0.35"/>
<circle cx="48" cy="240" r="9" fill="rgb(152,208,34)"/>
<circle cx="72" cy="240" r="12" fill="rgb(198,210,19)" opacity="0.35"/>
<circle cx="72" cy="240" r="9" fill="rgb(198,210,19)"/>
<circle cx="96" cy="240" r="12" fill="rgb(150,208,34)" opacity="0.35"/>
<circle cx="96" cy="240" r="9" fill="rgb(150,208,34)"/>
<circle cx="120" cy="240" r="12" fill="rgb(20,201,76)" opacity="0.35"/>
<circle cx="120" cy="240" r="9" fill="rgb(20,201,76)"/>
<circle cx="144" cy="240" r="12" fill="rgb(0,185,191)" opacity="0.35"/>
<circle cx="144" cy="240" r="9" fill="rgb(0,185,191)"/>
<circle cx="168" cy="240" r="12" fill="rgb(17,142,255)" opacity="0.35"/>
<circle cx="168" cy="240" r="9" fill="rgb(17,142,255)"/>
<circle cx="192" cy="240" r="12" fill="rgb(45,86,254)" opacity="0.35"/>
<circle cx="192" cy="240" r="9" fill="rgb(45,86,254)"/>
<circle cx="216" cy="240" r="12" fill="rgb(45,86,254)" opacity="0.35"/>
<circle cx="216" cy="240" r="9" fill="rgb(45,86,254)"/>
<circle cx="240" cy="240" r="12" fill="rgb(17,142,255)" opacity="0.35"/>
<circle cx="240" cy="240" r="9" fill="rgb(17,142,255)"/>
<circle cx="264" cy="240" r="12" fill="rgb(0,185,191)" opacity="0.35"/>
<circle cx="264" cy="240" r="9" fill="rgb(0,185,191)"/>
<circle cx="288" cy="240" r="12" fill="rgb(20,201,76)" opacity="0.35"/>
<circle cx="288" cy="240" r="9" fill="rgb(20,201,76)"/>
<circle cx="312" cy="240" r="12" fill="rgb(150,208,34)" opacity="0.35"/>
<circle cx="312" cy="240" r="9" fill="rgb(150,208,34)"/>
<circle cx="336" cy="240" r="12" fill="rgb(198,210,19)" opacity="0.35"/>
<circle cx="336" cy="240" r="9" fill="rgb(198,210,19)"/>
<circle cx="360" cy="240" r="12" fill="rgb(152,208,34)" opacity="0.35"/>
<circle cx="360" cy="240" r="9" fill="rgb(152,208,34)"/>
<circle cx="384" cy="240" r="12" fill="rgb(23,201,75)" opacity="0.35"/>
<circle cx="384" cy="240" r="9" fill="rgb(23,201,75)"/>
<circle cx="24" cy="264" r="12" fill="rgb(0,189,160)" opacity="0.35"/>
<circle cx="24" cy="264" r="9" fill="rgb(0,189,160)"/>
<circle cx="48" cy="264" r="12" fill="rgb(14,201,79)" opacity="0.35"/>
<circle cx="48" cy="264" r="9" fill="rgb(14,201,79)"/>
<circle cx="72" cy="264" r="12" fill="rgb(60,203,64)" opacity="0.35"/>
<circle cx="72" cy="264" r="9" fill="rgb(60,203,64)"/>
<circle cx="96" cy="264" r="12" fill="rgb(12,201,79)" opacity="0.35"/>
<circle cx="96" cy="264" r="9" fill="rgb(12,201,79)"/>
<circle cx="120" cy="264" r="12" fill="rgb(0,189,162)" opacity="0.35"/>
<circle cx="120" cy="264" r="9" fill="rgb(0,189,162)"/>
<circle cx="144" cy="264" r="12" fill="rgb(8,160,255)" opacity="0.35"/>
<circle cx="144" cy="264" r="9" fill="rgb(8,160,255)"/>
<circle cx="168" cy="264" r="12" fill="rgb(43,89,254)" opacity="0.35"/>
<circle cx="168" cy="264" r="9" fill="rgb(43,89,254)"/>
<circle cx="192" cy="264" r="12" fill="rgb(126,42,252)" opacity="0.35"/>
<circle cx="192" cy="264" r="9" fill="rgb(126,42,252)"/>
<circle cx="216" cy="264" r="12" fill="rgb(126,42,252)" opacity="0.35"/>
<circle cx="216" cy="264" r="9" fill="rgb(126,42,252)"/>
<circle cx="240" cy="264" r="12" fill="rgb(43,89,254)" opacity="0.35"/>
<circle cx="240" cy="264" r="9" fill="rgb(43,89,254)"/>
<circle cx="264" cy="264" r="12" fill="rgb(8,160,255)" opacity="0.35"/>
<circle cx="264" cy="264" r="9" fill="rgb(8,160,255)"/>
<circle cx="288" cy="264" r="12" fill="rgb(0,189,162)" opacity="0.35"/>
<circle cx="288" cy="264" r="9" fill="rgb(0,189,162)"/>
<circle cx="312" cy="264" r="12" fill="rgb(12,201,79)" opacity="0.35"/>
<circle cx="312" cy="264" r="9" fill="rgb(12,201,79)"/>
<circle cx="336" cy="264" r="12" fill="rgb(60,203,64)" opacity="0.35"/>
<circle cx="336" cy="264" r="9" fill="rgb(60,203,64)"/>
<circle cx="360" cy="264" r="12" fill="rgb(14,201,79)" opacity="0.35"/>
<circle cx="360" cy="264" r="9" fill="rgb(14,201,79)"/>
<circle cx="384" cy="264" r="12" fill="rgb(0,189,160)" opacity="0.35"/>
<circle cx="384" cy="264" r="9" fill="rgb(0,189,160)"/>
<circle cx="24" cy="288" r="12" fill="rgb(0,184,200)" opacity="0.35"/>
<circle cx="24" cy="288" r="9" fill="rgb(0,184,200)"/>
<circle cx="48" cy="288" r="12" fill="rgb(0,196,113)" opacity="0.35"/>
<circle cx="48" cy="288" r="9" fill="rgb(0,196,113)"/>
<circle cx="72" cy="288" r="12" fill="rgb(1,200,83)" opacity="0.35"/>
<circle cx="72" cy="288" r="9" fill="rgb(1,200,83)"/>
<circle cx="96" cy="288" r="12" fill="rgb(0,196,115)" opacity="0.35"/>
<circle cx="96" cy="288" r="9" fill="rgb(0,196,115)"/>
<circle cx="120" cy="288" r="12" fill="rgb(0,183,202)" opacity="0.35"/>
<circle cx="120" cy="288" r="9" fill="rgb(0,183,202)"/>
<circle cx="144" cy="288" r="12" fill="rgb(19,137,255)" opacity="0.35"/>
<circle cx="144" cy="288" r="9" fill="rgb(19,137,255)"/>
<circle cx="168" cy="288" r="12" fill="rgb(69,69,253)" opacity="0.35"/>
<circle cx="168" cy="288" r="9" fill="rgb(69,69,253)"/>
<circle cx="192" cy="288" r="12" fill="rgb(164,24,250)" opacity="0.35"/>
<circle cx="192" cy="288" r="9" fill="rgb(164,24,250)"/>
<circle cx="216" cy="288" r="12" fill="rgb(164,24,250)" opacity="0.35"/>
<circle cx="216" cy="288" r="9" fill="rgb(164,24,250)"/>
<circle cx="240" cy="288" r="12" fill="rgb(69,69,253)" opacity="0.35"/>
<circle cx="240" cy="288" r="9" fill="rgb(69,69,253)"/>
<circle cx="264" cy="288" r="12" fill="rgb(19,137,255)" opacity="0.35"/>
<circle cx="264" cy="288" r="9" fill="rgb(19,137,255)"/>
<circle cx="288" cy="288" r="12" fill="rgb(0,183,202)" opacity="0.35"/>
<circle cx="288" cy="288" r="9" fill="rgb(0,183,202)"/>
<circle cx="312" cy="288" r="12" fill="rgb(0,196,115)" opacity="0.35"/>
<circle cx="312" cy="288" r="9" fill="rgb(0,196,115)"/>
<circle cx="336" cy="288" r="12" fill="rgb(1,200,83)" opacity="0.35"/>
<circle cx="336" cy="288" r="9" fill="rgb(1,200,83)"/>
<circle cx="360" cy="288" r="12" fill="rgb(0,196,113)" opacity="0.35"/>
<circle cx="360" cy="288" r="9" fill="rgb(0,196,113)"/>
<circle cx="384" cy="288" r="12" fill="rgb(0,184,200)" opacity="0.35"/>
<circle cx="384" cy="288" r="9" fill="rgb(0,184,200)"/>
<circle cx="24" cy="312" r="12" fill="rgb(0,187,177)" opacity="0.35"/>
<circle cx="24" cy="312" r="9" fill="rgb(0,187,177)"/>
<circle cx="48" cy="312" r="12" fill="rgb(0,199,90)" opacity="0.35"/>
<circle cx="48" cy="312" r="9" fill="rgb(0,199,90)"/>
<circle cx="72" cy="312" r="12" fill="rgb(35,202,71)" opacity="0.35"/>
<circle cx="72" cy="312" r="9" fill="rgb(35,202,71)"/>
<circle cx="96" cy="312" r="12" fill="rgb(0,199,91)" opacity="0.35"/>
<circle cx="96" cy="312" r="9" fill="rgb(0,199,91)"/>
<circle cx="120" cy="312" r="12" fill="rgb(0,187,179)" opacity="0.35"/>
<circle cx="120" cy="312" r="9" fill="rgb(0,187,179)"/>
<circle cx="144" cy="312" r="12" fill="rgb(13,151,255)" opacity="0.35"/>
<circle cx="144" cy="312" r="9" fill="rgb(13,151,255)"/>
<circle cx="168" cy="312" r="12" fill="rgb(48,80,254)" opacity="0.35"/>
<circle cx="168" cy="312" r="9" fill="rgb(48,80,254)"/>
<circle cx="192" cy="312" r="12" fill="rgb(142,34,251)" opacity="0.35"/>
<circle cx="192" cy="312" r="9" fill="rgb(142,34,251)"/>
<circle cx="216" cy="312" r="12" fill="rgb(142,34,251)" opacity="0.35"/>
<circle cx="216" cy="312" r="9" fill="rgb(142,34,251)"/>
<circle cx="240" cy="312" r="12" fill="rgb(48,80,254)" opacity="0.35"/>
<circle cx="240" cy="312" r="9" fill="rgb(48,80,254)"/>
<circle cx="264" cy="312" r="12" fill="rgb(13,151,255)" opacity="0.35"/>
<circle cx="264" cy="312" r="9" fill="rgb(13,151,255)"/>
<circle cx="288" cy="312" r="12" fill="rgb(0,187,179)" opacity="0.35"/>
<circle cx="288" cy="312" r="9" fill="rgb(0,187,179)"/>
<circle cx="312" cy="312" r="12" fill="rgb(0,199,91)" opacity="0.35"/>
<circle cx="312" cy="312" r="9" fill="rgb(0,199,91)"/>
<circle cx="336" cy="312" r="12" fill="rgb(35,202,71)" opacity="0.35"/>
<circle cx="336" cy="312" r="9" fill="rgb(35,202,71)"/>
<circle cx="360" cy="312" r="12" fill="rgb(0,199,90)" opacity="0.35"/>
<circle cx="360" cy="312" r="9" fill="rgb(0,199,90)"/>
<circle cx="384" cy="312" r="12" fill="rgb(0,187,177)" opacity="0.35"/>
<circle cx="384" cy="312" r="9" fill="rgb(0,187,177)"/>
<circle cx="24" cy="336" r="12" fill="rgb(0,198,96)" opacity="0.35"/>
<circle cx="24" cy="336" r="9" fill="rgb(0,198,96)"/>
<circle cx="48" cy="336" r="12" fill="rgb(109,206,48)" opacity="0.35"/>
<circle cx="48" cy="336" r="9" fill="rgb(109,206,48)"/>
<circle cx="72" cy="336" r="12" fill="rgb(155,208,33)" opacity="0.35"/>
<circle cx="72" cy="336" r="9" fill="rgb(155,208,33)"/>
<circle cx="96" cy="336" r="12" fill="rgb(107,205,48)" opacity="0.35"/>
<circle cx="96" cy="336" r="9" fill="rgb(107,205,48)"/>
<circle cx="120" cy="336" r="12" fill="rgb(0,198,98)" opacity="0.35"/>
<circle cx="120" cy="336" r="9" fill="rgb(0,198,98)"/>
<circle cx="144" cy="336" r="12" fill="rgb(0,181,219)" opacity="0.35"/>
<circle cx="144" cy="336" r="9" fill="rgb(0,181,219)"/>
<circle cx="168" cy="336" r="12" fill="rgb(25,125,254)" opacity="0.35"/>
<circle cx="168" cy="336" r="9" fill="rgb(25,125,254)"/>
<circle cx="192" cy="336" r="12" fill="rgb(64,71,254)" opacity="0.35"/>
<circle cx="192" cy="336" r="9" fill="rgb(64,71,254)"/>
<circle cx="216" cy="336" r="12" fill="rgb(64,71,254)" opacity="0.35"/>
<circle cx="216" cy="336" r="9" fill="rgb(64,71,254)"/>
<circle cx="240" cy="336" r="12" fill="rgb(25,125,254)" opacity="0.35"/>
<circle cx="240" cy="336" r="9" fill="rgb(25,125,254)"/>
<circle cx="264" cy="336" r="12" fill="rgb(0,181,219)" opacity="0.35"/>
<circle cx="264" cy="336" r="9" fill="rgb(0,181,219)"/>
<circle cx="288" cy="336" r="12" fill="rgb(0,198,98)" opacity="0.35"/>
<circle cx="288" cy="336" r="9" fill="rgb(0,198,98)"/>
<circle cx="312" cy="336" r="12" fill="rgb(107,205,48)" opacity="0.35"/>
<circle cx="312" cy="336" r="9" fill="rgb(107,205,48)"/>
<circle cx="336" cy="336" r="12" fill="rgb(155,208,33)" opacity="0.35"/>
<circle cx="336" cy="336" r="9" fill="rgb(155,208,33)"/>
<circle cx="360" cy="336" r="12" fill="rgb(109,206,48)" opacity="0.35"/>
<circle cx="360" cy="336" r="9" fill="rgb(109,206,48)"/>
<circle cx="384" cy="336" r="12" fill="rgb(0,198,96)" opacity="0.35"/>
<circle cx="384" cy="336" r="9" fill="rgb(0,198,96)"/>
<circle cx="24" cy="360" r="12" fill="rgb(156,208,32)" opacity="0.35"/>
<circle cx="24" cy="360" r="9" fill="rgb(156,208,32)"/>
<circle cx="48" cy="360" r="12" fill="rgb(255,203,0)" opacity="0.35"/>
<circle cx="48" cy="360" r="9" fill="rgb(255,203,0)"/>
<circle cx="72" cy="360" r="12" fill="rgb(255,186,0)" opacity="0.35"/>
<circle cx="72" cy="360" r="9" fill="rgb(255,186,0)"/>
<circle cx="96" cy="360" r="12" fill="rgb(255,203,0)" opacity="0.35"/>
<circle cx="96" cy="360" r="9" fill="rgb(255,203,0)"/>
<circle cx="120" cy="360" r="12" fill="rgb(153,208,33)" opacity="0.35"/>
<circle cx="120" cy="360" r="9" fill="rgb(153,208,33)"/>
<circle cx="144" cy="360" r="12" fill="rgb(0,197,101)" opacity="0.35"/>
<circle cx="144" cy="360" r="9" fill="rgb(0,197,101)"/>
<circle cx="168" cy="360" r="12" fill="rgb(0,180,227)" opacity="0.35"/>
<circle cx="168" cy="360" r="9" fill="rgb(0,180,227)"/>
<circle cx="192" cy="360" r="12" fill="rgb(20,136,255)" opacity="0.35"/>
<circle cx="192" cy="360" r="9" fill="rgb(20,136,255)"/>
<circle cx="216" cy="360" r="12" fill="rgb(20,136,255)" opacity="0.35"/>
<circle cx="216" cy="360" r="9" fill="rgb(20,136,255)"/>
<circle cx="240" cy="360" r="12" fill="rgb(0,180,227)" opacity="0.35"/>
<circle cx="240" cy="360" r="9" fill="rgb(0,180,227)"/>
<circle cx="264" cy="360" r="12" fill="rgb(0,197,101)" opacity="0.35"/>
<circle cx="264" cy="360" r="9" fill="rgb(0,197,101)"/>
<circle cx="288" cy="360" r="12" fill="rgb(153,208,33)" opacity="0.35"/>
<circle cx="288" cy="360" r="9" fill="rgb(153,208,33)"/>
<circle cx="312" cy="360" r="12" fill="rgb(255,203,0)" opacity="0.35"/>
<circle cx="312" cy="360" r="9" fill="rgb(255,203,0)"/>
<circle cx="336" cy="360" r="12" fill="rgb(255,186,0)" opacity="0.35"/>
<circle cx="336" cy="360" r="9" fill="rgb(255,186,0)"/>
<circle cx="360" cy="360" r="12" fill="rgb(255,203,0)" opacity="0.35"/>
<circle cx="360" cy="360" r="9" fill="rgb(255,203,0)"/>
<circle cx="384" cy="360" r="12" fill="rgb(156,208,32)" opacity="0.35"/>
<circle cx="384" cy="360" r="9" fill="rgb(156,208,32)"/>
<circle cx="24" cy="384" r="12" fill="rgb(255,181,0)" opacity="0.35"/>
<circle cx="24" cy="384" r="9" fill="rgb(255,181,0)"/>
<circle cx="48" cy="384" r="12" fill="rgb(255,135,0)" opacity="0.35"/>
<circle cx="48" cy="384" r="9" fill="rgb(255,135,0)"/>
<circle cx="72" cy="384" r="12" fill="rgb(255,118,0)" opacity="0.35"/>
<circle cx="72" cy="384" r="9" fill="rgb(255,118,0)"/>
<circle cx="96" cy="384" r="12" fill="rgb(255,136,0)" opacity="0.35"/>
<circle cx="96" cy="384" r="9" fill="rgb(255,136,0)"/>
<circle cx="120" cy="384" r="12" fill="rgb(255,182,0)" opacity="0.35"/>
<circle cx="120" cy="384" r="9" fill="rgb(255,182,0)"/>
<circle cx="144" cy="384" r="12" fill="rgb(161,208,31)" opacity="0.35"/>
<circle cx="144" cy="384" r="9" fill="rgb(161,208,31)"/>
<circle cx="168" cy="384" r="12" fill="rgb(0,198,100)" opacity="0.35"/>
<circle cx="168" cy="384" r="9" fill="rgb(0,198,100)"/>
<circle cx="192" cy="384" r="12" fill="rgb(0,184,199)" opacity="0.35"/>
<circle cx="192" cy="384" r="9" fill="rgb(0,184,199)"/>
<circle cx="216" cy="384" r="12" fill="rgb(0,184,199)" opacity="0.35"/>
<circle cx="216" cy="384" r="9" fill="rgb(0,184,199)"/>
<circle cx="240" cy="384" r="12" fill="rgb(0,198,100)" opacity="0.35"/>
<circle cx="240" cy="384" r="9" fill="rgb(0,198,100)"/>
<circle cx="264" cy="384" r="12" fill="rgb(161,208,31)" opacity="0.35"/>
<circle cx="264" cy="384" r="9" fill="rgb(161,208,31)"/>
<circle cx="288" cy="384" r="12" fill="rgb(255,182,0)" opacity="0.35"/>
<circle cx="288" cy="384" r="9" fill="rgb(255,182,0)"/>
<circle cx="312" cy="384" r="12" fill="rgb(255,136,0)" opacity="0.35"/>
<circle cx="312" cy="384" r="9" fill="rgb(255,136,0)"/>
<circle cx="336" cy="384" r="12" fill="rgb(255,118,0)" opacity="0.35"/>
<circle cx="336" cy="384" r="9" fill="rgb(255,118,0)"/>
<circle cx="360" cy="384" r="12" fill="rgb(255,135,0)" opacity="0.35"/>
<circle cx="360" cy="384" r="9" fill="rgb(255,135,0)"/>
<circle cx="384" cy="384" r="12" fill="rgb(255,181,0)" opacity="0.35"/>
<circle cx="384" cy="384" r="9" fill="rgb(255,181,0)"/>
</svg>
