<svg xmlns="http://www.w3.org/2000/svg" viewBox="0 0 408 408" width="408" height="408" role="img" aria-label="LED preview of the Mod example graph">
<rect width="408" height="408" rx="10" fill="#05070a"/>
<circle cx="24" cy="24" r="12" fill="rgb(249,253,192)" opacity="0.35"/>
<circle cx="24" cy="24" r="9" fill="rgb(249,253,192)"/>
<circle cx="48" cy="24" r="12" fill="rgb(249,253,197)" opacity="0.35"/>
<circle cx="48" cy="24" r="9" fill="rgb(249,253,197)"/>
<circle cx="72" cy="24" r="12" fill="rgb(250,253,198)" opacity="0.35"/>
<circle cx="72" cy="24" r="9" fill="rgb(250,253,198)"/>
<circle cx="96" cy="24" r="12" fill="rgb(249,253,197)" opacity="0.35"/>
<circle cx="96" cy="24" r="9" fill="rgb(249,253,197)"/>
<circle cx="120" cy="24" r="12" fill="rgb(249,253,193)" opacity="0.35"/>
<circle cx="120" cy="24" r="9" fill="rgb(249,253,193)"/>
<circle cx="144" cy="24" r="12" fill="rgb(248,252,186)" opacity="0.35"/>
<circle cx="144" cy="24" r="9" fill="rgb(248,252,186)"/>
<circle cx="168" cy="24" r="12" fill="rgb(247,251,176)" opacity="0.35"/>
<circle cx="168" cy="24" r="9" fill="rgb(247,251,176)"/>
<circle cx="192" cy="24" r="12" fill="rgb(245,250,164)" opacity="0.35"/>
<circle cx="192" cy="24" r="9" fill="rgb(245,250,164)"/>
<circle cx="216" cy="24" r="12" fill="rgb(244,248,149)" opacity="0.35"/>
<circle cx="216" cy="24" r="9" fill="rgb(244,248,149)"/>
<circle cx="240" cy="24" r="12" fill="rgb(242,247,133)" opacity="0.35"/>
<circle cx="240" cy="24" r="9" fill="rgb(242,247,133)"/>
<circle cx="264" cy="24" r="12" fill="rgb(251,253,220)" opacity="0.35"/>
<circle cx="264" cy="24" r="9" fill="rgb(251,253,220)"/>
<circle cx="288" cy="24" r="12" fill="rgb(253,254,239)" opacity="0.35"/>
<circle cx="288" cy="24" r="9" fill="rgb(253,254,239)"/>
<circle cx="312" cy="24" r="12" fill="rgb(233,239,81)" opacity="0.35"/>
<circle cx="312" cy="24" r="9" fill="rgb(233,239,81)"/>
<circle cx="336" cy="24" r="12" fill="rgb(224,234,69)" opacity="0.35"/>
<circle cx="336" cy="24" r="9" fill="rgb(224,234,69)"/>
<circle cx="360" cy="24" r="12" fill="rgb(217,229,58)" opacity="0.35"/>
<circle cx="360" cy="24" r="9" fill="rgb(217,229,58)"/>
<circle cx="384" cy="24" r="12" fill="rgb(209,224,47)" opacity="0.35"/>
<circle cx="384" cy="24" r="9" fill="rgb(209,224,47)"/>
<circle cx="24" cy="48" r="12" fill="rgb(249,252,188)" opacity="0.35"/>
<circle cx="24" cy="48" r="9" fill="rgb(249,252,188)"/>
<circle cx="48" cy="48" r="12" fill="rgb(249,253,193)" opacity="0.35"/>
<circle cx="48" cy="48" r="9" fill="rgb(249,253,193)"/>
<circle cx="72" cy="48" r="12" fill="rgb(249,253,195)" opacity="0.35"/>
<circle cx="72" cy="48" r="9" fill="rgb(249,253,195)"/>
<circle cx="96" cy="48" r="12" fill="rgb(249,253,194)" opacity="0.35"/>
<circle cx="96" cy="48" r="9" fill="rgb(249,253,194)"/>
<circle cx="120" cy="48" r="12" fill="rgb(248,252,190)" opacity="0.35"/>
<circle cx="120" cy="48" r="9" fill="rgb(248,252,190)"/>
<circle cx="144" cy="48" r="12" fill="rgb(248,252,183)" opacity="0.35"/>
<circle cx="144" cy="48" r="9" fill="rgb(248,252,183)"/>
<circle cx="168" cy="48" r="12" fill="rgb(247,251,174)" opacity="0.35"/>
<circle cx="168" cy="48" r="9" fill="rgb(247,251,174)"/>
<circle cx="192" cy="48" r="12" fill="rgb(246,250,162)" opacity="0.35"/>
<circle cx="192" cy="48" r="9" fill="rgb(246,250,162)"/>
<circle cx="216" cy="48" r="12" fill="rgb(244,248,147)" opacity="0.35"/>
<circle cx="216" cy="48" r="9" fill="rgb(244,248,147)"/>
<circle cx="240" cy="48" r="12" fill="rgb(243,247,144)" opacity="0.35"/>
<circle cx="240" cy="48" r="9" fill="rgb(243,247,144)"/>
<circle cx="264" cy="48" r="12" fill="rgb(255,255,252)" opacity="0.35"/>
<circle cx="264" cy="48" r="9" fill="rgb(255,255,252)"/>
<circle cx="288" cy="48" r="12" fill="rgb(247,249,180)" opacity="0.35"/>
<circle cx="288" cy="48" r="9" fill="rgb(247,249,180)"/>
<circle cx="312" cy="48" r="12" fill="rgb(232,239,80)" opacity="0.35"/>
<circle cx="312" cy="48" r="9" fill="rgb(232,239,80)"/>
<circle cx="336" cy="48" r="12" fill="rgb(224,234,69)" opacity="0.35"/>
<circle cx="336" cy="48" r="9" fill="rgb(224,234,69)"/>
<circle cx="360" cy="48" r="12" fill="rgb(217,229,57)" opacity="0.35"/>
<circle cx="360" cy="48" r="9" fill="rgb(217,229,57)"/>
<circle cx="384" cy="48" r="12" fill="rgb(209,224,46)" opacity="0.35"/>
<circle cx="384" cy="48" r="9" fill="rgb(209,224,46)"/>
<circle cx="24" cy="72" r="12" fill="rgb(248,252,184)" opacity="0.35"/>
<circle cx="24" cy="72" r="9" fill="rgb(248,252,184)"/>
<circle cx="48" cy="72" r="12" fill="rgb(248,252,190)" opacity="0.35"/>
<circle cx="48" cy="72" r="9" fill="rgb(248,252,190)"/>
<circle cx="72" cy="72" r="12" fill="rgb(249,253,192)" opacity="0.35"/>
<circle cx="72" cy="72" r="9" fill="rgb(249,253,192)"/>
<circle cx="96" cy="72" r="12" fill="rgb(248,252,191)" opacity="0.35"/>
<circle cx="96" cy="72" r="9" fill="rgb(248,252,191)"/>
<circle cx="120" cy="72" r="12" fill="rgb(248,252,187)" opacity="0.35"/>
<circle cx="120" cy="72" r="9" fill="rgb(248,252,187)"/>
<circle cx="144" cy="72" r="12" fill="rgb(247,251,180)" opacity="0.35"/>
<circle cx="144" cy="72" r="9" fill="rgb(247,251,180)"/>
<circle cx="168" cy="72" r="12" fill="rgb(246,250,171)" opacity="0.35"/>
<circle cx="168" cy="72" r="9" fill="rgb(246,250,171)"/>
<circle cx="192" cy="72" r="12" fill="rgb(245,249,159)" opacity="0.35"/>
<circle cx="192" cy="72" r="9" fill="rgb(245,249,159)"/>
<circle cx="216" cy="72" r="12" fill="rgb(244,248,145)" opacity="0.35"/>
<circle cx="216" cy="72" r="9" fill="rgb(244,248,145)"/>
<circle cx="240" cy="72" r="12" fill="rgb(251,252,211)" opacity="0.35"/>
<circle cx="240" cy="72" r="9" fill="rgb(251,252,211)"/>
<circle cx="264" cy="72" r="12" fill="rgb(254,253,247)" opacity="0.35"/>
<circle cx="264" cy="72" r="9" fill="rgb(254,253,247)"/>
<circle cx="288" cy="72" r="12" fill="rgb(238,243,93)" opacity="0.35"/>
<circle cx="288" cy="72" r="9" fill="rgb(238,243,93)"/>
<circle cx="312" cy="72" r="12" fill="rgb(232,239,79)" opacity="0.35"/>
<circle cx="312" cy="72" r="9" fill="rgb(232,239,79)"/>
<circle cx="336" cy="72" r="12" fill="rgb(225,234,68)" opacity="0.35"/>
<circle cx="336" cy="72" r="9" fill="rgb(225,234,68)"/>
<circle cx="360" cy="72" r="12" fill="rgb(216,229,57)" opacity="0.35"/>
<circle cx="360" cy="72" r="9" fill="rgb(216,229,57)"/>
<circle cx="384" cy="72" r="12" fill="rgb(208,224,46)" opacity="0.35"/>
<circle cx="384" cy="72" r="9" fill="rgb(208,224,46)"/>
<circle cx="24" cy="96" r="12" fill="rgb(247,251,181)" opacity="0.35"/>
<circle cx="24" cy="96" r="9" fill="rgb(247,251,181)"/>
<circle cx="48" cy="96" r="12" fill="rgb(248,252,186)" opacity="0.35"/>
<circle cx="48" cy="96" r="9" fill="rgb(248,252,186)"/>
<circle cx="72" cy="96" r="12" fill="rgb(249,252,188)" opacity="0.35"/>
<circle cx="72" cy="96" r="9" fill="rgb(249,252,188)"/>
<circle cx="96" cy="96" r="12" fill="rgb(248,252,188)" opacity="0.35"/>
<circle cx="96" cy="96" r="9" fill="rgb(248,252,188)"/>
<circle cx="120" cy="96" r="12" fill="rgb(248,252,184)" opacity="0.35"/>
<circle cx="120" cy="96" r="9" fill="rgb(248,252,184)"/>
<circle cx="144" cy="96" r="12" fill="rgb(247,251,177)" opacity="0.35"/>
<circle cx="144" cy="96" r="9" fill="rgb(247,251,177)"/>
<circle cx="168" cy="96" r="12" fill="rgb(247,250,168)" opacity="0.35"/>
<circle cx="168" cy="96" r="9" fill="rgb(247,250,168)"/>
<circle cx="192" cy="96" r="12" fill="rgb(245,249,156)" opacity="0.35"/>
<circle cx="192" cy="96" r="9" fill="rgb(245,249,156)"/>
<circle cx="216" cy="96" r="12" fill="rgb(244,248,143)" opacity="0.35"/>
<circle cx="216" cy="96" r="9" fill="rgb(244,248,143)"/>
<circle cx="240" cy="96" r="12" fill="rgb(255,255,248)" opacity="0.35"/>
<circle cx="240" cy="96" r="9" fill="rgb(255,255,248)"/>
<circle cx="264" cy="96" r="12" fill="rgb(250,251,204)" opacity="0.35"/>
<circle cx="264" cy="96" r="9" fill="rgb(250,251,204)"/>
<circle cx="288" cy="96" r="12" fill="rgb(237,242,91)" opacity="0.35"/>
<circle cx="288" cy="96" r="9" fill="rgb(237,242,91)"/>
<circle cx="312" cy="96" r="12" fill="rgb(231,238,78)" opacity="0.35"/>
<circle cx="312" cy="96" r="9" fill="rgb(231,238,78)"/>
<circle cx="336" cy="96" r="12" fill="rgb(224,233,67)" opacity="0.35"/>
<circle cx="336" cy="96" r="9" fill="rgb(224,233,67)"/>
<circle cx="360" cy="96" r="12" fill="rgb(216,229,56)" opacity="0.35"/>
<circle cx="360" cy="96" r="9" fill="rgb(216,229,56)"/>
<circle cx="384" cy="96" r="12" fill="rgb(208,224,46)" opacity="0.35"/>
<circle cx="384" cy="96" r="9" fill="rgb(208,224,46)"/>
<circle cx="24" cy="120" r="12" fill="rgb(247,251,176)" opacity="0.35"/>
<circle cx="24" cy="120" r="9" fill="rgb(247,251,176)"/>
<circle cx="48" cy="120" r="12" fill="rgb(248,252,182)" opacity="0.35"/>
<circle cx="48" cy="120" r="9" fill="rgb(248,252,182)"/>
<circle cx="72" cy="120" r="12" fill="rgb(248,252,184)" opacity="0.35"/>
<circle cx="72" cy="120" r="9" fill="rgb(248,252,184)"/>
<circle cx="96" cy="120" r="12" fill="rgb(248,252,184)" opacity="0.35"/>
<circle cx="96" cy="120" r="9" fill="rgb(248,252,184)"/>
<circle cx="120" cy="120" r="12" fill="rgb(247,251,180)" opacity="0.35"/>
<circle cx="120" cy="120" r="9" fill="rgb(247,251,180)"/>
<circle cx="144" cy="120" r="12" fill="rgb(247,251,174)" opacity="0.35"/>
<circle cx="144" cy="120" r="9" fill="rgb(247,251,174)"/>
<circle cx="168" cy="120" r="12" fill="rgb(246,250,165)" opacity="0.35"/>
<circle cx="168" cy="120" r="9" fill="rgb(246,250,165)"/>
<circle cx="192" cy="120" r="12" fill="rgb(245,249,153)" opacity="0.35"/>
<circle cx="192" cy="120" r="9" fill="rgb(245,249,153)"/>
<circle cx="216" cy="120" r="12" fill="rgb(250,251,202)" opacity="0.35"/>
<circle cx="216" cy="120" r="9" fill="rgb(250,251,202)"/>
<circle cx="240" cy="120" r="12" fill="rgb(255,255,252)" opacity="0.35"/>
<circle cx="240" cy="120" r="9" fill="rgb(255,255,252)"/>
<circle cx="264" cy="120" r="12" fill="rgb(240,245,122)" opacity="0.35"/>
<circle cx="264" cy="120" r="9" fill="rgb(240,245,122)"/>
<circle cx="288" cy="120" r="12" fill="rgb(238,242,89)" opacity="0.35"/>
<circle cx="288" cy="120" r="9" fill="rgb(238,242,89)"/>
<circle cx="312" cy="120" r="12" fill="rgb(231,238,77)" opacity="0.35"/>
<circle cx="312" cy="120" r="9" fill="rgb(231,238,77)"/>
<circle cx="336" cy="120" r="12" fill="rgb(223,233,67)" opacity="0.35"/>
<circle cx="336" cy="120" r="9" fill="rgb(223,233,67)"/>
<circle cx="360" cy="120" r="12" fill="rgb(215,228,56)" opacity="0.35"/>
<circle cx="360" cy="120" r="9" fill="rgb(215,228,56)"/>
<circle cx="384" cy="120" r="12" fill="rgb(207,224,45)" opacity="0.35"/>
<circle cx="384" cy="120" r="9" fill="rgb(207,224,45)"/>
<circle cx="24" cy="144" r="12" fill="rgb(247,251,172)" opacity="0.35"/>
<circle cx="24" cy="144" r="9" fill="rgb(247,251,172)"/>
<circle cx="48" cy="144" r="12" fill="rgb(247,251,178)" opacity="0.35"/>
<circle cx="48" cy="144" r="9" fill="rgb(247,251,178)"/>
<circle cx="72" cy="144" r="12" fill="rgb(247,251,180)" opacity="0.35"/>
<circle cx="72" cy="144" r="9" fill="rgb(247,251,180)"/>
<circle cx="96" cy="144" r="12" fill="rgb(247,251,180)" opacity="0.35"/>
<circle cx="96" cy="144" r="9" fill="rgb(247,251,180)"/>
<circle cx="120" cy="144" r="12" fill="rgb(247,251,177)" opacity="0.35"/>
<circle cx="120" cy="144" r="9" fill="rgb(247,251,177)"/>
<circle cx="144" cy="144" r="12" fill="rgb(246,250,170)" opacity="0.35"/>
<circle cx="144" cy="144" r="9" fill="rgb(246,250,170)"/>
<circle cx="168" cy="144" r="12" fill="rgb(246,250,161)" opacity="0.35"/>
<circle cx="168" cy="144" r="9" fill="rgb(246,250,161)"/>
<circle cx="192" cy="144" r="12" fill="rgb(244,248,150)" opacity="0.35"/>
<circle cx="192" cy="144" r="9" fill="rgb(244,248,150)"/>
<circle cx="216" cy="144" r="12" fill="rgb(253,254,243)" opacity="0.35"/>
<circle cx="216" cy="144" r="9" fill="rgb(253,254,243)"/>
<circle cx="240" cy="144" r="12" fill="rgb(252,252,221)" opacity="0.35"/>
<circle cx="240" cy="144" r="9" fill="rgb(252,252,221)"/>
<circle cx="264" cy="144" r="12" fill="rgb(239,244,105)" opacity="0.35"/>
<circle cx="264" cy="144" r="9" fill="rgb(239,244,105)"/>
<circle cx="288" cy="144" r="12" fill="rgb(237,242,87)" opacity="0.35"/>
<circle cx="288" cy="144" r="9" fill="rgb(237,242,87)"/>
<circle cx="312" cy="144" r="12" fill="rgb(230,237,76)" opacity="0.35"/>
<circle cx="312" cy="144" r="9" fill="rgb(230,237,76)"/>
<circle cx="336" cy="144" r="12" fill="rgb(222,233,66)" opacity="0.35"/>
<circle cx="336" cy="144" r="9" fill="rgb(222,233,66)"/>
<circle cx="360" cy="144" r="12" fill="rgb(214,228,55)" opacity="0.35"/>
<circle cx="360" cy="144" r="9" fill="rgb(214,228,55)"/>
<circle cx="384" cy="144" r="12" fill="rgb(207,223,44)" opacity="0.35"/>
<circle cx="384" cy="144" r="9" fill="rgb(207,223,44)"/>
<circle cx="24" cy="168" r="12" fill="rgb(246,250,168)" opacity="0.35"/>
<circle cx="24" cy="168" r="9" fill="rgb(246,250,168)"/>
<circle cx="48" cy="168" r="12" fill="rgb(247,251,173)" opacity="0.35"/>
<circle cx="48" cy="168" r="9" fill="rgb(247,251,173)"/>
<circle cx="72" cy="168" r="12" fill="rgb(247,251,176)" opacity="0.35"/>
<circle cx="72" cy="168" r="9" fill="rgb(247,251,176)"/>
<circle cx="96" cy="168" r="12" fill="rgb(247,251,176)" opacity="0.35"/>
<circle cx="96" cy="168" r="9" fill="rgb(247,251,176)"/>
<circle cx="120" cy="168" r="12" fill="rgb(247,251,172)" opacity="0.35"/>
<circle cx="120" cy="168" r="9" fill="rgb(247,251,172)"/>
<circle cx="144" cy="168" r="12" fill="rgb(246,250,166)" opacity="0.35"/>
<circle cx="144" cy="168" r="9" fill="rgb(246,250,166)"/>
<circle cx="168" cy="168" r="12" fill="rgb(245,249,158)" opacity="0.35"/>
<circle cx="168" cy="168" r="9" fill="rgb(245,249,158)"/>
<circle cx="192" cy="168" r="12" fill="rgb(249,251,191)" opacity="0.35"/>
<circle cx="192" cy="168" r="9" fill="rgb(249,251,191)"/>
<circle cx="216" cy="168" r="12" fill="rgb(255,255,255)" opacity="0.35"/>
<circle cx="216" cy="168" r="9" fill="rgb(255,255,255)"/>
<circle cx="240" cy="168" r="12" fill="rgb(245,248,153)" opacity="0.35"/>
<circle cx="240" cy="168" r="9" fill="rgb(245,248,153)"/>
<circle cx="264" cy="168" r="12" fill="rgb(238,243,102)" opacity="0.35"/>
<circle cx="264" cy="168" r="9" fill="rgb(238,243,102)"/>
<circle cx="288" cy="168" r="12" fill="rgb(236,241,85)" opacity="0.35"/>
<circle cx="288" cy="168" r="9" fill="rgb(236,241,85)"/>
<circle cx="312" cy="168" r="12" fill="rgb(229,237,75)" opacity="0.35"/>
<circle cx="312" cy="168" r="9" fill="rgb(229,237,75)"/>
<circle cx="336" cy="168" r="12" fill="rgb(221,232,64)" opacity="0.35"/>
<circle cx="336" cy="168" r="9" fill="rgb(221,232,64)"/>
<circle cx="360" cy="168" r="12" fill="rgb(214,227,54)" opacity="0.35"/>
<circle cx="360" cy="168" r="9" fill="rgb(214,227,54)"/>
<circle cx="384" cy="168" r="12" fill="rgb(207,223,43)" opacity="0.35"/>
<circle cx="384" cy="168" r="9" fill="rgb(207,223,43)"/>
<circle cx="24" cy="192" r="12" fill="rgb(246,250,163)" opacity="0.35"/>
<circle cx="24" cy="192" r="9" fill="rgb(246,250,163)"/>
<circle cx="48" cy="192" r="12" fill="rgb(246,250,169)" opacity="0.35"/>
<circle cx="48" cy="192" r="9" fill="rgb(246,250,169)"/>
<circle cx="72" cy="192" r="12" fill="rgb(247,251,171)" opacity="0.35"/>
<circle cx="72" cy="192" r="9" fill="rgb(247,251,171)"/>
<circle cx="96" cy="192" r="12" fill="rgb(246,250,171)" opacity="0.35"/>
<circle cx="96" cy="192" r="9" fill="rgb(246,250,171)"/>
<circle cx="120" cy="192" r="12" fill="rgb(247,250,168)" opacity="0.35"/>
<circle cx="120" cy="192" r="9" fill="rgb(247,250,168)"/>
<circle cx="144" cy="192" r="12" fill="rgb(246,250,162)" opacity="0.35"/>
<circle cx="144" cy="192" r="9" fill="rgb(246,250,162)"/>
<circle cx="168" cy="192" r="12" fill="rgb(244,249,154)" opacity="0.35"/>
<circle cx="168" cy="192" r="9" fill="rgb(244,249,154)"/>
<circle cx="192" cy="192" r="12" fill="rgb(253,254,236)" opacity="0.35"/>
<circle cx="192" cy="192" r="9" fill="rgb(253,254,236)"/>
<circle cx="216" cy="192" r="12" fill="rgb(253,253,234)" opacity="0.35"/>
<circle cx="216" cy="192" r="9" fill="rgb(253,253,234)"/>
<circle cx="240" cy="192" r="12" fill="rgb(241,245,115)" opacity="0.35"/>
<circle cx="240" cy="192" r="9" fill="rgb(241,245,115)"/>
<circle cx="264" cy="192" r="12" fill="rgb(239,243,99)" opacity="0.35"/>
<circle cx="264" cy="192" r="9" fill="rgb(239,243,99)"/>
<circle cx="288" cy="192" r="12" fill="rgb(235,241,84)" opacity="0.35"/>
<circle cx="288" cy="192" r="9" fill="rgb(235,241,84)"/>
<circle cx="312" cy="192" r="12" fill="rgb(228,236,73)" opacity="0.35"/>
<circle cx="312" cy="192" r="9" fill="rgb(228,236,73)"/>
<circle cx="336" cy="192" r="12" fill="rgb(220,231,63)" opacity="0.35"/>
<circle cx="336" cy="192" r="9" fill="rgb(220,231,63)"/>
<circle cx="360" cy="192" r="12" fill="rgb(213,227,53)" opacity="0.35"/>
<circle cx="360" cy="192" r="9" fill="rgb(213,227,53)"/>
<circle cx="384" cy="192" r="12" fill="rgb(206,222,42)" opacity="0.35"/>
<circle cx="384" cy="192" r="9" fill="rgb(206,222,42)"/>
<circle cx="24" cy="216" r="12" fill="rgb(245,249,158)" opacity="0.35"/>
<circle cx="24" cy="216" r="9" fill="rgb(245,249,158)"/>
<circle cx="48" cy="216" r="12" fill="rgb(245,250,164)" opacity="0.35"/>
<circle cx="48" cy="216" r="9" fill="rgb(245,250,164)"/>
<circle cx="72" cy="216" r="12" fill="rgb(246,250,167)" opacity="0.35"/>
<circle cx="72" cy="216" r="9" fill="rgb(246,250,167)"/>
<circle cx="96" cy="216" r="12" fill="rgb(246,250,167)" opacity="0.35"/>
<circle cx="96" cy="216" r="9" fill="rgb(246,250,167)"/>
<circle cx="120" cy="216" r="12" fill="rgb(245,250,164)" opacity="0.35"/>
<circle cx="120" cy="216" r="9" fill="rgb(245,250,164)"/>
<circle cx="144" cy="216" r="12" fill="rgb(245,249,158)" opacity="0.35"/>
<circle cx="144" cy="216" r="9" fill="rgb(245,249,158)"/>
<circle cx="168" cy="216" r="12" fill="rgb(246,250,178)" opacity="0.35"/>
<circle cx="168" cy="216" r="9" fill="rgb(246,250,178)"/>
<circle cx="192" cy="216" r="12" fill="rgb(255,255,255)" opacity="0.35"/>
<circle cx="192" cy="216" r="9" fill="rgb(255,255,255)"/>
<circle cx="216" cy="216" r="12" fill="rgb(247,250,178)" opacity="0.35"/>
<circle cx="216" cy="216" r="9" fill="rgb(247,250,178)"/>
<circle cx="240" cy="216" r="12" fill="rgb(239,244,112)" opacity="0.35"/>
<circle cx="240" cy="216" r="9" fill="rgb(239,244,112)"/>
<circle cx="264" cy="216" r="12" fill="rgb(239,243,95)" opacity="0.35"/>
<circle cx="264" cy="216" r="9" fill="rgb(239,243,95)"/>
<circle cx="288" cy="216" r="12" fill="rgb(234,240,82)" opacity="0.35"/>
<circle cx="288" cy="216" r="9" fill="rgb(234,240,82)"/>
<circle cx="312" cy="216" r="12" fill="rgb(227,235,72)" opacity="0.35"/>
<circle cx="312" cy="216" r="9" fill="rgb(227,235,72)"/>
<circle cx="336" cy="216" r="12" fill="rgb(219,231,62)" opacity="0.35"/>
<circle cx="336" cy="216" r="9" fill="rgb(219,231,62)"/>
<circle cx="360" cy="216" r="12" fill="rgb(213,226,51)" opacity="0.35"/>
<circle cx="360" cy="216" r="9" fill="rgb(213,226,51)"/>
<circle cx="384" cy="216" r="12" fill="rgb(205,222,41)" opacity="0.35"/>
<circle cx="384" cy="216" r="9" fill="rgb(205,222,41)"/>
<circle cx="24" cy="240" r="12" fill="rgb(245,249,153)" opacity="0.35"/>
<circle cx="24" cy="240" r="9" fill="rgb(245,249,153)"/>
<circle cx="48" cy="240" r="12" fill="rgb(245,249,159)" opacity="0.35"/>
<circle cx="48" cy="240" r="9" fill="rgb(245,249,159)"/>
<circle cx="72" cy="240" r="12" fill="rgb(246,250,162)" opacity="0.35"/>
<circle cx="72" cy="240" r="9" fill="rgb(246,250,162)"/>
<circle cx="96" cy="240" r="12" fill="rgb(246,250,162)" opacity="0.35"/>
<circle cx="96" cy="240" r="9" fill="rgb(246,250,162)"/>
<circle cx="120" cy="240" r="12" fill="rgb(245,249,159)" opacity="0.35"/>
<circle cx="120" cy="240" r="9" fill="rgb(245,249,159)"/>
<circle cx="144" cy="240" r="12" fill="rgb(245,249,153)" opacity="0.35"/>
<circle cx="144" cy="240" r="9" fill="rgb(245,249,153)"/>
<circle cx="168" cy="240" r="12" fill="rgb(252,253,228)" opacity="0.35"/>
<circle cx="168" cy="240" r="9" fill="rgb(252,253,228)"/>
<circle cx="192" cy="240" r="12" fill="rgb(253,254,243)" opacity="0.35"/>
<circle cx="192" cy="240" r="9" fill="rgb(253,254,243)"/>
<circle cx="216" cy="240" r="12" fill="rgb(242,246,122)" opacity="0.35"/>
<circle cx="216" cy="240" r="9" fill="rgb(242,246,122)"/>
<circle cx="240" cy="240" r="12" fill="rgb(239,244,108)" opacity="0.35"/>
<circle cx="240" cy="240" r="9" fill="rgb(239,244,108)"/>
<circle cx="264" cy="240" r="12" fill="rgb(237,242,92)" opacity="0.35"/>
<circle cx="264" cy="240" r="9" fill="rgb(237,242,92)"/>
<circle cx="288" cy="240" r="12" fill="rgb(232,239,80)" opacity="0.35"/>
<circle cx="288" cy="240" r="9" fill="rgb(232,239,80)"/>
<circle cx="312" cy="240" r="12" fill="rgb(225,235,70)" opacity="0.35"/>
<circle cx="312" cy="240" r="9" fill="rgb(225,235,70)"/>
<circle cx="336" cy="240" r="12" fill="rgb(218,230,60)" opacity="0.35"/>
<circle cx="336" cy="240" r="9" fill="rgb(218,230,60)"/>
<circle cx="360" cy="240" r="12" fill="rgb(211,226,50)" opacity="0.35"/>
<circle cx="360" cy="240" r="9" fill="rgb(211,226,50)"/>
<circle cx="384" cy="240" r="12" fill="rgb(204,221,40)" opacity="0.35"/>
<circle cx="384" cy="240" r="9" fill="rgb(204,221,40)"/>
<circle cx="24" cy="264" r="12" fill="rgb(243,248,148)" opacity="0.35"/>
<circle cx="24" cy="264" r="9" fill="rgb(243,248,148)"/>
<circle cx="48" cy="264" r="12" fill="rgb(244,249,154)" opacity="0.35"/>
<circle cx="48" cy="264" r="9" fill="rgb(244,249,154)"/>
<circle cx="72" cy="264" r="12" fill="rgb(245,249,157)" opacity="0.35"/>
<circle cx="72" cy="264" r="9" fill="rgb(245,249,157)"/>
<circle cx="96" cy="264" r="12" fill="rgb(245,249,157)" opacity="0.35"/>
<circle cx="96" cy="264" r="9" fill="rgb(245,249,157)"/>
<circle cx="120" cy="264" r="12" fill="rgb(244,249,154)" opacity="0.35"/>
<circle cx="120" cy="264" r="9" fill="rgb(244,249,154)"/>
<circle cx="144" cy="264" r="12" fill="rgb(245,249,160)" opacity="0.35"/>
<circle cx="144" cy="264" r="9" fill="rgb(245,249,160)"/>
<circle cx="168" cy="264" r="12" fill="rgb(254,255,253)" opacity="0.35"/>
<circle cx="168" cy="264" r="9" fill="rgb(254,255,253)"/>
<circle cx="192" cy="264" r="12" fill="rgb(249,251,197)" opacity="0.35"/>
<circle cx="192" cy="264" r="9" fill="rgb(249,251,197)"/>
<circle cx="216" cy="264" r="12" fill="rgb(240,245,118)" opacity="0.35"/>
<circle cx="216" cy="264" r="9" fill="rgb(240,245,118)"/>
<circle cx="240" cy="264" r="12" fill="rgb(239,244,104)" opacity="0.35"/>
<circle cx="240" cy="264" r="9" fill="rgb(239,244,104)"/>
<circle cx="264" cy="264" r="12" fill="rgb(237,242,88)" opacity="0.35"/>
<circle cx="264" cy="264" r="9" fill="rgb(237,242,88)"/>
<circle cx="288" cy="264" r="12" fill="rgb(231,238,78)" opacity="0.35"/>
<circle cx="288" cy="264" r="9" fill="rgb(231,238,78)"/>
<circle cx="312" cy="264" r="12" fill="rgb(225,234,68)" opacity="0.35"/>
<circle cx="312" cy="264" r="9" fill="rgb(225,234,68)"/>
<circle cx="336" cy="264" r="12" fill="rgb(217,229,58)" opacity="0.35"/>
<circle cx="336" cy="264" r="9" fill="rgb(217,229,58)"/>
<circle cx="360" cy="264" r="12" fill="rgb(210,225,48)" opacity="0.35"/>
<circle cx="360" cy="264" r="9" fill="rgb(210,225,48)"/>
<circle cx="384" cy="264" r="12" fill="rgb(203,221,38)" opacity="0.35"/>
<circle cx="384" cy="264" r="9" fill="rgb(203,221,38)"/>
<circle cx="24" cy="288" r="12" fill="rgb(244,248,142)" opacity="0.35"/>
<circle cx="24" cy="288" r="9" fill="rgb(244,248,142)"/>
<circle cx="48" cy="288" r="12" fill="rgb(244,248,148)" opacity="0.35"/>
<circle cx="48" cy="288" r="9" fill="rgb(244,248,148)"/>
<circle cx="72" cy="288" r="12" fill="rgb(244,248,151)" opacity="0.35"/>
<circle cx="72" cy="288" r="9" fill="rgb(244,248,151)"/>
<circle cx="96" cy="288" r="12" fill="rgb(245,249,152)" opacity="0.35"/>
<circle cx="96" cy="288" r="9" fill="rgb(245,249,152)"/>
<circle cx="120" cy="288" r="12" fill="rgb(244,248,149)" opacity="0.35"/>
<circle cx="120" cy="288" r="9" fill="rgb(244,248,149)"/>
<circle cx="144" cy="288" r="12" fill="rgb(251,253,217)" opacity="0.35"/>
<circle cx="144" cy="288" r="9" fill="rgb(251,253,217)"/>
<circle cx="168" cy="288" r="12" fill="rgb(254,255,249)" opacity="0.35"/>
<circle cx="168" cy="288" r="9" fill="rgb(254,255,249)"/>
<circle cx="192" cy="288" r="12" fill="rgb(242,246,126)" opacity="0.35"/>
<circle cx="192" cy="288" r="9" fill="rgb(242,246,126)"/>
<circle cx="216" cy="288" r="12" fill="rgb(240,245,113)" opacity="0.35"/>
<circle cx="216" cy="288" r="9" fill="rgb(240,245,113)"/>
<circle cx="240" cy="288" r="12" fill="rgb(239,243,99)" opacity="0.35"/>
<circle cx="240" cy="288" r="9" fill="rgb(239,243,99)"/>
<circle cx="264" cy="288" r="12" fill="rgb(236,241,85)" opacity="0.35"/>
<circle cx="264" cy="288" r="9" fill="rgb(236,241,85)"/>
<circle cx="288" cy="288" r="12" fill="rgb(230,237,76)" opacity="0.35"/>
<circle cx="288" cy="288" r="9" fill="rgb(230,237,76)"/>
<circle cx="312" cy="288" r="12" fill="rgb(223,233,66)" opacity="0.35"/>
<circle cx="312" cy="288" r="9" fill="rgb(223,233,66)"/>
<circle cx="336" cy="288" r="12" fill="rgb(216,229,56)" opacity="0.35"/>
<circle cx="336" cy="288" r="9" fill="rgb(216,229,56)"/>
<circle cx="360" cy="288" r="12" fill="rgb(209,224,46)" opacity="0.35"/>
<circle cx="360" cy="288" r="9" fill="rgb(209,224,46)"/>
<circle cx="384" cy="288" r="12" fill="rgb(202,220,37)" opacity="0.35"/>
<circle cx="384" cy="288" r="9" fill="rgb(202,220,37)"/>
<circle cx="24" cy="312" r="12" fill="rgb(243,247,137)" opacity="0.35"/>
<circle cx="24" cy="312" r="9" fill="rgb(243,247,137)"/>
<circle cx="48" cy="312" r="12" fill="rgb(244,248,143)" opacity="0.35"/>
<circle cx="48" cy="312" r="9" fill="rgb(244,248,143)"/>
<circle cx="72" cy="312" r="12" fill="rgb(244,248,146)" opacity="0.35"/>
<circle cx="72" cy="312" r="9" fill="rgb(244,248,146)"/>
<circle cx="96" cy="312" r="12" fill="rgb(244,248,146)" opacity="0.35"/>
<circle cx="96" cy="312" r="9" fill="rgb(244,248,146)"/>
<circle cx="120" cy="312" r="12" fill="rgb(243,248,144)" opacity="0.35"/>
<circle cx="120" cy="312" r="9" fill="rgb(243,248,144)"/>
<circle cx="144" cy="312" r="12" fill="rgb(254,255,249)" opacity="0.35"/>
<circle cx="144" cy="312" r="9" fill="rgb(254,255,249)"/>
<circle cx="168" cy="312" r="12" fill="rgb(251,252,211)" opacity="0.35"/>
<circle cx="168" cy="312" r="9" fill="rgb(251,252,211)"/>
<circle cx="192" cy="312" r="12" fill="rgb(241,245,121)" opacity="0.35"/>
<circle cx="192" cy="312" r="9" fill="rgb(241,245,121)"/>
<circle cx="216" cy="312" r="12" fill="rgb(240,244,109)" opacity="0.35"/>
<circle cx="216" cy="312" r="9" fill="rgb(240,244,109)"/>
<circle cx="240" cy="312" r="12" fill="rgb(238,243,95)" opacity="0.35"/>
<circle cx="240" cy="312" r="9" fill="rgb(238,243,95)"/>
<circle cx="264" cy="312" r="12" fill="rgb(235,240,83)" opacity="0.35"/>
<circle cx="264" cy="312" r="9" fill="rgb(235,240,83)"/>
<circle cx="288" cy="312" r="12" fill="rgb(228,236,74)" opacity="0.35"/>
<circle cx="288" cy="312" r="9" fill="rgb(228,236,74)"/>
<circle cx="312" cy="312" r="12" fill="rgb(221,232,64)" opacity="0.35"/>
<circle cx="312" cy="312" r="9" fill="rgb(221,232,64)"/>
<circle cx="336" cy="312" r="12" fill="rgb(214,228,54)" opacity="0.35"/>
<circle cx="336" cy="312" r="9" fill="rgb(214,228,54)"/>
<circle cx="360" cy="312" r="12" fill="rgb(207,223,45)" opacity="0.35"/>
<circle cx="360" cy="312" r="9" fill="rgb(207,223,45)"/>
<circle cx="384" cy="312" r="12" fill="rgb(201,219,35)" opacity="0.35"/>
<circle cx="384" cy="312" r="9" fill="rgb(201,219,35)"/>
<circle cx="24" cy="336" r="12" fill="rgb(242,246,131)" opacity="0.35"/>
<circle cx="24" cy="336" r="9" fill="rgb(242,246,131)"/>
<circle cx="48" cy="336" r="12" fill="rgb(243,247,137)" opacity="0.35"/>
<circle cx="48" cy="336" r="9" fill="rgb(243,247,137)"/>
<circle cx="72" cy="336" r="12" fill="rgb(243,247,140)" opacity="0.35"/>
<circle cx="72" cy="336" r="9" fill="rgb(243,247,140)"/>
<circle cx="96" cy="336" r="12" fill="rgb(243,247,141)" opacity="0.35"/>
<circle cx="96" cy="336" r="9" fill="rgb(243,247,141)"/>
<circle cx="120" cy="336" r="12" fill="rgb(250,251,201)" opacity="0.35"/>
<circle cx="120" cy="336" r="9" fill="rgb(250,251,201)"/>
<circle cx="144" cy="336" r="12" fill="rgb(254,255,253)" opacity="0.35"/>
<circle cx="144" cy="336" r="9" fill="rgb(254,255,253)"/>
<circle cx="168" cy="336" r="12" fill="rgb(243,247,139)" opacity="0.35"/>
<circle cx="168" cy="336" r="9" fill="rgb(243,247,139)"/>
<circle cx="192" cy="336" r="12" fill="rgb(241,245,116)" opacity="0.35"/>
<circle cx="192" cy="336" r="9" fill="rgb(241,245,116)"/>
<circle cx="216" cy="336" r="12" fill="rgb(239,244,104)" opacity="0.35"/>
<circle cx="216" cy="336" r="9" fill="rgb(239,244,104)"/>
<circle cx="240" cy="336" r="12" fill="rgb(238,242,90)" opacity="0.35"/>
<circle cx="240" cy="336" r="9" fill="rgb(238,242,90)"/>
<circle cx="264" cy="336" r="12" fill="rgb(233,239,80)" opacity="0.35"/>
<circle cx="264" cy="336" r="9" fill="rgb(233,239,80)"/>
<circle cx="288" cy="336" r="12" fill="rgb(226,235,71)" opacity="0.35"/>
<circle cx="288" cy="336" r="9" fill="rgb(226,235,71)"/>
<circle cx="312" cy="336" r="12" fill="rgb(219,231,62)" opacity="0.35"/>
<circle cx="312" cy="336" r="9" fill="rgb(219,231,62)"/>
<circle cx="336" cy="336" r="12" fill="rgb(213,227,52)" opacity="0.35"/>
<circle cx="336" cy="336" r="9" fill="rgb(213,227,52)"/>
<circle cx="360" cy="336" r="12" fill="rgb(207,223,43)" opacity="0.35"/>
<circle cx="360" cy="336" r="9" fill="rgb(207,223,43)"/>
<circle cx="384" cy="336" r="12" fill="rgb(200,218,33)" opacity="0.35"/>
<circle cx="384" cy="336" r="9" fill="rgb(200,218,33)"/>
<circle cx="24" cy="360" r="12" fill="rgb(242,246,125)" opacity="0.35"/>
<circle cx="24" cy="360" r="9" fill="rgb(242,246,125)"/>
<circle cx="48" cy="360" r="12" fill="rgb(242,246,131)" opacity="0.35"/>
<circle cx="48" cy="360" r="9" fill="rgb(242,246,131)"/>
<circle cx="72" cy="360" r="12" fill="rgb(242,247,135)" opacity="0.35"/>
<circle cx="72" cy="360" r="9" fill="rgb(242,247,135)"/>
<circle cx="96" cy="360" r="12" fill="rgb(243,247,135)" opacity="0.35"/>
<circle cx="96" cy="360" r="9" fill="rgb(243,247,135)"/>
<circle cx="120" cy="360" r="12" fill="rgb(253,254,243)" opacity="0.35"/>
<circle cx="120" cy="360" r="9" fill="rgb(253,254,243)"/>
<circle cx="144" cy="360" r="12" fill="rgb(251,253,223)" opacity="0.35"/>
<circle cx="144" cy="360" r="9" fill="rgb(251,253,223)"/>
<circle cx="168" cy="360" r="12" fill="rgb(241,245,120)" opacity="0.35"/>
<circle cx="168" cy="360" r="9" fill="rgb(241,245,120)"/>
<circle cx="192" cy="360" r="12" fill="rgb(240,244,111)" opacity="0.35"/>
<circle cx="192" cy="360" r="9" fill="rgb(240,244,111)"/>
<circle cx="216" cy="360" r="12" fill="rgb(239,243,99)" opacity="0.35"/>
<circle cx="216" cy="360" r="9" fill="rgb(239,243,99)"/>
<circle cx="240" cy="360" r="12" fill="rgb(236,242,86)" opacity="0.35"/>
<circle cx="240" cy="360" r="9" fill="rgb(236,242,86)"/>
<circle cx="264" cy="360" r="12" fill="rgb(230,238,78)" opacity="0.35"/>
<circle cx="264" cy="360" r="9" fill="rgb(230,238,78)"/>
<circle cx="288" cy="360" r="12" fill="rgb(224,234,69)" opacity="0.35"/>
<circle cx="288" cy="360" r="9" fill="rgb(224,234,69)"/>
<circle cx="312" cy="360" r="12" fill="rgb(218,230,59)" opacity="0.35"/>
<circle cx="312" cy="360" r="9" fill="rgb(218,230,59)"/>
<circle cx="336" cy="360" r="12" fill="rgb(212,226,50)" opacity="0.35"/>
<circle cx="336" cy="360" r="9" fill="rgb(212,226,50)"/>
<circle cx="360" cy="360" r="12" fill="rgb(205,222,40)" opacity="0.35"/>
<circle cx="360" cy="360" r="9" fill="rgb(205,222,40)"/>
<circle cx="384" cy="360" r="12" fill="rgb(198,218,31)" opacity="0.35"/>
<circle cx="384" cy="360" r="9" fill="rgb(198,218,31)"/>
<circle cx="24" cy="384" r="12" fill="rgb(241,245,120)" opacity="0.35"/>
<circle cx="24" cy="384" r="9" fill="rgb(241,245,120)"/>
<circle cx="48" cy="384" r="12" fill="rgb(242,246,126)" opacity="0.35"/>
<circle cx="48" cy="384" r="9" fill="rgb(242,246,126)"/>
<circle cx="72" cy="384" r="12" fill="rgb(242,246,129)" opacity="0.35"/>
<circle cx="72" cy="384" r="9" fill="rgb(242,246,129)"/>
<circle cx="96" cy="384" r="12" fill="rgb(248,250,181)" opacity="0.35"/>
<circle cx="96" cy="384" r="9" fill="rgb(248,250,181)"/>
<circle cx="120" cy="384" r="12" fill="rgb(255,255,255)" opacity="0.35"/>
<circle cx="120" cy="384" r="9" fill="rgb(255,255,255)"/>
<circle cx="144" cy="384" r="12" fill="rgb(245,248,156)" opacity="0.35"/>
<circle cx="144" cy="384" r="9" fill="rgb(245,248,156)"/>
<circle cx="168" cy="384" r="12" fill="rgb(240,245,115)" opacity="0.35"/>
<circle cx="168" cy="384" r="9" fill="rgb(240,245,115)"/>
<circle cx="192" cy="384" r="12" fill="rgb(240,244,105)" opacity="0.35"/>
<circle cx="192" cy="384" r="9" fill="rgb(240,244,105)"/>
<circle cx="216" cy="384" r="12" fill="rgb(238,243,94)" opacity="0.35"/>
<circle cx="216" cy="384" r="9" fill="rgb(238,243,94)"/>
<circle cx="240" cy="384" r="12" fill="rgb(235,240,83)" opacity="0.35"/>
<circle cx="240" cy="384" r="9" fill="rgb(235,240,83)"/>
<circle cx="264" cy="384" r="12" fill="rgb(229,237,75)" opacity="0.35"/>
<circle cx="264" cy="384" r="9" fill="rgb(229,237,75)"/>
<circle cx="288" cy="384" r="12" fill="rgb(223,233,66)" opacity="0.35"/>
<circle cx="288" cy="384" r="9" fill="rgb(223,233,66)"/>
<circle cx="312" cy="384" r="12" fill="rgb(216,229,57)" opacity="0.35"/>
<circle cx="312" cy="384" r="9" fill="rgb(216,229,57)"/>
<circle cx="336" cy="384" r="12" fill="rgb(210,225,48)" opacity="0.35"/>
<circle cx="336" cy="384" r="9" fill="rgb(210,225,48)"/>
<circle cx="360" cy="384" r="12" fill="rgb(203,221,38)" opacity="0.35"/>
<circle cx="360" cy="384" r="9" fill="rgb(203,221,38)"/>
<circle cx="384" cy="384" r="12" fill="rgb(197,217,29)" opacity="0.35"/>
<circle cx="384" cy="384" r="9" fill="rgb(197,217,29)"/>
</svg>
