<svg xmlns="http://www.w3.org/2000/svg" viewBox="0 0 408 408" width="408" height="408" role="img" aria-label="LED preview of the Noise example graph">
<rect width="408" height="408" rx="10" fill="#05070a"/>
<circle cx="24" cy="24" r="12" fill="rgb(168,255,0)" opacity="0.35"/>
<circle cx="24" cy="24" r="9" fill="rgb(168,255,0)"/>
<circle cx="48" cy="24" r="12" fill="rgb(0,255,92)" opacity="0.35"/>
<circle cx="48" cy="24" r="9" fill="rgb(0,255,92)"/>
<circle cx="72" cy="24" r="12" fill="rgb(50,255,0)" opacity="0.35"/>
<circle cx="72" cy="24" r="9" fill="rgb(50,255,0)"/>
<circle cx="96" cy="24" r="12" fill="rgb(0,93,255)" opacity="0.35"/>
<circle cx="96" cy="24" r="9" fill="rgb(0,93,255)"/>
<circle cx="120" cy="24" r="12" fill="rgb(0,35,255)" opacity="0.35"/>
<circle cx="120" cy="24" r="9" fill="rgb(0,35,255)"/>
<circle cx="144" cy="24" r="12" fill="rgb(255,193,0)" opacity="0.35"/>
<circle cx="144" cy="24" r="9" fill="rgb(255,193,0)"/>
<circle cx="168" cy="24" r="12" fill="rgb(209,255,0)" opacity="0.35"/>
<circle cx="168" cy="24" r="9" fill="rgb(209,255,0)"/>
<circle cx="192" cy="24" r="12" fill="rgb(0,254,255)" opacity="0.35"/>
<circle cx="192" cy="24" r="9" fill="rgb(0,254,255)"/>
<circle cx="216" cy="24" r="12" fill="rgb(37,0,255)" opacity="0.35"/>
<circle cx="216" cy="24" r="9" fill="rgb(37,0,255)"/>
<circle cx="240" cy="24" r="12" fill="rgb(255,185,0)" opacity="0.35"/>
<circle cx="240" cy="24" r="9" fill="rgb(255,185,0)"/>
<circle cx="264" cy="24" r="12" fill="rgb(0,255,230)" opacity="0.35"/>
<circle cx="264" cy="24" r="9" fill="rgb(0,255,230)"/>
<circle cx="288" cy="24" r="12" fill="rgb(114,0,255)" opacity="0.35"/>
<circle cx="288" cy="24" r="9" fill="rgb(114,0,255)"/>
<circle cx="312" cy="24" r="12" fill="rgb(0,255,186)" opacity="0.35"/>
<circle cx="312" cy="24" r="9" fill="rgb(0,255,186)"/>
<circle cx="336" cy="24" r="12" fill="rgb(255,146,0)" opacity="0.35"/>
<circle cx="336" cy="24" r="9" fill="rgb(255,146,0)"/>
<circle cx="360" cy="24" r="12" fill="rgb(66,0,255)" opacity="0.35"/>
<circle cx="360" cy="24" r="9" fill="rgb(66,0,255)"/>
<circle cx="384" cy="24" r="12" fill="rgb(255,0,200)" opacity="0.35"/>
<circle cx="384" cy="24" r="9" fill="rgb(255,0,200)"/>
<circle cx="24" cy="48" r="12" fill="rgb(255,14,0)" opacity="0.35"/>
<circle cx="24" cy="48" r="9" fill="rgb(255,14,0)"/>
<circle cx="48" cy="48" r="12" fill="rgb(0,251,255)" opacity="0.35"/>
<circle cx="48" cy="48" r="9" fill="rgb(0,251,255)"/>
<circle cx="72" cy="48" r="12" fill="rgb(0,255,106)" opacity="0.35"/>
<circle cx="72" cy="48" r="9" fill="rgb(0,255,106)"/>
<circle cx="96" cy="48" r="12" fill="rgb(0,255,189)" opacity="0.35"/>
<circle cx="96" cy="48" r="9" fill="rgb(0,255,189)"/>
<circle cx="120" cy="48" r="12" fill="rgb(0,242,255)" opacity="0.35"/>
<circle cx="120" cy="48" r="9" fill="rgb(0,242,255)"/>
<circle cx="144" cy="48" r="12" fill="rgb(255,0,129)" opacity="0.35"/>
<circle cx="144" cy="48" r="9" fill="rgb(255,0,129)"/>
<circle cx="168" cy="48" r="12" fill="rgb(255,46,0)" opacity="0.35"/>
<circle cx="168" cy="48" r="9" fill="rgb(255,46,0)"/>
<circle cx="192" cy="48" r="12" fill="rgb(0,245,255)" opacity="0.35"/>
<circle cx="192" cy="48" r="9" fill="rgb(0,245,255)"/>
<circle cx="216" cy="48" r="12" fill="rgb(228,0,255)" opacity="0.35"/>
<circle cx="216" cy="48" r="9" fill="rgb(228,0,255)"/>
<circle cx="240" cy="48" r="12" fill="rgb(0,142,255)" opacity="0.35"/>
<circle cx="240" cy="48" r="9" fill="rgb(0,142,255)"/>
<circle cx="264" cy="48" r="12" fill="rgb(0,255,18)" opacity="0.35"/>
<circle cx="264" cy="48" r="9" fill="rgb(0,255,18)"/>
<circle cx="288" cy="48" r="12" fill="rgb(0,165,255)" opacity="0.35"/>
<circle cx="288" cy="48" r="9" fill="rgb(0,165,255)"/>
<circle cx="312" cy="48" r="12" fill="rgb(0,255,72)" opacity="0.35"/>
<circle cx="312" cy="48" r="9" fill="rgb(0,255,72)"/>
<circle cx="336" cy="48" r="12" fill="rgb(0,255,45)" opacity="0.35"/>
<circle cx="336" cy="48" r="9" fill="rgb(0,255,45)"/>
<circle cx="360" cy="48" r="12" fill="rgb(255,0,242)" opacity="0.35"/>
<circle cx="360" cy="48" r="9" fill="rgb(255,0,242)"/>
<circle cx="384" cy="48" r="12" fill="rgb(0,186,255)" opacity="0.35"/>
<circle cx="384" cy="48" r="9" fill="rgb(0,186,255)"/>
<circle cx="24" cy="72" r="12" fill="rgb(160,0,255)" opacity="0.35"/>
<circle cx="24" cy="72" r="9" fill="rgb(160,0,255)"/>
<circle cx="48" cy="72" r="12" fill="rgb(0,124,255)" opacity="0.35"/>
<circle cx="48" cy="72" r="9" fill="rgb(0,124,255)"/>
<circle cx="72" cy="72" r="12" fill="rgb(255,30,0)" opacity="0.35"/>
<circle cx="72" cy="72" r="9" fill="rgb(255,30,0)"/>
<circle cx="96" cy="72" r="12" fill="rgb(0,255,171)" opacity="0.35"/>
<circle cx="96" cy="72" r="9" fill="rgb(0,255,171)"/>
<circle cx="120" cy="72" r="12" fill="rgb(149,0,255)" opacity="0.35"/>
<circle cx="120" cy="72" r="9" fill="rgb(149,0,255)"/>
<circle cx="144" cy="72" r="12" fill="rgb(2,255,0)" opacity="0.35"/>
<circle cx="144" cy="72" r="9" fill="rgb(2,255,0)"/>
<circle cx="168" cy="72" r="12" fill="rgb(86,255,0)" opacity="0.35"/>
<circle cx="168" cy="72" r="9" fill="rgb(86,255,0)"/>
<circle cx="192" cy="72" r="12" fill="rgb(0,63,255)" opacity="0.35"/>
<circle cx="192" cy="72" r="9" fill="rgb(0,63,255)"/>
<circle cx="216" cy="72" r="12" fill="rgb(0,16,255)" opacity="0.35"/>
<circle cx="216" cy="72" r="9" fill="rgb(0,16,255)"/>
<circle cx="240" cy="72" r="12" fill="rgb(0,200,255)" opacity="0.35"/>
<circle cx="240" cy="72" r="9" fill="rgb(0,200,255)"/>
<circle cx="264" cy="72" r="12" fill="rgb(173,255,0)" opacity="0.35"/>
<circle cx="264" cy="72" r="9" fill="rgb(173,255,0)"/>
<circle cx="288" cy="72" r="12" fill="rgb(0,255,11)" opacity="0.35"/>
<circle cx="288" cy="72" r="9" fill="rgb(0,255,11)"/>
<circle cx="312" cy="72" r="12" fill="rgb(54,255,0)" opacity="0.35"/>
<circle cx="312" cy="72" r="9" fill="rgb(54,255,0)"/>
<circle cx="336" cy="72" r="12" fill="rgb(111,0,255)" opacity="0.35"/>
<circle cx="336" cy="72" r="9" fill="rgb(111,0,255)"/>
<circle cx="360" cy="72" r="12" fill="rgb(204,0,255)" opacity="0.35"/>
<circle cx="360" cy="72" r="9" fill="rgb(204,0,255)"/>
<circle cx="384" cy="72" r="12" fill="rgb(212,255,0)" opacity="0.35"/>
<circle cx="384" cy="72" r="9" fill="rgb(212,255,0)"/>
<circle cx="24" cy="96" r="12" fill="rgb(0,2,255)" opacity="0.35"/>
<circle cx="24" cy="96" r="9" fill="rgb(0,2,255)"/>
<circle cx="48" cy="96" r="12" fill="rgb(210,255,0)" opacity="0.35"/>
<circle cx="48" cy="96" r="9" fill="rgb(210,255,0)"/>
<circle cx="72" cy="96" r="12" fill="rgb(122,0,255)" opacity="0.35"/>
<circle cx="72" cy="96" r="9" fill="rgb(122,0,255)"/>
<circle cx="96" cy="96" r="12" fill="rgb(0,255,33)" opacity="0.35"/>
<circle cx="96" cy="96" r="9" fill="rgb(0,255,33)"/>
<circle cx="120" cy="96" r="12" fill="rgb(18,0,255)" opacity="0.35"/>
<circle cx="120" cy="96" r="9" fill="rgb(18,0,255)"/>
<circle cx="144" cy="96" r="12" fill="rgb(110,0,255)" opacity="0.35"/>
<circle cx="144" cy="96" r="9" fill="rgb(110,0,255)"/>
<circle cx="168" cy="96" r="12" fill="rgb(255,144,0)" opacity="0.35"/>
<circle cx="168" cy="96" r="9" fill="rgb(255,144,0)"/>
<circle cx="192" cy="96" r="12" fill="rgb(0,255,51)" opacity="0.35"/>
<circle cx="192" cy="96" r="9" fill="rgb(0,255,51)"/>
<circle cx="216" cy="96" r="12" fill="rgb(2,0,255)" opacity="0.35"/>
<circle cx="216" cy="96" r="9" fill="rgb(2,0,255)"/>
<circle cx="240" cy="96" r="12" fill="rgb(0,47,255)" opacity="0.35"/>
<circle cx="240" cy="96" r="9" fill="rgb(0,47,255)"/>
<circle cx="264" cy="96" r="12" fill="rgb(86,255,0)" opacity="0.35"/>
<circle cx="264" cy="96" r="9" fill="rgb(86,255,0)"/>
<circle cx="288" cy="96" r="12" fill="rgb(0,255,20)" opacity="0.35"/>
<circle cx="288" cy="96" r="9" fill="rgb(0,255,20)"/>
<circle cx="312" cy="96" r="12" fill="rgb(255,0,16)" opacity="0.35"/>
<circle cx="312" cy="96" r="9" fill="rgb(255,0,16)"/>
<circle cx="336" cy="96" r="12" fill="rgb(255,0,223)" opacity="0.35"/>
<circle cx="336" cy="96" r="9" fill="rgb(255,0,223)"/>
<circle cx="360" cy="96" r="12" fill="rgb(105,0,255)" opacity="0.35"/>
<circle cx="360" cy="96" r="9" fill="rgb(105,0,255)"/>
<circle cx="384" cy="96" r="12" fill="rgb(159,255,0)" opacity="0.35"/>
<circle cx="384" cy="96" r="9" fill="rgb(159,255,0)"/>
<circle cx="24" cy="120" r="12" fill="rgb(174,0,255)" opacity="0.35"/>
<circle cx="24" cy="120" r="9" fill="rgb(174,0,255)"/>
<circle cx="48" cy="120" r="12" fill="rgb(92,255,0)" opacity="0.35"/>
<circle cx="48" cy="120" r="9" fill="rgb(92,255,0)"/>
<circle cx="72" cy="120" r="12" fill="rgb(0,255,65)" opacity="0.35"/>
<circle cx="72" cy="120" r="9" fill="rgb(0,255,65)"/>
<circle cx="96" cy="120" r="12" fill="rgb(255,41,0)" opacity="0.35"/>
<circle cx="96" cy="120" r="9" fill="rgb(255,41,0)"/>
<circle cx="120" cy="120" r="12" fill="rgb(145,255,0)" opacity="0.35"/>
<circle cx="120" cy="120" r="9" fill="rgb(145,255,0)"/>
<circle cx="144" cy="120" r="12" fill="rgb(25,0,255)" opacity="0.35"/>
<circle cx="144" cy="120" r="9" fill="rgb(25,0,255)"/>
<circle cx="168" cy="120" r="12" fill="rgb(20,0,255)" opacity="0.35"/>
<circle cx="168" cy="120" r="9" fill="rgb(20,0,255)"/>
<circle cx="192" cy="120" r="12" fill="rgb(255,180,0)" opacity="0.35"/>
<circle cx="192" cy="120" r="9" fill="rgb(255,180,0)"/>
<circle cx="216" cy="120" r="12" fill="rgb(140,255,0)" opacity="0.35"/>
<circle cx="216" cy="120" r="9" fill="rgb(140,255,0)"/>
<circle cx="240" cy="120" r="12" fill="rgb(0,63,255)" opacity="0.35"/>
<circle cx="240" cy="120" r="9" fill="rgb(0,63,255)"/>
<circle cx="264" cy="120" r="12" fill="rgb(0,255,35)" opacity="0.35"/>
<circle cx="264" cy="120" r="9" fill="rgb(0,255,35)"/>
<circle cx="288" cy="120" r="12" fill="rgb(151,255,0)" opacity="0.35"/>
<circle cx="288" cy="120" r="9" fill="rgb(151,255,0)"/>
<circle cx="312" cy="120" r="12" fill="rgb(19,255,0)" opacity="0.35"/>
<circle cx="312" cy="120" r="9" fill="rgb(19,255,0)"/>
<circle cx="336" cy="120" r="12" fill="rgb(0,255,213)" opacity="0.35"/>
<circle cx="336" cy="120" r="9" fill="rgb(0,255,213)"/>
<circle cx="360" cy="120" r="12" fill="rgb(193,0,255)" opacity="0.35"/>
<circle cx="360" cy="120" r="9" fill="rgb(193,0,255)"/>
<circle cx="384" cy="120" r="12" fill="rgb(0,142,255)" opacity="0.35"/>
<circle cx="384" cy="120" r="9" fill="rgb(0,142,255)"/>
<circle cx="24" cy="144" r="12" fill="rgb(169,255,0)" opacity="0.35"/>
<circle cx="24" cy="144" r="9" fill="rgb(169,255,0)"/>
<circle cx="48" cy="144" r="12" fill="rgb(197,255,0)" opacity="0.35"/>
<circle cx="48" cy="144" r="9" fill="rgb(197,255,0)"/>
<circle cx="72" cy="144" r="12" fill="rgb(134,0,255)" opacity="0.35"/>
<circle cx="72" cy="144" r="9" fill="rgb(134,0,255)"/>
<circle cx="96" cy="144" r="12" fill="rgb(0,169,255)" opacity="0.35"/>
<circle cx="96" cy="144" r="9" fill="rgb(0,169,255)"/>
<circle cx="120" cy="144" r="12" fill="rgb(255,77,0)" opacity="0.35"/>
<circle cx="120" cy="144" r="9" fill="rgb(255,77,0)"/>
<circle cx="144" cy="144" r="12" fill="rgb(251,0,255)" opacity="0.35"/>
<circle cx="144" cy="144" r="9" fill="rgb(251,0,255)"/>
<circle cx="168" cy="144" r="12" fill="rgb(0,22,255)" opacity="0.35"/>
<circle cx="168" cy="144" r="9" fill="rgb(0,22,255)"/>
<circle cx="192" cy="144" r="12" fill="rgb(255,215,0)" opacity="0.35"/>
<circle cx="192" cy="144" r="9" fill="rgb(255,215,0)"/>
<circle cx="216" cy="144" r="12" fill="rgb(0,255,13)" opacity="0.35"/>
<circle cx="216" cy="144" r="9" fill="rgb(0,255,13)"/>
<circle cx="240" cy="144" r="12" fill="rgb(0,255,152)" opacity="0.35"/>
<circle cx="240" cy="144" r="9" fill="rgb(0,255,152)"/>
<circle cx="264" cy="144" r="12" fill="rgb(0,255,83)" opacity="0.35"/>
<circle cx="264" cy="144" r="9" fill="rgb(0,255,83)"/>
<circle cx="288" cy="144" r="12" fill="rgb(23,0,255)" opacity="0.35"/>
<circle cx="288" cy="144" r="9" fill="rgb(23,0,255)"/>
<circle cx="312" cy="144" r="12" fill="rgb(0,255,15)" opacity="0.35"/>
<circle cx="312" cy="144" r="9" fill="rgb(0,255,15)"/>
<circle cx="336" cy="144" r="12" fill="rgb(255,116,0)" opacity="0.35"/>
<circle cx="336" cy="144" r="9" fill="rgb(255,116,0)"/>
<circle cx="360" cy="144" r="12" fill="rgb(255,101,0)" opacity="0.35"/>
<circle cx="360" cy="144" r="9" fill="rgb(255,101,0)"/>
<circle cx="384" cy="144" r="12" fill="rgb(0,238,255)" opacity="0.35"/>
<circle cx="384" cy="144" r="9" fill="rgb(0,238,255)"/>
<circle cx="24" cy="168" r="12" fill="rgb(151,255,0)" opacity="0.35"/>
<circle cx="24" cy="168" r="9" fill="rgb(151,255,0)"/>
<circle cx="48" cy="168" r="12" fill="rgb(255,0,187)" opacity="0.35"/>
<circle cx="48" cy="168" r="9" fill="rgb(255,0,187)"/>
<circle cx="72" cy="168" r="12" fill="rgb(255,0,7)" opacity="0.35"/>
<circle cx="72" cy="168" r="9" fill="rgb(255,0,7)"/>
<circle cx="96" cy="168" r="12" fill="rgb(0,102,255)" opacity="0.35"/>
<circle cx="96" cy="168" r="9" fill="rgb(0,102,255)"/>
<circle cx="120" cy="168" r="12" fill="rgb(0,73,255)" opacity="0.35"/>
<circle cx="120" cy="168" r="9" fill="rgb(0,73,255)"/>
<circle cx="144" cy="168" r="12" fill="rgb(255,0,50)" opacity="0.35"/>
<circle cx="144" cy="168" r="9" fill="rgb(255,0,50)"/>
<circle cx="168" cy="168" r="12" fill="rgb(0,98,255)" opacity="0.35"/>
<circle cx="168" cy="168" r="9" fill="rgb(0,98,255)"/>
<circle cx="192" cy="168" r="12" fill="rgb(0,69,255)" opacity="0.35"/>
<circle cx="192" cy="168" r="9" fill="rgb(0,69,255)"/>
<circle cx="216" cy="168" r="12" fill="rgb(0,26,255)" opacity="0.35"/>
<circle cx="216" cy="168" r="9" fill="rgb(0,26,255)"/>
<circle cx="240" cy="168" r="12" fill="rgb(0,89,255)" opacity="0.35"/>
<circle cx="240" cy="168" r="9" fill="rgb(0,89,255)"/>
<circle cx="264" cy="168" r="12" fill="rgb(0,144,255)" opacity="0.35"/>
<circle cx="264" cy="168" r="9" fill="rgb(0,144,255)"/>
<circle cx="288" cy="168" r="12" fill="rgb(255,0,145)" opacity="0.35"/>
<circle cx="288" cy="168" r="9" fill="rgb(255,0,145)"/>
<circle cx="312" cy="168" r="12" fill="rgb(248,0,255)" opacity="0.35"/>
<circle cx="312" cy="168" r="9" fill="rgb(248,0,255)"/>
<circle cx="336" cy="168" r="12" fill="rgb(217,255,0)" opacity="0.35"/>
<circle cx="336" cy="168" r="9" fill="rgb(217,255,0)"/>
<circle cx="360" cy="168" r="12" fill="rgb(255,101,0)" opacity="0.35"/>
<circle cx="360" cy="168" r="9" fill="rgb(255,101,0)"/>
<circle cx="384" cy="168" r="12" fill="rgb(255,246,0)" opacity="0.35"/>
<circle cx="384" cy="168" r="9" fill="rgb(255,246,0)"/>
<circle cx="24" cy="192" r="12" fill="rgb(0,222,255)" opacity="0.35"/>
<circle cx="24" cy="192" r="9" fill="rgb(0,222,255)"/>
<circle cx="48" cy="192" r="12" fill="rgb(0,255,74)" opacity="0.35"/>
<circle cx="48" cy="192" r="9" fill="rgb(0,255,74)"/>
<circle cx="72" cy="192" r="12" fill="rgb(0,97,255)" opacity="0.35"/>
<circle cx="72" cy="192" r="9" fill="rgb(0,97,255)"/>
<circle cx="96" cy="192" r="12" fill="rgb(0,246,255)" opacity="0.35"/>
<circle cx="96" cy="192" r="9" fill="rgb(0,246,255)"/>
<circle cx="120" cy="192" r="12" fill="rgb(40,0,255)" opacity="0.35"/>
<circle cx="120" cy="192" r="9" fill="rgb(40,0,255)"/>
<circle cx="144" cy="192" r="12" fill="rgb(41,255,0)" opacity="0.35"/>
<circle cx="144" cy="192" r="9" fill="rgb(41,255,0)"/>
<circle cx="168" cy="192" r="12" fill="rgb(0,108,255)" opacity="0.35"/>
<circle cx="168" cy="192" r="9" fill="rgb(0,108,255)"/>
<circle cx="192" cy="192" r="12" fill="rgb(0,199,255)" opacity="0.35"/>
<circle cx="192" cy="192" r="9" fill="rgb(0,199,255)"/>
<circle cx="216" cy="192" r="12" fill="rgb(20,255,0)" opacity="0.35"/>
<circle cx="216" cy="192" r="9" fill="rgb(20,255,0)"/>
<circle cx="240" cy="192" r="12" fill="rgb(0,16,255)" opacity="0.35"/>
<circle cx="240" cy="192" r="9" fill="rgb(0,16,255)"/>
<circle cx="264" cy="192" r="12" fill="rgb(255,0,111)" opacity="0.35"/>
<circle cx="264" cy="192" r="9" fill="rgb(255,0,111)"/>
<circle cx="288" cy="192" r="12" fill="rgb(255,0,163)" opacity="0.35"/>
<circle cx="288" cy="192" r="9" fill="rgb(255,0,163)"/>
<circle cx="312" cy="192" r="12" fill="rgb(97,0,255)" opacity="0.35"/>
<circle cx="312" cy="192" r="9" fill="rgb(97,0,255)"/>
<circle cx="336" cy="192" r="12" fill="rgb(0,108,255)" opacity="0.35"/>
<circle cx="336" cy="192" r="9" fill="rgb(0,108,255)"/>
<circle cx="360" cy="192" r="12" fill="rgb(27,255,0)" opacity="0.35"/>
<circle cx="360" cy="192" r="9" fill="rgb(27,255,0)"/>
<circle cx="384" cy="192" r="12" fill="rgb(0,173,255)" opacity="0.35"/>
<circle cx="384" cy="192" r="9" fill="rgb(0,173,255)"/>
<circle cx="24" cy="216" r="12" fill="rgb(114,0,255)" opacity="0.35"/>
<circle cx="24" cy="216" r="9" fill="rgb(114,0,255)"/>
<circle cx="48" cy="216" r="12" fill="rgb(28,255,0)" opacity="0.35"/>
<circle cx="48" cy="216" r="9" fill="rgb(28,255,0)"/>
<circle cx="72" cy="216" r="12" fill="rgb(0,255,24)" opacity="0.35"/>
<circle cx="72" cy="216" r="9" fill="rgb(0,255,24)"/>
<circle cx="96" cy="216" r="12" fill="rgb(0,255,121)" opacity="0.35"/>
<circle cx="96" cy="216" r="9" fill="rgb(0,255,121)"/>
<circle cx="120" cy="216" r="12" fill="rgb(255,189,0)" opacity="0.35"/>
<circle cx="120" cy="216" r="9" fill="rgb(255,189,0)"/>
<circle cx="144" cy="216" r="12" fill="rgb(0,255,198)" opacity="0.35"/>
<circle cx="144" cy="216" r="9" fill="rgb(0,255,198)"/>
<circle cx="168" cy="216" r="12" fill="rgb(0,255,196)" opacity="0.35"/>
<circle cx="168" cy="216" r="9" fill="rgb(0,255,196)"/>
<circle cx="192" cy="216" r="12" fill="rgb(255,247,0)" opacity="0.35"/>
<circle cx="192" cy="216" r="9" fill="rgb(255,247,0)"/>
<circle cx="216" cy="216" r="12" fill="rgb(199,255,0)" opacity="0.35"/>
<circle cx="216" cy="216" r="9" fill="rgb(199,255,0)"/>
<circle cx="240" cy="216" r="12" fill="rgb(0,255,54)" opacity="0.35"/>
<circle cx="240" cy="216" r="9" fill="rgb(0,255,54)"/>
<circle cx="264" cy="216" r="12" fill="rgb(0,255,143)" opacity="0.35"/>
<circle cx="264" cy="216" r="9" fill="rgb(0,255,143)"/>
<circle cx="288" cy="216" r="12" fill="rgb(0,255,11)" opacity="0.35"/>
<circle cx="288" cy="216" r="9" fill="rgb(0,255,11)"/>
<circle cx="312" cy="216" r="12" fill="rgb(0,104,255)" opacity="0.35"/>
<circle cx="312" cy="216" r="9" fill="rgb(0,104,255)"/>
<circle cx="336" cy="216" r="12" fill="rgb(55,0,255)" opacity="0.35"/>
<circle cx="336" cy="216" r="9" fill="rgb(55,0,255)"/>
<circle cx="360" cy="216" r="12" fill="rgb(0,255,246)" opacity="0.35"/>
<circle cx="360" cy="216" r="9" fill="rgb(0,255,246)"/>
<circle cx="384" cy="216" r="12" fill="rgb(179,255,0)" opacity="0.35"/>
<circle cx="384" cy="216" r="9" fill="rgb(179,255,0)"/>
<circle cx="24" cy="240" r="12" fill="rgb(75,0,255)" opacity="0.35"/>
<circle cx="24" cy="240" r="9" fill="rgb(75,0,255)"/>
<circle cx="48" cy="240" r="12" fill="rgb(255,239,0)" opacity="0.35"/>
<circle cx="48" cy="240" r="9" fill="rgb(255,239,0)"/>
<circle cx="72" cy="240" r="12" fill="rgb(0,65,255)" opacity="0.35"/>
<circle cx="72" cy="240" r="9" fill="rgb(0,65,255)"/>
<circle cx="96" cy="240" r="12" fill="rgb(243,0,255)" opacity="0.35"/>
<circle cx="96" cy="240" r="9" fill="rgb(243,0,255)"/>
<circle cx="120" cy="240" r="12" fill="rgb(255,88,0)" opacity="0.35"/>
<circle cx="120" cy="240" r="9" fill="rgb(255,88,0)"/>
<circle cx="144" cy="240" r="12" fill="rgb(31,255,0)" opacity="0.35"/>
<circle cx="144" cy="240" r="9" fill="rgb(31,255,0)"/>
<circle cx="168" cy="240" r="12" fill="rgb(255,0,8)" opacity="0.35"/>
<circle cx="168" cy="240" r="9" fill="rgb(255,0,8)"/>
<circle cx="192" cy="240" r="12" fill="rgb(137,0,255)" opacity="0.35"/>
<circle cx="192" cy="240" r="9" fill="rgb(137,0,255)"/>
<circle cx="216" cy="240" r="12" fill="rgb(203,0,255)" opacity="0.35"/>
<circle cx="216" cy="240" r="9" fill="rgb(203,0,255)"/>
<circle cx="240" cy="240" r="12" fill="rgb(255,0,179)" opacity="0.35"/>
<circle cx="240" cy="240" r="9" fill="rgb(255,0,179)"/>
<circle cx="264" cy="240" r="12" fill="rgb(0,161,255)" opacity="0.35"/>
<circle cx="264" cy="240" r="9" fill="rgb(0,161,255)"/>
<circle cx="288" cy="240" r="12" fill="rgb(0,255,66)" opacity="0.35"/>
<circle cx="288" cy="240" r="9" fill="rgb(0,255,66)"/>
<circle cx="312" cy="240" r="12" fill="rgb(166,255,0)" opacity="0.35"/>
<circle cx="312" cy="240" r="9" fill="rgb(166,255,0)"/>
<circle cx="336" cy="240" r="12" fill="rgb(255,200,0)" opacity="0.35"/>
<circle cx="336" cy="240" r="9" fill="rgb(255,200,0)"/>
<circle cx="360" cy="240" r="12" fill="rgb(0,255,44)" opacity="0.35"/>
<circle cx="360" cy="240" r="9" fill="rgb(0,255,44)"/>
<circle cx="384" cy="240" r="12" fill="rgb(0,255,39)" opacity="0.35"/>
<circle cx="384" cy="240" r="9" fill="rgb(0,255,39)"/>
<circle cx="24" cy="264" r="12" fill="rgb(0,49,255)" opacity="0.35"/>
<circle cx="24" cy="264" r="9" fill="rgb(0,49,255)"/>
<circle cx="48" cy="264" r="12" fill="rgb(116,255,0)" opacity="0.35"/>
<circle cx="48" cy="264" r="9" fill="rgb(116,255,0)"/>
<circle cx="72" cy="264" r="12" fill="rgb(95,255,0)" opacity="0.35"/>
<circle cx="72" cy="264" r="9" fill="rgb(95,255,0)"/>
<circle cx="96" cy="264" r="12" fill="rgb(255,0,205)" opacity="0.35"/>
<circle cx="96" cy="264" r="9" fill="rgb(255,0,205)"/>
<circle cx="120" cy="264" r="12" fill="rgb(0,123,255)" opacity="0.35"/>
<circle cx="120" cy="264" r="9" fill="rgb(0,123,255)"/>
<circle cx="144" cy="264" r="12" fill="rgb(75,0,255)" opacity="0.35"/>
<circle cx="144" cy="264" r="9" fill="rgb(75,0,255)"/>
<circle cx="168" cy="264" r="12" fill="rgb(50,0,255)" opacity="0.35"/>
<circle cx="168" cy="264" r="9" fill="rgb(50,0,255)"/>
<circle cx="192" cy="264" r="12" fill="rgb(221,0,255)" opacity="0.35"/>
<circle cx="192" cy="264" r="9" fill="rgb(221,0,255)"/>
<circle cx="216" cy="264" r="12" fill="rgb(234,0,255)" opacity="0.35"/>
<circle cx="216" cy="264" r="9" fill="rgb(234,0,255)"/>
<circle cx="240" cy="264" r="12" fill="rgb(17,255,0)" opacity="0.35"/>
<circle cx="240" cy="264" r="9" fill="rgb(17,255,0)"/>
<circle cx="264" cy="264" r="12" fill="rgb(106,0,255)" opacity="0.35"/>
<circle cx="264" cy="264" r="9" fill="rgb(106,0,255)"/>
<circle cx="288" cy="264" r="12" fill="rgb(97,0,255)" opacity="0.35"/>
<circle cx="288" cy="264" r="9" fill="rgb(97,0,255)"/>
<circle cx="312" cy="264" r="12" fill="rgb(255,0,71)" opacity="0.35"/>
<circle cx="312" cy="264" r="9" fill="rgb(255,0,71)"/>
<circle cx="336" cy="264" r="12" fill="rgb(66,255,0)" opacity="0.35"/>
<circle cx="336" cy="264" r="9" fill="rgb(66,255,0)"/>
<circle cx="360" cy="264" r="12" fill="rgb(0,255,7)" opacity="0.35"/>
<circle cx="360" cy="264" r="9" fill="rgb(0,255,7)"/>
<circle cx="384" cy="264" r="12" fill="rgb(60,0,255)" opacity="0.35"/>
<circle cx="384" cy="264" r="9" fill="rgb(60,0,255)"/>
<circle cx="24" cy="288" r="12" fill="rgb(255,0,98)" opacity="0.35"/>
<circle cx="24" cy="288" r="9" fill="rgb(255,0,98)"/>
<circle cx="48" cy="288" r="12" fill="rgb(255,0,206)" opacity="0.35"/>
<circle cx="48" cy="288" r="9" fill="rgb(255,0,206)"/>
<circle cx="72" cy="288" r="12" fill="rgb(255,154,0)" opacity="0.35"/>
<circle cx="72" cy="288" r="9" fill="rgb(255,154,0)"/>
<circle cx="96" cy="288" r="12" fill="rgb(0,255,118)" opacity="0.35"/>
<circle cx="96" cy="288" r="9" fill="rgb(0,255,118)"/>
<circle cx="120" cy="288" r="12" fill="rgb(255,0,39)" opacity="0.35"/>
<circle cx="120" cy="288" r="9" fill="rgb(255,0,39)"/>
<circle cx="144" cy="288" r="12" fill="rgb(0,75,255)" opacity="0.35"/>
<circle cx="144" cy="288" r="9" fill="rgb(0,75,255)"/>
<circle cx="168" cy="288" r="12" fill="rgb(176,255,0)" opacity="0.35"/>
<circle cx="168" cy="288" r="9" fill="rgb(176,255,0)"/>
<circle cx="192" cy="288" r="12" fill="rgb(0,171,255)" opacity="0.35"/>
<circle cx="192" cy="288" r="9" fill="rgb(0,171,255)"/>
<circle cx="216" cy="288" r="12" fill="rgb(255,0,236)" opacity="0.35"/>
<circle cx="216" cy="288" r="9" fill="rgb(255,0,236)"/>
<circle cx="240" cy="288" r="12" fill="rgb(255,0,54)" opacity="0.35"/>
<circle cx="240" cy="288" r="9" fill="rgb(255,0,54)"/>
<circle cx="264" cy="288" r="12" fill="rgb(44,255,0)" opacity="0.35"/>
<circle cx="264" cy="288" r="9" fill="rgb(44,255,0)"/>
<circle cx="288" cy="288" r="12" fill="rgb(0,244,255)" opacity="0.35"/>
<circle cx="288" cy="288" r="9" fill="rgb(0,244,255)"/>
<circle cx="312" cy="288" r="12" fill="rgb(0,255,211)" opacity="0.35"/>
<circle cx="312" cy="288" r="9" fill="rgb(0,255,211)"/>
<circle cx="336" cy="288" r="12" fill="rgb(0,194,255)" opacity="0.35"/>
<circle cx="336" cy="288" r="9" fill="rgb(0,194,255)"/>
<circle cx="360" cy="288" r="12" fill="rgb(255,0,178)" opacity="0.35"/>
<circle cx="360" cy="288" r="9" fill="rgb(255,0,178)"/>
<circle cx="384" cy="288" r="12" fill="rgb(0,125,255)" opacity="0.35"/>
<circle cx="384" cy="288" r="9" fill="rgb(0,125,255)"/>
<circle cx="24" cy="312" r="12" fill="rgb(169,255,0)" opacity="0.35"/>
<circle cx="24" cy="312" r="9" fill="rgb(169,255,0)"/>
<circle cx="48" cy="312" r="12" fill="rgb(209,255,0)" opacity="0.35"/>
<circle cx="48" cy="312" r="9" fill="rgb(209,255,0)"/>
<circle cx="72" cy="312" r="12" fill="rgb(8,0,255)" opacity="0.35"/>
<circle cx="72" cy="312" r="9" fill="rgb(8,0,255)"/>
<circle cx="96" cy="312" r="12" fill="rgb(114,0,255)" opacity="0.35"/>
<circle cx="96" cy="312" r="9" fill="rgb(114,0,255)"/>
<circle cx="120" cy="312" r="12" fill="rgb(5,0,255)" opacity="0.35"/>
<circle cx="120" cy="312" r="9" fill="rgb(5,0,255)"/>
<circle cx="144" cy="312" r="12" fill="rgb(255,1,0)" opacity="0.35"/>
<circle cx="144" cy="312" r="9" fill="rgb(255,1,0)"/>
<circle cx="168" cy="312" r="12" fill="rgb(255,108,0)" opacity="0.35"/>
<circle cx="168" cy="312" r="9" fill="rgb(255,108,0)"/>
<circle cx="192" cy="312" r="12" fill="rgb(116,255,0)" opacity="0.35"/>
<circle cx="192" cy="312" r="9" fill="rgb(116,255,0)"/>
<circle cx="216" cy="312" r="12" fill="rgb(46,255,0)" opacity="0.35"/>
<circle cx="216" cy="312" r="9" fill="rgb(46,255,0)"/>
<circle cx="240" cy="312" r="12" fill="rgb(255,194,0)" opacity="0.35"/>
<circle cx="240" cy="312" r="9" fill="rgb(255,194,0)"/>
<circle cx="264" cy="312" r="12" fill="rgb(255,0,146)" opacity="0.35"/>
<circle cx="264" cy="312" r="9" fill="rgb(255,0,146)"/>
<circle cx="288" cy="312" r="12" fill="rgb(236,255,0)" opacity="0.35"/>
<circle cx="288" cy="312" r="9" fill="rgb(236,255,0)"/>
<circle cx="312" cy="312" r="12" fill="rgb(0,255,158)" opacity="0.35"/>
<circle cx="312" cy="312" r="9" fill="rgb(0,255,158)"/>
<circle cx="336" cy="312" r="12" fill="rgb(0,113,255)" opacity="0.35"/>
<circle cx="336" cy="312" r="9" fill="rgb(0,113,255)"/>
<circle cx="360" cy="312" r="12" fill="rgb(11,255,0)" opacity="0.35"/>
<circle cx="360" cy="312" r="9" fill="rgb(11,255,0)"/>
<circle cx="384" cy="312" r="12" fill="rgb(255,0,98)" opacity="0.35"/>
<circle cx="384" cy="312" r="9" fill="rgb(255,0,98)"/>
<circle cx="24" cy="336" r="12" fill="rgb(229,255,0)" opacity="0.35"/>
<circle cx="24" cy="336" r="9" fill="rgb(229,255,0)"/>
<circle cx="48" cy="336" r="12" fill="rgb(255,190,0)" opacity="0.35"/>
<circle cx="48" cy="336" r="9" fill="rgb(255,190,0)"/>
<circle cx="72" cy="336" r="12" fill="rgb(255,0,180)" opacity="0.35"/>
<circle cx="72" cy="336" r="9" fill="rgb(255,0,180)"/>
<circle cx="96" cy="336" r="12" fill="rgb(0,255,247)" opacity="0.35"/>
<circle cx="96" cy="336" r="9" fill="rgb(0,255,247)"/>
<circle cx="120" cy="336" r="12" fill="rgb(216,255,0)" opacity="0.35"/>
<circle cx="120" cy="336" r="9" fill="rgb(216,255,0)"/>
<circle cx="144" cy="336" r="12" fill="rgb(216,255,0)" opacity="0.35"/>
<circle cx="144" cy="336" r="9" fill="rgb(216,255,0)"/>
<circle cx="168" cy="336" r="12" fill="rgb(0,169,255)" opacity="0.35"/>
<circle cx="168" cy="336" r="9" fill="rgb(0,169,255)"/>
<circle cx="192" cy="336" r="12" fill="rgb(255,0,94)" opacity="0.35"/>
<circle cx="192" cy="336" r="9" fill="rgb(255,0,94)"/>
<circle cx="216" cy="336" r="12" fill="rgb(255,0,151)" opacity="0.35"/>
<circle cx="216" cy="336" r="9" fill="rgb(255,0,151)"/>
<circle cx="240" cy="336" r="12" fill="rgb(0,228,255)" opacity="0.35"/>
<circle cx="240" cy="336" r="9" fill="rgb(0,228,255)"/>
<circle cx="264" cy="336" r="12" fill="rgb(255,21,0)" opacity="0.35"/>
<circle cx="264" cy="336" r="9" fill="rgb(255,21,0)"/>
<circle cx="288" cy="336" r="12" fill="rgb(0,106,255)" opacity="0.35"/>
<circle cx="288" cy="336" r="9" fill="rgb(0,106,255)"/>
<circle cx="312" cy="336" r="12" fill="rgb(255,0,188)" opacity="0.35"/>
<circle cx="312" cy="336" r="9" fill="rgb(255,0,188)"/>
<circle cx="336" cy="336" r="12" fill="rgb(0,154,255)" opacity="0.35"/>
<circle cx="336" cy="336" r="9" fill="rgb(0,154,255)"/>
<circle cx="360" cy="336" r="12" fill="rgb(0,143,255)" opacity="0.35"/>
<circle cx="360" cy="336" r="9" fill="rgb(0,143,255)"/>
<circle cx="384" cy="336" r="12" fill="rgb(53,0,255)" opacity="0.35"/>
<circle cx="384" cy="336" r="9" fill="rgb(53,0,255)"/>
<circle cx="24" cy="360" r="12" fill="rgb(36,255,0)" opacity="0.35"/>
<circle cx="24" cy="360" r="9" fill="rgb(36,255,0)"/>
<circle cx="48" cy="360" r="12" fill="rgb(116,255,0)" opacity="0.35"/>
<circle cx="48" cy="360" r="9" fill="rgb(116,255,0)"/>
<circle cx="72" cy="360" r="12" fill="rgb(0,190,255)" opacity="0.35"/>
<circle cx="72" cy="360" r="9" fill="rgb(0,190,255)"/>
<circle cx="96" cy="360" r="12" fill="rgb(255,122,0)" opacity="0.35"/>
<circle cx="96" cy="360" r="9" fill="rgb(255,122,0)"/>
<circle cx="120" cy="360" r="12" fill="rgb(18,0,255)" opacity="0.35"/>
<circle cx="120" cy="360" r="9" fill="rgb(18,0,255)"/>
<circle cx="144" cy="360" r="12" fill="rgb(0,255,165)" opacity="0.35"/>
<circle cx="144" cy="360" r="9" fill="rgb(0,255,165)"/>
<circle cx="168" cy="360" r="12" fill="rgb(127,255,0)" opacity="0.35"/>
<circle cx="168" cy="360" r="9" fill="rgb(127,255,0)"/>
<circle cx="192" cy="360" r="12" fill="rgb(176,0,255)" opacity="0.35"/>
<circle cx="192" cy="360" r="9" fill="rgb(176,0,255)"/>
<circle cx="216" cy="360" r="12" fill="rgb(223,0,255)" opacity="0.35"/>
<circle cx="216" cy="360" r="9" fill="rgb(223,0,255)"/>
<circle cx="240" cy="360" r="12" fill="rgb(0,71,255)" opacity="0.35"/>
<circle cx="240" cy="360" r="9" fill="rgb(0,71,255)"/>
<circle cx="264" cy="360" r="12" fill="rgb(0,23,255)" opacity="0.35"/>
<circle cx="264" cy="360" r="9" fill="rgb(0,23,255)"/>
<circle cx="288" cy="360" r="12" fill="rgb(255,0,176)" opacity="0.35"/>
<circle cx="288" cy="360" r="9" fill="rgb(255,0,176)"/>
<circle cx="312" cy="360" r="12" fill="rgb(0,255,140)" opacity="0.35"/>
<circle cx="312" cy="360" r="9" fill="rgb(0,255,140)"/>
<circle cx="336" cy="360" r="12" fill="rgb(165,0,255)" opacity="0.35"/>
<circle cx="336" cy="360" r="9" fill="rgb(165,0,255)"/>
<circle cx="360" cy="360" r="12" fill="rgb(0,255,95)" opacity="0.35"/>
<circle cx="360" cy="360" r="9" fill="rgb(0,255,95)"/>
<circle cx="384" cy="360" r="12" fill="rgb(255,0,60)" opacity="0.35"/>
<circle cx="384" cy="360" r="9" fill="rgb(255,0,60)"/>
<circle cx="24" cy="384" r="12" fill="rgb(238,255,0)" opacity="0.35"/>
<circle cx="24" cy="384" r="9" fill="rgb(238,255,0)"/>
<circle cx="48" cy="384" r="12" fill="rgb(0,255,57)" opacity="0.35"/>
<circle cx="48" cy="384" r="9" fill="rgb(0,255,57)"/>
<circle cx="72" cy="384" r="12" fill="rgb(0,255,45)" opacity="0.35"/>
<circle cx="72" cy="384" r="9" fill="rgb(0,255,45)"/>
<circle cx="96" cy="384" r="12" fill="rgb(0,144,255)" opacity="0.35"/>
<circle cx="96" cy="384" r="9" fill="rgb(0,144,255)"/>
<circle cx="120" cy="384" r="12" fill="rgb(255,0,46)" opacity="0.35"/>
<circle cx="120" cy="384" r="9" fill="rgb(255,0,46)"/>
<circle cx="144" cy="384" r="12" fill="rgb(0,255,247)" opacity="0.35"/>
<circle cx="144" cy="384" r="9" fill="rgb(0,255,247)"/>
<circle cx="168" cy="384" r="12" fill="rgb(0,255,16)" opacity="0.35"/>
<circle cx="168" cy="384" r="9" fill="rgb(0,255,16)"/>
<circle cx="192" cy="384" r="12" fill="rgb(0,224,255)" opacity="0.35"/>
<circle cx="192" cy="384" r="9" fill="rgb(0,224,255)"/>
<circle cx="216" cy="384" r="12" fill="rgb(0,255,201)" opacity="0.35"/>
<circle cx="216" cy="384" r="9" fill="rgb(0,255,201)"/>
<circle cx="240" cy="384" r="12" fill="rgb(185,0,255)" opacity="0.35"/>
<circle cx="240" cy="384" r="9" fill="rgb(185,0,255)"/>
<circle cx="264" cy="384" r="12" fill="rgb(255,124,0)" opacity="0.35"/>
<circle cx="264" cy="384" r="9" fill="rgb(255,124,0)"/>
<circle cx="288" cy="384" r="12" fill="rgb(32,0,255)" opacity="0.35"/>
<circle cx="288" cy="384" r="9" fill="rgb(32,0,255)"/>
<circle cx="312" cy="384" r="12" fill="rgb(35,255,0)" opacity="0.35"/>
<circle cx="312" cy="384" r="9" fill="rgb(35,255,0)"/>
<circle cx="336" cy="384" r="12" fill="rgb(255,0,216)" opacity="0.35"/>
<circle cx="336" cy="384" r="9" fill="rgb(255,0,216)"/>
<circle cx="360" cy="384" r="12" fill="rgb(0,219,255)" opacity="0.35"/>
<circle cx="360" cy="384" r="9" fill="rgb(0,219,255)"/>
<circle cx="384" cy="384" r="12" fill="rgb(255,78,0)" opacity="0.35"/>
<circle cx="384" cy="384" r="9" fill="rgb(255,78,0)"/>
</svg>
