<svg xmlns="http://www.w3.org/2000/svg" viewBox="0 0 408 408" width="408" height="408" role="img" aria-label="LED preview of the Not example graph">
<rect width="408" height="408" rx="10" fill="#05070a"/>
<circle cx="24" cy="24" r="12" fill="rgb(20,0,0)" opacity="0.35"/>
<circle cx="24" cy="24" r="9" fill="rgb(20,0,0)"/>
<circle cx="48" cy="24" r="12" fill="rgb(20,0,0)" opacity="0.35"/>
<circle cx="48" cy="24" r="9" fill="rgb(20,0,0)"/>
<circle cx="72" cy="24" r="12" fill="rgb(20,0,0)" opacity="0.35"/>
<circle cx="72" cy="24" r="9" fill="rgb(20,0,0)"/>
<circle cx="96" cy="24" r="12" fill="rgb(20,0,0)" opacity="0.35"/>
<circle cx="96" cy="24" r="9" fill="rgb(20,0,0)"/>
<circle cx="120" cy="24" r="12" fill="rgb(20,0,0)" opacity="0.35"/>
<circle cx="120" cy="24" r="9" fill="rgb(20,0,0)"/>
<circle cx="144" cy="24" r="12" fill="rgb(20,0,0)" opacity="0.35"/>
<circle cx="144" cy="24" r="9" fill="rgb(20,0,0)"/>
<circle cx="168" cy="24" r="12" fill="rgb(20,0,0)" opacity="0.35"/>
<circle cx="168" cy="24" r="9" fill="rgb(20,0,0)"/>
<circle cx="192" cy="24" r="12" fill="rgb(20,0,0)" opacity="0.35"/>
<circle cx="192" cy="24" r="9" fill="rgb(20,0,0)"/>
<circle cx="216" cy="24" r="12" fill="rgb(20,0,0)" opacity="0.35"/>
<circle cx="216" cy="24" r="9" fill="rgb(20,0,0)"/>
<circle cx="240" cy="24" r="12" fill="rgb(20,0,0)" opacity="0.35"/>
<circle cx="240" cy="24" r="9" fill="rgb(20,0,0)"/>
<circle cx="264" cy="24" r="12" fill="rgb(20,0,0)" opacity="0.35"/>
<circle cx="264" cy="24" r="9" fill="rgb(20,0,0)"/>
<circle cx="288" cy="24" r="12" fill="rgb(20,0,0)" opacity="0.35"/>
<circle cx="288" cy="24" r="9" fill="rgb(20,0,0)"/>
<circle cx="312" cy="24" r="12" fill="rgb(20,0,0)" opacity="0.35"/>
<circle cx="312" cy="24" r="9" fill="rgb(20,0,0)"/>
<circle cx="336" cy="24" r="12" fill="rgb(20,0,0)" opacity="0.35"/>
<circle cx="336" cy="24" r="9" fill="rgb(20,0,0)"/>
<circle cx="360" cy="24" r="12" fill="rgb(20,0,0)" opacity="0.35"/>
<circle cx="360" cy="24" r="9" fill="rgb(20,0,0)"/>
<circle cx="384" cy="24" r="12" fill="rgb(20,0,0)" opacity="0.35"/>
<circle cx="384" cy="24" r="9" fill="rgb(20,0,0)"/>
<circle cx="24" cy="48" r="12" fill="rgb(20,0,0)" opacity="0.35"/>
<circle cx="24" cy="48" r="9" fill="rgb(20,0,0)"/>
<circle cx="48" cy="48" r="12" fill="rgb(20,0,0)" opacity="0.35"/>
<circle cx="48" cy="48" r="9" fill="rgb(20,0,0)"/>
<circle cx="72" cy="48" r="12" fill="rgb(20,0,0)" opacity="0.35"/>
<circle cx="72" cy="48" r="9" fill="rgb(20,0,0)"/>
<circle cx="96" cy="48" r="12" fill="rgb(20,0,0)" opacity="0.35"/>
<circle cx="96" cy="48" r="9" fill="rgb(20,0,0)"/>
<circle cx="120" cy="48" r="12" fill="rgb(20,0,0)" opacity="0.35"/>
<circle cx="120" cy="48" r="9" fill="rgb(20,0,0)"/>
<circle cx="144" cy="48" r="12" fill="rgb(20,0,0)" opacity="0.35"/>
<circle cx="144" cy="48" r="9" fill="rgb(20,0,0)"/>
<circle cx="168" cy="48" r="12" fill="rgb(20,0,0)" opacity="0.35"/>
<circle cx="168" cy="48" r="9" fill="rgb(20,0,0)"/>
<circle cx="192" cy="48" r="12" fill="rgb(20,0,0)" opacity="0.35"/>
<circle cx="192" cy="48" r="9" fill="rgb(20,0,0)"/>
<circle cx="216" cy="48" r="12" fill="rgb(20,0,0)" opacity="0.35"/>
<circle cx="216" cy="48" r="9" fill="rgb(20,0,0)"/>
<circle cx="240" cy="48" r="12" fill="rgb(20,0,0)" opacity="0.35"/>
<circle cx="240" cy="48" r="9" fill="rgb(20,0,0)"/>
<circle cx="264" cy="48" r="12" fill="rgb(20,0,0)" opacity="0.35"/>
<circle cx="264" cy="48" r="9" fill="rgb(20,0,0)"/>
<circle cx="288" cy="48" r="12" fill="rgb(20,0,0)" opacity="0.35"/>
<circle cx="288" cy="48" r="9" fill="rgb(20,0,0)"/>
<circle cx="312" cy="48" r="12" fill="rgb(20,0,0)" opacity="0.35"/>
<circle cx="312" cy="48" r="9" fill="rgb(20,0,0)"/>
<circle cx="336" cy="48" r="12" fill="rgb(20,0,0)" opacity="0.35"/>
<circle cx="336" cy="48" r="9" fill="rgb(20,0,0)"/>
<circle cx="360" cy="48" r="12" fill="rgb(20,0,0)" opacity="0.35"/>
<circle cx="360" cy="48" r="9" fill="rgb(20,0,0)"/>
<circle cx="384" cy="48" r="12" fill="rgb(20,0,0)" opacity="0.35"/>
<circle cx="384" cy="48" r="9" fill="rgb(20,0,0)"/>
<circle cx="24" cy="72" r="12" fill="rgb(25,0,0)" opacity="0.35"/>
<circle cx="24" cy="72" r="9" fill="rgb(25,0,0)"/>
<circle cx="48" cy="72" r="12" fill="rgb(27,0,0)" opacity="0.35"/>
<circle cx="48" cy="72" r="9" fill="rgb(27,0,0)"/>
<circle cx="72" cy="72" r="12" fill="rgb(27,0,0)" opacity="0.35"/>
<circle cx="72" cy="72" r="9" fill="rgb(27,0,0)"/>
<circle cx="96" cy="72" r="12" fill="rgb(25,0,0)" opacity="0.35"/>
<circle cx="96" cy="72" r="9" fill="rgb(25,0,0)"/>
<circle cx="120" cy="72" r="12" fill="rgb(21,0,0)" opacity="0.35"/>
<circle cx="120" cy="72" r="9" fill="rgb(21,0,0)"/>
<circle cx="144" cy="72" r="12" fill="rgb(20,0,0)" opacity="0.35"/>
<circle cx="144" cy="72" r="9" fill="rgb(20,0,0)"/>
<circle cx="168" cy="72" r="12" fill="rgb(20,0,0)" opacity="0.35"/>
<circle cx="168" cy="72" r="9" fill="rgb(20,0,0)"/>
<circle cx="192" cy="72" r="12" fill="rgb(20,0,0)" opacity="0.35"/>
<circle cx="192" cy="72" r="9" fill="rgb(20,0,0)"/>
<circle cx="216" cy="72" r="12" fill="rgb(20,0,0)" opacity="0.35"/>
<circle cx="216" cy="72" r="9" fill="rgb(20,0,0)"/>
<circle cx="240" cy="72" r="12" fill="rgb(20,0,0)" opacity="0.35"/>
<circle cx="240" cy="72" r="9" fill="rgb(20,0,0)"/>
<circle cx="264" cy="72" r="12" fill="rgb(20,0,0)" opacity="0.35"/>
<circle cx="264" cy="72" r="9" fill="rgb(20,0,0)"/>
<circle cx="288" cy="72" r="12" fill="rgb(20,0,0)" opacity="0.35"/>
<circle cx="288" cy="72" r="9" fill="rgb(20,0,0)"/>
<circle cx="312" cy="72" r="12" fill="rgb(20,0,0)" opacity="0.35"/>
<circle cx="312" cy="72" r="9" fill="rgb(20,0,0)"/>
<circle cx="336" cy="72" r="12" fill="rgb(20,0,0)" opacity="0.35"/>
<circle cx="336" cy="72" r="9" fill="rgb(20,0,0)"/>
<circle cx="360" cy="72" r="12" fill="rgb(20,0,0)" opacity="0.35"/>
<circle cx="360" cy="72" r="9" fill="rgb(20,0,0)"/>
<circle cx="384" cy="72" r="12" fill="rgb(20,0,0)" opacity="0.35"/>
<circle cx="384" cy="72" r="9" fill="rgb(20,0,0)"/>
<circle cx="24" cy="96" r="12" fill="rgb(33,0,0)" opacity="0.35"/>
<circle cx="24" cy="96" r="9" fill="rgb(33,0,0)"/>
<circle cx="48" cy="96" r="12" fill="rgb(29,0,0)" opacity="0.35"/>
<circle cx="48" cy="96" r="9" fill="rgb(29,0,0)"/>
<circle cx="72" cy="96" r="12" fill="rgb(33,0,0)" opacity="0.35"/>
<circle cx="72" cy="96" r="9" fill="rgb(33,0,0)"/>
<circle cx="96" cy="96" r="12" fill="rgb(35,0,0)" opacity="0.35"/>
<circle cx="96" cy="96" r="9" fill="rgb(35,0,0)"/>
<circle cx="120" cy="96" r="12" fill="rgb(33,0,0)" opacity="0.35"/>
<circle cx="120" cy="96" r="9" fill="rgb(33,0,0)"/>
<circle cx="144" cy="96" r="12" fill="rgb(33,0,0)" opacity="0.35"/>
<circle cx="144" cy="96" r="9" fill="rgb(33,0,0)"/>
<circle cx="168" cy="96" r="12" fill="rgb(35,0,0)" opacity="0.35"/>
<circle cx="168" cy="96" r="9" fill="rgb(35,0,0)"/>
<circle cx="192" cy="96" r="12" fill="rgb(35,0,0)" opacity="0.35"/>
<circle cx="192" cy="96" r="9" fill="rgb(35,0,0)"/>
<circle cx="216" cy="96" r="12" fill="rgb(29,0,0)" opacity="0.35"/>
<circle cx="216" cy="96" r="9" fill="rgb(29,0,0)"/>
<circle cx="240" cy="96" r="12" fill="rgb(23,0,0)" opacity="0.35"/>
<circle cx="240" cy="96" r="9" fill="rgb(23,0,0)"/>
<circle cx="264" cy="96" r="12" fill="rgb(26,0,0)" opacity="0.35"/>
<circle cx="264" cy="96" r="9" fill="rgb(26,0,0)"/>
<circle cx="288" cy="96" r="12" fill="rgb(28,0,0)" opacity="0.35"/>
<circle cx="288" cy="96" r="9" fill="rgb(28,0,0)"/>
<circle cx="312" cy="96" r="12" fill="rgb(30,0,0)" opacity="0.35"/>
<circle cx="312" cy="96" r="9" fill="rgb(30,0,0)"/>
<circle cx="336" cy="96" r="12" fill="rgb(26,0,0)" opacity="0.35"/>
<circle cx="336" cy="96" r="9" fill="rgb(26,0,0)"/>
<circle cx="360" cy="96" r="12" fill="rgb(21,0,0)" opacity="0.35"/>
<circle cx="360" cy="96" r="9" fill="rgb(21,0,0)"/>
<circle cx="384" cy="96" r="12" fill="rgb(20,0,0)" opacity="0.35"/>
<circle cx="384" cy="96" r="9" fill="rgb(20,0,0)"/>
<circle cx="24" cy="120" r="12" fill="rgb(34,0,0)" opacity="0.35"/>
<circle cx="24" cy="120" r="9" fill="rgb(34,0,0)"/>
<circle cx="48" cy="120" r="12" fill="rgb(26,0,0)" opacity="0.35"/>
<circle cx="48" cy="120" r="9" fill="rgb(26,0,0)"/>
<circle cx="72" cy="120" r="12" fill="rgb(30,0,0)" opacity="0.35"/>
<circle cx="72" cy="120" r="9" fill="rgb(30,0,0)"/>
<circle cx="96" cy="120" r="12" fill="rgb(39,0,0)" opacity="0.35"/>
<circle cx="96" cy="120" r="9" fill="rgb(39,0,0)"/>
<circle cx="120" cy="120" r="12" fill="rgb(41,0,0)" opacity="0.35"/>
<circle cx="120" cy="120" r="9" fill="rgb(41,0,0)"/>
<circle cx="144" cy="120" r="12" fill="rgb(33,0,0)" opacity="0.35"/>
<circle cx="144" cy="120" r="9" fill="rgb(33,0,0)"/>
<circle cx="168" cy="120" r="12" fill="rgb(40,0,0)" opacity="0.35"/>
<circle cx="168" cy="120" r="9" fill="rgb(40,0,0)"/>
<circle cx="192" cy="120" r="12" fill="rgb(28,0,0)" opacity="0.35"/>
<circle cx="192" cy="120" r="9" fill="rgb(28,0,0)"/>
<circle cx="216" cy="120" r="12" fill="rgb(28,0,0)" opacity="0.35"/>
<circle cx="216" cy="120" r="9" fill="rgb(28,0,0)"/>
<circle cx="240" cy="120" r="12" fill="rgb(26,0,0)" opacity="0.35"/>
<circle cx="240" cy="120" r="9" fill="rgb(26,0,0)"/>
<circle cx="264" cy="120" r="12" fill="rgb(23,0,0)" opacity="0.35"/>
<circle cx="264" cy="120" r="9" fill="rgb(23,0,0)"/>
<circle cx="288" cy="120" r="12" fill="rgb(27,0,0)" opacity="0.35"/>
<circle cx="288" cy="120" r="9" fill="rgb(27,0,0)"/>
<circle cx="312" cy="120" r="12" fill="rgb(28,0,0)" opacity="0.35"/>
<circle cx="312" cy="120" r="9" fill="rgb(28,0,0)"/>
<circle cx="336" cy="120" r="12" fill="rgb(25,0,0)" opacity="0.35"/>
<circle cx="336" cy="120" r="9" fill="rgb(25,0,0)"/>
<circle cx="360" cy="120" r="12" fill="rgb(20,0,0)" opacity="0.35"/>
<circle cx="360" cy="120" r="9" fill="rgb(20,0,0)"/>
<circle cx="384" cy="120" r="12" fill="rgb(20,0,0)" opacity="0.35"/>
<circle cx="384" cy="120" r="9" fill="rgb(20,0,0)"/>
<circle cx="24" cy="144" r="12" fill="rgb(63,0,0)" opacity="0.35"/>
<circle cx="24" cy="144" r="9" fill="rgb(63,0,0)"/>
<circle cx="48" cy="144" r="12" fill="rgb(59,0,0)" opacity="0.35"/>
<circle cx="48" cy="144" r="9" fill="rgb(59,0,0)"/>
<circle cx="72" cy="144" r="12" fill="rgb(54,0,0)" opacity="0.35"/>
<circle cx="72" cy="144" r="9" fill="rgb(54,0,0)"/>
<circle cx="96" cy="144" r="12" fill="rgb(50,0,0)" opacity="0.35"/>
<circle cx="96" cy="144" r="9" fill="rgb(50,0,0)"/>
<circle cx="120" cy="144" r="12" fill="rgb(47,0,0)" opacity="0.35"/>
<circle cx="120" cy="144" r="9" fill="rgb(47,0,0)"/>
<circle cx="144" cy="144" r="12" fill="rgb(50,0,0)" opacity="0.35"/>
<circle cx="144" cy="144" r="9" fill="rgb(50,0,0)"/>
<circle cx="168" cy="144" r="12" fill="rgb(47,0,0)" opacity="0.35"/>
<circle cx="168" cy="144" r="9" fill="rgb(47,0,0)"/>
<circle cx="192" cy="144" r="12" fill="rgb(51,0,0)" opacity="0.35"/>
<circle cx="192" cy="144" r="9" fill="rgb(51,0,0)"/>
<circle cx="216" cy="144" r="12" fill="rgb(47,0,0)" opacity="0.35"/>
<circle cx="216" cy="144" r="9" fill="rgb(47,0,0)"/>
<circle cx="240" cy="144" r="12" fill="rgb(46,0,0)" opacity="0.35"/>
<circle cx="240" cy="144" r="9" fill="rgb(46,0,0)"/>
<circle cx="264" cy="144" r="12" fill="rgb(36,0,0)" opacity="0.35"/>
<circle cx="264" cy="144" r="9" fill="rgb(36,0,0)"/>
<circle cx="288" cy="144" r="12" fill="rgb(40,0,0)" opacity="0.35"/>
<circle cx="288" cy="144" r="9" fill="rgb(40,0,0)"/>
<circle cx="312" cy="144" r="12" fill="rgb(43,0,0)" opacity="0.35"/>
<circle cx="312" cy="144" r="9" fill="rgb(43,0,0)"/>
<circle cx="336" cy="144" r="12" fill="rgb(42,0,0)" opacity="0.35"/>
<circle cx="336" cy="144" r="9" fill="rgb(42,0,0)"/>
<circle cx="360" cy="144" r="12" fill="rgb(34,0,0)" opacity="0.35"/>
<circle cx="360" cy="144" r="9" fill="rgb(34,0,0)"/>
<circle cx="384" cy="144" r="12" fill="rgb(29,0,0)" opacity="0.35"/>
<circle cx="384" cy="144" r="9" fill="rgb(29,0,0)"/>
<circle cx="24" cy="168" r="12" fill="rgb(63,0,0)" opacity="0.35"/>
<circle cx="24" cy="168" r="9" fill="rgb(63,0,0)"/>
<circle cx="48" cy="168" r="12" fill="rgb(58,0,0)" opacity="0.35"/>
<circle cx="48" cy="168" r="9" fill="rgb(58,0,0)"/>
<circle cx="72" cy="168" r="12" fill="rgb(41,0,0)" opacity="0.35"/>
<circle cx="72" cy="168" r="9" fill="rgb(41,0,0)"/>
<circle cx="96" cy="168" r="12" fill="rgb(43,0,0)" opacity="0.35"/>
<circle cx="96" cy="168" r="9" fill="rgb(43,0,0)"/>
<circle cx="120" cy="168" r="12" fill="rgb(39,0,0)" opacity="0.35"/>
<circle cx="120" cy="168" r="9" fill="rgb(39,0,0)"/>
<circle cx="144" cy="168" r="12" fill="rgb(40,0,0)" opacity="0.35"/>
<circle cx="144" cy="168" r="9" fill="rgb(40,0,0)"/>
<circle cx="168" cy="168" r="12" fill="rgb(34,0,0)" opacity="0.35"/>
<circle cx="168" cy="168" r="9" fill="rgb(34,0,0)"/>
<circle cx="192" cy="168" r="12" fill="rgb(35,0,0)" opacity="0.35"/>
<circle cx="192" cy="168" r="9" fill="rgb(35,0,0)"/>
<circle cx="216" cy="168" r="12" fill="rgb(43,0,0)" opacity="0.35"/>
<circle cx="216" cy="168" r="9" fill="rgb(43,0,0)"/>
<circle cx="240" cy="168" r="12" fill="rgb(44,0,0)" opacity="0.35"/>
<circle cx="240" cy="168" r="9" fill="rgb(44,0,0)"/>
<circle cx="264" cy="168" r="12" fill="rgb(55,0,0)" opacity="0.35"/>
<circle cx="264" cy="168" r="9" fill="rgb(55,0,0)"/>
<circle cx="288" cy="168" r="12" fill="rgb(54,0,0)" opacity="0.35"/>
<circle cx="288" cy="168" r="9" fill="rgb(54,0,0)"/>
<circle cx="312" cy="168" r="12" fill="rgb(59,0,0)" opacity="0.35"/>
<circle cx="312" cy="168" r="9" fill="rgb(59,0,0)"/>
<circle cx="336" cy="168" r="12" fill="rgb(48,0,0)" opacity="0.35"/>
<circle cx="336" cy="168" r="9" fill="rgb(48,0,0)"/>
<circle cx="360" cy="168" r="12" fill="rgb(40,0,0)" opacity="0.35"/>
<circle cx="360" cy="168" r="9" fill="rgb(40,0,0)"/>
<circle cx="384" cy="168" r="12" fill="rgb(36,0,0)" opacity="0.35"/>
<circle cx="384" cy="168" r="9" fill="rgb(36,0,0)"/>
<circle cx="24" cy="192" r="12" fill="rgb(70,0,0)" opacity="0.35"/>
<circle cx="24" cy="192" r="9" fill="rgb(70,0,0)"/>
<circle cx="48" cy="192" r="12" fill="rgb(66,0,0)" opacity="0.35"/>
<circle cx="48" cy="192" r="9" fill="rgb(66,0,0)"/>
<circle cx="72" cy="192" r="12" fill="rgb(72,0,0)" opacity="0.35"/>
<circle cx="72" cy="192" r="9" fill="rgb(72,0,0)"/>
<circle cx="96" cy="192" r="12" fill="rgb(70,0,0)" opacity="0.35"/>
<circle cx="96" cy="192" r="9" fill="rgb(70,0,0)"/>
<circle cx="120" cy="192" r="12" fill="rgb(75,0,0)" opacity="0.35"/>
<circle cx="120" cy="192" r="9" fill="rgb(75,0,0)"/>
<circle cx="144" cy="192" r="12" fill="rgb(66,0,0)" opacity="0.35"/>
<circle cx="144" cy="192" r="9" fill="rgb(66,0,0)"/>
<circle cx="168" cy="192" r="12" fill="rgb(72,0,0)" opacity="0.35"/>
<circle cx="168" cy="192" r="9" fill="rgb(72,0,0)"/>
<circle cx="192" cy="192" r="12" fill="rgb(75,0,0)" opacity="0.35"/>
<circle cx="192" cy="192" r="9" fill="rgb(75,0,0)"/>
<circle cx="216" cy="192" r="12" fill="rgb(79,0,0)" opacity="0.35"/>
<circle cx="216" cy="192" r="9" fill="rgb(79,0,0)"/>
<circle cx="240" cy="192" r="12" fill="rgb(82,0,0)" opacity="0.35"/>
<circle cx="240" cy="192" r="9" fill="rgb(82,0,0)"/>
<circle cx="264" cy="192" r="12" fill="rgb(83,0,0)" opacity="0.35"/>
<circle cx="264" cy="192" r="9" fill="rgb(83,0,0)"/>
<circle cx="288" cy="192" r="12" fill="rgb(69,0,0)" opacity="0.35"/>
<circle cx="288" cy="192" r="9" fill="rgb(69,0,0)"/>
<circle cx="312" cy="192" r="12" fill="rgb(77,0,0)" opacity="0.35"/>
<circle cx="312" cy="192" r="9" fill="rgb(77,0,0)"/>
<circle cx="336" cy="192" r="12" fill="rgb(84,0,0)" opacity="0.35"/>
<circle cx="336" cy="192" r="9" fill="rgb(84,0,0)"/>
<circle cx="360" cy="192" r="12" fill="rgb(80,0,0)" opacity="0.35"/>
<circle cx="360" cy="192" r="9" fill="rgb(80,0,0)"/>
<circle cx="384" cy="192" r="12" fill="rgb(80,0,0)" opacity="0.35"/>
<circle cx="384" cy="192" r="9" fill="rgb(80,0,0)"/>
<circle cx="24" cy="216" r="12" fill="rgb(47,0,0)" opacity="0.35"/>
<circle cx="24" cy="216" r="9" fill="rgb(47,0,0)"/>
<circle cx="48" cy="216" r="12" fill="rgb(47,0,0)" opacity="0.35"/>
<circle cx="48" cy="216" r="9" fill="rgb(47,0,0)"/>
<circle cx="72" cy="216" r="12" fill="rgb(61,0,0)" opacity="0.35"/>
<circle cx="72" cy="216" r="9" fill="rgb(61,0,0)"/>
<circle cx="96" cy="216" r="12" fill="rgb(53,0,0)" opacity="0.35"/>
<circle cx="96" cy="216" r="9" fill="rgb(53,0,0)"/>
<circle cx="120" cy="216" r="12" fill="rgb(61,0,0)" opacity="0.35"/>
<circle cx="120" cy="216" r="9" fill="rgb(61,0,0)"/>
<circle cx="144" cy="216" r="12" fill="rgb(55,0,0)" opacity="0.35"/>
<circle cx="144" cy="216" r="9" fill="rgb(55,0,0)"/>
<circle cx="168" cy="216" r="12" fill="rgb(51,0,0)" opacity="0.35"/>
<circle cx="168" cy="216" r="9" fill="rgb(51,0,0)"/>
<circle cx="192" cy="216" r="12" fill="rgb(55,0,0)" opacity="0.35"/>
<circle cx="192" cy="216" r="9" fill="rgb(55,0,0)"/>
<circle cx="216" cy="216" r="12" fill="rgb(47,0,0)" opacity="0.35"/>
<circle cx="216" cy="216" r="9" fill="rgb(47,0,0)"/>
<circle cx="240" cy="216" r="12" fill="rgb(61,0,0)" opacity="0.35"/>
<circle cx="240" cy="216" r="9" fill="rgb(61,0,0)"/>
<circle cx="264" cy="216" r="12" fill="rgb(43,0,0)" opacity="0.35"/>
<circle cx="264" cy="216" r="9" fill="rgb(43,0,0)"/>
<circle cx="288" cy="216" r="12" fill="rgb(41,0,0)" opacity="0.35"/>
<circle cx="288" cy="216" r="9" fill="rgb(41,0,0)"/>
<circle cx="312" cy="216" r="12" fill="rgb(46,0,0)" opacity="0.35"/>
<circle cx="312" cy="216" r="9" fill="rgb(46,0,0)"/>
<circle cx="336" cy="216" r="12" fill="rgb(62,0,0)" opacity="0.35"/>
<circle cx="336" cy="216" r="9" fill="rgb(62,0,0)"/>
<circle cx="360" cy="216" r="12" fill="rgb(69,0,0)" opacity="0.35"/>
<circle cx="360" cy="216" r="9" fill="rgb(69,0,0)"/>
<circle cx="384" cy="216" r="12" fill="rgb(63,0,0)" opacity="0.35"/>
<circle cx="384" cy="216" r="9" fill="rgb(63,0,0)"/>
<circle cx="24" cy="240" r="12" fill="rgb(121,11,11)" opacity="0.35"/>
<circle cx="24" cy="240" r="9" fill="rgb(121,11,11)"/>
<circle cx="48" cy="240" r="12" fill="rgb(123,12,12)" opacity="0.35"/>
<circle cx="48" cy="240" r="9" fill="rgb(123,12,12)"/>
<circle cx="72" cy="240" r="12" fill="rgb(108,5,5)" opacity="0.35"/>
<circle cx="72" cy="240" r="9" fill="rgb(108,5,5)"/>
<circle cx="96" cy="240" r="12" fill="rgb(121,11,11)" opacity="0.35"/>
<circle cx="96" cy="240" r="9" fill="rgb(121,11,11)"/>
<circle cx="120" cy="240" r="12" fill="rgb(115,9,9)" opacity="0.35"/>
<circle cx="120" cy="240" r="9" fill="rgb(115,9,9)"/>
<circle cx="144" cy="240" r="12" fill="rgb(130,15,15)" opacity="0.35"/>
<circle cx="144" cy="240" r="9" fill="rgb(130,15,15)"/>
<circle cx="168" cy="240" r="12" fill="rgb(127,13,13)" opacity="0.35"/>
<circle cx="168" cy="240" r="9" fill="rgb(127,13,13)"/>
<circle cx="192" cy="240" r="12" fill="rgb(111,7,7)" opacity="0.35"/>
<circle cx="192" cy="240" r="9" fill="rgb(111,7,7)"/>
<circle cx="216" cy="240" r="12" fill="rgb(115,9,9)" opacity="0.35"/>
<circle cx="216" cy="240" r="9" fill="rgb(115,9,9)"/>
<circle cx="240" cy="240" r="12" fill="rgb(108,5,5)" opacity="0.35"/>
<circle cx="240" cy="240" r="9" fill="rgb(108,5,5)"/>
<circle cx="264" cy="240" r="12" fill="rgb(121,11,11)" opacity="0.35"/>
<circle cx="264" cy="240" r="9" fill="rgb(121,11,11)"/>
<circle cx="288" cy="240" r="12" fill="rgb(127,13,13)" opacity="0.35"/>
<circle cx="288" cy="240" r="9" fill="rgb(127,13,13)"/>
<circle cx="312" cy="240" r="12" fill="rgb(139,18,18)" opacity="0.35"/>
<circle cx="312" cy="240" r="9" fill="rgb(139,18,18)"/>
<circle cx="336" cy="240" r="12" fill="rgb(133,16,16)" opacity="0.35"/>
<circle cx="336" cy="240" r="9" fill="rgb(133,16,16)"/>
<circle cx="360" cy="240" r="12" fill="rgb(127,13,13)" opacity="0.35"/>
<circle cx="360" cy="240" r="9" fill="rgb(127,13,13)"/>
<circle cx="384" cy="240" r="12" fill="rgb(115,9,9)" opacity="0.35"/>
<circle cx="384" cy="240" r="9" fill="rgb(115,9,9)"/>
<circle cx="24" cy="264" r="12" fill="rgb(78,0,0)" opacity="0.35"/>
<circle cx="24" cy="264" r="9" fill="rgb(78,0,0)"/>
<circle cx="48" cy="264" r="12" fill="rgb(65,0,0)" opacity="0.35"/>
<circle cx="48" cy="264" r="9" fill="rgb(65,0,0)"/>
<circle cx="72" cy="264" r="12" fill="rgb(63,0,0)" opacity="0.35"/>
<circle cx="72" cy="264" r="9" fill="rgb(63,0,0)"/>
<circle cx="96" cy="264" r="12" fill="rgb(62,0,0)" opacity="0.35"/>
<circle cx="96" cy="264" r="9" fill="rgb(62,0,0)"/>
<circle cx="120" cy="264" r="12" fill="rgb(75,0,0)" opacity="0.35"/>
<circle cx="120" cy="264" r="9" fill="rgb(75,0,0)"/>
<circle cx="144" cy="264" r="12" fill="rgb(78,0,0)" opacity="0.35"/>
<circle cx="144" cy="264" r="9" fill="rgb(78,0,0)"/>
<circle cx="168" cy="264" r="12" fill="rgb(80,0,0)" opacity="0.35"/>
<circle cx="168" cy="264" r="9" fill="rgb(80,0,0)"/>
<circle cx="192" cy="264" r="12" fill="rgb(80,0,0)" opacity="0.35"/>
<circle cx="192" cy="264" r="9" fill="rgb(80,0,0)"/>
<circle cx="216" cy="264" r="12" fill="rgb(62,0,0)" opacity="0.35"/>
<circle cx="216" cy="264" r="9" fill="rgb(62,0,0)"/>
<circle cx="240" cy="264" r="12" fill="rgb(65,0,0)" opacity="0.35"/>
<circle cx="240" cy="264" r="9" fill="rgb(65,0,0)"/>
<circle cx="264" cy="264" r="12" fill="rgb(71,0,0)" opacity="0.35"/>
<circle cx="264" cy="264" r="9" fill="rgb(71,0,0)"/>
<circle cx="288" cy="264" r="12" fill="rgb(84,0,0)" opacity="0.35"/>
<circle cx="288" cy="264" r="9" fill="rgb(84,0,0)"/>
<circle cx="312" cy="264" r="12" fill="rgb(75,0,0)" opacity="0.35"/>
<circle cx="312" cy="264" r="9" fill="rgb(75,0,0)"/>
<circle cx="336" cy="264" r="12" fill="rgb(78,0,0)" opacity="0.35"/>
<circle cx="336" cy="264" r="9" fill="rgb(78,0,0)"/>
<circle cx="360" cy="264" r="12" fill="rgb(69,0,0)" opacity="0.35"/>
<circle cx="360" cy="264" r="9" fill="rgb(69,0,0)"/>
<circle cx="384" cy="264" r="12" fill="rgb(68,0,0)" opacity="0.35"/>
<circle cx="384" cy="264" r="9" fill="rgb(68,0,0)"/>
<circle cx="24" cy="288" r="12" fill="rgb(160,27,27)" opacity="0.35"/>
<circle cx="24" cy="288" r="9" fill="rgb(160,27,27)"/>
<circle cx="48" cy="288" r="12" fill="rgb(148,22,22)" opacity="0.35"/>
<circle cx="48" cy="288" r="9" fill="rgb(148,22,22)"/>
<circle cx="72" cy="288" r="12" fill="rgb(134,16,16)" opacity="0.35"/>
<circle cx="72" cy="288" r="9" fill="rgb(134,16,16)"/>
<circle cx="96" cy="288" r="12" fill="rgb(144,20,20)" opacity="0.35"/>
<circle cx="96" cy="288" r="9" fill="rgb(144,20,20)"/>
<circle cx="120" cy="288" r="12" fill="rgb(156,25,25)" opacity="0.35"/>
<circle cx="120" cy="288" r="9" fill="rgb(156,25,25)"/>
<circle cx="144" cy="288" r="12" fill="rgb(158,26,26)" opacity="0.35"/>
<circle cx="144" cy="288" r="9" fill="rgb(158,26,26)"/>
<circle cx="168" cy="288" r="12" fill="rgb(164,28,28)" opacity="0.35"/>
<circle cx="168" cy="288" r="9" fill="rgb(164,28,28)"/>
<circle cx="192" cy="288" r="12" fill="rgb(165,29,29)" opacity="0.35"/>
<circle cx="192" cy="288" r="9" fill="rgb(165,29,29)"/>
<circle cx="216" cy="288" r="12" fill="rgb(171,31,31)" opacity="0.35"/>
<circle cx="216" cy="288" r="9" fill="rgb(171,31,31)"/>
<circle cx="240" cy="288" r="12" fill="rgb(168,30,30)" opacity="0.35"/>
<circle cx="240" cy="288" r="9" fill="rgb(168,30,30)"/>
<circle cx="264" cy="288" r="12" fill="rgb(168,30,30)" opacity="0.35"/>
<circle cx="264" cy="288" r="9" fill="rgb(168,30,30)"/>
<circle cx="288" cy="288" r="12" fill="rgb(164,28,28)" opacity="0.35"/>
<circle cx="288" cy="288" r="9" fill="rgb(164,28,28)"/>
<circle cx="312" cy="288" r="12" fill="rgb(168,30,30)" opacity="0.35"/>
<circle cx="312" cy="288" r="9" fill="rgb(168,30,30)"/>
<circle cx="336" cy="288" r="12" fill="rgb(168,30,30)" opacity="0.35"/>
<circle cx="336" cy="288" r="9" fill="rgb(168,30,30)"/>
<circle cx="360" cy="288" r="12" fill="rgb(185,39,31)" opacity="0.35"/>
<circle cx="360" cy="288" r="9" fill="rgb(185,39,31)"/>
<circle cx="384" cy="288" r="12" fill="rgb(181,36,33)" opacity="0.35"/>
<circle cx="384" cy="288" r="9" fill="rgb(181,36,33)"/>
<circle cx="24" cy="312" r="12" fill="rgb(62,0,0)" opacity="0.35"/>
<circle cx="24" cy="312" r="9" fill="rgb(62,0,0)"/>
<circle cx="48" cy="312" r="12" fill="rgb(58,0,0)" opacity="0.35"/>
<circle cx="48" cy="312" r="9" fill="rgb(58,0,0)"/>
<circle cx="72" cy="312" r="12" fill="rgb(55,0,0)" opacity="0.35"/>
<circle cx="72" cy="312" r="9" fill="rgb(55,0,0)"/>
<circle cx="96" cy="312" r="12" fill="rgb(55,0,0)" opacity="0.35"/>
<circle cx="96" cy="312" r="9" fill="rgb(55,0,0)"/>
<circle cx="120" cy="312" r="12" fill="rgb(59,0,0)" opacity="0.35"/>
<circle cx="120" cy="312" r="9" fill="rgb(59,0,0)"/>
<circle cx="144" cy="312" r="12" fill="rgb(65,0,0)" opacity="0.35"/>
<circle cx="144" cy="312" r="9" fill="rgb(65,0,0)"/>
<circle cx="168" cy="312" r="12" fill="rgb(58,0,0)" opacity="0.35"/>
<circle cx="168" cy="312" r="9" fill="rgb(58,0,0)"/>
<circle cx="192" cy="312" r="12" fill="rgb(61,0,0)" opacity="0.35"/>
<circle cx="192" cy="312" r="9" fill="rgb(61,0,0)"/>
<circle cx="216" cy="312" r="12" fill="rgb(70,0,0)" opacity="0.35"/>
<circle cx="216" cy="312" r="9" fill="rgb(70,0,0)"/>
<circle cx="240" cy="312" r="12" fill="rgb(64,0,0)" opacity="0.35"/>
<circle cx="240" cy="312" r="9" fill="rgb(64,0,0)"/>
<circle cx="264" cy="312" r="12" fill="rgb(63,0,0)" opacity="0.35"/>
<circle cx="264" cy="312" r="9" fill="rgb(63,0,0)"/>
<circle cx="288" cy="312" r="12" fill="rgb(64,0,0)" opacity="0.35"/>
<circle cx="288" cy="312" r="9" fill="rgb(64,0,0)"/>
<circle cx="312" cy="312" r="12" fill="rgb(59,0,0)" opacity="0.35"/>
<circle cx="312" cy="312" r="9" fill="rgb(59,0,0)"/>
<circle cx="336" cy="312" r="12" fill="rgb(68,0,0)" opacity="0.35"/>
<circle cx="336" cy="312" r="9" fill="rgb(68,0,0)"/>
<circle cx="360" cy="312" r="12" fill="rgb(69,0,0)" opacity="0.35"/>
<circle cx="360" cy="312" r="9" fill="rgb(69,0,0)"/>
<circle cx="384" cy="312" r="12" fill="rgb(68,0,0)" opacity="0.35"/>
<circle cx="384" cy="312" r="9" fill="rgb(68,0,0)"/>
<circle cx="24" cy="336" r="12" fill="rgb(240,79,7)" opacity="0.35"/>
<circle cx="24" cy="336" r="9" fill="rgb(240,79,7)"/>
<circle cx="48" cy="336" r="12" fill="rgb(204,53,23)" opacity="0.35"/>
<circle cx="48" cy="336" r="9" fill="rgb(204,53,23)"/>
<circle cx="72" cy="336" r="12" fill="rgb(209,56,20)" opacity="0.35"/>
<circle cx="72" cy="336" r="9" fill="rgb(209,56,20)"/>
<circle cx="96" cy="336" r="12" fill="rgb(204,53,23)" opacity="0.35"/>
<circle cx="96" cy="336" r="9" fill="rgb(204,53,23)"/>
<circle cx="120" cy="336" r="12" fill="rgb(239,78,7)" opacity="0.35"/>
<circle cx="120" cy="336" r="9" fill="rgb(239,78,7)"/>
<circle cx="144" cy="336" r="12" fill="rgb(239,78,7)" opacity="0.35"/>
<circle cx="144" cy="336" r="9" fill="rgb(239,78,7)"/>
<circle cx="168" cy="336" r="12" fill="rgb(238,77,8)" opacity="0.35"/>
<circle cx="168" cy="336" r="9" fill="rgb(238,77,8)"/>
<circle cx="192" cy="336" r="12" fill="rgb(239,78,7)" opacity="0.35"/>
<circle cx="192" cy="336" r="9" fill="rgb(239,78,7)"/>
<circle cx="216" cy="336" r="12" fill="rgb(237,77,8)" opacity="0.35"/>
<circle cx="216" cy="336" r="9" fill="rgb(237,77,8)"/>
<circle cx="240" cy="336" r="12" fill="rgb(244,82,5)" opacity="0.35"/>
<circle cx="240" cy="336" r="9" fill="rgb(244,82,5)"/>
<circle cx="264" cy="336" r="12" fill="rgb(243,81,5)" opacity="0.35"/>
<circle cx="264" cy="336" r="9" fill="rgb(243,81,5)"/>
<circle cx="288" cy="336" r="12" fill="rgb(229,71,11)" opacity="0.35"/>
<circle cx="288" cy="336" r="9" fill="rgb(229,71,11)"/>
<circle cx="312" cy="336" r="12" fill="rgb(225,68,13)" opacity="0.35"/>
<circle cx="312" cy="336" r="9" fill="rgb(225,68,13)"/>
<circle cx="336" cy="336" r="12" fill="rgb(218,63,16)" opacity="0.35"/>
<circle cx="336" cy="336" r="9" fill="rgb(218,63,16)"/>
<circle cx="360" cy="336" r="12" fill="rgb(229,71,11)" opacity="0.35"/>
<circle cx="360" cy="336" r="9" fill="rgb(229,71,11)"/>
<circle cx="384" cy="336" r="12" fill="rgb(234,75,9)" opacity="0.35"/>
<circle cx="384" cy="336" r="9" fill="rgb(234,75,9)"/>
<circle cx="24" cy="360" r="12" fill="rgb(20,0,0)" opacity="0.35"/>
<circle cx="24" cy="360" r="9" fill="rgb(20,0,0)"/>
<circle cx="48" cy="360" r="12" fill="rgb(20,0,0)" opacity="0.35"/>
<circle cx="48" cy="360" r="9" fill="rgb(20,0,0)"/>
<circle cx="72" cy="360" r="12" fill="rgb(20,0,0)" opacity="0.35"/>
<circle cx="72" cy="360" r="9" fill="rgb(20,0,0)"/>
<circle cx="96" cy="360" r="12" fill="rgb(20,0,0)" opacity="0.35"/>
<circle cx="96" cy="360" r="9" fill="rgb(20,0,0)"/>
<circle cx="120" cy="360" r="12" fill="rgb(20,0,0)" opacity="0.35"/>
<circle cx="120" cy="360" r="9" fill="rgb(20,0,0)"/>
<circle cx="144" cy="360" r="12" fill="rgb(20,0,0)" opacity="0.35"/>
<circle cx="144" cy="360" r="9" fill="rgb(20,0,0)"/>
<circle cx="168" cy="360" r="12" fill="rgb(20,0,0)" opacity="0.35"/>
<circle cx="168" cy="360" r="9" fill="rgb(20,0,0)"/>
<circle cx="192" cy="360" r="12" fill="rgb(20,0,0)" opacity="0.35"/>
<circle cx="192" cy="360" r="9" fill="rgb(20,0,0)"/>
<circle cx="216" cy="360" r="12" fill="rgb(20,0,0)" opacity="0.35"/>
<circle cx="216" cy="360" r="9" fill="rgb(20,0,0)"/>
<circle cx="240" cy="360" r="12" fill="rgb(20,0,0)" opacity="0.35"/>
<circle cx="240" cy="360" r="9" fill="rgb(20,0,0)"/>
<circle cx="264" cy="360" r="12" fill="rgb(20,0,0)" opacity="0.35"/>
<circle cx="264" cy="360" r="9" fill="rgb(20,0,0)"/>
<circle cx="288" cy="360" r="12" fill="rgb(20,0,0)" opacity="0.35"/>
<circle cx="288" cy="360" r="9" fill="rgb(20,0,0)"/>
<circle cx="312" cy="360" r="12" fill="rgb(20,0,0)" opacity="0.35"/>
<circle cx="312" cy="360" r="9" fill="rgb(20,0,0)"/>
<circle cx="336" cy="360" r="12" fill="rgb(20,0,0)" opacity="0.35"/>
<circle cx="336" cy="360" r="9" fill="rgb(20,0,0)"/>
<circle cx="360" cy="360" r="12" fill="rgb(20,0,0)" opacity="0.35"/>
<circle cx="360" cy="360" r="9" fill="rgb(20,0,0)"/>
<circle cx="384" cy="360" r="12" fill="rgb(20,0,0)" opacity="0.35"/>
<circle cx="384" cy="360" r="9" fill="rgb(20,0,0)"/>
<circle cx="24" cy="384" r="12" fill="rgb(20,0,0)" opacity="0.35"/>
<circle cx="24" cy="384" r="9" fill="rgb(20,0,0)"/>
<circle cx="48" cy="384" r="12" fill="rgb(255,178,69)" opacity="0.35"/>
<circle cx="48" cy="384" r="9" fill="rgb(255,178,69)"/>
<circle cx="72" cy="384" r="12" fill="rgb(20,0,0)" opacity="0.35"/>
<circle cx="72" cy="384" r="9" fill="rgb(20,0,0)"/>
<circle cx="96" cy="384" r="12" fill="rgb(255,197,84)" opacity="0.35"/>
<circle cx="96" cy="384" r="9" fill="rgb(255,197,84)"/>
<circle cx="120" cy="384" r="12" fill="rgb(255,147,45)" opacity="0.35"/>
<circle cx="120" cy="384" r="9" fill="rgb(255,147,45)"/>
<circle cx="144" cy="384" r="12" fill="rgb(255,165,60)" opacity="0.35"/>
<circle cx="144" cy="384" r="9" fill="rgb(255,165,60)"/>
<circle cx="168" cy="384" r="12" fill="rgb(20,0,0)" opacity="0.35"/>
<circle cx="168" cy="384" r="9" fill="rgb(20,0,0)"/>
<circle cx="192" cy="384" r="12" fill="rgb(20,0,0)" opacity="0.35"/>
<circle cx="192" cy="384" r="9" fill="rgb(20,0,0)"/>
<circle cx="216" cy="384" r="12" fill="rgb(255,172,65)" opacity="0.35"/>
<circle cx="216" cy="384" r="9" fill="rgb(255,172,65)"/>
<circle cx="240" cy="384" r="12" fill="rgb(255,188,77)" opacity="0.35"/>
<circle cx="240" cy="384" r="9" fill="rgb(255,188,77)"/>
<circle cx="264" cy="384" r="12" fill="rgb(255,179,71)" opacity="0.35"/>
<circle cx="264" cy="384" r="9" fill="rgb(255,179,71)"/>
<circle cx="288" cy="384" r="12" fill="rgb(255,167,61)" opacity="0.35"/>
<circle cx="288" cy="384" r="9" fill="rgb(255,167,61)"/>
<circle cx="312" cy="384" r="12" fill="rgb(20,0,0)" opacity="0.35"/>
<circle cx="312" cy="384" r="9" fill="rgb(20,0,0)"/>
<circle cx="336" cy="384" r="12" fill="rgb(20,0,0)" opacity="0.35"/>
<circle cx="336" cy="384" r="9" fill="rgb(20,0,0)"/>
<circle cx="360" cy="384" r="12" fill="rgb(20,0,0)" opacity="0.35"/>
<circle cx="360" cy="384" r="9" fill="rgb(20,0,0)"/>
<circle cx="384" cy="384" r="12" fill="rgb(20,0,0)" opacity="0.35"/>
<circle cx="384" cy="384" r="9" fill="rgb(20,0,0)"/>
</svg>
