<svg xmlns="http://www.w3.org/2000/svg" viewBox="0 0 564 42" width="564" height="42" role="img" aria-label="Evaluated output from the Pacifica example graph">
<rect width="564" height="42" rx="10" fill="#0d0f12"/>
<rect x="16.50" y="16.50" width="9.00" height="9.00" rx="1.62" fill="rgb(237,171,43)"/>
<rect x="34.50" y="16.50" width="9.00" height="9.00" rx="1.62" fill="rgb(255,230,164)"/>
<rect x="52.50" y="16.50" width="9.00" height="9.00" rx="1.62" fill="rgb(255,251,245)"/>
<rect x="70.50" y="16.50" width="9.00" height="9.00" rx="1.62" fill="rgb(254,155,10)"/>
<rect x="88.50" y="16.50" width="9.00" height="9.00" rx="1.62" fill="rgb(253,140,9)"/>
<rect x="106.50" y="16.50" width="9.00" height="9.00" rx="1.62" fill="rgb(253,125,9)"/>
<rect x="124.50" y="16.50" width="9.00" height="9.00" rx="1.62" fill="rgb(252,113,8)"/>
<rect x="142.50" y="16.50" width="9.00" height="9.00" rx="1.62" fill="rgb(252,101,8)"/>
<rect x="160.50" y="16.50" width="9.00" height="9.00" rx="1.62" fill="rgb(251,92,7)"/>
<rect x="178.50" y="16.50" width="9.00" height="9.00" rx="1.62" fill="rgb(251,84,9)"/>
<rect x="196.50" y="16.50" width="9.00" height="9.00" rx="1.62" fill="rgb(251,80,15)"/>
<rect x="214.50" y="16.50" width="9.00" height="9.00" rx="1.62" fill="rgb(251,77,18)"/>
<rect x="232.50" y="16.50" width="9.00" height="9.00" rx="1.62" fill="rgb(252,75,20)"/>
<rect x="250.50" y="16.50" width="9.00" height="9.00" rx="1.62" fill="rgb(251,75,20)"/>
<rect x="268.50" y="16.50" width="9.00" height="9.00" rx="1.62" fill="rgb(251,77,17)"/>
<rect x="286.50" y="16.50" width="9.00" height="9.00" rx="1.62" fill="rgb(254,196,173)"/>
<rect x="304.50" y="16.50" width="9.00" height="9.00" rx="1.62" fill="rgb(255,245,241)"/>
<rect x="322.50" y="16.50" width="9.00" height="9.00" rx="1.62" fill="rgb(251,92,7)"/>
<rect x="340.50" y="16.50" width="9.00" height="9.00" rx="1.62" fill="rgb(252,100,8)"/>
<rect x="358.50" y="16.50" width="9.00" height="9.00" rx="1.62" fill="rgb(252,109,8)"/>
<rect x="376.50" y="16.50" width="9.00" height="9.00" rx="1.62" fill="rgb(252,119,8)"/>
<rect x="394.50" y="16.50" width="9.00" height="9.00" rx="1.62" fill="rgb(253,129,9)"/>
<rect x="412.50" y="16.50" width="9.00" height="9.00" rx="1.62" fill="rgb(253,139,9)"/>
<rect x="430.50" y="16.50" width="9.00" height="9.00" rx="1.62" fill="rgb(253,149,9)"/>
<rect x="448.50" y="16.50" width="9.00" height="9.00" rx="1.62" fill="rgb(254,158,10)"/>
<rect x="466.50" y="16.50" width="9.00" height="9.00" rx="1.62" fill="rgb(254,166,10)"/>
<rect x="484.50" y="16.50" width="9.00" height="9.00" rx="1.62" fill="rgb(254,174,10)"/>
<rect x="502.50" y="16.50" width="9.00" height="9.00" rx="1.62" fill="rgb(255,180,11)"/>
<rect x="520.50" y="16.50" width="9.00" height="9.00" rx="1.62" fill="rgb(255,185,11)"/>
<rect x="538.50" y="16.50" width="9.00" height="9.00" rx="1.62" fill="rgb(255,235,181)"/>
</svg>
