<svg xmlns="http://www.w3.org/2000/svg" viewBox="0 0 408 408" width="408" height="408" role="img" aria-label="LED preview of the Palette Selector example graph">
<rect width="408" height="408" rx="10" fill="#05070a"/>
<circle cx="24" cy="24" r="12" fill="rgb(166,22,250)" opacity="0.35"/>
<circle cx="24" cy="24" r="9" fill="rgb(166,22,250)"/>
<circle cx="48" cy="24" r="12" fill="rgb(176,18,250)" opacity="0.35"/>
<circle cx="48" cy="24" r="9" fill="rgb(176,18,250)"/>
<circle cx="72" cy="24" r="12" fill="rgb(179,16,250)" opacity="0.35"/>
<circle cx="72" cy="24" r="9" fill="rgb(179,16,250)"/>
<circle cx="96" cy="24" r="12" fill="rgb(177,17,250)" opacity="0.35"/>
<circle cx="96" cy="24" r="9" fill="rgb(177,17,250)"/>
<circle cx="120" cy="24" r="12" fill="rgb(169,21,250)" opacity="0.35"/>
<circle cx="120" cy="24" r="9" fill="rgb(169,21,250)"/>
<circle cx="144" cy="24" r="12" fill="rgb(155,28,251)" opacity="0.35"/>
<circle cx="144" cy="24" r="9" fill="rgb(155,28,251)"/>
<circle cx="168" cy="24" r="12" fill="rgb(136,37,251)" opacity="0.35"/>
<circle cx="168" cy="24" r="9" fill="rgb(136,37,251)"/>
<circle cx="192" cy="24" r="12" fill="rgb(113,48,252)" opacity="0.35"/>
<circle cx="192" cy="24" r="9" fill="rgb(113,48,252)"/>
<circle cx="216" cy="24" r="12" fill="rgb(85,61,253)" opacity="0.35"/>
<circle cx="216" cy="24" r="9" fill="rgb(85,61,253)"/>
<circle cx="240" cy="24" r="12" fill="rgb(53,76,254)" opacity="0.35"/>
<circle cx="240" cy="24" r="9" fill="rgb(53,76,254)"/>
<circle cx="264" cy="24" r="12" fill="rgb(202,215,255)" opacity="0.35"/>
<circle cx="264" cy="24" r="9" fill="rgb(202,215,255)"/>
<circle cx="288" cy="24" r="12" fill="rgb(232,241,255)" opacity="0.35"/>
<circle cx="288" cy="24" r="9" fill="rgb(232,241,255)"/>
<circle cx="312" cy="24" r="12" fill="rgb(18,140,255)" opacity="0.35"/>
<circle cx="312" cy="24" r="9" fill="rgb(18,140,255)"/>
<circle cx="336" cy="24" r="12" fill="rgb(6,163,255)" opacity="0.35"/>
<circle cx="336" cy="24" r="9" fill="rgb(6,163,255)"/>
<circle cx="360" cy="24" r="12" fill="rgb(0,178,238)" opacity="0.35"/>
<circle cx="360" cy="24" r="9" fill="rgb(0,178,238)"/>
<circle cx="384" cy="24" r="12" fill="rgb(0,184,198)" opacity="0.35"/>
<circle cx="384" cy="24" r="9" fill="rgb(0,184,198)"/>
<circle cx="24" cy="48" r="12" fill="rgb(159,26,251)" opacity="0.35"/>
<circle cx="24" cy="48" r="9" fill="rgb(159,26,251)"/>
<circle cx="48" cy="48" r="12" fill="rgb(169,21,250)" opacity="0.35"/>
<circle cx="48" cy="48" r="9" fill="rgb(169,21,250)"/>
<circle cx="72" cy="48" r="12" fill="rgb(173,19,250)" opacity="0.35"/>
<circle cx="72" cy="48" r="9" fill="rgb(173,19,250)"/>
<circle cx="96" cy="48" r="12" fill="rgb(171,20,250)" opacity="0.35"/>
<circle cx="96" cy="48" r="9" fill="rgb(171,20,250)"/>
<circle cx="120" cy="48" r="12" fill="rgb(164,24,250)" opacity="0.35"/>
<circle cx="120" cy="48" r="9" fill="rgb(164,24,250)"/>
<circle cx="144" cy="48" r="12" fill="rgb(150,30,251)" opacity="0.35"/>
<circle cx="144" cy="48" r="9" fill="rgb(150,30,251)"/>
<circle cx="168" cy="48" r="12" fill="rgb(132,39,251)" opacity="0.35"/>
<circle cx="168" cy="48" r="9" fill="rgb(132,39,251)"/>
<circle cx="192" cy="48" r="12" fill="rgb(109,50,252)" opacity="0.35"/>
<circle cx="192" cy="48" r="9" fill="rgb(109,50,252)"/>
<circle cx="216" cy="48" r="12" fill="rgb(81,63,253)" opacity="0.35"/>
<circle cx="216" cy="48" r="9" fill="rgb(81,63,253)"/>
<circle cx="240" cy="48" r="12" fill="rgb(72,97,254)" opacity="0.35"/>
<circle cx="240" cy="48" r="9" fill="rgb(72,97,254)"/>
<circle cx="264" cy="48" r="12" fill="rgb(251,252,255)" opacity="0.35"/>
<circle cx="264" cy="48" r="9" fill="rgb(251,252,255)"/>
<circle cx="288" cy="48" r="12" fill="rgb(149,192,255)" opacity="0.35"/>
<circle cx="288" cy="48" r="9" fill="rgb(149,192,255)"/>
<circle cx="312" cy="48" r="12" fill="rgb(17,141,255)" opacity="0.35"/>
<circle cx="312" cy="48" r="9" fill="rgb(17,141,255)"/>
<circle cx="336" cy="48" r="12" fill="rgb(6,164,255)" opacity="0.35"/>
<circle cx="336" cy="48" r="9" fill="rgb(6,164,255)"/>
<circle cx="360" cy="48" r="12" fill="rgb(0,179,236)" opacity="0.35"/>
<circle cx="360" cy="48" r="9" fill="rgb(0,179,236)"/>
<circle cx="384" cy="48" r="12" fill="rgb(0,184,197)" opacity="0.35"/>
<circle cx="384" cy="48" r="9" fill="rgb(0,184,197)"/>
<circle cx="24" cy="72" r="12" fill="rgb(152,29,251)" opacity="0.35"/>
<circle cx="24" cy="72" r="9" fill="rgb(152,29,251)"/>
<circle cx="48" cy="72" r="12" fill="rgb(162,24,251)" opacity="0.35"/>
<circle cx="48" cy="72" r="9" fill="rgb(162,24,251)"/>
<circle cx="72" cy="72" r="12" fill="rgb(167,22,250)" opacity="0.35"/>
<circle cx="72" cy="72" r="9" fill="rgb(167,22,250)"/>
<circle cx="96" cy="72" r="12" fill="rgb(165,23,250)" opacity="0.35"/>
<circle cx="96" cy="72" r="9" fill="rgb(165,23,250)"/>
<circle cx="120" cy="72" r="12" fill="rgb(158,26,251)" opacity="0.35"/>
<circle cx="120" cy="72" r="9" fill="rgb(158,26,251)"/>
<circle cx="144" cy="72" r="12" fill="rgb(145,33,251)" opacity="0.35"/>
<circle cx="144" cy="72" r="9" fill="rgb(145,33,251)"/>
<circle cx="168" cy="72" r="12" fill="rgb(127,41,252)" opacity="0.35"/>
<circle cx="168" cy="72" r="9" fill="rgb(127,41,252)"/>
<circle cx="192" cy="72" r="12" fill="rgb(104,52,252)" opacity="0.35"/>
<circle cx="192" cy="72" r="9" fill="rgb(104,52,252)"/>
<circle cx="216" cy="72" r="12" fill="rgb(77,65,253)" opacity="0.35"/>
<circle cx="216" cy="72" r="9" fill="rgb(77,65,253)"/>
<circle cx="240" cy="72" r="12" fill="rgb(183,194,255)" opacity="0.35"/>
<circle cx="240" cy="72" r="9" fill="rgb(183,194,255)"/>
<circle cx="264" cy="72" r="12" fill="rgb(244,247,255)" opacity="0.35"/>
<circle cx="264" cy="72" r="9" fill="rgb(244,247,255)"/>
<circle cx="288" cy="72" r="12" fill="rgb(27,121,254)" opacity="0.35"/>
<circle cx="288" cy="72" r="9" fill="rgb(27,121,254)"/>
<circle cx="312" cy="72" r="12" fill="rgb(16,143,255)" opacity="0.35"/>
<circle cx="312" cy="72" r="9" fill="rgb(16,143,255)"/>
<circle cx="336" cy="72" r="12" fill="rgb(5,165,255)" opacity="0.35"/>
<circle cx="336" cy="72" r="9" fill="rgb(5,165,255)"/>
<circle cx="360" cy="72" r="12" fill="rgb(0,179,235)" opacity="0.35"/>
<circle cx="360" cy="72" r="9" fill="rgb(0,179,235)"/>
<circle cx="384" cy="72" r="12" fill="rgb(0,184,196)" opacity="0.35"/>
<circle cx="384" cy="72" r="9" fill="rgb(0,184,196)"/>
<circle cx="24" cy="96" r="12" fill="rgb(145,33,251)" opacity="0.35"/>
<circle cx="24" cy="96" r="9" fill="rgb(145,33,251)"/>
<circle cx="48" cy="96" r="12" fill="rgb(155,28,251)" opacity="0.35"/>
<circle cx="48" cy="96" r="9" fill="rgb(155,28,251)"/>
<circle cx="72" cy="96" r="12" fill="rgb(160,25,251)" opacity="0.35"/>
<circle cx="72" cy="96" r="9" fill="rgb(160,25,251)"/>
<circle cx="96" cy="96" r="12" fill="rgb(158,26,251)" opacity="0.35"/>
<circle cx="96" cy="96" r="9" fill="rgb(158,26,251)"/>
<circle cx="120" cy="96" r="12" fill="rgb(151,30,251)" opacity="0.35"/>
<circle cx="120" cy="96" r="9" fill="rgb(151,30,251)"/>
<circle cx="144" cy="96" r="12" fill="rgb(139,36,251)" opacity="0.35"/>
<circle cx="144" cy="96" r="9" fill="rgb(139,36,251)"/>
<circle cx="168" cy="96" r="12" fill="rgb(121,44,252)" opacity="0.35"/>
<circle cx="168" cy="96" r="9" fill="rgb(121,44,252)"/>
<circle cx="192" cy="96" r="12" fill="rgb(99,55,252)" opacity="0.35"/>
<circle cx="192" cy="96" r="9" fill="rgb(99,55,252)"/>
<circle cx="216" cy="96" r="12" fill="rgb(72,67,253)" opacity="0.35"/>
<circle cx="216" cy="96" r="9" fill="rgb(72,67,253)"/>
<circle cx="240" cy="96" r="12" fill="rgb(244,246,255)" opacity="0.35"/>
<circle cx="240" cy="96" r="9" fill="rgb(244,246,255)"/>
<circle cx="264" cy="96" r="12" fill="rgb(178,201,255)" opacity="0.35"/>
<circle cx="264" cy="96" r="9" fill="rgb(178,201,255)"/>
<circle cx="288" cy="96" r="12" fill="rgb(26,123,254)" opacity="0.35"/>
<circle cx="288" cy="96" r="9" fill="rgb(26,123,254)"/>
<circle cx="312" cy="96" r="12" fill="rgb(16,144,255)" opacity="0.35"/>
<circle cx="312" cy="96" r="9" fill="rgb(16,144,255)"/>
<circle cx="336" cy="96" r="12" fill="rgb(5,167,255)" opacity="0.35"/>
<circle cx="336" cy="96" r="9" fill="rgb(5,167,255)"/>
<circle cx="360" cy="96" r="12" fill="rgb(0,179,233)" opacity="0.35"/>
<circle cx="360" cy="96" r="9" fill="rgb(0,179,233)"/>
<circle cx="384" cy="96" r="12" fill="rgb(0,184,195)" opacity="0.35"/>
<circle cx="384" cy="96" r="9" fill="rgb(0,184,195)"/>
<circle cx="24" cy="120" r="12" fill="rgb(137,36,251)" opacity="0.35"/>
<circle cx="24" cy="120" r="9" fill="rgb(137,36,251)"/>
<circle cx="48" cy="120" r="12" fill="rgb(148,31,251)" opacity="0.35"/>
<circle cx="48" cy="120" r="9" fill="rgb(148,31,251)"/>
<circle cx="72" cy="120" r="12" fill="rgb(152,29,251)" opacity="0.35"/>
<circle cx="72" cy="120" r="9" fill="rgb(152,29,251)"/>
<circle cx="96" cy="120" r="12" fill="rgb(151,30,251)" opacity="0.35"/>
<circle cx="96" cy="120" r="9" fill="rgb(151,30,251)"/>
<circle cx="120" cy="120" r="12" fill="rgb(145,33,251)" opacity="0.35"/>
<circle cx="120" cy="120" r="9" fill="rgb(145,33,251)"/>
<circle cx="144" cy="120" r="12" fill="rgb(132,39,251)" opacity="0.35"/>
<circle cx="144" cy="120" r="9" fill="rgb(132,39,251)"/>
<circle cx="168" cy="120" r="12" fill="rgb(115,47,252)" opacity="0.35"/>
<circle cx="168" cy="120" r="9" fill="rgb(115,47,252)"/>
<circle cx="192" cy="120" r="12" fill="rgb(93,57,253)" opacity="0.35"/>
<circle cx="192" cy="120" r="9" fill="rgb(93,57,253)"/>
<circle cx="216" cy="120" r="12" fill="rgb(168,170,254)" opacity="0.35"/>
<circle cx="216" cy="120" r="9" fill="rgb(168,170,254)"/>
<circle cx="240" cy="120" r="12" fill="rgb(251,252,255)" opacity="0.35"/>
<circle cx="240" cy="120" r="9" fill="rgb(251,252,255)"/>
<circle cx="264" cy="120" r="12" fill="rgb(57,120,254)" opacity="0.35"/>
<circle cx="264" cy="120" r="9" fill="rgb(57,120,254)"/>
<circle cx="288" cy="120" r="12" fill="rgb(25,125,254)" opacity="0.35"/>
<circle cx="288" cy="120" r="9" fill="rgb(25,125,254)"/>
<circle cx="312" cy="120" r="12" fill="rgb(15,147,255)" opacity="0.35"/>
<circle cx="312" cy="120" r="9" fill="rgb(15,147,255)"/>
<circle cx="336" cy="120" r="12" fill="rgb(4,168,255)" opacity="0.35"/>
<circle cx="336" cy="120" r="9" fill="rgb(4,168,255)"/>
<circle cx="360" cy="120" r="12" fill="rgb(0,179,230)" opacity="0.35"/>
<circle cx="360" cy="120" r="9" fill="rgb(0,179,230)"/>
<circle cx="384" cy="120" r="12" fill="rgb(0,185,192)" opacity="0.35"/>
<circle cx="384" cy="120" r="9" fill="rgb(0,185,192)"/>
<circle cx="24" cy="144" r="12" fill="rgb(129,40,252)" opacity="0.35"/>
<circle cx="24" cy="144" r="9" fill="rgb(129,40,252)"/>
<circle cx="48" cy="144" r="12" fill="rgb(139,35,251)" opacity="0.35"/>
<circle cx="48" cy="144" r="9" fill="rgb(139,35,251)"/>
<circle cx="72" cy="144" r="12" fill="rgb(144,33,251)" opacity="0.35"/>
<circle cx="72" cy="144" r="9" fill="rgb(144,33,251)"/>
<circle cx="96" cy="144" r="12" fill="rgb(144,33,251)" opacity="0.35"/>
<circle cx="96" cy="144" r="9" fill="rgb(144,33,251)"/>
<circle cx="120" cy="144" r="12" fill="rgb(137,36,251)" opacity="0.35"/>
<circle cx="120" cy="144" r="9" fill="rgb(137,36,251)"/>
<circle cx="144" cy="144" r="12" fill="rgb(125,42,252)" opacity="0.35"/>
<circle cx="144" cy="144" r="9" fill="rgb(125,42,252)"/>
<circle cx="168" cy="144" r="12" fill="rgb(108,50,252)" opacity="0.35"/>
<circle cx="168" cy="144" r="9" fill="rgb(108,50,252)"/>
<circle cx="192" cy="144" r="12" fill="rgb(87,60,253)" opacity="0.35"/>
<circle cx="192" cy="144" r="9" fill="rgb(87,60,253)"/>
<circle cx="216" cy="144" r="12" fill="rgb(235,237,255)" opacity="0.35"/>
<circle cx="216" cy="144" r="9" fill="rgb(235,237,255)"/>
<circle cx="240" cy="144" r="12" fill="rgb(202,213,255)" opacity="0.35"/>
<circle cx="240" cy="144" r="9" fill="rgb(202,213,255)"/>
<circle cx="264" cy="144" r="12" fill="rgb(34,108,254)" opacity="0.35"/>
<circle cx="264" cy="144" r="9" fill="rgb(34,108,254)"/>
<circle cx="288" cy="144" r="12" fill="rgb(24,128,255)" opacity="0.35"/>
<circle cx="288" cy="144" r="9" fill="rgb(24,128,255)"/>
<circle cx="312" cy="144" r="12" fill="rgb(13,149,255)" opacity="0.35"/>
<circle cx="312" cy="144" r="9" fill="rgb(13,149,255)"/>
<circle cx="336" cy="144" r="12" fill="rgb(3,170,255)" opacity="0.35"/>
<circle cx="336" cy="144" r="9" fill="rgb(3,170,255)"/>
<circle cx="360" cy="144" r="12" fill="rgb(0,180,227)" opacity="0.35"/>
<circle cx="360" cy="144" r="9" fill="rgb(0,180,227)"/>
<circle cx="384" cy="144" r="12" fill="rgb(0,185,190)" opacity="0.35"/>
<circle cx="384" cy="144" r="9" fill="rgb(0,185,190)"/>
<circle cx="24" cy="168" r="12" fill="rgb(120,45,252)" opacity="0.35"/>
<circle cx="24" cy="168" r="9" fill="rgb(120,45,252)"/>
<circle cx="48" cy="168" r="12" fill="rgb(131,39,251)" opacity="0.35"/>
<circle cx="48" cy="168" r="9" fill="rgb(131,39,251)"/>
<circle cx="72" cy="168" r="12" fill="rgb(136,37,251)" opacity="0.35"/>
<circle cx="72" cy="168" r="9" fill="rgb(136,37,251)"/>
<circle cx="96" cy="168" r="12" fill="rgb(136,37,251)" opacity="0.35"/>
<circle cx="96" cy="168" r="9" fill="rgb(136,37,251)"/>
<circle cx="120" cy="168" r="12" fill="rgb(129,40,252)" opacity="0.35"/>
<circle cx="120" cy="168" r="9" fill="rgb(129,40,252)"/>
<circle cx="144" cy="168" r="12" fill="rgb(118,46,252)" opacity="0.35"/>
<circle cx="144" cy="168" r="9" fill="rgb(118,46,252)"/>
<circle cx="168" cy="168" r="12" fill="rgb(101,53,252)" opacity="0.35"/>
<circle cx="168" cy="168" r="9" fill="rgb(101,53,252)"/>
<circle cx="192" cy="168" r="12" fill="rgb(152,142,254)" opacity="0.35"/>
<circle cx="192" cy="168" r="9" fill="rgb(152,142,254)"/>
<circle cx="216" cy="168" r="12" fill="rgb(255,255,255)" opacity="0.35"/>
<circle cx="216" cy="168" r="9" fill="rgb(255,255,255)"/>
<circle cx="240" cy="168" r="12" fill="rgb(97,134,254)" opacity="0.35"/>
<circle cx="240" cy="168" r="9" fill="rgb(97,134,254)"/>
<circle cx="264" cy="168" r="12" fill="rgb(32,111,254)" opacity="0.35"/>
<circle cx="264" cy="168" r="9" fill="rgb(32,111,254)"/>
<circle cx="288" cy="168" r="12" fill="rgb(22,131,255)" opacity="0.35"/>
<circle cx="288" cy="168" r="9" fill="rgb(22,131,255)"/>
<circle cx="312" cy="168" r="12" fill="rgb(12,151,255)" opacity="0.35"/>
<circle cx="312" cy="168" r="9" fill="rgb(12,151,255)"/>
<circle cx="336" cy="168" r="12" fill="rgb(2,173,255)" opacity="0.35"/>
<circle cx="336" cy="168" r="9" fill="rgb(2,173,255)"/>
<circle cx="360" cy="168" r="12" fill="rgb(0,180,223)" opacity="0.35"/>
<circle cx="360" cy="168" r="9" fill="rgb(0,180,223)"/>
<circle cx="384" cy="168" r="12" fill="rgb(0,186,187)" opacity="0.35"/>
<circle cx="384" cy="168" r="9" fill="rgb(0,186,187)"/>
<circle cx="24" cy="192" r="12" fill="rgb(111,49,252)" opacity="0.35"/>
<circle cx="24" cy="192" r="9" fill="rgb(111,49,252)"/>
<circle cx="48" cy="192" r="12" fill="rgb(122,44,252)" opacity="0.35"/>
<circle cx="48" cy="192" r="9" fill="rgb(122,44,252)"/>
<circle cx="72" cy="192" r="12" fill="rgb(127,41,252)" opacity="0.35"/>
<circle cx="72" cy="192" r="9" fill="rgb(127,41,252)"/>
<circle cx="96" cy="192" r="12" fill="rgb(127,41,252)" opacity="0.35"/>
<circle cx="96" cy="192" r="9" fill="rgb(127,41,252)"/>
<circle cx="120" cy="192" r="12" fill="rgb(121,44,252)" opacity="0.35"/>
<circle cx="120" cy="192" r="9" fill="rgb(121,44,252)"/>
<circle cx="144" cy="192" r="12" fill="rgb(110,49,252)" opacity="0.35"/>
<circle cx="144" cy="192" r="9" fill="rgb(110,49,252)"/>
<circle cx="168" cy="192" r="12" fill="rgb(94,57,253)" opacity="0.35"/>
<circle cx="168" cy="192" r="9" fill="rgb(94,57,253)"/>
<circle cx="192" cy="192" r="12" fill="rgb(225,224,255)" opacity="0.35"/>
<circle cx="192" cy="192" r="9" fill="rgb(225,224,255)"/>
<circle cx="216" cy="192" r="12" fill="rgb(220,225,255)" opacity="0.35"/>
<circle cx="216" cy="192" r="9" fill="rgb(220,225,255)"/>
<circle cx="240" cy="192" r="12" fill="rgb(40,96,254)" opacity="0.35"/>
<circle cx="240" cy="192" r="9" fill="rgb(40,96,254)"/>
<circle cx="264" cy="192" r="12" fill="rgb(31,114,254)" opacity="0.35"/>
<circle cx="264" cy="192" r="9" fill="rgb(31,114,254)"/>
<circle cx="288" cy="192" r="12" fill="rgb(21,134,255)" opacity="0.35"/>
<circle cx="288" cy="192" r="9" fill="rgb(21,134,255)"/>
<circle cx="312" cy="192" r="12" fill="rgb(11,154,255)" opacity="0.35"/>
<circle cx="312" cy="192" r="9" fill="rgb(11,154,255)"/>
<circle cx="336" cy="192" r="12" fill="rgb(0,175,255)" opacity="0.35"/>
<circle cx="336" cy="192" r="9" fill="rgb(0,175,255)"/>
<circle cx="360" cy="192" r="12" fill="rgb(0,181,219)" opacity="0.35"/>
<circle cx="360" cy="192" r="9" fill="rgb(0,181,219)"/>
<circle cx="384" cy="192" r="12" fill="rgb(0,186,183)" opacity="0.35"/>
<circle cx="384" cy="192" r="9" fill="rgb(0,186,183)"/>
<circle cx="24" cy="216" r="12" fill="rgb(102,53,252)" opacity="0.35"/>
<circle cx="24" cy="216" r="9" fill="rgb(102,53,252)"/>
<circle cx="48" cy="216" r="12" fill="rgb(113,48,252)" opacity="0.35"/>
<circle cx="48" cy="216" r="9" fill="rgb(113,48,252)"/>
<circle cx="72" cy="216" r="12" fill="rgb(118,45,252)" opacity="0.35"/>
<circle cx="72" cy="216" r="9" fill="rgb(118,45,252)"/>
<circle cx="96" cy="216" r="12" fill="rgb(118,45,252)" opacity="0.35"/>
<circle cx="96" cy="216" r="9" fill="rgb(118,45,252)"/>
<circle cx="120" cy="216" r="12" fill="rgb(113,48,252)" opacity="0.35"/>
<circle cx="120" cy="216" r="9" fill="rgb(113,48,252)"/>
<circle cx="144" cy="216" r="12" fill="rgb(102,53,252)" opacity="0.35"/>
<circle cx="144" cy="216" r="9" fill="rgb(102,53,252)"/>
<circle cx="168" cy="216" r="12" fill="rgb(131,112,254)" opacity="0.35"/>
<circle cx="168" cy="216" r="9" fill="rgb(131,112,254)"/>
<circle cx="192" cy="216" r="12" fill="rgb(255,255,255)" opacity="0.35"/>
<circle cx="192" cy="216" r="9" fill="rgb(255,255,255)"/>
<circle cx="216" cy="216" r="12" fill="rgb(130,153,254)" opacity="0.35"/>
<circle cx="216" cy="216" r="9" fill="rgb(130,153,254)"/>
<circle cx="240" cy="216" r="12" fill="rgb(38,100,254)" opacity="0.35"/>
<circle cx="240" cy="216" r="9" fill="rgb(38,100,254)"/>
<circle cx="264" cy="216" r="12" fill="rgb(29,118,254)" opacity="0.35"/>
<circle cx="264" cy="216" r="9" fill="rgb(29,118,254)"/>
<circle cx="288" cy="216" r="12" fill="rgb(19,137,255)" opacity="0.35"/>
<circle cx="288" cy="216" r="9" fill="rgb(19,137,255)"/>
<circle cx="312" cy="216" r="12" fill="rgb(9,158,255)" opacity="0.35"/>
<circle cx="312" cy="216" r="9" fill="rgb(9,158,255)"/>
<circle cx="336" cy="216" r="12" fill="rgb(0,177,251)" opacity="0.35"/>
<circle cx="336" cy="216" r="9" fill="rgb(0,177,251)"/>
<circle cx="360" cy="216" r="12" fill="rgb(0,182,214)" opacity="0.35"/>
<circle cx="360" cy="216" r="9" fill="rgb(0,182,214)"/>
<circle cx="384" cy="216" r="12" fill="rgb(0,187,179)" opacity="0.35"/>
<circle cx="384" cy="216" r="9" fill="rgb(0,187,179)"/>
<circle cx="24" cy="240" r="12" fill="rgb(92,58,253)" opacity="0.35"/>
<circle cx="24" cy="240" r="9" fill="rgb(92,58,253)"/>
<circle cx="48" cy="240" r="12" fill="rgb(103,53,252)" opacity="0.35"/>
<circle cx="48" cy="240" r="9" fill="rgb(103,53,252)"/>
<circle cx="72" cy="240" r="12" fill="rgb(109,50,252)" opacity="0.35"/>
<circle cx="72" cy="240" r="9" fill="rgb(109,50,252)"/>
<circle cx="96" cy="240" r="12" fill="rgb(109,50,252)" opacity="0.35"/>
<circle cx="96" cy="240" r="9" fill="rgb(109,50,252)"/>
<circle cx="120" cy="240" r="12" fill="rgb(104,52,252)" opacity="0.35"/>
<circle cx="120" cy="240" r="9" fill="rgb(104,52,252)"/>
<circle cx="144" cy="240" r="12" fill="rgb(93,57,253)" opacity="0.35"/>
<circle cx="144" cy="240" r="9" fill="rgb(93,57,253)"/>
<circle cx="168" cy="240" r="12" fill="rgb(211,208,255)" opacity="0.35"/>
<circle cx="168" cy="240" r="9" fill="rgb(211,208,255)"/>
<circle cx="192" cy="240" r="12" fill="rgb(235,236,255)" opacity="0.35"/>
<circle cx="192" cy="240" r="9" fill="rgb(235,236,255)"/>
<circle cx="216" cy="240" r="12" fill="rgb(44,88,254)" opacity="0.35"/>
<circle cx="216" cy="240" r="9" fill="rgb(44,88,254)"/>
<circle cx="240" cy="240" r="12" fill="rgb(36,104,254)" opacity="0.35"/>
<circle cx="240" cy="240" r="9" fill="rgb(36,104,254)"/>
<circle cx="264" cy="240" r="12" fill="rgb(27,122,254)" opacity="0.35"/>
<circle cx="264" cy="240" r="9" fill="rgb(27,122,254)"/>
<circle cx="288" cy="240" r="12" fill="rgb(17,141,255)" opacity="0.35"/>
<circle cx="288" cy="240" r="9" fill="rgb(17,141,255)"/>
<circle cx="312" cy="240" r="12" fill="rgb(7,161,255)" opacity="0.35"/>
<circle cx="312" cy="240" r="9" fill="rgb(7,161,255)"/>
<circle cx="336" cy="240" r="12" fill="rgb(0,177,245)" opacity="0.35"/>
<circle cx="336" cy="240" r="9" fill="rgb(0,177,245)"/>
<circle cx="360" cy="240" r="12" fill="rgb(0,182,209)" opacity="0.35"/>
<circle cx="360" cy="240" r="9" fill="rgb(0,182,209)"/>
<circle cx="384" cy="240" r="12" fill="rgb(0,187,174)" opacity="0.35"/>
<circle cx="384" cy="240" r="9" fill="rgb(0,187,174)"/>
<circle cx="24" cy="264" r="12" fill="rgb(82,63,253)" opacity="0.35"/>
<circle cx="24" cy="264" r="9" fill="rgb(82,63,253)"/>
<circle cx="48" cy="264" r="12" fill="rgb(93,57,253)" opacity="0.35"/>
<circle cx="48" cy="264" r="9" fill="rgb(93,57,253)"/>
<circle cx="72" cy="264" r="12" fill="rgb(99,55,252)" opacity="0.35"/>
<circle cx="72" cy="264" r="9" fill="rgb(99,55,252)"/>
<circle cx="96" cy="264" r="12" fill="rgb(99,54,252)" opacity="0.35"/>
<circle cx="96" cy="264" r="9" fill="rgb(99,54,252)"/>
<circle cx="120" cy="264" r="12" fill="rgb(94,57,253)" opacity="0.35"/>
<circle cx="120" cy="264" r="9" fill="rgb(94,57,253)"/>
<circle cx="144" cy="264" r="12" fill="rgb(102,82,253)" opacity="0.35"/>
<circle cx="144" cy="264" r="9" fill="rgb(102,82,253)"/>
<circle cx="168" cy="264" r="12" fill="rgb(252,252,255)" opacity="0.35"/>
<circle cx="168" cy="264" r="9" fill="rgb(252,252,255)"/>
<circle cx="192" cy="264" r="12" fill="rgb(159,173,255)" opacity="0.35"/>
<circle cx="192" cy="264" r="9" fill="rgb(159,173,255)"/>
<circle cx="216" cy="264" r="12" fill="rgb(41,93,254)" opacity="0.35"/>
<circle cx="216" cy="264" r="9" fill="rgb(41,93,254)"/>
<circle cx="240" cy="264" r="12" fill="rgb(33,109,254)" opacity="0.35"/>
<circle cx="240" cy="264" r="9" fill="rgb(33,109,254)"/>
<circle cx="264" cy="264" r="12" fill="rgb(25,126,254)" opacity="0.35"/>
<circle cx="264" cy="264" r="9" fill="rgb(25,126,254)"/>
<circle cx="288" cy="264" r="12" fill="rgb(15,145,255)" opacity="0.35"/>
<circle cx="288" cy="264" r="9" fill="rgb(15,145,255)"/>
<circle cx="312" cy="264" r="12" fill="rgb(6,165,255)" opacity="0.35"/>
<circle cx="312" cy="264" r="9" fill="rgb(6,165,255)"/>
<circle cx="336" cy="264" r="12" fill="rgb(0,178,239)" opacity="0.35"/>
<circle cx="336" cy="264" r="9" fill="rgb(0,178,239)"/>
<circle cx="360" cy="264" r="12" fill="rgb(0,183,204)" opacity="0.35"/>
<circle cx="360" cy="264" r="9" fill="rgb(0,183,204)"/>
<circle cx="384" cy="264" r="12" fill="rgb(0,188,169)" opacity="0.35"/>
<circle cx="384" cy="264" r="9" fill="rgb(0,188,169)"/>
<circle cx="24" cy="288" r="12" fill="rgb(72,68,253)" opacity="0.35"/>
<circle cx="24" cy="288" r="9" fill="rgb(72,68,253)"/>
<circle cx="48" cy="288" r="12" fill="rgb(83,62,253)" opacity="0.35"/>
<circle cx="48" cy="288" r="9" fill="rgb(83,62,253)"/>
<circle cx="72" cy="288" r="12" fill="rgb(89,59,253)" opacity="0.35"/>
<circle cx="72" cy="288" r="9" fill="rgb(89,59,253)"/>
<circle cx="96" cy="288" r="12" fill="rgb(89,59,253)" opacity="0.35"/>
<circle cx="96" cy="288" r="9" fill="rgb(89,59,253)"/>
<circle cx="120" cy="288" r="12" fill="rgb(85,62,253)" opacity="0.35"/>
<circle cx="120" cy="288" r="9" fill="rgb(85,62,253)"/>
<circle cx="144" cy="288" r="12" fill="rgb(192,189,254)" opacity="0.35"/>
<circle cx="144" cy="288" r="9" fill="rgb(192,189,254)"/>
<circle cx="168" cy="288" r="12" fill="rgb(245,245,255)" opacity="0.35"/>
<circle cx="168" cy="288" r="9" fill="rgb(245,245,255)"/>
<circle cx="192" cy="288" r="12" fill="rgb(46,84,254)" opacity="0.35"/>
<circle cx="192" cy="288" r="9" fill="rgb(46,84,254)"/>
<circle cx="216" cy="288" r="12" fill="rgb(39,98,254)" opacity="0.35"/>
<circle cx="216" cy="288" r="9" fill="rgb(39,98,254)"/>
<circle cx="240" cy="288" r="12" fill="rgb(31,113,254)" opacity="0.35"/>
<circle cx="240" cy="288" r="9" fill="rgb(31,113,254)"/>
<circle cx="264" cy="288" r="12" fill="rgb(22,131,255)" opacity="0.35"/>
<circle cx="264" cy="288" r="9" fill="rgb(22,131,255)"/>
<circle cx="288" cy="288" r="12" fill="rgb(13,149,255)" opacity="0.35"/>
<circle cx="288" cy="288" r="9" fill="rgb(13,149,255)"/>
<circle cx="312" cy="288" r="12" fill="rgb(4,169,255)" opacity="0.35"/>
<circle cx="312" cy="288" r="9" fill="rgb(4,169,255)"/>
<circle cx="336" cy="288" r="12" fill="rgb(0,179,233)" opacity="0.35"/>
<circle cx="336" cy="288" r="9" fill="rgb(0,179,233)"/>
<circle cx="360" cy="288" r="12" fill="rgb(0,184,198)" opacity="0.35"/>
<circle cx="360" cy="288" r="9" fill="rgb(0,184,198)"/>
<circle cx="384" cy="288" r="12" fill="rgb(0,189,164)" opacity="0.35"/>
<circle cx="384" cy="288" r="9" fill="rgb(0,189,164)"/>
<circle cx="24" cy="312" r="12" fill="rgb(61,73,254)" opacity="0.35"/>
<circle cx="24" cy="312" r="9" fill="rgb(61,73,254)"/>
<circle cx="48" cy="312" r="12" fill="rgb(73,67,253)" opacity="0.35"/>
<circle cx="48" cy="312" r="9" fill="rgb(73,67,253)"/>
<circle cx="72" cy="312" r="12" fill="rgb(79,64,253)" opacity="0.35"/>
<circle cx="72" cy="312" r="9" fill="rgb(79,64,253)"/>
<circle cx="96" cy="312" r="12" fill="rgb(79,64,253)" opacity="0.35"/>
<circle cx="96" cy="312" r="9" fill="rgb(79,64,253)"/>
<circle cx="120" cy="312" r="12" fill="rgb(74,66,253)" opacity="0.35"/>
<circle cx="120" cy="312" r="9" fill="rgb(74,66,253)"/>
<circle cx="144" cy="312" r="12" fill="rgb(245,246,255)" opacity="0.35"/>
<circle cx="144" cy="312" r="9" fill="rgb(245,246,255)"/>
<circle cx="168" cy="312" r="12" fill="rgb(183,193,255)" opacity="0.35"/>
<circle cx="168" cy="312" r="9" fill="rgb(183,193,255)"/>
<circle cx="192" cy="312" r="12" fill="rgb(43,89,254)" opacity="0.35"/>
<circle cx="192" cy="312" r="9" fill="rgb(43,89,254)"/>
<circle cx="216" cy="312" r="12" fill="rgb(36,103,254)" opacity="0.35"/>
<circle cx="216" cy="312" r="9" fill="rgb(36,103,254)"/>
<circle cx="240" cy="312" r="12" fill="rgb(28,118,254)" opacity="0.35"/>
<circle cx="240" cy="312" r="9" fill="rgb(28,118,254)"/>
<circle cx="264" cy="312" r="12" fill="rgb(20,136,255)" opacity="0.35"/>
<circle cx="264" cy="312" r="9" fill="rgb(20,136,255)"/>
<circle cx="288" cy="312" r="12" fill="rgb(11,154,255)" opacity="0.35"/>
<circle cx="288" cy="312" r="9" fill="rgb(11,154,255)"/>
<circle cx="312" cy="312" r="12" fill="rgb(1,173,255)" opacity="0.35"/>
<circle cx="312" cy="312" r="9" fill="rgb(1,173,255)"/>
<circle cx="336" cy="312" r="12" fill="rgb(0,180,225)" opacity="0.35"/>
<circle cx="336" cy="312" r="9" fill="rgb(0,180,225)"/>
<circle cx="360" cy="312" r="12" fill="rgb(0,185,191)" opacity="0.35"/>
<circle cx="360" cy="312" r="9" fill="rgb(0,185,191)"/>
<circle cx="384" cy="312" r="12" fill="rgb(0,190,158)" opacity="0.35"/>
<circle cx="384" cy="312" r="9" fill="rgb(0,190,158)"/>
<circle cx="24" cy="336" r="12" fill="rgb(50,78,254)" opacity="0.35"/>
<circle cx="24" cy="336" r="9" fill="rgb(50,78,254)"/>
<circle cx="48" cy="336" r="12" fill="rgb(62,72,254)" opacity="0.35"/>
<circle cx="48" cy="336" r="9" fill="rgb(62,72,254)"/>
<circle cx="72" cy="336" r="12" fill="rgb(68,69,253)" opacity="0.35"/>
<circle cx="72" cy="336" r="9" fill="rgb(68,69,253)"/>
<circle cx="96" cy="336" r="12" fill="rgb(69,69,253)" opacity="0.35"/>
<circle cx="96" cy="336" r="9" fill="rgb(69,69,253)"/>
<circle cx="120" cy="336" r="12" fill="rgb(167,170,255)" opacity="0.35"/>
<circle cx="120" cy="336" r="9" fill="rgb(167,170,255)"/>
<circle cx="144" cy="336" r="12" fill="rgb(251,252,255)" opacity="0.35"/>
<circle cx="144" cy="336" r="9" fill="rgb(251,252,255)"/>
<circle cx="168" cy="336" r="12" fill="rgb(67,101,254)" opacity="0.35"/>
<circle cx="168" cy="336" r="9" fill="rgb(67,101,254)"/>
<circle cx="192" cy="336" r="12" fill="rgb(40,95,254)" opacity="0.35"/>
<circle cx="192" cy="336" r="9" fill="rgb(40,95,254)"/>
<circle cx="216" cy="336" r="12" fill="rgb(33,108,254)" opacity="0.35"/>
<circle cx="216" cy="336" r="9" fill="rgb(33,108,254)"/>
<circle cx="240" cy="336" r="12" fill="rgb(26,124,254)" opacity="0.35"/>
<circle cx="240" cy="336" r="9" fill="rgb(26,124,254)"/>
<circle cx="264" cy="336" r="12" fill="rgb(17,141,255)" opacity="0.35"/>
<circle cx="264" cy="336" r="9" fill="rgb(17,141,255)"/>
<circle cx="288" cy="336" r="12" fill="rgb(8,159,255)" opacity="0.35"/>
<circle cx="288" cy="336" r="9" fill="rgb(8,159,255)"/>
<circle cx="312" cy="336" r="12" fill="rgb(0,176,252)" opacity="0.35"/>
<circle cx="312" cy="336" r="9" fill="rgb(0,176,252)"/>
<circle cx="336" cy="336" r="12" fill="rgb(0,181,218)" opacity="0.35"/>
<circle cx="336" cy="336" r="9" fill="rgb(0,181,218)"/>
<circle cx="360" cy="336" r="12" fill="rgb(0,186,184)" opacity="0.35"/>
<circle cx="360" cy="336" r="9" fill="rgb(0,186,184)"/>
<circle cx="384" cy="336" r="12" fill="rgb(0,190,151)" opacity="0.35"/>
<circle cx="384" cy="336" r="9" fill="rgb(0,190,151)"/>
<circle cx="24" cy="360" r="12" fill="rgb(45,84,254)" opacity="0.35"/>
<circle cx="24" cy="360" r="9" fill="rgb(45,84,254)"/>
<circle cx="48" cy="360" r="12" fill="rgb(51,78,254)" opacity="0.35"/>
<circle cx="48" cy="360" r="9" fill="rgb(51,78,254)"/>
<circle cx="72" cy="360" r="12" fill="rgb(57,75,254)" opacity="0.35"/>
<circle cx="72" cy="360" r="9" fill="rgb(57,75,254)"/>
<circle cx="96" cy="360" r="12" fill="rgb(58,74,254)" opacity="0.35"/>
<circle cx="96" cy="360" r="9" fill="rgb(58,74,254)"/>
<circle cx="120" cy="360" r="12" fill="rgb(235,237,255)" opacity="0.35"/>
<circle cx="120" cy="360" r="9" fill="rgb(235,237,255)"/>
<circle cx="144" cy="360" r="12" fill="rgb(203,211,255)" opacity="0.35"/>
<circle cx="144" cy="360" r="9" fill="rgb(203,211,255)"/>
<circle cx="168" cy="360" r="12" fill="rgb(43,90,254)" opacity="0.35"/>
<circle cx="168" cy="360" r="9" fill="rgb(43,90,254)"/>
<circle cx="192" cy="360" r="12" fill="rgb(37,101,254)" opacity="0.35"/>
<circle cx="192" cy="360" r="9" fill="rgb(37,101,254)"/>
<circle cx="216" cy="360" r="12" fill="rgb(31,114,254)" opacity="0.35"/>
<circle cx="216" cy="360" r="9" fill="rgb(31,114,254)"/>
<circle cx="240" cy="360" r="12" fill="rgb(23,129,255)" opacity="0.35"/>
<circle cx="240" cy="360" r="9" fill="rgb(23,129,255)"/>
<circle cx="264" cy="360" r="12" fill="rgb(15,146,255)" opacity="0.35"/>
<circle cx="264" cy="360" r="9" fill="rgb(15,146,255)"/>
<circle cx="288" cy="360" r="12" fill="rgb(6,164,255)" opacity="0.35"/>
<circle cx="288" cy="360" r="9" fill="rgb(6,164,255)"/>
<circle cx="312" cy="360" r="12" fill="rgb(0,178,243)" opacity="0.35"/>
<circle cx="312" cy="360" r="9" fill="rgb(0,178,243)"/>
<circle cx="336" cy="360" r="12" fill="rgb(0,182,210)" opacity="0.35"/>
<circle cx="336" cy="360" r="9" fill="rgb(0,182,210)"/>
<circle cx="360" cy="360" r="12" fill="rgb(0,187,177)" opacity="0.35"/>
<circle cx="360" cy="360" r="9" fill="rgb(0,187,177)"/>
<circle cx="384" cy="360" r="12" fill="rgb(0,191,144)" opacity="0.35"/>
<circle cx="384" cy="360" r="9" fill="rgb(0,191,144)"/>
<circle cx="24" cy="384" r="12" fill="rgb(42,91,254)" opacity="0.35"/>
<circle cx="24" cy="384" r="9" fill="rgb(42,91,254)"/>
<circle cx="48" cy="384" r="12" fill="rgb(46,84,254)" opacity="0.35"/>
<circle cx="48" cy="384" r="9" fill="rgb(46,84,254)"/>
<circle cx="72" cy="384" r="12" fill="rgb(47,80,254)" opacity="0.35"/>
<circle cx="72" cy="384" r="9" fill="rgb(47,80,254)"/>
<circle cx="96" cy="384" r="12" fill="rgb(133,152,254)" opacity="0.35"/>
<circle cx="96" cy="384" r="9" fill="rgb(133,152,254)"/>
<circle cx="120" cy="384" r="12" fill="rgb(255,255,255)" opacity="0.35"/>
<circle cx="120" cy="384" r="9" fill="rgb(255,255,255)"/>
<circle cx="144" cy="384" r="12" fill="rgb(99,131,254)" opacity="0.35"/>
<circle cx="144" cy="384" r="9" fill="rgb(99,131,254)"/>
<circle cx="168" cy="384" r="12" fill="rgb(40,96,254)" opacity="0.35"/>
<circle cx="168" cy="384" r="9" fill="rgb(40,96,254)"/>
<circle cx="192" cy="384" r="12" fill="rgb(34,107,254)" opacity="0.35"/>
<circle cx="192" cy="384" r="9" fill="rgb(34,107,254)"/>
<circle cx="216" cy="384" r="12" fill="rgb(28,120,254)" opacity="0.35"/>
<circle cx="216" cy="384" r="9" fill="rgb(28,120,254)"/>
<circle cx="240" cy="384" r="12" fill="rgb(20,135,255)" opacity="0.35"/>
<circle cx="240" cy="384" r="9" fill="rgb(20,135,255)"/>
<circle cx="264" cy="384" r="12" fill="rgb(12,152,255)" opacity="0.35"/>
<circle cx="264" cy="384" r="9" fill="rgb(12,152,255)"/>
<circle cx="288" cy="384" r="12" fill="rgb(3,169,255)" opacity="0.35"/>
<circle cx="288" cy="384" r="9" fill="rgb(3,169,255)"/>
<circle cx="312" cy="384" r="12" fill="rgb(0,179,235)" opacity="0.35"/>
<circle cx="312" cy="384" r="9" fill="rgb(0,179,235)"/>
<circle cx="336" cy="384" r="12" fill="rgb(0,183,202)" opacity="0.35"/>
<circle cx="336" cy="384" r="9" fill="rgb(0,183,202)"/>
<circle cx="360" cy="384" r="12" fill="rgb(0,188,169)" opacity="0.35"/>
<circle cx="360" cy="384" r="9" fill="rgb(0,188,169)"/>
<circle cx="384" cy="384" r="12" fill="rgb(0,192,137)" opacity="0.35"/>
<circle cx="384" cy="384" r="9" fill="rgb(0,192,137)"/>
</svg>
