<svg xmlns="http://www.w3.org/2000/svg" viewBox="0 0 408 408" width="408" height="408" role="img" aria-label="LED preview of the Palette from Image example graph">
<rect width="408" height="408" rx="10" fill="#05070a"/>
<circle cx="24" cy="24" r="12" fill="rgb(255,144,145)" opacity="0.35"/>
<circle cx="24" cy="24" r="9" fill="rgb(255,144,145)"/>
<circle cx="48" cy="24" r="12" fill="rgb(255,145,144)" opacity="0.35"/>
<circle cx="48" cy="24" r="9" fill="rgb(255,145,144)"/>
<circle cx="72" cy="24" r="12" fill="rgb(255,145,144)" opacity="0.35"/>
<circle cx="72" cy="24" r="9" fill="rgb(255,145,144)"/>
<circle cx="96" cy="24" r="12" fill="rgb(255,145,144)" opacity="0.35"/>
<circle cx="96" cy="24" r="9" fill="rgb(255,145,144)"/>
<circle cx="120" cy="24" r="12" fill="rgb(255,144,145)" opacity="0.35"/>
<circle cx="120" cy="24" r="9" fill="rgb(255,144,145)"/>
<circle cx="144" cy="24" r="12" fill="rgb(255,142,146)" opacity="0.35"/>
<circle cx="144" cy="24" r="9" fill="rgb(255,142,146)"/>
<circle cx="168" cy="24" r="12" fill="rgb(255,139,148)" opacity="0.35"/>
<circle cx="168" cy="24" r="9" fill="rgb(255,139,148)"/>
<circle cx="192" cy="24" r="12" fill="rgb(255,136,150)" opacity="0.35"/>
<circle cx="192" cy="24" r="9" fill="rgb(255,136,150)"/>
<circle cx="216" cy="24" r="12" fill="rgb(255,132,153)" opacity="0.35"/>
<circle cx="216" cy="24" r="9" fill="rgb(255,132,153)"/>
<circle cx="240" cy="24" r="12" fill="rgb(255,127,156)" opacity="0.35"/>
<circle cx="240" cy="24" r="9" fill="rgb(255,127,156)"/>
<circle cx="264" cy="24" r="12" fill="rgb(255,222,231)" opacity="0.35"/>
<circle cx="264" cy="24" r="9" fill="rgb(255,222,231)"/>
<circle cx="288" cy="24" r="12" fill="rgb(255,241,245)" opacity="0.35"/>
<circle cx="288" cy="24" r="9" fill="rgb(255,241,245)"/>
<circle cx="312" cy="24" r="12" fill="rgb(255,114,162)" opacity="0.35"/>
<circle cx="312" cy="24" r="9" fill="rgb(255,114,162)"/>
<circle cx="336" cy="24" r="12" fill="rgb(255,110,156)" opacity="0.35"/>
<circle cx="336" cy="24" r="9" fill="rgb(255,110,156)"/>
<circle cx="360" cy="24" r="12" fill="rgb(255,107,151)" opacity="0.35"/>
<circle cx="360" cy="24" r="9" fill="rgb(255,107,151)"/>
<circle cx="384" cy="24" r="12" fill="rgb(255,104,146)" opacity="0.35"/>
<circle cx="384" cy="24" r="9" fill="rgb(255,104,146)"/>
<circle cx="24" cy="48" r="12" fill="rgb(255,143,146)" opacity="0.35"/>
<circle cx="24" cy="48" r="9" fill="rgb(255,143,146)"/>
<circle cx="48" cy="48" r="12" fill="rgb(255,144,145)" opacity="0.35"/>
<circle cx="48" cy="48" r="9" fill="rgb(255,144,145)"/>
<circle cx="72" cy="48" r="12" fill="rgb(255,145,144)" opacity="0.35"/>
<circle cx="72" cy="48" r="9" fill="rgb(255,145,144)"/>
<circle cx="96" cy="48" r="12" fill="rgb(255,144,144)" opacity="0.35"/>
<circle cx="96" cy="48" r="9" fill="rgb(255,144,144)"/>
<circle cx="120" cy="48" r="12" fill="rgb(255,143,145)" opacity="0.35"/>
<circle cx="120" cy="48" r="9" fill="rgb(255,143,145)"/>
<circle cx="144" cy="48" r="12" fill="rgb(255,141,147)" opacity="0.35"/>
<circle cx="144" cy="48" r="9" fill="rgb(255,141,147)"/>
<circle cx="168" cy="48" r="12" fill="rgb(255,139,148)" opacity="0.35"/>
<circle cx="168" cy="48" r="9" fill="rgb(255,139,148)"/>
<circle cx="192" cy="48" r="12" fill="rgb(255,135,150)" opacity="0.35"/>
<circle cx="192" cy="48" r="9" fill="rgb(255,135,150)"/>
<circle cx="216" cy="48" r="12" fill="rgb(255,131,153)" opacity="0.35"/>
<circle cx="216" cy="48" r="9" fill="rgb(255,131,153)"/>
<circle cx="240" cy="48" r="12" fill="rgb(255,141,166)" opacity="0.35"/>
<circle cx="240" cy="48" r="9" fill="rgb(255,141,166)"/>
<circle cx="264" cy="48" r="12" fill="rgb(255,253,253)" opacity="0.35"/>
<circle cx="264" cy="48" r="9" fill="rgb(255,253,253)"/>
<circle cx="288" cy="48" r="12" fill="rgb(255,191,212)" opacity="0.35"/>
<circle cx="288" cy="48" r="9" fill="rgb(255,191,212)"/>
<circle cx="312" cy="48" r="12" fill="rgb(255,113,162)" opacity="0.35"/>
<circle cx="312" cy="48" r="9" fill="rgb(255,113,162)"/>
<circle cx="336" cy="48" r="12" fill="rgb(255,110,156)" opacity="0.35"/>
<circle cx="336" cy="48" r="9" fill="rgb(255,110,156)"/>
<circle cx="360" cy="48" r="12" fill="rgb(255,107,151)" opacity="0.35"/>
<circle cx="360" cy="48" r="9" fill="rgb(255,107,151)"/>
<circle cx="384" cy="48" r="12" fill="rgb(255,104,145)" opacity="0.35"/>
<circle cx="384" cy="48" r="9" fill="rgb(255,104,145)"/>
<circle cx="24" cy="72" r="12" fill="rgb(255,142,146)" opacity="0.35"/>
<circle cx="24" cy="72" r="9" fill="rgb(255,142,146)"/>
<circle cx="48" cy="72" r="12" fill="rgb(255,143,145)" opacity="0.35"/>
<circle cx="48" cy="72" r="9" fill="rgb(255,143,145)"/>
<circle cx="72" cy="72" r="12" fill="rgb(255,144,145)" opacity="0.35"/>
<circle cx="72" cy="72" r="9" fill="rgb(255,144,145)"/>
<circle cx="96" cy="72" r="12" fill="rgb(255,143,145)" opacity="0.35"/>
<circle cx="96" cy="72" r="9" fill="rgb(255,143,145)"/>
<circle cx="120" cy="72" r="12" fill="rgb(255,142,146)" opacity="0.35"/>
<circle cx="120" cy="72" r="9" fill="rgb(255,142,146)"/>
<circle cx="144" cy="72" r="12" fill="rgb(255,141,147)" opacity="0.35"/>
<circle cx="144" cy="72" r="9" fill="rgb(255,141,147)"/>
<circle cx="168" cy="72" r="12" fill="rgb(255,138,149)" opacity="0.35"/>
<circle cx="168" cy="72" r="9" fill="rgb(255,138,149)"/>
<circle cx="192" cy="72" r="12" fill="rgb(255,134,151)" opacity="0.35"/>
<circle cx="192" cy="72" r="9" fill="rgb(255,134,151)"/>
<circle cx="216" cy="72" r="12" fill="rgb(255,130,153)" opacity="0.35"/>
<circle cx="216" cy="72" r="9" fill="rgb(255,130,153)"/>
<circle cx="240" cy="72" r="12" fill="rgb(255,210,221)" opacity="0.35"/>
<circle cx="240" cy="72" r="9" fill="rgb(255,210,221)"/>
<circle cx="264" cy="72" r="12" fill="rgb(255,248,250)" opacity="0.35"/>
<circle cx="264" cy="72" r="9" fill="rgb(255,248,250)"/>
<circle cx="288" cy="72" r="12" fill="rgb(255,117,162)" opacity="0.35"/>
<circle cx="288" cy="72" r="9" fill="rgb(255,117,162)"/>
<circle cx="312" cy="72" r="12" fill="rgb(255,113,162)" opacity="0.35"/>
<circle cx="312" cy="72" r="9" fill="rgb(255,113,162)"/>
<circle cx="336" cy="72" r="12" fill="rgb(255,110,156)" opacity="0.35"/>
<circle cx="336" cy="72" r="9" fill="rgb(255,110,156)"/>
<circle cx="360" cy="72" r="12" fill="rgb(255,107,150)" opacity="0.35"/>
<circle cx="360" cy="72" r="9" fill="rgb(255,107,150)"/>
<circle cx="384" cy="72" r="12" fill="rgb(255,104,145)" opacity="0.35"/>
<circle cx="384" cy="72" r="9" fill="rgb(255,104,145)"/>
<circle cx="24" cy="96" r="12" fill="rgb(255,141,147)" opacity="0.35"/>
<circle cx="24" cy="96" r="9" fill="rgb(255,141,147)"/>
<circle cx="48" cy="96" r="12" fill="rgb(255,142,146)" opacity="0.35"/>
<circle cx="48" cy="96" r="9" fill="rgb(255,142,146)"/>
<circle cx="72" cy="96" r="12" fill="rgb(255,143,146)" opacity="0.35"/>
<circle cx="72" cy="96" r="9" fill="rgb(255,143,146)"/>
<circle cx="96" cy="96" r="12" fill="rgb(255,143,146)" opacity="0.35"/>
<circle cx="96" cy="96" r="9" fill="rgb(255,143,146)"/>
<circle cx="120" cy="96" r="12" fill="rgb(255,142,147)" opacity="0.35"/>
<circle cx="120" cy="96" r="9" fill="rgb(255,142,147)"/>
<circle cx="144" cy="96" r="12" fill="rgb(255,140,148)" opacity="0.35"/>
<circle cx="144" cy="96" r="9" fill="rgb(255,140,148)"/>
<circle cx="168" cy="96" r="12" fill="rgb(255,137,149)" opacity="0.35"/>
<circle cx="168" cy="96" r="9" fill="rgb(255,137,149)"/>
<circle cx="192" cy="96" r="12" fill="rgb(255,134,151)" opacity="0.35"/>
<circle cx="192" cy="96" r="9" fill="rgb(255,134,151)"/>
<circle cx="216" cy="96" r="12" fill="rgb(255,130,154)" opacity="0.35"/>
<circle cx="216" cy="96" r="9" fill="rgb(255,130,154)"/>
<circle cx="240" cy="96" r="12" fill="rgb(255,248,250)" opacity="0.35"/>
<circle cx="240" cy="96" r="9" fill="rgb(255,248,250)"/>
<circle cx="264" cy="96" r="12" fill="rgb(255,208,222)" opacity="0.35"/>
<circle cx="264" cy="96" r="9" fill="rgb(255,208,222)"/>
<circle cx="288" cy="96" r="12" fill="rgb(255,117,162)" opacity="0.35"/>
<circle cx="288" cy="96" r="9" fill="rgb(255,117,162)"/>
<circle cx="312" cy="96" r="12" fill="rgb(255,113,161)" opacity="0.35"/>
<circle cx="312" cy="96" r="9" fill="rgb(255,113,161)"/>
<circle cx="336" cy="96" r="12" fill="rgb(255,109,155)" opacity="0.35"/>
<circle cx="336" cy="96" r="9" fill="rgb(255,109,155)"/>
<circle cx="360" cy="96" r="12" fill="rgb(255,106,150)" opacity="0.35"/>
<circle cx="360" cy="96" r="9" fill="rgb(255,106,150)"/>
<circle cx="384" cy="96" r="12" fill="rgb(255,104,145)" opacity="0.35"/>
<circle cx="384" cy="96" r="9" fill="rgb(255,104,145)"/>
<circle cx="24" cy="120" r="12" fill="rgb(255,139,148)" opacity="0.35"/>
<circle cx="24" cy="120" r="9" fill="rgb(255,139,148)"/>
<circle cx="48" cy="120" r="12" fill="rgb(255,141,147)" opacity="0.35"/>
<circle cx="48" cy="120" r="9" fill="rgb(255,141,147)"/>
<circle cx="72" cy="120" r="12" fill="rgb(255,142,146)" opacity="0.35"/>
<circle cx="72" cy="120" r="9" fill="rgb(255,142,146)"/>
<circle cx="96" cy="120" r="12" fill="rgb(255,142,147)" opacity="0.35"/>
<circle cx="96" cy="120" r="9" fill="rgb(255,142,147)"/>
<circle cx="120" cy="120" r="12" fill="rgb(255,141,147)" opacity="0.35"/>
<circle cx="120" cy="120" r="9" fill="rgb(255,141,147)"/>
<circle cx="144" cy="120" r="12" fill="rgb(255,139,148)" opacity="0.35"/>
<circle cx="144" cy="120" r="9" fill="rgb(255,139,148)"/>
<circle cx="168" cy="120" r="12" fill="rgb(255,136,150)" opacity="0.35"/>
<circle cx="168" cy="120" r="9" fill="rgb(255,136,150)"/>
<circle cx="192" cy="120" r="12" fill="rgb(255,133,152)" opacity="0.35"/>
<circle cx="192" cy="120" r="9" fill="rgb(255,133,152)"/>
<circle cx="216" cy="120" r="12" fill="rgb(255,197,209)" opacity="0.35"/>
<circle cx="216" cy="120" r="9" fill="rgb(255,197,209)"/>
<circle cx="240" cy="120" r="12" fill="rgb(255,252,253)" opacity="0.35"/>
<circle cx="240" cy="120" r="9" fill="rgb(255,252,253)"/>
<circle cx="264" cy="120" r="12" fill="rgb(255,134,169)" opacity="0.35"/>
<circle cx="264" cy="120" r="9" fill="rgb(255,134,169)"/>
<circle cx="288" cy="120" r="12" fill="rgb(255,116,162)" opacity="0.35"/>
<circle cx="288" cy="120" r="9" fill="rgb(255,116,162)"/>
<circle cx="312" cy="120" r="12" fill="rgb(255,113,161)" opacity="0.35"/>
<circle cx="312" cy="120" r="9" fill="rgb(255,113,161)"/>
<circle cx="336" cy="120" r="12" fill="rgb(255,109,155)" opacity="0.35"/>
<circle cx="336" cy="120" r="9" fill="rgb(255,109,155)"/>
<circle cx="360" cy="120" r="12" fill="rgb(255,106,150)" opacity="0.35"/>
<circle cx="360" cy="120" r="9" fill="rgb(255,106,150)"/>
<circle cx="384" cy="120" r="12" fill="rgb(255,103,145)" opacity="0.35"/>
<circle cx="384" cy="120" r="9" fill="rgb(255,103,145)"/>
<circle cx="24" cy="144" r="12" fill="rgb(255,138,149)" opacity="0.35"/>
<circle cx="24" cy="144" r="9" fill="rgb(255,138,149)"/>
<circle cx="48" cy="144" r="12" fill="rgb(255,140,148)" opacity="0.35"/>
<circle cx="48" cy="144" r="9" fill="rgb(255,140,148)"/>
<circle cx="72" cy="144" r="12" fill="rgb(255,141,147)" opacity="0.35"/>
<circle cx="72" cy="144" r="9" fill="rgb(255,141,147)"/>
<circle cx="96" cy="144" r="12" fill="rgb(255,140,147)" opacity="0.35"/>
<circle cx="96" cy="144" r="9" fill="rgb(255,140,147)"/>
<circle cx="120" cy="144" r="12" fill="rgb(255,140,148)" opacity="0.35"/>
<circle cx="120" cy="144" r="9" fill="rgb(255,140,148)"/>
<circle cx="144" cy="144" r="12" fill="rgb(255,138,149)" opacity="0.35"/>
<circle cx="144" cy="144" r="9" fill="rgb(255,138,149)"/>
<circle cx="168" cy="144" r="12" fill="rgb(255,135,151)" opacity="0.35"/>
<circle cx="168" cy="144" r="9" fill="rgb(255,135,151)"/>
<circle cx="192" cy="144" r="12" fill="rgb(255,132,152)" opacity="0.35"/>
<circle cx="192" cy="144" r="9" fill="rgb(255,132,152)"/>
<circle cx="216" cy="144" r="12" fill="rgb(255,242,245)" opacity="0.35"/>
<circle cx="216" cy="144" r="9" fill="rgb(255,242,245)"/>
<circle cx="240" cy="144" r="12" fill="rgb(255,222,231)" opacity="0.35"/>
<circle cx="240" cy="144" r="9" fill="rgb(255,222,231)"/>
<circle cx="264" cy="144" r="12" fill="rgb(255,120,161)" opacity="0.35"/>
<circle cx="264" cy="144" r="9" fill="rgb(255,120,161)"/>
<circle cx="288" cy="144" r="12" fill="rgb(255,116,162)" opacity="0.35"/>
<circle cx="288" cy="144" r="9" fill="rgb(255,116,162)"/>
<circle cx="312" cy="144" r="12" fill="rgb(255,112,160)" opacity="0.35"/>
<circle cx="312" cy="144" r="9" fill="rgb(255,112,160)"/>
<circle cx="336" cy="144" r="12" fill="rgb(255,109,154)" opacity="0.35"/>
<circle cx="336" cy="144" r="9" fill="rgb(255,109,154)"/>
<circle cx="360" cy="144" r="12" fill="rgb(255,106,149)" opacity="0.35"/>
<circle cx="360" cy="144" r="9" fill="rgb(255,106,149)"/>
<circle cx="384" cy="144" r="12" fill="rgb(255,103,144)" opacity="0.35"/>
<circle cx="384" cy="144" r="9" fill="rgb(255,103,144)"/>
<circle cx="24" cy="168" r="12" fill="rgb(255,137,149)" opacity="0.35"/>
<circle cx="24" cy="168" r="9" fill="rgb(255,137,149)"/>
<circle cx="48" cy="168" r="12" fill="rgb(255,139,148)" opacity="0.35"/>
<circle cx="48" cy="168" r="9" fill="rgb(255,139,148)"/>
<circle cx="72" cy="168" r="12" fill="rgb(255,139,148)" opacity="0.35"/>
<circle cx="72" cy="168" r="9" fill="rgb(255,139,148)"/>
<circle cx="96" cy="168" r="12" fill="rgb(255,139,148)" opacity="0.35"/>
<circle cx="96" cy="168" r="9" fill="rgb(255,139,148)"/>
<circle cx="120" cy="168" r="12" fill="rgb(255,138,149)" opacity="0.35"/>
<circle cx="120" cy="168" r="9" fill="rgb(255,138,149)"/>
<circle cx="144" cy="168" r="12" fill="rgb(255,137,150)" opacity="0.35"/>
<circle cx="144" cy="168" r="9" fill="rgb(255,137,150)"/>
<circle cx="168" cy="168" r="12" fill="rgb(255,134,151)" opacity="0.35"/>
<circle cx="168" cy="168" r="9" fill="rgb(255,134,151)"/>
<circle cx="192" cy="168" r="12" fill="rgb(255,182,195)" opacity="0.35"/>
<circle cx="192" cy="168" r="9" fill="rgb(255,182,195)"/>
<circle cx="216" cy="168" r="12" fill="rgb(255,255,255)" opacity="0.35"/>
<circle cx="216" cy="168" r="9" fill="rgb(255,255,255)"/>
<circle cx="240" cy="168" r="12" fill="rgb(255,157,184)" opacity="0.35"/>
<circle cx="240" cy="168" r="9" fill="rgb(255,157,184)"/>
<circle cx="264" cy="168" r="12" fill="rgb(255,119,161)" opacity="0.35"/>
<circle cx="264" cy="168" r="9" fill="rgb(255,119,161)"/>
<circle cx="288" cy="168" r="12" fill="rgb(255,115,162)" opacity="0.35"/>
<circle cx="288" cy="168" r="9" fill="rgb(255,115,162)"/>
<circle cx="312" cy="168" r="12" fill="rgb(255,112,159)" opacity="0.35"/>
<circle cx="312" cy="168" r="9" fill="rgb(255,112,159)"/>
<circle cx="336" cy="168" r="12" fill="rgb(255,109,154)" opacity="0.35"/>
<circle cx="336" cy="168" r="9" fill="rgb(255,109,154)"/>
<circle cx="360" cy="168" r="12" fill="rgb(255,106,149)" opacity="0.35"/>
<circle cx="360" cy="168" r="9" fill="rgb(255,106,149)"/>
<circle cx="384" cy="168" r="12" fill="rgb(255,103,144)" opacity="0.35"/>
<circle cx="384" cy="168" r="9" fill="rgb(255,103,144)"/>
<circle cx="24" cy="192" r="12" fill="rgb(255,136,150)" opacity="0.35"/>
<circle cx="24" cy="192" r="9" fill="rgb(255,136,150)"/>
<circle cx="48" cy="192" r="12" fill="rgb(255,137,149)" opacity="0.35"/>
<circle cx="48" cy="192" r="9" fill="rgb(255,137,149)"/>
<circle cx="72" cy="192" r="12" fill="rgb(255,138,149)" opacity="0.35"/>
<circle cx="72" cy="192" r="9" fill="rgb(255,138,149)"/>
<circle cx="96" cy="192" r="12" fill="rgb(255,138,149)" opacity="0.35"/>
<circle cx="96" cy="192" r="9" fill="rgb(255,138,149)"/>
<circle cx="120" cy="192" r="12" fill="rgb(255,137,149)" opacity="0.35"/>
<circle cx="120" cy="192" r="9" fill="rgb(255,137,149)"/>
<circle cx="144" cy="192" r="12" fill="rgb(255,135,150)" opacity="0.35"/>
<circle cx="144" cy="192" r="9" fill="rgb(255,135,150)"/>
<circle cx="168" cy="192" r="12" fill="rgb(255,133,152)" opacity="0.35"/>
<circle cx="168" cy="192" r="9" fill="rgb(255,133,152)"/>
<circle cx="192" cy="192" r="12" fill="rgb(255,234,238)" opacity="0.35"/>
<circle cx="192" cy="192" r="9" fill="rgb(255,234,238)"/>
<circle cx="216" cy="192" r="12" fill="rgb(255,233,238)" opacity="0.35"/>
<circle cx="216" cy="192" r="9" fill="rgb(255,233,238)"/>
<circle cx="240" cy="192" r="12" fill="rgb(255,123,160)" opacity="0.35"/>
<circle cx="240" cy="192" r="9" fill="rgb(255,123,160)"/>
<circle cx="264" cy="192" r="12" fill="rgb(255,119,161)" opacity="0.35"/>
<circle cx="264" cy="192" r="9" fill="rgb(255,119,161)"/>
<circle cx="288" cy="192" r="12" fill="rgb(255,115,163)" opacity="0.35"/>
<circle cx="288" cy="192" r="9" fill="rgb(255,115,163)"/>
<circle cx="312" cy="192" r="12" fill="rgb(255,111,159)" opacity="0.35"/>
<circle cx="312" cy="192" r="9" fill="rgb(255,111,159)"/>
<circle cx="336" cy="192" r="12" fill="rgb(255,108,153)" opacity="0.35"/>
<circle cx="336" cy="192" r="9" fill="rgb(255,108,153)"/>
<circle cx="360" cy="192" r="12" fill="rgb(255,105,148)" opacity="0.35"/>
<circle cx="360" cy="192" r="9" fill="rgb(255,105,148)"/>
<circle cx="384" cy="192" r="12" fill="rgb(255,103,144)" opacity="0.35"/>
<circle cx="384" cy="192" r="9" fill="rgb(255,103,144)"/>
<circle cx="24" cy="216" r="12" fill="rgb(255,134,151)" opacity="0.35"/>
<circle cx="24" cy="216" r="9" fill="rgb(255,134,151)"/>
<circle cx="48" cy="216" r="12" fill="rgb(255,136,150)" opacity="0.35"/>
<circle cx="48" cy="216" r="9" fill="rgb(255,136,150)"/>
<circle cx="72" cy="216" r="12" fill="rgb(255,137,150)" opacity="0.35"/>
<circle cx="72" cy="216" r="9" fill="rgb(255,137,150)"/>
<circle cx="96" cy="216" r="12" fill="rgb(255,137,150)" opacity="0.35"/>
<circle cx="96" cy="216" r="9" fill="rgb(255,137,150)"/>
<circle cx="120" cy="216" r="12" fill="rgb(255,136,150)" opacity="0.35"/>
<circle cx="120" cy="216" r="9" fill="rgb(255,136,150)"/>
<circle cx="144" cy="216" r="12" fill="rgb(255,134,151)" opacity="0.35"/>
<circle cx="144" cy="216" r="9" fill="rgb(255,134,151)"/>
<circle cx="168" cy="216" r="12" fill="rgb(255,165,180)" opacity="0.35"/>
<circle cx="168" cy="216" r="9" fill="rgb(255,165,180)"/>
<circle cx="192" cy="216" r="12" fill="rgb(255,255,255)" opacity="0.35"/>
<circle cx="192" cy="216" r="9" fill="rgb(255,255,255)"/>
<circle cx="216" cy="216" r="12" fill="rgb(255,178,197)" opacity="0.35"/>
<circle cx="216" cy="216" r="9" fill="rgb(255,178,197)"/>
<circle cx="240" cy="216" r="12" fill="rgb(255,122,160)" opacity="0.35"/>
<circle cx="240" cy="216" r="9" fill="rgb(255,122,160)"/>
<circle cx="264" cy="216" r="12" fill="rgb(255,118,162)" opacity="0.35"/>
<circle cx="264" cy="216" r="9" fill="rgb(255,118,162)"/>
<circle cx="288" cy="216" r="12" fill="rgb(255,114,163)" opacity="0.35"/>
<circle cx="288" cy="216" r="9" fill="rgb(255,114,163)"/>
<circle cx="312" cy="216" r="12" fill="rgb(255,111,158)" opacity="0.35"/>
<circle cx="312" cy="216" r="9" fill="rgb(255,111,158)"/>
<circle cx="336" cy="216" r="12" fill="rgb(255,108,152)" opacity="0.35"/>
<circle cx="336" cy="216" r="9" fill="rgb(255,108,152)"/>
<circle cx="360" cy="216" r="12" fill="rgb(255,105,148)" opacity="0.35"/>
<circle cx="360" cy="216" r="9" fill="rgb(255,105,148)"/>
<circle cx="384" cy="216" r="12" fill="rgb(255,102,143)" opacity="0.35"/>
<circle cx="384" cy="216" r="9" fill="rgb(255,102,143)"/>
<circle cx="24" cy="240" r="12" fill="rgb(255,133,152)" opacity="0.35"/>
<circle cx="24" cy="240" r="9" fill="rgb(255,133,152)"/>
<circle cx="48" cy="240" r="12" fill="rgb(255,134,151)" opacity="0.35"/>
<circle cx="48" cy="240" r="9" fill="rgb(255,134,151)"/>
<circle cx="72" cy="240" r="12" fill="rgb(255,135,150)" opacity="0.35"/>
<circle cx="72" cy="240" r="9" fill="rgb(255,135,150)"/>
<circle cx="96" cy="240" r="12" fill="rgb(255,135,150)" opacity="0.35"/>
<circle cx="96" cy="240" r="9" fill="rgb(255,135,150)"/>
<circle cx="120" cy="240" r="12" fill="rgb(255,134,151)" opacity="0.35"/>
<circle cx="120" cy="240" r="9" fill="rgb(255,134,151)"/>
<circle cx="144" cy="240" r="12" fill="rgb(255,133,152)" opacity="0.35"/>
<circle cx="144" cy="240" r="9" fill="rgb(255,133,152)"/>
<circle cx="168" cy="240" r="12" fill="rgb(255,224,230)" opacity="0.35"/>
<circle cx="168" cy="240" r="9" fill="rgb(255,224,230)"/>
<circle cx="192" cy="240" r="12" fill="rgb(255,242,245)" opacity="0.35"/>
<circle cx="192" cy="240" r="9" fill="rgb(255,242,245)"/>
<circle cx="216" cy="240" r="12" fill="rgb(255,124,158)" opacity="0.35"/>
<circle cx="216" cy="240" r="9" fill="rgb(255,124,158)"/>
<circle cx="240" cy="240" r="12" fill="rgb(255,121,160)" opacity="0.35"/>
<circle cx="240" cy="240" r="9" fill="rgb(255,121,160)"/>
<circle cx="264" cy="240" r="12" fill="rgb(255,117,162)" opacity="0.35"/>
<circle cx="264" cy="240" r="9" fill="rgb(255,117,162)"/>
<circle cx="288" cy="240" r="12" fill="rgb(255,113,162)" opacity="0.35"/>
<circle cx="288" cy="240" r="9" fill="rgb(255,113,162)"/>
<circle cx="312" cy="240" r="12" fill="rgb(255,110,157)" opacity="0.35"/>
<circle cx="312" cy="240" r="9" fill="rgb(255,110,157)"/>
<circle cx="336" cy="240" r="12" fill="rgb(255,107,152)" opacity="0.35"/>
<circle cx="336" cy="240" r="9" fill="rgb(255,107,152)"/>
<circle cx="360" cy="240" r="12" fill="rgb(255,105,147)" opacity="0.35"/>
<circle cx="360" cy="240" r="9" fill="rgb(255,105,147)"/>
<circle cx="384" cy="240" r="12" fill="rgb(255,102,142)" opacity="0.35"/>
<circle cx="384" cy="240" r="9" fill="rgb(255,102,142)"/>
<circle cx="24" cy="264" r="12" fill="rgb(255,131,153)" opacity="0.35"/>
<circle cx="24" cy="264" r="9" fill="rgb(255,131,153)"/>
<circle cx="48" cy="264" r="12" fill="rgb(255,133,152)" opacity="0.35"/>
<circle cx="48" cy="264" r="9" fill="rgb(255,133,152)"/>
<circle cx="72" cy="264" r="12" fill="rgb(255,134,151)" opacity="0.35"/>
<circle cx="72" cy="264" r="9" fill="rgb(255,134,151)"/>
<circle cx="96" cy="264" r="12" fill="rgb(255,134,151)" opacity="0.35"/>
<circle cx="96" cy="264" r="9" fill="rgb(255,134,151)"/>
<circle cx="120" cy="264" r="12" fill="rgb(255,133,152)" opacity="0.35"/>
<circle cx="120" cy="264" r="9" fill="rgb(255,133,152)"/>
<circle cx="144" cy="264" r="12" fill="rgb(255,144,164)" opacity="0.35"/>
<circle cx="144" cy="264" r="9" fill="rgb(255,144,164)"/>
<circle cx="168" cy="264" r="12" fill="rgb(255,253,253)" opacity="0.35"/>
<circle cx="168" cy="264" r="9" fill="rgb(255,253,253)"/>
<circle cx="192" cy="264" r="12" fill="rgb(255,195,209)" opacity="0.35"/>
<circle cx="192" cy="264" r="9" fill="rgb(255,195,209)"/>
<circle cx="216" cy="264" r="12" fill="rgb(255,123,159)" opacity="0.35"/>
<circle cx="216" cy="264" r="9" fill="rgb(255,123,159)"/>
<circle cx="240" cy="264" r="12" fill="rgb(255,120,161)" opacity="0.35"/>
<circle cx="240" cy="264" r="9" fill="rgb(255,120,161)"/>
<circle cx="264" cy="264" r="12" fill="rgb(255,116,162)" opacity="0.35"/>
<circle cx="264" cy="264" r="9" fill="rgb(255,116,162)"/>
<circle cx="288" cy="264" r="12" fill="rgb(255,113,161)" opacity="0.35"/>
<circle cx="288" cy="264" r="9" fill="rgb(255,113,161)"/>
<circle cx="312" cy="264" r="12" fill="rgb(255,110,156)" opacity="0.35"/>
<circle cx="312" cy="264" r="9" fill="rgb(255,110,156)"/>
<circle cx="336" cy="264" r="12" fill="rgb(255,107,151)" opacity="0.35"/>
<circle cx="336" cy="264" r="9" fill="rgb(255,107,151)"/>
<circle cx="360" cy="264" r="12" fill="rgb(255,104,146)" opacity="0.35"/>
<circle cx="360" cy="264" r="9" fill="rgb(255,104,146)"/>
<circle cx="384" cy="264" r="12" fill="rgb(255,102,142)" opacity="0.35"/>
<circle cx="384" cy="264" r="9" fill="rgb(255,102,142)"/>
<circle cx="24" cy="288" r="12" fill="rgb(255,130,154)" opacity="0.35"/>
<circle cx="24" cy="288" r="9" fill="rgb(255,130,154)"/>
<circle cx="48" cy="288" r="12" fill="rgb(255,131,153)" opacity="0.35"/>
<circle cx="48" cy="288" r="9" fill="rgb(255,131,153)"/>
<circle cx="72" cy="288" r="12" fill="rgb(255,132,152)" opacity="0.35"/>
<circle cx="72" cy="288" r="9" fill="rgb(255,132,152)"/>
<circle cx="96" cy="288" r="12" fill="rgb(255,132,152)" opacity="0.35"/>
<circle cx="96" cy="288" r="9" fill="rgb(255,132,152)"/>
<circle cx="120" cy="288" r="12" fill="rgb(255,132,153)" opacity="0.35"/>
<circle cx="120" cy="288" r="9" fill="rgb(255,132,153)"/>
<circle cx="144" cy="288" r="12" fill="rgb(255,212,220)" opacity="0.35"/>
<circle cx="144" cy="288" r="9" fill="rgb(255,212,220)"/>
<circle cx="168" cy="288" r="12" fill="rgb(255,248,250)" opacity="0.35"/>
<circle cx="168" cy="288" r="9" fill="rgb(255,248,250)"/>
<circle cx="192" cy="288" r="12" fill="rgb(255,125,157)" opacity="0.35"/>
<circle cx="192" cy="288" r="9" fill="rgb(255,125,157)"/>
<circle cx="216" cy="288" r="12" fill="rgb(255,122,160)" opacity="0.35"/>
<circle cx="216" cy="288" r="9" fill="rgb(255,122,160)"/>
<circle cx="240" cy="288" r="12" fill="rgb(255,119,161)" opacity="0.35"/>
<circle cx="240" cy="288" r="9" fill="rgb(255,119,161)"/>
<circle cx="264" cy="288" r="12" fill="rgb(255,115,163)" opacity="0.35"/>
<circle cx="264" cy="288" r="9" fill="rgb(255,115,163)"/>
<circle cx="288" cy="288" r="12" fill="rgb(255,112,160)" opacity="0.35"/>
<circle cx="288" cy="288" r="9" fill="rgb(255,112,160)"/>
<circle cx="312" cy="288" r="12" fill="rgb(255,109,155)" opacity="0.35"/>
<circle cx="312" cy="288" r="9" fill="rgb(255,109,155)"/>
<circle cx="336" cy="288" r="12" fill="rgb(255,106,150)" opacity="0.35"/>
<circle cx="336" cy="288" r="9" fill="rgb(255,106,150)"/>
<circle cx="360" cy="288" r="12" fill="rgb(255,104,145)" opacity="0.35"/>
<circle cx="360" cy="288" r="9" fill="rgb(255,104,145)"/>
<circle cx="384" cy="288" r="12" fill="rgb(255,101,141)" opacity="0.35"/>
<circle cx="384" cy="288" r="9" fill="rgb(255,101,141)"/>
<circle cx="24" cy="312" r="12" fill="rgb(255,128,155)" opacity="0.35"/>
<circle cx="24" cy="312" r="9" fill="rgb(255,128,155)"/>
<circle cx="48" cy="312" r="12" fill="rgb(255,130,154)" opacity="0.35"/>
<circle cx="48" cy="312" r="9" fill="rgb(255,130,154)"/>
<circle cx="72" cy="312" r="12" fill="rgb(255,131,153)" opacity="0.35"/>
<circle cx="72" cy="312" r="9" fill="rgb(255,131,153)"/>
<circle cx="96" cy="312" r="12" fill="rgb(255,131,153)" opacity="0.35"/>
<circle cx="96" cy="312" r="9" fill="rgb(255,131,153)"/>
<circle cx="120" cy="312" r="12" fill="rgb(255,130,154)" opacity="0.35"/>
<circle cx="120" cy="312" r="9" fill="rgb(255,130,154)"/>
<circle cx="144" cy="312" r="12" fill="rgb(255,249,250)" opacity="0.35"/>
<circle cx="144" cy="312" r="9" fill="rgb(255,249,250)"/>
<circle cx="168" cy="312" r="12" fill="rgb(255,210,220)" opacity="0.35"/>
<circle cx="168" cy="312" r="9" fill="rgb(255,210,220)"/>
<circle cx="192" cy="312" r="12" fill="rgb(255,124,158)" opacity="0.35"/>
<circle cx="192" cy="312" r="9" fill="rgb(255,124,158)"/>
<circle cx="216" cy="312" r="12" fill="rgb(255,121,160)" opacity="0.35"/>
<circle cx="216" cy="312" r="9" fill="rgb(255,121,160)"/>
<circle cx="240" cy="312" r="12" fill="rgb(255,118,162)" opacity="0.35"/>
<circle cx="240" cy="312" r="9" fill="rgb(255,118,162)"/>
<circle cx="264" cy="312" r="12" fill="rgb(255,114,163)" opacity="0.35"/>
<circle cx="264" cy="312" r="9" fill="rgb(255,114,163)"/>
<circle cx="288" cy="312" r="12" fill="rgb(255,111,159)" opacity="0.35"/>
<circle cx="288" cy="312" r="9" fill="rgb(255,111,159)"/>
<circle cx="312" cy="312" r="12" fill="rgb(255,108,154)" opacity="0.35"/>
<circle cx="312" cy="312" r="9" fill="rgb(255,108,154)"/>
<circle cx="336" cy="312" r="12" fill="rgb(255,106,149)" opacity="0.35"/>
<circle cx="336" cy="312" r="9" fill="rgb(255,106,149)"/>
<circle cx="360" cy="312" r="12" fill="rgb(255,103,145)" opacity="0.35"/>
<circle cx="360" cy="312" r="9" fill="rgb(255,103,145)"/>
<circle cx="384" cy="312" r="12" fill="rgb(255,101,140)" opacity="0.35"/>
<circle cx="384" cy="312" r="9" fill="rgb(255,101,140)"/>
<circle cx="24" cy="336" r="12" fill="rgb(255,127,156)" opacity="0.35"/>
<circle cx="24" cy="336" r="9" fill="rgb(255,127,156)"/>
<circle cx="48" cy="336" r="12" fill="rgb(255,128,155)" opacity="0.35"/>
<circle cx="48" cy="336" r="9" fill="rgb(255,128,155)"/>
<circle cx="72" cy="336" r="12" fill="rgb(255,129,154)" opacity="0.35"/>
<circle cx="72" cy="336" r="9" fill="rgb(255,129,154)"/>
<circle cx="96" cy="336" r="12" fill="rgb(255,129,154)" opacity="0.35"/>
<circle cx="96" cy="336" r="9" fill="rgb(255,129,154)"/>
<circle cx="120" cy="336" r="12" fill="rgb(255,197,209)" opacity="0.35"/>
<circle cx="120" cy="336" r="9" fill="rgb(255,197,209)"/>
<circle cx="144" cy="336" r="12" fill="rgb(255,253,253)" opacity="0.35"/>
<circle cx="144" cy="336" r="9" fill="rgb(255,253,253)"/>
<circle cx="168" cy="336" r="12" fill="rgb(255,138,167)" opacity="0.35"/>
<circle cx="168" cy="336" r="9" fill="rgb(255,138,167)"/>
<circle cx="192" cy="336" r="12" fill="rgb(255,123,159)" opacity="0.35"/>
<circle cx="192" cy="336" r="9" fill="rgb(255,123,159)"/>
<circle cx="216" cy="336" r="12" fill="rgb(255,120,161)" opacity="0.35"/>
<circle cx="216" cy="336" r="9" fill="rgb(255,120,161)"/>
<circle cx="240" cy="336" r="12" fill="rgb(255,117,162)" opacity="0.35"/>
<circle cx="240" cy="336" r="9" fill="rgb(255,117,162)"/>
<circle cx="264" cy="336" r="12" fill="rgb(255,113,162)" opacity="0.35"/>
<circle cx="264" cy="336" r="9" fill="rgb(255,113,162)"/>
<circle cx="288" cy="336" r="12" fill="rgb(255,111,157)" opacity="0.35"/>
<circle cx="288" cy="336" r="9" fill="rgb(255,111,157)"/>
<circle cx="312" cy="336" r="12" fill="rgb(255,108,153)" opacity="0.35"/>
<circle cx="312" cy="336" r="9" fill="rgb(255,108,153)"/>
<circle cx="336" cy="336" r="12" fill="rgb(255,105,148)" opacity="0.35"/>
<circle cx="336" cy="336" r="9" fill="rgb(255,105,148)"/>
<circle cx="360" cy="336" r="12" fill="rgb(255,103,144)" opacity="0.35"/>
<circle cx="360" cy="336" r="9" fill="rgb(255,103,144)"/>
<circle cx="384" cy="336" r="12" fill="rgb(255,100,139)" opacity="0.35"/>
<circle cx="384" cy="336" r="9" fill="rgb(255,100,139)"/>
<circle cx="24" cy="360" r="12" fill="rgb(255,125,157)" opacity="0.35"/>
<circle cx="24" cy="360" r="9" fill="rgb(255,125,157)"/>
<circle cx="48" cy="360" r="12" fill="rgb(255,127,156)" opacity="0.35"/>
<circle cx="48" cy="360" r="9" fill="rgb(255,127,156)"/>
<circle cx="72" cy="360" r="12" fill="rgb(255,128,156)" opacity="0.35"/>
<circle cx="72" cy="360" r="9" fill="rgb(255,128,156)"/>
<circle cx="96" cy="360" r="12" fill="rgb(255,128,155)" opacity="0.35"/>
<circle cx="96" cy="360" r="9" fill="rgb(255,128,155)"/>
<circle cx="120" cy="360" r="12" fill="rgb(255,242,245)" opacity="0.35"/>
<circle cx="120" cy="360" r="9" fill="rgb(255,242,245)"/>
<circle cx="144" cy="360" r="12" fill="rgb(255,222,230)" opacity="0.35"/>
<circle cx="144" cy="360" r="9" fill="rgb(255,222,230)"/>
<circle cx="168" cy="360" r="12" fill="rgb(255,124,158)" opacity="0.35"/>
<circle cx="168" cy="360" r="9" fill="rgb(255,124,158)"/>
<circle cx="192" cy="360" r="12" fill="rgb(255,121,160)" opacity="0.35"/>
<circle cx="192" cy="360" r="9" fill="rgb(255,121,160)"/>
<circle cx="216" cy="360" r="12" fill="rgb(255,119,161)" opacity="0.35"/>
<circle cx="216" cy="360" r="9" fill="rgb(255,119,161)"/>
<circle cx="240" cy="360" r="12" fill="rgb(255,116,162)" opacity="0.35"/>
<circle cx="240" cy="360" r="9" fill="rgb(255,116,162)"/>
<circle cx="264" cy="360" r="12" fill="rgb(255,113,161)" opacity="0.35"/>
<circle cx="264" cy="360" r="9" fill="rgb(255,113,161)"/>
<circle cx="288" cy="360" r="12" fill="rgb(255,110,156)" opacity="0.35"/>
<circle cx="288" cy="360" r="9" fill="rgb(255,110,156)"/>
<circle cx="312" cy="360" r="12" fill="rgb(255,107,151)" opacity="0.35"/>
<circle cx="312" cy="360" r="9" fill="rgb(255,107,151)"/>
<circle cx="336" cy="360" r="12" fill="rgb(255,105,147)" opacity="0.35"/>
<circle cx="336" cy="360" r="9" fill="rgb(255,105,147)"/>
<circle cx="360" cy="360" r="12" fill="rgb(255,102,143)" opacity="0.35"/>
<circle cx="360" cy="360" r="9" fill="rgb(255,102,143)"/>
<circle cx="384" cy="360" r="12" fill="rgb(255,100,139)" opacity="0.35"/>
<circle cx="384" cy="360" r="9" fill="rgb(255,100,139)"/>
<circle cx="24" cy="384" r="12" fill="rgb(255,124,159)" opacity="0.35"/>
<circle cx="24" cy="384" r="9" fill="rgb(255,124,159)"/>
<circle cx="48" cy="384" r="12" fill="rgb(255,125,157)" opacity="0.35"/>
<circle cx="48" cy="384" r="9" fill="rgb(255,125,157)"/>
<circle cx="72" cy="384" r="12" fill="rgb(255,126,157)" opacity="0.35"/>
<circle cx="72" cy="384" r="9" fill="rgb(255,126,157)"/>
<circle cx="96" cy="384" r="12" fill="rgb(255,179,197)" opacity="0.35"/>
<circle cx="96" cy="384" r="9" fill="rgb(255,179,197)"/>
<circle cx="120" cy="384" r="12" fill="rgb(255,255,255)" opacity="0.35"/>
<circle cx="120" cy="384" r="9" fill="rgb(255,255,255)"/>
<circle cx="144" cy="384" r="12" fill="rgb(255,158,183)" opacity="0.35"/>
<circle cx="144" cy="384" r="9" fill="rgb(255,158,183)"/>
<circle cx="168" cy="384" r="12" fill="rgb(255,123,160)" opacity="0.35"/>
<circle cx="168" cy="384" r="9" fill="rgb(255,123,160)"/>
<circle cx="192" cy="384" r="12" fill="rgb(255,120,161)" opacity="0.35"/>
<circle cx="192" cy="384" r="9" fill="rgb(255,120,161)"/>
<circle cx="216" cy="384" r="12" fill="rgb(255,118,162)" opacity="0.35"/>
<circle cx="216" cy="384" r="9" fill="rgb(255,118,162)"/>
<circle cx="240" cy="384" r="12" fill="rgb(255,114,163)" opacity="0.35"/>
<circle cx="240" cy="384" r="9" fill="rgb(255,114,163)"/>
<circle cx="264" cy="384" r="12" fill="rgb(255,112,159)" opacity="0.35"/>
<circle cx="264" cy="384" r="9" fill="rgb(255,112,159)"/>
<circle cx="288" cy="384" r="12" fill="rgb(255,109,155)" opacity="0.35"/>
<circle cx="288" cy="384" r="9" fill="rgb(255,109,155)"/>
<circle cx="312" cy="384" r="12" fill="rgb(255,107,150)" opacity="0.35"/>
<circle cx="312" cy="384" r="9" fill="rgb(255,107,150)"/>
<circle cx="336" cy="384" r="12" fill="rgb(255,104,146)" opacity="0.35"/>
<circle cx="336" cy="384" r="9" fill="rgb(255,104,146)"/>
<circle cx="360" cy="384" r="12" fill="rgb(255,102,142)" opacity="0.35"/>
<circle cx="360" cy="384" r="9" fill="rgb(255,102,142)"/>
<circle cx="384" cy="384" r="12" fill="rgb(255,99,138)" opacity="0.35"/>
<circle cx="384" cy="384" r="9" fill="rgb(255,99,138)"/>
</svg>
