<svg xmlns="http://www.w3.org/2000/svg" viewBox="0 0 408 408" width="408" height="408" role="img" aria-label="LED preview of the Palette Gradient example graph">
<rect width="408" height="408" rx="10" fill="#05070a"/>
<circle cx="24" cy="24" r="12" fill="rgb(9,72,152)" opacity="0.35"/>
<circle cx="24" cy="24" r="9" fill="rgb(9,72,152)"/>
<circle cx="48" cy="24" r="12" fill="rgb(9,69,146)" opacity="0.35"/>
<circle cx="48" cy="24" r="9" fill="rgb(9,69,146)"/>
<circle cx="72" cy="24" r="12" fill="rgb(8,66,140)" opacity="0.35"/>
<circle cx="72" cy="24" r="9" fill="rgb(8,66,140)"/>
<circle cx="96" cy="24" r="12" fill="rgb(8,63,135)" opacity="0.35"/>
<circle cx="96" cy="24" r="9" fill="rgb(8,63,135)"/>
<circle cx="120" cy="24" r="12" fill="rgb(8,60,129)" opacity="0.35"/>
<circle cx="120" cy="24" r="9" fill="rgb(8,60,129)"/>
<circle cx="144" cy="24" r="12" fill="rgb(7,57,124)" opacity="0.35"/>
<circle cx="144" cy="24" r="9" fill="rgb(7,57,124)"/>
<circle cx="168" cy="24" r="12" fill="rgb(7,55,118)" opacity="0.35"/>
<circle cx="168" cy="24" r="9" fill="rgb(7,55,118)"/>
<circle cx="192" cy="24" r="12" fill="rgb(6,52,113)" opacity="0.35"/>
<circle cx="192" cy="24" r="9" fill="rgb(6,52,113)"/>
<circle cx="216" cy="24" r="12" fill="rgb(6,49,107)" opacity="0.35"/>
<circle cx="216" cy="24" r="9" fill="rgb(6,49,107)"/>
<circle cx="240" cy="24" r="12" fill="rgb(5,46,101)" opacity="0.35"/>
<circle cx="240" cy="24" r="9" fill="rgb(5,46,101)"/>
<circle cx="264" cy="24" r="12" fill="rgb(5,43,96)" opacity="0.35"/>
<circle cx="264" cy="24" r="9" fill="rgb(5,43,96)"/>
<circle cx="288" cy="24" r="12" fill="rgb(5,40,90)" opacity="0.35"/>
<circle cx="288" cy="24" r="9" fill="rgb(5,40,90)"/>
<circle cx="312" cy="24" r="12" fill="rgb(4,38,85)" opacity="0.35"/>
<circle cx="312" cy="24" r="9" fill="rgb(4,38,85)"/>
<circle cx="336" cy="24" r="12" fill="rgb(4,35,79)" opacity="0.35"/>
<circle cx="336" cy="24" r="9" fill="rgb(4,35,79)"/>
<circle cx="360" cy="24" r="12" fill="rgb(3,32,74)" opacity="0.35"/>
<circle cx="360" cy="24" r="9" fill="rgb(3,32,74)"/>
<circle cx="384" cy="24" r="12" fill="rgb(3,29,68)" opacity="0.35"/>
<circle cx="384" cy="24" r="9" fill="rgb(3,29,68)"/>
<circle cx="24" cy="48" r="12" fill="rgb(10,83,167)" opacity="0.35"/>
<circle cx="24" cy="48" r="9" fill="rgb(10,83,167)"/>
<circle cx="48" cy="48" r="12" fill="rgb(10,79,164)" opacity="0.35"/>
<circle cx="48" cy="48" r="9" fill="rgb(10,79,164)"/>
<circle cx="72" cy="48" r="12" fill="rgb(10,76,160)" opacity="0.35"/>
<circle cx="72" cy="48" r="9" fill="rgb(10,76,160)"/>
<circle cx="96" cy="48" r="12" fill="rgb(9,73,154)" opacity="0.35"/>
<circle cx="96" cy="48" r="9" fill="rgb(9,73,154)"/>
<circle cx="120" cy="48" r="12" fill="rgb(9,70,149)" opacity="0.35"/>
<circle cx="120" cy="48" r="9" fill="rgb(9,70,149)"/>
<circle cx="144" cy="48" r="12" fill="rgb(9,67,143)" opacity="0.35"/>
<circle cx="144" cy="48" r="9" fill="rgb(9,67,143)"/>
<circle cx="168" cy="48" r="12" fill="rgb(8,65,138)" opacity="0.35"/>
<circle cx="168" cy="48" r="9" fill="rgb(8,65,138)"/>
<circle cx="192" cy="48" r="12" fill="rgb(8,62,132)" opacity="0.35"/>
<circle cx="192" cy="48" r="9" fill="rgb(8,62,132)"/>
<circle cx="216" cy="48" r="12" fill="rgb(7,59,126)" opacity="0.35"/>
<circle cx="216" cy="48" r="9" fill="rgb(7,59,126)"/>
<circle cx="240" cy="48" r="12" fill="rgb(7,56,121)" opacity="0.35"/>
<circle cx="240" cy="48" r="9" fill="rgb(7,56,121)"/>
<circle cx="264" cy="48" r="12" fill="rgb(7,53,115)" opacity="0.35"/>
<circle cx="264" cy="48" r="9" fill="rgb(7,53,115)"/>
<circle cx="288" cy="48" r="12" fill="rgb(6,50,110)" opacity="0.35"/>
<circle cx="288" cy="48" r="9" fill="rgb(6,50,110)"/>
<circle cx="312" cy="48" r="12" fill="rgb(6,47,104)" opacity="0.35"/>
<circle cx="312" cy="48" r="9" fill="rgb(6,47,104)"/>
<circle cx="336" cy="48" r="12" fill="rgb(5,45,99)" opacity="0.35"/>
<circle cx="336" cy="48" r="9" fill="rgb(5,45,99)"/>
<circle cx="360" cy="48" r="12" fill="rgb(5,42,93)" opacity="0.35"/>
<circle cx="360" cy="48" r="9" fill="rgb(5,42,93)"/>
<circle cx="384" cy="48" r="12" fill="rgb(4,39,87)" opacity="0.35"/>
<circle cx="384" cy="48" r="9" fill="rgb(4,39,87)"/>
<circle cx="24" cy="72" r="12" fill="rgb(11,97,177)" opacity="0.35"/>
<circle cx="24" cy="72" r="9" fill="rgb(11,97,177)"/>
<circle cx="48" cy="72" r="12" fill="rgb(11,93,174)" opacity="0.35"/>
<circle cx="48" cy="72" r="9" fill="rgb(11,93,174)"/>
<circle cx="72" cy="72" r="12" fill="rgb(11,89,171)" opacity="0.35"/>
<circle cx="72" cy="72" r="9" fill="rgb(11,89,171)"/>
<circle cx="96" cy="72" r="12" fill="rgb(11,85,168)" opacity="0.35"/>
<circle cx="96" cy="72" r="9" fill="rgb(11,85,168)"/>
<circle cx="120" cy="72" r="12" fill="rgb(10,81,165)" opacity="0.35"/>
<circle cx="120" cy="72" r="9" fill="rgb(10,81,165)"/>
<circle cx="144" cy="72" r="12" fill="rgb(10,77,162)" opacity="0.35"/>
<circle cx="144" cy="72" r="9" fill="rgb(10,77,162)"/>
<circle cx="168" cy="72" r="12" fill="rgb(10,75,157)" opacity="0.35"/>
<circle cx="168" cy="72" r="9" fill="rgb(10,75,157)"/>
<circle cx="192" cy="72" r="12" fill="rgb(9,72,152)" opacity="0.35"/>
<circle cx="192" cy="72" r="9" fill="rgb(9,72,152)"/>
<circle cx="216" cy="72" r="12" fill="rgb(9,69,146)" opacity="0.35"/>
<circle cx="216" cy="72" r="9" fill="rgb(9,69,146)"/>
<circle cx="240" cy="72" r="12" fill="rgb(8,66,140)" opacity="0.35"/>
<circle cx="240" cy="72" r="9" fill="rgb(8,66,140)"/>
<circle cx="264" cy="72" r="12" fill="rgb(8,63,135)" opacity="0.35"/>
<circle cx="264" cy="72" r="9" fill="rgb(8,63,135)"/>
<circle cx="288" cy="72" r="12" fill="rgb(8,60,129)" opacity="0.35"/>
<circle cx="288" cy="72" r="9" fill="rgb(8,60,129)"/>
<circle cx="312" cy="72" r="12" fill="rgb(7,57,124)" opacity="0.35"/>
<circle cx="312" cy="72" r="9" fill="rgb(7,57,124)"/>
<circle cx="336" cy="72" r="12" fill="rgb(7,55,118)" opacity="0.35"/>
<circle cx="336" cy="72" r="9" fill="rgb(7,55,118)"/>
<circle cx="360" cy="72" r="12" fill="rgb(6,52,113)" opacity="0.35"/>
<circle cx="360" cy="72" r="9" fill="rgb(6,52,113)"/>
<circle cx="384" cy="72" r="12" fill="rgb(6,49,107)" opacity="0.35"/>
<circle cx="384" cy="72" r="9" fill="rgb(6,49,107)"/>
<circle cx="24" cy="96" r="12" fill="rgb(12,111,187)" opacity="0.35"/>
<circle cx="24" cy="96" r="9" fill="rgb(12,111,187)"/>
<circle cx="48" cy="96" r="12" fill="rgb(12,107,184)" opacity="0.35"/>
<circle cx="48" cy="96" r="9" fill="rgb(12,107,184)"/>
<circle cx="72" cy="96" r="12" fill="rgb(12,103,181)" opacity="0.35"/>
<circle cx="72" cy="96" r="9" fill="rgb(12,103,181)"/>
<circle cx="96" cy="96" r="12" fill="rgb(11,99,178)" opacity="0.35"/>
<circle cx="96" cy="96" r="9" fill="rgb(11,99,178)"/>
<circle cx="120" cy="96" r="12" fill="rgb(11,95,175)" opacity="0.35"/>
<circle cx="120" cy="96" r="9" fill="rgb(11,95,175)"/>
<circle cx="144" cy="96" r="12" fill="rgb(11,91,172)" opacity="0.35"/>
<circle cx="144" cy="96" r="9" fill="rgb(11,91,172)"/>
<circle cx="168" cy="96" r="12" fill="rgb(11,87,169)" opacity="0.35"/>
<circle cx="168" cy="96" r="9" fill="rgb(11,87,169)"/>
<circle cx="192" cy="96" r="12" fill="rgb(10,83,167)" opacity="0.35"/>
<circle cx="192" cy="96" r="9" fill="rgb(10,83,167)"/>
<circle cx="216" cy="96" r="12" fill="rgb(10,79,164)" opacity="0.35"/>
<circle cx="216" cy="96" r="9" fill="rgb(10,79,164)"/>
<circle cx="240" cy="96" r="12" fill="rgb(10,76,160)" opacity="0.35"/>
<circle cx="240" cy="96" r="9" fill="rgb(10,76,160)"/>
<circle cx="264" cy="96" r="12" fill="rgb(9,73,154)" opacity="0.35"/>
<circle cx="264" cy="96" r="9" fill="rgb(9,73,154)"/>
<circle cx="288" cy="96" r="12" fill="rgb(9,70,149)" opacity="0.35"/>
<circle cx="288" cy="96" r="9" fill="rgb(9,70,149)"/>
<circle cx="312" cy="96" r="12" fill="rgb(9,67,143)" opacity="0.35"/>
<circle cx="312" cy="96" r="9" fill="rgb(9,67,143)"/>
<circle cx="336" cy="96" r="12" fill="rgb(8,65,138)" opacity="0.35"/>
<circle cx="336" cy="96" r="9" fill="rgb(8,65,138)"/>
<circle cx="360" cy="96" r="12" fill="rgb(8,62,132)" opacity="0.35"/>
<circle cx="360" cy="96" r="9" fill="rgb(8,62,132)"/>
<circle cx="384" cy="96" r="12" fill="rgb(7,59,126)" opacity="0.35"/>
<circle cx="384" cy="96" r="9" fill="rgb(7,59,126)"/>
<circle cx="24" cy="120" r="12" fill="rgb(13,125,196)" opacity="0.35"/>
<circle cx="24" cy="120" r="9" fill="rgb(13,125,196)"/>
<circle cx="48" cy="120" r="12" fill="rgb(13,121,194)" opacity="0.35"/>
<circle cx="48" cy="120" r="9" fill="rgb(13,121,194)"/>
<circle cx="72" cy="120" r="12" fill="rgb(12,117,191)" opacity="0.35"/>
<circle cx="72" cy="120" r="9" fill="rgb(12,117,191)"/>
<circle cx="96" cy="120" r="12" fill="rgb(12,113,188)" opacity="0.35"/>
<circle cx="96" cy="120" r="9" fill="rgb(12,113,188)"/>
<circle cx="120" cy="120" r="12" fill="rgb(12,109,185)" opacity="0.35"/>
<circle cx="120" cy="120" r="9" fill="rgb(12,109,185)"/>
<circle cx="144" cy="120" r="12" fill="rgb(12,105,182)" opacity="0.35"/>
<circle cx="144" cy="120" r="9" fill="rgb(12,105,182)"/>
<circle cx="168" cy="120" r="12" fill="rgb(11,101,179)" opacity="0.35"/>
<circle cx="168" cy="120" r="9" fill="rgb(11,101,179)"/>
<circle cx="192" cy="120" r="12" fill="rgb(11,97,177)" opacity="0.35"/>
<circle cx="192" cy="120" r="9" fill="rgb(11,97,177)"/>
<circle cx="216" cy="120" r="12" fill="rgb(11,93,174)" opacity="0.35"/>
<circle cx="216" cy="120" r="9" fill="rgb(11,93,174)"/>
<circle cx="240" cy="120" r="12" fill="rgb(11,89,171)" opacity="0.35"/>
<circle cx="240" cy="120" r="9" fill="rgb(11,89,171)"/>
<circle cx="264" cy="120" r="12" fill="rgb(11,85,168)" opacity="0.35"/>
<circle cx="264" cy="120" r="9" fill="rgb(11,85,168)"/>
<circle cx="288" cy="120" r="12" fill="rgb(10,81,165)" opacity="0.35"/>
<circle cx="288" cy="120" r="9" fill="rgb(10,81,165)"/>
<circle cx="312" cy="120" r="12" fill="rgb(10,77,162)" opacity="0.35"/>
<circle cx="312" cy="120" r="9" fill="rgb(10,77,162)"/>
<circle cx="336" cy="120" r="12" fill="rgb(10,75,157)" opacity="0.35"/>
<circle cx="336" cy="120" r="9" fill="rgb(10,75,157)"/>
<circle cx="360" cy="120" r="12" fill="rgb(9,72,152)" opacity="0.35"/>
<circle cx="360" cy="120" r="9" fill="rgb(9,72,152)"/>
<circle cx="384" cy="120" r="12" fill="rgb(9,69,146)" opacity="0.35"/>
<circle cx="384" cy="120" r="9" fill="rgb(9,69,146)"/>
<circle cx="24" cy="144" r="12" fill="rgb(14,139,206)" opacity="0.35"/>
<circle cx="24" cy="144" r="9" fill="rgb(14,139,206)"/>
<circle cx="48" cy="144" r="12" fill="rgb(13,135,204)" opacity="0.35"/>
<circle cx="48" cy="144" r="9" fill="rgb(13,135,204)"/>
<circle cx="72" cy="144" r="12" fill="rgb(13,131,201)" opacity="0.35"/>
<circle cx="72" cy="144" r="9" fill="rgb(13,131,201)"/>
<circle cx="96" cy="144" r="12" fill="rgb(13,127,198)" opacity="0.35"/>
<circle cx="96" cy="144" r="9" fill="rgb(13,127,198)"/>
<circle cx="120" cy="144" r="12" fill="rgb(13,123,195)" opacity="0.35"/>
<circle cx="120" cy="144" r="9" fill="rgb(13,123,195)"/>
<circle cx="144" cy="144" r="12" fill="rgb(13,119,192)" opacity="0.35"/>
<circle cx="144" cy="144" r="9" fill="rgb(13,119,192)"/>
<circle cx="168" cy="144" r="12" fill="rgb(12,115,189)" opacity="0.35"/>
<circle cx="168" cy="144" r="9" fill="rgb(12,115,189)"/>
<circle cx="192" cy="144" r="12" fill="rgb(12,111,187)" opacity="0.35"/>
<circle cx="192" cy="144" r="9" fill="rgb(12,111,187)"/>
<circle cx="216" cy="144" r="12" fill="rgb(12,107,184)" opacity="0.35"/>
<circle cx="216" cy="144" r="9" fill="rgb(12,107,184)"/>
<circle cx="240" cy="144" r="12" fill="rgb(12,103,181)" opacity="0.35"/>
<circle cx="240" cy="144" r="9" fill="rgb(12,103,181)"/>
<circle cx="264" cy="144" r="12" fill="rgb(11,99,178)" opacity="0.35"/>
<circle cx="264" cy="144" r="9" fill="rgb(11,99,178)"/>
<circle cx="288" cy="144" r="12" fill="rgb(11,95,175)" opacity="0.35"/>
<circle cx="288" cy="144" r="9" fill="rgb(11,95,175)"/>
<circle cx="312" cy="144" r="12" fill="rgb(11,91,172)" opacity="0.35"/>
<circle cx="312" cy="144" r="9" fill="rgb(11,91,172)"/>
<circle cx="336" cy="144" r="12" fill="rgb(11,87,169)" opacity="0.35"/>
<circle cx="336" cy="144" r="9" fill="rgb(11,87,169)"/>
<circle cx="360" cy="144" r="12" fill="rgb(10,83,167)" opacity="0.35"/>
<circle cx="360" cy="144" r="9" fill="rgb(10,83,167)"/>
<circle cx="384" cy="144" r="12" fill="rgb(10,79,164)" opacity="0.35"/>
<circle cx="384" cy="144" r="9" fill="rgb(10,79,164)"/>
<circle cx="24" cy="168" r="12" fill="rgb(24,152,214)" opacity="0.35"/>
<circle cx="24" cy="168" r="9" fill="rgb(24,152,214)"/>
<circle cx="48" cy="168" r="12" fill="rgb(19,148,212)" opacity="0.35"/>
<circle cx="48" cy="168" r="9" fill="rgb(19,148,212)"/>
<circle cx="72" cy="168" r="12" fill="rgb(15,145,210)" opacity="0.35"/>
<circle cx="72" cy="168" r="9" fill="rgb(15,145,210)"/>
<circle cx="96" cy="168" r="12" fill="rgb(14,141,208)" opacity="0.35"/>
<circle cx="96" cy="168" r="9" fill="rgb(14,141,208)"/>
<circle cx="120" cy="168" r="12" fill="rgb(14,137,205)" opacity="0.35"/>
<circle cx="120" cy="168" r="9" fill="rgb(14,137,205)"/>
<circle cx="144" cy="168" r="12" fill="rgb(13,133,202)" opacity="0.35"/>
<circle cx="144" cy="168" r="9" fill="rgb(13,133,202)"/>
<circle cx="168" cy="168" r="12" fill="rgb(13,129,199)" opacity="0.35"/>
<circle cx="168" cy="168" r="9" fill="rgb(13,129,199)"/>
<circle cx="192" cy="168" r="12" fill="rgb(13,125,196)" opacity="0.35"/>
<circle cx="192" cy="168" r="9" fill="rgb(13,125,196)"/>
<circle cx="216" cy="168" r="12" fill="rgb(13,121,194)" opacity="0.35"/>
<circle cx="216" cy="168" r="9" fill="rgb(13,121,194)"/>
<circle cx="240" cy="168" r="12" fill="rgb(12,117,191)" opacity="0.35"/>
<circle cx="240" cy="168" r="9" fill="rgb(12,117,191)"/>
<circle cx="264" cy="168" r="12" fill="rgb(12,113,188)" opacity="0.35"/>
<circle cx="264" cy="168" r="9" fill="rgb(12,113,188)"/>
<circle cx="288" cy="168" r="12" fill="rgb(12,109,185)" opacity="0.35"/>
<circle cx="288" cy="168" r="9" fill="rgb(12,109,185)"/>
<circle cx="312" cy="168" r="12" fill="rgb(12,105,182)" opacity="0.35"/>
<circle cx="312" cy="168" r="9" fill="rgb(12,105,182)"/>
<circle cx="336" cy="168" r="12" fill="rgb(11,101,179)" opacity="0.35"/>
<circle cx="336" cy="168" r="9" fill="rgb(11,101,179)"/>
<circle cx="360" cy="168" r="12" fill="rgb(11,97,177)" opacity="0.35"/>
<circle cx="360" cy="168" r="9" fill="rgb(11,97,177)"/>
<circle cx="384" cy="168" r="12" fill="rgb(11,93,174)" opacity="0.35"/>
<circle cx="384" cy="168" r="9" fill="rgb(11,93,174)"/>
<circle cx="24" cy="192" r="12" fill="rgb(39,164,221)" opacity="0.35"/>
<circle cx="24" cy="192" r="9" fill="rgb(39,164,221)"/>
<circle cx="48" cy="192" r="12" fill="rgb(35,161,219)" opacity="0.35"/>
<circle cx="48" cy="192" r="9" fill="rgb(35,161,219)"/>
<circle cx="72" cy="192" r="12" fill="rgb(30,157,217)" opacity="0.35"/>
<circle cx="72" cy="192" r="9" fill="rgb(30,157,217)"/>
<circle cx="96" cy="192" r="12" fill="rgb(26,154,215)" opacity="0.35"/>
<circle cx="96" cy="192" r="9" fill="rgb(26,154,215)"/>
<circle cx="120" cy="192" r="12" fill="rgb(22,150,213)" opacity="0.35"/>
<circle cx="120" cy="192" r="9" fill="rgb(22,150,213)"/>
<circle cx="144" cy="192" r="12" fill="rgb(17,147,211)" opacity="0.35"/>
<circle cx="144" cy="192" r="9" fill="rgb(17,147,211)"/>
<circle cx="168" cy="192" r="12" fill="rgb(14,143,209)" opacity="0.35"/>
<circle cx="168" cy="192" r="9" fill="rgb(14,143,209)"/>
<circle cx="192" cy="192" r="12" fill="rgb(14,139,206)" opacity="0.35"/>
<circle cx="192" cy="192" r="9" fill="rgb(14,139,206)"/>
<circle cx="216" cy="192" r="12" fill="rgb(13,135,204)" opacity="0.35"/>
<circle cx="216" cy="192" r="9" fill="rgb(13,135,204)"/>
<circle cx="240" cy="192" r="12" fill="rgb(13,131,201)" opacity="0.35"/>
<circle cx="240" cy="192" r="9" fill="rgb(13,131,201)"/>
<circle cx="264" cy="192" r="12" fill="rgb(13,127,198)" opacity="0.35"/>
<circle cx="264" cy="192" r="9" fill="rgb(13,127,198)"/>
<circle cx="288" cy="192" r="12" fill="rgb(13,123,195)" opacity="0.35"/>
<circle cx="288" cy="192" r="9" fill="rgb(13,123,195)"/>
<circle cx="312" cy="192" r="12" fill="rgb(13,119,192)" opacity="0.35"/>
<circle cx="312" cy="192" r="9" fill="rgb(13,119,192)"/>
<circle cx="336" cy="192" r="12" fill="rgb(12,115,189)" opacity="0.35"/>
<circle cx="336" cy="192" r="9" fill="rgb(12,115,189)"/>
<circle cx="360" cy="192" r="12" fill="rgb(12,111,187)" opacity="0.35"/>
<circle cx="360" cy="192" r="9" fill="rgb(12,111,187)"/>
<circle cx="384" cy="192" r="12" fill="rgb(12,107,184)" opacity="0.35"/>
<circle cx="384" cy="192" r="9" fill="rgb(12,107,184)"/>
<circle cx="24" cy="216" r="12" fill="rgb(54,177,228)" opacity="0.35"/>
<circle cx="24" cy="216" r="9" fill="rgb(54,177,228)"/>
<circle cx="48" cy="216" r="12" fill="rgb(50,173,226)" opacity="0.35"/>
<circle cx="48" cy="216" r="9" fill="rgb(50,173,226)"/>
<circle cx="72" cy="216" r="12" fill="rgb(45,170,224)" opacity="0.35"/>
<circle cx="72" cy="216" r="9" fill="rgb(45,170,224)"/>
<circle cx="96" cy="216" r="12" fill="rgb(41,166,222)" opacity="0.35"/>
<circle cx="96" cy="216" r="9" fill="rgb(41,166,222)"/>
<circle cx="120" cy="216" r="12" fill="rgb(37,163,220)" opacity="0.35"/>
<circle cx="120" cy="216" r="9" fill="rgb(37,163,220)"/>
<circle cx="144" cy="216" r="12" fill="rgb(32,159,218)" opacity="0.35"/>
<circle cx="144" cy="216" r="9" fill="rgb(32,159,218)"/>
<circle cx="168" cy="216" r="12" fill="rgb(28,156,216)" opacity="0.35"/>
<circle cx="168" cy="216" r="9" fill="rgb(28,156,216)"/>
<circle cx="192" cy="216" r="12" fill="rgb(24,152,214)" opacity="0.35"/>
<circle cx="192" cy="216" r="9" fill="rgb(24,152,214)"/>
<circle cx="216" cy="216" r="12" fill="rgb(19,148,212)" opacity="0.35"/>
<circle cx="216" cy="216" r="9" fill="rgb(19,148,212)"/>
<circle cx="240" cy="216" r="12" fill="rgb(15,145,210)" opacity="0.35"/>
<circle cx="240" cy="216" r="9" fill="rgb(15,145,210)"/>
<circle cx="264" cy="216" r="12" fill="rgb(14,141,208)" opacity="0.35"/>
<circle cx="264" cy="216" r="9" fill="rgb(14,141,208)"/>
<circle cx="288" cy="216" r="12" fill="rgb(14,137,205)" opacity="0.35"/>
<circle cx="288" cy="216" r="9" fill="rgb(14,137,205)"/>
<circle cx="312" cy="216" r="12" fill="rgb(13,133,202)" opacity="0.35"/>
<circle cx="312" cy="216" r="9" fill="rgb(13,133,202)"/>
<circle cx="336" cy="216" r="12" fill="rgb(13,129,199)" opacity="0.35"/>
<circle cx="336" cy="216" r="9" fill="rgb(13,129,199)"/>
<circle cx="360" cy="216" r="12" fill="rgb(13,125,196)" opacity="0.35"/>
<circle cx="360" cy="216" r="9" fill="rgb(13,125,196)"/>
<circle cx="384" cy="216" r="12" fill="rgb(13,121,194)" opacity="0.35"/>
<circle cx="384" cy="216" r="9" fill="rgb(13,121,194)"/>
<circle cx="24" cy="240" r="12" fill="rgb(69,189,234)" opacity="0.35"/>
<circle cx="24" cy="240" r="9" fill="rgb(69,189,234)"/>
<circle cx="48" cy="240" r="12" fill="rgb(65,186,232)" opacity="0.35"/>
<circle cx="48" cy="240" r="9" fill="rgb(65,186,232)"/>
<circle cx="72" cy="240" r="12" fill="rgb(60,182,230)" opacity="0.35"/>
<circle cx="72" cy="240" r="9" fill="rgb(60,182,230)"/>
<circle cx="96" cy="240" r="12" fill="rgb(56,179,228)" opacity="0.35"/>
<circle cx="96" cy="240" r="9" fill="rgb(56,179,228)"/>
<circle cx="120" cy="240" r="12" fill="rgb(52,175,227)" opacity="0.35"/>
<circle cx="120" cy="240" r="9" fill="rgb(52,175,227)"/>
<circle cx="144" cy="240" r="12" fill="rgb(48,172,225)" opacity="0.35"/>
<circle cx="144" cy="240" r="9" fill="rgb(48,172,225)"/>
<circle cx="168" cy="240" r="12" fill="rgb(43,168,223)" opacity="0.35"/>
<circle cx="168" cy="240" r="9" fill="rgb(43,168,223)"/>
<circle cx="192" cy="240" r="12" fill="rgb(39,164,221)" opacity="0.35"/>
<circle cx="192" cy="240" r="9" fill="rgb(39,164,221)"/>
<circle cx="216" cy="240" r="12" fill="rgb(35,161,219)" opacity="0.35"/>
<circle cx="216" cy="240" r="9" fill="rgb(35,161,219)"/>
<circle cx="240" cy="240" r="12" fill="rgb(30,157,217)" opacity="0.35"/>
<circle cx="240" cy="240" r="9" fill="rgb(30,157,217)"/>
<circle cx="264" cy="240" r="12" fill="rgb(26,154,215)" opacity="0.35"/>
<circle cx="264" cy="240" r="9" fill="rgb(26,154,215)"/>
<circle cx="288" cy="240" r="12" fill="rgb(22,150,213)" opacity="0.35"/>
<circle cx="288" cy="240" r="9" fill="rgb(22,150,213)"/>
<circle cx="312" cy="240" r="12" fill="rgb(17,147,211)" opacity="0.35"/>
<circle cx="312" cy="240" r="9" fill="rgb(17,147,211)"/>
<circle cx="336" cy="240" r="12" fill="rgb(14,143,209)" opacity="0.35"/>
<circle cx="336" cy="240" r="9" fill="rgb(14,143,209)"/>
<circle cx="360" cy="240" r="12" fill="rgb(14,139,206)" opacity="0.35"/>
<circle cx="360" cy="240" r="9" fill="rgb(14,139,206)"/>
<circle cx="384" cy="240" r="12" fill="rgb(13,135,204)" opacity="0.35"/>
<circle cx="384" cy="240" r="9" fill="rgb(13,135,204)"/>
<circle cx="24" cy="264" r="12" fill="rgb(84,202,241)" opacity="0.35"/>
<circle cx="24" cy="264" r="9" fill="rgb(84,202,241)"/>
<circle cx="48" cy="264" r="12" fill="rgb(80,198,239)" opacity="0.35"/>
<circle cx="48" cy="264" r="9" fill="rgb(80,198,239)"/>
<circle cx="72" cy="264" r="12" fill="rgb(76,195,237)" opacity="0.35"/>
<circle cx="72" cy="264" r="9" fill="rgb(76,195,237)"/>
<circle cx="96" cy="264" r="12" fill="rgb(71,191,235)" opacity="0.35"/>
<circle cx="96" cy="264" r="9" fill="rgb(71,191,235)"/>
<circle cx="120" cy="264" r="12" fill="rgb(67,188,233)" opacity="0.35"/>
<circle cx="120" cy="264" r="9" fill="rgb(67,188,233)"/>
<circle cx="144" cy="264" r="12" fill="rgb(63,184,231)" opacity="0.35"/>
<circle cx="144" cy="264" r="9" fill="rgb(63,184,231)"/>
<circle cx="168" cy="264" r="12" fill="rgb(58,180,229)" opacity="0.35"/>
<circle cx="168" cy="264" r="9" fill="rgb(58,180,229)"/>
<circle cx="192" cy="264" r="12" fill="rgb(54,177,228)" opacity="0.35"/>
<circle cx="192" cy="264" r="9" fill="rgb(54,177,228)"/>
<circle cx="216" cy="264" r="12" fill="rgb(50,173,226)" opacity="0.35"/>
<circle cx="216" cy="264" r="9" fill="rgb(50,173,226)"/>
<circle cx="240" cy="264" r="12" fill="rgb(45,170,224)" opacity="0.35"/>
<circle cx="240" cy="264" r="9" fill="rgb(45,170,224)"/>
<circle cx="264" cy="264" r="12" fill="rgb(41,166,222)" opacity="0.35"/>
<circle cx="264" cy="264" r="9" fill="rgb(41,166,222)"/>
<circle cx="288" cy="264" r="12" fill="rgb(37,163,220)" opacity="0.35"/>
<circle cx="288" cy="264" r="9" fill="rgb(37,163,220)"/>
<circle cx="312" cy="264" r="12" fill="rgb(32,159,218)" opacity="0.35"/>
<circle cx="312" cy="264" r="9" fill="rgb(32,159,218)"/>
<circle cx="336" cy="264" r="12" fill="rgb(28,156,216)" opacity="0.35"/>
<circle cx="336" cy="264" r="9" fill="rgb(28,156,216)"/>
<circle cx="360" cy="264" r="12" fill="rgb(24,152,214)" opacity="0.35"/>
<circle cx="360" cy="264" r="9" fill="rgb(24,152,214)"/>
<circle cx="384" cy="264" r="12" fill="rgb(19,148,212)" opacity="0.35"/>
<circle cx="384" cy="264" r="9" fill="rgb(19,148,212)"/>
<circle cx="24" cy="288" r="12" fill="rgb(109,211,244)" opacity="0.35"/>
<circle cx="24" cy="288" r="9" fill="rgb(109,211,244)"/>
<circle cx="48" cy="288" r="12" fill="rgb(101,208,243)" opacity="0.35"/>
<circle cx="48" cy="288" r="9" fill="rgb(101,208,243)"/>
<circle cx="72" cy="288" r="12" fill="rgb(94,206,243)" opacity="0.35"/>
<circle cx="72" cy="288" r="9" fill="rgb(94,206,243)"/>
<circle cx="96" cy="288" r="12" fill="rgb(86,204,242)" opacity="0.35"/>
<circle cx="96" cy="288" r="9" fill="rgb(86,204,242)"/>
<circle cx="120" cy="288" r="12" fill="rgb(82,200,240)" opacity="0.35"/>
<circle cx="120" cy="288" r="9" fill="rgb(82,200,240)"/>
<circle cx="144" cy="288" r="12" fill="rgb(78,196,238)" opacity="0.35"/>
<circle cx="144" cy="288" r="9" fill="rgb(78,196,238)"/>
<circle cx="168" cy="288" r="12" fill="rgb(73,193,236)" opacity="0.35"/>
<circle cx="168" cy="288" r="9" fill="rgb(73,193,236)"/>
<circle cx="192" cy="288" r="12" fill="rgb(69,189,234)" opacity="0.35"/>
<circle cx="192" cy="288" r="9" fill="rgb(69,189,234)"/>
<circle cx="216" cy="288" r="12" fill="rgb(65,186,232)" opacity="0.35"/>
<circle cx="216" cy="288" r="9" fill="rgb(65,186,232)"/>
<circle cx="240" cy="288" r="12" fill="rgb(61,182,230)" opacity="0.35"/>
<circle cx="240" cy="288" r="9" fill="rgb(61,182,230)"/>
<circle cx="264" cy="288" r="12" fill="rgb(56,179,228)" opacity="0.35"/>
<circle cx="264" cy="288" r="9" fill="rgb(56,179,228)"/>
<circle cx="288" cy="288" r="12" fill="rgb(52,175,227)" opacity="0.35"/>
<circle cx="288" cy="288" r="9" fill="rgb(52,175,227)"/>
<circle cx="312" cy="288" r="12" fill="rgb(48,172,225)" opacity="0.35"/>
<circle cx="312" cy="288" r="9" fill="rgb(48,172,225)"/>
<circle cx="336" cy="288" r="12" fill="rgb(43,168,223)" opacity="0.35"/>
<circle cx="336" cy="288" r="9" fill="rgb(43,168,223)"/>
<circle cx="360" cy="288" r="12" fill="rgb(39,164,221)" opacity="0.35"/>
<circle cx="360" cy="288" r="9" fill="rgb(39,164,221)"/>
<circle cx="384" cy="288" r="12" fill="rgb(35,161,219)" opacity="0.35"/>
<circle cx="384" cy="288" r="9" fill="rgb(35,161,219)"/>
<circle cx="24" cy="312" r="12" fill="rgb(136,219,247)" opacity="0.35"/>
<circle cx="24" cy="312" r="9" fill="rgb(136,219,247)"/>
<circle cx="48" cy="312" r="12" fill="rgb(128,216,246)" opacity="0.35"/>
<circle cx="48" cy="312" r="9" fill="rgb(128,216,246)"/>
<circle cx="72" cy="312" r="12" fill="rgb(120,214,245)" opacity="0.35"/>
<circle cx="72" cy="312" r="9" fill="rgb(120,214,245)"/>
<circle cx="96" cy="312" r="12" fill="rgb(113,212,245)" opacity="0.35"/>
<circle cx="96" cy="312" r="9" fill="rgb(113,212,245)"/>
<circle cx="120" cy="312" r="12" fill="rgb(105,209,244)" opacity="0.35"/>
<circle cx="120" cy="312" r="9" fill="rgb(105,209,244)"/>
<circle cx="144" cy="312" r="12" fill="rgb(98,207,243)" opacity="0.35"/>
<circle cx="144" cy="312" r="9" fill="rgb(98,207,243)"/>
<circle cx="168" cy="312" r="12" fill="rgb(90,205,242)" opacity="0.35"/>
<circle cx="168" cy="312" r="9" fill="rgb(90,205,242)"/>
<circle cx="192" cy="312" r="12" fill="rgb(84,202,241)" opacity="0.35"/>
<circle cx="192" cy="312" r="9" fill="rgb(84,202,241)"/>
<circle cx="216" cy="312" r="12" fill="rgb(80,198,239)" opacity="0.35"/>
<circle cx="216" cy="312" r="9" fill="rgb(80,198,239)"/>
<circle cx="240" cy="312" r="12" fill="rgb(76,195,237)" opacity="0.35"/>
<circle cx="240" cy="312" r="9" fill="rgb(76,195,237)"/>
<circle cx="264" cy="312" r="12" fill="rgb(71,191,235)" opacity="0.35"/>
<circle cx="264" cy="312" r="9" fill="rgb(71,191,235)"/>
<circle cx="288" cy="312" r="12" fill="rgb(67,188,233)" opacity="0.35"/>
<circle cx="288" cy="312" r="9" fill="rgb(67,188,233)"/>
<circle cx="312" cy="312" r="12" fill="rgb(63,184,231)" opacity="0.35"/>
<circle cx="312" cy="312" r="9" fill="rgb(63,184,231)"/>
<circle cx="336" cy="312" r="12" fill="rgb(58,180,229)" opacity="0.35"/>
<circle cx="336" cy="312" r="9" fill="rgb(58,180,229)"/>
<circle cx="360" cy="312" r="12" fill="rgb(54,177,228)" opacity="0.35"/>
<circle cx="360" cy="312" r="9" fill="rgb(54,177,228)"/>
<circle cx="384" cy="312" r="12" fill="rgb(50,173,226)" opacity="0.35"/>
<circle cx="384" cy="312" r="9" fill="rgb(50,173,226)"/>
<circle cx="24" cy="336" r="12" fill="rgb(162,227,250)" opacity="0.35"/>
<circle cx="24" cy="336" r="9" fill="rgb(162,227,250)"/>
<circle cx="48" cy="336" r="12" fill="rgb(155,225,249)" opacity="0.35"/>
<circle cx="48" cy="336" r="9" fill="rgb(155,225,249)"/>
<circle cx="72" cy="336" r="12" fill="rgb(147,222,248)" opacity="0.35"/>
<circle cx="72" cy="336" r="9" fill="rgb(147,222,248)"/>
<circle cx="96" cy="336" r="12" fill="rgb(140,220,247)" opacity="0.35"/>
<circle cx="96" cy="336" r="9" fill="rgb(140,220,247)"/>
<circle cx="120" cy="336" r="12" fill="rgb(132,218,247)" opacity="0.35"/>
<circle cx="120" cy="336" r="9" fill="rgb(132,218,247)"/>
<circle cx="144" cy="336" r="12" fill="rgb(124,215,246)" opacity="0.35"/>
<circle cx="144" cy="336" r="9" fill="rgb(124,215,246)"/>
<circle cx="168" cy="336" r="12" fill="rgb(117,213,245)" opacity="0.35"/>
<circle cx="168" cy="336" r="9" fill="rgb(117,213,245)"/>
<circle cx="192" cy="336" r="12" fill="rgb(109,211,244)" opacity="0.35"/>
<circle cx="192" cy="336" r="9" fill="rgb(109,211,244)"/>
<circle cx="216" cy="336" r="12" fill="rgb(101,208,243)" opacity="0.35"/>
<circle cx="216" cy="336" r="9" fill="rgb(101,208,243)"/>
<circle cx="240" cy="336" r="12" fill="rgb(94,206,243)" opacity="0.35"/>
<circle cx="240" cy="336" r="9" fill="rgb(94,206,243)"/>
<circle cx="264" cy="336" r="12" fill="rgb(86,204,242)" opacity="0.35"/>
<circle cx="264" cy="336" r="9" fill="rgb(86,204,242)"/>
<circle cx="288" cy="336" r="12" fill="rgb(82,200,240)" opacity="0.35"/>
<circle cx="288" cy="336" r="9" fill="rgb(82,200,240)"/>
<circle cx="312" cy="336" r="12" fill="rgb(78,196,238)" opacity="0.35"/>
<circle cx="312" cy="336" r="9" fill="rgb(78,196,238)"/>
<circle cx="336" cy="336" r="12" fill="rgb(73,193,236)" opacity="0.35"/>
<circle cx="336" cy="336" r="9" fill="rgb(73,193,236)"/>
<circle cx="360" cy="336" r="12" fill="rgb(69,189,234)" opacity="0.35"/>
<circle cx="360" cy="336" r="9" fill="rgb(69,189,234)"/>
<circle cx="384" cy="336" r="12" fill="rgb(65,186,232)" opacity="0.35"/>
<circle cx="384" cy="336" r="9" fill="rgb(65,186,232)"/>
<circle cx="24" cy="360" r="12" fill="rgb(189,235,252)" opacity="0.35"/>
<circle cx="24" cy="360" r="9" fill="rgb(189,235,252)"/>
<circle cx="48" cy="360" r="12" fill="rgb(182,233,252)" opacity="0.35"/>
<circle cx="48" cy="360" r="9" fill="rgb(182,233,252)"/>
<circle cx="72" cy="360" r="12" fill="rgb(174,230,251)" opacity="0.35"/>
<circle cx="72" cy="360" r="9" fill="rgb(174,230,251)"/>
<circle cx="96" cy="360" r="12" fill="rgb(166,228,250)" opacity="0.35"/>
<circle cx="96" cy="360" r="9" fill="rgb(166,228,250)"/>
<circle cx="120" cy="360" r="12" fill="rgb(159,226,249)" opacity="0.35"/>
<circle cx="120" cy="360" r="9" fill="rgb(159,226,249)"/>
<circle cx="144" cy="360" r="12" fill="rgb(151,223,248)" opacity="0.35"/>
<circle cx="144" cy="360" r="9" fill="rgb(151,223,248)"/>
<circle cx="168" cy="360" r="12" fill="rgb(143,221,248)" opacity="0.35"/>
<circle cx="168" cy="360" r="9" fill="rgb(143,221,248)"/>
<circle cx="192" cy="360" r="12" fill="rgb(136,219,247)" opacity="0.35"/>
<circle cx="192" cy="360" r="9" fill="rgb(136,219,247)"/>
<circle cx="216" cy="360" r="12" fill="rgb(128,216,246)" opacity="0.35"/>
<circle cx="216" cy="360" r="9" fill="rgb(128,216,246)"/>
<circle cx="240" cy="360" r="12" fill="rgb(120,214,245)" opacity="0.35"/>
<circle cx="240" cy="360" r="9" fill="rgb(120,214,245)"/>
<circle cx="264" cy="360" r="12" fill="rgb(113,212,245)" opacity="0.35"/>
<circle cx="264" cy="360" r="9" fill="rgb(113,212,245)"/>
<circle cx="288" cy="360" r="12" fill="rgb(105,209,244)" opacity="0.35"/>
<circle cx="288" cy="360" r="9" fill="rgb(105,209,244)"/>
<circle cx="312" cy="360" r="12" fill="rgb(98,207,243)" opacity="0.35"/>
<circle cx="312" cy="360" r="9" fill="rgb(98,207,243)"/>
<circle cx="336" cy="360" r="12" fill="rgb(90,205,242)" opacity="0.35"/>
<circle cx="336" cy="360" r="9" fill="rgb(90,205,242)"/>
<circle cx="360" cy="360" r="12" fill="rgb(84,202,241)" opacity="0.35"/>
<circle cx="360" cy="360" r="9" fill="rgb(84,202,241)"/>
<circle cx="384" cy="360" r="12" fill="rgb(80,198,239)" opacity="0.35"/>
<circle cx="384" cy="360" r="9" fill="rgb(80,198,239)"/>
<circle cx="24" cy="384" r="12" fill="rgb(3,29,68)" opacity="0.35"/>
<circle cx="24" cy="384" r="9" fill="rgb(3,29,68)"/>
<circle cx="48" cy="384" r="12" fill="rgb(208,241,254)" opacity="0.35"/>
<circle cx="48" cy="384" r="9" fill="rgb(208,241,254)"/>
<circle cx="72" cy="384" r="12" fill="rgb(201,238,253)" opacity="0.35"/>
<circle cx="72" cy="384" r="9" fill="rgb(201,238,253)"/>
<circle cx="96" cy="384" r="12" fill="rgb(193,236,253)" opacity="0.35"/>
<circle cx="96" cy="384" r="9" fill="rgb(193,236,253)"/>
<circle cx="120" cy="384" r="12" fill="rgb(185,234,252)" opacity="0.35"/>
<circle cx="120" cy="384" r="9" fill="rgb(185,234,252)"/>
<circle cx="144" cy="384" r="12" fill="rgb(178,231,251)" opacity="0.35"/>
<circle cx="144" cy="384" r="9" fill="rgb(178,231,251)"/>
<circle cx="168" cy="384" r="12" fill="rgb(170,229,250)" opacity="0.35"/>
<circle cx="168" cy="384" r="9" fill="rgb(170,229,250)"/>
<circle cx="192" cy="384" r="12" fill="rgb(163,227,250)" opacity="0.35"/>
<circle cx="192" cy="384" r="9" fill="rgb(163,227,250)"/>
<circle cx="216" cy="384" r="12" fill="rgb(155,225,249)" opacity="0.35"/>
<circle cx="216" cy="384" r="9" fill="rgb(155,225,249)"/>
<circle cx="240" cy="384" r="12" fill="rgb(147,222,248)" opacity="0.35"/>
<circle cx="240" cy="384" r="9" fill="rgb(147,222,248)"/>
<circle cx="264" cy="384" r="12" fill="rgb(140,220,247)" opacity="0.35"/>
<circle cx="264" cy="384" r="9" fill="rgb(140,220,247)"/>
<circle cx="288" cy="384" r="12" fill="rgb(132,218,247)" opacity="0.35"/>
<circle cx="288" cy="384" r="9" fill="rgb(132,218,247)"/>
<circle cx="312" cy="384" r="12" fill="rgb(124,215,246)" opacity="0.35"/>
<circle cx="312" cy="384" r="9" fill="rgb(124,215,246)"/>
<circle cx="336" cy="384" r="12" fill="rgb(117,213,245)" opacity="0.35"/>
<circle cx="336" cy="384" r="9" fill="rgb(117,213,245)"/>
<circle cx="360" cy="384" r="12" fill="rgb(109,211,244)" opacity="0.35"/>
<circle cx="360" cy="384" r="9" fill="rgb(109,211,244)"/>
<circle cx="384" cy="384" r="12" fill="rgb(101,208,243)" opacity="0.35"/>
<circle cx="384" cy="384" r="9" fill="rgb(101,208,243)"/>
</svg>
