<svg xmlns="http://www.w3.org/2000/svg" viewBox="0 0 408 408" width="408" height="408" role="img" aria-label="LED preview of the Percussion Blobs example graph">
<rect width="408" height="408" rx="10" fill="#05070a"/>
<circle cx="24" cy="24" r="9" fill="#14171c"/>
<circle cx="48" cy="24" r="9" fill="#14171c"/>
<circle cx="72" cy="24" r="12" fill="rgb(17,2,0)" opacity="0.35"/>
<circle cx="72" cy="24" r="9" fill="rgb(17,2,0)"/>
<circle cx="96" cy="24" r="12" fill="rgb(17,2,0)" opacity="0.35"/>
<circle cx="96" cy="24" r="9" fill="rgb(17,2,0)"/>
<circle cx="120" cy="24" r="12" fill="rgb(17,2,0)" opacity="0.35"/>
<circle cx="120" cy="24" r="9" fill="rgb(17,2,0)"/>
<circle cx="144" cy="24" r="12" fill="rgb(17,2,0)" opacity="0.35"/>
<circle cx="144" cy="24" r="9" fill="rgb(17,2,0)"/>
<circle cx="168" cy="24" r="9" fill="#14171c"/>
<circle cx="192" cy="24" r="9" fill="#14171c"/>
<circle cx="216" cy="24" r="9" fill="#14171c"/>
<circle cx="240" cy="24" r="9" fill="#14171c"/>
<circle cx="264" cy="24" r="9" fill="#14171c"/>
<circle cx="288" cy="24" r="9" fill="#14171c"/>
<circle cx="312" cy="24" r="9" fill="#14171c"/>
<circle cx="336" cy="24" r="9" fill="#14171c"/>
<circle cx="360" cy="24" r="9" fill="#14171c"/>
<circle cx="384" cy="24" r="9" fill="#14171c"/>
<circle cx="24" cy="48" r="12" fill="rgb(18,2,0)" opacity="0.35"/>
<circle cx="24" cy="48" r="9" fill="rgb(18,2,0)"/>
<circle cx="48" cy="48" r="12" fill="rgb(19,2,0)" opacity="0.35"/>
<circle cx="48" cy="48" r="9" fill="rgb(19,2,0)"/>
<circle cx="72" cy="48" r="12" fill="rgb(20,2,0)" opacity="0.35"/>
<circle cx="72" cy="48" r="9" fill="rgb(20,2,0)"/>
<circle cx="96" cy="48" r="12" fill="rgb(21,2,0)" opacity="0.35"/>
<circle cx="96" cy="48" r="9" fill="rgb(21,2,0)"/>
<circle cx="120" cy="48" r="12" fill="rgb(21,2,0)" opacity="0.35"/>
<circle cx="120" cy="48" r="9" fill="rgb(21,2,0)"/>
<circle cx="144" cy="48" r="12" fill="rgb(20,2,0)" opacity="0.35"/>
<circle cx="144" cy="48" r="9" fill="rgb(20,2,0)"/>
<circle cx="168" cy="48" r="12" fill="rgb(20,2,0)" opacity="0.35"/>
<circle cx="168" cy="48" r="9" fill="rgb(20,2,0)"/>
<circle cx="192" cy="48" r="12" fill="rgb(19,2,0)" opacity="0.35"/>
<circle cx="192" cy="48" r="9" fill="rgb(19,2,0)"/>
<circle cx="216" cy="48" r="12" fill="rgb(17,2,0)" opacity="0.35"/>
<circle cx="216" cy="48" r="9" fill="rgb(17,2,0)"/>
<circle cx="240" cy="48" r="9" fill="#14171c"/>
<circle cx="264" cy="48" r="9" fill="#14171c"/>
<circle cx="288" cy="48" r="9" fill="#14171c"/>
<circle cx="312" cy="48" r="9" fill="#14171c"/>
<circle cx="336" cy="48" r="9" fill="#14171c"/>
<circle cx="360" cy="48" r="9" fill="#14171c"/>
<circle cx="384" cy="48" r="9" fill="#14171c"/>
<circle cx="24" cy="72" r="12" fill="rgb(22,3,0)" opacity="0.35"/>
<circle cx="24" cy="72" r="9" fill="rgb(22,3,0)"/>
<circle cx="48" cy="72" r="12" fill="rgb(23,3,0)" opacity="0.35"/>
<circle cx="48" cy="72" r="9" fill="rgb(23,3,0)"/>
<circle cx="72" cy="72" r="12" fill="rgb(24,3,0)" opacity="0.35"/>
<circle cx="72" cy="72" r="9" fill="rgb(24,3,0)"/>
<circle cx="96" cy="72" r="12" fill="rgb(25,3,0)" opacity="0.35"/>
<circle cx="96" cy="72" r="9" fill="rgb(25,3,0)"/>
<circle cx="120" cy="72" r="12" fill="rgb(25,4,0)" opacity="0.35"/>
<circle cx="120" cy="72" r="9" fill="rgb(25,4,0)"/>
<circle cx="144" cy="72" r="12" fill="rgb(25,3,0)" opacity="0.35"/>
<circle cx="144" cy="72" r="9" fill="rgb(25,3,0)"/>
<circle cx="168" cy="72" r="12" fill="rgb(24,3,0)" opacity="0.35"/>
<circle cx="168" cy="72" r="9" fill="rgb(24,3,0)"/>
<circle cx="192" cy="72" r="12" fill="rgb(22,3,0)" opacity="0.35"/>
<circle cx="192" cy="72" r="9" fill="rgb(22,3,0)"/>
<circle cx="216" cy="72" r="12" fill="rgb(20,2,0)" opacity="0.35"/>
<circle cx="216" cy="72" r="9" fill="rgb(20,2,0)"/>
<circle cx="240" cy="72" r="12" fill="rgb(19,2,0)" opacity="0.35"/>
<circle cx="240" cy="72" r="9" fill="rgb(19,2,0)"/>
<circle cx="264" cy="72" r="12" fill="rgb(17,2,0)" opacity="0.35"/>
<circle cx="264" cy="72" r="9" fill="rgb(17,2,0)"/>
<circle cx="288" cy="72" r="9" fill="#14171c"/>
<circle cx="312" cy="72" r="9" fill="#14171c"/>
<circle cx="336" cy="72" r="9" fill="#14171c"/>
<circle cx="360" cy="72" r="9" fill="#14171c"/>
<circle cx="384" cy="72" r="9" fill="#14171c"/>
<circle cx="24" cy="96" r="12" fill="rgb(26,4,0)" opacity="0.35"/>
<circle cx="24" cy="96" r="9" fill="rgb(26,4,0)"/>
<circle cx="48" cy="96" r="12" fill="rgb(28,4,0)" opacity="0.35"/>
<circle cx="48" cy="96" r="9" fill="rgb(28,4,0)"/>
<circle cx="72" cy="96" r="12" fill="rgb(30,5,0)" opacity="0.35"/>
<circle cx="72" cy="96" r="9" fill="rgb(30,5,0)"/>
<circle cx="96" cy="96" r="12" fill="rgb(31,6,0)" opacity="0.35"/>
<circle cx="96" cy="96" r="9" fill="rgb(31,6,0)"/>
<circle cx="120" cy="96" r="12" fill="rgb(31,6,0)" opacity="0.35"/>
<circle cx="120" cy="96" r="9" fill="rgb(31,6,0)"/>
<circle cx="144" cy="96" r="12" fill="rgb(31,5,0)" opacity="0.35"/>
<circle cx="144" cy="96" r="9" fill="rgb(31,5,0)"/>
<circle cx="168" cy="96" r="12" fill="rgb(29,5,0)" opacity="0.35"/>
<circle cx="168" cy="96" r="9" fill="rgb(29,5,0)"/>
<circle cx="192" cy="96" r="12" fill="rgb(27,4,0)" opacity="0.35"/>
<circle cx="192" cy="96" r="9" fill="rgb(27,4,0)"/>
<circle cx="216" cy="96" r="12" fill="rgb(24,3,0)" opacity="0.35"/>
<circle cx="216" cy="96" r="9" fill="rgb(24,3,0)"/>
<circle cx="240" cy="96" r="12" fill="rgb(22,3,0)" opacity="0.35"/>
<circle cx="240" cy="96" r="9" fill="rgb(22,3,0)"/>
<circle cx="264" cy="96" r="12" fill="rgb(19,2,0)" opacity="0.35"/>
<circle cx="264" cy="96" r="9" fill="rgb(19,2,0)"/>
<circle cx="288" cy="96" r="12" fill="rgb(17,2,0)" opacity="0.35"/>
<circle cx="288" cy="96" r="9" fill="rgb(17,2,0)"/>
<circle cx="312" cy="96" r="9" fill="#14171c"/>
<circle cx="336" cy="96" r="9" fill="#14171c"/>
<circle cx="360" cy="96" r="9" fill="#14171c"/>
<circle cx="384" cy="96" r="9" fill="#14171c"/>
<circle cx="24" cy="120" r="12" fill="rgb(31,6,0)" opacity="0.35"/>
<circle cx="24" cy="120" r="9" fill="rgb(31,6,0)"/>
<circle cx="48" cy="120" r="12" fill="rgb(35,7,0)" opacity="0.35"/>
<circle cx="48" cy="120" r="9" fill="rgb(35,7,0)"/>
<circle cx="72" cy="120" r="12" fill="rgb(38,8,0)" opacity="0.35"/>
<circle cx="72" cy="120" r="9" fill="rgb(38,8,0)"/>
<circle cx="96" cy="120" r="12" fill="rgb(40,9,0)" opacity="0.35"/>
<circle cx="96" cy="120" r="9" fill="rgb(40,9,0)"/>
<circle cx="120" cy="120" r="12" fill="rgb(40,9,0)" opacity="0.35"/>
<circle cx="120" cy="120" r="9" fill="rgb(40,9,0)"/>
<circle cx="144" cy="120" r="12" fill="rgb(39,9,0)" opacity="0.35"/>
<circle cx="144" cy="120" r="9" fill="rgb(39,9,0)"/>
<circle cx="168" cy="120" r="12" fill="rgb(36,7,0)" opacity="0.35"/>
<circle cx="168" cy="120" r="9" fill="rgb(36,7,0)"/>
<circle cx="192" cy="120" r="12" fill="rgb(33,6,0)" opacity="0.35"/>
<circle cx="192" cy="120" r="9" fill="rgb(33,6,0)"/>
<circle cx="216" cy="120" r="12" fill="rgb(29,5,0)" opacity="0.35"/>
<circle cx="216" cy="120" r="9" fill="rgb(29,5,0)"/>
<circle cx="240" cy="120" r="12" fill="rgb(25,4,0)" opacity="0.35"/>
<circle cx="240" cy="120" r="9" fill="rgb(25,4,0)"/>
<circle cx="264" cy="120" r="12" fill="rgb(22,3,0)" opacity="0.35"/>
<circle cx="264" cy="120" r="9" fill="rgb(22,3,0)"/>
<circle cx="288" cy="120" r="12" fill="rgb(19,2,0)" opacity="0.35"/>
<circle cx="288" cy="120" r="9" fill="rgb(19,2,0)"/>
<circle cx="312" cy="120" r="12" fill="rgb(17,1,0)" opacity="0.35"/>
<circle cx="312" cy="120" r="9" fill="rgb(17,1,0)"/>
<circle cx="336" cy="120" r="9" fill="#14171c"/>
<circle cx="360" cy="120" r="9" fill="#14171c"/>
<circle cx="384" cy="120" r="9" fill="#14171c"/>
<circle cx="24" cy="144" r="12" fill="rgb(38,9,0)" opacity="0.35"/>
<circle cx="24" cy="144" r="9" fill="rgb(38,9,0)"/>
<circle cx="48" cy="144" r="12" fill="rgb(43,11,0)" opacity="0.35"/>
<circle cx="48" cy="144" r="9" fill="rgb(43,11,0)"/>
<circle cx="72" cy="144" r="12" fill="rgb(48,14,0)" opacity="0.35"/>
<circle cx="72" cy="144" r="9" fill="rgb(48,14,0)"/>
<circle cx="96" cy="144" r="12" fill="rgb(51,16,0)" opacity="0.35"/>
<circle cx="96" cy="144" r="9" fill="rgb(51,16,0)"/>
<circle cx="120" cy="144" r="12" fill="rgb(52,17,0)" opacity="0.35"/>
<circle cx="120" cy="144" r="9" fill="rgb(52,17,0)"/>
<circle cx="144" cy="144" r="12" fill="rgb(50,15,0)" opacity="0.35"/>
<circle cx="144" cy="144" r="9" fill="rgb(50,15,0)"/>
<circle cx="168" cy="144" r="12" fill="rgb(45,12,0)" opacity="0.35"/>
<circle cx="168" cy="144" r="9" fill="rgb(45,12,0)"/>
<circle cx="192" cy="144" r="12" fill="rgb(40,9,0)" opacity="0.35"/>
<circle cx="192" cy="144" r="9" fill="rgb(40,9,0)"/>
<circle cx="216" cy="144" r="12" fill="rgb(35,7,0)" opacity="0.35"/>
<circle cx="216" cy="144" r="9" fill="rgb(35,7,0)"/>
<circle cx="240" cy="144" r="12" fill="rgb(30,5,0)" opacity="0.35"/>
<circle cx="240" cy="144" r="9" fill="rgb(30,5,0)"/>
<circle cx="264" cy="144" r="12" fill="rgb(25,3,0)" opacity="0.35"/>
<circle cx="264" cy="144" r="9" fill="rgb(25,3,0)"/>
<circle cx="288" cy="144" r="12" fill="rgb(21,3,0)" opacity="0.35"/>
<circle cx="288" cy="144" r="9" fill="rgb(21,3,0)"/>
<circle cx="312" cy="144" r="12" fill="rgb(18,2,0)" opacity="0.35"/>
<circle cx="312" cy="144" r="9" fill="rgb(18,2,0)"/>
<circle cx="336" cy="144" r="9" fill="#14171c"/>
<circle cx="360" cy="144" r="9" fill="#14171c"/>
<circle cx="384" cy="144" r="9" fill="#14171c"/>
<circle cx="24" cy="168" r="12" fill="rgb(46,13,0)" opacity="0.35"/>
<circle cx="24" cy="168" r="9" fill="rgb(46,13,0)"/>
<circle cx="48" cy="168" r="12" fill="rgb(55,19,0)" opacity="0.35"/>
<circle cx="48" cy="168" r="9" fill="rgb(55,19,0)"/>
<circle cx="72" cy="168" r="12" fill="rgb(62,25,0)" opacity="0.35"/>
<circle cx="72" cy="168" r="9" fill="rgb(62,25,0)"/>
<circle cx="96" cy="168" r="12" fill="rgb(67,30,0)" opacity="0.35"/>
<circle cx="96" cy="168" r="9" fill="rgb(67,30,0)"/>
<circle cx="120" cy="168" r="12" fill="rgb(68,31,0)" opacity="0.35"/>
<circle cx="120" cy="168" r="9" fill="rgb(68,31,0)"/>
<circle cx="144" cy="168" r="12" fill="rgb(64,28,0)" opacity="0.35"/>
<circle cx="144" cy="168" r="9" fill="rgb(64,28,0)"/>
<circle cx="168" cy="168" r="12" fill="rgb(58,21,0)" opacity="0.35"/>
<circle cx="168" cy="168" r="9" fill="rgb(58,21,0)"/>
<circle cx="192" cy="168" r="12" fill="rgb(49,15,0)" opacity="0.35"/>
<circle cx="192" cy="168" r="9" fill="rgb(49,15,0)"/>
<circle cx="216" cy="168" r="12" fill="rgb(41,10,0)" opacity="0.35"/>
<circle cx="216" cy="168" r="9" fill="rgb(41,10,0)"/>
<circle cx="240" cy="168" r="12" fill="rgb(34,7,0)" opacity="0.35"/>
<circle cx="240" cy="168" r="9" fill="rgb(34,7,0)"/>
<circle cx="264" cy="168" r="12" fill="rgb(29,5,0)" opacity="0.35"/>
<circle cx="264" cy="168" r="9" fill="rgb(29,5,0)"/>
<circle cx="288" cy="168" r="12" fill="rgb(24,3,0)" opacity="0.35"/>
<circle cx="288" cy="168" r="9" fill="rgb(24,3,0)"/>
<circle cx="312" cy="168" r="12" fill="rgb(20,2,0)" opacity="0.35"/>
<circle cx="312" cy="168" r="9" fill="rgb(20,2,0)"/>
<circle cx="336" cy="168" r="12" fill="rgb(17,2,0)" opacity="0.35"/>
<circle cx="336" cy="168" r="9" fill="rgb(17,2,0)"/>
<circle cx="360" cy="168" r="9" fill="#14171c"/>
<circle cx="384" cy="168" r="9" fill="#14171c"/>
<circle cx="24" cy="192" r="12" fill="rgb(56,20,0)" opacity="0.35"/>
<circle cx="24" cy="192" r="9" fill="rgb(56,20,0)"/>
<circle cx="48" cy="192" r="12" fill="rgb(68,31,0)" opacity="0.35"/>
<circle cx="48" cy="192" r="9" fill="rgb(68,31,0)"/>
<circle cx="72" cy="192" r="12" fill="rgb(80,44,0)" opacity="0.35"/>
<circle cx="72" cy="192" r="9" fill="rgb(80,44,0)"/>
<circle cx="96" cy="192" r="12" fill="rgb(89,56,0)" opacity="0.35"/>
<circle cx="96" cy="192" r="9" fill="rgb(89,56,0)"/>
<circle cx="120" cy="192" r="12" fill="rgb(90,58,0)" opacity="0.35"/>
<circle cx="120" cy="192" r="9" fill="rgb(90,58,0)"/>
<circle cx="144" cy="192" r="12" fill="rgb(84,49,0)" opacity="0.35"/>
<circle cx="144" cy="192" r="9" fill="rgb(84,49,0)"/>
<circle cx="168" cy="192" r="12" fill="rgb(73,36,0)" opacity="0.35"/>
<circle cx="168" cy="192" r="9" fill="rgb(73,36,0)"/>
<circle cx="192" cy="192" r="12" fill="rgb(60,24,0)" opacity="0.35"/>
<circle cx="192" cy="192" r="9" fill="rgb(60,24,0)"/>
<circle cx="216" cy="192" r="12" fill="rgb(49,15,0)" opacity="0.35"/>
<circle cx="216" cy="192" r="9" fill="rgb(49,15,0)"/>
<circle cx="240" cy="192" r="12" fill="rgb(39,9,0)" opacity="0.35"/>
<circle cx="240" cy="192" r="9" fill="rgb(39,9,0)"/>
<circle cx="264" cy="192" r="12" fill="rgb(32,6,0)" opacity="0.35"/>
<circle cx="264" cy="192" r="9" fill="rgb(32,6,0)"/>
<circle cx="288" cy="192" r="12" fill="rgb(26,4,0)" opacity="0.35"/>
<circle cx="288" cy="192" r="9" fill="rgb(26,4,0)"/>
<circle cx="312" cy="192" r="12" fill="rgb(22,3,0)" opacity="0.35"/>
<circle cx="312" cy="192" r="9" fill="rgb(22,3,0)"/>
<circle cx="336" cy="192" r="12" fill="rgb(18,2,0)" opacity="0.35"/>
<circle cx="336" cy="192" r="9" fill="rgb(18,2,0)"/>
<circle cx="360" cy="192" r="9" fill="#14171c"/>
<circle cx="384" cy="192" r="9" fill="#14171c"/>
<circle cx="24" cy="216" r="12" fill="rgb(65,28,0)" opacity="0.35"/>
<circle cx="24" cy="216" r="9" fill="rgb(65,28,0)"/>
<circle cx="48" cy="216" r="12" fill="rgb(83,48,0)" opacity="0.35"/>
<circle cx="48" cy="216" r="9" fill="rgb(83,48,0)"/>
<circle cx="72" cy="216" r="12" fill="rgb(102,76,0)" opacity="0.35"/>
<circle cx="72" cy="216" r="9" fill="rgb(102,76,0)"/>
<circle cx="96" cy="216" r="12" fill="rgb(92,96,8)" opacity="0.35"/>
<circle cx="96" cy="216" r="9" fill="rgb(92,96,8)"/>
<circle cx="120" cy="216" r="12" fill="rgb(83,97,12)" opacity="0.35"/>
<circle cx="120" cy="216" r="9" fill="rgb(83,97,12)"/>
<circle cx="144" cy="216" r="12" fill="rgb(108,88,0)" opacity="0.35"/>
<circle cx="144" cy="216" r="9" fill="rgb(108,88,0)"/>
<circle cx="168" cy="216" r="12" fill="rgb(90,57,0)" opacity="0.35"/>
<circle cx="168" cy="216" r="9" fill="rgb(90,57,0)"/>
<circle cx="192" cy="216" r="12" fill="rgb(72,35,0)" opacity="0.35"/>
<circle cx="192" cy="216" r="9" fill="rgb(72,35,0)"/>
<circle cx="216" cy="216" r="12" fill="rgb(56,20,0)" opacity="0.35"/>
<circle cx="216" cy="216" r="9" fill="rgb(56,20,0)"/>
<circle cx="240" cy="216" r="12" fill="rgb(44,12,0)" opacity="0.35"/>
<circle cx="240" cy="216" r="9" fill="rgb(44,12,0)"/>
<circle cx="264" cy="216" r="12" fill="rgb(35,7,0)" opacity="0.35"/>
<circle cx="264" cy="216" r="9" fill="rgb(35,7,0)"/>
<circle cx="288" cy="216" r="12" fill="rgb(28,4,0)" opacity="0.35"/>
<circle cx="288" cy="216" r="9" fill="rgb(28,4,0)"/>
<circle cx="312" cy="216" r="12" fill="rgb(23,3,0)" opacity="0.35"/>
<circle cx="312" cy="216" r="9" fill="rgb(23,3,0)"/>
<circle cx="336" cy="216" r="12" fill="rgb(19,2,0)" opacity="0.35"/>
<circle cx="336" cy="216" r="9" fill="rgb(19,2,0)"/>
<circle cx="360" cy="216" r="9" fill="#14171c"/>
<circle cx="384" cy="216" r="9" fill="#14171c"/>
<circle cx="24" cy="240" r="12" fill="rgb(73,36,0)" opacity="0.35"/>
<circle cx="24" cy="240" r="9" fill="rgb(73,36,0)"/>
<circle cx="48" cy="240" r="12" fill="rgb(96,66,0)" opacity="0.35"/>
<circle cx="48" cy="240" r="9" fill="rgb(96,66,0)"/>
<circle cx="72" cy="240" r="12" fill="rgb(72,99,16)" opacity="0.35"/>
<circle cx="72" cy="240" r="9" fill="rgb(72,99,16)"/>
<circle cx="96" cy="240" r="12" fill="rgb(0,107,80)" opacity="0.35"/>
<circle cx="96" cy="240" r="9" fill="rgb(0,107,80)"/>
<circle cx="120" cy="240" r="12" fill="rgb(0,107,104)" opacity="0.35"/>
<circle cx="120" cy="240" r="9" fill="rgb(0,107,104)"/>
<circle cx="144" cy="240" r="12" fill="rgb(29,104,33)" opacity="0.35"/>
<circle cx="144" cy="240" r="9" fill="rgb(29,104,33)"/>
<circle cx="168" cy="240" r="12" fill="rgb(105,83,0)" opacity="0.35"/>
<circle cx="168" cy="240" r="9" fill="rgb(105,83,0)"/>
<circle cx="192" cy="240" r="12" fill="rgb(81,45,0)" opacity="0.35"/>
<circle cx="192" cy="240" r="9" fill="rgb(81,45,0)"/>
<circle cx="216" cy="240" r="12" fill="rgb(62,25,0)" opacity="0.35"/>
<circle cx="216" cy="240" r="9" fill="rgb(62,25,0)"/>
<circle cx="240" cy="240" r="12" fill="rgb(47,14,0)" opacity="0.35"/>
<circle cx="240" cy="240" r="9" fill="rgb(47,14,0)"/>
<circle cx="264" cy="240" r="12" fill="rgb(37,8,0)" opacity="0.35"/>
<circle cx="264" cy="240" r="9" fill="rgb(37,8,0)"/>
<circle cx="288" cy="240" r="12" fill="rgb(29,5,0)" opacity="0.35"/>
<circle cx="288" cy="240" r="9" fill="rgb(29,5,0)"/>
<circle cx="312" cy="240" r="12" fill="rgb(24,3,0)" opacity="0.35"/>
<circle cx="312" cy="240" r="9" fill="rgb(24,3,0)"/>
<circle cx="336" cy="240" r="12" fill="rgb(20,2,0)" opacity="0.35"/>
<circle cx="336" cy="240" r="9" fill="rgb(20,2,0)"/>
<circle cx="360" cy="240" r="9" fill="#14171c"/>
<circle cx="384" cy="240" r="9" fill="#14171c"/>
<circle cx="24" cy="264" r="12" fill="rgb(76,40,0)" opacity="0.35"/>
<circle cx="24" cy="264" r="9" fill="rgb(76,40,0)"/>
<circle cx="48" cy="264" r="12" fill="rgb(101,75,0)" opacity="0.35"/>
<circle cx="48" cy="264" r="9" fill="rgb(101,75,0)"/>
<circle cx="72" cy="264" r="12" fill="rgb(29,104,33)" opacity="0.35"/>
<circle cx="72" cy="264" r="9" fill="rgb(29,104,33)"/>
<circle cx="96" cy="264" r="12" fill="rgb(4,100,155)" opacity="0.35"/>
<circle cx="96" cy="264" r="9" fill="rgb(4,100,155)"/>
<circle cx="120" cy="264" r="12" fill="rgb(14,82,160)" opacity="0.35"/>
<circle cx="120" cy="264" r="9" fill="rgb(14,82,160)"/>
<circle cx="144" cy="264" r="12" fill="rgb(0,107,74)" opacity="0.35"/>
<circle cx="144" cy="264" r="9" fill="rgb(0,107,74)"/>
<circle cx="168" cy="264" r="12" fill="rgb(104,93,3)" opacity="0.35"/>
<circle cx="168" cy="264" r="9" fill="rgb(104,93,3)"/>
<circle cx="192" cy="264" r="12" fill="rgb(85,50,0)" opacity="0.35"/>
<circle cx="192" cy="264" r="9" fill="rgb(85,50,0)"/>
<circle cx="216" cy="264" r="12" fill="rgb(64,27,0)" opacity="0.35"/>
<circle cx="216" cy="264" r="9" fill="rgb(64,27,0)"/>
<circle cx="240" cy="264" r="12" fill="rgb(49,14,0)" opacity="0.35"/>
<circle cx="240" cy="264" r="9" fill="rgb(49,14,0)"/>
<circle cx="264" cy="264" r="12" fill="rgb(38,8,0)" opacity="0.35"/>
<circle cx="264" cy="264" r="9" fill="rgb(38,8,0)"/>
<circle cx="288" cy="264" r="12" fill="rgb(30,5,0)" opacity="0.35"/>
<circle cx="288" cy="264" r="9" fill="rgb(30,5,0)"/>
<circle cx="312" cy="264" r="12" fill="rgb(24,3,0)" opacity="0.35"/>
<circle cx="312" cy="264" r="9" fill="rgb(24,3,0)"/>
<circle cx="336" cy="264" r="12" fill="rgb(20,2,0)" opacity="0.35"/>
<circle cx="336" cy="264" r="9" fill="rgb(20,2,0)"/>
<circle cx="360" cy="264" r="12" fill="rgb(17,1,0)" opacity="0.35"/>
<circle cx="360" cy="264" r="9" fill="rgb(17,1,0)"/>
<circle cx="384" cy="264" r="9" fill="#14171c"/>
<circle cx="24" cy="288" r="12" fill="rgb(74,37,0)" opacity="0.35"/>
<circle cx="24" cy="288" r="9" fill="rgb(74,37,0)"/>
<circle cx="48" cy="288" r="12" fill="rgb(97,68,0)" opacity="0.35"/>
<circle cx="48" cy="288" r="9" fill="rgb(97,68,0)"/>
<circle cx="72" cy="288" r="12" fill="rgb(64,100,19)" opacity="0.35"/>
<circle cx="72" cy="288" r="9" fill="rgb(64,100,19)"/>
<circle cx="96" cy="288" r="12" fill="rgb(0,107,98)" opacity="0.35"/>
<circle cx="96" cy="288" r="9" fill="rgb(0,107,98)"/>
<circle cx="120" cy="288" r="12" fill="rgb(0,107,126)" opacity="0.35"/>
<circle cx="120" cy="288" r="9" fill="rgb(0,107,126)"/>
<circle cx="144" cy="288" r="12" fill="rgb(14,105,39)" opacity="0.35"/>
<circle cx="144" cy="288" r="9" fill="rgb(14,105,39)"/>
<circle cx="168" cy="288" r="12" fill="rgb(107,86,0)" opacity="0.35"/>
<circle cx="168" cy="288" r="9" fill="rgb(107,86,0)"/>
<circle cx="192" cy="288" r="12" fill="rgb(82,47,0)" opacity="0.35"/>
<circle cx="192" cy="288" r="9" fill="rgb(82,47,0)"/>
<circle cx="216" cy="288" r="12" fill="rgb(62,25,0)" opacity="0.35"/>
<circle cx="216" cy="288" r="9" fill="rgb(62,25,0)"/>
<circle cx="240" cy="288" r="12" fill="rgb(48,14,0)" opacity="0.35"/>
<circle cx="240" cy="288" r="9" fill="rgb(48,14,0)"/>
<circle cx="264" cy="288" r="12" fill="rgb(37,8,0)" opacity="0.35"/>
<circle cx="264" cy="288" r="9" fill="rgb(37,8,0)"/>
<circle cx="288" cy="288" r="12" fill="rgb(30,5,0)" opacity="0.35"/>
<circle cx="288" cy="288" r="9" fill="rgb(30,5,0)"/>
<circle cx="312" cy="288" r="12" fill="rgb(24,3,0)" opacity="0.35"/>
<circle cx="312" cy="288" r="9" fill="rgb(24,3,0)"/>
<circle cx="336" cy="288" r="12" fill="rgb(20,2,0)" opacity="0.35"/>
<circle cx="336" cy="288" r="9" fill="rgb(20,2,0)"/>
<circle cx="360" cy="288" r="9" fill="#14171c"/>
<circle cx="384" cy="288" r="9" fill="#14171c"/>
<circle cx="24" cy="312" r="12" fill="rgb(67,30,0)" opacity="0.35"/>
<circle cx="24" cy="312" r="9" fill="rgb(67,30,0)"/>
<circle cx="48" cy="312" r="12" fill="rgb(85,50,0)" opacity="0.35"/>
<circle cx="48" cy="312" r="9" fill="rgb(85,50,0)"/>
<circle cx="72" cy="312" r="12" fill="rgb(105,82,0)" opacity="0.35"/>
<circle cx="72" cy="312" r="9" fill="rgb(105,82,0)"/>
<circle cx="96" cy="312" r="12" fill="rgb(78,98,14)" opacity="0.35"/>
<circle cx="96" cy="312" r="9" fill="rgb(78,98,14)"/>
<circle cx="120" cy="312" r="12" fill="rgb(67,100,18)" opacity="0.35"/>
<circle cx="120" cy="312" r="9" fill="rgb(67,100,18)"/>
<circle cx="144" cy="312" r="12" fill="rgb(106,93,2)" opacity="0.35"/>
<circle cx="144" cy="312" r="9" fill="rgb(106,93,2)"/>
<circle cx="168" cy="312" r="12" fill="rgb(93,61,0)" opacity="0.35"/>
<circle cx="168" cy="312" r="9" fill="rgb(93,61,0)"/>
<circle cx="192" cy="312" r="12" fill="rgb(73,37,0)" opacity="0.35"/>
<circle cx="192" cy="312" r="9" fill="rgb(73,37,0)"/>
<circle cx="216" cy="312" r="12" fill="rgb(57,21,0)" opacity="0.35"/>
<circle cx="216" cy="312" r="9" fill="rgb(57,21,0)"/>
<circle cx="240" cy="312" r="12" fill="rgb(45,12,0)" opacity="0.35"/>
<circle cx="240" cy="312" r="9" fill="rgb(45,12,0)"/>
<circle cx="264" cy="312" r="12" fill="rgb(35,7,0)" opacity="0.35"/>
<circle cx="264" cy="312" r="9" fill="rgb(35,7,0)"/>
<circle cx="288" cy="312" r="12" fill="rgb(28,4,0)" opacity="0.35"/>
<circle cx="288" cy="312" r="9" fill="rgb(28,4,0)"/>
<circle cx="312" cy="312" r="12" fill="rgb(23,3,0)" opacity="0.35"/>
<circle cx="312" cy="312" r="9" fill="rgb(23,3,0)"/>
<circle cx="336" cy="312" r="12" fill="rgb(19,2,0)" opacity="0.35"/>
<circle cx="336" cy="312" r="9" fill="rgb(19,2,0)"/>
<circle cx="360" cy="312" r="9" fill="#14171c"/>
<circle cx="384" cy="312" r="9" fill="#14171c"/>
<circle cx="24" cy="336" r="12" fill="rgb(57,21,0)" opacity="0.35"/>
<circle cx="24" cy="336" r="9" fill="rgb(57,21,0)"/>
<circle cx="48" cy="336" r="12" fill="rgb(70,34,0)" opacity="0.35"/>
<circle cx="48" cy="336" r="9" fill="rgb(70,34,0)"/>
<circle cx="72" cy="336" r="12" fill="rgb(83,48,0)" opacity="0.35"/>
<circle cx="72" cy="336" r="9" fill="rgb(83,48,0)"/>
<circle cx="96" cy="336" r="12" fill="rgb(93,61,0)" opacity="0.35"/>
<circle cx="96" cy="336" r="9" fill="rgb(93,61,0)"/>
<circle cx="120" cy="336" r="12" fill="rgb(94,64,0)" opacity="0.35"/>
<circle cx="120" cy="336" r="9" fill="rgb(94,64,0)"/>
<circle cx="144" cy="336" r="12" fill="rgb(87,53,0)" opacity="0.35"/>
<circle cx="144" cy="336" r="9" fill="rgb(87,53,0)"/>
<circle cx="168" cy="336" r="12" fill="rgb(75,39,0)" opacity="0.35"/>
<circle cx="168" cy="336" r="9" fill="rgb(75,39,0)"/>
<circle cx="192" cy="336" r="12" fill="rgb(62,25,0)" opacity="0.35"/>
<circle cx="192" cy="336" r="9" fill="rgb(62,25,0)"/>
<circle cx="216" cy="336" r="12" fill="rgb(50,15,0)" opacity="0.35"/>
<circle cx="216" cy="336" r="9" fill="rgb(50,15,0)"/>
<circle cx="240" cy="336" r="12" fill="rgb(40,9,0)" opacity="0.35"/>
<circle cx="240" cy="336" r="9" fill="rgb(40,9,0)"/>
<circle cx="264" cy="336" r="12" fill="rgb(32,6,0)" opacity="0.35"/>
<circle cx="264" cy="336" r="9" fill="rgb(32,6,0)"/>
<circle cx="288" cy="336" r="12" fill="rgb(26,4,0)" opacity="0.35"/>
<circle cx="288" cy="336" r="9" fill="rgb(26,4,0)"/>
<circle cx="312" cy="336" r="12" fill="rgb(22,3,0)" opacity="0.35"/>
<circle cx="312" cy="336" r="9" fill="rgb(22,3,0)"/>
<circle cx="336" cy="336" r="12" fill="rgb(18,2,0)" opacity="0.35"/>
<circle cx="336" cy="336" r="9" fill="rgb(18,2,0)"/>
<circle cx="360" cy="336" r="9" fill="#14171c"/>
<circle cx="384" cy="336" r="9" fill="#14171c"/>
<circle cx="24" cy="360" r="12" fill="rgb(48,14,0)" opacity="0.35"/>
<circle cx="24" cy="360" r="9" fill="rgb(48,14,0)"/>
<circle cx="48" cy="360" r="12" fill="rgb(56,20,0)" opacity="0.35"/>
<circle cx="48" cy="360" r="9" fill="rgb(56,20,0)"/>
<circle cx="72" cy="360" r="12" fill="rgb(64,28,0)" opacity="0.35"/>
<circle cx="72" cy="360" r="9" fill="rgb(64,28,0)"/>
<circle cx="96" cy="360" r="12" fill="rgb(70,33,0)" opacity="0.35"/>
<circle cx="96" cy="360" r="9" fill="rgb(70,33,0)"/>
<circle cx="120" cy="360" r="12" fill="rgb(71,34,0)" opacity="0.35"/>
<circle cx="120" cy="360" r="9" fill="rgb(71,34,0)"/>
<circle cx="144" cy="360" r="12" fill="rgb(67,30,0)" opacity="0.35"/>
<circle cx="144" cy="360" r="9" fill="rgb(67,30,0)"/>
<circle cx="168" cy="360" r="12" fill="rgb(60,23,0)" opacity="0.35"/>
<circle cx="168" cy="360" r="9" fill="rgb(60,23,0)"/>
<circle cx="192" cy="360" r="12" fill="rgb(51,16,0)" opacity="0.35"/>
<circle cx="192" cy="360" r="9" fill="rgb(51,16,0)"/>
<circle cx="216" cy="360" r="12" fill="rgb(42,11,0)" opacity="0.35"/>
<circle cx="216" cy="360" r="9" fill="rgb(42,11,0)"/>
<circle cx="240" cy="360" r="12" fill="rgb(35,7,0)" opacity="0.35"/>
<circle cx="240" cy="360" r="9" fill="rgb(35,7,0)"/>
<circle cx="264" cy="360" r="12" fill="rgb(29,5,0)" opacity="0.35"/>
<circle cx="264" cy="360" r="9" fill="rgb(29,5,0)"/>
<circle cx="288" cy="360" r="12" fill="rgb(24,3,0)" opacity="0.35"/>
<circle cx="288" cy="360" r="9" fill="rgb(24,3,0)"/>
<circle cx="312" cy="360" r="12" fill="rgb(20,2,0)" opacity="0.35"/>
<circle cx="312" cy="360" r="9" fill="rgb(20,2,0)"/>
<circle cx="336" cy="360" r="12" fill="rgb(17,2,0)" opacity="0.35"/>
<circle cx="336" cy="360" r="9" fill="rgb(17,2,0)"/>
<circle cx="360" cy="360" r="9" fill="#14171c"/>
<circle cx="384" cy="360" r="9" fill="#14171c"/>
<circle cx="24" cy="384" r="12" fill="rgb(39,9,0)" opacity="0.35"/>
<circle cx="24" cy="384" r="9" fill="rgb(39,9,0)"/>
<circle cx="48" cy="384" r="12" fill="rgb(45,12,0)" opacity="0.35"/>
<circle cx="48" cy="384" r="9" fill="rgb(45,12,0)"/>
<circle cx="72" cy="384" r="12" fill="rgb(50,15,0)" opacity="0.35"/>
<circle cx="72" cy="384" r="9" fill="rgb(50,15,0)"/>
<circle cx="96" cy="384" r="12" fill="rgb(53,18,0)" opacity="0.35"/>
<circle cx="96" cy="384" r="9" fill="rgb(53,18,0)"/>
<circle cx="120" cy="384" r="12" fill="rgb(54,18,0)" opacity="0.35"/>
<circle cx="120" cy="384" r="9" fill="rgb(54,18,0)"/>
<circle cx="144" cy="384" r="12" fill="rgb(51,16,0)" opacity="0.35"/>
<circle cx="144" cy="384" r="9" fill="rgb(51,16,0)"/>
<circle cx="168" cy="384" r="12" fill="rgb(47,13,0)" opacity="0.35"/>
<circle cx="168" cy="384" r="9" fill="rgb(47,13,0)"/>
<circle cx="192" cy="384" r="12" fill="rgb(41,10,0)" opacity="0.35"/>
<circle cx="192" cy="384" r="9" fill="rgb(41,10,0)"/>
<circle cx="216" cy="384" r="12" fill="rgb(36,7,0)" opacity="0.35"/>
<circle cx="216" cy="384" r="9" fill="rgb(36,7,0)"/>
<circle cx="240" cy="384" r="12" fill="rgb(30,5,0)" opacity="0.35"/>
<circle cx="240" cy="384" r="9" fill="rgb(30,5,0)"/>
<circle cx="264" cy="384" r="12" fill="rgb(26,4,0)" opacity="0.35"/>
<circle cx="264" cy="384" r="9" fill="rgb(26,4,0)"/>
<circle cx="288" cy="384" r="12" fill="rgb(22,3,0)" opacity="0.35"/>
<circle cx="288" cy="384" r="9" fill="rgb(22,3,0)"/>
<circle cx="312" cy="384" r="12" fill="rgb(19,2,0)" opacity="0.35"/>
<circle cx="312" cy="384" r="9" fill="rgb(19,2,0)"/>
<circle cx="336" cy="384" r="9" fill="#14171c"/>
<circle cx="360" cy="384" r="9" fill="#14171c"/>
<circle cx="384" cy="384" r="9" fill="#14171c"/>
</svg>
