<svg xmlns="http://www.w3.org/2000/svg" viewBox="0 0 408 408" width="408" height="408" role="img" aria-label="LED preview of the Percussion Detect example graph">
<rect width="408" height="408" rx="10" fill="#05070a"/>
<circle cx="24" cy="24" r="12" fill="rgb(108,52,3)" opacity="0.35"/>
<circle cx="24" cy="24" r="9" fill="rgb(108,52,3)"/>
<circle cx="48" cy="24" r="12" fill="rgb(210,0,90)" opacity="0.35"/>
<circle cx="48" cy="24" r="9" fill="rgb(210,0,90)"/>
<circle cx="72" cy="24" r="12" fill="rgb(97,38,3)" opacity="0.35"/>
<circle cx="72" cy="24" r="9" fill="rgb(97,38,3)"/>
<circle cx="96" cy="24" r="12" fill="rgb(47,6,13)" opacity="0.35"/>
<circle cx="96" cy="24" r="9" fill="rgb(47,6,13)"/>
<circle cx="120" cy="24" r="12" fill="rgb(31,3,10)" opacity="0.35"/>
<circle cx="120" cy="24" r="9" fill="rgb(31,3,10)"/>
<circle cx="144" cy="24" r="12" fill="rgb(26,2,9)" opacity="0.35"/>
<circle cx="144" cy="24" r="9" fill="rgb(26,2,9)"/>
<circle cx="168" cy="24" r="12" fill="rgb(23,1,8)" opacity="0.35"/>
<circle cx="168" cy="24" r="9" fill="rgb(23,1,8)"/>
<circle cx="192" cy="24" r="12" fill="rgb(23,1,8)" opacity="0.35"/>
<circle cx="192" cy="24" r="9" fill="rgb(23,1,8)"/>
<circle cx="216" cy="24" r="12" fill="rgb(22,1,8)" opacity="0.35"/>
<circle cx="216" cy="24" r="9" fill="rgb(22,1,8)"/>
<circle cx="240" cy="24" r="12" fill="rgb(22,1,8)" opacity="0.35"/>
<circle cx="240" cy="24" r="9" fill="rgb(22,1,8)"/>
<circle cx="264" cy="24" r="12" fill="rgb(21,1,8)" opacity="0.35"/>
<circle cx="264" cy="24" r="9" fill="rgb(21,1,8)"/>
<circle cx="288" cy="24" r="12" fill="rgb(21,1,8)" opacity="0.35"/>
<circle cx="288" cy="24" r="9" fill="rgb(21,1,8)"/>
<circle cx="312" cy="24" r="12" fill="rgb(20,1,7)" opacity="0.35"/>
<circle cx="312" cy="24" r="9" fill="rgb(20,1,7)"/>
<circle cx="336" cy="24" r="12" fill="rgb(19,1,7)" opacity="0.35"/>
<circle cx="336" cy="24" r="9" fill="rgb(19,1,7)"/>
<circle cx="360" cy="24" r="12" fill="rgb(17,1,7)" opacity="0.35"/>
<circle cx="360" cy="24" r="9" fill="rgb(17,1,7)"/>
<circle cx="384" cy="24" r="9" fill="#14171c"/>
<circle cx="24" cy="48" r="12" fill="rgb(77,21,9)" opacity="0.35"/>
<circle cx="24" cy="48" r="9" fill="rgb(77,21,9)"/>
<circle cx="48" cy="48" r="12" fill="rgb(113,57,4)" opacity="0.35"/>
<circle cx="48" cy="48" r="9" fill="rgb(113,57,4)"/>
<circle cx="72" cy="48" r="12" fill="rgb(73,18,10)" opacity="0.35"/>
<circle cx="72" cy="48" r="9" fill="rgb(73,18,10)"/>
<circle cx="96" cy="48" r="12" fill="rgb(44,5,12)" opacity="0.35"/>
<circle cx="96" cy="48" r="9" fill="rgb(44,5,12)"/>
<circle cx="120" cy="48" r="12" fill="rgb(32,3,11)" opacity="0.35"/>
<circle cx="120" cy="48" r="9" fill="rgb(32,3,11)"/>
<circle cx="144" cy="48" r="12" fill="rgb(28,2,10)" opacity="0.35"/>
<circle cx="144" cy="48" r="9" fill="rgb(28,2,10)"/>
<circle cx="168" cy="48" r="12" fill="rgb(26,2,9)" opacity="0.35"/>
<circle cx="168" cy="48" r="9" fill="rgb(26,2,9)"/>
<circle cx="192" cy="48" r="12" fill="rgb(26,2,9)" opacity="0.35"/>
<circle cx="192" cy="48" r="9" fill="rgb(26,2,9)"/>
<circle cx="216" cy="48" r="12" fill="rgb(26,2,9)" opacity="0.35"/>
<circle cx="216" cy="48" r="9" fill="rgb(26,2,9)"/>
<circle cx="240" cy="48" r="12" fill="rgb(26,2,9)" opacity="0.35"/>
<circle cx="240" cy="48" r="9" fill="rgb(26,2,9)"/>
<circle cx="264" cy="48" r="12" fill="rgb(25,2,9)" opacity="0.35"/>
<circle cx="264" cy="48" r="9" fill="rgb(25,2,9)"/>
<circle cx="288" cy="48" r="12" fill="rgb(25,2,9)" opacity="0.35"/>
<circle cx="288" cy="48" r="9" fill="rgb(25,2,9)"/>
<circle cx="312" cy="48" r="12" fill="rgb(23,1,8)" opacity="0.35"/>
<circle cx="312" cy="48" r="9" fill="rgb(23,1,8)"/>
<circle cx="336" cy="48" r="12" fill="rgb(22,1,8)" opacity="0.35"/>
<circle cx="336" cy="48" r="9" fill="rgb(22,1,8)"/>
<circle cx="360" cy="48" r="12" fill="rgb(20,1,7)" opacity="0.35"/>
<circle cx="360" cy="48" r="9" fill="rgb(20,1,7)"/>
<circle cx="384" cy="48" r="12" fill="rgb(18,1,7)" opacity="0.35"/>
<circle cx="384" cy="48" r="9" fill="rgb(18,1,7)"/>
<circle cx="24" cy="72" r="12" fill="rgb(44,6,12)" opacity="0.35"/>
<circle cx="24" cy="72" r="9" fill="rgb(44,6,12)"/>
<circle cx="48" cy="72" r="12" fill="rgb(51,8,13)" opacity="0.35"/>
<circle cx="48" cy="72" r="9" fill="rgb(51,8,13)"/>
<circle cx="72" cy="72" r="12" fill="rgb(45,6,13)" opacity="0.35"/>
<circle cx="72" cy="72" r="9" fill="rgb(45,6,13)"/>
<circle cx="96" cy="72" r="12" fill="rgb(36,4,11)" opacity="0.35"/>
<circle cx="96" cy="72" r="9" fill="rgb(36,4,11)"/>
<circle cx="120" cy="72" r="12" fill="rgb(32,3,10)" opacity="0.35"/>
<circle cx="120" cy="72" r="9" fill="rgb(32,3,10)"/>
<circle cx="144" cy="72" r="12" fill="rgb(30,2,10)" opacity="0.35"/>
<circle cx="144" cy="72" r="9" fill="rgb(30,2,10)"/>
<circle cx="168" cy="72" r="12" fill="rgb(30,2,10)" opacity="0.35"/>
<circle cx="168" cy="72" r="9" fill="rgb(30,2,10)"/>
<circle cx="192" cy="72" r="12" fill="rgb(30,2,10)" opacity="0.35"/>
<circle cx="192" cy="72" r="9" fill="rgb(30,2,10)"/>
<circle cx="216" cy="72" r="12" fill="rgb(31,3,10)" opacity="0.35"/>
<circle cx="216" cy="72" r="9" fill="rgb(31,3,10)"/>
<circle cx="240" cy="72" r="12" fill="rgb(31,3,10)" opacity="0.35"/>
<circle cx="240" cy="72" r="9" fill="rgb(31,3,10)"/>
<circle cx="264" cy="72" r="12" fill="rgb(31,3,10)" opacity="0.35"/>
<circle cx="264" cy="72" r="9" fill="rgb(31,3,10)"/>
<circle cx="288" cy="72" r="12" fill="rgb(30,2,10)" opacity="0.35"/>
<circle cx="288" cy="72" r="9" fill="rgb(30,2,10)"/>
<circle cx="312" cy="72" r="12" fill="rgb(28,2,10)" opacity="0.35"/>
<circle cx="312" cy="72" r="9" fill="rgb(28,2,10)"/>
<circle cx="336" cy="72" r="12" fill="rgb(26,2,9)" opacity="0.35"/>
<circle cx="336" cy="72" r="9" fill="rgb(26,2,9)"/>
<circle cx="360" cy="72" r="12" fill="rgb(23,1,8)" opacity="0.35"/>
<circle cx="360" cy="72" r="9" fill="rgb(23,1,8)"/>
<circle cx="384" cy="72" r="12" fill="rgb(21,1,8)" opacity="0.35"/>
<circle cx="384" cy="72" r="9" fill="rgb(21,1,8)"/>
<circle cx="24" cy="96" r="12" fill="rgb(30,2,10)" opacity="0.35"/>
<circle cx="24" cy="96" r="9" fill="rgb(30,2,10)"/>
<circle cx="48" cy="96" r="12" fill="rgb(33,3,11)" opacity="0.35"/>
<circle cx="48" cy="96" r="9" fill="rgb(33,3,11)"/>
<circle cx="72" cy="96" r="12" fill="rgb(33,3,11)" opacity="0.35"/>
<circle cx="72" cy="96" r="9" fill="rgb(33,3,11)"/>
<circle cx="96" cy="96" r="12" fill="rgb(32,3,11)" opacity="0.35"/>
<circle cx="96" cy="96" r="9" fill="rgb(32,3,11)"/>
<circle cx="120" cy="96" r="12" fill="rgb(32,3,10)" opacity="0.35"/>
<circle cx="120" cy="96" r="9" fill="rgb(32,3,10)"/>
<circle cx="144" cy="96" r="12" fill="rgb(32,3,11)" opacity="0.35"/>
<circle cx="144" cy="96" r="9" fill="rgb(32,3,11)"/>
<circle cx="168" cy="96" r="12" fill="rgb(34,3,11)" opacity="0.35"/>
<circle cx="168" cy="96" r="9" fill="rgb(34,3,11)"/>
<circle cx="192" cy="96" r="12" fill="rgb(36,4,11)" opacity="0.35"/>
<circle cx="192" cy="96" r="9" fill="rgb(36,4,11)"/>
<circle cx="216" cy="96" r="12" fill="rgb(38,4,12)" opacity="0.35"/>
<circle cx="216" cy="96" r="9" fill="rgb(38,4,12)"/>
<circle cx="240" cy="96" r="12" fill="rgb(38,4,12)" opacity="0.35"/>
<circle cx="240" cy="96" r="9" fill="rgb(38,4,12)"/>
<circle cx="264" cy="96" r="12" fill="rgb(38,4,12)" opacity="0.35"/>
<circle cx="264" cy="96" r="9" fill="rgb(38,4,12)"/>
<circle cx="288" cy="96" r="12" fill="rgb(37,4,11)" opacity="0.35"/>
<circle cx="288" cy="96" r="9" fill="rgb(37,4,11)"/>
<circle cx="312" cy="96" r="12" fill="rgb(34,3,11)" opacity="0.35"/>
<circle cx="312" cy="96" r="9" fill="rgb(34,3,11)"/>
<circle cx="336" cy="96" r="12" fill="rgb(31,3,10)" opacity="0.35"/>
<circle cx="336" cy="96" r="9" fill="rgb(31,3,10)"/>
<circle cx="360" cy="96" r="12" fill="rgb(28,2,10)" opacity="0.35"/>
<circle cx="360" cy="96" r="9" fill="rgb(28,2,10)"/>
<circle cx="384" cy="96" r="12" fill="rgb(24,2,9)" opacity="0.35"/>
<circle cx="384" cy="96" r="9" fill="rgb(24,2,9)"/>
<circle cx="24" cy="120" r="12" fill="rgb(25,2,9)" opacity="0.35"/>
<circle cx="24" cy="120" r="9" fill="rgb(25,2,9)"/>
<circle cx="48" cy="120" r="12" fill="rgb(27,2,9)" opacity="0.35"/>
<circle cx="48" cy="120" r="9" fill="rgb(27,2,9)"/>
<circle cx="72" cy="120" r="12" fill="rgb(29,2,10)" opacity="0.35"/>
<circle cx="72" cy="120" r="9" fill="rgb(29,2,10)"/>
<circle cx="96" cy="120" r="12" fill="rgb(31,3,10)" opacity="0.35"/>
<circle cx="96" cy="120" r="9" fill="rgb(31,3,10)"/>
<circle cx="120" cy="120" r="12" fill="rgb(33,3,11)" opacity="0.35"/>
<circle cx="120" cy="120" r="9" fill="rgb(33,3,11)"/>
<circle cx="144" cy="120" r="12" fill="rgb(36,4,11)" opacity="0.35"/>
<circle cx="144" cy="120" r="9" fill="rgb(36,4,11)"/>
<circle cx="168" cy="120" r="12" fill="rgb(39,4,12)" opacity="0.35"/>
<circle cx="168" cy="120" r="9" fill="rgb(39,4,12)"/>
<circle cx="192" cy="120" r="12" fill="rgb(43,5,12)" opacity="0.35"/>
<circle cx="192" cy="120" r="9" fill="rgb(43,5,12)"/>
<circle cx="216" cy="120" r="12" fill="rgb(46,6,13)" opacity="0.35"/>
<circle cx="216" cy="120" r="9" fill="rgb(46,6,13)"/>
<circle cx="240" cy="120" r="12" fill="rgb(48,7,13)" opacity="0.35"/>
<circle cx="240" cy="120" r="9" fill="rgb(48,7,13)"/>
<circle cx="264" cy="120" r="12" fill="rgb(48,7,13)" opacity="0.35"/>
<circle cx="264" cy="120" r="9" fill="rgb(48,7,13)"/>
<circle cx="288" cy="120" r="12" fill="rgb(46,6,13)" opacity="0.35"/>
<circle cx="288" cy="120" r="9" fill="rgb(46,6,13)"/>
<circle cx="312" cy="120" r="12" fill="rgb(42,5,12)" opacity="0.35"/>
<circle cx="312" cy="120" r="9" fill="rgb(42,5,12)"/>
<circle cx="336" cy="120" r="12" fill="rgb(38,4,12)" opacity="0.35"/>
<circle cx="336" cy="120" r="9" fill="rgb(38,4,12)"/>
<circle cx="360" cy="120" r="12" fill="rgb(33,3,11)" opacity="0.35"/>
<circle cx="360" cy="120" r="9" fill="rgb(33,3,11)"/>
<circle cx="384" cy="120" r="12" fill="rgb(28,2,10)" opacity="0.35"/>
<circle cx="384" cy="120" r="9" fill="rgb(28,2,10)"/>
<circle cx="24" cy="144" r="12" fill="rgb(22,1,8)" opacity="0.35"/>
<circle cx="24" cy="144" r="9" fill="rgb(22,1,8)"/>
<circle cx="48" cy="144" r="12" fill="rgb(25,2,9)" opacity="0.35"/>
<circle cx="48" cy="144" r="9" fill="rgb(25,2,9)"/>
<circle cx="72" cy="144" r="12" fill="rgb(28,2,10)" opacity="0.35"/>
<circle cx="72" cy="144" r="9" fill="rgb(28,2,10)"/>
<circle cx="96" cy="144" r="12" fill="rgb(31,3,10)" opacity="0.35"/>
<circle cx="96" cy="144" r="9" fill="rgb(31,3,10)"/>
<circle cx="120" cy="144" r="12" fill="rgb(35,3,11)" opacity="0.35"/>
<circle cx="120" cy="144" r="9" fill="rgb(35,3,11)"/>
<circle cx="144" cy="144" r="12" fill="rgb(41,5,12)" opacity="0.35"/>
<circle cx="144" cy="144" r="9" fill="rgb(41,5,12)"/>
<circle cx="168" cy="144" r="12" fill="rgb(47,6,13)" opacity="0.35"/>
<circle cx="168" cy="144" r="9" fill="rgb(47,6,13)"/>
<circle cx="192" cy="144" r="12" fill="rgb(53,8,13)" opacity="0.35"/>
<circle cx="192" cy="144" r="9" fill="rgb(53,8,13)"/>
<circle cx="216" cy="144" r="12" fill="rgb(59,11,13)" opacity="0.35"/>
<circle cx="216" cy="144" r="9" fill="rgb(59,11,13)"/>
<circle cx="240" cy="144" r="12" fill="rgb(62,12,13)" opacity="0.35"/>
<circle cx="240" cy="144" r="9" fill="rgb(62,12,13)"/>
<circle cx="264" cy="144" r="12" fill="rgb(62,12,13)" opacity="0.35"/>
<circle cx="264" cy="144" r="9" fill="rgb(62,12,13)"/>
<circle cx="288" cy="144" r="12" fill="rgb(59,11,13)" opacity="0.35"/>
<circle cx="288" cy="144" r="9" fill="rgb(59,11,13)"/>
<circle cx="312" cy="144" r="12" fill="rgb(53,8,13)" opacity="0.35"/>
<circle cx="312" cy="144" r="9" fill="rgb(53,8,13)"/>
<circle cx="336" cy="144" r="12" fill="rgb(46,6,13)" opacity="0.35"/>
<circle cx="336" cy="144" r="9" fill="rgb(46,6,13)"/>
<circle cx="360" cy="144" r="12" fill="rgb(39,4,12)" opacity="0.35"/>
<circle cx="360" cy="144" r="9" fill="rgb(39,4,12)"/>
<circle cx="384" cy="144" r="12" fill="rgb(33,3,11)" opacity="0.35"/>
<circle cx="384" cy="144" r="9" fill="rgb(33,3,11)"/>
<circle cx="24" cy="168" r="12" fill="rgb(21,1,8)" opacity="0.35"/>
<circle cx="24" cy="168" r="9" fill="rgb(21,1,8)"/>
<circle cx="48" cy="168" r="12" fill="rgb(25,2,9)" opacity="0.35"/>
<circle cx="48" cy="168" r="9" fill="rgb(25,2,9)"/>
<circle cx="72" cy="168" r="12" fill="rgb(28,2,10)" opacity="0.35"/>
<circle cx="72" cy="168" r="9" fill="rgb(28,2,10)"/>
<circle cx="96" cy="168" r="12" fill="rgb(33,3,11)" opacity="0.35"/>
<circle cx="96" cy="168" r="9" fill="rgb(33,3,11)"/>
<circle cx="120" cy="168" r="12" fill="rgb(39,4,12)" opacity="0.35"/>
<circle cx="120" cy="168" r="9" fill="rgb(39,4,12)"/>
<circle cx="144" cy="168" r="12" fill="rgb(46,6,13)" opacity="0.35"/>
<circle cx="144" cy="168" r="9" fill="rgb(46,6,13)"/>
<circle cx="168" cy="168" r="12" fill="rgb(55,9,13)" opacity="0.35"/>
<circle cx="168" cy="168" r="9" fill="rgb(55,9,13)"/>
<circle cx="192" cy="168" r="12" fill="rgb(66,14,12)" opacity="0.35"/>
<circle cx="192" cy="168" r="9" fill="rgb(66,14,12)"/>
<circle cx="216" cy="168" r="12" fill="rgb(75,19,10)" opacity="0.35"/>
<circle cx="216" cy="168" r="9" fill="rgb(75,19,10)"/>
<circle cx="240" cy="168" r="12" fill="rgb(82,23,7)" opacity="0.35"/>
<circle cx="240" cy="168" r="9" fill="rgb(82,23,7)"/>
<circle cx="264" cy="168" r="12" fill="rgb(82,24,7)" opacity="0.35"/>
<circle cx="264" cy="168" r="9" fill="rgb(82,24,7)"/>
<circle cx="288" cy="168" r="12" fill="rgb(76,20,10)" opacity="0.35"/>
<circle cx="288" cy="168" r="9" fill="rgb(76,20,10)"/>
<circle cx="312" cy="168" r="12" fill="rgb(66,14,12)" opacity="0.35"/>
<circle cx="312" cy="168" r="9" fill="rgb(66,14,12)"/>
<circle cx="336" cy="168" r="12" fill="rgb(55,9,13)" opacity="0.35"/>
<circle cx="336" cy="168" r="9" fill="rgb(55,9,13)"/>
<circle cx="360" cy="168" r="12" fill="rgb(45,6,13)" opacity="0.35"/>
<circle cx="360" cy="168" r="9" fill="rgb(45,6,13)"/>
<circle cx="384" cy="168" r="12" fill="rgb(37,4,12)" opacity="0.35"/>
<circle cx="384" cy="168" r="9" fill="rgb(37,4,12)"/>
<circle cx="24" cy="192" r="12" fill="rgb(21,1,8)" opacity="0.35"/>
<circle cx="24" cy="192" r="9" fill="rgb(21,1,8)"/>
<circle cx="48" cy="192" r="12" fill="rgb(25,2,9)" opacity="0.35"/>
<circle cx="48" cy="192" r="9" fill="rgb(25,2,9)"/>
<circle cx="72" cy="192" r="12" fill="rgb(29,2,10)" opacity="0.35"/>
<circle cx="72" cy="192" r="9" fill="rgb(29,2,10)"/>
<circle cx="96" cy="192" r="12" fill="rgb(35,3,11)" opacity="0.35"/>
<circle cx="96" cy="192" r="9" fill="rgb(35,3,11)"/>
<circle cx="120" cy="192" r="12" fill="rgb(42,5,12)" opacity="0.35"/>
<circle cx="120" cy="192" r="9" fill="rgb(42,5,12)"/>
<circle cx="144" cy="192" r="12" fill="rgb(52,8,13)" opacity="0.35"/>
<circle cx="144" cy="192" r="9" fill="rgb(52,8,13)"/>
<circle cx="168" cy="192" r="12" fill="rgb(65,13,12)" opacity="0.35"/>
<circle cx="168" cy="192" r="9" fill="rgb(65,13,12)"/>
<circle cx="192" cy="192" r="12" fill="rgb(80,23,8)" opacity="0.35"/>
<circle cx="192" cy="192" r="9" fill="rgb(80,23,8)"/>
<circle cx="216" cy="192" r="12" fill="rgb(96,36,3)" opacity="0.35"/>
<circle cx="216" cy="192" r="9" fill="rgb(96,36,3)"/>
<circle cx="240" cy="192" r="12" fill="rgb(107,50,3)" opacity="0.35"/>
<circle cx="240" cy="192" r="9" fill="rgb(107,50,3)"/>
<circle cx="264" cy="192" r="12" fill="rgb(108,50,3)" opacity="0.35"/>
<circle cx="264" cy="192" r="9" fill="rgb(108,50,3)"/>
<circle cx="288" cy="192" r="12" fill="rgb(97,38,3)" opacity="0.35"/>
<circle cx="288" cy="192" r="9" fill="rgb(97,38,3)"/>
<circle cx="312" cy="192" r="12" fill="rgb(82,24,7)" opacity="0.35"/>
<circle cx="312" cy="192" r="9" fill="rgb(82,24,7)"/>
<circle cx="336" cy="192" r="12" fill="rgb(66,14,12)" opacity="0.35"/>
<circle cx="336" cy="192" r="9" fill="rgb(66,14,12)"/>
<circle cx="360" cy="192" r="12" fill="rgb(52,8,13)" opacity="0.35"/>
<circle cx="360" cy="192" r="9" fill="rgb(52,8,13)"/>
<circle cx="384" cy="192" r="12" fill="rgb(42,5,12)" opacity="0.35"/>
<circle cx="384" cy="192" r="9" fill="rgb(42,5,12)"/>
<circle cx="24" cy="216" r="12" fill="rgb(21,1,8)" opacity="0.35"/>
<circle cx="24" cy="216" r="9" fill="rgb(21,1,8)"/>
<circle cx="48" cy="216" r="12" fill="rgb(25,2,9)" opacity="0.35"/>
<circle cx="48" cy="216" r="9" fill="rgb(25,2,9)"/>
<circle cx="72" cy="216" r="12" fill="rgb(30,2,10)" opacity="0.35"/>
<circle cx="72" cy="216" r="9" fill="rgb(30,2,10)"/>
<circle cx="96" cy="216" r="12" fill="rgb(36,4,11)" opacity="0.35"/>
<circle cx="96" cy="216" r="9" fill="rgb(36,4,11)"/>
<circle cx="120" cy="216" r="12" fill="rgb(45,6,13)" opacity="0.35"/>
<circle cx="120" cy="216" r="9" fill="rgb(45,6,13)"/>
<circle cx="144" cy="216" r="12" fill="rgb(57,10,13)" opacity="0.35"/>
<circle cx="144" cy="216" r="9" fill="rgb(57,10,13)"/>
<circle cx="168" cy="216" r="12" fill="rgb(73,18,10)" opacity="0.35"/>
<circle cx="168" cy="216" r="9" fill="rgb(73,18,10)"/>
<circle cx="192" cy="216" r="12" fill="rgb(94,34,3)" opacity="0.35"/>
<circle cx="192" cy="216" r="9" fill="rgb(94,34,3)"/>
<circle cx="216" cy="216" r="12" fill="rgb(118,66,4)" opacity="0.35"/>
<circle cx="216" cy="216" r="9" fill="rgb(118,66,4)"/>
<circle cx="240" cy="216" r="12" fill="rgb(135,100,9)" opacity="0.35"/>
<circle cx="240" cy="216" r="9" fill="rgb(135,100,9)"/>
<circle cx="264" cy="216" r="12" fill="rgb(133,98,13)" opacity="0.35"/>
<circle cx="264" cy="216" r="9" fill="rgb(133,98,13)"/>
<circle cx="288" cy="216" r="12" fill="rgb(121,71,4)" opacity="0.35"/>
<circle cx="288" cy="216" r="9" fill="rgb(121,71,4)"/>
<circle cx="312" cy="216" r="12" fill="rgb(97,37,3)" opacity="0.35"/>
<circle cx="312" cy="216" r="9" fill="rgb(97,37,3)"/>
<circle cx="336" cy="216" r="12" fill="rgb(75,19,10)" opacity="0.35"/>
<circle cx="336" cy="216" r="9" fill="rgb(75,19,10)"/>
<circle cx="360" cy="216" r="12" fill="rgb(58,10,13)" opacity="0.35"/>
<circle cx="360" cy="216" r="9" fill="rgb(58,10,13)"/>
<circle cx="384" cy="216" r="12" fill="rgb(45,6,13)" opacity="0.35"/>
<circle cx="384" cy="216" r="9" fill="rgb(45,6,13)"/>
<circle cx="24" cy="240" r="12" fill="rgb(21,1,8)" opacity="0.35"/>
<circle cx="24" cy="240" r="9" fill="rgb(21,1,8)"/>
<circle cx="48" cy="240" r="12" fill="rgb(25,2,9)" opacity="0.35"/>
<circle cx="48" cy="240" r="9" fill="rgb(25,2,9)"/>
<circle cx="72" cy="240" r="12" fill="rgb(30,2,10)" opacity="0.35"/>
<circle cx="72" cy="240" r="9" fill="rgb(30,2,10)"/>
<circle cx="96" cy="240" r="12" fill="rgb(37,4,11)" opacity="0.35"/>
<circle cx="96" cy="240" r="9" fill="rgb(37,4,11)"/>
<circle cx="120" cy="240" r="12" fill="rgb(46,6,13)" opacity="0.35"/>
<circle cx="120" cy="240" r="9" fill="rgb(46,6,13)"/>
<circle cx="144" cy="240" r="12" fill="rgb(60,11,13)" opacity="0.35"/>
<circle cx="144" cy="240" r="9" fill="rgb(60,11,13)"/>
<circle cx="168" cy="240" r="12" fill="rgb(78,21,9)" opacity="0.35"/>
<circle cx="168" cy="240" r="9" fill="rgb(78,21,9)"/>
<circle cx="192" cy="240" r="12" fill="rgb(103,45,3)" opacity="0.35"/>
<circle cx="192" cy="240" r="9" fill="rgb(103,45,3)"/>
<circle cx="216" cy="240" r="12" fill="rgb(133,95,6)" opacity="0.35"/>
<circle cx="216" cy="240" r="9" fill="rgb(133,95,6)"/>
<circle cx="240" cy="240" r="12" fill="rgb(98,54,110)" opacity="0.35"/>
<circle cx="240" cy="240" r="9" fill="rgb(98,54,110)"/>
<circle cx="264" cy="240" r="12" fill="rgb(94,48,123)" opacity="0.35"/>
<circle cx="264" cy="240" r="9" fill="rgb(94,48,123)"/>
<circle cx="288" cy="240" r="12" fill="rgb(134,99,11)" opacity="0.35"/>
<circle cx="288" cy="240" r="9" fill="rgb(134,99,11)"/>
<circle cx="312" cy="240" r="12" fill="rgb(107,49,3)" opacity="0.35"/>
<circle cx="312" cy="240" r="9" fill="rgb(107,49,3)"/>
<circle cx="336" cy="240" r="12" fill="rgb(81,23,8)" opacity="0.35"/>
<circle cx="336" cy="240" r="9" fill="rgb(81,23,8)"/>
<circle cx="360" cy="240" r="12" fill="rgb(61,12,13)" opacity="0.35"/>
<circle cx="360" cy="240" r="9" fill="rgb(61,12,13)"/>
<circle cx="384" cy="240" r="12" fill="rgb(47,6,13)" opacity="0.35"/>
<circle cx="384" cy="240" r="9" fill="rgb(47,6,13)"/>
<circle cx="24" cy="264" r="12" fill="rgb(20,1,8)" opacity="0.35"/>
<circle cx="24" cy="264" r="9" fill="rgb(20,1,8)"/>
<circle cx="48" cy="264" r="12" fill="rgb(24,2,9)" opacity="0.35"/>
<circle cx="48" cy="264" r="9" fill="rgb(24,2,9)"/>
<circle cx="72" cy="264" r="12" fill="rgb(29,2,10)" opacity="0.35"/>
<circle cx="72" cy="264" r="9" fill="rgb(29,2,10)"/>
<circle cx="96" cy="264" r="12" fill="rgb(36,4,11)" opacity="0.35"/>
<circle cx="96" cy="264" r="9" fill="rgb(36,4,11)"/>
<circle cx="120" cy="264" r="12" fill="rgb(46,6,13)" opacity="0.35"/>
<circle cx="120" cy="264" r="9" fill="rgb(46,6,13)"/>
<circle cx="144" cy="264" r="12" fill="rgb(59,11,13)" opacity="0.35"/>
<circle cx="144" cy="264" r="9" fill="rgb(59,11,13)"/>
<circle cx="168" cy="264" r="12" fill="rgb(78,21,9)" opacity="0.35"/>
<circle cx="168" cy="264" r="9" fill="rgb(78,21,9)"/>
<circle cx="192" cy="264" r="12" fill="rgb(102,43,3)" opacity="0.35"/>
<circle cx="192" cy="264" r="9" fill="rgb(102,43,3)"/>
<circle cx="216" cy="264" r="12" fill="rgb(131,91,5)" opacity="0.35"/>
<circle cx="216" cy="264" r="9" fill="rgb(131,91,5)"/>
<circle cx="240" cy="264" r="12" fill="rgb(105,62,95)" opacity="0.35"/>
<circle cx="240" cy="264" r="9" fill="rgb(105,62,95)"/>
<circle cx="264" cy="264" r="12" fill="rgb(101,56,105)" opacity="0.35"/>
<circle cx="264" cy="264" r="9" fill="rgb(101,56,105)"/>
<circle cx="288" cy="264" r="12" fill="rgb(135,100,6)" opacity="0.35"/>
<circle cx="288" cy="264" r="9" fill="rgb(135,100,6)"/>
<circle cx="312" cy="264" r="12" fill="rgb(106,48,3)" opacity="0.35"/>
<circle cx="312" cy="264" r="9" fill="rgb(106,48,3)"/>
<circle cx="336" cy="264" r="12" fill="rgb(80,23,8)" opacity="0.35"/>
<circle cx="336" cy="264" r="9" fill="rgb(80,23,8)"/>
<circle cx="360" cy="264" r="12" fill="rgb(61,12,13)" opacity="0.35"/>
<circle cx="360" cy="264" r="9" fill="rgb(61,12,13)"/>
<circle cx="384" cy="264" r="12" fill="rgb(47,6,13)" opacity="0.35"/>
<circle cx="384" cy="264" r="9" fill="rgb(47,6,13)"/>
<circle cx="24" cy="288" r="12" fill="rgb(20,1,7)" opacity="0.35"/>
<circle cx="24" cy="288" r="9" fill="rgb(20,1,7)"/>
<circle cx="48" cy="288" r="12" fill="rgb(23,1,9)" opacity="0.35"/>
<circle cx="48" cy="288" r="9" fill="rgb(23,1,9)"/>
<circle cx="72" cy="288" r="12" fill="rgb(28,2,10)" opacity="0.35"/>
<circle cx="72" cy="288" r="9" fill="rgb(28,2,10)"/>
<circle cx="96" cy="288" r="12" fill="rgb(35,3,11)" opacity="0.35"/>
<circle cx="96" cy="288" r="9" fill="rgb(35,3,11)"/>
<circle cx="120" cy="288" r="12" fill="rgb(44,6,12)" opacity="0.35"/>
<circle cx="120" cy="288" r="9" fill="rgb(44,6,12)"/>
<circle cx="144" cy="288" r="12" fill="rgb(56,9,13)" opacity="0.35"/>
<circle cx="144" cy="288" r="9" fill="rgb(56,9,13)"/>
<circle cx="168" cy="288" r="12" fill="rgb(71,17,11)" opacity="0.35"/>
<circle cx="168" cy="288" r="9" fill="rgb(71,17,11)"/>
<circle cx="192" cy="288" r="12" fill="rgb(91,31,3)" opacity="0.35"/>
<circle cx="192" cy="288" r="9" fill="rgb(91,31,3)"/>
<circle cx="216" cy="288" r="12" fill="rgb(114,59,4)" opacity="0.35"/>
<circle cx="216" cy="288" r="9" fill="rgb(114,59,4)"/>
<circle cx="240" cy="288" r="12" fill="rgb(130,90,5)" opacity="0.35"/>
<circle cx="240" cy="288" r="9" fill="rgb(130,90,5)"/>
<circle cx="264" cy="288" r="12" fill="rgb(132,93,6)" opacity="0.35"/>
<circle cx="264" cy="288" r="9" fill="rgb(132,93,6)"/>
<circle cx="288" cy="288" r="12" fill="rgb(116,64,4)" opacity="0.35"/>
<circle cx="288" cy="288" r="9" fill="rgb(116,64,4)"/>
<circle cx="312" cy="288" r="12" fill="rgb(94,34,3)" opacity="0.35"/>
<circle cx="312" cy="288" r="9" fill="rgb(94,34,3)"/>
<circle cx="336" cy="288" r="12" fill="rgb(74,18,10)" opacity="0.35"/>
<circle cx="336" cy="288" r="9" fill="rgb(74,18,10)"/>
<circle cx="360" cy="288" r="12" fill="rgb(57,10,13)" opacity="0.35"/>
<circle cx="360" cy="288" r="9" fill="rgb(57,10,13)"/>
<circle cx="384" cy="288" r="12" fill="rgb(45,6,12)" opacity="0.35"/>
<circle cx="384" cy="288" r="9" fill="rgb(45,6,12)"/>
<circle cx="24" cy="312" r="12" fill="rgb(19,1,7)" opacity="0.35"/>
<circle cx="24" cy="312" r="9" fill="rgb(19,1,7)"/>
<circle cx="48" cy="312" r="12" fill="rgb(22,1,8)" opacity="0.35"/>
<circle cx="48" cy="312" r="9" fill="rgb(22,1,8)"/>
<circle cx="72" cy="312" r="12" fill="rgb(27,2,9)" opacity="0.35"/>
<circle cx="72" cy="312" r="9" fill="rgb(27,2,9)"/>
<circle cx="96" cy="312" r="12" fill="rgb(32,3,11)" opacity="0.35"/>
<circle cx="96" cy="312" r="9" fill="rgb(32,3,11)"/>
<circle cx="120" cy="312" r="12" fill="rgb(40,4,12)" opacity="0.35"/>
<circle cx="120" cy="312" r="9" fill="rgb(40,4,12)"/>
<circle cx="144" cy="312" r="12" fill="rgb(50,7,13)" opacity="0.35"/>
<circle cx="144" cy="312" r="9" fill="rgb(50,7,13)"/>
<circle cx="168" cy="312" r="12" fill="rgb(62,12,13)" opacity="0.35"/>
<circle cx="168" cy="312" r="9" fill="rgb(62,12,13)"/>
<circle cx="192" cy="312" r="12" fill="rgb(77,20,9)" opacity="0.35"/>
<circle cx="192" cy="312" r="9" fill="rgb(77,20,9)"/>
<circle cx="216" cy="312" r="12" fill="rgb(91,31,3)" opacity="0.35"/>
<circle cx="216" cy="312" r="9" fill="rgb(91,31,3)"/>
<circle cx="240" cy="312" r="12" fill="rgb(101,42,3)" opacity="0.35"/>
<circle cx="240" cy="312" r="9" fill="rgb(101,42,3)"/>
<circle cx="264" cy="312" r="12" fill="rgb(102,43,3)" opacity="0.35"/>
<circle cx="264" cy="312" r="9" fill="rgb(102,43,3)"/>
<circle cx="288" cy="312" r="12" fill="rgb(92,33,3)" opacity="0.35"/>
<circle cx="288" cy="312" r="9" fill="rgb(92,33,3)"/>
<circle cx="312" cy="312" r="12" fill="rgb(78,21,9)" opacity="0.35"/>
<circle cx="312" cy="312" r="9" fill="rgb(78,21,9)"/>
<circle cx="336" cy="312" r="12" fill="rgb(64,13,12)" opacity="0.35"/>
<circle cx="336" cy="312" r="9" fill="rgb(64,13,12)"/>
<circle cx="360" cy="312" r="12" fill="rgb(51,8,13)" opacity="0.35"/>
<circle cx="360" cy="312" r="9" fill="rgb(51,8,13)"/>
<circle cx="384" cy="312" r="12" fill="rgb(41,5,12)" opacity="0.35"/>
<circle cx="384" cy="312" r="9" fill="rgb(41,5,12)"/>
<circle cx="24" cy="336" r="12" fill="rgb(18,1,7)" opacity="0.35"/>
<circle cx="24" cy="336" r="9" fill="rgb(18,1,7)"/>
<circle cx="48" cy="336" r="12" fill="rgb(21,1,8)" opacity="0.35"/>
<circle cx="48" cy="336" r="9" fill="rgb(21,1,8)"/>
<circle cx="72" cy="336" r="12" fill="rgb(25,2,9)" opacity="0.35"/>
<circle cx="72" cy="336" r="9" fill="rgb(25,2,9)"/>
<circle cx="96" cy="336" r="12" fill="rgb(29,2,10)" opacity="0.35"/>
<circle cx="96" cy="336" r="9" fill="rgb(29,2,10)"/>
<circle cx="120" cy="336" r="12" fill="rgb(36,4,11)" opacity="0.35"/>
<circle cx="120" cy="336" r="9" fill="rgb(36,4,11)"/>
<circle cx="144" cy="336" r="12" fill="rgb(43,5,12)" opacity="0.35"/>
<circle cx="144" cy="336" r="9" fill="rgb(43,5,12)"/>
<circle cx="168" cy="336" r="12" fill="rgb(52,8,13)" opacity="0.35"/>
<circle cx="168" cy="336" r="9" fill="rgb(52,8,13)"/>
<circle cx="192" cy="336" r="12" fill="rgb(62,12,12)" opacity="0.35"/>
<circle cx="192" cy="336" r="9" fill="rgb(62,12,12)"/>
<circle cx="216" cy="336" r="12" fill="rgb(71,17,11)" opacity="0.35"/>
<circle cx="216" cy="336" r="9" fill="rgb(71,17,11)"/>
<circle cx="240" cy="336" r="12" fill="rgb(77,20,9)" opacity="0.35"/>
<circle cx="240" cy="336" r="9" fill="rgb(77,20,9)"/>
<circle cx="264" cy="336" r="12" fill="rgb(77,20,9)" opacity="0.35"/>
<circle cx="264" cy="336" r="9" fill="rgb(77,20,9)"/>
<circle cx="288" cy="336" r="12" fill="rgb(72,17,11)" opacity="0.35"/>
<circle cx="288" cy="336" r="9" fill="rgb(72,17,11)"/>
<circle cx="312" cy="336" r="12" fill="rgb(63,12,12)" opacity="0.35"/>
<circle cx="312" cy="336" r="9" fill="rgb(63,12,12)"/>
<circle cx="336" cy="336" r="12" fill="rgb(53,8,13)" opacity="0.35"/>
<circle cx="336" cy="336" r="9" fill="rgb(53,8,13)"/>
<circle cx="360" cy="336" r="12" fill="rgb(44,6,12)" opacity="0.35"/>
<circle cx="360" cy="336" r="9" fill="rgb(44,6,12)"/>
<circle cx="384" cy="336" r="12" fill="rgb(36,4,11)" opacity="0.35"/>
<circle cx="384" cy="336" r="9" fill="rgb(36,4,11)"/>
<circle cx="24" cy="360" r="12" fill="rgb(17,1,6)" opacity="0.35"/>
<circle cx="24" cy="360" r="9" fill="rgb(17,1,6)"/>
<circle cx="48" cy="360" r="12" fill="rgb(19,1,7)" opacity="0.35"/>
<circle cx="48" cy="360" r="9" fill="rgb(19,1,7)"/>
<circle cx="72" cy="360" r="12" fill="rgb(22,1,8)" opacity="0.35"/>
<circle cx="72" cy="360" r="9" fill="rgb(22,1,8)"/>
<circle cx="96" cy="360" r="12" fill="rgb(26,2,9)" opacity="0.35"/>
<circle cx="96" cy="360" r="9" fill="rgb(26,2,9)"/>
<circle cx="120" cy="360" r="12" fill="rgb(31,3,10)" opacity="0.35"/>
<circle cx="120" cy="360" r="9" fill="rgb(31,3,10)"/>
<circle cx="144" cy="360" r="12" fill="rgb(37,4,11)" opacity="0.35"/>
<circle cx="144" cy="360" r="9" fill="rgb(37,4,11)"/>
<circle cx="168" cy="360" r="12" fill="rgb(43,5,12)" opacity="0.35"/>
<circle cx="168" cy="360" r="9" fill="rgb(43,5,12)"/>
<circle cx="192" cy="360" r="12" fill="rgb(49,7,13)" opacity="0.35"/>
<circle cx="192" cy="360" r="9" fill="rgb(49,7,13)"/>
<circle cx="216" cy="360" r="12" fill="rgb(55,9,13)" opacity="0.35"/>
<circle cx="216" cy="360" r="9" fill="rgb(55,9,13)"/>
<circle cx="240" cy="360" r="12" fill="rgb(58,10,13)" opacity="0.35"/>
<circle cx="240" cy="360" r="9" fill="rgb(58,10,13)"/>
<circle cx="264" cy="360" r="12" fill="rgb(59,11,13)" opacity="0.35"/>
<circle cx="264" cy="360" r="9" fill="rgb(59,11,13)"/>
<circle cx="288" cy="360" r="12" fill="rgb(55,9,13)" opacity="0.35"/>
<circle cx="288" cy="360" r="9" fill="rgb(55,9,13)"/>
<circle cx="312" cy="360" r="12" fill="rgb(50,7,13)" opacity="0.35"/>
<circle cx="312" cy="360" r="9" fill="rgb(50,7,13)"/>
<circle cx="336" cy="360" r="12" fill="rgb(44,5,12)" opacity="0.35"/>
<circle cx="336" cy="360" r="9" fill="rgb(44,5,12)"/>
<circle cx="360" cy="360" r="12" fill="rgb(37,4,12)" opacity="0.35"/>
<circle cx="360" cy="360" r="9" fill="rgb(37,4,12)"/>
<circle cx="384" cy="360" r="12" fill="rgb(31,3,10)" opacity="0.35"/>
<circle cx="384" cy="360" r="9" fill="rgb(31,3,10)"/>
<circle cx="24" cy="384" r="9" fill="#14171c"/>
<circle cx="48" cy="384" r="12" fill="rgb(17,1,7)" opacity="0.35"/>
<circle cx="48" cy="384" r="9" fill="rgb(17,1,7)"/>
<circle cx="72" cy="384" r="12" fill="rgb(20,1,7)" opacity="0.35"/>
<circle cx="72" cy="384" r="9" fill="rgb(20,1,7)"/>
<circle cx="96" cy="384" r="12" fill="rgb(23,1,8)" opacity="0.35"/>
<circle cx="96" cy="384" r="9" fill="rgb(23,1,8)"/>
<circle cx="120" cy="384" r="12" fill="rgb(27,2,9)" opacity="0.35"/>
<circle cx="120" cy="384" r="9" fill="rgb(27,2,9)"/>
<circle cx="144" cy="384" r="12" fill="rgb(31,3,10)" opacity="0.35"/>
<circle cx="144" cy="384" r="9" fill="rgb(31,3,10)"/>
<circle cx="168" cy="384" r="12" fill="rgb(35,3,11)" opacity="0.35"/>
<circle cx="168" cy="384" r="9" fill="rgb(35,3,11)"/>
<circle cx="192" cy="384" r="12" fill="rgb(40,4,12)" opacity="0.35"/>
<circle cx="192" cy="384" r="9" fill="rgb(40,4,12)"/>
<circle cx="216" cy="384" r="12" fill="rgb(43,5,12)" opacity="0.35"/>
<circle cx="216" cy="384" r="9" fill="rgb(43,5,12)"/>
<circle cx="240" cy="384" r="12" fill="rgb(45,6,13)" opacity="0.35"/>
<circle cx="240" cy="384" r="9" fill="rgb(45,6,13)"/>
<circle cx="264" cy="384" r="12" fill="rgb(45,6,13)" opacity="0.35"/>
<circle cx="264" cy="384" r="9" fill="rgb(45,6,13)"/>
<circle cx="288" cy="384" r="12" fill="rgb(43,5,12)" opacity="0.35"/>
<circle cx="288" cy="384" r="9" fill="rgb(43,5,12)"/>
<circle cx="312" cy="384" r="12" fill="rgb(40,4,12)" opacity="0.35"/>
<circle cx="312" cy="384" r="9" fill="rgb(40,4,12)"/>
<circle cx="336" cy="384" r="12" fill="rgb(36,4,11)" opacity="0.35"/>
<circle cx="336" cy="384" r="9" fill="rgb(36,4,11)"/>
<circle cx="360" cy="384" r="12" fill="rgb(31,3,10)" opacity="0.35"/>
<circle cx="360" cy="384" r="9" fill="rgb(31,3,10)"/>
<circle cx="384" cy="384" r="12" fill="rgb(27,2,9)" opacity="0.35"/>
<circle cx="384" cy="384" r="9" fill="rgb(27,2,9)"/>
</svg>
