<svg xmlns="http://www.w3.org/2000/svg" viewBox="0 0 408 408" width="408" height="408" role="img" aria-label="LED preview of the Poline Palette example graph">
<rect width="408" height="408" rx="10" fill="#05070a"/>
<circle cx="24" cy="24" r="12" fill="rgb(17,255,26)" opacity="0.35"/>
<circle cx="24" cy="24" r="9" fill="rgb(17,255,26)"/>
<circle cx="48" cy="24" r="12" fill="rgb(5,244,47)" opacity="0.35"/>
<circle cx="48" cy="24" r="9" fill="rgb(5,244,47)"/>
<circle cx="72" cy="24" r="12" fill="rgb(5,243,49)" opacity="0.35"/>
<circle cx="72" cy="24" r="9" fill="rgb(5,243,49)"/>
<circle cx="96" cy="24" r="12" fill="rgb(10,255,27)" opacity="0.35"/>
<circle cx="96" cy="24" r="9" fill="rgb(10,255,27)"/>
<circle cx="120" cy="24" r="12" fill="rgb(18,255,26)" opacity="0.35"/>
<circle cx="120" cy="24" r="9" fill="rgb(18,255,26)"/>
<circle cx="144" cy="24" r="12" fill="rgb(20,255,26)" opacity="0.35"/>
<circle cx="144" cy="24" r="9" fill="rgb(20,255,26)"/>
<circle cx="168" cy="24" r="12" fill="rgb(13,255,26)" opacity="0.35"/>
<circle cx="168" cy="24" r="9" fill="rgb(13,255,26)"/>
<circle cx="192" cy="24" r="12" fill="rgb(5,243,50)" opacity="0.35"/>
<circle cx="192" cy="24" r="9" fill="rgb(5,243,50)"/>
<circle cx="216" cy="24" r="12" fill="rgb(15,255,26)" opacity="0.35"/>
<circle cx="216" cy="24" r="9" fill="rgb(15,255,26)"/>
<circle cx="240" cy="24" r="12" fill="rgb(14,255,17)" opacity="0.35"/>
<circle cx="240" cy="24" r="9" fill="rgb(14,255,17)"/>
<circle cx="264" cy="24" r="12" fill="rgb(0,196,22)" opacity="0.35"/>
<circle cx="264" cy="24" r="9" fill="rgb(0,196,22)"/>
<circle cx="288" cy="24" r="12" fill="rgb(7,58,83)" opacity="0.35"/>
<circle cx="288" cy="24" r="9" fill="rgb(7,58,83)"/>
<circle cx="312" cy="24" r="12" fill="rgb(79,12,190)" opacity="0.35"/>
<circle cx="312" cy="24" r="9" fill="rgb(79,12,190)"/>
<circle cx="336" cy="24" r="12" fill="rgb(8,53,86)" opacity="0.35"/>
<circle cx="336" cy="24" r="9" fill="rgb(8,53,86)"/>
<circle cx="360" cy="24" r="12" fill="rgb(0,192,24)" opacity="0.35"/>
<circle cx="360" cy="24" r="9" fill="rgb(0,192,24)"/>
<circle cx="384" cy="24" r="12" fill="rgb(0,239,11)" opacity="0.35"/>
<circle cx="384" cy="24" r="9" fill="rgb(0,239,11)"/>
<circle cx="24" cy="48" r="12" fill="rgb(4,255,10)" opacity="0.35"/>
<circle cx="24" cy="48" r="9" fill="rgb(4,255,10)"/>
<circle cx="48" cy="48" r="12" fill="rgb(20,255,26)" opacity="0.35"/>
<circle cx="48" cy="48" r="9" fill="rgb(20,255,26)"/>
<circle cx="72" cy="48" r="12" fill="rgb(21,255,22)" opacity="0.35"/>
<circle cx="72" cy="48" r="9" fill="rgb(21,255,22)"/>
<circle cx="96" cy="48" r="12" fill="rgb(23,255,23)" opacity="0.35"/>
<circle cx="96" cy="48" r="9" fill="rgb(23,255,23)"/>
<circle cx="120" cy="48" r="12" fill="rgb(18,255,26)" opacity="0.35"/>
<circle cx="120" cy="48" r="9" fill="rgb(18,255,26)"/>
<circle cx="144" cy="48" r="12" fill="rgb(6,246,44)" opacity="0.35"/>
<circle cx="144" cy="48" r="9" fill="rgb(6,246,44)"/>
<circle cx="168" cy="48" r="12" fill="rgb(0,225,101)" opacity="0.35"/>
<circle cx="168" cy="48" r="9" fill="rgb(0,225,101)"/>
<circle cx="192" cy="48" r="12" fill="rgb(8,254,29)" opacity="0.35"/>
<circle cx="192" cy="48" r="9" fill="rgb(8,254,29)"/>
<circle cx="216" cy="48" r="12" fill="rgb(16,255,18)" opacity="0.35"/>
<circle cx="216" cy="48" r="9" fill="rgb(16,255,18)"/>
<circle cx="240" cy="48" r="12" fill="rgb(0,209,19)" opacity="0.35"/>
<circle cx="240" cy="48" r="9" fill="rgb(0,209,19)"/>
<circle cx="264" cy="48" r="12" fill="rgb(0,131,45)" opacity="0.35"/>
<circle cx="264" cy="48" r="9" fill="rgb(0,131,45)"/>
<circle cx="288" cy="48" r="12" fill="rgb(0,123,48)" opacity="0.35"/>
<circle cx="288" cy="48" r="9" fill="rgb(0,123,48)"/>
<circle cx="312" cy="48" r="12" fill="rgb(0,93,59)" opacity="0.35"/>
<circle cx="312" cy="48" r="9" fill="rgb(0,93,59)"/>
<circle cx="336" cy="48" r="12" fill="rgb(0,141,41)" opacity="0.35"/>
<circle cx="336" cy="48" r="9" fill="rgb(0,141,41)"/>
<circle cx="360" cy="48" r="12" fill="rgb(0,234,12)" opacity="0.35"/>
<circle cx="360" cy="48" r="9" fill="rgb(0,234,12)"/>
<circle cx="384" cy="48" r="12" fill="rgb(9,255,14)" opacity="0.35"/>
<circle cx="384" cy="48" r="9" fill="rgb(9,255,14)"/>
<circle cx="24" cy="72" r="12" fill="rgb(0,191,24)" opacity="0.35"/>
<circle cx="24" cy="72" r="9" fill="rgb(0,191,24)"/>
<circle cx="48" cy="72" r="12" fill="rgb(0,248,9)" opacity="0.35"/>
<circle cx="48" cy="72" r="9" fill="rgb(0,248,9)"/>
<circle cx="72" cy="72" r="12" fill="rgb(0,204,20)" opacity="0.35"/>
<circle cx="72" cy="72" r="9" fill="rgb(0,204,20)"/>
<circle cx="96" cy="72" r="12" fill="rgb(0,211,19)" opacity="0.35"/>
<circle cx="96" cy="72" r="9" fill="rgb(0,211,19)"/>
<circle cx="120" cy="72" r="12" fill="rgb(3,255,9)" opacity="0.35"/>
<circle cx="120" cy="72" r="9" fill="rgb(3,255,9)"/>
<circle cx="144" cy="72" r="12" fill="rgb(21,255,25)" opacity="0.35"/>
<circle cx="144" cy="72" r="9" fill="rgb(21,255,25)"/>
<circle cx="168" cy="72" r="12" fill="rgb(4,240,55)" opacity="0.35"/>
<circle cx="168" cy="72" r="9" fill="rgb(4,240,55)"/>
<circle cx="192" cy="72" r="12" fill="rgb(14,255,26)" opacity="0.35"/>
<circle cx="192" cy="72" r="9" fill="rgb(14,255,26)"/>
<circle cx="216" cy="72" r="12" fill="rgb(2,255,9)" opacity="0.35"/>
<circle cx="216" cy="72" r="9" fill="rgb(2,255,9)"/>
<circle cx="240" cy="72" r="12" fill="rgb(0,141,41)" opacity="0.35"/>
<circle cx="240" cy="72" r="9" fill="rgb(0,141,41)"/>
<circle cx="264" cy="72" r="12" fill="rgb(17,14,115)" opacity="0.35"/>
<circle cx="264" cy="72" r="9" fill="rgb(17,14,115)"/>
<circle cx="288" cy="72" r="12" fill="rgb(22,0,128)" opacity="0.35"/>
<circle cx="288" cy="72" r="9" fill="rgb(22,0,128)"/>
<circle cx="312" cy="72" r="12" fill="rgb(0,119,49)" opacity="0.35"/>
<circle cx="312" cy="72" r="9" fill="rgb(0,119,49)"/>
<circle cx="336" cy="72" r="12" fill="rgb(0,244,10)" opacity="0.35"/>
<circle cx="336" cy="72" r="9" fill="rgb(0,244,10)"/>
<circle cx="360" cy="72" r="12" fill="rgb(0,193,23)" opacity="0.35"/>
<circle cx="360" cy="72" r="9" fill="rgb(0,193,23)"/>
<circle cx="384" cy="72" r="12" fill="rgb(0,164,33)" opacity="0.35"/>
<circle cx="384" cy="72" r="9" fill="rgb(0,164,33)"/>
<circle cx="24" cy="96" r="12" fill="rgb(0,151,38)" opacity="0.35"/>
<circle cx="24" cy="96" r="9" fill="rgb(0,151,38)"/>
<circle cx="48" cy="96" r="12" fill="rgb(0,157,35)" opacity="0.35"/>
<circle cx="48" cy="96" r="9" fill="rgb(0,157,35)"/>
<circle cx="72" cy="96" r="12" fill="rgb(4,69,75)" opacity="0.35"/>
<circle cx="72" cy="96" r="9" fill="rgb(4,69,75)"/>
<circle cx="96" cy="96" r="12" fill="rgb(1,82,64)" opacity="0.35"/>
<circle cx="96" cy="96" r="9" fill="rgb(1,82,64)"/>
<circle cx="120" cy="96" r="12" fill="rgb(0,185,25)" opacity="0.35"/>
<circle cx="120" cy="96" r="9" fill="rgb(0,185,25)"/>
<circle cx="144" cy="96" r="12" fill="rgb(11,255,15)" opacity="0.35"/>
<circle cx="144" cy="96" r="9" fill="rgb(11,255,15)"/>
<circle cx="168" cy="96" r="12" fill="rgb(10,255,27)" opacity="0.35"/>
<circle cx="168" cy="96" r="9" fill="rgb(10,255,27)"/>
<circle cx="192" cy="96" r="12" fill="rgb(14,255,26)" opacity="0.35"/>
<circle cx="192" cy="96" r="9" fill="rgb(14,255,26)"/>
<circle cx="216" cy="96" r="12" fill="rgb(3,255,9)" opacity="0.35"/>
<circle cx="216" cy="96" r="9" fill="rgb(3,255,9)"/>
<circle cx="240" cy="96" r="12" fill="rgb(0,144,40)" opacity="0.35"/>
<circle cx="240" cy="96" r="9" fill="rgb(0,144,40)"/>
<circle cx="264" cy="96" r="12" fill="rgb(15,20,111)" opacity="0.35"/>
<circle cx="264" cy="96" r="9" fill="rgb(15,20,111)"/>
<circle cx="288" cy="96" r="12" fill="rgb(19,5,122)" opacity="0.35"/>
<circle cx="288" cy="96" r="9" fill="rgb(19,5,122)"/>
<circle cx="312" cy="96" r="12" fill="rgb(0,122,48)" opacity="0.35"/>
<circle cx="312" cy="96" r="9" fill="rgb(0,122,48)"/>
<circle cx="336" cy="96" r="12" fill="rgb(0,200,21)" opacity="0.35"/>
<circle cx="336" cy="96" r="9" fill="rgb(0,200,21)"/>
<circle cx="360" cy="96" r="12" fill="rgb(2,79,67)" opacity="0.35"/>
<circle cx="360" cy="96" r="9" fill="rgb(2,79,67)"/>
<circle cx="384" cy="96" r="12" fill="rgb(15,22,110)" opacity="0.35"/>
<circle cx="384" cy="96" r="9" fill="rgb(15,22,110)"/>
<circle cx="24" cy="120" r="12" fill="rgb(0,186,25)" opacity="0.35"/>
<circle cx="24" cy="120" r="9" fill="rgb(0,186,25)"/>
<circle cx="48" cy="120" r="12" fill="rgb(0,102,55)" opacity="0.35"/>
<circle cx="48" cy="120" r="9" fill="rgb(0,102,55)"/>
<circle cx="72" cy="120" r="12" fill="rgb(67,10,177)" opacity="0.35"/>
<circle cx="72" cy="120" r="9" fill="rgb(67,10,177)"/>
<circle cx="96" cy="120" r="12" fill="rgb(23,1,129)" opacity="0.35"/>
<circle cx="96" cy="120" r="9" fill="rgb(23,1,129)"/>
<circle cx="120" cy="120" r="12" fill="rgb(0,137,42)" opacity="0.35"/>
<circle cx="120" cy="120" r="9" fill="rgb(0,137,42)"/>
<circle cx="144" cy="120" r="12" fill="rgb(2,255,9)" opacity="0.35"/>
<circle cx="144" cy="120" r="9" fill="rgb(2,255,9)"/>
<circle cx="168" cy="120" r="12" fill="rgb(14,255,26)" opacity="0.35"/>
<circle cx="168" cy="120" r="9" fill="rgb(14,255,26)"/>
<circle cx="192" cy="120" r="12" fill="rgb(7,253,31)" opacity="0.35"/>
<circle cx="192" cy="120" r="9" fill="rgb(7,253,31)"/>
<circle cx="216" cy="120" r="12" fill="rgb(17,255,19)" opacity="0.35"/>
<circle cx="216" cy="120" r="9" fill="rgb(17,255,19)"/>
<circle cx="240" cy="120" r="12" fill="rgb(0,214,18)" opacity="0.35"/>
<circle cx="240" cy="120" r="9" fill="rgb(0,214,18)"/>
<circle cx="264" cy="120" r="12" fill="rgb(0,140,42)" opacity="0.35"/>
<circle cx="264" cy="120" r="9" fill="rgb(0,140,42)"/>
<circle cx="288" cy="120" r="12" fill="rgb(0,132,44)" opacity="0.35"/>
<circle cx="288" cy="120" r="9" fill="rgb(0,132,44)"/>
<circle cx="312" cy="120" r="12" fill="rgb(0,201,21)" opacity="0.35"/>
<circle cx="312" cy="120" r="9" fill="rgb(0,201,21)"/>
<circle cx="336" cy="120" r="12" fill="rgb(0,183,26)" opacity="0.35"/>
<circle cx="336" cy="120" r="9" fill="rgb(0,183,26)"/>
<circle cx="360" cy="120" r="12" fill="rgb(11,41,95)" opacity="0.35"/>
<circle cx="360" cy="120" r="9" fill="rgb(11,41,95)"/>
<circle cx="384" cy="120" r="12" fill="rgb(99,17,212)" opacity="0.35"/>
<circle cx="384" cy="120" r="9" fill="rgb(99,17,212)"/>
<circle cx="24" cy="144" r="12" fill="rgb(0,253,7)" opacity="0.35"/>
<circle cx="24" cy="144" r="9" fill="rgb(0,253,7)"/>
<circle cx="48" cy="144" r="12" fill="rgb(0,143,41)" opacity="0.35"/>
<circle cx="48" cy="144" r="9" fill="rgb(0,143,41)"/>
<circle cx="72" cy="144" r="12" fill="rgb(9,48,90)" opacity="0.35"/>
<circle cx="72" cy="144" r="9" fill="rgb(9,48,90)"/>
<circle cx="96" cy="144" r="12" fill="rgb(5,63,79)" opacity="0.35"/>
<circle cx="96" cy="144" r="9" fill="rgb(5,63,79)"/>
<circle cx="120" cy="144" r="12" fill="rgb(0,173,29)" opacity="0.35"/>
<circle cx="120" cy="144" r="9" fill="rgb(0,173,29)"/>
<circle cx="144" cy="144" r="12" fill="rgb(8,255,13)" opacity="0.35"/>
<circle cx="144" cy="144" r="9" fill="rgb(8,255,13)"/>
<circle cx="168" cy="144" r="12" fill="rgb(11,255,27)" opacity="0.35"/>
<circle cx="168" cy="144" r="9" fill="rgb(11,255,27)"/>
<circle cx="192" cy="144" r="12" fill="rgb(1,231,73)" opacity="0.35"/>
<circle cx="192" cy="144" r="9" fill="rgb(1,231,73)"/>
<circle cx="216" cy="144" r="12" fill="rgb(14,255,26)" opacity="0.35"/>
<circle cx="216" cy="144" r="9" fill="rgb(14,255,26)"/>
<circle cx="240" cy="144" r="12" fill="rgb(16,255,19)" opacity="0.35"/>
<circle cx="240" cy="144" r="9" fill="rgb(16,255,19)"/>
<circle cx="264" cy="144" r="12" fill="rgb(1,255,8)" opacity="0.35"/>
<circle cx="264" cy="144" r="9" fill="rgb(1,255,8)"/>
<circle cx="288" cy="144" r="12" fill="rgb(0,255,7)" opacity="0.35"/>
<circle cx="288" cy="144" r="9" fill="rgb(0,255,7)"/>
<circle cx="312" cy="144" r="12" fill="rgb(13,255,17)" opacity="0.35"/>
<circle cx="312" cy="144" r="9" fill="rgb(13,255,17)"/>
<circle cx="336" cy="144" r="12" fill="rgb(0,221,16)" opacity="0.35"/>
<circle cx="336" cy="144" r="9" fill="rgb(0,221,16)"/>
<circle cx="360" cy="144" r="12" fill="rgb(0,122,48)" opacity="0.35"/>
<circle cx="360" cy="144" r="9" fill="rgb(0,122,48)"/>
<circle cx="384" cy="144" r="12" fill="rgb(2,76,69)" opacity="0.35"/>
<circle cx="384" cy="144" r="9" fill="rgb(2,76,69)"/>
<circle cx="24" cy="168" r="12" fill="rgb(19,255,21)" opacity="0.35"/>
<circle cx="24" cy="168" r="9" fill="rgb(19,255,21)"/>
<circle cx="48" cy="168" r="12" fill="rgb(0,232,13)" opacity="0.35"/>
<circle cx="48" cy="168" r="9" fill="rgb(0,232,13)"/>
<circle cx="72" cy="168" r="12" fill="rgb(0,186,25)" opacity="0.35"/>
<circle cx="72" cy="168" r="9" fill="rgb(0,186,25)"/>
<circle cx="96" cy="168" r="12" fill="rgb(0,192,23)" opacity="0.35"/>
<circle cx="96" cy="168" r="9" fill="rgb(0,192,23)"/>
<circle cx="120" cy="168" r="12" fill="rgb(0,249,9)" opacity="0.35"/>
<circle cx="120" cy="168" r="9" fill="rgb(0,249,9)"/>
<circle cx="144" cy="168" r="12" fill="rgb(24,255,25)" opacity="0.35"/>
<circle cx="144" cy="168" r="9" fill="rgb(24,255,25)"/>
<circle cx="168" cy="168" r="12" fill="rgb(5,244,48)" opacity="0.35"/>
<circle cx="168" cy="168" r="9" fill="rgb(5,244,48)"/>
<circle cx="192" cy="168" r="12" fill="rgb(0,223,177)" opacity="0.35"/>
<circle cx="192" cy="168" r="9" fill="rgb(0,223,177)"/>
<circle cx="216" cy="168" r="12" fill="rgb(1,231,72)" opacity="0.35"/>
<circle cx="216" cy="168" r="9" fill="rgb(1,231,72)"/>
<circle cx="240" cy="168" r="12" fill="rgb(8,254,29)" opacity="0.35"/>
<circle cx="240" cy="168" r="9" fill="rgb(8,254,29)"/>
<circle cx="264" cy="168" r="12" fill="rgb(15,255,26)" opacity="0.35"/>
<circle cx="264" cy="168" r="9" fill="rgb(15,255,26)"/>
<circle cx="288" cy="168" r="12" fill="rgb(16,255,26)" opacity="0.35"/>
<circle cx="288" cy="168" r="9" fill="rgb(16,255,26)"/>
<circle cx="312" cy="168" r="12" fill="rgb(13,255,26)" opacity="0.35"/>
<circle cx="312" cy="168" r="9" fill="rgb(13,255,26)"/>
<circle cx="336" cy="168" r="12" fill="rgb(14,255,17)" opacity="0.35"/>
<circle cx="336" cy="168" r="9" fill="rgb(14,255,17)"/>
<circle cx="360" cy="168" r="12" fill="rgb(0,235,12)" opacity="0.35"/>
<circle cx="360" cy="168" r="9" fill="rgb(0,235,12)"/>
<circle cx="384" cy="168" r="12" fill="rgb(0,214,18)" opacity="0.35"/>
<circle cx="384" cy="168" r="9" fill="rgb(0,214,18)"/>
<circle cx="24" cy="192" r="12" fill="rgb(10,255,27)" opacity="0.35"/>
<circle cx="24" cy="192" r="9" fill="rgb(10,255,27)"/>
<circle cx="48" cy="192" r="12" fill="rgb(24,255,25)" opacity="0.35"/>
<circle cx="48" cy="192" r="9" fill="rgb(24,255,25)"/>
<circle cx="72" cy="192" r="12" fill="rgb(15,255,18)" opacity="0.35"/>
<circle cx="72" cy="192" r="9" fill="rgb(15,255,18)"/>
<circle cx="96" cy="192" r="12" fill="rgb(16,255,19)" opacity="0.35"/>
<circle cx="96" cy="192" r="9" fill="rgb(16,255,19)"/>
<circle cx="120" cy="192" r="12" fill="rgb(22,255,25)" opacity="0.35"/>
<circle cx="120" cy="192" r="9" fill="rgb(22,255,25)"/>
<circle cx="144" cy="192" r="12" fill="rgb(7,252,33)" opacity="0.35"/>
<circle cx="144" cy="192" r="9" fill="rgb(7,252,33)"/>
<circle cx="168" cy="192" r="12" fill="rgb(0,225,112)" opacity="0.35"/>
<circle cx="168" cy="192" r="9" fill="rgb(0,225,112)"/>
<circle cx="192" cy="192" r="12" fill="rgb(25,194,229)" opacity="0.35"/>
<circle cx="192" cy="192" r="9" fill="rgb(25,194,229)"/>
<circle cx="216" cy="192" r="12" fill="rgb(6,215,208)" opacity="0.35"/>
<circle cx="216" cy="192" r="9" fill="rgb(6,215,208)"/>
<circle cx="240" cy="192" r="12" fill="rgb(0,224,140)" opacity="0.35"/>
<circle cx="240" cy="192" r="9" fill="rgb(0,224,140)"/>
<circle cx="264" cy="192" r="12" fill="rgb(0,225,97)" opacity="0.35"/>
<circle cx="264" cy="192" r="9" fill="rgb(0,225,97)"/>
<circle cx="288" cy="192" r="12" fill="rgb(0,226,94)" opacity="0.35"/>
<circle cx="288" cy="192" r="9" fill="rgb(0,226,94)"/>
<circle cx="312" cy="192" r="12" fill="rgb(2,233,69)" opacity="0.35"/>
<circle cx="312" cy="192" r="9" fill="rgb(2,233,69)"/>
<circle cx="336" cy="192" r="12" fill="rgb(11,255,27)" opacity="0.35"/>
<circle cx="336" cy="192" r="9" fill="rgb(11,255,27)"/>
<circle cx="360" cy="192" r="12" fill="rgb(22,255,25)" opacity="0.35"/>
<circle cx="360" cy="192" r="9" fill="rgb(22,255,25)"/>
<circle cx="384" cy="192" r="12" fill="rgb(25,255,25)" opacity="0.35"/>
<circle cx="384" cy="192" r="9" fill="rgb(25,255,25)"/>
<circle cx="24" cy="216" r="12" fill="rgb(0,225,100)" opacity="0.35"/>
<circle cx="24" cy="216" r="9" fill="rgb(0,225,100)"/>
<circle cx="48" cy="216" r="12" fill="rgb(4,241,53)" opacity="0.35"/>
<circle cx="48" cy="216" r="9" fill="rgb(4,241,53)"/>
<circle cx="72" cy="216" r="12" fill="rgb(7,251,35)" opacity="0.35"/>
<circle cx="72" cy="216" r="9" fill="rgb(7,251,35)"/>
<circle cx="96" cy="216" r="12" fill="rgb(7,250,37)" opacity="0.35"/>
<circle cx="96" cy="216" r="9" fill="rgb(7,250,37)"/>
<circle cx="120" cy="216" r="12" fill="rgb(3,237,61)" opacity="0.35"/>
<circle cx="120" cy="216" r="9" fill="rgb(3,237,61)"/>
<circle cx="144" cy="216" r="12" fill="rgb(0,226,89)" opacity="0.35"/>
<circle cx="144" cy="216" r="9" fill="rgb(0,226,89)"/>
<circle cx="168" cy="216" r="12" fill="rgb(0,228,79)" opacity="0.35"/>
<circle cx="168" cy="216" r="9" fill="rgb(0,228,79)"/>
<circle cx="192" cy="216" r="12" fill="rgb(0,225,101)" opacity="0.35"/>
<circle cx="192" cy="216" r="9" fill="rgb(0,225,101)"/>
<circle cx="216" cy="216" r="12" fill="rgb(0,223,165)" opacity="0.35"/>
<circle cx="216" cy="216" r="9" fill="rgb(0,223,165)"/>
<circle cx="240" cy="216" r="12" fill="rgb(0,223,158)" opacity="0.35"/>
<circle cx="240" cy="216" r="9" fill="rgb(0,223,158)"/>
<circle cx="264" cy="216" r="12" fill="rgb(3,236,63)" opacity="0.35"/>
<circle cx="264" cy="216" r="9" fill="rgb(3,236,63)"/>
<circle cx="288" cy="216" r="12" fill="rgb(10,255,27)" opacity="0.35"/>
<circle cx="288" cy="216" r="9" fill="rgb(10,255,27)"/>
<circle cx="312" cy="216" r="12" fill="rgb(16,255,26)" opacity="0.35"/>
<circle cx="312" cy="216" r="9" fill="rgb(16,255,26)"/>
<circle cx="336" cy="216" r="12" fill="rgb(15,255,26)" opacity="0.35"/>
<circle cx="336" cy="216" r="9" fill="rgb(15,255,26)"/>
<circle cx="360" cy="216" r="12" fill="rgb(24,255,25)" opacity="0.35"/>
<circle cx="360" cy="216" r="9" fill="rgb(24,255,25)"/>
<circle cx="384" cy="216" r="12" fill="rgb(13,255,17)" opacity="0.35"/>
<circle cx="384" cy="216" r="9" fill="rgb(13,255,17)"/>
<circle cx="24" cy="240" r="12" fill="rgb(0,223,173)" opacity="0.35"/>
<circle cx="24" cy="240" r="9" fill="rgb(0,223,173)"/>
<circle cx="48" cy="240" r="12" fill="rgb(0,222,197)" opacity="0.35"/>
<circle cx="48" cy="240" r="9" fill="rgb(0,222,197)"/>
<circle cx="72" cy="240" r="12" fill="rgb(0,223,164)" opacity="0.35"/>
<circle cx="72" cy="240" r="9" fill="rgb(0,223,164)"/>
<circle cx="96" cy="240" r="12" fill="rgb(0,227,81)" opacity="0.35"/>
<circle cx="96" cy="240" r="9" fill="rgb(0,227,81)"/>
<circle cx="120" cy="240" r="12" fill="rgb(7,252,33)" opacity="0.35"/>
<circle cx="120" cy="240" r="9" fill="rgb(7,252,33)"/>
<circle cx="144" cy="240" r="12" fill="rgb(16,255,26)" opacity="0.35"/>
<circle cx="144" cy="240" r="9" fill="rgb(16,255,26)"/>
<circle cx="168" cy="240" r="12" fill="rgb(19,255,26)" opacity="0.35"/>
<circle cx="168" cy="240" r="9" fill="rgb(19,255,26)"/>
<circle cx="192" cy="240" r="12" fill="rgb(14,255,26)" opacity="0.35"/>
<circle cx="192" cy="240" r="9" fill="rgb(14,255,26)"/>
<circle cx="216" cy="240" r="12" fill="rgb(5,245,45)" opacity="0.35"/>
<circle cx="216" cy="240" r="9" fill="rgb(5,245,45)"/>
<circle cx="240" cy="240" r="12" fill="rgb(3,237,61)" opacity="0.35"/>
<circle cx="240" cy="240" r="9" fill="rgb(3,237,61)"/>
<circle cx="264" cy="240" r="12" fill="rgb(18,255,26)" opacity="0.35"/>
<circle cx="264" cy="240" r="9" fill="rgb(18,255,26)"/>
<circle cx="288" cy="240" r="12" fill="rgb(13,255,16)" opacity="0.35"/>
<circle cx="288" cy="240" r="9" fill="rgb(13,255,16)"/>
<circle cx="312" cy="240" r="12" fill="rgb(0,253,7)" opacity="0.35"/>
<circle cx="312" cy="240" r="9" fill="rgb(0,253,7)"/>
<circle cx="336" cy="240" r="12" fill="rgb(1,255,8)" opacity="0.35"/>
<circle cx="336" cy="240" r="9" fill="rgb(1,255,8)"/>
<circle cx="360" cy="240" r="12" fill="rgb(0,240,11)" opacity="0.35"/>
<circle cx="360" cy="240" r="9" fill="rgb(0,240,11)"/>
<circle cx="384" cy="240" r="12" fill="rgb(0,184,26)" opacity="0.35"/>
<circle cx="384" cy="240" r="9" fill="rgb(0,184,26)"/>
<circle cx="24" cy="264" r="12" fill="rgb(24,196,228)" opacity="0.35"/>
<circle cx="24" cy="264" r="9" fill="rgb(24,196,228)"/>
<circle cx="48" cy="264" r="12" fill="rgb(23,196,227)" opacity="0.35"/>
<circle cx="48" cy="264" r="9" fill="rgb(23,196,227)"/>
<circle cx="72" cy="264" r="12" fill="rgb(0,226,97)" opacity="0.35"/>
<circle cx="72" cy="264" r="9" fill="rgb(0,226,97)"/>
<circle cx="96" cy="264" r="12" fill="rgb(10,255,27)" opacity="0.35"/>
<circle cx="96" cy="264" r="9" fill="rgb(10,255,27)"/>
<circle cx="120" cy="264" r="12" fill="rgb(20,255,21)" opacity="0.35"/>
<circle cx="120" cy="264" r="9" fill="rgb(20,255,21)"/>
<circle cx="144" cy="264" r="12" fill="rgb(1,255,8)" opacity="0.35"/>
<circle cx="144" cy="264" r="9" fill="rgb(1,255,8)"/>
<circle cx="168" cy="264" r="12" fill="rgb(0,242,10)" opacity="0.35"/>
<circle cx="168" cy="264" r="9" fill="rgb(0,242,10)"/>
<circle cx="192" cy="264" r="12" fill="rgb(5,255,11)" opacity="0.35"/>
<circle cx="192" cy="264" r="9" fill="rgb(5,255,11)"/>
<circle cx="216" cy="264" r="12" fill="rgb(24,255,25)" opacity="0.35"/>
<circle cx="216" cy="264" r="9" fill="rgb(24,255,25)"/>
<circle cx="240" cy="264" r="12" fill="rgb(11,255,27)" opacity="0.35"/>
<circle cx="240" cy="264" r="9" fill="rgb(11,255,27)"/>
<circle cx="264" cy="264" r="12" fill="rgb(11,255,15)" opacity="0.35"/>
<circle cx="264" cy="264" r="9" fill="rgb(11,255,15)"/>
<circle cx="288" cy="264" r="12" fill="rgb(0,199,22)" opacity="0.35"/>
<circle cx="288" cy="264" r="9" fill="rgb(0,199,22)"/>
<circle cx="312" cy="264" r="12" fill="rgb(0,130,45)" opacity="0.35"/>
<circle cx="312" cy="264" r="9" fill="rgb(0,130,45)"/>
<circle cx="336" cy="264" r="12" fill="rgb(0,138,42)" opacity="0.35"/>
<circle cx="336" cy="264" r="9" fill="rgb(0,138,42)"/>
<circle cx="360" cy="264" r="12" fill="rgb(0,163,33)" opacity="0.35"/>
<circle cx="360" cy="264" r="9" fill="rgb(0,163,33)"/>
<circle cx="384" cy="264" r="12" fill="rgb(8,53,87)" opacity="0.35"/>
<circle cx="384" cy="264" r="9" fill="rgb(8,53,87)"/>
<circle cx="24" cy="288" r="12" fill="rgb(0,225,115)" opacity="0.35"/>
<circle cx="24" cy="288" r="9" fill="rgb(0,225,115)"/>
<circle cx="48" cy="288" r="12" fill="rgb(0,222,190)" opacity="0.35"/>
<circle cx="48" cy="288" r="9" fill="rgb(0,222,190)"/>
<circle cx="72" cy="288" r="12" fill="rgb(5,243,50)" opacity="0.35"/>
<circle cx="72" cy="288" r="9" fill="rgb(5,243,50)"/>
<circle cx="96" cy="288" r="12" fill="rgb(25,255,25)" opacity="0.35"/>
<circle cx="96" cy="288" r="9" fill="rgb(25,255,25)"/>
<circle cx="120" cy="288" r="12" fill="rgb(0,231,13)" opacity="0.35"/>
<circle cx="120" cy="288" r="9" fill="rgb(0,231,13)"/>
<circle cx="144" cy="288" r="12" fill="rgb(0,146,39)" opacity="0.35"/>
<circle cx="144" cy="288" r="9" fill="rgb(0,146,39)"/>
<circle cx="168" cy="288" r="12" fill="rgb(0,112,52)" opacity="0.35"/>
<circle cx="168" cy="288" r="9" fill="rgb(0,112,52)"/>
<circle cx="192" cy="288" r="12" fill="rgb(0,170,30)" opacity="0.35"/>
<circle cx="192" cy="288" r="9" fill="rgb(0,170,30)"/>
<circle cx="216" cy="288" r="12" fill="rgb(1,255,8)" opacity="0.35"/>
<circle cx="216" cy="288" r="9" fill="rgb(1,255,8)"/>
<circle cx="240" cy="288" r="12" fill="rgb(19,255,26)" opacity="0.35"/>
<circle cx="240" cy="288" r="9" fill="rgb(19,255,26)"/>
<circle cx="264" cy="288" r="12" fill="rgb(0,244,10)" opacity="0.35"/>
<circle cx="264" cy="288" r="9" fill="rgb(0,244,10)"/>
<circle cx="288" cy="288" r="12" fill="rgb(0,120,49)" opacity="0.35"/>
<circle cx="288" cy="288" r="9" fill="rgb(0,120,49)"/>
<circle cx="312" cy="288" r="12" fill="rgb(19,3,124)" opacity="0.35"/>
<circle cx="312" cy="288" r="9" fill="rgb(19,3,124)"/>
<circle cx="336" cy="288" r="12" fill="rgb(15,20,111)" opacity="0.35"/>
<circle cx="336" cy="288" r="9" fill="rgb(15,20,111)"/>
<circle cx="360" cy="288" r="12" fill="rgb(0,132,45)" opacity="0.35"/>
<circle cx="360" cy="288" r="9" fill="rgb(0,132,45)"/>
<circle cx="384" cy="288" r="12" fill="rgb(28,2,135)" opacity="0.35"/>
<circle cx="384" cy="288" r="9" fill="rgb(28,2,135)"/>
<circle cx="24" cy="312" r="12" fill="rgb(6,249,39)" opacity="0.35"/>
<circle cx="24" cy="312" r="9" fill="rgb(6,249,39)"/>
<circle cx="48" cy="312" r="12" fill="rgb(0,224,142)" opacity="0.35"/>
<circle cx="48" cy="312" r="9" fill="rgb(0,224,142)"/>
<circle cx="72" cy="312" r="12" fill="rgb(8,253,30)" opacity="0.35"/>
<circle cx="72" cy="312" r="9" fill="rgb(8,253,30)"/>
<circle cx="96" cy="312" r="12" fill="rgb(13,255,16)" opacity="0.35"/>
<circle cx="96" cy="312" r="9" fill="rgb(13,255,16)"/>
<circle cx="120" cy="312" r="12" fill="rgb(0,180,27)" opacity="0.35"/>
<circle cx="120" cy="312" r="9" fill="rgb(0,180,27)"/>
<circle cx="144" cy="312" r="12" fill="rgb(10,44,93)" opacity="0.35"/>
<circle cx="144" cy="312" r="9" fill="rgb(10,44,93)"/>
<circle cx="168" cy="312" r="12" fill="rgb(52,7,161)" opacity="0.35"/>
<circle cx="168" cy="312" r="9" fill="rgb(52,7,161)"/>
<circle cx="192" cy="312" r="12" fill="rgb(2,80,67)" opacity="0.35"/>
<circle cx="192" cy="312" r="9" fill="rgb(2,80,67)"/>
<circle cx="216" cy="312" r="12" fill="rgb(0,212,18)" opacity="0.35"/>
<circle cx="216" cy="312" r="9" fill="rgb(0,212,18)"/>
<circle cx="240" cy="312" r="12" fill="rgb(24,255,24)" opacity="0.35"/>
<circle cx="240" cy="312" r="9" fill="rgb(24,255,24)"/>
<circle cx="264" cy="312" r="12" fill="rgb(0,243,10)" opacity="0.35"/>
<circle cx="264" cy="312" r="9" fill="rgb(0,243,10)"/>
<circle cx="288" cy="312" r="12" fill="rgb(0,118,50)" opacity="0.35"/>
<circle cx="288" cy="312" r="9" fill="rgb(0,118,50)"/>
<circle cx="312" cy="312" r="12" fill="rgb(22,0,128)" opacity="0.35"/>
<circle cx="312" cy="312" r="9" fill="rgb(22,0,128)"/>
<circle cx="336" cy="312" r="12" fill="rgb(16,16,114)" opacity="0.35"/>
<circle cx="336" cy="312" r="9" fill="rgb(16,16,114)"/>
<circle cx="360" cy="312" r="12" fill="rgb(0,143,40)" opacity="0.35"/>
<circle cx="360" cy="312" r="9" fill="rgb(0,143,40)"/>
<circle cx="384" cy="312" r="12" fill="rgb(0,87,61)" opacity="0.35"/>
<circle cx="384" cy="312" r="9" fill="rgb(0,87,61)"/>
<circle cx="24" cy="336" r="12" fill="rgb(18,255,26)" opacity="0.35"/>
<circle cx="24" cy="336" r="9" fill="rgb(18,255,26)"/>
<circle cx="48" cy="336" r="12" fill="rgb(1,231,73)" opacity="0.35"/>
<circle cx="48" cy="336" r="9" fill="rgb(1,231,73)"/>
<circle cx="72" cy="336" r="12" fill="rgb(8,255,27)" opacity="0.35"/>
<circle cx="72" cy="336" r="9" fill="rgb(8,255,27)"/>
<circle cx="96" cy="336" r="12" fill="rgb(13,255,17)" opacity="0.35"/>
<circle cx="96" cy="336" r="9" fill="rgb(13,255,17)"/>
<circle cx="120" cy="336" r="12" fill="rgb(0,184,26)" opacity="0.35"/>
<circle cx="120" cy="336" r="9" fill="rgb(0,184,26)"/>
<circle cx="144" cy="336" r="12" fill="rgb(8,51,88)" opacity="0.35"/>
<circle cx="144" cy="336" r="9" fill="rgb(8,51,88)"/>
<circle cx="168" cy="336" r="12" fill="rgb(33,3,140)" opacity="0.35"/>
<circle cx="168" cy="336" r="9" fill="rgb(33,3,140)"/>
<circle cx="192" cy="336" r="12" fill="rgb(0,85,62)" opacity="0.35"/>
<circle cx="192" cy="336" r="9" fill="rgb(0,85,62)"/>
<circle cx="216" cy="336" r="12" fill="rgb(0,215,17)" opacity="0.35"/>
<circle cx="216" cy="336" r="9" fill="rgb(0,215,17)"/>
<circle cx="240" cy="336" r="12" fill="rgb(24,255,25)" opacity="0.35"/>
<circle cx="240" cy="336" r="9" fill="rgb(24,255,25)"/>
<circle cx="264" cy="336" r="12" fill="rgb(10,255,14)" opacity="0.35"/>
<circle cx="264" cy="336" r="9" fill="rgb(10,255,14)"/>
<circle cx="288" cy="336" r="12" fill="rgb(0,196,22)" opacity="0.35"/>
<circle cx="288" cy="336" r="9" fill="rgb(0,196,22)"/>
<circle cx="312" cy="336" r="12" fill="rgb(0,125,47)" opacity="0.35"/>
<circle cx="312" cy="336" r="9" fill="rgb(0,125,47)"/>
<circle cx="336" cy="336" r="12" fill="rgb(0,133,44)" opacity="0.35"/>
<circle cx="336" cy="336" r="9" fill="rgb(0,133,44)"/>
<circle cx="360" cy="336" r="12" fill="rgb(0,211,19)" opacity="0.35"/>
<circle cx="360" cy="336" r="9" fill="rgb(0,211,19)"/>
<circle cx="384" cy="336" r="12" fill="rgb(0,216,17)" opacity="0.35"/>
<circle cx="384" cy="336" r="9" fill="rgb(0,216,17)"/>
<circle cx="24" cy="360" r="12" fill="rgb(24,255,24)" opacity="0.35"/>
<circle cx="24" cy="360" r="9" fill="rgb(24,255,24)"/>
<circle cx="48" cy="360" r="12" fill="rgb(5,245,45)" opacity="0.35"/>
<circle cx="48" cy="360" r="9" fill="rgb(5,245,45)"/>
<circle cx="72" cy="360" r="12" fill="rgb(24,255,25)" opacity="0.35"/>
<circle cx="72" cy="360" r="9" fill="rgb(24,255,25)"/>
<circle cx="96" cy="360" r="12" fill="rgb(0,240,11)" opacity="0.35"/>
<circle cx="96" cy="360" r="9" fill="rgb(0,240,11)"/>
<circle cx="120" cy="360" r="12" fill="rgb(0,179,27)" opacity="0.35"/>
<circle cx="120" cy="360" r="9" fill="rgb(0,179,27)"/>
<circle cx="144" cy="360" r="12" fill="rgb(0,160,34)" opacity="0.35"/>
<circle cx="144" cy="360" r="9" fill="rgb(0,160,34)"/>
<circle cx="168" cy="360" r="12" fill="rgb(0,128,46)" opacity="0.35"/>
<circle cx="168" cy="360" r="9" fill="rgb(0,128,46)"/>
<circle cx="192" cy="360" r="12" fill="rgb(0,183,26)" opacity="0.35"/>
<circle cx="192" cy="360" r="9" fill="rgb(0,183,26)"/>
<circle cx="216" cy="360" r="12" fill="rgb(3,255,9)" opacity="0.35"/>
<circle cx="216" cy="360" r="9" fill="rgb(3,255,9)"/>
<circle cx="240" cy="360" r="12" fill="rgb(17,255,26)" opacity="0.35"/>
<circle cx="240" cy="360" r="9" fill="rgb(17,255,26)"/>
<circle cx="264" cy="360" r="12" fill="rgb(18,255,26)" opacity="0.35"/>
<circle cx="264" cy="360" r="9" fill="rgb(18,255,26)"/>
<circle cx="288" cy="360" r="12" fill="rgb(11,255,15)" opacity="0.35"/>
<circle cx="288" cy="360" r="9" fill="rgb(11,255,15)"/>
<circle cx="312" cy="360" r="12" fill="rgb(0,250,8)" opacity="0.35"/>
<circle cx="312" cy="360" r="9" fill="rgb(0,250,8)"/>
<circle cx="336" cy="360" r="12" fill="rgb(0,254,7)" opacity="0.35"/>
<circle cx="336" cy="360" r="9" fill="rgb(0,254,7)"/>
<circle cx="360" cy="360" r="12" fill="rgb(15,255,18)" opacity="0.35"/>
<circle cx="360" cy="360" r="9" fill="rgb(15,255,18)"/>
<circle cx="384" cy="360" r="12" fill="rgb(25,255,25)" opacity="0.35"/>
<circle cx="384" cy="360" r="9" fill="rgb(25,255,25)"/>
<circle cx="24" cy="384" r="12" fill="rgb(24,255,24)" opacity="0.35"/>
<circle cx="24" cy="384" r="9" fill="rgb(24,255,24)"/>
<circle cx="48" cy="384" r="12" fill="rgb(11,255,27)" opacity="0.35"/>
<circle cx="48" cy="384" r="9" fill="rgb(11,255,27)"/>
<circle cx="72" cy="384" r="12" fill="rgb(7,255,12)" opacity="0.35"/>
<circle cx="72" cy="384" r="9" fill="rgb(7,255,12)"/>
<circle cx="96" cy="384" r="12" fill="rgb(0,167,32)" opacity="0.35"/>
<circle cx="96" cy="384" r="9" fill="rgb(0,167,32)"/>
<circle cx="120" cy="384" r="12" fill="rgb(8,51,88)" opacity="0.35"/>
<circle cx="120" cy="384" r="9" fill="rgb(8,51,88)"/>
<circle cx="144" cy="384" r="12" fill="rgb(13,32,102)" opacity="0.35"/>
<circle cx="144" cy="384" r="9" fill="rgb(13,32,102)"/>
<circle cx="168" cy="384" r="12" fill="rgb(0,131,45)" opacity="0.35"/>
<circle cx="168" cy="384" r="9" fill="rgb(0,131,45)"/>
<circle cx="192" cy="384" r="12" fill="rgb(0,247,9)" opacity="0.35"/>
<circle cx="192" cy="384" r="9" fill="rgb(0,247,9)"/>
<circle cx="216" cy="384" r="12" fill="rgb(22,255,25)" opacity="0.35"/>
<circle cx="216" cy="384" r="9" fill="rgb(22,255,25)"/>
<circle cx="240" cy="384" r="12" fill="rgb(6,249,38)" opacity="0.35"/>
<circle cx="240" cy="384" r="9" fill="rgb(6,249,38)"/>
<circle cx="264" cy="384" r="12" fill="rgb(14,255,26)" opacity="0.35"/>
<circle cx="264" cy="384" r="9" fill="rgb(14,255,26)"/>
<circle cx="288" cy="384" r="12" fill="rgb(17,255,26)" opacity="0.35"/>
<circle cx="288" cy="384" r="9" fill="rgb(17,255,26)"/>
<circle cx="312" cy="384" r="12" fill="rgb(17,255,26)" opacity="0.35"/>
<circle cx="312" cy="384" r="9" fill="rgb(17,255,26)"/>
<circle cx="336" cy="384" r="12" fill="rgb(16,255,26)" opacity="0.35"/>
<circle cx="336" cy="384" r="9" fill="rgb(16,255,26)"/>
<circle cx="360" cy="384" r="12" fill="rgb(8,255,27)" opacity="0.35"/>
<circle cx="360" cy="384" r="9" fill="rgb(8,255,27)"/>
<circle cx="384" cy="384" r="12" fill="rgb(4,240,56)" opacity="0.35"/>
<circle cx="384" cy="384" r="9" fill="rgb(4,240,56)"/>
</svg>
