<svg xmlns="http://www.w3.org/2000/svg" viewBox="0 0 408 408" width="408" height="408" role="img" aria-label="LED preview of the Potentiometer example graph">
<rect width="408" height="408" rx="10" fill="#05070a"/>
<circle cx="24" cy="24" r="12" fill="rgb(251,84,10)" opacity="0.35"/>
<circle cx="24" cy="24" r="9" fill="rgb(251,84,10)"/>
<circle cx="48" cy="24" r="12" fill="rgb(251,89,7)" opacity="0.35"/>
<circle cx="48" cy="24" r="9" fill="rgb(251,89,7)"/>
<circle cx="72" cy="24" r="12" fill="rgb(251,94,7)" opacity="0.35"/>
<circle cx="72" cy="24" r="9" fill="rgb(251,94,7)"/>
<circle cx="96" cy="24" r="12" fill="rgb(251,98,7)" opacity="0.35"/>
<circle cx="96" cy="24" r="9" fill="rgb(251,98,7)"/>
<circle cx="120" cy="24" r="12" fill="rgb(252,100,8)" opacity="0.35"/>
<circle cx="120" cy="24" r="9" fill="rgb(252,100,8)"/>
<circle cx="144" cy="24" r="12" fill="rgb(252,101,8)" opacity="0.35"/>
<circle cx="144" cy="24" r="9" fill="rgb(252,101,8)"/>
<circle cx="168" cy="24" r="12" fill="rgb(252,103,8)" opacity="0.35"/>
<circle cx="168" cy="24" r="9" fill="rgb(252,103,8)"/>
<circle cx="192" cy="24" r="12" fill="rgb(252,104,8)" opacity="0.35"/>
<circle cx="192" cy="24" r="9" fill="rgb(252,104,8)"/>
<circle cx="216" cy="24" r="12" fill="rgb(252,106,8)" opacity="0.35"/>
<circle cx="216" cy="24" r="9" fill="rgb(252,106,8)"/>
<circle cx="240" cy="24" r="12" fill="rgb(252,108,8)" opacity="0.35"/>
<circle cx="240" cy="24" r="9" fill="rgb(252,108,8)"/>
<circle cx="264" cy="24" r="12" fill="rgb(252,110,8)" opacity="0.35"/>
<circle cx="264" cy="24" r="9" fill="rgb(252,110,8)"/>
<circle cx="288" cy="24" r="12" fill="rgb(252,113,8)" opacity="0.35"/>
<circle cx="288" cy="24" r="9" fill="rgb(252,113,8)"/>
<circle cx="312" cy="24" r="12" fill="rgb(252,114,8)" opacity="0.35"/>
<circle cx="312" cy="24" r="9" fill="rgb(252,114,8)"/>
<circle cx="336" cy="24" r="12" fill="rgb(252,113,8)" opacity="0.35"/>
<circle cx="336" cy="24" r="9" fill="rgb(252,113,8)"/>
<circle cx="360" cy="24" r="12" fill="rgb(252,110,8)" opacity="0.35"/>
<circle cx="360" cy="24" r="9" fill="rgb(252,110,8)"/>
<circle cx="384" cy="24" r="12" fill="rgb(252,104,8)" opacity="0.35"/>
<circle cx="384" cy="24" r="9" fill="rgb(252,104,8)"/>
<circle cx="24" cy="48" r="12" fill="rgb(251,98,7)" opacity="0.35"/>
<circle cx="24" cy="48" r="9" fill="rgb(251,98,7)"/>
<circle cx="48" cy="48" r="12" fill="rgb(252,106,8)" opacity="0.35"/>
<circle cx="48" cy="48" r="9" fill="rgb(252,106,8)"/>
<circle cx="72" cy="48" r="12" fill="rgb(252,112,8)" opacity="0.35"/>
<circle cx="72" cy="48" r="9" fill="rgb(252,112,8)"/>
<circle cx="96" cy="48" r="12" fill="rgb(252,116,8)" opacity="0.35"/>
<circle cx="96" cy="48" r="9" fill="rgb(252,116,8)"/>
<circle cx="120" cy="48" r="12" fill="rgb(252,118,8)" opacity="0.35"/>
<circle cx="120" cy="48" r="9" fill="rgb(252,118,8)"/>
<circle cx="144" cy="48" r="12" fill="rgb(252,119,8)" opacity="0.35"/>
<circle cx="144" cy="48" r="9" fill="rgb(252,119,8)"/>
<circle cx="168" cy="48" r="12" fill="rgb(252,119,8)" opacity="0.35"/>
<circle cx="168" cy="48" r="9" fill="rgb(252,119,8)"/>
<circle cx="192" cy="48" r="12" fill="rgb(252,120,8)" opacity="0.35"/>
<circle cx="192" cy="48" r="9" fill="rgb(252,120,8)"/>
<circle cx="216" cy="48" r="12" fill="rgb(252,122,8)" opacity="0.35"/>
<circle cx="216" cy="48" r="9" fill="rgb(252,122,8)"/>
<circle cx="240" cy="48" r="12" fill="rgb(253,125,9)" opacity="0.35"/>
<circle cx="240" cy="48" r="9" fill="rgb(253,125,9)"/>
<circle cx="264" cy="48" r="12" fill="rgb(253,129,9)" opacity="0.35"/>
<circle cx="264" cy="48" r="9" fill="rgb(253,129,9)"/>
<circle cx="288" cy="48" r="12" fill="rgb(253,134,9)" opacity="0.35"/>
<circle cx="288" cy="48" r="9" fill="rgb(253,134,9)"/>
<circle cx="312" cy="48" r="12" fill="rgb(253,137,9)" opacity="0.35"/>
<circle cx="312" cy="48" r="9" fill="rgb(253,137,9)"/>
<circle cx="336" cy="48" r="12" fill="rgb(253,137,9)" opacity="0.35"/>
<circle cx="336" cy="48" r="9" fill="rgb(253,137,9)"/>
<circle cx="360" cy="48" r="12" fill="rgb(253,134,9)" opacity="0.35"/>
<circle cx="360" cy="48" r="9" fill="rgb(253,134,9)"/>
<circle cx="384" cy="48" r="12" fill="rgb(253,126,9)" opacity="0.35"/>
<circle cx="384" cy="48" r="9" fill="rgb(253,126,9)"/>
<circle cx="24" cy="72" r="12" fill="rgb(252,117,8)" opacity="0.35"/>
<circle cx="24" cy="72" r="9" fill="rgb(252,117,8)"/>
<circle cx="48" cy="72" r="12" fill="rgb(253,128,9)" opacity="0.35"/>
<circle cx="48" cy="72" r="9" fill="rgb(253,128,9)"/>
<circle cx="72" cy="72" r="12" fill="rgb(253,135,9)" opacity="0.35"/>
<circle cx="72" cy="72" r="9" fill="rgb(253,135,9)"/>
<circle cx="96" cy="72" r="12" fill="rgb(253,139,9)" opacity="0.35"/>
<circle cx="96" cy="72" r="9" fill="rgb(253,139,9)"/>
<circle cx="120" cy="72" r="12" fill="rgb(253,140,9)" opacity="0.35"/>
<circle cx="120" cy="72" r="9" fill="rgb(253,140,9)"/>
<circle cx="144" cy="72" r="12" fill="rgb(253,139,9)" opacity="0.35"/>
<circle cx="144" cy="72" r="9" fill="rgb(253,139,9)"/>
<circle cx="168" cy="72" r="12" fill="rgb(253,138,9)" opacity="0.35"/>
<circle cx="168" cy="72" r="9" fill="rgb(253,138,9)"/>
<circle cx="192" cy="72" r="12" fill="rgb(253,138,9)" opacity="0.35"/>
<circle cx="192" cy="72" r="9" fill="rgb(253,138,9)"/>
<circle cx="216" cy="72" r="12" fill="rgb(253,140,9)" opacity="0.35"/>
<circle cx="216" cy="72" r="9" fill="rgb(253,140,9)"/>
<circle cx="240" cy="72" r="12" fill="rgb(253,145,9)" opacity="0.35"/>
<circle cx="240" cy="72" r="9" fill="rgb(253,145,9)"/>
<circle cx="264" cy="72" r="12" fill="rgb(254,151,10)" opacity="0.35"/>
<circle cx="264" cy="72" r="9" fill="rgb(254,151,10)"/>
<circle cx="288" cy="72" r="12" fill="rgb(254,159,10)" opacity="0.35"/>
<circle cx="288" cy="72" r="9" fill="rgb(254,159,10)"/>
<circle cx="312" cy="72" r="12" fill="rgb(254,166,10)" opacity="0.35"/>
<circle cx="312" cy="72" r="9" fill="rgb(254,166,10)"/>
<circle cx="336" cy="72" r="12" fill="rgb(254,169,10)" opacity="0.35"/>
<circle cx="336" cy="72" r="9" fill="rgb(254,169,10)"/>
<circle cx="360" cy="72" r="12" fill="rgb(254,166,10)" opacity="0.35"/>
<circle cx="360" cy="72" r="9" fill="rgb(254,166,10)"/>
<circle cx="384" cy="72" r="12" fill="rgb(254,155,10)" opacity="0.35"/>
<circle cx="384" cy="72" r="9" fill="rgb(254,155,10)"/>
<circle cx="24" cy="96" r="12" fill="rgb(253,141,9)" opacity="0.35"/>
<circle cx="24" cy="96" r="9" fill="rgb(253,141,9)"/>
<circle cx="48" cy="96" r="12" fill="rgb(254,156,10)" opacity="0.35"/>
<circle cx="48" cy="96" r="9" fill="rgb(254,156,10)"/>
<circle cx="72" cy="96" r="12" fill="rgb(254,165,10)" opacity="0.35"/>
<circle cx="72" cy="96" r="9" fill="rgb(254,165,10)"/>
<circle cx="96" cy="96" r="12" fill="rgb(254,168,10)" opacity="0.35"/>
<circle cx="96" cy="96" r="9" fill="rgb(254,168,10)"/>
<circle cx="120" cy="96" r="12" fill="rgb(254,166,10)" opacity="0.35"/>
<circle cx="120" cy="96" r="9" fill="rgb(254,166,10)"/>
<circle cx="144" cy="96" r="12" fill="rgb(254,162,10)" opacity="0.35"/>
<circle cx="144" cy="96" r="9" fill="rgb(254,162,10)"/>
<circle cx="168" cy="96" r="12" fill="rgb(254,159,10)" opacity="0.35"/>
<circle cx="168" cy="96" r="9" fill="rgb(254,159,10)"/>
<circle cx="192" cy="96" r="12" fill="rgb(254,157,10)" opacity="0.35"/>
<circle cx="192" cy="96" r="9" fill="rgb(254,157,10)"/>
<circle cx="216" cy="96" r="12" fill="rgb(254,159,10)" opacity="0.35"/>
<circle cx="216" cy="96" r="9" fill="rgb(254,159,10)"/>
<circle cx="240" cy="96" r="12" fill="rgb(254,165,10)" opacity="0.35"/>
<circle cx="240" cy="96" r="9" fill="rgb(254,165,10)"/>
<circle cx="264" cy="96" r="12" fill="rgb(254,176,10)" opacity="0.35"/>
<circle cx="264" cy="96" r="9" fill="rgb(254,176,10)"/>
<circle cx="288" cy="96" r="12" fill="rgb(255,189,11)" opacity="0.35"/>
<circle cx="288" cy="96" r="9" fill="rgb(255,189,11)"/>
<circle cx="312" cy="96" r="12" fill="rgb(240,173,39)" opacity="0.35"/>
<circle cx="312" cy="96" r="9" fill="rgb(240,173,39)"/>
<circle cx="336" cy="96" r="12" fill="rgb(230,163,56)" opacity="0.35"/>
<circle cx="336" cy="96" r="9" fill="rgb(230,163,56)"/>
<circle cx="360" cy="96" r="12" fill="rgb(235,168,48)" opacity="0.35"/>
<circle cx="360" cy="96" r="9" fill="rgb(235,168,48)"/>
<circle cx="384" cy="96" r="12" fill="rgb(253,188,14)" opacity="0.35"/>
<circle cx="384" cy="96" r="9" fill="rgb(253,188,14)"/>
<circle cx="24" cy="120" r="12" fill="rgb(254,170,10)" opacity="0.35"/>
<circle cx="24" cy="120" r="9" fill="rgb(254,170,10)"/>
<circle cx="48" cy="120" r="12" fill="rgb(253,188,14)" opacity="0.35"/>
<circle cx="48" cy="120" r="9" fill="rgb(253,188,14)"/>
<circle cx="72" cy="120" r="12" fill="rgb(238,171,42)" opacity="0.35"/>
<circle cx="72" cy="120" r="9" fill="rgb(238,171,42)"/>
<circle cx="96" cy="120" r="12" fill="rgb(235,169,46)" opacity="0.35"/>
<circle cx="96" cy="120" r="9" fill="rgb(235,169,46)"/>
<circle cx="120" cy="120" r="12" fill="rgb(244,178,31)" opacity="0.35"/>
<circle cx="120" cy="120" r="9" fill="rgb(244,178,31)"/>
<circle cx="144" cy="120" r="12" fill="rgb(255,189,11)" opacity="0.35"/>
<circle cx="144" cy="120" r="9" fill="rgb(255,189,11)"/>
<circle cx="168" cy="120" r="12" fill="rgb(255,181,11)" opacity="0.35"/>
<circle cx="168" cy="120" r="9" fill="rgb(255,181,11)"/>
<circle cx="192" cy="120" r="12" fill="rgb(255,178,11)" opacity="0.35"/>
<circle cx="192" cy="120" r="9" fill="rgb(255,178,11)"/>
<circle cx="216" cy="120" r="12" fill="rgb(255,179,11)" opacity="0.35"/>
<circle cx="216" cy="120" r="9" fill="rgb(255,179,11)"/>
<circle cx="240" cy="120" r="12" fill="rgb(255,187,11)" opacity="0.35"/>
<circle cx="240" cy="120" r="9" fill="rgb(255,187,11)"/>
<circle cx="264" cy="120" r="12" fill="rgb(242,176,34)" opacity="0.35"/>
<circle cx="264" cy="120" r="9" fill="rgb(242,176,34)"/>
<circle cx="288" cy="120" r="12" fill="rgb(217,149,80)" opacity="0.35"/>
<circle cx="288" cy="120" r="9" fill="rgb(217,149,80)"/>
<circle cx="312" cy="120" r="12" fill="rgb(188,117,133)" opacity="0.35"/>
<circle cx="312" cy="120" r="9" fill="rgb(188,117,133)"/>
<circle cx="336" cy="120" r="12" fill="rgb(168,96,168)" opacity="0.35"/>
<circle cx="336" cy="120" r="9" fill="rgb(168,96,168)"/>
<circle cx="360" cy="120" r="12" fill="rgb(172,101,161)" opacity="0.35"/>
<circle cx="360" cy="120" r="9" fill="rgb(172,101,161)"/>
<circle cx="384" cy="120" r="12" fill="rgb(201,132,109)" opacity="0.35"/>
<circle cx="384" cy="120" r="9" fill="rgb(201,132,109)"/>
<circle cx="24" cy="144" r="12" fill="rgb(238,172,42)" opacity="0.35"/>
<circle cx="24" cy="144" r="9" fill="rgb(238,172,42)"/>
<circle cx="48" cy="144" r="12" fill="rgb(201,131,110)" opacity="0.35"/>
<circle cx="48" cy="144" r="9" fill="rgb(201,131,110)"/>
<circle cx="72" cy="144" r="12" fill="rgb(178,107,151)" opacity="0.35"/>
<circle cx="72" cy="144" r="9" fill="rgb(178,107,151)"/>
<circle cx="96" cy="144" r="12" fill="rgb(178,107,150)" opacity="0.35"/>
<circle cx="96" cy="144" r="9" fill="rgb(178,107,150)"/>
<circle cx="120" cy="144" r="12" fill="rgb(197,128,116)" opacity="0.35"/>
<circle cx="120" cy="144" r="9" fill="rgb(197,128,116)"/>
<circle cx="144" cy="144" r="12" fill="rgb(221,153,74)" opacity="0.35"/>
<circle cx="144" cy="144" r="9" fill="rgb(221,153,74)"/>
<circle cx="168" cy="144" r="12" fill="rgb(237,171,43)" opacity="0.35"/>
<circle cx="168" cy="144" r="9" fill="rgb(237,171,43)"/>
<circle cx="192" cy="144" r="12" fill="rgb(245,179,30)" opacity="0.35"/>
<circle cx="192" cy="144" r="9" fill="rgb(245,179,30)"/>
<circle cx="216" cy="144" r="12" fill="rgb(244,178,32)" opacity="0.35"/>
<circle cx="216" cy="144" r="9" fill="rgb(244,178,32)"/>
<circle cx="240" cy="144" r="12" fill="rgb(234,168,48)" opacity="0.35"/>
<circle cx="240" cy="144" r="9" fill="rgb(234,168,48)"/>
<circle cx="264" cy="144" r="12" fill="rgb(214,146,85)" opacity="0.35"/>
<circle cx="264" cy="144" r="9" fill="rgb(214,146,85)"/>
<circle cx="288" cy="144" r="12" fill="rgb(180,109,147)" opacity="0.35"/>
<circle cx="288" cy="144" r="9" fill="rgb(180,109,147)"/>
<circle cx="312" cy="144" r="12" fill="rgb(135,60,229)" opacity="0.35"/>
<circle cx="312" cy="144" r="9" fill="rgb(135,60,229)"/>
<circle cx="336" cy="144" r="12" fill="rgb(113,75,241)" opacity="0.35"/>
<circle cx="336" cy="144" r="9" fill="rgb(113,75,241)"/>
<circle cx="360" cy="144" r="12" fill="rgb(116,72,240)" opacity="0.35"/>
<circle cx="360" cy="144" r="9" fill="rgb(116,72,240)"/>
<circle cx="384" cy="144" r="12" fill="rgb(148,74,206)" opacity="0.35"/>
<circle cx="384" cy="144" r="9" fill="rgb(148,74,206)"/>
<circle cx="24" cy="168" r="12" fill="rgb(198,128,115)" opacity="0.35"/>
<circle cx="24" cy="168" r="9" fill="rgb(198,128,115)"/>
<circle cx="48" cy="168" r="12" fill="rgb(144,70,213)" opacity="0.35"/>
<circle cx="48" cy="168" r="9" fill="rgb(144,70,213)"/>
<circle cx="72" cy="168" r="12" fill="rgb(118,70,239)" opacity="0.35"/>
<circle cx="72" cy="168" r="9" fill="rgb(118,70,239)"/>
<circle cx="96" cy="168" r="12" fill="rgb(121,67,239)" opacity="0.35"/>
<circle cx="96" cy="168" r="9" fill="rgb(121,67,239)"/>
<circle cx="120" cy="168" r="12" fill="rgb(149,76,203)" opacity="0.35"/>
<circle cx="120" cy="168" r="9" fill="rgb(149,76,203)"/>
<circle cx="144" cy="168" r="12" fill="rgb(187,116,135)" opacity="0.35"/>
<circle cx="144" cy="168" r="9" fill="rgb(187,116,135)"/>
<circle cx="168" cy="168" r="12" fill="rgb(210,142,92)" opacity="0.35"/>
<circle cx="168" cy="168" r="9" fill="rgb(210,142,92)"/>
<circle cx="192" cy="168" r="12" fill="rgb(219,151,76)" opacity="0.35"/>
<circle cx="192" cy="168" r="9" fill="rgb(219,151,76)"/>
<circle cx="216" cy="168" r="12" fill="rgb(219,151,77)" opacity="0.35"/>
<circle cx="216" cy="168" r="9" fill="rgb(219,151,77)"/>
<circle cx="240" cy="168" r="12" fill="rgb(211,143,91)" opacity="0.35"/>
<circle cx="240" cy="168" r="9" fill="rgb(211,143,91)"/>
<circle cx="264" cy="168" r="12" fill="rgb(193,123,124)" opacity="0.35"/>
<circle cx="264" cy="168" r="9" fill="rgb(193,123,124)"/>
<circle cx="288" cy="168" r="12" fill="rgb(155,82,192)" opacity="0.35"/>
<circle cx="288" cy="168" r="9" fill="rgb(155,82,192)"/>
<circle cx="312" cy="168" r="12" fill="rgb(113,76,241)" opacity="0.35"/>
<circle cx="312" cy="168" r="9" fill="rgb(113,76,241)"/>
<circle cx="336" cy="168" r="12" fill="rgb(86,105,248)" opacity="0.35"/>
<circle cx="336" cy="168" r="9" fill="rgb(86,105,248)"/>
<circle cx="360" cy="168" r="12" fill="rgb(88,102,247)" opacity="0.35"/>
<circle cx="360" cy="168" r="9" fill="rgb(88,102,247)"/>
<circle cx="384" cy="168" r="12" fill="rgb(120,67,239)" opacity="0.35"/>
<circle cx="384" cy="168" r="9" fill="rgb(120,67,239)"/>
<circle cx="24" cy="192" r="12" fill="rgb(170,98,165)" opacity="0.35"/>
<circle cx="24" cy="192" r="9" fill="rgb(170,98,165)"/>
<circle cx="48" cy="192" r="12" fill="rgb(114,74,241)" opacity="0.35"/>
<circle cx="48" cy="192" r="9" fill="rgb(114,74,241)"/>
<circle cx="72" cy="192" r="12" fill="rgb(87,103,247)" opacity="0.35"/>
<circle cx="72" cy="192" r="9" fill="rgb(87,103,247)"/>
<circle cx="96" cy="192" r="12" fill="rgb(92,98,246)" opacity="0.35"/>
<circle cx="96" cy="192" r="9" fill="rgb(92,98,246)"/>
<circle cx="120" cy="192" r="12" fill="rgb(121,67,239)" opacity="0.35"/>
<circle cx="120" cy="192" r="9" fill="rgb(121,67,239)"/>
<circle cx="144" cy="192" r="12" fill="rgb(162,90,179)" opacity="0.35"/>
<circle cx="144" cy="192" r="9" fill="rgb(162,90,179)"/>
<circle cx="168" cy="192" r="12" fill="rgb(187,117,134)" opacity="0.35"/>
<circle cx="168" cy="192" r="9" fill="rgb(187,117,134)"/>
<circle cx="192" cy="192" r="12" fill="rgb(192,122,125)" opacity="0.35"/>
<circle cx="192" cy="192" r="9" fill="rgb(192,122,125)"/>
<circle cx="216" cy="192" r="12" fill="rgb(189,119,130)" opacity="0.35"/>
<circle cx="216" cy="192" r="9" fill="rgb(189,119,130)"/>
<circle cx="240" cy="192" r="12" fill="rgb(186,116,136)" opacity="0.35"/>
<circle cx="240" cy="192" r="9" fill="rgb(186,116,136)"/>
<circle cx="264" cy="192" r="12" fill="rgb(177,106,152)" opacity="0.35"/>
<circle cx="264" cy="192" r="9" fill="rgb(177,106,152)"/>
<circle cx="288" cy="192" r="12" fill="rgb(150,77,201)" opacity="0.35"/>
<circle cx="288" cy="192" r="9" fill="rgb(150,77,201)"/>
<circle cx="312" cy="192" r="12" fill="rgb(114,74,240)" opacity="0.35"/>
<circle cx="312" cy="192" r="9" fill="rgb(114,74,240)"/>
<circle cx="336" cy="192" r="12" fill="rgb(89,101,247)" opacity="0.35"/>
<circle cx="336" cy="192" r="9" fill="rgb(89,101,247)"/>
<circle cx="360" cy="192" r="12" fill="rgb(92,98,246)" opacity="0.35"/>
<circle cx="360" cy="192" r="9" fill="rgb(92,98,246)"/>
<circle cx="384" cy="192" r="12" fill="rgb(122,65,238)" opacity="0.35"/>
<circle cx="384" cy="192" r="9" fill="rgb(122,65,238)"/>
<circle cx="24" cy="216" r="12" fill="rgb(168,96,168)" opacity="0.35"/>
<circle cx="24" cy="216" r="9" fill="rgb(168,96,168)"/>
<circle cx="48" cy="216" r="12" fill="rgb(112,76,241)" opacity="0.35"/>
<circle cx="48" cy="216" r="9" fill="rgb(112,76,241)"/>
<circle cx="72" cy="216" r="12" fill="rgb(85,105,248)" opacity="0.35"/>
<circle cx="72" cy="216" r="9" fill="rgb(85,105,248)"/>
<circle cx="96" cy="216" r="12" fill="rgb(90,100,247)" opacity="0.35"/>
<circle cx="96" cy="216" r="9" fill="rgb(90,100,247)"/>
<circle cx="120" cy="216" r="12" fill="rgb(119,69,239)" opacity="0.35"/>
<circle cx="120" cy="216" r="9" fill="rgb(119,69,239)"/>
<circle cx="144" cy="216" r="12" fill="rgb(154,81,195)" opacity="0.35"/>
<circle cx="144" cy="216" r="9" fill="rgb(154,81,195)"/>
<circle cx="168" cy="216" r="12" fill="rgb(167,95,170)" opacity="0.35"/>
<circle cx="168" cy="216" r="9" fill="rgb(167,95,170)"/>
<circle cx="192" cy="216" r="12" fill="rgb(159,87,185)" opacity="0.35"/>
<circle cx="192" cy="216" r="9" fill="rgb(159,87,185)"/>
<circle cx="216" cy="216" r="12" fill="rgb(150,76,202)" opacity="0.35"/>
<circle cx="216" cy="216" r="9" fill="rgb(150,76,202)"/>
<circle cx="240" cy="216" r="12" fill="rgb(152,79,197)" opacity="0.35"/>
<circle cx="240" cy="216" r="9" fill="rgb(152,79,197)"/>
<circle cx="264" cy="216" r="12" fill="rgb(161,88,182)" opacity="0.35"/>
<circle cx="264" cy="216" r="9" fill="rgb(161,88,182)"/>
<circle cx="288" cy="216" r="12" fill="rgb(157,84,189)" opacity="0.35"/>
<circle cx="288" cy="216" r="9" fill="rgb(157,84,189)"/>
<circle cx="312" cy="216" r="12" fill="rgb(134,59,231)" opacity="0.35"/>
<circle cx="312" cy="216" r="9" fill="rgb(134,59,231)"/>
<circle cx="336" cy="216" r="12" fill="rgb(119,69,239)" opacity="0.35"/>
<circle cx="336" cy="216" r="9" fill="rgb(119,69,239)"/>
<circle cx="360" cy="216" r="12" fill="rgb(122,66,238)" opacity="0.35"/>
<circle cx="360" cy="216" r="9" fill="rgb(122,66,238)"/>
<circle cx="384" cy="216" r="12" fill="rgb(154,81,194)" opacity="0.35"/>
<circle cx="384" cy="216" r="9" fill="rgb(154,81,194)"/>
<circle cx="24" cy="240" r="12" fill="rgb(193,123,124)" opacity="0.35"/>
<circle cx="24" cy="240" r="9" fill="rgb(193,123,124)"/>
<circle cx="48" cy="240" r="12" fill="rgb(137,63,224)" opacity="0.35"/>
<circle cx="48" cy="240" r="9" fill="rgb(137,63,224)"/>
<circle cx="72" cy="240" r="12" fill="rgb(114,74,240)" opacity="0.35"/>
<circle cx="72" cy="240" r="9" fill="rgb(114,74,240)"/>
<circle cx="96" cy="240" r="12" fill="rgb(116,72,240)" opacity="0.35"/>
<circle cx="96" cy="240" r="9" fill="rgb(116,72,240)"/>
<circle cx="120" cy="240" r="12" fill="rgb(136,62,226)" opacity="0.35"/>
<circle cx="120" cy="240" r="9" fill="rgb(136,62,226)"/>
<circle cx="144" cy="240" r="12" fill="rgb(158,85,188)" opacity="0.35"/>
<circle cx="144" cy="240" r="9" fill="rgb(158,85,188)"/>
<circle cx="168" cy="240" r="12" fill="rgb(150,76,202)" opacity="0.35"/>
<circle cx="168" cy="240" r="9" fill="rgb(150,76,202)"/>
<circle cx="192" cy="240" r="12" fill="rgb(124,63,238)" opacity="0.35"/>
<circle cx="192" cy="240" r="9" fill="rgb(124,63,238)"/>
<circle cx="216" cy="240" r="12" fill="rgb(111,78,241)" opacity="0.35"/>
<circle cx="216" cy="240" r="9" fill="rgb(111,78,241)"/>
<circle cx="240" cy="240" r="12" fill="rgb(116,72,240)" opacity="0.35"/>
<circle cx="240" cy="240" r="9" fill="rgb(116,72,240)"/>
<circle cx="264" cy="240" r="12" fill="rgb(138,63,224)" opacity="0.35"/>
<circle cx="264" cy="240" r="9" fill="rgb(138,63,224)"/>
<circle cx="288" cy="240" r="12" fill="rgb(162,89,180)" opacity="0.35"/>
<circle cx="288" cy="240" r="9" fill="rgb(162,89,180)"/>
<circle cx="312" cy="240" r="12" fill="rgb(167,95,171)" opacity="0.35"/>
<circle cx="312" cy="240" r="9" fill="rgb(167,95,171)"/>
<circle cx="336" cy="240" r="12" fill="rgb(165,93,174)" opacity="0.35"/>
<circle cx="336" cy="240" r="9" fill="rgb(165,93,174)"/>
<circle cx="360" cy="240" r="12" fill="rgb(175,103,157)" opacity="0.35"/>
<circle cx="360" cy="240" r="9" fill="rgb(175,103,157)"/>
<circle cx="384" cy="240" r="12" fill="rgb(202,133,107)" opacity="0.35"/>
<circle cx="384" cy="240" r="9" fill="rgb(202,133,107)"/>
<circle cx="24" cy="264" r="12" fill="rgb(229,162,57)" opacity="0.35"/>
<circle cx="24" cy="264" r="9" fill="rgb(229,162,57)"/>
<circle cx="48" cy="264" r="12" fill="rgb(190,120,128)" opacity="0.35"/>
<circle cx="48" cy="264" r="9" fill="rgb(190,120,128)"/>
<circle cx="72" cy="264" r="12" fill="rgb(166,94,173)" opacity="0.35"/>
<circle cx="72" cy="264" r="9" fill="rgb(166,94,173)"/>
<circle cx="96" cy="264" r="12" fill="rgb(162,90,179)" opacity="0.35"/>
<circle cx="96" cy="264" r="9" fill="rgb(162,90,179)"/>
<circle cx="120" cy="264" r="12" fill="rgb(170,98,165)" opacity="0.35"/>
<circle cx="120" cy="264" r="9" fill="rgb(170,98,165)"/>
<circle cx="144" cy="264" r="12" fill="rgb(167,95,170)" opacity="0.35"/>
<circle cx="144" cy="264" r="9" fill="rgb(167,95,170)"/>
<circle cx="168" cy="264" r="12" fill="rgb(138,63,224)" opacity="0.35"/>
<circle cx="168" cy="264" r="9" fill="rgb(138,63,224)"/>
<circle cx="192" cy="264" r="12" fill="rgb(105,84,243)" opacity="0.35"/>
<circle cx="192" cy="264" r="9" fill="rgb(105,84,243)"/>
<circle cx="216" cy="264" r="12" fill="rgb(84,106,248)" opacity="0.35"/>
<circle cx="216" cy="264" r="9" fill="rgb(84,106,248)"/>
<circle cx="240" cy="264" r="12" fill="rgb(93,97,246)" opacity="0.35"/>
<circle cx="240" cy="264" r="9" fill="rgb(93,97,246)"/>
<circle cx="264" cy="264" r="12" fill="rgb(123,65,238)" opacity="0.35"/>
<circle cx="264" cy="264" r="9" fill="rgb(123,65,238)"/>
<circle cx="288" cy="264" r="12" fill="rgb(164,91,176)" opacity="0.35"/>
<circle cx="288" cy="264" r="9" fill="rgb(164,91,176)"/>
<circle cx="312" cy="264" r="12" fill="rgb(191,121,127)" opacity="0.35"/>
<circle cx="312" cy="264" r="9" fill="rgb(191,121,127)"/>
<circle cx="336" cy="264" r="12" fill="rgb(206,137,100)" opacity="0.35"/>
<circle cx="336" cy="264" r="9" fill="rgb(206,137,100)"/>
<circle cx="360" cy="264" r="12" fill="rgb(222,154,72)" opacity="0.35"/>
<circle cx="360" cy="264" r="9" fill="rgb(222,154,72)"/>
<circle cx="384" cy="264" r="12" fill="rgb(244,178,31)" opacity="0.35"/>
<circle cx="384" cy="264" r="9" fill="rgb(244,178,31)"/>
<circle cx="24" cy="288" r="12" fill="rgb(255,180,11)" opacity="0.35"/>
<circle cx="24" cy="288" r="9" fill="rgb(255,180,11)"/>
<circle cx="48" cy="288" r="12" fill="rgb(239,172,40)" opacity="0.35"/>
<circle cx="48" cy="288" r="9" fill="rgb(239,172,40)"/>
<circle cx="72" cy="288" r="12" fill="rgb(219,151,76)" opacity="0.35"/>
<circle cx="72" cy="288" r="9" fill="rgb(219,151,76)"/>
<circle cx="96" cy="288" r="12" fill="rgb(209,140,94)" opacity="0.35"/>
<circle cx="96" cy="288" r="9" fill="rgb(209,140,94)"/>
<circle cx="120" cy="288" r="12" fill="rgb(202,132,108)" opacity="0.35"/>
<circle cx="120" cy="288" r="9" fill="rgb(202,132,108)"/>
<circle cx="144" cy="288" r="12" fill="rgb(183,112,141)" opacity="0.35"/>
<circle cx="144" cy="288" r="9" fill="rgb(183,112,141)"/>
<circle cx="168" cy="288" r="12" fill="rgb(144,70,212)" opacity="0.35"/>
<circle cx="168" cy="288" r="9" fill="rgb(144,70,212)"/>
<circle cx="192" cy="288" r="12" fill="rgb(107,82,242)" opacity="0.35"/>
<circle cx="192" cy="288" r="9" fill="rgb(107,82,242)"/>
<circle cx="216" cy="288" r="12" fill="rgb(85,105,248)" opacity="0.35"/>
<circle cx="216" cy="288" r="9" fill="rgb(85,105,248)"/>
<circle cx="240" cy="288" r="12" fill="rgb(94,95,246)" opacity="0.35"/>
<circle cx="240" cy="288" r="9" fill="rgb(94,95,246)"/>
<circle cx="264" cy="288" r="12" fill="rgb(125,62,237)" opacity="0.35"/>
<circle cx="264" cy="288" r="9" fill="rgb(125,62,237)"/>
<circle cx="288" cy="288" r="12" fill="rgb(174,103,157)" opacity="0.35"/>
<circle cx="288" cy="288" r="9" fill="rgb(174,103,157)"/>
<circle cx="312" cy="288" r="12" fill="rgb(211,143,90)" opacity="0.35"/>
<circle cx="312" cy="288" r="9" fill="rgb(211,143,90)"/>
<circle cx="336" cy="288" r="12" fill="rgb(236,169,46)" opacity="0.35"/>
<circle cx="336" cy="288" r="9" fill="rgb(236,169,46)"/>
<circle cx="360" cy="288" r="12" fill="rgb(255,189,11)" opacity="0.35"/>
<circle cx="360" cy="288" r="9" fill="rgb(255,189,11)"/>
<circle cx="384" cy="288" r="12" fill="rgb(254,172,10)" opacity="0.35"/>
<circle cx="384" cy="288" r="9" fill="rgb(254,172,10)"/>
<circle cx="24" cy="312" r="12" fill="rgb(254,154,10)" opacity="0.35"/>
<circle cx="24" cy="312" r="9" fill="rgb(254,154,10)"/>
<circle cx="48" cy="312" r="12" fill="rgb(254,171,10)" opacity="0.35"/>
<circle cx="48" cy="312" r="9" fill="rgb(254,171,10)"/>
<circle cx="72" cy="312" r="12" fill="rgb(255,186,11)" opacity="0.35"/>
<circle cx="72" cy="312" r="9" fill="rgb(255,186,11)"/>
<circle cx="96" cy="312" r="12" fill="rgb(246,180,27)" opacity="0.35"/>
<circle cx="96" cy="312" r="9" fill="rgb(246,180,27)"/>
<circle cx="120" cy="312" r="12" fill="rgb(231,164,54)" opacity="0.35"/>
<circle cx="120" cy="312" r="9" fill="rgb(231,164,54)"/>
<circle cx="144" cy="312" r="12" fill="rgb(208,139,96)" opacity="0.35"/>
<circle cx="144" cy="312" r="9" fill="rgb(208,139,96)"/>
<circle cx="168" cy="312" r="12" fill="rgb(172,101,161)" opacity="0.35"/>
<circle cx="168" cy="312" r="9" fill="rgb(172,101,161)"/>
<circle cx="192" cy="312" r="12" fill="rgb(131,56,236)" opacity="0.35"/>
<circle cx="192" cy="312" r="9" fill="rgb(131,56,236)"/>
<circle cx="216" cy="312" r="12" fill="rgb(115,73,240)" opacity="0.35"/>
<circle cx="216" cy="312" r="9" fill="rgb(115,73,240)"/>
<circle cx="240" cy="312" r="12" fill="rgb(122,66,238)" opacity="0.35"/>
<circle cx="240" cy="312" r="9" fill="rgb(122,66,238)"/>
<circle cx="264" cy="312" r="12" fill="rgb(155,82,192)" opacity="0.35"/>
<circle cx="264" cy="312" r="9" fill="rgb(155,82,192)"/>
<circle cx="288" cy="312" r="12" fill="rgb(200,130,112)" opacity="0.35"/>
<circle cx="288" cy="312" r="9" fill="rgb(200,130,112)"/>
<circle cx="312" cy="312" r="12" fill="rgb(235,169,47)" opacity="0.35"/>
<circle cx="312" cy="312" r="9" fill="rgb(235,169,47)"/>
<circle cx="336" cy="312" r="12" fill="rgb(255,184,11)" opacity="0.35"/>
<circle cx="336" cy="312" r="9" fill="rgb(255,184,11)"/>
<circle cx="360" cy="312" r="12" fill="rgb(254,166,10)" opacity="0.35"/>
<circle cx="360" cy="312" r="9" fill="rgb(254,166,10)"/>
<circle cx="384" cy="312" r="12" fill="rgb(253,150,9)" opacity="0.35"/>
<circle cx="384" cy="312" r="9" fill="rgb(253,150,9)"/>
<circle cx="24" cy="336" r="12" fill="rgb(253,132,9)" opacity="0.35"/>
<circle cx="24" cy="336" r="9" fill="rgb(253,132,9)"/>
<circle cx="48" cy="336" r="12" fill="rgb(253,146,9)" opacity="0.35"/>
<circle cx="48" cy="336" r="9" fill="rgb(253,146,9)"/>
<circle cx="72" cy="336" r="12" fill="rgb(254,159,10)" opacity="0.35"/>
<circle cx="72" cy="336" r="9" fill="rgb(254,159,10)"/>
<circle cx="96" cy="336" r="12" fill="rgb(254,171,10)" opacity="0.35"/>
<circle cx="96" cy="336" r="9" fill="rgb(254,171,10)"/>
<circle cx="120" cy="336" r="12" fill="rgb(255,185,11)" opacity="0.35"/>
<circle cx="120" cy="336" r="9" fill="rgb(255,185,11)"/>
<circle cx="144" cy="336" r="12" fill="rgb(240,174,39)" opacity="0.35"/>
<circle cx="144" cy="336" r="9" fill="rgb(240,174,39)"/>
<circle cx="168" cy="336" r="12" fill="rgb(213,145,87)" opacity="0.35"/>
<circle cx="168" cy="336" r="9" fill="rgb(213,145,87)"/>
<circle cx="192" cy="336" r="12" fill="rgb(186,115,136)" opacity="0.35"/>
<circle cx="192" cy="336" r="9" fill="rgb(186,115,136)"/>
<circle cx="216" cy="336" r="12" fill="rgb(171,99,164)" opacity="0.35"/>
<circle cx="216" cy="336" r="9" fill="rgb(171,99,164)"/>
<circle cx="240" cy="336" r="12" fill="rgb(178,106,151)" opacity="0.35"/>
<circle cx="240" cy="336" r="9" fill="rgb(178,106,151)"/>
<circle cx="264" cy="336" r="12" fill="rgb(203,134,106)" opacity="0.35"/>
<circle cx="264" cy="336" r="9" fill="rgb(203,134,106)"/>
<circle cx="288" cy="336" r="12" fill="rgb(234,167,49)" opacity="0.35"/>
<circle cx="288" cy="336" r="9" fill="rgb(234,167,49)"/>
<circle cx="312" cy="336" r="12" fill="rgb(255,183,11)" opacity="0.35"/>
<circle cx="312" cy="336" r="9" fill="rgb(255,183,11)"/>
<circle cx="336" cy="336" r="12" fill="rgb(254,163,10)" opacity="0.35"/>
<circle cx="336" cy="336" r="9" fill="rgb(254,163,10)"/>
<circle cx="360" cy="336" r="12" fill="rgb(253,147,9)" opacity="0.35"/>
<circle cx="360" cy="336" r="9" fill="rgb(253,147,9)"/>
<circle cx="384" cy="336" r="12" fill="rgb(253,131,9)" opacity="0.35"/>
<circle cx="384" cy="336" r="9" fill="rgb(253,131,9)"/>
<circle cx="24" cy="360" r="12" fill="rgb(252,113,8)" opacity="0.35"/>
<circle cx="24" cy="360" r="9" fill="rgb(252,113,8)"/>
<circle cx="48" cy="360" r="12" fill="rgb(253,125,9)" opacity="0.35"/>
<circle cx="48" cy="360" r="9" fill="rgb(253,125,9)"/>
<circle cx="72" cy="360" r="12" fill="rgb(253,137,9)" opacity="0.35"/>
<circle cx="72" cy="360" r="9" fill="rgb(253,137,9)"/>
<circle cx="96" cy="360" r="12" fill="rgb(253,148,9)" opacity="0.35"/>
<circle cx="96" cy="360" r="9" fill="rgb(253,148,9)"/>
<circle cx="120" cy="360" r="12" fill="rgb(254,161,10)" opacity="0.35"/>
<circle cx="120" cy="360" r="9" fill="rgb(254,161,10)"/>
<circle cx="144" cy="360" r="12" fill="rgb(254,175,10)" opacity="0.35"/>
<circle cx="144" cy="360" r="9" fill="rgb(254,175,10)"/>
<circle cx="168" cy="360" r="12" fill="rgb(255,190,12)" opacity="0.35"/>
<circle cx="168" cy="360" r="9" fill="rgb(255,190,12)"/>
<circle cx="192" cy="360" r="12" fill="rgb(238,172,41)" opacity="0.35"/>
<circle cx="192" cy="360" r="9" fill="rgb(238,172,41)"/>
<circle cx="216" cy="360" r="12" fill="rgb(230,163,56)" opacity="0.35"/>
<circle cx="216" cy="360" r="9" fill="rgb(230,163,56)"/>
<circle cx="240" cy="360" r="12" fill="rgb(234,168,49)" opacity="0.35"/>
<circle cx="240" cy="360" r="9" fill="rgb(234,168,49)"/>
<circle cx="264" cy="360" r="12" fill="rgb(250,184,21)" opacity="0.35"/>
<circle cx="264" cy="360" r="9" fill="rgb(250,184,21)"/>
<circle cx="288" cy="360" r="12" fill="rgb(255,177,11)" opacity="0.35"/>
<circle cx="288" cy="360" r="9" fill="rgb(255,177,11)"/>
<circle cx="312" cy="360" r="12" fill="rgb(254,159,10)" opacity="0.35"/>
<circle cx="312" cy="360" r="9" fill="rgb(254,159,10)"/>
<circle cx="336" cy="360" r="12" fill="rgb(253,143,9)" opacity="0.35"/>
<circle cx="336" cy="360" r="9" fill="rgb(253,143,9)"/>
<circle cx="360" cy="360" r="12" fill="rgb(253,129,9)" opacity="0.35"/>
<circle cx="360" cy="360" r="9" fill="rgb(253,129,9)"/>
<circle cx="384" cy="360" r="12" fill="rgb(252,115,8)" opacity="0.35"/>
<circle cx="384" cy="360" r="9" fill="rgb(252,115,8)"/>
<circle cx="24" cy="384" r="12" fill="rgb(251,98,7)" opacity="0.35"/>
<circle cx="24" cy="384" r="9" fill="rgb(251,98,7)"/>
<circle cx="48" cy="384" r="12" fill="rgb(252,108,8)" opacity="0.35"/>
<circle cx="48" cy="384" r="9" fill="rgb(252,108,8)"/>
<circle cx="72" cy="384" r="12" fill="rgb(252,118,8)" opacity="0.35"/>
<circle cx="72" cy="384" r="9" fill="rgb(252,118,8)"/>
<circle cx="96" cy="384" r="12" fill="rgb(253,128,9)" opacity="0.35"/>
<circle cx="96" cy="384" r="9" fill="rgb(253,128,9)"/>
<circle cx="120" cy="384" r="12" fill="rgb(253,138,9)" opacity="0.35"/>
<circle cx="120" cy="384" r="9" fill="rgb(253,138,9)"/>
<circle cx="144" cy="384" r="12" fill="rgb(253,149,9)" opacity="0.35"/>
<circle cx="144" cy="384" r="9" fill="rgb(253,149,9)"/>
<circle cx="168" cy="384" r="12" fill="rgb(254,159,10)" opacity="0.35"/>
<circle cx="168" cy="384" r="9" fill="rgb(254,159,10)"/>
<circle cx="192" cy="384" r="12" fill="rgb(254,167,10)" opacity="0.35"/>
<circle cx="192" cy="384" r="9" fill="rgb(254,167,10)"/>
<circle cx="216" cy="384" r="12" fill="rgb(254,171,10)" opacity="0.35"/>
<circle cx="216" cy="384" r="9" fill="rgb(254,171,10)"/>
<circle cx="240" cy="384" r="12" fill="rgb(254,169,10)" opacity="0.35"/>
<circle cx="240" cy="384" r="9" fill="rgb(254,169,10)"/>
<circle cx="264" cy="384" r="12" fill="rgb(254,161,10)" opacity="0.35"/>
<circle cx="264" cy="384" r="9" fill="rgb(254,161,10)"/>
<circle cx="288" cy="384" r="12" fill="rgb(253,149,9)" opacity="0.35"/>
<circle cx="288" cy="384" r="9" fill="rgb(253,149,9)"/>
<circle cx="312" cy="384" r="12" fill="rgb(253,136,9)" opacity="0.35"/>
<circle cx="312" cy="384" r="9" fill="rgb(253,136,9)"/>
<circle cx="336" cy="384" r="12" fill="rgb(252,124,8)" opacity="0.35"/>
<circle cx="336" cy="384" r="9" fill="rgb(252,124,8)"/>
<circle cx="360" cy="384" r="12" fill="rgb(252,112,8)" opacity="0.35"/>
<circle cx="360" cy="384" r="9" fill="rgb(252,112,8)"/>
<circle cx="384" cy="384" r="12" fill="rgb(252,101,8)" opacity="0.35"/>
<circle cx="384" cy="384" r="9" fill="rgb(252,101,8)"/>
</svg>
