<svg xmlns="http://www.w3.org/2000/svg" viewBox="0 0 408 408" width="408" height="408" role="img" aria-label="LED preview of the Prism Storm example graph">
<rect width="408" height="408" rx="10" fill="#05070a"/>
<circle cx="24" cy="24" r="12" fill="rgb(84,47,0)" opacity="0.35"/>
<circle cx="24" cy="24" r="9" fill="rgb(84,47,0)"/>
<circle cx="48" cy="24" r="12" fill="rgb(0,25,31)" opacity="0.35"/>
<circle cx="48" cy="24" r="9" fill="rgb(0,25,31)"/>
<circle cx="72" cy="24" r="9" fill="#14171c"/>
<circle cx="96" cy="24" r="9" fill="#14171c"/>
<circle cx="120" cy="24" r="12" fill="rgb(8,18,48)" opacity="0.35"/>
<circle cx="120" cy="24" r="9" fill="rgb(8,18,48)"/>
<circle cx="144" cy="24" r="12" fill="rgb(3,23,42)" opacity="0.35"/>
<circle cx="144" cy="24" r="9" fill="rgb(3,23,42)"/>
<circle cx="168" cy="24" r="12" fill="rgb(1,24,39)" opacity="0.35"/>
<circle cx="168" cy="24" r="9" fill="rgb(1,24,39)"/>
<circle cx="192" cy="24" r="12" fill="rgb(0,25,31)" opacity="0.35"/>
<circle cx="192" cy="24" r="9" fill="rgb(0,25,31)"/>
<circle cx="216" cy="24" r="12" fill="rgb(8,18,48)" opacity="0.35"/>
<circle cx="216" cy="24" r="9" fill="rgb(8,18,48)"/>
<circle cx="240" cy="24" r="9" fill="#14171c"/>
<circle cx="264" cy="24" r="12" fill="rgb(0,20,11)" opacity="0.35"/>
<circle cx="264" cy="24" r="9" fill="rgb(0,20,11)"/>
<circle cx="288" cy="24" r="12" fill="rgb(4,22,43)" opacity="0.35"/>
<circle cx="288" cy="24" r="9" fill="rgb(4,22,43)"/>
<circle cx="312" cy="24" r="9" fill="#14171c"/>
<circle cx="336" cy="24" r="12" fill="rgb(1,25,39)" opacity="0.35"/>
<circle cx="336" cy="24" r="9" fill="rgb(1,25,39)"/>
<circle cx="360" cy="24" r="9" fill="#14171c"/>
<circle cx="384" cy="24" r="12" fill="rgb(13,15,52)" opacity="0.35"/>
<circle cx="384" cy="24" r="9" fill="rgb(13,15,52)"/>
<circle cx="24" cy="48" r="9" fill="#14171c"/>
<circle cx="48" cy="48" r="12" fill="rgb(0,23,23)" opacity="0.35"/>
<circle cx="48" cy="48" r="9" fill="rgb(0,23,23)"/>
<circle cx="72" cy="48" r="12" fill="rgb(7,19,47)" opacity="0.35"/>
<circle cx="72" cy="48" r="9" fill="rgb(7,19,47)"/>
<circle cx="96" cy="48" r="9" fill="#14171c"/>
<circle cx="120" cy="48" r="9" fill="#14171c"/>
<circle cx="144" cy="48" r="12" fill="rgb(0,23,22)" opacity="0.35"/>
<circle cx="144" cy="48" r="9" fill="rgb(0,23,22)"/>
<circle cx="168" cy="48" r="9" fill="#14171c"/>
<circle cx="192" cy="48" r="9" fill="#14171c"/>
<circle cx="216" cy="48" r="12" fill="rgb(1,25,39)" opacity="0.35"/>
<circle cx="216" cy="48" r="9" fill="rgb(1,25,39)"/>
<circle cx="240" cy="48" r="12" fill="rgb(4,22,43)" opacity="0.35"/>
<circle cx="240" cy="48" r="9" fill="rgb(4,22,43)"/>
<circle cx="264" cy="48" r="9" fill="#14171c"/>
<circle cx="288" cy="48" r="12" fill="rgb(0,23,25)" opacity="0.35"/>
<circle cx="288" cy="48" r="9" fill="rgb(0,23,25)"/>
<circle cx="312" cy="48" r="12" fill="rgb(0,20,12)" opacity="0.35"/>
<circle cx="312" cy="48" r="9" fill="rgb(0,20,12)"/>
<circle cx="336" cy="48" r="12" fill="rgb(7,17,4)" opacity="0.35"/>
<circle cx="336" cy="48" r="9" fill="rgb(7,17,4)"/>
<circle cx="360" cy="48" r="12" fill="rgb(4,22,43)" opacity="0.35"/>
<circle cx="360" cy="48" r="9" fill="rgb(4,22,43)"/>
<circle cx="384" cy="48" r="9" fill="#14171c"/>
<circle cx="24" cy="72" r="12" fill="rgb(0,20,12)" opacity="0.35"/>
<circle cx="24" cy="72" r="9" fill="rgb(0,20,12)"/>
<circle cx="48" cy="72" r="12" fill="rgb(0,22,16)" opacity="0.35"/>
<circle cx="48" cy="72" r="9" fill="rgb(0,22,16)"/>
<circle cx="72" cy="72" r="9" fill="#14171c"/>
<circle cx="96" cy="72" r="12" fill="rgb(26,10,56)" opacity="0.35"/>
<circle cx="96" cy="72" r="9" fill="rgb(26,10,56)"/>
<circle cx="120" cy="72" r="9" fill="#14171c"/>
<circle cx="144" cy="72" r="12" fill="rgb(0,22,17)" opacity="0.35"/>
<circle cx="144" cy="72" r="9" fill="rgb(0,22,17)"/>
<circle cx="168" cy="72" r="12" fill="rgb(0,20,11)" opacity="0.35"/>
<circle cx="168" cy="72" r="9" fill="rgb(0,20,11)"/>
<circle cx="192" cy="72" r="12" fill="rgb(0,20,9)" opacity="0.35"/>
<circle cx="192" cy="72" r="9" fill="rgb(0,20,9)"/>
<circle cx="216" cy="72" r="9" fill="#14171c"/>
<circle cx="240" cy="72" r="12" fill="rgb(0,22,18)" opacity="0.35"/>
<circle cx="240" cy="72" r="9" fill="rgb(0,22,18)"/>
<circle cx="264" cy="72" r="9" fill="#14171c"/>
<circle cx="288" cy="72" r="9" fill="#14171c"/>
<circle cx="312" cy="72" r="12" fill="rgb(51,1,63)" opacity="0.35"/>
<circle cx="312" cy="72" r="9" fill="rgb(51,1,63)"/>
<circle cx="336" cy="72" r="9" fill="#14171c"/>
<circle cx="360" cy="72" r="12" fill="rgb(1,24,39)" opacity="0.35"/>
<circle cx="360" cy="72" r="9" fill="rgb(1,24,39)"/>
<circle cx="384" cy="72" r="12" fill="rgb(0,24,29)" opacity="0.35"/>
<circle cx="384" cy="72" r="9" fill="rgb(0,24,29)"/>
<circle cx="24" cy="96" r="9" fill="#14171c"/>
<circle cx="48" cy="96" r="12" fill="rgb(26,10,56)" opacity="0.35"/>
<circle cx="48" cy="96" r="9" fill="rgb(26,10,56)"/>
<circle cx="72" cy="96" r="9" fill="#14171c"/>
<circle cx="96" cy="96" r="12" fill="rgb(0,22,16)" opacity="0.35"/>
<circle cx="96" cy="96" r="9" fill="rgb(0,22,16)"/>
<circle cx="120" cy="96" r="12" fill="rgb(1,25,39)" opacity="0.35"/>
<circle cx="120" cy="96" r="9" fill="rgb(1,25,39)"/>
<circle cx="144" cy="96" r="9" fill="#14171c"/>
<circle cx="168" cy="96" r="12" fill="rgb(71,13,0)" opacity="0.35"/>
<circle cx="168" cy="96" r="9" fill="rgb(71,13,0)"/>
<circle cx="192" cy="96" r="9" fill="#14171c"/>
<circle cx="216" cy="96" r="12" fill="rgb(7,19,47)" opacity="0.35"/>
<circle cx="216" cy="96" r="9" fill="rgb(7,19,47)"/>
<circle cx="240" cy="96" r="12" fill="rgb(0,25,37)" opacity="0.35"/>
<circle cx="240" cy="96" r="9" fill="rgb(0,25,37)"/>
<circle cx="264" cy="96" r="12" fill="rgb(85,48,0)" opacity="0.35"/>
<circle cx="264" cy="96" r="9" fill="rgb(85,48,0)"/>
<circle cx="288" cy="96" r="9" fill="#14171c"/>
<circle cx="312" cy="96" r="9" fill="#14171c"/>
<circle cx="336" cy="96" r="12" fill="rgb(4,22,43)" opacity="0.35"/>
<circle cx="336" cy="96" r="9" fill="rgb(4,22,43)"/>
<circle cx="360" cy="96" r="9" fill="#14171c"/>
<circle cx="384" cy="96" r="12" fill="rgb(11,15,51)" opacity="0.35"/>
<circle cx="384" cy="96" r="9" fill="rgb(11,15,51)"/>
<circle cx="24" cy="120" r="12" fill="rgb(0,24,28)" opacity="0.35"/>
<circle cx="24" cy="120" r="9" fill="rgb(0,24,28)"/>
<circle cx="48" cy="120" r="9" fill="#14171c"/>
<circle cx="72" cy="120" r="12" fill="rgb(9,16,50)" opacity="0.35"/>
<circle cx="72" cy="120" r="9" fill="rgb(9,16,50)"/>
<circle cx="96" cy="120" r="9" fill="#14171c"/>
<circle cx="120" cy="120" r="12" fill="rgb(0,20,10)" opacity="0.35"/>
<circle cx="120" cy="120" r="9" fill="rgb(0,20,10)"/>
<circle cx="144" cy="120" r="9" fill="#14171c"/>
<circle cx="168" cy="120" r="9" fill="#14171c"/>
<circle cx="192" cy="120" r="12" fill="rgb(4,22,43)" opacity="0.35"/>
<circle cx="192" cy="120" r="9" fill="rgb(4,22,43)"/>
<circle cx="216" cy="120" r="12" fill="rgb(0,21,13)" opacity="0.35"/>
<circle cx="216" cy="120" r="9" fill="rgb(0,21,13)"/>
<circle cx="240" cy="120" r="12" fill="rgb(7,17,4)" opacity="0.35"/>
<circle cx="240" cy="120" r="9" fill="rgb(7,17,4)"/>
<circle cx="264" cy="120" r="12" fill="rgb(3,23,43)" opacity="0.35"/>
<circle cx="264" cy="120" r="9" fill="rgb(3,23,43)"/>
<circle cx="288" cy="120" r="12" fill="rgb(85,49,0)" opacity="0.35"/>
<circle cx="288" cy="120" r="9" fill="rgb(85,49,0)"/>
<circle cx="312" cy="120" r="9" fill="#14171c"/>
<circle cx="336" cy="120" r="12" fill="rgb(8,18,48)" opacity="0.35"/>
<circle cx="336" cy="120" r="9" fill="rgb(8,18,48)"/>
<circle cx="360" cy="120" r="12" fill="rgb(7,17,4)" opacity="0.35"/>
<circle cx="360" cy="120" r="9" fill="rgb(7,17,4)"/>
<circle cx="384" cy="120" r="9" fill="#14171c"/>
<circle cx="24" cy="144" r="12" fill="rgb(1,24,39)" opacity="0.35"/>
<circle cx="24" cy="144" r="9" fill="rgb(1,24,39)"/>
<circle cx="48" cy="144" r="9" fill="#14171c"/>
<circle cx="72" cy="144" r="9" fill="#14171c"/>
<circle cx="96" cy="144" r="12" fill="rgb(4,22,43)" opacity="0.35"/>
<circle cx="96" cy="144" r="9" fill="rgb(4,22,43)"/>
<circle cx="120" cy="144" r="12" fill="rgb(12,15,51)" opacity="0.35"/>
<circle cx="120" cy="144" r="9" fill="rgb(12,15,51)"/>
<circle cx="144" cy="144" r="12" fill="rgb(3,23,42)" opacity="0.35"/>
<circle cx="144" cy="144" r="9" fill="rgb(3,23,42)"/>
<circle cx="168" cy="144" r="9" fill="#14171c"/>
<circle cx="192" cy="144" r="9" fill="#14171c"/>
<circle cx="216" cy="144" r="9" fill="#14171c"/>
<circle cx="240" cy="144" r="12" fill="rgb(1,24,39)" opacity="0.35"/>
<circle cx="240" cy="144" r="9" fill="rgb(1,24,39)"/>
<circle cx="264" cy="144" r="9" fill="#14171c"/>
<circle cx="288" cy="144" r="12" fill="rgb(0,24,29)" opacity="0.35"/>
<circle cx="288" cy="144" r="9" fill="rgb(0,24,29)"/>
<circle cx="312" cy="144" r="9" fill="#14171c"/>
<circle cx="336" cy="144" r="9" fill="#14171c"/>
<circle cx="360" cy="144" r="12" fill="rgb(78,32,0)" opacity="0.35"/>
<circle cx="360" cy="144" r="9" fill="rgb(78,32,0)"/>
<circle cx="384" cy="144" r="9" fill="#14171c"/>
<circle cx="24" cy="168" r="12" fill="rgb(0,24,28)" opacity="0.35"/>
<circle cx="24" cy="168" r="9" fill="rgb(0,24,28)"/>
<circle cx="48" cy="168" r="12" fill="rgb(4,22,43)" opacity="0.35"/>
<circle cx="48" cy="168" r="9" fill="rgb(4,22,43)"/>
<circle cx="72" cy="168" r="9" fill="#14171c"/>
<circle cx="96" cy="168" r="9" fill="#14171c"/>
<circle cx="120" cy="168" r="12" fill="rgb(0,22,18)" opacity="0.35"/>
<circle cx="120" cy="168" r="9" fill="rgb(0,22,18)"/>
<circle cx="144" cy="168" r="12" fill="rgb(13,14,52)" opacity="0.35"/>
<circle cx="144" cy="168" r="9" fill="rgb(13,14,52)"/>
<circle cx="168" cy="168" r="12" fill="rgb(87,53,0)" opacity="0.35"/>
<circle cx="168" cy="168" r="9" fill="rgb(87,53,0)"/>
<circle cx="192" cy="168" r="9" fill="#14171c"/>
<circle cx="216" cy="168" r="9" fill="#14171c"/>
<circle cx="240" cy="168" r="9" fill="#14171c"/>
<circle cx="264" cy="168" r="12" fill="rgb(0,24,29)" opacity="0.35"/>
<circle cx="264" cy="168" r="9" fill="rgb(0,24,29)"/>
<circle cx="288" cy="168" r="12" fill="rgb(3,23,42)" opacity="0.35"/>
<circle cx="288" cy="168" r="9" fill="rgb(3,23,42)"/>
<circle cx="312" cy="168" r="12" fill="rgb(10,15,51)" opacity="0.35"/>
<circle cx="312" cy="168" r="9" fill="rgb(10,15,51)"/>
<circle cx="336" cy="168" r="9" fill="#14171c"/>
<circle cx="360" cy="168" r="9" fill="#14171c"/>
<circle cx="384" cy="168" r="12" fill="rgb(9,16,50)" opacity="0.35"/>
<circle cx="384" cy="168" r="9" fill="rgb(9,16,50)"/>
<circle cx="24" cy="192" r="12" fill="rgb(2,18,7)" opacity="0.35"/>
<circle cx="24" cy="192" r="9" fill="rgb(2,18,7)"/>
<circle cx="48" cy="192" r="12" fill="rgb(53,0,63)" opacity="0.35"/>
<circle cx="48" cy="192" r="9" fill="rgb(53,0,63)"/>
<circle cx="72" cy="192" r="12" fill="rgb(28,9,57)" opacity="0.35"/>
<circle cx="72" cy="192" r="9" fill="rgb(28,9,57)"/>
<circle cx="96" cy="192" r="12" fill="rgb(0,22,16)" opacity="0.35"/>
<circle cx="96" cy="192" r="9" fill="rgb(0,22,16)"/>
<circle cx="120" cy="192" r="9" fill="#14171c"/>
<circle cx="144" cy="192" r="9" fill="#14171c"/>
<circle cx="168" cy="192" r="12" fill="rgb(12,15,51)" opacity="0.35"/>
<circle cx="168" cy="192" r="9" fill="rgb(12,15,51)"/>
<circle cx="192" cy="192" r="12" fill="rgb(15,14,52)" opacity="0.35"/>
<circle cx="192" cy="192" r="9" fill="rgb(15,14,52)"/>
<circle cx="216" cy="192" r="12" fill="rgb(7,19,47)" opacity="0.35"/>
<circle cx="216" cy="192" r="9" fill="rgb(7,19,47)"/>
<circle cx="240" cy="192" r="9" fill="#14171c"/>
<circle cx="264" cy="192" r="12" fill="rgb(7,17,4)" opacity="0.35"/>
<circle cx="264" cy="192" r="9" fill="rgb(7,17,4)"/>
<circle cx="288" cy="192" r="9" fill="#14171c"/>
<circle cx="312" cy="192" r="12" fill="rgb(5,21,45)" opacity="0.35"/>
<circle cx="312" cy="192" r="9" fill="rgb(5,21,45)"/>
<circle cx="336" cy="192" r="12" fill="rgb(75,22,0)" opacity="0.35"/>
<circle cx="336" cy="192" r="9" fill="rgb(75,22,0)"/>
<circle cx="360" cy="192" r="9" fill="#14171c"/>
<circle cx="384" cy="192" r="12" fill="rgb(5,20,45)" opacity="0.35"/>
<circle cx="384" cy="192" r="9" fill="rgb(5,20,45)"/>
<circle cx="24" cy="216" r="9" fill="#14171c"/>
<circle cx="48" cy="216" r="9" fill="#14171c"/>
<circle cx="72" cy="216" r="9" fill="#14171c"/>
<circle cx="96" cy="216" r="12" fill="rgb(9,16,50)" opacity="0.35"/>
<circle cx="96" cy="216" r="9" fill="rgb(9,16,50)"/>
<circle cx="120" cy="216" r="12" fill="rgb(18,13,53)" opacity="0.35"/>
<circle cx="120" cy="216" r="9" fill="rgb(18,13,53)"/>
<circle cx="144" cy="216" r="9" fill="#14171c"/>
<circle cx="168" cy="216" r="9" fill="#14171c"/>
<circle cx="192" cy="216" r="12" fill="rgb(0,22,18)" opacity="0.35"/>
<circle cx="192" cy="216" r="9" fill="rgb(0,22,18)"/>
<circle cx="216" cy="216" r="9" fill="#14171c"/>
<circle cx="240" cy="216" r="12" fill="rgb(29,9,57)" opacity="0.35"/>
<circle cx="240" cy="216" r="9" fill="rgb(29,9,57)"/>
<circle cx="264" cy="216" r="9" fill="#14171c"/>
<circle cx="288" cy="216" r="12" fill="rgb(0,22,19)" opacity="0.35"/>
<circle cx="288" cy="216" r="9" fill="rgb(0,22,19)"/>
<circle cx="312" cy="216" r="9" fill="#14171c"/>
<circle cx="336" cy="216" r="12" fill="rgb(1,25,39)" opacity="0.35"/>
<circle cx="336" cy="216" r="9" fill="rgb(1,25,39)"/>
<circle cx="360" cy="216" r="12" fill="rgb(69,9,0)" opacity="0.35"/>
<circle cx="360" cy="216" r="9" fill="rgb(69,9,0)"/>
<circle cx="384" cy="216" r="9" fill="#14171c"/>
<circle cx="24" cy="240" r="12" fill="rgb(21,12,54)" opacity="0.35"/>
<circle cx="24" cy="240" r="9" fill="rgb(21,12,54)"/>
<circle cx="48" cy="240" r="9" fill="#14171c"/>
<circle cx="72" cy="240" r="9" fill="#14171c"/>
<circle cx="96" cy="240" r="9" fill="#14171c"/>
<circle cx="120" cy="240" r="12" fill="rgb(3,23,42)" opacity="0.35"/>
<circle cx="120" cy="240" r="9" fill="rgb(3,23,42)"/>
<circle cx="144" cy="240" r="12" fill="rgb(25,11,55)" opacity="0.35"/>
<circle cx="144" cy="240" r="9" fill="rgb(25,11,55)"/>
<circle cx="168" cy="240" r="9" fill="#14171c"/>
<circle cx="192" cy="240" r="12" fill="rgb(7,17,4)" opacity="0.35"/>
<circle cx="192" cy="240" r="9" fill="rgb(7,17,4)"/>
<circle cx="216" cy="240" r="9" fill="#14171c"/>
<circle cx="240" cy="240" r="12" fill="rgb(5,18,6)" opacity="0.35"/>
<circle cx="240" cy="240" r="9" fill="rgb(5,18,6)"/>
<circle cx="264" cy="240" r="9" fill="#14171c"/>
<circle cx="288" cy="240" r="9" fill="#14171c"/>
<circle cx="312" cy="240" r="12" fill="rgb(0,24,29)" opacity="0.35"/>
<circle cx="312" cy="240" r="9" fill="rgb(0,24,29)"/>
<circle cx="336" cy="240" r="9" fill="#14171c"/>
<circle cx="360" cy="240" r="12" fill="rgb(70,11,0)" opacity="0.35"/>
<circle cx="360" cy="240" r="9" fill="rgb(70,11,0)"/>
<circle cx="384" cy="240" r="12" fill="rgb(7,17,4)" opacity="0.35"/>
<circle cx="384" cy="240" r="9" fill="rgb(7,17,4)"/>
<circle cx="24" cy="264" r="12" fill="rgb(0,23,22)" opacity="0.35"/>
<circle cx="24" cy="264" r="9" fill="rgb(0,23,22)"/>
<circle cx="48" cy="264" r="12" fill="rgb(69,8,0)" opacity="0.35"/>
<circle cx="48" cy="264" r="9" fill="rgb(69,8,0)"/>
<circle cx="72" cy="264" r="12" fill="rgb(67,4,0)" opacity="0.35"/>
<circle cx="72" cy="264" r="9" fill="rgb(67,4,0)"/>
<circle cx="96" cy="264" r="9" fill="#14171c"/>
<circle cx="120" cy="264" r="9" fill="#14171c"/>
<circle cx="144" cy="264" r="12" fill="rgb(0,23,22)" opacity="0.35"/>
<circle cx="144" cy="264" r="9" fill="rgb(0,23,22)"/>
<circle cx="168" cy="264" r="12" fill="rgb(9,16,50)" opacity="0.35"/>
<circle cx="168" cy="264" r="9" fill="rgb(9,16,50)"/>
<circle cx="192" cy="264" r="9" fill="#14171c"/>
<circle cx="216" cy="264" r="12" fill="rgb(0,24,30)" opacity="0.35"/>
<circle cx="216" cy="264" r="9" fill="rgb(0,24,30)"/>
<circle cx="240" cy="264" r="12" fill="rgb(0,25,38)" opacity="0.35"/>
<circle cx="240" cy="264" r="9" fill="rgb(0,25,38)"/>
<circle cx="264" cy="264" r="12" fill="rgb(6,19,47)" opacity="0.35"/>
<circle cx="264" cy="264" r="9" fill="rgb(6,19,47)"/>
<circle cx="288" cy="264" r="9" fill="#14171c"/>
<circle cx="312" cy="264" r="12" fill="rgb(15,14,52)" opacity="0.35"/>
<circle cx="312" cy="264" r="9" fill="rgb(15,14,52)"/>
<circle cx="336" cy="264" r="9" fill="#14171c"/>
<circle cx="360" cy="264" r="9" fill="#14171c"/>
<circle cx="384" cy="264" r="12" fill="rgb(8,18,48)" opacity="0.35"/>
<circle cx="384" cy="264" r="9" fill="rgb(8,18,48)"/>
<circle cx="24" cy="288" r="9" fill="#14171c"/>
<circle cx="48" cy="288" r="9" fill="#14171c"/>
<circle cx="72" cy="288" r="12" fill="rgb(0,24,31)" opacity="0.35"/>
<circle cx="72" cy="288" r="9" fill="rgb(0,24,31)"/>
<circle cx="96" cy="288" r="12" fill="rgb(1,25,39)" opacity="0.35"/>
<circle cx="96" cy="288" r="9" fill="rgb(1,25,39)"/>
<circle cx="120" cy="288" r="9" fill="#14171c"/>
<circle cx="144" cy="288" r="12" fill="rgb(0,24,27)" opacity="0.35"/>
<circle cx="144" cy="288" r="9" fill="rgb(0,24,27)"/>
<circle cx="168" cy="288" r="9" fill="#14171c"/>
<circle cx="192" cy="288" r="12" fill="rgb(0,25,37)" opacity="0.35"/>
<circle cx="192" cy="288" r="9" fill="rgb(0,25,37)"/>
<circle cx="216" cy="288" r="9" fill="#14171c"/>
<circle cx="240" cy="288" r="12" fill="rgb(0,22,18)" opacity="0.35"/>
<circle cx="240" cy="288" r="9" fill="rgb(0,22,18)"/>
<circle cx="264" cy="288" r="12" fill="rgb(0,21,14)" opacity="0.35"/>
<circle cx="264" cy="288" r="9" fill="rgb(0,21,14)"/>
<circle cx="288" cy="288" r="9" fill="#14171c"/>
<circle cx="312" cy="288" r="12" fill="rgb(0,21,16)" opacity="0.35"/>
<circle cx="312" cy="288" r="9" fill="rgb(0,21,16)"/>
<circle cx="336" cy="288" r="12" fill="rgb(1,24,39)" opacity="0.35"/>
<circle cx="336" cy="288" r="9" fill="rgb(1,24,39)"/>
<circle cx="360" cy="288" r="9" fill="#14171c"/>
<circle cx="384" cy="288" r="12" fill="rgb(0,25,37)" opacity="0.35"/>
<circle cx="384" cy="288" r="9" fill="rgb(0,25,37)"/>
<circle cx="24" cy="312" r="12" fill="rgb(11,15,51)" opacity="0.35"/>
<circle cx="24" cy="312" r="9" fill="rgb(11,15,51)"/>
<circle cx="48" cy="312" r="12" fill="rgb(0,19,9)" opacity="0.35"/>
<circle cx="48" cy="312" r="9" fill="rgb(0,19,9)"/>
<circle cx="72" cy="312" r="9" fill="#14171c"/>
<circle cx="96" cy="312" r="12" fill="rgb(1,24,39)" opacity="0.35"/>
<circle cx="96" cy="312" r="9" fill="rgb(1,24,39)"/>
<circle cx="120" cy="312" r="9" fill="#14171c"/>
<circle cx="144" cy="312" r="12" fill="rgb(3,18,7)" opacity="0.35"/>
<circle cx="144" cy="312" r="9" fill="rgb(3,18,7)"/>
<circle cx="168" cy="312" r="9" fill="#14171c"/>
<circle cx="192" cy="312" r="9" fill="#14171c"/>
<circle cx="216" cy="312" r="12" fill="rgb(3,18,7)" opacity="0.35"/>
<circle cx="216" cy="312" r="9" fill="rgb(3,18,7)"/>
<circle cx="240" cy="312" r="12" fill="rgb(2,24,41)" opacity="0.35"/>
<circle cx="240" cy="312" r="9" fill="rgb(2,24,41)"/>
<circle cx="264" cy="312" r="12" fill="rgb(4,18,6)" opacity="0.35"/>
<circle cx="264" cy="312" r="9" fill="rgb(4,18,6)"/>
<circle cx="288" cy="312" r="12" fill="rgb(2,24,40)" opacity="0.35"/>
<circle cx="288" cy="312" r="9" fill="rgb(2,24,40)"/>
<circle cx="312" cy="312" r="12" fill="rgb(0,20,9)" opacity="0.35"/>
<circle cx="312" cy="312" r="9" fill="rgb(0,20,9)"/>
<circle cx="336" cy="312" r="9" fill="#14171c"/>
<circle cx="360" cy="312" r="12" fill="rgb(0,22,20)" opacity="0.35"/>
<circle cx="360" cy="312" r="9" fill="rgb(0,22,20)"/>
<circle cx="384" cy="312" r="12" fill="rgb(0,19,8)" opacity="0.35"/>
<circle cx="384" cy="312" r="9" fill="rgb(0,19,8)"/>
<circle cx="24" cy="336" r="9" fill="#14171c"/>
<circle cx="48" cy="336" r="12" fill="rgb(3,22,42)" opacity="0.35"/>
<circle cx="48" cy="336" r="9" fill="rgb(3,22,42)"/>
<circle cx="72" cy="336" r="12" fill="rgb(7,17,4)" opacity="0.35"/>
<circle cx="72" cy="336" r="9" fill="rgb(7,17,4)"/>
<circle cx="96" cy="336" r="12" fill="rgb(11,15,51)" opacity="0.35"/>
<circle cx="96" cy="336" r="9" fill="rgb(11,15,51)"/>
<circle cx="120" cy="336" r="9" fill="#14171c"/>
<circle cx="144" cy="336" r="12" fill="rgb(41,5,60)" opacity="0.35"/>
<circle cx="144" cy="336" r="9" fill="rgb(41,5,60)"/>
<circle cx="168" cy="336" r="12" fill="rgb(0,20,11)" opacity="0.35"/>
<circle cx="168" cy="336" r="9" fill="rgb(0,20,11)"/>
<circle cx="192" cy="336" r="9" fill="#14171c"/>
<circle cx="216" cy="336" r="12" fill="rgb(0,21,13)" opacity="0.35"/>
<circle cx="216" cy="336" r="9" fill="rgb(0,21,13)"/>
<circle cx="240" cy="336" r="9" fill="#14171c"/>
<circle cx="264" cy="336" r="12" fill="rgb(0,19,8)" opacity="0.35"/>
<circle cx="264" cy="336" r="9" fill="rgb(0,19,8)"/>
<circle cx="288" cy="336" r="9" fill="#14171c"/>
<circle cx="312" cy="336" r="12" fill="rgb(4,22,43)" opacity="0.35"/>
<circle cx="312" cy="336" r="9" fill="rgb(4,22,43)"/>
<circle cx="336" cy="336" r="12" fill="rgb(14,14,52)" opacity="0.35"/>
<circle cx="336" cy="336" r="9" fill="rgb(14,14,52)"/>
<circle cx="360" cy="336" r="9" fill="#14171c"/>
<circle cx="384" cy="336" r="12" fill="rgb(17,13,53)" opacity="0.35"/>
<circle cx="384" cy="336" r="9" fill="rgb(17,13,53)"/>
<circle cx="24" cy="360" r="12" fill="rgb(1,25,39)" opacity="0.35"/>
<circle cx="24" cy="360" r="9" fill="rgb(1,25,39)"/>
<circle cx="48" cy="360" r="12" fill="rgb(0,21,14)" opacity="0.35"/>
<circle cx="48" cy="360" r="9" fill="rgb(0,21,14)"/>
<circle cx="72" cy="360" r="9" fill="#14171c"/>
<circle cx="96" cy="360" r="12" fill="rgb(0,21,16)" opacity="0.35"/>
<circle cx="96" cy="360" r="9" fill="rgb(0,21,16)"/>
<circle cx="120" cy="360" r="12" fill="rgb(9,16,50)" opacity="0.35"/>
<circle cx="120" cy="360" r="9" fill="rgb(9,16,50)"/>
<circle cx="144" cy="360" r="9" fill="#14171c"/>
<circle cx="168" cy="360" r="12" fill="rgb(51,86,18)" opacity="0.35"/>
<circle cx="168" cy="360" r="9" fill="rgb(51,86,18)"/>
<circle cx="192" cy="360" r="9" fill="#14171c"/>
<circle cx="216" cy="360" r="9" fill="#14171c"/>
<circle cx="240" cy="360" r="12" fill="rgb(9,17,49)" opacity="0.35"/>
<circle cx="240" cy="360" r="9" fill="rgb(9,17,49)"/>
<circle cx="264" cy="360" r="9" fill="#14171c"/>
<circle cx="288" cy="360" r="12" fill="rgb(1,25,39)" opacity="0.35"/>
<circle cx="288" cy="360" r="9" fill="rgb(1,25,39)"/>
<circle cx="312" cy="360" r="12" fill="rgb(6,17,5)" opacity="0.35"/>
<circle cx="312" cy="360" r="9" fill="rgb(6,17,5)"/>
<circle cx="336" cy="360" r="12" fill="rgb(3,18,7)" opacity="0.35"/>
<circle cx="336" cy="360" r="9" fill="rgb(3,18,7)"/>
<circle cx="360" cy="360" r="9" fill="#14171c"/>
<circle cx="384" cy="360" r="12" fill="rgb(0,22,17)" opacity="0.35"/>
<circle cx="384" cy="360" r="9" fill="rgb(0,22,17)"/>
<circle cx="24" cy="384" r="9" fill="#14171c"/>
<circle cx="48" cy="384" r="12" fill="rgb(3,23,42)" opacity="0.35"/>
<circle cx="48" cy="384" r="9" fill="rgb(3,23,42)"/>
<circle cx="72" cy="384" r="12" fill="rgb(0,25,36)" opacity="0.35"/>
<circle cx="72" cy="384" r="9" fill="rgb(0,25,36)"/>
<circle cx="96" cy="384" r="9" fill="#14171c"/>
<circle cx="120" cy="384" r="12" fill="rgb(2,24,40)" opacity="0.35"/>
<circle cx="120" cy="384" r="9" fill="rgb(2,24,40)"/>
<circle cx="144" cy="384" r="12" fill="rgb(0,25,37)" opacity="0.35"/>
<circle cx="144" cy="384" r="9" fill="rgb(0,25,37)"/>
<circle cx="168" cy="384" r="9" fill="#14171c"/>
<circle cx="192" cy="384" r="12" fill="rgb(2,23,41)" opacity="0.35"/>
<circle cx="192" cy="384" r="9" fill="rgb(2,23,41)"/>
<circle cx="216" cy="384" r="9" fill="#14171c"/>
<circle cx="240" cy="384" r="12" fill="rgb(1,19,7)" opacity="0.35"/>
<circle cx="240" cy="384" r="9" fill="rgb(1,19,7)"/>
<circle cx="264" cy="384" r="12" fill="rgb(0,21,13)" opacity="0.35"/>
<circle cx="264" cy="384" r="9" fill="rgb(0,21,13)"/>
<circle cx="288" cy="384" r="9" fill="#14171c"/>
<circle cx="312" cy="384" r="12" fill="rgb(6,20,46)" opacity="0.35"/>
<circle cx="312" cy="384" r="9" fill="rgb(6,20,46)"/>
<circle cx="336" cy="384" r="9" fill="#14171c"/>
<circle cx="360" cy="384" r="12" fill="rgb(4,22,43)" opacity="0.35"/>
<circle cx="360" cy="384" r="9" fill="rgb(4,22,43)"/>
<circle cx="384" cy="384" r="9" fill="#14171c"/>
</svg>
