<svg xmlns="http://www.w3.org/2000/svg" viewBox="0 0 408 408" width="408" height="408" role="img" aria-label="LED preview of the Prism Storm example graph">
<rect width="408" height="408" rx="10" fill="#05070a"/>
<circle cx="24" cy="24" r="12" fill="rgb(0,35,29)" opacity="0.35"/>
<circle cx="24" cy="24" r="9" fill="rgb(0,35,29)"/>
<circle cx="48" cy="24" r="12" fill="rgb(133,17,0)" opacity="0.35"/>
<circle cx="48" cy="24" r="9" fill="rgb(133,17,0)"/>
<circle cx="72" cy="24" r="12" fill="rgb(0,32,48)" opacity="0.35"/>
<circle cx="72" cy="24" r="9" fill="rgb(0,32,48)"/>
<circle cx="96" cy="24" r="12" fill="rgb(0,36,30)" opacity="0.35"/>
<circle cx="96" cy="24" r="9" fill="rgb(0,36,30)"/>
<circle cx="120" cy="24" r="12" fill="rgb(0,40,39)" opacity="0.35"/>
<circle cx="120" cy="24" r="9" fill="rgb(0,40,39)"/>
<circle cx="144" cy="24" r="12" fill="rgb(0,6,63)" opacity="0.35"/>
<circle cx="144" cy="24" r="9" fill="rgb(0,6,63)"/>
<circle cx="168" cy="24" r="12" fill="rgb(26,0,76)" opacity="0.35"/>
<circle cx="168" cy="24" r="9" fill="rgb(26,0,76)"/>
<circle cx="192" cy="24" r="9" fill="#14171c"/>
<circle cx="216" cy="24" r="12" fill="rgb(0,39,40)" opacity="0.35"/>
<circle cx="216" cy="24" r="9" fill="rgb(0,39,40)"/>
<circle cx="240" cy="24" r="12" fill="rgb(140,45,0)" opacity="0.35"/>
<circle cx="240" cy="24" r="9" fill="rgb(140,45,0)"/>
<circle cx="264" cy="24" r="12" fill="rgb(0,20,3)" opacity="0.35"/>
<circle cx="264" cy="24" r="9" fill="rgb(0,20,3)"/>
<circle cx="288" cy="24" r="9" fill="#14171c"/>
<circle cx="312" cy="24" r="12" fill="rgb(8,0,69)" opacity="0.35"/>
<circle cx="312" cy="24" r="9" fill="rgb(8,0,69)"/>
<circle cx="336" cy="24" r="12" fill="rgb(54,0,85)" opacity="0.35"/>
<circle cx="336" cy="24" r="9" fill="rgb(54,0,85)"/>
<circle cx="360" cy="24" r="12" fill="rgb(120,0,30)" opacity="0.35"/>
<circle cx="360" cy="24" r="9" fill="rgb(120,0,30)"/>
<circle cx="384" cy="24" r="12" fill="rgb(0,206,248)" opacity="0.35"/>
<circle cx="384" cy="24" r="9" fill="rgb(0,206,248)"/>
<circle cx="24" cy="48" r="12" fill="rgb(14,0,71)" opacity="0.35"/>
<circle cx="24" cy="48" r="9" fill="rgb(14,0,71)"/>
<circle cx="48" cy="48" r="12" fill="rgb(116,0,44)" opacity="0.35"/>
<circle cx="48" cy="48" r="9" fill="rgb(116,0,44)"/>
<circle cx="72" cy="48" r="12" fill="rgb(0,23,54)" opacity="0.35"/>
<circle cx="72" cy="48" r="9" fill="rgb(0,23,54)"/>
<circle cx="96" cy="48" r="12" fill="rgb(109,0,64)" opacity="0.35"/>
<circle cx="96" cy="48" r="9" fill="rgb(109,0,64)"/>
<circle cx="120" cy="48" r="12" fill="rgb(0,13,60)" opacity="0.35"/>
<circle cx="120" cy="48" r="9" fill="rgb(0,13,60)"/>
<circle cx="144" cy="48" r="12" fill="rgb(0,223,122)" opacity="0.35"/>
<circle cx="144" cy="48" r="9" fill="rgb(0,223,122)"/>
<circle cx="168" cy="48" r="12" fill="rgb(0,25,53)" opacity="0.35"/>
<circle cx="168" cy="48" r="9" fill="rgb(0,25,53)"/>
<circle cx="192" cy="48" r="9" fill="#14171c"/>
<circle cx="216" cy="48" r="12" fill="rgb(4,0,68)" opacity="0.35"/>
<circle cx="216" cy="48" r="9" fill="rgb(4,0,68)"/>
<circle cx="240" cy="48" r="12" fill="rgb(154,110,0)" opacity="0.35"/>
<circle cx="240" cy="48" r="9" fill="rgb(154,110,0)"/>
<circle cx="264" cy="48" r="9" fill="#14171c"/>
<circle cx="288" cy="48" r="12" fill="rgb(0,33,24)" opacity="0.35"/>
<circle cx="288" cy="48" r="9" fill="rgb(0,33,24)"/>
<circle cx="312" cy="48" r="12" fill="rgb(66,0,88)" opacity="0.35"/>
<circle cx="312" cy="48" r="9" fill="rgb(66,0,88)"/>
<circle cx="336" cy="48" r="12" fill="rgb(40,0,80)" opacity="0.35"/>
<circle cx="336" cy="48" r="9" fill="rgb(40,0,80)"/>
<circle cx="360" cy="48" r="12" fill="rgb(118,0,37)" opacity="0.35"/>
<circle cx="360" cy="48" r="9" fill="rgb(118,0,37)"/>
<circle cx="384" cy="48" r="12" fill="rgb(62,0,87)" opacity="0.35"/>
<circle cx="384" cy="48" r="9" fill="rgb(62,0,87)"/>
<circle cx="24" cy="72" r="12" fill="rgb(0,2,65)" opacity="0.35"/>
<circle cx="24" cy="72" r="9" fill="rgb(0,2,65)"/>
<circle cx="48" cy="72" r="12" fill="rgb(141,52,0)" opacity="0.35"/>
<circle cx="48" cy="72" r="9" fill="rgb(141,52,0)"/>
<circle cx="72" cy="72" r="12" fill="rgb(0,17,58)" opacity="0.35"/>
<circle cx="72" cy="72" r="9" fill="rgb(0,17,58)"/>
<circle cx="96" cy="72" r="12" fill="rgb(0,8,63)" opacity="0.35"/>
<circle cx="96" cy="72" r="9" fill="rgb(0,8,63)"/>
<circle cx="120" cy="72" r="12" fill="rgb(2,0,67)" opacity="0.35"/>
<circle cx="120" cy="72" r="9" fill="rgb(2,0,67)"/>
<circle cx="144" cy="72" r="12" fill="rgb(160,165,0)" opacity="0.35"/>
<circle cx="144" cy="72" r="9" fill="rgb(160,165,0)"/>
<circle cx="168" cy="72" r="12" fill="rgb(0,37,43)" opacity="0.35"/>
<circle cx="168" cy="72" r="9" fill="rgb(0,37,43)"/>
<circle cx="192" cy="72" r="9" fill="#14171c"/>
<circle cx="216" cy="72" r="12" fill="rgb(95,0,96)" opacity="0.35"/>
<circle cx="216" cy="72" r="9" fill="rgb(95,0,96)"/>
<circle cx="240" cy="72" r="12" fill="rgb(115,0,48)" opacity="0.35"/>
<circle cx="240" cy="72" r="9" fill="rgb(115,0,48)"/>
<circle cx="264" cy="72" r="12" fill="rgb(0,29,16)" opacity="0.35"/>
<circle cx="264" cy="72" r="9" fill="rgb(0,29,16)"/>
<circle cx="288" cy="72" r="12" fill="rgb(0,6,63)" opacity="0.35"/>
<circle cx="288" cy="72" r="9" fill="rgb(0,6,63)"/>
<circle cx="312" cy="72" r="9" fill="#14171c"/>
<circle cx="336" cy="72" r="9" fill="#14171c"/>
<circle cx="360" cy="72" r="12" fill="rgb(61,0,86)" opacity="0.35"/>
<circle cx="360" cy="72" r="9" fill="rgb(61,0,86)"/>
<circle cx="384" cy="72" r="12" fill="rgb(0,38,42)" opacity="0.35"/>
<circle cx="384" cy="72" r="9" fill="rgb(0,38,42)"/>
<circle cx="24" cy="96" r="12" fill="rgb(0,37,43)" opacity="0.35"/>
<circle cx="24" cy="96" r="9" fill="rgb(0,37,43)"/>
<circle cx="48" cy="96" r="12" fill="rgb(144,64,0)" opacity="0.35"/>
<circle cx="48" cy="96" r="9" fill="rgb(144,64,0)"/>
<circle cx="72" cy="96" r="12" fill="rgb(33,0,78)" opacity="0.35"/>
<circle cx="72" cy="96" r="9" fill="rgb(33,0,78)"/>
<circle cx="96" cy="96" r="9" fill="#14171c"/>
<circle cx="120" cy="96" r="12" fill="rgb(0,16,59)" opacity="0.35"/>
<circle cx="120" cy="96" r="9" fill="rgb(0,16,59)"/>
<circle cx="144" cy="96" r="12" fill="rgb(50,191,0)" opacity="0.35"/>
<circle cx="144" cy="96" r="9" fill="rgb(50,191,0)"/>
<circle cx="168" cy="96" r="12" fill="rgb(0,39,39)" opacity="0.35"/>
<circle cx="168" cy="96" r="9" fill="rgb(0,39,39)"/>
<circle cx="192" cy="96" r="9" fill="#14171c"/>
<circle cx="216" cy="96" r="12" fill="rgb(0,35,45)" opacity="0.35"/>
<circle cx="216" cy="96" r="9" fill="rgb(0,35,45)"/>
<circle cx="240" cy="96" r="9" fill="#14171c"/>
<circle cx="264" cy="96" r="12" fill="rgb(0,21,4)" opacity="0.35"/>
<circle cx="264" cy="96" r="9" fill="rgb(0,21,4)"/>
<circle cx="288" cy="96" r="9" fill="#14171c"/>
<circle cx="312" cy="96" r="12" fill="rgb(0,36,30)" opacity="0.35"/>
<circle cx="312" cy="96" r="9" fill="rgb(0,36,30)"/>
<circle cx="336" cy="96" r="12" fill="rgb(0,30,17)" opacity="0.35"/>
<circle cx="336" cy="96" r="9" fill="rgb(0,30,17)"/>
<circle cx="360" cy="96" r="12" fill="rgb(98,0,91)" opacity="0.35"/>
<circle cx="360" cy="96" r="9" fill="rgb(98,0,91)"/>
<circle cx="384" cy="96" r="12" fill="rgb(105,0,73)" opacity="0.35"/>
<circle cx="384" cy="96" r="9" fill="rgb(105,0,73)"/>
<circle cx="24" cy="120" r="12" fill="rgb(53,0,84)" opacity="0.35"/>
<circle cx="24" cy="120" r="9" fill="rgb(53,0,84)"/>
<circle cx="48" cy="120" r="12" fill="rgb(0,35,45)" opacity="0.35"/>
<circle cx="48" cy="120" r="9" fill="rgb(0,35,45)"/>
<circle cx="72" cy="120" r="12" fill="rgb(0,28,14)" opacity="0.35"/>
<circle cx="72" cy="120" r="9" fill="rgb(0,28,14)"/>
<circle cx="96" cy="120" r="9" fill="#14171c"/>
<circle cx="120" cy="120" r="12" fill="rgb(0,0,66)" opacity="0.35"/>
<circle cx="120" cy="120" r="9" fill="rgb(0,0,66)"/>
<circle cx="144" cy="120" r="12" fill="rgb(129,173,0)" opacity="0.35"/>
<circle cx="144" cy="120" r="9" fill="rgb(129,173,0)"/>
<circle cx="168" cy="120" r="12" fill="rgb(0,38,42)" opacity="0.35"/>
<circle cx="168" cy="120" r="9" fill="rgb(0,38,42)"/>
<circle cx="192" cy="120" r="12" fill="rgb(0,22,5)" opacity="0.35"/>
<circle cx="192" cy="120" r="9" fill="rgb(0,22,5)"/>
<circle cx="216" cy="120" r="12" fill="rgb(0,8,62)" opacity="0.35"/>
<circle cx="216" cy="120" r="9" fill="rgb(0,8,62)"/>
<circle cx="240" cy="120" r="12" fill="rgb(0,21,3)" opacity="0.35"/>
<circle cx="240" cy="120" r="9" fill="rgb(0,21,3)"/>
<circle cx="264" cy="120" r="12" fill="rgb(0,39,40)" opacity="0.35"/>
<circle cx="264" cy="120" r="9" fill="rgb(0,39,40)"/>
<circle cx="288" cy="120" r="12" fill="rgb(0,25,9)" opacity="0.35"/>
<circle cx="288" cy="120" r="9" fill="rgb(0,25,9)"/>
<circle cx="312" cy="120" r="12" fill="rgb(110,0,59)" opacity="0.35"/>
<circle cx="312" cy="120" r="9" fill="rgb(110,0,59)"/>
<circle cx="336" cy="120" r="9" fill="#14171c"/>
<circle cx="360" cy="120" r="12" fill="rgb(123,0,20)" opacity="0.35"/>
<circle cx="360" cy="120" r="9" fill="rgb(123,0,20)"/>
<circle cx="384" cy="120" r="12" fill="rgb(143,62,0)" opacity="0.35"/>
<circle cx="384" cy="120" r="9" fill="rgb(143,62,0)"/>
<circle cx="24" cy="144" r="12" fill="rgb(27,0,76)" opacity="0.35"/>
<circle cx="24" cy="144" r="9" fill="rgb(27,0,76)"/>
<circle cx="48" cy="144" r="9" fill="#14171c"/>
<circle cx="72" cy="144" r="12" fill="rgb(0,11,61)" opacity="0.35"/>
<circle cx="72" cy="144" r="9" fill="rgb(0,11,61)"/>
<circle cx="96" cy="144" r="12" fill="rgb(0,32,22)" opacity="0.35"/>
<circle cx="96" cy="144" r="9" fill="rgb(0,32,22)"/>
<circle cx="120" cy="144" r="12" fill="rgb(103,0,79)" opacity="0.35"/>
<circle cx="120" cy="144" r="9" fill="rgb(103,0,79)"/>
<circle cx="144" cy="144" r="12" fill="rgb(133,18,0)" opacity="0.35"/>
<circle cx="144" cy="144" r="9" fill="rgb(133,18,0)"/>
<circle cx="168" cy="144" r="12" fill="rgb(0,35,45)" opacity="0.35"/>
<circle cx="168" cy="144" r="9" fill="rgb(0,35,45)"/>
<circle cx="192" cy="144" r="12" fill="rgb(0,37,43)" opacity="0.35"/>
<circle cx="192" cy="144" r="9" fill="rgb(0,37,43)"/>
<circle cx="216" cy="144" r="12" fill="rgb(1,0,66)" opacity="0.35"/>
<circle cx="216" cy="144" r="9" fill="rgb(1,0,66)"/>
<circle cx="240" cy="144" r="9" fill="#14171c"/>
<circle cx="264" cy="144" r="12" fill="rgb(102,0,82)" opacity="0.35"/>
<circle cx="264" cy="144" r="9" fill="rgb(102,0,82)"/>
<circle cx="288" cy="144" r="12" fill="rgb(53,0,84)" opacity="0.35"/>
<circle cx="288" cy="144" r="9" fill="rgb(53,0,84)"/>
<circle cx="312" cy="144" r="12" fill="rgb(113,0,51)" opacity="0.35"/>
<circle cx="312" cy="144" r="9" fill="rgb(113,0,51)"/>
<circle cx="336" cy="144" r="12" fill="rgb(0,36,44)" opacity="0.35"/>
<circle cx="336" cy="144" r="9" fill="rgb(0,36,44)"/>
<circle cx="360" cy="144" r="12" fill="rgb(114,0,49)" opacity="0.35"/>
<circle cx="360" cy="144" r="9" fill="rgb(114,0,49)"/>
<circle cx="384" cy="144" r="12" fill="rgb(0,3,65)" opacity="0.35"/>
<circle cx="384" cy="144" r="9" fill="rgb(0,3,65)"/>
<circle cx="24" cy="168" r="12" fill="rgb(0,30,50)" opacity="0.35"/>
<circle cx="24" cy="168" r="9" fill="rgb(0,30,50)"/>
<circle cx="48" cy="168" r="9" fill="#14171c"/>
<circle cx="72" cy="168" r="12" fill="rgb(0,37,43)" opacity="0.35"/>
<circle cx="72" cy="168" r="9" fill="rgb(0,37,43)"/>
<circle cx="96" cy="168" r="9" fill="#14171c"/>
<circle cx="120" cy="168" r="12" fill="rgb(0,2,65)" opacity="0.35"/>
<circle cx="120" cy="168" r="9" fill="rgb(0,2,65)"/>
<circle cx="144" cy="168" r="12" fill="rgb(0,12,60)" opacity="0.35"/>
<circle cx="144" cy="168" r="9" fill="rgb(0,12,60)"/>
<circle cx="168" cy="168" r="12" fill="rgb(0,36,44)" opacity="0.35"/>
<circle cx="168" cy="168" r="9" fill="rgb(0,36,44)"/>
<circle cx="192" cy="168" r="12" fill="rgb(110,0,60)" opacity="0.35"/>
<circle cx="192" cy="168" r="9" fill="rgb(110,0,60)"/>
<circle cx="216" cy="168" r="12" fill="rgb(0,33,47)" opacity="0.35"/>
<circle cx="216" cy="168" r="9" fill="rgb(0,33,47)"/>
<circle cx="240" cy="168" r="12" fill="rgb(0,32,48)" opacity="0.35"/>
<circle cx="240" cy="168" r="9" fill="rgb(0,32,48)"/>
<circle cx="264" cy="168" r="12" fill="rgb(0,32,48)" opacity="0.35"/>
<circle cx="264" cy="168" r="9" fill="rgb(0,32,48)"/>
<circle cx="288" cy="168" r="12" fill="rgb(0,31,49)" opacity="0.35"/>
<circle cx="288" cy="168" r="9" fill="rgb(0,31,49)"/>
<circle cx="312" cy="168" r="12" fill="rgb(90,0,94)" opacity="0.35"/>
<circle cx="312" cy="168" r="9" fill="rgb(90,0,94)"/>
<circle cx="336" cy="168" r="12" fill="rgb(21,0,74)" opacity="0.35"/>
<circle cx="336" cy="168" r="9" fill="rgb(21,0,74)"/>
<circle cx="360" cy="168" r="12" fill="rgb(90,0,94)" opacity="0.35"/>
<circle cx="360" cy="168" r="9" fill="rgb(90,0,94)"/>
<circle cx="384" cy="168" r="9" fill="#14171c"/>
<circle cx="24" cy="192" r="12" fill="rgb(0,38,42)" opacity="0.35"/>
<circle cx="24" cy="192" r="9" fill="rgb(0,38,42)"/>
<circle cx="48" cy="192" r="12" fill="rgb(28,0,76)" opacity="0.35"/>
<circle cx="48" cy="192" r="9" fill="rgb(28,0,76)"/>
<circle cx="72" cy="192" r="12" fill="rgb(27,0,76)" opacity="0.35"/>
<circle cx="72" cy="192" r="9" fill="rgb(27,0,76)"/>
<circle cx="96" cy="192" r="12" fill="rgb(45,0,82)" opacity="0.35"/>
<circle cx="96" cy="192" r="9" fill="rgb(45,0,82)"/>
<circle cx="120" cy="192" r="12" fill="rgb(0,26,52)" opacity="0.35"/>
<circle cx="120" cy="192" r="9" fill="rgb(0,26,52)"/>
<circle cx="144" cy="192" r="12" fill="rgb(27,0,76)" opacity="0.35"/>
<circle cx="144" cy="192" r="9" fill="rgb(27,0,76)"/>
<circle cx="168" cy="192" r="12" fill="rgb(7,0,69)" opacity="0.35"/>
<circle cx="168" cy="192" r="9" fill="rgb(7,0,69)"/>
<circle cx="192" cy="192" r="12" fill="rgb(16,0,72)" opacity="0.35"/>
<circle cx="192" cy="192" r="9" fill="rgb(16,0,72)"/>
<circle cx="216" cy="192" r="12" fill="rgb(95,0,96)" opacity="0.35"/>
<circle cx="216" cy="192" r="9" fill="rgb(95,0,96)"/>
<circle cx="240" cy="192" r="12" fill="rgb(72,0,90)" opacity="0.35"/>
<circle cx="240" cy="192" r="9" fill="rgb(72,0,90)"/>
<circle cx="264" cy="192" r="12" fill="rgb(0,30,19)" opacity="0.35"/>
<circle cx="264" cy="192" r="9" fill="rgb(0,30,19)"/>
<circle cx="288" cy="192" r="12" fill="rgb(0,30,49)" opacity="0.35"/>
<circle cx="288" cy="192" r="9" fill="rgb(0,30,49)"/>
<circle cx="312" cy="192" r="12" fill="rgb(0,28,51)" opacity="0.35"/>
<circle cx="312" cy="192" r="9" fill="rgb(0,28,51)"/>
<circle cx="336" cy="192" r="12" fill="rgb(130,7,0)" opacity="0.35"/>
<circle cx="336" cy="192" r="9" fill="rgb(130,7,0)"/>
<circle cx="360" cy="192" r="12" fill="rgb(0,36,44)" opacity="0.35"/>
<circle cx="360" cy="192" r="9" fill="rgb(0,36,44)"/>
<circle cx="384" cy="192" r="9" fill="#14171c"/>
<circle cx="24" cy="216" r="12" fill="rgb(0,24,7)" opacity="0.35"/>
<circle cx="24" cy="216" r="9" fill="rgb(0,24,7)"/>
<circle cx="48" cy="216" r="12" fill="rgb(114,0,50)" opacity="0.35"/>
<circle cx="48" cy="216" r="9" fill="rgb(114,0,50)"/>
<circle cx="72" cy="216" r="12" fill="rgb(17,0,73)" opacity="0.35"/>
<circle cx="72" cy="216" r="9" fill="rgb(17,0,73)"/>
<circle cx="96" cy="216" r="12" fill="rgb(127,0,4)" opacity="0.35"/>
<circle cx="96" cy="216" r="9" fill="rgb(127,0,4)"/>
<circle cx="120" cy="216" r="12" fill="rgb(0,11,61)" opacity="0.35"/>
<circle cx="120" cy="216" r="9" fill="rgb(0,11,61)"/>
<circle cx="144" cy="216" r="12" fill="rgb(9,0,70)" opacity="0.35"/>
<circle cx="144" cy="216" r="9" fill="rgb(9,0,70)"/>
<circle cx="168" cy="216" r="12" fill="rgb(0,36,44)" opacity="0.35"/>
<circle cx="168" cy="216" r="9" fill="rgb(0,36,44)"/>
<circle cx="192" cy="216" r="12" fill="rgb(0,34,25)" opacity="0.35"/>
<circle cx="192" cy="216" r="9" fill="rgb(0,34,25)"/>
<circle cx="216" cy="216" r="12" fill="rgb(84,0,93)" opacity="0.35"/>
<circle cx="216" cy="216" r="9" fill="rgb(84,0,93)"/>
<circle cx="240" cy="216" r="12" fill="rgb(0,12,60)" opacity="0.35"/>
<circle cx="240" cy="216" r="9" fill="rgb(0,12,60)"/>
<circle cx="264" cy="216" r="12" fill="rgb(0,7,63)" opacity="0.35"/>
<circle cx="264" cy="216" r="9" fill="rgb(0,7,63)"/>
<circle cx="288" cy="216" r="12" fill="rgb(160,142,0)" opacity="0.35"/>
<circle cx="288" cy="216" r="9" fill="rgb(160,142,0)"/>
<circle cx="312" cy="216" r="12" fill="rgb(16,0,72)" opacity="0.35"/>
<circle cx="312" cy="216" r="9" fill="rgb(16,0,72)"/>
<circle cx="336" cy="216" r="12" fill="rgb(8,0,69)" opacity="0.35"/>
<circle cx="336" cy="216" r="9" fill="rgb(8,0,69)"/>
<circle cx="360" cy="216" r="12" fill="rgb(0,32,21)" opacity="0.35"/>
<circle cx="360" cy="216" r="9" fill="rgb(0,32,21)"/>
<circle cx="384" cy="216" r="12" fill="rgb(22,0,74)" opacity="0.35"/>
<circle cx="384" cy="216" r="9" fill="rgb(22,0,74)"/>
<circle cx="24" cy="240" r="12" fill="rgb(0,5,64)" opacity="0.35"/>
<circle cx="24" cy="240" r="9" fill="rgb(0,5,64)"/>
<circle cx="48" cy="240" r="12" fill="rgb(43,0,81)" opacity="0.35"/>
<circle cx="48" cy="240" r="9" fill="rgb(43,0,81)"/>
<circle cx="72" cy="240" r="12" fill="rgb(0,39,40)" opacity="0.35"/>
<circle cx="72" cy="240" r="9" fill="rgb(0,39,40)"/>
<circle cx="96" cy="240" r="12" fill="rgb(113,0,52)" opacity="0.35"/>
<circle cx="96" cy="240" r="9" fill="rgb(113,0,52)"/>
<circle cx="120" cy="240" r="12" fill="rgb(0,38,36)" opacity="0.35"/>
<circle cx="120" cy="240" r="9" fill="rgb(0,38,36)"/>
<circle cx="144" cy="240" r="12" fill="rgb(76,0,91)" opacity="0.35"/>
<circle cx="144" cy="240" r="9" fill="rgb(76,0,91)"/>
<circle cx="168" cy="240" r="12" fill="rgb(0,29,50)" opacity="0.35"/>
<circle cx="168" cy="240" r="9" fill="rgb(0,29,50)"/>
<circle cx="192" cy="240" r="12" fill="rgb(0,31,20)" opacity="0.35"/>
<circle cx="192" cy="240" r="9" fill="rgb(0,31,20)"/>
<circle cx="216" cy="240" r="12" fill="rgb(19,0,73)" opacity="0.35"/>
<circle cx="216" cy="240" r="9" fill="rgb(19,0,73)"/>
<circle cx="240" cy="240" r="9" fill="#14171c"/>
<circle cx="264" cy="240" r="12" fill="rgb(102,0,81)" opacity="0.35"/>
<circle cx="264" cy="240" r="9" fill="rgb(102,0,81)"/>
<circle cx="288" cy="240" r="12" fill="rgb(116,0,44)" opacity="0.35"/>
<circle cx="288" cy="240" r="9" fill="rgb(116,0,44)"/>
<circle cx="312" cy="240" r="9" fill="#14171c"/>
<circle cx="336" cy="240" r="12" fill="rgb(0,23,6)" opacity="0.35"/>
<circle cx="336" cy="240" r="9" fill="rgb(0,23,6)"/>
<circle cx="360" cy="240" r="12" fill="rgb(87,0,94)" opacity="0.35"/>
<circle cx="360" cy="240" r="9" fill="rgb(87,0,94)"/>
<circle cx="384" cy="240" r="12" fill="rgb(159,137,0)" opacity="0.35"/>
<circle cx="384" cy="240" r="9" fill="rgb(159,137,0)"/>
<circle cx="24" cy="264" r="12" fill="rgb(0,30,49)" opacity="0.35"/>
<circle cx="24" cy="264" r="9" fill="rgb(0,30,49)"/>
<circle cx="48" cy="264" r="12" fill="rgb(0,18,0)" opacity="0.35"/>
<circle cx="48" cy="264" r="9" fill="rgb(0,18,0)"/>
<circle cx="72" cy="264" r="12" fill="rgb(0,3,65)" opacity="0.35"/>
<circle cx="72" cy="264" r="9" fill="rgb(0,3,65)"/>
<circle cx="96" cy="264" r="12" fill="rgb(38,194,0)" opacity="0.35"/>
<circle cx="96" cy="264" r="9" fill="rgb(38,194,0)"/>
<circle cx="120" cy="264" r="12" fill="rgb(0,16,58)" opacity="0.35"/>
<circle cx="120" cy="264" r="9" fill="rgb(0,16,58)"/>
<circle cx="144" cy="264" r="12" fill="rgb(100,0,86)" opacity="0.35"/>
<circle cx="144" cy="264" r="9" fill="rgb(100,0,86)"/>
<circle cx="168" cy="264" r="12" fill="rgb(0,39,39)" opacity="0.35"/>
<circle cx="168" cy="264" r="9" fill="rgb(0,39,39)"/>
<circle cx="192" cy="264" r="12" fill="rgb(0,38,42)" opacity="0.35"/>
<circle cx="192" cy="264" r="9" fill="rgb(0,38,42)"/>
<circle cx="216" cy="264" r="12" fill="rgb(55,0,85)" opacity="0.35"/>
<circle cx="216" cy="264" r="9" fill="rgb(55,0,85)"/>
<circle cx="240" cy="264" r="9" fill="#14171c"/>
<circle cx="264" cy="264" r="12" fill="rgb(46,0,82)" opacity="0.35"/>
<circle cx="264" cy="264" r="9" fill="rgb(46,0,82)"/>
<circle cx="288" cy="264" r="12" fill="rgb(80,0,92)" opacity="0.35"/>
<circle cx="288" cy="264" r="9" fill="rgb(80,0,92)"/>
<circle cx="312" cy="264" r="12" fill="rgb(0,30,18)" opacity="0.35"/>
<circle cx="312" cy="264" r="9" fill="rgb(0,30,18)"/>
<circle cx="336" cy="264" r="12" fill="rgb(0,39,39)" opacity="0.35"/>
<circle cx="336" cy="264" r="9" fill="rgb(0,39,39)"/>
<circle cx="360" cy="264" r="12" fill="rgb(10,0,70)" opacity="0.35"/>
<circle cx="360" cy="264" r="9" fill="rgb(10,0,70)"/>
<circle cx="384" cy="264" r="12" fill="rgb(0,38,42)" opacity="0.35"/>
<circle cx="384" cy="264" r="9" fill="rgb(0,38,42)"/>
<circle cx="24" cy="288" r="12" fill="rgb(8,0,69)" opacity="0.35"/>
<circle cx="24" cy="288" r="9" fill="rgb(8,0,69)"/>
<circle cx="48" cy="288" r="12" fill="rgb(101,0,85)" opacity="0.35"/>
<circle cx="48" cy="288" r="9" fill="rgb(101,0,85)"/>
<circle cx="72" cy="288" r="12" fill="rgb(11,0,70)" opacity="0.35"/>
<circle cx="72" cy="288" r="9" fill="rgb(11,0,70)"/>
<circle cx="96" cy="288" r="9" fill="#14171c"/>
<circle cx="120" cy="288" r="12" fill="rgb(0,25,53)" opacity="0.35"/>
<circle cx="120" cy="288" r="9" fill="rgb(0,25,53)"/>
<circle cx="144" cy="288" r="9" fill="#14171c"/>
<circle cx="168" cy="288" r="12" fill="rgb(0,35,45)" opacity="0.35"/>
<circle cx="168" cy="288" r="9" fill="rgb(0,35,45)"/>
<circle cx="192" cy="288" r="12" fill="rgb(57,0,86)" opacity="0.35"/>
<circle cx="192" cy="288" r="9" fill="rgb(57,0,86)"/>
<circle cx="216" cy="288" r="12" fill="rgb(6,0,68)" opacity="0.35"/>
<circle cx="216" cy="288" r="9" fill="rgb(6,0,68)"/>
<circle cx="240" cy="288" r="12" fill="rgb(0,22,55)" opacity="0.35"/>
<circle cx="240" cy="288" r="9" fill="rgb(0,22,55)"/>
<circle cx="264" cy="288" r="12" fill="rgb(115,0,46)" opacity="0.35"/>
<circle cx="264" cy="288" r="9" fill="rgb(115,0,46)"/>
<circle cx="288" cy="288" r="12" fill="rgb(57,0,86)" opacity="0.35"/>
<circle cx="288" cy="288" r="9" fill="rgb(57,0,86)"/>
<circle cx="312" cy="288" r="12" fill="rgb(0,39,41)" opacity="0.35"/>
<circle cx="312" cy="288" r="9" fill="rgb(0,39,41)"/>
<circle cx="336" cy="288" r="12" fill="rgb(0,26,10)" opacity="0.35"/>
<circle cx="336" cy="288" r="9" fill="rgb(0,26,10)"/>
<circle cx="360" cy="288" r="12" fill="rgb(65,0,88)" opacity="0.35"/>
<circle cx="360" cy="288" r="9" fill="rgb(65,0,88)"/>
<circle cx="384" cy="288" r="12" fill="rgb(5,0,68)" opacity="0.35"/>
<circle cx="384" cy="288" r="9" fill="rgb(5,0,68)"/>
<circle cx="24" cy="312" r="12" fill="rgb(24,0,75)" opacity="0.35"/>
<circle cx="24" cy="312" r="9" fill="rgb(24,0,75)"/>
<circle cx="48" cy="312" r="12" fill="rgb(1,0,66)" opacity="0.35"/>
<circle cx="48" cy="312" r="9" fill="rgb(1,0,66)"/>
<circle cx="72" cy="312" r="12" fill="rgb(0,36,44)" opacity="0.35"/>
<circle cx="72" cy="312" r="9" fill="rgb(0,36,44)"/>
<circle cx="96" cy="312" r="9" fill="#14171c"/>
<circle cx="120" cy="312" r="12" fill="rgb(0,26,53)" opacity="0.35"/>
<circle cx="120" cy="312" r="9" fill="rgb(0,26,53)"/>
<circle cx="144" cy="312" r="12" fill="rgb(0,29,17)" opacity="0.35"/>
<circle cx="144" cy="312" r="9" fill="rgb(0,29,17)"/>
<circle cx="168" cy="312" r="12" fill="rgb(63,0,87)" opacity="0.35"/>
<circle cx="168" cy="312" r="9" fill="rgb(63,0,87)"/>
<circle cx="192" cy="312" r="12" fill="rgb(102,180,0)" opacity="0.35"/>
<circle cx="192" cy="312" r="9" fill="rgb(102,180,0)"/>
<circle cx="216" cy="312" r="12" fill="rgb(108,0,67)" opacity="0.35"/>
<circle cx="216" cy="312" r="9" fill="rgb(108,0,67)"/>
<circle cx="240" cy="312" r="12" fill="rgb(14,199,0)" opacity="0.35"/>
<circle cx="240" cy="312" r="9" fill="rgb(14,199,0)"/>
<circle cx="264" cy="312" r="12" fill="rgb(21,0,74)" opacity="0.35"/>
<circle cx="264" cy="312" r="9" fill="rgb(21,0,74)"/>
<circle cx="288" cy="312" r="12" fill="rgb(118,0,37)" opacity="0.35"/>
<circle cx="288" cy="312" r="9" fill="rgb(118,0,37)"/>
<circle cx="312" cy="312" r="12" fill="rgb(0,16,58)" opacity="0.35"/>
<circle cx="312" cy="312" r="9" fill="rgb(0,16,58)"/>
<circle cx="336" cy="312" r="12" fill="rgb(0,6,63)" opacity="0.35"/>
<circle cx="336" cy="312" r="9" fill="rgb(0,6,63)"/>
<circle cx="360" cy="312" r="12" fill="rgb(36,0,79)" opacity="0.35"/>
<circle cx="360" cy="312" r="9" fill="rgb(36,0,79)"/>
<circle cx="384" cy="312" r="12" fill="rgb(85,0,93)" opacity="0.35"/>
<circle cx="384" cy="312" r="9" fill="rgb(85,0,93)"/>
<circle cx="24" cy="336" r="12" fill="rgb(12,0,71)" opacity="0.35"/>
<circle cx="24" cy="336" r="9" fill="rgb(12,0,71)"/>
<circle cx="48" cy="336" r="9" fill="#14171c"/>
<circle cx="72" cy="336" r="12" fill="rgb(9,0,70)" opacity="0.35"/>
<circle cx="72" cy="336" r="9" fill="rgb(9,0,70)"/>
<circle cx="96" cy="336" r="12" fill="rgb(0,39,39)" opacity="0.35"/>
<circle cx="96" cy="336" r="9" fill="rgb(0,39,39)"/>
<circle cx="120" cy="336" r="12" fill="rgb(13,0,71)" opacity="0.35"/>
<circle cx="120" cy="336" r="9" fill="rgb(13,0,71)"/>
<circle cx="144" cy="336" r="12" fill="rgb(112,0,54)" opacity="0.35"/>
<circle cx="144" cy="336" r="9" fill="rgb(112,0,54)"/>
<circle cx="168" cy="336" r="12" fill="rgb(78,0,91)" opacity="0.35"/>
<circle cx="168" cy="336" r="9" fill="rgb(78,0,91)"/>
<circle cx="192" cy="336" r="12" fill="rgb(109,0,63)" opacity="0.35"/>
<circle cx="192" cy="336" r="9" fill="rgb(109,0,63)"/>
<circle cx="216" cy="336" r="12" fill="rgb(5,0,68)" opacity="0.35"/>
<circle cx="216" cy="336" r="9" fill="rgb(5,0,68)"/>
<circle cx="240" cy="336" r="12" fill="rgb(58,0,86)" opacity="0.35"/>
<circle cx="240" cy="336" r="9" fill="rgb(58,0,86)"/>
<circle cx="264" cy="336" r="12" fill="rgb(0,31,49)" opacity="0.35"/>
<circle cx="264" cy="336" r="9" fill="rgb(0,31,49)"/>
<circle cx="288" cy="336" r="12" fill="rgb(151,96,0)" opacity="0.35"/>
<circle cx="288" cy="336" r="9" fill="rgb(151,96,0)"/>
<circle cx="312" cy="336" r="12" fill="rgb(61,0,87)" opacity="0.35"/>
<circle cx="312" cy="336" r="9" fill="rgb(61,0,87)"/>
<circle cx="336" cy="336" r="12" fill="rgb(143,59,0)" opacity="0.35"/>
<circle cx="336" cy="336" r="9" fill="rgb(143,59,0)"/>
<circle cx="360" cy="336" r="12" fill="rgb(0,25,9)" opacity="0.35"/>
<circle cx="360" cy="336" r="9" fill="rgb(0,25,9)"/>
<circle cx="384" cy="336" r="12" fill="rgb(85,0,93)" opacity="0.35"/>
<circle cx="384" cy="336" r="9" fill="rgb(85,0,93)"/>
<circle cx="24" cy="360" r="12" fill="rgb(0,39,37)" opacity="0.35"/>
<circle cx="24" cy="360" r="9" fill="rgb(0,39,37)"/>
<circle cx="48" cy="360" r="9" fill="#14171c"/>
<circle cx="72" cy="360" r="12" fill="rgb(0,28,51)" opacity="0.35"/>
<circle cx="72" cy="360" r="9" fill="rgb(0,28,51)"/>
<circle cx="96" cy="360" r="12" fill="rgb(0,24,53)" opacity="0.35"/>
<circle cx="96" cy="360" r="9" fill="rgb(0,24,53)"/>
<circle cx="120" cy="360" r="12" fill="rgb(0,9,62)" opacity="0.35"/>
<circle cx="120" cy="360" r="9" fill="rgb(0,9,62)"/>
<circle cx="144" cy="360" r="12" fill="rgb(64,0,87)" opacity="0.35"/>
<circle cx="144" cy="360" r="9" fill="rgb(64,0,87)"/>
<circle cx="168" cy="360" r="12" fill="rgb(0,11,61)" opacity="0.35"/>
<circle cx="168" cy="360" r="9" fill="rgb(0,11,61)"/>
<circle cx="192" cy="360" r="9" fill="#14171c"/>
<circle cx="216" cy="360" r="12" fill="rgb(0,39,40)" opacity="0.35"/>
<circle cx="216" cy="360" r="9" fill="rgb(0,39,40)"/>
<circle cx="240" cy="360" r="12" fill="rgb(0,28,14)" opacity="0.35"/>
<circle cx="240" cy="360" r="9" fill="rgb(0,28,14)"/>
<circle cx="264" cy="360" r="12" fill="rgb(32,0,78)" opacity="0.35"/>
<circle cx="264" cy="360" r="9" fill="rgb(32,0,78)"/>
<circle cx="288" cy="360" r="12" fill="rgb(133,172,0)" opacity="0.35"/>
<circle cx="288" cy="360" r="9" fill="rgb(133,172,0)"/>
<circle cx="312" cy="360" r="12" fill="rgb(0,37,43)" opacity="0.35"/>
<circle cx="312" cy="360" r="9" fill="rgb(0,37,43)"/>
<circle cx="336" cy="360" r="12" fill="rgb(116,0,42)" opacity="0.35"/>
<circle cx="336" cy="360" r="9" fill="rgb(116,0,42)"/>
<circle cx="360" cy="360" r="9" fill="#14171c"/>
<circle cx="384" cy="360" r="12" fill="rgb(123,0,19)" opacity="0.35"/>
<circle cx="384" cy="360" r="9" fill="rgb(123,0,19)"/>
<circle cx="24" cy="384" r="12" fill="rgb(0,8,62)" opacity="0.35"/>
<circle cx="24" cy="384" r="9" fill="rgb(0,8,62)"/>
<circle cx="48" cy="384" r="12" fill="rgb(2,0,67)" opacity="0.35"/>
<circle cx="48" cy="384" r="9" fill="rgb(2,0,67)"/>
<circle cx="72" cy="384" r="12" fill="rgb(18,0,73)" opacity="0.35"/>
<circle cx="72" cy="384" r="9" fill="rgb(18,0,73)"/>
<circle cx="96" cy="384" r="9" fill="#14171c"/>
<circle cx="120" cy="384" r="12" fill="rgb(0,20,56)" opacity="0.35"/>
<circle cx="120" cy="384" r="9" fill="rgb(0,20,56)"/>
<circle cx="144" cy="384" r="12" fill="rgb(147,79,0)" opacity="0.35"/>
<circle cx="144" cy="384" r="9" fill="rgb(147,79,0)"/>
<circle cx="168" cy="384" r="12" fill="rgb(0,13,60)" opacity="0.35"/>
<circle cx="168" cy="384" r="9" fill="rgb(0,13,60)"/>
<circle cx="192" cy="384" r="9" fill="#14171c"/>
<circle cx="216" cy="384" r="12" fill="rgb(0,27,51)" opacity="0.35"/>
<circle cx="216" cy="384" r="9" fill="rgb(0,27,51)"/>
<circle cx="240" cy="384" r="12" fill="rgb(128,0,2)" opacity="0.35"/>
<circle cx="240" cy="384" r="9" fill="rgb(128,0,2)"/>
<circle cx="264" cy="384" r="12" fill="rgb(11,0,70)" opacity="0.35"/>
<circle cx="264" cy="384" r="9" fill="rgb(11,0,70)"/>
<circle cx="288" cy="384" r="12" fill="rgb(116,0,43)" opacity="0.35"/>
<circle cx="288" cy="384" r="9" fill="rgb(116,0,43)"/>
<circle cx="312" cy="384" r="12" fill="rgb(0,26,53)" opacity="0.35"/>
<circle cx="312" cy="384" r="9" fill="rgb(0,26,53)"/>
<circle cx="336" cy="384" r="12" fill="rgb(114,0,49)" opacity="0.35"/>
<circle cx="336" cy="384" r="9" fill="rgb(114,0,49)"/>
<circle cx="360" cy="384" r="12" fill="rgb(0,4,64)" opacity="0.35"/>
<circle cx="360" cy="384" r="9" fill="rgb(0,4,64)"/>
<circle cx="384" cy="384" r="12" fill="rgb(95,0,96)" opacity="0.35"/>
<circle cx="384" cy="384" r="9" fill="rgb(95,0,96)"/>
</svg>
