<svg xmlns="http://www.w3.org/2000/svg" viewBox="0 0 408 408" width="408" height="408" role="img" aria-label="LED preview of the Radial Burst example graph">
<rect width="408" height="408" rx="10" fill="#05070a"/>
<circle cx="24" cy="24" r="12" fill="rgb(53,0,0)" opacity="0.35"/>
<circle cx="24" cy="24" r="9" fill="rgb(53,0,0)"/>
<circle cx="48" cy="24" r="12" fill="rgb(12,2,20)" opacity="0.35"/>
<circle cx="48" cy="24" r="9" fill="rgb(12,2,20)"/>
<circle cx="72" cy="24" r="12" fill="rgb(68,38,176)" opacity="0.35"/>
<circle cx="72" cy="24" r="9" fill="rgb(68,38,176)"/>
<circle cx="96" cy="24" r="12" fill="rgb(49,79,253)" opacity="0.35"/>
<circle cx="96" cy="24" r="9" fill="rgb(49,79,253)"/>
<circle cx="120" cy="24" r="12" fill="rgb(25,72,175)" opacity="0.35"/>
<circle cx="120" cy="24" r="9" fill="rgb(25,72,175)"/>
<circle cx="144" cy="24" r="12" fill="rgb(7,32,66)" opacity="0.35"/>
<circle cx="144" cy="24" r="9" fill="rgb(7,32,66)"/>
<circle cx="168" cy="24" r="9" fill="#14171c"/>
<circle cx="192" cy="24" r="9" fill="#14171c"/>
<circle cx="216" cy="24" r="9" fill="#14171c"/>
<circle cx="240" cy="24" r="9" fill="#14171c"/>
<circle cx="264" cy="24" r="9" fill="#14171c"/>
<circle cx="288" cy="24" r="12" fill="rgb(7,32,66)" opacity="0.35"/>
<circle cx="288" cy="24" r="9" fill="rgb(7,32,66)"/>
<circle cx="312" cy="24" r="12" fill="rgb(25,72,175)" opacity="0.35"/>
<circle cx="312" cy="24" r="9" fill="rgb(25,72,175)"/>
<circle cx="336" cy="24" r="12" fill="rgb(49,79,253)" opacity="0.35"/>
<circle cx="336" cy="24" r="9" fill="rgb(49,79,253)"/>
<circle cx="360" cy="24" r="12" fill="rgb(68,38,176)" opacity="0.35"/>
<circle cx="360" cy="24" r="9" fill="rgb(68,38,176)"/>
<circle cx="384" cy="24" r="12" fill="rgb(12,2,20)" opacity="0.35"/>
<circle cx="384" cy="24" r="9" fill="rgb(12,2,20)"/>
<circle cx="24" cy="48" r="12" fill="rgb(12,2,20)" opacity="0.35"/>
<circle cx="24" cy="48" r="9" fill="rgb(12,2,20)"/>
<circle cx="48" cy="48" r="12" fill="rgb(71,47,201)" opacity="0.35"/>
<circle cx="48" cy="48" r="9" fill="rgb(71,47,201)"/>
<circle cx="72" cy="48" r="12" fill="rgb(40,83,234)" opacity="0.35"/>
<circle cx="72" cy="48" r="9" fill="rgb(40,83,234)"/>
<circle cx="96" cy="48" r="12" fill="rgb(9,39,81)" opacity="0.35"/>
<circle cx="96" cy="48" r="9" fill="rgb(9,39,81)"/>
<circle cx="120" cy="48" r="9" fill="#14171c"/>
<circle cx="144" cy="48" r="12" fill="rgb(0,39,57)" opacity="0.35"/>
<circle cx="144" cy="48" r="9" fill="rgb(0,39,57)"/>
<circle cx="168" cy="48" r="12" fill="rgb(0,104,134)" opacity="0.35"/>
<circle cx="168" cy="48" r="9" fill="rgb(0,104,134)"/>
<circle cx="192" cy="48" r="12" fill="rgb(0,144,168)" opacity="0.35"/>
<circle cx="192" cy="48" r="9" fill="rgb(0,144,168)"/>
<circle cx="216" cy="48" r="12" fill="rgb(0,156,176)" opacity="0.35"/>
<circle cx="216" cy="48" r="9" fill="rgb(0,156,176)"/>
<circle cx="240" cy="48" r="12" fill="rgb(0,144,168)" opacity="0.35"/>
<circle cx="240" cy="48" r="9" fill="rgb(0,144,168)"/>
<circle cx="264" cy="48" r="12" fill="rgb(0,104,134)" opacity="0.35"/>
<circle cx="264" cy="48" r="9" fill="rgb(0,104,134)"/>
<circle cx="288" cy="48" r="12" fill="rgb(0,39,57)" opacity="0.35"/>
<circle cx="288" cy="48" r="9" fill="rgb(0,39,57)"/>
<circle cx="312" cy="48" r="9" fill="#14171c"/>
<circle cx="336" cy="48" r="12" fill="rgb(9,39,81)" opacity="0.35"/>
<circle cx="336" cy="48" r="9" fill="rgb(9,39,81)"/>
<circle cx="360" cy="48" r="12" fill="rgb(40,83,234)" opacity="0.35"/>
<circle cx="360" cy="48" r="9" fill="rgb(40,83,234)"/>
<circle cx="384" cy="48" r="12" fill="rgb(71,47,201)" opacity="0.35"/>
<circle cx="384" cy="48" r="9" fill="rgb(71,47,201)"/>
<circle cx="24" cy="72" r="12" fill="rgb(68,38,176)" opacity="0.35"/>
<circle cx="24" cy="72" r="9" fill="rgb(68,38,176)"/>
<circle cx="48" cy="72" r="12" fill="rgb(40,83,234)" opacity="0.35"/>
<circle cx="48" cy="72" r="9" fill="rgb(40,83,234)"/>
<circle cx="72" cy="72" r="12" fill="rgb(5,26,53)" opacity="0.35"/>
<circle cx="72" cy="72" r="9" fill="rgb(5,26,53)"/>
<circle cx="96" cy="72" r="12" fill="rgb(1,12,19)" opacity="0.35"/>
<circle cx="96" cy="72" r="9" fill="rgb(1,12,19)"/>
<circle cx="120" cy="72" r="12" fill="rgb(0,118,148)" opacity="0.35"/>
<circle cx="120" cy="72" r="9" fill="rgb(0,118,148)"/>
<circle cx="144" cy="72" r="12" fill="rgb(0,186,178)" opacity="0.35"/>
<circle cx="144" cy="72" r="9" fill="rgb(0,186,178)"/>
<circle cx="168" cy="72" r="12" fill="rgb(0,168,126)" opacity="0.35"/>
<circle cx="168" cy="72" r="9" fill="rgb(0,168,126)"/>
<circle cx="192" cy="72" r="12" fill="rgb(0,128,80)" opacity="0.35"/>
<circle cx="192" cy="72" r="9" fill="rgb(0,128,80)"/>
<circle cx="216" cy="72" r="12" fill="rgb(0,111,65)" opacity="0.35"/>
<circle cx="216" cy="72" r="9" fill="rgb(0,111,65)"/>
<circle cx="240" cy="72" r="12" fill="rgb(0,128,80)" opacity="0.35"/>
<circle cx="240" cy="72" r="9" fill="rgb(0,128,80)"/>
<circle cx="264" cy="72" r="12" fill="rgb(0,168,126)" opacity="0.35"/>
<circle cx="264" cy="72" r="9" fill="rgb(0,168,126)"/>
<circle cx="288" cy="72" r="12" fill="rgb(0,186,178)" opacity="0.35"/>
<circle cx="288" cy="72" r="9" fill="rgb(0,186,178)"/>
<circle cx="312" cy="72" r="12" fill="rgb(0,118,148)" opacity="0.35"/>
<circle cx="312" cy="72" r="9" fill="rgb(0,118,148)"/>
<circle cx="336" cy="72" r="12" fill="rgb(1,12,19)" opacity="0.35"/>
<circle cx="336" cy="72" r="9" fill="rgb(1,12,19)"/>
<circle cx="360" cy="72" r="12" fill="rgb(5,26,53)" opacity="0.35"/>
<circle cx="360" cy="72" r="9" fill="rgb(5,26,53)"/>
<circle cx="384" cy="72" r="12" fill="rgb(40,83,234)" opacity="0.35"/>
<circle cx="384" cy="72" r="9" fill="rgb(40,83,234)"/>
<circle cx="24" cy="96" r="12" fill="rgb(49,79,253)" opacity="0.35"/>
<circle cx="24" cy="96" r="9" fill="rgb(49,79,253)"/>
<circle cx="48" cy="96" r="12" fill="rgb(9,39,81)" opacity="0.35"/>
<circle cx="48" cy="96" r="9" fill="rgb(9,39,81)"/>
<circle cx="72" cy="96" r="12" fill="rgb(1,12,19)" opacity="0.35"/>
<circle cx="72" cy="96" r="9" fill="rgb(1,12,19)"/>
<circle cx="96" cy="96" r="12" fill="rgb(0,144,168)" opacity="0.35"/>
<circle cx="96" cy="96" r="9" fill="rgb(0,144,168)"/>
<circle cx="120" cy="96" r="12" fill="rgb(0,177,140)" opacity="0.35"/>
<circle cx="120" cy="96" r="9" fill="rgb(0,177,140)"/>
<circle cx="144" cy="96" r="12" fill="rgb(0,75,38)" opacity="0.35"/>
<circle cx="144" cy="96" r="9" fill="rgb(0,75,38)"/>
<circle cx="168" cy="96" r="9" fill="#14171c"/>
<circle cx="192" cy="96" r="9" fill="#14171c"/>
<circle cx="216" cy="96" r="9" fill="#14171c"/>
<circle cx="240" cy="96" r="9" fill="#14171c"/>
<circle cx="264" cy="96" r="9" fill="#14171c"/>
<circle cx="288" cy="96" r="12" fill="rgb(0,75,38)" opacity="0.35"/>
<circle cx="288" cy="96" r="9" fill="rgb(0,75,38)"/>
<circle cx="312" cy="96" r="12" fill="rgb(0,177,140)" opacity="0.35"/>
<circle cx="312" cy="96" r="9" fill="rgb(0,177,140)"/>
<circle cx="336" cy="96" r="12" fill="rgb(0,144,168)" opacity="0.35"/>
<circle cx="336" cy="96" r="9" fill="rgb(0,144,168)"/>
<circle cx="360" cy="96" r="12" fill="rgb(1,12,19)" opacity="0.35"/>
<circle cx="360" cy="96" r="9" fill="rgb(1,12,19)"/>
<circle cx="384" cy="96" r="12" fill="rgb(9,39,81)" opacity="0.35"/>
<circle cx="384" cy="96" r="9" fill="rgb(9,39,81)"/>
<circle cx="24" cy="120" r="12" fill="rgb(25,72,175)" opacity="0.35"/>
<circle cx="24" cy="120" r="9" fill="rgb(25,72,175)"/>
<circle cx="48" cy="120" r="9" fill="#14171c"/>
<circle cx="72" cy="120" r="12" fill="rgb(0,118,148)" opacity="0.35"/>
<circle cx="72" cy="120" r="9" fill="rgb(0,118,148)"/>
<circle cx="96" cy="120" r="12" fill="rgb(0,177,140)" opacity="0.35"/>
<circle cx="96" cy="120" r="9" fill="rgb(0,177,140)"/>
<circle cx="120" cy="120" r="12" fill="rgb(0,41,17)" opacity="0.35"/>
<circle cx="120" cy="120" r="9" fill="rgb(0,41,17)"/>
<circle cx="144" cy="120" r="9" fill="#14171c"/>
<circle cx="168" cy="120" r="12" fill="rgb(89,116,17)" opacity="0.35"/>
<circle cx="168" cy="120" r="9" fill="rgb(89,116,17)"/>
<circle cx="192" cy="120" r="12" fill="rgb(184,188,13)" opacity="0.35"/>
<circle cx="192" cy="120" r="9" fill="rgb(184,188,13)"/>
<circle cx="216" cy="120" r="12" fill="rgb(215,203,10)" opacity="0.35"/>
<circle cx="216" cy="120" r="9" fill="rgb(215,203,10)"/>
<circle cx="240" cy="120" r="12" fill="rgb(184,188,13)" opacity="0.35"/>
<circle cx="240" cy="120" r="9" fill="rgb(184,188,13)"/>
<circle cx="264" cy="120" r="12" fill="rgb(89,116,17)" opacity="0.35"/>
<circle cx="264" cy="120" r="9" fill="rgb(89,116,17)"/>
<circle cx="288" cy="120" r="9" fill="#14171c"/>
<circle cx="312" cy="120" r="12" fill="rgb(0,41,17)" opacity="0.35"/>
<circle cx="312" cy="120" r="9" fill="rgb(0,41,17)"/>
<circle cx="336" cy="120" r="12" fill="rgb(0,177,140)" opacity="0.35"/>
<circle cx="336" cy="120" r="9" fill="rgb(0,177,140)"/>
<circle cx="360" cy="120" r="12" fill="rgb(0,118,148)" opacity="0.35"/>
<circle cx="360" cy="120" r="9" fill="rgb(0,118,148)"/>
<circle cx="384" cy="120" r="9" fill="#14171c"/>
<circle cx="24" cy="144" r="12" fill="rgb(7,32,66)" opacity="0.35"/>
<circle cx="24" cy="144" r="9" fill="rgb(7,32,66)"/>
<circle cx="48" cy="144" r="12" fill="rgb(0,39,57)" opacity="0.35"/>
<circle cx="48" cy="144" r="9" fill="rgb(0,39,57)"/>
<circle cx="72" cy="144" r="12" fill="rgb(0,186,178)" opacity="0.35"/>
<circle cx="72" cy="144" r="9" fill="rgb(0,186,178)"/>
<circle cx="96" cy="144" r="12" fill="rgb(0,75,38)" opacity="0.35"/>
<circle cx="96" cy="144" r="9" fill="rgb(0,75,38)"/>
<circle cx="120" cy="144" r="9" fill="#14171c"/>
<circle cx="144" cy="144" r="12" fill="rgb(152,167,17)" opacity="0.35"/>
<circle cx="144" cy="144" r="9" fill="rgb(152,167,17)"/>
<circle cx="168" cy="144" r="12" fill="rgb(241,194,0)" opacity="0.35"/>
<circle cx="168" cy="144" r="9" fill="rgb(241,194,0)"/>
<circle cx="192" cy="144" r="12" fill="rgb(142,102,0)" opacity="0.35"/>
<circle cx="192" cy="144" r="9" fill="rgb(142,102,0)"/>
<circle cx="216" cy="144" r="12" fill="rgb(96,66,0)" opacity="0.35"/>
<circle cx="216" cy="144" r="9" fill="rgb(96,66,0)"/>
<circle cx="240" cy="144" r="12" fill="rgb(142,102,0)" opacity="0.35"/>
<circle cx="240" cy="144" r="9" fill="rgb(142,102,0)"/>
<circle cx="264" cy="144" r="12" fill="rgb(241,194,0)" opacity="0.35"/>
<circle cx="264" cy="144" r="9" fill="rgb(241,194,0)"/>
<circle cx="288" cy="144" r="12" fill="rgb(152,167,17)" opacity="0.35"/>
<circle cx="288" cy="144" r="9" fill="rgb(152,167,17)"/>
<circle cx="312" cy="144" r="9" fill="#14171c"/>
<circle cx="336" cy="144" r="12" fill="rgb(0,75,38)" opacity="0.35"/>
<circle cx="336" cy="144" r="9" fill="rgb(0,75,38)"/>
<circle cx="360" cy="144" r="12" fill="rgb(0,186,178)" opacity="0.35"/>
<circle cx="360" cy="144" r="9" fill="rgb(0,186,178)"/>
<circle cx="384" cy="144" r="12" fill="rgb(0,39,57)" opacity="0.35"/>
<circle cx="384" cy="144" r="9" fill="rgb(0,39,57)"/>
<circle cx="24" cy="168" r="9" fill="#14171c"/>
<circle cx="48" cy="168" r="12" fill="rgb(0,104,134)" opacity="0.35"/>
<circle cx="48" cy="168" r="9" fill="rgb(0,104,134)"/>
<circle cx="72" cy="168" r="12" fill="rgb(0,168,126)" opacity="0.35"/>
<circle cx="72" cy="168" r="9" fill="rgb(0,168,126)"/>
<circle cx="96" cy="168" r="9" fill="#14171c"/>
<circle cx="120" cy="168" r="12" fill="rgb(89,116,17)" opacity="0.35"/>
<circle cx="120" cy="168" r="9" fill="rgb(89,116,17)"/>
<circle cx="144" cy="168" r="12" fill="rgb(241,194,0)" opacity="0.35"/>
<circle cx="144" cy="168" r="9" fill="rgb(241,194,0)"/>
<circle cx="168" cy="168" r="12" fill="rgb(53,35,0)" opacity="0.35"/>
<circle cx="168" cy="168" r="9" fill="rgb(53,35,0)"/>
<circle cx="192" cy="168" r="9" fill="#14171c"/>
<circle cx="216" cy="168" r="12" fill="rgb(48,24,0)" opacity="0.35"/>
<circle cx="216" cy="168" r="9" fill="rgb(48,24,0)"/>
<circle cx="240" cy="168" r="9" fill="#14171c"/>
<circle cx="264" cy="168" r="12" fill="rgb(53,35,0)" opacity="0.35"/>
<circle cx="264" cy="168" r="9" fill="rgb(53,35,0)"/>
<circle cx="288" cy="168" r="12" fill="rgb(241,194,0)" opacity="0.35"/>
<circle cx="288" cy="168" r="9" fill="rgb(241,194,0)"/>
<circle cx="312" cy="168" r="12" fill="rgb(89,116,17)" opacity="0.35"/>
<circle cx="312" cy="168" r="9" fill="rgb(89,116,17)"/>
<circle cx="336" cy="168" r="9" fill="#14171c"/>
<circle cx="360" cy="168" r="12" fill="rgb(0,168,126)" opacity="0.35"/>
<circle cx="360" cy="168" r="9" fill="rgb(0,168,126)"/>
<circle cx="384" cy="168" r="12" fill="rgb(0,104,134)" opacity="0.35"/>
<circle cx="384" cy="168" r="9" fill="rgb(0,104,134)"/>
<circle cx="24" cy="192" r="9" fill="#14171c"/>
<circle cx="48" cy="192" r="12" fill="rgb(0,144,168)" opacity="0.35"/>
<circle cx="48" cy="192" r="9" fill="rgb(0,144,168)"/>
<circle cx="72" cy="192" r="12" fill="rgb(0,128,80)" opacity="0.35"/>
<circle cx="72" cy="192" r="9" fill="rgb(0,128,80)"/>
<circle cx="96" cy="192" r="9" fill="#14171c"/>
<circle cx="120" cy="192" r="12" fill="rgb(184,188,13)" opacity="0.35"/>
<circle cx="120" cy="192" r="9" fill="rgb(184,188,13)"/>
<circle cx="144" cy="192" r="12" fill="rgb(142,102,0)" opacity="0.35"/>
<circle cx="144" cy="192" r="9" fill="rgb(142,102,0)"/>
<circle cx="168" cy="192" r="9" fill="#14171c"/>
<circle cx="192" cy="192" r="12" fill="rgb(202,73,0)" opacity="0.35"/>
<circle cx="192" cy="192" r="9" fill="rgb(202,73,0)"/>
<circle cx="216" cy="192" r="12" fill="rgb(255,65,0)" opacity="0.35"/>
<circle cx="216" cy="192" r="9" fill="rgb(255,65,0)"/>
<circle cx="240" cy="192" r="12" fill="rgb(202,73,0)" opacity="0.35"/>
<circle cx="240" cy="192" r="9" fill="rgb(202,73,0)"/>
<circle cx="264" cy="192" r="9" fill="#14171c"/>
<circle cx="288" cy="192" r="12" fill="rgb(142,102,0)" opacity="0.35"/>
<circle cx="288" cy="192" r="9" fill="rgb(142,102,0)"/>
<circle cx="312" cy="192" r="12" fill="rgb(184,188,13)" opacity="0.35"/>
<circle cx="312" cy="192" r="9" fill="rgb(184,188,13)"/>
<circle cx="336" cy="192" r="9" fill="#14171c"/>
<circle cx="360" cy="192" r="12" fill="rgb(0,128,80)" opacity="0.35"/>
<circle cx="360" cy="192" r="9" fill="rgb(0,128,80)"/>
<circle cx="384" cy="192" r="12" fill="rgb(0,144,168)" opacity="0.35"/>
<circle cx="384" cy="192" r="9" fill="rgb(0,144,168)"/>
<circle cx="24" cy="216" r="9" fill="#14171c"/>
<circle cx="48" cy="216" r="12" fill="rgb(0,156,176)" opacity="0.35"/>
<circle cx="48" cy="216" r="9" fill="rgb(0,156,176)"/>
<circle cx="72" cy="216" r="12" fill="rgb(0,111,65)" opacity="0.35"/>
<circle cx="72" cy="216" r="9" fill="rgb(0,111,65)"/>
<circle cx="96" cy="216" r="9" fill="#14171c"/>
<circle cx="120" cy="216" r="12" fill="rgb(215,203,10)" opacity="0.35"/>
<circle cx="120" cy="216" r="9" fill="rgb(215,203,10)"/>
<circle cx="144" cy="216" r="12" fill="rgb(96,66,0)" opacity="0.35"/>
<circle cx="144" cy="216" r="9" fill="rgb(96,66,0)"/>
<circle cx="168" cy="216" r="12" fill="rgb(48,24,0)" opacity="0.35"/>
<circle cx="168" cy="216" r="9" fill="rgb(48,24,0)"/>
<circle cx="192" cy="216" r="12" fill="rgb(255,65,0)" opacity="0.35"/>
<circle cx="192" cy="216" r="9" fill="rgb(255,65,0)"/>
<circle cx="216" cy="216" r="12" fill="rgb(53,0,0)" opacity="0.35"/>
<circle cx="216" cy="216" r="9" fill="rgb(53,0,0)"/>
<circle cx="240" cy="216" r="12" fill="rgb(255,65,0)" opacity="0.35"/>
<circle cx="240" cy="216" r="9" fill="rgb(255,65,0)"/>
<circle cx="264" cy="216" r="12" fill="rgb(48,24,0)" opacity="0.35"/>
<circle cx="264" cy="216" r="9" fill="rgb(48,24,0)"/>
<circle cx="288" cy="216" r="12" fill="rgb(96,66,0)" opacity="0.35"/>
<circle cx="288" cy="216" r="9" fill="rgb(96,66,0)"/>
<circle cx="312" cy="216" r="12" fill="rgb(215,203,10)" opacity="0.35"/>
<circle cx="312" cy="216" r="9" fill="rgb(215,203,10)"/>
<circle cx="336" cy="216" r="9" fill="#14171c"/>
<circle cx="360" cy="216" r="12" fill="rgb(0,111,65)" opacity="0.35"/>
<circle cx="360" cy="216" r="9" fill="rgb(0,111,65)"/>
<circle cx="384" cy="216" r="12" fill="rgb(0,156,176)" opacity="0.35"/>
<circle cx="384" cy="216" r="9" fill="rgb(0,156,176)"/>
<circle cx="24" cy="240" r="9" fill="#14171c"/>
<circle cx="48" cy="240" r="12" fill="rgb(0,144,168)" opacity="0.35"/>
<circle cx="48" cy="240" r="9" fill="rgb(0,144,168)"/>
<circle cx="72" cy="240" r="12" fill="rgb(0,128,80)" opacity="0.35"/>
<circle cx="72" cy="240" r="9" fill="rgb(0,128,80)"/>
<circle cx="96" cy="240" r="9" fill="#14171c"/>
<circle cx="120" cy="240" r="12" fill="rgb(184,188,13)" opacity="0.35"/>
<circle cx="120" cy="240" r="9" fill="rgb(184,188,13)"/>
<circle cx="144" cy="240" r="12" fill="rgb(142,102,0)" opacity="0.35"/>
<circle cx="144" cy="240" r="9" fill="rgb(142,102,0)"/>
<circle cx="168" cy="240" r="9" fill="#14171c"/>
<circle cx="192" cy="240" r="12" fill="rgb(202,73,0)" opacity="0.35"/>
<circle cx="192" cy="240" r="9" fill="rgb(202,73,0)"/>
<circle cx="216" cy="240" r="12" fill="rgb(255,65,0)" opacity="0.35"/>
<circle cx="216" cy="240" r="9" fill="rgb(255,65,0)"/>
<circle cx="240" cy="240" r="12" fill="rgb(202,73,0)" opacity="0.35"/>
<circle cx="240" cy="240" r="9" fill="rgb(202,73,0)"/>
<circle cx="264" cy="240" r="9" fill="#14171c"/>
<circle cx="288" cy="240" r="12" fill="rgb(142,102,0)" opacity="0.35"/>
<circle cx="288" cy="240" r="9" fill="rgb(142,102,0)"/>
<circle cx="312" cy="240" r="12" fill="rgb(184,188,13)" opacity="0.35"/>
<circle cx="312" cy="240" r="9" fill="rgb(184,188,13)"/>
<circle cx="336" cy="240" r="9" fill="#14171c"/>
<circle cx="360" cy="240" r="12" fill="rgb(0,128,80)" opacity="0.35"/>
<circle cx="360" cy="240" r="9" fill="rgb(0,128,80)"/>
<circle cx="384" cy="240" r="12" fill="rgb(0,144,168)" opacity="0.35"/>
<circle cx="384" cy="240" r="9" fill="rgb(0,144,168)"/>
<circle cx="24" cy="264" r="9" fill="#14171c"/>
<circle cx="48" cy="264" r="12" fill="rgb(0,104,134)" opacity="0.35"/>
<circle cx="48" cy="264" r="9" fill="rgb(0,104,134)"/>
<circle cx="72" cy="264" r="12" fill="rgb(0,168,126)" opacity="0.35"/>
<circle cx="72" cy="264" r="9" fill="rgb(0,168,126)"/>
<circle cx="96" cy="264" r="9" fill="#14171c"/>
<circle cx="120" cy="264" r="12" fill="rgb(89,116,17)" opacity="0.35"/>
<circle cx="120" cy="264" r="9" fill="rgb(89,116,17)"/>
<circle cx="144" cy="264" r="12" fill="rgb(241,194,0)" opacity="0.35"/>
<circle cx="144" cy="264" r="9" fill="rgb(241,194,0)"/>
<circle cx="168" cy="264" r="12" fill="rgb(53,35,0)" opacity="0.35"/>
<circle cx="168" cy="264" r="9" fill="rgb(53,35,0)"/>
<circle cx="192" cy="264" r="9" fill="#14171c"/>
<circle cx="216" cy="264" r="12" fill="rgb(48,24,0)" opacity="0.35"/>
<circle cx="216" cy="264" r="9" fill="rgb(48,24,0)"/>
<circle cx="240" cy="264" r="9" fill="#14171c"/>
<circle cx="264" cy="264" r="12" fill="rgb(53,35,0)" opacity="0.35"/>
<circle cx="264" cy="264" r="9" fill="rgb(53,35,0)"/>
<circle cx="288" cy="264" r="12" fill="rgb(241,194,0)" opacity="0.35"/>
<circle cx="288" cy="264" r="9" fill="rgb(241,194,0)"/>
<circle cx="312" cy="264" r="12" fill="rgb(89,116,17)" opacity="0.35"/>
<circle cx="312" cy="264" r="9" fill="rgb(89,116,17)"/>
<circle cx="336" cy="264" r="9" fill="#14171c"/>
<circle cx="360" cy="264" r="12" fill="rgb(0,168,126)" opacity="0.35"/>
<circle cx="360" cy="264" r="9" fill="rgb(0,168,126)"/>
<circle cx="384" cy="264" r="12" fill="rgb(0,104,134)" opacity="0.35"/>
<circle cx="384" cy="264" r="9" fill="rgb(0,104,134)"/>
<circle cx="24" cy="288" r="12" fill="rgb(7,32,66)" opacity="0.35"/>
<circle cx="24" cy="288" r="9" fill="rgb(7,32,66)"/>
<circle cx="48" cy="288" r="12" fill="rgb(0,39,57)" opacity="0.35"/>
<circle cx="48" cy="288" r="9" fill="rgb(0,39,57)"/>
<circle cx="72" cy="288" r="12" fill="rgb(0,186,178)" opacity="0.35"/>
<circle cx="72" cy="288" r="9" fill="rgb(0,186,178)"/>
<circle cx="96" cy="288" r="12" fill="rgb(0,75,38)" opacity="0.35"/>
<circle cx="96" cy="288" r="9" fill="rgb(0,75,38)"/>
<circle cx="120" cy="288" r="9" fill="#14171c"/>
<circle cx="144" cy="288" r="12" fill="rgb(152,167,17)" opacity="0.35"/>
<circle cx="144" cy="288" r="9" fill="rgb(152,167,17)"/>
<circle cx="168" cy="288" r="12" fill="rgb(241,194,0)" opacity="0.35"/>
<circle cx="168" cy="288" r="9" fill="rgb(241,194,0)"/>
<circle cx="192" cy="288" r="12" fill="rgb(142,102,0)" opacity="0.35"/>
<circle cx="192" cy="288" r="9" fill="rgb(142,102,0)"/>
<circle cx="216" cy="288" r="12" fill="rgb(96,66,0)" opacity="0.35"/>
<circle cx="216" cy="288" r="9" fill="rgb(96,66,0)"/>
<circle cx="240" cy="288" r="12" fill="rgb(142,102,0)" opacity="0.35"/>
<circle cx="240" cy="288" r="9" fill="rgb(142,102,0)"/>
<circle cx="264" cy="288" r="12" fill="rgb(241,194,0)" opacity="0.35"/>
<circle cx="264" cy="288" r="9" fill="rgb(241,194,0)"/>
<circle cx="288" cy="288" r="12" fill="rgb(152,167,17)" opacity="0.35"/>
<circle cx="288" cy="288" r="9" fill="rgb(152,167,17)"/>
<circle cx="312" cy="288" r="9" fill="#14171c"/>
<circle cx="336" cy="288" r="12" fill="rgb(0,75,38)" opacity="0.35"/>
<circle cx="336" cy="288" r="9" fill="rgb(0,75,38)"/>
<circle cx="360" cy="288" r="12" fill="rgb(0,186,178)" opacity="0.35"/>
<circle cx="360" cy="288" r="9" fill="rgb(0,186,178)"/>
<circle cx="384" cy="288" r="12" fill="rgb(0,39,57)" opacity="0.35"/>
<circle cx="384" cy="288" r="9" fill="rgb(0,39,57)"/>
<circle cx="24" cy="312" r="12" fill="rgb(25,72,175)" opacity="0.35"/>
<circle cx="24" cy="312" r="9" fill="rgb(25,72,175)"/>
<circle cx="48" cy="312" r="9" fill="#14171c"/>
<circle cx="72" cy="312" r="12" fill="rgb(0,118,148)" opacity="0.35"/>
<circle cx="72" cy="312" r="9" fill="rgb(0,118,148)"/>
<circle cx="96" cy="312" r="12" fill="rgb(0,177,140)" opacity="0.35"/>
<circle cx="96" cy="312" r="9" fill="rgb(0,177,140)"/>
<circle cx="120" cy="312" r="12" fill="rgb(0,41,17)" opacity="0.35"/>
<circle cx="120" cy="312" r="9" fill="rgb(0,41,17)"/>
<circle cx="144" cy="312" r="9" fill="#14171c"/>
<circle cx="168" cy="312" r="12" fill="rgb(89,116,17)" opacity="0.35"/>
<circle cx="168" cy="312" r="9" fill="rgb(89,116,17)"/>
<circle cx="192" cy="312" r="12" fill="rgb(184,188,13)" opacity="0.35"/>
<circle cx="192" cy="312" r="9" fill="rgb(184,188,13)"/>
<circle cx="216" cy="312" r="12" fill="rgb(215,203,10)" opacity="0.35"/>
<circle cx="216" cy="312" r="9" fill="rgb(215,203,10)"/>
<circle cx="240" cy="312" r="12" fill="rgb(184,188,13)" opacity="0.35"/>
<circle cx="240" cy="312" r="9" fill="rgb(184,188,13)"/>
<circle cx="264" cy="312" r="12" fill="rgb(89,116,17)" opacity="0.35"/>
<circle cx="264" cy="312" r="9" fill="rgb(89,116,17)"/>
<circle cx="288" cy="312" r="9" fill="#14171c"/>
<circle cx="312" cy="312" r="12" fill="rgb(0,41,17)" opacity="0.35"/>
<circle cx="312" cy="312" r="9" fill="rgb(0,41,17)"/>
<circle cx="336" cy="312" r="12" fill="rgb(0,177,140)" opacity="0.35"/>
<circle cx="336" cy="312" r="9" fill="rgb(0,177,140)"/>
<circle cx="360" cy="312" r="12" fill="rgb(0,118,148)" opacity="0.35"/>
<circle cx="360" cy="312" r="9" fill="rgb(0,118,148)"/>
<circle cx="384" cy="312" r="9" fill="#14171c"/>
<circle cx="24" cy="336" r="12" fill="rgb(49,79,253)" opacity="0.35"/>
<circle cx="24" cy="336" r="9" fill="rgb(49,79,253)"/>
<circle cx="48" cy="336" r="12" fill="rgb(9,39,81)" opacity="0.35"/>
<circle cx="48" cy="336" r="9" fill="rgb(9,39,81)"/>
<circle cx="72" cy="336" r="12" fill="rgb(1,12,19)" opacity="0.35"/>
<circle cx="72" cy="336" r="9" fill="rgb(1,12,19)"/>
<circle cx="96" cy="336" r="12" fill="rgb(0,144,168)" opacity="0.35"/>
<circle cx="96" cy="336" r="9" fill="rgb(0,144,168)"/>
<circle cx="120" cy="336" r="12" fill="rgb(0,177,140)" opacity="0.35"/>
<circle cx="120" cy="336" r="9" fill="rgb(0,177,140)"/>
<circle cx="144" cy="336" r="12" fill="rgb(0,75,38)" opacity="0.35"/>
<circle cx="144" cy="336" r="9" fill="rgb(0,75,38)"/>
<circle cx="168" cy="336" r="9" fill="#14171c"/>
<circle cx="192" cy="336" r="9" fill="#14171c"/>
<circle cx="216" cy="336" r="9" fill="#14171c"/>
<circle cx="240" cy="336" r="9" fill="#14171c"/>
<circle cx="264" cy="336" r="9" fill="#14171c"/>
<circle cx="288" cy="336" r="12" fill="rgb(0,75,38)" opacity="0.35"/>
<circle cx="288" cy="336" r="9" fill="rgb(0,75,38)"/>
<circle cx="312" cy="336" r="12" fill="rgb(0,177,140)" opacity="0.35"/>
<circle cx="312" cy="336" r="9" fill="rgb(0,177,140)"/>
<circle cx="336" cy="336" r="12" fill="rgb(0,144,168)" opacity="0.35"/>
<circle cx="336" cy="336" r="9" fill="rgb(0,144,168)"/>
<circle cx="360" cy="336" r="12" fill="rgb(1,12,19)" opacity="0.35"/>
<circle cx="360" cy="336" r="9" fill="rgb(1,12,19)"/>
<circle cx="384" cy="336" r="12" fill="rgb(9,39,81)" opacity="0.35"/>
<circle cx="384" cy="336" r="9" fill="rgb(9,39,81)"/>
<circle cx="24" cy="360" r="12" fill="rgb(68,38,176)" opacity="0.35"/>
<circle cx="24" cy="360" r="9" fill="rgb(68,38,176)"/>
<circle cx="48" cy="360" r="12" fill="rgb(40,83,234)" opacity="0.35"/>
<circle cx="48" cy="360" r="9" fill="rgb(40,83,234)"/>
<circle cx="72" cy="360" r="12" fill="rgb(5,26,53)" opacity="0.35"/>
<circle cx="72" cy="360" r="9" fill="rgb(5,26,53)"/>
<circle cx="96" cy="360" r="12" fill="rgb(1,12,19)" opacity="0.35"/>
<circle cx="96" cy="360" r="9" fill="rgb(1,12,19)"/>
<circle cx="120" cy="360" r="12" fill="rgb(0,118,148)" opacity="0.35"/>
<circle cx="120" cy="360" r="9" fill="rgb(0,118,148)"/>
<circle cx="144" cy="360" r="12" fill="rgb(0,186,178)" opacity="0.35"/>
<circle cx="144" cy="360" r="9" fill="rgb(0,186,178)"/>
<circle cx="168" cy="360" r="12" fill="rgb(0,168,126)" opacity="0.35"/>
<circle cx="168" cy="360" r="9" fill="rgb(0,168,126)"/>
<circle cx="192" cy="360" r="12" fill="rgb(0,128,80)" opacity="0.35"/>
<circle cx="192" cy="360" r="9" fill="rgb(0,128,80)"/>
<circle cx="216" cy="360" r="12" fill="rgb(0,111,65)" opacity="0.35"/>
<circle cx="216" cy="360" r="9" fill="rgb(0,111,65)"/>
<circle cx="240" cy="360" r="12" fill="rgb(0,128,80)" opacity="0.35"/>
<circle cx="240" cy="360" r="9" fill="rgb(0,128,80)"/>
<circle cx="264" cy="360" r="12" fill="rgb(0,168,126)" opacity="0.35"/>
<circle cx="264" cy="360" r="9" fill="rgb(0,168,126)"/>
<circle cx="288" cy="360" r="12" fill="rgb(0,186,178)" opacity="0.35"/>
<circle cx="288" cy="360" r="9" fill="rgb(0,186,178)"/>
<circle cx="312" cy="360" r="12" fill="rgb(0,118,148)" opacity="0.35"/>
<circle cx="312" cy="360" r="9" fill="rgb(0,118,148)"/>
<circle cx="336" cy="360" r="12" fill="rgb(1,12,19)" opacity="0.35"/>
<circle cx="336" cy="360" r="9" fill="rgb(1,12,19)"/>
<circle cx="360" cy="360" r="12" fill="rgb(5,26,53)" opacity="0.35"/>
<circle cx="360" cy="360" r="9" fill="rgb(5,26,53)"/>
<circle cx="384" cy="360" r="12" fill="rgb(40,83,234)" opacity="0.35"/>
<circle cx="384" cy="360" r="9" fill="rgb(40,83,234)"/>
<circle cx="24" cy="384" r="12" fill="rgb(12,2,20)" opacity="0.35"/>
<circle cx="24" cy="384" r="9" fill="rgb(12,2,20)"/>
<circle cx="48" cy="384" r="12" fill="rgb(71,47,201)" opacity="0.35"/>
<circle cx="48" cy="384" r="9" fill="rgb(71,47,201)"/>
<circle cx="72" cy="384" r="12" fill="rgb(40,83,234)" opacity="0.35"/>
<circle cx="72" cy="384" r="9" fill="rgb(40,83,234)"/>
<circle cx="96" cy="384" r="12" fill="rgb(9,39,81)" opacity="0.35"/>
<circle cx="96" cy="384" r="9" fill="rgb(9,39,81)"/>
<circle cx="120" cy="384" r="9" fill="#14171c"/>
<circle cx="144" cy="384" r="12" fill="rgb(0,39,57)" opacity="0.35"/>
<circle cx="144" cy="384" r="9" fill="rgb(0,39,57)"/>
<circle cx="168" cy="384" r="12" fill="rgb(0,104,134)" opacity="0.35"/>
<circle cx="168" cy="384" r="9" fill="rgb(0,104,134)"/>
<circle cx="192" cy="384" r="12" fill="rgb(0,144,168)" opacity="0.35"/>
<circle cx="192" cy="384" r="9" fill="rgb(0,144,168)"/>
<circle cx="216" cy="384" r="12" fill="rgb(0,156,176)" opacity="0.35"/>
<circle cx="216" cy="384" r="9" fill="rgb(0,156,176)"/>
<circle cx="240" cy="384" r="12" fill="rgb(0,144,168)" opacity="0.35"/>
<circle cx="240" cy="384" r="9" fill="rgb(0,144,168)"/>
<circle cx="264" cy="384" r="12" fill="rgb(0,104,134)" opacity="0.35"/>
<circle cx="264" cy="384" r="9" fill="rgb(0,104,134)"/>
<circle cx="288" cy="384" r="12" fill="rgb(0,39,57)" opacity="0.35"/>
<circle cx="288" cy="384" r="9" fill="rgb(0,39,57)"/>
<circle cx="312" cy="384" r="9" fill="#14171c"/>
<circle cx="336" cy="384" r="12" fill="rgb(9,39,81)" opacity="0.35"/>
<circle cx="336" cy="384" r="9" fill="rgb(9,39,81)"/>
<circle cx="360" cy="384" r="12" fill="rgb(40,83,234)" opacity="0.35"/>
<circle cx="360" cy="384" r="9" fill="rgb(40,83,234)"/>
<circle cx="384" cy="384" r="12" fill="rgb(71,47,201)" opacity="0.35"/>
<circle cx="384" cy="384" r="9" fill="rgb(71,47,201)"/>
</svg>
