<svg xmlns="http://www.w3.org/2000/svg" viewBox="0 0 408 408" width="408" height="408" role="img" aria-label="LED preview of the Radial Burst example graph">
<rect width="408" height="408" rx="10" fill="#05070a"/>
<circle cx="24" cy="24" r="12" fill="rgb(215,0,0)" opacity="0.35"/>
<circle cx="24" cy="24" r="9" fill="rgb(215,0,0)"/>
<circle cx="48" cy="24" r="12" fill="rgb(24,5,39)" opacity="0.35"/>
<circle cx="48" cy="24" r="9" fill="rgb(24,5,39)"/>
<circle cx="72" cy="24" r="12" fill="rgb(8,5,21)" opacity="0.35"/>
<circle cx="72" cy="24" r="9" fill="rgb(8,5,21)"/>
<circle cx="96" cy="24" r="12" fill="rgb(31,50,161)" opacity="0.35"/>
<circle cx="96" cy="24" r="9" fill="rgb(31,50,161)"/>
<circle cx="120" cy="24" r="12" fill="rgb(36,103,251)" opacity="0.35"/>
<circle cx="120" cy="24" r="9" fill="rgb(36,103,251)"/>
<circle cx="144" cy="24" r="12" fill="rgb(22,110,226)" opacity="0.35"/>
<circle cx="144" cy="24" r="9" fill="rgb(22,110,226)"/>
<circle cx="168" cy="24" r="12" fill="rgb(11,86,157)" opacity="0.35"/>
<circle cx="168" cy="24" r="9" fill="rgb(11,86,157)"/>
<circle cx="192" cy="24" r="12" fill="rgb(5,61,105)" opacity="0.35"/>
<circle cx="192" cy="24" r="9" fill="rgb(5,61,105)"/>
<circle cx="216" cy="24" r="12" fill="rgb(4,52,88)" opacity="0.35"/>
<circle cx="216" cy="24" r="9" fill="rgb(4,52,88)"/>
<circle cx="240" cy="24" r="12" fill="rgb(5,61,105)" opacity="0.35"/>
<circle cx="240" cy="24" r="9" fill="rgb(5,61,105)"/>
<circle cx="264" cy="24" r="12" fill="rgb(11,86,157)" opacity="0.35"/>
<circle cx="264" cy="24" r="9" fill="rgb(11,86,157)"/>
<circle cx="288" cy="24" r="12" fill="rgb(22,110,226)" opacity="0.35"/>
<circle cx="288" cy="24" r="9" fill="rgb(22,110,226)"/>
<circle cx="312" cy="24" r="12" fill="rgb(36,103,251)" opacity="0.35"/>
<circle cx="312" cy="24" r="9" fill="rgb(36,103,251)"/>
<circle cx="336" cy="24" r="12" fill="rgb(31,50,161)" opacity="0.35"/>
<circle cx="336" cy="24" r="9" fill="rgb(31,50,161)"/>
<circle cx="360" cy="24" r="12" fill="rgb(8,5,21)" opacity="0.35"/>
<circle cx="360" cy="24" r="9" fill="rgb(8,5,21)"/>
<circle cx="384" cy="24" r="12" fill="rgb(24,5,39)" opacity="0.35"/>
<circle cx="384" cy="24" r="9" fill="rgb(24,5,39)"/>
<circle cx="24" cy="48" r="12" fill="rgb(24,5,39)" opacity="0.35"/>
<circle cx="24" cy="48" r="9" fill="rgb(24,5,39)"/>
<circle cx="48" cy="48" r="12" fill="rgb(14,9,39)" opacity="0.35"/>
<circle cx="48" cy="48" r="9" fill="rgb(14,9,39)"/>
<circle cx="72" cy="48" r="12" fill="rgb(36,76,213)" opacity="0.35"/>
<circle cx="72" cy="48" r="9" fill="rgb(36,76,213)"/>
<circle cx="96" cy="48" r="12" fill="rgb(25,112,235)" opacity="0.35"/>
<circle cx="96" cy="48" r="9" fill="rgb(25,112,235)"/>
<circle cx="120" cy="48" r="12" fill="rgb(5,61,105)" opacity="0.35"/>
<circle cx="120" cy="48" r="9" fill="rgb(5,61,105)"/>
<circle cx="144" cy="48" r="9" fill="#14171c"/>
<circle cx="168" cy="48" r="9" fill="#14171c"/>
<circle cx="192" cy="48" r="12" fill="rgb(0,28,33)" opacity="0.35"/>
<circle cx="192" cy="48" r="9" fill="rgb(0,28,33)"/>
<circle cx="216" cy="48" r="12" fill="rgb(0,40,45)" opacity="0.35"/>
<circle cx="216" cy="48" r="9" fill="rgb(0,40,45)"/>
<circle cx="240" cy="48" r="12" fill="rgb(0,28,33)" opacity="0.35"/>
<circle cx="240" cy="48" r="9" fill="rgb(0,28,33)"/>
<circle cx="264" cy="48" r="9" fill="#14171c"/>
<circle cx="288" cy="48" r="9" fill="#14171c"/>
<circle cx="312" cy="48" r="12" fill="rgb(5,61,105)" opacity="0.35"/>
<circle cx="312" cy="48" r="9" fill="rgb(5,61,105)"/>
<circle cx="336" cy="48" r="12" fill="rgb(25,112,235)" opacity="0.35"/>
<circle cx="336" cy="48" r="9" fill="rgb(25,112,235)"/>
<circle cx="360" cy="48" r="12" fill="rgb(36,76,213)" opacity="0.35"/>
<circle cx="360" cy="48" r="9" fill="rgb(36,76,213)"/>
<circle cx="384" cy="48" r="12" fill="rgb(14,9,39)" opacity="0.35"/>
<circle cx="384" cy="48" r="9" fill="rgb(14,9,39)"/>
<circle cx="24" cy="72" r="12" fill="rgb(8,5,21)" opacity="0.35"/>
<circle cx="24" cy="72" r="9" fill="rgb(8,5,21)"/>
<circle cx="48" cy="72" r="12" fill="rgb(36,76,213)" opacity="0.35"/>
<circle cx="48" cy="72" r="9" fill="rgb(36,76,213)"/>
<circle cx="72" cy="72" r="12" fill="rgb(20,108,215)" opacity="0.35"/>
<circle cx="72" cy="72" r="9" fill="rgb(20,108,215)"/>
<circle cx="96" cy="72" r="12" fill="rgb(1,27,42)" opacity="0.35"/>
<circle cx="96" cy="72" r="9" fill="rgb(1,27,42)"/>
<circle cx="120" cy="72" r="9" fill="#14171c"/>
<circle cx="144" cy="72" r="12" fill="rgb(0,98,93)" opacity="0.35"/>
<circle cx="144" cy="72" r="9" fill="rgb(0,98,93)"/>
<circle cx="168" cy="72" r="12" fill="rgb(0,171,128)" opacity="0.35"/>
<circle cx="168" cy="72" r="9" fill="rgb(0,171,128)"/>
<circle cx="192" cy="72" r="12" fill="rgb(0,194,121)" opacity="0.35"/>
<circle cx="192" cy="72" r="9" fill="rgb(0,194,121)"/>
<circle cx="216" cy="72" r="12" fill="rgb(0,196,114)" opacity="0.35"/>
<circle cx="216" cy="72" r="9" fill="rgb(0,196,114)"/>
<circle cx="240" cy="72" r="12" fill="rgb(0,194,121)" opacity="0.35"/>
<circle cx="240" cy="72" r="9" fill="rgb(0,194,121)"/>
<circle cx="264" cy="72" r="12" fill="rgb(0,171,128)" opacity="0.35"/>
<circle cx="264" cy="72" r="9" fill="rgb(0,171,128)"/>
<circle cx="288" cy="72" r="12" fill="rgb(0,98,93)" opacity="0.35"/>
<circle cx="288" cy="72" r="9" fill="rgb(0,98,93)"/>
<circle cx="312" cy="72" r="9" fill="#14171c"/>
<circle cx="336" cy="72" r="12" fill="rgb(1,27,42)" opacity="0.35"/>
<circle cx="336" cy="72" r="9" fill="rgb(1,27,42)"/>
<circle cx="360" cy="72" r="12" fill="rgb(20,108,215)" opacity="0.35"/>
<circle cx="360" cy="72" r="9" fill="rgb(20,108,215)"/>
<circle cx="384" cy="72" r="12" fill="rgb(36,76,213)" opacity="0.35"/>
<circle cx="384" cy="72" r="9" fill="rgb(36,76,213)"/>
<circle cx="24" cy="96" r="12" fill="rgb(31,50,161)" opacity="0.35"/>
<circle cx="24" cy="96" r="9" fill="rgb(31,50,161)"/>
<circle cx="48" cy="96" r="12" fill="rgb(25,112,235)" opacity="0.35"/>
<circle cx="48" cy="96" r="9" fill="rgb(25,112,235)"/>
<circle cx="72" cy="96" r="12" fill="rgb(1,27,42)" opacity="0.35"/>
<circle cx="72" cy="96" r="9" fill="rgb(1,27,42)"/>
<circle cx="96" cy="96" r="12" fill="rgb(0,28,33)" opacity="0.35"/>
<circle cx="96" cy="96" r="9" fill="rgb(0,28,33)"/>
<circle cx="120" cy="96" r="12" fill="rgb(0,159,125)" opacity="0.35"/>
<circle cx="120" cy="96" r="9" fill="rgb(0,159,125)"/>
<circle cx="144" cy="96" r="12" fill="rgb(0,189,95)" opacity="0.35"/>
<circle cx="144" cy="96" r="9" fill="rgb(0,189,95)"/>
<circle cx="168" cy="96" r="12" fill="rgb(21,117,41)" opacity="0.35"/>
<circle cx="168" cy="96" r="9" fill="rgb(21,117,41)"/>
<circle cx="192" cy="96" r="12" fill="rgb(20,55,16)" opacity="0.35"/>
<circle cx="192" cy="96" r="9" fill="rgb(20,55,16)"/>
<circle cx="216" cy="96" r="12" fill="rgb(16,37,10)" opacity="0.35"/>
<circle cx="216" cy="96" r="9" fill="rgb(16,37,10)"/>
<circle cx="240" cy="96" r="12" fill="rgb(20,55,16)" opacity="0.35"/>
<circle cx="240" cy="96" r="9" fill="rgb(20,55,16)"/>
<circle cx="264" cy="96" r="12" fill="rgb(21,117,41)" opacity="0.35"/>
<circle cx="264" cy="96" r="9" fill="rgb(21,117,41)"/>
<circle cx="288" cy="96" r="12" fill="rgb(0,189,95)" opacity="0.35"/>
<circle cx="288" cy="96" r="9" fill="rgb(0,189,95)"/>
<circle cx="312" cy="96" r="12" fill="rgb(0,159,125)" opacity="0.35"/>
<circle cx="312" cy="96" r="9" fill="rgb(0,159,125)"/>
<circle cx="336" cy="96" r="12" fill="rgb(0,28,33)" opacity="0.35"/>
<circle cx="336" cy="96" r="9" fill="rgb(0,28,33)"/>
<circle cx="360" cy="96" r="12" fill="rgb(1,27,42)" opacity="0.35"/>
<circle cx="360" cy="96" r="9" fill="rgb(1,27,42)"/>
<circle cx="384" cy="96" r="12" fill="rgb(25,112,235)" opacity="0.35"/>
<circle cx="384" cy="96" r="9" fill="rgb(25,112,235)"/>
<circle cx="24" cy="120" r="12" fill="rgb(36,103,251)" opacity="0.35"/>
<circle cx="24" cy="120" r="9" fill="rgb(36,103,251)"/>
<circle cx="48" cy="120" r="12" fill="rgb(5,61,105)" opacity="0.35"/>
<circle cx="48" cy="120" r="9" fill="rgb(5,61,105)"/>
<circle cx="72" cy="120" r="9" fill="#14171c"/>
<circle cx="96" cy="120" r="12" fill="rgb(0,159,125)" opacity="0.35"/>
<circle cx="96" cy="120" r="9" fill="rgb(0,159,125)"/>
<circle cx="120" cy="120" r="12" fill="rgb(0,169,70)" opacity="0.35"/>
<circle cx="120" cy="120" r="9" fill="rgb(0,169,70)"/>
<circle cx="144" cy="120" r="12" fill="rgb(16,37,10)" opacity="0.35"/>
<circle cx="144" cy="120" r="9" fill="rgb(16,37,10)"/>
<circle cx="168" cy="120" r="9" fill="#14171c"/>
<circle cx="192" cy="120" r="12" fill="rgb(54,55,4)" opacity="0.35"/>
<circle cx="192" cy="120" r="9" fill="rgb(54,55,4)"/>
<circle cx="216" cy="120" r="12" fill="rgb(87,82,4)" opacity="0.35"/>
<circle cx="216" cy="120" r="9" fill="rgb(87,82,4)"/>
<circle cx="240" cy="120" r="12" fill="rgb(54,55,4)" opacity="0.35"/>
<circle cx="240" cy="120" r="9" fill="rgb(54,55,4)"/>
<circle cx="264" cy="120" r="9" fill="#14171c"/>
<circle cx="288" cy="120" r="12" fill="rgb(16,37,10)" opacity="0.35"/>
<circle cx="288" cy="120" r="9" fill="rgb(16,37,10)"/>
<circle cx="312" cy="120" r="12" fill="rgb(0,169,70)" opacity="0.35"/>
<circle cx="312" cy="120" r="9" fill="rgb(0,169,70)"/>
<circle cx="336" cy="120" r="12" fill="rgb(0,159,125)" opacity="0.35"/>
<circle cx="336" cy="120" r="9" fill="rgb(0,159,125)"/>
<circle cx="360" cy="120" r="9" fill="#14171c"/>
<circle cx="384" cy="120" r="12" fill="rgb(5,61,105)" opacity="0.35"/>
<circle cx="384" cy="120" r="9" fill="rgb(5,61,105)"/>
<circle cx="24" cy="144" r="12" fill="rgb(22,110,226)" opacity="0.35"/>
<circle cx="24" cy="144" r="9" fill="rgb(22,110,226)"/>
<circle cx="48" cy="144" r="9" fill="#14171c"/>
<circle cx="72" cy="144" r="12" fill="rgb(0,98,93)" opacity="0.35"/>
<circle cx="72" cy="144" r="9" fill="rgb(0,98,93)"/>
<circle cx="96" cy="144" r="12" fill="rgb(0,189,95)" opacity="0.35"/>
<circle cx="96" cy="144" r="9" fill="rgb(0,189,95)"/>
<circle cx="120" cy="144" r="12" fill="rgb(16,37,10)" opacity="0.35"/>
<circle cx="120" cy="144" r="9" fill="rgb(16,37,10)"/>
<circle cx="144" cy="144" r="12" fill="rgb(30,33,3)" opacity="0.35"/>
<circle cx="144" cy="144" r="9" fill="rgb(30,33,3)"/>
<circle cx="168" cy="144" r="12" fill="rgb(205,165,0)" opacity="0.35"/>
<circle cx="168" cy="144" r="9" fill="rgb(205,165,0)"/>
<circle cx="192" cy="144" r="12" fill="rgb(255,184,0)" opacity="0.35"/>
<circle cx="192" cy="144" r="9" fill="rgb(255,184,0)"/>
<circle cx="216" cy="144" r="12" fill="rgb(243,168,0)" opacity="0.35"/>
<circle cx="216" cy="144" r="9" fill="rgb(243,168,0)"/>
<circle cx="240" cy="144" r="12" fill="rgb(255,184,0)" opacity="0.35"/>
<circle cx="240" cy="144" r="9" fill="rgb(255,184,0)"/>
<circle cx="264" cy="144" r="12" fill="rgb(205,165,0)" opacity="0.35"/>
<circle cx="264" cy="144" r="9" fill="rgb(205,165,0)"/>
<circle cx="288" cy="144" r="12" fill="rgb(30,33,3)" opacity="0.35"/>
<circle cx="288" cy="144" r="9" fill="rgb(30,33,3)"/>
<circle cx="312" cy="144" r="12" fill="rgb(16,37,10)" opacity="0.35"/>
<circle cx="312" cy="144" r="9" fill="rgb(16,37,10)"/>
<circle cx="336" cy="144" r="12" fill="rgb(0,189,95)" opacity="0.35"/>
<circle cx="336" cy="144" r="9" fill="rgb(0,189,95)"/>
<circle cx="360" cy="144" r="12" fill="rgb(0,98,93)" opacity="0.35"/>
<circle cx="360" cy="144" r="9" fill="rgb(0,98,93)"/>
<circle cx="384" cy="144" r="9" fill="#14171c"/>
<circle cx="24" cy="168" r="12" fill="rgb(11,86,157)" opacity="0.35"/>
<circle cx="24" cy="168" r="9" fill="rgb(11,86,157)"/>
<circle cx="48" cy="168" r="9" fill="#14171c"/>
<circle cx="72" cy="168" r="12" fill="rgb(0,171,128)" opacity="0.35"/>
<circle cx="72" cy="168" r="9" fill="rgb(0,171,128)"/>
<circle cx="96" cy="168" r="12" fill="rgb(21,117,41)" opacity="0.35"/>
<circle cx="96" cy="168" r="9" fill="rgb(21,117,41)"/>
<circle cx="120" cy="168" r="9" fill="#14171c"/>
<circle cx="144" cy="168" r="12" fill="rgb(205,165,0)" opacity="0.35"/>
<circle cx="144" cy="168" r="9" fill="rgb(205,165,0)"/>
<circle cx="168" cy="168" r="12" fill="rgb(215,142,0)" opacity="0.35"/>
<circle cx="168" cy="168" r="9" fill="rgb(215,142,0)"/>
<circle cx="192" cy="168" r="12" fill="rgb(60,33,0)" opacity="0.35"/>
<circle cx="192" cy="168" r="9" fill="rgb(60,33,0)"/>
<circle cx="216" cy="168" r="9" fill="#14171c"/>
<circle cx="240" cy="168" r="12" fill="rgb(60,33,0)" opacity="0.35"/>
<circle cx="240" cy="168" r="9" fill="rgb(60,33,0)"/>
<circle cx="264" cy="168" r="12" fill="rgb(215,142,0)" opacity="0.35"/>
<circle cx="264" cy="168" r="9" fill="rgb(215,142,0)"/>
<circle cx="288" cy="168" r="12" fill="rgb(205,165,0)" opacity="0.35"/>
<circle cx="288" cy="168" r="9" fill="rgb(205,165,0)"/>
<circle cx="312" cy="168" r="9" fill="#14171c"/>
<circle cx="336" cy="168" r="12" fill="rgb(21,117,41)" opacity="0.35"/>
<circle cx="336" cy="168" r="9" fill="rgb(21,117,41)"/>
<circle cx="360" cy="168" r="12" fill="rgb(0,171,128)" opacity="0.35"/>
<circle cx="360" cy="168" r="9" fill="rgb(0,171,128)"/>
<circle cx="384" cy="168" r="9" fill="#14171c"/>
<circle cx="24" cy="192" r="12" fill="rgb(5,61,105)" opacity="0.35"/>
<circle cx="24" cy="192" r="9" fill="rgb(5,61,105)"/>
<circle cx="48" cy="192" r="12" fill="rgb(0,28,33)" opacity="0.35"/>
<circle cx="48" cy="192" r="9" fill="rgb(0,28,33)"/>
<circle cx="72" cy="192" r="12" fill="rgb(0,194,121)" opacity="0.35"/>
<circle cx="72" cy="192" r="9" fill="rgb(0,194,121)"/>
<circle cx="96" cy="192" r="12" fill="rgb(20,55,16)" opacity="0.35"/>
<circle cx="96" cy="192" r="9" fill="rgb(20,55,16)"/>
<circle cx="120" cy="192" r="12" fill="rgb(54,55,4)" opacity="0.35"/>
<circle cx="120" cy="192" r="9" fill="rgb(54,55,4)"/>
<circle cx="144" cy="192" r="12" fill="rgb(255,184,0)" opacity="0.35"/>
<circle cx="144" cy="192" r="9" fill="rgb(255,184,0)"/>
<circle cx="168" cy="192" r="12" fill="rgb(60,33,0)" opacity="0.35"/>
<circle cx="168" cy="192" r="9" fill="rgb(60,33,0)"/>
<circle cx="192" cy="192" r="12" fill="rgb(40,14,0)" opacity="0.35"/>
<circle cx="192" cy="192" r="9" fill="rgb(40,14,0)"/>
<circle cx="216" cy="192" r="12" fill="rgb(148,38,0)" opacity="0.35"/>
<circle cx="216" cy="192" r="9" fill="rgb(148,38,0)"/>
<circle cx="240" cy="192" r="12" fill="rgb(40,14,0)" opacity="0.35"/>
<circle cx="240" cy="192" r="9" fill="rgb(40,14,0)"/>
<circle cx="264" cy="192" r="12" fill="rgb(60,33,0)" opacity="0.35"/>
<circle cx="264" cy="192" r="9" fill="rgb(60,33,0)"/>
<circle cx="288" cy="192" r="12" fill="rgb(255,184,0)" opacity="0.35"/>
<circle cx="288" cy="192" r="9" fill="rgb(255,184,0)"/>
<circle cx="312" cy="192" r="12" fill="rgb(54,55,4)" opacity="0.35"/>
<circle cx="312" cy="192" r="9" fill="rgb(54,55,4)"/>
<circle cx="336" cy="192" r="12" fill="rgb(20,55,16)" opacity="0.35"/>
<circle cx="336" cy="192" r="9" fill="rgb(20,55,16)"/>
<circle cx="360" cy="192" r="12" fill="rgb(0,194,121)" opacity="0.35"/>
<circle cx="360" cy="192" r="9" fill="rgb(0,194,121)"/>
<circle cx="384" cy="192" r="12" fill="rgb(0,28,33)" opacity="0.35"/>
<circle cx="384" cy="192" r="9" fill="rgb(0,28,33)"/>
<circle cx="24" cy="216" r="12" fill="rgb(4,52,88)" opacity="0.35"/>
<circle cx="24" cy="216" r="9" fill="rgb(4,52,88)"/>
<circle cx="48" cy="216" r="12" fill="rgb(0,40,45)" opacity="0.35"/>
<circle cx="48" cy="216" r="9" fill="rgb(0,40,45)"/>
<circle cx="72" cy="216" r="12" fill="rgb(0,196,114)" opacity="0.35"/>
<circle cx="72" cy="216" r="9" fill="rgb(0,196,114)"/>
<circle cx="96" cy="216" r="12" fill="rgb(16,37,10)" opacity="0.35"/>
<circle cx="96" cy="216" r="9" fill="rgb(16,37,10)"/>
<circle cx="120" cy="216" r="12" fill="rgb(87,82,4)" opacity="0.35"/>
<circle cx="120" cy="216" r="9" fill="rgb(87,82,4)"/>
<circle cx="144" cy="216" r="12" fill="rgb(243,168,0)" opacity="0.35"/>
<circle cx="144" cy="216" r="9" fill="rgb(243,168,0)"/>
<circle cx="168" cy="216" r="9" fill="#14171c"/>
<circle cx="192" cy="216" r="12" fill="rgb(148,38,0)" opacity="0.35"/>
<circle cx="192" cy="216" r="9" fill="rgb(148,38,0)"/>
<circle cx="216" cy="216" r="12" fill="rgb(215,0,0)" opacity="0.35"/>
<circle cx="216" cy="216" r="9" fill="rgb(215,0,0)"/>
<circle cx="240" cy="216" r="12" fill="rgb(148,38,0)" opacity="0.35"/>
<circle cx="240" cy="216" r="9" fill="rgb(148,38,0)"/>
<circle cx="264" cy="216" r="9" fill="#14171c"/>
<circle cx="288" cy="216" r="12" fill="rgb(243,168,0)" opacity="0.35"/>
<circle cx="288" cy="216" r="9" fill="rgb(243,168,0)"/>
<circle cx="312" cy="216" r="12" fill="rgb(87,82,4)" opacity="0.35"/>
<circle cx="312" cy="216" r="9" fill="rgb(87,82,4)"/>
<circle cx="336" cy="216" r="12" fill="rgb(16,37,10)" opacity="0.35"/>
<circle cx="336" cy="216" r="9" fill="rgb(16,37,10)"/>
<circle cx="360" cy="216" r="12" fill="rgb(0,196,114)" opacity="0.35"/>
<circle cx="360" cy="216" r="9" fill="rgb(0,196,114)"/>
<circle cx="384" cy="216" r="12" fill="rgb(0,40,45)" opacity="0.35"/>
<circle cx="384" cy="216" r="9" fill="rgb(0,40,45)"/>
<circle cx="24" cy="240" r="12" fill="rgb(5,61,105)" opacity="0.35"/>
<circle cx="24" cy="240" r="9" fill="rgb(5,61,105)"/>
<circle cx="48" cy="240" r="12" fill="rgb(0,28,33)" opacity="0.35"/>
<circle cx="48" cy="240" r="9" fill="rgb(0,28,33)"/>
<circle cx="72" cy="240" r="12" fill="rgb(0,194,121)" opacity="0.35"/>
<circle cx="72" cy="240" r="9" fill="rgb(0,194,121)"/>
<circle cx="96" cy="240" r="12" fill="rgb(20,55,16)" opacity="0.35"/>
<circle cx="96" cy="240" r="9" fill="rgb(20,55,16)"/>
<circle cx="120" cy="240" r="12" fill="rgb(54,55,4)" opacity="0.35"/>
<circle cx="120" cy="240" r="9" fill="rgb(54,55,4)"/>
<circle cx="144" cy="240" r="12" fill="rgb(255,184,0)" opacity="0.35"/>
<circle cx="144" cy="240" r="9" fill="rgb(255,184,0)"/>
<circle cx="168" cy="240" r="12" fill="rgb(60,33,0)" opacity="0.35"/>
<circle cx="168" cy="240" r="9" fill="rgb(60,33,0)"/>
<circle cx="192" cy="240" r="12" fill="rgb(40,14,0)" opacity="0.35"/>
<circle cx="192" cy="240" r="9" fill="rgb(40,14,0)"/>
<circle cx="216" cy="240" r="12" fill="rgb(148,38,0)" opacity="0.35"/>
<circle cx="216" cy="240" r="9" fill="rgb(148,38,0)"/>
<circle cx="240" cy="240" r="12" fill="rgb(40,14,0)" opacity="0.35"/>
<circle cx="240" cy="240" r="9" fill="rgb(40,14,0)"/>
<circle cx="264" cy="240" r="12" fill="rgb(60,33,0)" opacity="0.35"/>
<circle cx="264" cy="240" r="9" fill="rgb(60,33,0)"/>
<circle cx="288" cy="240" r="12" fill="rgb(255,184,0)" opacity="0.35"/>
<circle cx="288" cy="240" r="9" fill="rgb(255,184,0)"/>
<circle cx="312" cy="240" r="12" fill="rgb(54,55,4)" opacity="0.35"/>
<circle cx="312" cy="240" r="9" fill="rgb(54,55,4)"/>
<circle cx="336" cy="240" r="12" fill="rgb(20,55,16)" opacity="0.35"/>
<circle cx="336" cy="240" r="9" fill="rgb(20,55,16)"/>
<circle cx="360" cy="240" r="12" fill="rgb(0,194,121)" opacity="0.35"/>
<circle cx="360" cy="240" r="9" fill="rgb(0,194,121)"/>
<circle cx="384" cy="240" r="12" fill="rgb(0,28,33)" opacity="0.35"/>
<circle cx="384" cy="240" r="9" fill="rgb(0,28,33)"/>
<circle cx="24" cy="264" r="12" fill="rgb(11,86,157)" opacity="0.35"/>
<circle cx="24" cy="264" r="9" fill="rgb(11,86,157)"/>
<circle cx="48" cy="264" r="9" fill="#14171c"/>
<circle cx="72" cy="264" r="12" fill="rgb(0,171,128)" opacity="0.35"/>
<circle cx="72" cy="264" r="9" fill="rgb(0,171,128)"/>
<circle cx="96" cy="264" r="12" fill="rgb(21,117,41)" opacity="0.35"/>
<circle cx="96" cy="264" r="9" fill="rgb(21,117,41)"/>
<circle cx="120" cy="264" r="9" fill="#14171c"/>
<circle cx="144" cy="264" r="12" fill="rgb(205,165,0)" opacity="0.35"/>
<circle cx="144" cy="264" r="9" fill="rgb(205,165,0)"/>
<circle cx="168" cy="264" r="12" fill="rgb(215,142,0)" opacity="0.35"/>
<circle cx="168" cy="264" r="9" fill="rgb(215,142,0)"/>
<circle cx="192" cy="264" r="12" fill="rgb(60,33,0)" opacity="0.35"/>
<circle cx="192" cy="264" r="9" fill="rgb(60,33,0)"/>
<circle cx="216" cy="264" r="9" fill="#14171c"/>
<circle cx="240" cy="264" r="12" fill="rgb(60,33,0)" opacity="0.35"/>
<circle cx="240" cy="264" r="9" fill="rgb(60,33,0)"/>
<circle cx="264" cy="264" r="12" fill="rgb(215,142,0)" opacity="0.35"/>
<circle cx="264" cy="264" r="9" fill="rgb(215,142,0)"/>
<circle cx="288" cy="264" r="12" fill="rgb(205,165,0)" opacity="0.35"/>
<circle cx="288" cy="264" r="9" fill="rgb(205,165,0)"/>
<circle cx="312" cy="264" r="9" fill="#14171c"/>
<circle cx="336" cy="264" r="12" fill="rgb(21,117,41)" opacity="0.35"/>
<circle cx="336" cy="264" r="9" fill="rgb(21,117,41)"/>
<circle cx="360" cy="264" r="12" fill="rgb(0,171,128)" opacity="0.35"/>
<circle cx="360" cy="264" r="9" fill="rgb(0,171,128)"/>
<circle cx="384" cy="264" r="9" fill="#14171c"/>
<circle cx="24" cy="288" r="12" fill="rgb(22,110,226)" opacity="0.35"/>
<circle cx="24" cy="288" r="9" fill="rgb(22,110,226)"/>
<circle cx="48" cy="288" r="9" fill="#14171c"/>
<circle cx="72" cy="288" r="12" fill="rgb(0,98,93)" opacity="0.35"/>
<circle cx="72" cy="288" r="9" fill="rgb(0,98,93)"/>
<circle cx="96" cy="288" r="12" fill="rgb(0,189,95)" opacity="0.35"/>
<circle cx="96" cy="288" r="9" fill="rgb(0,189,95)"/>
<circle cx="120" cy="288" r="12" fill="rgb(16,37,10)" opacity="0.35"/>
<circle cx="120" cy="288" r="9" fill="rgb(16,37,10)"/>
<circle cx="144" cy="288" r="12" fill="rgb(30,33,3)" opacity="0.35"/>
<circle cx="144" cy="288" r="9" fill="rgb(30,33,3)"/>
<circle cx="168" cy="288" r="12" fill="rgb(205,165,0)" opacity="0.35"/>
<circle cx="168" cy="288" r="9" fill="rgb(205,165,0)"/>
<circle cx="192" cy="288" r="12" fill="rgb(255,184,0)" opacity="0.35"/>
<circle cx="192" cy="288" r="9" fill="rgb(255,184,0)"/>
<circle cx="216" cy="288" r="12" fill="rgb(243,168,0)" opacity="0.35"/>
<circle cx="216" cy="288" r="9" fill="rgb(243,168,0)"/>
<circle cx="240" cy="288" r="12" fill="rgb(255,184,0)" opacity="0.35"/>
<circle cx="240" cy="288" r="9" fill="rgb(255,184,0)"/>
<circle cx="264" cy="288" r="12" fill="rgb(205,165,0)" opacity="0.35"/>
<circle cx="264" cy="288" r="9" fill="rgb(205,165,0)"/>
<circle cx="288" cy="288" r="12" fill="rgb(30,33,3)" opacity="0.35"/>
<circle cx="288" cy="288" r="9" fill="rgb(30,33,3)"/>
<circle cx="312" cy="288" r="12" fill="rgb(16,37,10)" opacity="0.35"/>
<circle cx="312" cy="288" r="9" fill="rgb(16,37,10)"/>
<circle cx="336" cy="288" r="12" fill="rgb(0,189,95)" opacity="0.35"/>
<circle cx="336" cy="288" r="9" fill="rgb(0,189,95)"/>
<circle cx="360" cy="288" r="12" fill="rgb(0,98,93)" opacity="0.35"/>
<circle cx="360" cy="288" r="9" fill="rgb(0,98,93)"/>
<circle cx="384" cy="288" r="9" fill="#14171c"/>
<circle cx="24" cy="312" r="12" fill="rgb(36,103,251)" opacity="0.35"/>
<circle cx="24" cy="312" r="9" fill="rgb(36,103,251)"/>
<circle cx="48" cy="312" r="12" fill="rgb(5,61,105)" opacity="0.35"/>
<circle cx="48" cy="312" r="9" fill="rgb(5,61,105)"/>
<circle cx="72" cy="312" r="9" fill="#14171c"/>
<circle cx="96" cy="312" r="12" fill="rgb(0,159,125)" opacity="0.35"/>
<circle cx="96" cy="312" r="9" fill="rgb(0,159,125)"/>
<circle cx="120" cy="312" r="12" fill="rgb(0,169,70)" opacity="0.35"/>
<circle cx="120" cy="312" r="9" fill="rgb(0,169,70)"/>
<circle cx="144" cy="312" r="12" fill="rgb(16,37,10)" opacity="0.35"/>
<circle cx="144" cy="312" r="9" fill="rgb(16,37,10)"/>
<circle cx="168" cy="312" r="9" fill="#14171c"/>
<circle cx="192" cy="312" r="12" fill="rgb(54,55,4)" opacity="0.35"/>
<circle cx="192" cy="312" r="9" fill="rgb(54,55,4)"/>
<circle cx="216" cy="312" r="12" fill="rgb(87,82,4)" opacity="0.35"/>
<circle cx="216" cy="312" r="9" fill="rgb(87,82,4)"/>
<circle cx="240" cy="312" r="12" fill="rgb(54,55,4)" opacity="0.35"/>
<circle cx="240" cy="312" r="9" fill="rgb(54,55,4)"/>
<circle cx="264" cy="312" r="9" fill="#14171c"/>
<circle cx="288" cy="312" r="12" fill="rgb(16,37,10)" opacity="0.35"/>
<circle cx="288" cy="312" r="9" fill="rgb(16,37,10)"/>
<circle cx="312" cy="312" r="12" fill="rgb(0,169,70)" opacity="0.35"/>
<circle cx="312" cy="312" r="9" fill="rgb(0,169,70)"/>
<circle cx="336" cy="312" r="12" fill="rgb(0,159,125)" opacity="0.35"/>
<circle cx="336" cy="312" r="9" fill="rgb(0,159,125)"/>
<circle cx="360" cy="312" r="9" fill="#14171c"/>
<circle cx="384" cy="312" r="12" fill="rgb(5,61,105)" opacity="0.35"/>
<circle cx="384" cy="312" r="9" fill="rgb(5,61,105)"/>
<circle cx="24" cy="336" r="12" fill="rgb(31,50,161)" opacity="0.35"/>
<circle cx="24" cy="336" r="9" fill="rgb(31,50,161)"/>
<circle cx="48" cy="336" r="12" fill="rgb(25,112,235)" opacity="0.35"/>
<circle cx="48" cy="336" r="9" fill="rgb(25,112,235)"/>
<circle cx="72" cy="336" r="12" fill="rgb(1,27,42)" opacity="0.35"/>
<circle cx="72" cy="336" r="9" fill="rgb(1,27,42)"/>
<circle cx="96" cy="336" r="12" fill="rgb(0,28,33)" opacity="0.35"/>
<circle cx="96" cy="336" r="9" fill="rgb(0,28,33)"/>
<circle cx="120" cy="336" r="12" fill="rgb(0,159,125)" opacity="0.35"/>
<circle cx="120" cy="336" r="9" fill="rgb(0,159,125)"/>
<circle cx="144" cy="336" r="12" fill="rgb(0,189,95)" opacity="0.35"/>
<circle cx="144" cy="336" r="9" fill="rgb(0,189,95)"/>
<circle cx="168" cy="336" r="12" fill="rgb(21,117,41)" opacity="0.35"/>
<circle cx="168" cy="336" r="9" fill="rgb(21,117,41)"/>
<circle cx="192" cy="336" r="12" fill="rgb(20,55,16)" opacity="0.35"/>
<circle cx="192" cy="336" r="9" fill="rgb(20,55,16)"/>
<circle cx="216" cy="336" r="12" fill="rgb(16,37,10)" opacity="0.35"/>
<circle cx="216" cy="336" r="9" fill="rgb(16,37,10)"/>
<circle cx="240" cy="336" r="12" fill="rgb(20,55,16)" opacity="0.35"/>
<circle cx="240" cy="336" r="9" fill="rgb(20,55,16)"/>
<circle cx="264" cy="336" r="12" fill="rgb(21,117,41)" opacity="0.35"/>
<circle cx="264" cy="336" r="9" fill="rgb(21,117,41)"/>
<circle cx="288" cy="336" r="12" fill="rgb(0,189,95)" opacity="0.35"/>
<circle cx="288" cy="336" r="9" fill="rgb(0,189,95)"/>
<circle cx="312" cy="336" r="12" fill="rgb(0,159,125)" opacity="0.35"/>
<circle cx="312" cy="336" r="9" fill="rgb(0,159,125)"/>
<circle cx="336" cy="336" r="12" fill="rgb(0,28,33)" opacity="0.35"/>
<circle cx="336" cy="336" r="9" fill="rgb(0,28,33)"/>
<circle cx="360" cy="336" r="12" fill="rgb(1,27,42)" opacity="0.35"/>
<circle cx="360" cy="336" r="9" fill="rgb(1,27,42)"/>
<circle cx="384" cy="336" r="12" fill="rgb(25,112,235)" opacity="0.35"/>
<circle cx="384" cy="336" r="9" fill="rgb(25,112,235)"/>
<circle cx="24" cy="360" r="12" fill="rgb(8,5,21)" opacity="0.35"/>
<circle cx="24" cy="360" r="9" fill="rgb(8,5,21)"/>
<circle cx="48" cy="360" r="12" fill="rgb(36,76,213)" opacity="0.35"/>
<circle cx="48" cy="360" r="9" fill="rgb(36,76,213)"/>
<circle cx="72" cy="360" r="12" fill="rgb(20,108,215)" opacity="0.35"/>
<circle cx="72" cy="360" r="9" fill="rgb(20,108,215)"/>
<circle cx="96" cy="360" r="12" fill="rgb(1,27,42)" opacity="0.35"/>
<circle cx="96" cy="360" r="9" fill="rgb(1,27,42)"/>
<circle cx="120" cy="360" r="9" fill="#14171c"/>
<circle cx="144" cy="360" r="12" fill="rgb(0,98,93)" opacity="0.35"/>
<circle cx="144" cy="360" r="9" fill="rgb(0,98,93)"/>
<circle cx="168" cy="360" r="12" fill="rgb(0,171,128)" opacity="0.35"/>
<circle cx="168" cy="360" r="9" fill="rgb(0,171,128)"/>
<circle cx="192" cy="360" r="12" fill="rgb(0,194,121)" opacity="0.35"/>
<circle cx="192" cy="360" r="9" fill="rgb(0,194,121)"/>
<circle cx="216" cy="360" r="12" fill="rgb(0,196,114)" opacity="0.35"/>
<circle cx="216" cy="360" r="9" fill="rgb(0,196,114)"/>
<circle cx="240" cy="360" r="12" fill="rgb(0,194,121)" opacity="0.35"/>
<circle cx="240" cy="360" r="9" fill="rgb(0,194,121)"/>
<circle cx="264" cy="360" r="12" fill="rgb(0,171,128)" opacity="0.35"/>
<circle cx="264" cy="360" r="9" fill="rgb(0,171,128)"/>
<circle cx="288" cy="360" r="12" fill="rgb(0,98,93)" opacity="0.35"/>
<circle cx="288" cy="360" r="9" fill="rgb(0,98,93)"/>
<circle cx="312" cy="360" r="9" fill="#14171c"/>
<circle cx="336" cy="360" r="12" fill="rgb(1,27,42)" opacity="0.35"/>
<circle cx="336" cy="360" r="9" fill="rgb(1,27,42)"/>
<circle cx="360" cy="360" r="12" fill="rgb(20,108,215)" opacity="0.35"/>
<circle cx="360" cy="360" r="9" fill="rgb(20,108,215)"/>
<circle cx="384" cy="360" r="12" fill="rgb(36,76,213)" opacity="0.35"/>
<circle cx="384" cy="360" r="9" fill="rgb(36,76,213)"/>
<circle cx="24" cy="384" r="12" fill="rgb(24,5,39)" opacity="0.35"/>
<circle cx="24" cy="384" r="9" fill="rgb(24,5,39)"/>
<circle cx="48" cy="384" r="12" fill="rgb(14,9,39)" opacity="0.35"/>
<circle cx="48" cy="384" r="9" fill="rgb(14,9,39)"/>
<circle cx="72" cy="384" r="12" fill="rgb(36,76,213)" opacity="0.35"/>
<circle cx="72" cy="384" r="9" fill="rgb(36,76,213)"/>
<circle cx="96" cy="384" r="12" fill="rgb(25,112,235)" opacity="0.35"/>
<circle cx="96" cy="384" r="9" fill="rgb(25,112,235)"/>
<circle cx="120" cy="384" r="12" fill="rgb(5,61,105)" opacity="0.35"/>
<circle cx="120" cy="384" r="9" fill="rgb(5,61,105)"/>
<circle cx="144" cy="384" r="9" fill="#14171c"/>
<circle cx="168" cy="384" r="9" fill="#14171c"/>
<circle cx="192" cy="384" r="12" fill="rgb(0,28,33)" opacity="0.35"/>
<circle cx="192" cy="384" r="9" fill="rgb(0,28,33)"/>
<circle cx="216" cy="384" r="12" fill="rgb(0,40,45)" opacity="0.35"/>
<circle cx="216" cy="384" r="9" fill="rgb(0,40,45)"/>
<circle cx="240" cy="384" r="12" fill="rgb(0,28,33)" opacity="0.35"/>
<circle cx="240" cy="384" r="9" fill="rgb(0,28,33)"/>
<circle cx="264" cy="384" r="9" fill="#14171c"/>
<circle cx="288" cy="384" r="9" fill="#14171c"/>
<circle cx="312" cy="384" r="12" fill="rgb(5,61,105)" opacity="0.35"/>
<circle cx="312" cy="384" r="9" fill="rgb(5,61,105)"/>
<circle cx="336" cy="384" r="12" fill="rgb(25,112,235)" opacity="0.35"/>
<circle cx="336" cy="384" r="9" fill="rgb(25,112,235)"/>
<circle cx="360" cy="384" r="12" fill="rgb(36,76,213)" opacity="0.35"/>
<circle cx="360" cy="384" r="9" fill="rgb(36,76,213)"/>
<circle cx="384" cy="384" r="12" fill="rgb(14,9,39)" opacity="0.35"/>
<circle cx="384" cy="384" r="9" fill="rgb(14,9,39)"/>
</svg>
