<svg xmlns="http://www.w3.org/2000/svg" viewBox="0 0 408 408" width="408" height="408" role="img" aria-label="LED preview of the Rain Ripples example graph">
<rect width="408" height="408" rx="10" fill="#05070a"/>
<circle cx="24" cy="24" r="9" fill="#14171c"/>
<circle cx="48" cy="24" r="9" fill="#14171c"/>
<circle cx="72" cy="24" r="9" fill="#14171c"/>
<circle cx="96" cy="24" r="12" fill="rgb(27,4,0)" opacity="0.35"/>
<circle cx="96" cy="24" r="9" fill="rgb(27,4,0)"/>
<circle cx="120" cy="24" r="12" fill="rgb(60,21,0)" opacity="0.35"/>
<circle cx="120" cy="24" r="9" fill="rgb(60,21,0)"/>
<circle cx="144" cy="24" r="12" fill="rgb(91,46,0)" opacity="0.35"/>
<circle cx="144" cy="24" r="9" fill="rgb(91,46,0)"/>
<circle cx="168" cy="24" r="12" fill="rgb(92,46,0)" opacity="0.35"/>
<circle cx="168" cy="24" r="9" fill="rgb(92,46,0)"/>
<circle cx="192" cy="24" r="12" fill="rgb(81,37,0)" opacity="0.35"/>
<circle cx="192" cy="24" r="9" fill="rgb(81,37,0)"/>
<circle cx="216" cy="24" r="12" fill="rgb(82,38,0)" opacity="0.35"/>
<circle cx="216" cy="24" r="9" fill="rgb(82,38,0)"/>
<circle cx="240" cy="24" r="12" fill="rgb(81,37,0)" opacity="0.35"/>
<circle cx="240" cy="24" r="9" fill="rgb(81,37,0)"/>
<circle cx="264" cy="24" r="12" fill="rgb(96,50,0)" opacity="0.35"/>
<circle cx="264" cy="24" r="9" fill="rgb(96,50,0)"/>
<circle cx="288" cy="24" r="12" fill="rgb(102,57,0)" opacity="0.35"/>
<circle cx="288" cy="24" r="9" fill="rgb(102,57,0)"/>
<circle cx="312" cy="24" r="12" fill="rgb(104,58,0)" opacity="0.35"/>
<circle cx="312" cy="24" r="9" fill="rgb(104,58,0)"/>
<circle cx="336" cy="24" r="12" fill="rgb(101,56,0)" opacity="0.35"/>
<circle cx="336" cy="24" r="9" fill="rgb(101,56,0)"/>
<circle cx="360" cy="24" r="12" fill="rgb(93,48,0)" opacity="0.35"/>
<circle cx="360" cy="24" r="9" fill="rgb(93,48,0)"/>
<circle cx="384" cy="24" r="12" fill="rgb(75,32,0)" opacity="0.35"/>
<circle cx="384" cy="24" r="9" fill="rgb(75,32,0)"/>
<circle cx="24" cy="48" r="9" fill="#14171c"/>
<circle cx="48" cy="48" r="9" fill="#14171c"/>
<circle cx="72" cy="48" r="9" fill="#14171c"/>
<circle cx="96" cy="48" r="12" fill="rgb(20,2,0)" opacity="0.35"/>
<circle cx="96" cy="48" r="9" fill="rgb(20,2,0)"/>
<circle cx="120" cy="48" r="12" fill="rgb(53,16,0)" opacity="0.35"/>
<circle cx="120" cy="48" r="9" fill="rgb(53,16,0)"/>
<circle cx="144" cy="48" r="12" fill="rgb(88,43,0)" opacity="0.35"/>
<circle cx="144" cy="48" r="9" fill="rgb(88,43,0)"/>
<circle cx="168" cy="48" r="12" fill="rgb(110,64,0)" opacity="0.35"/>
<circle cx="168" cy="48" r="9" fill="rgb(110,64,0)"/>
<circle cx="192" cy="48" r="12" fill="rgb(126,83,0)" opacity="0.35"/>
<circle cx="192" cy="48" r="9" fill="rgb(126,83,0)"/>
<circle cx="216" cy="48" r="12" fill="rgb(127,84,0)" opacity="0.35"/>
<circle cx="216" cy="48" r="9" fill="rgb(127,84,0)"/>
<circle cx="240" cy="48" r="12" fill="rgb(113,68,0)" opacity="0.35"/>
<circle cx="240" cy="48" r="9" fill="rgb(113,68,0)"/>
<circle cx="264" cy="48" r="12" fill="rgb(105,59,0)" opacity="0.35"/>
<circle cx="264" cy="48" r="9" fill="rgb(105,59,0)"/>
<circle cx="288" cy="48" r="12" fill="rgb(98,52,0)" opacity="0.35"/>
<circle cx="288" cy="48" r="9" fill="rgb(98,52,0)"/>
<circle cx="312" cy="48" r="12" fill="rgb(96,50,0)" opacity="0.35"/>
<circle cx="312" cy="48" r="9" fill="rgb(96,50,0)"/>
<circle cx="336" cy="48" r="12" fill="rgb(100,54,0)" opacity="0.35"/>
<circle cx="336" cy="48" r="9" fill="rgb(100,54,0)"/>
<circle cx="360" cy="48" r="12" fill="rgb(106,60,0)" opacity="0.35"/>
<circle cx="360" cy="48" r="9" fill="rgb(106,60,0)"/>
<circle cx="384" cy="48" r="12" fill="rgb(102,56,0)" opacity="0.35"/>
<circle cx="384" cy="48" r="9" fill="rgb(102,56,0)"/>
<circle cx="24" cy="72" r="12" fill="rgb(17,2,0)" opacity="0.35"/>
<circle cx="24" cy="72" r="9" fill="rgb(17,2,0)"/>
<circle cx="48" cy="72" r="12" fill="rgb(24,3,0)" opacity="0.35"/>
<circle cx="48" cy="72" r="9" fill="rgb(24,3,0)"/>
<circle cx="72" cy="72" r="12" fill="rgb(28,5,0)" opacity="0.35"/>
<circle cx="72" cy="72" r="9" fill="rgb(28,5,0)"/>
<circle cx="96" cy="72" r="12" fill="rgb(30,5,0)" opacity="0.35"/>
<circle cx="96" cy="72" r="9" fill="rgb(30,5,0)"/>
<circle cx="120" cy="72" r="12" fill="rgb(56,18,0)" opacity="0.35"/>
<circle cx="120" cy="72" r="9" fill="rgb(56,18,0)"/>
<circle cx="144" cy="72" r="12" fill="rgb(105,59,0)" opacity="0.35"/>
<circle cx="144" cy="72" r="9" fill="rgb(105,59,0)"/>
<circle cx="168" cy="72" r="12" fill="rgb(134,91,0)" opacity="0.35"/>
<circle cx="168" cy="72" r="9" fill="rgb(134,91,0)"/>
<circle cx="192" cy="72" r="12" fill="rgb(130,87,0)" opacity="0.35"/>
<circle cx="192" cy="72" r="9" fill="rgb(130,87,0)"/>
<circle cx="216" cy="72" r="12" fill="rgb(129,85,0)" opacity="0.35"/>
<circle cx="216" cy="72" r="9" fill="rgb(129,85,0)"/>
<circle cx="240" cy="72" r="12" fill="rgb(135,92,0)" opacity="0.35"/>
<circle cx="240" cy="72" r="9" fill="rgb(135,92,0)"/>
<circle cx="264" cy="72" r="12" fill="rgb(110,65,0)" opacity="0.35"/>
<circle cx="264" cy="72" r="9" fill="rgb(110,65,0)"/>
<circle cx="288" cy="72" r="12" fill="rgb(62,22,0)" opacity="0.35"/>
<circle cx="288" cy="72" r="9" fill="rgb(62,22,0)"/>
<circle cx="312" cy="72" r="12" fill="rgb(56,18,0)" opacity="0.35"/>
<circle cx="312" cy="72" r="9" fill="rgb(56,18,0)"/>
<circle cx="336" cy="72" r="12" fill="rgb(66,24,0)" opacity="0.35"/>
<circle cx="336" cy="72" r="9" fill="rgb(66,24,0)"/>
<circle cx="360" cy="72" r="12" fill="rgb(86,41,0)" opacity="0.35"/>
<circle cx="360" cy="72" r="9" fill="rgb(86,41,0)"/>
<circle cx="384" cy="72" r="12" fill="rgb(104,58,0)" opacity="0.35"/>
<circle cx="384" cy="72" r="9" fill="rgb(104,58,0)"/>
<circle cx="24" cy="96" r="12" fill="rgb(44,11,0)" opacity="0.35"/>
<circle cx="24" cy="96" r="9" fill="rgb(44,11,0)"/>
<circle cx="48" cy="96" r="12" fill="rgb(55,17,0)" opacity="0.35"/>
<circle cx="48" cy="96" r="9" fill="rgb(55,17,0)"/>
<circle cx="72" cy="96" r="12" fill="rgb(61,21,0)" opacity="0.35"/>
<circle cx="72" cy="96" r="9" fill="rgb(61,21,0)"/>
<circle cx="96" cy="96" r="12" fill="rgb(63,23,0)" opacity="0.35"/>
<circle cx="96" cy="96" r="9" fill="rgb(63,23,0)"/>
<circle cx="120" cy="96" r="12" fill="rgb(80,36,0)" opacity="0.35"/>
<circle cx="120" cy="96" r="9" fill="rgb(80,36,0)"/>
<circle cx="144" cy="96" r="12" fill="rgb(118,73,0)" opacity="0.35"/>
<circle cx="144" cy="96" r="9" fill="rgb(118,73,0)"/>
<circle cx="168" cy="96" r="12" fill="rgb(134,91,0)" opacity="0.35"/>
<circle cx="168" cy="96" r="9" fill="rgb(134,91,0)"/>
<circle cx="192" cy="96" r="12" fill="rgb(99,54,0)" opacity="0.35"/>
<circle cx="192" cy="96" r="9" fill="rgb(99,54,0)"/>
<circle cx="216" cy="96" r="12" fill="rgb(105,59,0)" opacity="0.35"/>
<circle cx="216" cy="96" r="9" fill="rgb(105,59,0)"/>
<circle cx="240" cy="96" r="12" fill="rgb(132,89,0)" opacity="0.35"/>
<circle cx="240" cy="96" r="9" fill="rgb(132,89,0)"/>
<circle cx="264" cy="96" r="12" fill="rgb(123,78,0)" opacity="0.35"/>
<circle cx="264" cy="96" r="9" fill="rgb(123,78,0)"/>
<circle cx="288" cy="96" r="12" fill="rgb(74,31,0)" opacity="0.35"/>
<circle cx="288" cy="96" r="9" fill="rgb(74,31,0)"/>
<circle cx="312" cy="96" r="12" fill="rgb(28,5,0)" opacity="0.35"/>
<circle cx="312" cy="96" r="9" fill="rgb(28,5,0)"/>
<circle cx="336" cy="96" r="12" fill="rgb(30,5,0)" opacity="0.35"/>
<circle cx="336" cy="96" r="9" fill="rgb(30,5,0)"/>
<circle cx="360" cy="96" r="12" fill="rgb(55,17,0)" opacity="0.35"/>
<circle cx="360" cy="96" r="9" fill="rgb(55,17,0)"/>
<circle cx="384" cy="96" r="12" fill="rgb(89,44,0)" opacity="0.35"/>
<circle cx="384" cy="96" r="9" fill="rgb(89,44,0)"/>
<circle cx="24" cy="120" r="12" fill="rgb(74,31,0)" opacity="0.35"/>
<circle cx="24" cy="120" r="9" fill="rgb(74,31,0)"/>
<circle cx="48" cy="120" r="12" fill="rgb(82,38,0)" opacity="0.35"/>
<circle cx="48" cy="120" r="9" fill="rgb(82,38,0)"/>
<circle cx="72" cy="120" r="12" fill="rgb(85,41,0)" opacity="0.35"/>
<circle cx="72" cy="120" r="9" fill="rgb(85,41,0)"/>
<circle cx="96" cy="120" r="12" fill="rgb(88,44,0)" opacity="0.35"/>
<circle cx="96" cy="120" r="9" fill="rgb(88,44,0)"/>
<circle cx="120" cy="120" r="12" fill="rgb(127,84,0)" opacity="0.35"/>
<circle cx="120" cy="120" r="9" fill="rgb(127,84,0)"/>
<circle cx="144" cy="120" r="12" fill="rgb(139,98,0)" opacity="0.35"/>
<circle cx="144" cy="120" r="9" fill="rgb(139,98,0)"/>
<circle cx="168" cy="120" r="12" fill="rgb(135,93,0)" opacity="0.35"/>
<circle cx="168" cy="120" r="9" fill="rgb(135,93,0)"/>
<circle cx="192" cy="120" r="12" fill="rgb(114,68,0)" opacity="0.35"/>
<circle cx="192" cy="120" r="9" fill="rgb(114,68,0)"/>
<circle cx="216" cy="120" r="12" fill="rgb(110,64,0)" opacity="0.35"/>
<circle cx="216" cy="120" r="9" fill="rgb(110,64,0)"/>
<circle cx="240" cy="120" r="12" fill="rgb(134,92,0)" opacity="0.35"/>
<circle cx="240" cy="120" r="9" fill="rgb(134,92,0)"/>
<circle cx="264" cy="120" r="12" fill="rgb(119,74,0)" opacity="0.35"/>
<circle cx="264" cy="120" r="9" fill="rgb(119,74,0)"/>
<circle cx="288" cy="120" r="12" fill="rgb(70,28,0)" opacity="0.35"/>
<circle cx="288" cy="120" r="9" fill="rgb(70,28,0)"/>
<circle cx="312" cy="120" r="12" fill="rgb(27,4,0)" opacity="0.35"/>
<circle cx="312" cy="120" r="9" fill="rgb(27,4,0)"/>
<circle cx="336" cy="120" r="9" fill="#14171c"/>
<circle cx="360" cy="120" r="12" fill="rgb(35,7,0)" opacity="0.35"/>
<circle cx="360" cy="120" r="9" fill="rgb(35,7,0)"/>
<circle cx="384" cy="120" r="12" fill="rgb(74,31,0)" opacity="0.35"/>
<circle cx="384" cy="120" r="9" fill="rgb(74,31,0)"/>
<circle cx="24" cy="144" r="12" fill="rgb(87,42,0)" opacity="0.35"/>
<circle cx="24" cy="144" r="9" fill="rgb(87,42,0)"/>
<circle cx="48" cy="144" r="12" fill="rgb(83,39,0)" opacity="0.35"/>
<circle cx="48" cy="144" r="9" fill="rgb(83,39,0)"/>
<circle cx="72" cy="144" r="12" fill="rgb(77,34,0)" opacity="0.35"/>
<circle cx="72" cy="144" r="9" fill="rgb(77,34,0)"/>
<circle cx="96" cy="144" r="12" fill="rgb(110,64,0)" opacity="0.35"/>
<circle cx="96" cy="144" r="9" fill="rgb(110,64,0)"/>
<circle cx="120" cy="144" r="12" fill="rgb(144,105,0)" opacity="0.35"/>
<circle cx="120" cy="144" r="9" fill="rgb(144,105,0)"/>
<circle cx="144" cy="144" r="12" fill="rgb(135,93,0)" opacity="0.35"/>
<circle cx="144" cy="144" r="9" fill="rgb(135,93,0)"/>
<circle cx="168" cy="144" r="12" fill="rgb(144,104,0)" opacity="0.35"/>
<circle cx="168" cy="144" r="9" fill="rgb(144,104,0)"/>
<circle cx="192" cy="144" r="12" fill="rgb(135,93,0)" opacity="0.35"/>
<circle cx="192" cy="144" r="9" fill="rgb(135,93,0)"/>
<circle cx="216" cy="144" r="12" fill="rgb(135,93,0)" opacity="0.35"/>
<circle cx="216" cy="144" r="9" fill="rgb(135,93,0)"/>
<circle cx="240" cy="144" r="12" fill="rgb(129,86,0)" opacity="0.35"/>
<circle cx="240" cy="144" r="9" fill="rgb(129,86,0)"/>
<circle cx="264" cy="144" r="12" fill="rgb(98,53,0)" opacity="0.35"/>
<circle cx="264" cy="144" r="9" fill="rgb(98,53,0)"/>
<circle cx="288" cy="144" r="12" fill="rgb(53,16,0)" opacity="0.35"/>
<circle cx="288" cy="144" r="9" fill="rgb(53,16,0)"/>
<circle cx="312" cy="144" r="12" fill="rgb(19,2,0)" opacity="0.35"/>
<circle cx="312" cy="144" r="9" fill="rgb(19,2,0)"/>
<circle cx="336" cy="144" r="9" fill="#14171c"/>
<circle cx="360" cy="144" r="12" fill="rgb(30,5,0)" opacity="0.35"/>
<circle cx="360" cy="144" r="9" fill="rgb(30,5,0)"/>
<circle cx="384" cy="144" r="12" fill="rgb(70,28,0)" opacity="0.35"/>
<circle cx="384" cy="144" r="9" fill="rgb(70,28,0)"/>
<circle cx="24" cy="168" r="12" fill="rgb(88,44,0)" opacity="0.35"/>
<circle cx="24" cy="168" r="9" fill="rgb(88,44,0)"/>
<circle cx="48" cy="168" r="12" fill="rgb(90,45,0)" opacity="0.35"/>
<circle cx="48" cy="168" r="9" fill="rgb(90,45,0)"/>
<circle cx="72" cy="168" r="12" fill="rgb(94,49,0)" opacity="0.35"/>
<circle cx="72" cy="168" r="9" fill="rgb(94,49,0)"/>
<circle cx="96" cy="168" r="12" fill="rgb(105,60,0)" opacity="0.35"/>
<circle cx="96" cy="168" r="9" fill="rgb(105,60,0)"/>
<circle cx="120" cy="168" r="12" fill="rgb(142,102,0)" opacity="0.35"/>
<circle cx="120" cy="168" r="9" fill="rgb(142,102,0)"/>
<circle cx="144" cy="168" r="12" fill="rgb(143,103,0)" opacity="0.35"/>
<circle cx="144" cy="168" r="9" fill="rgb(143,103,0)"/>
<circle cx="168" cy="168" r="12" fill="rgb(141,101,0)" opacity="0.35"/>
<circle cx="168" cy="168" r="9" fill="rgb(141,101,0)"/>
<circle cx="192" cy="168" r="12" fill="rgb(109,63,0)" opacity="0.35"/>
<circle cx="192" cy="168" r="9" fill="rgb(109,63,0)"/>
<circle cx="216" cy="168" r="12" fill="rgb(110,64,0)" opacity="0.35"/>
<circle cx="216" cy="168" r="9" fill="rgb(110,64,0)"/>
<circle cx="240" cy="168" r="12" fill="rgb(93,48,0)" opacity="0.35"/>
<circle cx="240" cy="168" r="9" fill="rgb(93,48,0)"/>
<circle cx="264" cy="168" r="12" fill="rgb(62,22,0)" opacity="0.35"/>
<circle cx="264" cy="168" r="9" fill="rgb(62,22,0)"/>
<circle cx="288" cy="168" r="12" fill="rgb(30,5,0)" opacity="0.35"/>
<circle cx="288" cy="168" r="9" fill="rgb(30,5,0)"/>
<circle cx="312" cy="168" r="9" fill="#14171c"/>
<circle cx="336" cy="168" r="12" fill="rgb(17,2,0)" opacity="0.35"/>
<circle cx="336" cy="168" r="9" fill="rgb(17,2,0)"/>
<circle cx="360" cy="168" r="12" fill="rgb(41,9,0)" opacity="0.35"/>
<circle cx="360" cy="168" r="9" fill="rgb(41,9,0)"/>
<circle cx="384" cy="168" r="12" fill="rgb(79,35,0)" opacity="0.35"/>
<circle cx="384" cy="168" r="9" fill="rgb(79,35,0)"/>
<circle cx="24" cy="192" r="12" fill="rgb(93,48,0)" opacity="0.35"/>
<circle cx="24" cy="192" r="9" fill="rgb(93,48,0)"/>
<circle cx="48" cy="192" r="12" fill="rgb(93,48,0)" opacity="0.35"/>
<circle cx="48" cy="192" r="9" fill="rgb(93,48,0)"/>
<circle cx="72" cy="192" r="12" fill="rgb(88,44,0)" opacity="0.35"/>
<circle cx="72" cy="192" r="9" fill="rgb(88,44,0)"/>
<circle cx="96" cy="192" r="12" fill="rgb(77,34,0)" opacity="0.35"/>
<circle cx="96" cy="192" r="9" fill="rgb(77,34,0)"/>
<circle cx="120" cy="192" r="12" fill="rgb(114,68,0)" opacity="0.35"/>
<circle cx="120" cy="192" r="9" fill="rgb(114,68,0)"/>
<circle cx="144" cy="192" r="12" fill="rgb(127,83,0)" opacity="0.35"/>
<circle cx="144" cy="192" r="9" fill="rgb(127,83,0)"/>
<circle cx="168" cy="192" r="12" fill="rgb(113,67,0)" opacity="0.35"/>
<circle cx="168" cy="192" r="9" fill="rgb(113,67,0)"/>
<circle cx="192" cy="192" r="12" fill="rgb(91,46,0)" opacity="0.35"/>
<circle cx="192" cy="192" r="9" fill="rgb(91,46,0)"/>
<circle cx="216" cy="192" r="12" fill="rgb(106,60,0)" opacity="0.35"/>
<circle cx="216" cy="192" r="9" fill="rgb(106,60,0)"/>
<circle cx="240" cy="192" r="12" fill="rgb(89,44,0)" opacity="0.35"/>
<circle cx="240" cy="192" r="9" fill="rgb(89,44,0)"/>
<circle cx="264" cy="192" r="12" fill="rgb(59,20,0)" opacity="0.35"/>
<circle cx="264" cy="192" r="9" fill="rgb(59,20,0)"/>
<circle cx="288" cy="192" r="12" fill="rgb(38,8,0)" opacity="0.35"/>
<circle cx="288" cy="192" r="9" fill="rgb(38,8,0)"/>
<circle cx="312" cy="192" r="12" fill="rgb(32,6,0)" opacity="0.35"/>
<circle cx="312" cy="192" r="9" fill="rgb(32,6,0)"/>
<circle cx="336" cy="192" r="12" fill="rgb(42,10,0)" opacity="0.35"/>
<circle cx="336" cy="192" r="9" fill="rgb(42,10,0)"/>
<circle cx="360" cy="192" r="12" fill="rgb(66,25,0)" opacity="0.35"/>
<circle cx="360" cy="192" r="9" fill="rgb(66,25,0)"/>
<circle cx="384" cy="192" r="12" fill="rgb(96,50,0)" opacity="0.35"/>
<circle cx="384" cy="192" r="9" fill="rgb(96,50,0)"/>
<circle cx="24" cy="216" r="12" fill="rgb(63,23,0)" opacity="0.35"/>
<circle cx="24" cy="216" r="9" fill="rgb(63,23,0)"/>
<circle cx="48" cy="216" r="12" fill="rgb(62,21,0)" opacity="0.35"/>
<circle cx="48" cy="216" r="9" fill="rgb(62,21,0)"/>
<circle cx="72" cy="216" r="12" fill="rgb(55,17,0)" opacity="0.35"/>
<circle cx="72" cy="216" r="9" fill="rgb(55,17,0)"/>
<circle cx="96" cy="216" r="12" fill="rgb(43,10,0)" opacity="0.35"/>
<circle cx="96" cy="216" r="9" fill="rgb(43,10,0)"/>
<circle cx="120" cy="216" r="12" fill="rgb(62,22,0)" opacity="0.35"/>
<circle cx="120" cy="216" r="9" fill="rgb(62,22,0)"/>
<circle cx="144" cy="216" r="12" fill="rgb(72,29,0)" opacity="0.35"/>
<circle cx="144" cy="216" r="9" fill="rgb(72,29,0)"/>
<circle cx="168" cy="216" r="12" fill="rgb(62,21,0)" opacity="0.35"/>
<circle cx="168" cy="216" r="9" fill="rgb(62,21,0)"/>
<circle cx="192" cy="216" r="12" fill="rgb(72,29,0)" opacity="0.35"/>
<circle cx="192" cy="216" r="9" fill="rgb(72,29,0)"/>
<circle cx="216" cy="216" r="12" fill="rgb(100,54,0)" opacity="0.35"/>
<circle cx="216" cy="216" r="9" fill="rgb(100,54,0)"/>
<circle cx="240" cy="216" r="12" fill="rgb(105,59,0)" opacity="0.35"/>
<circle cx="240" cy="216" r="9" fill="rgb(105,59,0)"/>
<circle cx="264" cy="216" r="12" fill="rgb(92,47,0)" opacity="0.35"/>
<circle cx="264" cy="216" r="9" fill="rgb(92,47,0)"/>
<circle cx="288" cy="216" r="12" fill="rgb(77,33,0)" opacity="0.35"/>
<circle cx="288" cy="216" r="9" fill="rgb(77,33,0)"/>
<circle cx="312" cy="216" r="12" fill="rgb(72,29,0)" opacity="0.35"/>
<circle cx="312" cy="216" r="9" fill="rgb(72,29,0)"/>
<circle cx="336" cy="216" r="12" fill="rgb(80,36,0)" opacity="0.35"/>
<circle cx="336" cy="216" r="9" fill="rgb(80,36,0)"/>
<circle cx="360" cy="216" r="12" fill="rgb(96,50,0)" opacity="0.35"/>
<circle cx="360" cy="216" r="9" fill="rgb(96,50,0)"/>
<circle cx="384" cy="216" r="12" fill="rgb(106,60,0)" opacity="0.35"/>
<circle cx="384" cy="216" r="9" fill="rgb(106,60,0)"/>
<circle cx="24" cy="240" r="12" fill="rgb(27,4,0)" opacity="0.35"/>
<circle cx="24" cy="240" r="9" fill="rgb(27,4,0)"/>
<circle cx="48" cy="240" r="12" fill="rgb(26,4,0)" opacity="0.35"/>
<circle cx="48" cy="240" r="9" fill="rgb(26,4,0)"/>
<circle cx="72" cy="240" r="12" fill="rgb(22,3,0)" opacity="0.35"/>
<circle cx="72" cy="240" r="9" fill="rgb(22,3,0)"/>
<circle cx="96" cy="240" r="9" fill="#14171c"/>
<circle cx="120" cy="240" r="12" fill="rgb(22,3,0)" opacity="0.35"/>
<circle cx="120" cy="240" r="9" fill="rgb(22,3,0)"/>
<circle cx="144" cy="240" r="12" fill="rgb(26,4,0)" opacity="0.35"/>
<circle cx="144" cy="240" r="9" fill="rgb(26,4,0)"/>
<circle cx="168" cy="240" r="12" fill="rgb(22,3,0)" opacity="0.35"/>
<circle cx="168" cy="240" r="9" fill="rgb(22,3,0)"/>
<circle cx="192" cy="240" r="12" fill="rgb(46,12,0)" opacity="0.35"/>
<circle cx="192" cy="240" r="9" fill="rgb(46,12,0)"/>
<circle cx="216" cy="240" r="12" fill="rgb(77,33,0)" opacity="0.35"/>
<circle cx="216" cy="240" r="9" fill="rgb(77,33,0)"/>
<circle cx="240" cy="240" r="12" fill="rgb(99,53,0)" opacity="0.35"/>
<circle cx="240" cy="240" r="9" fill="rgb(99,53,0)"/>
<circle cx="264" cy="240" r="12" fill="rgb(106,60,0)" opacity="0.35"/>
<circle cx="264" cy="240" r="9" fill="rgb(106,60,0)"/>
<circle cx="288" cy="240" r="12" fill="rgb(105,59,0)" opacity="0.35"/>
<circle cx="288" cy="240" r="9" fill="rgb(105,59,0)"/>
<circle cx="312" cy="240" r="12" fill="rgb(104,58,0)" opacity="0.35"/>
<circle cx="312" cy="240" r="9" fill="rgb(104,58,0)"/>
<circle cx="336" cy="240" r="12" fill="rgb(105,60,0)" opacity="0.35"/>
<circle cx="336" cy="240" r="9" fill="rgb(105,60,0)"/>
<circle cx="360" cy="240" r="12" fill="rgb(105,59,0)" opacity="0.35"/>
<circle cx="360" cy="240" r="9" fill="rgb(105,59,0)"/>
<circle cx="384" cy="240" r="12" fill="rgb(94,49,0)" opacity="0.35"/>
<circle cx="384" cy="240" r="9" fill="rgb(94,49,0)"/>
<circle cx="24" cy="264" r="12" fill="rgb(19,2,0)" opacity="0.35"/>
<circle cx="24" cy="264" r="9" fill="rgb(19,2,0)"/>
<circle cx="48" cy="264" r="12" fill="rgb(19,2,0)" opacity="0.35"/>
<circle cx="48" cy="264" r="9" fill="rgb(19,2,0)"/>
<circle cx="72" cy="264" r="9" fill="#14171c"/>
<circle cx="96" cy="264" r="9" fill="#14171c"/>
<circle cx="120" cy="264" r="9" fill="#14171c"/>
<circle cx="144" cy="264" r="9" fill="#14171c"/>
<circle cx="168" cy="264" r="9" fill="#14171c"/>
<circle cx="192" cy="264" r="12" fill="rgb(29,5,0)" opacity="0.35"/>
<circle cx="192" cy="264" r="9" fill="rgb(29,5,0)"/>
<circle cx="216" cy="264" r="12" fill="rgb(62,22,0)" opacity="0.35"/>
<circle cx="216" cy="264" r="9" fill="rgb(62,22,0)"/>
<circle cx="240" cy="264" r="12" fill="rgb(86,41,0)" opacity="0.35"/>
<circle cx="240" cy="264" r="9" fill="rgb(86,41,0)"/>
<circle cx="264" cy="264" r="12" fill="rgb(84,40,0)" opacity="0.35"/>
<circle cx="264" cy="264" r="9" fill="rgb(84,40,0)"/>
<circle cx="288" cy="264" r="12" fill="rgb(93,48,0)" opacity="0.35"/>
<circle cx="288" cy="264" r="9" fill="rgb(93,48,0)"/>
<circle cx="312" cy="264" r="12" fill="rgb(95,50,0)" opacity="0.35"/>
<circle cx="312" cy="264" r="9" fill="rgb(95,50,0)"/>
<circle cx="336" cy="264" r="12" fill="rgb(92,47,0)" opacity="0.35"/>
<circle cx="336" cy="264" r="9" fill="rgb(92,47,0)"/>
<circle cx="360" cy="264" r="12" fill="rgb(89,45,0)" opacity="0.35"/>
<circle cx="360" cy="264" r="9" fill="rgb(89,45,0)"/>
<circle cx="384" cy="264" r="12" fill="rgb(99,53,0)" opacity="0.35"/>
<circle cx="384" cy="264" r="9" fill="rgb(99,53,0)"/>
<circle cx="24" cy="288" r="12" fill="rgb(56,18,0)" opacity="0.35"/>
<circle cx="24" cy="288" r="9" fill="rgb(56,18,0)"/>
<circle cx="48" cy="288" r="12" fill="rgb(55,17,0)" opacity="0.35"/>
<circle cx="48" cy="288" r="9" fill="rgb(55,17,0)"/>
<circle cx="72" cy="288" r="12" fill="rgb(44,11,0)" opacity="0.35"/>
<circle cx="72" cy="288" r="9" fill="rgb(44,11,0)"/>
<circle cx="96" cy="288" r="12" fill="rgb(28,4,0)" opacity="0.35"/>
<circle cx="96" cy="288" r="9" fill="rgb(28,4,0)"/>
<circle cx="120" cy="288" r="9" fill="#14171c"/>
<circle cx="144" cy="288" r="9" fill="#14171c"/>
<circle cx="168" cy="288" r="9" fill="#14171c"/>
<circle cx="192" cy="288" r="12" fill="rgb(29,5,0)" opacity="0.35"/>
<circle cx="192" cy="288" r="9" fill="rgb(29,5,0)"/>
<circle cx="216" cy="288" r="12" fill="rgb(62,22,0)" opacity="0.35"/>
<circle cx="216" cy="288" r="9" fill="rgb(62,22,0)"/>
<circle cx="240" cy="288" r="12" fill="rgb(86,41,0)" opacity="0.35"/>
<circle cx="240" cy="288" r="9" fill="rgb(86,41,0)"/>
<circle cx="264" cy="288" r="12" fill="rgb(105,59,0)" opacity="0.35"/>
<circle cx="264" cy="288" r="9" fill="rgb(105,59,0)"/>
<circle cx="288" cy="288" r="12" fill="rgb(131,89,0)" opacity="0.35"/>
<circle cx="288" cy="288" r="9" fill="rgb(131,89,0)"/>
<circle cx="312" cy="288" r="12" fill="rgb(105,59,0)" opacity="0.35"/>
<circle cx="312" cy="288" r="9" fill="rgb(105,59,0)"/>
<circle cx="336" cy="288" r="12" fill="rgb(105,59,0)" opacity="0.35"/>
<circle cx="336" cy="288" r="9" fill="rgb(105,59,0)"/>
<circle cx="360" cy="288" r="12" fill="rgb(115,70,0)" opacity="0.35"/>
<circle cx="360" cy="288" r="9" fill="rgb(115,70,0)"/>
<circle cx="384" cy="288" r="12" fill="rgb(115,70,0)" opacity="0.35"/>
<circle cx="384" cy="288" r="9" fill="rgb(115,70,0)"/>
<circle cx="24" cy="312" r="12" fill="rgb(105,59,0)" opacity="0.35"/>
<circle cx="24" cy="312" r="9" fill="rgb(105,59,0)"/>
<circle cx="48" cy="312" r="12" fill="rgb(103,57,0)" opacity="0.35"/>
<circle cx="48" cy="312" r="9" fill="rgb(103,57,0)"/>
<circle cx="72" cy="312" r="12" fill="rgb(88,44,0)" opacity="0.35"/>
<circle cx="72" cy="312" r="9" fill="rgb(88,44,0)"/>
<circle cx="96" cy="312" r="12" fill="rgb(63,22,0)" opacity="0.35"/>
<circle cx="96" cy="312" r="9" fill="rgb(63,22,0)"/>
<circle cx="120" cy="312" r="12" fill="rgb(34,6,0)" opacity="0.35"/>
<circle cx="120" cy="312" r="9" fill="rgb(34,6,0)"/>
<circle cx="144" cy="312" r="9" fill="#14171c"/>
<circle cx="168" cy="312" r="9" fill="#14171c"/>
<circle cx="192" cy="312" r="12" fill="rgb(36,8,0)" opacity="0.35"/>
<circle cx="192" cy="312" r="9" fill="rgb(36,8,0)"/>
<circle cx="216" cy="312" r="12" fill="rgb(69,27,0)" opacity="0.35"/>
<circle cx="216" cy="312" r="9" fill="rgb(69,27,0)"/>
<circle cx="240" cy="312" r="12" fill="rgb(87,42,0)" opacity="0.35"/>
<circle cx="240" cy="312" r="9" fill="rgb(87,42,0)"/>
<circle cx="264" cy="312" r="12" fill="rgb(122,78,0)" opacity="0.35"/>
<circle cx="264" cy="312" r="9" fill="rgb(122,78,0)"/>
<circle cx="288" cy="312" r="12" fill="rgb(154,118,0)" opacity="0.35"/>
<circle cx="288" cy="312" r="9" fill="rgb(154,118,0)"/>
<circle cx="312" cy="312" r="12" fill="rgb(123,79,0)" opacity="0.35"/>
<circle cx="312" cy="312" r="9" fill="rgb(123,79,0)"/>
<circle cx="336" cy="312" r="12" fill="rgb(116,70,0)" opacity="0.35"/>
<circle cx="336" cy="312" r="9" fill="rgb(116,70,0)"/>
<circle cx="360" cy="312" r="12" fill="rgb(103,57,0)" opacity="0.35"/>
<circle cx="360" cy="312" r="9" fill="rgb(103,57,0)"/>
<circle cx="384" cy="312" r="12" fill="rgb(87,42,0)" opacity="0.35"/>
<circle cx="384" cy="312" r="9" fill="rgb(87,42,0)"/>
<circle cx="24" cy="336" r="12" fill="rgb(125,81,0)" opacity="0.35"/>
<circle cx="24" cy="336" r="9" fill="rgb(125,81,0)"/>
<circle cx="48" cy="336" r="12" fill="rgb(125,82,0)" opacity="0.35"/>
<circle cx="48" cy="336" r="9" fill="rgb(125,82,0)"/>
<circle cx="72" cy="336" r="12" fill="rgb(122,77,0)" opacity="0.35"/>
<circle cx="72" cy="336" r="9" fill="rgb(122,77,0)"/>
<circle cx="96" cy="336" r="12" fill="rgb(100,54,0)" opacity="0.35"/>
<circle cx="96" cy="336" r="9" fill="rgb(100,54,0)"/>
<circle cx="120" cy="336" r="12" fill="rgb(62,22,0)" opacity="0.35"/>
<circle cx="120" cy="336" r="9" fill="rgb(62,22,0)"/>
<circle cx="144" cy="336" r="12" fill="rgb(27,4,0)" opacity="0.35"/>
<circle cx="144" cy="336" r="9" fill="rgb(27,4,0)"/>
<circle cx="168" cy="336" r="12" fill="rgb(25,4,0)" opacity="0.35"/>
<circle cx="168" cy="336" r="9" fill="rgb(25,4,0)"/>
<circle cx="192" cy="336" r="12" fill="rgb(51,15,0)" opacity="0.35"/>
<circle cx="192" cy="336" r="9" fill="rgb(51,15,0)"/>
<circle cx="216" cy="336" r="12" fill="rgb(79,35,0)" opacity="0.35"/>
<circle cx="216" cy="336" r="9" fill="rgb(79,35,0)"/>
<circle cx="240" cy="336" r="12" fill="rgb(86,41,0)" opacity="0.35"/>
<circle cx="240" cy="336" r="9" fill="rgb(86,41,0)"/>
<circle cx="264" cy="336" r="12" fill="rgb(92,46,0)" opacity="0.35"/>
<circle cx="264" cy="336" r="9" fill="rgb(92,46,0)"/>
<circle cx="288" cy="336" r="12" fill="rgb(115,69,0)" opacity="0.35"/>
<circle cx="288" cy="336" r="9" fill="rgb(115,69,0)"/>
<circle cx="312" cy="336" r="12" fill="rgb(114,68,0)" opacity="0.35"/>
<circle cx="312" cy="336" r="9" fill="rgb(114,68,0)"/>
<circle cx="336" cy="336" r="12" fill="rgb(105,59,0)" opacity="0.35"/>
<circle cx="336" cy="336" r="9" fill="rgb(105,59,0)"/>
<circle cx="360" cy="336" r="12" fill="rgb(71,28,0)" opacity="0.35"/>
<circle cx="360" cy="336" r="9" fill="rgb(71,28,0)"/>
<circle cx="384" cy="336" r="12" fill="rgb(44,11,0)" opacity="0.35"/>
<circle cx="384" cy="336" r="9" fill="rgb(44,11,0)"/>
<circle cx="24" cy="360" r="12" fill="rgb(96,51,0)" opacity="0.35"/>
<circle cx="24" cy="360" r="9" fill="rgb(96,51,0)"/>
<circle cx="48" cy="360" r="12" fill="rgb(101,55,0)" opacity="0.35"/>
<circle cx="48" cy="360" r="9" fill="rgb(101,55,0)"/>
<circle cx="72" cy="360" r="12" fill="rgb(121,76,0)" opacity="0.35"/>
<circle cx="72" cy="360" r="9" fill="rgb(121,76,0)"/>
<circle cx="96" cy="360" r="12" fill="rgb(121,76,0)" opacity="0.35"/>
<circle cx="96" cy="360" r="9" fill="rgb(121,76,0)"/>
<circle cx="120" cy="360" r="12" fill="rgb(86,42,0)" opacity="0.35"/>
<circle cx="120" cy="360" r="9" fill="rgb(86,42,0)"/>
<circle cx="144" cy="360" r="12" fill="rgb(42,10,0)" opacity="0.35"/>
<circle cx="144" cy="360" r="9" fill="rgb(42,10,0)"/>
<circle cx="168" cy="360" r="12" fill="rgb(47,13,0)" opacity="0.35"/>
<circle cx="168" cy="360" r="9" fill="rgb(47,13,0)"/>
<circle cx="192" cy="360" r="12" fill="rgb(71,29,0)" opacity="0.35"/>
<circle cx="192" cy="360" r="9" fill="rgb(71,29,0)"/>
<circle cx="216" cy="360" r="12" fill="rgb(86,42,0)" opacity="0.35"/>
<circle cx="216" cy="360" r="9" fill="rgb(86,42,0)"/>
<circle cx="240" cy="360" r="12" fill="rgb(78,34,0)" opacity="0.35"/>
<circle cx="240" cy="360" r="9" fill="rgb(78,34,0)"/>
<circle cx="264" cy="360" r="12" fill="rgb(50,14,0)" opacity="0.35"/>
<circle cx="264" cy="360" r="9" fill="rgb(50,14,0)"/>
<circle cx="288" cy="360" r="12" fill="rgb(92,47,0)" opacity="0.35"/>
<circle cx="288" cy="360" r="9" fill="rgb(92,47,0)"/>
<circle cx="312" cy="360" r="12" fill="rgb(116,70,0)" opacity="0.35"/>
<circle cx="312" cy="360" r="9" fill="rgb(116,70,0)"/>
<circle cx="336" cy="360" r="12" fill="rgb(93,48,0)" opacity="0.35"/>
<circle cx="336" cy="360" r="9" fill="rgb(93,48,0)"/>
<circle cx="360" cy="360" r="12" fill="rgb(49,14,0)" opacity="0.35"/>
<circle cx="360" cy="360" r="9" fill="rgb(49,14,0)"/>
<circle cx="384" cy="360" r="12" fill="rgb(18,2,0)" opacity="0.35"/>
<circle cx="384" cy="360" r="9" fill="rgb(18,2,0)"/>
<circle cx="24" cy="384" r="12" fill="rgb(72,29,0)" opacity="0.35"/>
<circle cx="24" cy="384" r="9" fill="rgb(72,29,0)"/>
<circle cx="48" cy="384" r="12" fill="rgb(60,20,0)" opacity="0.35"/>
<circle cx="48" cy="384" r="9" fill="rgb(60,20,0)"/>
<circle cx="72" cy="384" r="12" fill="rgb(103,57,0)" opacity="0.35"/>
<circle cx="72" cy="384" r="9" fill="rgb(103,57,0)"/>
<circle cx="96" cy="384" r="12" fill="rgb(125,82,0)" opacity="0.35"/>
<circle cx="96" cy="384" r="9" fill="rgb(125,82,0)"/>
<circle cx="120" cy="384" r="12" fill="rgb(100,54,0)" opacity="0.35"/>
<circle cx="120" cy="384" r="9" fill="rgb(100,54,0)"/>
<circle cx="144" cy="384" r="12" fill="rgb(58,19,0)" opacity="0.35"/>
<circle cx="144" cy="384" r="9" fill="rgb(58,19,0)"/>
<circle cx="168" cy="384" r="12" fill="rgb(74,31,0)" opacity="0.35"/>
<circle cx="168" cy="384" r="9" fill="rgb(74,31,0)"/>
<circle cx="192" cy="384" r="12" fill="rgb(86,41,0)" opacity="0.35"/>
<circle cx="192" cy="384" r="9" fill="rgb(86,41,0)"/>
<circle cx="216" cy="384" r="12" fill="rgb(83,39,0)" opacity="0.35"/>
<circle cx="216" cy="384" r="9" fill="rgb(83,39,0)"/>
<circle cx="240" cy="384" r="12" fill="rgb(61,21,0)" opacity="0.35"/>
<circle cx="240" cy="384" r="9" fill="rgb(61,21,0)"/>
<circle cx="264" cy="384" r="12" fill="rgb(46,12,0)" opacity="0.35"/>
<circle cx="264" cy="384" r="9" fill="rgb(46,12,0)"/>
<circle cx="288" cy="384" r="12" fill="rgb(91,46,0)" opacity="0.35"/>
<circle cx="288" cy="384" r="9" fill="rgb(91,46,0)"/>
<circle cx="312" cy="384" r="12" fill="rgb(116,70,0)" opacity="0.35"/>
<circle cx="312" cy="384" r="9" fill="rgb(116,70,0)"/>
<circle cx="336" cy="384" r="12" fill="rgb(95,50,0)" opacity="0.35"/>
<circle cx="336" cy="384" r="9" fill="rgb(95,50,0)"/>
<circle cx="360" cy="384" r="12" fill="rgb(52,15,0)" opacity="0.35"/>
<circle cx="360" cy="384" r="9" fill="rgb(52,15,0)"/>
<circle cx="384" cy="384" r="12" fill="rgb(21,3,0)" opacity="0.35"/>
<circle cx="384" cy="384" r="9" fill="rgb(21,3,0)"/>
</svg>
