<svg xmlns="http://www.w3.org/2000/svg" viewBox="0 0 408 408" width="408" height="408" role="img" aria-label="LED preview of the Saturation example graph">
<rect width="408" height="408" rx="10" fill="#05070a"/>
<circle cx="24" cy="24" r="12" fill="rgb(255,141,0)" opacity="0.35"/>
<circle cx="24" cy="24" r="9" fill="rgb(255,141,0)"/>
<circle cx="48" cy="24" r="12" fill="rgb(255,81,0)" opacity="0.35"/>
<circle cx="48" cy="24" r="9" fill="rgb(255,81,0)"/>
<circle cx="72" cy="24" r="12" fill="rgb(255,31,0)" opacity="0.35"/>
<circle cx="72" cy="24" r="9" fill="rgb(255,31,0)"/>
<circle cx="96" cy="24" r="12" fill="rgb(212,0,249)" opacity="0.35"/>
<circle cx="96" cy="24" r="9" fill="rgb(212,0,249)"/>
<circle cx="120" cy="24" r="12" fill="rgb(191,0,250)" opacity="0.35"/>
<circle cx="120" cy="24" r="9" fill="rgb(191,0,250)"/>
<circle cx="144" cy="24" r="12" fill="rgb(193,0,250)" opacity="0.35"/>
<circle cx="144" cy="24" r="9" fill="rgb(193,0,250)"/>
<circle cx="168" cy="24" r="12" fill="rgb(213,0,249)" opacity="0.35"/>
<circle cx="168" cy="24" r="9" fill="rgb(213,0,249)"/>
<circle cx="192" cy="24" r="12" fill="rgb(255,20,0)" opacity="0.35"/>
<circle cx="192" cy="24" r="9" fill="rgb(255,20,0)"/>
<circle cx="216" cy="24" r="12" fill="rgb(255,43,0)" opacity="0.35"/>
<circle cx="216" cy="24" r="9" fill="rgb(255,43,0)"/>
<circle cx="240" cy="24" r="12" fill="rgb(255,65,0)" opacity="0.35"/>
<circle cx="240" cy="24" r="9" fill="rgb(255,65,0)"/>
<circle cx="264" cy="24" r="12" fill="rgb(255,82,0)" opacity="0.35"/>
<circle cx="264" cy="24" r="9" fill="rgb(255,82,0)"/>
<circle cx="288" cy="24" r="12" fill="rgb(255,92,0)" opacity="0.35"/>
<circle cx="288" cy="24" r="9" fill="rgb(255,92,0)"/>
<circle cx="312" cy="24" r="12" fill="rgb(255,96,0)" opacity="0.35"/>
<circle cx="312" cy="24" r="9" fill="rgb(255,96,0)"/>
<circle cx="336" cy="24" r="12" fill="rgb(255,95,0)" opacity="0.35"/>
<circle cx="336" cy="24" r="9" fill="rgb(255,95,0)"/>
<circle cx="360" cy="24" r="12" fill="rgb(255,91,0)" opacity="0.35"/>
<circle cx="360" cy="24" r="9" fill="rgb(255,91,0)"/>
<circle cx="384" cy="24" r="12" fill="rgb(255,88,0)" opacity="0.35"/>
<circle cx="384" cy="24" r="9" fill="rgb(255,88,0)"/>
<circle cx="24" cy="48" r="12" fill="rgb(255,62,0)" opacity="0.35"/>
<circle cx="24" cy="48" r="9" fill="rgb(255,62,0)"/>
<circle cx="48" cy="48" r="12" fill="rgb(207,0,249)" opacity="0.35"/>
<circle cx="48" cy="48" r="9" fill="rgb(207,0,249)"/>
<circle cx="72" cy="48" r="12" fill="rgb(128,0,251)" opacity="0.35"/>
<circle cx="72" cy="48" r="9" fill="rgb(128,0,251)"/>
<circle cx="96" cy="48" r="12" fill="rgb(70,0,252)" opacity="0.35"/>
<circle cx="96" cy="48" r="9" fill="rgb(70,0,252)"/>
<circle cx="120" cy="48" r="12" fill="rgb(54,4,253)" opacity="0.35"/>
<circle cx="120" cy="48" r="9" fill="rgb(54,4,253)"/>
<circle cx="144" cy="48" r="12" fill="rgb(70,0,252)" opacity="0.35"/>
<circle cx="144" cy="48" r="9" fill="rgb(70,0,252)"/>
<circle cx="168" cy="48" r="12" fill="rgb(113,0,251)" opacity="0.35"/>
<circle cx="168" cy="48" r="9" fill="rgb(113,0,251)"/>
<circle cx="192" cy="48" r="12" fill="rgb(163,0,250)" opacity="0.35"/>
<circle cx="192" cy="48" r="9" fill="rgb(163,0,250)"/>
<circle cx="216" cy="48" r="12" fill="rgb(207,0,249)" opacity="0.35"/>
<circle cx="216" cy="48" r="9" fill="rgb(207,0,249)"/>
<circle cx="240" cy="48" r="12" fill="rgb(255,21,0)" opacity="0.35"/>
<circle cx="240" cy="48" r="9" fill="rgb(255,21,0)"/>
<circle cx="264" cy="48" r="12" fill="rgb(255,40,0)" opacity="0.35"/>
<circle cx="264" cy="48" r="9" fill="rgb(255,40,0)"/>
<circle cx="288" cy="48" r="12" fill="rgb(255,51,0)" opacity="0.35"/>
<circle cx="288" cy="48" r="9" fill="rgb(255,51,0)"/>
<circle cx="312" cy="48" r="12" fill="rgb(255,55,0)" opacity="0.35"/>
<circle cx="312" cy="48" r="9" fill="rgb(255,55,0)"/>
<circle cx="336" cy="48" r="12" fill="rgb(255,53,0)" opacity="0.35"/>
<circle cx="336" cy="48" r="9" fill="rgb(255,53,0)"/>
<circle cx="360" cy="48" r="12" fill="rgb(255,48,0)" opacity="0.35"/>
<circle cx="360" cy="48" r="9" fill="rgb(255,48,0)"/>
<circle cx="384" cy="48" r="12" fill="rgb(255,44,0)" opacity="0.35"/>
<circle cx="384" cy="48" r="9" fill="rgb(255,44,0)"/>
<circle cx="24" cy="72" r="12" fill="rgb(190,0,250)" opacity="0.35"/>
<circle cx="24" cy="72" r="9" fill="rgb(190,0,250)"/>
<circle cx="48" cy="72" r="12" fill="rgb(70,0,252)" opacity="0.35"/>
<circle cx="48" cy="72" r="9" fill="rgb(70,0,252)"/>
<circle cx="72" cy="72" r="12" fill="rgb(0,35,254)" opacity="0.35"/>
<circle cx="72" cy="72" r="9" fill="rgb(0,35,254)"/>
<circle cx="96" cy="72" r="12" fill="rgb(0,63,254)" opacity="0.35"/>
<circle cx="96" cy="72" r="9" fill="rgb(0,63,254)"/>
<circle cx="120" cy="72" r="12" fill="rgb(0,63,254)" opacity="0.35"/>
<circle cx="120" cy="72" r="9" fill="rgb(0,63,254)"/>
<circle cx="144" cy="72" r="12" fill="rgb(0,42,254)" opacity="0.35"/>
<circle cx="144" cy="72" r="9" fill="rgb(0,42,254)"/>
<circle cx="168" cy="72" r="12" fill="rgb(38,11,253)" opacity="0.35"/>
<circle cx="168" cy="72" r="9" fill="rgb(38,11,253)"/>
<circle cx="192" cy="72" r="12" fill="rgb(106,0,252)" opacity="0.35"/>
<circle cx="192" cy="72" r="9" fill="rgb(106,0,252)"/>
<circle cx="216" cy="72" r="12" fill="rgb(169,0,250)" opacity="0.35"/>
<circle cx="216" cy="72" r="9" fill="rgb(169,0,250)"/>
<circle cx="240" cy="72" r="12" fill="rgb(255,0,0)" opacity="0.35"/>
<circle cx="240" cy="72" r="9" fill="rgb(255,0,0)"/>
<circle cx="264" cy="72" r="12" fill="rgb(255,21,0)" opacity="0.35"/>
<circle cx="264" cy="72" r="9" fill="rgb(255,21,0)"/>
<circle cx="288" cy="72" r="12" fill="rgb(255,32,0)" opacity="0.35"/>
<circle cx="288" cy="72" r="9" fill="rgb(255,32,0)"/>
<circle cx="312" cy="72" r="12" fill="rgb(255,34,0)" opacity="0.35"/>
<circle cx="312" cy="72" r="9" fill="rgb(255,34,0)"/>
<circle cx="336" cy="72" r="12" fill="rgb(255,30,0)" opacity="0.35"/>
<circle cx="336" cy="72" r="9" fill="rgb(255,30,0)"/>
<circle cx="360" cy="72" r="12" fill="rgb(255,23,0)" opacity="0.35"/>
<circle cx="360" cy="72" r="9" fill="rgb(255,23,0)"/>
<circle cx="384" cy="72" r="12" fill="rgb(255,16,0)" opacity="0.35"/>
<circle cx="384" cy="72" r="9" fill="rgb(255,16,0)"/>
<circle cx="24" cy="96" r="12" fill="rgb(69,0,252)" opacity="0.35"/>
<circle cx="24" cy="96" r="9" fill="rgb(69,0,252)"/>
<circle cx="48" cy="96" r="12" fill="rgb(0,59,254)" opacity="0.35"/>
<circle cx="48" cy="96" r="9" fill="rgb(0,59,254)"/>
<circle cx="72" cy="96" r="12" fill="rgb(0,102,254)" opacity="0.35"/>
<circle cx="72" cy="96" r="9" fill="rgb(0,102,254)"/>
<circle cx="96" cy="96" r="12" fill="rgb(0,117,255)" opacity="0.35"/>
<circle cx="96" cy="96" r="9" fill="rgb(0,117,255)"/>
<circle cx="120" cy="96" r="12" fill="rgb(0,105,254)" opacity="0.35"/>
<circle cx="120" cy="96" r="9" fill="rgb(0,105,254)"/>
<circle cx="144" cy="96" r="12" fill="rgb(0,72,254)" opacity="0.35"/>
<circle cx="144" cy="96" r="9" fill="rgb(0,72,254)"/>
<circle cx="168" cy="96" r="12" fill="rgb(15,23,253)" opacity="0.35"/>
<circle cx="168" cy="96" r="9" fill="rgb(15,23,253)"/>
<circle cx="192" cy="96" r="12" fill="rgb(95,0,252)" opacity="0.35"/>
<circle cx="192" cy="96" r="9" fill="rgb(95,0,252)"/>
<circle cx="216" cy="96" r="12" fill="rgb(170,0,250)" opacity="0.35"/>
<circle cx="216" cy="96" r="9" fill="rgb(170,0,250)"/>
<circle cx="240" cy="96" r="12" fill="rgb(255,5,0)" opacity="0.35"/>
<circle cx="240" cy="96" r="9" fill="rgb(255,5,0)"/>
<circle cx="264" cy="96" r="12" fill="rgb(255,27,0)" opacity="0.35"/>
<circle cx="264" cy="96" r="9" fill="rgb(255,27,0)"/>
<circle cx="288" cy="96" r="12" fill="rgb(255,37,0)" opacity="0.35"/>
<circle cx="288" cy="96" r="9" fill="rgb(255,37,0)"/>
<circle cx="312" cy="96" r="12" fill="rgb(255,37,0)" opacity="0.35"/>
<circle cx="312" cy="96" r="9" fill="rgb(255,37,0)"/>
<circle cx="336" cy="96" r="12" fill="rgb(255,29,0)" opacity="0.35"/>
<circle cx="336" cy="96" r="9" fill="rgb(255,29,0)"/>
<circle cx="360" cy="96" r="12" fill="rgb(255,17,0)" opacity="0.35"/>
<circle cx="360" cy="96" r="9" fill="rgb(255,17,0)"/>
<circle cx="384" cy="96" r="12" fill="rgb(255,7,0)" opacity="0.35"/>
<circle cx="384" cy="96" r="9" fill="rgb(255,7,0)"/>
<circle cx="24" cy="120" r="12" fill="rgb(0,45,254)" opacity="0.35"/>
<circle cx="24" cy="120" r="9" fill="rgb(0,45,254)"/>
<circle cx="48" cy="120" r="12" fill="rgb(0,109,254)" opacity="0.35"/>
<circle cx="48" cy="120" r="9" fill="rgb(0,109,254)"/>
<circle cx="72" cy="120" r="12" fill="rgb(0,139,255)" opacity="0.35"/>
<circle cx="72" cy="120" r="9" fill="rgb(0,139,255)"/>
<circle cx="96" cy="120" r="12" fill="rgb(0,141,255)" opacity="0.35"/>
<circle cx="96" cy="120" r="9" fill="rgb(0,141,255)"/>
<circle cx="120" cy="120" r="12" fill="rgb(0,119,255)" opacity="0.35"/>
<circle cx="120" cy="120" r="9" fill="rgb(0,119,255)"/>
<circle cx="144" cy="120" r="12" fill="rgb(0,74,254)" opacity="0.35"/>
<circle cx="144" cy="120" r="9" fill="rgb(0,74,254)"/>
<circle cx="168" cy="120" r="12" fill="rgb(30,15,253)" opacity="0.35"/>
<circle cx="168" cy="120" r="9" fill="rgb(30,15,253)"/>
<circle cx="192" cy="120" r="12" fill="rgb(132,0,251)" opacity="0.35"/>
<circle cx="192" cy="120" r="9" fill="rgb(132,0,251)"/>
<circle cx="216" cy="120" r="12" fill="rgb(210,0,249)" opacity="0.35"/>
<circle cx="216" cy="120" r="9" fill="rgb(210,0,249)"/>
<circle cx="240" cy="120" r="12" fill="rgb(255,34,0)" opacity="0.35"/>
<circle cx="240" cy="120" r="9" fill="rgb(255,34,0)"/>
<circle cx="264" cy="120" r="12" fill="rgb(255,56,0)" opacity="0.35"/>
<circle cx="264" cy="120" r="9" fill="rgb(255,56,0)"/>
<circle cx="288" cy="120" r="12" fill="rgb(255,65,0)" opacity="0.35"/>
<circle cx="288" cy="120" r="9" fill="rgb(255,65,0)"/>
<circle cx="312" cy="120" r="12" fill="rgb(255,61,0)" opacity="0.35"/>
<circle cx="312" cy="120" r="9" fill="rgb(255,61,0)"/>
<circle cx="336" cy="120" r="12" fill="rgb(255,49,0)" opacity="0.35"/>
<circle cx="336" cy="120" r="9" fill="rgb(255,49,0)"/>
<circle cx="360" cy="120" r="12" fill="rgb(255,32,0)" opacity="0.35"/>
<circle cx="360" cy="120" r="9" fill="rgb(255,32,0)"/>
<circle cx="384" cy="120" r="12" fill="rgb(255,16,0)" opacity="0.35"/>
<circle cx="384" cy="120" r="9" fill="rgb(255,16,0)"/>
<circle cx="24" cy="144" r="12" fill="rgb(0,82,254)" opacity="0.35"/>
<circle cx="24" cy="144" r="9" fill="rgb(0,82,254)"/>
<circle cx="48" cy="144" r="12" fill="rgb(0,134,255)" opacity="0.35"/>
<circle cx="48" cy="144" r="9" fill="rgb(0,134,255)"/>
<circle cx="72" cy="144" r="12" fill="rgb(0,153,255)" opacity="0.35"/>
<circle cx="72" cy="144" r="9" fill="rgb(0,153,255)"/>
<circle cx="96" cy="144" r="12" fill="rgb(0,144,255)" opacity="0.35"/>
<circle cx="96" cy="144" r="9" fill="rgb(0,144,255)"/>
<circle cx="120" cy="144" r="12" fill="rgb(0,111,254)" opacity="0.35"/>
<circle cx="120" cy="144" r="9" fill="rgb(0,111,254)"/>
<circle cx="144" cy="144" r="12" fill="rgb(0,49,254)" opacity="0.35"/>
<circle cx="144" cy="144" r="9" fill="rgb(0,49,254)"/>
<circle cx="168" cy="144" r="12" fill="rgb(89,0,252)" opacity="0.35"/>
<circle cx="168" cy="144" r="9" fill="rgb(89,0,252)"/>
<circle cx="192" cy="144" r="12" fill="rgb(200,0,249)" opacity="0.35"/>
<circle cx="192" cy="144" r="9" fill="rgb(200,0,249)"/>
<circle cx="216" cy="144" r="12" fill="rgb(255,45,0)" opacity="0.35"/>
<circle cx="216" cy="144" r="9" fill="rgb(255,45,0)"/>
<circle cx="240" cy="144" r="12" fill="rgb(255,84,0)" opacity="0.35"/>
<circle cx="240" cy="144" r="9" fill="rgb(255,84,0)"/>
<circle cx="264" cy="144" r="12" fill="rgb(255,106,0)" opacity="0.35"/>
<circle cx="264" cy="144" r="9" fill="rgb(255,106,0)"/>
<circle cx="288" cy="144" r="12" fill="rgb(255,112,0)" opacity="0.35"/>
<circle cx="288" cy="144" r="9" fill="rgb(255,112,0)"/>
<circle cx="312" cy="144" r="12" fill="rgb(255,105,0)" opacity="0.35"/>
<circle cx="312" cy="144" r="9" fill="rgb(255,105,0)"/>
<circle cx="336" cy="144" r="12" fill="rgb(255,87,0)" opacity="0.35"/>
<circle cx="336" cy="144" r="9" fill="rgb(255,87,0)"/>
<circle cx="360" cy="144" r="12" fill="rgb(255,65,0)" opacity="0.35"/>
<circle cx="360" cy="144" r="9" fill="rgb(255,65,0)"/>
<circle cx="384" cy="144" r="12" fill="rgb(255,43,0)" opacity="0.35"/>
<circle cx="384" cy="144" r="9" fill="rgb(255,43,0)"/>
<circle cx="24" cy="168" r="12" fill="rgb(0,96,254)" opacity="0.35"/>
<circle cx="24" cy="168" r="9" fill="rgb(0,96,254)"/>
<circle cx="48" cy="168" r="12" fill="rgb(0,139,255)" opacity="0.35"/>
<circle cx="48" cy="168" r="9" fill="rgb(0,139,255)"/>
<circle cx="72" cy="168" r="12" fill="rgb(0,149,255)" opacity="0.35"/>
<circle cx="72" cy="168" r="9" fill="rgb(0,149,255)"/>
<circle cx="96" cy="168" r="12" fill="rgb(0,131,255)" opacity="0.35"/>
<circle cx="96" cy="168" r="9" fill="rgb(0,131,255)"/>
<circle cx="120" cy="168" r="12" fill="rgb(0,82,254)" opacity="0.35"/>
<circle cx="120" cy="168" r="9" fill="rgb(0,82,254)"/>
<circle cx="144" cy="168" r="12" fill="rgb(40,10,253)" opacity="0.35"/>
<circle cx="144" cy="168" r="9" fill="rgb(40,10,253)"/>
<circle cx="168" cy="168" r="12" fill="rgb(177,0,250)" opacity="0.35"/>
<circle cx="168" cy="168" r="9" fill="rgb(177,0,250)"/>
<circle cx="192" cy="168" r="12" fill="rgb(255,48,0)" opacity="0.35"/>
<circle cx="192" cy="168" r="9" fill="rgb(255,48,0)"/>
<circle cx="216" cy="168" r="12" fill="rgb(255,108,0)" opacity="0.35"/>
<circle cx="216" cy="168" r="9" fill="rgb(255,108,0)"/>
<circle cx="240" cy="168" r="12" fill="rgb(255,143,0)" opacity="0.35"/>
<circle cx="240" cy="168" r="9" fill="rgb(255,143,0)"/>
<circle cx="264" cy="168" r="12" fill="rgb(255,158,0)" opacity="0.35"/>
<circle cx="264" cy="168" r="9" fill="rgb(255,158,0)"/>
<circle cx="288" cy="168" r="12" fill="rgb(255,161,0)" opacity="0.35"/>
<circle cx="288" cy="168" r="9" fill="rgb(255,161,0)"/>
<circle cx="312" cy="168" r="12" fill="rgb(255,152,0)" opacity="0.35"/>
<circle cx="312" cy="168" r="9" fill="rgb(255,152,0)"/>
<circle cx="336" cy="168" r="12" fill="rgb(255,136,0)" opacity="0.35"/>
<circle cx="336" cy="168" r="9" fill="rgb(255,136,0)"/>
<circle cx="360" cy="168" r="12" fill="rgb(255,113,0)" opacity="0.35"/>
<circle cx="360" cy="168" r="9" fill="rgb(255,113,0)"/>
<circle cx="384" cy="168" r="12" fill="rgb(255,85,0)" opacity="0.35"/>
<circle cx="384" cy="168" r="9" fill="rgb(255,85,0)"/>
<circle cx="24" cy="192" r="12" fill="rgb(0,92,254)" opacity="0.35"/>
<circle cx="24" cy="192" r="9" fill="rgb(0,92,254)"/>
<circle cx="48" cy="192" r="12" fill="rgb(0,129,255)" opacity="0.35"/>
<circle cx="48" cy="192" r="9" fill="rgb(0,129,255)"/>
<circle cx="72" cy="192" r="12" fill="rgb(0,131,255)" opacity="0.35"/>
<circle cx="72" cy="192" r="9" fill="rgb(0,131,255)"/>
<circle cx="96" cy="192" r="12" fill="rgb(0,102,254)" opacity="0.35"/>
<circle cx="96" cy="192" r="9" fill="rgb(0,102,254)"/>
<circle cx="120" cy="192" r="12" fill="rgb(0,36,254)" opacity="0.35"/>
<circle cx="120" cy="192" r="9" fill="rgb(0,36,254)"/>
<circle cx="144" cy="192" r="12" fill="rgb(129,0,251)" opacity="0.35"/>
<circle cx="144" cy="192" r="9" fill="rgb(129,0,251)"/>
<circle cx="168" cy="192" r="12" fill="rgb(255,31,0)" opacity="0.35"/>
<circle cx="168" cy="192" r="9" fill="rgb(255,31,0)"/>
<circle cx="192" cy="192" r="12" fill="rgb(255,114,0)" opacity="0.35"/>
<circle cx="192" cy="192" r="9" fill="rgb(255,114,0)"/>
<circle cx="216" cy="192" r="12" fill="rgb(255,167,0)" opacity="0.35"/>
<circle cx="216" cy="192" r="9" fill="rgb(255,167,0)"/>
<circle cx="240" cy="192" r="12" fill="rgb(255,198,0)" opacity="0.35"/>
<circle cx="240" cy="192" r="9" fill="rgb(255,198,0)"/>
<circle cx="264" cy="192" r="12" fill="rgb(255,212,0)" opacity="0.35"/>
<circle cx="264" cy="192" r="9" fill="rgb(255,212,0)"/>
<circle cx="288" cy="192" r="12" fill="rgb(255,212,0)" opacity="0.35"/>
<circle cx="288" cy="192" r="9" fill="rgb(255,212,0)"/>
<circle cx="312" cy="192" r="12" fill="rgb(255,201,0)" opacity="0.35"/>
<circle cx="312" cy="192" r="9" fill="rgb(255,201,0)"/>
<circle cx="336" cy="192" r="12" fill="rgb(255,182,0)" opacity="0.35"/>
<circle cx="336" cy="192" r="9" fill="rgb(255,182,0)"/>
<circle cx="360" cy="192" r="12" fill="rgb(255,158,0)" opacity="0.35"/>
<circle cx="360" cy="192" r="9" fill="rgb(255,158,0)"/>
<circle cx="384" cy="192" r="12" fill="rgb(255,133,0)" opacity="0.35"/>
<circle cx="384" cy="192" r="9" fill="rgb(255,133,0)"/>
<circle cx="24" cy="216" r="12" fill="rgb(0,72,254)" opacity="0.35"/>
<circle cx="24" cy="216" r="9" fill="rgb(0,72,254)"/>
<circle cx="48" cy="216" r="12" fill="rgb(0,105,254)" opacity="0.35"/>
<circle cx="48" cy="216" r="9" fill="rgb(0,105,254)"/>
<circle cx="72" cy="216" r="12" fill="rgb(0,101,254)" opacity="0.35"/>
<circle cx="72" cy="216" r="9" fill="rgb(0,101,254)"/>
<circle cx="96" cy="216" r="12" fill="rgb(0,62,254)" opacity="0.35"/>
<circle cx="96" cy="216" r="9" fill="rgb(0,62,254)"/>
<circle cx="120" cy="216" r="12" fill="rgb(66,0,252)" opacity="0.35"/>
<circle cx="120" cy="216" r="9" fill="rgb(66,0,252)"/>
<circle cx="144" cy="216" r="12" fill="rgb(209,0,249)" opacity="0.35"/>
<circle cx="144" cy="216" r="9" fill="rgb(209,0,249)"/>
<circle cx="168" cy="216" r="12" fill="rgb(255,86,0)" opacity="0.35"/>
<circle cx="168" cy="216" r="9" fill="rgb(255,86,0)"/>
<circle cx="192" cy="216" r="12" fill="rgb(255,163,0)" opacity="0.35"/>
<circle cx="192" cy="216" r="9" fill="rgb(255,163,0)"/>
<circle cx="216" cy="216" r="12" fill="rgb(220,211,0)" opacity="0.35"/>
<circle cx="216" cy="216" r="9" fill="rgb(220,211,0)"/>
<circle cx="240" cy="216" r="12" fill="rgb(137,208,0)" opacity="0.35"/>
<circle cx="240" cy="216" r="9" fill="rgb(137,208,0)"/>
<circle cx="264" cy="216" r="12" fill="rgb(91,206,4)" opacity="0.35"/>
<circle cx="264" cy="216" r="9" fill="rgb(91,206,4)"/>
<circle cx="288" cy="216" r="12" fill="rgb(92,206,2)" opacity="0.35"/>
<circle cx="288" cy="216" r="9" fill="rgb(92,206,2)"/>
<circle cx="312" cy="216" r="12" fill="rgb(139,208,0)" opacity="0.35"/>
<circle cx="312" cy="216" r="9" fill="rgb(139,208,0)"/>
<circle cx="336" cy="216" r="12" fill="rgb(208,211,0)" opacity="0.35"/>
<circle cx="336" cy="216" r="9" fill="rgb(208,211,0)"/>
<circle cx="360" cy="216" r="12" fill="rgb(255,204,0)" opacity="0.35"/>
<circle cx="360" cy="216" r="9" fill="rgb(255,204,0)"/>
<circle cx="384" cy="216" r="12" fill="rgb(255,176,0)" opacity="0.35"/>
<circle cx="384" cy="216" r="9" fill="rgb(255,176,0)"/>
<circle cx="24" cy="240" r="12" fill="rgb(0,34,254)" opacity="0.35"/>
<circle cx="24" cy="240" r="9" fill="rgb(0,34,254)"/>
<circle cx="48" cy="240" r="12" fill="rgb(0,69,254)" opacity="0.35"/>
<circle cx="48" cy="240" r="9" fill="rgb(0,69,254)"/>
<circle cx="72" cy="240" r="12" fill="rgb(0,60,254)" opacity="0.35"/>
<circle cx="72" cy="240" r="9" fill="rgb(0,60,254)"/>
<circle cx="96" cy="240" r="12" fill="rgb(29,16,253)" opacity="0.35"/>
<circle cx="96" cy="240" r="9" fill="rgb(29,16,253)"/>
<circle cx="120" cy="240" r="12" fill="rgb(148,0,251)" opacity="0.35"/>
<circle cx="120" cy="240" r="9" fill="rgb(148,0,251)"/>
<circle cx="144" cy="240" r="12" fill="rgb(255,41,0)" opacity="0.35"/>
<circle cx="144" cy="240" r="9" fill="rgb(255,41,0)"/>
<circle cx="168" cy="240" r="12" fill="rgb(255,130,0)" opacity="0.35"/>
<circle cx="168" cy="240" r="9" fill="rgb(255,130,0)"/>
<circle cx="192" cy="240" r="12" fill="rgb(255,197,0)" opacity="0.35"/>
<circle cx="192" cy="240" r="9" fill="rgb(255,197,0)"/>
<circle cx="216" cy="240" r="12" fill="rgb(124,207,0)" opacity="0.35"/>
<circle cx="216" cy="240" r="9" fill="rgb(124,207,0)"/>
<circle cx="240" cy="240" r="12" fill="rgb(0,202,36)" opacity="0.35"/>
<circle cx="240" cy="240" r="9" fill="rgb(0,202,36)"/>
<circle cx="264" cy="240" r="12" fill="rgb(0,199,87)" opacity="0.35"/>
<circle cx="264" cy="240" r="9" fill="rgb(0,199,87)"/>
<circle cx="288" cy="240" r="12" fill="rgb(0,199,90)" opacity="0.35"/>
<circle cx="288" cy="240" r="9" fill="rgb(0,199,90)"/>
<circle cx="312" cy="240" r="12" fill="rgb(0,201,61)" opacity="0.35"/>
<circle cx="312" cy="240" r="9" fill="rgb(0,201,61)"/>
<circle cx="336" cy="240" r="12" fill="rgb(47,204,18)" opacity="0.35"/>
<circle cx="336" cy="240" r="9" fill="rgb(47,204,18)"/>
<circle cx="360" cy="240" r="12" fill="rgb(147,208,0)" opacity="0.35"/>
<circle cx="360" cy="240" r="9" fill="rgb(147,208,0)"/>
<circle cx="384" cy="240" r="12" fill="rgb(237,211,0)" opacity="0.35"/>
<circle cx="384" cy="240" r="9" fill="rgb(237,211,0)"/>
<circle cx="24" cy="264" r="12" fill="rgb(52,5,253)" opacity="0.35"/>
<circle cx="24" cy="264" r="9" fill="rgb(52,5,253)"/>
<circle cx="48" cy="264" r="12" fill="rgb(14,22,254)" opacity="0.35"/>
<circle cx="48" cy="264" r="9" fill="rgb(14,22,254)"/>
<circle cx="72" cy="264" r="12" fill="rgb(28,16,253)" opacity="0.35"/>
<circle cx="72" cy="264" r="9" fill="rgb(28,16,253)"/>
<circle cx="96" cy="264" r="12" fill="rgb(101,0,252)" opacity="0.35"/>
<circle cx="96" cy="264" r="9" fill="rgb(101,0,252)"/>
<circle cx="120" cy="264" r="12" fill="rgb(211,0,249)" opacity="0.35"/>
<circle cx="120" cy="264" r="9" fill="rgb(211,0,249)"/>
<circle cx="144" cy="264" r="12" fill="rgb(255,79,0)" opacity="0.35"/>
<circle cx="144" cy="264" r="9" fill="rgb(255,79,0)"/>
<circle cx="168" cy="264" r="12" fill="rgb(255,157,0)" opacity="0.35"/>
<circle cx="168" cy="264" r="9" fill="rgb(255,157,0)"/>
<circle cx="192" cy="264" r="12" fill="rgb(228,211,0)" opacity="0.35"/>
<circle cx="192" cy="264" r="9" fill="rgb(228,211,0)"/>
<circle cx="216" cy="264" r="12" fill="rgb(37,204,22)" opacity="0.35"/>
<circle cx="216" cy="264" r="9" fill="rgb(37,204,22)"/>
<circle cx="240" cy="264" r="12" fill="rgb(0,196,109)" opacity="0.35"/>
<circle cx="240" cy="264" r="9" fill="rgb(0,196,109)"/>
<circle cx="264" cy="264" r="12" fill="rgb(0,191,149)" opacity="0.35"/>
<circle cx="264" cy="264" r="9" fill="rgb(0,191,149)"/>
<circle cx="288" cy="264" r="12" fill="rgb(0,190,158)" opacity="0.35"/>
<circle cx="288" cy="264" r="9" fill="rgb(0,190,158)"/>
<circle cx="312" cy="264" r="12" fill="rgb(0,192,141)" opacity="0.35"/>
<circle cx="312" cy="264" r="9" fill="rgb(0,192,141)"/>
<circle cx="336" cy="264" r="12" fill="rgb(0,197,104)" opacity="0.35"/>
<circle cx="336" cy="264" r="9" fill="rgb(0,197,104)"/>
<circle cx="360" cy="264" r="12" fill="rgb(1,202,34)" opacity="0.35"/>
<circle cx="360" cy="264" r="9" fill="rgb(1,202,34)"/>
<circle cx="384" cy="264" r="12" fill="rgb(106,206,0)" opacity="0.35"/>
<circle cx="384" cy="264" r="9" fill="rgb(106,206,0)"/>
<circle cx="24" cy="288" r="12" fill="rgb(124,0,251)" opacity="0.35"/>
<circle cx="24" cy="288" r="9" fill="rgb(124,0,251)"/>
<circle cx="48" cy="288" r="12" fill="rgb(79,0,252)" opacity="0.35"/>
<circle cx="48" cy="288" r="9" fill="rgb(79,0,252)"/>
<circle cx="72" cy="288" r="12" fill="rgb(96,0,252)" opacity="0.35"/>
<circle cx="72" cy="288" r="9" fill="rgb(96,0,252)"/>
<circle cx="96" cy="288" r="12" fill="rgb(167,0,250)" opacity="0.35"/>
<circle cx="96" cy="288" r="9" fill="rgb(167,0,250)"/>
<circle cx="120" cy="288" r="12" fill="rgb(255,31,0)" opacity="0.35"/>
<circle cx="120" cy="288" r="9" fill="rgb(255,31,0)"/>
<circle cx="144" cy="288" r="12" fill="rgb(255,109,0)" opacity="0.35"/>
<circle cx="144" cy="288" r="9" fill="rgb(255,109,0)"/>
<circle cx="168" cy="288" r="12" fill="rgb(255,177,0)" opacity="0.35"/>
<circle cx="168" cy="288" r="9" fill="rgb(255,177,0)"/>
<circle cx="192" cy="288" r="12" fill="rgb(173,209,0)" opacity="0.35"/>
<circle cx="192" cy="288" r="9" fill="rgb(173,209,0)"/>
<circle cx="216" cy="288" r="12" fill="rgb(0,201,61)" opacity="0.35"/>
<circle cx="216" cy="288" r="9" fill="rgb(0,201,61)"/>
<circle cx="240" cy="288" r="12" fill="rgb(0,191,146)" opacity="0.35"/>
<circle cx="240" cy="288" r="9" fill="rgb(0,191,146)"/>
<circle cx="264" cy="288" r="12" fill="rgb(0,185,192)" opacity="0.35"/>
<circle cx="264" cy="288" r="9" fill="rgb(0,185,192)"/>
<circle cx="288" cy="288" r="12" fill="rgb(0,182,208)" opacity="0.35"/>
<circle cx="288" cy="288" r="9" fill="rgb(0,182,208)"/>
<circle cx="312" cy="288" r="12" fill="rgb(0,184,197)" opacity="0.35"/>
<circle cx="312" cy="288" r="9" fill="rgb(0,184,197)"/>
<circle cx="336" cy="288" r="12" fill="rgb(0,189,164)" opacity="0.35"/>
<circle cx="336" cy="288" r="9" fill="rgb(0,189,164)"/>
<circle cx="360" cy="288" r="12" fill="rgb(0,195,116)" opacity="0.35"/>
<circle cx="360" cy="288" r="9" fill="rgb(0,195,116)"/>
<circle cx="384" cy="288" r="12" fill="rgb(0,202,48)" opacity="0.35"/>
<circle cx="384" cy="288" r="9" fill="rgb(0,202,48)"/>
<circle cx="24" cy="312" r="12" fill="rgb(185,0,250)" opacity="0.35"/>
<circle cx="24" cy="312" r="9" fill="rgb(185,0,250)"/>
<circle cx="48" cy="312" r="12" fill="rgb(147,0,251)" opacity="0.35"/>
<circle cx="48" cy="312" r="9" fill="rgb(147,0,251)"/>
<circle cx="72" cy="312" r="12" fill="rgb(159,0,250)" opacity="0.35"/>
<circle cx="72" cy="312" r="9" fill="rgb(159,0,250)"/>
<circle cx="96" cy="312" r="12" fill="rgb(255,0,0)" opacity="0.35"/>
<circle cx="96" cy="312" r="9" fill="rgb(255,0,0)"/>
<circle cx="120" cy="312" r="12" fill="rgb(255,58,0)" opacity="0.35"/>
<circle cx="120" cy="312" r="9" fill="rgb(255,58,0)"/>
<circle cx="144" cy="312" r="12" fill="rgb(255,130,0)" opacity="0.35"/>
<circle cx="144" cy="312" r="9" fill="rgb(255,130,0)"/>
<circle cx="168" cy="312" r="12" fill="rgb(255,191,0)" opacity="0.35"/>
<circle cx="168" cy="312" r="9" fill="rgb(255,191,0)"/>
<circle cx="192" cy="312" r="12" fill="rgb(131,207,0)" opacity="0.35"/>
<circle cx="192" cy="312" r="9" fill="rgb(131,207,0)"/>
<circle cx="216" cy="312" r="12" fill="rgb(0,199,88)" opacity="0.35"/>
<circle cx="216" cy="312" r="9" fill="rgb(0,199,88)"/>
<circle cx="240" cy="312" r="12" fill="rgb(0,188,167)" opacity="0.35"/>
<circle cx="240" cy="312" r="9" fill="rgb(0,188,167)"/>
<circle cx="264" cy="312" r="12" fill="rgb(0,181,218)" opacity="0.35"/>
<circle cx="264" cy="312" r="9" fill="rgb(0,181,218)"/>
<circle cx="288" cy="312" r="12" fill="rgb(0,178,240)" opacity="0.35"/>
<circle cx="288" cy="312" r="9" fill="rgb(0,178,240)"/>
<circle cx="312" cy="312" r="12" fill="rgb(0,179,234)" opacity="0.35"/>
<circle cx="312" cy="312" r="9" fill="rgb(0,179,234)"/>
<circle cx="336" cy="312" r="12" fill="rgb(0,183,206)" opacity="0.35"/>
<circle cx="336" cy="312" r="9" fill="rgb(0,183,206)"/>
<circle cx="360" cy="312" r="12" fill="rgb(0,189,161)" opacity="0.35"/>
<circle cx="360" cy="312" r="9" fill="rgb(0,189,161)"/>
<circle cx="384" cy="312" r="12" fill="rgb(0,197,108)" opacity="0.35"/>
<circle cx="384" cy="312" r="9" fill="rgb(0,197,108)"/>
<circle cx="24" cy="336" r="12" fill="rgb(255,13,0)" opacity="0.35"/>
<circle cx="24" cy="336" r="9" fill="rgb(255,13,0)"/>
<circle cx="48" cy="336" r="12" fill="rgb(199,0,249)" opacity="0.35"/>
<circle cx="48" cy="336" r="9" fill="rgb(199,0,249)"/>
<circle cx="72" cy="336" r="12" fill="rgb(205,0,249)" opacity="0.35"/>
<circle cx="72" cy="336" r="9" fill="rgb(205,0,249)"/>
<circle cx="96" cy="336" r="12" fill="rgb(255,26,0)" opacity="0.35"/>
<circle cx="96" cy="336" r="9" fill="rgb(255,26,0)"/>
<circle cx="120" cy="336" r="12" fill="rgb(255,79,0)" opacity="0.35"/>
<circle cx="120" cy="336" r="9" fill="rgb(255,79,0)"/>
<circle cx="144" cy="336" r="12" fill="rgb(255,141,0)" opacity="0.35"/>
<circle cx="144" cy="336" r="9" fill="rgb(255,141,0)"/>
<circle cx="168" cy="336" r="12" fill="rgb(255,200,0)" opacity="0.35"/>
<circle cx="168" cy="336" r="9" fill="rgb(255,200,0)"/>
<circle cx="192" cy="336" r="12" fill="rgb(110,207,0)" opacity="0.35"/>
<circle cx="192" cy="336" r="9" fill="rgb(110,207,0)"/>
<circle cx="216" cy="336" r="12" fill="rgb(0,198,95)" opacity="0.35"/>
<circle cx="216" cy="336" r="9" fill="rgb(0,198,95)"/>
<circle cx="240" cy="336" r="12" fill="rgb(0,187,174)" opacity="0.35"/>
<circle cx="240" cy="336" r="9" fill="rgb(0,187,174)"/>
<circle cx="264" cy="336" r="12" fill="rgb(0,180,228)" opacity="0.35"/>
<circle cx="264" cy="336" r="9" fill="rgb(0,180,228)"/>
<circle cx="288" cy="336" r="12" fill="rgb(0,176,253)" opacity="0.35"/>
<circle cx="288" cy="336" r="9" fill="rgb(0,176,253)"/>
<circle cx="312" cy="336" r="12" fill="rgb(0,176,252)" opacity="0.35"/>
<circle cx="312" cy="336" r="9" fill="rgb(0,176,252)"/>
<circle cx="336" cy="336" r="12" fill="rgb(0,180,228)" opacity="0.35"/>
<circle cx="336" cy="336" r="9" fill="rgb(0,180,228)"/>
<circle cx="360" cy="336" r="12" fill="rgb(0,185,187)" opacity="0.35"/>
<circle cx="360" cy="336" r="9" fill="rgb(0,185,187)"/>
<circle cx="384" cy="336" r="12" fill="rgb(0,193,137)" opacity="0.35"/>
<circle cx="384" cy="336" r="9" fill="rgb(0,193,137)"/>
<circle cx="24" cy="360" r="12" fill="rgb(255,42,0)" opacity="0.35"/>
<circle cx="24" cy="360" r="9" fill="rgb(255,42,0)"/>
<circle cx="48" cy="360" r="12" fill="rgb(255,18,0)" opacity="0.35"/>
<circle cx="48" cy="360" r="9" fill="rgb(255,18,0)"/>
<circle cx="72" cy="360" r="12" fill="rgb(255,20,0)" opacity="0.35"/>
<circle cx="72" cy="360" r="9" fill="rgb(255,20,0)"/>
<circle cx="96" cy="360" r="12" fill="rgb(255,46,0)" opacity="0.35"/>
<circle cx="96" cy="360" r="9" fill="rgb(255,46,0)"/>
<circle cx="120" cy="360" r="12" fill="rgb(255,94,0)" opacity="0.35"/>
<circle cx="120" cy="360" r="9" fill="rgb(255,94,0)"/>
<circle cx="144" cy="360" r="12" fill="rgb(255,149,0)" opacity="0.35"/>
<circle cx="144" cy="360" r="9" fill="rgb(255,149,0)"/>
<circle cx="168" cy="360" r="12" fill="rgb(255,203,0)" opacity="0.35"/>
<circle cx="168" cy="360" r="9" fill="rgb(255,203,0)"/>
<circle cx="192" cy="360" r="12" fill="rgb(110,207,0)" opacity="0.35"/>
<circle cx="192" cy="360" r="9" fill="rgb(110,207,0)"/>
<circle cx="216" cy="360" r="12" fill="rgb(0,199,91)" opacity="0.35"/>
<circle cx="216" cy="360" r="9" fill="rgb(0,199,91)"/>
<circle cx="240" cy="360" r="12" fill="rgb(0,188,169)" opacity="0.35"/>
<circle cx="240" cy="360" r="9" fill="rgb(0,188,169)"/>
<circle cx="264" cy="360" r="12" fill="rgb(0,180,223)" opacity="0.35"/>
<circle cx="264" cy="360" r="9" fill="rgb(0,180,223)"/>
<circle cx="288" cy="360" r="12" fill="rgb(0,177,251)" opacity="0.35"/>
<circle cx="288" cy="360" r="9" fill="rgb(0,177,251)"/>
<circle cx="312" cy="360" r="12" fill="rgb(0,176,253)" opacity="0.35"/>
<circle cx="312" cy="360" r="9" fill="rgb(0,176,253)"/>
<circle cx="336" cy="360" r="12" fill="rgb(0,179,233)" opacity="0.35"/>
<circle cx="336" cy="360" r="9" fill="rgb(0,179,233)"/>
<circle cx="360" cy="360" r="12" fill="rgb(0,184,195)" opacity="0.35"/>
<circle cx="360" cy="360" r="9" fill="rgb(0,184,195)"/>
<circle cx="384" cy="360" r="12" fill="rgb(0,191,147)" opacity="0.35"/>
<circle cx="384" cy="360" r="9" fill="rgb(0,191,147)"/>
<circle cx="24" cy="384" r="12" fill="rgb(255,66,0)" opacity="0.35"/>
<circle cx="24" cy="384" r="9" fill="rgb(255,66,0)"/>
<circle cx="48" cy="384" r="12" fill="rgb(255,42,0)" opacity="0.35"/>
<circle cx="48" cy="384" r="9" fill="rgb(255,42,0)"/>
<circle cx="72" cy="384" r="12" fill="rgb(255,41,0)" opacity="0.35"/>
<circle cx="72" cy="384" r="9" fill="rgb(255,41,0)"/>
<circle cx="96" cy="384" r="12" fill="rgb(255,63,0)" opacity="0.35"/>
<circle cx="96" cy="384" r="9" fill="rgb(255,63,0)"/>
<circle cx="120" cy="384" r="12" fill="rgb(255,106,0)" opacity="0.35"/>
<circle cx="120" cy="384" r="9" fill="rgb(255,106,0)"/>
<circle cx="144" cy="384" r="12" fill="rgb(255,153,0)" opacity="0.35"/>
<circle cx="144" cy="384" r="9" fill="rgb(255,153,0)"/>
<circle cx="168" cy="384" r="12" fill="rgb(255,203,0)" opacity="0.35"/>
<circle cx="168" cy="384" r="9" fill="rgb(255,203,0)"/>
<circle cx="192" cy="384" r="12" fill="rgb(125,207,0)" opacity="0.35"/>
<circle cx="192" cy="384" r="9" fill="rgb(125,207,0)"/>
<circle cx="216" cy="384" r="12" fill="rgb(0,200,77)" opacity="0.35"/>
<circle cx="216" cy="384" r="9" fill="rgb(0,200,77)"/>
<circle cx="240" cy="384" r="12" fill="rgb(0,190,153)" opacity="0.35"/>
<circle cx="240" cy="384" r="9" fill="rgb(0,190,153)"/>
<circle cx="264" cy="384" r="12" fill="rgb(0,183,207)" opacity="0.35"/>
<circle cx="264" cy="384" r="9" fill="rgb(0,183,207)"/>
<circle cx="288" cy="384" r="12" fill="rgb(0,179,235)" opacity="0.35"/>
<circle cx="288" cy="384" r="9" fill="rgb(0,179,235)"/>
<circle cx="312" cy="384" r="12" fill="rgb(0,178,239)" opacity="0.35"/>
<circle cx="312" cy="384" r="9" fill="rgb(0,178,239)"/>
<circle cx="336" cy="384" r="12" fill="rgb(0,181,221)" opacity="0.35"/>
<circle cx="336" cy="384" r="9" fill="rgb(0,181,221)"/>
<circle cx="360" cy="384" r="12" fill="rgb(0,186,186)" opacity="0.35"/>
<circle cx="360" cy="384" r="9" fill="rgb(0,186,186)"/>
<circle cx="384" cy="384" r="12" fill="rgb(0,192,139)" opacity="0.35"/>
<circle cx="384" cy="384" r="9" fill="rgb(0,192,139)"/>
</svg>
