<svg xmlns="http://www.w3.org/2000/svg" viewBox="0 0 408 408" width="408" height="408" role="img" aria-label="LED preview of the Spectra Mosaic example graph">
<rect width="408" height="408" rx="10" fill="#05070a"/>
<circle cx="24" cy="24" r="12" fill="rgb(126,29,17)" opacity="0.35"/>
<circle cx="24" cy="24" r="9" fill="rgb(126,29,17)"/>
<circle cx="48" cy="24" r="12" fill="rgb(126,29,17)" opacity="0.35"/>
<circle cx="48" cy="24" r="9" fill="rgb(126,29,17)"/>
<circle cx="72" cy="24" r="12" fill="rgb(126,29,17)" opacity="0.35"/>
<circle cx="72" cy="24" r="9" fill="rgb(126,29,17)"/>
<circle cx="96" cy="24" r="12" fill="rgb(126,29,17)" opacity="0.35"/>
<circle cx="96" cy="24" r="9" fill="rgb(126,29,17)"/>
<circle cx="120" cy="24" r="12" fill="rgb(113,31,11)" opacity="0.35"/>
<circle cx="120" cy="24" r="9" fill="rgb(113,31,11)"/>
<circle cx="144" cy="24" r="12" fill="rgb(113,31,11)" opacity="0.35"/>
<circle cx="144" cy="24" r="9" fill="rgb(113,31,11)"/>
<circle cx="168" cy="24" r="12" fill="rgb(113,31,11)" opacity="0.35"/>
<circle cx="168" cy="24" r="9" fill="rgb(113,31,11)"/>
<circle cx="192" cy="24" r="12" fill="rgb(113,31,11)" opacity="0.35"/>
<circle cx="192" cy="24" r="9" fill="rgb(113,31,11)"/>
<circle cx="216" cy="24" r="12" fill="rgb(101,31,5)" opacity="0.35"/>
<circle cx="216" cy="24" r="9" fill="rgb(101,31,5)"/>
<circle cx="240" cy="24" r="12" fill="rgb(101,31,5)" opacity="0.35"/>
<circle cx="240" cy="24" r="9" fill="rgb(101,31,5)"/>
<circle cx="264" cy="24" r="12" fill="rgb(101,31,5)" opacity="0.35"/>
<circle cx="264" cy="24" r="9" fill="rgb(101,31,5)"/>
<circle cx="288" cy="24" r="12" fill="rgb(101,31,5)" opacity="0.35"/>
<circle cx="288" cy="24" r="9" fill="rgb(101,31,5)"/>
<circle cx="312" cy="24" r="12" fill="rgb(96,32,2)" opacity="0.35"/>
<circle cx="312" cy="24" r="9" fill="rgb(96,32,2)"/>
<circle cx="336" cy="24" r="12" fill="rgb(96,32,2)" opacity="0.35"/>
<circle cx="336" cy="24" r="9" fill="rgb(96,32,2)"/>
<circle cx="360" cy="24" r="12" fill="rgb(96,32,2)" opacity="0.35"/>
<circle cx="360" cy="24" r="9" fill="rgb(96,32,2)"/>
<circle cx="384" cy="24" r="12" fill="rgb(96,32,2)" opacity="0.35"/>
<circle cx="384" cy="24" r="9" fill="rgb(96,32,2)"/>
<circle cx="24" cy="48" r="12" fill="rgb(126,29,17)" opacity="0.35"/>
<circle cx="24" cy="48" r="9" fill="rgb(126,29,17)"/>
<circle cx="48" cy="48" r="12" fill="rgb(126,29,17)" opacity="0.35"/>
<circle cx="48" cy="48" r="9" fill="rgb(126,29,17)"/>
<circle cx="72" cy="48" r="12" fill="rgb(126,29,17)" opacity="0.35"/>
<circle cx="72" cy="48" r="9" fill="rgb(126,29,17)"/>
<circle cx="96" cy="48" r="12" fill="rgb(126,29,17)" opacity="0.35"/>
<circle cx="96" cy="48" r="9" fill="rgb(126,29,17)"/>
<circle cx="120" cy="48" r="12" fill="rgb(113,31,11)" opacity="0.35"/>
<circle cx="120" cy="48" r="9" fill="rgb(113,31,11)"/>
<circle cx="144" cy="48" r="12" fill="rgb(113,31,11)" opacity="0.35"/>
<circle cx="144" cy="48" r="9" fill="rgb(113,31,11)"/>
<circle cx="168" cy="48" r="12" fill="rgb(113,31,11)" opacity="0.35"/>
<circle cx="168" cy="48" r="9" fill="rgb(113,31,11)"/>
<circle cx="192" cy="48" r="12" fill="rgb(113,31,11)" opacity="0.35"/>
<circle cx="192" cy="48" r="9" fill="rgb(113,31,11)"/>
<circle cx="216" cy="48" r="12" fill="rgb(101,31,5)" opacity="0.35"/>
<circle cx="216" cy="48" r="9" fill="rgb(101,31,5)"/>
<circle cx="240" cy="48" r="12" fill="rgb(101,31,5)" opacity="0.35"/>
<circle cx="240" cy="48" r="9" fill="rgb(101,31,5)"/>
<circle cx="264" cy="48" r="12" fill="rgb(101,31,5)" opacity="0.35"/>
<circle cx="264" cy="48" r="9" fill="rgb(101,31,5)"/>
<circle cx="288" cy="48" r="12" fill="rgb(101,31,5)" opacity="0.35"/>
<circle cx="288" cy="48" r="9" fill="rgb(101,31,5)"/>
<circle cx="312" cy="48" r="12" fill="rgb(96,32,2)" opacity="0.35"/>
<circle cx="312" cy="48" r="9" fill="rgb(96,32,2)"/>
<circle cx="336" cy="48" r="12" fill="rgb(96,32,2)" opacity="0.35"/>
<circle cx="336" cy="48" r="9" fill="rgb(96,32,2)"/>
<circle cx="360" cy="48" r="12" fill="rgb(96,32,2)" opacity="0.35"/>
<circle cx="360" cy="48" r="9" fill="rgb(96,32,2)"/>
<circle cx="384" cy="48" r="12" fill="rgb(96,32,2)" opacity="0.35"/>
<circle cx="384" cy="48" r="9" fill="rgb(96,32,2)"/>
<circle cx="24" cy="72" r="12" fill="rgb(126,29,17)" opacity="0.35"/>
<circle cx="24" cy="72" r="9" fill="rgb(126,29,17)"/>
<circle cx="48" cy="72" r="12" fill="rgb(126,29,17)" opacity="0.35"/>
<circle cx="48" cy="72" r="9" fill="rgb(126,29,17)"/>
<circle cx="72" cy="72" r="12" fill="rgb(126,29,17)" opacity="0.35"/>
<circle cx="72" cy="72" r="9" fill="rgb(126,29,17)"/>
<circle cx="96" cy="72" r="12" fill="rgb(126,29,17)" opacity="0.35"/>
<circle cx="96" cy="72" r="9" fill="rgb(126,29,17)"/>
<circle cx="120" cy="72" r="12" fill="rgb(113,31,11)" opacity="0.35"/>
<circle cx="120" cy="72" r="9" fill="rgb(113,31,11)"/>
<circle cx="144" cy="72" r="12" fill="rgb(113,31,11)" opacity="0.35"/>
<circle cx="144" cy="72" r="9" fill="rgb(113,31,11)"/>
<circle cx="168" cy="72" r="12" fill="rgb(113,31,11)" opacity="0.35"/>
<circle cx="168" cy="72" r="9" fill="rgb(113,31,11)"/>
<circle cx="192" cy="72" r="12" fill="rgb(113,31,11)" opacity="0.35"/>
<circle cx="192" cy="72" r="9" fill="rgb(113,31,11)"/>
<circle cx="216" cy="72" r="12" fill="rgb(101,31,5)" opacity="0.35"/>
<circle cx="216" cy="72" r="9" fill="rgb(101,31,5)"/>
<circle cx="240" cy="72" r="12" fill="rgb(101,31,5)" opacity="0.35"/>
<circle cx="240" cy="72" r="9" fill="rgb(101,31,5)"/>
<circle cx="264" cy="72" r="12" fill="rgb(101,31,5)" opacity="0.35"/>
<circle cx="264" cy="72" r="9" fill="rgb(101,31,5)"/>
<circle cx="288" cy="72" r="12" fill="rgb(101,31,5)" opacity="0.35"/>
<circle cx="288" cy="72" r="9" fill="rgb(101,31,5)"/>
<circle cx="312" cy="72" r="12" fill="rgb(96,32,2)" opacity="0.35"/>
<circle cx="312" cy="72" r="9" fill="rgb(96,32,2)"/>
<circle cx="336" cy="72" r="12" fill="rgb(96,32,2)" opacity="0.35"/>
<circle cx="336" cy="72" r="9" fill="rgb(96,32,2)"/>
<circle cx="360" cy="72" r="12" fill="rgb(96,32,2)" opacity="0.35"/>
<circle cx="360" cy="72" r="9" fill="rgb(96,32,2)"/>
<circle cx="384" cy="72" r="12" fill="rgb(96,32,2)" opacity="0.35"/>
<circle cx="384" cy="72" r="9" fill="rgb(96,32,2)"/>
<circle cx="24" cy="96" r="12" fill="rgb(126,29,17)" opacity="0.35"/>
<circle cx="24" cy="96" r="9" fill="rgb(126,29,17)"/>
<circle cx="48" cy="96" r="12" fill="rgb(126,29,17)" opacity="0.35"/>
<circle cx="48" cy="96" r="9" fill="rgb(126,29,17)"/>
<circle cx="72" cy="96" r="12" fill="rgb(126,29,17)" opacity="0.35"/>
<circle cx="72" cy="96" r="9" fill="rgb(126,29,17)"/>
<circle cx="96" cy="96" r="12" fill="rgb(126,29,17)" opacity="0.35"/>
<circle cx="96" cy="96" r="9" fill="rgb(126,29,17)"/>
<circle cx="120" cy="96" r="12" fill="rgb(113,31,11)" opacity="0.35"/>
<circle cx="120" cy="96" r="9" fill="rgb(113,31,11)"/>
<circle cx="144" cy="96" r="12" fill="rgb(113,31,11)" opacity="0.35"/>
<circle cx="144" cy="96" r="9" fill="rgb(113,31,11)"/>
<circle cx="168" cy="96" r="12" fill="rgb(113,31,11)" opacity="0.35"/>
<circle cx="168" cy="96" r="9" fill="rgb(113,31,11)"/>
<circle cx="192" cy="96" r="12" fill="rgb(113,31,11)" opacity="0.35"/>
<circle cx="192" cy="96" r="9" fill="rgb(113,31,11)"/>
<circle cx="216" cy="96" r="12" fill="rgb(101,31,5)" opacity="0.35"/>
<circle cx="216" cy="96" r="9" fill="rgb(101,31,5)"/>
<circle cx="240" cy="96" r="12" fill="rgb(101,31,5)" opacity="0.35"/>
<circle cx="240" cy="96" r="9" fill="rgb(101,31,5)"/>
<circle cx="264" cy="96" r="12" fill="rgb(101,31,5)" opacity="0.35"/>
<circle cx="264" cy="96" r="9" fill="rgb(101,31,5)"/>
<circle cx="288" cy="96" r="12" fill="rgb(101,31,5)" opacity="0.35"/>
<circle cx="288" cy="96" r="9" fill="rgb(101,31,5)"/>
<circle cx="312" cy="96" r="12" fill="rgb(96,32,2)" opacity="0.35"/>
<circle cx="312" cy="96" r="9" fill="rgb(96,32,2)"/>
<circle cx="336" cy="96" r="12" fill="rgb(96,32,2)" opacity="0.35"/>
<circle cx="336" cy="96" r="9" fill="rgb(96,32,2)"/>
<circle cx="360" cy="96" r="12" fill="rgb(96,32,2)" opacity="0.35"/>
<circle cx="360" cy="96" r="9" fill="rgb(96,32,2)"/>
<circle cx="384" cy="96" r="12" fill="rgb(96,32,2)" opacity="0.35"/>
<circle cx="384" cy="96" r="9" fill="rgb(96,32,2)"/>
<circle cx="24" cy="120" r="12" fill="rgb(107,29,10)" opacity="0.35"/>
<circle cx="24" cy="120" r="9" fill="rgb(107,29,10)"/>
<circle cx="48" cy="120" r="12" fill="rgb(107,29,10)" opacity="0.35"/>
<circle cx="48" cy="120" r="9" fill="rgb(107,29,10)"/>
<circle cx="72" cy="120" r="12" fill="rgb(107,29,10)" opacity="0.35"/>
<circle cx="72" cy="120" r="9" fill="rgb(107,29,10)"/>
<circle cx="96" cy="120" r="12" fill="rgb(107,29,10)" opacity="0.35"/>
<circle cx="96" cy="120" r="9" fill="rgb(107,29,10)"/>
<circle cx="120" cy="120" r="12" fill="rgb(99,30,5)" opacity="0.35"/>
<circle cx="120" cy="120" r="9" fill="rgb(99,30,5)"/>
<circle cx="144" cy="120" r="12" fill="rgb(99,30,5)" opacity="0.35"/>
<circle cx="144" cy="120" r="9" fill="rgb(99,30,5)"/>
<circle cx="168" cy="120" r="12" fill="rgb(99,30,5)" opacity="0.35"/>
<circle cx="168" cy="120" r="9" fill="rgb(99,30,5)"/>
<circle cx="192" cy="120" r="12" fill="rgb(99,30,5)" opacity="0.35"/>
<circle cx="192" cy="120" r="9" fill="rgb(99,30,5)"/>
<circle cx="216" cy="120" r="12" fill="rgb(99,33,2)" opacity="0.35"/>
<circle cx="216" cy="120" r="9" fill="rgb(99,33,2)"/>
<circle cx="240" cy="120" r="12" fill="rgb(99,33,2)" opacity="0.35"/>
<circle cx="240" cy="120" r="9" fill="rgb(99,33,2)"/>
<circle cx="264" cy="120" r="12" fill="rgb(99,33,2)" opacity="0.35"/>
<circle cx="264" cy="120" r="9" fill="rgb(99,33,2)"/>
<circle cx="288" cy="120" r="12" fill="rgb(99,33,2)" opacity="0.35"/>
<circle cx="288" cy="120" r="9" fill="rgb(99,33,2)"/>
<circle cx="312" cy="120" r="12" fill="rgb(106,41,3)" opacity="0.35"/>
<circle cx="312" cy="120" r="9" fill="rgb(106,41,3)"/>
<circle cx="336" cy="120" r="12" fill="rgb(106,41,3)" opacity="0.35"/>
<circle cx="336" cy="120" r="9" fill="rgb(106,41,3)"/>
<circle cx="360" cy="120" r="12" fill="rgb(106,41,3)" opacity="0.35"/>
<circle cx="360" cy="120" r="9" fill="rgb(106,41,3)"/>
<circle cx="384" cy="120" r="12" fill="rgb(106,41,3)" opacity="0.35"/>
<circle cx="384" cy="120" r="9" fill="rgb(106,41,3)"/>
<circle cx="24" cy="144" r="12" fill="rgb(107,29,10)" opacity="0.35"/>
<circle cx="24" cy="144" r="9" fill="rgb(107,29,10)"/>
<circle cx="48" cy="144" r="12" fill="rgb(107,29,10)" opacity="0.35"/>
<circle cx="48" cy="144" r="9" fill="rgb(107,29,10)"/>
<circle cx="72" cy="144" r="12" fill="rgb(107,29,10)" opacity="0.35"/>
<circle cx="72" cy="144" r="9" fill="rgb(107,29,10)"/>
<circle cx="96" cy="144" r="12" fill="rgb(107,29,10)" opacity="0.35"/>
<circle cx="96" cy="144" r="9" fill="rgb(107,29,10)"/>
<circle cx="120" cy="144" r="12" fill="rgb(99,30,5)" opacity="0.35"/>
<circle cx="120" cy="144" r="9" fill="rgb(99,30,5)"/>
<circle cx="144" cy="144" r="12" fill="rgb(99,30,5)" opacity="0.35"/>
<circle cx="144" cy="144" r="9" fill="rgb(99,30,5)"/>
<circle cx="168" cy="144" r="12" fill="rgb(99,30,5)" opacity="0.35"/>
<circle cx="168" cy="144" r="9" fill="rgb(99,30,5)"/>
<circle cx="192" cy="144" r="12" fill="rgb(99,30,5)" opacity="0.35"/>
<circle cx="192" cy="144" r="9" fill="rgb(99,30,5)"/>
<circle cx="216" cy="144" r="12" fill="rgb(99,33,2)" opacity="0.35"/>
<circle cx="216" cy="144" r="9" fill="rgb(99,33,2)"/>
<circle cx="240" cy="144" r="12" fill="rgb(99,33,2)" opacity="0.35"/>
<circle cx="240" cy="144" r="9" fill="rgb(99,33,2)"/>
<circle cx="264" cy="144" r="12" fill="rgb(99,33,2)" opacity="0.35"/>
<circle cx="264" cy="144" r="9" fill="rgb(99,33,2)"/>
<circle cx="288" cy="144" r="12" fill="rgb(99,33,2)" opacity="0.35"/>
<circle cx="288" cy="144" r="9" fill="rgb(99,33,2)"/>
<circle cx="312" cy="144" r="12" fill="rgb(106,41,3)" opacity="0.35"/>
<circle cx="312" cy="144" r="9" fill="rgb(106,41,3)"/>
<circle cx="336" cy="144" r="12" fill="rgb(106,41,3)" opacity="0.35"/>
<circle cx="336" cy="144" r="9" fill="rgb(106,41,3)"/>
<circle cx="360" cy="144" r="12" fill="rgb(106,41,3)" opacity="0.35"/>
<circle cx="360" cy="144" r="9" fill="rgb(106,41,3)"/>
<circle cx="384" cy="144" r="12" fill="rgb(106,41,3)" opacity="0.35"/>
<circle cx="384" cy="144" r="9" fill="rgb(106,41,3)"/>
<circle cx="24" cy="168" r="12" fill="rgb(107,29,10)" opacity="0.35"/>
<circle cx="24" cy="168" r="9" fill="rgb(107,29,10)"/>
<circle cx="48" cy="168" r="12" fill="rgb(107,29,10)" opacity="0.35"/>
<circle cx="48" cy="168" r="9" fill="rgb(107,29,10)"/>
<circle cx="72" cy="168" r="12" fill="rgb(107,29,10)" opacity="0.35"/>
<circle cx="72" cy="168" r="9" fill="rgb(107,29,10)"/>
<circle cx="96" cy="168" r="12" fill="rgb(107,29,10)" opacity="0.35"/>
<circle cx="96" cy="168" r="9" fill="rgb(107,29,10)"/>
<circle cx="120" cy="168" r="12" fill="rgb(99,30,5)" opacity="0.35"/>
<circle cx="120" cy="168" r="9" fill="rgb(99,30,5)"/>
<circle cx="144" cy="168" r="12" fill="rgb(99,30,5)" opacity="0.35"/>
<circle cx="144" cy="168" r="9" fill="rgb(99,30,5)"/>
<circle cx="168" cy="168" r="12" fill="rgb(99,30,5)" opacity="0.35"/>
<circle cx="168" cy="168" r="9" fill="rgb(99,30,5)"/>
<circle cx="192" cy="168" r="12" fill="rgb(99,30,5)" opacity="0.35"/>
<circle cx="192" cy="168" r="9" fill="rgb(99,30,5)"/>
<circle cx="216" cy="168" r="12" fill="rgb(99,33,2)" opacity="0.35"/>
<circle cx="216" cy="168" r="9" fill="rgb(99,33,2)"/>
<circle cx="240" cy="168" r="12" fill="rgb(99,33,2)" opacity="0.35"/>
<circle cx="240" cy="168" r="9" fill="rgb(99,33,2)"/>
<circle cx="264" cy="168" r="12" fill="rgb(99,33,2)" opacity="0.35"/>
<circle cx="264" cy="168" r="9" fill="rgb(99,33,2)"/>
<circle cx="288" cy="168" r="12" fill="rgb(99,33,2)" opacity="0.35"/>
<circle cx="288" cy="168" r="9" fill="rgb(99,33,2)"/>
<circle cx="312" cy="168" r="12" fill="rgb(106,41,3)" opacity="0.35"/>
<circle cx="312" cy="168" r="9" fill="rgb(106,41,3)"/>
<circle cx="336" cy="168" r="12" fill="rgb(106,41,3)" opacity="0.35"/>
<circle cx="336" cy="168" r="9" fill="rgb(106,41,3)"/>
<circle cx="360" cy="168" r="12" fill="rgb(106,41,3)" opacity="0.35"/>
<circle cx="360" cy="168" r="9" fill="rgb(106,41,3)"/>
<circle cx="384" cy="168" r="12" fill="rgb(106,41,3)" opacity="0.35"/>
<circle cx="384" cy="168" r="9" fill="rgb(106,41,3)"/>
<circle cx="24" cy="192" r="12" fill="rgb(107,29,10)" opacity="0.35"/>
<circle cx="24" cy="192" r="9" fill="rgb(107,29,10)"/>
<circle cx="48" cy="192" r="12" fill="rgb(107,29,10)" opacity="0.35"/>
<circle cx="48" cy="192" r="9" fill="rgb(107,29,10)"/>
<circle cx="72" cy="192" r="12" fill="rgb(107,29,10)" opacity="0.35"/>
<circle cx="72" cy="192" r="9" fill="rgb(107,29,10)"/>
<circle cx="96" cy="192" r="12" fill="rgb(107,29,10)" opacity="0.35"/>
<circle cx="96" cy="192" r="9" fill="rgb(107,29,10)"/>
<circle cx="120" cy="192" r="12" fill="rgb(99,30,5)" opacity="0.35"/>
<circle cx="120" cy="192" r="9" fill="rgb(99,30,5)"/>
<circle cx="144" cy="192" r="12" fill="rgb(99,30,5)" opacity="0.35"/>
<circle cx="144" cy="192" r="9" fill="rgb(99,30,5)"/>
<circle cx="168" cy="192" r="12" fill="rgb(99,30,5)" opacity="0.35"/>
<circle cx="168" cy="192" r="9" fill="rgb(99,30,5)"/>
<circle cx="192" cy="192" r="12" fill="rgb(99,30,5)" opacity="0.35"/>
<circle cx="192" cy="192" r="9" fill="rgb(99,30,5)"/>
<circle cx="216" cy="192" r="12" fill="rgb(99,33,2)" opacity="0.35"/>
<circle cx="216" cy="192" r="9" fill="rgb(99,33,2)"/>
<circle cx="240" cy="192" r="12" fill="rgb(99,33,2)" opacity="0.35"/>
<circle cx="240" cy="192" r="9" fill="rgb(99,33,2)"/>
<circle cx="264" cy="192" r="12" fill="rgb(99,33,2)" opacity="0.35"/>
<circle cx="264" cy="192" r="9" fill="rgb(99,33,2)"/>
<circle cx="288" cy="192" r="12" fill="rgb(99,33,2)" opacity="0.35"/>
<circle cx="288" cy="192" r="9" fill="rgb(99,33,2)"/>
<circle cx="312" cy="192" r="12" fill="rgb(106,41,3)" opacity="0.35"/>
<circle cx="312" cy="192" r="9" fill="rgb(106,41,3)"/>
<circle cx="336" cy="192" r="12" fill="rgb(106,41,3)" opacity="0.35"/>
<circle cx="336" cy="192" r="9" fill="rgb(106,41,3)"/>
<circle cx="360" cy="192" r="12" fill="rgb(106,41,3)" opacity="0.35"/>
<circle cx="360" cy="192" r="9" fill="rgb(106,41,3)"/>
<circle cx="384" cy="192" r="12" fill="rgb(106,41,3)" opacity="0.35"/>
<circle cx="384" cy="192" r="9" fill="rgb(106,41,3)"/>
<circle cx="24" cy="216" r="12" fill="rgb(99,30,5)" opacity="0.35"/>
<circle cx="24" cy="216" r="9" fill="rgb(99,30,5)"/>
<circle cx="48" cy="216" r="12" fill="rgb(99,30,5)" opacity="0.35"/>
<circle cx="48" cy="216" r="9" fill="rgb(99,30,5)"/>
<circle cx="72" cy="216" r="12" fill="rgb(99,30,5)" opacity="0.35"/>
<circle cx="72" cy="216" r="9" fill="rgb(99,30,5)"/>
<circle cx="96" cy="216" r="12" fill="rgb(99,30,5)" opacity="0.35"/>
<circle cx="96" cy="216" r="9" fill="rgb(99,30,5)"/>
<circle cx="120" cy="216" r="12" fill="rgb(105,35,2)" opacity="0.35"/>
<circle cx="120" cy="216" r="9" fill="rgb(105,35,2)"/>
<circle cx="144" cy="216" r="12" fill="rgb(105,35,2)" opacity="0.35"/>
<circle cx="144" cy="216" r="9" fill="rgb(105,35,2)"/>
<circle cx="168" cy="216" r="12" fill="rgb(105,35,2)" opacity="0.35"/>
<circle cx="168" cy="216" r="9" fill="rgb(105,35,2)"/>
<circle cx="192" cy="216" r="12" fill="rgb(105,35,2)" opacity="0.35"/>
<circle cx="192" cy="216" r="9" fill="rgb(105,35,2)"/>
<circle cx="216" cy="216" r="12" fill="rgb(115,45,3)" opacity="0.35"/>
<circle cx="216" cy="216" r="9" fill="rgb(115,45,3)"/>
<circle cx="240" cy="216" r="12" fill="rgb(115,45,3)" opacity="0.35"/>
<circle cx="240" cy="216" r="9" fill="rgb(115,45,3)"/>
<circle cx="264" cy="216" r="12" fill="rgb(115,45,3)" opacity="0.35"/>
<circle cx="264" cy="216" r="9" fill="rgb(115,45,3)"/>
<circle cx="288" cy="216" r="12" fill="rgb(115,45,3)" opacity="0.35"/>
<circle cx="288" cy="216" r="9" fill="rgb(115,45,3)"/>
<circle cx="312" cy="216" r="12" fill="rgb(123,60,13)" opacity="0.35"/>
<circle cx="312" cy="216" r="9" fill="rgb(123,60,13)"/>
<circle cx="336" cy="216" r="12" fill="rgb(123,60,13)" opacity="0.35"/>
<circle cx="336" cy="216" r="9" fill="rgb(123,60,13)"/>
<circle cx="360" cy="216" r="12" fill="rgb(123,60,13)" opacity="0.35"/>
<circle cx="360" cy="216" r="9" fill="rgb(123,60,13)"/>
<circle cx="384" cy="216" r="12" fill="rgb(123,60,13)" opacity="0.35"/>
<circle cx="384" cy="216" r="9" fill="rgb(123,60,13)"/>
<circle cx="24" cy="240" r="12" fill="rgb(99,30,5)" opacity="0.35"/>
<circle cx="24" cy="240" r="9" fill="rgb(99,30,5)"/>
<circle cx="48" cy="240" r="12" fill="rgb(99,30,5)" opacity="0.35"/>
<circle cx="48" cy="240" r="9" fill="rgb(99,30,5)"/>
<circle cx="72" cy="240" r="12" fill="rgb(99,30,5)" opacity="0.35"/>
<circle cx="72" cy="240" r="9" fill="rgb(99,30,5)"/>
<circle cx="96" cy="240" r="12" fill="rgb(99,30,5)" opacity="0.35"/>
<circle cx="96" cy="240" r="9" fill="rgb(99,30,5)"/>
<circle cx="120" cy="240" r="12" fill="rgb(105,35,2)" opacity="0.35"/>
<circle cx="120" cy="240" r="9" fill="rgb(105,35,2)"/>
<circle cx="144" cy="240" r="12" fill="rgb(105,35,2)" opacity="0.35"/>
<circle cx="144" cy="240" r="9" fill="rgb(105,35,2)"/>
<circle cx="168" cy="240" r="12" fill="rgb(105,35,2)" opacity="0.35"/>
<circle cx="168" cy="240" r="9" fill="rgb(105,35,2)"/>
<circle cx="192" cy="240" r="12" fill="rgb(105,35,2)" opacity="0.35"/>
<circle cx="192" cy="240" r="9" fill="rgb(105,35,2)"/>
<circle cx="216" cy="240" r="12" fill="rgb(115,45,3)" opacity="0.35"/>
<circle cx="216" cy="240" r="9" fill="rgb(115,45,3)"/>
<circle cx="240" cy="240" r="12" fill="rgb(115,45,3)" opacity="0.35"/>
<circle cx="240" cy="240" r="9" fill="rgb(115,45,3)"/>
<circle cx="264" cy="240" r="12" fill="rgb(115,45,3)" opacity="0.35"/>
<circle cx="264" cy="240" r="9" fill="rgb(115,45,3)"/>
<circle cx="288" cy="240" r="12" fill="rgb(115,45,3)" opacity="0.35"/>
<circle cx="288" cy="240" r="9" fill="rgb(115,45,3)"/>
<circle cx="312" cy="240" r="12" fill="rgb(123,60,13)" opacity="0.35"/>
<circle cx="312" cy="240" r="9" fill="rgb(123,60,13)"/>
<circle cx="336" cy="240" r="12" fill="rgb(123,60,13)" opacity="0.35"/>
<circle cx="336" cy="240" r="9" fill="rgb(123,60,13)"/>
<circle cx="360" cy="240" r="12" fill="rgb(123,60,13)" opacity="0.35"/>
<circle cx="360" cy="240" r="9" fill="rgb(123,60,13)"/>
<circle cx="384" cy="240" r="12" fill="rgb(123,60,13)" opacity="0.35"/>
<circle cx="384" cy="240" r="9" fill="rgb(123,60,13)"/>
<circle cx="24" cy="264" r="12" fill="rgb(99,30,5)" opacity="0.35"/>
<circle cx="24" cy="264" r="9" fill="rgb(99,30,5)"/>
<circle cx="48" cy="264" r="12" fill="rgb(99,30,5)" opacity="0.35"/>
<circle cx="48" cy="264" r="9" fill="rgb(99,30,5)"/>
<circle cx="72" cy="264" r="12" fill="rgb(99,30,5)" opacity="0.35"/>
<circle cx="72" cy="264" r="9" fill="rgb(99,30,5)"/>
<circle cx="96" cy="264" r="12" fill="rgb(99,30,5)" opacity="0.35"/>
<circle cx="96" cy="264" r="9" fill="rgb(99,30,5)"/>
<circle cx="120" cy="264" r="12" fill="rgb(105,35,2)" opacity="0.35"/>
<circle cx="120" cy="264" r="9" fill="rgb(105,35,2)"/>
<circle cx="144" cy="264" r="12" fill="rgb(105,35,2)" opacity="0.35"/>
<circle cx="144" cy="264" r="9" fill="rgb(105,35,2)"/>
<circle cx="168" cy="264" r="12" fill="rgb(105,35,2)" opacity="0.35"/>
<circle cx="168" cy="264" r="9" fill="rgb(105,35,2)"/>
<circle cx="192" cy="264" r="12" fill="rgb(105,35,2)" opacity="0.35"/>
<circle cx="192" cy="264" r="9" fill="rgb(105,35,2)"/>
<circle cx="216" cy="264" r="12" fill="rgb(115,45,3)" opacity="0.35"/>
<circle cx="216" cy="264" r="9" fill="rgb(115,45,3)"/>
<circle cx="240" cy="264" r="12" fill="rgb(115,45,3)" opacity="0.35"/>
<circle cx="240" cy="264" r="9" fill="rgb(115,45,3)"/>
<circle cx="264" cy="264" r="12" fill="rgb(115,45,3)" opacity="0.35"/>
<circle cx="264" cy="264" r="9" fill="rgb(115,45,3)"/>
<circle cx="288" cy="264" r="12" fill="rgb(115,45,3)" opacity="0.35"/>
<circle cx="288" cy="264" r="9" fill="rgb(115,45,3)"/>
<circle cx="312" cy="264" r="12" fill="rgb(123,60,13)" opacity="0.35"/>
<circle cx="312" cy="264" r="9" fill="rgb(123,60,13)"/>
<circle cx="336" cy="264" r="12" fill="rgb(123,60,13)" opacity="0.35"/>
<circle cx="336" cy="264" r="9" fill="rgb(123,60,13)"/>
<circle cx="360" cy="264" r="12" fill="rgb(123,60,13)" opacity="0.35"/>
<circle cx="360" cy="264" r="9" fill="rgb(123,60,13)"/>
<circle cx="384" cy="264" r="12" fill="rgb(123,60,13)" opacity="0.35"/>
<circle cx="384" cy="264" r="9" fill="rgb(123,60,13)"/>
<circle cx="24" cy="288" r="12" fill="rgb(99,30,5)" opacity="0.35"/>
<circle cx="24" cy="288" r="9" fill="rgb(99,30,5)"/>
<circle cx="48" cy="288" r="12" fill="rgb(99,30,5)" opacity="0.35"/>
<circle cx="48" cy="288" r="9" fill="rgb(99,30,5)"/>
<circle cx="72" cy="288" r="12" fill="rgb(99,30,5)" opacity="0.35"/>
<circle cx="72" cy="288" r="9" fill="rgb(99,30,5)"/>
<circle cx="96" cy="288" r="12" fill="rgb(99,30,5)" opacity="0.35"/>
<circle cx="96" cy="288" r="9" fill="rgb(99,30,5)"/>
<circle cx="120" cy="288" r="12" fill="rgb(105,35,2)" opacity="0.35"/>
<circle cx="120" cy="288" r="9" fill="rgb(105,35,2)"/>
<circle cx="144" cy="288" r="12" fill="rgb(105,35,2)" opacity="0.35"/>
<circle cx="144" cy="288" r="9" fill="rgb(105,35,2)"/>
<circle cx="168" cy="288" r="12" fill="rgb(105,35,2)" opacity="0.35"/>
<circle cx="168" cy="288" r="9" fill="rgb(105,35,2)"/>
<circle cx="192" cy="288" r="12" fill="rgb(105,35,2)" opacity="0.35"/>
<circle cx="192" cy="288" r="9" fill="rgb(105,35,2)"/>
<circle cx="216" cy="288" r="12" fill="rgb(115,45,3)" opacity="0.35"/>
<circle cx="216" cy="288" r="9" fill="rgb(115,45,3)"/>
<circle cx="240" cy="288" r="12" fill="rgb(115,45,3)" opacity="0.35"/>
<circle cx="240" cy="288" r="9" fill="rgb(115,45,3)"/>
<circle cx="264" cy="288" r="12" fill="rgb(115,45,3)" opacity="0.35"/>
<circle cx="264" cy="288" r="9" fill="rgb(115,45,3)"/>
<circle cx="288" cy="288" r="12" fill="rgb(115,45,3)" opacity="0.35"/>
<circle cx="288" cy="288" r="9" fill="rgb(115,45,3)"/>
<circle cx="312" cy="288" r="12" fill="rgb(123,60,13)" opacity="0.35"/>
<circle cx="312" cy="288" r="9" fill="rgb(123,60,13)"/>
<circle cx="336" cy="288" r="12" fill="rgb(123,60,13)" opacity="0.35"/>
<circle cx="336" cy="288" r="9" fill="rgb(123,60,13)"/>
<circle cx="360" cy="288" r="12" fill="rgb(123,60,13)" opacity="0.35"/>
<circle cx="360" cy="288" r="9" fill="rgb(123,60,13)"/>
<circle cx="384" cy="288" r="12" fill="rgb(123,60,13)" opacity="0.35"/>
<circle cx="384" cy="288" r="9" fill="rgb(123,60,13)"/>
<circle cx="24" cy="312" r="12" fill="rgb(112,38,2)" opacity="0.35"/>
<circle cx="24" cy="312" r="9" fill="rgb(112,38,2)"/>
<circle cx="48" cy="312" r="12" fill="rgb(112,38,2)" opacity="0.35"/>
<circle cx="48" cy="312" r="9" fill="rgb(112,38,2)"/>
<circle cx="72" cy="312" r="12" fill="rgb(112,38,2)" opacity="0.35"/>
<circle cx="72" cy="312" r="9" fill="rgb(112,38,2)"/>
<circle cx="96" cy="312" r="12" fill="rgb(112,38,2)" opacity="0.35"/>
<circle cx="96" cy="312" r="9" fill="rgb(112,38,2)"/>
<circle cx="120" cy="312" r="12" fill="rgb(125,48,3)" opacity="0.35"/>
<circle cx="120" cy="312" r="9" fill="rgb(125,48,3)"/>
<circle cx="144" cy="312" r="12" fill="rgb(125,48,3)" opacity="0.35"/>
<circle cx="144" cy="312" r="9" fill="rgb(125,48,3)"/>
<circle cx="168" cy="312" r="12" fill="rgb(125,48,3)" opacity="0.35"/>
<circle cx="168" cy="312" r="9" fill="rgb(125,48,3)"/>
<circle cx="192" cy="312" r="12" fill="rgb(125,48,3)" opacity="0.35"/>
<circle cx="192" cy="312" r="9" fill="rgb(125,48,3)"/>
<circle cx="216" cy="312" r="12" fill="rgb(131,64,14)" opacity="0.35"/>
<circle cx="216" cy="312" r="9" fill="rgb(131,64,14)"/>
<circle cx="240" cy="312" r="12" fill="rgb(131,64,14)" opacity="0.35"/>
<circle cx="240" cy="312" r="9" fill="rgb(131,64,14)"/>
<circle cx="264" cy="312" r="12" fill="rgb(131,64,14)" opacity="0.35"/>
<circle cx="264" cy="312" r="9" fill="rgb(131,64,14)"/>
<circle cx="288" cy="312" r="12" fill="rgb(131,64,14)" opacity="0.35"/>
<circle cx="288" cy="312" r="9" fill="rgb(131,64,14)"/>
<circle cx="312" cy="312" r="12" fill="rgb(130,76,23)" opacity="0.35"/>
<circle cx="312" cy="312" r="9" fill="rgb(130,76,23)"/>
<circle cx="336" cy="312" r="12" fill="rgb(130,76,23)" opacity="0.35"/>
<circle cx="336" cy="312" r="9" fill="rgb(130,76,23)"/>
<circle cx="360" cy="312" r="12" fill="rgb(130,76,23)" opacity="0.35"/>
<circle cx="360" cy="312" r="9" fill="rgb(130,76,23)"/>
<circle cx="384" cy="312" r="12" fill="rgb(130,76,23)" opacity="0.35"/>
<circle cx="384" cy="312" r="9" fill="rgb(130,76,23)"/>
<circle cx="24" cy="336" r="12" fill="rgb(112,38,2)" opacity="0.35"/>
<circle cx="24" cy="336" r="9" fill="rgb(112,38,2)"/>
<circle cx="48" cy="336" r="12" fill="rgb(112,38,2)" opacity="0.35"/>
<circle cx="48" cy="336" r="9" fill="rgb(112,38,2)"/>
<circle cx="72" cy="336" r="12" fill="rgb(112,38,2)" opacity="0.35"/>
<circle cx="72" cy="336" r="9" fill="rgb(112,38,2)"/>
<circle cx="96" cy="336" r="12" fill="rgb(112,38,2)" opacity="0.35"/>
<circle cx="96" cy="336" r="9" fill="rgb(112,38,2)"/>
<circle cx="120" cy="336" r="12" fill="rgb(125,48,3)" opacity="0.35"/>
<circle cx="120" cy="336" r="9" fill="rgb(125,48,3)"/>
<circle cx="144" cy="336" r="12" fill="rgb(125,48,3)" opacity="0.35"/>
<circle cx="144" cy="336" r="9" fill="rgb(125,48,3)"/>
<circle cx="168" cy="336" r="12" fill="rgb(125,48,3)" opacity="0.35"/>
<circle cx="168" cy="336" r="9" fill="rgb(125,48,3)"/>
<circle cx="192" cy="336" r="12" fill="rgb(125,48,3)" opacity="0.35"/>
<circle cx="192" cy="336" r="9" fill="rgb(125,48,3)"/>
<circle cx="216" cy="336" r="12" fill="rgb(131,64,14)" opacity="0.35"/>
<circle cx="216" cy="336" r="9" fill="rgb(131,64,14)"/>
<circle cx="240" cy="336" r="12" fill="rgb(131,64,14)" opacity="0.35"/>
<circle cx="240" cy="336" r="9" fill="rgb(131,64,14)"/>
<circle cx="264" cy="336" r="12" fill="rgb(131,64,14)" opacity="0.35"/>
<circle cx="264" cy="336" r="9" fill="rgb(131,64,14)"/>
<circle cx="288" cy="336" r="12" fill="rgb(131,64,14)" opacity="0.35"/>
<circle cx="288" cy="336" r="9" fill="rgb(131,64,14)"/>
<circle cx="312" cy="336" r="12" fill="rgb(130,76,23)" opacity="0.35"/>
<circle cx="312" cy="336" r="9" fill="rgb(130,76,23)"/>
<circle cx="336" cy="336" r="12" fill="rgb(130,76,23)" opacity="0.35"/>
<circle cx="336" cy="336" r="9" fill="rgb(130,76,23)"/>
<circle cx="360" cy="336" r="12" fill="rgb(130,76,23)" opacity="0.35"/>
<circle cx="360" cy="336" r="9" fill="rgb(130,76,23)"/>
<circle cx="384" cy="336" r="12" fill="rgb(130,76,23)" opacity="0.35"/>
<circle cx="384" cy="336" r="9" fill="rgb(130,76,23)"/>
<circle cx="24" cy="360" r="12" fill="rgb(112,38,2)" opacity="0.35"/>
<circle cx="24" cy="360" r="9" fill="rgb(112,38,2)"/>
<circle cx="48" cy="360" r="12" fill="rgb(112,38,2)" opacity="0.35"/>
<circle cx="48" cy="360" r="9" fill="rgb(112,38,2)"/>
<circle cx="72" cy="360" r="12" fill="rgb(112,38,2)" opacity="0.35"/>
<circle cx="72" cy="360" r="9" fill="rgb(112,38,2)"/>
<circle cx="96" cy="360" r="12" fill="rgb(112,38,2)" opacity="0.35"/>
<circle cx="96" cy="360" r="9" fill="rgb(112,38,2)"/>
<circle cx="120" cy="360" r="12" fill="rgb(125,48,3)" opacity="0.35"/>
<circle cx="120" cy="360" r="9" fill="rgb(125,48,3)"/>
<circle cx="144" cy="360" r="12" fill="rgb(125,48,3)" opacity="0.35"/>
<circle cx="144" cy="360" r="9" fill="rgb(125,48,3)"/>
<circle cx="168" cy="360" r="12" fill="rgb(125,48,3)" opacity="0.35"/>
<circle cx="168" cy="360" r="9" fill="rgb(125,48,3)"/>
<circle cx="192" cy="360" r="12" fill="rgb(125,48,3)" opacity="0.35"/>
<circle cx="192" cy="360" r="9" fill="rgb(125,48,3)"/>
<circle cx="216" cy="360" r="12" fill="rgb(131,64,14)" opacity="0.35"/>
<circle cx="216" cy="360" r="9" fill="rgb(131,64,14)"/>
<circle cx="240" cy="360" r="12" fill="rgb(131,64,14)" opacity="0.35"/>
<circle cx="240" cy="360" r="9" fill="rgb(131,64,14)"/>
<circle cx="264" cy="360" r="12" fill="rgb(131,64,14)" opacity="0.35"/>
<circle cx="264" cy="360" r="9" fill="rgb(131,64,14)"/>
<circle cx="288" cy="360" r="12" fill="rgb(131,64,14)" opacity="0.35"/>
<circle cx="288" cy="360" r="9" fill="rgb(131,64,14)"/>
<circle cx="312" cy="360" r="12" fill="rgb(130,76,23)" opacity="0.35"/>
<circle cx="312" cy="360" r="9" fill="rgb(130,76,23)"/>
<circle cx="336" cy="360" r="12" fill="rgb(130,76,23)" opacity="0.35"/>
<circle cx="336" cy="360" r="9" fill="rgb(130,76,23)"/>
<circle cx="360" cy="360" r="12" fill="rgb(130,76,23)" opacity="0.35"/>
<circle cx="360" cy="360" r="9" fill="rgb(130,76,23)"/>
<circle cx="384" cy="360" r="12" fill="rgb(130,76,23)" opacity="0.35"/>
<circle cx="384" cy="360" r="9" fill="rgb(130,76,23)"/>
<circle cx="24" cy="384" r="12" fill="rgb(112,38,2)" opacity="0.35"/>
<circle cx="24" cy="384" r="9" fill="rgb(112,38,2)"/>
<circle cx="48" cy="384" r="12" fill="rgb(112,38,2)" opacity="0.35"/>
<circle cx="48" cy="384" r="9" fill="rgb(112,38,2)"/>
<circle cx="72" cy="384" r="12" fill="rgb(112,38,2)" opacity="0.35"/>
<circle cx="72" cy="384" r="9" fill="rgb(112,38,2)"/>
<circle cx="96" cy="384" r="12" fill="rgb(112,38,2)" opacity="0.35"/>
<circle cx="96" cy="384" r="9" fill="rgb(112,38,2)"/>
<circle cx="120" cy="384" r="12" fill="rgb(125,48,3)" opacity="0.35"/>
<circle cx="120" cy="384" r="9" fill="rgb(125,48,3)"/>
<circle cx="144" cy="384" r="12" fill="rgb(125,48,3)" opacity="0.35"/>
<circle cx="144" cy="384" r="9" fill="rgb(125,48,3)"/>
<circle cx="168" cy="384" r="12" fill="rgb(125,48,3)" opacity="0.35"/>
<circle cx="168" cy="384" r="9" fill="rgb(125,48,3)"/>
<circle cx="192" cy="384" r="12" fill="rgb(125,48,3)" opacity="0.35"/>
<circle cx="192" cy="384" r="9" fill="rgb(125,48,3)"/>
<circle cx="216" cy="384" r="12" fill="rgb(131,64,14)" opacity="0.35"/>
<circle cx="216" cy="384" r="9" fill="rgb(131,64,14)"/>
<circle cx="240" cy="384" r="12" fill="rgb(131,64,14)" opacity="0.35"/>
<circle cx="240" cy="384" r="9" fill="rgb(131,64,14)"/>
<circle cx="264" cy="384" r="12" fill="rgb(131,64,14)" opacity="0.35"/>
<circle cx="264" cy="384" r="9" fill="rgb(131,64,14)"/>
<circle cx="288" cy="384" r="12" fill="rgb(131,64,14)" opacity="0.35"/>
<circle cx="288" cy="384" r="9" fill="rgb(131,64,14)"/>
<circle cx="312" cy="384" r="12" fill="rgb(130,76,23)" opacity="0.35"/>
<circle cx="312" cy="384" r="9" fill="rgb(130,76,23)"/>
<circle cx="336" cy="384" r="12" fill="rgb(130,76,23)" opacity="0.35"/>
<circle cx="336" cy="384" r="9" fill="rgb(130,76,23)"/>
<circle cx="360" cy="384" r="12" fill="rgb(130,76,23)" opacity="0.35"/>
<circle cx="360" cy="384" r="9" fill="rgb(130,76,23)"/>
<circle cx="384" cy="384" r="12" fill="rgb(130,76,23)" opacity="0.35"/>
<circle cx="384" cy="384" r="9" fill="rgb(130,76,23)"/>
</svg>
