<svg xmlns="http://www.w3.org/2000/svg" viewBox="0 0 408 408" width="408" height="408" role="img" aria-label="LED preview of the Spiral example graph">
<rect width="408" height="408" rx="10" fill="#05070a"/>
<circle cx="24" cy="24" r="9" fill="#14171c"/>
<circle cx="48" cy="24" r="9" fill="#14171c"/>
<circle cx="72" cy="24" r="12" fill="rgb(12,32,24)" opacity="0.35"/>
<circle cx="72" cy="24" r="9" fill="rgb(12,32,24)"/>
<circle cx="96" cy="24" r="12" fill="rgb(18,47,35)" opacity="0.35"/>
<circle cx="96" cy="24" r="9" fill="rgb(18,47,35)"/>
<circle cx="120" cy="24" r="12" fill="rgb(14,39,29)" opacity="0.35"/>
<circle cx="120" cy="24" r="9" fill="rgb(14,39,29)"/>
<circle cx="144" cy="24" r="12" fill="rgb(9,25,18)" opacity="0.35"/>
<circle cx="144" cy="24" r="9" fill="rgb(9,25,18)"/>
<circle cx="168" cy="24" r="9" fill="#14171c"/>
<circle cx="192" cy="24" r="9" fill="#14171c"/>
<circle cx="216" cy="24" r="9" fill="#14171c"/>
<circle cx="240" cy="24" r="12" fill="rgb(6,19,14)" opacity="0.35"/>
<circle cx="240" cy="24" r="9" fill="rgb(6,19,14)"/>
<circle cx="264" cy="24" r="12" fill="rgb(10,29,22)" opacity="0.35"/>
<circle cx="264" cy="24" r="9" fill="rgb(10,29,22)"/>
<circle cx="288" cy="24" r="12" fill="rgb(13,37,28)" opacity="0.35"/>
<circle cx="288" cy="24" r="9" fill="rgb(13,37,28)"/>
<circle cx="312" cy="24" r="12" fill="rgb(10,27,20)" opacity="0.35"/>
<circle cx="312" cy="24" r="9" fill="rgb(10,27,20)"/>
<circle cx="336" cy="24" r="9" fill="#14171c"/>
<circle cx="360" cy="24" r="9" fill="#14171c"/>
<circle cx="384" cy="24" r="12" fill="rgb(23,55,42)" opacity="0.35"/>
<circle cx="384" cy="24" r="9" fill="rgb(23,55,42)"/>
<circle cx="24" cy="48" r="9" fill="#14171c"/>
<circle cx="48" cy="48" r="12" fill="rgb(17,43,33)" opacity="0.35"/>
<circle cx="48" cy="48" r="9" fill="rgb(17,43,33)"/>
<circle cx="72" cy="48" r="12" fill="rgb(16,44,33)" opacity="0.35"/>
<circle cx="72" cy="48" r="9" fill="rgb(16,44,33)"/>
<circle cx="96" cy="48" r="12" fill="rgb(6,18,13)" opacity="0.35"/>
<circle cx="96" cy="48" r="9" fill="rgb(6,18,13)"/>
<circle cx="120" cy="48" r="9" fill="#14171c"/>
<circle cx="144" cy="48" r="9" fill="#14171c"/>
<circle cx="168" cy="48" r="12" fill="rgb(24,28,25)" opacity="0.35"/>
<circle cx="168" cy="48" r="9" fill="rgb(24,28,25)"/>
<circle cx="192" cy="48" r="12" fill="rgb(36,43,38)" opacity="0.35"/>
<circle cx="192" cy="48" r="9" fill="rgb(36,43,38)"/>
<circle cx="216" cy="48" r="12" fill="rgb(27,32,29)" opacity="0.35"/>
<circle cx="216" cy="48" r="9" fill="rgb(27,32,29)"/>
<circle cx="240" cy="48" r="9" fill="#14171c"/>
<circle cx="264" cy="48" r="9" fill="#14171c"/>
<circle cx="288" cy="48" r="9" fill="#14171c"/>
<circle cx="312" cy="48" r="12" fill="rgb(9,29,22)" opacity="0.35"/>
<circle cx="312" cy="48" r="9" fill="rgb(9,29,22)"/>
<circle cx="336" cy="48" r="12" fill="rgb(11,31,24)" opacity="0.35"/>
<circle cx="336" cy="48" r="9" fill="rgb(11,31,24)"/>
<circle cx="360" cy="48" r="9" fill="#14171c"/>
<circle cx="384" cy="48" r="9" fill="#14171c"/>
<circle cx="24" cy="72" r="12" fill="rgb(18,46,34)" opacity="0.35"/>
<circle cx="24" cy="72" r="9" fill="rgb(18,46,34)"/>
<circle cx="48" cy="72" r="12" fill="rgb(15,40,30)" opacity="0.35"/>
<circle cx="48" cy="72" r="9" fill="rgb(15,40,30)"/>
<circle cx="72" cy="72" r="9" fill="#14171c"/>
<circle cx="96" cy="72" r="9" fill="#14171c"/>
<circle cx="120" cy="72" r="12" fill="rgb(85,101,90)" opacity="0.35"/>
<circle cx="120" cy="72" r="9" fill="rgb(85,101,90)"/>
<circle cx="144" cy="72" r="12" fill="rgb(137,175,152)" opacity="0.35"/>
<circle cx="144" cy="72" r="9" fill="rgb(137,175,152)"/>
<circle cx="168" cy="72" r="12" fill="rgb(141,194,163)" opacity="0.35"/>
<circle cx="168" cy="72" r="9" fill="rgb(141,194,163)"/>
<circle cx="192" cy="72" r="12" fill="rgb(131,191,158)" opacity="0.35"/>
<circle cx="192" cy="72" r="9" fill="rgb(131,191,158)"/>
<circle cx="216" cy="72" r="12" fill="rgb(127,188,156)" opacity="0.35"/>
<circle cx="216" cy="72" r="9" fill="rgb(127,188,156)"/>
<circle cx="240" cy="72" r="12" fill="rgb(119,173,144)" opacity="0.35"/>
<circle cx="240" cy="72" r="9" fill="rgb(119,173,144)"/>
<circle cx="264" cy="72" r="12" fill="rgb(78,107,90)" opacity="0.35"/>
<circle cx="264" cy="72" r="9" fill="rgb(78,107,90)"/>
<circle cx="288" cy="72" r="9" fill="#14171c"/>
<circle cx="312" cy="72" r="12" fill="rgb(29,35,31)" opacity="0.35"/>
<circle cx="312" cy="72" r="9" fill="rgb(29,35,31)"/>
<circle cx="336" cy="72" r="12" fill="rgb(8,24,19)" opacity="0.35"/>
<circle cx="336" cy="72" r="9" fill="rgb(8,24,19)"/>
<circle cx="360" cy="72" r="12" fill="rgb(10,30,22)" opacity="0.35"/>
<circle cx="360" cy="72" r="9" fill="rgb(10,30,22)"/>
<circle cx="384" cy="72" r="9" fill="#14171c"/>
<circle cx="24" cy="96" r="12" fill="rgb(17,45,33)" opacity="0.35"/>
<circle cx="24" cy="96" r="9" fill="rgb(17,45,33)"/>
<circle cx="48" cy="96" r="9" fill="#14171c"/>
<circle cx="72" cy="96" r="9" fill="#14171c"/>
<circle cx="96" cy="96" r="12" fill="rgb(140,169,149)" opacity="0.35"/>
<circle cx="96" cy="96" r="9" fill="rgb(140,169,149)"/>
<circle cx="120" cy="96" r="12" fill="rgb(141,191,162)" opacity="0.35"/>
<circle cx="120" cy="96" r="9" fill="rgb(141,191,162)"/>
<circle cx="144" cy="96" r="12" fill="rgb(74,113,93)" opacity="0.35"/>
<circle cx="144" cy="96" r="9" fill="rgb(74,113,93)"/>
<circle cx="168" cy="96" r="12" fill="rgb(29,50,40)" opacity="0.35"/>
<circle cx="168" cy="96" r="9" fill="rgb(29,50,40)"/>
<circle cx="192" cy="96" r="12" fill="rgb(15,29,23)" opacity="0.35"/>
<circle cx="192" cy="96" r="9" fill="rgb(15,29,23)"/>
<circle cx="216" cy="96" r="12" fill="rgb(21,41,31)" opacity="0.35"/>
<circle cx="216" cy="96" r="9" fill="rgb(21,41,31)"/>
<circle cx="240" cy="96" r="12" fill="rgb(48,92,71)" opacity="0.35"/>
<circle cx="240" cy="96" r="9" fill="rgb(48,92,71)"/>
<circle cx="264" cy="96" r="12" fill="rgb(96,167,131)" opacity="0.35"/>
<circle cx="264" cy="96" r="9" fill="rgb(96,167,131)"/>
<circle cx="288" cy="96" r="12" fill="rgb(102,156,128)" opacity="0.35"/>
<circle cx="288" cy="96" r="9" fill="rgb(102,156,128)"/>
<circle cx="312" cy="96" r="12" fill="rgb(21,29,25)" opacity="0.35"/>
<circle cx="312" cy="96" r="9" fill="rgb(21,29,25)"/>
<circle cx="336" cy="96" r="12" fill="rgb(34,41,36)" opacity="0.35"/>
<circle cx="336" cy="96" r="9" fill="rgb(34,41,36)"/>
<circle cx="360" cy="96" r="12" fill="rgb(9,27,21)" opacity="0.35"/>
<circle cx="360" cy="96" r="9" fill="rgb(9,27,21)"/>
<circle cx="384" cy="96" r="12" fill="rgb(7,20,15)" opacity="0.35"/>
<circle cx="384" cy="96" r="9" fill="rgb(7,20,15)"/>
<circle cx="24" cy="120" r="9" fill="#14171c"/>
<circle cx="48" cy="120" r="9" fill="#14171c"/>
<circle cx="72" cy="120" r="12" fill="rgb(151,178,158)" opacity="0.35"/>
<circle cx="72" cy="120" r="9" fill="rgb(151,178,158)"/>
<circle cx="96" cy="120" r="12" fill="rgb(123,168,143)" opacity="0.35"/>
<circle cx="96" cy="120" r="9" fill="rgb(123,168,143)"/>
<circle cx="120" cy="120" r="12" fill="rgb(22,36,29)" opacity="0.35"/>
<circle cx="120" cy="120" r="9" fill="rgb(22,36,29)"/>
<circle cx="144" cy="120" r="9" fill="#14171c"/>
<circle cx="168" cy="120" r="12" fill="rgb(19,41,31)" opacity="0.35"/>
<circle cx="168" cy="120" r="9" fill="rgb(19,41,31)"/>
<circle cx="192" cy="120" r="12" fill="rgb(28,63,47)" opacity="0.35"/>
<circle cx="192" cy="120" r="9" fill="rgb(28,63,47)"/>
<circle cx="216" cy="120" r="12" fill="rgb(20,46,34)" opacity="0.35"/>
<circle cx="216" cy="120" r="9" fill="rgb(20,46,34)"/>
<circle cx="240" cy="120" r="9" fill="#14171c"/>
<circle cx="264" cy="120" r="12" fill="rgb(10,23,17)" opacity="0.35"/>
<circle cx="264" cy="120" r="9" fill="rgb(10,23,17)"/>
<circle cx="288" cy="120" r="12" fill="rgb(72,143,109)" opacity="0.35"/>
<circle cx="288" cy="120" r="9" fill="rgb(72,143,109)"/>
<circle cx="312" cy="120" r="12" fill="rgb(91,147,119)" opacity="0.35"/>
<circle cx="312" cy="120" r="9" fill="rgb(91,147,119)"/>
<circle cx="336" cy="120" r="9" fill="#14171c"/>
<circle cx="360" cy="120" r="12" fill="rgb(95,112,99)" opacity="0.35"/>
<circle cx="360" cy="120" r="9" fill="rgb(95,112,99)"/>
<circle cx="384" cy="120" r="12" fill="rgb(9,30,22)" opacity="0.35"/>
<circle cx="384" cy="120" r="9" fill="rgb(9,30,22)"/>
<circle cx="24" cy="144" r="9" fill="#14171c"/>
<circle cx="48" cy="144" r="9" fill="#14171c"/>
<circle cx="72" cy="144" r="12" fill="rgb(147,188,163)" opacity="0.35"/>
<circle cx="72" cy="144" r="9" fill="rgb(147,188,163)"/>
<circle cx="96" cy="144" r="12" fill="rgb(19,29,24)" opacity="0.35"/>
<circle cx="96" cy="144" r="9" fill="rgb(19,29,24)"/>
<circle cx="120" cy="144" r="12" fill="rgb(14,27,21)" opacity="0.35"/>
<circle cx="120" cy="144" r="9" fill="rgb(14,27,21)"/>
<circle cx="144" cy="144" r="12" fill="rgb(55,123,91)" opacity="0.35"/>
<circle cx="144" cy="144" r="9" fill="rgb(55,123,91)"/>
<circle cx="168" cy="144" r="12" fill="rgb(60,136,101)" opacity="0.35"/>
<circle cx="168" cy="144" r="9" fill="rgb(60,136,101)"/>
<circle cx="192" cy="144" r="12" fill="rgb(52,116,87)" opacity="0.35"/>
<circle cx="192" cy="144" r="9" fill="rgb(52,116,87)"/>
<circle cx="216" cy="144" r="12" fill="rgb(52,120,89)" opacity="0.35"/>
<circle cx="216" cy="144" r="9" fill="rgb(52,120,89)"/>
<circle cx="240" cy="144" r="12" fill="rgb(49,110,82)" opacity="0.35"/>
<circle cx="240" cy="144" r="9" fill="rgb(49,110,82)"/>
<circle cx="264" cy="144" r="12" fill="rgb(11,26,19)" opacity="0.35"/>
<circle cx="264" cy="144" r="9" fill="rgb(11,26,19)"/>
<circle cx="288" cy="144" r="12" fill="rgb(13,30,22)" opacity="0.35"/>
<circle cx="288" cy="144" r="9" fill="rgb(13,30,22)"/>
<circle cx="312" cy="144" r="12" fill="rgb(84,167,127)" opacity="0.35"/>
<circle cx="312" cy="144" r="9" fill="rgb(84,167,127)"/>
<circle cx="336" cy="144" r="12" fill="rgb(47,72,59)" opacity="0.35"/>
<circle cx="336" cy="144" r="9" fill="rgb(47,72,59)"/>
<circle cx="360" cy="144" r="12" fill="rgb(21,27,24)" opacity="0.35"/>
<circle cx="360" cy="144" r="9" fill="rgb(21,27,24)"/>
<circle cx="384" cy="144" r="12" fill="rgb(7,26,19)" opacity="0.35"/>
<circle cx="384" cy="144" r="9" fill="rgb(7,26,19)"/>
<circle cx="24" cy="168" r="9" fill="#14171c"/>
<circle cx="48" cy="168" r="12" fill="rgb(177,206,184)" opacity="0.35"/>
<circle cx="48" cy="168" r="9" fill="rgb(177,206,184)"/>
<circle cx="72" cy="168" r="12" fill="rgb(64,88,74)" opacity="0.35"/>
<circle cx="72" cy="168" r="9" fill="rgb(64,88,74)"/>
<circle cx="96" cy="168" r="9" fill="#14171c"/>
<circle cx="120" cy="168" r="12" fill="rgb(61,135,101)" opacity="0.35"/>
<circle cx="120" cy="168" r="9" fill="rgb(61,135,101)"/>
<circle cx="144" cy="168" r="12" fill="rgb(49,111,83)" opacity="0.35"/>
<circle cx="144" cy="168" r="9" fill="rgb(49,111,83)"/>
<circle cx="168" cy="168" r="12" fill="rgb(10,23,17)" opacity="0.35"/>
<circle cx="168" cy="168" r="9" fill="rgb(10,23,17)"/>
<circle cx="192" cy="168" r="9" fill="#14171c"/>
<circle cx="216" cy="168" r="9" fill="#14171c"/>
<circle cx="240" cy="168" r="12" fill="rgb(33,78,58)" opacity="0.35"/>
<circle cx="240" cy="168" r="9" fill="rgb(33,78,58)"/>
<circle cx="264" cy="168" r="12" fill="rgb(41,95,71)" opacity="0.35"/>
<circle cx="264" cy="168" r="9" fill="rgb(41,95,71)"/>
<circle cx="288" cy="168" r="9" fill="#14171c"/>
<circle cx="312" cy="168" r="12" fill="rgb(53,117,87)" opacity="0.35"/>
<circle cx="312" cy="168" r="9" fill="rgb(53,117,87)"/>
<circle cx="336" cy="168" r="12" fill="rgb(73,127,100)" opacity="0.35"/>
<circle cx="336" cy="168" r="9" fill="rgb(73,127,100)"/>
<circle cx="360" cy="168" r="9" fill="#14171c"/>
<circle cx="384" cy="168" r="12" fill="rgb(158,185,165)" opacity="0.35"/>
<circle cx="384" cy="168" r="9" fill="rgb(158,185,165)"/>
<circle cx="24" cy="192" r="9" fill="#14171c"/>
<circle cx="48" cy="192" r="12" fill="rgb(168,203,179)" opacity="0.35"/>
<circle cx="48" cy="192" r="9" fill="rgb(168,203,179)"/>
<circle cx="72" cy="192" r="12" fill="rgb(12,18,15)" opacity="0.35"/>
<circle cx="72" cy="192" r="9" fill="rgb(12,18,15)"/>
<circle cx="96" cy="192" r="12" fill="rgb(42,80,61)" opacity="0.35"/>
<circle cx="96" cy="192" r="9" fill="rgb(42,80,61)"/>
<circle cx="120" cy="192" r="12" fill="rgb(64,143,107)" opacity="0.35"/>
<circle cx="120" cy="192" r="9" fill="rgb(64,143,107)"/>
<circle cx="144" cy="192" r="9" fill="#14171c"/>
<circle cx="168" cy="192" r="12" fill="rgb(11,26,19)" opacity="0.35"/>
<circle cx="168" cy="192" r="9" fill="rgb(11,26,19)"/>
<circle cx="192" cy="192" r="12" fill="rgb(30,72,54)" opacity="0.35"/>
<circle cx="192" cy="192" r="9" fill="rgb(30,72,54)"/>
<circle cx="216" cy="192" r="12" fill="rgb(18,42,32)" opacity="0.35"/>
<circle cx="216" cy="192" r="9" fill="rgb(18,42,32)"/>
<circle cx="240" cy="192" r="12" fill="rgb(7,17,13)" opacity="0.35"/>
<circle cx="240" cy="192" r="9" fill="rgb(7,17,13)"/>
<circle cx="264" cy="192" r="12" fill="rgb(43,102,76)" opacity="0.35"/>
<circle cx="264" cy="192" r="9" fill="rgb(43,102,76)"/>
<circle cx="288" cy="192" r="9" fill="#14171c"/>
<circle cx="312" cy="192" r="12" fill="rgb(39,87,65)" opacity="0.35"/>
<circle cx="312" cy="192" r="9" fill="rgb(39,87,65)"/>
<circle cx="336" cy="192" r="12" fill="rgb(75,142,110)" opacity="0.35"/>
<circle cx="336" cy="192" r="9" fill="rgb(75,142,110)"/>
<circle cx="360" cy="192" r="9" fill="#14171c"/>
<circle cx="384" cy="192" r="12" fill="rgb(138,167,147)" opacity="0.35"/>
<circle cx="384" cy="192" r="9" fill="rgb(138,167,147)"/>
<circle cx="24" cy="216" r="12" fill="rgb(6,18,14)" opacity="0.35"/>
<circle cx="24" cy="216" r="9" fill="rgb(6,18,14)"/>
<circle cx="48" cy="216" r="12" fill="rgb(144,175,154)" opacity="0.35"/>
<circle cx="48" cy="216" r="9" fill="rgb(144,175,154)"/>
<circle cx="72" cy="216" r="9" fill="#14171c"/>
<circle cx="96" cy="216" r="12" fill="rgb(65,129,98)" opacity="0.35"/>
<circle cx="96" cy="216" r="9" fill="rgb(65,129,98)"/>
<circle cx="120" cy="216" r="12" fill="rgb(44,100,74)" opacity="0.35"/>
<circle cx="120" cy="216" r="9" fill="rgb(44,100,74)"/>
<circle cx="144" cy="216" r="9" fill="#14171c"/>
<circle cx="168" cy="216" r="12" fill="rgb(37,88,66)" opacity="0.35"/>
<circle cx="168" cy="216" r="9" fill="rgb(37,88,66)"/>
<circle cx="192" cy="216" r="12" fill="rgb(17,42,31)" opacity="0.35"/>
<circle cx="192" cy="216" r="9" fill="rgb(17,42,31)"/>
<circle cx="216" cy="216" r="9" fill="#14171c"/>
<circle cx="240" cy="216" r="12" fill="rgb(17,42,31)" opacity="0.35"/>
<circle cx="240" cy="216" r="9" fill="rgb(17,42,31)"/>
<circle cx="264" cy="216" r="12" fill="rgb(37,88,66)" opacity="0.35"/>
<circle cx="264" cy="216" r="9" fill="rgb(37,88,66)"/>
<circle cx="288" cy="216" r="9" fill="#14171c"/>
<circle cx="312" cy="216" r="12" fill="rgb(44,100,74)" opacity="0.35"/>
<circle cx="312" cy="216" r="9" fill="rgb(44,100,74)"/>
<circle cx="336" cy="216" r="12" fill="rgb(65,129,98)" opacity="0.35"/>
<circle cx="336" cy="216" r="9" fill="rgb(65,129,98)"/>
<circle cx="360" cy="216" r="9" fill="#14171c"/>
<circle cx="384" cy="216" r="12" fill="rgb(144,175,154)" opacity="0.35"/>
<circle cx="384" cy="216" r="9" fill="rgb(144,175,154)"/>
<circle cx="24" cy="240" r="12" fill="rgb(6,20,15)" opacity="0.35"/>
<circle cx="24" cy="240" r="9" fill="rgb(6,20,15)"/>
<circle cx="48" cy="240" r="12" fill="rgb(138,167,147)" opacity="0.35"/>
<circle cx="48" cy="240" r="9" fill="rgb(138,167,147)"/>
<circle cx="72" cy="240" r="9" fill="#14171c"/>
<circle cx="96" cy="240" r="12" fill="rgb(75,142,110)" opacity="0.35"/>
<circle cx="96" cy="240" r="9" fill="rgb(75,142,110)"/>
<circle cx="120" cy="240" r="12" fill="rgb(39,87,65)" opacity="0.35"/>
<circle cx="120" cy="240" r="9" fill="rgb(39,87,65)"/>
<circle cx="144" cy="240" r="9" fill="#14171c"/>
<circle cx="168" cy="240" r="12" fill="rgb(43,102,76)" opacity="0.35"/>
<circle cx="168" cy="240" r="9" fill="rgb(43,102,76)"/>
<circle cx="192" cy="240" r="12" fill="rgb(7,17,13)" opacity="0.35"/>
<circle cx="192" cy="240" r="9" fill="rgb(7,17,13)"/>
<circle cx="216" cy="240" r="12" fill="rgb(18,42,32)" opacity="0.35"/>
<circle cx="216" cy="240" r="9" fill="rgb(18,42,32)"/>
<circle cx="240" cy="240" r="12" fill="rgb(30,72,54)" opacity="0.35"/>
<circle cx="240" cy="240" r="9" fill="rgb(30,72,54)"/>
<circle cx="264" cy="240" r="12" fill="rgb(11,26,19)" opacity="0.35"/>
<circle cx="264" cy="240" r="9" fill="rgb(11,26,19)"/>
<circle cx="288" cy="240" r="9" fill="#14171c"/>
<circle cx="312" cy="240" r="12" fill="rgb(64,143,107)" opacity="0.35"/>
<circle cx="312" cy="240" r="9" fill="rgb(64,143,107)"/>
<circle cx="336" cy="240" r="12" fill="rgb(42,80,61)" opacity="0.35"/>
<circle cx="336" cy="240" r="9" fill="rgb(42,80,61)"/>
<circle cx="360" cy="240" r="12" fill="rgb(12,18,15)" opacity="0.35"/>
<circle cx="360" cy="240" r="9" fill="rgb(12,18,15)"/>
<circle cx="384" cy="240" r="12" fill="rgb(168,203,179)" opacity="0.35"/>
<circle cx="384" cy="240" r="9" fill="rgb(168,203,179)"/>
<circle cx="24" cy="264" r="12" fill="rgb(6,18,14)" opacity="0.35"/>
<circle cx="24" cy="264" r="9" fill="rgb(6,18,14)"/>
<circle cx="48" cy="264" r="12" fill="rgb(158,185,165)" opacity="0.35"/>
<circle cx="48" cy="264" r="9" fill="rgb(158,185,165)"/>
<circle cx="72" cy="264" r="9" fill="#14171c"/>
<circle cx="96" cy="264" r="12" fill="rgb(73,127,100)" opacity="0.35"/>
<circle cx="96" cy="264" r="9" fill="rgb(73,127,100)"/>
<circle cx="120" cy="264" r="12" fill="rgb(53,117,87)" opacity="0.35"/>
<circle cx="120" cy="264" r="9" fill="rgb(53,117,87)"/>
<circle cx="144" cy="264" r="9" fill="#14171c"/>
<circle cx="168" cy="264" r="12" fill="rgb(41,95,71)" opacity="0.35"/>
<circle cx="168" cy="264" r="9" fill="rgb(41,95,71)"/>
<circle cx="192" cy="264" r="12" fill="rgb(33,78,58)" opacity="0.35"/>
<circle cx="192" cy="264" r="9" fill="rgb(33,78,58)"/>
<circle cx="216" cy="264" r="9" fill="#14171c"/>
<circle cx="240" cy="264" r="9" fill="#14171c"/>
<circle cx="264" cy="264" r="12" fill="rgb(10,23,17)" opacity="0.35"/>
<circle cx="264" cy="264" r="9" fill="rgb(10,23,17)"/>
<circle cx="288" cy="264" r="12" fill="rgb(49,111,83)" opacity="0.35"/>
<circle cx="288" cy="264" r="9" fill="rgb(49,111,83)"/>
<circle cx="312" cy="264" r="12" fill="rgb(61,135,101)" opacity="0.35"/>
<circle cx="312" cy="264" r="9" fill="rgb(61,135,101)"/>
<circle cx="336" cy="264" r="9" fill="#14171c"/>
<circle cx="360" cy="264" r="12" fill="rgb(64,88,74)" opacity="0.35"/>
<circle cx="360" cy="264" r="9" fill="rgb(64,88,74)"/>
<circle cx="384" cy="264" r="12" fill="rgb(177,206,184)" opacity="0.35"/>
<circle cx="384" cy="264" r="9" fill="rgb(177,206,184)"/>
<circle cx="24" cy="288" r="9" fill="#14171c"/>
<circle cx="48" cy="288" r="12" fill="rgb(7,26,19)" opacity="0.35"/>
<circle cx="48" cy="288" r="9" fill="rgb(7,26,19)"/>
<circle cx="72" cy="288" r="12" fill="rgb(21,27,24)" opacity="0.35"/>
<circle cx="72" cy="288" r="9" fill="rgb(21,27,24)"/>
<circle cx="96" cy="288" r="12" fill="rgb(47,72,59)" opacity="0.35"/>
<circle cx="96" cy="288" r="9" fill="rgb(47,72,59)"/>
<circle cx="120" cy="288" r="12" fill="rgb(84,167,127)" opacity="0.35"/>
<circle cx="120" cy="288" r="9" fill="rgb(84,167,127)"/>
<circle cx="144" cy="288" r="12" fill="rgb(13,30,22)" opacity="0.35"/>
<circle cx="144" cy="288" r="9" fill="rgb(13,30,22)"/>
<circle cx="168" cy="288" r="12" fill="rgb(11,26,19)" opacity="0.35"/>
<circle cx="168" cy="288" r="9" fill="rgb(11,26,19)"/>
<circle cx="192" cy="288" r="12" fill="rgb(49,110,82)" opacity="0.35"/>
<circle cx="192" cy="288" r="9" fill="rgb(49,110,82)"/>
<circle cx="216" cy="288" r="12" fill="rgb(52,120,89)" opacity="0.35"/>
<circle cx="216" cy="288" r="9" fill="rgb(52,120,89)"/>
<circle cx="240" cy="288" r="12" fill="rgb(52,116,87)" opacity="0.35"/>
<circle cx="240" cy="288" r="9" fill="rgb(52,116,87)"/>
<circle cx="264" cy="288" r="12" fill="rgb(60,136,101)" opacity="0.35"/>
<circle cx="264" cy="288" r="9" fill="rgb(60,136,101)"/>
<circle cx="288" cy="288" r="12" fill="rgb(55,123,91)" opacity="0.35"/>
<circle cx="288" cy="288" r="9" fill="rgb(55,123,91)"/>
<circle cx="312" cy="288" r="12" fill="rgb(14,27,21)" opacity="0.35"/>
<circle cx="312" cy="288" r="9" fill="rgb(14,27,21)"/>
<circle cx="336" cy="288" r="12" fill="rgb(19,29,24)" opacity="0.35"/>
<circle cx="336" cy="288" r="9" fill="rgb(19,29,24)"/>
<circle cx="360" cy="288" r="12" fill="rgb(147,188,163)" opacity="0.35"/>
<circle cx="360" cy="288" r="9" fill="rgb(147,188,163)"/>
<circle cx="384" cy="288" r="9" fill="#14171c"/>
<circle cx="24" cy="312" r="9" fill="#14171c"/>
<circle cx="48" cy="312" r="12" fill="rgb(9,30,22)" opacity="0.35"/>
<circle cx="48" cy="312" r="9" fill="rgb(9,30,22)"/>
<circle cx="72" cy="312" r="12" fill="rgb(95,112,99)" opacity="0.35"/>
<circle cx="72" cy="312" r="9" fill="rgb(95,112,99)"/>
<circle cx="96" cy="312" r="9" fill="#14171c"/>
<circle cx="120" cy="312" r="12" fill="rgb(91,147,119)" opacity="0.35"/>
<circle cx="120" cy="312" r="9" fill="rgb(91,147,119)"/>
<circle cx="144" cy="312" r="12" fill="rgb(72,143,109)" opacity="0.35"/>
<circle cx="144" cy="312" r="9" fill="rgb(72,143,109)"/>
<circle cx="168" cy="312" r="12" fill="rgb(10,23,17)" opacity="0.35"/>
<circle cx="168" cy="312" r="9" fill="rgb(10,23,17)"/>
<circle cx="192" cy="312" r="9" fill="#14171c"/>
<circle cx="216" cy="312" r="12" fill="rgb(20,46,34)" opacity="0.35"/>
<circle cx="216" cy="312" r="9" fill="rgb(20,46,34)"/>
<circle cx="240" cy="312" r="12" fill="rgb(28,63,47)" opacity="0.35"/>
<circle cx="240" cy="312" r="9" fill="rgb(28,63,47)"/>
<circle cx="264" cy="312" r="12" fill="rgb(19,41,31)" opacity="0.35"/>
<circle cx="264" cy="312" r="9" fill="rgb(19,41,31)"/>
<circle cx="288" cy="312" r="9" fill="#14171c"/>
<circle cx="312" cy="312" r="12" fill="rgb(22,36,29)" opacity="0.35"/>
<circle cx="312" cy="312" r="9" fill="rgb(22,36,29)"/>
<circle cx="336" cy="312" r="12" fill="rgb(123,168,143)" opacity="0.35"/>
<circle cx="336" cy="312" r="9" fill="rgb(123,168,143)"/>
<circle cx="360" cy="312" r="12" fill="rgb(151,178,158)" opacity="0.35"/>
<circle cx="360" cy="312" r="9" fill="rgb(151,178,158)"/>
<circle cx="384" cy="312" r="9" fill="#14171c"/>
<circle cx="24" cy="336" r="9" fill="#14171c"/>
<circle cx="48" cy="336" r="12" fill="rgb(7,20,15)" opacity="0.35"/>
<circle cx="48" cy="336" r="9" fill="rgb(7,20,15)"/>
<circle cx="72" cy="336" r="12" fill="rgb(9,27,21)" opacity="0.35"/>
<circle cx="72" cy="336" r="9" fill="rgb(9,27,21)"/>
<circle cx="96" cy="336" r="12" fill="rgb(34,41,36)" opacity="0.35"/>
<circle cx="96" cy="336" r="9" fill="rgb(34,41,36)"/>
<circle cx="120" cy="336" r="12" fill="rgb(21,29,25)" opacity="0.35"/>
<circle cx="120" cy="336" r="9" fill="rgb(21,29,25)"/>
<circle cx="144" cy="336" r="12" fill="rgb(102,156,128)" opacity="0.35"/>
<circle cx="144" cy="336" r="9" fill="rgb(102,156,128)"/>
<circle cx="168" cy="336" r="12" fill="rgb(96,167,131)" opacity="0.35"/>
<circle cx="168" cy="336" r="9" fill="rgb(96,167,131)"/>
<circle cx="192" cy="336" r="12" fill="rgb(48,92,71)" opacity="0.35"/>
<circle cx="192" cy="336" r="9" fill="rgb(48,92,71)"/>
<circle cx="216" cy="336" r="12" fill="rgb(21,41,31)" opacity="0.35"/>
<circle cx="216" cy="336" r="9" fill="rgb(21,41,31)"/>
<circle cx="240" cy="336" r="12" fill="rgb(15,29,23)" opacity="0.35"/>
<circle cx="240" cy="336" r="9" fill="rgb(15,29,23)"/>
<circle cx="264" cy="336" r="12" fill="rgb(29,50,40)" opacity="0.35"/>
<circle cx="264" cy="336" r="9" fill="rgb(29,50,40)"/>
<circle cx="288" cy="336" r="12" fill="rgb(74,113,93)" opacity="0.35"/>
<circle cx="288" cy="336" r="9" fill="rgb(74,113,93)"/>
<circle cx="312" cy="336" r="12" fill="rgb(141,191,162)" opacity="0.35"/>
<circle cx="312" cy="336" r="9" fill="rgb(141,191,162)"/>
<circle cx="336" cy="336" r="12" fill="rgb(140,169,149)" opacity="0.35"/>
<circle cx="336" cy="336" r="9" fill="rgb(140,169,149)"/>
<circle cx="360" cy="336" r="9" fill="#14171c"/>
<circle cx="384" cy="336" r="9" fill="#14171c"/>
<circle cx="24" cy="360" r="12" fill="rgb(9,24,18)" opacity="0.35"/>
<circle cx="24" cy="360" r="9" fill="rgb(9,24,18)"/>
<circle cx="48" cy="360" r="9" fill="#14171c"/>
<circle cx="72" cy="360" r="12" fill="rgb(10,30,22)" opacity="0.35"/>
<circle cx="72" cy="360" r="9" fill="rgb(10,30,22)"/>
<circle cx="96" cy="360" r="12" fill="rgb(8,24,19)" opacity="0.35"/>
<circle cx="96" cy="360" r="9" fill="rgb(8,24,19)"/>
<circle cx="120" cy="360" r="12" fill="rgb(29,35,31)" opacity="0.35"/>
<circle cx="120" cy="360" r="9" fill="rgb(29,35,31)"/>
<circle cx="144" cy="360" r="9" fill="#14171c"/>
<circle cx="168" cy="360" r="12" fill="rgb(78,107,90)" opacity="0.35"/>
<circle cx="168" cy="360" r="9" fill="rgb(78,107,90)"/>
<circle cx="192" cy="360" r="12" fill="rgb(119,173,144)" opacity="0.35"/>
<circle cx="192" cy="360" r="9" fill="rgb(119,173,144)"/>
<circle cx="216" cy="360" r="12" fill="rgb(127,188,156)" opacity="0.35"/>
<circle cx="216" cy="360" r="9" fill="rgb(127,188,156)"/>
<circle cx="240" cy="360" r="12" fill="rgb(131,191,158)" opacity="0.35"/>
<circle cx="240" cy="360" r="9" fill="rgb(131,191,158)"/>
<circle cx="264" cy="360" r="12" fill="rgb(141,194,163)" opacity="0.35"/>
<circle cx="264" cy="360" r="9" fill="rgb(141,194,163)"/>
<circle cx="288" cy="360" r="12" fill="rgb(137,175,152)" opacity="0.35"/>
<circle cx="288" cy="360" r="9" fill="rgb(137,175,152)"/>
<circle cx="312" cy="360" r="12" fill="rgb(85,101,90)" opacity="0.35"/>
<circle cx="312" cy="360" r="9" fill="rgb(85,101,90)"/>
<circle cx="336" cy="360" r="9" fill="#14171c"/>
<circle cx="360" cy="360" r="9" fill="#14171c"/>
<circle cx="384" cy="360" r="12" fill="rgb(15,40,30)" opacity="0.35"/>
<circle cx="384" cy="360" r="9" fill="rgb(15,40,30)"/>
<circle cx="24" cy="384" r="12" fill="rgb(25,60,45)" opacity="0.35"/>
<circle cx="24" cy="384" r="9" fill="rgb(25,60,45)"/>
<circle cx="48" cy="384" r="9" fill="#14171c"/>
<circle cx="72" cy="384" r="9" fill="#14171c"/>
<circle cx="96" cy="384" r="12" fill="rgb(11,31,24)" opacity="0.35"/>
<circle cx="96" cy="384" r="9" fill="rgb(11,31,24)"/>
<circle cx="120" cy="384" r="12" fill="rgb(9,29,22)" opacity="0.35"/>
<circle cx="120" cy="384" r="9" fill="rgb(9,29,22)"/>
<circle cx="144" cy="384" r="9" fill="#14171c"/>
<circle cx="168" cy="384" r="9" fill="#14171c"/>
<circle cx="192" cy="384" r="9" fill="#14171c"/>
<circle cx="216" cy="384" r="12" fill="rgb(27,32,29)" opacity="0.35"/>
<circle cx="216" cy="384" r="9" fill="rgb(27,32,29)"/>
<circle cx="240" cy="384" r="12" fill="rgb(36,43,38)" opacity="0.35"/>
<circle cx="240" cy="384" r="9" fill="rgb(36,43,38)"/>
<circle cx="264" cy="384" r="12" fill="rgb(24,28,25)" opacity="0.35"/>
<circle cx="264" cy="384" r="9" fill="rgb(24,28,25)"/>
<circle cx="288" cy="384" r="9" fill="#14171c"/>
<circle cx="312" cy="384" r="9" fill="#14171c"/>
<circle cx="336" cy="384" r="12" fill="rgb(6,18,13)" opacity="0.35"/>
<circle cx="336" cy="384" r="9" fill="rgb(6,18,13)"/>
<circle cx="360" cy="384" r="12" fill="rgb(16,44,33)" opacity="0.35"/>
<circle cx="360" cy="384" r="9" fill="rgb(16,44,33)"/>
<circle cx="384" cy="384" r="12" fill="rgb(17,43,33)" opacity="0.35"/>
<circle cx="384" cy="384" r="9" fill="rgb(17,43,33)"/>
</svg>
