<svg xmlns="http://www.w3.org/2000/svg" viewBox="0 0 408 408" width="408" height="408" role="img" aria-label="LED preview of the Spiral example graph">
<rect width="408" height="408" rx="10" fill="#05070a"/>
<circle cx="24" cy="24" r="12" fill="rgb(220,183,0)" opacity="0.35"/>
<circle cx="24" cy="24" r="9" fill="rgb(220,183,0)"/>
<circle cx="48" cy="24" r="12" fill="rgb(88,62,0)" opacity="0.35"/>
<circle cx="48" cy="24" r="9" fill="rgb(88,62,0)"/>
<circle cx="72" cy="24" r="9" fill="#14171c"/>
<circle cx="96" cy="24" r="12" fill="rgb(53,25,0)" opacity="0.35"/>
<circle cx="96" cy="24" r="9" fill="rgb(53,25,0)"/>
<circle cx="120" cy="24" r="12" fill="rgb(152,53,0)" opacity="0.35"/>
<circle cx="120" cy="24" r="9" fill="rgb(152,53,0)"/>
<circle cx="144" cy="24" r="12" fill="rgb(212,53,0)" opacity="0.35"/>
<circle cx="144" cy="24" r="9" fill="rgb(212,53,0)"/>
<circle cx="168" cy="24" r="12" fill="rgb(229,40,0)" opacity="0.35"/>
<circle cx="168" cy="24" r="9" fill="rgb(229,40,0)"/>
<circle cx="192" cy="24" r="12" fill="rgb(229,30,0)" opacity="0.35"/>
<circle cx="192" cy="24" r="9" fill="rgb(229,30,0)"/>
<circle cx="216" cy="24" r="12" fill="rgb(229,26,0)" opacity="0.35"/>
<circle cx="216" cy="24" r="9" fill="rgb(229,26,0)"/>
<circle cx="240" cy="24" r="12" fill="rgb(218,28,0)" opacity="0.35"/>
<circle cx="240" cy="24" r="9" fill="rgb(218,28,0)"/>
<circle cx="264" cy="24" r="12" fill="rgb(166,29,0)" opacity="0.35"/>
<circle cx="264" cy="24" r="9" fill="rgb(166,29,0)"/>
<circle cx="288" cy="24" r="12" fill="rgb(67,17,0)" opacity="0.35"/>
<circle cx="288" cy="24" r="9" fill="rgb(67,17,0)"/>
<circle cx="312" cy="24" r="9" fill="#14171c"/>
<circle cx="336" cy="24" r="12" fill="rgb(77,37,0)" opacity="0.35"/>
<circle cx="336" cy="24" r="9" fill="rgb(77,37,0)"/>
<circle cx="360" cy="24" r="12" fill="rgb(217,127,0)" opacity="0.35"/>
<circle cx="360" cy="24" r="9" fill="rgb(217,127,0)"/>
<circle cx="384" cy="24" r="12" fill="rgb(170,119,0)" opacity="0.35"/>
<circle cx="384" cy="24" r="9" fill="rgb(170,119,0)"/>
<circle cx="24" cy="48" r="12" fill="rgb(60,42,0)" opacity="0.35"/>
<circle cx="24" cy="48" r="9" fill="rgb(60,42,0)"/>
<circle cx="48" cy="48" r="9" fill="#14171c"/>
<circle cx="72" cy="48" r="12" fill="rgb(138,58,0)" opacity="0.35"/>
<circle cx="72" cy="48" r="9" fill="rgb(138,58,0)"/>
<circle cx="96" cy="48" r="12" fill="rgb(228,61,0)" opacity="0.35"/>
<circle cx="96" cy="48" r="9" fill="rgb(228,61,0)"/>
<circle cx="120" cy="48" r="12" fill="rgb(193,25,0)" opacity="0.35"/>
<circle cx="120" cy="48" r="9" fill="rgb(193,25,0)"/>
<circle cx="144" cy="48" r="12" fill="rgb(113,2,0)" opacity="0.35"/>
<circle cx="144" cy="48" r="9" fill="rgb(113,2,0)"/>
<circle cx="168" cy="48" r="12" fill="rgb(43,3,57)" opacity="0.35"/>
<circle cx="168" cy="48" r="9" fill="rgb(43,3,57)"/>
<circle cx="192" cy="48" r="12" fill="rgb(27,3,40)" opacity="0.35"/>
<circle cx="192" cy="48" r="9" fill="rgb(27,3,40)"/>
<circle cx="216" cy="48" r="12" fill="rgb(34,5,51)" opacity="0.35"/>
<circle cx="216" cy="48" r="9" fill="rgb(34,5,51)"/>
<circle cx="240" cy="48" r="12" fill="rgb(66,8,97)" opacity="0.35"/>
<circle cx="240" cy="48" r="9" fill="rgb(66,8,97)"/>
<circle cx="264" cy="48" r="12" fill="rgb(133,8,176)" opacity="0.35"/>
<circle cx="264" cy="48" r="9" fill="rgb(133,8,176)"/>
<circle cx="288" cy="48" r="12" fill="rgb(229,4,0)" opacity="0.35"/>
<circle cx="288" cy="48" r="9" fill="rgb(229,4,0)"/>
<circle cx="312" cy="48" r="12" fill="rgb(151,20,0)" opacity="0.35"/>
<circle cx="312" cy="48" r="9" fill="rgb(151,20,0)"/>
<circle cx="336" cy="48" r="9" fill="#14171c"/>
<circle cx="360" cy="48" r="12" fill="rgb(59,25,0)" opacity="0.35"/>
<circle cx="360" cy="48" r="9" fill="rgb(59,25,0)"/>
<circle cx="384" cy="48" r="12" fill="rgb(220,124,0)" opacity="0.35"/>
<circle cx="384" cy="48" r="9" fill="rgb(220,124,0)"/>
<circle cx="24" cy="72" r="9" fill="#14171c"/>
<circle cx="48" cy="72" r="12" fill="rgb(171,72,0)" opacity="0.35"/>
<circle cx="48" cy="72" r="9" fill="rgb(171,72,0)"/>
<circle cx="72" cy="72" r="12" fill="rgb(220,52,0)" opacity="0.35"/>
<circle cx="72" cy="72" r="9" fill="rgb(220,52,0)"/>
<circle cx="96" cy="72" r="12" fill="rgb(96,6,0)" opacity="0.35"/>
<circle cx="96" cy="72" r="9" fill="rgb(96,6,0)"/>
<circle cx="120" cy="72" r="9" fill="#14171c"/>
<circle cx="144" cy="72" r="12" fill="rgb(10,3,19)" opacity="0.35"/>
<circle cx="144" cy="72" r="9" fill="rgb(10,3,19)"/>
<circle cx="168" cy="72" r="12" fill="rgb(28,14,67)" opacity="0.35"/>
<circle cx="168" cy="72" r="9" fill="rgb(28,14,67)"/>
<circle cx="192" cy="72" r="12" fill="rgb(30,22,92)" opacity="0.35"/>
<circle cx="192" cy="72" r="9" fill="rgb(30,22,92)"/>
<circle cx="216" cy="72" r="12" fill="rgb(23,19,76)" opacity="0.35"/>
<circle cx="216" cy="72" r="9" fill="rgb(23,19,76)"/>
<circle cx="240" cy="72" r="12" fill="rgb(9,7,28)" opacity="0.35"/>
<circle cx="240" cy="72" r="9" fill="rgb(9,7,28)"/>
<circle cx="264" cy="72" r="9" fill="#14171c"/>
<circle cx="288" cy="72" r="12" fill="rgb(44,11,80)" opacity="0.35"/>
<circle cx="288" cy="72" r="9" fill="rgb(44,11,80)"/>
<circle cx="312" cy="72" r="12" fill="rgb(155,13,211)" opacity="0.35"/>
<circle cx="312" cy="72" r="9" fill="rgb(155,13,211)"/>
<circle cx="336" cy="72" r="12" fill="rgb(173,11,0)" opacity="0.35"/>
<circle cx="336" cy="72" r="9" fill="rgb(173,11,0)"/>
<circle cx="360" cy="72" r="9" fill="#14171c"/>
<circle cx="384" cy="72" r="12" fill="rgb(91,39,0)" opacity="0.35"/>
<circle cx="384" cy="72" r="9" fill="rgb(91,39,0)"/>
<circle cx="24" cy="96" r="12" fill="rgb(153,72,0)" opacity="0.35"/>
<circle cx="24" cy="96" r="9" fill="rgb(153,72,0)"/>
<circle cx="48" cy="96" r="12" fill="rgb(216,58,0)" opacity="0.35"/>
<circle cx="48" cy="96" r="9" fill="rgb(216,58,0)"/>
<circle cx="72" cy="96" r="12" fill="rgb(57,4,0)" opacity="0.35"/>
<circle cx="72" cy="96" r="9" fill="rgb(57,4,0)"/>
<circle cx="96" cy="96" r="9" fill="#14171c"/>
<circle cx="120" cy="96" r="12" fill="rgb(56,24,126)" opacity="0.35"/>
<circle cx="120" cy="96" r="9" fill="rgb(56,24,126)"/>
<circle cx="144" cy="96" r="12" fill="rgb(53,61,217)" opacity="0.35"/>
<circle cx="144" cy="96" r="9" fill="rgb(53,61,217)"/>
<circle cx="168" cy="96" r="12" fill="rgb(36,84,226)" opacity="0.35"/>
<circle cx="168" cy="96" r="9" fill="rgb(36,84,226)"/>
<circle cx="192" cy="96" r="12" fill="rgb(28,92,216)" opacity="0.35"/>
<circle cx="192" cy="96" r="9" fill="rgb(28,92,216)"/>
<circle cx="216" cy="96" r="12" fill="rgb(27,100,223)" opacity="0.35"/>
<circle cx="216" cy="96" r="9" fill="rgb(27,100,223)"/>
<circle cx="240" cy="96" r="12" fill="rgb(29,95,223)" opacity="0.35"/>
<circle cx="240" cy="96" r="9" fill="rgb(29,95,223)"/>
<circle cx="264" cy="96" r="12" fill="rgb(23,53,144)" opacity="0.35"/>
<circle cx="264" cy="96" r="9" fill="rgb(23,53,144)"/>
<circle cx="288" cy="96" r="9" fill="#14171c"/>
<circle cx="312" cy="96" r="12" fill="rgb(24,10,54)" opacity="0.35"/>
<circle cx="312" cy="96" r="9" fill="rgb(24,10,54)"/>
<circle cx="336" cy="96" r="12" fill="rgb(146,17,215)" opacity="0.35"/>
<circle cx="336" cy="96" r="9" fill="rgb(146,17,215)"/>
<circle cx="360" cy="96" r="12" fill="rgb(134,8,0)" opacity="0.35"/>
<circle cx="360" cy="96" r="9" fill="rgb(134,8,0)"/>
<circle cx="384" cy="96" r="9" fill="#14171c"/>
<circle cx="24" cy="120" r="12" fill="rgb(229,81,0)" opacity="0.35"/>
<circle cx="24" cy="120" r="9" fill="rgb(229,81,0)"/>
<circle cx="48" cy="120" r="12" fill="rgb(79,10,0)" opacity="0.35"/>
<circle cx="48" cy="120" r="9" fill="rgb(79,10,0)"/>
<circle cx="72" cy="120" r="9" fill="#14171c"/>
<circle cx="96" cy="120" r="12" fill="rgb(77,33,173)" opacity="0.35"/>
<circle cx="96" cy="120" r="9" fill="rgb(77,33,173)"/>
<circle cx="120" cy="120" r="12" fill="rgb(41,69,219)" opacity="0.35"/>
<circle cx="120" cy="120" r="9" fill="rgb(41,69,219)"/>
<circle cx="144" cy="120" r="12" fill="rgb(14,50,112)" opacity="0.35"/>
<circle cx="144" cy="120" r="9" fill="rgb(14,50,112)"/>
<circle cx="168" cy="120" r="12" fill="rgb(2,16,30)" opacity="0.35"/>
<circle cx="168" cy="120" r="9" fill="rgb(2,16,30)"/>
<circle cx="192" cy="120" r="9" fill="#14171c"/>
<circle cx="216" cy="120" r="12" fill="rgb(0,14,21)" opacity="0.35"/>
<circle cx="216" cy="120" r="9" fill="rgb(0,14,21)"/>
<circle cx="240" cy="120" r="12" fill="rgb(3,58,93)" opacity="0.35"/>
<circle cx="240" cy="120" r="9" fill="rgb(3,58,93)"/>
<circle cx="264" cy="120" r="12" fill="rgb(14,117,212)" opacity="0.35"/>
<circle cx="264" cy="120" r="9" fill="rgb(14,117,212)"/>
<circle cx="288" cy="120" r="12" fill="rgb(22,80,178)" opacity="0.35"/>
<circle cx="288" cy="120" r="9" fill="rgb(22,80,178)"/>
<circle cx="312" cy="120" r="9" fill="#14171c"/>
<circle cx="336" cy="120" r="12" fill="rgb(45,19,101)" opacity="0.35"/>
<circle cx="336" cy="120" r="9" fill="rgb(45,19,101)"/>
<circle cx="360" cy="120" r="12" fill="rgb(161,13,220)" opacity="0.35"/>
<circle cx="360" cy="120" r="9" fill="rgb(161,13,220)"/>
<circle cx="384" cy="120" r="12" fill="rgb(37,5,0)" opacity="0.35"/>
<circle cx="384" cy="120" r="9" fill="rgb(37,5,0)"/>
<circle cx="24" cy="144" r="12" fill="rgb(162,41,0)" opacity="0.35"/>
<circle cx="24" cy="144" r="9" fill="rgb(162,41,0)"/>
<circle cx="48" cy="144" r="9" fill="#14171c"/>
<circle cx="72" cy="144" r="12" fill="rgb(81,21,146)" opacity="0.35"/>
<circle cx="72" cy="144" r="9" fill="rgb(81,21,146)"/>
<circle cx="96" cy="144" r="12" fill="rgb(52,60,213)" opacity="0.35"/>
<circle cx="96" cy="144" r="9" fill="rgb(52,60,213)"/>
<circle cx="120" cy="144" r="12" fill="rgb(6,23,51)" opacity="0.35"/>
<circle cx="120" cy="144" r="9" fill="rgb(6,23,51)"/>
<circle cx="144" cy="144" r="9" fill="#14171c"/>
<circle cx="168" cy="144" r="12" fill="rgb(0,70,93)" opacity="0.35"/>
<circle cx="168" cy="144" r="9" fill="rgb(0,70,93)"/>
<circle cx="192" cy="144" r="12" fill="rgb(0,109,117)" opacity="0.35"/>
<circle cx="192" cy="144" r="9" fill="rgb(0,109,117)"/>
<circle cx="216" cy="144" r="12" fill="rgb(0,87,85)" opacity="0.35"/>
<circle cx="216" cy="144" r="9" fill="rgb(0,87,85)"/>
<circle cx="240" cy="144" r="9" fill="#14171c"/>
<circle cx="264" cy="144" r="12" fill="rgb(0,31,42)" opacity="0.35"/>
<circle cx="264" cy="144" r="9" fill="rgb(0,31,42)"/>
<circle cx="288" cy="144" r="12" fill="rgb(10,132,220)" opacity="0.35"/>
<circle cx="288" cy="144" r="9" fill="rgb(10,132,220)"/>
<circle cx="312" cy="144" r="12" fill="rgb(14,53,117)" opacity="0.35"/>
<circle cx="312" cy="144" r="9" fill="rgb(14,53,117)"/>
<circle cx="336" cy="144" r="9" fill="#14171c"/>
<circle cx="360" cy="144" r="12" fill="rgb(115,30,207)" opacity="0.35"/>
<circle cx="360" cy="144" r="9" fill="rgb(115,30,207)"/>
<circle cx="384" cy="144" r="12" fill="rgb(117,2,0)" opacity="0.35"/>
<circle cx="384" cy="144" r="9" fill="rgb(117,2,0)"/>
<circle cx="24" cy="168" r="12" fill="rgb(64,11,0)" opacity="0.35"/>
<circle cx="24" cy="168" r="9" fill="rgb(64,11,0)"/>
<circle cx="48" cy="168" r="12" fill="rgb(37,2,49)" opacity="0.35"/>
<circle cx="48" cy="168" r="9" fill="rgb(37,2,49)"/>
<circle cx="72" cy="168" r="12" fill="rgb(94,47,226)" opacity="0.35"/>
<circle cx="72" cy="168" r="9" fill="rgb(94,47,226)"/>
<circle cx="96" cy="168" r="12" fill="rgb(14,31,85)" opacity="0.35"/>
<circle cx="96" cy="168" r="9" fill="rgb(14,31,85)"/>
<circle cx="120" cy="168" r="12" fill="rgb(1,9,17)" opacity="0.35"/>
<circle cx="120" cy="168" r="9" fill="rgb(1,9,17)"/>
<circle cx="144" cy="168" r="12" fill="rgb(0,129,173)" opacity="0.35"/>
<circle cx="144" cy="168" r="9" fill="rgb(0,129,173)"/>
<circle cx="168" cy="168" r="12" fill="rgb(0,162,145)" opacity="0.35"/>
<circle cx="168" cy="168" r="9" fill="rgb(0,162,145)"/>
<circle cx="192" cy="168" r="12" fill="rgb(0,129,75)" opacity="0.35"/>
<circle cx="192" cy="168" r="9" fill="rgb(0,129,75)"/>
<circle cx="216" cy="168" r="12" fill="rgb(0,159,73)" opacity="0.35"/>
<circle cx="216" cy="168" r="9" fill="rgb(0,159,73)"/>
<circle cx="240" cy="168" r="12" fill="rgb(0,152,88)" opacity="0.35"/>
<circle cx="240" cy="168" r="9" fill="rgb(0,152,88)"/>
<circle cx="264" cy="168" r="9" fill="#14171c"/>
<circle cx="288" cy="168" r="12" fill="rgb(0,91,122)" opacity="0.35"/>
<circle cx="288" cy="168" r="9" fill="rgb(0,91,122)"/>
<circle cx="312" cy="168" r="12" fill="rgb(13,111,200)" opacity="0.35"/>
<circle cx="312" cy="168" r="9" fill="rgb(13,111,200)"/>
<circle cx="336" cy="168" r="9" fill="#14171c"/>
<circle cx="360" cy="168" r="12" fill="rgb(67,33,160)" opacity="0.35"/>
<circle cx="360" cy="168" r="9" fill="rgb(67,33,160)"/>
<circle cx="384" cy="168" r="12" fill="rgb(127,8,168)" opacity="0.35"/>
<circle cx="384" cy="168" r="9" fill="rgb(127,8,168)"/>
<circle cx="24" cy="192" r="9" fill="#14171c"/>
<circle cx="48" cy="192" r="12" fill="rgb(87,10,128)" opacity="0.35"/>
<circle cx="48" cy="192" r="9" fill="rgb(87,10,128)"/>
<circle cx="72" cy="192" r="12" fill="rgb(66,49,200)" opacity="0.35"/>
<circle cx="72" cy="192" r="9" fill="rgb(66,49,200)"/>
<circle cx="96" cy="192" r="9" fill="#14171c"/>
<circle cx="120" cy="192" r="12" fill="rgb(5,85,137)" opacity="0.35"/>
<circle cx="120" cy="192" r="9" fill="rgb(5,85,137)"/>
<circle cx="144" cy="192" r="12" fill="rgb(0,151,162)" opacity="0.35"/>
<circle cx="144" cy="192" r="9" fill="rgb(0,151,162)"/>
<circle cx="168" cy="192" r="12" fill="rgb(0,24,14)" opacity="0.35"/>
<circle cx="168" cy="192" r="9" fill="rgb(0,24,14)"/>
<circle cx="192" cy="192" r="9" fill="#14171c"/>
<circle cx="216" cy="192" r="9" fill="#14171c"/>
<circle cx="240" cy="192" r="12" fill="rgb(57,175,53)" opacity="0.35"/>
<circle cx="240" cy="192" r="9" fill="rgb(57,175,53)"/>
<circle cx="264" cy="192" r="12" fill="rgb(0,48,28)" opacity="0.35"/>
<circle cx="264" cy="192" r="9" fill="rgb(0,48,28)"/>
<circle cx="288" cy="192" r="12" fill="rgb(0,57,61)" opacity="0.35"/>
<circle cx="288" cy="192" r="9" fill="rgb(0,57,61)"/>
<circle cx="312" cy="192" r="12" fill="rgb(8,138,221)" opacity="0.35"/>
<circle cx="312" cy="192" r="9" fill="rgb(8,138,221)"/>
<circle cx="336" cy="192" r="9" fill="#14171c"/>
<circle cx="360" cy="192" r="12" fill="rgb(45,33,136)" opacity="0.35"/>
<circle cx="360" cy="192" r="9" fill="rgb(45,33,136)"/>
<circle cx="384" cy="192" r="12" fill="rgb(126,15,185)" opacity="0.35"/>
<circle cx="384" cy="192" r="9" fill="rgb(126,15,185)"/>
<circle cx="24" cy="216" r="9" fill="#14171c"/>
<circle cx="48" cy="216" r="12" fill="rgb(114,16,174)" opacity="0.35"/>
<circle cx="48" cy="216" r="9" fill="rgb(114,16,174)"/>
<circle cx="72" cy="216" r="12" fill="rgb(46,39,152)" opacity="0.35"/>
<circle cx="72" cy="216" r="9" fill="rgb(46,39,152)"/>
<circle cx="96" cy="216" r="9" fill="#14171c"/>
<circle cx="120" cy="216" r="12" fill="rgb(4,135,209)" opacity="0.35"/>
<circle cx="120" cy="216" r="9" fill="rgb(4,135,209)"/>
<circle cx="144" cy="216" r="12" fill="rgb(0,81,79)" opacity="0.35"/>
<circle cx="144" cy="216" r="9" fill="rgb(0,81,79)"/>
<circle cx="168" cy="216" r="12" fill="rgb(0,20,9)" opacity="0.35"/>
<circle cx="168" cy="216" r="9" fill="rgb(0,20,9)"/>
<circle cx="192" cy="216" r="12" fill="rgb(108,183,38)" opacity="0.35"/>
<circle cx="192" cy="216" r="9" fill="rgb(108,183,38)"/>
<circle cx="216" cy="216" r="12" fill="rgb(68,57,0)" opacity="0.35"/>
<circle cx="216" cy="216" r="9" fill="rgb(68,57,0)"/>
<circle cx="240" cy="216" r="12" fill="rgb(108,183,38)" opacity="0.35"/>
<circle cx="240" cy="216" r="9" fill="rgb(108,183,38)"/>
<circle cx="264" cy="216" r="12" fill="rgb(0,20,9)" opacity="0.35"/>
<circle cx="264" cy="216" r="9" fill="rgb(0,20,9)"/>
<circle cx="288" cy="216" r="12" fill="rgb(0,81,79)" opacity="0.35"/>
<circle cx="288" cy="216" r="9" fill="rgb(0,81,79)"/>
<circle cx="312" cy="216" r="12" fill="rgb(4,135,209)" opacity="0.35"/>
<circle cx="312" cy="216" r="9" fill="rgb(4,135,209)"/>
<circle cx="336" cy="216" r="9" fill="#14171c"/>
<circle cx="360" cy="216" r="12" fill="rgb(46,39,152)" opacity="0.35"/>
<circle cx="360" cy="216" r="9" fill="rgb(46,39,152)"/>
<circle cx="384" cy="216" r="12" fill="rgb(114,16,174)" opacity="0.35"/>
<circle cx="384" cy="216" r="9" fill="rgb(114,16,174)"/>
<circle cx="24" cy="240" r="9" fill="#14171c"/>
<circle cx="48" cy="240" r="12" fill="rgb(126,15,185)" opacity="0.35"/>
<circle cx="48" cy="240" r="9" fill="rgb(126,15,185)"/>
<circle cx="72" cy="240" r="12" fill="rgb(45,33,136)" opacity="0.35"/>
<circle cx="72" cy="240" r="9" fill="rgb(45,33,136)"/>
<circle cx="96" cy="240" r="9" fill="#14171c"/>
<circle cx="120" cy="240" r="12" fill="rgb(8,138,221)" opacity="0.35"/>
<circle cx="120" cy="240" r="9" fill="rgb(8,138,221)"/>
<circle cx="144" cy="240" r="12" fill="rgb(0,57,61)" opacity="0.35"/>
<circle cx="144" cy="240" r="9" fill="rgb(0,57,61)"/>
<circle cx="168" cy="240" r="12" fill="rgb(0,48,28)" opacity="0.35"/>
<circle cx="168" cy="240" r="9" fill="rgb(0,48,28)"/>
<circle cx="192" cy="240" r="12" fill="rgb(57,175,53)" opacity="0.35"/>
<circle cx="192" cy="240" r="9" fill="rgb(57,175,53)"/>
<circle cx="216" cy="240" r="9" fill="#14171c"/>
<circle cx="240" cy="240" r="9" fill="#14171c"/>
<circle cx="264" cy="240" r="12" fill="rgb(0,24,14)" opacity="0.35"/>
<circle cx="264" cy="240" r="9" fill="rgb(0,24,14)"/>
<circle cx="288" cy="240" r="12" fill="rgb(0,151,162)" opacity="0.35"/>
<circle cx="288" cy="240" r="9" fill="rgb(0,151,162)"/>
<circle cx="312" cy="240" r="12" fill="rgb(5,85,137)" opacity="0.35"/>
<circle cx="312" cy="240" r="9" fill="rgb(5,85,137)"/>
<circle cx="336" cy="240" r="9" fill="#14171c"/>
<circle cx="360" cy="240" r="12" fill="rgb(66,49,200)" opacity="0.35"/>
<circle cx="360" cy="240" r="9" fill="rgb(66,49,200)"/>
<circle cx="384" cy="240" r="12" fill="rgb(87,10,128)" opacity="0.35"/>
<circle cx="384" cy="240" r="9" fill="rgb(87,10,128)"/>
<circle cx="24" cy="264" r="9" fill="#14171c"/>
<circle cx="48" cy="264" r="12" fill="rgb(127,8,168)" opacity="0.35"/>
<circle cx="48" cy="264" r="9" fill="rgb(127,8,168)"/>
<circle cx="72" cy="264" r="12" fill="rgb(67,33,160)" opacity="0.35"/>
<circle cx="72" cy="264" r="9" fill="rgb(67,33,160)"/>
<circle cx="96" cy="264" r="9" fill="#14171c"/>
<circle cx="120" cy="264" r="12" fill="rgb(13,111,200)" opacity="0.35"/>
<circle cx="120" cy="264" r="9" fill="rgb(13,111,200)"/>
<circle cx="144" cy="264" r="12" fill="rgb(0,91,122)" opacity="0.35"/>
<circle cx="144" cy="264" r="9" fill="rgb(0,91,122)"/>
<circle cx="168" cy="264" r="9" fill="#14171c"/>
<circle cx="192" cy="264" r="12" fill="rgb(0,152,88)" opacity="0.35"/>
<circle cx="192" cy="264" r="9" fill="rgb(0,152,88)"/>
<circle cx="216" cy="264" r="12" fill="rgb(0,159,73)" opacity="0.35"/>
<circle cx="216" cy="264" r="9" fill="rgb(0,159,73)"/>
<circle cx="240" cy="264" r="12" fill="rgb(0,129,75)" opacity="0.35"/>
<circle cx="240" cy="264" r="9" fill="rgb(0,129,75)"/>
<circle cx="264" cy="264" r="12" fill="rgb(0,162,145)" opacity="0.35"/>
<circle cx="264" cy="264" r="9" fill="rgb(0,162,145)"/>
<circle cx="288" cy="264" r="12" fill="rgb(0,129,173)" opacity="0.35"/>
<circle cx="288" cy="264" r="9" fill="rgb(0,129,173)"/>
<circle cx="312" cy="264" r="12" fill="rgb(1,9,17)" opacity="0.35"/>
<circle cx="312" cy="264" r="9" fill="rgb(1,9,17)"/>
<circle cx="336" cy="264" r="12" fill="rgb(14,31,85)" opacity="0.35"/>
<circle cx="336" cy="264" r="9" fill="rgb(14,31,85)"/>
<circle cx="360" cy="264" r="12" fill="rgb(94,47,226)" opacity="0.35"/>
<circle cx="360" cy="264" r="9" fill="rgb(94,47,226)"/>
<circle cx="384" cy="264" r="12" fill="rgb(37,2,49)" opacity="0.35"/>
<circle cx="384" cy="264" r="9" fill="rgb(37,2,49)"/>
<circle cx="24" cy="288" r="12" fill="rgb(18,4,0)" opacity="0.35"/>
<circle cx="24" cy="288" r="9" fill="rgb(18,4,0)"/>
<circle cx="48" cy="288" r="12" fill="rgb(117,2,0)" opacity="0.35"/>
<circle cx="48" cy="288" r="9" fill="rgb(117,2,0)"/>
<circle cx="72" cy="288" r="12" fill="rgb(115,30,207)" opacity="0.35"/>
<circle cx="72" cy="288" r="9" fill="rgb(115,30,207)"/>
<circle cx="96" cy="288" r="9" fill="#14171c"/>
<circle cx="120" cy="288" r="12" fill="rgb(14,53,117)" opacity="0.35"/>
<circle cx="120" cy="288" r="9" fill="rgb(14,53,117)"/>
<circle cx="144" cy="288" r="12" fill="rgb(10,132,220)" opacity="0.35"/>
<circle cx="144" cy="288" r="9" fill="rgb(10,132,220)"/>
<circle cx="168" cy="288" r="12" fill="rgb(0,31,42)" opacity="0.35"/>
<circle cx="168" cy="288" r="9" fill="rgb(0,31,42)"/>
<circle cx="192" cy="288" r="9" fill="#14171c"/>
<circle cx="216" cy="288" r="12" fill="rgb(0,87,85)" opacity="0.35"/>
<circle cx="216" cy="288" r="9" fill="rgb(0,87,85)"/>
<circle cx="240" cy="288" r="12" fill="rgb(0,109,117)" opacity="0.35"/>
<circle cx="240" cy="288" r="9" fill="rgb(0,109,117)"/>
<circle cx="264" cy="288" r="12" fill="rgb(0,70,93)" opacity="0.35"/>
<circle cx="264" cy="288" r="9" fill="rgb(0,70,93)"/>
<circle cx="288" cy="288" r="9" fill="#14171c"/>
<circle cx="312" cy="288" r="12" fill="rgb(6,23,51)" opacity="0.35"/>
<circle cx="312" cy="288" r="9" fill="rgb(6,23,51)"/>
<circle cx="336" cy="288" r="12" fill="rgb(52,60,213)" opacity="0.35"/>
<circle cx="336" cy="288" r="9" fill="rgb(52,60,213)"/>
<circle cx="360" cy="288" r="12" fill="rgb(81,21,146)" opacity="0.35"/>
<circle cx="360" cy="288" r="9" fill="rgb(81,21,146)"/>
<circle cx="384" cy="288" r="9" fill="#14171c"/>
<circle cx="24" cy="312" r="12" fill="rgb(78,28,0)" opacity="0.35"/>
<circle cx="24" cy="312" r="9" fill="rgb(78,28,0)"/>
<circle cx="48" cy="312" r="12" fill="rgb(37,5,0)" opacity="0.35"/>
<circle cx="48" cy="312" r="9" fill="rgb(37,5,0)"/>
<circle cx="72" cy="312" r="12" fill="rgb(161,13,220)" opacity="0.35"/>
<circle cx="72" cy="312" r="9" fill="rgb(161,13,220)"/>
<circle cx="96" cy="312" r="12" fill="rgb(45,19,101)" opacity="0.35"/>
<circle cx="96" cy="312" r="9" fill="rgb(45,19,101)"/>
<circle cx="120" cy="312" r="9" fill="#14171c"/>
<circle cx="144" cy="312" r="12" fill="rgb(22,80,178)" opacity="0.35"/>
<circle cx="144" cy="312" r="9" fill="rgb(22,80,178)"/>
<circle cx="168" cy="312" r="12" fill="rgb(14,117,212)" opacity="0.35"/>
<circle cx="168" cy="312" r="9" fill="rgb(14,117,212)"/>
<circle cx="192" cy="312" r="12" fill="rgb(3,58,93)" opacity="0.35"/>
<circle cx="192" cy="312" r="9" fill="rgb(3,58,93)"/>
<circle cx="216" cy="312" r="12" fill="rgb(0,14,21)" opacity="0.35"/>
<circle cx="216" cy="312" r="9" fill="rgb(0,14,21)"/>
<circle cx="240" cy="312" r="9" fill="#14171c"/>
<circle cx="264" cy="312" r="12" fill="rgb(2,16,30)" opacity="0.35"/>
<circle cx="264" cy="312" r="9" fill="rgb(2,16,30)"/>
<circle cx="288" cy="312" r="12" fill="rgb(14,50,112)" opacity="0.35"/>
<circle cx="288" cy="312" r="9" fill="rgb(14,50,112)"/>
<circle cx="312" cy="312" r="12" fill="rgb(41,69,219)" opacity="0.35"/>
<circle cx="312" cy="312" r="9" fill="rgb(41,69,219)"/>
<circle cx="336" cy="312" r="12" fill="rgb(77,33,173)" opacity="0.35"/>
<circle cx="336" cy="312" r="9" fill="rgb(77,33,173)"/>
<circle cx="360" cy="312" r="9" fill="#14171c"/>
<circle cx="384" cy="312" r="12" fill="rgb(79,10,0)" opacity="0.35"/>
<circle cx="384" cy="312" r="9" fill="rgb(79,10,0)"/>
<circle cx="24" cy="336" r="12" fill="rgb(177,84,0)" opacity="0.35"/>
<circle cx="24" cy="336" r="9" fill="rgb(177,84,0)"/>
<circle cx="48" cy="336" r="9" fill="#14171c"/>
<circle cx="72" cy="336" r="12" fill="rgb(134,8,0)" opacity="0.35"/>
<circle cx="72" cy="336" r="9" fill="rgb(134,8,0)"/>
<circle cx="96" cy="336" r="12" fill="rgb(146,17,215)" opacity="0.35"/>
<circle cx="96" cy="336" r="9" fill="rgb(146,17,215)"/>
<circle cx="120" cy="336" r="12" fill="rgb(24,10,54)" opacity="0.35"/>
<circle cx="120" cy="336" r="9" fill="rgb(24,10,54)"/>
<circle cx="144" cy="336" r="9" fill="#14171c"/>
<circle cx="168" cy="336" r="12" fill="rgb(23,53,144)" opacity="0.35"/>
<circle cx="168" cy="336" r="9" fill="rgb(23,53,144)"/>
<circle cx="192" cy="336" r="12" fill="rgb(29,95,223)" opacity="0.35"/>
<circle cx="192" cy="336" r="9" fill="rgb(29,95,223)"/>
<circle cx="216" cy="336" r="12" fill="rgb(27,100,223)" opacity="0.35"/>
<circle cx="216" cy="336" r="9" fill="rgb(27,100,223)"/>
<circle cx="240" cy="336" r="12" fill="rgb(28,92,216)" opacity="0.35"/>
<circle cx="240" cy="336" r="9" fill="rgb(28,92,216)"/>
<circle cx="264" cy="336" r="12" fill="rgb(36,84,226)" opacity="0.35"/>
<circle cx="264" cy="336" r="9" fill="rgb(36,84,226)"/>
<circle cx="288" cy="336" r="12" fill="rgb(53,61,217)" opacity="0.35"/>
<circle cx="288" cy="336" r="9" fill="rgb(53,61,217)"/>
<circle cx="312" cy="336" r="12" fill="rgb(56,24,126)" opacity="0.35"/>
<circle cx="312" cy="336" r="9" fill="rgb(56,24,126)"/>
<circle cx="336" cy="336" r="9" fill="#14171c"/>
<circle cx="360" cy="336" r="12" fill="rgb(57,4,0)" opacity="0.35"/>
<circle cx="360" cy="336" r="9" fill="rgb(57,4,0)"/>
<circle cx="384" cy="336" r="12" fill="rgb(216,58,0)" opacity="0.35"/>
<circle cx="384" cy="336" r="9" fill="rgb(216,58,0)"/>
<circle cx="24" cy="360" r="12" fill="rgb(229,134,0)" opacity="0.35"/>
<circle cx="24" cy="360" r="9" fill="rgb(229,134,0)"/>
<circle cx="48" cy="360" r="12" fill="rgb(91,39,0)" opacity="0.35"/>
<circle cx="48" cy="360" r="9" fill="rgb(91,39,0)"/>
<circle cx="72" cy="360" r="9" fill="#14171c"/>
<circle cx="96" cy="360" r="12" fill="rgb(173,11,0)" opacity="0.35"/>
<circle cx="96" cy="360" r="9" fill="rgb(173,11,0)"/>
<circle cx="120" cy="360" r="12" fill="rgb(155,13,211)" opacity="0.35"/>
<circle cx="120" cy="360" r="9" fill="rgb(155,13,211)"/>
<circle cx="144" cy="360" r="12" fill="rgb(44,11,80)" opacity="0.35"/>
<circle cx="144" cy="360" r="9" fill="rgb(44,11,80)"/>
<circle cx="168" cy="360" r="9" fill="#14171c"/>
<circle cx="192" cy="360" r="12" fill="rgb(9,7,28)" opacity="0.35"/>
<circle cx="192" cy="360" r="9" fill="rgb(9,7,28)"/>
<circle cx="216" cy="360" r="12" fill="rgb(23,19,76)" opacity="0.35"/>
<circle cx="216" cy="360" r="9" fill="rgb(23,19,76)"/>
<circle cx="240" cy="360" r="12" fill="rgb(30,22,92)" opacity="0.35"/>
<circle cx="240" cy="360" r="9" fill="rgb(30,22,92)"/>
<circle cx="264" cy="360" r="12" fill="rgb(28,14,67)" opacity="0.35"/>
<circle cx="264" cy="360" r="9" fill="rgb(28,14,67)"/>
<circle cx="288" cy="360" r="12" fill="rgb(10,3,19)" opacity="0.35"/>
<circle cx="288" cy="360" r="9" fill="rgb(10,3,19)"/>
<circle cx="312" cy="360" r="9" fill="#14171c"/>
<circle cx="336" cy="360" r="12" fill="rgb(96,6,0)" opacity="0.35"/>
<circle cx="336" cy="360" r="9" fill="rgb(96,6,0)"/>
<circle cx="360" cy="360" r="12" fill="rgb(220,52,0)" opacity="0.35"/>
<circle cx="360" cy="360" r="9" fill="rgb(220,52,0)"/>
<circle cx="384" cy="360" r="12" fill="rgb(171,72,0)" opacity="0.35"/>
<circle cx="384" cy="360" r="9" fill="rgb(171,72,0)"/>
<circle cx="24" cy="384" r="12" fill="rgb(141,99,0)" opacity="0.35"/>
<circle cx="24" cy="384" r="9" fill="rgb(141,99,0)"/>
<circle cx="48" cy="384" r="12" fill="rgb(220,124,0)" opacity="0.35"/>
<circle cx="48" cy="384" r="9" fill="rgb(220,124,0)"/>
<circle cx="72" cy="384" r="12" fill="rgb(59,25,0)" opacity="0.35"/>
<circle cx="72" cy="384" r="9" fill="rgb(59,25,0)"/>
<circle cx="96" cy="384" r="9" fill="#14171c"/>
<circle cx="120" cy="384" r="12" fill="rgb(151,20,0)" opacity="0.35"/>
<circle cx="120" cy="384" r="9" fill="rgb(151,20,0)"/>
<circle cx="144" cy="384" r="12" fill="rgb(229,4,0)" opacity="0.35"/>
<circle cx="144" cy="384" r="9" fill="rgb(229,4,0)"/>
<circle cx="168" cy="384" r="12" fill="rgb(133,8,176)" opacity="0.35"/>
<circle cx="168" cy="384" r="9" fill="rgb(133,8,176)"/>
<circle cx="192" cy="384" r="12" fill="rgb(66,8,97)" opacity="0.35"/>
<circle cx="192" cy="384" r="9" fill="rgb(66,8,97)"/>
<circle cx="216" cy="384" r="12" fill="rgb(34,5,51)" opacity="0.35"/>
<circle cx="216" cy="384" r="9" fill="rgb(34,5,51)"/>
<circle cx="240" cy="384" r="12" fill="rgb(27,3,40)" opacity="0.35"/>
<circle cx="240" cy="384" r="9" fill="rgb(27,3,40)"/>
<circle cx="264" cy="384" r="12" fill="rgb(43,3,57)" opacity="0.35"/>
<circle cx="264" cy="384" r="9" fill="rgb(43,3,57)"/>
<circle cx="288" cy="384" r="12" fill="rgb(113,2,0)" opacity="0.35"/>
<circle cx="288" cy="384" r="9" fill="rgb(113,2,0)"/>
<circle cx="312" cy="384" r="12" fill="rgb(193,25,0)" opacity="0.35"/>
<circle cx="312" cy="384" r="9" fill="rgb(193,25,0)"/>
<circle cx="336" cy="384" r="12" fill="rgb(228,61,0)" opacity="0.35"/>
<circle cx="336" cy="384" r="9" fill="rgb(228,61,0)"/>
<circle cx="360" cy="384" r="12" fill="rgb(138,58,0)" opacity="0.35"/>
<circle cx="360" cy="384" r="9" fill="rgb(138,58,0)"/>
<circle cx="384" cy="384" r="9" fill="#14171c"/>
</svg>
