<svg xmlns="http://www.w3.org/2000/svg" viewBox="0 0 408 408" width="408" height="408" role="img" aria-label="LED preview of the Trails example graph">
<rect width="408" height="408" rx="10" fill="#05070a"/>
<circle cx="24" cy="24" r="12" fill="rgb(104,4,4)" opacity="0.35"/>
<circle cx="24" cy="24" r="9" fill="rgb(104,4,4)"/>
<circle cx="48" cy="24" r="12" fill="rgb(116,9,9)" opacity="0.35"/>
<circle cx="48" cy="24" r="9" fill="rgb(116,9,9)"/>
<circle cx="72" cy="24" r="12" fill="rgb(129,14,14)" opacity="0.35"/>
<circle cx="72" cy="24" r="9" fill="rgb(129,14,14)"/>
<circle cx="96" cy="24" r="12" fill="rgb(140,19,19)" opacity="0.35"/>
<circle cx="96" cy="24" r="9" fill="rgb(140,19,19)"/>
<circle cx="120" cy="24" r="12" fill="rgb(147,21,21)" opacity="0.35"/>
<circle cx="120" cy="24" r="9" fill="rgb(147,21,21)"/>
<circle cx="144" cy="24" r="12" fill="rgb(149,22,22)" opacity="0.35"/>
<circle cx="144" cy="24" r="9" fill="rgb(149,22,22)"/>
<circle cx="168" cy="24" r="12" fill="rgb(145,21,21)" opacity="0.35"/>
<circle cx="168" cy="24" r="9" fill="rgb(145,21,21)"/>
<circle cx="192" cy="24" r="12" fill="rgb(137,18,18)" opacity="0.35"/>
<circle cx="192" cy="24" r="9" fill="rgb(137,18,18)"/>
<circle cx="216" cy="24" r="12" fill="rgb(128,14,14)" opacity="0.35"/>
<circle cx="216" cy="24" r="9" fill="rgb(128,14,14)"/>
<circle cx="240" cy="24" r="12" fill="rgb(119,10,10)" opacity="0.35"/>
<circle cx="240" cy="24" r="9" fill="rgb(119,10,10)"/>
<circle cx="264" cy="24" r="12" fill="rgb(111,7,7)" opacity="0.35"/>
<circle cx="264" cy="24" r="9" fill="rgb(111,7,7)"/>
<circle cx="288" cy="24" r="12" fill="rgb(105,4,4)" opacity="0.35"/>
<circle cx="288" cy="24" r="9" fill="rgb(105,4,4)"/>
<circle cx="312" cy="24" r="12" fill="rgb(99,2,2)" opacity="0.35"/>
<circle cx="312" cy="24" r="9" fill="rgb(99,2,2)"/>
<circle cx="336" cy="24" r="12" fill="rgb(95,1,1)" opacity="0.35"/>
<circle cx="336" cy="24" r="9" fill="rgb(95,1,1)"/>
<circle cx="360" cy="24" r="12" fill="rgb(91,0,0)" opacity="0.35"/>
<circle cx="360" cy="24" r="9" fill="rgb(91,0,0)"/>
<circle cx="384" cy="24" r="12" fill="rgb(87,0,0)" opacity="0.35"/>
<circle cx="384" cy="24" r="9" fill="rgb(87,0,0)"/>
<circle cx="24" cy="48" r="12" fill="rgb(117,9,9)" opacity="0.35"/>
<circle cx="24" cy="48" r="9" fill="rgb(117,9,9)"/>
<circle cx="48" cy="48" r="12" fill="rgb(134,16,16)" opacity="0.35"/>
<circle cx="48" cy="48" r="9" fill="rgb(134,16,16)"/>
<circle cx="72" cy="48" r="12" fill="rgb(152,23,23)" opacity="0.35"/>
<circle cx="72" cy="48" r="9" fill="rgb(152,23,23)"/>
<circle cx="96" cy="48" r="12" fill="rgb(169,30,30)" opacity="0.35"/>
<circle cx="96" cy="48" r="9" fill="rgb(169,30,30)"/>
<circle cx="120" cy="48" r="12" fill="rgb(180,35,33)" opacity="0.35"/>
<circle cx="120" cy="48" r="9" fill="rgb(180,35,33)"/>
<circle cx="144" cy="48" r="12" fill="rgb(182,37,32)" opacity="0.35"/>
<circle cx="144" cy="48" r="9" fill="rgb(182,37,32)"/>
<circle cx="168" cy="48" r="12" fill="rgb(175,33,33)" opacity="0.35"/>
<circle cx="168" cy="48" r="9" fill="rgb(175,33,33)"/>
<circle cx="192" cy="48" r="12" fill="rgb(162,27,27)" opacity="0.35"/>
<circle cx="192" cy="48" r="9" fill="rgb(162,27,27)"/>
<circle cx="216" cy="48" r="12" fill="rgb(147,22,22)" opacity="0.35"/>
<circle cx="216" cy="48" r="9" fill="rgb(147,22,22)"/>
<circle cx="240" cy="48" r="12" fill="rgb(134,16,16)" opacity="0.35"/>
<circle cx="240" cy="48" r="9" fill="rgb(134,16,16)"/>
<circle cx="264" cy="48" r="12" fill="rgb(124,12,12)" opacity="0.35"/>
<circle cx="264" cy="48" r="9" fill="rgb(124,12,12)"/>
<circle cx="288" cy="48" r="12" fill="rgb(116,9,9)" opacity="0.35"/>
<circle cx="288" cy="48" r="9" fill="rgb(116,9,9)"/>
<circle cx="312" cy="48" r="12" fill="rgb(110,6,6)" opacity="0.35"/>
<circle cx="312" cy="48" r="9" fill="rgb(110,6,6)"/>
<circle cx="336" cy="48" r="12" fill="rgb(105,5,5)" opacity="0.35"/>
<circle cx="336" cy="48" r="9" fill="rgb(105,5,5)"/>
<circle cx="360" cy="48" r="12" fill="rgb(101,3,3)" opacity="0.35"/>
<circle cx="360" cy="48" r="9" fill="rgb(101,3,3)"/>
<circle cx="384" cy="48" r="12" fill="rgb(96,1,1)" opacity="0.35"/>
<circle cx="384" cy="48" r="9" fill="rgb(96,1,1)"/>
<circle cx="24" cy="72" r="12" fill="rgb(130,14,14)" opacity="0.35"/>
<circle cx="24" cy="72" r="9" fill="rgb(130,14,14)"/>
<circle cx="48" cy="72" r="12" fill="rgb(152,23,23)" opacity="0.35"/>
<circle cx="48" cy="72" r="9" fill="rgb(152,23,23)"/>
<circle cx="72" cy="72" r="12" fill="rgb(178,34,34)" opacity="0.35"/>
<circle cx="72" cy="72" r="9" fill="rgb(178,34,34)"/>
<circle cx="96" cy="72" r="12" fill="rgb(201,51,24)" opacity="0.35"/>
<circle cx="96" cy="72" r="9" fill="rgb(201,51,24)"/>
<circle cx="120" cy="72" r="12" fill="rgb(218,63,16)" opacity="0.35"/>
<circle cx="120" cy="72" r="9" fill="rgb(218,63,16)"/>
<circle cx="144" cy="72" r="12" fill="rgb(221,66,15)" opacity="0.35"/>
<circle cx="144" cy="72" r="9" fill="rgb(221,66,15)"/>
<circle cx="168" cy="72" r="12" fill="rgb(209,57,20)" opacity="0.35"/>
<circle cx="168" cy="72" r="9" fill="rgb(209,57,20)"/>
<circle cx="192" cy="72" r="12" fill="rgb(189,42,29)" opacity="0.35"/>
<circle cx="192" cy="72" r="9" fill="rgb(189,42,29)"/>
<circle cx="216" cy="72" r="12" fill="rgb(168,30,30)" opacity="0.35"/>
<circle cx="216" cy="72" r="9" fill="rgb(168,30,30)"/>
<circle cx="240" cy="72" r="12" fill="rgb(150,23,23)" opacity="0.35"/>
<circle cx="240" cy="72" r="9" fill="rgb(150,23,23)"/>
<circle cx="264" cy="72" r="12" fill="rgb(137,17,17)" opacity="0.35"/>
<circle cx="264" cy="72" r="9" fill="rgb(137,17,17)"/>
<circle cx="288" cy="72" r="12" fill="rgb(128,14,14)" opacity="0.35"/>
<circle cx="288" cy="72" r="9" fill="rgb(128,14,14)"/>
<circle cx="312" cy="72" r="12" fill="rgb(122,11,11)" opacity="0.35"/>
<circle cx="312" cy="72" r="9" fill="rgb(122,11,11)"/>
<circle cx="336" cy="72" r="12" fill="rgb(118,10,10)" opacity="0.35"/>
<circle cx="336" cy="72" r="9" fill="rgb(118,10,10)"/>
<circle cx="360" cy="72" r="12" fill="rgb(114,8,8)" opacity="0.35"/>
<circle cx="360" cy="72" r="9" fill="rgb(114,8,8)"/>
<circle cx="384" cy="72" r="12" fill="rgb(109,6,6)" opacity="0.35"/>
<circle cx="384" cy="72" r="9" fill="rgb(109,6,6)"/>
<circle cx="24" cy="96" r="12" fill="rgb(141,19,19)" opacity="0.35"/>
<circle cx="24" cy="96" r="9" fill="rgb(141,19,19)"/>
<circle cx="48" cy="96" r="12" fill="rgb(169,30,30)" opacity="0.35"/>
<circle cx="48" cy="96" r="9" fill="rgb(169,30,30)"/>
<circle cx="72" cy="96" r="12" fill="rgb(201,51,24)" opacity="0.35"/>
<circle cx="72" cy="96" r="9" fill="rgb(201,51,24)"/>
<circle cx="96" cy="96" r="12" fill="rgb(235,76,9)" opacity="0.35"/>
<circle cx="96" cy="96" r="9" fill="rgb(235,76,9)"/>
<circle cx="120" cy="96" r="12" fill="rgb(255,99,7)" opacity="0.35"/>
<circle cx="120" cy="96" r="9" fill="rgb(255,99,7)"/>
<circle cx="144" cy="96" r="12" fill="rgb(255,105,13)" opacity="0.35"/>
<circle cx="144" cy="96" r="9" fill="rgb(255,105,13)"/>
<circle cx="168" cy="96" r="12" fill="rgb(246,83,4)" opacity="0.35"/>
<circle cx="168" cy="96" r="9" fill="rgb(246,83,4)"/>
<circle cx="192" cy="96" r="12" fill="rgb(215,61,18)" opacity="0.35"/>
<circle cx="192" cy="96" r="9" fill="rgb(215,61,18)"/>
<circle cx="216" cy="96" r="12" fill="rgb(186,40,30)" opacity="0.35"/>
<circle cx="216" cy="96" r="9" fill="rgb(186,40,30)"/>
<circle cx="240" cy="96" r="12" fill="rgb(164,28,28)" opacity="0.35"/>
<circle cx="240" cy="96" r="9" fill="rgb(164,28,28)"/>
<circle cx="264" cy="96" r="12" fill="rgb(149,22,22)" opacity="0.35"/>
<circle cx="264" cy="96" r="9" fill="rgb(149,22,22)"/>
<circle cx="288" cy="96" r="12" fill="rgb(140,19,19)" opacity="0.35"/>
<circle cx="288" cy="96" r="9" fill="rgb(140,19,19)"/>
<circle cx="312" cy="96" r="12" fill="rgb(135,17,17)" opacity="0.35"/>
<circle cx="312" cy="96" r="9" fill="rgb(135,17,17)"/>
<circle cx="336" cy="96" r="12" fill="rgb(132,16,16)" opacity="0.35"/>
<circle cx="336" cy="96" r="9" fill="rgb(132,16,16)"/>
<circle cx="360" cy="96" r="12" fill="rgb(129,14,14)" opacity="0.35"/>
<circle cx="360" cy="96" r="9" fill="rgb(129,14,14)"/>
<circle cx="384" cy="96" r="12" fill="rgb(125,12,12)" opacity="0.35"/>
<circle cx="384" cy="96" r="9" fill="rgb(125,12,12)"/>
<circle cx="24" cy="120" r="12" fill="rgb(149,22,22)" opacity="0.35"/>
<circle cx="24" cy="120" r="9" fill="rgb(149,22,22)"/>
<circle cx="48" cy="120" r="12" fill="rgb(180,36,33)" opacity="0.35"/>
<circle cx="48" cy="120" r="9" fill="rgb(180,36,33)"/>
<circle cx="72" cy="120" r="12" fill="rgb(217,62,17)" opacity="0.35"/>
<circle cx="72" cy="120" r="9" fill="rgb(217,62,17)"/>
<circle cx="96" cy="120" r="12" fill="rgb(255,97,5)" opacity="0.35"/>
<circle cx="96" cy="120" r="9" fill="rgb(255,97,5)"/>
<circle cx="120" cy="120" r="12" fill="rgb(255,147,45)" opacity="0.35"/>
<circle cx="120" cy="120" r="9" fill="rgb(255,147,45)"/>
<circle cx="144" cy="120" r="12" fill="rgb(255,155,51)" opacity="0.35"/>
<circle cx="144" cy="120" r="9" fill="rgb(255,155,51)"/>
<circle cx="168" cy="120" r="12" fill="rgb(255,115,20)" opacity="0.35"/>
<circle cx="168" cy="120" r="9" fill="rgb(255,115,20)"/>
<circle cx="192" cy="120" r="12" fill="rgb(233,74,10)" opacity="0.35"/>
<circle cx="192" cy="120" r="9" fill="rgb(233,74,10)"/>
<circle cx="216" cy="120" r="12" fill="rgb(198,49,25)" opacity="0.35"/>
<circle cx="216" cy="120" r="9" fill="rgb(198,49,25)"/>
<circle cx="240" cy="120" r="12" fill="rgb(174,33,33)" opacity="0.35"/>
<circle cx="240" cy="120" r="9" fill="rgb(174,33,33)"/>
<circle cx="264" cy="120" r="12" fill="rgb(160,27,27)" opacity="0.35"/>
<circle cx="264" cy="120" r="9" fill="rgb(160,27,27)"/>
<circle cx="288" cy="120" r="12" fill="rgb(153,24,24)" opacity="0.35"/>
<circle cx="288" cy="120" r="9" fill="rgb(153,24,24)"/>
<circle cx="312" cy="120" r="12" fill="rgb(151,23,23)" opacity="0.35"/>
<circle cx="312" cy="120" r="9" fill="rgb(151,23,23)"/>
<circle cx="336" cy="120" r="12" fill="rgb(151,23,23)" opacity="0.35"/>
<circle cx="336" cy="120" r="9" fill="rgb(151,23,23)"/>
<circle cx="360" cy="120" r="12" fill="rgb(150,23,23)" opacity="0.35"/>
<circle cx="360" cy="120" r="9" fill="rgb(150,23,23)"/>
<circle cx="384" cy="120" r="12" fill="rgb(146,21,21)" opacity="0.35"/>
<circle cx="384" cy="120" r="9" fill="rgb(146,21,21)"/>
<circle cx="24" cy="144" r="12" fill="rgb(152,24,24)" opacity="0.35"/>
<circle cx="24" cy="144" r="9" fill="rgb(152,24,24)"/>
<circle cx="48" cy="144" r="12" fill="rgb(183,38,32)" opacity="0.35"/>
<circle cx="48" cy="144" r="9" fill="rgb(183,38,32)"/>
<circle cx="72" cy="144" r="12" fill="rgb(220,64,16)" opacity="0.35"/>
<circle cx="72" cy="144" r="9" fill="rgb(220,64,16)"/>
<circle cx="96" cy="144" r="12" fill="rgb(255,101,8)" opacity="0.35"/>
<circle cx="96" cy="144" r="9" fill="rgb(255,101,8)"/>
<circle cx="120" cy="144" r="12" fill="rgb(255,151,48)" opacity="0.35"/>
<circle cx="120" cy="144" r="9" fill="rgb(255,151,48)"/>
<circle cx="144" cy="144" r="12" fill="rgb(255,159,55)" opacity="0.35"/>
<circle cx="144" cy="144" r="9" fill="rgb(255,159,55)"/>
<circle cx="168" cy="144" r="12" fill="rgb(255,119,23)" opacity="0.35"/>
<circle cx="168" cy="144" r="9" fill="rgb(255,119,23)"/>
<circle cx="192" cy="144" r="12" fill="rgb(235,76,9)" opacity="0.35"/>
<circle cx="192" cy="144" r="9" fill="rgb(235,76,9)"/>
<circle cx="216" cy="144" r="12" fill="rgb(202,51,23)" opacity="0.35"/>
<circle cx="216" cy="144" r="9" fill="rgb(202,51,23)"/>
<circle cx="240" cy="144" r="12" fill="rgb(180,36,33)" opacity="0.35"/>
<circle cx="240" cy="144" r="9" fill="rgb(180,36,33)"/>
<circle cx="264" cy="144" r="12" fill="rgb(169,30,30)" opacity="0.35"/>
<circle cx="264" cy="144" r="9" fill="rgb(169,30,30)"/>
<circle cx="288" cy="144" r="12" fill="rgb(166,29,29)" opacity="0.35"/>
<circle cx="288" cy="144" r="9" fill="rgb(166,29,29)"/>
<circle cx="312" cy="144" r="12" fill="rgb(170,31,31)" opacity="0.35"/>
<circle cx="312" cy="144" r="9" fill="rgb(170,31,31)"/>
<circle cx="336" cy="144" r="12" fill="rgb(175,33,33)" opacity="0.35"/>
<circle cx="336" cy="144" r="9" fill="rgb(175,33,33)"/>
<circle cx="360" cy="144" r="12" fill="rgb(178,34,34)" opacity="0.35"/>
<circle cx="360" cy="144" r="9" fill="rgb(178,34,34)"/>
<circle cx="384" cy="144" r="12" fill="rgb(174,32,32)" opacity="0.35"/>
<circle cx="384" cy="144" r="9" fill="rgb(174,32,32)"/>
<circle cx="24" cy="168" r="12" fill="rgb(151,23,23)" opacity="0.35"/>
<circle cx="24" cy="168" r="9" fill="rgb(151,23,23)"/>
<circle cx="48" cy="168" r="12" fill="rgb(178,34,34)" opacity="0.35"/>
<circle cx="48" cy="168" r="9" fill="rgb(178,34,34)"/>
<circle cx="72" cy="168" r="12" fill="rgb(209,57,20)" opacity="0.35"/>
<circle cx="72" cy="168" r="9" fill="rgb(209,57,20)"/>
<circle cx="96" cy="168" r="12" fill="rgb(243,81,6)" opacity="0.35"/>
<circle cx="96" cy="168" r="9" fill="rgb(243,81,6)"/>
<circle cx="120" cy="168" r="12" fill="rgb(255,111,16)" opacity="0.35"/>
<circle cx="120" cy="168" r="9" fill="rgb(255,111,16)"/>
<circle cx="144" cy="168" r="12" fill="rgb(255,117,21)" opacity="0.35"/>
<circle cx="144" cy="168" r="9" fill="rgb(255,117,21)"/>
<circle cx="168" cy="168" r="12" fill="rgb(254,89,1)" opacity="0.35"/>
<circle cx="168" cy="168" r="9" fill="rgb(254,89,1)"/>
<circle cx="192" cy="168" r="12" fill="rgb(224,67,14)" opacity="0.35"/>
<circle cx="192" cy="168" r="9" fill="rgb(224,67,14)"/>
<circle cx="216" cy="168" r="12" fill="rgb(198,49,25)" opacity="0.35"/>
<circle cx="216" cy="168" r="9" fill="rgb(198,49,25)"/>
<circle cx="240" cy="168" r="12" fill="rgb(182,37,32)" opacity="0.35"/>
<circle cx="240" cy="168" r="9" fill="rgb(182,37,32)"/>
<circle cx="264" cy="168" r="12" fill="rgb(176,33,33)" opacity="0.35"/>
<circle cx="264" cy="168" r="9" fill="rgb(176,33,33)"/>
<circle cx="288" cy="168" r="12" fill="rgb(180,35,33)" opacity="0.35"/>
<circle cx="288" cy="168" r="9" fill="rgb(180,35,33)"/>
<circle cx="312" cy="168" r="12" fill="rgb(190,43,28)" opacity="0.35"/>
<circle cx="312" cy="168" r="9" fill="rgb(190,43,28)"/>
<circle cx="336" cy="168" r="12" fill="rgb(204,53,23)" opacity="0.35"/>
<circle cx="336" cy="168" r="9" fill="rgb(204,53,23)"/>
<circle cx="360" cy="168" r="12" fill="rgb(212,59,19)" opacity="0.35"/>
<circle cx="360" cy="168" r="9" fill="rgb(212,59,19)"/>
<circle cx="384" cy="168" r="12" fill="rgb(209,56,20)" opacity="0.35"/>
<circle cx="384" cy="168" r="9" fill="rgb(209,56,20)"/>
<circle cx="24" cy="192" r="12" fill="rgb(148,22,22)" opacity="0.35"/>
<circle cx="24" cy="192" r="9" fill="rgb(148,22,22)"/>
<circle cx="48" cy="192" r="12" fill="rgb(170,31,31)" opacity="0.35"/>
<circle cx="48" cy="192" r="9" fill="rgb(170,31,31)"/>
<circle cx="72" cy="192" r="12" fill="rgb(194,45,27)" opacity="0.35"/>
<circle cx="72" cy="192" r="9" fill="rgb(194,45,27)"/>
<circle cx="96" cy="192" r="12" fill="rgb(216,62,17)" opacity="0.35"/>
<circle cx="96" cy="192" r="9" fill="rgb(216,62,17)"/>
<circle cx="120" cy="192" r="12" fill="rgb(233,74,10)" opacity="0.35"/>
<circle cx="120" cy="192" r="9" fill="rgb(233,74,10)"/>
<circle cx="144" cy="192" r="12" fill="rgb(236,76,8)" opacity="0.35"/>
<circle cx="144" cy="192" r="9" fill="rgb(236,76,8)"/>
<circle cx="168" cy="192" r="12" fill="rgb(225,68,13)" opacity="0.35"/>
<circle cx="168" cy="192" r="9" fill="rgb(225,68,13)"/>
<circle cx="192" cy="192" r="12" fill="rgb(207,55,21)" opacity="0.35"/>
<circle cx="192" cy="192" r="9" fill="rgb(207,55,21)"/>
<circle cx="216" cy="192" r="12" fill="rgb(191,44,28)" opacity="0.35"/>
<circle cx="216" cy="192" r="9" fill="rgb(191,44,28)"/>
<circle cx="240" cy="192" r="12" fill="rgb(182,37,32)" opacity="0.35"/>
<circle cx="240" cy="192" r="9" fill="rgb(182,37,32)"/>
<circle cx="264" cy="192" r="12" fill="rgb(182,37,32)" opacity="0.35"/>
<circle cx="264" cy="192" r="9" fill="rgb(182,37,32)"/>
<circle cx="288" cy="192" r="12" fill="rgb(192,44,28)" opacity="0.35"/>
<circle cx="288" cy="192" r="9" fill="rgb(192,44,28)"/>
<circle cx="312" cy="192" r="12" fill="rgb(212,59,19)" opacity="0.35"/>
<circle cx="312" cy="192" r="9" fill="rgb(212,59,19)"/>
<circle cx="336" cy="192" r="12" fill="rgb(238,77,8)" opacity="0.35"/>
<circle cx="336" cy="192" r="9" fill="rgb(238,77,8)"/>
<circle cx="360" cy="192" r="12" fill="rgb(255,90,2)" opacity="0.35"/>
<circle cx="360" cy="192" r="9" fill="rgb(255,90,2)"/>
<circle cx="384" cy="192" r="12" fill="rgb(251,87,3)" opacity="0.35"/>
<circle cx="384" cy="192" r="9" fill="rgb(251,87,3)"/>
<circle cx="24" cy="216" r="12" fill="rgb(144,20,20)" opacity="0.35"/>
<circle cx="24" cy="216" r="9" fill="rgb(144,20,20)"/>
<circle cx="48" cy="216" r="12" fill="rgb(163,28,28)" opacity="0.35"/>
<circle cx="48" cy="216" r="9" fill="rgb(163,28,28)"/>
<circle cx="72" cy="216" r="12" fill="rgb(182,37,32)" opacity="0.35"/>
<circle cx="72" cy="216" r="9" fill="rgb(182,37,32)"/>
<circle cx="96" cy="216" r="12" fill="rgb(197,48,26)" opacity="0.35"/>
<circle cx="96" cy="216" r="9" fill="rgb(197,48,26)"/>
<circle cx="120" cy="216" r="12" fill="rgb(207,55,21)" opacity="0.35"/>
<circle cx="120" cy="216" r="9" fill="rgb(207,55,21)"/>
<circle cx="144" cy="216" r="12" fill="rgb(209,57,20)" opacity="0.35"/>
<circle cx="144" cy="216" r="9" fill="rgb(209,57,20)"/>
<circle cx="168" cy="216" r="12" fill="rgb(204,53,22)" opacity="0.35"/>
<circle cx="168" cy="216" r="9" fill="rgb(204,53,22)"/>
<circle cx="192" cy="216" r="12" fill="rgb(195,46,27)" opacity="0.35"/>
<circle cx="192" cy="216" r="9" fill="rgb(195,46,27)"/>
<circle cx="216" cy="216" r="12" fill="rgb(186,40,31)" opacity="0.35"/>
<circle cx="216" cy="216" r="9" fill="rgb(186,40,31)"/>
<circle cx="240" cy="216" r="12" fill="rgb(181,36,32)" opacity="0.35"/>
<circle cx="240" cy="216" r="9" fill="rgb(181,36,32)"/>
<circle cx="264" cy="216" r="12" fill="rgb(186,40,31)" opacity="0.35"/>
<circle cx="264" cy="216" r="9" fill="rgb(186,40,31)"/>
<circle cx="288" cy="216" r="12" fill="rgb(201,51,24)" opacity="0.35"/>
<circle cx="288" cy="216" r="9" fill="rgb(201,51,24)"/>
<circle cx="312" cy="216" r="12" fill="rgb(230,72,11)" opacity="0.35"/>
<circle cx="312" cy="216" r="9" fill="rgb(230,72,11)"/>
<circle cx="336" cy="216" r="12" fill="rgb(255,108,14)" opacity="0.35"/>
<circle cx="336" cy="216" r="9" fill="rgb(255,108,14)"/>
<circle cx="360" cy="216" r="12" fill="rgb(255,145,44)" opacity="0.35"/>
<circle cx="360" cy="216" r="9" fill="rgb(255,145,44)"/>
<circle cx="384" cy="216" r="12" fill="rgb(255,138,38)" opacity="0.35"/>
<circle cx="384" cy="216" r="9" fill="rgb(255,138,38)"/>
<circle cx="24" cy="240" r="12" fill="rgb(144,20,20)" opacity="0.35"/>
<circle cx="24" cy="240" r="9" fill="rgb(144,20,20)"/>
<circle cx="48" cy="240" r="12" fill="rgb(161,27,27)" opacity="0.35"/>
<circle cx="48" cy="240" r="9" fill="rgb(161,27,27)"/>
<circle cx="72" cy="240" r="12" fill="rgb(178,34,34)" opacity="0.35"/>
<circle cx="72" cy="240" r="9" fill="rgb(178,34,34)"/>
<circle cx="96" cy="240" r="12" fill="rgb(191,43,28)" opacity="0.35"/>
<circle cx="96" cy="240" r="9" fill="rgb(191,43,28)"/>
<circle cx="120" cy="240" r="12" fill="rgb(199,49,25)" opacity="0.35"/>
<circle cx="120" cy="240" r="9" fill="rgb(199,49,25)"/>
<circle cx="144" cy="240" r="12" fill="rgb(201,50,24)" opacity="0.35"/>
<circle cx="144" cy="240" r="9" fill="rgb(201,50,24)"/>
<circle cx="168" cy="240" r="12" fill="rgb(197,48,26)" opacity="0.35"/>
<circle cx="168" cy="240" r="9" fill="rgb(197,48,26)"/>
<circle cx="192" cy="240" r="12" fill="rgb(190,43,29)" opacity="0.35"/>
<circle cx="192" cy="240" r="9" fill="rgb(190,43,29)"/>
<circle cx="216" cy="240" r="12" fill="rgb(183,38,32)" opacity="0.35"/>
<circle cx="216" cy="240" r="9" fill="rgb(183,38,32)"/>
<circle cx="240" cy="240" r="12" fill="rgb(181,36,33)" opacity="0.35"/>
<circle cx="240" cy="240" r="9" fill="rgb(181,36,33)"/>
<circle cx="264" cy="240" r="12" fill="rgb(186,40,30)" opacity="0.35"/>
<circle cx="264" cy="240" r="9" fill="rgb(186,40,30)"/>
<circle cx="288" cy="240" r="12" fill="rgb(204,53,23)" opacity="0.35"/>
<circle cx="288" cy="240" r="9" fill="rgb(204,53,23)"/>
<circle cx="312" cy="240" r="12" fill="rgb(236,76,8)" opacity="0.35"/>
<circle cx="312" cy="240" r="9" fill="rgb(236,76,8)"/>
<circle cx="336" cy="240" r="12" fill="rgb(255,121,25)" opacity="0.35"/>
<circle cx="336" cy="240" r="9" fill="rgb(255,121,25)"/>
<circle cx="360" cy="240" r="12" fill="rgb(255,163,58)" opacity="0.35"/>
<circle cx="360" cy="240" r="9" fill="rgb(255,163,58)"/>
<circle cx="384" cy="240" r="12" fill="rgb(255,155,52)" opacity="0.35"/>
<circle cx="384" cy="240" r="9" fill="rgb(255,155,52)"/>
<circle cx="24" cy="264" r="12" fill="rgb(146,21,21)" opacity="0.35"/>
<circle cx="24" cy="264" r="9" fill="rgb(146,21,21)"/>
<circle cx="48" cy="264" r="12" fill="rgb(165,29,29)" opacity="0.35"/>
<circle cx="48" cy="264" r="9" fill="rgb(165,29,29)"/>
<circle cx="72" cy="264" r="12" fill="rgb(184,38,32)" opacity="0.35"/>
<circle cx="72" cy="264" r="9" fill="rgb(184,38,32)"/>
<circle cx="96" cy="264" r="12" fill="rgb(199,49,25)" opacity="0.35"/>
<circle cx="96" cy="264" r="9" fill="rgb(199,49,25)"/>
<circle cx="120" cy="264" r="12" fill="rgb(208,56,21)" opacity="0.35"/>
<circle cx="120" cy="264" r="9" fill="rgb(208,56,21)"/>
<circle cx="144" cy="264" r="12" fill="rgb(210,57,20)" opacity="0.35"/>
<circle cx="144" cy="264" r="9" fill="rgb(210,57,20)"/>
<circle cx="168" cy="264" r="12" fill="rgb(204,53,23)" opacity="0.35"/>
<circle cx="168" cy="264" r="9" fill="rgb(204,53,23)"/>
<circle cx="192" cy="264" r="12" fill="rgb(194,45,27)" opacity="0.35"/>
<circle cx="192" cy="264" r="9" fill="rgb(194,45,27)"/>
<circle cx="216" cy="264" r="12" fill="rgb(185,39,31)" opacity="0.35"/>
<circle cx="216" cy="264" r="9" fill="rgb(185,39,31)"/>
<circle cx="240" cy="264" r="12" fill="rgb(180,36,33)" opacity="0.35"/>
<circle cx="240" cy="264" r="9" fill="rgb(180,36,33)"/>
<circle cx="264" cy="264" r="12" fill="rgb(184,38,31)" opacity="0.35"/>
<circle cx="264" cy="264" r="9" fill="rgb(184,38,31)"/>
<circle cx="288" cy="264" r="12" fill="rgb(199,49,25)" opacity="0.35"/>
<circle cx="288" cy="264" r="9" fill="rgb(199,49,25)"/>
<circle cx="312" cy="264" r="12" fill="rgb(225,68,13)" opacity="0.35"/>
<circle cx="312" cy="264" r="9" fill="rgb(225,68,13)"/>
<circle cx="336" cy="264" r="12" fill="rgb(255,96,4)" opacity="0.35"/>
<circle cx="336" cy="264" r="9" fill="rgb(255,96,4)"/>
<circle cx="360" cy="264" r="12" fill="rgb(255,129,31)" opacity="0.35"/>
<circle cx="360" cy="264" r="9" fill="rgb(255,129,31)"/>
<circle cx="384" cy="264" r="12" fill="rgb(255,122,26)" opacity="0.35"/>
<circle cx="384" cy="264" r="9" fill="rgb(255,122,26)"/>
<circle cx="24" cy="288" r="12" fill="rgb(150,23,23)" opacity="0.35"/>
<circle cx="24" cy="288" r="9" fill="rgb(150,23,23)"/>
<circle cx="48" cy="288" r="12" fill="rgb(173,32,32)" opacity="0.35"/>
<circle cx="48" cy="288" r="9" fill="rgb(173,32,32)"/>
<circle cx="72" cy="288" r="12" fill="rgb(198,48,25)" opacity="0.35"/>
<circle cx="72" cy="288" r="9" fill="rgb(198,48,25)"/>
<circle cx="96" cy="288" r="12" fill="rgb(220,65,15)" opacity="0.35"/>
<circle cx="96" cy="288" r="9" fill="rgb(220,65,15)"/>
<circle cx="120" cy="288" r="12" fill="rgb(236,76,9)" opacity="0.35"/>
<circle cx="120" cy="288" r="9" fill="rgb(236,76,9)"/>
<circle cx="144" cy="288" r="12" fill="rgb(236,76,8)" opacity="0.35"/>
<circle cx="144" cy="288" r="9" fill="rgb(236,76,8)"/>
<circle cx="168" cy="288" r="12" fill="rgb(223,67,14)" opacity="0.35"/>
<circle cx="168" cy="288" r="9" fill="rgb(223,67,14)"/>
<circle cx="192" cy="288" r="12" fill="rgb(205,54,22)" opacity="0.35"/>
<circle cx="192" cy="288" r="9" fill="rgb(205,54,22)"/>
<circle cx="216" cy="288" r="12" fill="rgb(189,42,29)" opacity="0.35"/>
<circle cx="216" cy="288" r="9" fill="rgb(189,42,29)"/>
<circle cx="240" cy="288" r="12" fill="rgb(180,35,33)" opacity="0.35"/>
<circle cx="240" cy="288" r="9" fill="rgb(180,35,33)"/>
<circle cx="264" cy="288" r="12" fill="rgb(179,35,34)" opacity="0.35"/>
<circle cx="264" cy="288" r="9" fill="rgb(179,35,34)"/>
<circle cx="288" cy="288" r="12" fill="rgb(188,41,30)" opacity="0.35"/>
<circle cx="288" cy="288" r="9" fill="rgb(188,41,30)"/>
<circle cx="312" cy="288" r="12" fill="rgb(205,54,22)" opacity="0.35"/>
<circle cx="312" cy="288" r="9" fill="rgb(205,54,22)"/>
<circle cx="336" cy="288" r="12" fill="rgb(226,69,13)" opacity="0.35"/>
<circle cx="336" cy="288" r="9" fill="rgb(226,69,13)"/>
<circle cx="360" cy="288" r="12" fill="rgb(240,79,7)" opacity="0.35"/>
<circle cx="360" cy="288" r="9" fill="rgb(240,79,7)"/>
<circle cx="384" cy="288" r="12" fill="rgb(236,76,8)" opacity="0.35"/>
<circle cx="384" cy="288" r="9" fill="rgb(236,76,8)"/>
<circle cx="24" cy="312" r="12" fill="rgb(154,24,24)" opacity="0.35"/>
<circle cx="24" cy="312" r="9" fill="rgb(154,24,24)"/>
<circle cx="48" cy="312" r="12" fill="rgb(183,37,32)" opacity="0.35"/>
<circle cx="48" cy="312" r="9" fill="rgb(183,37,32)"/>
<circle cx="72" cy="312" r="12" fill="rgb(215,61,18)" opacity="0.35"/>
<circle cx="72" cy="312" r="9" fill="rgb(215,61,18)"/>
<circle cx="96" cy="312" r="12" fill="rgb(249,86,3)" opacity="0.35"/>
<circle cx="96" cy="312" r="9" fill="rgb(249,86,3)"/>
<circle cx="120" cy="312" r="12" fill="rgb(255,116,21)" opacity="0.35"/>
<circle cx="120" cy="312" r="9" fill="rgb(255,116,21)"/>
<circle cx="144" cy="312" r="12" fill="rgb(255,117,21)" opacity="0.35"/>
<circle cx="144" cy="312" r="9" fill="rgb(255,117,21)"/>
<circle cx="168" cy="312" r="12" fill="rgb(250,87,3)" opacity="0.35"/>
<circle cx="168" cy="312" r="9" fill="rgb(250,87,3)"/>
<circle cx="192" cy="312" r="12" fill="rgb(220,64,16)" opacity="0.35"/>
<circle cx="192" cy="312" r="9" fill="rgb(220,64,16)"/>
<circle cx="216" cy="312" r="12" fill="rgb(195,46,27)" opacity="0.35"/>
<circle cx="216" cy="312" r="9" fill="rgb(195,46,27)"/>
<circle cx="240" cy="312" r="12" fill="rgb(179,35,34)" opacity="0.35"/>
<circle cx="240" cy="312" r="9" fill="rgb(179,35,34)"/>
<circle cx="264" cy="312" r="12" fill="rgb(172,32,32)" opacity="0.35"/>
<circle cx="264" cy="312" r="9" fill="rgb(172,32,32)"/>
<circle cx="288" cy="312" r="12" fill="rgb(174,33,33)" opacity="0.35"/>
<circle cx="288" cy="312" r="9" fill="rgb(174,33,33)"/>
<circle cx="312" cy="312" r="12" fill="rgb(183,38,32)" opacity="0.35"/>
<circle cx="312" cy="312" r="9" fill="rgb(183,38,32)"/>
<circle cx="336" cy="312" r="12" fill="rgb(194,45,27)" opacity="0.35"/>
<circle cx="336" cy="312" r="9" fill="rgb(194,45,27)"/>
<circle cx="360" cy="312" r="12" fill="rgb(200,50,24)" opacity="0.35"/>
<circle cx="360" cy="312" r="9" fill="rgb(200,50,24)"/>
<circle cx="384" cy="312" r="12" fill="rgb(196,47,26)" opacity="0.35"/>
<circle cx="384" cy="312" r="9" fill="rgb(196,47,26)"/>
<circle cx="24" cy="336" r="12" fill="rgb(156,25,25)" opacity="0.35"/>
<circle cx="24" cy="336" r="9" fill="rgb(156,25,25)"/>
<circle cx="48" cy="336" r="12" fill="rgb(188,41,30)" opacity="0.35"/>
<circle cx="48" cy="336" r="9" fill="rgb(188,41,30)"/>
<circle cx="72" cy="336" r="12" fill="rgb(226,69,13)" opacity="0.35"/>
<circle cx="72" cy="336" r="9" fill="rgb(226,69,13)"/>
<circle cx="96" cy="336" r="12" fill="rgb(255,110,16)" opacity="0.35"/>
<circle cx="96" cy="336" r="9" fill="rgb(255,110,16)"/>
<circle cx="120" cy="336" r="12" fill="rgb(255,157,53)" opacity="0.35"/>
<circle cx="120" cy="336" r="9" fill="rgb(255,157,53)"/>
<circle cx="144" cy="336" r="12" fill="rgb(255,157,53)" opacity="0.35"/>
<circle cx="144" cy="336" r="9" fill="rgb(255,157,53)"/>
<circle cx="168" cy="336" r="12" fill="rgb(255,111,17)" opacity="0.35"/>
<circle cx="168" cy="336" r="9" fill="rgb(255,111,17)"/>
<circle cx="192" cy="336" r="12" fill="rgb(229,71,11)" opacity="0.35"/>
<circle cx="192" cy="336" r="9" fill="rgb(229,71,11)"/>
<circle cx="216" cy="336" r="12" fill="rgb(197,48,26)" opacity="0.35"/>
<circle cx="216" cy="336" r="9" fill="rgb(197,48,26)"/>
<circle cx="240" cy="336" r="12" fill="rgb(176,33,33)" opacity="0.35"/>
<circle cx="240" cy="336" r="9" fill="rgb(176,33,33)"/>
<circle cx="264" cy="336" r="12" fill="rgb(164,28,28)" opacity="0.35"/>
<circle cx="264" cy="336" r="9" fill="rgb(164,28,28)"/>
<circle cx="288" cy="336" r="12" fill="rgb(161,27,27)" opacity="0.35"/>
<circle cx="288" cy="336" r="9" fill="rgb(161,27,27)"/>
<circle cx="312" cy="336" r="12" fill="rgb(163,28,28)" opacity="0.35"/>
<circle cx="312" cy="336" r="9" fill="rgb(163,28,28)"/>
<circle cx="336" cy="336" r="12" fill="rgb(166,29,29)" opacity="0.35"/>
<circle cx="336" cy="336" r="9" fill="rgb(166,29,29)"/>
<circle cx="360" cy="336" r="12" fill="rgb(168,30,30)" opacity="0.35"/>
<circle cx="360" cy="336" r="9" fill="rgb(168,30,30)"/>
<circle cx="384" cy="336" r="12" fill="rgb(163,28,28)" opacity="0.35"/>
<circle cx="384" cy="336" r="9" fill="rgb(163,28,28)"/>
<circle cx="24" cy="360" r="12" fill="rgb(153,24,24)" opacity="0.35"/>
<circle cx="24" cy="360" r="9" fill="rgb(153,24,24)"/>
<circle cx="48" cy="360" r="12" fill="rgb(185,39,31)" opacity="0.35"/>
<circle cx="48" cy="360" r="9" fill="rgb(185,39,31)"/>
<circle cx="72" cy="360" r="12" fill="rgb(223,67,14)" opacity="0.35"/>
<circle cx="72" cy="360" r="9" fill="rgb(223,67,14)"/>
<circle cx="96" cy="360" r="12" fill="rgb(255,105,13)" opacity="0.35"/>
<circle cx="96" cy="360" r="9" fill="rgb(255,105,13)"/>
<circle cx="120" cy="360" r="12" fill="rgb(255,150,48)" opacity="0.35"/>
<circle cx="120" cy="360" r="9" fill="rgb(255,150,48)"/>
<circle cx="144" cy="360" r="12" fill="rgb(255,150,47)" opacity="0.35"/>
<circle cx="144" cy="360" r="9" fill="rgb(255,150,47)"/>
<circle cx="168" cy="360" r="12" fill="rgb(255,106,12)" opacity="0.35"/>
<circle cx="168" cy="360" r="9" fill="rgb(255,106,12)"/>
<circle cx="192" cy="360" r="12" fill="rgb(226,69,13)" opacity="0.35"/>
<circle cx="192" cy="360" r="9" fill="rgb(226,69,13)"/>
<circle cx="216" cy="360" r="12" fill="rgb(193,45,27)" opacity="0.35"/>
<circle cx="216" cy="360" r="9" fill="rgb(193,45,27)"/>
<circle cx="240" cy="360" r="12" fill="rgb(170,31,31)" opacity="0.35"/>
<circle cx="240" cy="360" r="9" fill="rgb(170,31,31)"/>
<circle cx="264" cy="360" r="12" fill="rgb(155,25,25)" opacity="0.35"/>
<circle cx="264" cy="360" r="9" fill="rgb(155,25,25)"/>
<circle cx="288" cy="360" r="12" fill="rgb(148,22,22)" opacity="0.35"/>
<circle cx="288" cy="360" r="9" fill="rgb(148,22,22)"/>
<circle cx="312" cy="360" r="12" fill="rgb(145,21,21)" opacity="0.35"/>
<circle cx="312" cy="360" r="9" fill="rgb(145,21,21)"/>
<circle cx="336" cy="360" r="12" fill="rgb(144,20,20)" opacity="0.35"/>
<circle cx="336" cy="360" r="9" fill="rgb(144,20,20)"/>
<circle cx="360" cy="360" r="12" fill="rgb(142,20,20)" opacity="0.35"/>
<circle cx="360" cy="360" r="9" fill="rgb(142,20,20)"/>
<circle cx="384" cy="360" r="12" fill="rgb(138,18,18)" opacity="0.35"/>
<circle cx="384" cy="360" r="9" fill="rgb(138,18,18)"/>
<circle cx="24" cy="384" r="12" fill="rgb(144,20,20)" opacity="0.35"/>
<circle cx="24" cy="384" r="9" fill="rgb(144,20,20)"/>
<circle cx="48" cy="384" r="12" fill="rgb(173,32,32)" opacity="0.35"/>
<circle cx="48" cy="384" r="9" fill="rgb(173,32,32)"/>
<circle cx="72" cy="384" r="12" fill="rgb(205,54,22)" opacity="0.35"/>
<circle cx="72" cy="384" r="9" fill="rgb(205,54,22)"/>
<circle cx="96" cy="384" r="12" fill="rgb(239,78,7)" opacity="0.35"/>
<circle cx="96" cy="384" r="9" fill="rgb(239,78,7)"/>
<circle cx="120" cy="384" r="12" fill="rgb(255,100,8)" opacity="0.35"/>
<circle cx="120" cy="384" r="9" fill="rgb(255,100,8)"/>
<circle cx="144" cy="384" r="12" fill="rgb(255,100,8)" opacity="0.35"/>
<circle cx="144" cy="384" r="9" fill="rgb(255,100,8)"/>
<circle cx="168" cy="384" r="12" fill="rgb(239,79,7)" opacity="0.35"/>
<circle cx="168" cy="384" r="9" fill="rgb(239,79,7)"/>
<circle cx="192" cy="384" r="12" fill="rgb(208,56,21)" opacity="0.35"/>
<circle cx="192" cy="384" r="9" fill="rgb(208,56,21)"/>
<circle cx="216" cy="384" r="12" fill="rgb(181,36,33)" opacity="0.35"/>
<circle cx="216" cy="384" r="9" fill="rgb(181,36,33)"/>
<circle cx="240" cy="384" r="12" fill="rgb(159,26,26)" opacity="0.35"/>
<circle cx="240" cy="384" r="9" fill="rgb(159,26,26)"/>
<circle cx="264" cy="384" r="12" fill="rgb(145,20,20)" opacity="0.35"/>
<circle cx="264" cy="384" r="9" fill="rgb(145,20,20)"/>
<circle cx="288" cy="384" r="12" fill="rgb(136,17,17)" opacity="0.35"/>
<circle cx="288" cy="384" r="9" fill="rgb(136,17,17)"/>
<circle cx="312" cy="384" r="12" fill="rgb(131,15,15)" opacity="0.35"/>
<circle cx="312" cy="384" r="9" fill="rgb(131,15,15)"/>
<circle cx="336" cy="384" r="12" fill="rgb(127,13,13)" opacity="0.35"/>
<circle cx="336" cy="384" r="9" fill="rgb(127,13,13)"/>
<circle cx="360" cy="384" r="12" fill="rgb(124,12,12)" opacity="0.35"/>
<circle cx="360" cy="384" r="9" fill="rgb(124,12,12)"/>
<circle cx="384" cy="384" r="12" fill="rgb(119,10,10)" opacity="0.35"/>
<circle cx="384" cy="384" r="9" fill="rgb(119,10,10)"/>
</svg>
