<svg xmlns="http://www.w3.org/2000/svg" viewBox="0 0 408 408" width="408" height="408" role="img" aria-label="LED preview of the Trails example graph">
<rect width="408" height="408" rx="10" fill="#05070a"/>
<circle cx="24" cy="24" r="12" fill="rgb(0,192,151)" opacity="0.35"/>
<circle cx="24" cy="24" r="9" fill="rgb(0,192,151)"/>
<circle cx="48" cy="24" r="12" fill="rgb(48,202,72)" opacity="0.35"/>
<circle cx="48" cy="24" r="9" fill="rgb(48,202,72)"/>
<circle cx="72" cy="24" r="12" fill="rgb(94,205,55)" opacity="0.35"/>
<circle cx="72" cy="24" r="9" fill="rgb(94,205,55)"/>
<circle cx="96" cy="24" r="12" fill="rgb(47,202,68)" opacity="0.35"/>
<circle cx="96" cy="24" r="9" fill="rgb(47,202,68)"/>
<circle cx="120" cy="24" r="12" fill="rgb(0,193,139)" opacity="0.35"/>
<circle cx="120" cy="24" r="9" fill="rgb(0,193,139)"/>
<circle cx="144" cy="24" r="12" fill="rgb(2,176,255)" opacity="0.35"/>
<circle cx="144" cy="24" r="9" fill="rgb(2,176,255)"/>
<circle cx="168" cy="24" r="12" fill="rgb(37,105,254)" opacity="0.35"/>
<circle cx="168" cy="24" r="9" fill="rgb(37,105,254)"/>
<circle cx="192" cy="24" r="12" fill="rgb(104,53,252)" opacity="0.35"/>
<circle cx="192" cy="24" r="9" fill="rgb(104,53,252)"/>
<circle cx="216" cy="24" r="12" fill="rgb(153,30,251)" opacity="0.35"/>
<circle cx="216" cy="24" r="9" fill="rgb(153,30,251)"/>
<circle cx="240" cy="24" r="12" fill="rgb(144,37,251)" opacity="0.35"/>
<circle cx="240" cy="24" r="9" fill="rgb(144,37,251)"/>
<circle cx="264" cy="24" r="12" fill="rgb(78,71,253)" opacity="0.35"/>
<circle cx="264" cy="24" r="9" fill="rgb(78,71,253)"/>
<circle cx="288" cy="24" r="12" fill="rgb(25,133,255)" opacity="0.35"/>
<circle cx="288" cy="24" r="9" fill="rgb(25,133,255)"/>
<circle cx="312" cy="24" r="12" fill="rgb(0,183,218)" opacity="0.35"/>
<circle cx="312" cy="24" r="9" fill="rgb(0,183,218)"/>
<circle cx="336" cy="24" r="12" fill="rgb(0,198,106)" opacity="0.35"/>
<circle cx="336" cy="24" r="9" fill="rgb(0,198,106)"/>
<circle cx="360" cy="24" r="12" fill="rgb(79,204,61)" opacity="0.35"/>
<circle cx="360" cy="24" r="9" fill="rgb(79,204,61)"/>
<circle cx="384" cy="24" r="12" fill="rgb(85,204,57)" opacity="0.35"/>
<circle cx="384" cy="24" r="9" fill="rgb(85,204,57)"/>
<circle cx="24" cy="48" r="12" fill="rgb(76,204,66)" opacity="0.35"/>
<circle cx="24" cy="48" r="9" fill="rgb(76,204,66)"/>
<circle cx="48" cy="48" r="12" fill="rgb(204,210,23)" opacity="0.35"/>
<circle cx="48" cy="48" r="9" fill="rgb(204,210,23)"/>
<circle cx="72" cy="48" r="12" fill="rgb(250,213,5)" opacity="0.35"/>
<circle cx="72" cy="48" r="9" fill="rgb(250,213,5)"/>
<circle cx="96" cy="48" r="12" fill="rgb(202,210,18)" opacity="0.35"/>
<circle cx="96" cy="48" r="9" fill="rgb(202,210,18)"/>
<circle cx="120" cy="48" r="12" fill="rgb(76,204,59)" opacity="0.35"/>
<circle cx="120" cy="48" r="9" fill="rgb(76,204,59)"/>
<circle cx="144" cy="48" r="12" fill="rgb(0,190,155)" opacity="0.35"/>
<circle cx="144" cy="48" r="9" fill="rgb(0,190,155)"/>
<circle cx="168" cy="48" r="12" fill="rgb(7,163,255)" opacity="0.35"/>
<circle cx="168" cy="48" r="9" fill="rgb(7,163,255)"/>
<circle cx="192" cy="48" r="12" fill="rgb(35,106,254)" opacity="0.35"/>
<circle cx="192" cy="48" r="9" fill="rgb(35,106,254)"/>
<circle cx="216" cy="48" r="12" fill="rgb(54,79,254)" opacity="0.35"/>
<circle cx="216" cy="48" r="9" fill="rgb(54,79,254)"/>
<circle cx="240" cy="48" r="12" fill="rgb(47,87,254)" opacity="0.35"/>
<circle cx="240" cy="48" r="9" fill="rgb(47,87,254)"/>
<circle cx="264" cy="48" r="12" fill="rgb(28,128,255)" opacity="0.35"/>
<circle cx="264" cy="48" r="9" fill="rgb(28,128,255)"/>
<circle cx="288" cy="48" r="12" fill="rgb(0,180,243)" opacity="0.35"/>
<circle cx="288" cy="48" r="9" fill="rgb(0,180,243)"/>
<circle cx="312" cy="48" r="12" fill="rgb(0,198,116)" opacity="0.35"/>
<circle cx="312" cy="48" r="9" fill="rgb(0,198,116)"/>
<circle cx="336" cy="48" r="12" fill="rgb(140,207,45)" opacity="0.35"/>
<circle cx="336" cy="48" r="9" fill="rgb(140,207,45)"/>
<circle cx="360" cy="48" r="12" fill="rgb(235,212,11)" opacity="0.35"/>
<circle cx="360" cy="48" r="9" fill="rgb(235,212,11)"/>
<circle cx="384" cy="48" r="12" fill="rgb(241,212,7)" opacity="0.35"/>
<circle cx="384" cy="48" r="9" fill="rgb(241,212,7)"/>
<circle cx="24" cy="72" r="12" fill="rgb(255,212,5)" opacity="0.35"/>
<circle cx="24" cy="72" r="9" fill="rgb(255,212,5)"/>
<circle cx="48" cy="72" r="12" fill="rgb(255,171,0)" opacity="0.35"/>
<circle cx="48" cy="72" r="9" fill="rgb(255,171,0)"/>
<circle cx="72" cy="72" r="12" fill="rgb(255,152,0)" opacity="0.35"/>
<circle cx="72" cy="72" r="9" fill="rgb(255,152,0)"/>
<circle cx="96" cy="72" r="12" fill="rgb(255,166,0)" opacity="0.35"/>
<circle cx="96" cy="72" r="9" fill="rgb(255,166,0)"/>
<circle cx="120" cy="72" r="12" fill="rgb(255,211,0)" opacity="0.35"/>
<circle cx="120" cy="72" r="9" fill="rgb(255,211,0)"/>
<circle cx="144" cy="72" r="12" fill="rgb(86,204,57)" opacity="0.35"/>
<circle cx="144" cy="72" r="9" fill="rgb(86,204,57)"/>
<circle cx="168" cy="72" r="12" fill="rgb(0,190,154)" opacity="0.35"/>
<circle cx="168" cy="72" r="9" fill="rgb(0,190,154)"/>
<circle cx="192" cy="72" r="12" fill="rgb(0,176,254)" opacity="0.35"/>
<circle cx="192" cy="72" r="9" fill="rgb(0,176,254)"/>
<circle cx="216" cy="72" r="12" fill="rgb(14,150,255)" opacity="0.35"/>
<circle cx="216" cy="72" r="9" fill="rgb(14,150,255)"/>
<circle cx="240" cy="72" r="12" fill="rgb(12,158,255)" opacity="0.35"/>
<circle cx="240" cy="72" r="9" fill="rgb(12,158,255)"/>
<circle cx="264" cy="72" r="12" fill="rgb(0,182,229)" opacity="0.35"/>
<circle cx="264" cy="72" r="9" fill="rgb(0,182,229)"/>
<circle cx="288" cy="72" r="12" fill="rgb(0,198,117)" opacity="0.35"/>
<circle cx="288" cy="72" r="9" fill="rgb(0,198,117)"/>
<circle cx="312" cy="72" r="12" fill="rgb(166,208,38)" opacity="0.35"/>
<circle cx="312" cy="72" r="9" fill="rgb(166,208,38)"/>
<circle cx="336" cy="72" r="12" fill="rgb(255,195,0)" opacity="0.35"/>
<circle cx="336" cy="72" r="9" fill="rgb(255,195,0)"/>
<circle cx="360" cy="72" r="12" fill="rgb(255,159,0)" opacity="0.35"/>
<circle cx="360" cy="72" r="9" fill="rgb(255,159,0)"/>
<circle cx="384" cy="72" r="12" fill="rgb(255,154,0)" opacity="0.35"/>
<circle cx="384" cy="72" r="9" fill="rgb(255,154,0)"/>
<circle cx="24" cy="96" r="12" fill="rgb(255,156,0)" opacity="0.35"/>
<circle cx="24" cy="96" r="9" fill="rgb(255,156,0)"/>
<circle cx="48" cy="96" r="12" fill="rgb(255,103,0)" opacity="0.35"/>
<circle cx="48" cy="96" r="9" fill="rgb(255,103,0)"/>
<circle cx="72" cy="96" r="12" fill="rgb(255,77,0)" opacity="0.35"/>
<circle cx="72" cy="96" r="9" fill="rgb(255,77,0)"/>
<circle cx="96" cy="96" r="12" fill="rgb(255,96,0)" opacity="0.35"/>
<circle cx="96" cy="96" r="9" fill="rgb(255,96,0)"/>
<circle cx="120" cy="96" r="12" fill="rgb(255,149,0)" opacity="0.35"/>
<circle cx="120" cy="96" r="9" fill="rgb(255,149,0)"/>
<circle cx="144" cy="96" r="12" fill="rgb(255,213,0)" opacity="0.35"/>
<circle cx="144" cy="96" r="9" fill="rgb(255,213,0)"/>
<circle cx="168" cy="96" r="12" fill="rgb(75,204,60)" opacity="0.35"/>
<circle cx="168" cy="96" r="9" fill="rgb(75,204,60)"/>
<circle cx="192" cy="96" r="12" fill="rgb(0,193,135)" opacity="0.35"/>
<circle cx="192" cy="96" r="9" fill="rgb(0,193,135)"/>
<circle cx="216" cy="96" r="12" fill="rgb(0,186,188)" opacity="0.35"/>
<circle cx="216" cy="96" r="9" fill="rgb(0,186,188)"/>
<circle cx="240" cy="96" r="12" fill="rgb(0,188,179)" opacity="0.35"/>
<circle cx="240" cy="96" r="9" fill="rgb(0,188,179)"/>
<circle cx="264" cy="96" r="12" fill="rgb(0,198,110)" opacity="0.35"/>
<circle cx="264" cy="96" r="9" fill="rgb(0,198,110)"/>
<circle cx="288" cy="96" r="12" fill="rgb(151,208,42)" opacity="0.35"/>
<circle cx="288" cy="96" r="9" fill="rgb(151,208,42)"/>
<circle cx="312" cy="96" r="12" fill="rgb(255,191,0)" opacity="0.35"/>
<circle cx="312" cy="96" r="9" fill="rgb(255,191,0)"/>
<circle cx="336" cy="96" r="12" fill="rgb(255,132,0)" opacity="0.35"/>
<circle cx="336" cy="96" r="9" fill="rgb(255,132,0)"/>
<circle cx="360" cy="96" r="12" fill="rgb(255,86,0)" opacity="0.35"/>
<circle cx="360" cy="96" r="9" fill="rgb(255,86,0)"/>
<circle cx="384" cy="96" r="12" fill="rgb(255,80,0)" opacity="0.35"/>
<circle cx="384" cy="96" r="9" fill="rgb(255,80,0)"/>
<circle cx="24" cy="120" r="12" fill="rgb(255,108,0)" opacity="0.35"/>
<circle cx="24" cy="120" r="9" fill="rgb(255,108,0)"/>
<circle cx="48" cy="120" r="12" fill="rgb(255,44,0)" opacity="0.35"/>
<circle cx="48" cy="120" r="9" fill="rgb(255,44,0)"/>
<circle cx="72" cy="120" r="12" fill="rgb(255,19,0)" opacity="0.35"/>
<circle cx="72" cy="120" r="9" fill="rgb(255,19,0)"/>
<circle cx="96" cy="120" r="12" fill="rgb(255,39,0)" opacity="0.35"/>
<circle cx="96" cy="120" r="9" fill="rgb(255,39,0)"/>
<circle cx="120" cy="120" r="12" fill="rgb(255,101,0)" opacity="0.35"/>
<circle cx="120" cy="120" r="9" fill="rgb(255,101,0)"/>
<circle cx="144" cy="120" r="12" fill="rgb(255,171,0)" opacity="0.35"/>
<circle cx="144" cy="120" r="9" fill="rgb(255,171,0)"/>
<circle cx="168" cy="120" r="12" fill="rgb(198,210,22)" opacity="0.35"/>
<circle cx="168" cy="120" r="9" fill="rgb(198,210,22)"/>
<circle cx="192" cy="120" r="12" fill="rgb(46,202,70)" opacity="0.35"/>
<circle cx="192" cy="120" r="9" fill="rgb(46,202,70)"/>
<circle cx="216" cy="120" r="12" fill="rgb(0,197,105)" opacity="0.35"/>
<circle cx="216" cy="120" r="9" fill="rgb(0,197,105)"/>
<circle cx="240" cy="120" r="12" fill="rgb(0,199,96)" opacity="0.35"/>
<circle cx="240" cy="120" r="9" fill="rgb(0,199,96)"/>
<circle cx="264" cy="120" r="12" fill="rgb(100,205,56)" opacity="0.35"/>
<circle cx="264" cy="120" r="9" fill="rgb(100,205,56)"/>
<circle cx="288" cy="120" r="12" fill="rgb(255,213,2)" opacity="0.35"/>
<circle cx="288" cy="120" r="9" fill="rgb(255,213,2)"/>
<circle cx="312" cy="120" r="12" fill="rgb(255,148,0)" opacity="0.35"/>
<circle cx="312" cy="120" r="9" fill="rgb(255,148,0)"/>
<circle cx="336" cy="120" r="12" fill="rgb(255,77,0)" opacity="0.35"/>
<circle cx="336" cy="120" r="9" fill="rgb(255,77,0)"/>
<circle cx="360" cy="120" r="12" fill="rgb(255,28,0)" opacity="0.35"/>
<circle cx="360" cy="120" r="9" fill="rgb(255,28,0)"/>
<circle cx="384" cy="120" r="12" fill="rgb(255,21,0)" opacity="0.35"/>
<circle cx="384" cy="120" r="9" fill="rgb(255,21,0)"/>
<circle cx="24" cy="144" r="12" fill="rgb(255,90,0)" opacity="0.35"/>
<circle cx="24" cy="144" r="9" fill="rgb(255,90,0)"/>
<circle cx="48" cy="144" r="12" fill="rgb(255,26,0)" opacity="0.35"/>
<circle cx="48" cy="144" r="9" fill="rgb(255,26,0)"/>
<circle cx="72" cy="144" r="12" fill="rgb(255,1,0)" opacity="0.35"/>
<circle cx="72" cy="144" r="9" fill="rgb(255,1,0)"/>
<circle cx="96" cy="144" r="12" fill="rgb(255,23,0)" opacity="0.35"/>
<circle cx="96" cy="144" r="9" fill="rgb(255,23,0)"/>
<circle cx="120" cy="144" r="12" fill="rgb(255,85,0)" opacity="0.35"/>
<circle cx="120" cy="144" r="9" fill="rgb(255,85,0)"/>
<circle cx="144" cy="144" r="12" fill="rgb(255,159,0)" opacity="0.35"/>
<circle cx="144" cy="144" r="9" fill="rgb(255,159,0)"/>
<circle cx="168" cy="144" r="12" fill="rgb(236,212,11)" opacity="0.35"/>
<circle cx="168" cy="144" r="9" fill="rgb(236,212,11)"/>
<circle cx="192" cy="144" r="12" fill="rgb(84,204,59)" opacity="0.35"/>
<circle cx="192" cy="144" r="9" fill="rgb(84,204,59)"/>
<circle cx="216" cy="144" r="12" fill="rgb(6,200,82)" opacity="0.35"/>
<circle cx="216" cy="144" r="9" fill="rgb(6,200,82)"/>
<circle cx="240" cy="144" r="12" fill="rgb(24,201,77)" opacity="0.35"/>
<circle cx="240" cy="144" r="9" fill="rgb(24,201,77)"/>
<circle cx="264" cy="144" r="12" fill="rgb(133,207,43)" opacity="0.35"/>
<circle cx="264" cy="144" r="9" fill="rgb(133,207,43)"/>
<circle cx="288" cy="144" r="12" fill="rgb(255,201,0)" opacity="0.35"/>
<circle cx="288" cy="144" r="9" fill="rgb(255,201,0)"/>
<circle cx="312" cy="144" r="12" fill="rgb(255,134,0)" opacity="0.35"/>
<circle cx="312" cy="144" r="9" fill="rgb(255,134,0)"/>
<circle cx="336" cy="144" r="12" fill="rgb(255,58,0)" opacity="0.35"/>
<circle cx="336" cy="144" r="9" fill="rgb(255,58,0)"/>
<circle cx="360" cy="144" r="12" fill="rgb(255,10,0)" opacity="0.35"/>
<circle cx="360" cy="144" r="9" fill="rgb(255,10,0)"/>
<circle cx="384" cy="144" r="12" fill="rgb(255,5,0)" opacity="0.35"/>
<circle cx="384" cy="144" r="9" fill="rgb(255,5,0)"/>
<circle cx="24" cy="168" r="12" fill="rgb(255,117,0)" opacity="0.35"/>
<circle cx="24" cy="168" r="9" fill="rgb(255,117,0)"/>
<circle cx="48" cy="168" r="12" fill="rgb(255,52,0)" opacity="0.35"/>
<circle cx="48" cy="168" r="9" fill="rgb(255,52,0)"/>
<circle cx="72" cy="168" r="12" fill="rgb(255,29,0)" opacity="0.35"/>
<circle cx="72" cy="168" r="9" fill="rgb(255,29,0)"/>
<circle cx="96" cy="168" r="12" fill="rgb(255,52,0)" opacity="0.35"/>
<circle cx="96" cy="168" r="9" fill="rgb(255,52,0)"/>
<circle cx="120" cy="168" r="12" fill="rgb(255,114,0)" opacity="0.35"/>
<circle cx="120" cy="168" r="9" fill="rgb(255,114,0)"/>
<circle cx="144" cy="168" r="12" fill="rgb(255,180,0)" opacity="0.35"/>
<circle cx="144" cy="168" r="9" fill="rgb(255,180,0)"/>
<circle cx="168" cy="168" r="12" fill="rgb(181,209,31)" opacity="0.35"/>
<circle cx="168" cy="168" r="9" fill="rgb(181,209,31)"/>
<circle cx="192" cy="168" r="12" fill="rgb(29,201,79)" opacity="0.35"/>
<circle cx="192" cy="168" r="9" fill="rgb(29,201,79)"/>
<circle cx="216" cy="168" r="12" fill="rgb(0,195,122)" opacity="0.35"/>
<circle cx="216" cy="168" r="9" fill="rgb(0,195,122)"/>
<circle cx="240" cy="168" r="12" fill="rgb(0,197,108)" opacity="0.35"/>
<circle cx="240" cy="168" r="9" fill="rgb(0,197,108)"/>
<circle cx="264" cy="168" r="12" fill="rgb(72,204,61)" opacity="0.35"/>
<circle cx="264" cy="168" r="9" fill="rgb(72,204,61)"/>
<circle cx="288" cy="168" r="12" fill="rgb(242,212,7)" opacity="0.35"/>
<circle cx="288" cy="168" r="9" fill="rgb(242,212,7)"/>
<circle cx="312" cy="168" r="12" fill="rgb(255,154,0)" opacity="0.35"/>
<circle cx="312" cy="168" r="9" fill="rgb(255,154,0)"/>
<circle cx="336" cy="168" r="12" fill="rgb(255,85,0)" opacity="0.35"/>
<circle cx="336" cy="168" r="9" fill="rgb(255,85,0)"/>
<circle cx="360" cy="168" r="12" fill="rgb(255,37,0)" opacity="0.35"/>
<circle cx="360" cy="168" r="9" fill="rgb(255,37,0)"/>
<circle cx="384" cy="168" r="12" fill="rgb(255,34,0)" opacity="0.35"/>
<circle cx="384" cy="168" r="9" fill="rgb(255,34,0)"/>
<circle cx="24" cy="192" r="12" fill="rgb(255,166,0)" opacity="0.35"/>
<circle cx="24" cy="192" r="9" fill="rgb(255,166,0)"/>
<circle cx="48" cy="192" r="12" fill="rgb(255,118,0)" opacity="0.35"/>
<circle cx="48" cy="192" r="9" fill="rgb(255,118,0)"/>
<circle cx="72" cy="192" r="12" fill="rgb(255,96,0)" opacity="0.35"/>
<circle cx="72" cy="192" r="9" fill="rgb(255,96,0)"/>
<circle cx="96" cy="192" r="12" fill="rgb(255,119,0)" opacity="0.35"/>
<circle cx="96" cy="192" r="9" fill="rgb(255,119,0)"/>
<circle cx="120" cy="192" r="12" fill="rgb(255,166,0)" opacity="0.35"/>
<circle cx="120" cy="192" r="9" fill="rgb(255,166,0)"/>
<circle cx="144" cy="192" r="12" fill="rgb(233,212,16)" opacity="0.35"/>
<circle cx="144" cy="192" r="9" fill="rgb(233,212,16)"/>
<circle cx="168" cy="192" r="12" fill="rgb(46,202,76)" opacity="0.35"/>
<circle cx="168" cy="192" r="9" fill="rgb(46,202,76)"/>
<circle cx="192" cy="192" r="12" fill="rgb(0,190,168)" opacity="0.35"/>
<circle cx="192" cy="192" r="9" fill="rgb(0,190,168)"/>
<circle cx="216" cy="192" r="12" fill="rgb(0,183,216)" opacity="0.35"/>
<circle cx="216" cy="192" r="9" fill="rgb(0,183,216)"/>
<circle cx="240" cy="192" r="12" fill="rgb(0,184,202)" opacity="0.35"/>
<circle cx="240" cy="192" r="9" fill="rgb(0,184,202)"/>
<circle cx="264" cy="192" r="12" fill="rgb(0,194,130)" opacity="0.35"/>
<circle cx="264" cy="192" r="9" fill="rgb(0,194,130)"/>
<circle cx="288" cy="192" r="12" fill="rgb(103,205,51)" opacity="0.35"/>
<circle cx="288" cy="192" r="9" fill="rgb(103,205,51)"/>
<circle cx="312" cy="192" r="12" fill="rgb(255,202,0)" opacity="0.35"/>
<circle cx="312" cy="192" r="9" fill="rgb(255,202,0)"/>
<circle cx="336" cy="192" r="12" fill="rgb(255,143,0)" opacity="0.35"/>
<circle cx="336" cy="192" r="9" fill="rgb(255,143,0)"/>
<circle cx="360" cy="192" r="12" fill="rgb(255,103,0)" opacity="0.35"/>
<circle cx="360" cy="192" r="9" fill="rgb(255,103,0)"/>
<circle cx="384" cy="192" r="12" fill="rgb(255,100,0)" opacity="0.35"/>
<circle cx="384" cy="192" r="9" fill="rgb(255,100,0)"/>
<circle cx="24" cy="216" r="12" fill="rgb(206,211,17)" opacity="0.35"/>
<circle cx="24" cy="216" r="9" fill="rgb(206,211,17)"/>
<circle cx="48" cy="216" r="12" fill="rgb(255,185,0)" opacity="0.35"/>
<circle cx="48" cy="216" r="9" fill="rgb(255,185,0)"/>
<circle cx="72" cy="216" r="12" fill="rgb(255,168,0)" opacity="0.35"/>
<circle cx="72" cy="216" r="9" fill="rgb(255,168,0)"/>
<circle cx="96" cy="216" r="12" fill="rgb(255,185,0)" opacity="0.35"/>
<circle cx="96" cy="216" r="9" fill="rgb(255,185,0)"/>
<circle cx="120" cy="216" r="12" fill="rgb(228,212,17)" opacity="0.35"/>
<circle cx="120" cy="216" r="9" fill="rgb(228,212,17)"/>
<circle cx="144" cy="216" r="12" fill="rgb(51,203,75)" opacity="0.35"/>
<circle cx="144" cy="216" r="9" fill="rgb(51,203,75)"/>
<circle cx="168" cy="216" r="12" fill="rgb(0,187,193)" opacity="0.35"/>
<circle cx="168" cy="216" r="9" fill="rgb(0,187,193)"/>
<circle cx="192" cy="216" r="12" fill="rgb(10,163,255)" opacity="0.35"/>
<circle cx="192" cy="216" r="9" fill="rgb(10,163,255)"/>
<circle cx="216" cy="216" r="12" fill="rgb(24,133,255)" opacity="0.35"/>
<circle cx="216" cy="216" r="9" fill="rgb(24,133,255)"/>
<circle cx="240" cy="216" r="12" fill="rgb(20,139,255)" opacity="0.35"/>
<circle cx="240" cy="216" r="9" fill="rgb(20,139,255)"/>
<circle cx="264" cy="216" r="12" fill="rgb(0,176,252)" opacity="0.35"/>
<circle cx="264" cy="216" r="9" fill="rgb(0,176,252)"/>
<circle cx="288" cy="216" r="12" fill="rgb(0,192,140)" opacity="0.35"/>
<circle cx="288" cy="216" r="9" fill="rgb(0,192,140)"/>
<circle cx="312" cy="216" r="12" fill="rgb(108,206,49)" opacity="0.35"/>
<circle cx="312" cy="216" r="9" fill="rgb(108,206,49)"/>
<circle cx="336" cy="216" r="12" fill="rgb(255,208,0)" opacity="0.35"/>
<circle cx="336" cy="216" r="9" fill="rgb(255,208,0)"/>
<circle cx="360" cy="216" r="12" fill="rgb(255,173,0)" opacity="0.35"/>
<circle cx="360" cy="216" r="9" fill="rgb(255,173,0)"/>
<circle cx="384" cy="216" r="12" fill="rgb(255,171,0)" opacity="0.35"/>
<circle cx="384" cy="216" r="9" fill="rgb(255,171,0)"/>
<circle cx="24" cy="240" r="12" fill="rgb(23,201,77)" opacity="0.35"/>
<circle cx="24" cy="240" r="9" fill="rgb(23,201,77)"/>
<circle cx="48" cy="240" r="12" fill="rgb(154,208,34)" opacity="0.35"/>
<circle cx="48" cy="240" r="9" fill="rgb(154,208,34)"/>
<circle cx="72" cy="240" r="12" fill="rgb(207,211,19)" opacity="0.35"/>
<circle cx="72" cy="240" r="9" fill="rgb(207,211,19)"/>
<circle cx="96" cy="240" r="12" fill="rgb(167,209,34)" opacity="0.35"/>
<circle cx="96" cy="240" r="9" fill="rgb(167,209,34)"/>
<circle cx="120" cy="240" r="12" fill="rgb(43,202,76)" opacity="0.35"/>
<circle cx="120" cy="240" r="9" fill="rgb(43,202,76)"/>
<circle cx="144" cy="240" r="12" fill="rgb(0,187,191)" opacity="0.35"/>
<circle cx="144" cy="240" r="9" fill="rgb(0,187,191)"/>
<circle cx="168" cy="240" r="12" fill="rgb(17,151,255)" opacity="0.35"/>
<circle cx="168" cy="240" r="9" fill="rgb(17,151,255)"/>
<circle cx="192" cy="240" r="12" fill="rgb(45,93,254)" opacity="0.35"/>
<circle cx="192" cy="240" r="9" fill="rgb(45,93,254)"/>
<circle cx="216" cy="240" r="12" fill="rgb(83,66,253)" opacity="0.35"/>
<circle cx="216" cy="240" r="9" fill="rgb(83,66,253)"/>
<circle cx="240" cy="240" r="12" fill="rgb(69,70,253)" opacity="0.35"/>
<circle cx="240" cy="240" r="9" fill="rgb(69,70,253)"/>
<circle cx="264" cy="240" r="12" fill="rgb(34,108,254)" opacity="0.35"/>
<circle cx="264" cy="240" r="9" fill="rgb(34,108,254)"/>
<circle cx="288" cy="240" r="12" fill="rgb(3,173,255)" opacity="0.35"/>
<circle cx="288" cy="240" r="9" fill="rgb(3,173,255)"/>
<circle cx="312" cy="240" r="12" fill="rgb(0,193,137)" opacity="0.35"/>
<circle cx="312" cy="240" r="9" fill="rgb(0,193,137)"/>
<circle cx="336" cy="240" r="12" fill="rgb(87,204,55)" opacity="0.35"/>
<circle cx="336" cy="240" r="9" fill="rgb(87,204,55)"/>
<circle cx="360" cy="240" r="12" fill="rgb(188,210,23)" opacity="0.35"/>
<circle cx="360" cy="240" r="9" fill="rgb(188,210,23)"/>
<circle cx="384" cy="240" r="12" fill="rgb(201,210,22)" opacity="0.35"/>
<circle cx="384" cy="240" r="9" fill="rgb(201,210,22)"/>
<circle cx="24" cy="264" r="12" fill="rgb(0,189,165)" opacity="0.35"/>
<circle cx="24" cy="264" r="9" fill="rgb(0,189,165)"/>
<circle cx="48" cy="264" r="12" fill="rgb(14,201,79)" opacity="0.35"/>
<circle cx="48" cy="264" r="9" fill="rgb(14,201,79)"/>
<circle cx="72" cy="264" r="12" fill="rgb(66,203,64)" opacity="0.35"/>
<circle cx="72" cy="264" r="9" fill="rgb(66,203,64)"/>
<circle cx="96" cy="264" r="12" fill="rgb(26,201,79)" opacity="0.35"/>
<circle cx="96" cy="264" r="9" fill="rgb(26,201,79)"/>
<circle cx="120" cy="264" r="12" fill="rgb(0,191,162)" opacity="0.35"/>
<circle cx="120" cy="264" r="9" fill="rgb(0,191,162)"/>
<circle cx="144" cy="264" r="12" fill="rgb(8,168,255)" opacity="0.35"/>
<circle cx="144" cy="264" r="9" fill="rgb(8,168,255)"/>
<circle cx="168" cy="264" r="12" fill="rgb(43,97,254)" opacity="0.35"/>
<circle cx="168" cy="264" r="9" fill="rgb(43,97,254)"/>
<circle cx="192" cy="264" r="12" fill="rgb(126,47,252)" opacity="0.35"/>
<circle cx="192" cy="264" r="9" fill="rgb(126,47,252)"/>
<circle cx="216" cy="264" r="12" fill="rgb(172,22,250)" opacity="0.35"/>
<circle cx="216" cy="264" r="9" fill="rgb(172,22,250)"/>
<circle cx="240" cy="264" r="12" fill="rgb(158,26,251)" opacity="0.35"/>
<circle cx="240" cy="264" r="9" fill="rgb(158,26,251)"/>
<circle cx="264" cy="264" r="12" fill="rgb(92,60,253)" opacity="0.35"/>
<circle cx="264" cy="264" r="9" fill="rgb(92,60,253)"/>
<circle cx="288" cy="264" r="12" fill="rgb(29,120,254)" opacity="0.35"/>
<circle cx="288" cy="264" r="9" fill="rgb(29,120,254)"/>
<circle cx="312" cy="264" r="12" fill="rgb(0,180,233)" opacity="0.35"/>
<circle cx="312" cy="264" r="9" fill="rgb(0,180,233)"/>
<circle cx="336" cy="264" r="12" fill="rgb(0,195,121)" opacity="0.35"/>
<circle cx="336" cy="264" r="9" fill="rgb(0,195,121)"/>
<circle cx="360" cy="264" r="12" fill="rgb(46,202,68)" opacity="0.35"/>
<circle cx="360" cy="264" r="9" fill="rgb(46,202,68)"/>
<circle cx="384" cy="264" r="12" fill="rgb(60,203,67)" opacity="0.35"/>
<circle cx="384" cy="264" r="9" fill="rgb(60,203,67)"/>
<circle cx="24" cy="288" r="12" fill="rgb(0,184,209)" opacity="0.35"/>
<circle cx="24" cy="288" r="9" fill="rgb(0,184,209)"/>
<circle cx="48" cy="288" r="12" fill="rgb(0,196,118)" opacity="0.35"/>
<circle cx="48" cy="288" r="9" fill="rgb(0,196,118)"/>
<circle cx="72" cy="288" r="12" fill="rgb(1,200,83)" opacity="0.35"/>
<circle cx="72" cy="288" r="9" fill="rgb(1,200,83)"/>
<circle cx="96" cy="288" r="12" fill="rgb(0,196,115)" opacity="0.35"/>
<circle cx="96" cy="288" r="9" fill="rgb(0,196,115)"/>
<circle cx="120" cy="288" r="12" fill="rgb(0,185,202)" opacity="0.35"/>
<circle cx="120" cy="288" r="9" fill="rgb(0,185,202)"/>
<circle cx="144" cy="288" r="12" fill="rgb(19,144,255)" opacity="0.35"/>
<circle cx="144" cy="288" r="9" fill="rgb(19,144,255)"/>
<circle cx="168" cy="288" r="12" fill="rgb(69,74,254)" opacity="0.35"/>
<circle cx="168" cy="288" r="9" fill="rgb(69,74,254)"/>
<circle cx="192" cy="288" r="12" fill="rgb(164,27,251)" opacity="0.35"/>
<circle cx="192" cy="288" r="9" fill="rgb(164,27,251)"/>
<circle cx="216" cy="288" r="12" fill="rgb(210,2,249)" opacity="0.35"/>
<circle cx="216" cy="288" r="9" fill="rgb(210,2,249)"/>
<circle cx="240" cy="288" r="12" fill="rgb(199,8,250)" opacity="0.35"/>
<circle cx="240" cy="288" r="9" fill="rgb(199,8,250)"/>
<circle cx="264" cy="288" r="12" fill="rgb(133,42,252)" opacity="0.35"/>
<circle cx="264" cy="288" r="9" fill="rgb(133,42,252)"/>
<circle cx="288" cy="288" r="12" fill="rgb(41,98,254)" opacity="0.35"/>
<circle cx="288" cy="288" r="9" fill="rgb(41,98,254)"/>
<circle cx="312" cy="288" r="12" fill="rgb(6,170,255)" opacity="0.35"/>
<circle cx="312" cy="288" r="9" fill="rgb(6,170,255)"/>
<circle cx="336" cy="288" r="12" fill="rgb(0,190,164)" opacity="0.35"/>
<circle cx="336" cy="288" r="9" fill="rgb(0,190,164)"/>
<circle cx="360" cy="288" r="12" fill="rgb(0,199,95)" opacity="0.35"/>
<circle cx="360" cy="288" r="9" fill="rgb(0,199,95)"/>
<circle cx="384" cy="288" r="12" fill="rgb(0,200,89)" opacity="0.35"/>
<circle cx="384" cy="288" r="9" fill="rgb(0,200,89)"/>
<circle cx="24" cy="312" r="12" fill="rgb(0,187,189)" opacity="0.35"/>
<circle cx="24" cy="312" r="9" fill="rgb(0,187,189)"/>
<circle cx="48" cy="312" r="12" fill="rgb(0,199,99)" opacity="0.35"/>
<circle cx="48" cy="312" r="9" fill="rgb(0,199,99)"/>
<circle cx="72" cy="312" r="12" fill="rgb(35,202,73)" opacity="0.35"/>
<circle cx="72" cy="312" r="9" fill="rgb(35,202,73)"/>
<circle cx="96" cy="312" r="12" fill="rgb(0,199,91)" opacity="0.35"/>
<circle cx="96" cy="312" r="9" fill="rgb(0,199,91)"/>
<circle cx="120" cy="312" r="12" fill="rgb(0,187,179)" opacity="0.35"/>
<circle cx="120" cy="312" r="9" fill="rgb(0,187,179)"/>
<circle cx="144" cy="312" r="12" fill="rgb(13,155,255)" opacity="0.35"/>
<circle cx="144" cy="312" r="9" fill="rgb(13,155,255)"/>
<circle cx="168" cy="312" r="12" fill="rgb(48,84,254)" opacity="0.35"/>
<circle cx="168" cy="312" r="9" fill="rgb(48,84,254)"/>
<circle cx="192" cy="312" r="12" fill="rgb(142,36,251)" opacity="0.35"/>
<circle cx="192" cy="312" r="9" fill="rgb(142,36,251)"/>
<circle cx="216" cy="312" r="12" fill="rgb(189,12,250)" opacity="0.35"/>
<circle cx="216" cy="312" r="9" fill="rgb(189,12,250)"/>
<circle cx="240" cy="312" r="12" fill="rgb(180,19,250)" opacity="0.35"/>
<circle cx="240" cy="312" r="9" fill="rgb(180,19,250)"/>
<circle cx="264" cy="312" r="12" fill="rgb(114,52,252)" opacity="0.35"/>
<circle cx="264" cy="312" r="9" fill="rgb(114,52,252)"/>
<circle cx="288" cy="312" r="12" fill="rgb(36,111,254)" opacity="0.35"/>
<circle cx="288" cy="312" r="9" fill="rgb(36,111,254)"/>
<circle cx="312" cy="312" r="12" fill="rgb(0,178,255)" opacity="0.35"/>
<circle cx="312" cy="312" r="9" fill="rgb(0,178,255)"/>
<circle cx="336" cy="312" r="12" fill="rgb(0,193,144)" opacity="0.35"/>
<circle cx="336" cy="312" r="9" fill="rgb(0,193,144)"/>
<circle cx="360" cy="312" r="12" fill="rgb(21,201,79)" opacity="0.35"/>
<circle cx="360" cy="312" r="9" fill="rgb(21,201,79)"/>
<circle cx="384" cy="312" r="12" fill="rgb(26,201,75)" opacity="0.35"/>
<circle cx="384" cy="312" r="9" fill="rgb(26,201,75)"/>
<circle cx="24" cy="336" r="12" fill="rgb(0,198,111)" opacity="0.35"/>
<circle cx="24" cy="336" r="9" fill="rgb(0,198,111)"/>
<circle cx="48" cy="336" r="12" fill="rgb(109,206,53)" opacity="0.35"/>
<circle cx="48" cy="336" r="9" fill="rgb(109,206,53)"/>
<circle cx="72" cy="336" r="12" fill="rgb(155,208,36)" opacity="0.35"/>
<circle cx="72" cy="336" r="9" fill="rgb(155,208,36)"/>
<circle cx="96" cy="336" r="12" fill="rgb(107,205,49)" opacity="0.35"/>
<circle cx="96" cy="336" r="9" fill="rgb(107,205,49)"/>
<circle cx="120" cy="336" r="12" fill="rgb(0,198,98)" opacity="0.35"/>
<circle cx="120" cy="336" r="9" fill="rgb(0,198,98)"/>
<circle cx="144" cy="336" r="12" fill="rgb(0,182,219)" opacity="0.35"/>
<circle cx="144" cy="336" r="9" fill="rgb(0,182,219)"/>
<circle cx="168" cy="336" r="12" fill="rgb(25,127,254)" opacity="0.35"/>
<circle cx="168" cy="336" r="9" fill="rgb(25,127,254)"/>
<circle cx="192" cy="336" r="12" fill="rgb(64,72,254)" opacity="0.35"/>
<circle cx="192" cy="336" r="9" fill="rgb(64,72,254)"/>
<circle cx="216" cy="336" r="12" fill="rgb(115,49,252)" opacity="0.35"/>
<circle cx="216" cy="336" r="9" fill="rgb(115,49,252)"/>
<circle cx="240" cy="336" r="12" fill="rgb(106,56,253)" opacity="0.35"/>
<circle cx="240" cy="336" r="9" fill="rgb(106,56,253)"/>
<circle cx="264" cy="336" r="12" fill="rgb(46,92,254)" opacity="0.35"/>
<circle cx="264" cy="336" r="9" fill="rgb(46,92,254)"/>
<circle cx="288" cy="336" r="12" fill="rgb(14,156,255)" opacity="0.35"/>
<circle cx="288" cy="336" r="9" fill="rgb(14,156,255)"/>
<circle cx="312" cy="336" r="12" fill="rgb(0,189,179)" opacity="0.35"/>
<circle cx="312" cy="336" r="9" fill="rgb(0,189,179)"/>
<circle cx="336" cy="336" r="12" fill="rgb(45,202,75)" opacity="0.35"/>
<circle cx="336" cy="336" r="9" fill="rgb(45,202,75)"/>
<circle cx="360" cy="336" r="12" fill="rgb(140,207,42)" opacity="0.35"/>
<circle cx="360" cy="336" r="9" fill="rgb(140,207,42)"/>
<circle cx="384" cy="336" r="12" fill="rgb(146,207,37)" opacity="0.35"/>
<circle cx="384" cy="336" r="9" fill="rgb(146,207,37)"/>
<circle cx="24" cy="360" r="12" fill="rgb(156,208,40)" opacity="0.35"/>
<circle cx="24" cy="360" r="9" fill="rgb(156,208,40)"/>
<circle cx="48" cy="360" r="12" fill="rgb(255,209,0)" opacity="0.35"/>
<circle cx="48" cy="360" r="9" fill="rgb(255,209,0)"/>
<circle cx="72" cy="360" r="12" fill="rgb(255,190,0)" opacity="0.35"/>
<circle cx="72" cy="360" r="9" fill="rgb(255,190,0)"/>
<circle cx="96" cy="360" r="12" fill="rgb(255,204,0)" opacity="0.35"/>
<circle cx="96" cy="360" r="9" fill="rgb(255,204,0)"/>
<circle cx="120" cy="360" r="12" fill="rgb(155,208,33)" opacity="0.35"/>
<circle cx="120" cy="360" r="9" fill="rgb(155,208,33)"/>
<circle cx="144" cy="360" r="12" fill="rgb(0,198,101)" opacity="0.35"/>
<circle cx="144" cy="360" r="9" fill="rgb(0,198,101)"/>
<circle cx="168" cy="360" r="12" fill="rgb(0,180,227)" opacity="0.35"/>
<circle cx="168" cy="360" r="9" fill="rgb(0,180,227)"/>
<circle cx="192" cy="360" r="12" fill="rgb(20,136,255)" opacity="0.35"/>
<circle cx="192" cy="360" r="9" fill="rgb(20,136,255)"/>
<circle cx="216" cy="360" r="12" fill="rgb(35,109,254)" opacity="0.35"/>
<circle cx="216" cy="360" r="9" fill="rgb(35,109,254)"/>
<circle cx="240" cy="360" r="12" fill="rgb(32,117,254)" opacity="0.35"/>
<circle cx="240" cy="360" r="9" fill="rgb(32,117,254)"/>
<circle cx="264" cy="360" r="12" fill="rgb(13,158,255)" opacity="0.35"/>
<circle cx="264" cy="360" r="9" fill="rgb(13,158,255)"/>
<circle cx="288" cy="360" r="12" fill="rgb(0,188,189)" opacity="0.35"/>
<circle cx="288" cy="360" r="9" fill="rgb(0,188,189)"/>
<circle cx="312" cy="360" r="12" fill="rgb(58,203,73)" opacity="0.35"/>
<circle cx="312" cy="360" r="9" fill="rgb(58,203,73)"/>
<circle cx="336" cy="360" r="12" fill="rgb(220,211,19)" opacity="0.35"/>
<circle cx="336" cy="360" r="9" fill="rgb(220,211,19)"/>
<circle cx="360" cy="360" r="12" fill="rgb(255,197,0)" opacity="0.35"/>
<circle cx="360" cy="360" r="9" fill="rgb(255,197,0)"/>
<circle cx="384" cy="360" r="12" fill="rgb(255,192,0)" opacity="0.35"/>
<circle cx="384" cy="360" r="9" fill="rgb(255,192,0)"/>
<circle cx="24" cy="384" r="12" fill="rgb(255,190,0)" opacity="0.35"/>
<circle cx="24" cy="384" r="9" fill="rgb(255,190,0)"/>
<circle cx="48" cy="384" r="12" fill="rgb(255,142,0)" opacity="0.35"/>
<circle cx="48" cy="384" r="9" fill="rgb(255,142,0)"/>
<circle cx="72" cy="384" r="12" fill="rgb(255,123,0)" opacity="0.35"/>
<circle cx="72" cy="384" r="9" fill="rgb(255,123,0)"/>
<circle cx="96" cy="384" r="12" fill="rgb(255,137,0)" opacity="0.35"/>
<circle cx="96" cy="384" r="9" fill="rgb(255,137,0)"/>
<circle cx="120" cy="384" r="12" fill="rgb(255,182,0)" opacity="0.35"/>
<circle cx="120" cy="384" r="9" fill="rgb(255,182,0)"/>
<circle cx="144" cy="384" r="12" fill="rgb(167,208,31)" opacity="0.35"/>
<circle cx="144" cy="384" r="9" fill="rgb(167,208,31)"/>
<circle cx="168" cy="384" r="12" fill="rgb(0,198,100)" opacity="0.35"/>
<circle cx="168" cy="384" r="9" fill="rgb(0,198,100)"/>
<circle cx="192" cy="384" r="12" fill="rgb(0,184,199)" opacity="0.35"/>
<circle cx="192" cy="384" r="9" fill="rgb(0,184,199)"/>
<circle cx="216" cy="384" r="12" fill="rgb(0,177,252)" opacity="0.35"/>
<circle cx="216" cy="384" r="9" fill="rgb(0,177,252)"/>
<circle cx="240" cy="384" r="12" fill="rgb(0,179,243)" opacity="0.35"/>
<circle cx="240" cy="384" r="9" fill="rgb(0,179,243)"/>
<circle cx="264" cy="384" r="12" fill="rgb(0,189,174)" opacity="0.35"/>
<circle cx="264" cy="384" r="9" fill="rgb(0,189,174)"/>
<circle cx="288" cy="384" r="12" fill="rgb(57,203,73)" opacity="0.35"/>
<circle cx="288" cy="384" r="9" fill="rgb(57,203,73)"/>
<circle cx="312" cy="384" r="12" fill="rgb(246,213,11)" opacity="0.35"/>
<circle cx="312" cy="384" r="9" fill="rgb(246,213,11)"/>
<circle cx="336" cy="384" r="12" fill="rgb(255,166,0)" opacity="0.35"/>
<circle cx="336" cy="384" r="9" fill="rgb(255,166,0)"/>
<circle cx="360" cy="384" r="12" fill="rgb(255,130,0)" opacity="0.35"/>
<circle cx="360" cy="384" r="9" fill="rgb(255,130,0)"/>
<circle cx="384" cy="384" r="12" fill="rgb(255,125,0)" opacity="0.35"/>
<circle cx="384" cy="384" r="9" fill="rgb(255,125,0)"/>
</svg>
