<svg xmlns="http://www.w3.org/2000/svg" viewBox="0 0 408 408" width="408" height="408" role="img" aria-label="Evaluated output from the Transition example graph">
<rect width="408" height="408" rx="10" fill="#0d0f12"/>
<rect x="18.00" y="18.00" width="12.00" height="12.00" rx="2.16" fill="rgb(190,235,252)"/>
<rect x="42.00" y="18.00" width="12.00" height="12.00" rx="2.16" fill="rgb(196,237,253)"/>
<rect x="66.00" y="18.00" width="12.00" height="12.00" rx="2.16" fill="rgb(199,238,253)"/>
<rect x="90.00" y="18.00" width="12.00" height="12.00" rx="2.16" fill="rgb(198,238,253)"/>
<rect x="114.00" y="18.00" width="12.00" height="12.00" rx="2.16" fill="rgb(195,237,253)"/>
<rect x="138.00" y="18.00" width="12.00" height="12.00" rx="2.16" fill="rgb(189,235,252)"/>
<rect x="162.00" y="18.00" width="12.00" height="12.00" rx="2.16" fill="rgb(180,232,251)"/>
<rect x="186.00" y="18.00" width="12.00" height="12.00" rx="2.16" fill="rgb(168,229,250)"/>
<rect x="210.00" y="18.00" width="12.00" height="12.00" rx="2.16" fill="rgb(155,224,249)"/>
<rect x="234.00" y="18.00" width="12.00" height="12.00" rx="2.16" fill="rgb(139,220,247)"/>
<rect x="258.00" y="18.00" width="12.00" height="12.00" rx="2.16" fill="rgb(197,237,251)"/>
<rect x="282.00" y="18.00" width="12.00" height="12.00" rx="2.16" fill="rgb(251,254,255)"/>
<rect x="306.00" y="18.00" width="12.00" height="12.00" rx="2.16" fill="rgb(95,205,242)"/>
<rect x="330.00" y="18.00" width="12.00" height="12.00" rx="2.16" fill="rgb(73,193,236)"/>
<rect x="354.00" y="18.00" width="12.00" height="12.00" rx="2.16" fill="rgb(62,183,231)"/>
<rect x="378.00" y="18.00" width="12.00" height="12.00" rx="2.16" fill="rgb(51,174,226)"/>
<rect x="18.00" y="42.00" width="12.00" height="12.00" rx="2.16" fill="rgb(187,234,252)"/>
<rect x="42.00" y="42.00" width="12.00" height="12.00" rx="2.16" fill="rgb(193,236,253)"/>
<rect x="66.00" y="42.00" width="12.00" height="12.00" rx="2.16" fill="rgb(196,237,253)"/>
<rect x="90.00" y="42.00" width="12.00" height="12.00" rx="2.16" fill="rgb(196,237,253)"/>
<rect x="114.00" y="42.00" width="12.00" height="12.00" rx="2.16" fill="rgb(192,236,253)"/>
<rect x="138.00" y="42.00" width="12.00" height="12.00" rx="2.16" fill="rgb(186,234,252)"/>
<rect x="162.00" y="42.00" width="12.00" height="12.00" rx="2.16" fill="rgb(178,231,251)"/>
<rect x="186.00" y="42.00" width="12.00" height="12.00" rx="2.16" fill="rgb(166,228,250)"/>
<rect x="210.00" y="42.00" width="12.00" height="12.00" rx="2.16" fill="rgb(153,224,249)"/>
<rect x="234.00" y="42.00" width="12.00" height="12.00" rx="2.16" fill="rgb(137,219,247)"/>
<rect x="258.00" y="42.00" width="12.00" height="12.00" rx="2.16" fill="rgb(243,251,254)"/>
<rect x="282.00" y="42.00" width="12.00" height="12.00" rx="2.16" fill="rgb(213,242,252)"/>
<rect x="306.00" y="42.00" width="12.00" height="12.00" rx="2.16" fill="rgb(84,202,241)"/>
<rect x="330.00" y="42.00" width="12.00" height="12.00" rx="2.16" fill="rgb(73,192,236)"/>
<rect x="354.00" y="42.00" width="12.00" height="12.00" rx="2.16" fill="rgb(61,183,231)"/>
<rect x="378.00" y="42.00" width="12.00" height="12.00" rx="2.16" fill="rgb(50,174,226)"/>
<rect x="18.00" y="66.00" width="12.00" height="12.00" rx="2.16" fill="rgb(183,233,252)"/>
<rect x="42.00" y="66.00" width="12.00" height="12.00" rx="2.16" fill="rgb(189,235,252)"/>
<rect x="66.00" y="66.00" width="12.00" height="12.00" rx="2.16" fill="rgb(192,236,253)"/>
<rect x="90.00" y="66.00" width="12.00" height="12.00" rx="2.16" fill="rgb(192,236,253)"/>
<rect x="114.00" y="66.00" width="12.00" height="12.00" rx="2.16" fill="rgb(189,235,252)"/>
<rect x="138.00" y="66.00" width="12.00" height="12.00" rx="2.16" fill="rgb(184,233,252)"/>
<rect x="162.00" y="66.00" width="12.00" height="12.00" rx="2.16" fill="rgb(175,231,251)"/>
<rect x="186.00" y="66.00" width="12.00" height="12.00" rx="2.16" fill="rgb(164,227,250)"/>
<rect x="210.00" y="66.00" width="12.00" height="12.00" rx="2.16" fill="rgb(150,223,248)"/>
<rect x="234.00" y="66.00" width="12.00" height="12.00" rx="2.16" fill="rgb(188,234,251)"/>
<rect x="258.00" y="66.00" width="12.00" height="12.00" rx="2.16" fill="rgb(254,255,255)"/>
<rect x="282.00" y="66.00" width="12.00" height="12.00" rx="2.16" fill="rgb(134,218,246)"/>
<rect x="306.00" y="66.00" width="12.00" height="12.00" rx="2.16" fill="rgb(83,201,240)"/>
<rect x="330.00" y="66.00" width="12.00" height="12.00" rx="2.16" fill="rgb(72,192,236)"/>
<rect x="354.00" y="66.00" width="12.00" height="12.00" rx="2.16" fill="rgb(61,183,231)"/>
<rect x="378.00" y="66.00" width="12.00" height="12.00" rx="2.16" fill="rgb(50,174,226)"/>
<rect x="18.00" y="90.00" width="12.00" height="12.00" rx="2.16" fill="rgb(179,232,251)"/>
<rect x="42.00" y="90.00" width="12.00" height="12.00" rx="2.16" fill="rgb(185,234,252)"/>
<rect x="66.00" y="90.00" width="12.00" height="12.00" rx="2.16" fill="rgb(189,235,252)"/>
<rect x="90.00" y="90.00" width="12.00" height="12.00" rx="2.16" fill="rgb(189,235,252)"/>
<rect x="114.00" y="90.00" width="12.00" height="12.00" rx="2.16" fill="rgb(186,234,252)"/>
<rect x="138.00" y="90.00" width="12.00" height="12.00" rx="2.16" fill="rgb(180,232,251)"/>
<rect x="162.00" y="90.00" width="12.00" height="12.00" rx="2.16" fill="rgb(172,230,251)"/>
<rect x="186.00" y="90.00" width="12.00" height="12.00" rx="2.16" fill="rgb(161,226,249)"/>
<rect x="210.00" y="90.00" width="12.00" height="12.00" rx="2.16" fill="rgb(148,222,248)"/>
<rect x="234.00" y="90.00" width="12.00" height="12.00" rx="2.16" fill="rgb(237,249,254)"/>
<rect x="258.00" y="90.00" width="12.00" height="12.00" rx="2.16" fill="rgb(229,247,253)"/>
<rect x="282.00" y="90.00" width="12.00" height="12.00" rx="2.16" fill="rgb(98,207,243)"/>
<rect x="306.00" y="90.00" width="12.00" height="12.00" rx="2.16" fill="rgb(82,200,240)"/>
<rect x="330.00" y="90.00" width="12.00" height="12.00" rx="2.16" fill="rgb(71,191,235)"/>
<rect x="354.00" y="90.00" width="12.00" height="12.00" rx="2.16" fill="rgb(60,182,230)"/>
<rect x="378.00" y="90.00" width="12.00" height="12.00" rx="2.16" fill="rgb(50,173,226)"/>
<rect x="18.00" y="114.00" width="12.00" height="12.00" rx="2.16" fill="rgb(175,231,251)"/>
<rect x="42.00" y="114.00" width="12.00" height="12.00" rx="2.16" fill="rgb(181,233,252)"/>
<rect x="66.00" y="114.00" width="12.00" height="12.00" rx="2.16" fill="rgb(185,234,252)"/>
<rect x="90.00" y="114.00" width="12.00" height="12.00" rx="2.16" fill="rgb(185,234,252)"/>
<rect x="114.00" y="114.00" width="12.00" height="12.00" rx="2.16" fill="rgb(183,233,252)"/>
<rect x="138.00" y="114.00" width="12.00" height="12.00" rx="2.16" fill="rgb(177,231,251)"/>
<rect x="162.00" y="114.00" width="12.00" height="12.00" rx="2.16" fill="rgb(169,229,250)"/>
<rect x="186.00" y="114.00" width="12.00" height="12.00" rx="2.16" fill="rgb(158,225,249)"/>
<rect x="210.00" y="114.00" width="12.00" height="12.00" rx="2.16" fill="rgb(178,232,250)"/>
<rect x="234.00" y="114.00" width="12.00" height="12.00" rx="2.16" fill="rgb(255,255,255)"/>
<rect x="258.00" y="114.00" width="12.00" height="12.00" rx="2.16" fill="rgb(166,228,249)"/>
<rect x="282.00" y="114.00" width="12.00" height="12.00" rx="2.16" fill="rgb(96,207,243)"/>
<rect x="306.00" y="114.00" width="12.00" height="12.00" rx="2.16" fill="rgb(81,199,240)"/>
<rect x="330.00" y="114.00" width="12.00" height="12.00" rx="2.16" fill="rgb(71,190,235)"/>
<rect x="354.00" y="114.00" width="12.00" height="12.00" rx="2.16" fill="rgb(60,182,230)"/>
<rect x="378.00" y="114.00" width="12.00" height="12.00" rx="2.16" fill="rgb(49,173,225)"/>
<rect x="18.00" y="138.00" width="12.00" height="12.00" rx="2.16" fill="rgb(171,229,250)"/>
<rect x="42.00" y="138.00" width="12.00" height="12.00" rx="2.16" fill="rgb(177,231,251)"/>
<rect x="66.00" y="138.00" width="12.00" height="12.00" rx="2.16" fill="rgb(181,232,251)"/>
<rect x="90.00" y="138.00" width="12.00" height="12.00" rx="2.16" fill="rgb(181,233,252)"/>
<rect x="114.00" y="138.00" width="12.00" height="12.00" rx="2.16" fill="rgb(179,232,251)"/>
<rect x="138.00" y="138.00" width="12.00" height="12.00" rx="2.16" fill="rgb(173,230,251)"/>
<rect x="162.00" y="138.00" width="12.00" height="12.00" rx="2.16" fill="rgb(165,228,250)"/>
<rect x="186.00" y="138.00" width="12.00" height="12.00" rx="2.16" fill="rgb(155,225,249)"/>
<rect x="210.00" y="138.00" width="12.00" height="12.00" rx="2.16" fill="rgb(229,247,253)"/>
<rect x="234.00" y="138.00" width="12.00" height="12.00" rx="2.16" fill="rgb(240,250,254)"/>
<rect x="258.00" y="138.00" width="12.00" height="12.00" rx="2.16" fill="rgb(111,211,244)"/>
<rect x="282.00" y="138.00" width="12.00" height="12.00" rx="2.16" fill="rgb(93,206,243)"/>
<rect x="306.00" y="138.00" width="12.00" height="12.00" rx="2.16" fill="rgb(80,198,239)"/>
<rect x="330.00" y="138.00" width="12.00" height="12.00" rx="2.16" fill="rgb(69,190,234)"/>
<rect x="354.00" y="138.00" width="12.00" height="12.00" rx="2.16" fill="rgb(59,181,230)"/>
<rect x="378.00" y="138.00" width="12.00" height="12.00" rx="2.16" fill="rgb(48,172,225)"/>
<rect x="18.00" y="162.00" width="12.00" height="12.00" rx="2.16" fill="rgb(166,228,250)"/>
<rect x="42.00" y="162.00" width="12.00" height="12.00" rx="2.16" fill="rgb(173,230,251)"/>
<rect x="66.00" y="162.00" width="12.00" height="12.00" rx="2.16" fill="rgb(176,231,251)"/>
<rect x="90.00" y="162.00" width="12.00" height="12.00" rx="2.16" fill="rgb(177,231,251)"/>
<rect x="114.00" y="162.00" width="12.00" height="12.00" rx="2.16" fill="rgb(175,231,251)"/>
<rect x="138.00" y="162.00" width="12.00" height="12.00" rx="2.16" fill="rgb(170,229,250)"/>
<rect x="162.00" y="162.00" width="12.00" height="12.00" rx="2.16" fill="rgb(162,227,250)"/>
<rect x="186.00" y="162.00" width="12.00" height="12.00" rx="2.16" fill="rgb(28,0,0)"/>
<rect x="210.00" y="162.00" width="12.00" height="12.00" rx="2.16" fill="rgb(27,0,0)"/>
<rect x="234.00" y="162.00" width="12.00" height="12.00" rx="2.16" fill="rgb(190,235,251)"/>
<rect x="258.00" y="162.00" width="12.00" height="12.00" rx="2.16" fill="rgb(108,210,244)"/>
<rect x="282.00" y="162.00" width="12.00" height="12.00" rx="2.16" fill="rgb(91,205,242)"/>
<rect x="306.00" y="162.00" width="12.00" height="12.00" rx="2.16" fill="rgb(79,197,238)"/>
<rect x="330.00" y="162.00" width="12.00" height="12.00" rx="2.16" fill="rgb(68,189,234)"/>
<rect x="354.00" y="162.00" width="12.00" height="12.00" rx="2.16" fill="rgb(58,180,229)"/>
<rect x="378.00" y="162.00" width="12.00" height="12.00" rx="2.16" fill="rgb(47,171,225)"/>
<rect x="18.00" y="186.00" width="12.00" height="12.00" rx="2.16" fill="rgb(162,227,250)"/>
<rect x="42.00" y="186.00" width="12.00" height="12.00" rx="2.16" fill="rgb(168,229,250)"/>
<rect x="66.00" y="186.00" width="12.00" height="12.00" rx="2.16" fill="rgb(172,230,251)"/>
<rect x="90.00" y="186.00" width="12.00" height="12.00" rx="2.16" fill="rgb(173,230,251)"/>
<rect x="114.00" y="186.00" width="12.00" height="12.00" rx="2.16" fill="rgb(171,229,250)"/>
<rect x="138.00" y="186.00" width="12.00" height="12.00" rx="2.16" fill="rgb(166,228,250)"/>
<rect x="162.00" y="186.00" width="12.00" height="12.00" rx="2.16" fill="rgb(78,0,0)"/>
<rect x="186.00" y="186.00" width="12.00" height="12.00" rx="2.16" fill="rgb(69,0,0)"/>
<rect x="210.00" y="186.00" width="12.00" height="12.00" rx="2.16" fill="rgb(71,0,0)"/>
<rect x="234.00" y="186.00" width="12.00" height="12.00" rx="2.16" fill="rgb(59,0,0)"/>
<rect x="258.00" y="186.00" width="12.00" height="12.00" rx="2.16" fill="rgb(105,209,244)"/>
<rect x="282.00" y="186.00" width="12.00" height="12.00" rx="2.16" fill="rgb(88,204,242)"/>
<rect x="306.00" y="186.00" width="12.00" height="12.00" rx="2.16" fill="rgb(77,196,238)"/>
<rect x="330.00" y="186.00" width="12.00" height="12.00" rx="2.16" fill="rgb(67,188,233)"/>
<rect x="354.00" y="186.00" width="12.00" height="12.00" rx="2.16" fill="rgb(56,179,229)"/>
<rect x="378.00" y="186.00" width="12.00" height="12.00" rx="2.16" fill="rgb(46,170,224)"/>
<rect x="18.00" y="210.00" width="12.00" height="12.00" rx="2.16" fill="rgb(157,225,249)"/>
<rect x="42.00" y="210.00" width="12.00" height="12.00" rx="2.16" fill="rgb(164,227,250)"/>
<rect x="66.00" y="210.00" width="12.00" height="12.00" rx="2.16" fill="rgb(167,228,250)"/>
<rect x="90.00" y="210.00" width="12.00" height="12.00" rx="2.16" fill="rgb(168,229,250)"/>
<rect x="114.00" y="210.00" width="12.00" height="12.00" rx="2.16" fill="rgb(166,228,250)"/>
<rect x="138.00" y="210.00" width="12.00" height="12.00" rx="2.16" fill="rgb(161,226,249)"/>
<rect x="162.00" y="210.00" width="12.00" height="12.00" rx="2.16" fill="rgb(154,224,249)"/>
<rect x="186.00" y="210.00" width="12.00" height="12.00" rx="2.16" fill="rgb(250,254,255)"/>
<rect x="210.00" y="210.00" width="12.00" height="12.00" rx="2.16" fill="rgb(44,0,0)"/>
<rect x="234.00" y="210.00" width="12.00" height="12.00" rx="2.16" fill="rgb(44,0,0)"/>
<rect x="258.00" y="210.00" width="12.00" height="12.00" rx="2.16" fill="rgb(102,208,243)"/>
<rect x="282.00" y="210.00" width="12.00" height="12.00" rx="2.16" fill="rgb(86,203,241)"/>
<rect x="306.00" y="210.00" width="12.00" height="12.00" rx="2.16" fill="rgb(76,195,237)"/>
<rect x="330.00" y="210.00" width="12.00" height="12.00" rx="2.16" fill="rgb(65,186,233)"/>
<rect x="354.00" y="210.00" width="12.00" height="12.00" rx="2.16" fill="rgb(55,178,228)"/>
<rect x="378.00" y="210.00" width="12.00" height="12.00" rx="2.16" fill="rgb(45,169,224)"/>
<rect x="18.00" y="234.00" width="12.00" height="12.00" rx="2.16" fill="rgb(152,224,249)"/>
<rect x="42.00" y="234.00" width="12.00" height="12.00" rx="2.16" fill="rgb(159,226,249)"/>
<rect x="66.00" y="234.00" width="12.00" height="12.00" rx="2.16" fill="rgb(162,227,250)"/>
<rect x="90.00" y="234.00" width="12.00" height="12.00" rx="2.16" fill="rgb(163,227,250)"/>
<rect x="114.00" y="234.00" width="12.00" height="12.00" rx="2.16" fill="rgb(161,226,249)"/>
<rect x="138.00" y="234.00" width="12.00" height="12.00" rx="2.16" fill="rgb(157,225,249)"/>
<rect x="162.00" y="234.00" width="12.00" height="12.00" rx="2.16" fill="rgb(209,241,252)"/>
<rect x="186.00" y="234.00" width="12.00" height="12.00" rx="2.16" fill="rgb(252,254,255)"/>
<rect x="210.00" y="234.00" width="12.00" height="12.00" rx="2.16" fill="rgb(134,218,247)"/>
<rect x="234.00" y="234.00" width="12.00" height="12.00" rx="2.16" fill="rgb(114,212,245)"/>
<rect x="258.00" y="234.00" width="12.00" height="12.00" rx="2.16" fill="rgb(98,207,243)"/>
<rect x="282.00" y="234.00" width="12.00" height="12.00" rx="2.16" fill="rgb(84,201,241)"/>
<rect x="306.00" y="234.00" width="12.00" height="12.00" rx="2.16" fill="rgb(74,193,236)"/>
<rect x="330.00" y="234.00" width="12.00" height="12.00" rx="2.16" fill="rgb(64,185,232)"/>
<rect x="354.00" y="234.00" width="12.00" height="12.00" rx="2.16" fill="rgb(54,177,227)"/>
<rect x="378.00" y="234.00" width="12.00" height="12.00" rx="2.16" fill="rgb(44,168,223)"/>
<rect x="18.00" y="258.00" width="12.00" height="12.00" rx="2.16" fill="rgb(147,222,248)"/>
<rect x="42.00" y="258.00" width="12.00" height="12.00" rx="2.16" fill="rgb(153,224,249)"/>
<rect x="66.00" y="258.00" width="12.00" height="12.00" rx="2.16" fill="rgb(157,225,249)"/>
<rect x="90.00" y="258.00" width="12.00" height="12.00" rx="2.16" fill="rgb(158,226,249)"/>
<rect x="114.00" y="258.00" width="12.00" height="12.00" rx="2.16" fill="rgb(157,225,249)"/>
<rect x="138.00" y="258.00" width="12.00" height="12.00" rx="2.16" fill="rgb(152,224,249)"/>
<rect x="162.00" y="258.00" width="12.00" height="12.00" rx="2.16" fill="rgb(245,252,254)"/>
<rect x="186.00" y="258.00" width="12.00" height="12.00" rx="2.16" fill="rgb(222,245,253)"/>
<rect x="210.00" y="258.00" width="12.00" height="12.00" rx="2.16" fill="rgb(123,215,246)"/>
<rect x="234.00" y="258.00" width="12.00" height="12.00" rx="2.16" fill="rgb(109,211,244)"/>
<rect x="258.00" y="258.00" width="12.00" height="12.00" rx="2.16" fill="rgb(94,206,243)"/>
<rect x="282.00" y="258.00" width="12.00" height="12.00" rx="2.16" fill="rgb(82,200,240)"/>
<rect x="306.00" y="258.00" width="12.00" height="12.00" rx="2.16" fill="rgb(72,192,235)"/>
<rect x="330.00" y="258.00" width="12.00" height="12.00" rx="2.16" fill="rgb(62,184,231)"/>
<rect x="354.00" y="258.00" width="12.00" height="12.00" rx="2.16" fill="rgb(52,175,227)"/>
<rect x="378.00" y="258.00" width="12.00" height="12.00" rx="2.16" fill="rgb(42,167,222)"/>
<rect x="18.00" y="282.00" width="12.00" height="12.00" rx="2.16" fill="rgb(141,220,247)"/>
<rect x="42.00" y="282.00" width="12.00" height="12.00" rx="2.16" fill="rgb(148,223,248)"/>
<rect x="66.00" y="282.00" width="12.00" height="12.00" rx="2.16" fill="rgb(152,224,249)"/>
<rect x="90.00" y="282.00" width="12.00" height="12.00" rx="2.16" fill="rgb(153,224,249)"/>
<rect x="114.00" y="282.00" width="12.00" height="12.00" rx="2.16" fill="rgb(151,223,248)"/>
<rect x="138.00" y="282.00" width="12.00" height="12.00" rx="2.16" fill="rgb(195,237,251)"/>
<rect x="162.00" y="282.00" width="12.00" height="12.00" rx="2.16" fill="rgb(254,255,255)"/>
<rect x="186.00" y="282.00" width="12.00" height="12.00" rx="2.16" fill="rgb(158,225,248)"/>
<rect x="210.00" y="282.00" width="12.00" height="12.00" rx="2.16" fill="rgb(119,214,245)"/>
<rect x="234.00" y="282.00" width="12.00" height="12.00" rx="2.16" fill="rgb(105,210,244)"/>
<rect x="258.00" y="282.00" width="12.00" height="12.00" rx="2.16" fill="rgb(90,205,242)"/>
<rect x="282.00" y="282.00" width="12.00" height="12.00" rx="2.16" fill="rgb(80,198,239)"/>
<rect x="306.00" y="282.00" width="12.00" height="12.00" rx="2.16" fill="rgb(70,190,235)"/>
<rect x="330.00" y="282.00" width="12.00" height="12.00" rx="2.16" fill="rgb(60,182,230)"/>
<rect x="354.00" y="282.00" width="12.00" height="12.00" rx="2.16" fill="rgb(50,174,226)"/>
<rect x="378.00" y="282.00" width="12.00" height="12.00" rx="2.16" fill="rgb(41,166,222)"/>
<rect x="18.00" y="306.00" width="12.00" height="12.00" rx="2.16" fill="rgb(136,219,247)"/>
<rect x="42.00" y="306.00" width="12.00" height="12.00" rx="2.16" fill="rgb(143,221,248)"/>
<rect x="66.00" y="306.00" width="12.00" height="12.00" rx="2.16" fill="rgb(147,222,248)"/>
<rect x="90.00" y="306.00" width="12.00" height="12.00" rx="2.16" fill="rgb(148,222,248)"/>
<rect x="114.00" y="306.00" width="12.00" height="12.00" rx="2.16" fill="rgb(146,222,248)"/>
<rect x="138.00" y="306.00" width="12.00" height="12.00" rx="2.16" fill="rgb(238,250,254)"/>
<rect x="162.00" y="306.00" width="12.00" height="12.00" rx="2.16" fill="rgb(232,248,253)"/>
<rect x="186.00" y="306.00" width="12.00" height="12.00" rx="2.16" fill="rgb(126,216,246)"/>
<rect x="210.00" y="306.00" width="12.00" height="12.00" rx="2.16" fill="rgb(114,212,245)"/>
<rect x="234.00" y="306.00" width="12.00" height="12.00" rx="2.16" fill="rgb(101,208,243)"/>
<rect x="258.00" y="306.00" width="12.00" height="12.00" rx="2.16" fill="rgb(86,203,242)"/>
<rect x="282.00" y="306.00" width="12.00" height="12.00" rx="2.16" fill="rgb(77,196,238)"/>
<rect x="306.00" y="306.00" width="12.00" height="12.00" rx="2.16" fill="rgb(68,188,234)"/>
<rect x="330.00" y="306.00" width="12.00" height="12.00" rx="2.16" fill="rgb(58,180,229)"/>
<rect x="354.00" y="306.00" width="12.00" height="12.00" rx="2.16" fill="rgb(48,172,225)"/>
<rect x="378.00" y="306.00" width="12.00" height="12.00" rx="2.16" fill="rgb(39,164,221)"/>
<rect x="18.00" y="330.00" width="12.00" height="12.00" rx="2.16" fill="rgb(130,217,246)"/>
<rect x="42.00" y="330.00" width="12.00" height="12.00" rx="2.16" fill="rgb(137,219,247)"/>
<rect x="66.00" y="330.00" width="12.00" height="12.00" rx="2.16" fill="rgb(141,220,247)"/>
<rect x="90.00" y="330.00" width="12.00" height="12.00" rx="2.16" fill="rgb(142,221,248)"/>
<rect x="114.00" y="330.00" width="12.00" height="12.00" rx="2.16" fill="rgb(175,231,249)"/>
<rect x="138.00" y="330.00" width="12.00" height="12.00" rx="2.16" fill="rgb(255,255,255)"/>
<rect x="162.00" y="330.00" width="12.00" height="12.00" rx="2.16" fill="rgb(176,231,249)"/>
<rect x="186.00" y="330.00" width="12.00" height="12.00" rx="2.16" fill="rgb(120,214,245)"/>
<rect x="210.00" y="330.00" width="12.00" height="12.00" rx="2.16" fill="rgb(109,211,244)"/>
<rect x="234.00" y="330.00" width="12.00" height="12.00" rx="2.16" fill="rgb(96,207,243)"/>
<rect x="258.00" y="330.00" width="12.00" height="12.00" rx="2.16" fill="rgb(84,201,241)"/>
<rect x="282.00" y="330.00" width="12.00" height="12.00" rx="2.16" fill="rgb(75,194,237)"/>
<rect x="306.00" y="330.00" width="12.00" height="12.00" rx="2.16" fill="rgb(66,186,233)"/>
<rect x="330.00" y="330.00" width="12.00" height="12.00" rx="2.16" fill="rgb(56,178,228)"/>
<rect x="354.00" y="330.00" width="12.00" height="12.00" rx="2.16" fill="rgb(46,171,224)"/>
<rect x="378.00" y="330.00" width="12.00" height="12.00" rx="2.16" fill="rgb(37,163,220)"/>
<rect x="18.00" y="354.00" width="12.00" height="12.00" rx="2.16" fill="rgb(125,215,246)"/>
<rect x="42.00" y="354.00" width="12.00" height="12.00" rx="2.16" fill="rgb(132,217,246)"/>
<rect x="66.00" y="354.00" width="12.00" height="12.00" rx="2.16" fill="rgb(136,219,247)"/>
<rect x="90.00" y="354.00" width="12.00" height="12.00" rx="2.16" fill="rgb(137,219,247)"/>
<rect x="114.00" y="354.00" width="12.00" height="12.00" rx="2.16" fill="rgb(228,247,253)"/>
<rect x="138.00" y="354.00" width="12.00" height="12.00" rx="2.16" fill="rgb(240,251,254)"/>
<rect x="162.00" y="354.00" width="12.00" height="12.00" rx="2.16" fill="rgb(124,215,246)"/>
<rect x="186.00" y="354.00" width="12.00" height="12.00" rx="2.16" fill="rgb(115,213,245)"/>
<rect x="210.00" y="354.00" width="12.00" height="12.00" rx="2.16" fill="rgb(104,209,244)"/>
<rect x="234.00" y="354.00" width="12.00" height="12.00" rx="2.16" fill="rgb(91,205,242)"/>
<rect x="258.00" y="354.00" width="12.00" height="12.00" rx="2.16" fill="rgb(81,199,239)"/>
<rect x="282.00" y="354.00" width="12.00" height="12.00" rx="2.16" fill="rgb(72,192,236)"/>
<rect x="306.00" y="354.00" width="12.00" height="12.00" rx="2.16" fill="rgb(63,184,232)"/>
<rect x="330.00" y="354.00" width="12.00" height="12.00" rx="2.16" fill="rgb(54,177,227)"/>
<rect x="354.00" y="354.00" width="12.00" height="12.00" rx="2.16" fill="rgb(44,169,223)"/>
<rect x="378.00" y="354.00" width="12.00" height="12.00" rx="2.16" fill="rgb(35,161,219)"/>
<rect x="18.00" y="378.00" width="12.00" height="12.00" rx="2.16" fill="rgb(119,214,245)"/>
<rect x="42.00" y="378.00" width="12.00" height="12.00" rx="2.16" fill="rgb(126,216,246)"/>
<rect x="66.00" y="378.00" width="12.00" height="12.00" rx="2.16" fill="rgb(130,217,246)"/>
<rect x="90.00" y="378.00" width="12.00" height="12.00" rx="2.16" fill="rgb(149,223,247)"/>
<rect x="114.00" y="378.00" width="12.00" height="12.00" rx="2.16" fill="rgb(253,255,255)"/>
<rect x="138.00" y="378.00" width="12.00" height="12.00" rx="2.16" fill="rgb(191,236,251)"/>
<rect x="162.00" y="378.00" width="12.00" height="12.00" rx="2.16" fill="rgb(119,214,245)"/>
<rect x="186.00" y="378.00" width="12.00" height="12.00" rx="2.16" fill="rgb(110,211,244)"/>
<rect x="210.00" y="378.00" width="12.00" height="12.00" rx="2.16" fill="rgb(99,208,243)"/>
<rect x="234.00" y="378.00" width="12.00" height="12.00" rx="2.16" fill="rgb(86,204,242)"/>
<rect x="258.00" y="378.00" width="12.00" height="12.00" rx="2.16" fill="rgb(78,197,238)"/>
<rect x="282.00" y="378.00" width="12.00" height="12.00" rx="2.16" fill="rgb(70,190,234)"/>
<rect x="306.00" y="378.00" width="12.00" height="12.00" rx="2.16" fill="rgb(61,182,230)"/>
<rect x="330.00" y="378.00" width="12.00" height="12.00" rx="2.16" fill="rgb(51,175,226)"/>
<rect x="354.00" y="378.00" width="12.00" height="12.00" rx="2.16" fill="rgb(42,167,222)"/>
<rect x="378.00" y="378.00" width="12.00" height="12.00" rx="2.16" fill="rgb(33,160,218)"/>
</svg>
