<svg xmlns="http://www.w3.org/2000/svg" viewBox="0 0 408 408" width="408" height="408" role="img" aria-label="LED preview of the Treble Sparks example graph">
<rect width="408" height="408" rx="10" fill="#05070a"/>
<circle cx="24" cy="24" r="12" fill="rgb(116,113,96)" opacity="0.35"/>
<circle cx="24" cy="24" r="9" fill="rgb(116,113,96)"/>
<circle cx="48" cy="24" r="12" fill="rgb(188,188,171)" opacity="0.35"/>
<circle cx="48" cy="24" r="9" fill="rgb(188,188,171)"/>
<circle cx="72" cy="24" r="12" fill="rgb(106,101,90)" opacity="0.35"/>
<circle cx="72" cy="24" r="9" fill="rgb(106,101,90)"/>
<circle cx="96" cy="24" r="12" fill="rgb(23,23,27)" opacity="0.35"/>
<circle cx="96" cy="24" r="9" fill="rgb(23,23,27)"/>
<circle cx="120" cy="24" r="12" fill="rgb(56,59,64)" opacity="0.35"/>
<circle cx="120" cy="24" r="9" fill="rgb(56,59,64)"/>
<circle cx="144" cy="24" r="12" fill="rgb(64,64,64)" opacity="0.35"/>
<circle cx="144" cy="24" r="9" fill="rgb(64,64,64)"/>
<circle cx="168" cy="24" r="12" fill="rgb(46,44,45)" opacity="0.35"/>
<circle cx="168" cy="24" r="9" fill="rgb(46,44,45)"/>
<circle cx="192" cy="24" r="12" fill="rgb(92,88,91)" opacity="0.35"/>
<circle cx="192" cy="24" r="9" fill="rgb(92,88,91)"/>
<circle cx="216" cy="24" r="12" fill="rgb(109,109,109)" opacity="0.35"/>
<circle cx="216" cy="24" r="9" fill="rgb(109,109,109)"/>
<circle cx="240" cy="24" r="12" fill="rgb(109,109,109)" opacity="0.35"/>
<circle cx="240" cy="24" r="9" fill="rgb(109,109,109)"/>
<circle cx="264" cy="24" r="12" fill="rgb(109,109,109)" opacity="0.35"/>
<circle cx="264" cy="24" r="9" fill="rgb(109,109,109)"/>
<circle cx="288" cy="24" r="12" fill="rgb(140,134,140)" opacity="0.35"/>
<circle cx="288" cy="24" r="9" fill="rgb(140,134,140)"/>
<circle cx="312" cy="24" r="12" fill="rgb(143,127,143)" opacity="0.35"/>
<circle cx="312" cy="24" r="9" fill="rgb(143,127,143)"/>
<circle cx="336" cy="24" r="12" fill="rgb(94,88,92)" opacity="0.35"/>
<circle cx="336" cy="24" r="9" fill="rgb(94,88,92)"/>
<circle cx="360" cy="24" r="12" fill="rgb(62,55,64)" opacity="0.35"/>
<circle cx="360" cy="24" r="9" fill="rgb(62,55,64)"/>
<circle cx="384" cy="24" r="12" fill="rgb(109,98,109)" opacity="0.35"/>
<circle cx="384" cy="24" r="9" fill="rgb(109,98,109)"/>
<circle cx="24" cy="48" r="12" fill="rgb(78,76,66)" opacity="0.35"/>
<circle cx="24" cy="48" r="9" fill="rgb(78,76,66)"/>
<circle cx="48" cy="48" r="12" fill="rgb(154,157,146)" opacity="0.35"/>
<circle cx="48" cy="48" r="9" fill="rgb(154,157,146)"/>
<circle cx="72" cy="48" r="12" fill="rgb(132,131,134)" opacity="0.35"/>
<circle cx="72" cy="48" r="9" fill="rgb(132,131,134)"/>
<circle cx="96" cy="48" r="12" fill="rgb(174,177,178)" opacity="0.35"/>
<circle cx="96" cy="48" r="9" fill="rgb(174,177,178)"/>
<circle cx="120" cy="48" r="12" fill="rgb(188,185,187)" opacity="0.35"/>
<circle cx="120" cy="48" r="9" fill="rgb(188,185,187)"/>
<circle cx="144" cy="48" r="12" fill="rgb(94,92,98)" opacity="0.35"/>
<circle cx="144" cy="48" r="9" fill="rgb(94,92,98)"/>
<circle cx="168" cy="48" r="12" fill="rgb(47,40,38)" opacity="0.35"/>
<circle cx="168" cy="48" r="9" fill="rgb(47,40,38)"/>
<circle cx="192" cy="48" r="12" fill="rgb(109,109,108)" opacity="0.35"/>
<circle cx="192" cy="48" r="9" fill="rgb(109,109,108)"/>
<circle cx="216" cy="48" r="12" fill="rgb(109,109,109)" opacity="0.35"/>
<circle cx="216" cy="48" r="9" fill="rgb(109,109,109)"/>
<circle cx="240" cy="48" r="12" fill="rgb(109,109,109)" opacity="0.35"/>
<circle cx="240" cy="48" r="9" fill="rgb(109,109,109)"/>
<circle cx="264" cy="48" r="12" fill="rgb(109,109,109)" opacity="0.35"/>
<circle cx="264" cy="48" r="9" fill="rgb(109,109,109)"/>
<circle cx="288" cy="48" r="12" fill="rgb(188,173,188)" opacity="0.35"/>
<circle cx="288" cy="48" r="9" fill="rgb(188,173,188)"/>
<circle cx="312" cy="48" r="12" fill="rgb(188,188,188)" opacity="0.35"/>
<circle cx="312" cy="48" r="9" fill="rgb(188,188,188)"/>
<circle cx="336" cy="48" r="12" fill="rgb(143,127,143)" opacity="0.35"/>
<circle cx="336" cy="48" r="9" fill="rgb(143,127,143)"/>
<circle cx="360" cy="48" r="12" fill="rgb(45,44,45)" opacity="0.35"/>
<circle cx="360" cy="48" r="9" fill="rgb(45,44,45)"/>
<circle cx="384" cy="48" r="12" fill="rgb(56,49,58)" opacity="0.35"/>
<circle cx="384" cy="48" r="9" fill="rgb(56,49,58)"/>
<circle cx="24" cy="72" r="12" fill="rgb(133,137,140)" opacity="0.35"/>
<circle cx="24" cy="72" r="9" fill="rgb(133,137,140)"/>
<circle cx="48" cy="72" r="12" fill="rgb(172,182,188)" opacity="0.35"/>
<circle cx="48" cy="72" r="9" fill="rgb(172,182,188)"/>
<circle cx="72" cy="72" r="12" fill="rgb(187,188,188)" opacity="0.35"/>
<circle cx="72" cy="72" r="9" fill="rgb(187,188,188)"/>
<circle cx="96" cy="72" r="12" fill="rgb(188,188,188)" opacity="0.35"/>
<circle cx="96" cy="72" r="9" fill="rgb(188,188,188)"/>
<circle cx="120" cy="72" r="12" fill="rgb(188,188,188)" opacity="0.35"/>
<circle cx="120" cy="72" r="9" fill="rgb(188,188,188)"/>
<circle cx="144" cy="72" r="12" fill="rgb(185,176,188)" opacity="0.35"/>
<circle cx="144" cy="72" r="9" fill="rgb(185,176,188)"/>
<circle cx="168" cy="72" r="12" fill="rgb(82,67,83)" opacity="0.35"/>
<circle cx="168" cy="72" r="9" fill="rgb(82,67,83)"/>
<circle cx="192" cy="72" r="12" fill="rgb(122,115,117)" opacity="0.35"/>
<circle cx="192" cy="72" r="9" fill="rgb(122,115,117)"/>
<circle cx="216" cy="72" r="12" fill="rgb(109,109,109)" opacity="0.35"/>
<circle cx="216" cy="72" r="9" fill="rgb(109,109,109)"/>
<circle cx="240" cy="72" r="12" fill="rgb(109,109,109)" opacity="0.35"/>
<circle cx="240" cy="72" r="9" fill="rgb(109,109,109)"/>
<circle cx="264" cy="72" r="12" fill="rgb(95,98,98)" opacity="0.35"/>
<circle cx="264" cy="72" r="9" fill="rgb(95,98,98)"/>
<circle cx="288" cy="72" r="12" fill="rgb(138,139,136)" opacity="0.35"/>
<circle cx="288" cy="72" r="9" fill="rgb(138,139,136)"/>
<circle cx="312" cy="72" r="12" fill="rgb(161,147,156)" opacity="0.35"/>
<circle cx="312" cy="72" r="9" fill="rgb(161,147,156)"/>
<circle cx="336" cy="72" r="12" fill="rgb(75,72,74)" opacity="0.35"/>
<circle cx="336" cy="72" r="9" fill="rgb(75,72,74)"/>
<circle cx="360" cy="72" r="12" fill="rgb(66,69,61)" opacity="0.35"/>
<circle cx="360" cy="72" r="9" fill="rgb(66,69,61)"/>
<circle cx="384" cy="72" r="12" fill="rgb(98,99,82)" opacity="0.35"/>
<circle cx="384" cy="72" r="9" fill="rgb(98,99,82)"/>
<circle cx="24" cy="96" r="12" fill="rgb(188,188,188)" opacity="0.35"/>
<circle cx="24" cy="96" r="9" fill="rgb(188,188,188)"/>
<circle cx="48" cy="96" r="12" fill="rgb(188,188,188)" opacity="0.35"/>
<circle cx="48" cy="96" r="9" fill="rgb(188,188,188)"/>
<circle cx="72" cy="96" r="12" fill="rgb(166,188,188)" opacity="0.35"/>
<circle cx="72" cy="96" r="9" fill="rgb(166,188,188)"/>
<circle cx="96" cy="96" r="12" fill="rgb(188,188,188)" opacity="0.35"/>
<circle cx="96" cy="96" r="9" fill="rgb(188,188,188)"/>
<circle cx="120" cy="96" r="12" fill="rgb(188,188,188)" opacity="0.35"/>
<circle cx="120" cy="96" r="9" fill="rgb(188,188,188)"/>
<circle cx="144" cy="96" r="12" fill="rgb(188,188,188)" opacity="0.35"/>
<circle cx="144" cy="96" r="9" fill="rgb(188,188,188)"/>
<circle cx="168" cy="96" r="12" fill="rgb(188,188,188)" opacity="0.35"/>
<circle cx="168" cy="96" r="9" fill="rgb(188,188,188)"/>
<circle cx="192" cy="96" r="12" fill="rgb(160,159,165)" opacity="0.35"/>
<circle cx="192" cy="96" r="9" fill="rgb(160,159,165)"/>
<circle cx="216" cy="96" r="12" fill="rgb(86,93,86)" opacity="0.35"/>
<circle cx="216" cy="96" r="9" fill="rgb(86,93,86)"/>
<circle cx="240" cy="96" r="12" fill="rgb(58,55,51)" opacity="0.35"/>
<circle cx="240" cy="96" r="9" fill="rgb(58,55,51)"/>
<circle cx="264" cy="96" r="12" fill="rgb(85,89,78)" opacity="0.35"/>
<circle cx="264" cy="96" r="9" fill="rgb(85,89,78)"/>
<circle cx="288" cy="96" r="12" fill="rgb(154,171,145)" opacity="0.35"/>
<circle cx="288" cy="96" r="9" fill="rgb(154,171,145)"/>
<circle cx="312" cy="96" r="12" fill="rgb(86,93,82)" opacity="0.35"/>
<circle cx="312" cy="96" r="9" fill="rgb(86,93,82)"/>
<circle cx="336" cy="96" r="12" fill="rgb(42,46,44)" opacity="0.35"/>
<circle cx="336" cy="96" r="9" fill="rgb(42,46,44)"/>
<circle cx="360" cy="96" r="12" fill="rgb(143,143,126)" opacity="0.35"/>
<circle cx="360" cy="96" r="9" fill="rgb(143,143,126)"/>
<circle cx="384" cy="96" r="12" fill="rgb(188,188,181)" opacity="0.35"/>
<circle cx="384" cy="96" r="9" fill="rgb(188,188,181)"/>
<circle cx="24" cy="120" r="12" fill="rgb(188,188,188)" opacity="0.35"/>
<circle cx="24" cy="120" r="9" fill="rgb(188,188,188)"/>
<circle cx="48" cy="120" r="12" fill="rgb(188,188,188)" opacity="0.35"/>
<circle cx="48" cy="120" r="9" fill="rgb(188,188,188)"/>
<circle cx="72" cy="120" r="12" fill="rgb(51,59,58)" opacity="0.35"/>
<circle cx="72" cy="120" r="9" fill="rgb(51,59,58)"/>
<circle cx="96" cy="120" r="12" fill="rgb(96,105,103)" opacity="0.35"/>
<circle cx="96" cy="120" r="9" fill="rgb(96,105,103)"/>
<circle cx="120" cy="120" r="12" fill="rgb(188,188,188)" opacity="0.35"/>
<circle cx="120" cy="120" r="9" fill="rgb(188,188,188)"/>
<circle cx="144" cy="120" r="12" fill="rgb(188,188,188)" opacity="0.35"/>
<circle cx="144" cy="120" r="9" fill="rgb(188,188,188)"/>
<circle cx="168" cy="120" r="12" fill="rgb(188,188,188)" opacity="0.35"/>
<circle cx="168" cy="120" r="9" fill="rgb(188,188,188)"/>
<circle cx="192" cy="120" r="12" fill="rgb(188,188,188)" opacity="0.35"/>
<circle cx="192" cy="120" r="9" fill="rgb(188,188,188)"/>
<circle cx="216" cy="120" r="12" fill="rgb(76,80,81)" opacity="0.35"/>
<circle cx="216" cy="120" r="9" fill="rgb(76,80,81)"/>
<circle cx="240" cy="120" r="12" fill="rgb(58,46,45)" opacity="0.35"/>
<circle cx="240" cy="120" r="9" fill="rgb(58,46,45)"/>
<circle cx="264" cy="120" r="12" fill="rgb(53,51,45)" opacity="0.35"/>
<circle cx="264" cy="120" r="9" fill="rgb(53,51,45)"/>
<circle cx="288" cy="120" r="12" fill="rgb(67,75,64)" opacity="0.35"/>
<circle cx="288" cy="120" r="9" fill="rgb(67,75,64)"/>
<circle cx="312" cy="120" r="12" fill="rgb(49,54,50)" opacity="0.35"/>
<circle cx="312" cy="120" r="9" fill="rgb(49,54,50)"/>
<circle cx="336" cy="120" r="12" fill="rgb(38,41,38)" opacity="0.35"/>
<circle cx="336" cy="120" r="9" fill="rgb(38,41,38)"/>
<circle cx="360" cy="120" r="12" fill="rgb(92,98,95)" opacity="0.35"/>
<circle cx="360" cy="120" r="9" fill="rgb(92,98,95)"/>
<circle cx="384" cy="120" r="12" fill="rgb(149,157,152)" opacity="0.35"/>
<circle cx="384" cy="120" r="9" fill="rgb(149,157,152)"/>
<circle cx="24" cy="144" r="12" fill="rgb(188,188,188)" opacity="0.35"/>
<circle cx="24" cy="144" r="9" fill="rgb(188,188,188)"/>
<circle cx="48" cy="144" r="12" fill="rgb(151,178,188)" opacity="0.35"/>
<circle cx="48" cy="144" r="9" fill="rgb(151,178,188)"/>
<circle cx="72" cy="144" r="12" fill="rgb(45,47,57)" opacity="0.35"/>
<circle cx="72" cy="144" r="9" fill="rgb(45,47,57)"/>
<circle cx="96" cy="144" r="12" fill="rgb(96,96,86)" opacity="0.35"/>
<circle cx="96" cy="144" r="9" fill="rgb(96,96,86)"/>
<circle cx="120" cy="144" r="12" fill="rgb(188,188,188)" opacity="0.35"/>
<circle cx="120" cy="144" r="9" fill="rgb(188,188,188)"/>
<circle cx="144" cy="144" r="12" fill="rgb(188,188,188)" opacity="0.35"/>
<circle cx="144" cy="144" r="9" fill="rgb(188,188,188)"/>
<circle cx="168" cy="144" r="12" fill="rgb(188,188,188)" opacity="0.35"/>
<circle cx="168" cy="144" r="9" fill="rgb(188,188,188)"/>
<circle cx="192" cy="144" r="12" fill="rgb(188,188,188)" opacity="0.35"/>
<circle cx="192" cy="144" r="9" fill="rgb(188,188,188)"/>
<circle cx="216" cy="144" r="12" fill="rgb(83,93,94)" opacity="0.35"/>
<circle cx="216" cy="144" r="9" fill="rgb(83,93,94)"/>
<circle cx="240" cy="144" r="12" fill="rgb(49,41,42)" opacity="0.35"/>
<circle cx="240" cy="144" r="9" fill="rgb(49,41,42)"/>
<circle cx="264" cy="144" r="12" fill="rgb(66,54,54)" opacity="0.35"/>
<circle cx="264" cy="144" r="9" fill="rgb(66,54,54)"/>
<circle cx="288" cy="144" r="12" fill="rgb(47,44,49)" opacity="0.35"/>
<circle cx="288" cy="144" r="9" fill="rgb(47,44,49)"/>
<circle cx="312" cy="144" r="12" fill="rgb(44,44,45)" opacity="0.35"/>
<circle cx="312" cy="144" r="9" fill="rgb(44,44,45)"/>
<circle cx="336" cy="144" r="12" fill="rgb(66,67,67)" opacity="0.35"/>
<circle cx="336" cy="144" r="9" fill="rgb(66,67,67)"/>
<circle cx="360" cy="144" r="12" fill="rgb(163,174,185)" opacity="0.35"/>
<circle cx="360" cy="144" r="9" fill="rgb(163,174,185)"/>
<circle cx="384" cy="144" r="12" fill="rgb(163,182,188)" opacity="0.35"/>
<circle cx="384" cy="144" r="9" fill="rgb(163,182,188)"/>
<circle cx="24" cy="168" r="12" fill="rgb(146,172,188)" opacity="0.35"/>
<circle cx="24" cy="168" r="9" fill="rgb(146,172,188)"/>
<circle cx="48" cy="168" r="12" fill="rgb(188,188,188)" opacity="0.35"/>
<circle cx="48" cy="168" r="9" fill="rgb(188,188,188)"/>
<circle cx="72" cy="168" r="12" fill="rgb(110,119,140)" opacity="0.35"/>
<circle cx="72" cy="168" r="9" fill="rgb(110,119,140)"/>
<circle cx="96" cy="168" r="12" fill="rgb(69,72,72)" opacity="0.35"/>
<circle cx="96" cy="168" r="9" fill="rgb(69,72,72)"/>
<circle cx="120" cy="168" r="12" fill="rgb(188,188,188)" opacity="0.35"/>
<circle cx="120" cy="168" r="9" fill="rgb(188,188,188)"/>
<circle cx="144" cy="168" r="12" fill="rgb(188,188,188)" opacity="0.35"/>
<circle cx="144" cy="168" r="9" fill="rgb(188,188,188)"/>
<circle cx="168" cy="168" r="12" fill="rgb(188,188,188)" opacity="0.35"/>
<circle cx="168" cy="168" r="9" fill="rgb(188,188,188)"/>
<circle cx="192" cy="168" r="12" fill="rgb(119,134,132)" opacity="0.35"/>
<circle cx="192" cy="168" r="9" fill="rgb(119,134,132)"/>
<circle cx="216" cy="168" r="12" fill="rgb(52,55,63)" opacity="0.35"/>
<circle cx="216" cy="168" r="9" fill="rgb(52,55,63)"/>
<circle cx="240" cy="168" r="12" fill="rgb(62,54,52)" opacity="0.35"/>
<circle cx="240" cy="168" r="9" fill="rgb(62,54,52)"/>
<circle cx="264" cy="168" r="12" fill="rgb(109,109,109)" opacity="0.35"/>
<circle cx="264" cy="168" r="9" fill="rgb(109,109,109)"/>
<circle cx="288" cy="168" r="12" fill="rgb(109,109,109)" opacity="0.35"/>
<circle cx="288" cy="168" r="9" fill="rgb(109,109,109)"/>
<circle cx="312" cy="168" r="12" fill="rgb(95,98,96)" opacity="0.35"/>
<circle cx="312" cy="168" r="9" fill="rgb(95,98,96)"/>
<circle cx="336" cy="168" r="12" fill="rgb(112,116,116)" opacity="0.35"/>
<circle cx="336" cy="168" r="9" fill="rgb(112,116,116)"/>
<circle cx="360" cy="168" r="12" fill="rgb(188,188,188)" opacity="0.35"/>
<circle cx="360" cy="168" r="9" fill="rgb(188,188,188)"/>
<circle cx="384" cy="168" r="12" fill="rgb(138,151,162)" opacity="0.35"/>
<circle cx="384" cy="168" r="9" fill="rgb(138,151,162)"/>
<circle cx="24" cy="192" r="12" fill="rgb(89,103,106)" opacity="0.35"/>
<circle cx="24" cy="192" r="9" fill="rgb(89,103,106)"/>
<circle cx="48" cy="192" r="12" fill="rgb(166,188,188)" opacity="0.35"/>
<circle cx="48" cy="192" r="9" fill="rgb(166,188,188)"/>
<circle cx="72" cy="192" r="12" fill="rgb(85,98,105)" opacity="0.35"/>
<circle cx="72" cy="192" r="9" fill="rgb(85,98,105)"/>
<circle cx="96" cy="192" r="12" fill="rgb(38,45,47)" opacity="0.35"/>
<circle cx="96" cy="192" r="9" fill="rgb(38,45,47)"/>
<circle cx="120" cy="192" r="12" fill="rgb(94,89,86)" opacity="0.35"/>
<circle cx="120" cy="192" r="9" fill="rgb(94,89,86)"/>
<circle cx="144" cy="192" r="12" fill="rgb(120,115,108)" opacity="0.35"/>
<circle cx="144" cy="192" r="9" fill="rgb(120,115,108)"/>
<circle cx="168" cy="192" r="12" fill="rgb(77,69,69)" opacity="0.35"/>
<circle cx="168" cy="192" r="9" fill="rgb(77,69,69)"/>
<circle cx="192" cy="192" r="12" fill="rgb(81,79,81)" opacity="0.35"/>
<circle cx="192" cy="192" r="9" fill="rgb(81,79,81)"/>
<circle cx="216" cy="192" r="12" fill="rgb(100,93,98)" opacity="0.35"/>
<circle cx="216" cy="192" r="9" fill="rgb(100,93,98)"/>
<circle cx="240" cy="192" r="12" fill="rgb(109,109,109)" opacity="0.35"/>
<circle cx="240" cy="192" r="9" fill="rgb(109,109,109)"/>
<circle cx="264" cy="192" r="12" fill="rgb(109,109,109)" opacity="0.35"/>
<circle cx="264" cy="192" r="9" fill="rgb(109,109,109)"/>
<circle cx="288" cy="192" r="12" fill="rgb(109,109,109)" opacity="0.35"/>
<circle cx="288" cy="192" r="9" fill="rgb(109,109,109)"/>
<circle cx="312" cy="192" r="12" fill="rgb(109,109,109)" opacity="0.35"/>
<circle cx="312" cy="192" r="9" fill="rgb(109,109,109)"/>
<circle cx="336" cy="192" r="12" fill="rgb(77,86,86)" opacity="0.35"/>
<circle cx="336" cy="192" r="9" fill="rgb(77,86,86)"/>
<circle cx="360" cy="192" r="12" fill="rgb(145,163,165)" opacity="0.35"/>
<circle cx="360" cy="192" r="9" fill="rgb(145,163,165)"/>
<circle cx="384" cy="192" r="12" fill="rgb(66,75,73)" opacity="0.35"/>
<circle cx="384" cy="192" r="9" fill="rgb(66,75,73)"/>
<circle cx="24" cy="216" r="12" fill="rgb(111,127,121)" opacity="0.35"/>
<circle cx="24" cy="216" r="9" fill="rgb(111,127,121)"/>
<circle cx="48" cy="216" r="12" fill="rgb(177,188,188)" opacity="0.35"/>
<circle cx="48" cy="216" r="9" fill="rgb(177,188,188)"/>
<circle cx="72" cy="216" r="12" fill="rgb(71,89,83)" opacity="0.35"/>
<circle cx="72" cy="216" r="9" fill="rgb(71,89,83)"/>
<circle cx="96" cy="216" r="12" fill="rgb(24,28,31)" opacity="0.35"/>
<circle cx="96" cy="216" r="9" fill="rgb(24,28,31)"/>
<circle cx="120" cy="216" r="12" fill="rgb(50,58,63)" opacity="0.35"/>
<circle cx="120" cy="216" r="9" fill="rgb(50,58,63)"/>
<circle cx="144" cy="216" r="12" fill="rgb(30,33,36)" opacity="0.35"/>
<circle cx="144" cy="216" r="9" fill="rgb(30,33,36)"/>
<circle cx="168" cy="216" r="12" fill="rgb(74,75,77)" opacity="0.35"/>
<circle cx="168" cy="216" r="9" fill="rgb(74,75,77)"/>
<circle cx="192" cy="216" r="12" fill="rgb(109,109,109)" opacity="0.35"/>
<circle cx="192" cy="216" r="9" fill="rgb(109,109,109)"/>
<circle cx="216" cy="216" r="12" fill="rgb(134,135,129)" opacity="0.35"/>
<circle cx="216" cy="216" r="9" fill="rgb(134,135,129)"/>
<circle cx="240" cy="216" r="12" fill="rgb(175,177,160)" opacity="0.35"/>
<circle cx="240" cy="216" r="9" fill="rgb(175,177,160)"/>
<circle cx="264" cy="216" r="12" fill="rgb(134,135,129)" opacity="0.35"/>
<circle cx="264" cy="216" r="9" fill="rgb(134,135,129)"/>
<circle cx="288" cy="216" r="12" fill="rgb(109,109,109)" opacity="0.35"/>
<circle cx="288" cy="216" r="9" fill="rgb(109,109,109)"/>
<circle cx="312" cy="216" r="12" fill="rgb(87,88,83)" opacity="0.35"/>
<circle cx="312" cy="216" r="9" fill="rgb(87,88,83)"/>
<circle cx="336" cy="216" r="12" fill="rgb(92,100,103)" opacity="0.35"/>
<circle cx="336" cy="216" r="9" fill="rgb(92,100,103)"/>
<circle cx="360" cy="216" r="12" fill="rgb(130,161,167)" opacity="0.35"/>
<circle cx="360" cy="216" r="9" fill="rgb(130,161,167)"/>
<circle cx="384" cy="216" r="12" fill="rgb(60,74,75)" opacity="0.35"/>
<circle cx="384" cy="216" r="9" fill="rgb(60,74,75)"/>
<circle cx="24" cy="240" r="12" fill="rgb(81,88,86)" opacity="0.35"/>
<circle cx="24" cy="240" r="9" fill="rgb(81,88,86)"/>
<circle cx="48" cy="240" r="12" fill="rgb(131,146,146)" opacity="0.35"/>
<circle cx="48" cy="240" r="9" fill="rgb(131,146,146)"/>
<circle cx="72" cy="240" r="12" fill="rgb(131,137,148)" opacity="0.35"/>
<circle cx="72" cy="240" r="9" fill="rgb(131,137,148)"/>
<circle cx="96" cy="240" r="12" fill="rgb(54,55,61)" opacity="0.35"/>
<circle cx="96" cy="240" r="9" fill="rgb(54,55,61)"/>
<circle cx="120" cy="240" r="12" fill="rgb(22,24,25)" opacity="0.35"/>
<circle cx="120" cy="240" r="9" fill="rgb(22,24,25)"/>
<circle cx="144" cy="240" r="12" fill="rgb(19,21,21)" opacity="0.35"/>
<circle cx="144" cy="240" r="9" fill="rgb(19,21,21)"/>
<circle cx="168" cy="240" r="12" fill="rgb(90,93,100)" opacity="0.35"/>
<circle cx="168" cy="240" r="9" fill="rgb(90,93,100)"/>
<circle cx="192" cy="240" r="12" fill="rgb(109,109,109)" opacity="0.35"/>
<circle cx="192" cy="240" r="9" fill="rgb(109,109,109)"/>
<circle cx="216" cy="240" r="12" fill="rgb(175,177,160)" opacity="0.35"/>
<circle cx="216" cy="240" r="9" fill="rgb(175,177,160)"/>
<circle cx="240" cy="240" r="12" fill="rgb(188,188,188)" opacity="0.35"/>
<circle cx="240" cy="240" r="9" fill="rgb(188,188,188)"/>
<circle cx="264" cy="240" r="12" fill="rgb(188,188,188)" opacity="0.35"/>
<circle cx="264" cy="240" r="9" fill="rgb(188,188,188)"/>
<circle cx="288" cy="240" r="12" fill="rgb(148,141,149)" opacity="0.35"/>
<circle cx="288" cy="240" r="9" fill="rgb(148,141,149)"/>
<circle cx="312" cy="240" r="12" fill="rgb(131,134,127)" opacity="0.35"/>
<circle cx="312" cy="240" r="9" fill="rgb(131,134,127)"/>
<circle cx="336" cy="240" r="12" fill="rgb(97,106,103)" opacity="0.35"/>
<circle cx="336" cy="240" r="9" fill="rgb(97,106,103)"/>
<circle cx="360" cy="240" r="12" fill="rgb(73,81,83)" opacity="0.35"/>
<circle cx="360" cy="240" r="9" fill="rgb(73,81,83)"/>
<circle cx="384" cy="240" r="12" fill="rgb(27,32,31)" opacity="0.35"/>
<circle cx="384" cy="240" r="9" fill="rgb(27,32,31)"/>
<circle cx="24" cy="264" r="12" fill="rgb(51,58,61)" opacity="0.35"/>
<circle cx="24" cy="264" r="9" fill="rgb(51,58,61)"/>
<circle cx="48" cy="264" r="12" fill="rgb(148,157,168)" opacity="0.35"/>
<circle cx="48" cy="264" r="9" fill="rgb(148,157,168)"/>
<circle cx="72" cy="264" r="12" fill="rgb(188,188,188)" opacity="0.35"/>
<circle cx="72" cy="264" r="9" fill="rgb(188,188,188)"/>
<circle cx="96" cy="264" r="12" fill="rgb(112,110,129)" opacity="0.35"/>
<circle cx="96" cy="264" r="9" fill="rgb(112,110,129)"/>
<circle cx="120" cy="264" r="12" fill="rgb(59,57,52)" opacity="0.35"/>
<circle cx="120" cy="264" r="9" fill="rgb(59,57,52)"/>
<circle cx="144" cy="264" r="12" fill="rgb(95,89,78)" opacity="0.35"/>
<circle cx="144" cy="264" r="9" fill="rgb(95,89,78)"/>
<circle cx="168" cy="264" r="12" fill="rgb(79,75,73)" opacity="0.35"/>
<circle cx="168" cy="264" r="9" fill="rgb(79,75,73)"/>
<circle cx="192" cy="264" r="12" fill="rgb(84,83,87)" opacity="0.35"/>
<circle cx="192" cy="264" r="9" fill="rgb(84,83,87)"/>
<circle cx="216" cy="264" r="12" fill="rgb(101,104,101)" opacity="0.35"/>
<circle cx="216" cy="264" r="9" fill="rgb(101,104,101)"/>
<circle cx="240" cy="264" r="12" fill="rgb(175,177,160)" opacity="0.35"/>
<circle cx="240" cy="264" r="9" fill="rgb(175,177,160)"/>
<circle cx="264" cy="264" r="12" fill="rgb(172,173,175)" opacity="0.35"/>
<circle cx="264" cy="264" r="9" fill="rgb(172,173,175)"/>
<circle cx="288" cy="264" r="12" fill="rgb(188,188,188)" opacity="0.35"/>
<circle cx="288" cy="264" r="9" fill="rgb(188,188,188)"/>
<circle cx="312" cy="264" r="12" fill="rgb(188,188,188)" opacity="0.35"/>
<circle cx="312" cy="264" r="9" fill="rgb(188,188,188)"/>
<circle cx="336" cy="264" r="12" fill="rgb(157,165,146)" opacity="0.35"/>
<circle cx="336" cy="264" r="9" fill="rgb(157,165,146)"/>
<circle cx="360" cy="264" r="12" fill="rgb(171,165,136)" opacity="0.35"/>
<circle cx="360" cy="264" r="9" fill="rgb(171,165,136)"/>
<circle cx="384" cy="264" r="12" fill="rgb(124,133,111)" opacity="0.35"/>
<circle cx="384" cy="264" r="9" fill="rgb(124,133,111)"/>
<circle cx="24" cy="288" r="12" fill="rgb(70,76,69)" opacity="0.35"/>
<circle cx="24" cy="288" r="9" fill="rgb(70,76,69)"/>
<circle cx="48" cy="288" r="12" fill="rgb(147,146,157)" opacity="0.35"/>
<circle cx="48" cy="288" r="9" fill="rgb(147,146,157)"/>
<circle cx="72" cy="288" r="12" fill="rgb(188,188,188)" opacity="0.35"/>
<circle cx="72" cy="288" r="9" fill="rgb(188,188,188)"/>
<circle cx="96" cy="288" r="12" fill="rgb(188,188,188)" opacity="0.35"/>
<circle cx="96" cy="288" r="9" fill="rgb(188,188,188)"/>
<circle cx="120" cy="288" r="12" fill="rgb(137,137,122)" opacity="0.35"/>
<circle cx="120" cy="288" r="9" fill="rgb(137,137,122)"/>
<circle cx="144" cy="288" r="12" fill="rgb(174,160,133)" opacity="0.35"/>
<circle cx="144" cy="288" r="9" fill="rgb(174,160,133)"/>
<circle cx="168" cy="288" r="12" fill="rgb(95,89,78)" opacity="0.35"/>
<circle cx="168" cy="288" r="9" fill="rgb(95,89,78)"/>
<circle cx="192" cy="288" r="12" fill="rgb(69,76,66)" opacity="0.35"/>
<circle cx="192" cy="288" r="9" fill="rgb(69,76,66)"/>
<circle cx="216" cy="288" r="12" fill="rgb(129,150,137)" opacity="0.35"/>
<circle cx="216" cy="288" r="9" fill="rgb(129,150,137)"/>
<circle cx="240" cy="288" r="12" fill="rgb(131,139,134)" opacity="0.35"/>
<circle cx="240" cy="288" r="9" fill="rgb(131,139,134)"/>
<circle cx="264" cy="288" r="12" fill="rgb(124,129,133)" opacity="0.35"/>
<circle cx="264" cy="288" r="9" fill="rgb(124,129,133)"/>
<circle cx="288" cy="288" r="12" fill="rgb(167,174,177)" opacity="0.35"/>
<circle cx="288" cy="288" r="9" fill="rgb(167,174,177)"/>
<circle cx="312" cy="288" r="12" fill="rgb(145,163,154)" opacity="0.35"/>
<circle cx="312" cy="288" r="9" fill="rgb(145,163,154)"/>
<circle cx="336" cy="288" r="12" fill="rgb(188,188,188)" opacity="0.35"/>
<circle cx="336" cy="288" r="9" fill="rgb(188,188,188)"/>
<circle cx="360" cy="288" r="12" fill="rgb(188,188,188)" opacity="0.35"/>
<circle cx="360" cy="288" r="9" fill="rgb(188,188,188)"/>
<circle cx="384" cy="288" r="12" fill="rgb(188,188,188)" opacity="0.35"/>
<circle cx="384" cy="288" r="9" fill="rgb(188,188,188)"/>
<circle cx="24" cy="312" r="12" fill="rgb(84,86,77)" opacity="0.35"/>
<circle cx="24" cy="312" r="9" fill="rgb(84,86,77)"/>
<circle cx="48" cy="312" r="12" fill="rgb(154,156,168)" opacity="0.35"/>
<circle cx="48" cy="312" r="9" fill="rgb(154,156,168)"/>
<circle cx="72" cy="312" r="12" fill="rgb(188,188,188)" opacity="0.35"/>
<circle cx="72" cy="312" r="9" fill="rgb(188,188,188)"/>
<circle cx="96" cy="312" r="12" fill="rgb(188,188,188)" opacity="0.35"/>
<circle cx="96" cy="312" r="9" fill="rgb(188,188,188)"/>
<circle cx="120" cy="312" r="12" fill="rgb(172,182,168)" opacity="0.35"/>
<circle cx="120" cy="312" r="9" fill="rgb(172,182,168)"/>
<circle cx="144" cy="312" r="12" fill="rgb(95,89,78)" opacity="0.35"/>
<circle cx="144" cy="312" r="9" fill="rgb(95,89,78)"/>
<circle cx="168" cy="312" r="12" fill="rgb(89,79,83)" opacity="0.35"/>
<circle cx="168" cy="312" r="9" fill="rgb(89,79,83)"/>
<circle cx="192" cy="312" r="12" fill="rgb(188,188,188)" opacity="0.35"/>
<circle cx="192" cy="312" r="9" fill="rgb(188,188,188)"/>
<circle cx="216" cy="312" r="12" fill="rgb(188,188,188)" opacity="0.35"/>
<circle cx="216" cy="312" r="9" fill="rgb(188,188,188)"/>
<circle cx="240" cy="312" r="12" fill="rgb(188,188,188)" opacity="0.35"/>
<circle cx="240" cy="312" r="9" fill="rgb(188,188,188)"/>
<circle cx="264" cy="312" r="12" fill="rgb(109,109,109)" opacity="0.35"/>
<circle cx="264" cy="312" r="9" fill="rgb(109,109,109)"/>
<circle cx="288" cy="312" r="12" fill="rgb(109,109,109)" opacity="0.35"/>
<circle cx="288" cy="312" r="9" fill="rgb(109,109,109)"/>
<circle cx="312" cy="312" r="12" fill="rgb(109,109,109)" opacity="0.35"/>
<circle cx="312" cy="312" r="9" fill="rgb(109,109,109)"/>
<circle cx="336" cy="312" r="12" fill="rgb(188,188,188)" opacity="0.35"/>
<circle cx="336" cy="312" r="9" fill="rgb(188,188,188)"/>
<circle cx="360" cy="312" r="12" fill="rgb(188,188,188)" opacity="0.35"/>
<circle cx="360" cy="312" r="9" fill="rgb(188,188,188)"/>
<circle cx="384" cy="312" r="12" fill="rgb(188,188,186)" opacity="0.35"/>
<circle cx="384" cy="312" r="9" fill="rgb(188,188,186)"/>
<circle cx="24" cy="336" r="12" fill="rgb(147,142,121)" opacity="0.35"/>
<circle cx="24" cy="336" r="9" fill="rgb(147,142,121)"/>
<circle cx="48" cy="336" r="12" fill="rgb(157,157,150)" opacity="0.35"/>
<circle cx="48" cy="336" r="9" fill="rgb(157,157,150)"/>
<circle cx="72" cy="336" r="12" fill="rgb(176,178,174)" opacity="0.35"/>
<circle cx="72" cy="336" r="9" fill="rgb(176,178,174)"/>
<circle cx="96" cy="336" r="12" fill="rgb(165,179,168)" opacity="0.35"/>
<circle cx="96" cy="336" r="9" fill="rgb(165,179,168)"/>
<circle cx="120" cy="336" r="12" fill="rgb(55,61,58)" opacity="0.35"/>
<circle cx="120" cy="336" r="9" fill="rgb(55,61,58)"/>
<circle cx="144" cy="336" r="12" fill="rgb(48,52,50)" opacity="0.35"/>
<circle cx="144" cy="336" r="9" fill="rgb(48,52,50)"/>
<circle cx="168" cy="336" r="12" fill="rgb(146,135,151)" opacity="0.35"/>
<circle cx="168" cy="336" r="9" fill="rgb(146,135,151)"/>
<circle cx="192" cy="336" r="12" fill="rgb(188,188,188)" opacity="0.35"/>
<circle cx="192" cy="336" r="9" fill="rgb(188,188,188)"/>
<circle cx="216" cy="336" r="12" fill="rgb(188,188,188)" opacity="0.35"/>
<circle cx="216" cy="336" r="9" fill="rgb(188,188,188)"/>
<circle cx="240" cy="336" r="12" fill="rgb(181,179,164)" opacity="0.35"/>
<circle cx="240" cy="336" r="9" fill="rgb(181,179,164)"/>
<circle cx="264" cy="336" r="12" fill="rgb(126,127,131)" opacity="0.35"/>
<circle cx="264" cy="336" r="9" fill="rgb(126,127,131)"/>
<circle cx="288" cy="336" r="12" fill="rgb(152,157,167)" opacity="0.35"/>
<circle cx="288" cy="336" r="9" fill="rgb(152,157,167)"/>
<circle cx="312" cy="336" r="12" fill="rgb(126,127,131)" opacity="0.35"/>
<circle cx="312" cy="336" r="9" fill="rgb(126,127,131)"/>
<circle cx="336" cy="336" r="12" fill="rgb(121,117,130)" opacity="0.35"/>
<circle cx="336" cy="336" r="9" fill="rgb(121,117,130)"/>
<circle cx="360" cy="336" r="12" fill="rgb(131,134,142)" opacity="0.35"/>
<circle cx="360" cy="336" r="9" fill="rgb(131,134,142)"/>
<circle cx="384" cy="336" r="12" fill="rgb(45,43,47)" opacity="0.35"/>
<circle cx="384" cy="336" r="9" fill="rgb(45,43,47)"/>
<circle cx="24" cy="360" r="12" fill="rgb(188,188,188)" opacity="0.35"/>
<circle cx="24" cy="360" r="9" fill="rgb(188,188,188)"/>
<circle cx="48" cy="360" r="12" fill="rgb(188,188,188)" opacity="0.35"/>
<circle cx="48" cy="360" r="9" fill="rgb(188,188,188)"/>
<circle cx="72" cy="360" r="12" fill="rgb(157,161,173)" opacity="0.35"/>
<circle cx="72" cy="360" r="9" fill="rgb(157,161,173)"/>
<circle cx="96" cy="360" r="12" fill="rgb(100,103,95)" opacity="0.35"/>
<circle cx="96" cy="360" r="9" fill="rgb(100,103,95)"/>
<circle cx="120" cy="360" r="12" fill="rgb(98,100,88)" opacity="0.35"/>
<circle cx="120" cy="360" r="9" fill="rgb(98,100,88)"/>
<circle cx="144" cy="360" r="12" fill="rgb(109,109,109)" opacity="0.35"/>
<circle cx="144" cy="360" r="9" fill="rgb(109,109,109)"/>
<circle cx="168" cy="360" r="12" fill="rgb(138,131,140)" opacity="0.35"/>
<circle cx="168" cy="360" r="9" fill="rgb(138,131,140)"/>
<circle cx="192" cy="360" r="12" fill="rgb(188,184,188)" opacity="0.35"/>
<circle cx="192" cy="360" r="9" fill="rgb(188,184,188)"/>
<circle cx="216" cy="360" r="12" fill="rgb(172,154,152)" opacity="0.35"/>
<circle cx="216" cy="360" r="9" fill="rgb(172,154,152)"/>
<circle cx="240" cy="360" r="12" fill="rgb(94,89,79)" opacity="0.35"/>
<circle cx="240" cy="360" r="9" fill="rgb(94,89,79)"/>
<circle cx="264" cy="360" r="12" fill="rgb(112,120,131)" opacity="0.35"/>
<circle cx="264" cy="360" r="9" fill="rgb(112,120,131)"/>
<circle cx="288" cy="360" r="12" fill="rgb(183,188,188)" opacity="0.35"/>
<circle cx="288" cy="360" r="9" fill="rgb(183,188,188)"/>
<circle cx="312" cy="360" r="12" fill="rgb(111,110,131)" opacity="0.35"/>
<circle cx="312" cy="360" r="9" fill="rgb(111,110,131)"/>
<circle cx="336" cy="360" r="12" fill="rgb(128,115,123)" opacity="0.35"/>
<circle cx="336" cy="360" r="9" fill="rgb(128,115,123)"/>
<circle cx="360" cy="360" r="12" fill="rgb(185,166,185)" opacity="0.35"/>
<circle cx="360" cy="360" r="9" fill="rgb(185,166,185)"/>
<circle cx="384" cy="360" r="12" fill="rgb(91,82,90)" opacity="0.35"/>
<circle cx="384" cy="360" r="9" fill="rgb(91,82,90)"/>
<circle cx="24" cy="384" r="12" fill="rgb(128,123,104)" opacity="0.35"/>
<circle cx="24" cy="384" r="9" fill="rgb(128,123,104)"/>
<circle cx="48" cy="384" r="12" fill="rgb(175,168,167)" opacity="0.35"/>
<circle cx="48" cy="384" r="9" fill="rgb(175,168,167)"/>
<circle cx="72" cy="384" r="12" fill="rgb(188,188,188)" opacity="0.35"/>
<circle cx="72" cy="384" r="9" fill="rgb(188,188,188)"/>
<circle cx="96" cy="384" r="12" fill="rgb(148,153,150)" opacity="0.35"/>
<circle cx="96" cy="384" r="9" fill="rgb(148,153,150)"/>
<circle cx="120" cy="384" r="12" fill="rgb(109,109,109)" opacity="0.35"/>
<circle cx="120" cy="384" r="9" fill="rgb(109,109,109)"/>
<circle cx="144" cy="384" r="12" fill="rgb(103,109,96)" opacity="0.35"/>
<circle cx="144" cy="384" r="9" fill="rgb(103,109,96)"/>
<circle cx="168" cy="384" r="12" fill="rgb(63,78,78)" opacity="0.35"/>
<circle cx="168" cy="384" r="9" fill="rgb(63,78,78)"/>
<circle cx="192" cy="384" r="12" fill="rgb(72,77,77)" opacity="0.35"/>
<circle cx="192" cy="384" r="9" fill="rgb(72,77,77)"/>
<circle cx="216" cy="384" r="12" fill="rgb(46,49,47)" opacity="0.35"/>
<circle cx="216" cy="384" r="9" fill="rgb(46,49,47)"/>
<circle cx="240" cy="384" r="12" fill="rgb(36,38,41)" opacity="0.35"/>
<circle cx="240" cy="384" r="9" fill="rgb(36,38,41)"/>
<circle cx="264" cy="384" r="12" fill="rgb(75,81,86)" opacity="0.35"/>
<circle cx="264" cy="384" r="9" fill="rgb(75,81,86)"/>
<circle cx="288" cy="384" r="12" fill="rgb(71,78,90)" opacity="0.35"/>
<circle cx="288" cy="384" r="9" fill="rgb(71,78,90)"/>
<circle cx="312" cy="384" r="12" fill="rgb(18,21,24)" opacity="0.35"/>
<circle cx="312" cy="384" r="9" fill="rgb(18,21,24)"/>
<circle cx="336" cy="384" r="12" fill="rgb(160,137,154)" opacity="0.35"/>
<circle cx="336" cy="384" r="9" fill="rgb(160,137,154)"/>
<circle cx="360" cy="384" r="12" fill="rgb(188,188,188)" opacity="0.35"/>
<circle cx="360" cy="384" r="9" fill="rgb(188,188,188)"/>
<circle cx="384" cy="384" r="12" fill="rgb(179,156,175)" opacity="0.35"/>
<circle cx="384" cy="384" r="9" fill="rgb(179,156,175)"/>
</svg>
