<svg xmlns="http://www.w3.org/2000/svg" viewBox="0 0 408 408" width="408" height="408" role="img" aria-label="LED preview of the Turbulent Bloom example graph">
<rect width="408" height="408" rx="10" fill="#05070a"/>
<circle cx="24" cy="24" r="9" fill="#14171c"/>
<circle cx="48" cy="24" r="12" fill="rgb(0,23,25)" opacity="0.35"/>
<circle cx="48" cy="24" r="9" fill="rgb(0,23,25)"/>
<circle cx="72" cy="24" r="9" fill="#14171c"/>
<circle cx="96" cy="24" r="9" fill="#14171c"/>
<circle cx="120" cy="24" r="9" fill="#14171c"/>
<circle cx="144" cy="24" r="9" fill="#14171c"/>
<circle cx="168" cy="24" r="9" fill="#14171c"/>
<circle cx="192" cy="24" r="9" fill="#14171c"/>
<circle cx="216" cy="24" r="9" fill="#14171c"/>
<circle cx="240" cy="24" r="9" fill="#14171c"/>
<circle cx="264" cy="24" r="9" fill="#14171c"/>
<circle cx="288" cy="24" r="9" fill="#14171c"/>
<circle cx="312" cy="24" r="9" fill="#14171c"/>
<circle cx="336" cy="24" r="12" fill="rgb(0,17,9)" opacity="0.35"/>
<circle cx="336" cy="24" r="9" fill="rgb(0,17,9)"/>
<circle cx="360" cy="24" r="12" fill="rgb(0,31,30)" opacity="0.35"/>
<circle cx="360" cy="24" r="9" fill="rgb(0,31,30)"/>
<circle cx="384" cy="24" r="12" fill="rgb(0,35,43)" opacity="0.35"/>
<circle cx="384" cy="24" r="9" fill="rgb(0,35,43)"/>
<circle cx="24" cy="48" r="9" fill="#14171c"/>
<circle cx="48" cy="48" r="9" fill="#14171c"/>
<circle cx="72" cy="48" r="9" fill="#14171c"/>
<circle cx="96" cy="48" r="9" fill="#14171c"/>
<circle cx="120" cy="48" r="9" fill="#14171c"/>
<circle cx="144" cy="48" r="9" fill="#14171c"/>
<circle cx="168" cy="48" r="9" fill="#14171c"/>
<circle cx="192" cy="48" r="9" fill="#14171c"/>
<circle cx="216" cy="48" r="9" fill="#14171c"/>
<circle cx="240" cy="48" r="9" fill="#14171c"/>
<circle cx="264" cy="48" r="9" fill="#14171c"/>
<circle cx="288" cy="48" r="9" fill="#14171c"/>
<circle cx="312" cy="48" r="9" fill="#14171c"/>
<circle cx="336" cy="48" r="9" fill="#14171c"/>
<circle cx="360" cy="48" r="12" fill="rgb(0,21,14)" opacity="0.35"/>
<circle cx="360" cy="48" r="9" fill="rgb(0,21,14)"/>
<circle cx="384" cy="48" r="12" fill="rgb(0,29,31)" opacity="0.35"/>
<circle cx="384" cy="48" r="9" fill="rgb(0,29,31)"/>
<circle cx="24" cy="72" r="9" fill="#14171c"/>
<circle cx="48" cy="72" r="9" fill="#14171c"/>
<circle cx="72" cy="72" r="9" fill="#14171c"/>
<circle cx="96" cy="72" r="9" fill="#14171c"/>
<circle cx="120" cy="72" r="9" fill="#14171c"/>
<circle cx="144" cy="72" r="9" fill="#14171c"/>
<circle cx="168" cy="72" r="9" fill="#14171c"/>
<circle cx="192" cy="72" r="9" fill="#14171c"/>
<circle cx="216" cy="72" r="9" fill="#14171c"/>
<circle cx="240" cy="72" r="9" fill="#14171c"/>
<circle cx="264" cy="72" r="9" fill="#14171c"/>
<circle cx="288" cy="72" r="9" fill="#14171c"/>
<circle cx="312" cy="72" r="9" fill="#14171c"/>
<circle cx="336" cy="72" r="9" fill="#14171c"/>
<circle cx="360" cy="72" r="12" fill="rgb(0,23,16)" opacity="0.35"/>
<circle cx="360" cy="72" r="9" fill="rgb(0,23,16)"/>
<circle cx="384" cy="72" r="12" fill="rgb(0,25,20)" opacity="0.35"/>
<circle cx="384" cy="72" r="9" fill="rgb(0,25,20)"/>
<circle cx="24" cy="96" r="9" fill="#14171c"/>
<circle cx="48" cy="96" r="9" fill="#14171c"/>
<circle cx="72" cy="96" r="9" fill="#14171c"/>
<circle cx="96" cy="96" r="9" fill="#14171c"/>
<circle cx="120" cy="96" r="9" fill="#14171c"/>
<circle cx="144" cy="96" r="12" fill="rgb(40,18,0)" opacity="0.35"/>
<circle cx="144" cy="96" r="9" fill="rgb(40,18,0)"/>
<circle cx="168" cy="96" r="9" fill="#14171c"/>
<circle cx="192" cy="96" r="12" fill="rgb(30,18,0)" opacity="0.35"/>
<circle cx="192" cy="96" r="9" fill="rgb(30,18,0)"/>
<circle cx="216" cy="96" r="9" fill="#14171c"/>
<circle cx="240" cy="96" r="9" fill="#14171c"/>
<circle cx="264" cy="96" r="9" fill="#14171c"/>
<circle cx="288" cy="96" r="9" fill="#14171c"/>
<circle cx="312" cy="96" r="9" fill="#14171c"/>
<circle cx="336" cy="96" r="9" fill="#14171c"/>
<circle cx="360" cy="96" r="9" fill="#14171c"/>
<circle cx="384" cy="96" r="12" fill="rgb(0,17,9)" opacity="0.35"/>
<circle cx="384" cy="96" r="9" fill="rgb(0,17,9)"/>
<circle cx="24" cy="120" r="9" fill="#14171c"/>
<circle cx="48" cy="120" r="9" fill="#14171c"/>
<circle cx="72" cy="120" r="9" fill="#14171c"/>
<circle cx="96" cy="120" r="9" fill="#14171c"/>
<circle cx="120" cy="120" r="9" fill="#14171c"/>
<circle cx="144" cy="120" r="12" fill="rgb(32,15,0)" opacity="0.35"/>
<circle cx="144" cy="120" r="9" fill="rgb(32,15,0)"/>
<circle cx="168" cy="120" r="9" fill="#14171c"/>
<circle cx="192" cy="120" r="9" fill="#14171c"/>
<circle cx="216" cy="120" r="9" fill="#14171c"/>
<circle cx="240" cy="120" r="9" fill="#14171c"/>
<circle cx="264" cy="120" r="12" fill="rgb(23,17,0)" opacity="0.35"/>
<circle cx="264" cy="120" r="9" fill="rgb(23,17,0)"/>
<circle cx="288" cy="120" r="12" fill="rgb(27,18,0)" opacity="0.35"/>
<circle cx="288" cy="120" r="9" fill="rgb(27,18,0)"/>
<circle cx="312" cy="120" r="12" fill="rgb(20,15,0)" opacity="0.35"/>
<circle cx="312" cy="120" r="9" fill="rgb(20,15,0)"/>
<circle cx="336" cy="120" r="9" fill="#14171c"/>
<circle cx="360" cy="120" r="9" fill="#14171c"/>
<circle cx="384" cy="120" r="9" fill="#14171c"/>
<circle cx="24" cy="144" r="9" fill="#14171c"/>
<circle cx="48" cy="144" r="9" fill="#14171c"/>
<circle cx="72" cy="144" r="9" fill="#14171c"/>
<circle cx="96" cy="144" r="9" fill="#14171c"/>
<circle cx="120" cy="144" r="9" fill="#14171c"/>
<circle cx="144" cy="144" r="12" fill="rgb(22,12,0)" opacity="0.35"/>
<circle cx="144" cy="144" r="9" fill="rgb(22,12,0)"/>
<circle cx="168" cy="144" r="9" fill="#14171c"/>
<circle cx="192" cy="144" r="12" fill="rgb(32,17,0)" opacity="0.35"/>
<circle cx="192" cy="144" r="9" fill="rgb(32,17,0)"/>
<circle cx="216" cy="144" r="12" fill="rgb(30,19,0)" opacity="0.35"/>
<circle cx="216" cy="144" r="9" fill="rgb(30,19,0)"/>
<circle cx="240" cy="144" r="9" fill="#14171c"/>
<circle cx="264" cy="144" r="12" fill="rgb(41,23,0)" opacity="0.35"/>
<circle cx="264" cy="144" r="9" fill="rgb(41,23,0)"/>
<circle cx="288" cy="144" r="12" fill="rgb(28,19,0)" opacity="0.35"/>
<circle cx="288" cy="144" r="9" fill="rgb(28,19,0)"/>
<circle cx="312" cy="144" r="9" fill="#14171c"/>
<circle cx="336" cy="144" r="12" fill="rgb(20,15,0)" opacity="0.35"/>
<circle cx="336" cy="144" r="9" fill="rgb(20,15,0)"/>
<circle cx="360" cy="144" r="9" fill="#14171c"/>
<circle cx="384" cy="144" r="9" fill="#14171c"/>
<circle cx="24" cy="168" r="9" fill="#14171c"/>
<circle cx="48" cy="168" r="9" fill="#14171c"/>
<circle cx="72" cy="168" r="9" fill="#14171c"/>
<circle cx="96" cy="168" r="9" fill="#14171c"/>
<circle cx="120" cy="168" r="9" fill="#14171c"/>
<circle cx="144" cy="168" r="12" fill="rgb(27,14,0)" opacity="0.35"/>
<circle cx="144" cy="168" r="9" fill="rgb(27,14,0)"/>
<circle cx="168" cy="168" r="12" fill="rgb(18,10,0)" opacity="0.35"/>
<circle cx="168" cy="168" r="9" fill="rgb(18,10,0)"/>
<circle cx="192" cy="168" r="12" fill="rgb(27,14,0)" opacity="0.35"/>
<circle cx="192" cy="168" r="9" fill="rgb(27,14,0)"/>
<circle cx="216" cy="168" r="12" fill="rgb(30,15,0)" opacity="0.35"/>
<circle cx="216" cy="168" r="9" fill="rgb(30,15,0)"/>
<circle cx="240" cy="168" r="9" fill="#14171c"/>
<circle cx="264" cy="168" r="12" fill="rgb(41,22,0)" opacity="0.35"/>
<circle cx="264" cy="168" r="9" fill="rgb(41,22,0)"/>
<circle cx="288" cy="168" r="12" fill="rgb(19,14,0)" opacity="0.35"/>
<circle cx="288" cy="168" r="9" fill="rgb(19,14,0)"/>
<circle cx="312" cy="168" r="12" fill="rgb(37,23,0)" opacity="0.35"/>
<circle cx="312" cy="168" r="9" fill="rgb(37,23,0)"/>
<circle cx="336" cy="168" r="12" fill="rgb(30,20,0)" opacity="0.35"/>
<circle cx="336" cy="168" r="9" fill="rgb(30,20,0)"/>
<circle cx="360" cy="168" r="9" fill="#14171c"/>
<circle cx="384" cy="168" r="9" fill="#14171c"/>
<circle cx="24" cy="192" r="9" fill="#14171c"/>
<circle cx="48" cy="192" r="9" fill="#14171c"/>
<circle cx="72" cy="192" r="9" fill="#14171c"/>
<circle cx="96" cy="192" r="9" fill="#14171c"/>
<circle cx="120" cy="192" r="9" fill="#14171c"/>
<circle cx="144" cy="192" r="9" fill="#14171c"/>
<circle cx="168" cy="192" r="9" fill="#14171c"/>
<circle cx="192" cy="192" r="9" fill="#14171c"/>
<circle cx="216" cy="192" r="12" fill="rgb(29,14,0)" opacity="0.35"/>
<circle cx="216" cy="192" r="9" fill="rgb(29,14,0)"/>
<circle cx="240" cy="192" r="12" fill="rgb(44,21,0)" opacity="0.35"/>
<circle cx="240" cy="192" r="9" fill="rgb(44,21,0)"/>
<circle cx="264" cy="192" r="12" fill="rgb(44,23,0)" opacity="0.35"/>
<circle cx="264" cy="192" r="9" fill="rgb(44,23,0)"/>
<circle cx="288" cy="192" r="12" fill="rgb(34,22,0)" opacity="0.35"/>
<circle cx="288" cy="192" r="9" fill="rgb(34,22,0)"/>
<circle cx="312" cy="192" r="12" fill="rgb(46,24,0)" opacity="0.35"/>
<circle cx="312" cy="192" r="9" fill="rgb(46,24,0)"/>
<circle cx="336" cy="192" r="12" fill="rgb(22,14,0)" opacity="0.35"/>
<circle cx="336" cy="192" r="9" fill="rgb(22,14,0)"/>
<circle cx="360" cy="192" r="9" fill="#14171c"/>
<circle cx="384" cy="192" r="9" fill="#14171c"/>
<circle cx="24" cy="216" r="9" fill="#14171c"/>
<circle cx="48" cy="216" r="9" fill="#14171c"/>
<circle cx="72" cy="216" r="9" fill="#14171c"/>
<circle cx="96" cy="216" r="9" fill="#14171c"/>
<circle cx="120" cy="216" r="9" fill="#14171c"/>
<circle cx="144" cy="216" r="9" fill="#14171c"/>
<circle cx="168" cy="216" r="12" fill="rgb(25,13,0)" opacity="0.35"/>
<circle cx="168" cy="216" r="9" fill="rgb(25,13,0)"/>
<circle cx="192" cy="216" r="12" fill="rgb(38,16,0)" opacity="0.35"/>
<circle cx="192" cy="216" r="9" fill="rgb(38,16,0)"/>
<circle cx="216" cy="216" r="12" fill="rgb(40,13,0)" opacity="0.35"/>
<circle cx="216" cy="216" r="9" fill="rgb(40,13,0)"/>
<circle cx="240" cy="216" r="12" fill="rgb(33,3,0)" opacity="0.35"/>
<circle cx="240" cy="216" r="9" fill="rgb(33,3,0)"/>
<circle cx="264" cy="216" r="12" fill="rgb(42,10,0)" opacity="0.35"/>
<circle cx="264" cy="216" r="9" fill="rgb(42,10,0)"/>
<circle cx="288" cy="216" r="12" fill="rgb(49,15,0)" opacity="0.35"/>
<circle cx="288" cy="216" r="9" fill="rgb(49,15,0)"/>
<circle cx="312" cy="216" r="12" fill="rgb(44,23,0)" opacity="0.35"/>
<circle cx="312" cy="216" r="9" fill="rgb(44,23,0)"/>
<circle cx="336" cy="216" r="12" fill="rgb(27,17,0)" opacity="0.35"/>
<circle cx="336" cy="216" r="9" fill="rgb(27,17,0)"/>
<circle cx="360" cy="216" r="9" fill="#14171c"/>
<circle cx="384" cy="216" r="9" fill="#14171c"/>
<circle cx="24" cy="240" r="9" fill="#14171c"/>
<circle cx="48" cy="240" r="9" fill="#14171c"/>
<circle cx="72" cy="240" r="9" fill="#14171c"/>
<circle cx="96" cy="240" r="9" fill="#14171c"/>
<circle cx="120" cy="240" r="12" fill="rgb(23,15,0)" opacity="0.35"/>
<circle cx="120" cy="240" r="9" fill="rgb(23,15,0)"/>
<circle cx="144" cy="240" r="9" fill="#14171c"/>
<circle cx="168" cy="240" r="12" fill="rgb(43,21,0)" opacity="0.35"/>
<circle cx="168" cy="240" r="9" fill="rgb(43,21,0)"/>
<circle cx="192" cy="240" r="12" fill="rgb(39,7,0)" opacity="0.35"/>
<circle cx="192" cy="240" r="9" fill="rgb(39,7,0)"/>
<circle cx="216" cy="240" r="12" fill="rgb(44,11,0)" opacity="0.35"/>
<circle cx="216" cy="240" r="9" fill="rgb(44,11,0)"/>
<circle cx="240" cy="240" r="12" fill="rgb(28,1,0)" opacity="0.35"/>
<circle cx="240" cy="240" r="9" fill="rgb(28,1,0)"/>
<circle cx="264" cy="240" r="12" fill="rgb(38,12,0)" opacity="0.35"/>
<circle cx="264" cy="240" r="9" fill="rgb(38,12,0)"/>
<circle cx="288" cy="240" r="12" fill="rgb(28,14,0)" opacity="0.35"/>
<circle cx="288" cy="240" r="9" fill="rgb(28,14,0)"/>
<circle cx="312" cy="240" r="9" fill="#14171c"/>
<circle cx="336" cy="240" r="12" fill="rgb(24,14,0)" opacity="0.35"/>
<circle cx="336" cy="240" r="9" fill="rgb(24,14,0)"/>
<circle cx="360" cy="240" r="9" fill="#14171c"/>
<circle cx="384" cy="240" r="9" fill="#14171c"/>
<circle cx="24" cy="264" r="9" fill="#14171c"/>
<circle cx="48" cy="264" r="9" fill="#14171c"/>
<circle cx="72" cy="264" r="9" fill="#14171c"/>
<circle cx="96" cy="264" r="12" fill="rgb(21,16,0)" opacity="0.35"/>
<circle cx="96" cy="264" r="9" fill="rgb(21,16,0)"/>
<circle cx="120" cy="264" r="12" fill="rgb(38,22,0)" opacity="0.35"/>
<circle cx="120" cy="264" r="9" fill="rgb(38,22,0)"/>
<circle cx="144" cy="264" r="12" fill="rgb(26,18,0)" opacity="0.35"/>
<circle cx="144" cy="264" r="9" fill="rgb(26,18,0)"/>
<circle cx="168" cy="264" r="12" fill="rgb(37,23,0)" opacity="0.35"/>
<circle cx="168" cy="264" r="9" fill="rgb(37,23,0)"/>
<circle cx="192" cy="264" r="12" fill="rgb(47,24,0)" opacity="0.35"/>
<circle cx="192" cy="264" r="9" fill="rgb(47,24,0)"/>
<circle cx="216" cy="264" r="12" fill="rgb(45,11,0)" opacity="0.35"/>
<circle cx="216" cy="264" r="9" fill="rgb(45,11,0)"/>
<circle cx="240" cy="264" r="12" fill="rgb(38,12,0)" opacity="0.35"/>
<circle cx="240" cy="264" r="9" fill="rgb(38,12,0)"/>
<circle cx="264" cy="264" r="12" fill="rgb(25,13,0)" opacity="0.35"/>
<circle cx="264" cy="264" r="9" fill="rgb(25,13,0)"/>
<circle cx="288" cy="264" r="12" fill="rgb(31,14,0)" opacity="0.35"/>
<circle cx="288" cy="264" r="9" fill="rgb(31,14,0)"/>
<circle cx="312" cy="264" r="12" fill="rgb(22,12,0)" opacity="0.35"/>
<circle cx="312" cy="264" r="9" fill="rgb(22,12,0)"/>
<circle cx="336" cy="264" r="9" fill="#14171c"/>
<circle cx="360" cy="264" r="9" fill="#14171c"/>
<circle cx="384" cy="264" r="9" fill="#14171c"/>
<circle cx="24" cy="288" r="9" fill="#14171c"/>
<circle cx="48" cy="288" r="9" fill="#14171c"/>
<circle cx="72" cy="288" r="9" fill="#14171c"/>
<circle cx="96" cy="288" r="9" fill="#14171c"/>
<circle cx="120" cy="288" r="9" fill="#14171c"/>
<circle cx="144" cy="288" r="12" fill="rgb(32,21,0)" opacity="0.35"/>
<circle cx="144" cy="288" r="9" fill="rgb(32,21,0)"/>
<circle cx="168" cy="288" r="9" fill="#14171c"/>
<circle cx="192" cy="288" r="12" fill="rgb(17,12,0)" opacity="0.35"/>
<circle cx="192" cy="288" r="9" fill="rgb(17,12,0)"/>
<circle cx="216" cy="288" r="12" fill="rgb(27,16,0)" opacity="0.35"/>
<circle cx="216" cy="288" r="9" fill="rgb(27,16,0)"/>
<circle cx="240" cy="288" r="9" fill="#14171c"/>
<circle cx="264" cy="288" r="9" fill="#14171c"/>
<circle cx="288" cy="288" r="9" fill="#14171c"/>
<circle cx="312" cy="288" r="9" fill="#14171c"/>
<circle cx="336" cy="288" r="9" fill="#14171c"/>
<circle cx="360" cy="288" r="9" fill="#14171c"/>
<circle cx="384" cy="288" r="9" fill="#14171c"/>
<circle cx="24" cy="312" r="12" fill="rgb(0,21,15)" opacity="0.35"/>
<circle cx="24" cy="312" r="9" fill="rgb(0,21,15)"/>
<circle cx="48" cy="312" r="9" fill="#14171c"/>
<circle cx="72" cy="312" r="9" fill="#14171c"/>
<circle cx="96" cy="312" r="9" fill="#14171c"/>
<circle cx="120" cy="312" r="9" fill="#14171c"/>
<circle cx="144" cy="312" r="9" fill="#14171c"/>
<circle cx="168" cy="312" r="9" fill="#14171c"/>
<circle cx="192" cy="312" r="9" fill="#14171c"/>
<circle cx="216" cy="312" r="9" fill="#14171c"/>
<circle cx="240" cy="312" r="9" fill="#14171c"/>
<circle cx="264" cy="312" r="9" fill="#14171c"/>
<circle cx="288" cy="312" r="9" fill="#14171c"/>
<circle cx="312" cy="312" r="9" fill="#14171c"/>
<circle cx="336" cy="312" r="9" fill="#14171c"/>
<circle cx="360" cy="312" r="9" fill="#14171c"/>
<circle cx="384" cy="312" r="9" fill="#14171c"/>
<circle cx="24" cy="336" r="12" fill="rgb(0,31,30)" opacity="0.35"/>
<circle cx="24" cy="336" r="9" fill="rgb(0,31,30)"/>
<circle cx="48" cy="336" r="12" fill="rgb(0,28,31)" opacity="0.35"/>
<circle cx="48" cy="336" r="9" fill="rgb(0,28,31)"/>
<circle cx="72" cy="336" r="9" fill="#14171c"/>
<circle cx="96" cy="336" r="9" fill="#14171c"/>
<circle cx="120" cy="336" r="9" fill="#14171c"/>
<circle cx="144" cy="336" r="9" fill="#14171c"/>
<circle cx="168" cy="336" r="9" fill="#14171c"/>
<circle cx="192" cy="336" r="9" fill="#14171c"/>
<circle cx="216" cy="336" r="9" fill="#14171c"/>
<circle cx="240" cy="336" r="9" fill="#14171c"/>
<circle cx="264" cy="336" r="9" fill="#14171c"/>
<circle cx="288" cy="336" r="9" fill="#14171c"/>
<circle cx="312" cy="336" r="9" fill="#14171c"/>
<circle cx="336" cy="336" r="9" fill="#14171c"/>
<circle cx="360" cy="336" r="9" fill="#14171c"/>
<circle cx="384" cy="336" r="9" fill="#14171c"/>
<circle cx="24" cy="360" r="12" fill="rgb(0,32,32)" opacity="0.35"/>
<circle cx="24" cy="360" r="9" fill="rgb(0,32,32)"/>
<circle cx="48" cy="360" r="12" fill="rgb(0,28,39)" opacity="0.35"/>
<circle cx="48" cy="360" r="9" fill="rgb(0,28,39)"/>
<circle cx="72" cy="360" r="12" fill="rgb(0,17,9)" opacity="0.35"/>
<circle cx="72" cy="360" r="9" fill="rgb(0,17,9)"/>
<circle cx="96" cy="360" r="9" fill="#14171c"/>
<circle cx="120" cy="360" r="9" fill="#14171c"/>
<circle cx="144" cy="360" r="9" fill="#14171c"/>
<circle cx="168" cy="360" r="9" fill="#14171c"/>
<circle cx="192" cy="360" r="9" fill="#14171c"/>
<circle cx="216" cy="360" r="9" fill="#14171c"/>
<circle cx="240" cy="360" r="9" fill="#14171c"/>
<circle cx="264" cy="360" r="12" fill="rgb(0,19,20)" opacity="0.35"/>
<circle cx="264" cy="360" r="9" fill="rgb(0,19,20)"/>
<circle cx="288" cy="360" r="9" fill="#14171c"/>
<circle cx="312" cy="360" r="12" fill="rgb(0,20,20)" opacity="0.35"/>
<circle cx="312" cy="360" r="9" fill="rgb(0,20,20)"/>
<circle cx="336" cy="360" r="12" fill="rgb(0,18,17)" opacity="0.35"/>
<circle cx="336" cy="360" r="9" fill="rgb(0,18,17)"/>
<circle cx="360" cy="360" r="12" fill="rgb(0,26,30)" opacity="0.35"/>
<circle cx="360" cy="360" r="9" fill="rgb(0,26,30)"/>
<circle cx="384" cy="360" r="12" fill="rgb(0,31,47)" opacity="0.35"/>
<circle cx="384" cy="360" r="9" fill="rgb(0,31,47)"/>
<circle cx="24" cy="384" r="12" fill="rgb(0,33,38)" opacity="0.35"/>
<circle cx="24" cy="384" r="9" fill="rgb(0,33,38)"/>
<circle cx="48" cy="384" r="12" fill="rgb(0,30,33)" opacity="0.35"/>
<circle cx="48" cy="384" r="9" fill="rgb(0,30,33)"/>
<circle cx="72" cy="384" r="12" fill="rgb(0,19,13)" opacity="0.35"/>
<circle cx="72" cy="384" r="9" fill="rgb(0,19,13)"/>
<circle cx="96" cy="384" r="9" fill="#14171c"/>
<circle cx="120" cy="384" r="9" fill="#14171c"/>
<circle cx="144" cy="384" r="9" fill="#14171c"/>
<circle cx="168" cy="384" r="9" fill="#14171c"/>
<circle cx="192" cy="384" r="9" fill="#14171c"/>
<circle cx="216" cy="384" r="9" fill="#14171c"/>
<circle cx="240" cy="384" r="9" fill="#14171c"/>
<circle cx="264" cy="384" r="12" fill="rgb(0,21,23)" opacity="0.35"/>
<circle cx="264" cy="384" r="9" fill="rgb(0,21,23)"/>
<circle cx="288" cy="384" r="12" fill="rgb(0,29,37)" opacity="0.35"/>
<circle cx="288" cy="384" r="9" fill="rgb(0,29,37)"/>
<circle cx="312" cy="384" r="12" fill="rgb(2,29,47)" opacity="0.35"/>
<circle cx="312" cy="384" r="9" fill="rgb(2,29,47)"/>
<circle cx="336" cy="384" r="12" fill="rgb(1,31,47)" opacity="0.35"/>
<circle cx="336" cy="384" r="9" fill="rgb(1,31,47)"/>
<circle cx="360" cy="384" r="12" fill="rgb(0,32,47)" opacity="0.35"/>
<circle cx="360" cy="384" r="9" fill="rgb(0,32,47)"/>
<circle cx="384" cy="384" r="12" fill="rgb(2,28,47)" opacity="0.35"/>
<circle cx="384" cy="384" r="9" fill="rgb(2,28,47)"/>
</svg>
