<svg xmlns="http://www.w3.org/2000/svg" viewBox="0 0 408 408" width="408" height="408" role="img" aria-label="LED preview of the Turbulent Bloom example graph">
<rect width="408" height="408" rx="10" fill="#05070a"/>
<circle cx="24" cy="24" r="12" fill="rgb(41,22,6)" opacity="0.35"/>
<circle cx="24" cy="24" r="9" fill="rgb(41,22,6)"/>
<circle cx="48" cy="24" r="12" fill="rgb(54,22,2)" opacity="0.35"/>
<circle cx="48" cy="24" r="9" fill="rgb(54,22,2)"/>
<circle cx="72" cy="24" r="12" fill="rgb(21,12,3)" opacity="0.35"/>
<circle cx="72" cy="24" r="9" fill="rgb(21,12,3)"/>
<circle cx="96" cy="24" r="12" fill="rgb(59,19,2)" opacity="0.35"/>
<circle cx="96" cy="24" r="9" fill="rgb(59,19,2)"/>
<circle cx="120" cy="24" r="9" fill="#14171c"/>
<circle cx="144" cy="24" r="9" fill="#14171c"/>
<circle cx="168" cy="24" r="12" fill="rgb(51,7,7)" opacity="0.35"/>
<circle cx="168" cy="24" r="9" fill="rgb(51,7,7)"/>
<circle cx="192" cy="24" r="9" fill="#14171c"/>
<circle cx="216" cy="24" r="12" fill="rgb(178,68,4)" opacity="0.35"/>
<circle cx="216" cy="24" r="9" fill="rgb(178,68,4)"/>
<circle cx="240" cy="24" r="12" fill="rgb(55,28,7)" opacity="0.35"/>
<circle cx="240" cy="24" r="9" fill="rgb(55,28,7)"/>
<circle cx="264" cy="24" r="9" fill="#14171c"/>
<circle cx="288" cy="24" r="9" fill="#14171c"/>
<circle cx="312" cy="24" r="12" fill="rgb(22,17,7)" opacity="0.35"/>
<circle cx="312" cy="24" r="9" fill="rgb(22,17,7)"/>
<circle cx="336" cy="24" r="9" fill="#14171c"/>
<circle cx="360" cy="24" r="12" fill="rgb(50,37,15)" opacity="0.35"/>
<circle cx="360" cy="24" r="9" fill="rgb(50,37,15)"/>
<circle cx="384" cy="24" r="12" fill="rgb(56,40,16)" opacity="0.35"/>
<circle cx="384" cy="24" r="9" fill="rgb(56,40,16)"/>
<circle cx="24" cy="48" r="12" fill="rgb(53,20,1)" opacity="0.35"/>
<circle cx="24" cy="48" r="9" fill="rgb(53,20,1)"/>
<circle cx="48" cy="48" r="9" fill="#14171c"/>
<circle cx="72" cy="48" r="12" fill="rgb(44,15,1)" opacity="0.35"/>
<circle cx="72" cy="48" r="9" fill="rgb(44,15,1)"/>
<circle cx="96" cy="48" r="12" fill="rgb(33,10,2)" opacity="0.35"/>
<circle cx="96" cy="48" r="9" fill="rgb(33,10,2)"/>
<circle cx="120" cy="48" r="9" fill="#14171c"/>
<circle cx="144" cy="48" r="12" fill="rgb(27,4,4)" opacity="0.35"/>
<circle cx="144" cy="48" r="9" fill="rgb(27,4,4)"/>
<circle cx="168" cy="48" r="12" fill="rgb(78,8,8)" opacity="0.35"/>
<circle cx="168" cy="48" r="9" fill="rgb(78,8,8)"/>
<circle cx="192" cy="48" r="12" fill="rgb(56,6,6)" opacity="0.35"/>
<circle cx="192" cy="48" r="9" fill="rgb(56,6,6)"/>
<circle cx="216" cy="48" r="12" fill="rgb(35,9,5)" opacity="0.35"/>
<circle cx="216" cy="48" r="9" fill="rgb(35,9,5)"/>
<circle cx="240" cy="48" r="12" fill="rgb(167,55,5)" opacity="0.35"/>
<circle cx="240" cy="48" r="9" fill="rgb(167,55,5)"/>
<circle cx="264" cy="48" r="12" fill="rgb(122,71,22)" opacity="0.35"/>
<circle cx="264" cy="48" r="9" fill="rgb(122,71,22)"/>
<circle cx="288" cy="48" r="12" fill="rgb(107,63,20)" opacity="0.35"/>
<circle cx="288" cy="48" r="9" fill="rgb(107,63,20)"/>
<circle cx="312" cy="48" r="12" fill="rgb(58,42,17)" opacity="0.35"/>
<circle cx="312" cy="48" r="9" fill="rgb(58,42,17)"/>
<circle cx="336" cy="48" r="9" fill="#14171c"/>
<circle cx="360" cy="48" r="12" fill="rgb(77,44,14)" opacity="0.35"/>
<circle cx="360" cy="48" r="9" fill="rgb(77,44,14)"/>
<circle cx="384" cy="48" r="12" fill="rgb(123,63,15)" opacity="0.35"/>
<circle cx="384" cy="48" r="9" fill="rgb(123,63,15)"/>
<circle cx="24" cy="72" r="9" fill="#14171c"/>
<circle cx="48" cy="72" r="9" fill="#14171c"/>
<circle cx="72" cy="72" r="9" fill="#14171c"/>
<circle cx="96" cy="72" r="9" fill="#14171c"/>
<circle cx="120" cy="72" r="9" fill="#14171c"/>
<circle cx="144" cy="72" r="12" fill="rgb(28,5,5)" opacity="0.35"/>
<circle cx="144" cy="72" r="9" fill="rgb(28,5,5)"/>
<circle cx="168" cy="72" r="12" fill="rgb(84,7,7)" opacity="0.35"/>
<circle cx="168" cy="72" r="9" fill="rgb(84,7,7)"/>
<circle cx="192" cy="72" r="12" fill="rgb(43,6,6)" opacity="0.35"/>
<circle cx="192" cy="72" r="9" fill="rgb(43,6,6)"/>
<circle cx="216" cy="72" r="12" fill="rgb(31,6,6)" opacity="0.35"/>
<circle cx="216" cy="72" r="9" fill="rgb(31,6,6)"/>
<circle cx="240" cy="72" r="12" fill="rgb(25,6,3)" opacity="0.35"/>
<circle cx="240" cy="72" r="9" fill="rgb(25,6,3)"/>
<circle cx="264" cy="72" r="12" fill="rgb(128,41,5)" opacity="0.35"/>
<circle cx="264" cy="72" r="9" fill="rgb(128,41,5)"/>
<circle cx="288" cy="72" r="12" fill="rgb(193,67,2)" opacity="0.35"/>
<circle cx="288" cy="72" r="9" fill="rgb(193,67,2)"/>
<circle cx="312" cy="72" r="12" fill="rgb(122,71,22)" opacity="0.35"/>
<circle cx="312" cy="72" r="9" fill="rgb(122,71,22)"/>
<circle cx="336" cy="72" r="12" fill="rgb(53,26,6)" opacity="0.35"/>
<circle cx="336" cy="72" r="9" fill="rgb(53,26,6)"/>
<circle cx="360" cy="72" r="12" fill="rgb(25,11,2)" opacity="0.35"/>
<circle cx="360" cy="72" r="9" fill="rgb(25,11,2)"/>
<circle cx="384" cy="72" r="12" fill="rgb(79,38,8)" opacity="0.35"/>
<circle cx="384" cy="72" r="9" fill="rgb(79,38,8)"/>
<circle cx="24" cy="96" r="9" fill="#14171c"/>
<circle cx="48" cy="96" r="9" fill="#14171c"/>
<circle cx="72" cy="96" r="12" fill="rgb(47,6,6)" opacity="0.35"/>
<circle cx="72" cy="96" r="9" fill="rgb(47,6,6)"/>
<circle cx="96" cy="96" r="12" fill="rgb(44,7,7)" opacity="0.35"/>
<circle cx="96" cy="96" r="9" fill="rgb(44,7,7)"/>
<circle cx="120" cy="96" r="12" fill="rgb(78,8,8)" opacity="0.35"/>
<circle cx="120" cy="96" r="9" fill="rgb(78,8,8)"/>
<circle cx="144" cy="96" r="12" fill="rgb(80,7,7)" opacity="0.35"/>
<circle cx="144" cy="96" r="9" fill="rgb(80,7,7)"/>
<circle cx="168" cy="96" r="12" fill="rgb(64,7,7)" opacity="0.35"/>
<circle cx="168" cy="96" r="9" fill="rgb(64,7,7)"/>
<circle cx="192" cy="96" r="12" fill="rgb(87,1,1)" opacity="0.35"/>
<circle cx="192" cy="96" r="9" fill="rgb(87,1,1)"/>
<circle cx="216" cy="96" r="12" fill="rgb(53,6,6)" opacity="0.35"/>
<circle cx="216" cy="96" r="9" fill="rgb(53,6,6)"/>
<circle cx="240" cy="96" r="12" fill="rgb(26,2,2)" opacity="0.35"/>
<circle cx="240" cy="96" r="9" fill="rgb(26,2,2)"/>
<circle cx="264" cy="96" r="9" fill="#14171c"/>
<circle cx="288" cy="96" r="12" fill="rgb(59,14,8)" opacity="0.35"/>
<circle cx="288" cy="96" r="9" fill="rgb(59,14,8)"/>
<circle cx="312" cy="96" r="12" fill="rgb(104,31,6)" opacity="0.35"/>
<circle cx="312" cy="96" r="9" fill="rgb(104,31,6)"/>
<circle cx="336" cy="96" r="9" fill="#14171c"/>
<circle cx="360" cy="96" r="12" fill="rgb(122,43,0)" opacity="0.35"/>
<circle cx="360" cy="96" r="9" fill="rgb(122,43,0)"/>
<circle cx="384" cy="96" r="12" fill="rgb(178,92,23)" opacity="0.35"/>
<circle cx="384" cy="96" r="9" fill="rgb(178,92,23)"/>
<circle cx="24" cy="120" r="12" fill="rgb(39,6,6)" opacity="0.35"/>
<circle cx="24" cy="120" r="9" fill="rgb(39,6,6)"/>
<circle cx="48" cy="120" r="9" fill="#14171c"/>
<circle cx="72" cy="120" r="12" fill="rgb(86,6,6)" opacity="0.35"/>
<circle cx="72" cy="120" r="9" fill="rgb(86,6,6)"/>
<circle cx="96" cy="120" r="12" fill="rgb(40,6,6)" opacity="0.35"/>
<circle cx="96" cy="120" r="9" fill="rgb(40,6,6)"/>
<circle cx="120" cy="120" r="12" fill="rgb(51,6,6)" opacity="0.35"/>
<circle cx="120" cy="120" r="9" fill="rgb(51,6,6)"/>
<circle cx="144" cy="120" r="12" fill="rgb(63,7,7)" opacity="0.35"/>
<circle cx="144" cy="120" r="9" fill="rgb(63,7,7)"/>
<circle cx="168" cy="120" r="12" fill="rgb(73,8,8)" opacity="0.35"/>
<circle cx="168" cy="120" r="9" fill="rgb(73,8,8)"/>
<circle cx="192" cy="120" r="12" fill="rgb(56,4,4)" opacity="0.35"/>
<circle cx="192" cy="120" r="9" fill="rgb(56,4,4)"/>
<circle cx="216" cy="120" r="12" fill="rgb(49,0,0)" opacity="0.35"/>
<circle cx="216" cy="120" r="9" fill="rgb(49,0,0)"/>
<circle cx="240" cy="120" r="12" fill="rgb(48,0,0)" opacity="0.35"/>
<circle cx="240" cy="120" r="9" fill="rgb(48,0,0)"/>
<circle cx="264" cy="120" r="12" fill="rgb(80,0,0)" opacity="0.35"/>
<circle cx="264" cy="120" r="9" fill="rgb(80,0,0)"/>
<circle cx="288" cy="120" r="12" fill="rgb(53,0,0)" opacity="0.35"/>
<circle cx="288" cy="120" r="9" fill="rgb(53,0,0)"/>
<circle cx="312" cy="120" r="9" fill="#14171c"/>
<circle cx="336" cy="120" r="9" fill="#14171c"/>
<circle cx="360" cy="120" r="12" fill="rgb(39,11,3)" opacity="0.35"/>
<circle cx="360" cy="120" r="9" fill="rgb(39,11,3)"/>
<circle cx="384" cy="120" r="12" fill="rgb(236,106,18)" opacity="0.35"/>
<circle cx="384" cy="120" r="9" fill="rgb(236,106,18)"/>
<circle cx="24" cy="144" r="9" fill="#14171c"/>
<circle cx="48" cy="144" r="12" fill="rgb(64,8,8)" opacity="0.35"/>
<circle cx="48" cy="144" r="9" fill="rgb(64,8,8)"/>
<circle cx="72" cy="144" r="12" fill="rgb(90,6,6)" opacity="0.35"/>
<circle cx="72" cy="144" r="9" fill="rgb(90,6,6)"/>
<circle cx="96" cy="144" r="12" fill="rgb(84,1,1)" opacity="0.35"/>
<circle cx="96" cy="144" r="9" fill="rgb(84,1,1)"/>
<circle cx="120" cy="144" r="12" fill="rgb(63,4,4)" opacity="0.35"/>
<circle cx="120" cy="144" r="9" fill="rgb(63,4,4)"/>
<circle cx="144" cy="144" r="12" fill="rgb(66,7,7)" opacity="0.35"/>
<circle cx="144" cy="144" r="9" fill="rgb(66,7,7)"/>
<circle cx="168" cy="144" r="12" fill="rgb(71,0,0)" opacity="0.35"/>
<circle cx="168" cy="144" r="9" fill="rgb(71,0,0)"/>
<circle cx="192" cy="144" r="12" fill="rgb(18,3,3)" opacity="0.35"/>
<circle cx="192" cy="144" r="9" fill="rgb(18,3,3)"/>
<circle cx="216" cy="144" r="12" fill="rgb(34,4,4)" opacity="0.35"/>
<circle cx="216" cy="144" r="9" fill="rgb(34,4,4)"/>
<circle cx="240" cy="144" r="12" fill="rgb(46,6,6)" opacity="0.35"/>
<circle cx="240" cy="144" r="9" fill="rgb(46,6,6)"/>
<circle cx="264" cy="144" r="12" fill="rgb(55,7,7)" opacity="0.35"/>
<circle cx="264" cy="144" r="9" fill="rgb(55,7,7)"/>
<circle cx="288" cy="144" r="12" fill="rgb(55,0,0)" opacity="0.35"/>
<circle cx="288" cy="144" r="9" fill="rgb(55,0,0)"/>
<circle cx="312" cy="144" r="9" fill="#14171c"/>
<circle cx="336" cy="144" r="9" fill="#14171c"/>
<circle cx="360" cy="144" r="12" fill="rgb(27,7,3)" opacity="0.35"/>
<circle cx="360" cy="144" r="9" fill="rgb(27,7,3)"/>
<circle cx="384" cy="144" r="12" fill="rgb(211,101,21)" opacity="0.35"/>
<circle cx="384" cy="144" r="9" fill="rgb(211,101,21)"/>
<circle cx="24" cy="168" r="12" fill="rgb(20,5,2)" opacity="0.35"/>
<circle cx="24" cy="168" r="9" fill="rgb(20,5,2)"/>
<circle cx="48" cy="168" r="12" fill="rgb(17,3,3)" opacity="0.35"/>
<circle cx="48" cy="168" r="9" fill="rgb(17,3,3)"/>
<circle cx="72" cy="168" r="12" fill="rgb(66,8,8)" opacity="0.35"/>
<circle cx="72" cy="168" r="9" fill="rgb(66,8,8)"/>
<circle cx="96" cy="168" r="12" fill="rgb(45,6,6)" opacity="0.35"/>
<circle cx="96" cy="168" r="9" fill="rgb(45,6,6)"/>
<circle cx="120" cy="168" r="12" fill="rgb(64,1,1)" opacity="0.35"/>
<circle cx="120" cy="168" r="9" fill="rgb(64,1,1)"/>
<circle cx="144" cy="168" r="12" fill="rgb(35,0,0)" opacity="0.35"/>
<circle cx="144" cy="168" r="9" fill="rgb(35,0,0)"/>
<circle cx="168" cy="168" r="9" fill="#14171c"/>
<circle cx="192" cy="168" r="9" fill="#14171c"/>
<circle cx="216" cy="168" r="9" fill="#14171c"/>
<circle cx="240" cy="168" r="12" fill="rgb(18,3,3)" opacity="0.35"/>
<circle cx="240" cy="168" r="9" fill="rgb(18,3,3)"/>
<circle cx="264" cy="168" r="9" fill="#14171c"/>
<circle cx="288" cy="168" r="12" fill="rgb(76,3,3)" opacity="0.35"/>
<circle cx="288" cy="168" r="9" fill="rgb(76,3,3)"/>
<circle cx="312" cy="168" r="9" fill="#14171c"/>
<circle cx="336" cy="168" r="9" fill="#14171c"/>
<circle cx="360" cy="168" r="12" fill="rgb(41,10,5)" opacity="0.35"/>
<circle cx="360" cy="168" r="9" fill="rgb(41,10,5)"/>
<circle cx="384" cy="168" r="12" fill="rgb(238,107,19)" opacity="0.35"/>
<circle cx="384" cy="168" r="9" fill="rgb(238,107,19)"/>
<circle cx="24" cy="192" r="12" fill="rgb(106,31,8)" opacity="0.35"/>
<circle cx="24" cy="192" r="9" fill="rgb(106,31,8)"/>
<circle cx="48" cy="192" r="12" fill="rgb(29,7,4)" opacity="0.35"/>
<circle cx="48" cy="192" r="9" fill="rgb(29,7,4)"/>
<circle cx="72" cy="192" r="12" fill="rgb(32,6,6)" opacity="0.35"/>
<circle cx="72" cy="192" r="9" fill="rgb(32,6,6)"/>
<circle cx="96" cy="192" r="12" fill="rgb(69,5,5)" opacity="0.35"/>
<circle cx="96" cy="192" r="9" fill="rgb(69,5,5)"/>
<circle cx="120" cy="192" r="12" fill="rgb(38,0,0)" opacity="0.35"/>
<circle cx="120" cy="192" r="9" fill="rgb(38,0,0)"/>
<circle cx="144" cy="192" r="12" fill="rgb(30,0,0)" opacity="0.35"/>
<circle cx="144" cy="192" r="9" fill="rgb(30,0,0)"/>
<circle cx="168" cy="192" r="12" fill="rgb(21,0,0)" opacity="0.35"/>
<circle cx="168" cy="192" r="9" fill="rgb(21,0,0)"/>
<circle cx="192" cy="192" r="9" fill="#14171c"/>
<circle cx="216" cy="192" r="12" fill="rgb(49,2,2)" opacity="0.35"/>
<circle cx="216" cy="192" r="9" fill="rgb(49,2,2)"/>
<circle cx="240" cy="192" r="12" fill="rgb(63,0,0)" opacity="0.35"/>
<circle cx="240" cy="192" r="9" fill="rgb(63,0,0)"/>
<circle cx="264" cy="192" r="12" fill="rgb(27,3,3)" opacity="0.35"/>
<circle cx="264" cy="192" r="9" fill="rgb(27,3,3)"/>
<circle cx="288" cy="192" r="12" fill="rgb(55,0,0)" opacity="0.35"/>
<circle cx="288" cy="192" r="9" fill="rgb(55,0,0)"/>
<circle cx="312" cy="192" r="12" fill="rgb(22,0,0)" opacity="0.35"/>
<circle cx="312" cy="192" r="9" fill="rgb(22,0,0)"/>
<circle cx="336" cy="192" r="9" fill="#14171c"/>
<circle cx="360" cy="192" r="12" fill="rgb(51,14,5)" opacity="0.35"/>
<circle cx="360" cy="192" r="9" fill="rgb(51,14,5)"/>
<circle cx="384" cy="192" r="12" fill="rgb(106,62,19)" opacity="0.35"/>
<circle cx="384" cy="192" r="9" fill="rgb(106,62,19)"/>
<circle cx="24" cy="216" r="12" fill="rgb(91,32,0)" opacity="0.35"/>
<circle cx="24" cy="216" r="9" fill="rgb(91,32,0)"/>
<circle cx="48" cy="216" r="12" fill="rgb(37,9,5)" opacity="0.35"/>
<circle cx="48" cy="216" r="9" fill="rgb(37,9,5)"/>
<circle cx="72" cy="216" r="12" fill="rgb(57,15,7)" opacity="0.35"/>
<circle cx="72" cy="216" r="9" fill="rgb(57,15,7)"/>
<circle cx="96" cy="216" r="12" fill="rgb(62,3,3)" opacity="0.35"/>
<circle cx="96" cy="216" r="9" fill="rgb(62,3,3)"/>
<circle cx="120" cy="216" r="12" fill="rgb(28,0,0)" opacity="0.35"/>
<circle cx="120" cy="216" r="9" fill="rgb(28,0,0)"/>
<circle cx="144" cy="216" r="12" fill="rgb(24,0,0)" opacity="0.35"/>
<circle cx="144" cy="216" r="9" fill="rgb(24,0,0)"/>
<circle cx="168" cy="216" r="12" fill="rgb(18,1,1)" opacity="0.35"/>
<circle cx="168" cy="216" r="9" fill="rgb(18,1,1)"/>
<circle cx="192" cy="216" r="12" fill="rgb(25,0,0)" opacity="0.35"/>
<circle cx="192" cy="216" r="9" fill="rgb(25,0,0)"/>
<circle cx="216" cy="216" r="12" fill="rgb(28,0,0)" opacity="0.35"/>
<circle cx="216" cy="216" r="9" fill="rgb(28,0,0)"/>
<circle cx="240" cy="216" r="12" fill="rgb(22,0,0)" opacity="0.35"/>
<circle cx="240" cy="216" r="9" fill="rgb(22,0,0)"/>
<circle cx="264" cy="216" r="12" fill="rgb(55,3,3)" opacity="0.35"/>
<circle cx="264" cy="216" r="9" fill="rgb(55,3,3)"/>
<circle cx="288" cy="216" r="12" fill="rgb(26,0,0)" opacity="0.35"/>
<circle cx="288" cy="216" r="9" fill="rgb(26,0,0)"/>
<circle cx="312" cy="216" r="12" fill="rgb(22,0,0)" opacity="0.35"/>
<circle cx="312" cy="216" r="9" fill="rgb(22,0,0)"/>
<circle cx="336" cy="216" r="9" fill="#14171c"/>
<circle cx="360" cy="216" r="12" fill="rgb(31,8,3)" opacity="0.35"/>
<circle cx="360" cy="216" r="9" fill="rgb(31,8,3)"/>
<circle cx="384" cy="216" r="12" fill="rgb(248,108,16)" opacity="0.35"/>
<circle cx="384" cy="216" r="9" fill="rgb(248,108,16)"/>
<circle cx="24" cy="240" r="9" fill="#14171c"/>
<circle cx="48" cy="240" r="12" fill="rgb(117,41,0)" opacity="0.35"/>
<circle cx="48" cy="240" r="9" fill="rgb(117,41,0)"/>
<circle cx="72" cy="240" r="12" fill="rgb(28,6,5)" opacity="0.35"/>
<circle cx="72" cy="240" r="9" fill="rgb(28,6,5)"/>
<circle cx="96" cy="240" r="12" fill="rgb(83,7,7)" opacity="0.35"/>
<circle cx="96" cy="240" r="9" fill="rgb(83,7,7)"/>
<circle cx="120" cy="240" r="12" fill="rgb(31,0,0)" opacity="0.35"/>
<circle cx="120" cy="240" r="9" fill="rgb(31,0,0)"/>
<circle cx="144" cy="240" r="9" fill="#14171c"/>
<circle cx="168" cy="240" r="9" fill="#14171c"/>
<circle cx="192" cy="240" r="12" fill="rgb(18,1,1)" opacity="0.35"/>
<circle cx="192" cy="240" r="9" fill="rgb(18,1,1)"/>
<circle cx="216" cy="240" r="12" fill="rgb(22,0,0)" opacity="0.35"/>
<circle cx="216" cy="240" r="9" fill="rgb(22,0,0)"/>
<circle cx="240" cy="240" r="12" fill="rgb(21,1,1)" opacity="0.35"/>
<circle cx="240" cy="240" r="9" fill="rgb(21,1,1)"/>
<circle cx="264" cy="240" r="12" fill="rgb(30,0,0)" opacity="0.35"/>
<circle cx="264" cy="240" r="9" fill="rgb(30,0,0)"/>
<circle cx="288" cy="240" r="12" fill="rgb(31,0,0)" opacity="0.35"/>
<circle cx="288" cy="240" r="9" fill="rgb(31,0,0)"/>
<circle cx="312" cy="240" r="12" fill="rgb(21,0,0)" opacity="0.35"/>
<circle cx="312" cy="240" r="9" fill="rgb(21,0,0)"/>
<circle cx="336" cy="240" r="9" fill="#14171c"/>
<circle cx="360" cy="240" r="9" fill="#14171c"/>
<circle cx="384" cy="240" r="12" fill="rgb(172,56,6)" opacity="0.35"/>
<circle cx="384" cy="240" r="9" fill="rgb(172,56,6)"/>
<circle cx="24" cy="264" r="9" fill="#14171c"/>
<circle cx="48" cy="264" r="12" fill="rgb(38,18,4)" opacity="0.35"/>
<circle cx="48" cy="264" r="9" fill="rgb(38,18,4)"/>
<circle cx="72" cy="264" r="12" fill="rgb(72,21,5)" opacity="0.35"/>
<circle cx="72" cy="264" r="9" fill="rgb(72,21,5)"/>
<circle cx="96" cy="264" r="12" fill="rgb(45,5,5)" opacity="0.35"/>
<circle cx="96" cy="264" r="9" fill="rgb(45,5,5)"/>
<circle cx="120" cy="264" r="12" fill="rgb(40,0,0)" opacity="0.35"/>
<circle cx="120" cy="264" r="9" fill="rgb(40,0,0)"/>
<circle cx="144" cy="264" r="9" fill="#14171c"/>
<circle cx="168" cy="264" r="9" fill="#14171c"/>
<circle cx="192" cy="264" r="9" fill="#14171c"/>
<circle cx="216" cy="264" r="9" fill="#14171c"/>
<circle cx="240" cy="264" r="9" fill="#14171c"/>
<circle cx="264" cy="264" r="9" fill="#14171c"/>
<circle cx="288" cy="264" r="12" fill="rgb(35,0,0)" opacity="0.35"/>
<circle cx="288" cy="264" r="9" fill="rgb(35,0,0)"/>
<circle cx="312" cy="264" r="9" fill="#14171c"/>
<circle cx="336" cy="264" r="9" fill="#14171c"/>
<circle cx="360" cy="264" r="9" fill="#14171c"/>
<circle cx="384" cy="264" r="12" fill="rgb(18,4,2)" opacity="0.35"/>
<circle cx="384" cy="264" r="9" fill="rgb(18,4,2)"/>
<circle cx="24" cy="288" r="12" fill="rgb(96,40,5)" opacity="0.35"/>
<circle cx="24" cy="288" r="9" fill="rgb(96,40,5)"/>
<circle cx="48" cy="288" r="9" fill="#14171c"/>
<circle cx="72" cy="288" r="12" fill="rgb(61,20,2)" opacity="0.35"/>
<circle cx="72" cy="288" r="9" fill="rgb(61,20,2)"/>
<circle cx="96" cy="288" r="12" fill="rgb(35,6,6)" opacity="0.35"/>
<circle cx="96" cy="288" r="9" fill="rgb(35,6,6)"/>
<circle cx="120" cy="288" r="12" fill="rgb(25,0,0)" opacity="0.35"/>
<circle cx="120" cy="288" r="9" fill="rgb(25,0,0)"/>
<circle cx="144" cy="288" r="9" fill="#14171c"/>
<circle cx="168" cy="288" r="9" fill="#14171c"/>
<circle cx="192" cy="288" r="9" fill="#14171c"/>
<circle cx="216" cy="288" r="9" fill="#14171c"/>
<circle cx="240" cy="288" r="9" fill="#14171c"/>
<circle cx="264" cy="288" r="9" fill="#14171c"/>
<circle cx="288" cy="288" r="9" fill="#14171c"/>
<circle cx="312" cy="288" r="9" fill="#14171c"/>
<circle cx="336" cy="288" r="9" fill="#14171c"/>
<circle cx="360" cy="288" r="9" fill="#14171c"/>
<circle cx="384" cy="288" r="9" fill="#14171c"/>
<circle cx="24" cy="312" r="12" fill="rgb(27,12,2)" opacity="0.35"/>
<circle cx="24" cy="312" r="9" fill="rgb(27,12,2)"/>
<circle cx="48" cy="312" r="9" fill="#14171c"/>
<circle cx="72" cy="312" r="12" fill="rgb(89,24,9)" opacity="0.35"/>
<circle cx="72" cy="312" r="9" fill="rgb(89,24,9)"/>
<circle cx="96" cy="312" r="12" fill="rgb(40,8,7)" opacity="0.35"/>
<circle cx="96" cy="312" r="9" fill="rgb(40,8,7)"/>
<circle cx="120" cy="312" r="12" fill="rgb(39,1,1)" opacity="0.35"/>
<circle cx="120" cy="312" r="9" fill="rgb(39,1,1)"/>
<circle cx="144" cy="312" r="9" fill="#14171c"/>
<circle cx="168" cy="312" r="9" fill="#14171c"/>
<circle cx="192" cy="312" r="9" fill="#14171c"/>
<circle cx="216" cy="312" r="9" fill="#14171c"/>
<circle cx="240" cy="312" r="9" fill="#14171c"/>
<circle cx="264" cy="312" r="9" fill="#14171c"/>
<circle cx="288" cy="312" r="9" fill="#14171c"/>
<circle cx="312" cy="312" r="9" fill="#14171c"/>
<circle cx="336" cy="312" r="9" fill="#14171c"/>
<circle cx="360" cy="312" r="9" fill="#14171c"/>
<circle cx="384" cy="312" r="9" fill="#14171c"/>
<circle cx="24" cy="336" r="9" fill="#14171c"/>
<circle cx="48" cy="336" r="12" fill="rgb(85,34,3)" opacity="0.35"/>
<circle cx="48" cy="336" r="9" fill="rgb(85,34,3)"/>
<circle cx="72" cy="336" r="12" fill="rgb(49,12,7)" opacity="0.35"/>
<circle cx="72" cy="336" r="9" fill="rgb(49,12,7)"/>
<circle cx="96" cy="336" r="12" fill="rgb(25,3,3)" opacity="0.35"/>
<circle cx="96" cy="336" r="9" fill="rgb(25,3,3)"/>
<circle cx="120" cy="336" r="9" fill="#14171c"/>
<circle cx="144" cy="336" r="9" fill="#14171c"/>
<circle cx="168" cy="336" r="12" fill="rgb(97,26,9)" opacity="0.35"/>
<circle cx="168" cy="336" r="9" fill="rgb(97,26,9)"/>
<circle cx="192" cy="336" r="12" fill="rgb(209,66,10)" opacity="0.35"/>
<circle cx="192" cy="336" r="9" fill="rgb(209,66,10)"/>
<circle cx="216" cy="336" r="12" fill="rgb(45,11,5)" opacity="0.35"/>
<circle cx="216" cy="336" r="9" fill="rgb(45,11,5)"/>
<circle cx="240" cy="336" r="9" fill="#14171c"/>
<circle cx="264" cy="336" r="9" fill="#14171c"/>
<circle cx="288" cy="336" r="9" fill="#14171c"/>
<circle cx="312" cy="336" r="9" fill="#14171c"/>
<circle cx="336" cy="336" r="9" fill="#14171c"/>
<circle cx="360" cy="336" r="9" fill="#14171c"/>
<circle cx="384" cy="336" r="12" fill="rgb(58,16,6)" opacity="0.35"/>
<circle cx="384" cy="336" r="9" fill="rgb(58,16,6)"/>
<circle cx="24" cy="360" r="12" fill="rgb(152,56,2)" opacity="0.35"/>
<circle cx="24" cy="360" r="9" fill="rgb(152,56,2)"/>
<circle cx="48" cy="360" r="12" fill="rgb(128,43,2)" opacity="0.35"/>
<circle cx="48" cy="360" r="9" fill="rgb(128,43,2)"/>
<circle cx="72" cy="360" r="12" fill="rgb(115,31,11)" opacity="0.35"/>
<circle cx="72" cy="360" r="9" fill="rgb(115,31,11)"/>
<circle cx="96" cy="360" r="12" fill="rgb(32,9,3)" opacity="0.35"/>
<circle cx="96" cy="360" r="9" fill="rgb(32,9,3)"/>
<circle cx="120" cy="360" r="9" fill="#14171c"/>
<circle cx="144" cy="360" r="12" fill="rgb(170,52,10)" opacity="0.35"/>
<circle cx="144" cy="360" r="9" fill="rgb(170,52,10)"/>
<circle cx="168" cy="360" r="12" fill="rgb(229,73,9)" opacity="0.35"/>
<circle cx="168" cy="360" r="9" fill="rgb(229,73,9)"/>
<circle cx="192" cy="360" r="12" fill="rgb(95,49,12)" opacity="0.35"/>
<circle cx="192" cy="360" r="9" fill="rgb(95,49,12)"/>
<circle cx="216" cy="360" r="12" fill="rgb(154,71,13)" opacity="0.35"/>
<circle cx="216" cy="360" r="9" fill="rgb(154,71,13)"/>
<circle cx="240" cy="360" r="12" fill="rgb(243,81,5)" opacity="0.35"/>
<circle cx="240" cy="360" r="9" fill="rgb(243,81,5)"/>
<circle cx="264" cy="360" r="12" fill="rgb(107,30,10)" opacity="0.35"/>
<circle cx="264" cy="360" r="9" fill="rgb(107,30,10)"/>
<circle cx="288" cy="360" r="12" fill="rgb(137,40,10)" opacity="0.35"/>
<circle cx="288" cy="360" r="9" fill="rgb(137,40,10)"/>
<circle cx="312" cy="360" r="12" fill="rgb(69,19,6)" opacity="0.35"/>
<circle cx="312" cy="360" r="9" fill="rgb(69,19,6)"/>
<circle cx="336" cy="360" r="12" fill="rgb(78,22,7)" opacity="0.35"/>
<circle cx="336" cy="360" r="9" fill="rgb(78,22,7)"/>
<circle cx="360" cy="360" r="12" fill="rgb(173,53,10)" opacity="0.35"/>
<circle cx="360" cy="360" r="9" fill="rgb(173,53,10)"/>
<circle cx="384" cy="360" r="12" fill="rgb(57,14,7)" opacity="0.35"/>
<circle cx="384" cy="360" r="9" fill="rgb(57,14,7)"/>
<circle cx="24" cy="384" r="12" fill="rgb(157,53,4)" opacity="0.35"/>
<circle cx="24" cy="384" r="9" fill="rgb(157,53,4)"/>
<circle cx="48" cy="384" r="12" fill="rgb(163,48,11)" opacity="0.35"/>
<circle cx="48" cy="384" r="9" fill="rgb(163,48,11)"/>
<circle cx="72" cy="384" r="12" fill="rgb(67,21,3)" opacity="0.35"/>
<circle cx="72" cy="384" r="9" fill="rgb(67,21,3)"/>
<circle cx="96" cy="384" r="12" fill="rgb(36,12,1)" opacity="0.35"/>
<circle cx="96" cy="384" r="9" fill="rgb(36,12,1)"/>
<circle cx="120" cy="384" r="12" fill="rgb(231,91,7)" opacity="0.35"/>
<circle cx="120" cy="384" r="9" fill="rgb(231,91,7)"/>
<circle cx="144" cy="384" r="12" fill="rgb(134,77,24)" opacity="0.35"/>
<circle cx="144" cy="384" r="9" fill="rgb(134,77,24)"/>
<circle cx="168" cy="384" r="12" fill="rgb(98,57,18)" opacity="0.35"/>
<circle cx="168" cy="384" r="9" fill="rgb(98,57,18)"/>
<circle cx="192" cy="384" r="9" fill="#14171c"/>
<circle cx="216" cy="384" r="9" fill="#14171c"/>
<circle cx="240" cy="384" r="9" fill="#14171c"/>
<circle cx="264" cy="384" r="12" fill="rgb(255,102,10)" opacity="0.35"/>
<circle cx="264" cy="384" r="9" fill="rgb(255,102,10)"/>
<circle cx="288" cy="384" r="12" fill="rgb(212,102,21)" opacity="0.35"/>
<circle cx="288" cy="384" r="9" fill="rgb(212,102,21)"/>
<circle cx="312" cy="384" r="12" fill="rgb(237,88,4)" opacity="0.35"/>
<circle cx="312" cy="384" r="9" fill="rgb(237,88,4)"/>
<circle cx="336" cy="384" r="12" fill="rgb(250,87,2)" opacity="0.35"/>
<circle cx="336" cy="384" r="9" fill="rgb(250,87,2)"/>
<circle cx="360" cy="384" r="12" fill="rgb(246,83,4)" opacity="0.35"/>
<circle cx="360" cy="384" r="9" fill="rgb(246,83,4)"/>
<circle cx="384" cy="384" r="12" fill="rgb(252,88,1)" opacity="0.35"/>
<circle cx="384" cy="384" r="9" fill="rgb(252,88,1)"/>
</svg>
