<svg xmlns="http://www.w3.org/2000/svg" viewBox="0 0 408 408" width="408" height="408" role="img" aria-label="LED preview of the Turbulent Bloom example graph">
<rect width="408" height="408" rx="10" fill="#05070a"/>
<circle cx="24" cy="24" r="12" fill="rgb(27,16,5)" opacity="0.35"/>
<circle cx="24" cy="24" r="9" fill="rgb(27,16,5)"/>
<circle cx="48" cy="24" r="12" fill="rgb(44,21,5)" opacity="0.35"/>
<circle cx="48" cy="24" r="9" fill="rgb(44,21,5)"/>
<circle cx="72" cy="24" r="12" fill="rgb(48,17,0)" opacity="0.35"/>
<circle cx="72" cy="24" r="9" fill="rgb(48,17,0)"/>
<circle cx="96" cy="24" r="12" fill="rgb(45,15,1)" opacity="0.35"/>
<circle cx="96" cy="24" r="9" fill="rgb(45,15,1)"/>
<circle cx="120" cy="24" r="12" fill="rgb(30,9,1)" opacity="0.35"/>
<circle cx="120" cy="24" r="9" fill="rgb(30,9,1)"/>
<circle cx="144" cy="24" r="9" fill="#14171c"/>
<circle cx="168" cy="24" r="12" fill="rgb(48,6,6)" opacity="0.35"/>
<circle cx="168" cy="24" r="9" fill="rgb(48,6,6)"/>
<circle cx="192" cy="24" r="12" fill="rgb(63,15,8)" opacity="0.35"/>
<circle cx="192" cy="24" r="9" fill="rgb(63,15,8)"/>
<circle cx="216" cy="24" r="9" fill="#14171c"/>
<circle cx="240" cy="24" r="12" fill="rgb(163,61,3)" opacity="0.35"/>
<circle cx="240" cy="24" r="9" fill="rgb(163,61,3)"/>
<circle cx="264" cy="24" r="12" fill="rgb(143,70,16)" opacity="0.35"/>
<circle cx="264" cy="24" r="9" fill="rgb(143,70,16)"/>
<circle cx="288" cy="24" r="12" fill="rgb(109,64,20)" opacity="0.35"/>
<circle cx="288" cy="24" r="9" fill="rgb(109,64,20)"/>
<circle cx="312" cy="24" r="9" fill="#14171c"/>
<circle cx="336" cy="24" r="9" fill="#14171c"/>
<circle cx="360" cy="24" r="12" fill="rgb(19,14,6)" opacity="0.35"/>
<circle cx="360" cy="24" r="9" fill="rgb(19,14,6)"/>
<circle cx="384" cy="24" r="9" fill="#14171c"/>
<circle cx="24" cy="48" r="12" fill="rgb(53,19,0)" opacity="0.35"/>
<circle cx="24" cy="48" r="9" fill="rgb(53,19,0)"/>
<circle cx="48" cy="48" r="12" fill="rgb(35,11,1)" opacity="0.35"/>
<circle cx="48" cy="48" r="9" fill="rgb(35,11,1)"/>
<circle cx="72" cy="48" r="12" fill="rgb(37,11,2)" opacity="0.35"/>
<circle cx="72" cy="48" r="9" fill="rgb(37,11,2)"/>
<circle cx="96" cy="48" r="12" fill="rgb(34,10,2)" opacity="0.35"/>
<circle cx="96" cy="48" r="9" fill="rgb(34,10,2)"/>
<circle cx="120" cy="48" r="12" fill="rgb(44,14,1)" opacity="0.35"/>
<circle cx="120" cy="48" r="9" fill="rgb(44,14,1)"/>
<circle cx="144" cy="48" r="12" fill="rgb(19,4,3)" opacity="0.35"/>
<circle cx="144" cy="48" r="9" fill="rgb(19,4,3)"/>
<circle cx="168" cy="48" r="12" fill="rgb(85,7,7)" opacity="0.35"/>
<circle cx="168" cy="48" r="9" fill="rgb(85,7,7)"/>
<circle cx="192" cy="48" r="9" fill="#14171c"/>
<circle cx="216" cy="48" r="9" fill="#14171c"/>
<circle cx="240" cy="48" r="12" fill="rgb(93,32,1)" opacity="0.35"/>
<circle cx="240" cy="48" r="9" fill="rgb(93,32,1)"/>
<circle cx="264" cy="48" r="12" fill="rgb(48,23,5)" opacity="0.35"/>
<circle cx="264" cy="48" r="9" fill="rgb(48,23,5)"/>
<circle cx="288" cy="48" r="12" fill="rgb(64,45,17)" opacity="0.35"/>
<circle cx="288" cy="48" r="9" fill="rgb(64,45,17)"/>
<circle cx="312" cy="48" r="9" fill="#14171c"/>
<circle cx="336" cy="48" r="12" fill="rgb(42,32,13)" opacity="0.35"/>
<circle cx="336" cy="48" r="9" fill="rgb(42,32,13)"/>
<circle cx="360" cy="48" r="12" fill="rgb(18,12,5)" opacity="0.35"/>
<circle cx="360" cy="48" r="9" fill="rgb(18,12,5)"/>
<circle cx="384" cy="48" r="12" fill="rgb(19,10,3)" opacity="0.35"/>
<circle cx="384" cy="48" r="9" fill="rgb(19,10,3)"/>
<circle cx="24" cy="72" r="9" fill="#14171c"/>
<circle cx="48" cy="72" r="9" fill="#14171c"/>
<circle cx="72" cy="72" r="9" fill="#14171c"/>
<circle cx="96" cy="72" r="9" fill="#14171c"/>
<circle cx="120" cy="72" r="9" fill="#14171c"/>
<circle cx="144" cy="72" r="9" fill="#14171c"/>
<circle cx="168" cy="72" r="12" fill="rgb(88,6,6)" opacity="0.35"/>
<circle cx="168" cy="72" r="9" fill="rgb(88,6,6)"/>
<circle cx="192" cy="72" r="12" fill="rgb(72,5,5)" opacity="0.35"/>
<circle cx="192" cy="72" r="9" fill="rgb(72,5,5)"/>
<circle cx="216" cy="72" r="12" fill="rgb(27,4,4)" opacity="0.35"/>
<circle cx="216" cy="72" r="9" fill="rgb(27,4,4)"/>
<circle cx="240" cy="72" r="12" fill="rgb(59,17,4)" opacity="0.35"/>
<circle cx="240" cy="72" r="9" fill="rgb(59,17,4)"/>
<circle cx="264" cy="72" r="12" fill="rgb(210,73,1)" opacity="0.35"/>
<circle cx="264" cy="72" r="9" fill="rgb(210,73,1)"/>
<circle cx="288" cy="72" r="12" fill="rgb(243,103,13)" opacity="0.35"/>
<circle cx="288" cy="72" r="9" fill="rgb(243,103,13)"/>
<circle cx="312" cy="72" r="12" fill="rgb(91,50,14)" opacity="0.35"/>
<circle cx="312" cy="72" r="9" fill="rgb(91,50,14)"/>
<circle cx="336" cy="72" r="12" fill="rgb(130,75,23)" opacity="0.35"/>
<circle cx="336" cy="72" r="9" fill="rgb(130,75,23)"/>
<circle cx="360" cy="72" r="9" fill="#14171c"/>
<circle cx="384" cy="72" r="12" fill="rgb(46,22,5)" opacity="0.35"/>
<circle cx="384" cy="72" r="9" fill="rgb(46,22,5)"/>
<circle cx="24" cy="96" r="12" fill="rgb(17,4,2)" opacity="0.35"/>
<circle cx="24" cy="96" r="9" fill="rgb(17,4,2)"/>
<circle cx="48" cy="96" r="9" fill="#14171c"/>
<circle cx="72" cy="96" r="12" fill="rgb(27,5,5)" opacity="0.35"/>
<circle cx="72" cy="96" r="9" fill="rgb(27,5,5)"/>
<circle cx="96" cy="96" r="12" fill="rgb(41,6,6)" opacity="0.35"/>
<circle cx="96" cy="96" r="9" fill="rgb(41,6,6)"/>
<circle cx="120" cy="96" r="12" fill="rgb(32,5,5)" opacity="0.35"/>
<circle cx="120" cy="96" r="9" fill="rgb(32,5,5)"/>
<circle cx="144" cy="96" r="12" fill="rgb(78,7,7)" opacity="0.35"/>
<circle cx="144" cy="96" r="9" fill="rgb(78,7,7)"/>
<circle cx="168" cy="96" r="12" fill="rgb(89,1,1)" opacity="0.35"/>
<circle cx="168" cy="96" r="9" fill="rgb(89,1,1)"/>
<circle cx="192" cy="96" r="12" fill="rgb(51,0,0)" opacity="0.35"/>
<circle cx="192" cy="96" r="9" fill="rgb(51,0,0)"/>
<circle cx="216" cy="96" r="12" fill="rgb(82,3,3)" opacity="0.35"/>
<circle cx="216" cy="96" r="9" fill="rgb(82,3,3)"/>
<circle cx="240" cy="96" r="12" fill="rgb(41,5,5)" opacity="0.35"/>
<circle cx="240" cy="96" r="9" fill="rgb(41,5,5)"/>
<circle cx="264" cy="96" r="12" fill="rgb(23,4,4)" opacity="0.35"/>
<circle cx="264" cy="96" r="9" fill="rgb(23,4,4)"/>
<circle cx="288" cy="96" r="9" fill="#14171c"/>
<circle cx="312" cy="96" r="12" fill="rgb(116,43,2)" opacity="0.35"/>
<circle cx="312" cy="96" r="9" fill="rgb(116,43,2)"/>
<circle cx="336" cy="96" r="12" fill="rgb(81,28,0)" opacity="0.35"/>
<circle cx="336" cy="96" r="9" fill="rgb(81,28,0)"/>
<circle cx="360" cy="96" r="12" fill="rgb(64,21,2)" opacity="0.35"/>
<circle cx="360" cy="96" r="9" fill="rgb(64,21,2)"/>
<circle cx="384" cy="96" r="12" fill="rgb(216,78,2)" opacity="0.35"/>
<circle cx="384" cy="96" r="9" fill="rgb(216,78,2)"/>
<circle cx="24" cy="120" r="12" fill="rgb(34,5,5)" opacity="0.35"/>
<circle cx="24" cy="120" r="9" fill="rgb(34,5,5)"/>
<circle cx="48" cy="120" r="12" fill="rgb(21,3,3)" opacity="0.35"/>
<circle cx="48" cy="120" r="9" fill="rgb(21,3,3)"/>
<circle cx="72" cy="120" r="12" fill="rgb(28,4,4)" opacity="0.35"/>
<circle cx="72" cy="120" r="9" fill="rgb(28,4,4)"/>
<circle cx="96" cy="120" r="12" fill="rgb(44,7,7)" opacity="0.35"/>
<circle cx="96" cy="120" r="9" fill="rgb(44,7,7)"/>
<circle cx="120" cy="120" r="12" fill="rgb(57,4,4)" opacity="0.35"/>
<circle cx="120" cy="120" r="9" fill="rgb(57,4,4)"/>
<circle cx="144" cy="120" r="12" fill="rgb(45,6,6)" opacity="0.35"/>
<circle cx="144" cy="120" r="9" fill="rgb(45,6,6)"/>
<circle cx="168" cy="120" r="12" fill="rgb(71,7,7)" opacity="0.35"/>
<circle cx="168" cy="120" r="9" fill="rgb(71,7,7)"/>
<circle cx="192" cy="120" r="12" fill="rgb(62,7,7)" opacity="0.35"/>
<circle cx="192" cy="120" r="9" fill="rgb(62,7,7)"/>
<circle cx="216" cy="120" r="12" fill="rgb(81,3,3)" opacity="0.35"/>
<circle cx="216" cy="120" r="9" fill="rgb(81,3,3)"/>
<circle cx="240" cy="120" r="12" fill="rgb(45,0,0)" opacity="0.35"/>
<circle cx="240" cy="120" r="9" fill="rgb(45,0,0)"/>
<circle cx="264" cy="120" r="12" fill="rgb(56,0,0)" opacity="0.35"/>
<circle cx="264" cy="120" r="9" fill="rgb(56,0,0)"/>
<circle cx="288" cy="120" r="12" fill="rgb(64,6,6)" opacity="0.35"/>
<circle cx="288" cy="120" r="9" fill="rgb(64,6,6)"/>
<circle cx="312" cy="120" r="9" fill="#14171c"/>
<circle cx="336" cy="120" r="9" fill="#14171c"/>
<circle cx="360" cy="120" r="12" fill="rgb(118,39,3)" opacity="0.35"/>
<circle cx="360" cy="120" r="9" fill="rgb(118,39,3)"/>
<circle cx="384" cy="120" r="12" fill="rgb(122,72,23)" opacity="0.35"/>
<circle cx="384" cy="120" r="9" fill="rgb(122,72,23)"/>
<circle cx="24" cy="144" r="12" fill="rgb(61,7,7)" opacity="0.35"/>
<circle cx="24" cy="144" r="9" fill="rgb(61,7,7)"/>
<circle cx="48" cy="144" r="12" fill="rgb(77,7,7)" opacity="0.35"/>
<circle cx="48" cy="144" r="9" fill="rgb(77,7,7)"/>
<circle cx="72" cy="144" r="12" fill="rgb(86,6,6)" opacity="0.35"/>
<circle cx="72" cy="144" r="9" fill="rgb(86,6,6)"/>
<circle cx="96" cy="144" r="12" fill="rgb(89,3,3)" opacity="0.35"/>
<circle cx="96" cy="144" r="9" fill="rgb(89,3,3)"/>
<circle cx="120" cy="144" r="12" fill="rgb(42,2,2)" opacity="0.35"/>
<circle cx="120" cy="144" r="9" fill="rgb(42,2,2)"/>
<circle cx="144" cy="144" r="12" fill="rgb(37,4,4)" opacity="0.35"/>
<circle cx="144" cy="144" r="9" fill="rgb(37,4,4)"/>
<circle cx="168" cy="144" r="12" fill="rgb(66,1,1)" opacity="0.35"/>
<circle cx="168" cy="144" r="9" fill="rgb(66,1,1)"/>
<circle cx="192" cy="144" r="12" fill="rgb(30,4,4)" opacity="0.35"/>
<circle cx="192" cy="144" r="9" fill="rgb(30,4,4)"/>
<circle cx="216" cy="144" r="12" fill="rgb(33,5,5)" opacity="0.35"/>
<circle cx="216" cy="144" r="9" fill="rgb(33,5,5)"/>
<circle cx="240" cy="144" r="12" fill="rgb(66,3,3)" opacity="0.35"/>
<circle cx="240" cy="144" r="9" fill="rgb(66,3,3)"/>
<circle cx="264" cy="144" r="12" fill="rgb(81,0,0)" opacity="0.35"/>
<circle cx="264" cy="144" r="9" fill="rgb(81,0,0)"/>
<circle cx="288" cy="144" r="12" fill="rgb(36,0,0)" opacity="0.35"/>
<circle cx="288" cy="144" r="9" fill="rgb(36,0,0)"/>
<circle cx="312" cy="144" r="9" fill="#14171c"/>
<circle cx="336" cy="144" r="9" fill="#14171c"/>
<circle cx="360" cy="144" r="12" fill="rgb(254,89,1)" opacity="0.35"/>
<circle cx="360" cy="144" r="9" fill="rgb(254,89,1)"/>
<circle cx="384" cy="144" r="12" fill="rgb(232,104,17)" opacity="0.35"/>
<circle cx="384" cy="144" r="9" fill="rgb(232,104,17)"/>
<circle cx="24" cy="168" r="12" fill="rgb(31,5,5)" opacity="0.35"/>
<circle cx="24" cy="168" r="9" fill="rgb(31,5,5)"/>
<circle cx="48" cy="168" r="9" fill="#14171c"/>
<circle cx="72" cy="168" r="12" fill="rgb(42,6,6)" opacity="0.35"/>
<circle cx="72" cy="168" r="9" fill="rgb(42,6,6)"/>
<circle cx="96" cy="168" r="12" fill="rgb(91,4,4)" opacity="0.35"/>
<circle cx="96" cy="168" r="9" fill="rgb(91,4,4)"/>
<circle cx="120" cy="168" r="12" fill="rgb(46,0,0)" opacity="0.35"/>
<circle cx="120" cy="168" r="9" fill="rgb(46,0,0)"/>
<circle cx="144" cy="168" r="12" fill="rgb(22,2,2)" opacity="0.35"/>
<circle cx="144" cy="168" r="9" fill="rgb(22,2,2)"/>
<circle cx="168" cy="168" r="9" fill="#14171c"/>
<circle cx="192" cy="168" r="9" fill="#14171c"/>
<circle cx="216" cy="168" r="12" fill="rgb(17,3,3)" opacity="0.35"/>
<circle cx="216" cy="168" r="9" fill="rgb(17,3,3)"/>
<circle cx="240" cy="168" r="9" fill="#14171c"/>
<circle cx="264" cy="168" r="12" fill="rgb(31,4,4)" opacity="0.35"/>
<circle cx="264" cy="168" r="9" fill="rgb(31,4,4)"/>
<circle cx="288" cy="168" r="9" fill="#14171c"/>
<circle cx="312" cy="168" r="12" fill="rgb(22,0,0)" opacity="0.35"/>
<circle cx="312" cy="168" r="9" fill="rgb(22,0,0)"/>
<circle cx="336" cy="168" r="9" fill="#14171c"/>
<circle cx="360" cy="168" r="12" fill="rgb(50,13,5)" opacity="0.35"/>
<circle cx="360" cy="168" r="9" fill="rgb(50,13,5)"/>
<circle cx="384" cy="168" r="12" fill="rgb(250,86,2)" opacity="0.35"/>
<circle cx="384" cy="168" r="9" fill="rgb(250,86,2)"/>
<circle cx="24" cy="192" r="12" fill="rgb(100,28,9)" opacity="0.35"/>
<circle cx="24" cy="192" r="9" fill="rgb(100,28,9)"/>
<circle cx="48" cy="192" r="9" fill="#14171c"/>
<circle cx="72" cy="192" r="12" fill="rgb(26,5,5)" opacity="0.35"/>
<circle cx="72" cy="192" r="9" fill="rgb(26,5,5)"/>
<circle cx="96" cy="192" r="12" fill="rgb(85,4,4)" opacity="0.35"/>
<circle cx="96" cy="192" r="9" fill="rgb(85,4,4)"/>
<circle cx="120" cy="192" r="12" fill="rgb(73,2,2)" opacity="0.35"/>
<circle cx="120" cy="192" r="9" fill="rgb(73,2,2)"/>
<circle cx="144" cy="192" r="12" fill="rgb(48,0,0)" opacity="0.35"/>
<circle cx="144" cy="192" r="9" fill="rgb(48,0,0)"/>
<circle cx="168" cy="192" r="9" fill="#14171c"/>
<circle cx="192" cy="192" r="12" fill="rgb(41,0,0)" opacity="0.35"/>
<circle cx="192" cy="192" r="9" fill="rgb(41,0,0)"/>
<circle cx="216" cy="192" r="12" fill="rgb(48,1,1)" opacity="0.35"/>
<circle cx="216" cy="192" r="9" fill="rgb(48,1,1)"/>
<circle cx="240" cy="192" r="9" fill="#14171c"/>
<circle cx="264" cy="192" r="12" fill="rgb(56,5,5)" opacity="0.35"/>
<circle cx="264" cy="192" r="9" fill="rgb(56,5,5)"/>
<circle cx="288" cy="192" r="12" fill="rgb(17,2,2)" opacity="0.35"/>
<circle cx="288" cy="192" r="9" fill="rgb(17,2,2)"/>
<circle cx="312" cy="192" r="12" fill="rgb(49,1,1)" opacity="0.35"/>
<circle cx="312" cy="192" r="9" fill="rgb(49,1,1)"/>
<circle cx="336" cy="192" r="9" fill="#14171c"/>
<circle cx="360" cy="192" r="12" fill="rgb(109,31,8)" opacity="0.35"/>
<circle cx="360" cy="192" r="9" fill="rgb(109,31,8)"/>
<circle cx="384" cy="192" r="12" fill="rgb(255,105,12)" opacity="0.35"/>
<circle cx="384" cy="192" r="9" fill="rgb(255,105,12)"/>
<circle cx="24" cy="216" r="12" fill="rgb(181,78,11)" opacity="0.35"/>
<circle cx="24" cy="216" r="9" fill="rgb(181,78,11)"/>
<circle cx="48" cy="216" r="12" fill="rgb(112,34,6)" opacity="0.35"/>
<circle cx="48" cy="216" r="9" fill="rgb(112,34,6)"/>
<circle cx="72" cy="216" r="12" fill="rgb(70,19,7)" opacity="0.35"/>
<circle cx="72" cy="216" r="9" fill="rgb(70,19,7)"/>
<circle cx="96" cy="216" r="12" fill="rgb(45,6,6)" opacity="0.35"/>
<circle cx="96" cy="216" r="9" fill="rgb(45,6,6)"/>
<circle cx="120" cy="216" r="12" fill="rgb(59,0,0)" opacity="0.35"/>
<circle cx="120" cy="216" r="9" fill="rgb(59,0,0)"/>
<circle cx="144" cy="216" r="12" fill="rgb(21,0,0)" opacity="0.35"/>
<circle cx="144" cy="216" r="9" fill="rgb(21,0,0)"/>
<circle cx="168" cy="216" r="9" fill="#14171c"/>
<circle cx="192" cy="216" r="12" fill="rgb(25,0,0)" opacity="0.35"/>
<circle cx="192" cy="216" r="9" fill="rgb(25,0,0)"/>
<circle cx="216" cy="216" r="12" fill="rgb(25,0,0)" opacity="0.35"/>
<circle cx="216" cy="216" r="9" fill="rgb(25,0,0)"/>
<circle cx="240" cy="216" r="12" fill="rgb(27,1,1)" opacity="0.35"/>
<circle cx="240" cy="216" r="9" fill="rgb(27,1,1)"/>
<circle cx="264" cy="216" r="12" fill="rgb(40,0,0)" opacity="0.35"/>
<circle cx="264" cy="216" r="9" fill="rgb(40,0,0)"/>
<circle cx="288" cy="216" r="12" fill="rgb(23,0,0)" opacity="0.35"/>
<circle cx="288" cy="216" r="9" fill="rgb(23,0,0)"/>
<circle cx="312" cy="216" r="12" fill="rgb(44,0,0)" opacity="0.35"/>
<circle cx="312" cy="216" r="9" fill="rgb(44,0,0)"/>
<circle cx="336" cy="216" r="9" fill="#14171c"/>
<circle cx="360" cy="216" r="9" fill="#14171c"/>
<circle cx="384" cy="216" r="12" fill="rgb(251,96,7)" opacity="0.35"/>
<circle cx="384" cy="216" r="9" fill="rgb(251,96,7)"/>
<circle cx="24" cy="240" r="12" fill="rgb(223,75,5)" opacity="0.35"/>
<circle cx="24" cy="240" r="9" fill="rgb(223,75,5)"/>
<circle cx="48" cy="240" r="12" fill="rgb(135,40,9)" opacity="0.35"/>
<circle cx="48" cy="240" r="9" fill="rgb(135,40,9)"/>
<circle cx="72" cy="240" r="12" fill="rgb(53,14,6)" opacity="0.35"/>
<circle cx="72" cy="240" r="9" fill="rgb(53,14,6)"/>
<circle cx="96" cy="240" r="12" fill="rgb(52,7,7)" opacity="0.35"/>
<circle cx="96" cy="240" r="9" fill="rgb(52,7,7)"/>
<circle cx="120" cy="240" r="12" fill="rgb(24,0,0)" opacity="0.35"/>
<circle cx="120" cy="240" r="9" fill="rgb(24,0,0)"/>
<circle cx="144" cy="240" r="12" fill="rgb(17,0,0)" opacity="0.35"/>
<circle cx="144" cy="240" r="9" fill="rgb(17,0,0)"/>
<circle cx="168" cy="240" r="9" fill="#14171c"/>
<circle cx="192" cy="240" r="9" fill="#14171c"/>
<circle cx="216" cy="240" r="12" fill="rgb(39,0,0)" opacity="0.35"/>
<circle cx="216" cy="240" r="9" fill="rgb(39,0,0)"/>
<circle cx="240" cy="240" r="12" fill="rgb(25,0,0)" opacity="0.35"/>
<circle cx="240" cy="240" r="9" fill="rgb(25,0,0)"/>
<circle cx="264" cy="240" r="12" fill="rgb(26,0,0)" opacity="0.35"/>
<circle cx="264" cy="240" r="9" fill="rgb(26,0,0)"/>
<circle cx="288" cy="240" r="12" fill="rgb(33,0,0)" opacity="0.35"/>
<circle cx="288" cy="240" r="9" fill="rgb(33,0,0)"/>
<circle cx="312" cy="240" r="9" fill="#14171c"/>
<circle cx="336" cy="240" r="9" fill="#14171c"/>
<circle cx="360" cy="240" r="9" fill="#14171c"/>
<circle cx="384" cy="240" r="12" fill="rgb(180,57,8)" opacity="0.35"/>
<circle cx="384" cy="240" r="9" fill="rgb(180,57,8)"/>
<circle cx="24" cy="264" r="12" fill="rgb(25,12,3)" opacity="0.35"/>
<circle cx="24" cy="264" r="9" fill="rgb(25,12,3)"/>
<circle cx="48" cy="264" r="12" fill="rgb(137,49,1)" opacity="0.35"/>
<circle cx="48" cy="264" r="9" fill="rgb(137,49,1)"/>
<circle cx="72" cy="264" r="12" fill="rgb(129,38,9)" opacity="0.35"/>
<circle cx="72" cy="264" r="9" fill="rgb(129,38,9)"/>
<circle cx="96" cy="264" r="12" fill="rgb(30,5,5)" opacity="0.35"/>
<circle cx="96" cy="264" r="9" fill="rgb(30,5,5)"/>
<circle cx="120" cy="264" r="12" fill="rgb(55,0,0)" opacity="0.35"/>
<circle cx="120" cy="264" r="9" fill="rgb(55,0,0)"/>
<circle cx="144" cy="264" r="9" fill="#14171c"/>
<circle cx="168" cy="264" r="9" fill="#14171c"/>
<circle cx="192" cy="264" r="9" fill="#14171c"/>
<circle cx="216" cy="264" r="9" fill="#14171c"/>
<circle cx="240" cy="264" r="12" fill="rgb(20,1,1)" opacity="0.35"/>
<circle cx="240" cy="264" r="9" fill="rgb(20,1,1)"/>
<circle cx="264" cy="264" r="9" fill="#14171c"/>
<circle cx="288" cy="264" r="9" fill="#14171c"/>
<circle cx="312" cy="264" r="9" fill="#14171c"/>
<circle cx="336" cy="264" r="9" fill="#14171c"/>
<circle cx="360" cy="264" r="9" fill="#14171c"/>
<circle cx="384" cy="264" r="12" fill="rgb(80,22,7)" opacity="0.35"/>
<circle cx="384" cy="264" r="9" fill="rgb(80,22,7)"/>
<circle cx="24" cy="288" r="12" fill="rgb(24,12,3)" opacity="0.35"/>
<circle cx="24" cy="288" r="9" fill="rgb(24,12,3)"/>
<circle cx="48" cy="288" r="12" fill="rgb(96,39,4)" opacity="0.35"/>
<circle cx="48" cy="288" r="9" fill="rgb(96,39,4)"/>
<circle cx="72" cy="288" r="12" fill="rgb(108,36,2)" opacity="0.35"/>
<circle cx="72" cy="288" r="9" fill="rgb(108,36,2)"/>
<circle cx="96" cy="288" r="12" fill="rgb(49,7,7)" opacity="0.35"/>
<circle cx="96" cy="288" r="9" fill="rgb(49,7,7)"/>
<circle cx="120" cy="288" r="12" fill="rgb(28,0,0)" opacity="0.35"/>
<circle cx="120" cy="288" r="9" fill="rgb(28,0,0)"/>
<circle cx="144" cy="288" r="9" fill="#14171c"/>
<circle cx="168" cy="288" r="9" fill="#14171c"/>
<circle cx="192" cy="288" r="9" fill="#14171c"/>
<circle cx="216" cy="288" r="9" fill="#14171c"/>
<circle cx="240" cy="288" r="9" fill="#14171c"/>
<circle cx="264" cy="288" r="9" fill="#14171c"/>
<circle cx="288" cy="288" r="9" fill="#14171c"/>
<circle cx="312" cy="288" r="9" fill="#14171c"/>
<circle cx="336" cy="288" r="9" fill="#14171c"/>
<circle cx="360" cy="288" r="9" fill="#14171c"/>
<circle cx="384" cy="288" r="12" fill="rgb(108,31,8)" opacity="0.35"/>
<circle cx="384" cy="288" r="9" fill="rgb(108,31,8)"/>
<circle cx="24" cy="312" r="12" fill="rgb(18,9,2)" opacity="0.35"/>
<circle cx="24" cy="312" r="9" fill="rgb(18,9,2)"/>
<circle cx="48" cy="312" r="12" fill="rgb(59,23,2)" opacity="0.35"/>
<circle cx="48" cy="312" r="9" fill="rgb(59,23,2)"/>
<circle cx="72" cy="312" r="12" fill="rgb(68,23,1)" opacity="0.35"/>
<circle cx="72" cy="312" r="9" fill="rgb(68,23,1)"/>
<circle cx="96" cy="312" r="12" fill="rgb(38,8,7)" opacity="0.35"/>
<circle cx="96" cy="312" r="9" fill="rgb(38,8,7)"/>
<circle cx="120" cy="312" r="9" fill="#14171c"/>
<circle cx="144" cy="312" r="9" fill="#14171c"/>
<circle cx="168" cy="312" r="9" fill="#14171c"/>
<circle cx="192" cy="312" r="9" fill="#14171c"/>
<circle cx="216" cy="312" r="9" fill="#14171c"/>
<circle cx="240" cy="312" r="9" fill="#14171c"/>
<circle cx="264" cy="312" r="9" fill="#14171c"/>
<circle cx="288" cy="312" r="9" fill="#14171c"/>
<circle cx="312" cy="312" r="9" fill="#14171c"/>
<circle cx="336" cy="312" r="9" fill="#14171c"/>
<circle cx="360" cy="312" r="9" fill="#14171c"/>
<circle cx="384" cy="312" r="12" fill="rgb(33,8,4)" opacity="0.35"/>
<circle cx="384" cy="312" r="9" fill="rgb(33,8,4)"/>
<circle cx="24" cy="336" r="12" fill="rgb(55,20,1)" opacity="0.35"/>
<circle cx="24" cy="336" r="9" fill="rgb(55,20,1)"/>
<circle cx="48" cy="336" r="9" fill="#14171c"/>
<circle cx="72" cy="336" r="12" fill="rgb(103,29,9)" opacity="0.35"/>
<circle cx="72" cy="336" r="9" fill="rgb(103,29,9)"/>
<circle cx="96" cy="336" r="12" fill="rgb(20,3,3)" opacity="0.35"/>
<circle cx="96" cy="336" r="9" fill="rgb(20,3,3)"/>
<circle cx="120" cy="336" r="9" fill="#14171c"/>
<circle cx="144" cy="336" r="9" fill="#14171c"/>
<circle cx="168" cy="336" r="12" fill="rgb(74,20,8)" opacity="0.35"/>
<circle cx="168" cy="336" r="9" fill="rgb(74,20,8)"/>
<circle cx="192" cy="336" r="12" fill="rgb(217,68,9)" opacity="0.35"/>
<circle cx="192" cy="336" r="9" fill="rgb(217,68,9)"/>
<circle cx="216" cy="336" r="12" fill="rgb(73,19,7)" opacity="0.35"/>
<circle cx="216" cy="336" r="9" fill="rgb(73,19,7)"/>
<circle cx="240" cy="336" r="9" fill="#14171c"/>
<circle cx="264" cy="336" r="9" fill="#14171c"/>
<circle cx="288" cy="336" r="9" fill="#14171c"/>
<circle cx="312" cy="336" r="9" fill="#14171c"/>
<circle cx="336" cy="336" r="9" fill="#14171c"/>
<circle cx="360" cy="336" r="9" fill="#14171c"/>
<circle cx="384" cy="336" r="9" fill="#14171c"/>
<circle cx="24" cy="360" r="12" fill="rgb(93,32,1)" opacity="0.35"/>
<circle cx="24" cy="360" r="9" fill="rgb(93,32,1)"/>
<circle cx="48" cy="360" r="12" fill="rgb(195,67,2)" opacity="0.35"/>
<circle cx="48" cy="360" r="9" fill="rgb(195,67,2)"/>
<circle cx="72" cy="360" r="12" fill="rgb(182,56,10)" opacity="0.35"/>
<circle cx="72" cy="360" r="9" fill="rgb(182,56,10)"/>
<circle cx="96" cy="360" r="12" fill="rgb(37,10,3)" opacity="0.35"/>
<circle cx="96" cy="360" r="9" fill="rgb(37,10,3)"/>
<circle cx="120" cy="360" r="9" fill="#14171c"/>
<circle cx="144" cy="360" r="12" fill="rgb(23,6,3)" opacity="0.35"/>
<circle cx="144" cy="360" r="9" fill="rgb(23,6,3)"/>
<circle cx="168" cy="360" r="12" fill="rgb(248,85,3)" opacity="0.35"/>
<circle cx="168" cy="360" r="9" fill="rgb(248,85,3)"/>
<circle cx="192" cy="360" r="12" fill="rgb(240,79,7)" opacity="0.35"/>
<circle cx="192" cy="360" r="9" fill="rgb(240,79,7)"/>
<circle cx="216" cy="360" r="12" fill="rgb(208,65,10)" opacity="0.35"/>
<circle cx="216" cy="360" r="9" fill="rgb(208,65,10)"/>
<circle cx="240" cy="360" r="12" fill="rgb(224,88,7)" opacity="0.35"/>
<circle cx="240" cy="360" r="9" fill="rgb(224,88,7)"/>
<circle cx="264" cy="360" r="12" fill="rgb(248,85,3)" opacity="0.35"/>
<circle cx="264" cy="360" r="9" fill="rgb(248,85,3)"/>
<circle cx="288" cy="360" r="12" fill="rgb(59,16,6)" opacity="0.35"/>
<circle cx="288" cy="360" r="9" fill="rgb(59,16,6)"/>
<circle cx="312" cy="360" r="9" fill="#14171c"/>
<circle cx="336" cy="360" r="12" fill="rgb(84,23,8)" opacity="0.35"/>
<circle cx="336" cy="360" r="9" fill="rgb(84,23,8)"/>
<circle cx="360" cy="360" r="9" fill="#14171c"/>
<circle cx="384" cy="360" r="12" fill="rgb(147,42,11)" opacity="0.35"/>
<circle cx="384" cy="360" r="9" fill="rgb(147,42,11)"/>
<circle cx="24" cy="384" r="12" fill="rgb(235,82,1)" opacity="0.35"/>
<circle cx="24" cy="384" r="9" fill="rgb(235,82,1)"/>
<circle cx="48" cy="384" r="12" fill="rgb(201,63,10)" opacity="0.35"/>
<circle cx="48" cy="384" r="9" fill="rgb(201,63,10)"/>
<circle cx="72" cy="384" r="12" fill="rgb(130,39,8)" opacity="0.35"/>
<circle cx="72" cy="384" r="9" fill="rgb(130,39,8)"/>
<circle cx="96" cy="384" r="12" fill="rgb(53,17,2)" opacity="0.35"/>
<circle cx="96" cy="384" r="9" fill="rgb(53,17,2)"/>
<circle cx="120" cy="384" r="12" fill="rgb(95,33,0)" opacity="0.35"/>
<circle cx="120" cy="384" r="9" fill="rgb(95,33,0)"/>
<circle cx="144" cy="384" r="12" fill="rgb(124,69,20)" opacity="0.35"/>
<circle cx="144" cy="384" r="9" fill="rgb(124,69,20)"/>
<circle cx="168" cy="384" r="12" fill="rgb(34,21,7)" opacity="0.35"/>
<circle cx="168" cy="384" r="9" fill="rgb(34,21,7)"/>
<circle cx="192" cy="384" r="12" fill="rgb(98,53,15)" opacity="0.35"/>
<circle cx="192" cy="384" r="9" fill="rgb(98,53,15)"/>
<circle cx="216" cy="384" r="12" fill="rgb(31,18,6)" opacity="0.35"/>
<circle cx="216" cy="384" r="9" fill="rgb(31,18,6)"/>
<circle cx="240" cy="384" r="9" fill="#14171c"/>
<circle cx="264" cy="384" r="12" fill="rgb(114,64,18)" opacity="0.35"/>
<circle cx="264" cy="384" r="9" fill="rgb(114,64,18)"/>
<circle cx="288" cy="384" r="12" fill="rgb(251,87,2)" opacity="0.35"/>
<circle cx="288" cy="384" r="9" fill="rgb(251,87,2)"/>
<circle cx="312" cy="384" r="12" fill="rgb(255,103,10)" opacity="0.35"/>
<circle cx="312" cy="384" r="9" fill="rgb(255,103,10)"/>
<circle cx="336" cy="384" r="12" fill="rgb(169,90,24)" opacity="0.35"/>
<circle cx="336" cy="384" r="9" fill="rgb(169,90,24)"/>
<circle cx="360" cy="384" r="12" fill="rgb(245,83,4)" opacity="0.35"/>
<circle cx="360" cy="384" r="9" fill="rgb(245,83,4)"/>
<circle cx="384" cy="384" r="12" fill="rgb(233,89,5)" opacity="0.35"/>
<circle cx="384" cy="384" r="9" fill="rgb(233,89,5)"/>
</svg>
