<svg xmlns="http://www.w3.org/2000/svg" viewBox="0 0 408 408" width="408" height="408" role="img" aria-label="LED preview of the Vocal Aurora example graph">
<rect width="408" height="408" rx="10" fill="#05070a"/>
<circle cx="24" cy="24" r="12" fill="rgb(40,25,0)" opacity="0.35"/>
<circle cx="24" cy="24" r="9" fill="rgb(40,25,0)"/>
<circle cx="48" cy="24" r="12" fill="rgb(64,41,0)" opacity="0.35"/>
<circle cx="48" cy="24" r="9" fill="rgb(64,41,0)"/>
<circle cx="72" cy="24" r="12" fill="rgb(94,59,0)" opacity="0.35"/>
<circle cx="72" cy="24" r="9" fill="rgb(94,59,0)"/>
<circle cx="96" cy="24" r="12" fill="rgb(126,79,0)" opacity="0.35"/>
<circle cx="96" cy="24" r="9" fill="rgb(126,79,0)"/>
<circle cx="120" cy="24" r="12" fill="rgb(153,97,0)" opacity="0.35"/>
<circle cx="120" cy="24" r="9" fill="rgb(153,97,0)"/>
<circle cx="144" cy="24" r="12" fill="rgb(171,108,0)" opacity="0.35"/>
<circle cx="144" cy="24" r="9" fill="rgb(171,108,0)"/>
<circle cx="168" cy="24" r="12" fill="rgb(174,110,0)" opacity="0.35"/>
<circle cx="168" cy="24" r="9" fill="rgb(174,110,0)"/>
<circle cx="192" cy="24" r="12" fill="rgb(164,104,0)" opacity="0.35"/>
<circle cx="192" cy="24" r="9" fill="rgb(164,104,0)"/>
<circle cx="216" cy="24" r="12" fill="rgb(146,92,0)" opacity="0.35"/>
<circle cx="216" cy="24" r="9" fill="rgb(146,92,0)"/>
<circle cx="240" cy="24" r="12" fill="rgb(125,79,0)" opacity="0.35"/>
<circle cx="240" cy="24" r="9" fill="rgb(125,79,0)"/>
<circle cx="264" cy="24" r="12" fill="rgb(110,69,0)" opacity="0.35"/>
<circle cx="264" cy="24" r="9" fill="rgb(110,69,0)"/>
<circle cx="288" cy="24" r="12" fill="rgb(103,65,0)" opacity="0.35"/>
<circle cx="288" cy="24" r="9" fill="rgb(103,65,0)"/>
<circle cx="312" cy="24" r="12" fill="rgb(103,65,0)" opacity="0.35"/>
<circle cx="312" cy="24" r="9" fill="rgb(103,65,0)"/>
<circle cx="336" cy="24" r="12" fill="rgb(106,67,0)" opacity="0.35"/>
<circle cx="336" cy="24" r="9" fill="rgb(106,67,0)"/>
<circle cx="360" cy="24" r="12" fill="rgb(108,68,0)" opacity="0.35"/>
<circle cx="360" cy="24" r="9" fill="rgb(108,68,0)"/>
<circle cx="384" cy="24" r="12" fill="rgb(104,66,0)" opacity="0.35"/>
<circle cx="384" cy="24" r="9" fill="rgb(104,66,0)"/>
<circle cx="24" cy="48" r="12" fill="rgb(50,36,0)" opacity="0.35"/>
<circle cx="24" cy="48" r="9" fill="rgb(50,36,0)"/>
<circle cx="48" cy="48" r="12" fill="rgb(77,55,0)" opacity="0.35"/>
<circle cx="48" cy="48" r="9" fill="rgb(77,55,0)"/>
<circle cx="72" cy="48" r="12" fill="rgb(108,77,0)" opacity="0.35"/>
<circle cx="72" cy="48" r="9" fill="rgb(108,77,0)"/>
<circle cx="96" cy="48" r="12" fill="rgb(140,100,0)" opacity="0.35"/>
<circle cx="96" cy="48" r="9" fill="rgb(140,100,0)"/>
<circle cx="120" cy="48" r="12" fill="rgb(166,118,0)" opacity="0.35"/>
<circle cx="120" cy="48" r="9" fill="rgb(166,118,0)"/>
<circle cx="144" cy="48" r="12" fill="rgb(174,124,0)" opacity="0.35"/>
<circle cx="144" cy="48" r="9" fill="rgb(174,124,0)"/>
<circle cx="168" cy="48" r="12" fill="rgb(174,124,0)" opacity="0.35"/>
<circle cx="168" cy="48" r="9" fill="rgb(174,124,0)"/>
<circle cx="192" cy="48" r="12" fill="rgb(170,122,0)" opacity="0.35"/>
<circle cx="192" cy="48" r="9" fill="rgb(170,122,0)"/>
<circle cx="216" cy="48" r="12" fill="rgb(149,107,0)" opacity="0.35"/>
<circle cx="216" cy="48" r="9" fill="rgb(149,107,0)"/>
<circle cx="240" cy="48" r="12" fill="rgb(126,90,0)" opacity="0.35"/>
<circle cx="240" cy="48" r="9" fill="rgb(126,90,0)"/>
<circle cx="264" cy="48" r="12" fill="rgb(106,76,0)" opacity="0.35"/>
<circle cx="264" cy="48" r="9" fill="rgb(106,76,0)"/>
<circle cx="288" cy="48" r="12" fill="rgb(95,67,0)" opacity="0.35"/>
<circle cx="288" cy="48" r="9" fill="rgb(95,67,0)"/>
<circle cx="312" cy="48" r="12" fill="rgb(92,65,0)" opacity="0.35"/>
<circle cx="312" cy="48" r="9" fill="rgb(92,65,0)"/>
<circle cx="336" cy="48" r="12" fill="rgb(95,68,0)" opacity="0.35"/>
<circle cx="336" cy="48" r="9" fill="rgb(95,68,0)"/>
<circle cx="360" cy="48" r="12" fill="rgb(99,71,0)" opacity="0.35"/>
<circle cx="360" cy="48" r="9" fill="rgb(99,71,0)"/>
<circle cx="384" cy="48" r="12" fill="rgb(100,71,0)" opacity="0.35"/>
<circle cx="384" cy="48" r="9" fill="rgb(100,71,0)"/>
<circle cx="24" cy="72" r="12" fill="rgb(64,51,0)" opacity="0.35"/>
<circle cx="24" cy="72" r="9" fill="rgb(64,51,0)"/>
<circle cx="48" cy="72" r="12" fill="rgb(88,70,0)" opacity="0.35"/>
<circle cx="48" cy="72" r="9" fill="rgb(88,70,0)"/>
<circle cx="72" cy="72" r="12" fill="rgb(111,89,0)" opacity="0.35"/>
<circle cx="72" cy="72" r="9" fill="rgb(111,89,0)"/>
<circle cx="96" cy="72" r="12" fill="rgb(132,106,0)" opacity="0.35"/>
<circle cx="96" cy="72" r="9" fill="rgb(132,106,0)"/>
<circle cx="120" cy="72" r="12" fill="rgb(148,118,0)" opacity="0.35"/>
<circle cx="120" cy="72" r="9" fill="rgb(148,118,0)"/>
<circle cx="144" cy="72" r="12" fill="rgb(157,125,0)" opacity="0.35"/>
<circle cx="144" cy="72" r="9" fill="rgb(157,125,0)"/>
<circle cx="168" cy="72" r="12" fill="rgb(158,127,0)" opacity="0.35"/>
<circle cx="168" cy="72" r="9" fill="rgb(158,127,0)"/>
<circle cx="192" cy="72" r="12" fill="rgb(153,123,0)" opacity="0.35"/>
<circle cx="192" cy="72" r="9" fill="rgb(153,123,0)"/>
<circle cx="216" cy="72" r="12" fill="rgb(143,115,0)" opacity="0.35"/>
<circle cx="216" cy="72" r="9" fill="rgb(143,115,0)"/>
<circle cx="240" cy="72" r="12" fill="rgb(130,104,0)" opacity="0.35"/>
<circle cx="240" cy="72" r="9" fill="rgb(130,104,0)"/>
<circle cx="264" cy="72" r="12" fill="rgb(116,93,0)" opacity="0.35"/>
<circle cx="264" cy="72" r="9" fill="rgb(116,93,0)"/>
<circle cx="288" cy="72" r="12" fill="rgb(104,83,0)" opacity="0.35"/>
<circle cx="288" cy="72" r="9" fill="rgb(104,83,0)"/>
<circle cx="312" cy="72" r="12" fill="rgb(97,78,0)" opacity="0.35"/>
<circle cx="312" cy="72" r="9" fill="rgb(97,78,0)"/>
<circle cx="336" cy="72" r="12" fill="rgb(95,76,0)" opacity="0.35"/>
<circle cx="336" cy="72" r="9" fill="rgb(95,76,0)"/>
<circle cx="360" cy="72" r="12" fill="rgb(94,75,0)" opacity="0.35"/>
<circle cx="360" cy="72" r="9" fill="rgb(94,75,0)"/>
<circle cx="384" cy="72" r="12" fill="rgb(93,74,0)" opacity="0.35"/>
<circle cx="384" cy="72" r="9" fill="rgb(93,74,0)"/>
<circle cx="24" cy="96" r="12" fill="rgb(63,61,3)" opacity="0.35"/>
<circle cx="24" cy="96" r="9" fill="rgb(63,61,3)"/>
<circle cx="48" cy="96" r="12" fill="rgb(77,75,4)" opacity="0.35"/>
<circle cx="48" cy="96" r="9" fill="rgb(77,75,4)"/>
<circle cx="72" cy="96" r="12" fill="rgb(88,85,5)" opacity="0.35"/>
<circle cx="72" cy="96" r="9" fill="rgb(88,85,5)"/>
<circle cx="96" cy="96" r="12" fill="rgb(95,92,5)" opacity="0.35"/>
<circle cx="96" cy="96" r="9" fill="rgb(95,92,5)"/>
<circle cx="120" cy="96" r="12" fill="rgb(98,95,5)" opacity="0.35"/>
<circle cx="120" cy="96" r="9" fill="rgb(98,95,5)"/>
<circle cx="144" cy="96" r="12" fill="rgb(99,96,5)" opacity="0.35"/>
<circle cx="144" cy="96" r="9" fill="rgb(99,96,5)"/>
<circle cx="168" cy="96" r="12" fill="rgb(100,97,6)" opacity="0.35"/>
<circle cx="168" cy="96" r="9" fill="rgb(100,97,6)"/>
<circle cx="192" cy="96" r="12" fill="rgb(103,99,6)" opacity="0.35"/>
<circle cx="192" cy="96" r="9" fill="rgb(103,99,6)"/>
<circle cx="216" cy="96" r="12" fill="rgb(106,102,6)" opacity="0.35"/>
<circle cx="216" cy="96" r="9" fill="rgb(106,102,6)"/>
<circle cx="240" cy="96" r="12" fill="rgb(107,104,6)" opacity="0.35"/>
<circle cx="240" cy="96" r="9" fill="rgb(107,104,6)"/>
<circle cx="264" cy="96" r="12" fill="rgb(106,102,6)" opacity="0.35"/>
<circle cx="264" cy="96" r="9" fill="rgb(106,102,6)"/>
<circle cx="288" cy="96" r="12" fill="rgb(102,99,6)" opacity="0.35"/>
<circle cx="288" cy="96" r="9" fill="rgb(102,99,6)"/>
<circle cx="312" cy="96" r="12" fill="rgb(96,93,5)" opacity="0.35"/>
<circle cx="312" cy="96" r="9" fill="rgb(96,93,5)"/>
<circle cx="336" cy="96" r="12" fill="rgb(90,87,5)" opacity="0.35"/>
<circle cx="336" cy="96" r="9" fill="rgb(90,87,5)"/>
<circle cx="360" cy="96" r="12" fill="rgb(83,81,5)" opacity="0.35"/>
<circle cx="360" cy="96" r="9" fill="rgb(83,81,5)"/>
<circle cx="384" cy="96" r="12" fill="rgb(77,74,4)" opacity="0.35"/>
<circle cx="384" cy="96" r="9" fill="rgb(77,74,4)"/>
<circle cx="24" cy="120" r="12" fill="rgb(45,59,9)" opacity="0.35"/>
<circle cx="24" cy="120" r="9" fill="rgb(45,59,9)"/>
<circle cx="48" cy="120" r="12" fill="rgb(51,68,10)" opacity="0.35"/>
<circle cx="48" cy="120" r="9" fill="rgb(51,68,10)"/>
<circle cx="72" cy="120" r="12" fill="rgb(54,71,11)" opacity="0.35"/>
<circle cx="72" cy="120" r="9" fill="rgb(54,71,11)"/>
<circle cx="96" cy="120" r="12" fill="rgb(53,70,11)" opacity="0.35"/>
<circle cx="96" cy="120" r="9" fill="rgb(53,70,11)"/>
<circle cx="120" cy="120" r="12" fill="rgb(50,66,10)" opacity="0.35"/>
<circle cx="120" cy="120" r="9" fill="rgb(50,66,10)"/>
<circle cx="144" cy="120" r="12" fill="rgb(48,63,10)" opacity="0.35"/>
<circle cx="144" cy="120" r="9" fill="rgb(48,63,10)"/>
<circle cx="168" cy="120" r="12" fill="rgb(47,63,10)" opacity="0.35"/>
<circle cx="168" cy="120" r="9" fill="rgb(47,63,10)"/>
<circle cx="192" cy="120" r="12" fill="rgb(51,68,10)" opacity="0.35"/>
<circle cx="192" cy="120" r="9" fill="rgb(51,68,10)"/>
<circle cx="216" cy="120" r="12" fill="rgb(58,76,12)" opacity="0.35"/>
<circle cx="216" cy="120" r="9" fill="rgb(58,76,12)"/>
<circle cx="240" cy="120" r="12" fill="rgb(66,87,13)" opacity="0.35"/>
<circle cx="240" cy="120" r="9" fill="rgb(66,87,13)"/>
<circle cx="264" cy="120" r="12" fill="rgb(72,96,15)" opacity="0.35"/>
<circle cx="264" cy="120" r="9" fill="rgb(72,96,15)"/>
<circle cx="288" cy="120" r="12" fill="rgb(76,101,15)" opacity="0.35"/>
<circle cx="288" cy="120" r="9" fill="rgb(76,101,15)"/>
<circle cx="312" cy="120" r="12" fill="rgb(75,100,15)" opacity="0.35"/>
<circle cx="312" cy="120" r="9" fill="rgb(75,100,15)"/>
<circle cx="336" cy="120" r="12" fill="rgb(71,94,15)" opacity="0.35"/>
<circle cx="336" cy="120" r="9" fill="rgb(71,94,15)"/>
<circle cx="360" cy="120" r="12" fill="rgb(64,85,13)" opacity="0.35"/>
<circle cx="360" cy="120" r="9" fill="rgb(64,85,13)"/>
<circle cx="384" cy="120" r="12" fill="rgb(56,74,11)" opacity="0.35"/>
<circle cx="384" cy="120" r="9" fill="rgb(56,74,11)"/>
<circle cx="24" cy="144" r="12" fill="rgb(24,51,13)" opacity="0.35"/>
<circle cx="24" cy="144" r="9" fill="rgb(24,51,13)"/>
<circle cx="48" cy="144" r="12" fill="rgb(26,55,14)" opacity="0.35"/>
<circle cx="48" cy="144" r="9" fill="rgb(26,55,14)"/>
<circle cx="72" cy="144" r="12" fill="rgb(26,55,14)" opacity="0.35"/>
<circle cx="72" cy="144" r="9" fill="rgb(26,55,14)"/>
<circle cx="96" cy="144" r="12" fill="rgb(24,51,13)" opacity="0.35"/>
<circle cx="96" cy="144" r="9" fill="rgb(24,51,13)"/>
<circle cx="120" cy="144" r="12" fill="rgb(21,45,11)" opacity="0.35"/>
<circle cx="120" cy="144" r="9" fill="rgb(21,45,11)"/>
<circle cx="144" cy="144" r="12" fill="rgb(19,40,10)" opacity="0.35"/>
<circle cx="144" cy="144" r="9" fill="rgb(19,40,10)"/>
<circle cx="168" cy="144" r="12" fill="rgb(18,38,10)" opacity="0.35"/>
<circle cx="168" cy="144" r="9" fill="rgb(18,38,10)"/>
<circle cx="192" cy="144" r="12" fill="rgb(20,42,11)" opacity="0.35"/>
<circle cx="192" cy="144" r="9" fill="rgb(20,42,11)"/>
<circle cx="216" cy="144" r="12" fill="rgb(24,51,13)" opacity="0.35"/>
<circle cx="216" cy="144" r="9" fill="rgb(24,51,13)"/>
<circle cx="240" cy="144" r="12" fill="rgb(30,64,16)" opacity="0.35"/>
<circle cx="240" cy="144" r="9" fill="rgb(30,64,16)"/>
<circle cx="264" cy="144" r="12" fill="rgb(37,78,20)" opacity="0.35"/>
<circle cx="264" cy="144" r="9" fill="rgb(37,78,20)"/>
<circle cx="288" cy="144" r="12" fill="rgb(42,89,23)" opacity="0.35"/>
<circle cx="288" cy="144" r="9" fill="rgb(42,89,23)"/>
<circle cx="312" cy="144" r="12" fill="rgb(44,94,24)" opacity="0.35"/>
<circle cx="312" cy="144" r="9" fill="rgb(44,94,24)"/>
<circle cx="336" cy="144" r="12" fill="rgb(43,93,24)" opacity="0.35"/>
<circle cx="336" cy="144" r="9" fill="rgb(43,93,24)"/>
<circle cx="360" cy="144" r="12" fill="rgb(40,85,22)" opacity="0.35"/>
<circle cx="360" cy="144" r="9" fill="rgb(40,85,22)"/>
<circle cx="384" cy="144" r="12" fill="rgb(34,72,18)" opacity="0.35"/>
<circle cx="384" cy="144" r="9" fill="rgb(34,72,18)"/>
<circle cx="24" cy="168" r="12" fill="rgb(7,38,14)" opacity="0.35"/>
<circle cx="24" cy="168" r="9" fill="rgb(7,38,14)"/>
<circle cx="48" cy="168" r="12" fill="rgb(7,41,15)" opacity="0.35"/>
<circle cx="48" cy="168" r="9" fill="rgb(7,41,15)"/>
<circle cx="72" cy="168" r="12" fill="rgb(7,40,14)" opacity="0.35"/>
<circle cx="72" cy="168" r="9" fill="rgb(7,40,14)"/>
<circle cx="96" cy="168" r="12" fill="rgb(6,36,13)" opacity="0.35"/>
<circle cx="96" cy="168" r="9" fill="rgb(6,36,13)"/>
<circle cx="120" cy="168" r="12" fill="rgb(5,30,11)" opacity="0.35"/>
<circle cx="120" cy="168" r="9" fill="rgb(5,30,11)"/>
<circle cx="144" cy="168" r="12" fill="rgb(4,25,9)" opacity="0.35"/>
<circle cx="144" cy="168" r="9" fill="rgb(4,25,9)"/>
<circle cx="168" cy="168" r="12" fill="rgb(4,23,8)" opacity="0.35"/>
<circle cx="168" cy="168" r="9" fill="rgb(4,23,8)"/>
<circle cx="192" cy="168" r="12" fill="rgb(4,25,9)" opacity="0.35"/>
<circle cx="192" cy="168" r="9" fill="rgb(4,25,9)"/>
<circle cx="216" cy="168" r="12" fill="rgb(6,32,12)" opacity="0.35"/>
<circle cx="216" cy="168" r="9" fill="rgb(6,32,12)"/>
<circle cx="240" cy="168" r="12" fill="rgb(8,43,15)" opacity="0.35"/>
<circle cx="240" cy="168" r="9" fill="rgb(8,43,15)"/>
<circle cx="264" cy="168" r="12" fill="rgb(10,57,20)" opacity="0.35"/>
<circle cx="264" cy="168" r="9" fill="rgb(10,57,20)"/>
<circle cx="288" cy="168" r="12" fill="rgb(12,69,25)" opacity="0.35"/>
<circle cx="288" cy="168" r="9" fill="rgb(12,69,25)"/>
<circle cx="312" cy="168" r="12" fill="rgb(13,77,28)" opacity="0.35"/>
<circle cx="312" cy="168" r="9" fill="rgb(13,77,28)"/>
<circle cx="336" cy="168" r="12" fill="rgb(14,80,28)" opacity="0.35"/>
<circle cx="336" cy="168" r="9" fill="rgb(14,80,28)"/>
<circle cx="360" cy="168" r="12" fill="rgb(13,75,27)" opacity="0.35"/>
<circle cx="360" cy="168" r="9" fill="rgb(13,75,27)"/>
<circle cx="384" cy="168" r="12" fill="rgb(11,65,23)" opacity="0.35"/>
<circle cx="384" cy="168" r="9" fill="rgb(11,65,23)"/>
<circle cx="24" cy="192" r="12" fill="rgb(0,25,13)" opacity="0.35"/>
<circle cx="24" cy="192" r="9" fill="rgb(0,25,13)"/>
<circle cx="48" cy="192" r="12" fill="rgb(0,26,13)" opacity="0.35"/>
<circle cx="48" cy="192" r="9" fill="rgb(0,26,13)"/>
<circle cx="72" cy="192" r="12" fill="rgb(0,26,13)" opacity="0.35"/>
<circle cx="72" cy="192" r="9" fill="rgb(0,26,13)"/>
<circle cx="96" cy="192" r="12" fill="rgb(0,23,12)" opacity="0.35"/>
<circle cx="96" cy="192" r="9" fill="rgb(0,23,12)"/>
<circle cx="120" cy="192" r="12" fill="rgb(0,20,10)" opacity="0.35"/>
<circle cx="120" cy="192" r="9" fill="rgb(0,20,10)"/>
<circle cx="144" cy="192" r="9" fill="#14171c"/>
<circle cx="168" cy="192" r="9" fill="#14171c"/>
<circle cx="192" cy="192" r="9" fill="#14171c"/>
<circle cx="216" cy="192" r="12" fill="rgb(0,19,10)" opacity="0.35"/>
<circle cx="216" cy="192" r="9" fill="rgb(0,19,10)"/>
<circle cx="240" cy="192" r="12" fill="rgb(0,27,14)" opacity="0.35"/>
<circle cx="240" cy="192" r="9" fill="rgb(0,27,14)"/>
<circle cx="264" cy="192" r="12" fill="rgb(0,37,19)" opacity="0.35"/>
<circle cx="264" cy="192" r="9" fill="rgb(0,37,19)"/>
<circle cx="288" cy="192" r="12" fill="rgb(0,47,24)" opacity="0.35"/>
<circle cx="288" cy="192" r="9" fill="rgb(0,47,24)"/>
<circle cx="312" cy="192" r="12" fill="rgb(0,55,28)" opacity="0.35"/>
<circle cx="312" cy="192" r="9" fill="rgb(0,55,28)"/>
<circle cx="336" cy="192" r="12" fill="rgb(0,59,30)" opacity="0.35"/>
<circle cx="336" cy="192" r="9" fill="rgb(0,59,30)"/>
<circle cx="360" cy="192" r="12" fill="rgb(0,58,29)" opacity="0.35"/>
<circle cx="360" cy="192" r="9" fill="rgb(0,58,29)"/>
<circle cx="384" cy="192" r="12" fill="rgb(0,51,26)" opacity="0.35"/>
<circle cx="384" cy="192" r="9" fill="rgb(0,51,26)"/>
<circle cx="24" cy="216" r="9" fill="#14171c"/>
<circle cx="48" cy="216" r="9" fill="#14171c"/>
<circle cx="72" cy="216" r="9" fill="#14171c"/>
<circle cx="96" cy="216" r="9" fill="#14171c"/>
<circle cx="120" cy="216" r="9" fill="#14171c"/>
<circle cx="144" cy="216" r="9" fill="#14171c"/>
<circle cx="168" cy="216" r="9" fill="#14171c"/>
<circle cx="192" cy="216" r="9" fill="#14171c"/>
<circle cx="216" cy="216" r="9" fill="#14171c"/>
<circle cx="240" cy="216" r="9" fill="#14171c"/>
<circle cx="264" cy="216" r="12" fill="rgb(0,22,16)" opacity="0.35"/>
<circle cx="264" cy="216" r="9" fill="rgb(0,22,16)"/>
<circle cx="288" cy="216" r="12" fill="rgb(0,29,21)" opacity="0.35"/>
<circle cx="288" cy="216" r="9" fill="rgb(0,29,21)"/>
<circle cx="312" cy="216" r="12" fill="rgb(0,35,26)" opacity="0.35"/>
<circle cx="312" cy="216" r="9" fill="rgb(0,35,26)"/>
<circle cx="336" cy="216" r="12" fill="rgb(0,39,29)" opacity="0.35"/>
<circle cx="336" cy="216" r="9" fill="rgb(0,39,29)"/>
<circle cx="360" cy="216" r="12" fill="rgb(0,40,29)" opacity="0.35"/>
<circle cx="360" cy="216" r="9" fill="rgb(0,40,29)"/>
<circle cx="384" cy="216" r="12" fill="rgb(0,37,27)" opacity="0.35"/>
<circle cx="384" cy="216" r="9" fill="rgb(0,37,27)"/>
<circle cx="24" cy="240" r="9" fill="#14171c"/>
<circle cx="48" cy="240" r="9" fill="#14171c"/>
<circle cx="72" cy="240" r="9" fill="#14171c"/>
<circle cx="96" cy="240" r="9" fill="#14171c"/>
<circle cx="120" cy="240" r="9" fill="#14171c"/>
<circle cx="144" cy="240" r="9" fill="#14171c"/>
<circle cx="168" cy="240" r="9" fill="#14171c"/>
<circle cx="192" cy="240" r="9" fill="#14171c"/>
<circle cx="216" cy="240" r="9" fill="#14171c"/>
<circle cx="240" cy="240" r="9" fill="#14171c"/>
<circle cx="264" cy="240" r="9" fill="#14171c"/>
<circle cx="288" cy="240" r="12" fill="rgb(0,18,17)" opacity="0.35"/>
<circle cx="288" cy="240" r="9" fill="rgb(0,18,17)"/>
<circle cx="312" cy="240" r="12" fill="rgb(0,22,22)" opacity="0.35"/>
<circle cx="312" cy="240" r="9" fill="rgb(0,22,22)"/>
<circle cx="336" cy="240" r="12" fill="rgb(0,25,24)" opacity="0.35"/>
<circle cx="336" cy="240" r="9" fill="rgb(0,25,24)"/>
<circle cx="360" cy="240" r="12" fill="rgb(0,26,25)" opacity="0.35"/>
<circle cx="360" cy="240" r="9" fill="rgb(0,26,25)"/>
<circle cx="384" cy="240" r="12" fill="rgb(0,24,24)" opacity="0.35"/>
<circle cx="384" cy="240" r="9" fill="rgb(0,24,24)"/>
<circle cx="24" cy="264" r="9" fill="#14171c"/>
<circle cx="48" cy="264" r="9" fill="#14171c"/>
<circle cx="72" cy="264" r="9" fill="#14171c"/>
<circle cx="96" cy="264" r="9" fill="#14171c"/>
<circle cx="120" cy="264" r="9" fill="#14171c"/>
<circle cx="144" cy="264" r="9" fill="#14171c"/>
<circle cx="168" cy="264" r="9" fill="#14171c"/>
<circle cx="192" cy="264" r="9" fill="#14171c"/>
<circle cx="216" cy="264" r="9" fill="#14171c"/>
<circle cx="240" cy="264" r="9" fill="#14171c"/>
<circle cx="264" cy="264" r="9" fill="#14171c"/>
<circle cx="288" cy="264" r="12" fill="rgb(0,14,17)" opacity="0.35"/>
<circle cx="288" cy="264" r="9" fill="rgb(0,14,17)"/>
<circle cx="312" cy="264" r="12" fill="rgb(0,15,19)" opacity="0.35"/>
<circle cx="312" cy="264" r="9" fill="rgb(0,15,19)"/>
<circle cx="336" cy="264" r="12" fill="rgb(0,16,20)" opacity="0.35"/>
<circle cx="336" cy="264" r="9" fill="rgb(0,16,20)"/>
<circle cx="360" cy="264" r="12" fill="rgb(0,16,20)" opacity="0.35"/>
<circle cx="360" cy="264" r="9" fill="rgb(0,16,20)"/>
<circle cx="384" cy="264" r="12" fill="rgb(0,14,18)" opacity="0.35"/>
<circle cx="384" cy="264" r="9" fill="rgb(0,14,18)"/>
<circle cx="24" cy="288" r="9" fill="#14171c"/>
<circle cx="48" cy="288" r="9" fill="#14171c"/>
<circle cx="72" cy="288" r="9" fill="#14171c"/>
<circle cx="96" cy="288" r="9" fill="#14171c"/>
<circle cx="120" cy="288" r="9" fill="#14171c"/>
<circle cx="144" cy="288" r="9" fill="#14171c"/>
<circle cx="168" cy="288" r="9" fill="#14171c"/>
<circle cx="192" cy="288" r="9" fill="#14171c"/>
<circle cx="216" cy="288" r="12" fill="rgb(0,12,18)" opacity="0.35"/>
<circle cx="216" cy="288" r="9" fill="rgb(0,12,18)"/>
<circle cx="240" cy="288" r="12" fill="rgb(0,13,20)" opacity="0.35"/>
<circle cx="240" cy="288" r="9" fill="rgb(0,13,20)"/>
<circle cx="264" cy="288" r="12" fill="rgb(0,14,20)" opacity="0.35"/>
<circle cx="264" cy="288" r="9" fill="rgb(0,14,20)"/>
<circle cx="288" cy="288" r="12" fill="rgb(0,13,20)" opacity="0.35"/>
<circle cx="288" cy="288" r="9" fill="rgb(0,13,20)"/>
<circle cx="312" cy="288" r="12" fill="rgb(0,12,18)" opacity="0.35"/>
<circle cx="312" cy="288" r="9" fill="rgb(0,12,18)"/>
<circle cx="336" cy="288" r="9" fill="#14171c"/>
<circle cx="360" cy="288" r="9" fill="#14171c"/>
<circle cx="384" cy="288" r="9" fill="#14171c"/>
<circle cx="24" cy="312" r="9" fill="#14171c"/>
<circle cx="48" cy="312" r="9" fill="#14171c"/>
<circle cx="72" cy="312" r="9" fill="#14171c"/>
<circle cx="96" cy="312" r="12" fill="rgb(1,10,17)" opacity="0.35"/>
<circle cx="96" cy="312" r="9" fill="rgb(1,10,17)"/>
<circle cx="120" cy="312" r="12" fill="rgb(1,13,23)" opacity="0.35"/>
<circle cx="120" cy="312" r="9" fill="rgb(1,13,23)"/>
<circle cx="144" cy="312" r="12" fill="rgb(2,17,29)" opacity="0.35"/>
<circle cx="144" cy="312" r="9" fill="rgb(2,17,29)"/>
<circle cx="168" cy="312" r="12" fill="rgb(2,20,34)" opacity="0.35"/>
<circle cx="168" cy="312" r="9" fill="rgb(2,20,34)"/>
<circle cx="192" cy="312" r="12" fill="rgb(2,21,36)" opacity="0.35"/>
<circle cx="192" cy="312" r="9" fill="rgb(2,21,36)"/>
<circle cx="216" cy="312" r="12" fill="rgb(2,21,36)" opacity="0.35"/>
<circle cx="216" cy="312" r="9" fill="rgb(2,21,36)"/>
<circle cx="240" cy="312" r="12" fill="rgb(2,19,32)" opacity="0.35"/>
<circle cx="240" cy="312" r="9" fill="rgb(2,19,32)"/>
<circle cx="264" cy="312" r="12" fill="rgb(2,16,27)" opacity="0.35"/>
<circle cx="264" cy="312" r="9" fill="rgb(2,16,27)"/>
<circle cx="288" cy="312" r="12" fill="rgb(1,12,21)" opacity="0.35"/>
<circle cx="288" cy="312" r="9" fill="rgb(1,12,21)"/>
<circle cx="312" cy="312" r="9" fill="#14171c"/>
<circle cx="336" cy="312" r="9" fill="#14171c"/>
<circle cx="360" cy="312" r="9" fill="#14171c"/>
<circle cx="384" cy="312" r="9" fill="#14171c"/>
<circle cx="24" cy="336" r="9" fill="#14171c"/>
<circle cx="48" cy="336" r="12" fill="rgb(2,8,17)" opacity="0.35"/>
<circle cx="48" cy="336" r="9" fill="rgb(2,8,17)"/>
<circle cx="72" cy="336" r="12" fill="rgb(3,13,27)" opacity="0.35"/>
<circle cx="72" cy="336" r="9" fill="rgb(3,13,27)"/>
<circle cx="96" cy="336" r="12" fill="rgb(4,19,39)" opacity="0.35"/>
<circle cx="96" cy="336" r="9" fill="rgb(4,19,39)"/>
<circle cx="120" cy="336" r="12" fill="rgb(5,25,51)" opacity="0.35"/>
<circle cx="120" cy="336" r="9" fill="rgb(5,25,51)"/>
<circle cx="144" cy="336" r="12" fill="rgb(6,29,60)" opacity="0.35"/>
<circle cx="144" cy="336" r="9" fill="rgb(6,29,60)"/>
<circle cx="168" cy="336" r="12" fill="rgb(7,32,65)" opacity="0.35"/>
<circle cx="168" cy="336" r="9" fill="rgb(7,32,65)"/>
<circle cx="192" cy="336" r="12" fill="rgb(7,31,64)" opacity="0.35"/>
<circle cx="192" cy="336" r="9" fill="rgb(7,31,64)"/>
<circle cx="216" cy="336" r="12" fill="rgb(6,28,57)" opacity="0.35"/>
<circle cx="216" cy="336" r="9" fill="rgb(6,28,57)"/>
<circle cx="240" cy="336" r="12" fill="rgb(5,23,47)" opacity="0.35"/>
<circle cx="240" cy="336" r="9" fill="rgb(5,23,47)"/>
<circle cx="264" cy="336" r="12" fill="rgb(4,17,35)" opacity="0.35"/>
<circle cx="264" cy="336" r="9" fill="rgb(4,17,35)"/>
<circle cx="288" cy="336" r="12" fill="rgb(2,12,24)" opacity="0.35"/>
<circle cx="288" cy="336" r="9" fill="rgb(2,12,24)"/>
<circle cx="312" cy="336" r="9" fill="#14171c"/>
<circle cx="336" cy="336" r="9" fill="#14171c"/>
<circle cx="360" cy="336" r="9" fill="#14171c"/>
<circle cx="384" cy="336" r="9" fill="#14171c"/>
<circle cx="24" cy="360" r="12" fill="rgb(3,8,20)" opacity="0.35"/>
<circle cx="24" cy="360" r="9" fill="rgb(3,8,20)"/>
<circle cx="48" cy="360" r="12" fill="rgb(5,13,33)" opacity="0.35"/>
<circle cx="48" cy="360" r="9" fill="rgb(5,13,33)"/>
<circle cx="72" cy="360" r="12" fill="rgb(7,19,48)" opacity="0.35"/>
<circle cx="72" cy="360" r="9" fill="rgb(7,19,48)"/>
<circle cx="96" cy="360" r="12" fill="rgb(10,26,65)" opacity="0.35"/>
<circle cx="96" cy="360" r="9" fill="rgb(10,26,65)"/>
<circle cx="120" cy="360" r="12" fill="rgb(12,32,81)" opacity="0.35"/>
<circle cx="120" cy="360" r="9" fill="rgb(12,32,81)"/>
<circle cx="144" cy="360" r="12" fill="rgb(14,36,92)" opacity="0.35"/>
<circle cx="144" cy="360" r="9" fill="rgb(14,36,92)"/>
<circle cx="168" cy="360" r="12" fill="rgb(14,38,96)" opacity="0.35"/>
<circle cx="168" cy="360" r="9" fill="rgb(14,38,96)"/>
<circle cx="192" cy="360" r="12" fill="rgb(14,36,92)" opacity="0.35"/>
<circle cx="192" cy="360" r="9" fill="rgb(14,36,92)"/>
<circle cx="216" cy="360" r="12" fill="rgb(12,32,81)" opacity="0.35"/>
<circle cx="216" cy="360" r="9" fill="rgb(12,32,81)"/>
<circle cx="240" cy="360" r="12" fill="rgb(10,26,66)" opacity="0.35"/>
<circle cx="240" cy="360" r="9" fill="rgb(10,26,66)"/>
<circle cx="264" cy="360" r="12" fill="rgb(8,20,51)" opacity="0.35"/>
<circle cx="264" cy="360" r="9" fill="rgb(8,20,51)"/>
<circle cx="288" cy="360" r="12" fill="rgb(5,14,36)" opacity="0.35"/>
<circle cx="288" cy="360" r="9" fill="rgb(5,14,36)"/>
<circle cx="312" cy="360" r="12" fill="rgb(4,10,24)" opacity="0.35"/>
<circle cx="312" cy="360" r="9" fill="rgb(4,10,24)"/>
<circle cx="336" cy="360" r="9" fill="#14171c"/>
<circle cx="360" cy="360" r="9" fill="#14171c"/>
<circle cx="384" cy="360" r="9" fill="#14171c"/>
<circle cx="24" cy="384" r="12" fill="rgb(7,11,35)" opacity="0.35"/>
<circle cx="24" cy="384" r="9" fill="rgb(7,11,35)"/>
<circle cx="48" cy="384" r="12" fill="rgb(11,16,52)" opacity="0.35"/>
<circle cx="48" cy="384" r="9" fill="rgb(11,16,52)"/>
<circle cx="72" cy="384" r="12" fill="rgb(14,21,71)" opacity="0.35"/>
<circle cx="72" cy="384" r="9" fill="rgb(14,21,71)"/>
<circle cx="96" cy="384" r="12" fill="rgb(18,27,89)" opacity="0.35"/>
<circle cx="96" cy="384" r="9" fill="rgb(18,27,89)"/>
<circle cx="120" cy="384" r="12" fill="rgb(21,31,103)" opacity="0.35"/>
<circle cx="120" cy="384" r="9" fill="rgb(21,31,103)"/>
<circle cx="144" cy="384" r="12" fill="rgb(23,34,113)" opacity="0.35"/>
<circle cx="144" cy="384" r="9" fill="rgb(23,34,113)"/>
<circle cx="168" cy="384" r="12" fill="rgb(24,35,116)" opacity="0.35"/>
<circle cx="168" cy="384" r="9" fill="rgb(24,35,116)"/>
<circle cx="192" cy="384" r="12" fill="rgb(23,34,113)" opacity="0.35"/>
<circle cx="192" cy="384" r="9" fill="rgb(23,34,113)"/>
<circle cx="216" cy="384" r="12" fill="rgb(21,32,105)" opacity="0.35"/>
<circle cx="216" cy="384" r="9" fill="rgb(21,32,105)"/>
<circle cx="240" cy="384" r="12" fill="rgb(19,28,92)" opacity="0.35"/>
<circle cx="240" cy="384" r="9" fill="rgb(19,28,92)"/>
<circle cx="264" cy="384" r="12" fill="rgb(16,23,78)" opacity="0.35"/>
<circle cx="264" cy="384" r="9" fill="rgb(16,23,78)"/>
<circle cx="288" cy="384" r="12" fill="rgb(13,19,62)" opacity="0.35"/>
<circle cx="288" cy="384" r="9" fill="rgb(13,19,62)"/>
<circle cx="312" cy="384" r="12" fill="rgb(9,14,46)" opacity="0.35"/>
<circle cx="312" cy="384" r="9" fill="rgb(9,14,46)"/>
<circle cx="336" cy="384" r="12" fill="rgb(7,10,32)" opacity="0.35"/>
<circle cx="336" cy="384" r="9" fill="rgb(7,10,32)"/>
<circle cx="360" cy="384" r="12" fill="rgb(4,6,21)" opacity="0.35"/>
<circle cx="360" cy="384" r="9" fill="rgb(4,6,21)"/>
<circle cx="384" cy="384" r="9" fill="#14171c"/>
</svg>
