<svg xmlns="http://www.w3.org/2000/svg" viewBox="0 0 408 408" width="408" height="408" role="img" aria-label="LED preview of the Wave Sim example graph">
<rect width="408" height="408" rx="10" fill="#05070a"/>
<circle cx="24" cy="24" r="12" fill="rgb(255,18,0)" opacity="0.35"/>
<circle cx="24" cy="24" r="9" fill="rgb(255,18,0)"/>
<circle cx="48" cy="24" r="12" fill="rgb(255,24,0)" opacity="0.35"/>
<circle cx="48" cy="24" r="9" fill="rgb(255,24,0)"/>
<circle cx="72" cy="24" r="12" fill="rgb(255,1,0)" opacity="0.35"/>
<circle cx="72" cy="24" r="9" fill="rgb(255,1,0)"/>
<circle cx="96" cy="24" r="12" fill="rgb(255,41,0)" opacity="0.35"/>
<circle cx="96" cy="24" r="9" fill="rgb(255,41,0)"/>
<circle cx="120" cy="24" r="12" fill="rgb(255,57,0)" opacity="0.35"/>
<circle cx="120" cy="24" r="9" fill="rgb(255,57,0)"/>
<circle cx="144" cy="24" r="12" fill="rgb(255,31,0)" opacity="0.35"/>
<circle cx="144" cy="24" r="9" fill="rgb(255,31,0)"/>
<circle cx="168" cy="24" r="12" fill="rgb(255,20,0)" opacity="0.35"/>
<circle cx="168" cy="24" r="9" fill="rgb(255,20,0)"/>
<circle cx="192" cy="24" r="12" fill="rgb(255,10,0)" opacity="0.35"/>
<circle cx="192" cy="24" r="9" fill="rgb(255,10,0)"/>
<circle cx="216" cy="24" r="12" fill="rgb(255,15,0)" opacity="0.35"/>
<circle cx="216" cy="24" r="9" fill="rgb(255,15,0)"/>
<circle cx="240" cy="24" r="12" fill="rgb(255,87,0)" opacity="0.35"/>
<circle cx="240" cy="24" r="9" fill="rgb(255,87,0)"/>
<circle cx="264" cy="24" r="12" fill="rgb(255,38,0)" opacity="0.35"/>
<circle cx="264" cy="24" r="9" fill="rgb(255,38,0)"/>
<circle cx="288" cy="24" r="12" fill="rgb(255,20,0)" opacity="0.35"/>
<circle cx="288" cy="24" r="9" fill="rgb(255,20,0)"/>
<circle cx="312" cy="24" r="12" fill="rgb(255,36,0)" opacity="0.35"/>
<circle cx="312" cy="24" r="9" fill="rgb(255,36,0)"/>
<circle cx="336" cy="24" r="12" fill="rgb(255,49,0)" opacity="0.35"/>
<circle cx="336" cy="24" r="9" fill="rgb(255,49,0)"/>
<circle cx="360" cy="24" r="12" fill="rgb(255,84,0)" opacity="0.35"/>
<circle cx="360" cy="24" r="9" fill="rgb(255,84,0)"/>
<circle cx="384" cy="24" r="12" fill="rgb(255,96,0)" opacity="0.35"/>
<circle cx="384" cy="24" r="9" fill="rgb(255,96,0)"/>
<circle cx="24" cy="48" r="12" fill="rgb(255,87,0)" opacity="0.35"/>
<circle cx="24" cy="48" r="9" fill="rgb(255,87,0)"/>
<circle cx="48" cy="48" r="12" fill="rgb(255,4,0)" opacity="0.35"/>
<circle cx="48" cy="48" r="9" fill="rgb(255,4,0)"/>
<circle cx="72" cy="48" r="12" fill="rgb(255,5,0)" opacity="0.35"/>
<circle cx="72" cy="48" r="9" fill="rgb(255,5,0)"/>
<circle cx="96" cy="48" r="12" fill="rgb(255,51,0)" opacity="0.35"/>
<circle cx="96" cy="48" r="9" fill="rgb(255,51,0)"/>
<circle cx="120" cy="48" r="12" fill="rgb(255,130,0)" opacity="0.35"/>
<circle cx="120" cy="48" r="9" fill="rgb(255,130,0)"/>
<circle cx="144" cy="48" r="12" fill="rgb(255,20,0)" opacity="0.35"/>
<circle cx="144" cy="48" r="9" fill="rgb(255,20,0)"/>
<circle cx="168" cy="48" r="12" fill="rgb(255,18,0)" opacity="0.35"/>
<circle cx="168" cy="48" r="9" fill="rgb(255,18,0)"/>
<circle cx="192" cy="48" r="12" fill="rgb(255,24,0)" opacity="0.35"/>
<circle cx="192" cy="48" r="9" fill="rgb(255,24,0)"/>
<circle cx="216" cy="48" r="12" fill="rgb(255,119,0)" opacity="0.35"/>
<circle cx="216" cy="48" r="9" fill="rgb(255,119,0)"/>
<circle cx="240" cy="48" r="12" fill="rgb(255,27,0)" opacity="0.35"/>
<circle cx="240" cy="48" r="9" fill="rgb(255,27,0)"/>
<circle cx="264" cy="48" r="12" fill="rgb(255,86,0)" opacity="0.35"/>
<circle cx="264" cy="48" r="9" fill="rgb(255,86,0)"/>
<circle cx="288" cy="48" r="12" fill="rgb(255,63,0)" opacity="0.35"/>
<circle cx="288" cy="48" r="9" fill="rgb(255,63,0)"/>
<circle cx="312" cy="48" r="12" fill="rgb(255,137,0)" opacity="0.35"/>
<circle cx="312" cy="48" r="9" fill="rgb(255,137,0)"/>
<circle cx="336" cy="48" r="12" fill="rgb(255,51,0)" opacity="0.35"/>
<circle cx="336" cy="48" r="9" fill="rgb(255,51,0)"/>
<circle cx="360" cy="48" r="12" fill="rgb(255,52,0)" opacity="0.35"/>
<circle cx="360" cy="48" r="9" fill="rgb(255,52,0)"/>
<circle cx="384" cy="48" r="12" fill="rgb(255,26,0)" opacity="0.35"/>
<circle cx="384" cy="48" r="9" fill="rgb(255,26,0)"/>
<circle cx="24" cy="72" r="12" fill="rgb(255,3,0)" opacity="0.35"/>
<circle cx="24" cy="72" r="9" fill="rgb(255,3,0)"/>
<circle cx="48" cy="72" r="12" fill="rgb(255,80,0)" opacity="0.35"/>
<circle cx="48" cy="72" r="9" fill="rgb(255,80,0)"/>
<circle cx="72" cy="72" r="12" fill="rgb(255,11,0)" opacity="0.35"/>
<circle cx="72" cy="72" r="9" fill="rgb(255,11,0)"/>
<circle cx="96" cy="72" r="12" fill="rgb(255,38,0)" opacity="0.35"/>
<circle cx="96" cy="72" r="9" fill="rgb(255,38,0)"/>
<circle cx="120" cy="72" r="12" fill="rgb(255,52,0)" opacity="0.35"/>
<circle cx="120" cy="72" r="9" fill="rgb(255,52,0)"/>
<circle cx="144" cy="72" r="12" fill="rgb(255,8,0)" opacity="0.35"/>
<circle cx="144" cy="72" r="9" fill="rgb(255,8,0)"/>
<circle cx="168" cy="72" r="12" fill="rgb(255,62,0)" opacity="0.35"/>
<circle cx="168" cy="72" r="9" fill="rgb(255,62,0)"/>
<circle cx="192" cy="72" r="12" fill="rgb(255,77,0)" opacity="0.35"/>
<circle cx="192" cy="72" r="9" fill="rgb(255,77,0)"/>
<circle cx="216" cy="72" r="12" fill="rgb(255,13,0)" opacity="0.35"/>
<circle cx="216" cy="72" r="9" fill="rgb(255,13,0)"/>
<circle cx="240" cy="72" r="12" fill="rgb(255,52,0)" opacity="0.35"/>
<circle cx="240" cy="72" r="9" fill="rgb(255,52,0)"/>
<circle cx="264" cy="72" r="12" fill="rgb(255,39,0)" opacity="0.35"/>
<circle cx="264" cy="72" r="9" fill="rgb(255,39,0)"/>
<circle cx="288" cy="72" r="12" fill="rgb(255,54,0)" opacity="0.35"/>
<circle cx="288" cy="72" r="9" fill="rgb(255,54,0)"/>
<circle cx="312" cy="72" r="12" fill="rgb(255,57,0)" opacity="0.35"/>
<circle cx="312" cy="72" r="9" fill="rgb(255,57,0)"/>
<circle cx="336" cy="72" r="12" fill="rgb(255,40,0)" opacity="0.35"/>
<circle cx="336" cy="72" r="9" fill="rgb(255,40,0)"/>
<circle cx="360" cy="72" r="12" fill="rgb(255,12,0)" opacity="0.35"/>
<circle cx="360" cy="72" r="9" fill="rgb(255,12,0)"/>
<circle cx="384" cy="72" r="12" fill="rgb(255,3,0)" opacity="0.35"/>
<circle cx="384" cy="72" r="9" fill="rgb(255,3,0)"/>
<circle cx="24" cy="96" r="12" fill="rgb(255,3,0)" opacity="0.35"/>
<circle cx="24" cy="96" r="9" fill="rgb(255,3,0)"/>
<circle cx="48" cy="96" r="12" fill="rgb(255,35,0)" opacity="0.35"/>
<circle cx="48" cy="96" r="9" fill="rgb(255,35,0)"/>
<circle cx="72" cy="96" r="12" fill="rgb(255,30,0)" opacity="0.35"/>
<circle cx="72" cy="96" r="9" fill="rgb(255,30,0)"/>
<circle cx="96" cy="96" r="12" fill="rgb(255,45,0)" opacity="0.35"/>
<circle cx="96" cy="96" r="9" fill="rgb(255,45,0)"/>
<circle cx="120" cy="96" r="12" fill="rgb(255,89,0)" opacity="0.35"/>
<circle cx="120" cy="96" r="9" fill="rgb(255,89,0)"/>
<circle cx="144" cy="96" r="12" fill="rgb(255,13,0)" opacity="0.35"/>
<circle cx="144" cy="96" r="9" fill="rgb(255,13,0)"/>
<circle cx="168" cy="96" r="12" fill="rgb(255,83,0)" opacity="0.35"/>
<circle cx="168" cy="96" r="9" fill="rgb(255,83,0)"/>
<circle cx="192" cy="96" r="12" fill="rgb(255,52,0)" opacity="0.35"/>
<circle cx="192" cy="96" r="9" fill="rgb(255,52,0)"/>
<circle cx="216" cy="96" r="12" fill="rgb(255,24,0)" opacity="0.35"/>
<circle cx="216" cy="96" r="9" fill="rgb(255,24,0)"/>
<circle cx="240" cy="96" r="12" fill="rgb(255,15,0)" opacity="0.35"/>
<circle cx="240" cy="96" r="9" fill="rgb(255,15,0)"/>
<circle cx="264" cy="96" r="12" fill="rgb(255,19,0)" opacity="0.35"/>
<circle cx="264" cy="96" r="9" fill="rgb(255,19,0)"/>
<circle cx="288" cy="96" r="12" fill="rgb(255,30,0)" opacity="0.35"/>
<circle cx="288" cy="96" r="9" fill="rgb(255,30,0)"/>
<circle cx="312" cy="96" r="12" fill="rgb(255,42,0)" opacity="0.35"/>
<circle cx="312" cy="96" r="9" fill="rgb(255,42,0)"/>
<circle cx="336" cy="96" r="12" fill="rgb(255,38,0)" opacity="0.35"/>
<circle cx="336" cy="96" r="9" fill="rgb(255,38,0)"/>
<circle cx="360" cy="96" r="12" fill="rgb(255,53,0)" opacity="0.35"/>
<circle cx="360" cy="96" r="9" fill="rgb(255,53,0)"/>
<circle cx="384" cy="96" r="12" fill="rgb(255,22,0)" opacity="0.35"/>
<circle cx="384" cy="96" r="9" fill="rgb(255,22,0)"/>
<circle cx="24" cy="120" r="12" fill="rgb(255,47,0)" opacity="0.35"/>
<circle cx="24" cy="120" r="9" fill="rgb(255,47,0)"/>
<circle cx="48" cy="120" r="12" fill="rgb(255,23,0)" opacity="0.35"/>
<circle cx="48" cy="120" r="9" fill="rgb(255,23,0)"/>
<circle cx="72" cy="120" r="12" fill="rgb(255,67,0)" opacity="0.35"/>
<circle cx="72" cy="120" r="9" fill="rgb(255,67,0)"/>
<circle cx="96" cy="120" r="12" fill="rgb(255,94,0)" opacity="0.35"/>
<circle cx="96" cy="120" r="9" fill="rgb(255,94,0)"/>
<circle cx="120" cy="120" r="12" fill="rgb(255,52,0)" opacity="0.35"/>
<circle cx="120" cy="120" r="9" fill="rgb(255,52,0)"/>
<circle cx="144" cy="120" r="12" fill="rgb(255,49,0)" opacity="0.35"/>
<circle cx="144" cy="120" r="9" fill="rgb(255,49,0)"/>
<circle cx="168" cy="120" r="12" fill="rgb(255,12,0)" opacity="0.35"/>
<circle cx="168" cy="120" r="9" fill="rgb(255,12,0)"/>
<circle cx="192" cy="120" r="12" fill="rgb(255,2,0)" opacity="0.35"/>
<circle cx="192" cy="120" r="9" fill="rgb(255,2,0)"/>
<circle cx="216" cy="120" r="12" fill="rgb(255,18,0)" opacity="0.35"/>
<circle cx="216" cy="120" r="9" fill="rgb(255,18,0)"/>
<circle cx="240" cy="120" r="12" fill="rgb(255,0,0)" opacity="0.35"/>
<circle cx="240" cy="120" r="9" fill="rgb(255,0,0)"/>
<circle cx="264" cy="120" r="12" fill="rgb(255,33,0)" opacity="0.35"/>
<circle cx="264" cy="120" r="9" fill="rgb(255,33,0)"/>
<circle cx="288" cy="120" r="12" fill="rgb(255,121,0)" opacity="0.35"/>
<circle cx="288" cy="120" r="9" fill="rgb(255,121,0)"/>
<circle cx="312" cy="120" r="12" fill="rgb(255,74,0)" opacity="0.35"/>
<circle cx="312" cy="120" r="9" fill="rgb(255,74,0)"/>
<circle cx="336" cy="120" r="12" fill="rgb(255,75,0)" opacity="0.35"/>
<circle cx="336" cy="120" r="9" fill="rgb(255,75,0)"/>
<circle cx="360" cy="120" r="12" fill="rgb(255,65,0)" opacity="0.35"/>
<circle cx="360" cy="120" r="9" fill="rgb(255,65,0)"/>
<circle cx="384" cy="120" r="12" fill="rgb(255,77,0)" opacity="0.35"/>
<circle cx="384" cy="120" r="9" fill="rgb(255,77,0)"/>
<circle cx="24" cy="144" r="12" fill="rgb(255,142,0)" opacity="0.35"/>
<circle cx="24" cy="144" r="9" fill="rgb(255,142,0)"/>
<circle cx="48" cy="144" r="12" fill="rgb(255,60,0)" opacity="0.35"/>
<circle cx="48" cy="144" r="9" fill="rgb(255,60,0)"/>
<circle cx="72" cy="144" r="12" fill="rgb(255,66,0)" opacity="0.35"/>
<circle cx="72" cy="144" r="9" fill="rgb(255,66,0)"/>
<circle cx="96" cy="144" r="12" fill="rgb(255,52,0)" opacity="0.35"/>
<circle cx="96" cy="144" r="9" fill="rgb(255,52,0)"/>
<circle cx="120" cy="144" r="12" fill="rgb(255,196,0)" opacity="0.35"/>
<circle cx="120" cy="144" r="9" fill="rgb(255,196,0)"/>
<circle cx="144" cy="144" r="12" fill="rgb(255,65,0)" opacity="0.35"/>
<circle cx="144" cy="144" r="9" fill="rgb(255,65,0)"/>
<circle cx="168" cy="144" r="12" fill="rgb(255,64,0)" opacity="0.35"/>
<circle cx="168" cy="144" r="9" fill="rgb(255,64,0)"/>
<circle cx="192" cy="144" r="12" fill="rgb(255,52,0)" opacity="0.35"/>
<circle cx="192" cy="144" r="9" fill="rgb(255,52,0)"/>
<circle cx="216" cy="144" r="12" fill="rgb(255,121,0)" opacity="0.35"/>
<circle cx="216" cy="144" r="9" fill="rgb(255,121,0)"/>
<circle cx="240" cy="144" r="12" fill="rgb(255,28,0)" opacity="0.35"/>
<circle cx="240" cy="144" r="9" fill="rgb(255,28,0)"/>
<circle cx="264" cy="144" r="12" fill="rgb(255,53,0)" opacity="0.35"/>
<circle cx="264" cy="144" r="9" fill="rgb(255,53,0)"/>
<circle cx="288" cy="144" r="12" fill="rgb(255,56,0)" opacity="0.35"/>
<circle cx="288" cy="144" r="9" fill="rgb(255,56,0)"/>
<circle cx="312" cy="144" r="12" fill="rgb(255,46,0)" opacity="0.35"/>
<circle cx="312" cy="144" r="9" fill="rgb(255,46,0)"/>
<circle cx="336" cy="144" r="12" fill="rgb(255,52,0)" opacity="0.35"/>
<circle cx="336" cy="144" r="9" fill="rgb(255,52,0)"/>
<circle cx="360" cy="144" r="12" fill="rgb(255,78,0)" opacity="0.35"/>
<circle cx="360" cy="144" r="9" fill="rgb(255,78,0)"/>
<circle cx="384" cy="144" r="12" fill="rgb(255,52,0)" opacity="0.35"/>
<circle cx="384" cy="144" r="9" fill="rgb(255,52,0)"/>
<circle cx="24" cy="168" r="12" fill="rgb(255,59,0)" opacity="0.35"/>
<circle cx="24" cy="168" r="9" fill="rgb(255,59,0)"/>
<circle cx="48" cy="168" r="12" fill="rgb(255,28,0)" opacity="0.35"/>
<circle cx="48" cy="168" r="9" fill="rgb(255,28,0)"/>
<circle cx="72" cy="168" r="12" fill="rgb(255,33,0)" opacity="0.35"/>
<circle cx="72" cy="168" r="9" fill="rgb(255,33,0)"/>
<circle cx="96" cy="168" r="12" fill="rgb(255,52,0)" opacity="0.35"/>
<circle cx="96" cy="168" r="9" fill="rgb(255,52,0)"/>
<circle cx="120" cy="168" r="12" fill="rgb(255,92,0)" opacity="0.35"/>
<circle cx="120" cy="168" r="9" fill="rgb(255,92,0)"/>
<circle cx="144" cy="168" r="12" fill="rgb(255,67,0)" opacity="0.35"/>
<circle cx="144" cy="168" r="9" fill="rgb(255,67,0)"/>
<circle cx="168" cy="168" r="12" fill="rgb(255,20,0)" opacity="0.35"/>
<circle cx="168" cy="168" r="9" fill="rgb(255,20,0)"/>
<circle cx="192" cy="168" r="12" fill="rgb(255,7,0)" opacity="0.35"/>
<circle cx="192" cy="168" r="9" fill="rgb(255,7,0)"/>
<circle cx="216" cy="168" r="12" fill="rgb(255,13,0)" opacity="0.35"/>
<circle cx="216" cy="168" r="9" fill="rgb(255,13,0)"/>
<circle cx="240" cy="168" r="12" fill="rgb(255,9,0)" opacity="0.35"/>
<circle cx="240" cy="168" r="9" fill="rgb(255,9,0)"/>
<circle cx="264" cy="168" r="12" fill="rgb(255,49,0)" opacity="0.35"/>
<circle cx="264" cy="168" r="9" fill="rgb(255,49,0)"/>
<circle cx="288" cy="168" r="12" fill="rgb(255,52,0)" opacity="0.35"/>
<circle cx="288" cy="168" r="9" fill="rgb(255,52,0)"/>
<circle cx="312" cy="168" r="12" fill="rgb(255,67,0)" opacity="0.35"/>
<circle cx="312" cy="168" r="9" fill="rgb(255,67,0)"/>
<circle cx="336" cy="168" r="12" fill="rgb(255,134,0)" opacity="0.35"/>
<circle cx="336" cy="168" r="9" fill="rgb(255,134,0)"/>
<circle cx="360" cy="168" r="12" fill="rgb(255,69,0)" opacity="0.35"/>
<circle cx="360" cy="168" r="9" fill="rgb(255,69,0)"/>
<circle cx="384" cy="168" r="12" fill="rgb(255,56,0)" opacity="0.35"/>
<circle cx="384" cy="168" r="9" fill="rgb(255,56,0)"/>
<circle cx="24" cy="192" r="12" fill="rgb(255,6,0)" opacity="0.35"/>
<circle cx="24" cy="192" r="9" fill="rgb(255,6,0)"/>
<circle cx="48" cy="192" r="12" fill="rgb(255,66,0)" opacity="0.35"/>
<circle cx="48" cy="192" r="9" fill="rgb(255,66,0)"/>
<circle cx="72" cy="192" r="12" fill="rgb(255,35,0)" opacity="0.35"/>
<circle cx="72" cy="192" r="9" fill="rgb(255,35,0)"/>
<circle cx="96" cy="192" r="12" fill="rgb(255,37,0)" opacity="0.35"/>
<circle cx="96" cy="192" r="9" fill="rgb(255,37,0)"/>
<circle cx="120" cy="192" r="12" fill="rgb(255,95,0)" opacity="0.35"/>
<circle cx="120" cy="192" r="9" fill="rgb(255,95,0)"/>
<circle cx="144" cy="192" r="12" fill="rgb(255,18,0)" opacity="0.35"/>
<circle cx="144" cy="192" r="9" fill="rgb(255,18,0)"/>
<circle cx="168" cy="192" r="12" fill="rgb(255,79,0)" opacity="0.35"/>
<circle cx="168" cy="192" r="9" fill="rgb(255,79,0)"/>
<circle cx="192" cy="192" r="12" fill="rgb(255,75,0)" opacity="0.35"/>
<circle cx="192" cy="192" r="9" fill="rgb(255,75,0)"/>
<circle cx="216" cy="192" r="12" fill="rgb(255,49,0)" opacity="0.35"/>
<circle cx="216" cy="192" r="9" fill="rgb(255,49,0)"/>
<circle cx="240" cy="192" r="12" fill="rgb(255,13,0)" opacity="0.35"/>
<circle cx="240" cy="192" r="9" fill="rgb(255,13,0)"/>
<circle cx="264" cy="192" r="12" fill="rgb(255,55,0)" opacity="0.35"/>
<circle cx="264" cy="192" r="9" fill="rgb(255,55,0)"/>
<circle cx="288" cy="192" r="12" fill="rgb(255,54,0)" opacity="0.35"/>
<circle cx="288" cy="192" r="9" fill="rgb(255,54,0)"/>
<circle cx="312" cy="192" r="12" fill="rgb(255,60,0)" opacity="0.35"/>
<circle cx="312" cy="192" r="9" fill="rgb(255,60,0)"/>
<circle cx="336" cy="192" r="12" fill="rgb(255,58,0)" opacity="0.35"/>
<circle cx="336" cy="192" r="9" fill="rgb(255,58,0)"/>
<circle cx="360" cy="192" r="12" fill="rgb(255,68,0)" opacity="0.35"/>
<circle cx="360" cy="192" r="9" fill="rgb(255,68,0)"/>
<circle cx="384" cy="192" r="12" fill="rgb(255,24,0)" opacity="0.35"/>
<circle cx="384" cy="192" r="9" fill="rgb(255,24,0)"/>
<circle cx="24" cy="216" r="12" fill="rgb(255,8,0)" opacity="0.35"/>
<circle cx="24" cy="216" r="9" fill="rgb(255,8,0)"/>
<circle cx="48" cy="216" r="12" fill="rgb(255,90,0)" opacity="0.35"/>
<circle cx="48" cy="216" r="9" fill="rgb(255,90,0)"/>
<circle cx="72" cy="216" r="12" fill="rgb(255,38,0)" opacity="0.35"/>
<circle cx="72" cy="216" r="9" fill="rgb(255,38,0)"/>
<circle cx="96" cy="216" r="12" fill="rgb(255,52,0)" opacity="0.35"/>
<circle cx="96" cy="216" r="9" fill="rgb(255,52,0)"/>
<circle cx="120" cy="216" r="12" fill="rgb(255,45,0)" opacity="0.35"/>
<circle cx="120" cy="216" r="9" fill="rgb(255,45,0)"/>
<circle cx="144" cy="216" r="12" fill="rgb(255,52,0)" opacity="0.35"/>
<circle cx="144" cy="216" r="9" fill="rgb(255,52,0)"/>
<circle cx="168" cy="216" r="12" fill="rgb(255,83,0)" opacity="0.35"/>
<circle cx="168" cy="216" r="9" fill="rgb(255,83,0)"/>
<circle cx="192" cy="216" r="12" fill="rgb(255,52,0)" opacity="0.35"/>
<circle cx="192" cy="216" r="9" fill="rgb(255,52,0)"/>
<circle cx="216" cy="216" r="12" fill="rgb(255,38,0)" opacity="0.35"/>
<circle cx="216" cy="216" r="9" fill="rgb(255,38,0)"/>
<circle cx="240" cy="216" r="12" fill="rgb(255,24,0)" opacity="0.35"/>
<circle cx="240" cy="216" r="9" fill="rgb(255,24,0)"/>
<circle cx="264" cy="216" r="12" fill="rgb(255,14,0)" opacity="0.35"/>
<circle cx="264" cy="216" r="9" fill="rgb(255,14,0)"/>
<circle cx="288" cy="216" r="12" fill="rgb(255,37,0)" opacity="0.35"/>
<circle cx="288" cy="216" r="9" fill="rgb(255,37,0)"/>
<circle cx="312" cy="216" r="12" fill="rgb(255,30,0)" opacity="0.35"/>
<circle cx="312" cy="216" r="9" fill="rgb(255,30,0)"/>
<circle cx="336" cy="216" r="12" fill="rgb(255,24,0)" opacity="0.35"/>
<circle cx="336" cy="216" r="9" fill="rgb(255,24,0)"/>
<circle cx="360" cy="216" r="12" fill="rgb(255,4,0)" opacity="0.35"/>
<circle cx="360" cy="216" r="9" fill="rgb(255,4,0)"/>
<circle cx="384" cy="216" r="12" fill="rgb(255,23,0)" opacity="0.35"/>
<circle cx="384" cy="216" r="9" fill="rgb(255,23,0)"/>
<circle cx="24" cy="240" r="12" fill="rgb(255,129,0)" opacity="0.35"/>
<circle cx="24" cy="240" r="9" fill="rgb(255,129,0)"/>
<circle cx="48" cy="240" r="12" fill="rgb(255,8,0)" opacity="0.35"/>
<circle cx="48" cy="240" r="9" fill="rgb(255,8,0)"/>
<circle cx="72" cy="240" r="12" fill="rgb(255,25,0)" opacity="0.35"/>
<circle cx="72" cy="240" r="9" fill="rgb(255,25,0)"/>
<circle cx="96" cy="240" r="12" fill="rgb(255,19,0)" opacity="0.35"/>
<circle cx="96" cy="240" r="9" fill="rgb(255,19,0)"/>
<circle cx="120" cy="240" r="12" fill="rgb(255,96,0)" opacity="0.35"/>
<circle cx="120" cy="240" r="9" fill="rgb(255,96,0)"/>
<circle cx="144" cy="240" r="12" fill="rgb(255,1,0)" opacity="0.35"/>
<circle cx="144" cy="240" r="9" fill="rgb(255,1,0)"/>
<circle cx="168" cy="240" r="12" fill="rgb(255,52,0)" opacity="0.35"/>
<circle cx="168" cy="240" r="9" fill="rgb(255,52,0)"/>
<circle cx="192" cy="240" r="12" fill="rgb(255,23,0)" opacity="0.35"/>
<circle cx="192" cy="240" r="9" fill="rgb(255,23,0)"/>
<circle cx="216" cy="240" r="12" fill="rgb(255,82,0)" opacity="0.35"/>
<circle cx="216" cy="240" r="9" fill="rgb(255,82,0)"/>
<circle cx="240" cy="240" r="12" fill="rgb(255,66,0)" opacity="0.35"/>
<circle cx="240" cy="240" r="9" fill="rgb(255,66,0)"/>
<circle cx="264" cy="240" r="12" fill="rgb(255,52,0)" opacity="0.35"/>
<circle cx="264" cy="240" r="9" fill="rgb(255,52,0)"/>
<circle cx="288" cy="240" r="12" fill="rgb(255,104,0)" opacity="0.35"/>
<circle cx="288" cy="240" r="9" fill="rgb(255,104,0)"/>
<circle cx="312" cy="240" r="12" fill="rgb(255,67,0)" opacity="0.35"/>
<circle cx="312" cy="240" r="9" fill="rgb(255,67,0)"/>
<circle cx="336" cy="240" r="12" fill="rgb(255,73,0)" opacity="0.35"/>
<circle cx="336" cy="240" r="9" fill="rgb(255,73,0)"/>
<circle cx="360" cy="240" r="12" fill="rgb(255,83,0)" opacity="0.35"/>
<circle cx="360" cy="240" r="9" fill="rgb(255,83,0)"/>
<circle cx="384" cy="240" r="12" fill="rgb(255,25,0)" opacity="0.35"/>
<circle cx="384" cy="240" r="9" fill="rgb(255,25,0)"/>
<circle cx="24" cy="264" r="12" fill="rgb(255,23,0)" opacity="0.35"/>
<circle cx="24" cy="264" r="9" fill="rgb(255,23,0)"/>
<circle cx="48" cy="264" r="12" fill="rgb(255,5,0)" opacity="0.35"/>
<circle cx="48" cy="264" r="9" fill="rgb(255,5,0)"/>
<circle cx="72" cy="264" r="12" fill="rgb(255,7,0)" opacity="0.35"/>
<circle cx="72" cy="264" r="9" fill="rgb(255,7,0)"/>
<circle cx="96" cy="264" r="12" fill="rgb(255,8,0)" opacity="0.35"/>
<circle cx="96" cy="264" r="9" fill="rgb(255,8,0)"/>
<circle cx="120" cy="264" r="12" fill="rgb(255,52,0)" opacity="0.35"/>
<circle cx="120" cy="264" r="9" fill="rgb(255,52,0)"/>
<circle cx="144" cy="264" r="12" fill="rgb(255,6,0)" opacity="0.35"/>
<circle cx="144" cy="264" r="9" fill="rgb(255,6,0)"/>
<circle cx="168" cy="264" r="12" fill="rgb(255,13,0)" opacity="0.35"/>
<circle cx="168" cy="264" r="9" fill="rgb(255,13,0)"/>
<circle cx="192" cy="264" r="12" fill="rgb(255,7,0)" opacity="0.35"/>
<circle cx="192" cy="264" r="9" fill="rgb(255,7,0)"/>
<circle cx="216" cy="264" r="12" fill="rgb(255,12,0)" opacity="0.35"/>
<circle cx="216" cy="264" r="9" fill="rgb(255,12,0)"/>
<circle cx="240" cy="264" r="12" fill="rgb(255,135,0)" opacity="0.35"/>
<circle cx="240" cy="264" r="9" fill="rgb(255,135,0)"/>
<circle cx="264" cy="264" r="12" fill="rgb(255,76,0)" opacity="0.35"/>
<circle cx="264" cy="264" r="9" fill="rgb(255,76,0)"/>
<circle cx="288" cy="264" r="12" fill="rgb(255,97,0)" opacity="0.35"/>
<circle cx="288" cy="264" r="9" fill="rgb(255,97,0)"/>
<circle cx="312" cy="264" r="12" fill="rgb(255,67,0)" opacity="0.35"/>
<circle cx="312" cy="264" r="9" fill="rgb(255,67,0)"/>
<circle cx="336" cy="264" r="12" fill="rgb(255,61,0)" opacity="0.35"/>
<circle cx="336" cy="264" r="9" fill="rgb(255,61,0)"/>
<circle cx="360" cy="264" r="12" fill="rgb(255,67,0)" opacity="0.35"/>
<circle cx="360" cy="264" r="9" fill="rgb(255,67,0)"/>
<circle cx="384" cy="264" r="12" fill="rgb(255,69,0)" opacity="0.35"/>
<circle cx="384" cy="264" r="9" fill="rgb(255,69,0)"/>
<circle cx="24" cy="288" r="12" fill="rgb(255,70,0)" opacity="0.35"/>
<circle cx="24" cy="288" r="9" fill="rgb(255,70,0)"/>
<circle cx="48" cy="288" r="12" fill="rgb(255,7,0)" opacity="0.35"/>
<circle cx="48" cy="288" r="9" fill="rgb(255,7,0)"/>
<circle cx="72" cy="288" r="12" fill="rgb(255,37,0)" opacity="0.35"/>
<circle cx="72" cy="288" r="9" fill="rgb(255,37,0)"/>
<circle cx="96" cy="288" r="12" fill="rgb(255,41,0)" opacity="0.35"/>
<circle cx="96" cy="288" r="9" fill="rgb(255,41,0)"/>
<circle cx="120" cy="288" r="12" fill="rgb(255,51,0)" opacity="0.35"/>
<circle cx="120" cy="288" r="9" fill="rgb(255,51,0)"/>
<circle cx="144" cy="288" r="12" fill="rgb(255,21,0)" opacity="0.35"/>
<circle cx="144" cy="288" r="9" fill="rgb(255,21,0)"/>
<circle cx="168" cy="288" r="12" fill="rgb(255,21,0)" opacity="0.35"/>
<circle cx="168" cy="288" r="9" fill="rgb(255,21,0)"/>
<circle cx="192" cy="288" r="12" fill="rgb(255,52,0)" opacity="0.35"/>
<circle cx="192" cy="288" r="9" fill="rgb(255,52,0)"/>
<circle cx="216" cy="288" r="12" fill="rgb(255,103,0)" opacity="0.35"/>
<circle cx="216" cy="288" r="9" fill="rgb(255,103,0)"/>
<circle cx="240" cy="288" r="12" fill="rgb(255,52,0)" opacity="0.35"/>
<circle cx="240" cy="288" r="9" fill="rgb(255,52,0)"/>
<circle cx="264" cy="288" r="12" fill="rgb(255,132,0)" opacity="0.35"/>
<circle cx="264" cy="288" r="9" fill="rgb(255,132,0)"/>
<circle cx="288" cy="288" r="12" fill="rgb(255,97,0)" opacity="0.35"/>
<circle cx="288" cy="288" r="9" fill="rgb(255,97,0)"/>
<circle cx="312" cy="288" r="12" fill="rgb(255,92,0)" opacity="0.35"/>
<circle cx="312" cy="288" r="9" fill="rgb(255,92,0)"/>
<circle cx="336" cy="288" r="12" fill="rgb(255,70,0)" opacity="0.35"/>
<circle cx="336" cy="288" r="9" fill="rgb(255,70,0)"/>
<circle cx="360" cy="288" r="12" fill="rgb(255,70,0)" opacity="0.35"/>
<circle cx="360" cy="288" r="9" fill="rgb(255,70,0)"/>
<circle cx="384" cy="288" r="12" fill="rgb(255,52,0)" opacity="0.35"/>
<circle cx="384" cy="288" r="9" fill="rgb(255,52,0)"/>
<circle cx="24" cy="312" r="12" fill="rgb(255,56,0)" opacity="0.35"/>
<circle cx="24" cy="312" r="9" fill="rgb(255,56,0)"/>
<circle cx="48" cy="312" r="12" fill="rgb(255,32,0)" opacity="0.35"/>
<circle cx="48" cy="312" r="9" fill="rgb(255,32,0)"/>
<circle cx="72" cy="312" r="12" fill="rgb(255,44,0)" opacity="0.35"/>
<circle cx="72" cy="312" r="9" fill="rgb(255,44,0)"/>
<circle cx="96" cy="312" r="12" fill="rgb(255,127,0)" opacity="0.35"/>
<circle cx="96" cy="312" r="9" fill="rgb(255,127,0)"/>
<circle cx="120" cy="312" r="12" fill="rgb(255,75,0)" opacity="0.35"/>
<circle cx="120" cy="312" r="9" fill="rgb(255,75,0)"/>
<circle cx="144" cy="312" r="12" fill="rgb(255,108,0)" opacity="0.35"/>
<circle cx="144" cy="312" r="9" fill="rgb(255,108,0)"/>
<circle cx="168" cy="312" r="12" fill="rgb(255,14,0)" opacity="0.35"/>
<circle cx="168" cy="312" r="9" fill="rgb(255,14,0)"/>
<circle cx="192" cy="312" r="12" fill="rgb(255,54,0)" opacity="0.35"/>
<circle cx="192" cy="312" r="9" fill="rgb(255,54,0)"/>
<circle cx="216" cy="312" r="12" fill="rgb(255,72,0)" opacity="0.35"/>
<circle cx="216" cy="312" r="9" fill="rgb(255,72,0)"/>
<circle cx="240" cy="312" r="12" fill="rgb(255,71,0)" opacity="0.35"/>
<circle cx="240" cy="312" r="9" fill="rgb(255,71,0)"/>
<circle cx="264" cy="312" r="12" fill="rgb(255,117,0)" opacity="0.35"/>
<circle cx="264" cy="312" r="9" fill="rgb(255,117,0)"/>
<circle cx="288" cy="312" r="12" fill="rgb(255,167,0)" opacity="0.35"/>
<circle cx="288" cy="312" r="9" fill="rgb(255,167,0)"/>
<circle cx="312" cy="312" r="12" fill="rgb(255,88,0)" opacity="0.35"/>
<circle cx="312" cy="312" r="9" fill="rgb(255,88,0)"/>
<circle cx="336" cy="312" r="12" fill="rgb(255,149,0)" opacity="0.35"/>
<circle cx="336" cy="312" r="9" fill="rgb(255,149,0)"/>
<circle cx="360" cy="312" r="12" fill="rgb(255,56,0)" opacity="0.35"/>
<circle cx="360" cy="312" r="9" fill="rgb(255,56,0)"/>
<circle cx="384" cy="312" r="12" fill="rgb(255,32,0)" opacity="0.35"/>
<circle cx="384" cy="312" r="9" fill="rgb(255,32,0)"/>
<circle cx="24" cy="336" r="12" fill="rgb(255,159,0)" opacity="0.35"/>
<circle cx="24" cy="336" r="9" fill="rgb(255,159,0)"/>
<circle cx="48" cy="336" r="12" fill="rgb(255,23,0)" opacity="0.35"/>
<circle cx="48" cy="336" r="9" fill="rgb(255,23,0)"/>
<circle cx="72" cy="336" r="12" fill="rgb(255,62,0)" opacity="0.35"/>
<circle cx="72" cy="336" r="9" fill="rgb(255,62,0)"/>
<circle cx="96" cy="336" r="12" fill="rgb(255,83,0)" opacity="0.35"/>
<circle cx="96" cy="336" r="9" fill="rgb(255,83,0)"/>
<circle cx="120" cy="336" r="12" fill="rgb(255,64,0)" opacity="0.35"/>
<circle cx="120" cy="336" r="9" fill="rgb(255,64,0)"/>
<circle cx="144" cy="336" r="12" fill="rgb(255,67,0)" opacity="0.35"/>
<circle cx="144" cy="336" r="9" fill="rgb(255,67,0)"/>
<circle cx="168" cy="336" r="12" fill="rgb(255,37,0)" opacity="0.35"/>
<circle cx="168" cy="336" r="9" fill="rgb(255,37,0)"/>
<circle cx="192" cy="336" r="12" fill="rgb(255,50,0)" opacity="0.35"/>
<circle cx="192" cy="336" r="9" fill="rgb(255,50,0)"/>
<circle cx="216" cy="336" r="12" fill="rgb(255,143,0)" opacity="0.35"/>
<circle cx="216" cy="336" r="9" fill="rgb(255,143,0)"/>
<circle cx="240" cy="336" r="12" fill="rgb(255,64,0)" opacity="0.35"/>
<circle cx="240" cy="336" r="9" fill="rgb(255,64,0)"/>
<circle cx="264" cy="336" r="12" fill="rgb(255,52,0)" opacity="0.35"/>
<circle cx="264" cy="336" r="9" fill="rgb(255,52,0)"/>
<circle cx="288" cy="336" r="12" fill="rgb(255,80,0)" opacity="0.35"/>
<circle cx="288" cy="336" r="9" fill="rgb(255,80,0)"/>
<circle cx="312" cy="336" r="12" fill="rgb(255,8,0)" opacity="0.35"/>
<circle cx="312" cy="336" r="9" fill="rgb(255,8,0)"/>
<circle cx="336" cy="336" r="12" fill="rgb(255,77,0)" opacity="0.35"/>
<circle cx="336" cy="336" r="9" fill="rgb(255,77,0)"/>
<circle cx="360" cy="336" r="12" fill="rgb(255,65,0)" opacity="0.35"/>
<circle cx="360" cy="336" r="9" fill="rgb(255,65,0)"/>
<circle cx="384" cy="336" r="12" fill="rgb(255,76,0)" opacity="0.35"/>
<circle cx="384" cy="336" r="9" fill="rgb(255,76,0)"/>
<circle cx="24" cy="360" r="12" fill="rgb(255,93,0)" opacity="0.35"/>
<circle cx="24" cy="360" r="9" fill="rgb(255,93,0)"/>
<circle cx="48" cy="360" r="12" fill="rgb(255,34,0)" opacity="0.35"/>
<circle cx="48" cy="360" r="9" fill="rgb(255,34,0)"/>
<circle cx="72" cy="360" r="12" fill="rgb(255,64,0)" opacity="0.35"/>
<circle cx="72" cy="360" r="9" fill="rgb(255,64,0)"/>
<circle cx="96" cy="360" r="12" fill="rgb(255,147,0)" opacity="0.35"/>
<circle cx="96" cy="360" r="9" fill="rgb(255,147,0)"/>
<circle cx="120" cy="360" r="12" fill="rgb(255,93,0)" opacity="0.35"/>
<circle cx="120" cy="360" r="9" fill="rgb(255,93,0)"/>
<circle cx="144" cy="360" r="12" fill="rgb(255,134,0)" opacity="0.35"/>
<circle cx="144" cy="360" r="9" fill="rgb(255,134,0)"/>
<circle cx="168" cy="360" r="12" fill="rgb(255,40,0)" opacity="0.35"/>
<circle cx="168" cy="360" r="9" fill="rgb(255,40,0)"/>
<circle cx="192" cy="360" r="12" fill="rgb(255,33,0)" opacity="0.35"/>
<circle cx="192" cy="360" r="9" fill="rgb(255,33,0)"/>
<circle cx="216" cy="360" r="12" fill="rgb(255,62,0)" opacity="0.35"/>
<circle cx="216" cy="360" r="9" fill="rgb(255,62,0)"/>
<circle cx="240" cy="360" r="12" fill="rgb(255,39,0)" opacity="0.35"/>
<circle cx="240" cy="360" r="9" fill="rgb(255,39,0)"/>
<circle cx="264" cy="360" r="12" fill="rgb(255,72,0)" opacity="0.35"/>
<circle cx="264" cy="360" r="9" fill="rgb(255,72,0)"/>
<circle cx="288" cy="360" r="12" fill="rgb(255,130,0)" opacity="0.35"/>
<circle cx="288" cy="360" r="9" fill="rgb(255,130,0)"/>
<circle cx="312" cy="360" r="12" fill="rgb(255,62,0)" opacity="0.35"/>
<circle cx="312" cy="360" r="9" fill="rgb(255,62,0)"/>
<circle cx="336" cy="360" r="12" fill="rgb(255,137,0)" opacity="0.35"/>
<circle cx="336" cy="360" r="9" fill="rgb(255,137,0)"/>
<circle cx="360" cy="360" r="12" fill="rgb(255,52,0)" opacity="0.35"/>
<circle cx="360" cy="360" r="9" fill="rgb(255,52,0)"/>
<circle cx="384" cy="360" r="12" fill="rgb(255,66,0)" opacity="0.35"/>
<circle cx="384" cy="360" r="9" fill="rgb(255,66,0)"/>
<circle cx="24" cy="384" r="12" fill="rgb(255,82,0)" opacity="0.35"/>
<circle cx="24" cy="384" r="9" fill="rgb(255,82,0)"/>
<circle cx="48" cy="384" r="12" fill="rgb(255,34,0)" opacity="0.35"/>
<circle cx="48" cy="384" r="9" fill="rgb(255,34,0)"/>
<circle cx="72" cy="384" r="12" fill="rgb(255,40,0)" opacity="0.35"/>
<circle cx="72" cy="384" r="9" fill="rgb(255,40,0)"/>
<circle cx="96" cy="384" r="12" fill="rgb(255,77,0)" opacity="0.35"/>
<circle cx="96" cy="384" r="9" fill="rgb(255,77,0)"/>
<circle cx="120" cy="384" r="12" fill="rgb(255,91,0)" opacity="0.35"/>
<circle cx="120" cy="384" r="9" fill="rgb(255,91,0)"/>
<circle cx="144" cy="384" r="12" fill="rgb(255,73,0)" opacity="0.35"/>
<circle cx="144" cy="384" r="9" fill="rgb(255,73,0)"/>
<circle cx="168" cy="384" r="12" fill="rgb(255,57,0)" opacity="0.35"/>
<circle cx="168" cy="384" r="9" fill="rgb(255,57,0)"/>
<circle cx="192" cy="384" r="12" fill="rgb(255,12,0)" opacity="0.35"/>
<circle cx="192" cy="384" r="9" fill="rgb(255,12,0)"/>
<circle cx="216" cy="384" r="12" fill="rgb(255,74,0)" opacity="0.35"/>
<circle cx="216" cy="384" r="9" fill="rgb(255,74,0)"/>
<circle cx="240" cy="384" r="12" fill="rgb(255,38,0)" opacity="0.35"/>
<circle cx="240" cy="384" r="9" fill="rgb(255,38,0)"/>
<circle cx="264" cy="384" r="12" fill="rgb(255,59,0)" opacity="0.35"/>
<circle cx="264" cy="384" r="9" fill="rgb(255,59,0)"/>
<circle cx="288" cy="384" r="12" fill="rgb(255,52,0)" opacity="0.35"/>
<circle cx="288" cy="384" r="9" fill="rgb(255,52,0)"/>
<circle cx="312" cy="384" r="12" fill="rgb(255,66,0)" opacity="0.35"/>
<circle cx="312" cy="384" r="9" fill="rgb(255,66,0)"/>
<circle cx="336" cy="384" r="12" fill="rgb(255,86,0)" opacity="0.35"/>
<circle cx="336" cy="384" r="9" fill="rgb(255,86,0)"/>
<circle cx="360" cy="384" r="12" fill="rgb(255,97,0)" opacity="0.35"/>
<circle cx="360" cy="384" r="9" fill="rgb(255,97,0)"/>
<circle cx="384" cy="384" r="12" fill="rgb(255,55,0)" opacity="0.35"/>
<circle cx="384" cy="384" r="9" fill="rgb(255,55,0)"/>
</svg>
