<svg xmlns="http://www.w3.org/2000/svg" viewBox="0 0 408 408" width="408" height="408" role="img" aria-label="LED preview of the Zones example graph">
<rect width="408" height="408" rx="10" fill="#05070a"/>
<circle cx="24" cy="24" r="12" fill="rgb(59,134,100)" opacity="0.35"/>
<circle cx="24" cy="24" r="9" fill="rgb(59,134,100)"/>
<circle cx="48" cy="24" r="12" fill="rgb(58,133,99)" opacity="0.35"/>
<circle cx="48" cy="24" r="9" fill="rgb(58,133,99)"/>
<circle cx="72" cy="24" r="12" fill="rgb(53,123,92)" opacity="0.35"/>
<circle cx="72" cy="24" r="9" fill="rgb(53,123,92)"/>
<circle cx="96" cy="24" r="12" fill="rgb(39,94,70)" opacity="0.35"/>
<circle cx="96" cy="24" r="9" fill="rgb(39,94,70)"/>
<circle cx="120" cy="24" r="12" fill="rgb(41,98,73)" opacity="0.35"/>
<circle cx="120" cy="24" r="9" fill="rgb(41,98,73)"/>
<circle cx="144" cy="24" r="12" fill="rgb(25,62,47)" opacity="0.35"/>
<circle cx="144" cy="24" r="9" fill="rgb(25,62,47)"/>
<circle cx="168" cy="24" r="12" fill="rgb(30,73,55)" opacity="0.35"/>
<circle cx="168" cy="24" r="9" fill="rgb(30,73,55)"/>
<circle cx="192" cy="24" r="12" fill="rgb(44,105,78)" opacity="0.35"/>
<circle cx="192" cy="24" r="9" fill="rgb(44,105,78)"/>
<circle cx="216" cy="24" r="12" fill="rgb(255,43,0)" opacity="0.35"/>
<circle cx="216" cy="24" r="9" fill="rgb(255,43,0)"/>
<circle cx="240" cy="24" r="12" fill="rgb(255,65,0)" opacity="0.35"/>
<circle cx="240" cy="24" r="9" fill="rgb(255,65,0)"/>
<circle cx="264" cy="24" r="12" fill="rgb(255,82,0)" opacity="0.35"/>
<circle cx="264" cy="24" r="9" fill="rgb(255,82,0)"/>
<circle cx="288" cy="24" r="12" fill="rgb(255,92,0)" opacity="0.35"/>
<circle cx="288" cy="24" r="9" fill="rgb(255,92,0)"/>
<circle cx="312" cy="24" r="12" fill="rgb(255,96,0)" opacity="0.35"/>
<circle cx="312" cy="24" r="9" fill="rgb(255,96,0)"/>
<circle cx="336" cy="24" r="12" fill="rgb(255,95,0)" opacity="0.35"/>
<circle cx="336" cy="24" r="9" fill="rgb(255,95,0)"/>
<circle cx="360" cy="24" r="12" fill="rgb(255,91,0)" opacity="0.35"/>
<circle cx="360" cy="24" r="9" fill="rgb(255,91,0)"/>
<circle cx="384" cy="24" r="12" fill="rgb(255,88,0)" opacity="0.35"/>
<circle cx="384" cy="24" r="9" fill="rgb(255,88,0)"/>
<circle cx="24" cy="48" r="12" fill="rgb(35,83,62)" opacity="0.35"/>
<circle cx="24" cy="48" r="9" fill="rgb(35,83,62)"/>
<circle cx="48" cy="48" r="12" fill="rgb(33,80,60)" opacity="0.35"/>
<circle cx="48" cy="48" r="9" fill="rgb(33,80,60)"/>
<circle cx="72" cy="48" r="12" fill="rgb(34,82,61)" opacity="0.35"/>
<circle cx="72" cy="48" r="9" fill="rgb(34,82,61)"/>
<circle cx="96" cy="48" r="12" fill="rgb(33,81,60)" opacity="0.35"/>
<circle cx="96" cy="48" r="9" fill="rgb(33,81,60)"/>
<circle cx="120" cy="48" r="12" fill="rgb(31,76,57)" opacity="0.35"/>
<circle cx="120" cy="48" r="9" fill="rgb(31,76,57)"/>
<circle cx="144" cy="48" r="12" fill="rgb(26,65,49)" opacity="0.35"/>
<circle cx="144" cy="48" r="9" fill="rgb(26,65,49)"/>
<circle cx="168" cy="48" r="12" fill="rgb(32,77,57)" opacity="0.35"/>
<circle cx="168" cy="48" r="9" fill="rgb(32,77,57)"/>
<circle cx="192" cy="48" r="12" fill="rgb(37,88,66)" opacity="0.35"/>
<circle cx="192" cy="48" r="9" fill="rgb(37,88,66)"/>
<circle cx="216" cy="48" r="12" fill="rgb(208,3,249)" opacity="0.35"/>
<circle cx="216" cy="48" r="9" fill="rgb(208,3,249)"/>
<circle cx="240" cy="48" r="12" fill="rgb(255,21,0)" opacity="0.35"/>
<circle cx="240" cy="48" r="9" fill="rgb(255,21,0)"/>
<circle cx="264" cy="48" r="12" fill="rgb(255,40,0)" opacity="0.35"/>
<circle cx="264" cy="48" r="9" fill="rgb(255,40,0)"/>
<circle cx="288" cy="48" r="12" fill="rgb(255,51,0)" opacity="0.35"/>
<circle cx="288" cy="48" r="9" fill="rgb(255,51,0)"/>
<circle cx="312" cy="48" r="12" fill="rgb(255,55,0)" opacity="0.35"/>
<circle cx="312" cy="48" r="9" fill="rgb(255,55,0)"/>
<circle cx="336" cy="48" r="12" fill="rgb(255,53,0)" opacity="0.35"/>
<circle cx="336" cy="48" r="9" fill="rgb(255,53,0)"/>
<circle cx="360" cy="48" r="12" fill="rgb(255,48,0)" opacity="0.35"/>
<circle cx="360" cy="48" r="9" fill="rgb(255,48,0)"/>
<circle cx="384" cy="48" r="12" fill="rgb(255,44,0)" opacity="0.35"/>
<circle cx="384" cy="48" r="9" fill="rgb(255,44,0)"/>
<circle cx="24" cy="72" r="12" fill="rgb(32,77,58)" opacity="0.35"/>
<circle cx="24" cy="72" r="9" fill="rgb(32,77,58)"/>
<circle cx="48" cy="72" r="12" fill="rgb(31,76,57)" opacity="0.35"/>
<circle cx="48" cy="72" r="9" fill="rgb(31,76,57)"/>
<circle cx="72" cy="72" r="12" fill="rgb(33,80,60)" opacity="0.35"/>
<circle cx="72" cy="72" r="9" fill="rgb(33,80,60)"/>
<circle cx="96" cy="72" r="12" fill="rgb(31,76,56)" opacity="0.35"/>
<circle cx="96" cy="72" r="9" fill="rgb(31,76,56)"/>
<circle cx="120" cy="72" r="12" fill="rgb(36,86,64)" opacity="0.35"/>
<circle cx="120" cy="72" r="9" fill="rgb(36,86,64)"/>
<circle cx="144" cy="72" r="12" fill="rgb(34,82,61)" opacity="0.35"/>
<circle cx="144" cy="72" r="9" fill="rgb(34,82,61)"/>
<circle cx="168" cy="72" r="12" fill="rgb(31,76,56)" opacity="0.35"/>
<circle cx="168" cy="72" r="9" fill="rgb(31,76,56)"/>
<circle cx="192" cy="72" r="12" fill="rgb(33,80,60)" opacity="0.35"/>
<circle cx="192" cy="72" r="9" fill="rgb(33,80,60)"/>
<circle cx="216" cy="72" r="12" fill="rgb(175,18,250)" opacity="0.35"/>
<circle cx="216" cy="72" r="9" fill="rgb(175,18,250)"/>
<circle cx="240" cy="72" r="12" fill="rgb(255,0,0)" opacity="0.35"/>
<circle cx="240" cy="72" r="9" fill="rgb(255,0,0)"/>
<circle cx="264" cy="72" r="12" fill="rgb(255,21,0)" opacity="0.35"/>
<circle cx="264" cy="72" r="9" fill="rgb(255,21,0)"/>
<circle cx="288" cy="72" r="12" fill="rgb(255,32,0)" opacity="0.35"/>
<circle cx="288" cy="72" r="9" fill="rgb(255,32,0)"/>
<circle cx="312" cy="72" r="12" fill="rgb(255,34,0)" opacity="0.35"/>
<circle cx="312" cy="72" r="9" fill="rgb(255,34,0)"/>
<circle cx="336" cy="72" r="12" fill="rgb(255,30,0)" opacity="0.35"/>
<circle cx="336" cy="72" r="9" fill="rgb(255,30,0)"/>
<circle cx="360" cy="72" r="12" fill="rgb(255,23,0)" opacity="0.35"/>
<circle cx="360" cy="72" r="9" fill="rgb(255,23,0)"/>
<circle cx="384" cy="72" r="12" fill="rgb(255,16,0)" opacity="0.35"/>
<circle cx="384" cy="72" r="9" fill="rgb(255,16,0)"/>
<circle cx="24" cy="96" r="12" fill="rgb(38,92,68)" opacity="0.35"/>
<circle cx="24" cy="96" r="9" fill="rgb(38,92,68)"/>
<circle cx="48" cy="96" r="12" fill="rgb(31,77,57)" opacity="0.35"/>
<circle cx="48" cy="96" r="9" fill="rgb(31,77,57)"/>
<circle cx="72" cy="96" r="12" fill="rgb(43,101,75)" opacity="0.35"/>
<circle cx="72" cy="96" r="9" fill="rgb(43,101,75)"/>
<circle cx="96" cy="96" r="12" fill="rgb(45,105,78)" opacity="0.35"/>
<circle cx="96" cy="96" r="9" fill="rgb(45,105,78)"/>
<circle cx="120" cy="96" r="12" fill="rgb(33,80,59)" opacity="0.35"/>
<circle cx="120" cy="96" r="9" fill="rgb(33,80,59)"/>
<circle cx="144" cy="96" r="12" fill="rgb(30,74,55)" opacity="0.35"/>
<circle cx="144" cy="96" r="9" fill="rgb(30,74,55)"/>
<circle cx="168" cy="96" r="12" fill="rgb(29,72,53)" opacity="0.35"/>
<circle cx="168" cy="96" r="9" fill="rgb(29,72,53)"/>
<circle cx="192" cy="96" r="12" fill="rgb(29,70,52)" opacity="0.35"/>
<circle cx="192" cy="96" r="9" fill="rgb(29,70,52)"/>
<circle cx="216" cy="96" r="12" fill="rgb(176,18,250)" opacity="0.35"/>
<circle cx="216" cy="96" r="9" fill="rgb(176,18,250)"/>
<circle cx="240" cy="96" r="12" fill="rgb(255,5,0)" opacity="0.35"/>
<circle cx="240" cy="96" r="9" fill="rgb(255,5,0)"/>
<circle cx="264" cy="96" r="12" fill="rgb(255,27,0)" opacity="0.35"/>
<circle cx="264" cy="96" r="9" fill="rgb(255,27,0)"/>
<circle cx="288" cy="96" r="12" fill="rgb(255,37,0)" opacity="0.35"/>
<circle cx="288" cy="96" r="9" fill="rgb(255,37,0)"/>
<circle cx="312" cy="96" r="12" fill="rgb(255,37,0)" opacity="0.35"/>
<circle cx="312" cy="96" r="9" fill="rgb(255,37,0)"/>
<circle cx="336" cy="96" r="12" fill="rgb(255,29,0)" opacity="0.35"/>
<circle cx="336" cy="96" r="9" fill="rgb(255,29,0)"/>
<circle cx="360" cy="96" r="12" fill="rgb(255,17,0)" opacity="0.35"/>
<circle cx="360" cy="96" r="9" fill="rgb(255,17,0)"/>
<circle cx="384" cy="96" r="12" fill="rgb(255,7,0)" opacity="0.35"/>
<circle cx="384" cy="96" r="9" fill="rgb(255,7,0)"/>
<circle cx="24" cy="120" r="12" fill="rgb(35,85,63)" opacity="0.35"/>
<circle cx="24" cy="120" r="9" fill="rgb(35,85,63)"/>
<circle cx="48" cy="120" r="12" fill="rgb(36,87,65)" opacity="0.35"/>
<circle cx="48" cy="120" r="9" fill="rgb(36,87,65)"/>
<circle cx="72" cy="120" r="12" fill="rgb(42,100,74)" opacity="0.35"/>
<circle cx="72" cy="120" r="9" fill="rgb(42,100,74)"/>
<circle cx="96" cy="120" r="12" fill="rgb(43,101,75)" opacity="0.35"/>
<circle cx="96" cy="120" r="9" fill="rgb(43,101,75)"/>
<circle cx="120" cy="120" r="12" fill="rgb(47,111,82)" opacity="0.35"/>
<circle cx="120" cy="120" r="9" fill="rgb(47,111,82)"/>
<circle cx="144" cy="120" r="12" fill="rgb(38,91,68)" opacity="0.35"/>
<circle cx="144" cy="120" r="9" fill="rgb(38,91,68)"/>
<circle cx="168" cy="120" r="12" fill="rgb(35,84,63)" opacity="0.35"/>
<circle cx="168" cy="120" r="9" fill="rgb(35,84,63)"/>
<circle cx="192" cy="120" r="12" fill="rgb(44,104,77)" opacity="0.35"/>
<circle cx="192" cy="120" r="9" fill="rgb(44,104,77)"/>
<circle cx="216" cy="120" r="12" fill="rgb(210,2,249)" opacity="0.35"/>
<circle cx="216" cy="120" r="9" fill="rgb(210,2,249)"/>
<circle cx="240" cy="120" r="12" fill="rgb(255,34,0)" opacity="0.35"/>
<circle cx="240" cy="120" r="9" fill="rgb(255,34,0)"/>
<circle cx="264" cy="120" r="12" fill="rgb(255,56,0)" opacity="0.35"/>
<circle cx="264" cy="120" r="9" fill="rgb(255,56,0)"/>
<circle cx="288" cy="120" r="12" fill="rgb(255,65,0)" opacity="0.35"/>
<circle cx="288" cy="120" r="9" fill="rgb(255,65,0)"/>
<circle cx="312" cy="120" r="12" fill="rgb(255,61,0)" opacity="0.35"/>
<circle cx="312" cy="120" r="9" fill="rgb(255,61,0)"/>
<circle cx="336" cy="120" r="12" fill="rgb(255,49,0)" opacity="0.35"/>
<circle cx="336" cy="120" r="9" fill="rgb(255,49,0)"/>
<circle cx="360" cy="120" r="12" fill="rgb(255,32,0)" opacity="0.35"/>
<circle cx="360" cy="120" r="9" fill="rgb(255,32,0)"/>
<circle cx="384" cy="120" r="12" fill="rgb(255,16,0)" opacity="0.35"/>
<circle cx="384" cy="120" r="9" fill="rgb(255,16,0)"/>
<circle cx="24" cy="144" r="12" fill="rgb(35,85,63)" opacity="0.35"/>
<circle cx="24" cy="144" r="9" fill="rgb(35,85,63)"/>
<circle cx="48" cy="144" r="12" fill="rgb(36,87,65)" opacity="0.35"/>
<circle cx="48" cy="144" r="9" fill="rgb(36,87,65)"/>
<circle cx="72" cy="144" r="12" fill="rgb(38,90,67)" opacity="0.35"/>
<circle cx="72" cy="144" r="9" fill="rgb(38,90,67)"/>
<circle cx="96" cy="144" r="12" fill="rgb(49,115,85)" opacity="0.35"/>
<circle cx="96" cy="144" r="9" fill="rgb(49,115,85)"/>
<circle cx="120" cy="144" r="12" fill="rgb(74,167,124)" opacity="0.35"/>
<circle cx="120" cy="144" r="9" fill="rgb(74,167,124)"/>
<circle cx="144" cy="144" r="12" fill="rgb(61,139,103)" opacity="0.35"/>
<circle cx="144" cy="144" r="9" fill="rgb(61,139,103)"/>
<circle cx="168" cy="144" r="12" fill="rgb(81,181,134)" opacity="0.35"/>
<circle cx="168" cy="144" r="9" fill="rgb(81,181,134)"/>
<circle cx="192" cy="144" r="12" fill="rgb(60,136,101)" opacity="0.35"/>
<circle cx="192" cy="144" r="9" fill="rgb(60,136,101)"/>
<circle cx="216" cy="144" r="12" fill="rgb(255,45,0)" opacity="0.35"/>
<circle cx="216" cy="144" r="9" fill="rgb(255,45,0)"/>
<circle cx="240" cy="144" r="12" fill="rgb(255,84,0)" opacity="0.35"/>
<circle cx="240" cy="144" r="9" fill="rgb(255,84,0)"/>
<circle cx="264" cy="144" r="12" fill="rgb(255,106,0)" opacity="0.35"/>
<circle cx="264" cy="144" r="9" fill="rgb(255,106,0)"/>
<circle cx="288" cy="144" r="12" fill="rgb(255,112,0)" opacity="0.35"/>
<circle cx="288" cy="144" r="9" fill="rgb(255,112,0)"/>
<circle cx="312" cy="144" r="12" fill="rgb(255,105,0)" opacity="0.35"/>
<circle cx="312" cy="144" r="9" fill="rgb(255,105,0)"/>
<circle cx="336" cy="144" r="12" fill="rgb(255,87,0)" opacity="0.35"/>
<circle cx="336" cy="144" r="9" fill="rgb(255,87,0)"/>
<circle cx="360" cy="144" r="12" fill="rgb(255,65,0)" opacity="0.35"/>
<circle cx="360" cy="144" r="9" fill="rgb(255,65,0)"/>
<circle cx="384" cy="144" r="12" fill="rgb(255,43,0)" opacity="0.35"/>
<circle cx="384" cy="144" r="9" fill="rgb(255,43,0)"/>
<circle cx="24" cy="168" r="12" fill="rgb(64,145,108)" opacity="0.35"/>
<circle cx="24" cy="168" r="9" fill="rgb(64,145,108)"/>
<circle cx="48" cy="168" r="12" fill="rgb(60,137,102)" opacity="0.35"/>
<circle cx="48" cy="168" r="9" fill="rgb(60,137,102)"/>
<circle cx="72" cy="168" r="12" fill="rgb(44,105,78)" opacity="0.35"/>
<circle cx="72" cy="168" r="9" fill="rgb(44,105,78)"/>
<circle cx="96" cy="168" r="12" fill="rgb(59,134,100)" opacity="0.35"/>
<circle cx="96" cy="168" r="9" fill="rgb(59,134,100)"/>
<circle cx="120" cy="168" r="12" fill="rgb(79,176,131)" opacity="0.35"/>
<circle cx="120" cy="168" r="9" fill="rgb(79,176,131)"/>
<circle cx="144" cy="168" r="12" fill="rgb(86,185,138)" opacity="0.35"/>
<circle cx="144" cy="168" r="9" fill="rgb(86,185,138)"/>
<circle cx="168" cy="168" r="12" fill="rgb(73,164,122)" opacity="0.35"/>
<circle cx="168" cy="168" r="9" fill="rgb(73,164,122)"/>
<circle cx="192" cy="168" r="12" fill="rgb(42,99,73)" opacity="0.35"/>
<circle cx="192" cy="168" r="9" fill="rgb(42,99,73)"/>
<circle cx="216" cy="168" r="12" fill="rgb(255,108,0)" opacity="0.35"/>
<circle cx="216" cy="168" r="9" fill="rgb(255,108,0)"/>
<circle cx="240" cy="168" r="12" fill="rgb(255,143,0)" opacity="0.35"/>
<circle cx="240" cy="168" r="9" fill="rgb(255,143,0)"/>
<circle cx="264" cy="168" r="12" fill="rgb(255,158,0)" opacity="0.35"/>
<circle cx="264" cy="168" r="9" fill="rgb(255,158,0)"/>
<circle cx="288" cy="168" r="12" fill="rgb(255,161,0)" opacity="0.35"/>
<circle cx="288" cy="168" r="9" fill="rgb(255,161,0)"/>
<circle cx="312" cy="168" r="12" fill="rgb(255,152,0)" opacity="0.35"/>
<circle cx="312" cy="168" r="9" fill="rgb(255,152,0)"/>
<circle cx="336" cy="168" r="12" fill="rgb(255,136,0)" opacity="0.35"/>
<circle cx="336" cy="168" r="9" fill="rgb(255,136,0)"/>
<circle cx="360" cy="168" r="12" fill="rgb(255,113,0)" opacity="0.35"/>
<circle cx="360" cy="168" r="9" fill="rgb(255,113,0)"/>
<circle cx="384" cy="168" r="12" fill="rgb(255,85,0)" opacity="0.35"/>
<circle cx="384" cy="168" r="9" fill="rgb(255,85,0)"/>
<circle cx="24" cy="192" r="12" fill="rgb(79,176,131)" opacity="0.35"/>
<circle cx="24" cy="192" r="9" fill="rgb(79,176,131)"/>
<circle cx="48" cy="192" r="12" fill="rgb(114,197,156)" opacity="0.35"/>
<circle cx="48" cy="192" r="9" fill="rgb(114,197,156)"/>
<circle cx="72" cy="192" r="12" fill="rgb(65,148,110)" opacity="0.35"/>
<circle cx="72" cy="192" r="9" fill="rgb(65,148,110)"/>
<circle cx="96" cy="192" r="12" fill="rgb(52,121,90)" opacity="0.35"/>
<circle cx="96" cy="192" r="9" fill="rgb(52,121,90)"/>
<circle cx="120" cy="192" r="12" fill="rgb(76,171,127)" opacity="0.35"/>
<circle cx="120" cy="192" r="9" fill="rgb(76,171,127)"/>
<circle cx="144" cy="192" r="12" fill="rgb(72,163,121)" opacity="0.35"/>
<circle cx="144" cy="192" r="9" fill="rgb(72,163,121)"/>
<circle cx="168" cy="192" r="12" fill="rgb(55,127,94)" opacity="0.35"/>
<circle cx="168" cy="192" r="9" fill="rgb(55,127,94)"/>
<circle cx="192" cy="192" r="12" fill="rgb(46,109,81)" opacity="0.35"/>
<circle cx="192" cy="192" r="9" fill="rgb(46,109,81)"/>
<circle cx="216" cy="192" r="12" fill="rgb(255,167,0)" opacity="0.35"/>
<circle cx="216" cy="192" r="9" fill="rgb(255,167,0)"/>
<circle cx="240" cy="192" r="12" fill="rgb(255,198,0)" opacity="0.35"/>
<circle cx="240" cy="192" r="9" fill="rgb(255,198,0)"/>
<circle cx="264" cy="192" r="12" fill="rgb(255,212,0)" opacity="0.35"/>
<circle cx="264" cy="192" r="9" fill="rgb(255,212,0)"/>
<circle cx="288" cy="192" r="12" fill="rgb(255,212,0)" opacity="0.35"/>
<circle cx="288" cy="192" r="9" fill="rgb(255,212,0)"/>
<circle cx="312" cy="192" r="12" fill="rgb(255,201,0)" opacity="0.35"/>
<circle cx="312" cy="192" r="9" fill="rgb(255,201,0)"/>
<circle cx="336" cy="192" r="12" fill="rgb(255,182,0)" opacity="0.35"/>
<circle cx="336" cy="192" r="9" fill="rgb(255,182,0)"/>
<circle cx="360" cy="192" r="12" fill="rgb(255,158,0)" opacity="0.35"/>
<circle cx="360" cy="192" r="9" fill="rgb(255,158,0)"/>
<circle cx="384" cy="192" r="12" fill="rgb(255,133,0)" opacity="0.35"/>
<circle cx="384" cy="192" r="9" fill="rgb(255,133,0)"/>
<circle cx="24" cy="216" r="12" fill="rgb(37,89,66)" opacity="0.35"/>
<circle cx="24" cy="216" r="9" fill="rgb(37,89,66)"/>
<circle cx="48" cy="216" r="12" fill="rgb(46,108,81)" opacity="0.35"/>
<circle cx="48" cy="216" r="9" fill="rgb(46,108,81)"/>
<circle cx="72" cy="216" r="12" fill="rgb(51,119,89)" opacity="0.35"/>
<circle cx="72" cy="216" r="9" fill="rgb(51,119,89)"/>
<circle cx="96" cy="216" r="12" fill="rgb(45,105,78)" opacity="0.35"/>
<circle cx="96" cy="216" r="9" fill="rgb(45,105,78)"/>
<circle cx="120" cy="216" r="12" fill="rgb(32,77,57)" opacity="0.35"/>
<circle cx="120" cy="216" r="9" fill="rgb(32,77,57)"/>
<circle cx="144" cy="216" r="12" fill="rgb(41,97,73)" opacity="0.35"/>
<circle cx="144" cy="216" r="9" fill="rgb(41,97,73)"/>
<circle cx="168" cy="216" r="12" fill="rgb(39,93,69)" opacity="0.35"/>
<circle cx="168" cy="216" r="9" fill="rgb(39,93,69)"/>
<circle cx="192" cy="216" r="12" fill="rgb(35,85,64)" opacity="0.35"/>
<circle cx="192" cy="216" r="9" fill="rgb(35,85,64)"/>
<circle cx="216" cy="216" r="12" fill="rgb(109,211,244)" opacity="0.35"/>
<circle cx="216" cy="216" r="9" fill="rgb(109,211,244)"/>
<circle cx="240" cy="216" r="12" fill="rgb(93,206,243)" opacity="0.35"/>
<circle cx="240" cy="216" r="9" fill="rgb(93,206,243)"/>
<circle cx="264" cy="216" r="12" fill="rgb(81,199,239)" opacity="0.35"/>
<circle cx="264" cy="216" r="9" fill="rgb(81,199,239)"/>
<circle cx="288" cy="216" r="12" fill="rgb(70,190,235)" opacity="0.35"/>
<circle cx="288" cy="216" r="9" fill="rgb(70,190,235)"/>
<circle cx="312" cy="216" r="12" fill="rgb(60,182,230)" opacity="0.35"/>
<circle cx="312" cy="216" r="9" fill="rgb(60,182,230)"/>
<circle cx="336" cy="216" r="12" fill="rgb(50,173,226)" opacity="0.35"/>
<circle cx="336" cy="216" r="9" fill="rgb(50,173,226)"/>
<circle cx="360" cy="216" r="12" fill="rgb(39,165,221)" opacity="0.35"/>
<circle cx="360" cy="216" r="9" fill="rgb(39,165,221)"/>
<circle cx="384" cy="216" r="12" fill="rgb(29,157,217)" opacity="0.35"/>
<circle cx="384" cy="216" r="9" fill="rgb(29,157,217)"/>
<circle cx="24" cy="240" r="12" fill="rgb(39,93,69)" opacity="0.35"/>
<circle cx="24" cy="240" r="9" fill="rgb(39,93,69)"/>
<circle cx="48" cy="240" r="12" fill="rgb(39,92,69)" opacity="0.35"/>
<circle cx="48" cy="240" r="9" fill="rgb(39,92,69)"/>
<circle cx="72" cy="240" r="12" fill="rgb(39,93,69)" opacity="0.35"/>
<circle cx="72" cy="240" r="9" fill="rgb(39,93,69)"/>
<circle cx="96" cy="240" r="12" fill="rgb(24,61,45)" opacity="0.35"/>
<circle cx="96" cy="240" r="9" fill="rgb(24,61,45)"/>
<circle cx="120" cy="240" r="12" fill="rgb(32,78,58)" opacity="0.35"/>
<circle cx="120" cy="240" r="9" fill="rgb(32,78,58)"/>
<circle cx="144" cy="240" r="12" fill="rgb(32,77,57)" opacity="0.35"/>
<circle cx="144" cy="240" r="9" fill="rgb(32,77,57)"/>
<circle cx="168" cy="240" r="12" fill="rgb(24,61,45)" opacity="0.35"/>
<circle cx="168" cy="240" r="9" fill="rgb(24,61,45)"/>
<circle cx="192" cy="240" r="12" fill="rgb(31,75,56)" opacity="0.35"/>
<circle cx="192" cy="240" r="9" fill="rgb(31,75,56)"/>
<circle cx="216" cy="240" r="12" fill="rgb(105,209,244)" opacity="0.35"/>
<circle cx="216" cy="240" r="9" fill="rgb(105,209,244)"/>
<circle cx="240" cy="240" r="12" fill="rgb(89,205,242)" opacity="0.35"/>
<circle cx="240" cy="240" r="9" fill="rgb(89,205,242)"/>
<circle cx="264" cy="240" r="12" fill="rgb(79,197,238)" opacity="0.35"/>
<circle cx="264" cy="240" r="9" fill="rgb(79,197,238)"/>
<circle cx="288" cy="240" r="12" fill="rgb(69,189,234)" opacity="0.35"/>
<circle cx="288" cy="240" r="9" fill="rgb(69,189,234)"/>
<circle cx="312" cy="240" r="12" fill="rgb(58,180,229)" opacity="0.35"/>
<circle cx="312" cy="240" r="9" fill="rgb(58,180,229)"/>
<circle cx="336" cy="240" r="12" fill="rgb(48,172,225)" opacity="0.35"/>
<circle cx="336" cy="240" r="9" fill="rgb(48,172,225)"/>
<circle cx="360" cy="240" r="12" fill="rgb(38,164,220)" opacity="0.35"/>
<circle cx="360" cy="240" r="9" fill="rgb(38,164,220)"/>
<circle cx="384" cy="240" r="12" fill="rgb(28,156,216)" opacity="0.35"/>
<circle cx="384" cy="240" r="9" fill="rgb(28,156,216)"/>
<circle cx="24" cy="264" r="12" fill="rgb(47,110,82)" opacity="0.35"/>
<circle cx="24" cy="264" r="9" fill="rgb(47,110,82)"/>
<circle cx="48" cy="264" r="12" fill="rgb(54,125,93)" opacity="0.35"/>
<circle cx="48" cy="264" r="9" fill="rgb(54,125,93)"/>
<circle cx="72" cy="264" r="12" fill="rgb(48,113,84)" opacity="0.35"/>
<circle cx="72" cy="264" r="9" fill="rgb(48,113,84)"/>
<circle cx="96" cy="264" r="12" fill="rgb(24,61,45)" opacity="0.35"/>
<circle cx="96" cy="264" r="9" fill="rgb(24,61,45)"/>
<circle cx="120" cy="264" r="12" fill="rgb(32,77,57)" opacity="0.35"/>
<circle cx="120" cy="264" r="9" fill="rgb(32,77,57)"/>
<circle cx="144" cy="264" r="12" fill="rgb(41,97,73)" opacity="0.35"/>
<circle cx="144" cy="264" r="9" fill="rgb(41,97,73)"/>
<circle cx="168" cy="264" r="12" fill="rgb(31,75,56)" opacity="0.35"/>
<circle cx="168" cy="264" r="9" fill="rgb(31,75,56)"/>
<circle cx="192" cy="264" r="12" fill="rgb(39,93,70)" opacity="0.35"/>
<circle cx="192" cy="264" r="9" fill="rgb(39,93,70)"/>
<circle cx="216" cy="264" r="12" fill="rgb(101,208,243)" opacity="0.35"/>
<circle cx="216" cy="264" r="9" fill="rgb(101,208,243)"/>
<circle cx="240" cy="264" r="12" fill="rgb(86,203,242)" opacity="0.35"/>
<circle cx="240" cy="264" r="9" fill="rgb(86,203,242)"/>
<circle cx="264" cy="264" r="12" fill="rgb(77,195,237)" opacity="0.35"/>
<circle cx="264" cy="264" r="9" fill="rgb(77,195,237)"/>
<circle cx="288" cy="264" r="12" fill="rgb(67,187,233)" opacity="0.35"/>
<circle cx="288" cy="264" r="9" fill="rgb(67,187,233)"/>
<circle cx="312" cy="264" r="12" fill="rgb(56,179,229)" opacity="0.35"/>
<circle cx="312" cy="264" r="9" fill="rgb(56,179,229)"/>
<circle cx="336" cy="264" r="12" fill="rgb(46,171,224)" opacity="0.35"/>
<circle cx="336" cy="264" r="9" fill="rgb(46,171,224)"/>
<circle cx="360" cy="264" r="12" fill="rgb(36,162,220)" opacity="0.35"/>
<circle cx="360" cy="264" r="9" fill="rgb(36,162,220)"/>
<circle cx="384" cy="264" r="12" fill="rgb(27,155,216)" opacity="0.35"/>
<circle cx="384" cy="264" r="9" fill="rgb(27,155,216)"/>
<circle cx="24" cy="288" r="12" fill="rgb(60,136,101)" opacity="0.35"/>
<circle cx="24" cy="288" r="9" fill="rgb(60,136,101)"/>
<circle cx="48" cy="288" r="12" fill="rgb(93,188,143)" opacity="0.35"/>
<circle cx="48" cy="288" r="9" fill="rgb(93,188,143)"/>
<circle cx="72" cy="288" r="12" fill="rgb(69,156,116)" opacity="0.35"/>
<circle cx="72" cy="288" r="9" fill="rgb(69,156,116)"/>
<circle cx="96" cy="288" r="12" fill="rgb(42,99,74)" opacity="0.35"/>
<circle cx="96" cy="288" r="9" fill="rgb(42,99,74)"/>
<circle cx="120" cy="288" r="12" fill="rgb(38,91,68)" opacity="0.35"/>
<circle cx="120" cy="288" r="9" fill="rgb(38,91,68)"/>
<circle cx="144" cy="288" r="12" fill="rgb(30,73,54)" opacity="0.35"/>
<circle cx="144" cy="288" r="9" fill="rgb(30,73,54)"/>
<circle cx="168" cy="288" r="12" fill="rgb(30,73,54)" opacity="0.35"/>
<circle cx="168" cy="288" r="9" fill="rgb(30,73,54)"/>
<circle cx="192" cy="288" r="12" fill="rgb(34,81,61)" opacity="0.35"/>
<circle cx="192" cy="288" r="9" fill="rgb(34,81,61)"/>
<circle cx="216" cy="288" r="12" fill="rgb(96,207,243)" opacity="0.35"/>
<circle cx="216" cy="288" r="9" fill="rgb(96,207,243)"/>
<circle cx="240" cy="288" r="12" fill="rgb(84,201,241)" opacity="0.35"/>
<circle cx="240" cy="288" r="9" fill="rgb(84,201,241)"/>
<circle cx="264" cy="288" r="12" fill="rgb(74,194,236)" opacity="0.35"/>
<circle cx="264" cy="288" r="9" fill="rgb(74,194,236)"/>
<circle cx="288" cy="288" r="12" fill="rgb(65,186,232)" opacity="0.35"/>
<circle cx="288" cy="288" r="9" fill="rgb(65,186,232)"/>
<circle cx="312" cy="288" r="12" fill="rgb(55,177,228)" opacity="0.35"/>
<circle cx="312" cy="288" r="9" fill="rgb(55,177,228)"/>
<circle cx="336" cy="288" r="12" fill="rgb(45,169,223)" opacity="0.35"/>
<circle cx="336" cy="288" r="9" fill="rgb(45,169,223)"/>
<circle cx="360" cy="288" r="12" fill="rgb(35,161,219)" opacity="0.35"/>
<circle cx="360" cy="288" r="9" fill="rgb(35,161,219)"/>
<circle cx="384" cy="288" r="12" fill="rgb(25,153,215)" opacity="0.35"/>
<circle cx="384" cy="288" r="9" fill="rgb(25,153,215)"/>
<circle cx="24" cy="312" r="12" fill="rgb(43,102,76)" opacity="0.35"/>
<circle cx="24" cy="312" r="9" fill="rgb(43,102,76)"/>
<circle cx="48" cy="312" r="12" fill="rgb(65,147,110)" opacity="0.35"/>
<circle cx="48" cy="312" r="9" fill="rgb(65,147,110)"/>
<circle cx="72" cy="312" r="12" fill="rgb(64,146,109)" opacity="0.35"/>
<circle cx="72" cy="312" r="9" fill="rgb(64,146,109)"/>
<circle cx="96" cy="312" r="12" fill="rgb(59,135,100)" opacity="0.35"/>
<circle cx="96" cy="312" r="9" fill="rgb(59,135,100)"/>
<circle cx="120" cy="312" r="12" fill="rgb(46,108,80)" opacity="0.35"/>
<circle cx="120" cy="312" r="9" fill="rgb(46,108,80)"/>
<circle cx="144" cy="312" r="12" fill="rgb(38,91,68)" opacity="0.35"/>
<circle cx="144" cy="312" r="9" fill="rgb(38,91,68)"/>
<circle cx="168" cy="312" r="12" fill="rgb(40,95,71)" opacity="0.35"/>
<circle cx="168" cy="312" r="9" fill="rgb(40,95,71)"/>
<circle cx="192" cy="312" r="12" fill="rgb(53,123,92)" opacity="0.35"/>
<circle cx="192" cy="312" r="9" fill="rgb(53,123,92)"/>
<circle cx="216" cy="312" r="12" fill="rgb(92,205,242)" opacity="0.35"/>
<circle cx="216" cy="312" r="9" fill="rgb(92,205,242)"/>
<circle cx="240" cy="312" r="12" fill="rgb(81,199,239)" opacity="0.35"/>
<circle cx="240" cy="312" r="9" fill="rgb(81,199,239)"/>
<circle cx="264" cy="312" r="12" fill="rgb(72,192,235)" opacity="0.35"/>
<circle cx="264" cy="312" r="9" fill="rgb(72,192,235)"/>
<circle cx="288" cy="312" r="12" fill="rgb(62,184,231)" opacity="0.35"/>
<circle cx="288" cy="312" r="9" fill="rgb(62,184,231)"/>
<circle cx="312" cy="312" r="12" fill="rgb(52,176,227)" opacity="0.35"/>
<circle cx="312" cy="312" r="9" fill="rgb(52,176,227)"/>
<circle cx="336" cy="312" r="12" fill="rgb(43,168,223)" opacity="0.35"/>
<circle cx="336" cy="312" r="9" fill="rgb(43,168,223)"/>
<circle cx="360" cy="312" r="12" fill="rgb(33,160,218)" opacity="0.35"/>
<circle cx="360" cy="312" r="9" fill="rgb(33,160,218)"/>
<circle cx="384" cy="312" r="12" fill="rgb(24,152,214)" opacity="0.35"/>
<circle cx="384" cy="312" r="9" fill="rgb(24,152,214)"/>
<circle cx="24" cy="336" r="12" fill="rgb(45,106,79)" opacity="0.35"/>
<circle cx="24" cy="336" r="9" fill="rgb(45,106,79)"/>
<circle cx="48" cy="336" r="12" fill="rgb(77,174,129)" opacity="0.35"/>
<circle cx="48" cy="336" r="9" fill="rgb(77,174,129)"/>
<circle cx="72" cy="336" r="12" fill="rgb(106,194,151)" opacity="0.35"/>
<circle cx="72" cy="336" r="9" fill="rgb(106,194,151)"/>
<circle cx="96" cy="336" r="12" fill="rgb(74,167,124)" opacity="0.35"/>
<circle cx="96" cy="336" r="9" fill="rgb(74,167,124)"/>
<circle cx="120" cy="336" r="12" fill="rgb(70,159,118)" opacity="0.35"/>
<circle cx="120" cy="336" r="9" fill="rgb(70,159,118)"/>
<circle cx="144" cy="336" r="12" fill="rgb(61,139,103)" opacity="0.35"/>
<circle cx="144" cy="336" r="9" fill="rgb(61,139,103)"/>
<circle cx="168" cy="336" r="12" fill="rgb(53,124,92)" opacity="0.35"/>
<circle cx="168" cy="336" r="9" fill="rgb(53,124,92)"/>
<circle cx="192" cy="336" r="12" fill="rgb(56,130,97)" opacity="0.35"/>
<circle cx="192" cy="336" r="9" fill="rgb(56,130,97)"/>
<circle cx="216" cy="336" r="12" fill="rgb(87,204,242)" opacity="0.35"/>
<circle cx="216" cy="336" r="9" fill="rgb(87,204,242)"/>
<circle cx="240" cy="336" r="12" fill="rgb(79,197,238)" opacity="0.35"/>
<circle cx="240" cy="336" r="9" fill="rgb(79,197,238)"/>
<circle cx="264" cy="336" r="12" fill="rgb(70,190,234)" opacity="0.35"/>
<circle cx="264" cy="336" r="9" fill="rgb(70,190,234)"/>
<circle cx="288" cy="336" r="12" fill="rgb(60,182,230)" opacity="0.35"/>
<circle cx="288" cy="336" r="9" fill="rgb(60,182,230)"/>
<circle cx="312" cy="336" r="12" fill="rgb(50,174,226)" opacity="0.35"/>
<circle cx="312" cy="336" r="9" fill="rgb(50,174,226)"/>
<circle cx="336" cy="336" r="12" fill="rgb(41,166,222)" opacity="0.35"/>
<circle cx="336" cy="336" r="9" fill="rgb(41,166,222)"/>
<circle cx="360" cy="336" r="12" fill="rgb(31,158,218)" opacity="0.35"/>
<circle cx="360" cy="336" r="9" fill="rgb(31,158,218)"/>
<circle cx="384" cy="336" r="12" fill="rgb(22,151,214)" opacity="0.35"/>
<circle cx="384" cy="336" r="9" fill="rgb(22,151,214)"/>
<circle cx="24" cy="360" r="12" fill="rgb(56,128,96)" opacity="0.35"/>
<circle cx="24" cy="360" r="9" fill="rgb(56,128,96)"/>
<circle cx="48" cy="360" r="12" fill="rgb(76,170,127)" opacity="0.35"/>
<circle cx="48" cy="360" r="9" fill="rgb(76,170,127)"/>
<circle cx="72" cy="360" r="12" fill="rgb(125,202,163)" opacity="0.35"/>
<circle cx="72" cy="360" r="9" fill="rgb(125,202,163)"/>
<circle cx="96" cy="360" r="12" fill="rgb(127,203,164)" opacity="0.35"/>
<circle cx="96" cy="360" r="9" fill="rgb(127,203,164)"/>
<circle cx="120" cy="360" r="12" fill="rgb(87,185,139)" opacity="0.35"/>
<circle cx="120" cy="360" r="9" fill="rgb(87,185,139)"/>
<circle cx="144" cy="360" r="12" fill="rgb(66,150,112)" opacity="0.35"/>
<circle cx="144" cy="360" r="9" fill="rgb(66,150,112)"/>
<circle cx="168" cy="360" r="12" fill="rgb(61,140,104)" opacity="0.35"/>
<circle cx="168" cy="360" r="9" fill="rgb(61,140,104)"/>
<circle cx="192" cy="360" r="12" fill="rgb(74,165,123)" opacity="0.35"/>
<circle cx="192" cy="360" r="9" fill="rgb(74,165,123)"/>
<circle cx="216" cy="360" r="12" fill="rgb(84,202,241)" opacity="0.35"/>
<circle cx="216" cy="360" r="9" fill="rgb(84,202,241)"/>
<circle cx="240" cy="360" r="12" fill="rgb(76,195,237)" opacity="0.35"/>
<circle cx="240" cy="360" r="9" fill="rgb(76,195,237)"/>
<circle cx="264" cy="360" r="12" fill="rgb(67,188,233)" opacity="0.35"/>
<circle cx="264" cy="360" r="9" fill="rgb(67,188,233)"/>
<circle cx="288" cy="360" r="12" fill="rgb(58,180,229)" opacity="0.35"/>
<circle cx="288" cy="360" r="9" fill="rgb(58,180,229)"/>
<circle cx="312" cy="360" r="12" fill="rgb(48,172,225)" opacity="0.35"/>
<circle cx="312" cy="360" r="9" fill="rgb(48,172,225)"/>
<circle cx="336" cy="360" r="12" fill="rgb(39,164,221)" opacity="0.35"/>
<circle cx="336" cy="360" r="9" fill="rgb(39,164,221)"/>
<circle cx="360" cy="360" r="12" fill="rgb(29,157,217)" opacity="0.35"/>
<circle cx="360" cy="360" r="9" fill="rgb(29,157,217)"/>
<circle cx="384" cy="360" r="12" fill="rgb(20,149,213)" opacity="0.35"/>
<circle cx="384" cy="360" r="9" fill="rgb(20,149,213)"/>
<circle cx="24" cy="384" r="12" fill="rgb(41,98,73)" opacity="0.35"/>
<circle cx="24" cy="384" r="9" fill="rgb(41,98,73)"/>
<circle cx="48" cy="384" r="12" fill="rgb(56,129,96)" opacity="0.35"/>
<circle cx="48" cy="384" r="9" fill="rgb(56,129,96)"/>
<circle cx="72" cy="384" r="12" fill="rgb(104,193,150)" opacity="0.35"/>
<circle cx="72" cy="384" r="9" fill="rgb(104,193,150)"/>
<circle cx="96" cy="384" r="12" fill="rgb(105,193,151)" opacity="0.35"/>
<circle cx="96" cy="384" r="9" fill="rgb(105,193,151)"/>
<circle cx="120" cy="384" r="12" fill="rgb(63,143,106)" opacity="0.35"/>
<circle cx="120" cy="384" r="9" fill="rgb(63,143,106)"/>
<circle cx="144" cy="384" r="12" fill="rgb(66,151,112)" opacity="0.35"/>
<circle cx="144" cy="384" r="9" fill="rgb(66,151,112)"/>
<circle cx="168" cy="384" r="12" fill="rgb(69,156,116)" opacity="0.35"/>
<circle cx="168" cy="384" r="9" fill="rgb(69,156,116)"/>
<circle cx="192" cy="384" r="12" fill="rgb(44,104,77)" opacity="0.35"/>
<circle cx="192" cy="384" r="9" fill="rgb(44,104,77)"/>
<circle cx="216" cy="384" r="12" fill="rgb(81,199,239)" opacity="0.35"/>
<circle cx="216" cy="384" r="9" fill="rgb(81,199,239)"/>
<circle cx="240" cy="384" r="12" fill="rgb(73,193,236)" opacity="0.35"/>
<circle cx="240" cy="384" r="9" fill="rgb(73,193,236)"/>
<circle cx="264" cy="384" r="12" fill="rgb(64,185,232)" opacity="0.35"/>
<circle cx="264" cy="384" r="9" fill="rgb(64,185,232)"/>
<circle cx="288" cy="384" r="12" fill="rgb(55,178,228)" opacity="0.35"/>
<circle cx="288" cy="384" r="9" fill="rgb(55,178,228)"/>
<circle cx="312" cy="384" r="12" fill="rgb(46,170,224)" opacity="0.35"/>
<circle cx="312" cy="384" r="9" fill="rgb(46,170,224)"/>
<circle cx="336" cy="384" r="12" fill="rgb(36,162,220)" opacity="0.35"/>
<circle cx="336" cy="384" r="9" fill="rgb(36,162,220)"/>
<circle cx="360" cy="384" r="12" fill="rgb(27,155,216)" opacity="0.35"/>
<circle cx="360" cy="384" r="9" fill="rgb(27,155,216)"/>
<circle cx="384" cy="384" r="12" fill="rgb(18,148,212)" opacity="0.35"/>
<circle cx="384" cy="384" r="9" fill="rgb(18,148,212)"/>
</svg>
